M48
;DRILL file {Pcbnew (2011-nov-30)-testing} date Wed 20 Jun 2012 12:47:18 PM EDT
;FORMAT={-:-/ absolute / inch / decimal}
FMAT,2
INCH,TZ
T1C0.025
T2C0.040
T3C0.047
%
G90
G05
M72
T1
X0.392Y1.931
X0.529Y2.029
X0.647Y1.676
X0.862Y1.245
X0.960Y0.304
X1.039Y1.225
X1.058Y1.735
X1.117Y0.990
X1.431Y1.558
X1.548Y1.225
X1.725Y0.990
X1.772Y1.240
T2
X0.108Y0.598
X0.108Y0.398
X0.408Y0.598
X0.408Y0.398
X0.494Y1.711
X0.494Y1.611
X0.494Y1.511
X0.494Y1.411
X0.541Y0.282
X0.541Y0.144
X0.640Y2.051
X0.641Y0.282
X0.641Y0.144
X0.642Y1.964
X0.740Y2.051
X0.741Y0.282
X0.741Y0.144
X0.742Y1.964
X0.759Y1.552
X0.759Y1.452
X0.840Y2.051
X0.841Y0.282
X0.841Y0.144
X0.842Y1.964
X0.859Y1.552
X0.859Y1.452
X0.940Y2.051
X0.942Y1.964
X1.000Y0.148
X1.040Y2.051
X1.042Y1.964
X1.100Y0.148
X1.140Y2.051
X1.142Y1.964
X1.200Y0.148
X1.240Y2.051
X1.242Y1.964
X1.300Y0.148
X1.340Y2.051
X1.342Y1.964
X1.400Y0.148
X1.497Y1.964
X1.498Y2.051
X1.500Y0.148
X1.597Y1.964
X1.598Y2.051
X1.697Y1.964
X1.698Y2.051
X1.700Y0.243
X1.700Y0.148
X1.797Y1.964
X1.798Y2.051
X1.800Y0.243
X1.800Y0.148
X1.897Y1.964
X1.898Y2.051
X1.900Y0.243
X1.900Y0.148
X1.997Y1.964
X1.998Y2.051
X2.000Y0.243
X2.000Y0.148
X2.097Y1.964
X2.098Y2.051
X2.100Y0.243
X2.100Y0.148
X2.197Y1.964
X2.198Y2.051
X2.200Y0.243
X2.200Y0.148
T3
X1.187Y0.648
X1.238Y1.758
X1.289Y0.443
X1.317Y1.554
X1.360Y0.648
X1.431Y1.758
X1.451Y0.443
X1.525Y1.554
X1.569Y0.648
X1.643Y1.758
X1.663Y0.443
X1.734Y1.554
X1.777Y0.648
X1.805Y1.758
X1.856Y0.443
X1.907Y1.554
T0
M30
