G04 (created by PCBNEW-RS274X (2011-nov-30)-testing) date Wed 20 Jun 2012 12:50:12 PM EDT*
%MOIN*%
G04 Gerber Fmt 3.4, Leading zero omitted, Abs format*
%FSLAX34Y34*%
G01*
G70*
G90*
G04 APERTURE LIST*
%ADD10C,0.006*%
%ADD11R,0.055X0.035*%
%ADD12R,0.0472X0.0472*%
%ADD13R,0.06X0.06*%
%ADD14C,0.06*%
%ADD15O,0.0511X0.059*%
%ADD16O,0.051X0.0589*%
%ADD17C,0.035*%
%ADD18C,0.014*%
%ADD19C,0.01*%
G04 APERTURE END LIST*
G54D10*
G54D11*
X8677Y11462D03*
X8677Y10712D03*
G54D12*
X2063Y18390D03*
X2063Y17564D03*
G54D13*
X7587Y15524D03*
G54D14*
X8587Y15524D03*
X7587Y14524D03*
X8587Y14524D03*
G54D13*
X9996Y1480D03*
G54D14*
X10996Y1480D03*
X11996Y1480D03*
X12996Y1480D03*
X13996Y1480D03*
X14996Y1480D03*
X4075Y5984D03*
X4075Y3984D03*
X1076Y5984D03*
X1076Y3984D03*
G54D13*
X6420Y19640D03*
G54D14*
X7420Y19640D03*
X8420Y19640D03*
X9420Y19640D03*
X10420Y19640D03*
X11420Y19640D03*
X12420Y19640D03*
X13420Y19640D03*
G54D13*
X14980Y20509D03*
G54D14*
X15980Y20509D03*
X16980Y20509D03*
X17980Y20509D03*
X18980Y20509D03*
X19980Y20509D03*
X20980Y20509D03*
X21980Y20509D03*
G54D13*
X14970Y19640D03*
G54D14*
X15970Y19640D03*
X16970Y19640D03*
X17970Y19640D03*
X18970Y19640D03*
X19970Y19640D03*
X20970Y19640D03*
X21970Y19640D03*
G54D13*
X6398Y20508D03*
G54D14*
X7398Y20508D03*
X8398Y20508D03*
X9398Y20508D03*
X10398Y20508D03*
X11398Y20508D03*
X12398Y20508D03*
X13398Y20508D03*
G54D13*
X17004Y1480D03*
G54D14*
X18004Y1480D03*
X19004Y1480D03*
X20004Y1480D03*
X21004Y1480D03*
X22004Y1480D03*
G54D13*
X17004Y2425D03*
G54D14*
X18004Y2425D03*
X19004Y2425D03*
X20004Y2425D03*
X21004Y2425D03*
X22004Y2425D03*
G54D13*
X8406Y1441D03*
G54D14*
X7406Y1441D03*
X6406Y1441D03*
X5406Y1441D03*
G54D15*
X12376Y17583D03*
X13165Y15535D03*
X14305Y17583D03*
X15251Y15535D03*
G54D16*
X16430Y17583D03*
G54D15*
X17338Y15535D03*
X18046Y17583D03*
X19070Y15535D03*
X18560Y4434D03*
X17771Y6482D03*
X16631Y4434D03*
X15685Y6482D03*
G54D16*
X14506Y4434D03*
G54D15*
X13598Y6482D03*
X12890Y4434D03*
X11866Y6482D03*
G54D13*
X4937Y14114D03*
G54D14*
X4937Y15114D03*
X4937Y16114D03*
X4937Y17114D03*
G54D13*
X8406Y2819D03*
G54D14*
X7406Y2819D03*
X6406Y2819D03*
X5406Y2819D03*
G54D11*
X9858Y10712D03*
X9858Y11462D03*
X11039Y10712D03*
X11039Y11462D03*
X12220Y10712D03*
X12220Y11462D03*
X13402Y10711D03*
X13402Y11461D03*
X14583Y10711D03*
X14583Y11461D03*
X15764Y10711D03*
X15764Y11461D03*
X16945Y10711D03*
X16945Y11461D03*
X18127Y10711D03*
X18127Y11461D03*
X3166Y17681D03*
X3166Y18431D03*
G54D17*
X10584Y17348D03*
X3920Y19308D03*
X11172Y9900D03*
X8624Y12448D03*
X5292Y20288D03*
X6468Y16760D03*
X10388Y12252D03*
X14308Y15584D03*
X17248Y9900D03*
X15484Y12252D03*
X17717Y12402D03*
X9604Y3040D03*
G54D18*
X14305Y17583D02*
X14308Y17544D01*
X14308Y17544D02*
X13720Y16956D01*
X13720Y16956D02*
X13720Y14996D01*
X13720Y14996D02*
X12152Y13428D01*
X12152Y13428D02*
X12152Y11468D01*
X12152Y11468D02*
X12220Y11462D01*
X11420Y19640D02*
X11368Y19700D01*
X11368Y19700D02*
X11368Y20484D01*
X11368Y20484D02*
X11398Y20508D01*
X10584Y17348D02*
X10388Y17544D01*
X10388Y17544D02*
X10388Y19700D01*
X10388Y19700D02*
X10420Y19640D01*
X15251Y15535D02*
X15288Y15584D01*
X15288Y15584D02*
X13328Y13624D01*
X13328Y13624D02*
X13328Y11468D01*
X13328Y11468D02*
X13402Y11461D01*
X10420Y19640D02*
X10388Y19700D01*
X10388Y19700D02*
X10388Y20484D01*
X10388Y20484D02*
X10398Y20508D01*
X16430Y17583D02*
X16464Y17544D01*
X16464Y17544D02*
X15876Y16956D01*
X15876Y16956D02*
X15876Y14996D01*
X15876Y14996D02*
X14504Y13624D01*
X14504Y13624D02*
X14504Y11468D01*
X14504Y11468D02*
X14583Y11461D01*
X9420Y19640D02*
X9408Y19700D01*
X9408Y19700D02*
X9408Y20484D01*
X9408Y20484D02*
X9398Y20508D01*
X3920Y19308D02*
X3136Y18524D01*
X3136Y18524D02*
X3166Y18431D01*
X8398Y20508D02*
X8428Y20484D01*
X8428Y20484D02*
X8428Y19700D01*
X8428Y19700D02*
X8420Y19640D01*
X19970Y19640D02*
X19992Y19700D01*
X19992Y19700D02*
X19992Y20484D01*
X19992Y20484D02*
X19980Y20509D01*
X18970Y19640D02*
X19012Y19700D01*
X19012Y19700D02*
X19012Y20484D01*
X19012Y20484D02*
X18980Y20509D01*
X17970Y19640D02*
X18032Y19700D01*
X18032Y19700D02*
X18032Y20484D01*
X18032Y20484D02*
X17980Y20509D01*
X16970Y19640D02*
X17052Y19700D01*
X17052Y19700D02*
X17052Y20484D01*
X17052Y20484D02*
X16980Y20509D01*
X11866Y6482D02*
X11956Y6568D01*
X11956Y6568D02*
X11172Y7352D01*
X11172Y7352D02*
X11172Y9900D01*
X8624Y12448D02*
X7644Y13428D01*
X7644Y13428D02*
X7644Y14604D01*
X7644Y14604D02*
X7587Y14524D01*
X12890Y4434D02*
X12936Y4412D01*
X12936Y4412D02*
X11956Y3432D01*
X11956Y3432D02*
X11956Y1472D01*
X11956Y1472D02*
X11996Y1480D01*
X13598Y6482D02*
X13524Y6568D01*
X13524Y6568D02*
X12936Y5980D01*
X12936Y5980D02*
X12936Y4412D01*
X12936Y4412D02*
X12890Y4434D01*
X15970Y19640D02*
X15876Y19700D01*
X15876Y19700D02*
X16072Y19896D01*
X16072Y19896D02*
X16072Y20484D01*
X16072Y20484D02*
X15980Y20509D01*
X7587Y15524D02*
X7644Y15584D01*
X7644Y15584D02*
X7644Y16368D01*
X7644Y16368D02*
X5292Y18720D01*
X5292Y18720D02*
X5292Y20288D01*
X7587Y15524D02*
X7644Y15584D01*
X7644Y15584D02*
X6468Y16760D01*
X8677Y11462D02*
X8624Y11468D01*
X8624Y11468D02*
X7056Y13036D01*
X7056Y13036D02*
X7056Y14996D01*
X7056Y14996D02*
X7644Y15584D01*
X7644Y15584D02*
X7587Y15524D01*
X14970Y19640D02*
X14896Y19700D01*
X14896Y19700D02*
X14896Y20484D01*
X14896Y20484D02*
X14980Y20509D01*
X9858Y11462D02*
X9800Y11468D01*
X9800Y11468D02*
X10388Y12056D01*
X10388Y12056D02*
X10388Y12252D01*
X14308Y15584D02*
X14700Y15976D01*
X14700Y15976D02*
X14700Y16172D01*
X14700Y16172D02*
X14896Y16368D01*
X14896Y16368D02*
X14896Y18132D01*
X14896Y18132D02*
X13720Y18132D01*
X13720Y18132D02*
X13132Y17544D01*
X13132Y17544D02*
X12348Y17544D01*
X12348Y17544D02*
X12376Y17583D01*
X12376Y17583D02*
X12348Y17544D01*
X12348Y17544D02*
X13328Y18524D01*
X13328Y18524D02*
X13328Y19700D01*
X13328Y19700D02*
X13420Y19640D01*
X13420Y19640D02*
X13328Y19700D01*
X13328Y19700D02*
X13328Y20484D01*
X13328Y20484D02*
X13398Y20508D01*
X13165Y15535D02*
X13132Y15584D01*
X13132Y15584D02*
X10976Y13428D01*
X10976Y13428D02*
X10976Y11468D01*
X10976Y11468D02*
X11039Y11462D01*
X12420Y19640D02*
X12348Y19700D01*
X12348Y19700D02*
X11956Y19308D01*
X11956Y19308D02*
X11956Y19112D01*
X11956Y19112D02*
X11760Y18916D01*
X11760Y18916D02*
X11760Y16956D01*
X11760Y16956D02*
X13132Y15584D01*
X13132Y15584D02*
X13165Y15535D01*
X12420Y19640D02*
X12348Y19700D01*
X12348Y19700D02*
X12348Y20484D01*
X12348Y20484D02*
X12398Y20508D01*
X17004Y2425D02*
X17052Y2452D01*
X17052Y2452D02*
X17248Y2648D01*
X17248Y2648D02*
X17248Y9900D01*
X15484Y12252D02*
X15484Y11664D01*
X15484Y11664D02*
X15680Y11468D01*
X15680Y11468D02*
X15764Y11461D01*
X15764Y11461D02*
X15680Y11468D01*
X15680Y11468D02*
X17248Y13036D01*
X17248Y13036D02*
X17248Y15584D01*
X17248Y15584D02*
X17338Y15535D01*
X17004Y1480D02*
X17052Y1472D01*
X17052Y1472D02*
X17052Y2452D01*
X17052Y2452D02*
X17004Y2425D01*
X17655Y12267D02*
X17655Y12340D01*
X17655Y12340D02*
X17717Y12402D01*
X16945Y11461D02*
X16856Y11468D01*
X16856Y11468D02*
X17655Y12267D01*
X17655Y12267D02*
X18032Y12644D01*
X18032Y12644D02*
X18032Y17544D01*
X18032Y17544D02*
X18046Y17583D01*
X18004Y1480D02*
X18032Y1472D01*
X18032Y2452D02*
X18004Y2425D01*
X18032Y1472D02*
X18032Y2452D01*
X18127Y11461D02*
X18032Y11468D01*
X18032Y11468D02*
X18424Y11468D01*
X18424Y11468D02*
X19208Y10684D01*
X19208Y10684D02*
X19208Y3824D01*
X19208Y3824D02*
X19012Y3628D01*
X19012Y3628D02*
X19012Y2452D01*
X19012Y2452D02*
X19004Y2425D01*
X18127Y11461D02*
X18032Y11468D01*
X18032Y11468D02*
X19012Y12448D01*
X19012Y12448D02*
X19012Y15584D01*
X19012Y15584D02*
X19070Y15535D01*
X19004Y2425D02*
X19012Y2452D01*
X19012Y2452D02*
X19012Y1472D01*
X19012Y1472D02*
X19004Y1480D01*
X20004Y2425D02*
X19992Y2452D01*
X19992Y2452D02*
X19992Y1472D01*
X19992Y1472D02*
X20004Y1480D01*
X21004Y2425D02*
X20972Y2452D01*
X20972Y2452D02*
X20972Y1472D01*
X20972Y1472D02*
X21004Y1480D01*
X22004Y1480D02*
X21952Y1472D01*
X21952Y1472D02*
X21952Y2452D01*
X21952Y2452D02*
X22004Y2425D01*
X6398Y20508D02*
X6468Y20484D01*
X6468Y20484D02*
X6468Y19700D01*
X6468Y19700D02*
X6420Y19640D01*
X9604Y3040D02*
X9996Y2648D01*
X9996Y2648D02*
X9996Y1480D01*
X21970Y19640D02*
X21952Y19700D01*
X21952Y19700D02*
X21952Y20484D01*
X21952Y20484D02*
X21980Y20509D01*
X20970Y19640D02*
X20972Y19700D01*
X20972Y19700D02*
X20972Y20484D01*
X20972Y20484D02*
X20980Y20509D01*
X2063Y17564D02*
X2156Y17544D01*
X2156Y17544D02*
X2940Y17544D01*
X2940Y17544D02*
X3136Y17740D01*
X3136Y17740D02*
X3166Y17681D01*
G54D10*
G36*
X23981Y507D02*
X22553Y507D01*
X22553Y1371D01*
X22553Y1589D01*
X22469Y1791D01*
X22315Y1945D01*
X22296Y1953D01*
X22315Y1960D01*
X22469Y2114D01*
X22553Y2316D01*
X22553Y2534D01*
X22469Y2736D01*
X22315Y2890D01*
X22113Y2974D01*
X21895Y2974D01*
X21693Y2890D01*
X21539Y2736D01*
X21504Y2652D01*
X21469Y2736D01*
X21315Y2890D01*
X21113Y2974D01*
X20895Y2974D01*
X20693Y2890D01*
X20539Y2736D01*
X20504Y2652D01*
X20469Y2736D01*
X20315Y2890D01*
X20113Y2974D01*
X19895Y2974D01*
X19693Y2890D01*
X19539Y2736D01*
X19504Y2652D01*
X19469Y2736D01*
X19332Y2873D01*
X19332Y3496D01*
X19434Y3598D01*
X19503Y3701D01*
X19504Y3702D01*
X19527Y3824D01*
X19528Y3824D01*
X19528Y10684D01*
X19527Y10685D01*
X19504Y10806D01*
X19503Y10808D01*
X19434Y10910D01*
X19434Y10911D01*
X18680Y11664D01*
X19238Y12221D01*
X19238Y12222D01*
X19307Y12324D01*
X19307Y12325D01*
X19308Y12326D01*
X19331Y12447D01*
X19332Y12448D01*
X19332Y15058D01*
X19350Y15065D01*
X19489Y15204D01*
X19565Y15386D01*
X19565Y15583D01*
X19565Y15683D01*
X19490Y15865D01*
X19351Y16004D01*
X19169Y16080D01*
X18972Y16080D01*
X18790Y16005D01*
X18651Y15866D01*
X18575Y15684D01*
X18575Y15487D01*
X18575Y15387D01*
X18650Y15205D01*
X18692Y15163D01*
X18692Y12581D01*
X18541Y12430D01*
X18541Y17434D01*
X18541Y17631D01*
X18541Y17731D01*
X18466Y17913D01*
X18327Y18052D01*
X18145Y18128D01*
X17948Y18128D01*
X17766Y18053D01*
X17627Y17914D01*
X17551Y17732D01*
X17551Y17535D01*
X17551Y17435D01*
X17626Y17253D01*
X17712Y17167D01*
X17712Y15911D01*
X17619Y16004D01*
X17437Y16080D01*
X17240Y16080D01*
X17058Y16005D01*
X16925Y15872D01*
X16925Y17435D01*
X16925Y17632D01*
X16925Y17730D01*
X16850Y17912D01*
X16711Y18051D01*
X16529Y18127D01*
X16332Y18127D01*
X16150Y18052D01*
X16011Y17913D01*
X15935Y17731D01*
X15935Y17534D01*
X15935Y17468D01*
X15650Y17182D01*
X15580Y17079D01*
X15556Y16956D01*
X15556Y15980D01*
X15532Y16004D01*
X15350Y16080D01*
X15153Y16080D01*
X15020Y16026D01*
X15020Y16040D01*
X15122Y16142D01*
X15191Y16245D01*
X15192Y16246D01*
X15215Y16368D01*
X15216Y16368D01*
X15216Y18132D01*
X15192Y18254D01*
X15122Y18358D01*
X15018Y18428D01*
X14896Y18452D01*
X13720Y18452D01*
X13630Y18435D01*
X13647Y18523D01*
X13648Y18524D01*
X13648Y19141D01*
X13731Y19175D01*
X13885Y19329D01*
X13969Y19531D01*
X13969Y19749D01*
X13885Y19951D01*
X13751Y20085D01*
X13863Y20197D01*
X13947Y20399D01*
X13947Y20617D01*
X13863Y20819D01*
X13709Y20973D01*
X13507Y21057D01*
X13289Y21057D01*
X13087Y20973D01*
X12933Y20819D01*
X12898Y20735D01*
X12863Y20819D01*
X12709Y20973D01*
X12507Y21057D01*
X12289Y21057D01*
X12087Y20973D01*
X11933Y20819D01*
X11898Y20735D01*
X11863Y20819D01*
X11709Y20973D01*
X11507Y21057D01*
X11289Y21057D01*
X11087Y20973D01*
X10933Y20819D01*
X10898Y20735D01*
X10863Y20819D01*
X10709Y20973D01*
X10507Y21057D01*
X10289Y21057D01*
X10087Y20973D01*
X9933Y20819D01*
X9898Y20735D01*
X9863Y20819D01*
X9709Y20973D01*
X9507Y21057D01*
X9289Y21057D01*
X9087Y20973D01*
X8933Y20819D01*
X8898Y20735D01*
X8863Y20819D01*
X8709Y20973D01*
X8507Y21057D01*
X8289Y21057D01*
X8087Y20973D01*
X7933Y20819D01*
X7900Y20741D01*
X7878Y20794D01*
X7783Y20823D01*
X7713Y20753D01*
X7713Y20893D01*
X7684Y20988D01*
X7479Y21061D01*
X7261Y21050D01*
X7112Y20988D01*
X7083Y20893D01*
X7398Y20579D01*
X7713Y20893D01*
X7713Y20753D01*
X7469Y20508D01*
X7783Y20193D01*
X7878Y20222D01*
X7898Y20280D01*
X7933Y20197D01*
X8067Y20063D01*
X7955Y19951D01*
X7922Y19873D01*
X7900Y19926D01*
X7805Y19955D01*
X7735Y19885D01*
X7735Y20025D01*
X7709Y20111D01*
X7713Y20123D01*
X7398Y20437D01*
X7083Y20123D01*
X7108Y20038D01*
X7105Y20025D01*
X7420Y19711D01*
X7735Y20025D01*
X7735Y19885D01*
X7491Y19640D01*
X7805Y19325D01*
X7900Y19354D01*
X7920Y19412D01*
X7955Y19329D01*
X8109Y19175D01*
X8311Y19091D01*
X8529Y19091D01*
X8731Y19175D01*
X8885Y19329D01*
X8920Y19414D01*
X8955Y19329D01*
X9109Y19175D01*
X9311Y19091D01*
X9529Y19091D01*
X9731Y19175D01*
X9885Y19329D01*
X9920Y19414D01*
X9955Y19329D01*
X10068Y19216D01*
X10068Y17544D01*
X10092Y17421D01*
X10159Y17323D01*
X10159Y17264D01*
X10223Y17108D01*
X10343Y16988D01*
X10499Y16923D01*
X10668Y16923D01*
X10824Y16987D01*
X10944Y17107D01*
X11009Y17263D01*
X11009Y17432D01*
X10945Y17588D01*
X10825Y17708D01*
X10708Y17757D01*
X10708Y19166D01*
X10731Y19175D01*
X10885Y19329D01*
X10920Y19414D01*
X10955Y19329D01*
X11109Y19175D01*
X11311Y19091D01*
X11499Y19091D01*
X11464Y19039D01*
X11440Y18916D01*
X11440Y16956D01*
X11464Y16833D01*
X11534Y16730D01*
X12670Y15594D01*
X12670Y15574D01*
X10750Y13654D01*
X10680Y13551D01*
X10656Y13428D01*
X10656Y12585D01*
X10629Y12612D01*
X10473Y12677D01*
X10304Y12677D01*
X10148Y12613D01*
X10028Y12493D01*
X9963Y12337D01*
X9963Y12168D01*
X9987Y12109D01*
X9765Y11886D01*
X9534Y11886D01*
X9442Y11848D01*
X9372Y11778D01*
X9334Y11687D01*
X9334Y11588D01*
X9334Y11238D01*
X9372Y11146D01*
X9431Y11087D01*
X9372Y11028D01*
X9334Y10936D01*
X9333Y10824D01*
X9395Y10762D01*
X9758Y10762D01*
X9808Y10762D01*
X9908Y10762D01*
X9958Y10762D01*
X10321Y10762D01*
X10383Y10824D01*
X10382Y10936D01*
X10344Y11028D01*
X10285Y11087D01*
X10344Y11146D01*
X10382Y11237D01*
X10382Y11336D01*
X10382Y11598D01*
X10545Y11762D01*
X10515Y11687D01*
X10515Y11588D01*
X10515Y11238D01*
X10553Y11146D01*
X10612Y11087D01*
X10553Y11028D01*
X10515Y10936D01*
X10514Y10824D01*
X10576Y10762D01*
X10939Y10762D01*
X10989Y10762D01*
X11089Y10762D01*
X11139Y10762D01*
X11502Y10762D01*
X11564Y10824D01*
X11563Y10936D01*
X11525Y11028D01*
X11466Y11087D01*
X11525Y11146D01*
X11563Y11237D01*
X11563Y11336D01*
X11563Y11686D01*
X11525Y11778D01*
X11455Y11848D01*
X11364Y11886D01*
X11296Y11886D01*
X11296Y13296D01*
X13012Y15013D01*
X13066Y14990D01*
X13261Y14990D01*
X11926Y13654D01*
X11856Y13551D01*
X11832Y13428D01*
X11832Y11860D01*
X11804Y11848D01*
X11734Y11778D01*
X11696Y11687D01*
X11696Y11588D01*
X11696Y11238D01*
X11734Y11146D01*
X11793Y11087D01*
X11734Y11028D01*
X11696Y10936D01*
X11695Y10824D01*
X11757Y10762D01*
X12120Y10762D01*
X12170Y10762D01*
X12270Y10762D01*
X12320Y10762D01*
X12683Y10762D01*
X12745Y10824D01*
X12744Y10936D01*
X12706Y11028D01*
X12647Y11087D01*
X12706Y11146D01*
X12744Y11237D01*
X12744Y11336D01*
X12744Y11686D01*
X12706Y11778D01*
X12636Y11848D01*
X12545Y11886D01*
X12472Y11886D01*
X12472Y13296D01*
X13946Y14769D01*
X13946Y14770D01*
X13992Y14839D01*
X14015Y14873D01*
X14016Y14874D01*
X14039Y14996D01*
X14040Y14996D01*
X14040Y15251D01*
X14067Y15224D01*
X14223Y15159D01*
X14392Y15159D01*
X14423Y15172D01*
X13102Y13850D01*
X13032Y13747D01*
X13008Y13624D01*
X13008Y11857D01*
X12986Y11847D01*
X12916Y11777D01*
X12878Y11686D01*
X12878Y11587D01*
X12878Y11237D01*
X12916Y11145D01*
X12975Y11086D01*
X12916Y11027D01*
X12878Y10935D01*
X12877Y10823D01*
X12939Y10761D01*
X13302Y10761D01*
X13352Y10761D01*
X13452Y10761D01*
X13502Y10761D01*
X13865Y10761D01*
X13927Y10823D01*
X13926Y10935D01*
X13888Y11027D01*
X13829Y11086D01*
X13888Y11145D01*
X13926Y11236D01*
X13926Y11335D01*
X13926Y11685D01*
X13888Y11777D01*
X13818Y11847D01*
X13727Y11885D01*
X13648Y11885D01*
X13648Y13492D01*
X15148Y14992D01*
X15152Y14990D01*
X15349Y14990D01*
X15466Y15039D01*
X14278Y13850D01*
X14208Y13747D01*
X14184Y13624D01*
X14184Y11855D01*
X14167Y11847D01*
X14097Y11777D01*
X14059Y11686D01*
X14059Y11587D01*
X14059Y11237D01*
X14097Y11145D01*
X14156Y11086D01*
X14097Y11027D01*
X14059Y10935D01*
X14058Y10823D01*
X14120Y10761D01*
X14483Y10761D01*
X14533Y10761D01*
X14633Y10761D01*
X14683Y10761D01*
X15046Y10761D01*
X15108Y10823D01*
X15107Y10935D01*
X15069Y11027D01*
X15010Y11086D01*
X15069Y11145D01*
X15107Y11236D01*
X15107Y11335D01*
X15107Y11685D01*
X15069Y11777D01*
X14999Y11847D01*
X14908Y11885D01*
X14824Y11885D01*
X14824Y13492D01*
X16102Y14770D01*
X16171Y14873D01*
X16172Y14874D01*
X16195Y14996D01*
X16196Y14996D01*
X16196Y16824D01*
X16411Y17039D01*
X16528Y17039D01*
X16710Y17114D01*
X16849Y17253D01*
X16925Y17435D01*
X16925Y15872D01*
X16919Y15866D01*
X16843Y15684D01*
X16843Y15487D01*
X16843Y15387D01*
X16918Y15205D01*
X16928Y15195D01*
X16928Y13169D01*
X15896Y12137D01*
X15909Y12167D01*
X15909Y12336D01*
X15845Y12492D01*
X15725Y12612D01*
X15569Y12677D01*
X15400Y12677D01*
X15244Y12613D01*
X15124Y12493D01*
X15059Y12337D01*
X15059Y12168D01*
X15123Y12012D01*
X15164Y11971D01*
X15164Y11664D01*
X15188Y11541D01*
X15240Y11465D01*
X15240Y11237D01*
X15278Y11145D01*
X15337Y11086D01*
X15278Y11027D01*
X15240Y10935D01*
X15239Y10823D01*
X15301Y10761D01*
X15664Y10761D01*
X15714Y10761D01*
X15814Y10761D01*
X15864Y10761D01*
X16227Y10761D01*
X16289Y10823D01*
X16288Y10935D01*
X16250Y11027D01*
X16191Y11086D01*
X16250Y11145D01*
X16288Y11236D01*
X16288Y11335D01*
X16288Y11624D01*
X17474Y12809D01*
X17474Y12810D01*
X17520Y12879D01*
X17543Y12913D01*
X17544Y12914D01*
X17567Y13036D01*
X17568Y13036D01*
X17568Y15045D01*
X17618Y15065D01*
X17712Y15159D01*
X17712Y12827D01*
X17633Y12827D01*
X17477Y12763D01*
X17357Y12643D01*
X17292Y12487D01*
X17292Y12357D01*
X16820Y11885D01*
X16621Y11885D01*
X16529Y11847D01*
X16459Y11777D01*
X16421Y11686D01*
X16421Y11587D01*
X16421Y11237D01*
X16459Y11145D01*
X16518Y11086D01*
X16459Y11027D01*
X16421Y10935D01*
X16420Y10823D01*
X16482Y10761D01*
X16845Y10761D01*
X16895Y10761D01*
X16995Y10761D01*
X17045Y10761D01*
X17408Y10761D01*
X17470Y10823D01*
X17469Y10935D01*
X17431Y11027D01*
X17372Y11086D01*
X17431Y11145D01*
X17469Y11236D01*
X17469Y11335D01*
X17469Y11629D01*
X17829Y11989D01*
X17957Y12041D01*
X18077Y12161D01*
X18131Y12292D01*
X18258Y12418D01*
X18327Y12521D01*
X18328Y12522D01*
X18352Y12644D01*
X18352Y17139D01*
X18465Y17252D01*
X18541Y17434D01*
X18541Y12430D01*
X17996Y11885D01*
X17803Y11885D01*
X17711Y11847D01*
X17641Y11777D01*
X17603Y11686D01*
X17603Y11587D01*
X17603Y11237D01*
X17641Y11145D01*
X17700Y11086D01*
X17641Y11027D01*
X17603Y10935D01*
X17602Y10823D01*
X17664Y10761D01*
X18027Y10761D01*
X18077Y10761D01*
X18177Y10761D01*
X18227Y10761D01*
X18590Y10761D01*
X18634Y10806D01*
X18888Y10552D01*
X18888Y4856D01*
X18841Y4903D01*
X18659Y4979D01*
X18652Y4979D01*
X18652Y10599D01*
X18590Y10661D01*
X18177Y10661D01*
X18177Y10348D01*
X18239Y10286D01*
X18353Y10287D01*
X18452Y10287D01*
X18543Y10325D01*
X18613Y10395D01*
X18651Y10487D01*
X18652Y10599D01*
X18652Y4979D01*
X18462Y4979D01*
X18280Y4904D01*
X18141Y4765D01*
X18065Y4583D01*
X18065Y4386D01*
X18065Y4286D01*
X18140Y4104D01*
X18279Y3965D01*
X18461Y3889D01*
X18658Y3889D01*
X18840Y3964D01*
X18888Y4012D01*
X18888Y3956D01*
X18786Y3854D01*
X18716Y3751D01*
X18692Y3628D01*
X18692Y2889D01*
X18539Y2736D01*
X18504Y2652D01*
X18469Y2736D01*
X18315Y2890D01*
X18113Y2974D01*
X17895Y2974D01*
X17693Y2890D01*
X17568Y2765D01*
X17568Y5981D01*
X17672Y5937D01*
X17869Y5937D01*
X18051Y6012D01*
X18190Y6151D01*
X18266Y6333D01*
X18266Y6530D01*
X18266Y6630D01*
X18191Y6812D01*
X18077Y6926D01*
X18077Y10348D01*
X18077Y10661D01*
X17664Y10661D01*
X17602Y10599D01*
X17603Y10487D01*
X17641Y10395D01*
X17711Y10325D01*
X17802Y10287D01*
X17901Y10287D01*
X18015Y10286D01*
X18077Y10348D01*
X18077Y6926D01*
X18052Y6951D01*
X17870Y7027D01*
X17673Y7027D01*
X17568Y6984D01*
X17568Y9619D01*
X17608Y9659D01*
X17673Y9815D01*
X17673Y9984D01*
X17609Y10140D01*
X17489Y10260D01*
X17347Y10320D01*
X17361Y10325D01*
X17431Y10395D01*
X17469Y10487D01*
X17470Y10599D01*
X17408Y10661D01*
X16995Y10661D01*
X16995Y10348D01*
X17057Y10286D01*
X17069Y10287D01*
X17008Y10261D01*
X16895Y10148D01*
X16895Y10348D01*
X16895Y10661D01*
X16482Y10661D01*
X16420Y10599D01*
X16421Y10487D01*
X16459Y10395D01*
X16529Y10325D01*
X16620Y10287D01*
X16719Y10287D01*
X16833Y10286D01*
X16895Y10348D01*
X16895Y10148D01*
X16888Y10141D01*
X16823Y9985D01*
X16823Y9816D01*
X16887Y9660D01*
X16928Y9619D01*
X16928Y4887D01*
X16912Y4903D01*
X16730Y4979D01*
X16533Y4979D01*
X16351Y4904D01*
X16289Y4842D01*
X16289Y10599D01*
X16227Y10661D01*
X15814Y10661D01*
X15814Y10348D01*
X15876Y10286D01*
X15990Y10287D01*
X16089Y10287D01*
X16180Y10325D01*
X16250Y10395D01*
X16288Y10487D01*
X16289Y10599D01*
X16289Y4842D01*
X16212Y4765D01*
X16180Y4689D01*
X16180Y6333D01*
X16180Y6530D01*
X16180Y6630D01*
X16105Y6812D01*
X15966Y6951D01*
X15784Y7027D01*
X15714Y7027D01*
X15714Y10348D01*
X15714Y10661D01*
X15301Y10661D01*
X15239Y10599D01*
X15240Y10487D01*
X15278Y10395D01*
X15348Y10325D01*
X15439Y10287D01*
X15538Y10287D01*
X15652Y10286D01*
X15714Y10348D01*
X15714Y7027D01*
X15587Y7027D01*
X15405Y6952D01*
X15266Y6813D01*
X15190Y6631D01*
X15190Y6434D01*
X15190Y6334D01*
X15265Y6152D01*
X15404Y6013D01*
X15586Y5937D01*
X15783Y5937D01*
X15965Y6012D01*
X16104Y6151D01*
X16180Y6333D01*
X16180Y4689D01*
X16136Y4583D01*
X16136Y4386D01*
X16136Y4286D01*
X16211Y4104D01*
X16350Y3965D01*
X16532Y3889D01*
X16729Y3889D01*
X16911Y3964D01*
X16928Y3981D01*
X16928Y2974D01*
X16655Y2974D01*
X16563Y2936D01*
X16493Y2866D01*
X16455Y2775D01*
X16455Y2676D01*
X16455Y2076D01*
X16493Y1984D01*
X16524Y1953D01*
X16493Y1921D01*
X16455Y1830D01*
X16455Y1731D01*
X16455Y1131D01*
X16493Y1039D01*
X16563Y969D01*
X16654Y931D01*
X16753Y931D01*
X17353Y931D01*
X17445Y969D01*
X17515Y1039D01*
X17553Y1130D01*
X17553Y1155D01*
X17693Y1015D01*
X17895Y931D01*
X18113Y931D01*
X18315Y1015D01*
X18469Y1169D01*
X18504Y1254D01*
X18539Y1169D01*
X18693Y1015D01*
X18895Y931D01*
X19113Y931D01*
X19315Y1015D01*
X19469Y1169D01*
X19504Y1254D01*
X19539Y1169D01*
X19693Y1015D01*
X19895Y931D01*
X20113Y931D01*
X20315Y1015D01*
X20469Y1169D01*
X20504Y1254D01*
X20539Y1169D01*
X20693Y1015D01*
X20895Y931D01*
X21113Y931D01*
X21315Y1015D01*
X21469Y1169D01*
X21504Y1254D01*
X21539Y1169D01*
X21693Y1015D01*
X21895Y931D01*
X22113Y931D01*
X22315Y1015D01*
X22469Y1169D01*
X22553Y1371D01*
X22553Y507D01*
X15545Y507D01*
X15545Y1371D01*
X15545Y1589D01*
X15461Y1791D01*
X15307Y1945D01*
X15108Y2028D01*
X15108Y10599D01*
X15046Y10661D01*
X14633Y10661D01*
X14633Y10348D01*
X14695Y10286D01*
X14809Y10287D01*
X14908Y10287D01*
X14999Y10325D01*
X15069Y10395D01*
X15107Y10487D01*
X15108Y10599D01*
X15108Y2028D01*
X15105Y2029D01*
X15001Y2029D01*
X15001Y4286D01*
X15001Y4483D01*
X15001Y4581D01*
X14926Y4763D01*
X14787Y4902D01*
X14605Y4978D01*
X14533Y4978D01*
X14533Y10348D01*
X14533Y10661D01*
X14120Y10661D01*
X14058Y10599D01*
X14059Y10487D01*
X14097Y10395D01*
X14167Y10325D01*
X14258Y10287D01*
X14357Y10287D01*
X14471Y10286D01*
X14533Y10348D01*
X14533Y4978D01*
X14408Y4978D01*
X14226Y4903D01*
X14093Y4770D01*
X14093Y6333D01*
X14093Y6530D01*
X14093Y6630D01*
X14018Y6812D01*
X13927Y6903D01*
X13927Y10599D01*
X13865Y10661D01*
X13452Y10661D01*
X13452Y10348D01*
X13514Y10286D01*
X13628Y10287D01*
X13727Y10287D01*
X13818Y10325D01*
X13888Y10395D01*
X13926Y10487D01*
X13927Y10599D01*
X13927Y6903D01*
X13879Y6951D01*
X13697Y7027D01*
X13500Y7027D01*
X13352Y6967D01*
X13352Y10348D01*
X13352Y10661D01*
X12939Y10661D01*
X12877Y10599D01*
X12878Y10487D01*
X12916Y10395D01*
X12986Y10325D01*
X13077Y10287D01*
X13176Y10287D01*
X13290Y10286D01*
X13352Y10348D01*
X13352Y6967D01*
X13318Y6952D01*
X13179Y6813D01*
X13103Y6631D01*
X13103Y6600D01*
X12745Y6242D01*
X12745Y10600D01*
X12683Y10662D01*
X12270Y10662D01*
X12270Y10349D01*
X12332Y10287D01*
X12446Y10288D01*
X12545Y10288D01*
X12636Y10326D01*
X12706Y10396D01*
X12744Y10488D01*
X12745Y10600D01*
X12745Y6242D01*
X12710Y6206D01*
X12640Y6103D01*
X12616Y5980D01*
X12616Y4907D01*
X12610Y4904D01*
X12471Y4765D01*
X12395Y4583D01*
X12395Y4386D01*
X12395Y4324D01*
X12361Y4290D01*
X12361Y6333D01*
X12361Y6530D01*
X12361Y6630D01*
X12286Y6812D01*
X12170Y6928D01*
X12170Y10349D01*
X12170Y10662D01*
X11757Y10662D01*
X11695Y10600D01*
X11696Y10488D01*
X11734Y10396D01*
X11804Y10326D01*
X11895Y10288D01*
X11994Y10288D01*
X12108Y10287D01*
X12170Y10349D01*
X12170Y6928D01*
X12147Y6951D01*
X11965Y7027D01*
X11949Y7027D01*
X11492Y7485D01*
X11492Y9619D01*
X11532Y9659D01*
X11597Y9815D01*
X11597Y9984D01*
X11533Y10140D01*
X11413Y10260D01*
X11345Y10288D01*
X11364Y10288D01*
X11455Y10326D01*
X11525Y10396D01*
X11563Y10488D01*
X11564Y10600D01*
X11502Y10662D01*
X11139Y10662D01*
X11089Y10662D01*
X10989Y10662D01*
X10939Y10662D01*
X10576Y10662D01*
X10514Y10600D01*
X10515Y10488D01*
X10553Y10396D01*
X10623Y10326D01*
X10714Y10288D01*
X10813Y10288D01*
X10927Y10287D01*
X10939Y10299D01*
X10939Y10287D01*
X10989Y10287D01*
X10993Y10287D01*
X10989Y10285D01*
X10932Y10261D01*
X10812Y10141D01*
X10747Y9985D01*
X10747Y9816D01*
X10811Y9660D01*
X10852Y9619D01*
X10852Y7352D01*
X10876Y7229D01*
X10946Y7126D01*
X11391Y6680D01*
X11371Y6631D01*
X11371Y6434D01*
X11371Y6334D01*
X11446Y6152D01*
X11585Y6013D01*
X11767Y5937D01*
X11964Y5937D01*
X12146Y6012D01*
X12285Y6151D01*
X12361Y6333D01*
X12361Y4290D01*
X11730Y3658D01*
X11660Y3555D01*
X11636Y3432D01*
X11636Y1896D01*
X11531Y1791D01*
X11496Y1707D01*
X11461Y1791D01*
X11307Y1945D01*
X11105Y2029D01*
X10887Y2029D01*
X10685Y1945D01*
X10545Y1805D01*
X10545Y1829D01*
X10507Y1921D01*
X10437Y1991D01*
X10383Y2014D01*
X10383Y10600D01*
X10321Y10662D01*
X9908Y10662D01*
X9908Y10349D01*
X9970Y10287D01*
X10084Y10288D01*
X10183Y10288D01*
X10274Y10326D01*
X10344Y10396D01*
X10382Y10488D01*
X10383Y10600D01*
X10383Y2014D01*
X10346Y2029D01*
X10316Y2029D01*
X10316Y2648D01*
X10292Y2770D01*
X10291Y2771D01*
X10268Y2805D01*
X10222Y2874D01*
X10222Y2875D01*
X10029Y3068D01*
X10029Y3124D01*
X9965Y3280D01*
X9845Y3400D01*
X9808Y3416D01*
X9808Y10349D01*
X9808Y10662D01*
X9395Y10662D01*
X9333Y10600D01*
X9334Y10488D01*
X9372Y10396D01*
X9442Y10326D01*
X9533Y10288D01*
X9632Y10288D01*
X9746Y10287D01*
X9808Y10349D01*
X9808Y3416D01*
X9689Y3465D01*
X9520Y3465D01*
X9364Y3401D01*
X9244Y3281D01*
X9202Y3181D01*
X9202Y10600D01*
X9202Y10824D01*
X9201Y10936D01*
X9163Y11028D01*
X9104Y11087D01*
X9163Y11146D01*
X9201Y11237D01*
X9201Y11336D01*
X9201Y11686D01*
X9163Y11778D01*
X9093Y11848D01*
X9002Y11886D01*
X8903Y11886D01*
X8658Y11886D01*
X8509Y12036D01*
X8539Y12023D01*
X8708Y12023D01*
X8864Y12087D01*
X8984Y12207D01*
X9049Y12363D01*
X9049Y12532D01*
X8985Y12688D01*
X8865Y12808D01*
X8709Y12873D01*
X8651Y12873D01*
X7964Y13561D01*
X7964Y14125D01*
X8052Y14213D01*
X8087Y14298D01*
X8122Y14213D01*
X8276Y14059D01*
X8478Y13975D01*
X8696Y13975D01*
X8898Y14059D01*
X9052Y14213D01*
X9136Y14415D01*
X9136Y14633D01*
X9052Y14835D01*
X8898Y14989D01*
X8813Y15024D01*
X8898Y15059D01*
X9052Y15213D01*
X9136Y15415D01*
X9136Y15633D01*
X9052Y15835D01*
X8898Y15989D01*
X8696Y16073D01*
X8478Y16073D01*
X8276Y15989D01*
X8136Y15849D01*
X8136Y15873D01*
X8098Y15965D01*
X8028Y16035D01*
X7964Y16062D01*
X7964Y16368D01*
X7940Y16490D01*
X7939Y16491D01*
X7870Y16594D01*
X7735Y16729D01*
X7735Y19255D01*
X7420Y19569D01*
X7349Y19499D01*
X7349Y19640D01*
X7035Y19955D01*
X6969Y19935D01*
X6969Y19989D01*
X6931Y20081D01*
X6919Y20093D01*
X6947Y20158D01*
X6947Y20214D01*
X7013Y20193D01*
X7327Y20508D01*
X7013Y20823D01*
X6947Y20803D01*
X6947Y20857D01*
X6909Y20949D01*
X6839Y21019D01*
X6748Y21057D01*
X6649Y21057D01*
X6049Y21057D01*
X5957Y21019D01*
X5887Y20949D01*
X5849Y20858D01*
X5849Y20759D01*
X5849Y20159D01*
X5887Y20067D01*
X5898Y20056D01*
X5871Y19990D01*
X5871Y19891D01*
X5871Y19291D01*
X5909Y19199D01*
X5979Y19129D01*
X6070Y19091D01*
X6169Y19091D01*
X6769Y19091D01*
X6861Y19129D01*
X6931Y19199D01*
X6969Y19290D01*
X6969Y19346D01*
X7035Y19325D01*
X7349Y19640D01*
X7349Y19499D01*
X7105Y19255D01*
X7134Y19160D01*
X7339Y19087D01*
X7557Y19098D01*
X7706Y19160D01*
X7735Y19255D01*
X7735Y16729D01*
X5612Y18852D01*
X5612Y20007D01*
X5652Y20047D01*
X5717Y20203D01*
X5717Y20372D01*
X5653Y20528D01*
X5533Y20648D01*
X5377Y20713D01*
X5208Y20713D01*
X5052Y20649D01*
X4932Y20529D01*
X4867Y20373D01*
X4867Y20204D01*
X4931Y20048D01*
X4972Y20007D01*
X4972Y18720D01*
X4996Y18597D01*
X5066Y18494D01*
X6377Y17183D01*
X6228Y17121D01*
X6108Y17001D01*
X6043Y16845D01*
X6043Y16676D01*
X6107Y16520D01*
X6227Y16400D01*
X6383Y16335D01*
X6441Y16335D01*
X7038Y15738D01*
X7038Y15431D01*
X6830Y15222D01*
X6760Y15119D01*
X6736Y14996D01*
X6736Y13036D01*
X6760Y12913D01*
X6830Y12810D01*
X8153Y11487D01*
X8153Y11238D01*
X8191Y11146D01*
X8250Y11087D01*
X8191Y11028D01*
X8153Y10936D01*
X8152Y10824D01*
X8214Y10762D01*
X8577Y10762D01*
X8627Y10762D01*
X8727Y10762D01*
X8777Y10762D01*
X9140Y10762D01*
X9202Y10824D01*
X9202Y10600D01*
X9140Y10662D01*
X8727Y10662D01*
X8727Y10349D01*
X8789Y10287D01*
X8903Y10288D01*
X9002Y10288D01*
X9093Y10326D01*
X9163Y10396D01*
X9201Y10488D01*
X9202Y10600D01*
X9202Y3181D01*
X9179Y3125D01*
X9179Y2956D01*
X9243Y2800D01*
X9363Y2680D01*
X9519Y2615D01*
X9576Y2615D01*
X9676Y2516D01*
X9676Y2029D01*
X9647Y2029D01*
X9555Y1991D01*
X9485Y1921D01*
X9447Y1830D01*
X9447Y1731D01*
X9447Y1131D01*
X9485Y1039D01*
X9555Y969D01*
X9646Y931D01*
X9745Y931D01*
X10345Y931D01*
X10437Y969D01*
X10507Y1039D01*
X10545Y1130D01*
X10545Y1155D01*
X10685Y1015D01*
X10887Y931D01*
X11105Y931D01*
X11307Y1015D01*
X11461Y1169D01*
X11496Y1254D01*
X11531Y1169D01*
X11685Y1015D01*
X11887Y931D01*
X12105Y931D01*
X12307Y1015D01*
X12461Y1169D01*
X12493Y1248D01*
X12516Y1194D01*
X12611Y1165D01*
X12925Y1480D01*
X12611Y1795D01*
X12516Y1766D01*
X12495Y1709D01*
X12461Y1791D01*
X12307Y1945D01*
X12276Y1958D01*
X12276Y3300D01*
X12865Y3889D01*
X12988Y3889D01*
X13170Y3964D01*
X13309Y4103D01*
X13385Y4285D01*
X13385Y4482D01*
X13385Y4582D01*
X13310Y4764D01*
X13256Y4818D01*
X13256Y5848D01*
X13390Y5983D01*
X13499Y5937D01*
X13696Y5937D01*
X13878Y6012D01*
X14017Y6151D01*
X14093Y6333D01*
X14093Y4770D01*
X14087Y4764D01*
X14011Y4582D01*
X14011Y4385D01*
X14011Y4287D01*
X14086Y4105D01*
X14225Y3966D01*
X14407Y3890D01*
X14604Y3890D01*
X14786Y3965D01*
X14925Y4104D01*
X15001Y4286D01*
X15001Y2029D01*
X14887Y2029D01*
X14685Y1945D01*
X14531Y1791D01*
X14498Y1713D01*
X14476Y1766D01*
X14381Y1795D01*
X14311Y1725D01*
X14311Y1865D01*
X14282Y1960D01*
X14077Y2033D01*
X13859Y2022D01*
X13710Y1960D01*
X13681Y1865D01*
X13996Y1551D01*
X14311Y1865D01*
X14311Y1725D01*
X14067Y1480D01*
X14381Y1165D01*
X14476Y1194D01*
X14496Y1252D01*
X14531Y1169D01*
X14685Y1015D01*
X14887Y931D01*
X15105Y931D01*
X15307Y1015D01*
X15461Y1169D01*
X15545Y1371D01*
X15545Y507D01*
X14311Y507D01*
X14311Y1095D01*
X13996Y1409D01*
X13925Y1339D01*
X13925Y1480D01*
X13611Y1795D01*
X13516Y1766D01*
X13497Y1715D01*
X13476Y1766D01*
X13381Y1795D01*
X13311Y1725D01*
X13311Y1865D01*
X13282Y1960D01*
X13077Y2033D01*
X12859Y2022D01*
X12710Y1960D01*
X12681Y1865D01*
X12996Y1551D01*
X13311Y1865D01*
X13311Y1725D01*
X13067Y1480D01*
X13381Y1165D01*
X13476Y1194D01*
X13494Y1246D01*
X13516Y1194D01*
X13611Y1165D01*
X13925Y1480D01*
X13925Y1339D01*
X13681Y1095D01*
X13710Y1000D01*
X13915Y927D01*
X14133Y938D01*
X14282Y1000D01*
X14311Y1095D01*
X14311Y507D01*
X13311Y507D01*
X13311Y1095D01*
X12996Y1409D01*
X12681Y1095D01*
X12710Y1000D01*
X12915Y927D01*
X13133Y938D01*
X13282Y1000D01*
X13311Y1095D01*
X13311Y507D01*
X8956Y507D01*
X8956Y2707D01*
X8956Y2931D01*
X8955Y3070D01*
X8955Y3169D01*
X8917Y3260D01*
X8847Y3330D01*
X8755Y3368D01*
X8627Y3369D01*
X8627Y10349D01*
X8627Y10662D01*
X8214Y10662D01*
X8152Y10600D01*
X8153Y10488D01*
X8191Y10396D01*
X8261Y10326D01*
X8352Y10288D01*
X8451Y10288D01*
X8565Y10287D01*
X8627Y10349D01*
X8627Y3369D01*
X8518Y3369D01*
X8456Y3307D01*
X8456Y2869D01*
X8894Y2869D01*
X8956Y2931D01*
X8956Y2707D01*
X8894Y2769D01*
X8456Y2769D01*
X8456Y2331D01*
X8518Y2269D01*
X8755Y2270D01*
X8847Y2308D01*
X8917Y2378D01*
X8955Y2469D01*
X8955Y2568D01*
X8956Y2707D01*
X8956Y507D01*
X8955Y507D01*
X8955Y1091D01*
X8955Y1190D01*
X8955Y1790D01*
X8917Y1882D01*
X8847Y1952D01*
X8756Y1990D01*
X8657Y1990D01*
X8356Y1990D01*
X8356Y2331D01*
X8356Y2719D01*
X8356Y2769D01*
X8356Y2869D01*
X8356Y2919D01*
X8356Y3307D01*
X8294Y3369D01*
X8057Y3368D01*
X7965Y3330D01*
X7895Y3260D01*
X7857Y3169D01*
X7857Y3114D01*
X7791Y3134D01*
X7721Y3064D01*
X7721Y3204D01*
X7692Y3299D01*
X7487Y3372D01*
X7269Y3361D01*
X7120Y3299D01*
X7091Y3204D01*
X7406Y2890D01*
X7721Y3204D01*
X7721Y3064D01*
X7477Y2819D01*
X7791Y2504D01*
X7857Y2525D01*
X7857Y2469D01*
X7895Y2378D01*
X7965Y2308D01*
X8057Y2270D01*
X8294Y2269D01*
X8356Y2331D01*
X8356Y1990D01*
X8057Y1990D01*
X7965Y1952D01*
X7895Y1882D01*
X7857Y1791D01*
X7857Y1766D01*
X7721Y1902D01*
X7721Y2434D01*
X7406Y2748D01*
X7335Y2678D01*
X7335Y2819D01*
X7021Y3134D01*
X6926Y3105D01*
X6907Y3054D01*
X6886Y3105D01*
X6791Y3134D01*
X6721Y3064D01*
X6721Y3204D01*
X6692Y3299D01*
X6487Y3372D01*
X6269Y3361D01*
X6120Y3299D01*
X6091Y3204D01*
X6406Y2890D01*
X6721Y3204D01*
X6721Y3064D01*
X6477Y2819D01*
X6791Y2504D01*
X6886Y2533D01*
X6904Y2585D01*
X6926Y2533D01*
X7021Y2504D01*
X7335Y2819D01*
X7335Y2678D01*
X7091Y2434D01*
X7120Y2339D01*
X7325Y2266D01*
X7543Y2277D01*
X7692Y2339D01*
X7721Y2434D01*
X7721Y1902D01*
X7717Y1906D01*
X7515Y1990D01*
X7297Y1990D01*
X7095Y1906D01*
X6941Y1752D01*
X6906Y1668D01*
X6871Y1752D01*
X6721Y1902D01*
X6721Y2434D01*
X6406Y2748D01*
X6335Y2678D01*
X6335Y2819D01*
X6021Y3134D01*
X5926Y3105D01*
X5907Y3054D01*
X5886Y3105D01*
X5791Y3134D01*
X5721Y3064D01*
X5721Y3204D01*
X5692Y3299D01*
X5487Y3372D01*
X5486Y3372D01*
X5486Y13764D01*
X5486Y13863D01*
X5486Y14463D01*
X5448Y14555D01*
X5378Y14625D01*
X5287Y14663D01*
X5262Y14663D01*
X5402Y14803D01*
X5486Y15005D01*
X5486Y15223D01*
X5402Y15425D01*
X5248Y15579D01*
X5163Y15614D01*
X5248Y15649D01*
X5402Y15803D01*
X5486Y16005D01*
X5486Y16223D01*
X5402Y16425D01*
X5248Y16579D01*
X5163Y16614D01*
X5248Y16649D01*
X5402Y16803D01*
X5486Y17005D01*
X5486Y17223D01*
X5402Y17425D01*
X5248Y17579D01*
X5046Y17663D01*
X4828Y17663D01*
X4626Y17579D01*
X4472Y17425D01*
X4388Y17223D01*
X4388Y17005D01*
X4472Y16803D01*
X4626Y16649D01*
X4710Y16614D01*
X4626Y16579D01*
X4472Y16425D01*
X4388Y16223D01*
X4388Y16005D01*
X4472Y15803D01*
X4626Y15649D01*
X4710Y15614D01*
X4626Y15579D01*
X4472Y15425D01*
X4388Y15223D01*
X4388Y15005D01*
X4472Y14803D01*
X4612Y14663D01*
X4588Y14663D01*
X4496Y14625D01*
X4426Y14555D01*
X4388Y14464D01*
X4388Y14365D01*
X4388Y13765D01*
X4426Y13673D01*
X4496Y13603D01*
X4587Y13565D01*
X4686Y13565D01*
X5286Y13565D01*
X5378Y13603D01*
X5448Y13673D01*
X5486Y13764D01*
X5486Y3372D01*
X5269Y3361D01*
X5120Y3299D01*
X5091Y3204D01*
X5406Y2890D01*
X5721Y3204D01*
X5721Y3064D01*
X5477Y2819D01*
X5791Y2504D01*
X5886Y2533D01*
X5904Y2585D01*
X5926Y2533D01*
X6021Y2504D01*
X6335Y2819D01*
X6335Y2678D01*
X6091Y2434D01*
X6120Y2339D01*
X6325Y2266D01*
X6543Y2277D01*
X6692Y2339D01*
X6721Y2434D01*
X6721Y1902D01*
X6717Y1906D01*
X6515Y1990D01*
X6297Y1990D01*
X6095Y1906D01*
X5941Y1752D01*
X5906Y1668D01*
X5871Y1752D01*
X5721Y1902D01*
X5721Y2434D01*
X5406Y2748D01*
X5335Y2678D01*
X5335Y2819D01*
X5021Y3134D01*
X4926Y3105D01*
X4853Y2900D01*
X4864Y2682D01*
X4926Y2533D01*
X5021Y2504D01*
X5335Y2819D01*
X5335Y2678D01*
X5091Y2434D01*
X5120Y2339D01*
X5325Y2266D01*
X5543Y2277D01*
X5692Y2339D01*
X5721Y2434D01*
X5721Y1902D01*
X5717Y1906D01*
X5515Y1990D01*
X5297Y1990D01*
X5095Y1906D01*
X4941Y1752D01*
X4857Y1550D01*
X4857Y1332D01*
X4941Y1130D01*
X5095Y976D01*
X5297Y892D01*
X5515Y892D01*
X5717Y976D01*
X5871Y1130D01*
X5906Y1215D01*
X5941Y1130D01*
X6095Y976D01*
X6297Y892D01*
X6515Y892D01*
X6717Y976D01*
X6871Y1130D01*
X6906Y1215D01*
X6941Y1130D01*
X7095Y976D01*
X7297Y892D01*
X7515Y892D01*
X7717Y976D01*
X7857Y1116D01*
X7857Y1092D01*
X7895Y1000D01*
X7965Y930D01*
X8056Y892D01*
X8155Y892D01*
X8755Y892D01*
X8847Y930D01*
X8917Y1000D01*
X8955Y1091D01*
X8955Y507D01*
X4628Y507D01*
X4628Y3903D01*
X4624Y3983D01*
X4624Y5875D01*
X4624Y6093D01*
X4540Y6295D01*
X4386Y6449D01*
X4345Y6467D01*
X4345Y19223D01*
X4345Y19392D01*
X4281Y19548D01*
X4161Y19668D01*
X4005Y19733D01*
X3969Y19733D01*
X3969Y20335D01*
X3969Y20733D01*
X3817Y21101D01*
X3536Y21382D01*
X3169Y21535D01*
X2771Y21535D01*
X2403Y21383D01*
X2122Y21102D01*
X1969Y20735D01*
X1969Y20337D01*
X2121Y19969D01*
X2402Y19688D01*
X2769Y19535D01*
X3167Y19535D01*
X3535Y19687D01*
X3816Y19968D01*
X3969Y20335D01*
X3969Y19733D01*
X3836Y19733D01*
X3680Y19669D01*
X3560Y19549D01*
X3495Y19393D01*
X3495Y19336D01*
X3014Y18855D01*
X2842Y18855D01*
X2750Y18817D01*
X2680Y18747D01*
X2642Y18656D01*
X2642Y18557D01*
X2642Y18207D01*
X2680Y18115D01*
X2739Y18056D01*
X2680Y17997D01*
X2642Y17906D01*
X2642Y17864D01*
X2541Y17864D01*
X2510Y17941D01*
X2474Y17977D01*
X2510Y18013D01*
X2548Y18105D01*
X2549Y18278D01*
X2549Y18502D01*
X2548Y18675D01*
X2510Y18767D01*
X2440Y18837D01*
X2349Y18875D01*
X2250Y18875D01*
X2175Y18876D01*
X2113Y18814D01*
X2113Y18440D01*
X2487Y18440D01*
X2549Y18502D01*
X2549Y18278D01*
X2487Y18340D01*
X2163Y18340D01*
X2113Y18340D01*
X2013Y18340D01*
X2013Y18440D01*
X2013Y18814D01*
X1951Y18876D01*
X1876Y18875D01*
X1777Y18875D01*
X1686Y18837D01*
X1616Y18767D01*
X1578Y18675D01*
X1577Y18502D01*
X1639Y18440D01*
X2013Y18440D01*
X2013Y18340D01*
X1963Y18340D01*
X1639Y18340D01*
X1577Y18278D01*
X1578Y18105D01*
X1616Y18013D01*
X1652Y17977D01*
X1616Y17941D01*
X1578Y17850D01*
X1578Y17751D01*
X1578Y17279D01*
X1616Y17187D01*
X1686Y17117D01*
X1777Y17079D01*
X1876Y17079D01*
X2348Y17079D01*
X2440Y17117D01*
X2510Y17187D01*
X2525Y17224D01*
X2940Y17224D01*
X3062Y17248D01*
X3063Y17248D01*
X3075Y17257D01*
X3076Y17257D01*
X3490Y17257D01*
X3582Y17295D01*
X3652Y17365D01*
X3690Y17456D01*
X3690Y17555D01*
X3690Y17905D01*
X3652Y17997D01*
X3593Y18056D01*
X3652Y18115D01*
X3690Y18206D01*
X3690Y18305D01*
X3690Y18626D01*
X3947Y18883D01*
X4004Y18883D01*
X4160Y18947D01*
X4280Y19067D01*
X4345Y19223D01*
X4345Y6467D01*
X4184Y6533D01*
X3966Y6533D01*
X3764Y6449D01*
X3610Y6295D01*
X3526Y6093D01*
X3526Y5875D01*
X3610Y5673D01*
X3764Y5519D01*
X3966Y5435D01*
X4184Y5435D01*
X4386Y5519D01*
X4540Y5673D01*
X4624Y5875D01*
X4624Y3983D01*
X4617Y4121D01*
X4555Y4270D01*
X4460Y4299D01*
X4390Y4229D01*
X4390Y4369D01*
X4361Y4464D01*
X4156Y4537D01*
X3938Y4526D01*
X3789Y4464D01*
X3760Y4369D01*
X4075Y4055D01*
X4390Y4369D01*
X4390Y4229D01*
X4146Y3984D01*
X4460Y3669D01*
X4555Y3698D01*
X4628Y3903D01*
X4628Y507D01*
X4390Y507D01*
X4390Y3599D01*
X4075Y3913D01*
X4004Y3843D01*
X4004Y3984D01*
X3690Y4299D01*
X3595Y4270D01*
X3522Y4065D01*
X3533Y3847D01*
X3595Y3698D01*
X3690Y3669D01*
X4004Y3984D01*
X4004Y3843D01*
X3760Y3599D01*
X3789Y3504D01*
X3994Y3431D01*
X4212Y3442D01*
X4361Y3504D01*
X4390Y3599D01*
X4390Y507D01*
X3496Y507D01*
X3496Y1359D01*
X3496Y1757D01*
X3344Y2125D01*
X3063Y2406D01*
X2708Y2554D01*
X2708Y7737D01*
X2708Y8135D01*
X2706Y8140D01*
X2706Y13722D01*
X2706Y14119D01*
X2554Y14486D01*
X2273Y14767D01*
X1906Y14920D01*
X1509Y14920D01*
X1142Y14768D01*
X861Y14487D01*
X708Y14120D01*
X708Y13723D01*
X860Y13356D01*
X1141Y13075D01*
X1508Y12922D01*
X1905Y12922D01*
X2272Y13074D01*
X2553Y13355D01*
X2706Y13722D01*
X2706Y8140D01*
X2556Y8503D01*
X2275Y8784D01*
X1908Y8937D01*
X1510Y8937D01*
X1142Y8785D01*
X861Y8504D01*
X708Y8137D01*
X708Y7739D01*
X860Y7371D01*
X1141Y7090D01*
X1508Y6937D01*
X1906Y6937D01*
X2274Y7089D01*
X2555Y7370D01*
X2708Y7737D01*
X2708Y2554D01*
X2696Y2559D01*
X2298Y2559D01*
X1930Y2407D01*
X1649Y2126D01*
X1629Y2079D01*
X1629Y3903D01*
X1625Y3983D01*
X1625Y5875D01*
X1625Y6093D01*
X1541Y6295D01*
X1387Y6449D01*
X1185Y6533D01*
X967Y6533D01*
X765Y6449D01*
X611Y6295D01*
X527Y6093D01*
X527Y5875D01*
X611Y5673D01*
X765Y5519D01*
X967Y5435D01*
X1185Y5435D01*
X1387Y5519D01*
X1541Y5673D01*
X1625Y5875D01*
X1625Y3983D01*
X1618Y4121D01*
X1556Y4270D01*
X1461Y4299D01*
X1391Y4229D01*
X1391Y4369D01*
X1362Y4464D01*
X1157Y4537D01*
X939Y4526D01*
X790Y4464D01*
X761Y4369D01*
X1076Y4055D01*
X1391Y4369D01*
X1391Y4229D01*
X1147Y3984D01*
X1461Y3669D01*
X1556Y3698D01*
X1629Y3903D01*
X1629Y2079D01*
X1496Y1759D01*
X1496Y1361D01*
X1648Y993D01*
X1929Y712D01*
X2296Y559D01*
X2694Y559D01*
X3062Y711D01*
X3343Y992D01*
X3496Y1359D01*
X3496Y507D01*
X1391Y507D01*
X1391Y3599D01*
X1076Y3913D01*
X1005Y3843D01*
X1005Y3984D01*
X691Y4299D01*
X596Y4270D01*
X523Y4065D01*
X534Y3847D01*
X596Y3698D01*
X691Y3669D01*
X1005Y3984D01*
X1005Y3843D01*
X761Y3599D01*
X790Y3504D01*
X995Y3431D01*
X1213Y3442D01*
X1362Y3504D01*
X1391Y3599D01*
X1391Y507D01*
X459Y507D01*
X459Y22060D01*
X23981Y22060D01*
X23981Y3779D01*
X23969Y3808D01*
X23969Y14351D01*
X23969Y14749D01*
X23817Y15117D01*
X23536Y15398D01*
X23169Y15551D01*
X22771Y15551D01*
X22529Y15452D01*
X22529Y20400D01*
X22529Y20618D01*
X22445Y20820D01*
X22291Y20974D01*
X22089Y21058D01*
X21871Y21058D01*
X21669Y20974D01*
X21515Y20820D01*
X21480Y20736D01*
X21445Y20820D01*
X21291Y20974D01*
X21089Y21058D01*
X20871Y21058D01*
X20669Y20974D01*
X20515Y20820D01*
X20480Y20736D01*
X20445Y20820D01*
X20291Y20974D01*
X20089Y21058D01*
X19871Y21058D01*
X19669Y20974D01*
X19515Y20820D01*
X19480Y20736D01*
X19445Y20820D01*
X19291Y20974D01*
X19089Y21058D01*
X18871Y21058D01*
X18669Y20974D01*
X18515Y20820D01*
X18480Y20736D01*
X18445Y20820D01*
X18291Y20974D01*
X18089Y21058D01*
X17871Y21058D01*
X17669Y20974D01*
X17515Y20820D01*
X17480Y20736D01*
X17445Y20820D01*
X17291Y20974D01*
X17089Y21058D01*
X16871Y21058D01*
X16669Y20974D01*
X16515Y20820D01*
X16480Y20736D01*
X16445Y20820D01*
X16291Y20974D01*
X16089Y21058D01*
X15871Y21058D01*
X15669Y20974D01*
X15529Y20834D01*
X15529Y20858D01*
X15491Y20950D01*
X15421Y21020D01*
X15330Y21058D01*
X15231Y21058D01*
X14631Y21058D01*
X14539Y21020D01*
X14469Y20950D01*
X14431Y20859D01*
X14431Y20760D01*
X14431Y20160D01*
X14462Y20085D01*
X14459Y20081D01*
X14421Y19990D01*
X14421Y19891D01*
X14421Y19291D01*
X14459Y19199D01*
X14529Y19129D01*
X14620Y19091D01*
X14719Y19091D01*
X15319Y19091D01*
X15411Y19129D01*
X15481Y19199D01*
X15519Y19290D01*
X15519Y19315D01*
X15659Y19175D01*
X15861Y19091D01*
X16079Y19091D01*
X16281Y19175D01*
X16435Y19329D01*
X16470Y19414D01*
X16505Y19329D01*
X16659Y19175D01*
X16861Y19091D01*
X17079Y19091D01*
X17281Y19175D01*
X17435Y19329D01*
X17470Y19414D01*
X17505Y19329D01*
X17659Y19175D01*
X17861Y19091D01*
X18079Y19091D01*
X18281Y19175D01*
X18435Y19329D01*
X18470Y19414D01*
X18505Y19329D01*
X18659Y19175D01*
X18861Y19091D01*
X19079Y19091D01*
X19281Y19175D01*
X19435Y19329D01*
X19470Y19414D01*
X19505Y19329D01*
X19659Y19175D01*
X19861Y19091D01*
X20079Y19091D01*
X20281Y19175D01*
X20435Y19329D01*
X20470Y19414D01*
X20505Y19329D01*
X20659Y19175D01*
X20861Y19091D01*
X21079Y19091D01*
X21281Y19175D01*
X21435Y19329D01*
X21470Y19414D01*
X21505Y19329D01*
X21659Y19175D01*
X21861Y19091D01*
X22079Y19091D01*
X22281Y19175D01*
X22435Y19329D01*
X22519Y19531D01*
X22519Y19749D01*
X22435Y19951D01*
X22316Y20070D01*
X22445Y20198D01*
X22529Y20400D01*
X22529Y15452D01*
X22403Y15399D01*
X22122Y15118D01*
X21969Y14751D01*
X21969Y14353D01*
X22121Y13985D01*
X22402Y13704D01*
X22769Y13551D01*
X23167Y13551D01*
X23535Y13703D01*
X23816Y13984D01*
X23969Y14351D01*
X23969Y3808D01*
X23860Y4071D01*
X23591Y4340D01*
X23238Y4487D01*
X22857Y4487D01*
X22504Y4341D01*
X22235Y4072D01*
X22088Y3719D01*
X22088Y3338D01*
X22234Y2985D01*
X22503Y2716D01*
X22856Y2569D01*
X23237Y2569D01*
X23590Y2715D01*
X23859Y2984D01*
X23981Y3277D01*
X23981Y507D01*
X23981Y507D01*
G37*
G54D19*
X23981Y507D02*
X22553Y507D01*
X22553Y1371D01*
X22553Y1589D01*
X22469Y1791D01*
X22315Y1945D01*
X22296Y1953D01*
X22315Y1960D01*
X22469Y2114D01*
X22553Y2316D01*
X22553Y2534D01*
X22469Y2736D01*
X22315Y2890D01*
X22113Y2974D01*
X21895Y2974D01*
X21693Y2890D01*
X21539Y2736D01*
X21504Y2652D01*
X21469Y2736D01*
X21315Y2890D01*
X21113Y2974D01*
X20895Y2974D01*
X20693Y2890D01*
X20539Y2736D01*
X20504Y2652D01*
X20469Y2736D01*
X20315Y2890D01*
X20113Y2974D01*
X19895Y2974D01*
X19693Y2890D01*
X19539Y2736D01*
X19504Y2652D01*
X19469Y2736D01*
X19332Y2873D01*
X19332Y3496D01*
X19434Y3598D01*
X19503Y3701D01*
X19504Y3702D01*
X19527Y3824D01*
X19528Y3824D01*
X19528Y10684D01*
X19527Y10685D01*
X19504Y10806D01*
X19503Y10808D01*
X19434Y10910D01*
X19434Y10911D01*
X18680Y11664D01*
X19238Y12221D01*
X19238Y12222D01*
X19307Y12324D01*
X19307Y12325D01*
X19308Y12326D01*
X19331Y12447D01*
X19332Y12448D01*
X19332Y15058D01*
X19350Y15065D01*
X19489Y15204D01*
X19565Y15386D01*
X19565Y15583D01*
X19565Y15683D01*
X19490Y15865D01*
X19351Y16004D01*
X19169Y16080D01*
X18972Y16080D01*
X18790Y16005D01*
X18651Y15866D01*
X18575Y15684D01*
X18575Y15487D01*
X18575Y15387D01*
X18650Y15205D01*
X18692Y15163D01*
X18692Y12581D01*
X18541Y12430D01*
X18541Y17434D01*
X18541Y17631D01*
X18541Y17731D01*
X18466Y17913D01*
X18327Y18052D01*
X18145Y18128D01*
X17948Y18128D01*
X17766Y18053D01*
X17627Y17914D01*
X17551Y17732D01*
X17551Y17535D01*
X17551Y17435D01*
X17626Y17253D01*
X17712Y17167D01*
X17712Y15911D01*
X17619Y16004D01*
X17437Y16080D01*
X17240Y16080D01*
X17058Y16005D01*
X16925Y15872D01*
X16925Y17435D01*
X16925Y17632D01*
X16925Y17730D01*
X16850Y17912D01*
X16711Y18051D01*
X16529Y18127D01*
X16332Y18127D01*
X16150Y18052D01*
X16011Y17913D01*
X15935Y17731D01*
X15935Y17534D01*
X15935Y17468D01*
X15650Y17182D01*
X15580Y17079D01*
X15556Y16956D01*
X15556Y15980D01*
X15532Y16004D01*
X15350Y16080D01*
X15153Y16080D01*
X15020Y16026D01*
X15020Y16040D01*
X15122Y16142D01*
X15191Y16245D01*
X15192Y16246D01*
X15215Y16368D01*
X15216Y16368D01*
X15216Y18132D01*
X15192Y18254D01*
X15122Y18358D01*
X15018Y18428D01*
X14896Y18452D01*
X13720Y18452D01*
X13630Y18435D01*
X13647Y18523D01*
X13648Y18524D01*
X13648Y19141D01*
X13731Y19175D01*
X13885Y19329D01*
X13969Y19531D01*
X13969Y19749D01*
X13885Y19951D01*
X13751Y20085D01*
X13863Y20197D01*
X13947Y20399D01*
X13947Y20617D01*
X13863Y20819D01*
X13709Y20973D01*
X13507Y21057D01*
X13289Y21057D01*
X13087Y20973D01*
X12933Y20819D01*
X12898Y20735D01*
X12863Y20819D01*
X12709Y20973D01*
X12507Y21057D01*
X12289Y21057D01*
X12087Y20973D01*
X11933Y20819D01*
X11898Y20735D01*
X11863Y20819D01*
X11709Y20973D01*
X11507Y21057D01*
X11289Y21057D01*
X11087Y20973D01*
X10933Y20819D01*
X10898Y20735D01*
X10863Y20819D01*
X10709Y20973D01*
X10507Y21057D01*
X10289Y21057D01*
X10087Y20973D01*
X9933Y20819D01*
X9898Y20735D01*
X9863Y20819D01*
X9709Y20973D01*
X9507Y21057D01*
X9289Y21057D01*
X9087Y20973D01*
X8933Y20819D01*
X8898Y20735D01*
X8863Y20819D01*
X8709Y20973D01*
X8507Y21057D01*
X8289Y21057D01*
X8087Y20973D01*
X7933Y20819D01*
X7900Y20741D01*
X7878Y20794D01*
X7783Y20823D01*
X7713Y20753D01*
X7713Y20893D01*
X7684Y20988D01*
X7479Y21061D01*
X7261Y21050D01*
X7112Y20988D01*
X7083Y20893D01*
X7398Y20579D01*
X7713Y20893D01*
X7713Y20753D01*
X7469Y20508D01*
X7783Y20193D01*
X7878Y20222D01*
X7898Y20280D01*
X7933Y20197D01*
X8067Y20063D01*
X7955Y19951D01*
X7922Y19873D01*
X7900Y19926D01*
X7805Y19955D01*
X7735Y19885D01*
X7735Y20025D01*
X7709Y20111D01*
X7713Y20123D01*
X7398Y20437D01*
X7083Y20123D01*
X7108Y20038D01*
X7105Y20025D01*
X7420Y19711D01*
X7735Y20025D01*
X7735Y19885D01*
X7491Y19640D01*
X7805Y19325D01*
X7900Y19354D01*
X7920Y19412D01*
X7955Y19329D01*
X8109Y19175D01*
X8311Y19091D01*
X8529Y19091D01*
X8731Y19175D01*
X8885Y19329D01*
X8920Y19414D01*
X8955Y19329D01*
X9109Y19175D01*
X9311Y19091D01*
X9529Y19091D01*
X9731Y19175D01*
X9885Y19329D01*
X9920Y19414D01*
X9955Y19329D01*
X10068Y19216D01*
X10068Y17544D01*
X10092Y17421D01*
X10159Y17323D01*
X10159Y17264D01*
X10223Y17108D01*
X10343Y16988D01*
X10499Y16923D01*
X10668Y16923D01*
X10824Y16987D01*
X10944Y17107D01*
X11009Y17263D01*
X11009Y17432D01*
X10945Y17588D01*
X10825Y17708D01*
X10708Y17757D01*
X10708Y19166D01*
X10731Y19175D01*
X10885Y19329D01*
X10920Y19414D01*
X10955Y19329D01*
X11109Y19175D01*
X11311Y19091D01*
X11499Y19091D01*
X11464Y19039D01*
X11440Y18916D01*
X11440Y16956D01*
X11464Y16833D01*
X11534Y16730D01*
X12670Y15594D01*
X12670Y15574D01*
X10750Y13654D01*
X10680Y13551D01*
X10656Y13428D01*
X10656Y12585D01*
X10629Y12612D01*
X10473Y12677D01*
X10304Y12677D01*
X10148Y12613D01*
X10028Y12493D01*
X9963Y12337D01*
X9963Y12168D01*
X9987Y12109D01*
X9765Y11886D01*
X9534Y11886D01*
X9442Y11848D01*
X9372Y11778D01*
X9334Y11687D01*
X9334Y11588D01*
X9334Y11238D01*
X9372Y11146D01*
X9431Y11087D01*
X9372Y11028D01*
X9334Y10936D01*
X9333Y10824D01*
X9395Y10762D01*
X9758Y10762D01*
X9808Y10762D01*
X9908Y10762D01*
X9958Y10762D01*
X10321Y10762D01*
X10383Y10824D01*
X10382Y10936D01*
X10344Y11028D01*
X10285Y11087D01*
X10344Y11146D01*
X10382Y11237D01*
X10382Y11336D01*
X10382Y11598D01*
X10545Y11762D01*
X10515Y11687D01*
X10515Y11588D01*
X10515Y11238D01*
X10553Y11146D01*
X10612Y11087D01*
X10553Y11028D01*
X10515Y10936D01*
X10514Y10824D01*
X10576Y10762D01*
X10939Y10762D01*
X10989Y10762D01*
X11089Y10762D01*
X11139Y10762D01*
X11502Y10762D01*
X11564Y10824D01*
X11563Y10936D01*
X11525Y11028D01*
X11466Y11087D01*
X11525Y11146D01*
X11563Y11237D01*
X11563Y11336D01*
X11563Y11686D01*
X11525Y11778D01*
X11455Y11848D01*
X11364Y11886D01*
X11296Y11886D01*
X11296Y13296D01*
X13012Y15013D01*
X13066Y14990D01*
X13261Y14990D01*
X11926Y13654D01*
X11856Y13551D01*
X11832Y13428D01*
X11832Y11860D01*
X11804Y11848D01*
X11734Y11778D01*
X11696Y11687D01*
X11696Y11588D01*
X11696Y11238D01*
X11734Y11146D01*
X11793Y11087D01*
X11734Y11028D01*
X11696Y10936D01*
X11695Y10824D01*
X11757Y10762D01*
X12120Y10762D01*
X12170Y10762D01*
X12270Y10762D01*
X12320Y10762D01*
X12683Y10762D01*
X12745Y10824D01*
X12744Y10936D01*
X12706Y11028D01*
X12647Y11087D01*
X12706Y11146D01*
X12744Y11237D01*
X12744Y11336D01*
X12744Y11686D01*
X12706Y11778D01*
X12636Y11848D01*
X12545Y11886D01*
X12472Y11886D01*
X12472Y13296D01*
X13946Y14769D01*
X13946Y14770D01*
X13992Y14839D01*
X14015Y14873D01*
X14016Y14874D01*
X14039Y14996D01*
X14040Y14996D01*
X14040Y15251D01*
X14067Y15224D01*
X14223Y15159D01*
X14392Y15159D01*
X14423Y15172D01*
X13102Y13850D01*
X13032Y13747D01*
X13008Y13624D01*
X13008Y11857D01*
X12986Y11847D01*
X12916Y11777D01*
X12878Y11686D01*
X12878Y11587D01*
X12878Y11237D01*
X12916Y11145D01*
X12975Y11086D01*
X12916Y11027D01*
X12878Y10935D01*
X12877Y10823D01*
X12939Y10761D01*
X13302Y10761D01*
X13352Y10761D01*
X13452Y10761D01*
X13502Y10761D01*
X13865Y10761D01*
X13927Y10823D01*
X13926Y10935D01*
X13888Y11027D01*
X13829Y11086D01*
X13888Y11145D01*
X13926Y11236D01*
X13926Y11335D01*
X13926Y11685D01*
X13888Y11777D01*
X13818Y11847D01*
X13727Y11885D01*
X13648Y11885D01*
X13648Y13492D01*
X15148Y14992D01*
X15152Y14990D01*
X15349Y14990D01*
X15466Y15039D01*
X14278Y13850D01*
X14208Y13747D01*
X14184Y13624D01*
X14184Y11855D01*
X14167Y11847D01*
X14097Y11777D01*
X14059Y11686D01*
X14059Y11587D01*
X14059Y11237D01*
X14097Y11145D01*
X14156Y11086D01*
X14097Y11027D01*
X14059Y10935D01*
X14058Y10823D01*
X14120Y10761D01*
X14483Y10761D01*
X14533Y10761D01*
X14633Y10761D01*
X14683Y10761D01*
X15046Y10761D01*
X15108Y10823D01*
X15107Y10935D01*
X15069Y11027D01*
X15010Y11086D01*
X15069Y11145D01*
X15107Y11236D01*
X15107Y11335D01*
X15107Y11685D01*
X15069Y11777D01*
X14999Y11847D01*
X14908Y11885D01*
X14824Y11885D01*
X14824Y13492D01*
X16102Y14770D01*
X16171Y14873D01*
X16172Y14874D01*
X16195Y14996D01*
X16196Y14996D01*
X16196Y16824D01*
X16411Y17039D01*
X16528Y17039D01*
X16710Y17114D01*
X16849Y17253D01*
X16925Y17435D01*
X16925Y15872D01*
X16919Y15866D01*
X16843Y15684D01*
X16843Y15487D01*
X16843Y15387D01*
X16918Y15205D01*
X16928Y15195D01*
X16928Y13169D01*
X15896Y12137D01*
X15909Y12167D01*
X15909Y12336D01*
X15845Y12492D01*
X15725Y12612D01*
X15569Y12677D01*
X15400Y12677D01*
X15244Y12613D01*
X15124Y12493D01*
X15059Y12337D01*
X15059Y12168D01*
X15123Y12012D01*
X15164Y11971D01*
X15164Y11664D01*
X15188Y11541D01*
X15240Y11465D01*
X15240Y11237D01*
X15278Y11145D01*
X15337Y11086D01*
X15278Y11027D01*
X15240Y10935D01*
X15239Y10823D01*
X15301Y10761D01*
X15664Y10761D01*
X15714Y10761D01*
X15814Y10761D01*
X15864Y10761D01*
X16227Y10761D01*
X16289Y10823D01*
X16288Y10935D01*
X16250Y11027D01*
X16191Y11086D01*
X16250Y11145D01*
X16288Y11236D01*
X16288Y11335D01*
X16288Y11624D01*
X17474Y12809D01*
X17474Y12810D01*
X17520Y12879D01*
X17543Y12913D01*
X17544Y12914D01*
X17567Y13036D01*
X17568Y13036D01*
X17568Y15045D01*
X17618Y15065D01*
X17712Y15159D01*
X17712Y12827D01*
X17633Y12827D01*
X17477Y12763D01*
X17357Y12643D01*
X17292Y12487D01*
X17292Y12357D01*
X16820Y11885D01*
X16621Y11885D01*
X16529Y11847D01*
X16459Y11777D01*
X16421Y11686D01*
X16421Y11587D01*
X16421Y11237D01*
X16459Y11145D01*
X16518Y11086D01*
X16459Y11027D01*
X16421Y10935D01*
X16420Y10823D01*
X16482Y10761D01*
X16845Y10761D01*
X16895Y10761D01*
X16995Y10761D01*
X17045Y10761D01*
X17408Y10761D01*
X17470Y10823D01*
X17469Y10935D01*
X17431Y11027D01*
X17372Y11086D01*
X17431Y11145D01*
X17469Y11236D01*
X17469Y11335D01*
X17469Y11629D01*
X17829Y11989D01*
X17957Y12041D01*
X18077Y12161D01*
X18131Y12292D01*
X18258Y12418D01*
X18327Y12521D01*
X18328Y12522D01*
X18352Y12644D01*
X18352Y17139D01*
X18465Y17252D01*
X18541Y17434D01*
X18541Y12430D01*
X17996Y11885D01*
X17803Y11885D01*
X17711Y11847D01*
X17641Y11777D01*
X17603Y11686D01*
X17603Y11587D01*
X17603Y11237D01*
X17641Y11145D01*
X17700Y11086D01*
X17641Y11027D01*
X17603Y10935D01*
X17602Y10823D01*
X17664Y10761D01*
X18027Y10761D01*
X18077Y10761D01*
X18177Y10761D01*
X18227Y10761D01*
X18590Y10761D01*
X18634Y10806D01*
X18888Y10552D01*
X18888Y4856D01*
X18841Y4903D01*
X18659Y4979D01*
X18652Y4979D01*
X18652Y10599D01*
X18590Y10661D01*
X18177Y10661D01*
X18177Y10348D01*
X18239Y10286D01*
X18353Y10287D01*
X18452Y10287D01*
X18543Y10325D01*
X18613Y10395D01*
X18651Y10487D01*
X18652Y10599D01*
X18652Y4979D01*
X18462Y4979D01*
X18280Y4904D01*
X18141Y4765D01*
X18065Y4583D01*
X18065Y4386D01*
X18065Y4286D01*
X18140Y4104D01*
X18279Y3965D01*
X18461Y3889D01*
X18658Y3889D01*
X18840Y3964D01*
X18888Y4012D01*
X18888Y3956D01*
X18786Y3854D01*
X18716Y3751D01*
X18692Y3628D01*
X18692Y2889D01*
X18539Y2736D01*
X18504Y2652D01*
X18469Y2736D01*
X18315Y2890D01*
X18113Y2974D01*
X17895Y2974D01*
X17693Y2890D01*
X17568Y2765D01*
X17568Y5981D01*
X17672Y5937D01*
X17869Y5937D01*
X18051Y6012D01*
X18190Y6151D01*
X18266Y6333D01*
X18266Y6530D01*
X18266Y6630D01*
X18191Y6812D01*
X18077Y6926D01*
X18077Y10348D01*
X18077Y10661D01*
X17664Y10661D01*
X17602Y10599D01*
X17603Y10487D01*
X17641Y10395D01*
X17711Y10325D01*
X17802Y10287D01*
X17901Y10287D01*
X18015Y10286D01*
X18077Y10348D01*
X18077Y6926D01*
X18052Y6951D01*
X17870Y7027D01*
X17673Y7027D01*
X17568Y6984D01*
X17568Y9619D01*
X17608Y9659D01*
X17673Y9815D01*
X17673Y9984D01*
X17609Y10140D01*
X17489Y10260D01*
X17347Y10320D01*
X17361Y10325D01*
X17431Y10395D01*
X17469Y10487D01*
X17470Y10599D01*
X17408Y10661D01*
X16995Y10661D01*
X16995Y10348D01*
X17057Y10286D01*
X17069Y10287D01*
X17008Y10261D01*
X16895Y10148D01*
X16895Y10348D01*
X16895Y10661D01*
X16482Y10661D01*
X16420Y10599D01*
X16421Y10487D01*
X16459Y10395D01*
X16529Y10325D01*
X16620Y10287D01*
X16719Y10287D01*
X16833Y10286D01*
X16895Y10348D01*
X16895Y10148D01*
X16888Y10141D01*
X16823Y9985D01*
X16823Y9816D01*
X16887Y9660D01*
X16928Y9619D01*
X16928Y4887D01*
X16912Y4903D01*
X16730Y4979D01*
X16533Y4979D01*
X16351Y4904D01*
X16289Y4842D01*
X16289Y10599D01*
X16227Y10661D01*
X15814Y10661D01*
X15814Y10348D01*
X15876Y10286D01*
X15990Y10287D01*
X16089Y10287D01*
X16180Y10325D01*
X16250Y10395D01*
X16288Y10487D01*
X16289Y10599D01*
X16289Y4842D01*
X16212Y4765D01*
X16180Y4689D01*
X16180Y6333D01*
X16180Y6530D01*
X16180Y6630D01*
X16105Y6812D01*
X15966Y6951D01*
X15784Y7027D01*
X15714Y7027D01*
X15714Y10348D01*
X15714Y10661D01*
X15301Y10661D01*
X15239Y10599D01*
X15240Y10487D01*
X15278Y10395D01*
X15348Y10325D01*
X15439Y10287D01*
X15538Y10287D01*
X15652Y10286D01*
X15714Y10348D01*
X15714Y7027D01*
X15587Y7027D01*
X15405Y6952D01*
X15266Y6813D01*
X15190Y6631D01*
X15190Y6434D01*
X15190Y6334D01*
X15265Y6152D01*
X15404Y6013D01*
X15586Y5937D01*
X15783Y5937D01*
X15965Y6012D01*
X16104Y6151D01*
X16180Y6333D01*
X16180Y4689D01*
X16136Y4583D01*
X16136Y4386D01*
X16136Y4286D01*
X16211Y4104D01*
X16350Y3965D01*
X16532Y3889D01*
X16729Y3889D01*
X16911Y3964D01*
X16928Y3981D01*
X16928Y2974D01*
X16655Y2974D01*
X16563Y2936D01*
X16493Y2866D01*
X16455Y2775D01*
X16455Y2676D01*
X16455Y2076D01*
X16493Y1984D01*
X16524Y1953D01*
X16493Y1921D01*
X16455Y1830D01*
X16455Y1731D01*
X16455Y1131D01*
X16493Y1039D01*
X16563Y969D01*
X16654Y931D01*
X16753Y931D01*
X17353Y931D01*
X17445Y969D01*
X17515Y1039D01*
X17553Y1130D01*
X17553Y1155D01*
X17693Y1015D01*
X17895Y931D01*
X18113Y931D01*
X18315Y1015D01*
X18469Y1169D01*
X18504Y1254D01*
X18539Y1169D01*
X18693Y1015D01*
X18895Y931D01*
X19113Y931D01*
X19315Y1015D01*
X19469Y1169D01*
X19504Y1254D01*
X19539Y1169D01*
X19693Y1015D01*
X19895Y931D01*
X20113Y931D01*
X20315Y1015D01*
X20469Y1169D01*
X20504Y1254D01*
X20539Y1169D01*
X20693Y1015D01*
X20895Y931D01*
X21113Y931D01*
X21315Y1015D01*
X21469Y1169D01*
X21504Y1254D01*
X21539Y1169D01*
X21693Y1015D01*
X21895Y931D01*
X22113Y931D01*
X22315Y1015D01*
X22469Y1169D01*
X22553Y1371D01*
X22553Y507D01*
X15545Y507D01*
X15545Y1371D01*
X15545Y1589D01*
X15461Y1791D01*
X15307Y1945D01*
X15108Y2028D01*
X15108Y10599D01*
X15046Y10661D01*
X14633Y10661D01*
X14633Y10348D01*
X14695Y10286D01*
X14809Y10287D01*
X14908Y10287D01*
X14999Y10325D01*
X15069Y10395D01*
X15107Y10487D01*
X15108Y10599D01*
X15108Y2028D01*
X15105Y2029D01*
X15001Y2029D01*
X15001Y4286D01*
X15001Y4483D01*
X15001Y4581D01*
X14926Y4763D01*
X14787Y4902D01*
X14605Y4978D01*
X14533Y4978D01*
X14533Y10348D01*
X14533Y10661D01*
X14120Y10661D01*
X14058Y10599D01*
X14059Y10487D01*
X14097Y10395D01*
X14167Y10325D01*
X14258Y10287D01*
X14357Y10287D01*
X14471Y10286D01*
X14533Y10348D01*
X14533Y4978D01*
X14408Y4978D01*
X14226Y4903D01*
X14093Y4770D01*
X14093Y6333D01*
X14093Y6530D01*
X14093Y6630D01*
X14018Y6812D01*
X13927Y6903D01*
X13927Y10599D01*
X13865Y10661D01*
X13452Y10661D01*
X13452Y10348D01*
X13514Y10286D01*
X13628Y10287D01*
X13727Y10287D01*
X13818Y10325D01*
X13888Y10395D01*
X13926Y10487D01*
X13927Y10599D01*
X13927Y6903D01*
X13879Y6951D01*
X13697Y7027D01*
X13500Y7027D01*
X13352Y6967D01*
X13352Y10348D01*
X13352Y10661D01*
X12939Y10661D01*
X12877Y10599D01*
X12878Y10487D01*
X12916Y10395D01*
X12986Y10325D01*
X13077Y10287D01*
X13176Y10287D01*
X13290Y10286D01*
X13352Y10348D01*
X13352Y6967D01*
X13318Y6952D01*
X13179Y6813D01*
X13103Y6631D01*
X13103Y6600D01*
X12745Y6242D01*
X12745Y10600D01*
X12683Y10662D01*
X12270Y10662D01*
X12270Y10349D01*
X12332Y10287D01*
X12446Y10288D01*
X12545Y10288D01*
X12636Y10326D01*
X12706Y10396D01*
X12744Y10488D01*
X12745Y10600D01*
X12745Y6242D01*
X12710Y6206D01*
X12640Y6103D01*
X12616Y5980D01*
X12616Y4907D01*
X12610Y4904D01*
X12471Y4765D01*
X12395Y4583D01*
X12395Y4386D01*
X12395Y4324D01*
X12361Y4290D01*
X12361Y6333D01*
X12361Y6530D01*
X12361Y6630D01*
X12286Y6812D01*
X12170Y6928D01*
X12170Y10349D01*
X12170Y10662D01*
X11757Y10662D01*
X11695Y10600D01*
X11696Y10488D01*
X11734Y10396D01*
X11804Y10326D01*
X11895Y10288D01*
X11994Y10288D01*
X12108Y10287D01*
X12170Y10349D01*
X12170Y6928D01*
X12147Y6951D01*
X11965Y7027D01*
X11949Y7027D01*
X11492Y7485D01*
X11492Y9619D01*
X11532Y9659D01*
X11597Y9815D01*
X11597Y9984D01*
X11533Y10140D01*
X11413Y10260D01*
X11345Y10288D01*
X11364Y10288D01*
X11455Y10326D01*
X11525Y10396D01*
X11563Y10488D01*
X11564Y10600D01*
X11502Y10662D01*
X11139Y10662D01*
X11089Y10662D01*
X10989Y10662D01*
X10939Y10662D01*
X10576Y10662D01*
X10514Y10600D01*
X10515Y10488D01*
X10553Y10396D01*
X10623Y10326D01*
X10714Y10288D01*
X10813Y10288D01*
X10927Y10287D01*
X10939Y10299D01*
X10939Y10287D01*
X10989Y10287D01*
X10993Y10287D01*
X10989Y10285D01*
X10932Y10261D01*
X10812Y10141D01*
X10747Y9985D01*
X10747Y9816D01*
X10811Y9660D01*
X10852Y9619D01*
X10852Y7352D01*
X10876Y7229D01*
X10946Y7126D01*
X11391Y6680D01*
X11371Y6631D01*
X11371Y6434D01*
X11371Y6334D01*
X11446Y6152D01*
X11585Y6013D01*
X11767Y5937D01*
X11964Y5937D01*
X12146Y6012D01*
X12285Y6151D01*
X12361Y6333D01*
X12361Y4290D01*
X11730Y3658D01*
X11660Y3555D01*
X11636Y3432D01*
X11636Y1896D01*
X11531Y1791D01*
X11496Y1707D01*
X11461Y1791D01*
X11307Y1945D01*
X11105Y2029D01*
X10887Y2029D01*
X10685Y1945D01*
X10545Y1805D01*
X10545Y1829D01*
X10507Y1921D01*
X10437Y1991D01*
X10383Y2014D01*
X10383Y10600D01*
X10321Y10662D01*
X9908Y10662D01*
X9908Y10349D01*
X9970Y10287D01*
X10084Y10288D01*
X10183Y10288D01*
X10274Y10326D01*
X10344Y10396D01*
X10382Y10488D01*
X10383Y10600D01*
X10383Y2014D01*
X10346Y2029D01*
X10316Y2029D01*
X10316Y2648D01*
X10292Y2770D01*
X10291Y2771D01*
X10268Y2805D01*
X10222Y2874D01*
X10222Y2875D01*
X10029Y3068D01*
X10029Y3124D01*
X9965Y3280D01*
X9845Y3400D01*
X9808Y3416D01*
X9808Y10349D01*
X9808Y10662D01*
X9395Y10662D01*
X9333Y10600D01*
X9334Y10488D01*
X9372Y10396D01*
X9442Y10326D01*
X9533Y10288D01*
X9632Y10288D01*
X9746Y10287D01*
X9808Y10349D01*
X9808Y3416D01*
X9689Y3465D01*
X9520Y3465D01*
X9364Y3401D01*
X9244Y3281D01*
X9202Y3181D01*
X9202Y10600D01*
X9202Y10824D01*
X9201Y10936D01*
X9163Y11028D01*
X9104Y11087D01*
X9163Y11146D01*
X9201Y11237D01*
X9201Y11336D01*
X9201Y11686D01*
X9163Y11778D01*
X9093Y11848D01*
X9002Y11886D01*
X8903Y11886D01*
X8658Y11886D01*
X8509Y12036D01*
X8539Y12023D01*
X8708Y12023D01*
X8864Y12087D01*
X8984Y12207D01*
X9049Y12363D01*
X9049Y12532D01*
X8985Y12688D01*
X8865Y12808D01*
X8709Y12873D01*
X8651Y12873D01*
X7964Y13561D01*
X7964Y14125D01*
X8052Y14213D01*
X8087Y14298D01*
X8122Y14213D01*
X8276Y14059D01*
X8478Y13975D01*
X8696Y13975D01*
X8898Y14059D01*
X9052Y14213D01*
X9136Y14415D01*
X9136Y14633D01*
X9052Y14835D01*
X8898Y14989D01*
X8813Y15024D01*
X8898Y15059D01*
X9052Y15213D01*
X9136Y15415D01*
X9136Y15633D01*
X9052Y15835D01*
X8898Y15989D01*
X8696Y16073D01*
X8478Y16073D01*
X8276Y15989D01*
X8136Y15849D01*
X8136Y15873D01*
X8098Y15965D01*
X8028Y16035D01*
X7964Y16062D01*
X7964Y16368D01*
X7940Y16490D01*
X7939Y16491D01*
X7870Y16594D01*
X7735Y16729D01*
X7735Y19255D01*
X7420Y19569D01*
X7349Y19499D01*
X7349Y19640D01*
X7035Y19955D01*
X6969Y19935D01*
X6969Y19989D01*
X6931Y20081D01*
X6919Y20093D01*
X6947Y20158D01*
X6947Y20214D01*
X7013Y20193D01*
X7327Y20508D01*
X7013Y20823D01*
X6947Y20803D01*
X6947Y20857D01*
X6909Y20949D01*
X6839Y21019D01*
X6748Y21057D01*
X6649Y21057D01*
X6049Y21057D01*
X5957Y21019D01*
X5887Y20949D01*
X5849Y20858D01*
X5849Y20759D01*
X5849Y20159D01*
X5887Y20067D01*
X5898Y20056D01*
X5871Y19990D01*
X5871Y19891D01*
X5871Y19291D01*
X5909Y19199D01*
X5979Y19129D01*
X6070Y19091D01*
X6169Y19091D01*
X6769Y19091D01*
X6861Y19129D01*
X6931Y19199D01*
X6969Y19290D01*
X6969Y19346D01*
X7035Y19325D01*
X7349Y19640D01*
X7349Y19499D01*
X7105Y19255D01*
X7134Y19160D01*
X7339Y19087D01*
X7557Y19098D01*
X7706Y19160D01*
X7735Y19255D01*
X7735Y16729D01*
X5612Y18852D01*
X5612Y20007D01*
X5652Y20047D01*
X5717Y20203D01*
X5717Y20372D01*
X5653Y20528D01*
X5533Y20648D01*
X5377Y20713D01*
X5208Y20713D01*
X5052Y20649D01*
X4932Y20529D01*
X4867Y20373D01*
X4867Y20204D01*
X4931Y20048D01*
X4972Y20007D01*
X4972Y18720D01*
X4996Y18597D01*
X5066Y18494D01*
X6377Y17183D01*
X6228Y17121D01*
X6108Y17001D01*
X6043Y16845D01*
X6043Y16676D01*
X6107Y16520D01*
X6227Y16400D01*
X6383Y16335D01*
X6441Y16335D01*
X7038Y15738D01*
X7038Y15431D01*
X6830Y15222D01*
X6760Y15119D01*
X6736Y14996D01*
X6736Y13036D01*
X6760Y12913D01*
X6830Y12810D01*
X8153Y11487D01*
X8153Y11238D01*
X8191Y11146D01*
X8250Y11087D01*
X8191Y11028D01*
X8153Y10936D01*
X8152Y10824D01*
X8214Y10762D01*
X8577Y10762D01*
X8627Y10762D01*
X8727Y10762D01*
X8777Y10762D01*
X9140Y10762D01*
X9202Y10824D01*
X9202Y10600D01*
X9140Y10662D01*
X8727Y10662D01*
X8727Y10349D01*
X8789Y10287D01*
X8903Y10288D01*
X9002Y10288D01*
X9093Y10326D01*
X9163Y10396D01*
X9201Y10488D01*
X9202Y10600D01*
X9202Y3181D01*
X9179Y3125D01*
X9179Y2956D01*
X9243Y2800D01*
X9363Y2680D01*
X9519Y2615D01*
X9576Y2615D01*
X9676Y2516D01*
X9676Y2029D01*
X9647Y2029D01*
X9555Y1991D01*
X9485Y1921D01*
X9447Y1830D01*
X9447Y1731D01*
X9447Y1131D01*
X9485Y1039D01*
X9555Y969D01*
X9646Y931D01*
X9745Y931D01*
X10345Y931D01*
X10437Y969D01*
X10507Y1039D01*
X10545Y1130D01*
X10545Y1155D01*
X10685Y1015D01*
X10887Y931D01*
X11105Y931D01*
X11307Y1015D01*
X11461Y1169D01*
X11496Y1254D01*
X11531Y1169D01*
X11685Y1015D01*
X11887Y931D01*
X12105Y931D01*
X12307Y1015D01*
X12461Y1169D01*
X12493Y1248D01*
X12516Y1194D01*
X12611Y1165D01*
X12925Y1480D01*
X12611Y1795D01*
X12516Y1766D01*
X12495Y1709D01*
X12461Y1791D01*
X12307Y1945D01*
X12276Y1958D01*
X12276Y3300D01*
X12865Y3889D01*
X12988Y3889D01*
X13170Y3964D01*
X13309Y4103D01*
X13385Y4285D01*
X13385Y4482D01*
X13385Y4582D01*
X13310Y4764D01*
X13256Y4818D01*
X13256Y5848D01*
X13390Y5983D01*
X13499Y5937D01*
X13696Y5937D01*
X13878Y6012D01*
X14017Y6151D01*
X14093Y6333D01*
X14093Y4770D01*
X14087Y4764D01*
X14011Y4582D01*
X14011Y4385D01*
X14011Y4287D01*
X14086Y4105D01*
X14225Y3966D01*
X14407Y3890D01*
X14604Y3890D01*
X14786Y3965D01*
X14925Y4104D01*
X15001Y4286D01*
X15001Y2029D01*
X14887Y2029D01*
X14685Y1945D01*
X14531Y1791D01*
X14498Y1713D01*
X14476Y1766D01*
X14381Y1795D01*
X14311Y1725D01*
X14311Y1865D01*
X14282Y1960D01*
X14077Y2033D01*
X13859Y2022D01*
X13710Y1960D01*
X13681Y1865D01*
X13996Y1551D01*
X14311Y1865D01*
X14311Y1725D01*
X14067Y1480D01*
X14381Y1165D01*
X14476Y1194D01*
X14496Y1252D01*
X14531Y1169D01*
X14685Y1015D01*
X14887Y931D01*
X15105Y931D01*
X15307Y1015D01*
X15461Y1169D01*
X15545Y1371D01*
X15545Y507D01*
X14311Y507D01*
X14311Y1095D01*
X13996Y1409D01*
X13925Y1339D01*
X13925Y1480D01*
X13611Y1795D01*
X13516Y1766D01*
X13497Y1715D01*
X13476Y1766D01*
X13381Y1795D01*
X13311Y1725D01*
X13311Y1865D01*
X13282Y1960D01*
X13077Y2033D01*
X12859Y2022D01*
X12710Y1960D01*
X12681Y1865D01*
X12996Y1551D01*
X13311Y1865D01*
X13311Y1725D01*
X13067Y1480D01*
X13381Y1165D01*
X13476Y1194D01*
X13494Y1246D01*
X13516Y1194D01*
X13611Y1165D01*
X13925Y1480D01*
X13925Y1339D01*
X13681Y1095D01*
X13710Y1000D01*
X13915Y927D01*
X14133Y938D01*
X14282Y1000D01*
X14311Y1095D01*
X14311Y507D01*
X13311Y507D01*
X13311Y1095D01*
X12996Y1409D01*
X12681Y1095D01*
X12710Y1000D01*
X12915Y927D01*
X13133Y938D01*
X13282Y1000D01*
X13311Y1095D01*
X13311Y507D01*
X8956Y507D01*
X8956Y2707D01*
X8956Y2931D01*
X8955Y3070D01*
X8955Y3169D01*
X8917Y3260D01*
X8847Y3330D01*
X8755Y3368D01*
X8627Y3369D01*
X8627Y10349D01*
X8627Y10662D01*
X8214Y10662D01*
X8152Y10600D01*
X8153Y10488D01*
X8191Y10396D01*
X8261Y10326D01*
X8352Y10288D01*
X8451Y10288D01*
X8565Y10287D01*
X8627Y10349D01*
X8627Y3369D01*
X8518Y3369D01*
X8456Y3307D01*
X8456Y2869D01*
X8894Y2869D01*
X8956Y2931D01*
X8956Y2707D01*
X8894Y2769D01*
X8456Y2769D01*
X8456Y2331D01*
X8518Y2269D01*
X8755Y2270D01*
X8847Y2308D01*
X8917Y2378D01*
X8955Y2469D01*
X8955Y2568D01*
X8956Y2707D01*
X8956Y507D01*
X8955Y507D01*
X8955Y1091D01*
X8955Y1190D01*
X8955Y1790D01*
X8917Y1882D01*
X8847Y1952D01*
X8756Y1990D01*
X8657Y1990D01*
X8356Y1990D01*
X8356Y2331D01*
X8356Y2719D01*
X8356Y2769D01*
X8356Y2869D01*
X8356Y2919D01*
X8356Y3307D01*
X8294Y3369D01*
X8057Y3368D01*
X7965Y3330D01*
X7895Y3260D01*
X7857Y3169D01*
X7857Y3114D01*
X7791Y3134D01*
X7721Y3064D01*
X7721Y3204D01*
X7692Y3299D01*
X7487Y3372D01*
X7269Y3361D01*
X7120Y3299D01*
X7091Y3204D01*
X7406Y2890D01*
X7721Y3204D01*
X7721Y3064D01*
X7477Y2819D01*
X7791Y2504D01*
X7857Y2525D01*
X7857Y2469D01*
X7895Y2378D01*
X7965Y2308D01*
X8057Y2270D01*
X8294Y2269D01*
X8356Y2331D01*
X8356Y1990D01*
X8057Y1990D01*
X7965Y1952D01*
X7895Y1882D01*
X7857Y1791D01*
X7857Y1766D01*
X7721Y1902D01*
X7721Y2434D01*
X7406Y2748D01*
X7335Y2678D01*
X7335Y2819D01*
X7021Y3134D01*
X6926Y3105D01*
X6907Y3054D01*
X6886Y3105D01*
X6791Y3134D01*
X6721Y3064D01*
X6721Y3204D01*
X6692Y3299D01*
X6487Y3372D01*
X6269Y3361D01*
X6120Y3299D01*
X6091Y3204D01*
X6406Y2890D01*
X6721Y3204D01*
X6721Y3064D01*
X6477Y2819D01*
X6791Y2504D01*
X6886Y2533D01*
X6904Y2585D01*
X6926Y2533D01*
X7021Y2504D01*
X7335Y2819D01*
X7335Y2678D01*
X7091Y2434D01*
X7120Y2339D01*
X7325Y2266D01*
X7543Y2277D01*
X7692Y2339D01*
X7721Y2434D01*
X7721Y1902D01*
X7717Y1906D01*
X7515Y1990D01*
X7297Y1990D01*
X7095Y1906D01*
X6941Y1752D01*
X6906Y1668D01*
X6871Y1752D01*
X6721Y1902D01*
X6721Y2434D01*
X6406Y2748D01*
X6335Y2678D01*
X6335Y2819D01*
X6021Y3134D01*
X5926Y3105D01*
X5907Y3054D01*
X5886Y3105D01*
X5791Y3134D01*
X5721Y3064D01*
X5721Y3204D01*
X5692Y3299D01*
X5487Y3372D01*
X5486Y3372D01*
X5486Y13764D01*
X5486Y13863D01*
X5486Y14463D01*
X5448Y14555D01*
X5378Y14625D01*
X5287Y14663D01*
X5262Y14663D01*
X5402Y14803D01*
X5486Y15005D01*
X5486Y15223D01*
X5402Y15425D01*
X5248Y15579D01*
X5163Y15614D01*
X5248Y15649D01*
X5402Y15803D01*
X5486Y16005D01*
X5486Y16223D01*
X5402Y16425D01*
X5248Y16579D01*
X5163Y16614D01*
X5248Y16649D01*
X5402Y16803D01*
X5486Y17005D01*
X5486Y17223D01*
X5402Y17425D01*
X5248Y17579D01*
X5046Y17663D01*
X4828Y17663D01*
X4626Y17579D01*
X4472Y17425D01*
X4388Y17223D01*
X4388Y17005D01*
X4472Y16803D01*
X4626Y16649D01*
X4710Y16614D01*
X4626Y16579D01*
X4472Y16425D01*
X4388Y16223D01*
X4388Y16005D01*
X4472Y15803D01*
X4626Y15649D01*
X4710Y15614D01*
X4626Y15579D01*
X4472Y15425D01*
X4388Y15223D01*
X4388Y15005D01*
X4472Y14803D01*
X4612Y14663D01*
X4588Y14663D01*
X4496Y14625D01*
X4426Y14555D01*
X4388Y14464D01*
X4388Y14365D01*
X4388Y13765D01*
X4426Y13673D01*
X4496Y13603D01*
X4587Y13565D01*
X4686Y13565D01*
X5286Y13565D01*
X5378Y13603D01*
X5448Y13673D01*
X5486Y13764D01*
X5486Y3372D01*
X5269Y3361D01*
X5120Y3299D01*
X5091Y3204D01*
X5406Y2890D01*
X5721Y3204D01*
X5721Y3064D01*
X5477Y2819D01*
X5791Y2504D01*
X5886Y2533D01*
X5904Y2585D01*
X5926Y2533D01*
X6021Y2504D01*
X6335Y2819D01*
X6335Y2678D01*
X6091Y2434D01*
X6120Y2339D01*
X6325Y2266D01*
X6543Y2277D01*
X6692Y2339D01*
X6721Y2434D01*
X6721Y1902D01*
X6717Y1906D01*
X6515Y1990D01*
X6297Y1990D01*
X6095Y1906D01*
X5941Y1752D01*
X5906Y1668D01*
X5871Y1752D01*
X5721Y1902D01*
X5721Y2434D01*
X5406Y2748D01*
X5335Y2678D01*
X5335Y2819D01*
X5021Y3134D01*
X4926Y3105D01*
X4853Y2900D01*
X4864Y2682D01*
X4926Y2533D01*
X5021Y2504D01*
X5335Y2819D01*
X5335Y2678D01*
X5091Y2434D01*
X5120Y2339D01*
X5325Y2266D01*
X5543Y2277D01*
X5692Y2339D01*
X5721Y2434D01*
X5721Y1902D01*
X5717Y1906D01*
X5515Y1990D01*
X5297Y1990D01*
X5095Y1906D01*
X4941Y1752D01*
X4857Y1550D01*
X4857Y1332D01*
X4941Y1130D01*
X5095Y976D01*
X5297Y892D01*
X5515Y892D01*
X5717Y976D01*
X5871Y1130D01*
X5906Y1215D01*
X5941Y1130D01*
X6095Y976D01*
X6297Y892D01*
X6515Y892D01*
X6717Y976D01*
X6871Y1130D01*
X6906Y1215D01*
X6941Y1130D01*
X7095Y976D01*
X7297Y892D01*
X7515Y892D01*
X7717Y976D01*
X7857Y1116D01*
X7857Y1092D01*
X7895Y1000D01*
X7965Y930D01*
X8056Y892D01*
X8155Y892D01*
X8755Y892D01*
X8847Y930D01*
X8917Y1000D01*
X8955Y1091D01*
X8955Y507D01*
X4628Y507D01*
X4628Y3903D01*
X4624Y3983D01*
X4624Y5875D01*
X4624Y6093D01*
X4540Y6295D01*
X4386Y6449D01*
X4345Y6467D01*
X4345Y19223D01*
X4345Y19392D01*
X4281Y19548D01*
X4161Y19668D01*
X4005Y19733D01*
X3969Y19733D01*
X3969Y20335D01*
X3969Y20733D01*
X3817Y21101D01*
X3536Y21382D01*
X3169Y21535D01*
X2771Y21535D01*
X2403Y21383D01*
X2122Y21102D01*
X1969Y20735D01*
X1969Y20337D01*
X2121Y19969D01*
X2402Y19688D01*
X2769Y19535D01*
X3167Y19535D01*
X3535Y19687D01*
X3816Y19968D01*
X3969Y20335D01*
X3969Y19733D01*
X3836Y19733D01*
X3680Y19669D01*
X3560Y19549D01*
X3495Y19393D01*
X3495Y19336D01*
X3014Y18855D01*
X2842Y18855D01*
X2750Y18817D01*
X2680Y18747D01*
X2642Y18656D01*
X2642Y18557D01*
X2642Y18207D01*
X2680Y18115D01*
X2739Y18056D01*
X2680Y17997D01*
X2642Y17906D01*
X2642Y17864D01*
X2541Y17864D01*
X2510Y17941D01*
X2474Y17977D01*
X2510Y18013D01*
X2548Y18105D01*
X2549Y18278D01*
X2549Y18502D01*
X2548Y18675D01*
X2510Y18767D01*
X2440Y18837D01*
X2349Y18875D01*
X2250Y18875D01*
X2175Y18876D01*
X2113Y18814D01*
X2113Y18440D01*
X2487Y18440D01*
X2549Y18502D01*
X2549Y18278D01*
X2487Y18340D01*
X2163Y18340D01*
X2113Y18340D01*
X2013Y18340D01*
X2013Y18440D01*
X2013Y18814D01*
X1951Y18876D01*
X1876Y18875D01*
X1777Y18875D01*
X1686Y18837D01*
X1616Y18767D01*
X1578Y18675D01*
X1577Y18502D01*
X1639Y18440D01*
X2013Y18440D01*
X2013Y18340D01*
X1963Y18340D01*
X1639Y18340D01*
X1577Y18278D01*
X1578Y18105D01*
X1616Y18013D01*
X1652Y17977D01*
X1616Y17941D01*
X1578Y17850D01*
X1578Y17751D01*
X1578Y17279D01*
X1616Y17187D01*
X1686Y17117D01*
X1777Y17079D01*
X1876Y17079D01*
X2348Y17079D01*
X2440Y17117D01*
X2510Y17187D01*
X2525Y17224D01*
X2940Y17224D01*
X3062Y17248D01*
X3063Y17248D01*
X3075Y17257D01*
X3076Y17257D01*
X3490Y17257D01*
X3582Y17295D01*
X3652Y17365D01*
X3690Y17456D01*
X3690Y17555D01*
X3690Y17905D01*
X3652Y17997D01*
X3593Y18056D01*
X3652Y18115D01*
X3690Y18206D01*
X3690Y18305D01*
X3690Y18626D01*
X3947Y18883D01*
X4004Y18883D01*
X4160Y18947D01*
X4280Y19067D01*
X4345Y19223D01*
X4345Y6467D01*
X4184Y6533D01*
X3966Y6533D01*
X3764Y6449D01*
X3610Y6295D01*
X3526Y6093D01*
X3526Y5875D01*
X3610Y5673D01*
X3764Y5519D01*
X3966Y5435D01*
X4184Y5435D01*
X4386Y5519D01*
X4540Y5673D01*
X4624Y5875D01*
X4624Y3983D01*
X4617Y4121D01*
X4555Y4270D01*
X4460Y4299D01*
X4390Y4229D01*
X4390Y4369D01*
X4361Y4464D01*
X4156Y4537D01*
X3938Y4526D01*
X3789Y4464D01*
X3760Y4369D01*
X4075Y4055D01*
X4390Y4369D01*
X4390Y4229D01*
X4146Y3984D01*
X4460Y3669D01*
X4555Y3698D01*
X4628Y3903D01*
X4628Y507D01*
X4390Y507D01*
X4390Y3599D01*
X4075Y3913D01*
X4004Y3843D01*
X4004Y3984D01*
X3690Y4299D01*
X3595Y4270D01*
X3522Y4065D01*
X3533Y3847D01*
X3595Y3698D01*
X3690Y3669D01*
X4004Y3984D01*
X4004Y3843D01*
X3760Y3599D01*
X3789Y3504D01*
X3994Y3431D01*
X4212Y3442D01*
X4361Y3504D01*
X4390Y3599D01*
X4390Y507D01*
X3496Y507D01*
X3496Y1359D01*
X3496Y1757D01*
X3344Y2125D01*
X3063Y2406D01*
X2708Y2554D01*
X2708Y7737D01*
X2708Y8135D01*
X2706Y8140D01*
X2706Y13722D01*
X2706Y14119D01*
X2554Y14486D01*
X2273Y14767D01*
X1906Y14920D01*
X1509Y14920D01*
X1142Y14768D01*
X861Y14487D01*
X708Y14120D01*
X708Y13723D01*
X860Y13356D01*
X1141Y13075D01*
X1508Y12922D01*
X1905Y12922D01*
X2272Y13074D01*
X2553Y13355D01*
X2706Y13722D01*
X2706Y8140D01*
X2556Y8503D01*
X2275Y8784D01*
X1908Y8937D01*
X1510Y8937D01*
X1142Y8785D01*
X861Y8504D01*
X708Y8137D01*
X708Y7739D01*
X860Y7371D01*
X1141Y7090D01*
X1508Y6937D01*
X1906Y6937D01*
X2274Y7089D01*
X2555Y7370D01*
X2708Y7737D01*
X2708Y2554D01*
X2696Y2559D01*
X2298Y2559D01*
X1930Y2407D01*
X1649Y2126D01*
X1629Y2079D01*
X1629Y3903D01*
X1625Y3983D01*
X1625Y5875D01*
X1625Y6093D01*
X1541Y6295D01*
X1387Y6449D01*
X1185Y6533D01*
X967Y6533D01*
X765Y6449D01*
X611Y6295D01*
X527Y6093D01*
X527Y5875D01*
X611Y5673D01*
X765Y5519D01*
X967Y5435D01*
X1185Y5435D01*
X1387Y5519D01*
X1541Y5673D01*
X1625Y5875D01*
X1625Y3983D01*
X1618Y4121D01*
X1556Y4270D01*
X1461Y4299D01*
X1391Y4229D01*
X1391Y4369D01*
X1362Y4464D01*
X1157Y4537D01*
X939Y4526D01*
X790Y4464D01*
X761Y4369D01*
X1076Y4055D01*
X1391Y4369D01*
X1391Y4229D01*
X1147Y3984D01*
X1461Y3669D01*
X1556Y3698D01*
X1629Y3903D01*
X1629Y2079D01*
X1496Y1759D01*
X1496Y1361D01*
X1648Y993D01*
X1929Y712D01*
X2296Y559D01*
X2694Y559D01*
X3062Y711D01*
X3343Y992D01*
X3496Y1359D01*
X3496Y507D01*
X1391Y507D01*
X1391Y3599D01*
X1076Y3913D01*
X1005Y3843D01*
X1005Y3984D01*
X691Y4299D01*
X596Y4270D01*
X523Y4065D01*
X534Y3847D01*
X596Y3698D01*
X691Y3669D01*
X1005Y3984D01*
X1005Y3843D01*
X761Y3599D01*
X790Y3504D01*
X995Y3431D01*
X1213Y3442D01*
X1362Y3504D01*
X1391Y3599D01*
X1391Y507D01*
X459Y507D01*
X459Y22060D01*
X23981Y22060D01*
X23981Y3779D01*
X23969Y3808D01*
X23969Y14351D01*
X23969Y14749D01*
X23817Y15117D01*
X23536Y15398D01*
X23169Y15551D01*
X22771Y15551D01*
X22529Y15452D01*
X22529Y20400D01*
X22529Y20618D01*
X22445Y20820D01*
X22291Y20974D01*
X22089Y21058D01*
X21871Y21058D01*
X21669Y20974D01*
X21515Y20820D01*
X21480Y20736D01*
X21445Y20820D01*
X21291Y20974D01*
X21089Y21058D01*
X20871Y21058D01*
X20669Y20974D01*
X20515Y20820D01*
X20480Y20736D01*
X20445Y20820D01*
X20291Y20974D01*
X20089Y21058D01*
X19871Y21058D01*
X19669Y20974D01*
X19515Y20820D01*
X19480Y20736D01*
X19445Y20820D01*
X19291Y20974D01*
X19089Y21058D01*
X18871Y21058D01*
X18669Y20974D01*
X18515Y20820D01*
X18480Y20736D01*
X18445Y20820D01*
X18291Y20974D01*
X18089Y21058D01*
X17871Y21058D01*
X17669Y20974D01*
X17515Y20820D01*
X17480Y20736D01*
X17445Y20820D01*
X17291Y20974D01*
X17089Y21058D01*
X16871Y21058D01*
X16669Y20974D01*
X16515Y20820D01*
X16480Y20736D01*
X16445Y20820D01*
X16291Y20974D01*
X16089Y21058D01*
X15871Y21058D01*
X15669Y20974D01*
X15529Y20834D01*
X15529Y20858D01*
X15491Y20950D01*
X15421Y21020D01*
X15330Y21058D01*
X15231Y21058D01*
X14631Y21058D01*
X14539Y21020D01*
X14469Y20950D01*
X14431Y20859D01*
X14431Y20760D01*
X14431Y20160D01*
X14462Y20085D01*
X14459Y20081D01*
X14421Y19990D01*
X14421Y19891D01*
X14421Y19291D01*
X14459Y19199D01*
X14529Y19129D01*
X14620Y19091D01*
X14719Y19091D01*
X15319Y19091D01*
X15411Y19129D01*
X15481Y19199D01*
X15519Y19290D01*
X15519Y19315D01*
X15659Y19175D01*
X15861Y19091D01*
X16079Y19091D01*
X16281Y19175D01*
X16435Y19329D01*
X16470Y19414D01*
X16505Y19329D01*
X16659Y19175D01*
X16861Y19091D01*
X17079Y19091D01*
X17281Y19175D01*
X17435Y19329D01*
X17470Y19414D01*
X17505Y19329D01*
X17659Y19175D01*
X17861Y19091D01*
X18079Y19091D01*
X18281Y19175D01*
X18435Y19329D01*
X18470Y19414D01*
X18505Y19329D01*
X18659Y19175D01*
X18861Y19091D01*
X19079Y19091D01*
X19281Y19175D01*
X19435Y19329D01*
X19470Y19414D01*
X19505Y19329D01*
X19659Y19175D01*
X19861Y19091D01*
X20079Y19091D01*
X20281Y19175D01*
X20435Y19329D01*
X20470Y19414D01*
X20505Y19329D01*
X20659Y19175D01*
X20861Y19091D01*
X21079Y19091D01*
X21281Y19175D01*
X21435Y19329D01*
X21470Y19414D01*
X21505Y19329D01*
X21659Y19175D01*
X21861Y19091D01*
X22079Y19091D01*
X22281Y19175D01*
X22435Y19329D01*
X22519Y19531D01*
X22519Y19749D01*
X22435Y19951D01*
X22316Y20070D01*
X22445Y20198D01*
X22529Y20400D01*
X22529Y15452D01*
X22403Y15399D01*
X22122Y15118D01*
X21969Y14751D01*
X21969Y14353D01*
X22121Y13985D01*
X22402Y13704D01*
X22769Y13551D01*
X23167Y13551D01*
X23535Y13703D01*
X23816Y13984D01*
X23969Y14351D01*
X23969Y3808D01*
X23860Y4071D01*
X23591Y4340D01*
X23238Y4487D01*
X22857Y4487D01*
X22504Y4341D01*
X22235Y4072D01*
X22088Y3719D01*
X22088Y3338D01*
X22234Y2985D01*
X22503Y2716D01*
X22856Y2569D01*
X23237Y2569D01*
X23590Y2715D01*
X23859Y2984D01*
X23981Y3277D01*
X23981Y507D01*
M02*
