G04 (created by PCBNEW-RS274X (2011-nov-30)-testing) date Mon 11 Jun 2012 06:12:24 PM EDT*
%MOIN*%
G04 Gerber Fmt 3.4, Leading zero omitted, Abs format*
%FSLAX34Y34*%
G01*
G70*
G90*
G04 APERTURE LIST*
%ADD10C,0.006*%
%ADD11R,0.08X0.08*%
%ADD12C,0.08*%
%ADD13C,0.0987*%
%ADD14C,0.1381*%
%ADD15R,0.07X0.1349*%
%ADD16R,0.155X0.085*%
%ADD17R,0.1549X0.085*%
%ADD18R,0.0594X0.1695*%
%ADD19R,0.0594X0.1696*%
%ADD20R,0.6892X0.7284*%
%ADD21R,0.1379X0.0987*%
%ADD22R,0.138X0.0987*%
%ADD23R,0.07X0.12*%
%ADD24O,0.2089X0.138*%
%ADD25O,0.2089X0.1379*%
%ADD26C,0.145*%
%ADD27R,0.2168X0.2365*%
%ADD28R,0.2365X0.1498*%
%ADD29C,0.1263*%
%ADD30R,0.036X0.07*%
%ADD31R,0.075X0.055*%
%ADD32R,0.0514X0.1617*%
%ADD33R,0.055X0.075*%
%ADD34C,0.075*%
G04 APERTURE END LIST*
G54D10*
G54D11*
X12238Y2173D03*
G54D12*
X13218Y2173D03*
X14198Y2173D03*
X13218Y3157D03*
X12238Y3157D03*
X14202Y3157D03*
G54D13*
X37218Y6140D03*
X37218Y8305D03*
G54D14*
X37218Y3265D03*
G54D15*
X7707Y5092D03*
X6529Y5092D03*
G54D16*
X5426Y2365D03*
G54D17*
X8810Y2365D03*
G54D18*
X21023Y15827D03*
X21693Y15827D03*
G54D19*
X22362Y15827D03*
G54D18*
X23031Y15827D03*
X23701Y15827D03*
G54D20*
X22362Y20749D03*
G54D21*
X19607Y16812D03*
G54D22*
X25118Y16811D03*
G54D23*
X28518Y1315D03*
X28518Y5014D03*
G54D17*
X26985Y3165D03*
X30051Y3165D03*
G54D24*
X37334Y19862D03*
G54D25*
X37322Y16910D03*
G54D26*
X33130Y6850D03*
G54D12*
X33825Y15756D03*
X33826Y16757D03*
X33826Y17757D03*
X33826Y18757D03*
X33826Y19757D03*
X33826Y20757D03*
X33826Y21757D03*
G54D11*
X37018Y22781D03*
G54D12*
X37018Y23765D03*
X37018Y24749D03*
G54D26*
X1118Y25866D03*
X33617Y25877D03*
X3618Y6880D03*
G54D12*
X12118Y6874D03*
X11118Y6874D03*
X10118Y6874D03*
X9118Y6874D03*
X8118Y6874D03*
X7118Y6874D03*
X6118Y6874D03*
X5118Y6874D03*
X3118Y25874D03*
X4118Y25874D03*
X5118Y25874D03*
X6118Y25874D03*
X10118Y25874D03*
X12118Y25874D03*
X13118Y25874D03*
X9118Y25874D03*
X8118Y25874D03*
X7118Y25874D03*
X14118Y25874D03*
X15118Y25874D03*
X16118Y25874D03*
X19118Y25874D03*
X18118Y25874D03*
X17118Y25874D03*
X21118Y25875D03*
X22118Y25874D03*
X23118Y25874D03*
X25118Y25874D03*
X26118Y25874D03*
X14118Y6874D03*
X15118Y6874D03*
X16118Y6874D03*
X17118Y6874D03*
X18118Y6874D03*
X19118Y6874D03*
X20118Y6874D03*
X21118Y6874D03*
X22718Y6874D03*
X23718Y6874D03*
X24718Y6874D03*
X25718Y6874D03*
X26718Y6874D03*
X27718Y6874D03*
X28718Y6874D03*
X29718Y6874D03*
X24118Y25874D03*
X2118Y7874D03*
X1118Y7874D03*
X2118Y8874D03*
X1118Y8874D03*
X2118Y9874D03*
X1118Y9874D03*
X2118Y10874D03*
X1118Y10874D03*
X2118Y6874D03*
X1118Y6874D03*
X1118Y11874D03*
X2118Y11874D03*
X2118Y12874D03*
X1118Y12874D03*
X2118Y13874D03*
X1118Y13874D03*
X2118Y14874D03*
X1118Y14874D03*
X2118Y15874D03*
X1118Y15874D03*
X2118Y16874D03*
X1118Y16874D03*
X2118Y17874D03*
X1118Y17874D03*
X2118Y18874D03*
X1118Y18874D03*
X2118Y19874D03*
X1118Y19874D03*
X2118Y20874D03*
X1118Y20874D03*
X2118Y21874D03*
X1118Y21874D03*
X2118Y22874D03*
X1118Y22874D03*
X2118Y23874D03*
X1118Y23874D03*
G54D11*
X23418Y2665D03*
G54D12*
X24418Y2665D03*
G54D27*
X19018Y2766D03*
G54D28*
X19018Y4765D03*
G54D12*
X33110Y12390D03*
X33110Y11390D03*
X33897Y11390D03*
X33897Y12390D03*
G54D29*
X34960Y14252D03*
X34960Y9528D03*
G54D30*
X32368Y20565D03*
X32118Y20565D03*
X31858Y20565D03*
X31598Y20565D03*
X31348Y20565D03*
X31088Y20565D03*
X30828Y20565D03*
X30578Y20565D03*
X30318Y20565D03*
X30068Y20565D03*
X29808Y20565D03*
X29548Y20565D03*
X29298Y20565D03*
X29038Y20565D03*
X29038Y17765D03*
X29298Y17765D03*
X29538Y17765D03*
X29808Y17765D03*
X30068Y17765D03*
X30318Y17765D03*
X30578Y17765D03*
X30828Y17765D03*
X31088Y17765D03*
X31348Y17765D03*
X31598Y17765D03*
X31858Y17765D03*
X32118Y17765D03*
X32368Y17765D03*
G54D11*
X2118Y3265D03*
G54D12*
X3118Y3265D03*
G54D11*
X30118Y14665D03*
G54D12*
X30118Y13665D03*
X30118Y12665D03*
G54D31*
X13759Y5671D03*
X13759Y4921D03*
X12666Y5700D03*
X12666Y4950D03*
G54D11*
X24918Y5165D03*
G54D12*
X23918Y5165D03*
X22918Y5165D03*
G54D32*
X20393Y11891D03*
X20393Y9529D03*
X8582Y11891D03*
X8582Y9529D03*
G54D31*
X15669Y11085D03*
X15669Y10335D03*
G54D33*
X29533Y16365D03*
X28783Y16365D03*
X30543Y16365D03*
X31293Y16365D03*
G54D32*
X12519Y11891D03*
X12519Y9529D03*
G54D34*
X28868Y23415D03*
X28868Y25415D03*
X31868Y23415D03*
X31868Y25415D03*
G54D32*
X24330Y11891D03*
X24330Y9529D03*
G54D31*
X27480Y11085D03*
X27480Y10335D03*
G54D23*
X33518Y1315D03*
X33518Y5014D03*
G54D17*
X31985Y3165D03*
X35051Y3165D03*
G54D18*
X9211Y15827D03*
X9881Y15827D03*
G54D19*
X10550Y15827D03*
G54D18*
X11219Y15827D03*
X11889Y15827D03*
G54D20*
X10550Y20749D03*
G54D21*
X7795Y16812D03*
G54D22*
X13306Y16811D03*
M02*
