G04 (created by PCBNEW-RS274X (2011-nov-30)-testing) date Fri 27 Jul 2012 07:09:39 PM EDT*
%MOIN*%
G04 Gerber Fmt 3.4, Leading zero omitted, Abs format*
%FSLAX34Y34*%
G01*
G70*
G90*
G04 APERTURE LIST*
%ADD10C,0.006*%
%ADD11R,0.075X0.055*%
%ADD12R,0.075X0.075*%
%ADD13C,0.075*%
%ADD14R,0.0397X0.0397*%
%ADD15C,0.146*%
%ADD16R,0.0791X0.083*%
G04 APERTURE END LIST*
G54D10*
G54D11*
X57481Y-25610D03*
X57481Y-26360D03*
G54D10*
G36*
X47463Y-43287D02*
X47838Y-43936D01*
X47361Y-44211D01*
X46986Y-43562D01*
X47463Y-43287D01*
X47463Y-43287D01*
G37*
G36*
X46813Y-43663D02*
X47188Y-44312D01*
X46711Y-44587D01*
X46336Y-43938D01*
X46813Y-43663D01*
X46813Y-43663D01*
G37*
G36*
X70751Y-44094D02*
X70376Y-44743D01*
X69899Y-44468D01*
X70274Y-43819D01*
X70751Y-44094D01*
X70751Y-44094D01*
G37*
G36*
X70101Y-43720D02*
X69726Y-44369D01*
X69249Y-44094D01*
X69624Y-43445D01*
X70101Y-43720D01*
X70101Y-43720D01*
G37*
G54D12*
X56398Y-31811D03*
G54D13*
X57398Y-31811D03*
X58398Y-31811D03*
X59398Y-31811D03*
X60398Y-31811D03*
G54D10*
G36*
X68461Y-45648D02*
X68659Y-45306D01*
X69001Y-45504D01*
X68803Y-45846D01*
X68461Y-45648D01*
X68461Y-45648D01*
G37*
G36*
X68785Y-45835D02*
X68983Y-45493D01*
X69325Y-45691D01*
X69127Y-46033D01*
X68785Y-45835D01*
X68785Y-45835D01*
G37*
G36*
X69109Y-46022D02*
X69307Y-45680D01*
X69649Y-45878D01*
X69451Y-46220D01*
X69109Y-46022D01*
X69109Y-46022D01*
G37*
G36*
X69581Y-45204D02*
X69779Y-44862D01*
X70121Y-45060D01*
X69923Y-45402D01*
X69581Y-45204D01*
X69581Y-45204D01*
G37*
G36*
X69257Y-45017D02*
X69455Y-44675D01*
X69797Y-44873D01*
X69599Y-45215D01*
X69257Y-45017D01*
X69257Y-45017D01*
G37*
G36*
X68933Y-44830D02*
X69131Y-44488D01*
X69473Y-44686D01*
X69275Y-45028D01*
X68933Y-44830D01*
X68933Y-44830D01*
G37*
G36*
X47636Y-46063D02*
X47438Y-45721D01*
X47780Y-45523D01*
X47978Y-45865D01*
X47636Y-46063D01*
X47636Y-46063D01*
G37*
G36*
X47960Y-45876D02*
X47762Y-45534D01*
X48104Y-45336D01*
X48302Y-45678D01*
X47960Y-45876D01*
X47960Y-45876D01*
G37*
G36*
X48284Y-45689D02*
X48086Y-45347D01*
X48428Y-45149D01*
X48626Y-45491D01*
X48284Y-45689D01*
X48284Y-45689D01*
G37*
G36*
X47812Y-44871D02*
X47614Y-44529D01*
X47956Y-44331D01*
X48154Y-44673D01*
X47812Y-44871D01*
X47812Y-44871D01*
G37*
G36*
X47488Y-45058D02*
X47290Y-44716D01*
X47632Y-44518D01*
X47830Y-44860D01*
X47488Y-45058D01*
X47488Y-45058D01*
G37*
G36*
X47164Y-45245D02*
X46966Y-44903D01*
X47308Y-44705D01*
X47506Y-45047D01*
X47164Y-45245D01*
X47164Y-45245D01*
G37*
G54D14*
X59448Y-26359D03*
X59448Y-25985D03*
X59448Y-25611D03*
X58504Y-25611D03*
X58504Y-25985D03*
X58504Y-26359D03*
G54D15*
X58465Y-51771D03*
X69887Y-31988D03*
X47043Y-31988D03*
G54D10*
G36*
X50928Y-44390D02*
X50533Y-43705D01*
X51252Y-43290D01*
X51647Y-43975D01*
X50928Y-44390D01*
X50928Y-44390D01*
G37*
G36*
X50062Y-42891D02*
X49667Y-42206D01*
X50386Y-41791D01*
X50781Y-42476D01*
X50062Y-42891D01*
X50062Y-42891D01*
G37*
G36*
X50495Y-43641D02*
X50100Y-42956D01*
X50819Y-42541D01*
X51214Y-43226D01*
X50495Y-43641D01*
X50495Y-43641D01*
G37*
G36*
X49063Y-44467D02*
X48668Y-43782D01*
X49387Y-43367D01*
X49782Y-44052D01*
X49063Y-44467D01*
X49063Y-44467D01*
G37*
G36*
X48630Y-43718D02*
X48235Y-43033D01*
X48954Y-42618D01*
X49349Y-43303D01*
X48630Y-43718D01*
X48630Y-43718D01*
G37*
G36*
X49496Y-45217D02*
X49101Y-44532D01*
X49820Y-44117D01*
X50215Y-44802D01*
X49496Y-45217D01*
X49496Y-45217D01*
G37*
G36*
X66001Y-32775D02*
X66396Y-33460D01*
X65677Y-33875D01*
X65282Y-33190D01*
X66001Y-32775D01*
X66001Y-32775D01*
G37*
G36*
X66867Y-34274D02*
X67262Y-34959D01*
X66543Y-35374D01*
X66148Y-34689D01*
X66867Y-34274D01*
X66867Y-34274D01*
G37*
G36*
X66434Y-33525D02*
X66829Y-34210D01*
X66110Y-34625D01*
X65715Y-33940D01*
X66434Y-33525D01*
X66434Y-33525D01*
G37*
G36*
X67866Y-32697D02*
X68261Y-33382D01*
X67542Y-33797D01*
X67147Y-33112D01*
X67866Y-32697D01*
X67866Y-32697D01*
G37*
G36*
X68299Y-33447D02*
X68694Y-34132D01*
X67975Y-34547D01*
X67580Y-33862D01*
X68299Y-33447D01*
X68299Y-33447D01*
G37*
G36*
X67433Y-31948D02*
X67828Y-32633D01*
X67109Y-33048D01*
X66714Y-32363D01*
X67433Y-31948D01*
X67433Y-31948D01*
G37*
G36*
X67262Y-42206D02*
X66867Y-42891D01*
X66148Y-42476D01*
X66543Y-41791D01*
X67262Y-42206D01*
X67262Y-42206D01*
G37*
G36*
X66396Y-43705D02*
X66001Y-44390D01*
X65282Y-43975D01*
X65677Y-43290D01*
X66396Y-43705D01*
X66396Y-43705D01*
G37*
G36*
X66829Y-42956D02*
X66434Y-43641D01*
X65715Y-43226D01*
X66110Y-42541D01*
X66829Y-42956D01*
X66829Y-42956D01*
G37*
G36*
X68261Y-43782D02*
X67866Y-44467D01*
X67147Y-44052D01*
X67542Y-43367D01*
X68261Y-43782D01*
X68261Y-43782D01*
G37*
G36*
X67828Y-44532D02*
X67433Y-45217D01*
X66714Y-44802D01*
X67109Y-44117D01*
X67828Y-44532D01*
X67828Y-44532D01*
G37*
G36*
X68694Y-43033D02*
X68299Y-43718D01*
X67580Y-43303D01*
X67975Y-42618D01*
X68694Y-43033D01*
X68694Y-43033D01*
G37*
G54D16*
X57599Y-29567D03*
X59331Y-29567D03*
X58465Y-29567D03*
X58465Y-27913D03*
X59331Y-27913D03*
X57599Y-27913D03*
G54D10*
G36*
X50215Y-32363D02*
X49820Y-33048D01*
X49101Y-32633D01*
X49496Y-31948D01*
X50215Y-32363D01*
X50215Y-32363D01*
G37*
G36*
X49349Y-33862D02*
X48954Y-34547D01*
X48235Y-34132D01*
X48630Y-33447D01*
X49349Y-33862D01*
X49349Y-33862D01*
G37*
G36*
X49782Y-33113D02*
X49387Y-33798D01*
X48668Y-33383D01*
X49063Y-32698D01*
X49782Y-33113D01*
X49782Y-33113D01*
G37*
G36*
X51214Y-33939D02*
X50819Y-34624D01*
X50100Y-34209D01*
X50495Y-33524D01*
X51214Y-33939D01*
X51214Y-33939D01*
G37*
G36*
X50781Y-34689D02*
X50386Y-35374D01*
X49667Y-34959D01*
X50062Y-34274D01*
X50781Y-34689D01*
X50781Y-34689D01*
G37*
G36*
X51647Y-33190D02*
X51252Y-33875D01*
X50533Y-33460D01*
X50928Y-32775D01*
X51647Y-33190D01*
X51647Y-33190D01*
G37*
G54D16*
X57599Y-39410D03*
X59331Y-39410D03*
X58465Y-39410D03*
X58465Y-37756D03*
X59331Y-37756D03*
X57599Y-37756D03*
X57599Y-49253D03*
X59331Y-49253D03*
X58465Y-49253D03*
X58465Y-47599D03*
X59331Y-47599D03*
X57599Y-47599D03*
M02*
