M48
;DRILL file {Pcbnew (2011-nov-30)-testing} date Tue 18 Sep 2012 04:12:23 PM EDT
;FORMAT={-:-/ absolute / inch / decimal}
FMAT,2
INCH,TZ
T1C0.025
T2C0.039
T3C0.040
T4C0.043
%
G90
G05
M72
T1
X0.194Y0.984
X0.3499Y0.7177
X0.4878Y0.6743
X0.6362Y0.5455
X0.638Y0.222
X0.642Y0.624
X0.749Y0.346
X0.76Y0.59
X0.765Y0.472
X0.7888Y0.6337
X0.7902Y1.2371
X0.7909Y0.7289
X0.8238Y0.7982
X0.825Y0.99
X0.851Y0.16
X0.943Y0.92
X0.965Y1.335
X0.9702Y0.7095
X0.9932Y1.2329
X1.0202Y0.7185
X1.027Y0.777
X1.0548Y0.6547
X1.0583Y0.5798
X1.078Y0.137
X1.08Y1.22
X1.08Y1.13
X1.1Y0.94
X1.129Y0.4272
X1.14Y0.8
X1.205Y0.385
X1.23Y0.71
X1.23Y0.66
X1.254Y0.429
X1.258Y0.184
X1.26Y1.025
X1.265Y1.23
X1.2669Y0.8843
X1.339Y0.872
X1.35Y0.695
X1.359Y0.534
X1.365Y1.045
X1.375Y0.78
X1.376Y0.65
X1.4041Y0.8941
X1.41Y0.6
X1.4111Y0.5504
X1.4524Y0.3894
X1.482Y0.226
X1.485Y0.137
X1.505Y0.77
X1.509Y0.943
X1.57Y1.1
X1.575Y0.045
X1.5973Y0.2767
X1.6036Y0.1521
X1.6274Y0.4811
X1.677Y1.2645
X1.69Y0.77
X1.6932Y0.1766
X1.695Y0.82
X1.72Y0.55
X1.724Y0.8885
X1.773Y0.7346
X1.7975Y0.5259
X1.7975Y0.192
X1.803Y0.943
X1.822Y0.1451
X1.825Y0.67
X1.827Y0.481
X1.85Y1.32
X1.8675Y0.9459
X1.8976Y0.8766
X1.899Y0.302
X1.9291Y0.3558
X1.955Y0.98
X1.9564Y0.5259
T3
X0.49Y0.9505
X0.59Y0.9505
X0.69Y0.9505
X0.738Y1.4235
X0.838Y1.4235
X0.938Y1.4235
X1.038Y1.4235
X1.162Y1.4235
X1.262Y1.4235
X1.4065Y1.4215
X1.4065Y1.3215
X1.4065Y1.2215
X1.5065Y1.4215
X1.5065Y1.3215
X1.5065Y1.2215
T4
X0.1932Y0.8445
X0.1932Y0.6555
T2
X0.0555Y0.9114G85X0.0947Y0.9114
G05
X0.0555Y0.5886G85X0.0947Y0.5886
G05
T0
M30
