G04 (created by PCBNEW-RS274X (2011-nov-30)-testing) date Tue 18 Sep 2012 04:12:02 PM EDT*
%MOIN*%
G04 Gerber Fmt 3.4, Leading zero omitted, Abs format*
%FSLAX34Y34*%
G01*
G70*
G90*
G04 APERTURE LIST*
%ADD10C,0.006*%
%ADD11C,0.012*%
%ADD12R,0.06X0.06*%
%ADD13C,0.06*%
%ADD14R,0.0906X0.0512*%
%ADD15R,0.0867X0.0512*%
%ADD16R,0.0591X0.0512*%
%ADD17C,0.035*%
%ADD18C,0.01*%
G04 APERTURE END LIST*
G54D10*
G54D11*
X19047Y14230D02*
X19504Y14001D01*
X19047Y13772D01*
X18818Y14496D02*
X18447Y14496D01*
X18647Y14191D01*
X18561Y14191D01*
X18504Y14153D01*
X18475Y14115D01*
X18447Y14039D01*
X18447Y13849D01*
X18475Y13772D01*
X18504Y13734D01*
X18561Y13696D01*
X18733Y13696D01*
X18790Y13734D01*
X18818Y13772D01*
G54D12*
X7380Y14235D03*
G54D13*
X8380Y14235D03*
X9380Y14235D03*
X10380Y14235D03*
X6900Y9505D03*
X5900Y9505D03*
X4900Y9505D03*
G54D12*
X15065Y12215D03*
G54D13*
X14065Y12215D03*
X15065Y13215D03*
X14065Y13215D03*
X15065Y14215D03*
X14065Y14215D03*
G54D14*
X751Y9114D03*
G54D15*
X1932Y8445D03*
G54D14*
X751Y5886D03*
G54D16*
X1932Y6555D03*
G54D12*
X11620Y14235D03*
G54D13*
X12620Y14235D03*
G54D17*
X11400Y8000D03*
X11000Y9400D03*
X10800Y11300D03*
X15700Y11000D03*
X18030Y9430D03*
X15090Y9430D03*
X12300Y6600D03*
X13500Y6950D03*
X13760Y6500D03*
X18675Y9459D03*
X13750Y7800D03*
X16950Y8200D03*
X18500Y13200D03*
X19564Y5259D03*
X17975Y5259D03*
X14850Y1370D03*
X10780Y1370D03*
X15050Y7700D03*
X16900Y7700D03*
X14820Y2260D03*
X9650Y13350D03*
X10800Y12200D03*
X17975Y1920D03*
X19291Y3558D03*
X8238Y7982D03*
X7909Y7289D03*
X7888Y6337D03*
X12050Y3850D03*
X16036Y1521D03*
X13590Y5340D03*
X16274Y4811D03*
X12540Y4290D03*
X16932Y1766D03*
X8250Y9900D03*
X7650Y4720D03*
X10202Y7185D03*
X18976Y8766D03*
X10270Y7770D03*
X11290Y4272D03*
X14100Y6000D03*
X18250Y6700D03*
X19550Y9800D03*
X9430Y9200D03*
X12580Y1840D03*
X17200Y5500D03*
X14111Y5504D03*
X18990Y3020D03*
X18220Y1451D03*
X18270Y4810D03*
X15750Y450D03*
X9702Y7095D03*
X7600Y5900D03*
X16770Y12645D03*
X10548Y6547D03*
X13650Y10450D03*
X14041Y8941D03*
X17240Y8885D03*
X12669Y8843D03*
X6420Y6240D03*
X14524Y3894D03*
X15973Y2767D03*
X8510Y1600D03*
X7490Y3460D03*
X3499Y7177D03*
X9932Y12329D03*
X7902Y12371D03*
X1940Y9840D03*
X17730Y7346D03*
X10583Y5798D03*
X6380Y2220D03*
X4878Y6743D03*
X6362Y5455D03*
X12300Y7100D03*
X13390Y8720D03*
X12600Y10250D03*
X12650Y12300D03*
G54D18*
X11400Y8000D02*
X11400Y9000D01*
X11400Y9000D02*
X11000Y9400D01*
X10800Y11300D02*
X11100Y11000D01*
X11100Y11000D02*
X15700Y11000D01*
X15090Y9430D02*
X18030Y9430D01*
X12300Y6600D02*
X12500Y6800D01*
X12500Y6800D02*
X12550Y6800D01*
X12550Y6800D02*
X12700Y6950D01*
X12700Y6950D02*
X13500Y6950D01*
X14380Y6980D02*
X13760Y6500D01*
X17870Y6953D02*
X14380Y6980D01*
X18717Y7436D02*
X17870Y6953D01*
X19501Y8878D02*
X18717Y7436D01*
X18675Y9459D02*
X19501Y8878D01*
X13750Y7800D02*
X14150Y8200D01*
X14150Y8200D02*
X16950Y8200D01*
X18500Y13200D02*
X15050Y13200D01*
X15050Y13200D02*
X15065Y13215D01*
X19536Y5259D02*
X19564Y5259D01*
X17975Y5259D02*
X19536Y5259D01*
X14850Y1370D02*
X14820Y2260D01*
X10780Y1370D02*
X14850Y1370D01*
X15050Y7700D02*
X16900Y7700D01*
X9650Y13350D02*
X10800Y12200D01*
X18682Y3313D02*
X17975Y1920D01*
X19291Y3558D02*
X18682Y3313D01*
X8238Y7982D02*
X6900Y9505D01*
X7909Y7289D02*
X5900Y9505D01*
X7888Y6337D02*
X4900Y9505D01*
X15105Y2536D02*
X12050Y3850D01*
X16036Y1521D02*
X15105Y2536D01*
X13894Y4811D02*
X13590Y5340D01*
X16274Y4811D02*
X13894Y4811D01*
X16932Y1766D02*
X12540Y4290D01*
X8250Y9900D02*
X10650Y11650D01*
X15000Y14250D02*
X14550Y14700D01*
X14550Y14700D02*
X13900Y14700D01*
X13900Y14700D02*
X13850Y14650D01*
X13850Y14650D02*
X13800Y14650D01*
X13800Y14650D02*
X10800Y11650D01*
X10800Y11650D02*
X10650Y11650D01*
X15065Y14215D02*
X15000Y14250D01*
X9977Y6780D02*
X7650Y4720D01*
X10202Y7185D02*
X9977Y6780D01*
X14206Y8529D02*
X17620Y8534D01*
X17620Y8534D02*
X18976Y8766D01*
X12240Y7590D02*
X14206Y8529D01*
X10950Y7590D02*
X12240Y7590D01*
X10270Y7770D02*
X10950Y7590D01*
X14100Y6000D02*
X13000Y5930D01*
X13000Y5930D02*
X11290Y4272D01*
X14100Y6000D02*
X14800Y6700D01*
X14800Y6700D02*
X18250Y6700D01*
X13600Y9800D02*
X19550Y9800D01*
X12850Y10550D02*
X13600Y9800D01*
X12800Y10550D02*
X12850Y10550D01*
X12750Y10600D02*
X12800Y10550D01*
X10950Y10600D02*
X12750Y10600D01*
X9430Y9200D02*
X10950Y10600D01*
X14111Y5504D02*
X17200Y5500D01*
X12580Y1840D02*
X11500Y3908D01*
X13180Y5679D02*
X13770Y5700D01*
X11500Y3908D02*
X13180Y5679D01*
X13770Y5700D02*
X14111Y5504D01*
X18220Y1451D02*
X18990Y3020D01*
X16740Y2630D02*
X16740Y2770D01*
X16980Y4810D02*
X18270Y4810D01*
X16330Y4160D02*
X16980Y4810D01*
X16330Y3180D02*
X16330Y4160D01*
X16740Y2770D02*
X16330Y3180D01*
X15750Y450D02*
X17548Y464D01*
X17569Y2543D02*
X16740Y2630D01*
X17548Y464D02*
X17569Y2543D01*
X9702Y7095D02*
X8400Y5900D01*
X8400Y5900D02*
X7600Y5900D01*
X17240Y8885D02*
X14041Y8941D01*
X14524Y3894D02*
X15973Y2767D01*
X7490Y3460D02*
X8510Y1600D01*
X3499Y7177D02*
X3492Y7177D01*
X7944Y12329D02*
X9932Y12329D01*
X7902Y12371D02*
X7944Y12329D01*
X4878Y6743D02*
X4878Y8052D01*
X3090Y9840D02*
X1940Y9840D01*
X4878Y8052D02*
X3090Y9840D01*
X12600Y10250D02*
X13390Y8720D01*
X10583Y5798D02*
X12300Y7100D01*
X12300Y7100D02*
X12550Y7350D01*
X12550Y7350D02*
X17730Y7346D01*
X6380Y2220D02*
X6362Y5455D01*
X4878Y6743D02*
X6362Y5455D01*
X12650Y12300D02*
X12750Y12200D01*
X12750Y12200D02*
X14050Y12200D01*
X14050Y12200D02*
X14065Y12215D01*
G54D10*
G36*
X17258Y1493D02*
X17251Y761D01*
X16048Y753D01*
X15991Y810D01*
X15835Y875D01*
X15666Y875D01*
X15510Y810D01*
X15390Y691D01*
X15325Y535D01*
X15325Y366D01*
X15342Y325D01*
X6805Y325D01*
X6805Y2135D01*
X6805Y2304D01*
X6740Y2460D01*
X6677Y2524D01*
X6663Y5157D01*
X6722Y5214D01*
X6787Y5370D01*
X6787Y5539D01*
X6722Y5695D01*
X6603Y5815D01*
X6447Y5880D01*
X6328Y5880D01*
X5303Y6771D01*
X5303Y6827D01*
X5238Y6983D01*
X5178Y7044D01*
X5178Y8052D01*
X5155Y8167D01*
X5090Y8264D01*
X5090Y8265D01*
X3550Y9805D01*
X3550Y11458D01*
X3390Y11844D01*
X3095Y12139D01*
X2710Y12299D01*
X2292Y12300D01*
X1906Y12140D01*
X1611Y11845D01*
X1451Y11460D01*
X1450Y11042D01*
X1610Y10656D01*
X1905Y10361D01*
X2290Y10201D01*
X2708Y10200D01*
X3094Y10360D01*
X3389Y10655D01*
X3549Y11040D01*
X3550Y11458D01*
X3550Y9805D01*
X3302Y10052D01*
X3205Y10117D01*
X3090Y10140D01*
X2240Y10140D01*
X2181Y10200D01*
X2025Y10265D01*
X1856Y10265D01*
X1700Y10200D01*
X1580Y10081D01*
X1515Y9925D01*
X1515Y9756D01*
X1580Y9600D01*
X1699Y9480D01*
X1855Y9415D01*
X2024Y9415D01*
X2180Y9480D01*
X2240Y9540D01*
X2965Y9540D01*
X4578Y7928D01*
X4578Y7044D01*
X4518Y6984D01*
X4453Y6828D01*
X4453Y6659D01*
X4518Y6503D01*
X4637Y6383D01*
X4793Y6318D01*
X4909Y6318D01*
X5937Y5425D01*
X5937Y5371D01*
X6002Y5215D01*
X6063Y5153D01*
X6077Y2518D01*
X6020Y2461D01*
X5955Y2305D01*
X5955Y2136D01*
X6020Y1980D01*
X6139Y1860D01*
X6295Y1795D01*
X6464Y1795D01*
X6620Y1860D01*
X6740Y1979D01*
X6805Y2135D01*
X6805Y325D01*
X3550Y325D01*
X3550Y3958D01*
X3390Y4344D01*
X3095Y4639D01*
X2710Y4799D01*
X2292Y4800D01*
X1906Y4640D01*
X1611Y4345D01*
X1451Y3960D01*
X1450Y3542D01*
X1610Y3156D01*
X1905Y2861D01*
X2290Y2701D01*
X2708Y2700D01*
X3094Y2860D01*
X3389Y3155D01*
X3549Y3540D01*
X3550Y3958D01*
X3550Y325D01*
X325Y325D01*
X325Y14675D01*
X6868Y14675D01*
X6831Y14585D01*
X6831Y14486D01*
X6831Y13886D01*
X6869Y13794D01*
X6939Y13724D01*
X7030Y13686D01*
X7129Y13686D01*
X7729Y13686D01*
X7821Y13724D01*
X7891Y13794D01*
X7929Y13885D01*
X7929Y13909D01*
X8068Y13770D01*
X8270Y13686D01*
X8489Y13686D01*
X8691Y13769D01*
X8845Y13923D01*
X8879Y14007D01*
X8914Y13924D01*
X9068Y13770D01*
X9270Y13686D01*
X9385Y13686D01*
X9290Y13591D01*
X9225Y13435D01*
X9225Y13266D01*
X9290Y13110D01*
X9409Y12990D01*
X9565Y12925D01*
X9651Y12925D01*
X10375Y12201D01*
X10375Y12116D01*
X10440Y11960D01*
X10496Y11903D01*
X10473Y11892D01*
X8323Y10325D01*
X8166Y10325D01*
X8010Y10260D01*
X7890Y10141D01*
X7825Y9985D01*
X7825Y9816D01*
X7890Y9660D01*
X8009Y9540D01*
X8165Y9475D01*
X8334Y9475D01*
X8490Y9540D01*
X8610Y9659D01*
X8675Y9815D01*
X8675Y9839D01*
X10418Y11111D01*
X10440Y11060D01*
X10559Y10940D01*
X10715Y10875D01*
X10801Y10875D01*
X10813Y10863D01*
X10752Y10823D01*
X10748Y10819D01*
X10746Y10818D01*
X10738Y10812D01*
X10734Y10807D01*
X9448Y9625D01*
X9346Y9625D01*
X9190Y9560D01*
X9070Y9441D01*
X9005Y9285D01*
X9005Y9116D01*
X9070Y8960D01*
X9189Y8840D01*
X9345Y8775D01*
X9514Y8775D01*
X9670Y8840D01*
X9790Y8959D01*
X9855Y9115D01*
X9855Y9184D01*
X11069Y10300D01*
X12175Y10300D01*
X12175Y10166D01*
X12240Y10010D01*
X12359Y9890D01*
X12472Y9843D01*
X12984Y8852D01*
X12965Y8805D01*
X12965Y8636D01*
X13030Y8480D01*
X13149Y8360D01*
X13153Y8359D01*
X12171Y7890D01*
X11814Y7890D01*
X11825Y7915D01*
X11825Y8084D01*
X11760Y8240D01*
X11700Y8301D01*
X11700Y9000D01*
X11677Y9115D01*
X11612Y9212D01*
X11612Y9213D01*
X11425Y9400D01*
X11425Y9484D01*
X11360Y9640D01*
X11241Y9760D01*
X11085Y9825D01*
X10916Y9825D01*
X10760Y9760D01*
X10640Y9641D01*
X10575Y9485D01*
X10575Y9316D01*
X10640Y9160D01*
X10759Y9040D01*
X10915Y8975D01*
X11000Y8975D01*
X11100Y8876D01*
X11100Y8301D01*
X11040Y8241D01*
X10975Y8085D01*
X10975Y7916D01*
X10985Y7891D01*
X10641Y7982D01*
X10630Y8010D01*
X10511Y8130D01*
X10355Y8195D01*
X10186Y8195D01*
X10030Y8130D01*
X9910Y8011D01*
X9845Y7855D01*
X9845Y7686D01*
X9910Y7530D01*
X9928Y7512D01*
X9892Y7477D01*
X9787Y7520D01*
X9618Y7520D01*
X9462Y7455D01*
X9342Y7336D01*
X9277Y7180D01*
X9277Y7111D01*
X8296Y6213D01*
X8313Y6252D01*
X8313Y6421D01*
X8248Y6577D01*
X8129Y6697D01*
X7973Y6762D01*
X7896Y6762D01*
X7785Y6881D01*
X7824Y6864D01*
X7993Y6864D01*
X8149Y6929D01*
X8269Y7048D01*
X8334Y7204D01*
X8334Y7373D01*
X8269Y7529D01*
X8241Y7557D01*
X8322Y7557D01*
X8478Y7622D01*
X8598Y7741D01*
X8663Y7897D01*
X8663Y8066D01*
X8598Y8222D01*
X8479Y8342D01*
X8323Y8407D01*
X8263Y8407D01*
X7431Y9354D01*
X7449Y9395D01*
X7449Y9614D01*
X7366Y9816D01*
X7212Y9970D01*
X7010Y10054D01*
X6791Y10054D01*
X6589Y9971D01*
X6435Y9817D01*
X6400Y9734D01*
X6366Y9816D01*
X6212Y9970D01*
X6010Y10054D01*
X5791Y10054D01*
X5589Y9971D01*
X5435Y9817D01*
X5400Y9734D01*
X5366Y9816D01*
X5212Y9970D01*
X5010Y10054D01*
X4791Y10054D01*
X4589Y9971D01*
X4435Y9817D01*
X4351Y9615D01*
X4351Y9396D01*
X4434Y9194D01*
X4588Y9040D01*
X4790Y8956D01*
X5005Y8956D01*
X7463Y6349D01*
X7463Y6303D01*
X7360Y6260D01*
X7240Y6141D01*
X7175Y5985D01*
X7175Y5816D01*
X7240Y5660D01*
X7359Y5540D01*
X7515Y5475D01*
X7684Y5475D01*
X7840Y5540D01*
X7900Y5600D01*
X8191Y5600D01*
X7677Y5145D01*
X7566Y5145D01*
X7410Y5080D01*
X7290Y4961D01*
X7225Y4805D01*
X7225Y4636D01*
X7290Y4480D01*
X7409Y4360D01*
X7565Y4295D01*
X7734Y4295D01*
X7890Y4360D01*
X8010Y4479D01*
X8075Y4635D01*
X8075Y4695D01*
X10176Y6554D01*
X10216Y6608D01*
X10239Y6634D01*
X10246Y6647D01*
X10247Y6648D01*
X10247Y6649D01*
X10315Y6773D01*
X10442Y6825D01*
X10562Y6944D01*
X10627Y7100D01*
X10627Y7269D01*
X10581Y7378D01*
X10873Y7300D01*
X10911Y7298D01*
X10950Y7290D01*
X11918Y7290D01*
X11875Y7185D01*
X11875Y7156D01*
X10647Y6223D01*
X10499Y6223D01*
X10343Y6158D01*
X10223Y6039D01*
X10158Y5883D01*
X10158Y5714D01*
X10223Y5558D01*
X10342Y5438D01*
X10498Y5373D01*
X10667Y5373D01*
X10823Y5438D01*
X10943Y5557D01*
X11008Y5713D01*
X11008Y5745D01*
X11911Y6430D01*
X11940Y6360D01*
X12059Y6240D01*
X12215Y6175D01*
X12384Y6175D01*
X12540Y6240D01*
X12660Y6359D01*
X12725Y6515D01*
X12725Y6564D01*
X12762Y6588D01*
X12824Y6650D01*
X13199Y6650D01*
X13259Y6590D01*
X13335Y6559D01*
X13335Y6416D01*
X13400Y6260D01*
X13404Y6256D01*
X12981Y6229D01*
X12928Y6215D01*
X12890Y6208D01*
X12881Y6203D01*
X12868Y6199D01*
X12823Y6165D01*
X12791Y6144D01*
X11297Y4697D01*
X11206Y4697D01*
X11050Y4632D01*
X10930Y4513D01*
X10865Y4357D01*
X10865Y4188D01*
X10930Y4032D01*
X11049Y3912D01*
X11205Y3847D01*
X11211Y3847D01*
X11215Y3834D01*
X11226Y3786D01*
X11231Y3779D01*
X11234Y3769D01*
X12174Y1971D01*
X12155Y1925D01*
X12155Y1756D01*
X12190Y1670D01*
X11080Y1670D01*
X11021Y1730D01*
X10865Y1795D01*
X10696Y1795D01*
X10540Y1730D01*
X10420Y1611D01*
X10355Y1455D01*
X10355Y1286D01*
X10420Y1130D01*
X10539Y1010D01*
X10695Y945D01*
X10864Y945D01*
X11020Y1010D01*
X11080Y1070D01*
X14549Y1070D01*
X14609Y1010D01*
X14765Y945D01*
X14934Y945D01*
X15090Y1010D01*
X15210Y1129D01*
X15275Y1285D01*
X15275Y1454D01*
X15210Y1610D01*
X15139Y1682D01*
X15129Y1970D01*
X15175Y2015D01*
X15611Y1540D01*
X15611Y1437D01*
X15676Y1281D01*
X15795Y1161D01*
X15951Y1096D01*
X16120Y1096D01*
X16276Y1161D01*
X16396Y1280D01*
X16461Y1436D01*
X16461Y1605D01*
X16414Y1716D01*
X16517Y1657D01*
X16572Y1526D01*
X16691Y1406D01*
X16847Y1341D01*
X17016Y1341D01*
X17172Y1406D01*
X17258Y1493D01*
X17258Y1493D01*
G37*
G54D18*
X17258Y1493D02*
X17251Y761D01*
X16048Y753D01*
X15991Y810D01*
X15835Y875D01*
X15666Y875D01*
X15510Y810D01*
X15390Y691D01*
X15325Y535D01*
X15325Y366D01*
X15342Y325D01*
X6805Y325D01*
X6805Y2135D01*
X6805Y2304D01*
X6740Y2460D01*
X6677Y2524D01*
X6663Y5157D01*
X6722Y5214D01*
X6787Y5370D01*
X6787Y5539D01*
X6722Y5695D01*
X6603Y5815D01*
X6447Y5880D01*
X6328Y5880D01*
X5303Y6771D01*
X5303Y6827D01*
X5238Y6983D01*
X5178Y7044D01*
X5178Y8052D01*
X5155Y8167D01*
X5090Y8264D01*
X5090Y8265D01*
X3550Y9805D01*
X3550Y11458D01*
X3390Y11844D01*
X3095Y12139D01*
X2710Y12299D01*
X2292Y12300D01*
X1906Y12140D01*
X1611Y11845D01*
X1451Y11460D01*
X1450Y11042D01*
X1610Y10656D01*
X1905Y10361D01*
X2290Y10201D01*
X2708Y10200D01*
X3094Y10360D01*
X3389Y10655D01*
X3549Y11040D01*
X3550Y11458D01*
X3550Y9805D01*
X3302Y10052D01*
X3205Y10117D01*
X3090Y10140D01*
X2240Y10140D01*
X2181Y10200D01*
X2025Y10265D01*
X1856Y10265D01*
X1700Y10200D01*
X1580Y10081D01*
X1515Y9925D01*
X1515Y9756D01*
X1580Y9600D01*
X1699Y9480D01*
X1855Y9415D01*
X2024Y9415D01*
X2180Y9480D01*
X2240Y9540D01*
X2965Y9540D01*
X4578Y7928D01*
X4578Y7044D01*
X4518Y6984D01*
X4453Y6828D01*
X4453Y6659D01*
X4518Y6503D01*
X4637Y6383D01*
X4793Y6318D01*
X4909Y6318D01*
X5937Y5425D01*
X5937Y5371D01*
X6002Y5215D01*
X6063Y5153D01*
X6077Y2518D01*
X6020Y2461D01*
X5955Y2305D01*
X5955Y2136D01*
X6020Y1980D01*
X6139Y1860D01*
X6295Y1795D01*
X6464Y1795D01*
X6620Y1860D01*
X6740Y1979D01*
X6805Y2135D01*
X6805Y325D01*
X3550Y325D01*
X3550Y3958D01*
X3390Y4344D01*
X3095Y4639D01*
X2710Y4799D01*
X2292Y4800D01*
X1906Y4640D01*
X1611Y4345D01*
X1451Y3960D01*
X1450Y3542D01*
X1610Y3156D01*
X1905Y2861D01*
X2290Y2701D01*
X2708Y2700D01*
X3094Y2860D01*
X3389Y3155D01*
X3549Y3540D01*
X3550Y3958D01*
X3550Y325D01*
X325Y325D01*
X325Y14675D01*
X6868Y14675D01*
X6831Y14585D01*
X6831Y14486D01*
X6831Y13886D01*
X6869Y13794D01*
X6939Y13724D01*
X7030Y13686D01*
X7129Y13686D01*
X7729Y13686D01*
X7821Y13724D01*
X7891Y13794D01*
X7929Y13885D01*
X7929Y13909D01*
X8068Y13770D01*
X8270Y13686D01*
X8489Y13686D01*
X8691Y13769D01*
X8845Y13923D01*
X8879Y14007D01*
X8914Y13924D01*
X9068Y13770D01*
X9270Y13686D01*
X9385Y13686D01*
X9290Y13591D01*
X9225Y13435D01*
X9225Y13266D01*
X9290Y13110D01*
X9409Y12990D01*
X9565Y12925D01*
X9651Y12925D01*
X10375Y12201D01*
X10375Y12116D01*
X10440Y11960D01*
X10496Y11903D01*
X10473Y11892D01*
X8323Y10325D01*
X8166Y10325D01*
X8010Y10260D01*
X7890Y10141D01*
X7825Y9985D01*
X7825Y9816D01*
X7890Y9660D01*
X8009Y9540D01*
X8165Y9475D01*
X8334Y9475D01*
X8490Y9540D01*
X8610Y9659D01*
X8675Y9815D01*
X8675Y9839D01*
X10418Y11111D01*
X10440Y11060D01*
X10559Y10940D01*
X10715Y10875D01*
X10801Y10875D01*
X10813Y10863D01*
X10752Y10823D01*
X10748Y10819D01*
X10746Y10818D01*
X10738Y10812D01*
X10734Y10807D01*
X9448Y9625D01*
X9346Y9625D01*
X9190Y9560D01*
X9070Y9441D01*
X9005Y9285D01*
X9005Y9116D01*
X9070Y8960D01*
X9189Y8840D01*
X9345Y8775D01*
X9514Y8775D01*
X9670Y8840D01*
X9790Y8959D01*
X9855Y9115D01*
X9855Y9184D01*
X11069Y10300D01*
X12175Y10300D01*
X12175Y10166D01*
X12240Y10010D01*
X12359Y9890D01*
X12472Y9843D01*
X12984Y8852D01*
X12965Y8805D01*
X12965Y8636D01*
X13030Y8480D01*
X13149Y8360D01*
X13153Y8359D01*
X12171Y7890D01*
X11814Y7890D01*
X11825Y7915D01*
X11825Y8084D01*
X11760Y8240D01*
X11700Y8301D01*
X11700Y9000D01*
X11677Y9115D01*
X11612Y9212D01*
X11612Y9213D01*
X11425Y9400D01*
X11425Y9484D01*
X11360Y9640D01*
X11241Y9760D01*
X11085Y9825D01*
X10916Y9825D01*
X10760Y9760D01*
X10640Y9641D01*
X10575Y9485D01*
X10575Y9316D01*
X10640Y9160D01*
X10759Y9040D01*
X10915Y8975D01*
X11000Y8975D01*
X11100Y8876D01*
X11100Y8301D01*
X11040Y8241D01*
X10975Y8085D01*
X10975Y7916D01*
X10985Y7891D01*
X10641Y7982D01*
X10630Y8010D01*
X10511Y8130D01*
X10355Y8195D01*
X10186Y8195D01*
X10030Y8130D01*
X9910Y8011D01*
X9845Y7855D01*
X9845Y7686D01*
X9910Y7530D01*
X9928Y7512D01*
X9892Y7477D01*
X9787Y7520D01*
X9618Y7520D01*
X9462Y7455D01*
X9342Y7336D01*
X9277Y7180D01*
X9277Y7111D01*
X8296Y6213D01*
X8313Y6252D01*
X8313Y6421D01*
X8248Y6577D01*
X8129Y6697D01*
X7973Y6762D01*
X7896Y6762D01*
X7785Y6881D01*
X7824Y6864D01*
X7993Y6864D01*
X8149Y6929D01*
X8269Y7048D01*
X8334Y7204D01*
X8334Y7373D01*
X8269Y7529D01*
X8241Y7557D01*
X8322Y7557D01*
X8478Y7622D01*
X8598Y7741D01*
X8663Y7897D01*
X8663Y8066D01*
X8598Y8222D01*
X8479Y8342D01*
X8323Y8407D01*
X8263Y8407D01*
X7431Y9354D01*
X7449Y9395D01*
X7449Y9614D01*
X7366Y9816D01*
X7212Y9970D01*
X7010Y10054D01*
X6791Y10054D01*
X6589Y9971D01*
X6435Y9817D01*
X6400Y9734D01*
X6366Y9816D01*
X6212Y9970D01*
X6010Y10054D01*
X5791Y10054D01*
X5589Y9971D01*
X5435Y9817D01*
X5400Y9734D01*
X5366Y9816D01*
X5212Y9970D01*
X5010Y10054D01*
X4791Y10054D01*
X4589Y9971D01*
X4435Y9817D01*
X4351Y9615D01*
X4351Y9396D01*
X4434Y9194D01*
X4588Y9040D01*
X4790Y8956D01*
X5005Y8956D01*
X7463Y6349D01*
X7463Y6303D01*
X7360Y6260D01*
X7240Y6141D01*
X7175Y5985D01*
X7175Y5816D01*
X7240Y5660D01*
X7359Y5540D01*
X7515Y5475D01*
X7684Y5475D01*
X7840Y5540D01*
X7900Y5600D01*
X8191Y5600D01*
X7677Y5145D01*
X7566Y5145D01*
X7410Y5080D01*
X7290Y4961D01*
X7225Y4805D01*
X7225Y4636D01*
X7290Y4480D01*
X7409Y4360D01*
X7565Y4295D01*
X7734Y4295D01*
X7890Y4360D01*
X8010Y4479D01*
X8075Y4635D01*
X8075Y4695D01*
X10176Y6554D01*
X10216Y6608D01*
X10239Y6634D01*
X10246Y6647D01*
X10247Y6648D01*
X10247Y6649D01*
X10315Y6773D01*
X10442Y6825D01*
X10562Y6944D01*
X10627Y7100D01*
X10627Y7269D01*
X10581Y7378D01*
X10873Y7300D01*
X10911Y7298D01*
X10950Y7290D01*
X11918Y7290D01*
X11875Y7185D01*
X11875Y7156D01*
X10647Y6223D01*
X10499Y6223D01*
X10343Y6158D01*
X10223Y6039D01*
X10158Y5883D01*
X10158Y5714D01*
X10223Y5558D01*
X10342Y5438D01*
X10498Y5373D01*
X10667Y5373D01*
X10823Y5438D01*
X10943Y5557D01*
X11008Y5713D01*
X11008Y5745D01*
X11911Y6430D01*
X11940Y6360D01*
X12059Y6240D01*
X12215Y6175D01*
X12384Y6175D01*
X12540Y6240D01*
X12660Y6359D01*
X12725Y6515D01*
X12725Y6564D01*
X12762Y6588D01*
X12824Y6650D01*
X13199Y6650D01*
X13259Y6590D01*
X13335Y6559D01*
X13335Y6416D01*
X13400Y6260D01*
X13404Y6256D01*
X12981Y6229D01*
X12928Y6215D01*
X12890Y6208D01*
X12881Y6203D01*
X12868Y6199D01*
X12823Y6165D01*
X12791Y6144D01*
X11297Y4697D01*
X11206Y4697D01*
X11050Y4632D01*
X10930Y4513D01*
X10865Y4357D01*
X10865Y4188D01*
X10930Y4032D01*
X11049Y3912D01*
X11205Y3847D01*
X11211Y3847D01*
X11215Y3834D01*
X11226Y3786D01*
X11231Y3779D01*
X11234Y3769D01*
X12174Y1971D01*
X12155Y1925D01*
X12155Y1756D01*
X12190Y1670D01*
X11080Y1670D01*
X11021Y1730D01*
X10865Y1795D01*
X10696Y1795D01*
X10540Y1730D01*
X10420Y1611D01*
X10355Y1455D01*
X10355Y1286D01*
X10420Y1130D01*
X10539Y1010D01*
X10695Y945D01*
X10864Y945D01*
X11020Y1010D01*
X11080Y1070D01*
X14549Y1070D01*
X14609Y1010D01*
X14765Y945D01*
X14934Y945D01*
X15090Y1010D01*
X15210Y1129D01*
X15275Y1285D01*
X15275Y1454D01*
X15210Y1610D01*
X15139Y1682D01*
X15129Y1970D01*
X15175Y2015D01*
X15611Y1540D01*
X15611Y1437D01*
X15676Y1281D01*
X15795Y1161D01*
X15951Y1096D01*
X16120Y1096D01*
X16276Y1161D01*
X16396Y1280D01*
X16461Y1436D01*
X16461Y1605D01*
X16414Y1716D01*
X16517Y1657D01*
X16572Y1526D01*
X16691Y1406D01*
X16847Y1341D01*
X17016Y1341D01*
X17172Y1406D01*
X17258Y1493D01*
G54D10*
G36*
X17267Y2274D02*
X17264Y2034D01*
X17173Y2126D01*
X17017Y2191D01*
X16848Y2191D01*
X16815Y2178D01*
X12955Y4398D01*
X12900Y4530D01*
X12781Y4650D01*
X12664Y4699D01*
X13173Y5236D01*
X13230Y5100D01*
X13349Y4980D01*
X13483Y4925D01*
X13634Y4662D01*
X13659Y4633D01*
X13682Y4599D01*
X13697Y4589D01*
X13711Y4573D01*
X13746Y4556D01*
X13779Y4534D01*
X13799Y4530D01*
X13816Y4522D01*
X13851Y4520D01*
X13894Y4511D01*
X15973Y4511D01*
X16033Y4451D01*
X16148Y4403D01*
X16118Y4372D01*
X16053Y4275D01*
X16030Y4160D01*
X16030Y3180D01*
X16053Y3065D01*
X16118Y2968D01*
X16440Y2646D01*
X16440Y2630D01*
X16448Y2589D01*
X16452Y2545D01*
X16460Y2530D01*
X16463Y2515D01*
X16486Y2481D01*
X16507Y2441D01*
X16519Y2431D01*
X16528Y2418D01*
X16565Y2393D01*
X16597Y2367D01*
X16610Y2363D01*
X16625Y2353D01*
X16671Y2344D01*
X16709Y2332D01*
X17267Y2274D01*
X17267Y2274D01*
G37*
G54D18*
X17267Y2274D02*
X17264Y2034D01*
X17173Y2126D01*
X17017Y2191D01*
X16848Y2191D01*
X16815Y2178D01*
X12955Y4398D01*
X12900Y4530D01*
X12781Y4650D01*
X12664Y4699D01*
X13173Y5236D01*
X13230Y5100D01*
X13349Y4980D01*
X13483Y4925D01*
X13634Y4662D01*
X13659Y4633D01*
X13682Y4599D01*
X13697Y4589D01*
X13711Y4573D01*
X13746Y4556D01*
X13779Y4534D01*
X13799Y4530D01*
X13816Y4522D01*
X13851Y4520D01*
X13894Y4511D01*
X15973Y4511D01*
X16033Y4451D01*
X16148Y4403D01*
X16118Y4372D01*
X16053Y4275D01*
X16030Y4160D01*
X16030Y3180D01*
X16053Y3065D01*
X16118Y2968D01*
X16440Y2646D01*
X16440Y2630D01*
X16448Y2589D01*
X16452Y2545D01*
X16460Y2530D01*
X16463Y2515D01*
X16486Y2481D01*
X16507Y2441D01*
X16519Y2431D01*
X16528Y2418D01*
X16565Y2393D01*
X16597Y2367D01*
X16610Y2363D01*
X16625Y2353D01*
X16671Y2344D01*
X16709Y2332D01*
X17267Y2274D01*
G54D10*
G36*
X18643Y9034D02*
X18617Y9009D01*
X17598Y8835D01*
X14205Y8829D01*
X14192Y8827D01*
X14190Y8827D01*
X14171Y8823D01*
X14091Y8806D01*
X14080Y8799D01*
X14077Y8798D01*
X13815Y8674D01*
X13815Y8804D01*
X13750Y8960D01*
X13631Y9080D01*
X13517Y9128D01*
X13164Y9811D01*
X13387Y9588D01*
X13388Y9588D01*
X13485Y9523D01*
X13600Y9500D01*
X14665Y9500D01*
X14665Y9346D01*
X14730Y9190D01*
X14849Y9070D01*
X15005Y9005D01*
X15174Y9005D01*
X15330Y9070D01*
X15390Y9130D01*
X17729Y9130D01*
X17789Y9070D01*
X17945Y9005D01*
X18114Y9005D01*
X18270Y9070D01*
X18367Y9167D01*
X18434Y9099D01*
X18590Y9034D01*
X18643Y9034D01*
X18643Y9034D01*
G37*
G54D18*
X18643Y9034D02*
X18617Y9009D01*
X17598Y8835D01*
X14205Y8829D01*
X14192Y8827D01*
X14190Y8827D01*
X14171Y8823D01*
X14091Y8806D01*
X14080Y8799D01*
X14077Y8798D01*
X13815Y8674D01*
X13815Y8804D01*
X13750Y8960D01*
X13631Y9080D01*
X13517Y9128D01*
X13164Y9811D01*
X13387Y9588D01*
X13388Y9588D01*
X13485Y9523D01*
X13600Y9500D01*
X14665Y9500D01*
X14665Y9346D01*
X14730Y9190D01*
X14849Y9070D01*
X15005Y9005D01*
X15174Y9005D01*
X15330Y9070D01*
X15390Y9130D01*
X17729Y9130D01*
X17789Y9070D01*
X17945Y9005D01*
X18114Y9005D01*
X18270Y9070D01*
X18367Y9167D01*
X18434Y9099D01*
X18590Y9034D01*
X18643Y9034D01*
G54D10*
G36*
X19675Y10209D02*
X19635Y10225D01*
X19466Y10225D01*
X19310Y10160D01*
X19249Y10100D01*
X18550Y10100D01*
X18550Y11458D01*
X18390Y11844D01*
X18095Y12139D01*
X17710Y12299D01*
X17292Y12300D01*
X16906Y12140D01*
X16611Y11845D01*
X16451Y11460D01*
X16450Y11042D01*
X16610Y10656D01*
X16905Y10361D01*
X17290Y10201D01*
X17708Y10200D01*
X18094Y10360D01*
X18389Y10655D01*
X18549Y11040D01*
X18550Y11458D01*
X18550Y10100D01*
X13724Y10100D01*
X13124Y10700D01*
X15399Y10700D01*
X15459Y10640D01*
X15615Y10575D01*
X15784Y10575D01*
X15940Y10640D01*
X16060Y10759D01*
X16125Y10915D01*
X16125Y11084D01*
X16060Y11240D01*
X15941Y11360D01*
X15785Y11425D01*
X15616Y11425D01*
X15460Y11360D01*
X15399Y11300D01*
X11225Y11300D01*
X11225Y11384D01*
X11160Y11540D01*
X11137Y11564D01*
X13943Y14369D01*
X13965Y14373D01*
X14005Y14400D01*
X14426Y14400D01*
X14516Y14310D01*
X14516Y14106D01*
X14599Y13904D01*
X14753Y13750D01*
X14836Y13716D01*
X14754Y13681D01*
X14600Y13527D01*
X14565Y13444D01*
X14531Y13526D01*
X14377Y13680D01*
X14175Y13764D01*
X13956Y13764D01*
X13754Y13681D01*
X13600Y13527D01*
X13516Y13325D01*
X13516Y13106D01*
X13599Y12904D01*
X13753Y12750D01*
X13836Y12716D01*
X13754Y12681D01*
X13600Y12527D01*
X13588Y12500D01*
X13026Y12500D01*
X13010Y12540D01*
X12891Y12660D01*
X12735Y12725D01*
X12566Y12725D01*
X12410Y12660D01*
X12290Y12541D01*
X12225Y12385D01*
X12225Y12216D01*
X12290Y12060D01*
X12409Y11940D01*
X12565Y11875D01*
X12734Y11875D01*
X12794Y11900D01*
X13603Y11900D01*
X13753Y11750D01*
X13955Y11666D01*
X14174Y11666D01*
X14376Y11749D01*
X14516Y11889D01*
X14516Y11866D01*
X14554Y11774D01*
X14624Y11704D01*
X14715Y11666D01*
X14814Y11666D01*
X15414Y11666D01*
X15506Y11704D01*
X15576Y11774D01*
X15614Y11865D01*
X15614Y11964D01*
X15614Y12564D01*
X15576Y12656D01*
X15506Y12726D01*
X15415Y12764D01*
X15391Y12764D01*
X15527Y12900D01*
X18199Y12900D01*
X18259Y12840D01*
X18415Y12775D01*
X18584Y12775D01*
X18740Y12840D01*
X18860Y12959D01*
X18925Y13115D01*
X18925Y13150D01*
X19675Y13150D01*
X19675Y10209D01*
X19675Y10209D01*
G37*
G54D18*
X19675Y10209D02*
X19635Y10225D01*
X19466Y10225D01*
X19310Y10160D01*
X19249Y10100D01*
X18550Y10100D01*
X18550Y11458D01*
X18390Y11844D01*
X18095Y12139D01*
X17710Y12299D01*
X17292Y12300D01*
X16906Y12140D01*
X16611Y11845D01*
X16451Y11460D01*
X16450Y11042D01*
X16610Y10656D01*
X16905Y10361D01*
X17290Y10201D01*
X17708Y10200D01*
X18094Y10360D01*
X18389Y10655D01*
X18549Y11040D01*
X18550Y11458D01*
X18550Y10100D01*
X13724Y10100D01*
X13124Y10700D01*
X15399Y10700D01*
X15459Y10640D01*
X15615Y10575D01*
X15784Y10575D01*
X15940Y10640D01*
X16060Y10759D01*
X16125Y10915D01*
X16125Y11084D01*
X16060Y11240D01*
X15941Y11360D01*
X15785Y11425D01*
X15616Y11425D01*
X15460Y11360D01*
X15399Y11300D01*
X11225Y11300D01*
X11225Y11384D01*
X11160Y11540D01*
X11137Y11564D01*
X13943Y14369D01*
X13965Y14373D01*
X14005Y14400D01*
X14426Y14400D01*
X14516Y14310D01*
X14516Y14106D01*
X14599Y13904D01*
X14753Y13750D01*
X14836Y13716D01*
X14754Y13681D01*
X14600Y13527D01*
X14565Y13444D01*
X14531Y13526D01*
X14377Y13680D01*
X14175Y13764D01*
X13956Y13764D01*
X13754Y13681D01*
X13600Y13527D01*
X13516Y13325D01*
X13516Y13106D01*
X13599Y12904D01*
X13753Y12750D01*
X13836Y12716D01*
X13754Y12681D01*
X13600Y12527D01*
X13588Y12500D01*
X13026Y12500D01*
X13010Y12540D01*
X12891Y12660D01*
X12735Y12725D01*
X12566Y12725D01*
X12410Y12660D01*
X12290Y12541D01*
X12225Y12385D01*
X12225Y12216D01*
X12290Y12060D01*
X12409Y11940D01*
X12565Y11875D01*
X12734Y11875D01*
X12794Y11900D01*
X13603Y11900D01*
X13753Y11750D01*
X13955Y11666D01*
X14174Y11666D01*
X14376Y11749D01*
X14516Y11889D01*
X14516Y11866D01*
X14554Y11774D01*
X14624Y11704D01*
X14715Y11666D01*
X14814Y11666D01*
X15414Y11666D01*
X15506Y11704D01*
X15576Y11774D01*
X15614Y11865D01*
X15614Y11964D01*
X15614Y12564D01*
X15576Y12656D01*
X15506Y12726D01*
X15415Y12764D01*
X15391Y12764D01*
X15527Y12900D01*
X18199Y12900D01*
X18259Y12840D01*
X18415Y12775D01*
X18584Y12775D01*
X18740Y12840D01*
X18860Y12959D01*
X18925Y13115D01*
X18925Y13150D01*
X19675Y13150D01*
X19675Y10209D01*
M02*
