M48
;DRILL file {Pcbnew (2011-nov-30)-testing} date Thu 25 Oct 2012 02:38:04 PM EDT
;FORMAT={-:-/ absolute / inch / decimal}
FMAT,2
INCH,TZ
T1C0.025
T2C0.039
T3C0.040
T4C0.043
%
G90
G05
M72
T1
X0.17Y1.257
X0.3793Y0.7359
X0.383Y1.3906
X0.3918Y1.2454
X0.667Y0.422
X0.6705Y0.957
X0.6705Y0.7545
X0.6705Y0.5727
X0.78Y0.644
X0.78Y0.277
X0.786Y0.525
X0.786Y0.431
X0.805Y0.83
X0.849Y1.32
X0.8685Y1.1565
X0.9945Y0.2055
X0.995Y0.493
X1.022Y0.598
X1.035Y0.169
X1.054Y0.45
X1.075Y0.32
X1.085Y0.902
X1.094Y0.532
X1.101Y0.854
X1.115Y0.375
X1.149Y1.1265
X1.1535Y0.78
X1.195Y0.307
X1.1984Y1.1272
X1.2226Y1.353
X1.2255Y0.903
X1.2479Y0.6753
X1.2641Y0.1902
X1.2885Y0.4365
X1.32Y0.607
X1.339Y0.389
X1.366Y0.589
X1.3971Y0.1577
X1.4301Y0.3306
X1.434Y0.4695
X1.493Y0.7695
X1.512Y0.2509
X1.5462Y0.773
X1.549Y0.725
X1.56Y0.255
X1.579Y0.581
X1.5882Y0.0814
X1.593Y0.373
X1.623Y1.065
X1.6239Y0.9466
X1.647Y0.2595
X1.663Y0.723
X1.6659Y0.6429
X1.694Y0.684
X1.7275Y0.7745
X1.761Y0.72
X1.765Y0.636
X1.767Y0.524
X1.8705Y0.432
X1.8825Y0.252
X1.8835Y0.7485
X1.905Y0.371
X1.923Y1.143
X1.955Y0.7555
T3
X0.9455Y1.4385
X1.0455Y1.4385
X1.1455Y1.4385
X1.2978Y1.4368
X1.3698Y1.2492
X1.3698Y1.1492
X1.3978Y1.4368
X1.4698Y1.2492
X1.4698Y1.1492
X1.4978Y1.4368
X1.5698Y1.2492
X1.5698Y1.1492
X1.5978Y1.4368
X1.9185Y0.9905
X1.9185Y0.8905
T4
X0.1932Y0.8445
X0.1932Y0.6555
T2
X0.0555Y0.9114G85X0.0947Y0.9114
G05
X0.0555Y0.5886G85X0.0947Y0.5886
G05
T0
M30
