G04 (created by PCBNEW (2011-nov-30)-testing) date Thu 25 Oct 2012 03:11:58 PM EDT*
%MOIN*%
G04 Gerber Fmt 3.4, Leading zero omitted, Abs format*
%FSLAX34Y34*%
G01*
G70*
G90*
G04 APERTURE LIST*
%ADD10C,0.006*%
%ADD11R,0.0787X0.0177*%
%ADD12R,0.0177X0.0787*%
%ADD13R,0.05X0.016*%
%ADD14R,0.05X0.015*%
%ADD15R,0.122X0.0512*%
%ADD16R,0.06X0.06*%
%ADD17C,0.06*%
%ADD18R,0.0354X0.0236*%
%ADD19R,0.0236X0.0354*%
%ADD20R,0.0157X0.0197*%
%ADD21R,0.0197X0.0157*%
%ADD22R,0.0472X0.0472*%
%ADD23R,0.0118X0.063*%
%ADD24R,0.035X0.055*%
%ADD25R,0.055X0.035*%
%ADD26R,0.0669X0.0157*%
%ADD27R,0.0906X0.0512*%
%ADD28R,0.0867X0.0512*%
%ADD29R,0.0591X0.0512*%
%ADD30R,0.0984X0.0709*%
%ADD31C,0.035*%
%ADD32C,0.01*%
G04 APERTURE END LIST*
G54D10*
G54D11*
X9879Y6857D03*
X9879Y7172D03*
X9879Y7487D03*
X9879Y7802D03*
X9879Y8117D03*
X9879Y8432D03*
X9879Y8747D03*
X9879Y9062D03*
X13645Y9060D03*
X13645Y6850D03*
X13645Y7170D03*
X13645Y7490D03*
X13645Y7800D03*
X13645Y8120D03*
X13645Y8430D03*
X13645Y8750D03*
G54D12*
X10663Y9850D03*
X10977Y9850D03*
X11293Y9850D03*
X11607Y9850D03*
X11923Y9850D03*
X12237Y9850D03*
X12553Y9850D03*
X12867Y9850D03*
X10665Y6070D03*
X10975Y6070D03*
X11295Y6070D03*
X11605Y6070D03*
X11915Y6070D03*
X12235Y6070D03*
X12555Y6070D03*
X12875Y6070D03*
G54D13*
X7232Y4974D03*
X7232Y5224D03*
X7232Y5484D03*
X7232Y5744D03*
X7232Y5994D03*
X7232Y6254D03*
X7232Y6514D03*
X7232Y6764D03*
X7232Y7024D03*
X7232Y7274D03*
X7232Y7534D03*
X7232Y7794D03*
X7232Y8044D03*
X7232Y8304D03*
X4432Y8304D03*
X4432Y8044D03*
X4432Y7804D03*
X4432Y7534D03*
X4432Y7274D03*
X4432Y7024D03*
X4432Y6764D03*
X4432Y6514D03*
X4432Y6254D03*
X4432Y5994D03*
X4432Y5744D03*
X4432Y5484D03*
X4432Y5224D03*
X4432Y4974D03*
G54D14*
X18264Y6212D03*
X18264Y6468D03*
X18264Y6724D03*
X18264Y6980D03*
X18264Y7236D03*
X18264Y7492D03*
X18264Y7748D03*
X18264Y8004D03*
X16060Y8004D03*
X16060Y7748D03*
X16060Y7492D03*
X16060Y7236D03*
X16060Y6980D03*
X16060Y6724D03*
X16060Y6468D03*
X16060Y6212D03*
G54D15*
X5125Y12164D03*
X8255Y12164D03*
X8255Y13936D03*
X5125Y13936D03*
G54D16*
X12978Y14368D03*
G54D17*
X13978Y14368D03*
X14978Y14368D03*
X15978Y14368D03*
G54D18*
X11111Y2437D03*
X11111Y2122D03*
X11111Y1807D03*
X11111Y1493D03*
X11111Y1178D03*
X11111Y863D03*
G54D19*
X11505Y863D03*
G54D18*
X11899Y863D03*
X11899Y1178D03*
X11899Y1493D03*
X11899Y1807D03*
X11899Y2122D03*
X11899Y2437D03*
G54D19*
X11505Y2437D03*
G54D20*
X14991Y2070D03*
X15247Y2070D03*
X15503Y2070D03*
X15759Y2070D03*
G54D21*
X15975Y2286D03*
X15975Y2542D03*
X15975Y2798D03*
X15975Y3054D03*
G54D20*
X15759Y3270D03*
X15503Y3270D03*
X15247Y3270D03*
X14991Y3270D03*
G54D21*
X14775Y3054D03*
X14775Y2798D03*
X14775Y2542D03*
X14775Y2286D03*
G54D17*
X11455Y14385D03*
X10455Y14385D03*
X9455Y14385D03*
G54D22*
X2157Y14410D03*
X2983Y14410D03*
G54D16*
X13698Y11492D03*
G54D17*
X13698Y12492D03*
X14698Y11492D03*
X14698Y12492D03*
X15698Y11492D03*
X15698Y12492D03*
G54D22*
X19027Y14170D03*
X18201Y14170D03*
G54D23*
X8970Y5820D03*
X9344Y5820D03*
X8596Y5820D03*
G54D24*
X8550Y3600D03*
X9300Y3600D03*
X18105Y855D03*
X18855Y855D03*
G54D25*
X19070Y6365D03*
X19070Y5615D03*
G54D24*
X9345Y1650D03*
X8595Y1650D03*
G54D25*
X13330Y3085D03*
X13330Y2335D03*
G54D24*
X7615Y3575D03*
X6865Y3575D03*
X12150Y11910D03*
X11400Y11910D03*
X8565Y2605D03*
X9315Y2605D03*
X11910Y3765D03*
X12660Y3765D03*
X16536Y842D03*
X17286Y842D03*
G54D25*
X13330Y1615D03*
X13330Y865D03*
X3250Y8525D03*
X3250Y9275D03*
X3170Y6713D03*
X3170Y5963D03*
G54D24*
X9465Y10245D03*
X8715Y10245D03*
X2223Y13158D03*
X2973Y13158D03*
G54D25*
X19296Y12763D03*
X19296Y12013D03*
X870Y13645D03*
X870Y12895D03*
G54D26*
X1893Y7500D03*
X1893Y7756D03*
X1893Y6988D03*
G54D27*
X751Y9114D03*
G54D28*
X1932Y8445D03*
G54D27*
X751Y5886D03*
G54D29*
X1932Y6555D03*
G54D26*
X1893Y7244D03*
G54D30*
X672Y8051D03*
X672Y6949D03*
G54D26*
X1893Y8012D03*
G54D16*
X19185Y9905D03*
G54D17*
X19185Y8905D03*
G54D24*
X15305Y8760D03*
X16055Y8760D03*
X8599Y4790D03*
X9349Y4790D03*
X7680Y10245D03*
X6930Y10245D03*
G54D22*
X11362Y12885D03*
X12188Y12885D03*
G54D25*
X8715Y8340D03*
X8715Y7590D03*
G54D24*
X15055Y5850D03*
X14305Y5850D03*
X17815Y8740D03*
X17065Y8740D03*
X15074Y800D03*
X14324Y800D03*
G54D31*
X12479Y6753D03*
X15462Y7730D03*
X13660Y5890D03*
X16630Y7230D03*
X13200Y6070D03*
X15490Y7250D03*
X19230Y11430D03*
X16940Y6840D03*
X17275Y7745D03*
X17650Y6360D03*
X7800Y2770D03*
X14301Y3306D03*
X15120Y2509D03*
X16230Y10650D03*
X17610Y7200D03*
X16470Y2595D03*
X10220Y5980D03*
X15600Y2550D03*
X11950Y3070D03*
X12641Y1902D03*
X9950Y4930D03*
X9945Y2055D03*
X10540Y4500D03*
X10350Y1690D03*
X15930Y3730D03*
X10940Y5320D03*
X8490Y13200D03*
X12226Y13530D03*
X7860Y5250D03*
X11010Y8540D03*
X16659Y6429D03*
X11535Y7800D03*
X12885Y4365D03*
X11150Y3750D03*
X12255Y9030D03*
X15790Y5810D03*
X10750Y3200D03*
X13390Y3890D03*
X19050Y3710D03*
X19550Y7555D03*
X18835Y7485D03*
X17670Y5240D03*
X10850Y9020D03*
X7800Y6440D03*
X14340Y4695D03*
X18825Y2520D03*
X18705Y4320D03*
X16239Y9466D03*
X14930Y7695D03*
X6670Y4220D03*
X7860Y4310D03*
X6705Y9570D03*
X6705Y7545D03*
X3830Y13906D03*
X3918Y12454D03*
X8685Y11565D03*
X11490Y11265D03*
X15882Y814D03*
X13971Y1577D03*
X8050Y8300D03*
X6705Y5727D03*
X1700Y12570D03*
X3793Y7359D03*
X11984Y11272D03*
G54D32*
X12235Y6070D02*
X12235Y6459D01*
X12479Y6703D02*
X12479Y6753D01*
X12235Y6459D02*
X12479Y6703D01*
X16060Y7748D02*
X15518Y7748D01*
X15518Y7748D02*
X15462Y7730D01*
X12555Y5555D02*
X12640Y5470D01*
X13240Y5470D02*
X13660Y5890D01*
X12640Y5470D02*
X13240Y5470D01*
X12555Y6070D02*
X12555Y5555D01*
X16624Y7236D02*
X16060Y7236D01*
X16630Y7230D02*
X16624Y7236D01*
X16060Y7492D02*
X15732Y7492D01*
X13200Y6070D02*
X12875Y6070D01*
X15732Y7492D02*
X15490Y7250D01*
X16060Y6980D02*
X16410Y6980D01*
X19296Y11496D02*
X19296Y12013D01*
X19230Y11430D02*
X19296Y11496D01*
X16550Y6840D02*
X16940Y6840D01*
X16410Y6980D02*
X16550Y6840D01*
X14698Y11492D02*
X14698Y11568D01*
X14698Y11568D02*
X15130Y12000D01*
X15130Y12000D02*
X16470Y12000D01*
X16470Y12000D02*
X16950Y12480D01*
X16950Y12480D02*
X18829Y12480D01*
X18829Y12480D02*
X19296Y12013D01*
X13645Y6850D02*
X15570Y6850D01*
X15700Y6980D02*
X16060Y6980D01*
X15570Y6850D02*
X15700Y6980D01*
X3250Y8525D02*
X3695Y8525D01*
X4900Y8570D02*
X4900Y7710D01*
X4890Y8580D02*
X4900Y8570D01*
X3750Y8580D02*
X4890Y8580D01*
X3695Y8525D02*
X3750Y8580D01*
X18264Y6468D02*
X17758Y6468D01*
X18017Y8227D02*
X18018Y8227D01*
X17275Y7745D02*
X18017Y8227D01*
X17758Y6468D02*
X17650Y6360D01*
X15074Y800D02*
X15059Y800D01*
X14775Y1575D02*
X14775Y2286D01*
X15059Y800D02*
X14775Y1575D01*
X7615Y3575D02*
X7615Y2955D01*
X7615Y2955D02*
X7800Y2770D01*
X18264Y8004D02*
X18241Y8004D01*
X18241Y8004D02*
X18018Y8227D01*
X18018Y8227D02*
X17815Y8740D01*
X18765Y6468D02*
X18765Y6060D01*
X18765Y6060D02*
X18465Y5760D01*
X18465Y5760D02*
X17475Y5760D01*
X17475Y5760D02*
X15315Y3600D01*
X15315Y3600D02*
X14618Y3600D01*
X14618Y3600D02*
X14324Y3306D01*
X14324Y3306D02*
X14301Y3306D01*
X15087Y2542D02*
X14775Y2542D01*
X15120Y2509D02*
X15087Y2542D01*
X18264Y6468D02*
X18765Y6468D01*
X18765Y6468D02*
X19067Y6368D01*
X19067Y6368D02*
X19070Y6365D01*
X11910Y3765D02*
X11853Y3765D01*
X11853Y3765D02*
X11478Y4140D01*
X8550Y3600D02*
X8550Y4090D01*
X8550Y4090D02*
X8600Y4140D01*
X8600Y4140D02*
X11478Y4140D01*
X11505Y2437D02*
X11505Y3360D01*
X11505Y3360D02*
X11910Y3765D01*
X11505Y2437D02*
X11111Y2437D01*
X7615Y3575D02*
X7615Y3805D01*
X4806Y7804D02*
X4432Y7804D01*
X5220Y7390D02*
X4900Y7710D01*
X4900Y7710D02*
X4806Y7804D01*
X5220Y6200D02*
X5220Y7390D01*
X7615Y3805D02*
X5220Y6200D01*
X7615Y3575D02*
X8525Y3575D01*
X8525Y3575D02*
X8550Y3600D01*
X8565Y2605D02*
X8550Y2620D01*
X8550Y2620D02*
X8550Y3600D01*
X14991Y2070D02*
X14775Y2286D01*
X14775Y2286D02*
X14775Y2542D01*
X13645Y8750D02*
X14212Y8750D01*
X15706Y10650D02*
X16230Y10650D01*
X14236Y9180D02*
X15706Y10650D01*
X14236Y8774D02*
X14236Y9180D01*
X14212Y8750D02*
X14236Y8774D01*
X13645Y9060D02*
X13645Y10425D01*
X14220Y13610D02*
X14978Y14368D01*
X14220Y11000D02*
X14220Y13610D01*
X13645Y10425D02*
X14220Y11000D01*
X12867Y9850D02*
X12867Y11307D01*
X13978Y13638D02*
X13978Y14368D01*
X12970Y12630D02*
X13978Y13638D01*
X12970Y11410D02*
X12970Y12630D01*
X12867Y11307D02*
X12970Y11410D01*
X12553Y9850D02*
X12553Y11421D01*
X12710Y14100D02*
X12978Y14368D01*
X12710Y11578D02*
X12710Y14100D01*
X12553Y11421D02*
X12710Y11578D01*
X15364Y8269D02*
X15028Y8269D01*
X14249Y7490D02*
X13645Y7490D01*
X15028Y8269D02*
X14249Y7490D01*
X18820Y9270D02*
X19185Y8905D01*
X17597Y9270D02*
X18820Y9270D01*
X17443Y9116D02*
X17597Y9270D01*
X17443Y8276D02*
X17443Y9116D01*
X17450Y8269D02*
X17443Y8276D01*
X15364Y8269D02*
X17450Y8269D01*
X13645Y8430D02*
X14250Y8430D01*
X14440Y8620D02*
X14440Y9070D01*
X14250Y8430D02*
X14440Y8620D01*
X15275Y9905D02*
X19185Y9905D01*
X14440Y9070D02*
X15275Y9905D01*
X13645Y7800D02*
X14228Y7800D01*
X15188Y8760D02*
X15305Y8760D01*
X14228Y7800D02*
X15188Y8760D01*
X15975Y2286D02*
X16161Y2286D01*
X17888Y7748D02*
X18264Y7748D01*
X17670Y7530D02*
X17888Y7748D01*
X17670Y7260D02*
X17670Y7530D01*
X17610Y7200D02*
X17670Y7260D01*
X16161Y2286D02*
X16470Y2595D01*
X4432Y8304D02*
X3836Y8304D01*
X3032Y7500D02*
X1893Y7500D01*
X3836Y8304D02*
X3032Y7500D01*
X1893Y7244D02*
X3132Y7244D01*
X3932Y8044D02*
X4432Y8044D01*
X3132Y7244D02*
X3932Y8044D01*
X10663Y9850D02*
X10663Y13593D01*
X10663Y13593D02*
X11455Y14385D01*
X9879Y9062D02*
X9879Y9233D01*
X10216Y9570D02*
X10216Y10258D01*
X9879Y9233D02*
X10216Y9570D01*
X10455Y14385D02*
X10455Y10497D01*
X10455Y10497D02*
X10216Y10258D01*
X9879Y8747D02*
X9283Y8747D01*
X9968Y13872D02*
X9455Y14385D01*
X9968Y9848D02*
X9968Y13872D01*
X9764Y9644D02*
X9968Y9848D01*
X9600Y9644D02*
X9764Y9644D01*
X9226Y9270D02*
X9600Y9644D01*
X9226Y8804D02*
X9226Y9270D01*
X9283Y8747D02*
X9226Y8804D01*
X15975Y2542D02*
X15608Y2542D01*
X10310Y6070D02*
X10665Y6070D01*
X10220Y5980D02*
X10310Y6070D01*
X15608Y2542D02*
X15600Y2550D01*
X11950Y3070D02*
X12040Y3070D01*
X12040Y3070D02*
X12285Y3315D01*
X11915Y5530D02*
X11915Y6070D01*
X12285Y3315D02*
X12285Y5160D01*
X12285Y5160D02*
X11915Y5530D01*
X11899Y1178D02*
X12601Y1178D01*
X12641Y1218D02*
X12641Y1902D01*
X12601Y1178D02*
X12641Y1218D01*
X7232Y5224D02*
X6733Y5224D01*
X7680Y9825D02*
X7680Y10245D01*
X6362Y8507D02*
X7680Y9825D01*
X6362Y5595D02*
X6362Y8507D01*
X6733Y5224D02*
X6362Y5595D01*
X8715Y10245D02*
X7680Y10245D01*
X9980Y4960D02*
X10510Y4960D01*
X9950Y4930D02*
X9980Y4960D01*
X10510Y4960D02*
X11131Y4960D01*
X11131Y4960D02*
X11295Y5124D01*
X11295Y5124D02*
X11295Y6070D01*
X10177Y1178D02*
X11111Y1178D01*
X9945Y2055D02*
X9945Y1410D01*
X9945Y1410D02*
X10177Y1178D01*
X10540Y4500D02*
X10970Y4500D01*
X10970Y4500D02*
X11605Y5135D01*
X11605Y5135D02*
X11605Y6070D01*
X11111Y1493D02*
X10567Y1493D01*
X10370Y1690D02*
X10350Y1690D01*
X10567Y1493D02*
X10370Y1690D01*
X15975Y2798D02*
X16122Y2798D01*
X16245Y3415D02*
X15930Y3730D01*
X16245Y2921D02*
X16245Y3415D01*
X16122Y2798D02*
X16245Y2921D01*
X10975Y6070D02*
X10975Y5355D01*
X10975Y5355D02*
X10940Y5320D01*
X11607Y9850D02*
X11607Y10663D01*
X10920Y12443D02*
X11362Y12885D01*
X10920Y11350D02*
X10920Y12443D01*
X11607Y10663D02*
X10920Y11350D01*
X9465Y10245D02*
X9465Y12705D01*
X8970Y13200D02*
X8490Y13200D01*
X9465Y12705D02*
X8970Y13200D01*
X8255Y13936D02*
X8255Y13435D01*
X8255Y13435D02*
X8490Y13200D01*
X11362Y12885D02*
X11362Y12906D01*
X11362Y12906D02*
X11986Y13530D01*
X11986Y13530D02*
X12226Y13530D01*
X8255Y13936D02*
X5125Y13936D01*
X2973Y13158D02*
X4347Y13158D01*
X4347Y13158D02*
X5125Y13936D01*
X11293Y9850D02*
X11293Y8823D01*
X7584Y4974D02*
X7232Y4974D01*
X7860Y5250D02*
X7584Y4974D01*
X11293Y8823D02*
X11010Y8540D01*
X11923Y9850D02*
X11923Y9253D01*
X16364Y6724D02*
X16060Y6724D01*
X16659Y6429D02*
X16364Y6724D01*
X11850Y8115D02*
X11535Y7800D01*
X11850Y9180D02*
X11850Y8115D01*
X11923Y9253D02*
X11850Y9180D01*
X18264Y6724D02*
X17434Y6724D01*
X17434Y6724D02*
X15075Y4365D01*
X12885Y4365D02*
X15075Y4365D01*
X10778Y2683D02*
X10828Y2683D01*
X11150Y3005D02*
X11150Y3750D01*
X10828Y2683D02*
X11150Y3005D01*
X10590Y3600D02*
X11000Y3600D01*
X11000Y3600D02*
X11150Y3750D01*
X9300Y3600D02*
X10590Y3600D01*
X10778Y2683D02*
X10778Y2122D01*
X11111Y2122D02*
X10778Y2122D01*
X16060Y6212D02*
X16060Y6080D01*
X12237Y9048D02*
X12237Y9850D01*
X12255Y9030D02*
X12237Y9048D01*
X16060Y6080D02*
X15790Y5810D01*
X18264Y6212D02*
X18150Y6212D01*
X17918Y5980D02*
X17170Y5980D01*
X18150Y6212D02*
X17918Y5980D01*
X9925Y2605D02*
X10155Y2605D01*
X10155Y2605D02*
X10750Y3200D01*
X13390Y3890D02*
X13460Y3960D01*
X13460Y3960D02*
X15150Y3960D01*
X15150Y3960D02*
X17170Y5980D01*
X9315Y2605D02*
X9925Y2605D01*
X11078Y1840D02*
X11111Y1807D01*
X10690Y1840D02*
X11078Y1840D01*
X9925Y2605D02*
X10690Y1840D01*
X15577Y1752D02*
X17106Y1752D01*
X17106Y1752D02*
X19050Y3710D01*
X18990Y7150D02*
X18990Y7155D01*
X18990Y7155D02*
X19390Y7555D01*
X19390Y7555D02*
X19550Y7555D01*
X18609Y7236D02*
X18264Y7236D01*
X18695Y7150D02*
X18609Y7236D01*
X18990Y7150D02*
X18695Y7150D01*
X15503Y2070D02*
X15503Y1812D01*
X15503Y1812D02*
X15577Y1752D01*
X15759Y2070D02*
X15759Y2046D01*
X18828Y7492D02*
X18264Y7492D01*
X18835Y7485D02*
X18828Y7492D01*
X17380Y5240D02*
X17670Y5240D01*
X16350Y4210D02*
X17380Y5240D01*
X16350Y3640D02*
X16350Y4210D01*
X16490Y3500D02*
X16350Y3640D01*
X16490Y3040D02*
X16490Y3500D01*
X16800Y2730D02*
X16490Y3040D01*
X16800Y2445D02*
X16800Y2730D01*
X16360Y2005D02*
X16800Y2445D01*
X15800Y2005D02*
X16360Y2005D01*
X15759Y2046D02*
X15800Y2005D01*
X15247Y2070D02*
X15247Y1743D01*
X15460Y1530D02*
X17360Y1530D01*
X15247Y1743D02*
X15460Y1530D01*
X17360Y1530D02*
X19610Y3780D01*
X19610Y4135D02*
X19605Y4140D01*
X19610Y3780D02*
X19610Y4135D01*
X18264Y6980D02*
X18585Y6980D01*
X19605Y6740D02*
X19605Y4140D01*
X19505Y6840D02*
X19605Y6740D01*
X18725Y6840D02*
X19505Y6840D01*
X18585Y6980D02*
X18725Y6840D01*
X8596Y5820D02*
X8596Y6486D01*
X9282Y7172D02*
X9879Y7172D01*
X8596Y6486D02*
X9282Y7172D01*
X8599Y4790D02*
X8595Y5819D01*
X8595Y5819D02*
X8596Y5820D01*
X9344Y5820D02*
X9344Y6322D01*
X9344Y6322D02*
X9879Y6857D01*
X9349Y4790D02*
X9345Y5819D01*
X9345Y5819D02*
X9344Y5820D01*
X7232Y5994D02*
X7644Y5994D01*
X10977Y9147D02*
X10977Y9850D01*
X10850Y9020D02*
X10977Y9147D01*
X7800Y6150D02*
X7800Y6440D01*
X7644Y5994D02*
X7800Y6150D01*
X13535Y5080D02*
X13955Y5080D01*
X13955Y5080D02*
X14340Y4695D01*
X7232Y7534D02*
X8659Y7534D01*
X8659Y7534D02*
X8715Y7590D01*
X7232Y6514D02*
X6857Y6514D01*
X6705Y6666D02*
X6705Y7545D01*
X6857Y6514D02*
X6705Y6666D01*
X13645Y8120D02*
X13040Y8120D01*
X11040Y7425D02*
X10530Y7935D01*
X12345Y7425D02*
X11040Y7425D01*
X13040Y8120D02*
X12345Y7425D01*
X1893Y7756D02*
X1893Y8012D01*
X1893Y8012D02*
X1932Y8051D01*
X1932Y8051D02*
X1932Y8445D01*
X14324Y800D02*
X14324Y698D01*
X18275Y275D02*
X18855Y855D01*
X15238Y275D02*
X18275Y275D01*
X14324Y698D02*
X15238Y275D01*
X18855Y855D02*
X18855Y2490D01*
X18855Y2490D02*
X18825Y2520D01*
X19070Y4685D02*
X19070Y5615D01*
X18705Y4320D02*
X19070Y4685D01*
X16060Y8004D02*
X15694Y8004D01*
X16055Y9282D02*
X16055Y8760D01*
X16239Y9466D02*
X16055Y9282D01*
X14945Y7695D02*
X14930Y7695D01*
X15309Y8059D02*
X14945Y7695D01*
X15639Y8059D02*
X15309Y8059D01*
X15694Y8004D02*
X15639Y8059D01*
X8970Y5820D02*
X8970Y4392D01*
X6865Y4025D02*
X6865Y3575D01*
X6670Y4220D02*
X6865Y4025D01*
X7910Y4360D02*
X7860Y4310D01*
X8938Y4360D02*
X7910Y4360D01*
X8970Y4392D02*
X8938Y4360D01*
X7232Y7534D02*
X6716Y7534D01*
X6930Y9795D02*
X6930Y10245D01*
X6705Y9570D02*
X6930Y9795D01*
X6716Y7534D02*
X6705Y7545D01*
X5125Y12164D02*
X4208Y12164D01*
X3326Y14410D02*
X2983Y14410D01*
X3830Y13906D02*
X3326Y14410D01*
X4208Y12164D02*
X3918Y12454D01*
X6930Y10245D02*
X6930Y10359D01*
X6930Y10359D02*
X5125Y12164D01*
X16055Y8760D02*
X17045Y8760D01*
X17045Y8760D02*
X17065Y8740D01*
X13645Y8120D02*
X14226Y8120D01*
X16055Y9174D02*
X16055Y8760D01*
X15812Y9417D02*
X16055Y9174D01*
X15091Y9417D02*
X15812Y9417D01*
X14688Y9014D02*
X15091Y9417D01*
X14688Y8582D02*
X14688Y9014D01*
X14226Y8120D02*
X14688Y8582D01*
X11400Y11910D02*
X11400Y11355D01*
X8255Y11995D02*
X8255Y12164D01*
X8685Y11565D02*
X8255Y11995D01*
X11400Y11355D02*
X11490Y11265D01*
X9879Y7802D02*
X9298Y7802D01*
X9298Y7802D02*
X9086Y7590D01*
X9086Y7590D02*
X8715Y7590D01*
X4432Y7534D02*
X4760Y7534D01*
X4760Y6764D02*
X4432Y6764D01*
X4906Y6910D02*
X4760Y6764D01*
X4906Y7388D02*
X4906Y6910D01*
X4760Y7534D02*
X4906Y7388D01*
X4432Y5484D02*
X4432Y5744D01*
X3170Y5963D02*
X3669Y5963D01*
X4148Y5484D02*
X4432Y5484D01*
X3669Y5963D02*
X4148Y5484D01*
X4432Y6764D02*
X4038Y6764D01*
X3699Y6492D02*
X3170Y5963D01*
X3766Y6492D02*
X3699Y6492D01*
X4038Y6764D02*
X3766Y6492D01*
X12660Y3765D02*
X12660Y4070D01*
X13485Y5030D02*
X13535Y5080D01*
X13535Y5080D02*
X14305Y5850D01*
X12930Y5030D02*
X13485Y5030D01*
X12540Y4640D02*
X12930Y5030D01*
X12540Y4190D02*
X12540Y4640D01*
X12660Y4070D02*
X12540Y4190D01*
X14775Y3054D02*
X14554Y3054D01*
X12895Y3530D02*
X12660Y3765D01*
X13690Y3530D02*
X12895Y3530D01*
X13890Y3330D02*
X13690Y3530D01*
X13890Y3160D02*
X13890Y3330D01*
X14070Y2980D02*
X13890Y3160D01*
X14480Y2980D02*
X14070Y2980D01*
X14554Y3054D02*
X14480Y2980D01*
X9879Y7802D02*
X10502Y7802D01*
X10502Y7802D02*
X10530Y7830D01*
X10530Y7830D02*
X10530Y7935D01*
X10428Y8432D02*
X9879Y8432D01*
X10530Y7935D02*
X10530Y8330D01*
X10530Y8330D02*
X10428Y8432D01*
X8595Y1650D02*
X8620Y1650D01*
X9700Y570D02*
X11505Y570D01*
X8620Y1650D02*
X9700Y570D01*
X13330Y865D02*
X14264Y860D01*
X14264Y860D02*
X14324Y800D01*
X11505Y863D02*
X11505Y570D01*
X11505Y570D02*
X11505Y395D01*
X13045Y340D02*
X13330Y865D01*
X11560Y340D02*
X13045Y340D01*
X11505Y395D02*
X11560Y340D01*
X11899Y1807D02*
X11899Y1493D01*
X11899Y1493D02*
X11866Y1460D01*
X11866Y1460D02*
X11530Y1460D01*
X11530Y1460D02*
X11505Y1435D01*
X11505Y1435D02*
X11505Y863D01*
X14775Y3054D02*
X14991Y3270D01*
X14991Y3270D02*
X15247Y3270D01*
X15247Y3270D02*
X15503Y3270D01*
X15503Y3270D02*
X15759Y3270D01*
X15759Y3270D02*
X15975Y3054D01*
X11111Y863D02*
X10132Y863D01*
X10132Y863D02*
X9345Y1650D01*
X17286Y842D02*
X18075Y825D01*
X18075Y825D02*
X18105Y855D01*
X13330Y3085D02*
X12537Y3075D01*
X12537Y3075D02*
X11899Y2437D01*
X11899Y2122D02*
X12136Y2122D01*
X12339Y2325D02*
X13330Y2335D01*
X12136Y2122D02*
X12339Y2325D01*
X19296Y12763D02*
X19296Y13901D01*
X19296Y13901D02*
X19027Y14170D01*
X870Y13645D02*
X1392Y13645D01*
X1392Y13645D02*
X2157Y14410D01*
X13750Y1960D02*
X13750Y1798D01*
X15910Y842D02*
X16536Y842D01*
X15882Y814D02*
X15910Y842D01*
X13750Y1798D02*
X13971Y1577D01*
X13330Y1615D02*
X13405Y1615D01*
X14588Y2798D02*
X14775Y2798D01*
X13405Y1615D02*
X13750Y1960D01*
X13750Y1960D02*
X14588Y2798D01*
X8715Y8340D02*
X8090Y8340D01*
X8090Y8340D02*
X8050Y8300D01*
X7232Y5744D02*
X6722Y5744D01*
X6722Y5744D02*
X6705Y5727D01*
X1700Y12570D02*
X1700Y12584D01*
X1700Y12584D02*
X1710Y12584D01*
X3793Y7024D02*
X3793Y7359D01*
X3170Y6713D02*
X3476Y6713D01*
X3787Y7024D02*
X3793Y7024D01*
X3793Y7024D02*
X4432Y7024D01*
X3476Y6713D02*
X3787Y7024D01*
X9879Y7487D02*
X9311Y7487D01*
X9311Y7487D02*
X8160Y6336D01*
X8160Y6336D02*
X8160Y6110D01*
X8160Y6110D02*
X7794Y5744D01*
X7794Y5744D02*
X7232Y5744D01*
X12150Y11910D02*
X12150Y11438D01*
X12150Y11438D02*
X11984Y11272D01*
X12188Y12885D02*
X12188Y11948D01*
X12188Y11948D02*
X12150Y11910D01*
X1710Y12584D02*
X1181Y12584D01*
X1181Y12584D02*
X870Y12895D01*
X2223Y13097D02*
X2223Y13158D01*
X1710Y12584D02*
X2223Y13097D01*
X3170Y6713D02*
X2633Y6713D01*
X2358Y6988D02*
X1893Y6988D01*
X2633Y6713D02*
X2358Y6988D01*
X12700Y7170D02*
X12700Y7010D01*
X14405Y6500D02*
X15055Y5850D01*
X13210Y6500D02*
X14405Y6500D01*
X12700Y7010D02*
X13210Y6500D01*
X15055Y5850D02*
X15055Y6005D01*
X15055Y6005D02*
X15518Y6468D01*
X15518Y6468D02*
X16060Y6468D01*
X13645Y7170D02*
X12700Y7170D01*
X12700Y7170D02*
X10830Y7170D01*
X10513Y7487D02*
X9879Y7487D01*
X10830Y7170D02*
X10513Y7487D01*
X9879Y8117D02*
X9237Y8117D01*
X9014Y8340D02*
X8715Y8340D01*
X9237Y8117D02*
X9014Y8340D01*
G54D10*
G36*
X6810Y7534D02*
X6771Y7495D01*
X6733Y7404D01*
X6733Y7305D01*
X6733Y7154D01*
X6733Y7145D01*
X6733Y7055D01*
X6733Y6895D01*
X6733Y6894D01*
X6733Y6795D01*
X6733Y6635D01*
X6771Y6543D01*
X6805Y6509D01*
X6771Y6475D01*
X6733Y6384D01*
X6733Y6285D01*
X6733Y6152D01*
X6662Y6152D01*
X6662Y8383D01*
X6747Y8469D01*
X6733Y8434D01*
X6733Y8335D01*
X6733Y8175D01*
X6733Y8174D01*
X6733Y8075D01*
X6733Y7924D01*
X6733Y7915D01*
X6733Y7825D01*
X6733Y7665D01*
X6771Y7573D01*
X6810Y7534D01*
X6810Y7534D01*
G37*
G54D32*
X6810Y7534D02*
X6771Y7495D01*
X6733Y7404D01*
X6733Y7305D01*
X6733Y7154D01*
X6733Y7145D01*
X6733Y7055D01*
X6733Y6895D01*
X6733Y6894D01*
X6733Y6795D01*
X6733Y6635D01*
X6771Y6543D01*
X6805Y6509D01*
X6771Y6475D01*
X6733Y6384D01*
X6733Y6285D01*
X6733Y6152D01*
X6662Y6152D01*
X6662Y8383D01*
X6747Y8469D01*
X6733Y8434D01*
X6733Y8335D01*
X6733Y8175D01*
X6733Y8174D01*
X6733Y8075D01*
X6733Y7924D01*
X6733Y7915D01*
X6733Y7825D01*
X6733Y7665D01*
X6771Y7573D01*
X6810Y7534D01*
G54D10*
G36*
X8327Y4286D02*
X8273Y4205D01*
X8250Y4093D01*
X8234Y4086D01*
X8164Y4016D01*
X8126Y3925D01*
X8126Y3875D01*
X8039Y3875D01*
X8039Y3899D01*
X8001Y3991D01*
X7931Y4061D01*
X7840Y4099D01*
X7745Y4099D01*
X7199Y4645D01*
X7531Y4645D01*
X7617Y4681D01*
X7699Y4697D01*
X7796Y4762D01*
X7859Y4825D01*
X7944Y4825D01*
X8100Y4890D01*
X8175Y4965D01*
X8175Y4466D01*
X8213Y4374D01*
X8283Y4304D01*
X8327Y4286D01*
X8327Y4286D01*
G37*
G54D32*
X8327Y4286D02*
X8273Y4205D01*
X8250Y4093D01*
X8234Y4086D01*
X8164Y4016D01*
X8126Y3925D01*
X8126Y3875D01*
X8039Y3875D01*
X8039Y3899D01*
X8001Y3991D01*
X7931Y4061D01*
X7840Y4099D01*
X7745Y4099D01*
X7199Y4645D01*
X7531Y4645D01*
X7617Y4681D01*
X7699Y4697D01*
X7796Y4762D01*
X7859Y4825D01*
X7944Y4825D01*
X8100Y4890D01*
X8175Y4965D01*
X8175Y4466D01*
X8213Y4374D01*
X8283Y4304D01*
X8327Y4286D01*
G54D10*
G36*
X8980Y14675D02*
X8906Y14495D01*
X8906Y14441D01*
X8816Y14441D01*
X7596Y14441D01*
X7504Y14403D01*
X7434Y14333D01*
X7396Y14242D01*
X7396Y14236D01*
X5984Y14236D01*
X5984Y14241D01*
X5946Y14333D01*
X5876Y14403D01*
X5785Y14441D01*
X5686Y14441D01*
X4466Y14441D01*
X4374Y14403D01*
X4304Y14333D01*
X4266Y14242D01*
X4266Y14143D01*
X4266Y13631D01*
X4304Y13539D01*
X4223Y13458D01*
X3397Y13458D01*
X3397Y13482D01*
X3359Y13574D01*
X3289Y13644D01*
X3198Y13682D01*
X3099Y13682D01*
X2749Y13682D01*
X2657Y13644D01*
X2598Y13585D01*
X2539Y13644D01*
X2448Y13682D01*
X2349Y13682D01*
X1999Y13682D01*
X1907Y13644D01*
X1837Y13574D01*
X1799Y13483D01*
X1799Y13384D01*
X1799Y13097D01*
X1697Y12995D01*
X1616Y12995D01*
X1460Y12930D01*
X1413Y12884D01*
X1394Y12884D01*
X1394Y13119D01*
X1356Y13211D01*
X1297Y13270D01*
X1356Y13329D01*
X1362Y13345D01*
X1392Y13345D01*
X1507Y13368D01*
X1604Y13433D01*
X2096Y13925D01*
X2442Y13925D01*
X2534Y13963D01*
X2604Y14033D01*
X2642Y14124D01*
X2642Y14223D01*
X2642Y14675D01*
X8980Y14675D01*
X8980Y14675D01*
G37*
G54D32*
X8980Y14675D02*
X8906Y14495D01*
X8906Y14441D01*
X8816Y14441D01*
X7596Y14441D01*
X7504Y14403D01*
X7434Y14333D01*
X7396Y14242D01*
X7396Y14236D01*
X5984Y14236D01*
X5984Y14241D01*
X5946Y14333D01*
X5876Y14403D01*
X5785Y14441D01*
X5686Y14441D01*
X4466Y14441D01*
X4374Y14403D01*
X4304Y14333D01*
X4266Y14242D01*
X4266Y14143D01*
X4266Y13631D01*
X4304Y13539D01*
X4223Y13458D01*
X3397Y13458D01*
X3397Y13482D01*
X3359Y13574D01*
X3289Y13644D01*
X3198Y13682D01*
X3099Y13682D01*
X2749Y13682D01*
X2657Y13644D01*
X2598Y13585D01*
X2539Y13644D01*
X2448Y13682D01*
X2349Y13682D01*
X1999Y13682D01*
X1907Y13644D01*
X1837Y13574D01*
X1799Y13483D01*
X1799Y13384D01*
X1799Y13097D01*
X1697Y12995D01*
X1616Y12995D01*
X1460Y12930D01*
X1413Y12884D01*
X1394Y12884D01*
X1394Y13119D01*
X1356Y13211D01*
X1297Y13270D01*
X1356Y13329D01*
X1362Y13345D01*
X1392Y13345D01*
X1507Y13368D01*
X1604Y13433D01*
X2096Y13925D01*
X2442Y13925D01*
X2534Y13963D01*
X2604Y14033D01*
X2642Y14124D01*
X2642Y14223D01*
X2642Y14675D01*
X8980Y14675D01*
G54D10*
G36*
X9260Y6663D02*
X9132Y6534D01*
X9067Y6437D01*
X9044Y6322D01*
X9044Y6205D01*
X9036Y6185D01*
X9036Y6086D01*
X9036Y5456D01*
X9046Y5431D01*
X9047Y5282D01*
X9033Y5276D01*
X8974Y5217D01*
X8915Y5276D01*
X8897Y5284D01*
X8896Y5438D01*
X8904Y5455D01*
X8904Y5554D01*
X8904Y6184D01*
X8896Y6204D01*
X8896Y6362D01*
X9241Y6708D01*
X9260Y6663D01*
X9260Y6663D01*
G37*
G54D32*
X9260Y6663D02*
X9132Y6534D01*
X9067Y6437D01*
X9044Y6322D01*
X9044Y6205D01*
X9036Y6185D01*
X9036Y6086D01*
X9036Y5456D01*
X9046Y5431D01*
X9047Y5282D01*
X9033Y5276D01*
X8974Y5217D01*
X8915Y5276D01*
X8897Y5284D01*
X8896Y5438D01*
X8904Y5455D01*
X8904Y5554D01*
X8904Y6184D01*
X8896Y6204D01*
X8896Y6362D01*
X9241Y6708D01*
X9260Y6663D01*
G54D10*
G36*
X9383Y7802D02*
X9347Y7787D01*
X9311Y7787D01*
X9196Y7764D01*
X9098Y7699D01*
X8120Y6721D01*
X8041Y6800D01*
X7885Y6865D01*
X7731Y6865D01*
X7731Y6893D01*
X7730Y6894D01*
X7731Y6894D01*
X7731Y6993D01*
X7731Y7144D01*
X7731Y7153D01*
X7731Y7243D01*
X7731Y7403D01*
X7693Y7495D01*
X7654Y7534D01*
X7693Y7573D01*
X7731Y7664D01*
X7731Y7763D01*
X7731Y7914D01*
X7731Y7923D01*
X7731Y8013D01*
X7731Y8019D01*
X7809Y7940D01*
X7965Y7875D01*
X8134Y7875D01*
X8290Y7940D01*
X8302Y7953D01*
X8390Y7916D01*
X8489Y7916D01*
X9014Y7916D01*
X9025Y7905D01*
X9122Y7840D01*
X9237Y7817D01*
X9347Y7817D01*
X9383Y7802D01*
X9383Y7802D01*
G37*
G54D32*
X9383Y7802D02*
X9347Y7787D01*
X9311Y7787D01*
X9196Y7764D01*
X9098Y7699D01*
X8120Y6721D01*
X8041Y6800D01*
X7885Y6865D01*
X7731Y6865D01*
X7731Y6893D01*
X7730Y6894D01*
X7731Y6894D01*
X7731Y6993D01*
X7731Y7144D01*
X7731Y7153D01*
X7731Y7243D01*
X7731Y7403D01*
X7693Y7495D01*
X7654Y7534D01*
X7693Y7573D01*
X7731Y7664D01*
X7731Y7763D01*
X7731Y7914D01*
X7731Y7923D01*
X7731Y8013D01*
X7731Y8019D01*
X7809Y7940D01*
X7965Y7875D01*
X8134Y7875D01*
X8290Y7940D01*
X8302Y7953D01*
X8390Y7916D01*
X8489Y7916D01*
X9014Y7916D01*
X9025Y7905D01*
X9122Y7840D01*
X9237Y7817D01*
X9347Y7817D01*
X9383Y7802D01*
G54D10*
G36*
X11550Y8239D02*
X11536Y8225D01*
X11451Y8225D01*
X11295Y8160D01*
X11175Y8041D01*
X11110Y7885D01*
X11110Y7716D01*
X11175Y7560D01*
X11264Y7470D01*
X10954Y7470D01*
X10725Y7699D01*
X10628Y7764D01*
X10513Y7787D01*
X10410Y7787D01*
X10374Y7803D01*
X10413Y7818D01*
X10483Y7888D01*
X10521Y7979D01*
X10521Y8078D01*
X10521Y8254D01*
X10483Y8346D01*
X10413Y8416D01*
X10374Y8433D01*
X10413Y8448D01*
X10483Y8518D01*
X10521Y8609D01*
X10521Y8708D01*
X10521Y8749D01*
X10602Y8667D01*
X10585Y8625D01*
X10585Y8456D01*
X10650Y8300D01*
X10769Y8180D01*
X10925Y8115D01*
X11094Y8115D01*
X11250Y8180D01*
X11370Y8299D01*
X11435Y8455D01*
X11435Y8541D01*
X11505Y8611D01*
X11550Y8679D01*
X11550Y8239D01*
X11550Y8239D01*
G37*
G54D32*
X11550Y8239D02*
X11536Y8225D01*
X11451Y8225D01*
X11295Y8160D01*
X11175Y8041D01*
X11110Y7885D01*
X11110Y7716D01*
X11175Y7560D01*
X11264Y7470D01*
X10954Y7470D01*
X10725Y7699D01*
X10628Y7764D01*
X10513Y7787D01*
X10410Y7787D01*
X10374Y7803D01*
X10413Y7818D01*
X10483Y7888D01*
X10521Y7979D01*
X10521Y8078D01*
X10521Y8254D01*
X10483Y8346D01*
X10413Y8416D01*
X10374Y8433D01*
X10413Y8448D01*
X10483Y8518D01*
X10521Y8609D01*
X10521Y8708D01*
X10521Y8749D01*
X10602Y8667D01*
X10585Y8625D01*
X10585Y8456D01*
X10650Y8300D01*
X10769Y8180D01*
X10925Y8115D01*
X11094Y8115D01*
X11250Y8180D01*
X11370Y8299D01*
X11435Y8455D01*
X11435Y8541D01*
X11505Y8611D01*
X11550Y8679D01*
X11550Y8239D01*
G54D10*
G36*
X11873Y12413D02*
X11834Y12396D01*
X11764Y12326D01*
X11726Y12235D01*
X11726Y12136D01*
X11726Y11615D01*
X11624Y11513D01*
X11559Y11357D01*
X11559Y11188D01*
X11596Y11099D01*
X11220Y11475D01*
X11220Y12319D01*
X11301Y12400D01*
X11647Y12400D01*
X11739Y12438D01*
X11775Y12474D01*
X11811Y12438D01*
X11873Y12413D01*
X11873Y12413D01*
G37*
G54D32*
X11873Y12413D02*
X11834Y12396D01*
X11764Y12326D01*
X11726Y12235D01*
X11726Y12136D01*
X11726Y11615D01*
X11624Y11513D01*
X11559Y11357D01*
X11559Y11188D01*
X11596Y11099D01*
X11220Y11475D01*
X11220Y12319D01*
X11301Y12400D01*
X11647Y12400D01*
X11739Y12438D01*
X11775Y12474D01*
X11811Y12438D01*
X11873Y12413D01*
G54D10*
G36*
X13149Y8115D02*
X13111Y8099D01*
X13041Y8029D01*
X13003Y7938D01*
X13003Y7839D01*
X13003Y7663D01*
X13010Y7646D01*
X13003Y7628D01*
X13003Y7529D01*
X13003Y7470D01*
X12700Y7470D01*
X11805Y7470D01*
X11895Y7559D01*
X11960Y7715D01*
X11960Y7801D01*
X12062Y7903D01*
X12127Y8000D01*
X12149Y8115D01*
X12150Y8115D01*
X12150Y8614D01*
X12170Y8605D01*
X12339Y8605D01*
X12495Y8670D01*
X12615Y8789D01*
X12680Y8945D01*
X12680Y9114D01*
X12640Y9208D01*
X12690Y9208D01*
X12709Y9217D01*
X12729Y9208D01*
X12828Y9208D01*
X13004Y9208D01*
X13007Y9210D01*
X13003Y9198D01*
X13003Y9099D01*
X13003Y8923D01*
X13010Y8906D01*
X13003Y8888D01*
X13003Y8789D01*
X13003Y8613D01*
X13012Y8591D01*
X13003Y8568D01*
X13003Y8469D01*
X13003Y8293D01*
X13041Y8201D01*
X13111Y8131D01*
X13149Y8115D01*
X13149Y8115D01*
G37*
G54D32*
X13149Y8115D02*
X13111Y8099D01*
X13041Y8029D01*
X13003Y7938D01*
X13003Y7839D01*
X13003Y7663D01*
X13010Y7646D01*
X13003Y7628D01*
X13003Y7529D01*
X13003Y7470D01*
X12700Y7470D01*
X11805Y7470D01*
X11895Y7559D01*
X11960Y7715D01*
X11960Y7801D01*
X12062Y7903D01*
X12127Y8000D01*
X12149Y8115D01*
X12150Y8115D01*
X12150Y8614D01*
X12170Y8605D01*
X12339Y8605D01*
X12495Y8670D01*
X12615Y8789D01*
X12680Y8945D01*
X12680Y9114D01*
X12640Y9208D01*
X12690Y9208D01*
X12709Y9217D01*
X12729Y9208D01*
X12828Y9208D01*
X13004Y9208D01*
X13007Y9210D01*
X13003Y9198D01*
X13003Y9099D01*
X13003Y8923D01*
X13010Y8906D01*
X13003Y8888D01*
X13003Y8789D01*
X13003Y8613D01*
X13012Y8591D01*
X13003Y8568D01*
X13003Y8469D01*
X13003Y8293D01*
X13041Y8201D01*
X13111Y8131D01*
X13149Y8115D01*
G54D10*
G36*
X13199Y3509D02*
X13006Y3509D01*
X12914Y3471D01*
X12844Y3401D01*
X12834Y3379D01*
X12585Y3376D01*
X12585Y4065D01*
X12644Y4005D01*
X12800Y3940D01*
X12965Y3940D01*
X12965Y3806D01*
X13030Y3650D01*
X13149Y3530D01*
X13199Y3509D01*
X13199Y3509D01*
G37*
G54D32*
X13199Y3509D02*
X13006Y3509D01*
X12914Y3471D01*
X12844Y3401D01*
X12834Y3379D01*
X12585Y3376D01*
X12585Y4065D01*
X12644Y4005D01*
X12800Y3940D01*
X12965Y3940D01*
X12965Y3806D01*
X13030Y3650D01*
X13149Y3530D01*
X13199Y3509D01*
G54D10*
G36*
X14247Y2881D02*
X13854Y2488D01*
X13854Y2559D01*
X13816Y2651D01*
X13757Y2710D01*
X13816Y2769D01*
X13854Y2860D01*
X13854Y2959D01*
X13854Y3309D01*
X13816Y3401D01*
X13746Y3471D01*
X13655Y3509D01*
X13579Y3509D01*
X13630Y3530D01*
X13750Y3649D01*
X13754Y3660D01*
X14054Y3660D01*
X13941Y3547D01*
X13876Y3391D01*
X13876Y3222D01*
X13941Y3066D01*
X14060Y2946D01*
X14216Y2881D01*
X14247Y2881D01*
X14247Y2881D01*
G37*
G54D32*
X14247Y2881D02*
X13854Y2488D01*
X13854Y2559D01*
X13816Y2651D01*
X13757Y2710D01*
X13816Y2769D01*
X13854Y2860D01*
X13854Y2959D01*
X13854Y3309D01*
X13816Y3401D01*
X13746Y3471D01*
X13655Y3509D01*
X13579Y3509D01*
X13630Y3530D01*
X13750Y3649D01*
X13754Y3660D01*
X14054Y3660D01*
X13941Y3547D01*
X13876Y3391D01*
X13876Y3222D01*
X13941Y3066D01*
X14060Y2946D01*
X14216Y2881D01*
X14247Y2881D01*
G54D10*
G36*
X14747Y325D02*
X4931Y325D01*
X4931Y4844D01*
X4931Y4943D01*
X4931Y5094D01*
X4931Y5103D01*
X4931Y5193D01*
X4931Y5353D01*
X4893Y5445D01*
X4823Y5515D01*
X4732Y5553D01*
X4633Y5553D01*
X4133Y5553D01*
X4041Y5515D01*
X3971Y5445D01*
X3933Y5354D01*
X3933Y5255D01*
X3933Y5104D01*
X3933Y5095D01*
X3933Y5005D01*
X3933Y4845D01*
X3971Y4753D01*
X4041Y4683D01*
X4132Y4645D01*
X4231Y4645D01*
X4731Y4645D01*
X4823Y4683D01*
X4893Y4753D01*
X4931Y4844D01*
X4931Y325D01*
X3550Y325D01*
X3550Y3958D01*
X3390Y4344D01*
X3095Y4639D01*
X2710Y4799D01*
X2292Y4800D01*
X1906Y4640D01*
X1611Y4345D01*
X1451Y3960D01*
X1450Y3542D01*
X1610Y3156D01*
X1905Y2861D01*
X2290Y2701D01*
X2708Y2700D01*
X3094Y2860D01*
X3389Y3155D01*
X3549Y3540D01*
X3550Y3958D01*
X3550Y325D01*
X325Y325D01*
X325Y14675D01*
X1672Y14675D01*
X1672Y14597D01*
X1672Y14350D01*
X1319Y13998D01*
X1286Y14031D01*
X1195Y14069D01*
X1096Y14069D01*
X546Y14069D01*
X454Y14031D01*
X384Y13961D01*
X346Y13870D01*
X346Y13771D01*
X346Y13421D01*
X384Y13329D01*
X443Y13270D01*
X384Y13211D01*
X346Y13120D01*
X346Y13021D01*
X346Y12671D01*
X384Y12579D01*
X454Y12509D01*
X545Y12471D01*
X644Y12471D01*
X869Y12471D01*
X968Y12372D01*
X969Y12372D01*
X1066Y12307D01*
X1180Y12285D01*
X1181Y12284D01*
X1385Y12284D01*
X1459Y12210D01*
X1615Y12145D01*
X1784Y12145D01*
X1940Y12210D01*
X2060Y12329D01*
X2125Y12485D01*
X2125Y12575D01*
X2184Y12634D01*
X2447Y12634D01*
X2539Y12672D01*
X2598Y12731D01*
X2657Y12672D01*
X2748Y12634D01*
X2847Y12634D01*
X3197Y12634D01*
X3289Y12672D01*
X3359Y12742D01*
X3397Y12833D01*
X3397Y12858D01*
X4347Y12858D01*
X4462Y12881D01*
X4559Y12946D01*
X5044Y13431D01*
X5784Y13431D01*
X5876Y13469D01*
X5946Y13539D01*
X5984Y13630D01*
X5984Y13636D01*
X7396Y13636D01*
X7396Y13631D01*
X7434Y13539D01*
X7504Y13469D01*
X7595Y13431D01*
X7694Y13431D01*
X7955Y13431D01*
X7978Y13320D01*
X8043Y13223D01*
X8065Y13201D01*
X8065Y13116D01*
X8130Y12960D01*
X8249Y12840D01*
X8405Y12775D01*
X8574Y12775D01*
X8730Y12840D01*
X8790Y12900D01*
X8846Y12900D01*
X9165Y12581D01*
X9165Y10738D01*
X9149Y10731D01*
X9090Y10672D01*
X9031Y10731D01*
X8940Y10769D01*
X8841Y10769D01*
X8491Y10769D01*
X8399Y10731D01*
X8329Y10661D01*
X8291Y10570D01*
X8291Y10545D01*
X8104Y10545D01*
X8104Y10569D01*
X8066Y10661D01*
X7996Y10731D01*
X7905Y10769D01*
X7806Y10769D01*
X7456Y10769D01*
X7364Y10731D01*
X7294Y10661D01*
X7256Y10570D01*
X7256Y10471D01*
X7256Y9921D01*
X7284Y9854D01*
X6150Y8719D01*
X6085Y8622D01*
X6062Y8507D01*
X6062Y5782D01*
X5520Y6324D01*
X5520Y7390D01*
X5497Y7505D01*
X5432Y7602D01*
X5432Y7603D01*
X5200Y7835D01*
X5200Y8570D01*
X5177Y8685D01*
X5112Y8782D01*
X5102Y8792D01*
X5005Y8857D01*
X4890Y8880D01*
X3750Y8880D01*
X3705Y8872D01*
X3666Y8911D01*
X3575Y8949D01*
X3550Y8949D01*
X3550Y11458D01*
X3390Y11844D01*
X3095Y12139D01*
X2710Y12299D01*
X2292Y12300D01*
X1906Y12140D01*
X1611Y11845D01*
X1451Y11460D01*
X1450Y11042D01*
X1610Y10656D01*
X1905Y10361D01*
X2290Y10201D01*
X2708Y10200D01*
X3094Y10360D01*
X3389Y10655D01*
X3549Y11040D01*
X3550Y11458D01*
X3550Y8949D01*
X3476Y8949D01*
X2926Y8949D01*
X2834Y8911D01*
X2764Y8841D01*
X2726Y8750D01*
X2726Y8651D01*
X2726Y8301D01*
X2764Y8209D01*
X2834Y8139D01*
X2925Y8101D01*
X3024Y8101D01*
X3209Y8101D01*
X2908Y7800D01*
X2341Y7800D01*
X2277Y7827D01*
X2178Y7827D01*
X1510Y7827D01*
X1418Y7789D01*
X1348Y7719D01*
X1310Y7628D01*
X1310Y7529D01*
X1310Y7373D01*
X1310Y7372D01*
X1310Y7273D01*
X1310Y7117D01*
X1310Y7116D01*
X1310Y7017D01*
X1310Y6861D01*
X1348Y6769D01*
X1418Y6699D01*
X1509Y6661D01*
X1608Y6661D01*
X2261Y6661D01*
X2420Y6502D01*
X2421Y6501D01*
X2518Y6436D01*
X2632Y6414D01*
X2633Y6413D01*
X2677Y6413D01*
X2684Y6397D01*
X2754Y6327D01*
X2845Y6289D01*
X2944Y6289D01*
X3494Y6289D01*
X3586Y6327D01*
X3656Y6397D01*
X3694Y6488D01*
X3694Y6507D01*
X3911Y6724D01*
X3966Y6724D01*
X3933Y6644D01*
X3933Y6545D01*
X3933Y6385D01*
X3933Y6384D01*
X3933Y6285D01*
X3933Y6125D01*
X3933Y6124D01*
X3933Y6025D01*
X3933Y5865D01*
X3971Y5773D01*
X4041Y5703D01*
X4132Y5665D01*
X4231Y5665D01*
X4731Y5665D01*
X4823Y5703D01*
X4893Y5773D01*
X4931Y5864D01*
X4931Y5963D01*
X4931Y6123D01*
X4930Y6124D01*
X4931Y6124D01*
X4931Y6145D01*
X4943Y6085D01*
X5008Y5988D01*
X7191Y3805D01*
X7191Y3801D01*
X7191Y3251D01*
X7229Y3159D01*
X7299Y3089D01*
X7315Y3083D01*
X7315Y2955D01*
X7338Y2840D01*
X7375Y2785D01*
X7375Y2686D01*
X7440Y2530D01*
X7559Y2410D01*
X7715Y2345D01*
X7884Y2345D01*
X8040Y2410D01*
X8141Y2511D01*
X8141Y2281D01*
X8179Y2189D01*
X8249Y2119D01*
X8340Y2081D01*
X8439Y2081D01*
X8789Y2081D01*
X8881Y2119D01*
X8940Y2178D01*
X8999Y2119D01*
X9008Y2116D01*
X8959Y2066D01*
X8921Y1975D01*
X8921Y1876D01*
X8921Y1326D01*
X8959Y1234D01*
X9029Y1164D01*
X9120Y1126D01*
X9219Y1126D01*
X9445Y1126D01*
X9919Y652D01*
X9920Y651D01*
X10017Y586D01*
X10131Y564D01*
X10132Y563D01*
X10764Y563D01*
X10793Y534D01*
X10884Y496D01*
X10983Y496D01*
X11337Y496D01*
X11429Y534D01*
X11499Y604D01*
X11505Y619D01*
X11511Y604D01*
X11581Y534D01*
X11672Y496D01*
X11771Y496D01*
X12125Y496D01*
X12217Y534D01*
X12287Y604D01*
X12325Y695D01*
X12325Y794D01*
X12325Y878D01*
X12601Y878D01*
X12716Y901D01*
X12813Y966D01*
X12853Y1005D01*
X12853Y1006D01*
X12918Y1103D01*
X12940Y1218D01*
X12941Y1218D01*
X13005Y1191D01*
X13104Y1191D01*
X13654Y1191D01*
X13726Y1221D01*
X13730Y1217D01*
X13886Y1152D01*
X14055Y1152D01*
X14211Y1217D01*
X14331Y1336D01*
X14396Y1492D01*
X14396Y1661D01*
X14331Y1817D01*
X14212Y1937D01*
X14168Y1955D01*
X14428Y2214D01*
X14428Y2159D01*
X14466Y2067D01*
X14475Y2058D01*
X14475Y1588D01*
X14475Y1575D01*
X14484Y1530D01*
X14493Y1472D01*
X14650Y1044D01*
X14650Y1026D01*
X14650Y476D01*
X14688Y384D01*
X14747Y325D01*
X14747Y325D01*
G37*
G54D32*
X14747Y325D02*
X4931Y325D01*
X4931Y4844D01*
X4931Y4943D01*
X4931Y5094D01*
X4931Y5103D01*
X4931Y5193D01*
X4931Y5353D01*
X4893Y5445D01*
X4823Y5515D01*
X4732Y5553D01*
X4633Y5553D01*
X4133Y5553D01*
X4041Y5515D01*
X3971Y5445D01*
X3933Y5354D01*
X3933Y5255D01*
X3933Y5104D01*
X3933Y5095D01*
X3933Y5005D01*
X3933Y4845D01*
X3971Y4753D01*
X4041Y4683D01*
X4132Y4645D01*
X4231Y4645D01*
X4731Y4645D01*
X4823Y4683D01*
X4893Y4753D01*
X4931Y4844D01*
X4931Y325D01*
X3550Y325D01*
X3550Y3958D01*
X3390Y4344D01*
X3095Y4639D01*
X2710Y4799D01*
X2292Y4800D01*
X1906Y4640D01*
X1611Y4345D01*
X1451Y3960D01*
X1450Y3542D01*
X1610Y3156D01*
X1905Y2861D01*
X2290Y2701D01*
X2708Y2700D01*
X3094Y2860D01*
X3389Y3155D01*
X3549Y3540D01*
X3550Y3958D01*
X3550Y325D01*
X325Y325D01*
X325Y14675D01*
X1672Y14675D01*
X1672Y14597D01*
X1672Y14350D01*
X1319Y13998D01*
X1286Y14031D01*
X1195Y14069D01*
X1096Y14069D01*
X546Y14069D01*
X454Y14031D01*
X384Y13961D01*
X346Y13870D01*
X346Y13771D01*
X346Y13421D01*
X384Y13329D01*
X443Y13270D01*
X384Y13211D01*
X346Y13120D01*
X346Y13021D01*
X346Y12671D01*
X384Y12579D01*
X454Y12509D01*
X545Y12471D01*
X644Y12471D01*
X869Y12471D01*
X968Y12372D01*
X969Y12372D01*
X1066Y12307D01*
X1180Y12285D01*
X1181Y12284D01*
X1385Y12284D01*
X1459Y12210D01*
X1615Y12145D01*
X1784Y12145D01*
X1940Y12210D01*
X2060Y12329D01*
X2125Y12485D01*
X2125Y12575D01*
X2184Y12634D01*
X2447Y12634D01*
X2539Y12672D01*
X2598Y12731D01*
X2657Y12672D01*
X2748Y12634D01*
X2847Y12634D01*
X3197Y12634D01*
X3289Y12672D01*
X3359Y12742D01*
X3397Y12833D01*
X3397Y12858D01*
X4347Y12858D01*
X4462Y12881D01*
X4559Y12946D01*
X5044Y13431D01*
X5784Y13431D01*
X5876Y13469D01*
X5946Y13539D01*
X5984Y13630D01*
X5984Y13636D01*
X7396Y13636D01*
X7396Y13631D01*
X7434Y13539D01*
X7504Y13469D01*
X7595Y13431D01*
X7694Y13431D01*
X7955Y13431D01*
X7978Y13320D01*
X8043Y13223D01*
X8065Y13201D01*
X8065Y13116D01*
X8130Y12960D01*
X8249Y12840D01*
X8405Y12775D01*
X8574Y12775D01*
X8730Y12840D01*
X8790Y12900D01*
X8846Y12900D01*
X9165Y12581D01*
X9165Y10738D01*
X9149Y10731D01*
X9090Y10672D01*
X9031Y10731D01*
X8940Y10769D01*
X8841Y10769D01*
X8491Y10769D01*
X8399Y10731D01*
X8329Y10661D01*
X8291Y10570D01*
X8291Y10545D01*
X8104Y10545D01*
X8104Y10569D01*
X8066Y10661D01*
X7996Y10731D01*
X7905Y10769D01*
X7806Y10769D01*
X7456Y10769D01*
X7364Y10731D01*
X7294Y10661D01*
X7256Y10570D01*
X7256Y10471D01*
X7256Y9921D01*
X7284Y9854D01*
X6150Y8719D01*
X6085Y8622D01*
X6062Y8507D01*
X6062Y5782D01*
X5520Y6324D01*
X5520Y7390D01*
X5497Y7505D01*
X5432Y7602D01*
X5432Y7603D01*
X5200Y7835D01*
X5200Y8570D01*
X5177Y8685D01*
X5112Y8782D01*
X5102Y8792D01*
X5005Y8857D01*
X4890Y8880D01*
X3750Y8880D01*
X3705Y8872D01*
X3666Y8911D01*
X3575Y8949D01*
X3550Y8949D01*
X3550Y11458D01*
X3390Y11844D01*
X3095Y12139D01*
X2710Y12299D01*
X2292Y12300D01*
X1906Y12140D01*
X1611Y11845D01*
X1451Y11460D01*
X1450Y11042D01*
X1610Y10656D01*
X1905Y10361D01*
X2290Y10201D01*
X2708Y10200D01*
X3094Y10360D01*
X3389Y10655D01*
X3549Y11040D01*
X3550Y11458D01*
X3550Y8949D01*
X3476Y8949D01*
X2926Y8949D01*
X2834Y8911D01*
X2764Y8841D01*
X2726Y8750D01*
X2726Y8651D01*
X2726Y8301D01*
X2764Y8209D01*
X2834Y8139D01*
X2925Y8101D01*
X3024Y8101D01*
X3209Y8101D01*
X2908Y7800D01*
X2341Y7800D01*
X2277Y7827D01*
X2178Y7827D01*
X1510Y7827D01*
X1418Y7789D01*
X1348Y7719D01*
X1310Y7628D01*
X1310Y7529D01*
X1310Y7373D01*
X1310Y7372D01*
X1310Y7273D01*
X1310Y7117D01*
X1310Y7116D01*
X1310Y7017D01*
X1310Y6861D01*
X1348Y6769D01*
X1418Y6699D01*
X1509Y6661D01*
X1608Y6661D01*
X2261Y6661D01*
X2420Y6502D01*
X2421Y6501D01*
X2518Y6436D01*
X2632Y6414D01*
X2633Y6413D01*
X2677Y6413D01*
X2684Y6397D01*
X2754Y6327D01*
X2845Y6289D01*
X2944Y6289D01*
X3494Y6289D01*
X3586Y6327D01*
X3656Y6397D01*
X3694Y6488D01*
X3694Y6507D01*
X3911Y6724D01*
X3966Y6724D01*
X3933Y6644D01*
X3933Y6545D01*
X3933Y6385D01*
X3933Y6384D01*
X3933Y6285D01*
X3933Y6125D01*
X3933Y6124D01*
X3933Y6025D01*
X3933Y5865D01*
X3971Y5773D01*
X4041Y5703D01*
X4132Y5665D01*
X4231Y5665D01*
X4731Y5665D01*
X4823Y5703D01*
X4893Y5773D01*
X4931Y5864D01*
X4931Y5963D01*
X4931Y6123D01*
X4930Y6124D01*
X4931Y6124D01*
X4931Y6145D01*
X4943Y6085D01*
X5008Y5988D01*
X7191Y3805D01*
X7191Y3801D01*
X7191Y3251D01*
X7229Y3159D01*
X7299Y3089D01*
X7315Y3083D01*
X7315Y2955D01*
X7338Y2840D01*
X7375Y2785D01*
X7375Y2686D01*
X7440Y2530D01*
X7559Y2410D01*
X7715Y2345D01*
X7884Y2345D01*
X8040Y2410D01*
X8141Y2511D01*
X8141Y2281D01*
X8179Y2189D01*
X8249Y2119D01*
X8340Y2081D01*
X8439Y2081D01*
X8789Y2081D01*
X8881Y2119D01*
X8940Y2178D01*
X8999Y2119D01*
X9008Y2116D01*
X8959Y2066D01*
X8921Y1975D01*
X8921Y1876D01*
X8921Y1326D01*
X8959Y1234D01*
X9029Y1164D01*
X9120Y1126D01*
X9219Y1126D01*
X9445Y1126D01*
X9919Y652D01*
X9920Y651D01*
X10017Y586D01*
X10131Y564D01*
X10132Y563D01*
X10764Y563D01*
X10793Y534D01*
X10884Y496D01*
X10983Y496D01*
X11337Y496D01*
X11429Y534D01*
X11499Y604D01*
X11505Y619D01*
X11511Y604D01*
X11581Y534D01*
X11672Y496D01*
X11771Y496D01*
X12125Y496D01*
X12217Y534D01*
X12287Y604D01*
X12325Y695D01*
X12325Y794D01*
X12325Y878D01*
X12601Y878D01*
X12716Y901D01*
X12813Y966D01*
X12853Y1005D01*
X12853Y1006D01*
X12918Y1103D01*
X12940Y1218D01*
X12941Y1218D01*
X13005Y1191D01*
X13104Y1191D01*
X13654Y1191D01*
X13726Y1221D01*
X13730Y1217D01*
X13886Y1152D01*
X14055Y1152D01*
X14211Y1217D01*
X14331Y1336D01*
X14396Y1492D01*
X14396Y1661D01*
X14331Y1817D01*
X14212Y1937D01*
X14168Y1955D01*
X14428Y2214D01*
X14428Y2159D01*
X14466Y2067D01*
X14475Y2058D01*
X14475Y1588D01*
X14475Y1575D01*
X14484Y1530D01*
X14493Y1472D01*
X14650Y1044D01*
X14650Y1026D01*
X14650Y476D01*
X14688Y384D01*
X14747Y325D01*
G54D10*
G36*
X15121Y7471D02*
X15065Y7335D01*
X15065Y7166D01*
X15071Y7150D01*
X14287Y7150D01*
X14287Y7198D01*
X14364Y7213D01*
X14461Y7278D01*
X15064Y7881D01*
X15037Y7815D01*
X15037Y7646D01*
X15102Y7490D01*
X15121Y7471D01*
X15121Y7471D01*
G37*
G54D32*
X15121Y7471D02*
X15065Y7335D01*
X15065Y7166D01*
X15071Y7150D01*
X14287Y7150D01*
X14287Y7198D01*
X14364Y7213D01*
X14461Y7278D01*
X15064Y7881D01*
X15037Y7815D01*
X15037Y7646D01*
X15102Y7490D01*
X15121Y7471D01*
G54D10*
G36*
X15681Y5395D02*
X14951Y4665D01*
X13185Y4665D01*
X13126Y4725D01*
X12970Y4790D01*
X12801Y4790D01*
X12645Y4725D01*
X12585Y4666D01*
X12585Y5160D01*
X12580Y5182D01*
X12640Y5170D01*
X13240Y5170D01*
X13355Y5193D01*
X13452Y5258D01*
X13659Y5465D01*
X13744Y5465D01*
X13900Y5530D01*
X14020Y5649D01*
X14085Y5805D01*
X14085Y5974D01*
X14020Y6130D01*
X13950Y6200D01*
X14281Y6200D01*
X14631Y5850D01*
X14631Y5526D01*
X14669Y5434D01*
X14739Y5364D01*
X14830Y5326D01*
X14929Y5326D01*
X15279Y5326D01*
X15371Y5364D01*
X15441Y5434D01*
X15477Y5522D01*
X15549Y5450D01*
X15681Y5395D01*
X15681Y5395D01*
G37*
G54D32*
X15681Y5395D02*
X14951Y4665D01*
X13185Y4665D01*
X13126Y4725D01*
X12970Y4790D01*
X12801Y4790D01*
X12645Y4725D01*
X12585Y4666D01*
X12585Y5160D01*
X12580Y5182D01*
X12640Y5170D01*
X13240Y5170D01*
X13355Y5193D01*
X13452Y5258D01*
X13659Y5465D01*
X13744Y5465D01*
X13900Y5530D01*
X14020Y5649D01*
X14085Y5805D01*
X14085Y5974D01*
X14020Y6130D01*
X13950Y6200D01*
X14281Y6200D01*
X14631Y5850D01*
X14631Y5526D01*
X14669Y5434D01*
X14739Y5364D01*
X14830Y5326D01*
X14929Y5326D01*
X15279Y5326D01*
X15371Y5364D01*
X15441Y5434D01*
X15477Y5522D01*
X15549Y5450D01*
X15681Y5395D01*
G54D10*
G36*
X15945Y3125D02*
X15828Y3125D01*
X15736Y3087D01*
X15666Y3017D01*
X15648Y2975D01*
X15516Y2975D01*
X15360Y2910D01*
X15331Y2882D01*
X15205Y2934D01*
X15118Y2934D01*
X15084Y3017D01*
X15014Y3087D01*
X14923Y3125D01*
X14824Y3125D01*
X14686Y3125D01*
X14726Y3221D01*
X14726Y3284D01*
X14742Y3300D01*
X15315Y3300D01*
X15430Y3323D01*
X15527Y3388D01*
X15599Y3461D01*
X15689Y3370D01*
X15845Y3305D01*
X15931Y3305D01*
X15945Y3291D01*
X15945Y3125D01*
X15945Y3125D01*
G37*
G54D32*
X15945Y3125D02*
X15828Y3125D01*
X15736Y3087D01*
X15666Y3017D01*
X15648Y2975D01*
X15516Y2975D01*
X15360Y2910D01*
X15331Y2882D01*
X15205Y2934D01*
X15118Y2934D01*
X15084Y3017D01*
X15014Y3087D01*
X14923Y3125D01*
X14824Y3125D01*
X14686Y3125D01*
X14726Y3221D01*
X14726Y3284D01*
X14742Y3300D01*
X15315Y3300D01*
X15430Y3323D01*
X15527Y3388D01*
X15599Y3461D01*
X15689Y3370D01*
X15845Y3305D01*
X15931Y3305D01*
X15945Y3291D01*
X15945Y3125D01*
G54D10*
G36*
X18636Y9570D02*
X17597Y9570D01*
X17482Y9547D01*
X17384Y9482D01*
X17231Y9328D01*
X17166Y9231D01*
X17143Y9116D01*
X17143Y8569D01*
X15729Y8569D01*
X15729Y9084D01*
X15691Y9176D01*
X15621Y9246D01*
X15530Y9284D01*
X15431Y9284D01*
X15081Y9284D01*
X15076Y9283D01*
X15399Y9605D01*
X18636Y9605D01*
X18636Y9570D01*
X18636Y9570D01*
G37*
G54D32*
X18636Y9570D02*
X17597Y9570D01*
X17482Y9547D01*
X17384Y9482D01*
X17231Y9328D01*
X17166Y9231D01*
X17143Y9116D01*
X17143Y8569D01*
X15729Y8569D01*
X15729Y9084D01*
X15691Y9176D01*
X15621Y9246D01*
X15530Y9284D01*
X15431Y9284D01*
X15081Y9284D01*
X15076Y9283D01*
X15399Y9605D01*
X18636Y9605D01*
X18636Y9570D01*
G54D10*
G36*
X19310Y4051D02*
X19291Y4070D01*
X19135Y4135D01*
X18966Y4135D01*
X18810Y4070D01*
X18690Y3951D01*
X18625Y3795D01*
X18625Y3708D01*
X18549Y3632D01*
X18550Y3958D01*
X18390Y4344D01*
X18095Y4639D01*
X17710Y4799D01*
X17364Y4800D01*
X17440Y4876D01*
X17585Y4815D01*
X17754Y4815D01*
X17910Y4880D01*
X18030Y4999D01*
X18095Y5155D01*
X18095Y5324D01*
X18038Y5460D01*
X18465Y5460D01*
X18580Y5483D01*
X18677Y5548D01*
X18977Y5848D01*
X19039Y5941D01*
X19305Y5941D01*
X19305Y4140D01*
X19310Y4115D01*
X19310Y4051D01*
X19310Y4051D01*
G37*
G54D32*
X19310Y4051D02*
X19291Y4070D01*
X19135Y4135D01*
X18966Y4135D01*
X18810Y4070D01*
X18690Y3951D01*
X18625Y3795D01*
X18625Y3708D01*
X18549Y3632D01*
X18550Y3958D01*
X18390Y4344D01*
X18095Y4639D01*
X17710Y4799D01*
X17364Y4800D01*
X17440Y4876D01*
X17585Y4815D01*
X17754Y4815D01*
X17910Y4880D01*
X18030Y4999D01*
X18095Y5155D01*
X18095Y5324D01*
X18038Y5460D01*
X18465Y5460D01*
X18580Y5483D01*
X18677Y5548D01*
X18977Y5848D01*
X19039Y5941D01*
X19305Y5941D01*
X19305Y4140D01*
X19310Y4115D01*
X19310Y4051D01*
G54D10*
G36*
X19675Y13165D02*
X19621Y13187D01*
X19596Y13187D01*
X19596Y13901D01*
X19573Y14016D01*
X19512Y14108D01*
X19512Y14455D01*
X19474Y14547D01*
X19404Y14617D01*
X19313Y14655D01*
X19214Y14655D01*
X18742Y14655D01*
X18650Y14617D01*
X18580Y14547D01*
X18542Y14456D01*
X18542Y14357D01*
X18542Y13885D01*
X18580Y13793D01*
X18650Y13723D01*
X18741Y13685D01*
X18840Y13685D01*
X18996Y13685D01*
X18996Y13187D01*
X18972Y13187D01*
X18880Y13149D01*
X18810Y13079D01*
X18772Y12988D01*
X18772Y12889D01*
X18772Y12780D01*
X16950Y12780D01*
X16835Y12757D01*
X16737Y12692D01*
X16345Y12300D01*
X15212Y12300D01*
X15247Y12382D01*
X15247Y12601D01*
X15164Y12803D01*
X15010Y12957D01*
X14808Y13041D01*
X14589Y13041D01*
X14520Y13013D01*
X14520Y13486D01*
X14857Y13824D01*
X14868Y13819D01*
X15087Y13819D01*
X15289Y13902D01*
X15443Y14056D01*
X15477Y14140D01*
X15512Y14057D01*
X15666Y13903D01*
X15868Y13819D01*
X16087Y13819D01*
X16289Y13902D01*
X16443Y14056D01*
X16527Y14258D01*
X16527Y14477D01*
X16445Y14675D01*
X19675Y14675D01*
X19675Y13165D01*
X19675Y13165D01*
G37*
G54D32*
X19675Y13165D02*
X19621Y13187D01*
X19596Y13187D01*
X19596Y13901D01*
X19573Y14016D01*
X19512Y14108D01*
X19512Y14455D01*
X19474Y14547D01*
X19404Y14617D01*
X19313Y14655D01*
X19214Y14655D01*
X18742Y14655D01*
X18650Y14617D01*
X18580Y14547D01*
X18542Y14456D01*
X18542Y14357D01*
X18542Y13885D01*
X18580Y13793D01*
X18650Y13723D01*
X18741Y13685D01*
X18840Y13685D01*
X18996Y13685D01*
X18996Y13187D01*
X18972Y13187D01*
X18880Y13149D01*
X18810Y13079D01*
X18772Y12988D01*
X18772Y12889D01*
X18772Y12780D01*
X16950Y12780D01*
X16835Y12757D01*
X16737Y12692D01*
X16345Y12300D01*
X15212Y12300D01*
X15247Y12382D01*
X15247Y12601D01*
X15164Y12803D01*
X15010Y12957D01*
X14808Y13041D01*
X14589Y13041D01*
X14520Y13013D01*
X14520Y13486D01*
X14857Y13824D01*
X14868Y13819D01*
X15087Y13819D01*
X15289Y13902D01*
X15443Y14056D01*
X15477Y14140D01*
X15512Y14057D01*
X15666Y13903D01*
X15868Y13819D01*
X16087Y13819D01*
X16289Y13902D01*
X16443Y14056D01*
X16527Y14258D01*
X16527Y14477D01*
X16445Y14675D01*
X19675Y14675D01*
X19675Y13165D01*
G54D10*
G36*
X19675Y325D02*
X17526Y325D01*
X17602Y356D01*
X17672Y426D01*
X17698Y490D01*
X17719Y439D01*
X17789Y369D01*
X17880Y331D01*
X17979Y331D01*
X18329Y331D01*
X18421Y369D01*
X18491Y439D01*
X18529Y530D01*
X18529Y629D01*
X18529Y1179D01*
X18491Y1271D01*
X18421Y1341D01*
X18330Y1379D01*
X18231Y1379D01*
X17881Y1379D01*
X17789Y1341D01*
X17719Y1271D01*
X17692Y1208D01*
X17672Y1258D01*
X17602Y1328D01*
X17587Y1334D01*
X19675Y3421D01*
X19675Y325D01*
X19675Y325D01*
G37*
G54D32*
X19675Y325D02*
X17526Y325D01*
X17602Y356D01*
X17672Y426D01*
X17698Y490D01*
X17719Y439D01*
X17789Y369D01*
X17880Y331D01*
X17979Y331D01*
X18329Y331D01*
X18421Y369D01*
X18491Y439D01*
X18529Y530D01*
X18529Y629D01*
X18529Y1179D01*
X18491Y1271D01*
X18421Y1341D01*
X18330Y1379D01*
X18231Y1379D01*
X17881Y1379D01*
X17789Y1341D01*
X17719Y1271D01*
X17692Y1208D01*
X17672Y1258D01*
X17602Y1328D01*
X17587Y1334D01*
X19675Y3421D01*
X19675Y325D01*
M02*
