G04 (created by PCBNEW (2011-nov-30)-testing) date Thu 25 Oct 2012 03:11:58 PM EDT*
%MOIN*%
G04 Gerber Fmt 3.4, Leading zero omitted, Abs format*
%FSLAX34Y34*%
G01*
G70*
G90*
G04 APERTURE LIST*
%ADD10C,0.006*%
%ADD11C,0.012*%
%ADD12R,0.06X0.06*%
%ADD13C,0.06*%
%ADD14R,0.0906X0.0512*%
%ADD15R,0.0867X0.0512*%
%ADD16R,0.0591X0.0512*%
%ADD17C,0.035*%
%ADD18C,0.01*%
G04 APERTURE END LIST*
G54D10*
G54D11*
X19047Y14230D02*
X19504Y14001D01*
X19047Y13772D01*
X18818Y14496D02*
X18447Y14496D01*
X18647Y14191D01*
X18561Y14191D01*
X18504Y14153D01*
X18475Y14115D01*
X18447Y14039D01*
X18447Y13849D01*
X18475Y13772D01*
X18504Y13734D01*
X18561Y13696D01*
X18733Y13696D01*
X18790Y13734D01*
X18818Y13772D01*
G54D12*
X12978Y14368D03*
G54D13*
X13978Y14368D03*
X14978Y14368D03*
X15978Y14368D03*
X11455Y14385D03*
X10455Y14385D03*
X9455Y14385D03*
G54D12*
X13698Y11492D03*
G54D13*
X13698Y12492D03*
X14698Y11492D03*
X14698Y12492D03*
X15698Y11492D03*
X15698Y12492D03*
G54D14*
X751Y9114D03*
G54D15*
X1932Y8445D03*
G54D14*
X751Y5886D03*
G54D16*
X1932Y6555D03*
G54D12*
X19185Y9905D03*
G54D13*
X19185Y8905D03*
G54D17*
X12479Y6753D03*
X15462Y7730D03*
X13660Y5890D03*
X16630Y7230D03*
X13200Y6070D03*
X15490Y7250D03*
X19230Y11430D03*
X16940Y6840D03*
X17275Y7745D03*
X17650Y6360D03*
X7800Y2770D03*
X14301Y3306D03*
X15120Y2509D03*
X16230Y10650D03*
X17610Y7200D03*
X16470Y2595D03*
X10220Y5980D03*
X15600Y2550D03*
X11950Y3070D03*
X12641Y1902D03*
X9950Y4930D03*
X9945Y2055D03*
X10540Y4500D03*
X10350Y1690D03*
X15930Y3730D03*
X10940Y5320D03*
X8490Y13200D03*
X12226Y13530D03*
X7860Y5250D03*
X11010Y8540D03*
X16659Y6429D03*
X11535Y7800D03*
X12885Y4365D03*
X11150Y3750D03*
X12255Y9030D03*
X15790Y5810D03*
X10750Y3200D03*
X13390Y3890D03*
X19050Y3710D03*
X19550Y7555D03*
X18835Y7485D03*
X17670Y5240D03*
X10850Y9020D03*
X7800Y6440D03*
X14340Y4695D03*
X18825Y2520D03*
X18705Y4320D03*
X16239Y9466D03*
X14930Y7695D03*
X6670Y4220D03*
X7860Y4310D03*
X6705Y9570D03*
X6705Y7545D03*
X3830Y13906D03*
X3918Y12454D03*
X8685Y11565D03*
X11490Y11265D03*
X15882Y814D03*
X13971Y1577D03*
X8050Y8300D03*
X6705Y5727D03*
X1700Y12570D03*
X3793Y7359D03*
X11984Y11272D03*
G54D18*
X12479Y6753D02*
X12906Y7180D01*
X12906Y7180D02*
X14950Y7180D01*
X14950Y7180D02*
X15462Y7730D01*
X12906Y7180D02*
X13028Y7180D01*
X15462Y7730D02*
X14950Y7180D01*
X14540Y6680D02*
X14540Y6690D01*
X14530Y6690D02*
X14540Y6680D01*
X14460Y6690D02*
X14530Y6690D01*
X13660Y5890D02*
X14460Y6690D01*
X16630Y7230D02*
X16630Y9730D01*
X14698Y12172D02*
X14698Y12492D01*
X15220Y11650D02*
X14698Y12172D01*
X15220Y11140D02*
X15220Y11650D01*
X16630Y9730D02*
X15220Y11140D01*
X15970Y7230D02*
X16630Y7230D01*
X15430Y6690D02*
X15970Y7230D01*
X14540Y6690D02*
X15430Y6690D01*
X13200Y6070D02*
X12506Y6070D01*
X13698Y9088D02*
X13698Y11492D01*
X12020Y7410D02*
X13698Y9088D01*
X12020Y6556D02*
X12020Y7410D01*
X12506Y6070D02*
X12020Y6556D01*
X14080Y6950D02*
X13200Y6070D01*
X15190Y6950D02*
X14080Y6950D01*
X15490Y7250D02*
X15190Y6950D01*
X19230Y11085D02*
X19230Y11430D01*
X16890Y8745D02*
X19230Y11085D01*
X16890Y7600D02*
X16890Y8745D01*
X17000Y7490D02*
X16890Y7600D01*
X17000Y6900D02*
X17000Y7490D01*
X16940Y6840D02*
X17000Y6900D01*
X14301Y3306D02*
X14301Y2951D01*
X14301Y2951D02*
X12700Y1350D01*
X17275Y6425D02*
X17275Y7745D01*
X17650Y6360D02*
X17275Y6425D01*
X7800Y2770D02*
X9220Y1350D01*
X9220Y1350D02*
X12700Y1350D01*
X14301Y3306D02*
X15098Y2509D01*
X15098Y2509D02*
X15120Y2509D01*
X16336Y11820D02*
X16336Y12031D01*
X16740Y13606D02*
X15978Y14368D01*
X16740Y12435D02*
X16740Y13606D01*
X16336Y12031D02*
X16740Y12435D01*
X16336Y10756D02*
X16336Y11820D01*
X16230Y10650D02*
X16336Y10756D01*
X18060Y6750D02*
X17610Y7200D01*
X18060Y6105D02*
X18060Y6750D01*
X16300Y4345D02*
X18060Y6105D01*
X16300Y2765D02*
X16300Y4345D01*
X16470Y2595D02*
X16300Y2765D01*
X10815Y4730D02*
X13420Y4730D01*
X13420Y4730D02*
X15600Y2550D01*
X10815Y4730D02*
X10800Y4730D01*
X10220Y5310D02*
X10220Y5980D01*
X10800Y4730D02*
X10220Y5310D01*
X12641Y1902D02*
X12548Y1902D01*
X11950Y2500D02*
X11950Y3070D01*
X12548Y1902D02*
X11950Y2500D01*
X9945Y2055D02*
X9945Y4925D01*
X9945Y4925D02*
X9950Y4930D01*
X10350Y1690D02*
X10350Y4310D01*
X10350Y4310D02*
X10540Y4500D01*
X14630Y5030D02*
X14245Y5030D01*
X15930Y3730D02*
X14630Y5030D01*
X11230Y5030D02*
X14245Y5030D01*
X10940Y5320D02*
X11230Y5030D01*
X15698Y11492D02*
X15698Y11738D01*
X16425Y13200D02*
X14956Y13200D01*
X16500Y13125D02*
X16425Y13200D01*
X16500Y12540D02*
X16500Y13125D01*
X15698Y11738D02*
X16500Y12540D01*
X8820Y13530D02*
X12226Y13530D01*
X8490Y13200D02*
X8820Y13530D01*
X12226Y13530D02*
X12556Y13200D01*
X12556Y13200D02*
X14956Y13200D01*
X7860Y5390D02*
X7860Y5250D01*
X11010Y8540D02*
X7860Y5390D01*
X16659Y5889D02*
X16659Y6429D01*
X16065Y5295D02*
X16659Y5889D01*
X12675Y5295D02*
X16065Y5295D01*
X11490Y6480D02*
X12675Y5295D01*
X11490Y7755D02*
X11490Y6480D01*
X11535Y7800D02*
X11490Y7755D01*
X11765Y4365D02*
X12885Y4365D01*
X11150Y3750D02*
X11765Y4365D01*
X13260Y5540D02*
X12750Y5540D01*
X11720Y7475D02*
X12255Y8010D01*
X11720Y6570D02*
X11720Y7475D01*
X12750Y5540D02*
X11720Y6570D01*
X12255Y8010D02*
X12255Y9030D01*
X15520Y5540D02*
X13260Y5540D01*
X15790Y5810D02*
X15520Y5540D01*
X10750Y3200D02*
X10820Y3270D01*
X10820Y3270D02*
X11400Y3270D01*
X11400Y3270D02*
X12020Y3890D01*
X12020Y3890D02*
X13390Y3890D01*
X19560Y4220D02*
X19560Y4230D01*
X19050Y3710D02*
X19560Y4220D01*
X19550Y7555D02*
X19560Y7545D01*
X19560Y7545D02*
X19560Y6965D01*
X19560Y6965D02*
X19550Y6955D01*
X19550Y6955D02*
X19560Y6955D01*
X19560Y4230D02*
X19560Y6955D01*
X18360Y7485D02*
X18835Y7485D01*
X18345Y7470D02*
X18360Y7485D01*
X18345Y5915D02*
X18345Y7470D01*
X17670Y5240D02*
X18345Y5915D01*
X10380Y9020D02*
X10850Y9020D01*
X7800Y6440D02*
X10380Y9020D01*
X18825Y2520D02*
X17070Y2520D01*
X16260Y2250D02*
X16005Y2505D01*
X16800Y2250D02*
X16260Y2250D01*
X17070Y2520D02*
X16800Y2250D01*
X14340Y4695D02*
X16005Y3030D01*
X16005Y3030D02*
X16005Y2505D01*
X18825Y2520D02*
X18675Y2670D01*
X18675Y4290D02*
X18705Y4320D01*
X18675Y2670D02*
X18675Y4290D01*
X16239Y9466D02*
X15734Y9466D01*
X15245Y12945D02*
X15698Y12492D01*
X14385Y12945D02*
X15245Y12945D01*
X14220Y12780D02*
X14385Y12945D01*
X14220Y10980D02*
X14220Y12780D01*
X15734Y9466D02*
X14220Y10980D01*
X16239Y9004D02*
X16239Y9466D01*
X14930Y7695D02*
X16239Y9004D01*
X7770Y4220D02*
X6670Y4220D01*
X7860Y4310D02*
X7770Y4220D01*
X6705Y7545D02*
X6705Y9570D01*
X3830Y12542D02*
X3830Y13906D01*
X3918Y12454D02*
X3830Y12542D01*
X11190Y11565D02*
X8685Y11565D01*
X11490Y11265D02*
X11190Y11565D01*
X14734Y814D02*
X15882Y814D01*
X13971Y1577D02*
X14734Y814D01*
X11984Y11272D02*
X11984Y11214D01*
X9070Y8300D02*
X8050Y8300D01*
X11984Y11214D02*
X9070Y8300D01*
X6705Y6955D02*
X6705Y5727D01*
X8050Y8300D02*
X6705Y6955D01*
X5422Y5730D02*
X3793Y7359D01*
X5422Y5730D02*
X6705Y5727D01*
X3793Y7359D02*
X3793Y11727D01*
X3793Y11727D02*
X2950Y12570D01*
X2950Y12570D02*
X1700Y12570D01*
X13204Y12492D02*
X13698Y12492D01*
X11984Y11272D02*
X13204Y12492D01*
G54D10*
G36*
X14329Y12900D02*
X14233Y12804D01*
X14198Y12721D01*
X14164Y12803D01*
X14067Y12900D01*
X14329Y12900D01*
X14329Y12900D01*
G37*
G54D18*
X14329Y12900D02*
X14233Y12804D01*
X14198Y12721D01*
X14164Y12803D01*
X14067Y12900D01*
X14329Y12900D01*
G54D10*
G36*
X16200Y12664D02*
X15568Y12033D01*
X15387Y11958D01*
X15361Y11933D01*
X15138Y12156D01*
X15163Y12180D01*
X15247Y12382D01*
X15247Y12601D01*
X15164Y12803D01*
X15067Y12900D01*
X16200Y12900D01*
X16200Y12664D01*
X16200Y12664D01*
G37*
G54D18*
X16200Y12664D02*
X15568Y12033D01*
X15387Y11958D01*
X15361Y11933D01*
X15138Y12156D01*
X15163Y12180D01*
X15247Y12382D01*
X15247Y12601D01*
X15164Y12803D01*
X15067Y12900D01*
X16200Y12900D01*
X16200Y12664D01*
G54D10*
G36*
X16330Y7531D02*
X16329Y7530D01*
X15970Y7530D01*
X15855Y7507D01*
X15841Y7499D01*
X15830Y7510D01*
X15887Y7645D01*
X15887Y7814D01*
X15822Y7970D01*
X15703Y8090D01*
X15547Y8155D01*
X15378Y8155D01*
X15222Y8090D01*
X15102Y7971D01*
X15037Y7815D01*
X15037Y7714D01*
X14819Y7480D01*
X13028Y7480D01*
X12906Y7480D01*
X12791Y7457D01*
X12693Y7392D01*
X12479Y7178D01*
X12395Y7178D01*
X12320Y7147D01*
X12320Y7286D01*
X13910Y8876D01*
X13975Y8973D01*
X13998Y9088D01*
X13998Y10943D01*
X14047Y10943D01*
X14139Y10981D01*
X14209Y11051D01*
X14247Y11142D01*
X14247Y11166D01*
X14386Y11027D01*
X14588Y10943D01*
X14807Y10943D01*
X14956Y11005D01*
X15008Y10928D01*
X16330Y9606D01*
X16330Y7531D01*
X16330Y7531D01*
G37*
G54D18*
X16330Y7531D02*
X16329Y7530D01*
X15970Y7530D01*
X15855Y7507D01*
X15841Y7499D01*
X15830Y7510D01*
X15887Y7645D01*
X15887Y7814D01*
X15822Y7970D01*
X15703Y8090D01*
X15547Y8155D01*
X15378Y8155D01*
X15222Y8090D01*
X15102Y7971D01*
X15037Y7815D01*
X15037Y7714D01*
X14819Y7480D01*
X13028Y7480D01*
X12906Y7480D01*
X12791Y7457D01*
X12693Y7392D01*
X12479Y7178D01*
X12395Y7178D01*
X12320Y7147D01*
X12320Y7286D01*
X13910Y8876D01*
X13975Y8973D01*
X13998Y9088D01*
X13998Y10943D01*
X14047Y10943D01*
X14139Y10981D01*
X14209Y11051D01*
X14247Y11142D01*
X14247Y11166D01*
X14386Y11027D01*
X14588Y10943D01*
X14807Y10943D01*
X14956Y11005D01*
X15008Y10928D01*
X16330Y9606D01*
X16330Y7531D01*
G54D10*
G36*
X19675Y325D02*
X16307Y325D01*
X16307Y729D01*
X16307Y898D01*
X16242Y1054D01*
X16123Y1174D01*
X15967Y1239D01*
X15798Y1239D01*
X15642Y1174D01*
X15581Y1114D01*
X14858Y1114D01*
X14396Y1576D01*
X14396Y1661D01*
X14331Y1817D01*
X14212Y1937D01*
X14056Y2002D01*
X13887Y2002D01*
X13731Y1937D01*
X13611Y1818D01*
X13546Y1662D01*
X13546Y1493D01*
X13611Y1337D01*
X13730Y1217D01*
X13886Y1152D01*
X13972Y1152D01*
X14522Y602D01*
X14619Y537D01*
X14734Y514D01*
X15581Y514D01*
X15641Y454D01*
X15797Y389D01*
X15966Y389D01*
X16122Y454D01*
X16242Y573D01*
X16307Y729D01*
X16307Y325D01*
X3550Y325D01*
X3550Y3958D01*
X3390Y4344D01*
X3095Y4639D01*
X2710Y4799D01*
X2292Y4800D01*
X1906Y4640D01*
X1611Y4345D01*
X1451Y3960D01*
X1450Y3542D01*
X1610Y3156D01*
X1905Y2861D01*
X2290Y2701D01*
X2708Y2700D01*
X3094Y2860D01*
X3389Y3155D01*
X3549Y3540D01*
X3550Y3958D01*
X3550Y325D01*
X325Y325D01*
X325Y14675D01*
X8980Y14675D01*
X8906Y14495D01*
X8906Y14276D01*
X8989Y14074D01*
X9143Y13920D01*
X9345Y13836D01*
X9564Y13836D01*
X9766Y13919D01*
X9920Y14073D01*
X9954Y14157D01*
X9989Y14074D01*
X10143Y13920D01*
X10345Y13836D01*
X10564Y13836D01*
X10766Y13919D01*
X10920Y14073D01*
X10954Y14157D01*
X10989Y14074D01*
X11143Y13920D01*
X11345Y13836D01*
X11564Y13836D01*
X11766Y13919D01*
X11920Y14073D01*
X12004Y14275D01*
X12004Y14494D01*
X11929Y14675D01*
X12429Y14675D01*
X12429Y14619D01*
X12429Y14019D01*
X12467Y13927D01*
X12537Y13857D01*
X12628Y13819D01*
X12727Y13819D01*
X13327Y13819D01*
X13419Y13857D01*
X13489Y13927D01*
X13527Y14018D01*
X13527Y14042D01*
X13666Y13903D01*
X13868Y13819D01*
X14087Y13819D01*
X14289Y13902D01*
X14443Y14056D01*
X14477Y14140D01*
X14512Y14057D01*
X14666Y13903D01*
X14868Y13819D01*
X15087Y13819D01*
X15289Y13902D01*
X15443Y14056D01*
X15477Y14140D01*
X15512Y14057D01*
X15666Y13903D01*
X15868Y13819D01*
X16087Y13819D01*
X16098Y13824D01*
X16421Y13500D01*
X14956Y13500D01*
X12680Y13500D01*
X12651Y13530D01*
X12651Y13614D01*
X12586Y13770D01*
X12467Y13890D01*
X12311Y13955D01*
X12142Y13955D01*
X11986Y13890D01*
X11925Y13830D01*
X8820Y13830D01*
X8705Y13807D01*
X8607Y13742D01*
X8490Y13625D01*
X8406Y13625D01*
X8250Y13560D01*
X8130Y13441D01*
X8065Y13285D01*
X8065Y13116D01*
X8130Y12960D01*
X8249Y12840D01*
X8405Y12775D01*
X8574Y12775D01*
X8730Y12840D01*
X8850Y12959D01*
X8915Y13115D01*
X8915Y13201D01*
X8944Y13230D01*
X11925Y13230D01*
X11985Y13170D01*
X12141Y13105D01*
X12226Y13105D01*
X12343Y12988D01*
X12344Y12988D01*
X12441Y12923D01*
X12556Y12900D01*
X13329Y12900D01*
X13233Y12804D01*
X13228Y12792D01*
X13204Y12792D01*
X13089Y12769D01*
X12992Y12704D01*
X11985Y11697D01*
X11900Y11697D01*
X11744Y11632D01*
X11624Y11513D01*
X11559Y11357D01*
X11559Y11213D01*
X8946Y8600D01*
X8350Y8600D01*
X8291Y8660D01*
X8135Y8725D01*
X7966Y8725D01*
X7810Y8660D01*
X7690Y8541D01*
X7625Y8385D01*
X7625Y8299D01*
X6493Y7167D01*
X6428Y7070D01*
X6405Y6955D01*
X6405Y6029D01*
X5547Y6030D01*
X4218Y7359D01*
X4218Y7443D01*
X4153Y7599D01*
X4093Y7660D01*
X4093Y11727D01*
X4070Y11842D01*
X4005Y11939D01*
X3162Y12782D01*
X3065Y12847D01*
X2950Y12870D01*
X2000Y12870D01*
X1941Y12930D01*
X1785Y12995D01*
X1616Y12995D01*
X1460Y12930D01*
X1340Y12811D01*
X1275Y12655D01*
X1275Y12486D01*
X1340Y12330D01*
X1459Y12210D01*
X1615Y12145D01*
X1784Y12145D01*
X1940Y12210D01*
X2000Y12270D01*
X2219Y12270D01*
X1906Y12140D01*
X1611Y11845D01*
X1451Y11460D01*
X1450Y11042D01*
X1610Y10656D01*
X1905Y10361D01*
X2290Y10201D01*
X2708Y10200D01*
X3094Y10360D01*
X3389Y10655D01*
X3493Y10906D01*
X3493Y7660D01*
X3433Y7600D01*
X3368Y7444D01*
X3368Y7275D01*
X3433Y7119D01*
X3552Y6999D01*
X3708Y6934D01*
X3793Y6934D01*
X5209Y5518D01*
X5210Y5518D01*
X5307Y5453D01*
X5421Y5430D01*
X6403Y5429D01*
X6464Y5367D01*
X6620Y5302D01*
X6789Y5302D01*
X6945Y5367D01*
X7065Y5486D01*
X7130Y5642D01*
X7130Y5811D01*
X7065Y5967D01*
X7005Y6028D01*
X7005Y6831D01*
X8049Y7875D01*
X8134Y7875D01*
X8290Y7940D01*
X8350Y8000D01*
X8935Y8000D01*
X7800Y6865D01*
X7716Y6865D01*
X7560Y6800D01*
X7440Y6681D01*
X7375Y6525D01*
X7375Y6356D01*
X7440Y6200D01*
X7559Y6080D01*
X7715Y6015D01*
X7884Y6015D01*
X8040Y6080D01*
X8160Y6199D01*
X8225Y6355D01*
X8225Y6441D01*
X10504Y8720D01*
X10549Y8720D01*
X10602Y8667D01*
X10585Y8625D01*
X10585Y8540D01*
X7681Y5636D01*
X7620Y5610D01*
X7500Y5491D01*
X7435Y5335D01*
X7435Y5166D01*
X7500Y5010D01*
X7619Y4890D01*
X7775Y4825D01*
X7944Y4825D01*
X8100Y4890D01*
X8220Y5009D01*
X8285Y5165D01*
X8285Y5334D01*
X8268Y5375D01*
X11009Y8115D01*
X11094Y8115D01*
X11250Y8180D01*
X11370Y8299D01*
X11435Y8455D01*
X11435Y8624D01*
X11370Y8780D01*
X11257Y8894D01*
X11275Y8935D01*
X11275Y9104D01*
X11210Y9260D01*
X11091Y9380D01*
X10935Y9445D01*
X10766Y9445D01*
X10610Y9380D01*
X10549Y9320D01*
X10514Y9320D01*
X12041Y10847D01*
X12068Y10847D01*
X12224Y10912D01*
X12344Y11031D01*
X12409Y11187D01*
X12409Y11273D01*
X13274Y12139D01*
X13372Y12041D01*
X13349Y12041D01*
X13257Y12003D01*
X13187Y11933D01*
X13149Y11842D01*
X13149Y11743D01*
X13149Y11143D01*
X13187Y11051D01*
X13257Y10981D01*
X13348Y10943D01*
X13398Y10943D01*
X13398Y9212D01*
X12555Y8369D01*
X12555Y8730D01*
X12615Y8789D01*
X12680Y8945D01*
X12680Y9114D01*
X12615Y9270D01*
X12496Y9390D01*
X12340Y9455D01*
X12171Y9455D01*
X12015Y9390D01*
X11895Y9271D01*
X11830Y9115D01*
X11830Y8946D01*
X11895Y8790D01*
X11955Y8730D01*
X11955Y8135D01*
X11877Y8058D01*
X11776Y8160D01*
X11620Y8225D01*
X11451Y8225D01*
X11295Y8160D01*
X11175Y8041D01*
X11110Y7885D01*
X11110Y7716D01*
X11175Y7560D01*
X11190Y7545D01*
X11190Y6480D01*
X11213Y6365D01*
X11278Y6268D01*
X12215Y5330D01*
X11365Y5330D01*
X11365Y5404D01*
X11300Y5560D01*
X11181Y5680D01*
X11025Y5745D01*
X10856Y5745D01*
X10700Y5680D01*
X10580Y5561D01*
X10525Y5429D01*
X10520Y5434D01*
X10520Y5680D01*
X10580Y5739D01*
X10645Y5895D01*
X10645Y6064D01*
X10580Y6220D01*
X10461Y6340D01*
X10305Y6405D01*
X10136Y6405D01*
X9980Y6340D01*
X9860Y6221D01*
X9795Y6065D01*
X9795Y5896D01*
X9860Y5740D01*
X9920Y5680D01*
X9920Y5355D01*
X9866Y5355D01*
X9710Y5290D01*
X9590Y5171D01*
X9525Y5015D01*
X9525Y4846D01*
X9590Y4690D01*
X9645Y4635D01*
X9645Y2356D01*
X9585Y2296D01*
X9520Y2140D01*
X9520Y1971D01*
X9585Y1815D01*
X9704Y1695D01*
X9812Y1650D01*
X9344Y1650D01*
X8225Y2769D01*
X8225Y2854D01*
X8160Y3010D01*
X8041Y3130D01*
X7885Y3195D01*
X7716Y3195D01*
X7560Y3130D01*
X7440Y3011D01*
X7375Y2855D01*
X7375Y2686D01*
X7440Y2530D01*
X7559Y2410D01*
X7715Y2345D01*
X7801Y2345D01*
X9008Y1138D01*
X9105Y1073D01*
X9220Y1050D01*
X12700Y1050D01*
X12815Y1073D01*
X12912Y1138D01*
X14478Y2705D01*
X14695Y2488D01*
X14695Y2425D01*
X14760Y2269D01*
X14879Y2149D01*
X15035Y2084D01*
X15204Y2084D01*
X15360Y2149D01*
X15388Y2178D01*
X15515Y2125D01*
X15684Y2125D01*
X15840Y2190D01*
X15960Y2309D01*
X16025Y2465D01*
X16025Y2634D01*
X15960Y2790D01*
X15841Y2910D01*
X15685Y2975D01*
X15599Y2975D01*
X13844Y4730D01*
X14245Y4730D01*
X14506Y4730D01*
X15505Y3731D01*
X15505Y3646D01*
X15570Y3490D01*
X15689Y3370D01*
X15845Y3305D01*
X16000Y3305D01*
X16000Y2765D01*
X16023Y2650D01*
X16045Y2618D01*
X16045Y2511D01*
X16110Y2355D01*
X16229Y2235D01*
X16385Y2170D01*
X16554Y2170D01*
X16710Y2235D01*
X16830Y2354D01*
X16895Y2510D01*
X16895Y2679D01*
X16830Y2835D01*
X16711Y2955D01*
X16600Y3002D01*
X16600Y3181D01*
X16610Y3156D01*
X16905Y2861D01*
X17290Y2701D01*
X17708Y2700D01*
X18094Y2860D01*
X18389Y3155D01*
X18549Y3540D01*
X18550Y3958D01*
X18390Y4344D01*
X18095Y4639D01*
X17710Y4799D01*
X17292Y4800D01*
X17099Y4720D01*
X17344Y4966D01*
X17429Y4880D01*
X17585Y4815D01*
X17754Y4815D01*
X17910Y4880D01*
X18030Y4999D01*
X18095Y5155D01*
X18095Y5241D01*
X18557Y5702D01*
X18557Y5703D01*
X18622Y5800D01*
X18644Y5915D01*
X18645Y5915D01*
X18645Y7104D01*
X18750Y7060D01*
X18919Y7060D01*
X19075Y7125D01*
X19195Y7244D01*
X19214Y7291D01*
X19260Y7245D01*
X19260Y7005D01*
X19250Y6955D01*
X19260Y6905D01*
X19260Y4344D01*
X19051Y4135D01*
X18966Y4135D01*
X18810Y4070D01*
X18690Y3951D01*
X18625Y3795D01*
X18625Y3626D01*
X18690Y3470D01*
X18809Y3350D01*
X18965Y3285D01*
X19134Y3285D01*
X19290Y3350D01*
X19410Y3469D01*
X19475Y3625D01*
X19475Y3711D01*
X19675Y3911D01*
X19675Y325D01*
X19675Y325D01*
G37*
G54D18*
X19675Y325D02*
X16307Y325D01*
X16307Y729D01*
X16307Y898D01*
X16242Y1054D01*
X16123Y1174D01*
X15967Y1239D01*
X15798Y1239D01*
X15642Y1174D01*
X15581Y1114D01*
X14858Y1114D01*
X14396Y1576D01*
X14396Y1661D01*
X14331Y1817D01*
X14212Y1937D01*
X14056Y2002D01*
X13887Y2002D01*
X13731Y1937D01*
X13611Y1818D01*
X13546Y1662D01*
X13546Y1493D01*
X13611Y1337D01*
X13730Y1217D01*
X13886Y1152D01*
X13972Y1152D01*
X14522Y602D01*
X14619Y537D01*
X14734Y514D01*
X15581Y514D01*
X15641Y454D01*
X15797Y389D01*
X15966Y389D01*
X16122Y454D01*
X16242Y573D01*
X16307Y729D01*
X16307Y325D01*
X3550Y325D01*
X3550Y3958D01*
X3390Y4344D01*
X3095Y4639D01*
X2710Y4799D01*
X2292Y4800D01*
X1906Y4640D01*
X1611Y4345D01*
X1451Y3960D01*
X1450Y3542D01*
X1610Y3156D01*
X1905Y2861D01*
X2290Y2701D01*
X2708Y2700D01*
X3094Y2860D01*
X3389Y3155D01*
X3549Y3540D01*
X3550Y3958D01*
X3550Y325D01*
X325Y325D01*
X325Y14675D01*
X8980Y14675D01*
X8906Y14495D01*
X8906Y14276D01*
X8989Y14074D01*
X9143Y13920D01*
X9345Y13836D01*
X9564Y13836D01*
X9766Y13919D01*
X9920Y14073D01*
X9954Y14157D01*
X9989Y14074D01*
X10143Y13920D01*
X10345Y13836D01*
X10564Y13836D01*
X10766Y13919D01*
X10920Y14073D01*
X10954Y14157D01*
X10989Y14074D01*
X11143Y13920D01*
X11345Y13836D01*
X11564Y13836D01*
X11766Y13919D01*
X11920Y14073D01*
X12004Y14275D01*
X12004Y14494D01*
X11929Y14675D01*
X12429Y14675D01*
X12429Y14619D01*
X12429Y14019D01*
X12467Y13927D01*
X12537Y13857D01*
X12628Y13819D01*
X12727Y13819D01*
X13327Y13819D01*
X13419Y13857D01*
X13489Y13927D01*
X13527Y14018D01*
X13527Y14042D01*
X13666Y13903D01*
X13868Y13819D01*
X14087Y13819D01*
X14289Y13902D01*
X14443Y14056D01*
X14477Y14140D01*
X14512Y14057D01*
X14666Y13903D01*
X14868Y13819D01*
X15087Y13819D01*
X15289Y13902D01*
X15443Y14056D01*
X15477Y14140D01*
X15512Y14057D01*
X15666Y13903D01*
X15868Y13819D01*
X16087Y13819D01*
X16098Y13824D01*
X16421Y13500D01*
X14956Y13500D01*
X12680Y13500D01*
X12651Y13530D01*
X12651Y13614D01*
X12586Y13770D01*
X12467Y13890D01*
X12311Y13955D01*
X12142Y13955D01*
X11986Y13890D01*
X11925Y13830D01*
X8820Y13830D01*
X8705Y13807D01*
X8607Y13742D01*
X8490Y13625D01*
X8406Y13625D01*
X8250Y13560D01*
X8130Y13441D01*
X8065Y13285D01*
X8065Y13116D01*
X8130Y12960D01*
X8249Y12840D01*
X8405Y12775D01*
X8574Y12775D01*
X8730Y12840D01*
X8850Y12959D01*
X8915Y13115D01*
X8915Y13201D01*
X8944Y13230D01*
X11925Y13230D01*
X11985Y13170D01*
X12141Y13105D01*
X12226Y13105D01*
X12343Y12988D01*
X12344Y12988D01*
X12441Y12923D01*
X12556Y12900D01*
X13329Y12900D01*
X13233Y12804D01*
X13228Y12792D01*
X13204Y12792D01*
X13089Y12769D01*
X12992Y12704D01*
X11985Y11697D01*
X11900Y11697D01*
X11744Y11632D01*
X11624Y11513D01*
X11559Y11357D01*
X11559Y11213D01*
X8946Y8600D01*
X8350Y8600D01*
X8291Y8660D01*
X8135Y8725D01*
X7966Y8725D01*
X7810Y8660D01*
X7690Y8541D01*
X7625Y8385D01*
X7625Y8299D01*
X6493Y7167D01*
X6428Y7070D01*
X6405Y6955D01*
X6405Y6029D01*
X5547Y6030D01*
X4218Y7359D01*
X4218Y7443D01*
X4153Y7599D01*
X4093Y7660D01*
X4093Y11727D01*
X4070Y11842D01*
X4005Y11939D01*
X3162Y12782D01*
X3065Y12847D01*
X2950Y12870D01*
X2000Y12870D01*
X1941Y12930D01*
X1785Y12995D01*
X1616Y12995D01*
X1460Y12930D01*
X1340Y12811D01*
X1275Y12655D01*
X1275Y12486D01*
X1340Y12330D01*
X1459Y12210D01*
X1615Y12145D01*
X1784Y12145D01*
X1940Y12210D01*
X2000Y12270D01*
X2219Y12270D01*
X1906Y12140D01*
X1611Y11845D01*
X1451Y11460D01*
X1450Y11042D01*
X1610Y10656D01*
X1905Y10361D01*
X2290Y10201D01*
X2708Y10200D01*
X3094Y10360D01*
X3389Y10655D01*
X3493Y10906D01*
X3493Y7660D01*
X3433Y7600D01*
X3368Y7444D01*
X3368Y7275D01*
X3433Y7119D01*
X3552Y6999D01*
X3708Y6934D01*
X3793Y6934D01*
X5209Y5518D01*
X5210Y5518D01*
X5307Y5453D01*
X5421Y5430D01*
X6403Y5429D01*
X6464Y5367D01*
X6620Y5302D01*
X6789Y5302D01*
X6945Y5367D01*
X7065Y5486D01*
X7130Y5642D01*
X7130Y5811D01*
X7065Y5967D01*
X7005Y6028D01*
X7005Y6831D01*
X8049Y7875D01*
X8134Y7875D01*
X8290Y7940D01*
X8350Y8000D01*
X8935Y8000D01*
X7800Y6865D01*
X7716Y6865D01*
X7560Y6800D01*
X7440Y6681D01*
X7375Y6525D01*
X7375Y6356D01*
X7440Y6200D01*
X7559Y6080D01*
X7715Y6015D01*
X7884Y6015D01*
X8040Y6080D01*
X8160Y6199D01*
X8225Y6355D01*
X8225Y6441D01*
X10504Y8720D01*
X10549Y8720D01*
X10602Y8667D01*
X10585Y8625D01*
X10585Y8540D01*
X7681Y5636D01*
X7620Y5610D01*
X7500Y5491D01*
X7435Y5335D01*
X7435Y5166D01*
X7500Y5010D01*
X7619Y4890D01*
X7775Y4825D01*
X7944Y4825D01*
X8100Y4890D01*
X8220Y5009D01*
X8285Y5165D01*
X8285Y5334D01*
X8268Y5375D01*
X11009Y8115D01*
X11094Y8115D01*
X11250Y8180D01*
X11370Y8299D01*
X11435Y8455D01*
X11435Y8624D01*
X11370Y8780D01*
X11257Y8894D01*
X11275Y8935D01*
X11275Y9104D01*
X11210Y9260D01*
X11091Y9380D01*
X10935Y9445D01*
X10766Y9445D01*
X10610Y9380D01*
X10549Y9320D01*
X10514Y9320D01*
X12041Y10847D01*
X12068Y10847D01*
X12224Y10912D01*
X12344Y11031D01*
X12409Y11187D01*
X12409Y11273D01*
X13274Y12139D01*
X13372Y12041D01*
X13349Y12041D01*
X13257Y12003D01*
X13187Y11933D01*
X13149Y11842D01*
X13149Y11743D01*
X13149Y11143D01*
X13187Y11051D01*
X13257Y10981D01*
X13348Y10943D01*
X13398Y10943D01*
X13398Y9212D01*
X12555Y8369D01*
X12555Y8730D01*
X12615Y8789D01*
X12680Y8945D01*
X12680Y9114D01*
X12615Y9270D01*
X12496Y9390D01*
X12340Y9455D01*
X12171Y9455D01*
X12015Y9390D01*
X11895Y9271D01*
X11830Y9115D01*
X11830Y8946D01*
X11895Y8790D01*
X11955Y8730D01*
X11955Y8135D01*
X11877Y8058D01*
X11776Y8160D01*
X11620Y8225D01*
X11451Y8225D01*
X11295Y8160D01*
X11175Y8041D01*
X11110Y7885D01*
X11110Y7716D01*
X11175Y7560D01*
X11190Y7545D01*
X11190Y6480D01*
X11213Y6365D01*
X11278Y6268D01*
X12215Y5330D01*
X11365Y5330D01*
X11365Y5404D01*
X11300Y5560D01*
X11181Y5680D01*
X11025Y5745D01*
X10856Y5745D01*
X10700Y5680D01*
X10580Y5561D01*
X10525Y5429D01*
X10520Y5434D01*
X10520Y5680D01*
X10580Y5739D01*
X10645Y5895D01*
X10645Y6064D01*
X10580Y6220D01*
X10461Y6340D01*
X10305Y6405D01*
X10136Y6405D01*
X9980Y6340D01*
X9860Y6221D01*
X9795Y6065D01*
X9795Y5896D01*
X9860Y5740D01*
X9920Y5680D01*
X9920Y5355D01*
X9866Y5355D01*
X9710Y5290D01*
X9590Y5171D01*
X9525Y5015D01*
X9525Y4846D01*
X9590Y4690D01*
X9645Y4635D01*
X9645Y2356D01*
X9585Y2296D01*
X9520Y2140D01*
X9520Y1971D01*
X9585Y1815D01*
X9704Y1695D01*
X9812Y1650D01*
X9344Y1650D01*
X8225Y2769D01*
X8225Y2854D01*
X8160Y3010D01*
X8041Y3130D01*
X7885Y3195D01*
X7716Y3195D01*
X7560Y3130D01*
X7440Y3011D01*
X7375Y2855D01*
X7375Y2686D01*
X7440Y2530D01*
X7559Y2410D01*
X7715Y2345D01*
X7801Y2345D01*
X9008Y1138D01*
X9105Y1073D01*
X9220Y1050D01*
X12700Y1050D01*
X12815Y1073D01*
X12912Y1138D01*
X14478Y2705D01*
X14695Y2488D01*
X14695Y2425D01*
X14760Y2269D01*
X14879Y2149D01*
X15035Y2084D01*
X15204Y2084D01*
X15360Y2149D01*
X15388Y2178D01*
X15515Y2125D01*
X15684Y2125D01*
X15840Y2190D01*
X15960Y2309D01*
X16025Y2465D01*
X16025Y2634D01*
X15960Y2790D01*
X15841Y2910D01*
X15685Y2975D01*
X15599Y2975D01*
X13844Y4730D01*
X14245Y4730D01*
X14506Y4730D01*
X15505Y3731D01*
X15505Y3646D01*
X15570Y3490D01*
X15689Y3370D01*
X15845Y3305D01*
X16000Y3305D01*
X16000Y2765D01*
X16023Y2650D01*
X16045Y2618D01*
X16045Y2511D01*
X16110Y2355D01*
X16229Y2235D01*
X16385Y2170D01*
X16554Y2170D01*
X16710Y2235D01*
X16830Y2354D01*
X16895Y2510D01*
X16895Y2679D01*
X16830Y2835D01*
X16711Y2955D01*
X16600Y3002D01*
X16600Y3181D01*
X16610Y3156D01*
X16905Y2861D01*
X17290Y2701D01*
X17708Y2700D01*
X18094Y2860D01*
X18389Y3155D01*
X18549Y3540D01*
X18550Y3958D01*
X18390Y4344D01*
X18095Y4639D01*
X17710Y4799D01*
X17292Y4800D01*
X17099Y4720D01*
X17344Y4966D01*
X17429Y4880D01*
X17585Y4815D01*
X17754Y4815D01*
X17910Y4880D01*
X18030Y4999D01*
X18095Y5155D01*
X18095Y5241D01*
X18557Y5702D01*
X18557Y5703D01*
X18622Y5800D01*
X18644Y5915D01*
X18645Y5915D01*
X18645Y7104D01*
X18750Y7060D01*
X18919Y7060D01*
X19075Y7125D01*
X19195Y7244D01*
X19214Y7291D01*
X19260Y7245D01*
X19260Y7005D01*
X19250Y6955D01*
X19260Y6905D01*
X19260Y4344D01*
X19051Y4135D01*
X18966Y4135D01*
X18810Y4070D01*
X18690Y3951D01*
X18625Y3795D01*
X18625Y3626D01*
X18690Y3470D01*
X18809Y3350D01*
X18965Y3285D01*
X19134Y3285D01*
X19290Y3350D01*
X19410Y3469D01*
X19475Y3625D01*
X19475Y3711D01*
X19675Y3911D01*
X19675Y325D01*
M02*
