G04 (created by PCBNEW-RS274X (2011-nov-30)-testing) date Tue 18 Sep 2012 04:12:02 PM EDT*
%MOIN*%
G04 Gerber Fmt 3.4, Leading zero omitted, Abs format*
%FSLAX34Y34*%
G01*
G70*
G90*
G04 APERTURE LIST*
%ADD10C,0.006*%
%ADD11C,0.01*%
%ADD12C,0.0075*%
%ADD13C,0.005*%
%ADD14C,0.012*%
%ADD15C,0.015*%
%ADD16C,0.0079*%
%ADD17C,0.0026*%
%ADD18C,0.004*%
%ADD19C,0.002*%
%ADD20C,0.008*%
%ADD21C,0.0039*%
%ADD22C,0.0078*%
%ADD23C,0.0099*%
%ADD24C,0.007*%
%ADD25C,0.0062*%
G04 APERTURE END LIST*
G54D10*
G54D11*
X3637Y11957D02*
X3503Y12148D01*
X3408Y11957D02*
X3408Y12357D01*
X3561Y12357D01*
X3599Y12338D01*
X3618Y12319D01*
X3637Y12281D01*
X3637Y12224D01*
X3618Y12186D01*
X3599Y12167D01*
X3561Y12148D01*
X3408Y12148D01*
X3789Y11976D02*
X3846Y11957D01*
X3942Y11957D01*
X3980Y11976D01*
X3999Y11995D01*
X4018Y12033D01*
X4018Y12071D01*
X3999Y12109D01*
X3980Y12129D01*
X3942Y12148D01*
X3865Y12167D01*
X3827Y12186D01*
X3808Y12205D01*
X3789Y12243D01*
X3789Y12281D01*
X3808Y12319D01*
X3827Y12338D01*
X3865Y12357D01*
X3961Y12357D01*
X4018Y12338D01*
X4132Y12357D02*
X4361Y12357D01*
X4246Y11957D02*
X4246Y12357D01*
G54D12*
X11009Y13435D02*
X11152Y13435D01*
X10981Y13350D02*
X11081Y13650D01*
X11181Y13350D01*
X11280Y13350D02*
X11280Y13650D01*
X11352Y13650D01*
X11395Y13635D01*
X11423Y13607D01*
X11438Y13578D01*
X11452Y13521D01*
X11452Y13478D01*
X11438Y13421D01*
X11423Y13392D01*
X11395Y13364D01*
X11352Y13350D01*
X11280Y13350D01*
X11752Y13378D02*
X11738Y13364D01*
X11695Y13350D01*
X11666Y13350D01*
X11623Y13364D01*
X11595Y13392D01*
X11580Y13421D01*
X11566Y13478D01*
X11566Y13521D01*
X11580Y13578D01*
X11595Y13607D01*
X11623Y13635D01*
X11666Y13650D01*
X11695Y13650D01*
X11738Y13635D01*
X11752Y13621D01*
X11852Y13650D02*
X12052Y13650D01*
X11923Y13350D01*
X12381Y13435D02*
X12524Y13435D01*
X12353Y13350D02*
X12453Y13650D01*
X12553Y13350D01*
X12652Y13350D02*
X12652Y13650D01*
X12724Y13650D01*
X12767Y13635D01*
X12795Y13607D01*
X12810Y13578D01*
X12824Y13521D01*
X12824Y13478D01*
X12810Y13421D01*
X12795Y13392D01*
X12767Y13364D01*
X12724Y13350D01*
X12652Y13350D01*
X13124Y13378D02*
X13110Y13364D01*
X13067Y13350D01*
X13038Y13350D01*
X12995Y13364D01*
X12967Y13392D01*
X12952Y13421D01*
X12938Y13478D01*
X12938Y13521D01*
X12952Y13578D01*
X12967Y13607D01*
X12995Y13635D01*
X13038Y13650D01*
X13067Y13650D01*
X13110Y13635D01*
X13124Y13621D01*
X13381Y13650D02*
X13324Y13650D01*
X13295Y13635D01*
X13281Y13621D01*
X13252Y13578D01*
X13238Y13521D01*
X13238Y13407D01*
X13252Y13378D01*
X13267Y13364D01*
X13295Y13350D01*
X13352Y13350D01*
X13381Y13364D01*
X13395Y13378D01*
X13410Y13407D01*
X13410Y13478D01*
X13395Y13507D01*
X13381Y13521D01*
X13352Y13535D01*
X13295Y13535D01*
X13267Y13521D01*
X13252Y13507D01*
X13238Y13478D01*
X7568Y13444D02*
X7711Y13444D01*
X7540Y13359D02*
X7640Y13659D01*
X7740Y13359D01*
X7811Y13659D02*
X7997Y13659D01*
X7897Y13544D01*
X7939Y13544D01*
X7968Y13530D01*
X7982Y13516D01*
X7997Y13487D01*
X7997Y13416D01*
X7982Y13387D01*
X7968Y13373D01*
X7939Y13359D01*
X7854Y13359D01*
X7825Y13373D01*
X7811Y13387D01*
X8340Y13444D02*
X8483Y13444D01*
X8312Y13359D02*
X8412Y13659D01*
X8512Y13359D01*
X8597Y13630D02*
X8611Y13644D01*
X8640Y13659D01*
X8711Y13659D01*
X8740Y13644D01*
X8754Y13630D01*
X8769Y13601D01*
X8769Y13573D01*
X8754Y13530D01*
X8583Y13359D01*
X8769Y13359D01*
X9112Y13444D02*
X9255Y13444D01*
X9084Y13359D02*
X9184Y13659D01*
X9284Y13359D01*
X9541Y13359D02*
X9369Y13359D01*
X9455Y13359D02*
X9455Y13659D01*
X9426Y13616D01*
X9398Y13587D01*
X9369Y13573D01*
X9884Y13444D02*
X10027Y13444D01*
X9856Y13359D02*
X9956Y13659D01*
X10056Y13359D01*
X10213Y13659D02*
X10241Y13659D01*
X10270Y13644D01*
X10284Y13630D01*
X10298Y13601D01*
X10313Y13544D01*
X10313Y13473D01*
X10298Y13416D01*
X10284Y13387D01*
X10270Y13373D01*
X10241Y13359D01*
X10213Y13359D01*
X10184Y13373D01*
X10170Y13387D01*
X10155Y13416D01*
X10141Y13473D01*
X10141Y13544D01*
X10155Y13601D01*
X10170Y13630D01*
X10184Y13644D01*
X10213Y13659D01*
G54D13*
X601Y13145D02*
X301Y13145D01*
X301Y13260D01*
X316Y13288D01*
X330Y13303D01*
X359Y13317D01*
X401Y13317D01*
X430Y13303D01*
X444Y13288D01*
X459Y13260D01*
X459Y13145D01*
X301Y13417D02*
X601Y13488D01*
X387Y13545D01*
X601Y13603D01*
X301Y13674D01*
X601Y13960D02*
X459Y13860D01*
X601Y13788D02*
X301Y13788D01*
X301Y13903D01*
X316Y13931D01*
X330Y13946D01*
X359Y13960D01*
X401Y13960D01*
X430Y13946D01*
X444Y13931D01*
X459Y13903D01*
X459Y13788D01*
G54D14*
X895Y14007D02*
X895Y14607D01*
X1123Y14607D01*
X1181Y14579D01*
X1209Y14550D01*
X1238Y14493D01*
X1238Y14407D01*
X1209Y14350D01*
X1181Y14321D01*
X1123Y14293D01*
X895Y14293D01*
X1581Y14007D02*
X1523Y14036D01*
X1495Y14064D01*
X1466Y14121D01*
X1466Y14293D01*
X1495Y14350D01*
X1523Y14379D01*
X1581Y14407D01*
X1666Y14407D01*
X1723Y14379D01*
X1752Y14350D01*
X1781Y14293D01*
X1781Y14121D01*
X1752Y14064D01*
X1723Y14036D01*
X1666Y14007D01*
X1581Y14007D01*
X2124Y14007D02*
X2066Y14036D01*
X2038Y14093D01*
X2038Y14607D01*
X2609Y14007D02*
X2609Y14321D01*
X2580Y14379D01*
X2523Y14407D01*
X2409Y14407D01*
X2352Y14379D01*
X2609Y14036D02*
X2552Y14007D01*
X2409Y14007D01*
X2352Y14036D01*
X2323Y14093D01*
X2323Y14150D01*
X2352Y14207D01*
X2409Y14236D01*
X2552Y14236D01*
X2609Y14264D01*
X2895Y14007D02*
X2895Y14407D01*
X2895Y14293D02*
X2923Y14350D01*
X2952Y14379D01*
X3009Y14407D01*
X3066Y14407D01*
X3751Y14007D02*
X3866Y14007D01*
X3923Y14036D01*
X3951Y14064D01*
X4009Y14150D01*
X4037Y14264D01*
X4037Y14493D01*
X4009Y14550D01*
X3980Y14579D01*
X3923Y14607D01*
X3809Y14607D01*
X3751Y14579D01*
X3723Y14550D01*
X3694Y14493D01*
X3694Y14350D01*
X3723Y14293D01*
X3751Y14264D01*
X3809Y14236D01*
X3923Y14236D01*
X3980Y14264D01*
X4009Y14293D01*
X4037Y14350D01*
X4751Y14007D02*
X4751Y14607D01*
X5037Y14007D02*
X5037Y14607D01*
X5237Y14179D01*
X5437Y14607D01*
X5437Y14007D01*
X5723Y14607D02*
X5723Y14121D01*
X5751Y14064D01*
X5780Y14036D01*
X5837Y14007D01*
X5951Y14007D01*
X6009Y14036D01*
X6037Y14064D01*
X6066Y14121D01*
X6066Y14607D01*
G54D12*
X2550Y1786D02*
X2536Y1758D01*
X2507Y1729D01*
X2464Y1686D01*
X2450Y1658D01*
X2450Y1629D01*
X2521Y1644D02*
X2507Y1615D01*
X2479Y1586D01*
X2421Y1572D01*
X2321Y1572D01*
X2264Y1586D01*
X2236Y1615D01*
X2221Y1644D01*
X2221Y1701D01*
X2236Y1729D01*
X2264Y1758D01*
X2321Y1772D01*
X2421Y1772D01*
X2479Y1758D01*
X2507Y1729D01*
X2521Y1701D01*
X2521Y1644D01*
X2436Y1886D02*
X2436Y2029D01*
X2521Y1858D02*
X2221Y1958D01*
X2521Y2058D01*
G54D11*
X1632Y570D02*
X1365Y570D01*
X1232Y570D02*
X1251Y551D01*
X1270Y570D01*
X1251Y589D01*
X1232Y570D01*
X1270Y570D01*
X1632Y817D02*
X1613Y779D01*
X1575Y760D01*
X1232Y760D01*
X1365Y913D02*
X1365Y1065D01*
X1232Y970D02*
X1575Y970D01*
X1613Y989D01*
X1632Y1027D01*
X1632Y1065D01*
X1232Y1161D02*
X1232Y1409D01*
X1384Y1275D01*
X1384Y1333D01*
X1403Y1371D01*
X1422Y1390D01*
X1460Y1409D01*
X1556Y1409D01*
X1594Y1390D01*
X1613Y1371D01*
X1632Y1333D01*
X1632Y1218D01*
X1613Y1180D01*
X1594Y1161D01*
X1594Y1580D02*
X1613Y1599D01*
X1632Y1580D01*
X1613Y1561D01*
X1594Y1580D01*
X1632Y1580D01*
X1613Y1942D02*
X1632Y1904D01*
X1632Y1827D01*
X1613Y1789D01*
X1594Y1770D01*
X1556Y1751D01*
X1441Y1751D01*
X1403Y1770D01*
X1384Y1789D01*
X1365Y1827D01*
X1365Y1904D01*
X1384Y1942D01*
X1632Y2170D02*
X1613Y2132D01*
X1594Y2113D01*
X1556Y2094D01*
X1441Y2094D01*
X1403Y2113D01*
X1384Y2132D01*
X1365Y2170D01*
X1365Y2228D01*
X1384Y2266D01*
X1403Y2285D01*
X1441Y2304D01*
X1556Y2304D01*
X1594Y2285D01*
X1613Y2266D01*
X1632Y2228D01*
X1632Y2170D01*
X1632Y2475D02*
X1365Y2475D01*
X1403Y2475D02*
X1384Y2494D01*
X1365Y2532D01*
X1365Y2590D01*
X1384Y2628D01*
X1422Y2647D01*
X1632Y2647D01*
X1422Y2647D02*
X1384Y2666D01*
X1365Y2704D01*
X1365Y2761D01*
X1384Y2799D01*
X1422Y2818D01*
X1632Y2818D01*
G54D12*
X1632Y4620D02*
X1441Y4520D01*
X1632Y4448D02*
X1232Y4448D01*
X1232Y4563D01*
X1251Y4591D01*
X1270Y4606D01*
X1308Y4620D01*
X1365Y4620D01*
X1403Y4606D01*
X1422Y4591D01*
X1441Y4563D01*
X1441Y4448D01*
X1613Y4863D02*
X1632Y4834D01*
X1632Y4777D01*
X1613Y4748D01*
X1575Y4734D01*
X1422Y4734D01*
X1384Y4748D01*
X1365Y4777D01*
X1365Y4834D01*
X1384Y4863D01*
X1422Y4877D01*
X1460Y4877D01*
X1499Y4734D01*
X1365Y4977D02*
X1632Y5048D01*
X1365Y5120D01*
G54D15*
X1040Y5050D02*
X1040Y4590D01*
G54D12*
X512Y479D02*
X512Y512D01*
X528Y546D01*
X545Y562D01*
X578Y579D01*
X645Y596D01*
X728Y596D01*
X795Y579D01*
X828Y562D01*
X845Y546D01*
X862Y512D01*
X862Y479D01*
X845Y446D01*
X828Y429D01*
X795Y412D01*
X728Y396D01*
X645Y396D01*
X578Y412D01*
X545Y429D01*
X528Y446D01*
X512Y479D01*
X545Y729D02*
X528Y745D01*
X512Y779D01*
X512Y862D01*
X528Y895D01*
X545Y912D01*
X578Y929D01*
X612Y929D01*
X662Y912D01*
X862Y712D01*
X862Y929D01*
X512Y1145D02*
X512Y1178D01*
X528Y1212D01*
X545Y1228D01*
X578Y1245D01*
X645Y1262D01*
X728Y1262D01*
X795Y1245D01*
X828Y1228D01*
X845Y1212D01*
X862Y1178D01*
X862Y1145D01*
X845Y1112D01*
X828Y1095D01*
X795Y1078D01*
X728Y1062D01*
X645Y1062D01*
X578Y1078D01*
X545Y1095D01*
X528Y1112D01*
X512Y1145D01*
X512Y1478D02*
X512Y1511D01*
X528Y1545D01*
X545Y1561D01*
X578Y1578D01*
X645Y1595D01*
X728Y1595D01*
X795Y1578D01*
X828Y1561D01*
X845Y1545D01*
X862Y1511D01*
X862Y1478D01*
X845Y1445D01*
X828Y1428D01*
X795Y1411D01*
X728Y1395D01*
X645Y1395D01*
X578Y1411D01*
X545Y1428D01*
X528Y1445D01*
X512Y1478D01*
X728Y1744D02*
X728Y2011D01*
X512Y2244D02*
X512Y2277D01*
X528Y2311D01*
X545Y2327D01*
X578Y2344D01*
X645Y2361D01*
X728Y2361D01*
X795Y2344D01*
X828Y2327D01*
X845Y2311D01*
X862Y2277D01*
X862Y2244D01*
X845Y2211D01*
X828Y2194D01*
X795Y2177D01*
X728Y2161D01*
X645Y2161D01*
X578Y2177D01*
X545Y2194D01*
X528Y2211D01*
X512Y2244D01*
X512Y2577D02*
X512Y2610D01*
X528Y2644D01*
X545Y2660D01*
X578Y2677D01*
X645Y2694D01*
X728Y2694D01*
X795Y2677D01*
X828Y2660D01*
X845Y2644D01*
X862Y2610D01*
X862Y2577D01*
X845Y2544D01*
X828Y2527D01*
X795Y2510D01*
X728Y2494D01*
X645Y2494D01*
X578Y2510D01*
X545Y2527D01*
X528Y2544D01*
X512Y2577D01*
X512Y2910D02*
X512Y2943D01*
X528Y2977D01*
X545Y2993D01*
X578Y3010D01*
X645Y3027D01*
X728Y3027D01*
X795Y3010D01*
X828Y2993D01*
X845Y2977D01*
X862Y2943D01*
X862Y2910D01*
X845Y2877D01*
X828Y2860D01*
X795Y2843D01*
X728Y2827D01*
X645Y2827D01*
X578Y2843D01*
X545Y2860D01*
X528Y2877D01*
X512Y2910D01*
X512Y3343D02*
X512Y3176D01*
X678Y3160D01*
X662Y3176D01*
X645Y3210D01*
X645Y3293D01*
X662Y3326D01*
X678Y3343D01*
X712Y3360D01*
X795Y3360D01*
X828Y3343D01*
X845Y3326D01*
X862Y3293D01*
X862Y3210D01*
X845Y3176D01*
X828Y3160D01*
X728Y3509D02*
X728Y3776D01*
X512Y4009D02*
X512Y4042D01*
X528Y4076D01*
X545Y4092D01*
X578Y4109D01*
X645Y4126D01*
X728Y4126D01*
X795Y4109D01*
X828Y4092D01*
X845Y4076D01*
X862Y4042D01*
X862Y4009D01*
X845Y3976D01*
X828Y3959D01*
X795Y3942D01*
X728Y3926D01*
X645Y3926D01*
X578Y3942D01*
X545Y3959D01*
X528Y3976D01*
X512Y4009D01*
X512Y4342D02*
X512Y4375D01*
X528Y4409D01*
X545Y4425D01*
X578Y4442D01*
X645Y4459D01*
X728Y4459D01*
X795Y4442D01*
X828Y4425D01*
X845Y4409D01*
X862Y4375D01*
X862Y4342D01*
X845Y4309D01*
X828Y4292D01*
X795Y4275D01*
X728Y4259D01*
X645Y4259D01*
X578Y4275D01*
X545Y4292D01*
X528Y4309D01*
X512Y4342D01*
X512Y4675D02*
X512Y4708D01*
X528Y4742D01*
X545Y4758D01*
X578Y4775D01*
X645Y4792D01*
X728Y4792D01*
X795Y4775D01*
X828Y4758D01*
X845Y4742D01*
X862Y4708D01*
X862Y4675D01*
X845Y4642D01*
X828Y4625D01*
X795Y4608D01*
X728Y4592D01*
X645Y4592D01*
X578Y4608D01*
X545Y4625D01*
X528Y4642D01*
X512Y4675D01*
X545Y4925D02*
X528Y4941D01*
X512Y4975D01*
X512Y5058D01*
X528Y5091D01*
X545Y5108D01*
X578Y5125D01*
X612Y5125D01*
X662Y5108D01*
X862Y4908D01*
X862Y5125D01*
G54D10*
X4505Y10455D02*
X7655Y10455D01*
G54D15*
X4505Y12227D02*
X4505Y11833D01*
X7655Y12227D02*
X7655Y11833D01*
G54D10*
X4505Y13605D02*
X7655Y13605D01*
G54D15*
X6960Y12030D02*
G75*
G03X6960Y12030I-880J0D01*
G74*
G01*
G54D10*
X10880Y13735D02*
X6880Y13735D01*
X10880Y14735D02*
X6880Y14735D01*
X6880Y14735D02*
X6880Y13735D01*
X10880Y13735D02*
X10880Y14735D01*
G54D16*
X14384Y6382D02*
G75*
G03X14384Y6382I-40J0D01*
G74*
G01*
G54D11*
X14500Y4180D02*
X14500Y6280D01*
X14500Y6280D02*
X15950Y6280D01*
X15950Y6280D02*
X15950Y4180D01*
X15950Y4180D02*
X14500Y4180D01*
G54D15*
X15044Y685D02*
G75*
G03X15044Y685I-79J0D01*
G74*
G01*
G54D16*
X15123Y843D02*
X15123Y2417D01*
X15123Y2417D02*
X16697Y2417D01*
X16697Y2417D02*
X16697Y843D01*
X16697Y843D02*
X15123Y843D01*
X18472Y863D02*
X17672Y863D01*
X17672Y863D02*
X17772Y763D01*
X17772Y763D02*
X17772Y963D01*
X17772Y963D02*
X17672Y863D01*
X19172Y1863D02*
X19172Y2763D01*
X19172Y2763D02*
X19072Y2663D01*
X19072Y2663D02*
X19272Y2663D01*
X19272Y2663D02*
X19172Y2763D01*
X19172Y763D02*
X19172Y963D01*
X19272Y863D02*
X19072Y863D01*
X19272Y863D02*
G75*
G03X19272Y863I-100J0D01*
G74*
G01*
X19272Y1163D02*
X19172Y1363D01*
X19172Y1363D02*
X19272Y1563D01*
X19272Y1563D02*
X19272Y1163D01*
X18672Y863D02*
G75*
G03X19172Y1363I500J0D01*
G74*
G01*
X1194Y12203D02*
X1312Y12479D01*
X1312Y12479D02*
X1509Y12203D01*
X1509Y12203D02*
X1194Y12203D01*
X1194Y12203D02*
X1430Y12243D01*
X1430Y12243D02*
X1312Y12361D01*
X1312Y12361D02*
X1272Y12282D01*
X1272Y12282D02*
X1351Y12282D01*
X1351Y12282D02*
X1312Y12400D01*
G54D17*
X918Y12596D02*
X1046Y12596D01*
X1046Y12596D02*
X1046Y12793D01*
X918Y12793D02*
X1046Y12793D01*
X918Y12596D02*
X918Y12793D01*
X673Y12596D02*
X732Y12596D01*
X732Y12596D02*
X732Y12695D01*
X673Y12695D02*
X732Y12695D01*
X673Y12596D02*
X673Y12695D01*
X868Y12596D02*
X927Y12596D01*
X927Y12596D02*
X927Y12695D01*
X868Y12695D02*
X927Y12695D01*
X868Y12596D02*
X868Y12695D01*
X722Y12596D02*
X878Y12596D01*
X878Y12596D02*
X878Y12665D01*
X722Y12665D02*
X878Y12665D01*
X722Y12596D02*
X722Y12665D01*
X918Y12007D02*
X1046Y12007D01*
X1046Y12007D02*
X1046Y12204D01*
X918Y12204D02*
X1046Y12204D01*
X918Y12007D02*
X918Y12204D01*
X554Y12007D02*
X682Y12007D01*
X682Y12007D02*
X682Y12204D01*
X554Y12204D02*
X682Y12204D01*
X554Y12007D02*
X554Y12204D01*
X868Y12105D02*
X927Y12105D01*
X927Y12105D02*
X927Y12204D01*
X868Y12204D02*
X927Y12204D01*
X868Y12105D02*
X868Y12204D01*
X673Y12105D02*
X732Y12105D01*
X732Y12105D02*
X732Y12204D01*
X673Y12204D02*
X732Y12204D01*
X673Y12105D02*
X673Y12204D01*
X722Y12135D02*
X878Y12135D01*
X878Y12135D02*
X878Y12204D01*
X722Y12204D02*
X878Y12204D01*
X722Y12135D02*
X722Y12204D01*
X761Y12400D02*
X839Y12400D01*
X839Y12400D02*
X839Y12478D01*
X761Y12478D02*
X839Y12478D01*
X761Y12400D02*
X761Y12478D01*
X564Y12596D02*
X682Y12596D01*
X682Y12596D02*
X682Y12714D01*
X564Y12714D02*
X682Y12714D01*
X564Y12596D02*
X564Y12714D01*
X554Y12764D02*
X643Y12764D01*
X643Y12764D02*
X643Y12793D01*
X554Y12793D02*
X643Y12793D01*
X554Y12764D02*
X554Y12793D01*
G54D18*
X1026Y12606D02*
X1026Y12194D01*
X574Y12204D02*
X574Y12764D01*
G54D19*
X651Y12734D02*
G75*
G03X651Y12734I-28J0D01*
G74*
G01*
G54D18*
X663Y12793D02*
G75*
G03X937Y12793I137J0D01*
G74*
G01*
X937Y12007D02*
G75*
G03X663Y12007I-137J0D01*
G74*
G01*
G54D20*
X15565Y14715D02*
X15565Y11715D01*
X13565Y11715D02*
X13565Y14715D01*
X13565Y14715D02*
X15565Y14715D01*
X15565Y11715D02*
X13565Y11715D01*
G54D15*
X17749Y13733D02*
X17434Y13575D01*
X17434Y13575D02*
X17749Y13418D01*
X17749Y13418D02*
X17749Y13733D01*
X17749Y13733D02*
X17591Y13496D01*
G54D17*
X17474Y14323D02*
X17474Y14451D01*
X17474Y14451D02*
X17277Y14451D01*
X17277Y14323D02*
X17277Y14451D01*
X17474Y14323D02*
X17277Y14323D01*
X17474Y14078D02*
X17474Y14137D01*
X17474Y14137D02*
X17375Y14137D01*
X17375Y14078D02*
X17375Y14137D01*
X17474Y14078D02*
X17375Y14078D01*
X17474Y14273D02*
X17474Y14332D01*
X17474Y14332D02*
X17375Y14332D01*
X17375Y14273D02*
X17375Y14332D01*
X17474Y14273D02*
X17375Y14273D01*
X17474Y14127D02*
X17474Y14283D01*
X17474Y14283D02*
X17405Y14283D01*
X17405Y14127D02*
X17405Y14283D01*
X17474Y14127D02*
X17405Y14127D01*
X18063Y14323D02*
X18063Y14451D01*
X18063Y14451D02*
X17866Y14451D01*
X17866Y14323D02*
X17866Y14451D01*
X18063Y14323D02*
X17866Y14323D01*
X18063Y13959D02*
X18063Y14087D01*
X18063Y14087D02*
X17866Y14087D01*
X17866Y13959D02*
X17866Y14087D01*
X18063Y13959D02*
X17866Y13959D01*
X17965Y14273D02*
X17965Y14332D01*
X17965Y14332D02*
X17866Y14332D01*
X17866Y14273D02*
X17866Y14332D01*
X17965Y14273D02*
X17866Y14273D01*
X17965Y14078D02*
X17965Y14137D01*
X17965Y14137D02*
X17866Y14137D01*
X17866Y14078D02*
X17866Y14137D01*
X17965Y14078D02*
X17866Y14078D01*
X17935Y14127D02*
X17935Y14283D01*
X17935Y14283D02*
X17866Y14283D01*
X17866Y14127D02*
X17866Y14283D01*
X17935Y14127D02*
X17866Y14127D01*
X17670Y14166D02*
X17670Y14244D01*
X17670Y14244D02*
X17592Y14244D01*
X17592Y14166D02*
X17592Y14244D01*
X17670Y14166D02*
X17592Y14166D01*
X17474Y13969D02*
X17474Y14087D01*
X17474Y14087D02*
X17356Y14087D01*
X17356Y13969D02*
X17356Y14087D01*
X17474Y13969D02*
X17356Y13969D01*
X17306Y13959D02*
X17306Y14048D01*
X17306Y14048D02*
X17277Y14048D01*
X17277Y13959D02*
X17277Y14048D01*
X17306Y13959D02*
X17277Y13959D01*
G54D18*
X17464Y14431D02*
X17876Y14431D01*
X17866Y13979D02*
X17306Y13979D01*
G54D19*
X17364Y14028D02*
G75*
G03X17364Y14028I-28J0D01*
G74*
G01*
G54D18*
X17277Y14068D02*
G75*
G03X17277Y14342I0J137D01*
G74*
G01*
X18063Y14342D02*
G75*
G03X18063Y14068I0J-137D01*
G74*
G01*
G54D21*
X9684Y3895D02*
X9606Y3895D01*
X9684Y3305D02*
X9606Y3305D01*
X10866Y3305D02*
X10944Y3305D01*
X10866Y3895D02*
X10944Y3895D01*
X9606Y3305D02*
X9606Y3895D01*
X10944Y3895D02*
X10944Y3305D01*
G54D11*
X17405Y7760D02*
X19505Y7760D01*
X19505Y7760D02*
X19505Y6310D01*
X19505Y6310D02*
X17405Y6310D01*
X17405Y6310D02*
X17405Y7760D01*
X17766Y6554D02*
G75*
G03X17766Y6554I-128J0D01*
G74*
G01*
G54D10*
X13131Y7494D02*
X12813Y7176D01*
X11589Y9036D02*
X11278Y8725D01*
X13131Y7494D02*
X11589Y9036D01*
X12841Y6540D02*
X13145Y6236D01*
X11285Y4970D02*
X11582Y4673D01*
X11575Y4666D02*
X13152Y6229D01*
X8782Y7487D02*
X10309Y9029D01*
X8966Y6695D02*
X10967Y4694D01*
X10324Y9029D02*
X10614Y8739D01*
X8973Y7042D02*
X10939Y9008D01*
X13131Y6844D02*
X10981Y8993D01*
X10974Y4687D02*
X13095Y6808D01*
X8768Y6257D02*
X10338Y4687D01*
X10338Y4687D02*
X10656Y5005D01*
X8962Y6705D02*
X8962Y7030D01*
X8769Y6258D02*
X9089Y6578D01*
X9100Y7169D02*
X8781Y7489D01*
X9561Y6871D02*
G75*
G03X9561Y6871I-188J0D01*
G74*
G01*
G54D13*
X6581Y4540D02*
G75*
G03X6581Y4540I-141J0D01*
G74*
G01*
X5340Y4340D02*
X5340Y4640D01*
X5340Y4640D02*
X5840Y4640D01*
X5840Y4640D02*
X5840Y4340D01*
X6640Y8390D02*
X6640Y4340D01*
X4540Y4340D02*
X4540Y8390D01*
X4540Y4340D02*
X6640Y4340D01*
X4540Y8390D02*
X6640Y8390D01*
X11530Y2470D02*
X11130Y2470D01*
X11130Y2470D02*
X11130Y3070D01*
X11130Y3070D02*
X11530Y3070D01*
X11930Y3070D02*
X12330Y3070D01*
X12330Y3070D02*
X12330Y2470D01*
X12330Y2470D02*
X11930Y2470D01*
X13335Y570D02*
X12935Y570D01*
X12935Y570D02*
X12935Y1170D01*
X12935Y1170D02*
X13335Y1170D01*
X13735Y1170D02*
X14135Y1170D01*
X14135Y1170D02*
X14135Y570D01*
X14135Y570D02*
X13735Y570D01*
X15270Y3070D02*
X14870Y3070D01*
X14870Y3070D02*
X14870Y3670D01*
X14870Y3670D02*
X15270Y3670D01*
X15670Y3670D02*
X16070Y3670D01*
X16070Y3670D02*
X16070Y3070D01*
X16070Y3070D02*
X15670Y3070D01*
X13730Y4150D02*
X14130Y4150D01*
X14130Y4150D02*
X14130Y3550D01*
X14130Y3550D02*
X13730Y3550D01*
X13330Y3550D02*
X12930Y3550D01*
X12930Y3550D02*
X12930Y4150D01*
X12930Y4150D02*
X13330Y4150D01*
X16170Y6740D02*
X15770Y6740D01*
X15770Y6740D02*
X15770Y7340D01*
X15770Y7340D02*
X16170Y7340D01*
X16570Y7340D02*
X16970Y7340D01*
X16970Y7340D02*
X16970Y6740D01*
X16970Y6740D02*
X16570Y6740D01*
X14565Y6720D02*
X14165Y6720D01*
X14165Y6720D02*
X14165Y7320D01*
X14165Y7320D02*
X14565Y7320D01*
X14965Y7320D02*
X15365Y7320D01*
X15365Y7320D02*
X15365Y6720D01*
X15365Y6720D02*
X14965Y6720D01*
X11510Y570D02*
X11110Y570D01*
X11110Y570D02*
X11110Y1170D01*
X11110Y1170D02*
X11510Y1170D01*
X11910Y1170D02*
X12310Y1170D01*
X12310Y1170D02*
X12310Y570D01*
X12310Y570D02*
X11910Y570D01*
X11510Y1540D02*
X11110Y1540D01*
X11110Y1540D02*
X11110Y2140D01*
X11110Y2140D02*
X11510Y2140D01*
X11910Y2140D02*
X12310Y2140D01*
X12310Y2140D02*
X12310Y1540D01*
X12310Y1540D02*
X11910Y1540D01*
X4845Y3755D02*
X5245Y3755D01*
X5245Y3755D02*
X5245Y3155D01*
X5245Y3155D02*
X4845Y3155D01*
X4445Y3155D02*
X4045Y3155D01*
X4045Y3155D02*
X4045Y3755D01*
X4045Y3755D02*
X4445Y3755D01*
X13720Y3045D02*
X14120Y3045D01*
X14120Y3045D02*
X14120Y2445D01*
X14120Y2445D02*
X13720Y2445D01*
X13320Y2445D02*
X12920Y2445D01*
X12920Y2445D02*
X12920Y3045D01*
X12920Y3045D02*
X13320Y3045D01*
X13735Y2130D02*
X14135Y2130D01*
X14135Y2130D02*
X14135Y1530D01*
X14135Y1530D02*
X13735Y1530D01*
X13335Y1530D02*
X12935Y1530D01*
X12935Y1530D02*
X12935Y2130D01*
X12935Y2130D02*
X13335Y2130D01*
X6335Y3155D02*
X5935Y3155D01*
X5935Y3155D02*
X5935Y3755D01*
X5935Y3755D02*
X6335Y3755D01*
X6735Y3755D02*
X7135Y3755D01*
X7135Y3755D02*
X7135Y3155D01*
X7135Y3155D02*
X6735Y3155D01*
X2670Y6215D02*
X2670Y6615D01*
X2670Y6615D02*
X3270Y6615D01*
X3270Y6615D02*
X3270Y6215D01*
X3270Y5815D02*
X3270Y5415D01*
X3270Y5415D02*
X2670Y5415D01*
X2670Y5415D02*
X2670Y5815D01*
X8675Y9540D02*
X9075Y9540D01*
X9075Y9540D02*
X9075Y8940D01*
X9075Y8940D02*
X8675Y8940D01*
X8275Y8940D02*
X7875Y8940D01*
X7875Y8940D02*
X7875Y9540D01*
X7875Y9540D02*
X8275Y9540D01*
X2275Y12930D02*
X1875Y12930D01*
X1875Y12930D02*
X1875Y13530D01*
X1875Y13530D02*
X2275Y13530D01*
X2675Y13530D02*
X3075Y13530D01*
X3075Y13530D02*
X3075Y12930D01*
X3075Y12930D02*
X2675Y12930D01*
X18840Y13460D02*
X18840Y13860D01*
X18840Y13860D02*
X19440Y13860D01*
X19440Y13860D02*
X19440Y13460D01*
X19440Y13060D02*
X19440Y12660D01*
X19440Y12660D02*
X18840Y12660D01*
X18840Y12660D02*
X18840Y13060D01*
G54D15*
X16296Y9769D02*
X16296Y10162D01*
X16296Y10162D02*
X15902Y10556D01*
X15902Y10556D02*
X13934Y10556D01*
X13934Y10556D02*
X13934Y9769D01*
X13934Y8981D02*
X13934Y8194D01*
X13934Y8194D02*
X15902Y8194D01*
X15902Y8194D02*
X16296Y8588D01*
X16296Y8588D02*
X16296Y8981D01*
G54D22*
X16099Y9375D02*
G75*
G03X16099Y9375I-984J0D01*
G74*
G01*
G54D15*
X9976Y2074D02*
X9976Y2467D01*
X9976Y2467D02*
X9582Y2861D01*
X9582Y2861D02*
X7614Y2861D01*
X7614Y2861D02*
X7614Y2074D01*
X7614Y1286D02*
X7614Y499D01*
X7614Y499D02*
X9582Y499D01*
X9582Y499D02*
X9976Y893D01*
X9976Y893D02*
X9976Y1286D01*
G54D22*
X9779Y1680D02*
G75*
G03X9779Y1680I-984J0D01*
G74*
G01*
G54D15*
X5971Y2049D02*
X5971Y2442D01*
X5971Y2442D02*
X5577Y2836D01*
X5577Y2836D02*
X3609Y2836D01*
X3609Y2836D02*
X3609Y2049D01*
X3609Y1261D02*
X3609Y474D01*
X3609Y474D02*
X5577Y474D01*
X5577Y474D02*
X5971Y868D01*
X5971Y868D02*
X5971Y1261D01*
G54D22*
X5774Y1655D02*
G75*
G03X5774Y1655I-984J0D01*
G74*
G01*
G54D15*
X12111Y12164D02*
X12111Y12557D01*
X12111Y12557D02*
X11717Y12951D01*
X11717Y12951D02*
X9749Y12951D01*
X9749Y12951D02*
X9749Y12164D01*
X9749Y11376D02*
X9749Y10589D01*
X9749Y10589D02*
X11717Y10589D01*
X11717Y10589D02*
X12111Y10983D01*
X12111Y10983D02*
X12111Y11376D01*
G54D22*
X11914Y11770D02*
G75*
G03X11914Y11770I-984J0D01*
G74*
G01*
G54D16*
X3484Y11250D02*
G75*
G03X3484Y11250I-984J0D01*
G74*
G01*
X18484Y3750D02*
G75*
G03X18484Y3750I-984J0D01*
G74*
G01*
X18484Y11250D02*
G75*
G03X18484Y11250I-984J0D01*
G74*
G01*
X3484Y3750D02*
G75*
G03X3484Y3750I-984J0D01*
G74*
G01*
G54D13*
X500Y10800D02*
X500Y11200D01*
X500Y11200D02*
X1100Y11200D01*
X1100Y11200D02*
X1100Y10800D01*
X1100Y10400D02*
X1100Y10000D01*
X1100Y10000D02*
X500Y10000D01*
X500Y10000D02*
X500Y10400D01*
G54D16*
X82Y9469D02*
X82Y5571D01*
X82Y5571D02*
X1420Y5571D01*
X1420Y5571D02*
X1420Y6043D01*
X1420Y6043D02*
X2405Y6043D01*
X2405Y6043D02*
X2405Y8957D01*
X2405Y8957D02*
X1460Y8957D01*
X1460Y8957D02*
X1460Y9469D01*
X1460Y9469D02*
X82Y9469D01*
G54D10*
X11120Y13735D02*
X11120Y14735D01*
X11120Y14735D02*
X13120Y14735D01*
X13120Y14735D02*
X13120Y13735D01*
X13120Y13735D02*
X11120Y13735D01*
G54D12*
X6736Y13998D02*
X6436Y13998D01*
X6436Y14113D01*
X6451Y14141D01*
X6465Y14156D01*
X6494Y14170D01*
X6536Y14170D01*
X6565Y14156D01*
X6579Y14141D01*
X6594Y14113D01*
X6594Y13998D01*
X6465Y14284D02*
X6451Y14298D01*
X6436Y14327D01*
X6436Y14398D01*
X6451Y14427D01*
X6465Y14441D01*
X6494Y14456D01*
X6522Y14456D01*
X6565Y14441D01*
X6736Y14270D01*
X6736Y14456D01*
X16198Y5383D02*
X16522Y5383D01*
X16560Y5398D01*
X16579Y5412D01*
X16598Y5441D01*
X16598Y5498D01*
X16579Y5526D01*
X16560Y5541D01*
X16522Y5555D01*
X16198Y5555D01*
X16598Y5855D02*
X16598Y5683D01*
X16598Y5769D02*
X16198Y5769D01*
X16255Y5740D01*
X16293Y5712D01*
X16312Y5683D01*
G54D23*
X16680Y730D02*
X16680Y411D01*
X16699Y373D01*
X16717Y354D01*
X16755Y336D01*
X16830Y336D01*
X16867Y354D01*
X16886Y373D01*
X16905Y411D01*
X16905Y730D01*
X17055Y730D02*
X17299Y730D01*
X17168Y579D01*
X17224Y579D01*
X17262Y561D01*
X17280Y542D01*
X17299Y504D01*
X17299Y411D01*
X17280Y373D01*
X17262Y354D01*
X17224Y336D01*
X17112Y336D01*
X17074Y354D01*
X17055Y373D01*
G54D14*
G54D24*
X18693Y2063D02*
X18993Y2263D01*
X18693Y2263D02*
X18993Y2063D01*
X18151Y1064D02*
X18293Y1064D01*
X17993Y964D02*
X18151Y1064D01*
X17993Y1164D01*
X18593Y1063D02*
X18593Y1263D01*
X18893Y1063D01*
X18893Y1263D01*
X4654Y8639D02*
X4654Y8939D01*
X4726Y8939D01*
X4769Y8924D01*
X4797Y8896D01*
X4812Y8867D01*
X4826Y8810D01*
X4826Y8767D01*
X4812Y8710D01*
X4797Y8681D01*
X4769Y8653D01*
X4726Y8639D01*
X4654Y8639D01*
X4940Y8910D02*
X4954Y8924D01*
X4983Y8939D01*
X5054Y8939D01*
X5083Y8924D01*
X5097Y8910D01*
X5112Y8881D01*
X5112Y8853D01*
X5097Y8810D01*
X4926Y8639D01*
X5112Y8639D01*
X5698Y8639D02*
X5698Y8939D01*
X5770Y8939D01*
X5813Y8924D01*
X5841Y8896D01*
X5856Y8867D01*
X5870Y8810D01*
X5870Y8767D01*
X5856Y8710D01*
X5841Y8681D01*
X5813Y8653D01*
X5770Y8639D01*
X5698Y8639D01*
X5970Y8939D02*
X6156Y8939D01*
X6056Y8824D01*
X6098Y8824D01*
X6127Y8810D01*
X6141Y8796D01*
X6156Y8767D01*
X6156Y8696D01*
X6141Y8667D01*
X6127Y8653D01*
X6098Y8639D01*
X6013Y8639D01*
X5984Y8653D01*
X5970Y8667D01*
X6742Y8639D02*
X6742Y8939D01*
X6814Y8939D01*
X6857Y8924D01*
X6885Y8896D01*
X6900Y8867D01*
X6914Y8810D01*
X6914Y8767D01*
X6900Y8710D01*
X6885Y8681D01*
X6857Y8653D01*
X6814Y8639D01*
X6742Y8639D01*
X7171Y8839D02*
X7171Y8639D01*
X7100Y8953D02*
X7028Y8739D01*
X7214Y8739D01*
G54D13*
X1521Y12578D02*
X1221Y12578D01*
X1221Y12650D01*
X1236Y12693D01*
X1264Y12721D01*
X1293Y12736D01*
X1350Y12750D01*
X1393Y12750D01*
X1450Y12736D01*
X1479Y12721D01*
X1507Y12693D01*
X1521Y12650D01*
X1521Y12578D01*
X1250Y12864D02*
X1236Y12878D01*
X1221Y12907D01*
X1221Y12978D01*
X1236Y13007D01*
X1250Y13021D01*
X1279Y13036D01*
X1307Y13036D01*
X1350Y13021D01*
X1521Y12850D01*
X1521Y13036D01*
G54D20*
X13567Y11250D02*
X13167Y11250D01*
X13167Y11403D01*
X13186Y11441D01*
X13205Y11460D01*
X13243Y11479D01*
X13300Y11479D01*
X13338Y11460D01*
X13357Y11441D01*
X13376Y11403D01*
X13376Y11250D01*
X13567Y11860D02*
X13567Y11631D01*
X13567Y11745D02*
X13167Y11745D01*
X13224Y11707D01*
X13262Y11669D01*
X13281Y11631D01*
G54D14*
X15818Y11667D02*
X15818Y11324D01*
X15818Y11496D02*
X15218Y11496D01*
X15304Y11439D01*
X15361Y11381D01*
X15389Y11324D01*
X16323Y12300D02*
X15723Y12300D01*
X16266Y12929D02*
X16294Y12900D01*
X16323Y12814D01*
X16323Y12757D01*
X16294Y12672D01*
X16237Y12614D01*
X16180Y12586D01*
X16066Y12557D01*
X15980Y12557D01*
X15866Y12586D01*
X15809Y12614D01*
X15751Y12672D01*
X15723Y12757D01*
X15723Y12814D01*
X15751Y12900D01*
X15780Y12929D01*
X16294Y13157D02*
X16323Y13243D01*
X16323Y13386D01*
X16294Y13443D01*
X16266Y13472D01*
X16209Y13500D01*
X16151Y13500D01*
X16094Y13472D01*
X16066Y13443D01*
X16037Y13386D01*
X16009Y13272D01*
X15980Y13214D01*
X15951Y13186D01*
X15894Y13157D01*
X15837Y13157D01*
X15780Y13186D01*
X15751Y13214D01*
X15723Y13272D01*
X15723Y13414D01*
X15751Y13500D01*
X16323Y13757D02*
X15723Y13757D01*
X15723Y13985D01*
X15751Y14043D01*
X15780Y14071D01*
X15837Y14100D01*
X15923Y14100D01*
X15980Y14071D01*
X16009Y14043D01*
X16037Y13985D01*
X16037Y13757D01*
G54D13*
X16346Y14084D02*
X16346Y14384D01*
X16418Y14384D01*
X16461Y14369D01*
X16489Y14341D01*
X16504Y14312D01*
X16518Y14255D01*
X16518Y14212D01*
X16504Y14155D01*
X16489Y14126D01*
X16461Y14098D01*
X16418Y14084D01*
X16346Y14084D01*
X16804Y14084D02*
X16632Y14084D01*
X16718Y14084D02*
X16718Y14384D01*
X16689Y14341D01*
X16661Y14312D01*
X16632Y14298D01*
G54D11*
X11071Y3775D02*
X11338Y3375D01*
X11338Y3775D02*
X11071Y3375D01*
X11700Y3375D02*
X11471Y3375D01*
X11585Y3375D02*
X11585Y3775D01*
X11547Y3718D01*
X11509Y3680D01*
X11471Y3661D01*
G54D12*
X16706Y6553D02*
X16706Y6229D01*
X16721Y6191D01*
X16735Y6172D01*
X16764Y6153D01*
X16821Y6153D01*
X16849Y6172D01*
X16864Y6191D01*
X16878Y6229D01*
X16878Y6553D01*
X17006Y6515D02*
X17020Y6534D01*
X17049Y6553D01*
X17120Y6553D01*
X17149Y6534D01*
X17163Y6515D01*
X17178Y6477D01*
X17178Y6439D01*
X17163Y6382D01*
X16992Y6153D01*
X17178Y6153D01*
G54D20*
X10930Y8968D02*
X10577Y9322D01*
X11193Y9298D02*
X11197Y9267D01*
X11173Y9211D01*
X11146Y9184D01*
X11088Y9159D01*
X11028Y9166D01*
X10980Y9187D01*
X10900Y9241D01*
X10849Y9291D01*
X10795Y9372D01*
X10775Y9419D01*
X10768Y9480D01*
X10792Y9538D01*
X10819Y9564D01*
X10876Y9588D01*
X10907Y9584D01*
X11496Y9534D02*
X11334Y9372D01*
X11414Y9453D02*
X11061Y9806D01*
X11085Y9729D01*
X11091Y9668D01*
X11081Y9625D01*
G54D13*
X3365Y7671D02*
X3608Y7671D01*
X3637Y7686D01*
X3651Y7700D01*
X3665Y7729D01*
X3665Y7786D01*
X3651Y7814D01*
X3637Y7829D01*
X3608Y7843D01*
X3365Y7843D01*
X3465Y8114D02*
X3665Y8114D01*
X3351Y8043D02*
X3565Y7971D01*
X3565Y8157D01*
X10743Y2669D02*
X10660Y2788D01*
X10601Y2669D02*
X10601Y2919D01*
X10696Y2919D01*
X10720Y2907D01*
X10731Y2895D01*
X10743Y2871D01*
X10743Y2835D01*
X10731Y2812D01*
X10720Y2800D01*
X10696Y2788D01*
X10601Y2788D01*
X10839Y2895D02*
X10851Y2907D01*
X10874Y2919D01*
X10934Y2919D01*
X10958Y2907D01*
X10970Y2895D01*
X10981Y2871D01*
X10981Y2847D01*
X10970Y2812D01*
X10827Y2669D01*
X10981Y2669D01*
X14453Y709D02*
X14370Y828D01*
X14311Y709D02*
X14311Y959D01*
X14406Y959D01*
X14430Y947D01*
X14441Y935D01*
X14453Y911D01*
X14453Y875D01*
X14441Y852D01*
X14430Y840D01*
X14406Y828D01*
X14311Y828D01*
X14691Y709D02*
X14549Y709D01*
X14620Y709D02*
X14620Y959D01*
X14596Y923D01*
X14572Y899D01*
X14549Y887D01*
X15350Y2739D02*
X15338Y2727D01*
X15303Y2715D01*
X15279Y2715D01*
X15243Y2727D01*
X15219Y2751D01*
X15208Y2774D01*
X15196Y2822D01*
X15196Y2858D01*
X15208Y2905D01*
X15219Y2929D01*
X15243Y2953D01*
X15279Y2965D01*
X15303Y2965D01*
X15338Y2953D01*
X15350Y2941D01*
X15588Y2715D02*
X15446Y2715D01*
X15517Y2715D02*
X15517Y2965D01*
X15493Y2929D01*
X15469Y2905D01*
X15446Y2893D01*
X12578Y3705D02*
X12566Y3693D01*
X12531Y3681D01*
X12507Y3681D01*
X12471Y3693D01*
X12447Y3717D01*
X12436Y3740D01*
X12424Y3788D01*
X12424Y3824D01*
X12436Y3871D01*
X12447Y3895D01*
X12471Y3919D01*
X12507Y3931D01*
X12531Y3931D01*
X12566Y3919D01*
X12578Y3907D01*
X12662Y3931D02*
X12828Y3931D01*
X12721Y3681D01*
X16353Y7668D02*
X16341Y7656D01*
X16306Y7644D01*
X16282Y7644D01*
X16246Y7656D01*
X16222Y7680D01*
X16211Y7703D01*
X16199Y7751D01*
X16199Y7787D01*
X16211Y7834D01*
X16222Y7858D01*
X16246Y7882D01*
X16282Y7894D01*
X16306Y7894D01*
X16341Y7882D01*
X16353Y7870D01*
X16449Y7870D02*
X16461Y7882D01*
X16484Y7894D01*
X16544Y7894D01*
X16568Y7882D01*
X16580Y7870D01*
X16591Y7846D01*
X16591Y7822D01*
X16580Y7787D01*
X16437Y7644D01*
X16591Y7644D01*
X14461Y7492D02*
X14449Y7480D01*
X14414Y7468D01*
X14390Y7468D01*
X14354Y7480D01*
X14330Y7504D01*
X14319Y7527D01*
X14307Y7575D01*
X14307Y7611D01*
X14319Y7658D01*
X14330Y7682D01*
X14354Y7706D01*
X14390Y7718D01*
X14414Y7718D01*
X14449Y7706D01*
X14461Y7694D01*
X14580Y7468D02*
X14628Y7468D01*
X14652Y7480D01*
X14664Y7492D01*
X14688Y7527D01*
X14699Y7575D01*
X14699Y7670D01*
X14688Y7694D01*
X14676Y7706D01*
X14652Y7718D01*
X14604Y7718D01*
X14580Y7706D01*
X14569Y7694D01*
X14557Y7670D01*
X14557Y7611D01*
X14569Y7587D01*
X14580Y7575D01*
X14604Y7563D01*
X14652Y7563D01*
X14676Y7575D01*
X14688Y7587D01*
X14699Y7611D01*
X10723Y793D02*
X10711Y781D01*
X10676Y769D01*
X10652Y769D01*
X10616Y781D01*
X10592Y805D01*
X10581Y828D01*
X10569Y876D01*
X10569Y912D01*
X10581Y959D01*
X10592Y983D01*
X10616Y1007D01*
X10652Y1019D01*
X10676Y1019D01*
X10711Y1007D01*
X10723Y995D01*
X10866Y912D02*
X10842Y924D01*
X10831Y935D01*
X10819Y959D01*
X10819Y971D01*
X10831Y995D01*
X10842Y1007D01*
X10866Y1019D01*
X10914Y1019D01*
X10938Y1007D01*
X10950Y995D01*
X10961Y971D01*
X10961Y959D01*
X10950Y935D01*
X10938Y924D01*
X10914Y912D01*
X10866Y912D01*
X10842Y900D01*
X10831Y888D01*
X10819Y864D01*
X10819Y816D01*
X10831Y793D01*
X10842Y781D01*
X10866Y769D01*
X10914Y769D01*
X10938Y781D01*
X10950Y793D01*
X10961Y816D01*
X10961Y864D01*
X10950Y888D01*
X10938Y900D01*
X10914Y912D01*
X10723Y1739D02*
X10640Y1858D01*
X10581Y1739D02*
X10581Y1989D01*
X10676Y1989D01*
X10700Y1977D01*
X10711Y1965D01*
X10723Y1941D01*
X10723Y1905D01*
X10711Y1882D01*
X10700Y1870D01*
X10676Y1858D01*
X10581Y1858D01*
X10807Y1989D02*
X10961Y1989D01*
X10878Y1894D01*
X10914Y1894D01*
X10938Y1882D01*
X10950Y1870D01*
X10961Y1846D01*
X10961Y1786D01*
X10950Y1763D01*
X10938Y1751D01*
X10914Y1739D01*
X10842Y1739D01*
X10819Y1751D01*
X10807Y1763D01*
X4188Y3898D02*
X4176Y3886D01*
X4141Y3874D01*
X4117Y3874D01*
X4081Y3886D01*
X4057Y3910D01*
X4046Y3933D01*
X4034Y3981D01*
X4034Y4017D01*
X4046Y4064D01*
X4057Y4088D01*
X4081Y4112D01*
X4117Y4124D01*
X4141Y4124D01*
X4176Y4112D01*
X4188Y4100D01*
X4403Y4040D02*
X4403Y3874D01*
X4343Y4136D02*
X4284Y3957D01*
X4438Y3957D01*
X14408Y2608D02*
X14396Y2596D01*
X14361Y2584D01*
X14337Y2584D01*
X14301Y2596D01*
X14277Y2620D01*
X14266Y2643D01*
X14254Y2691D01*
X14254Y2727D01*
X14266Y2774D01*
X14277Y2798D01*
X14301Y2822D01*
X14337Y2834D01*
X14361Y2834D01*
X14396Y2822D01*
X14408Y2810D01*
X14623Y2834D02*
X14575Y2834D01*
X14551Y2822D01*
X14539Y2810D01*
X14516Y2774D01*
X14504Y2727D01*
X14504Y2631D01*
X14516Y2608D01*
X14527Y2596D01*
X14551Y2584D01*
X14599Y2584D01*
X14623Y2596D01*
X14635Y2608D01*
X14646Y2631D01*
X14646Y2691D01*
X14635Y2715D01*
X14623Y2727D01*
X14599Y2739D01*
X14551Y2739D01*
X14527Y2727D01*
X14516Y2715D01*
X14504Y2691D01*
X14408Y1678D02*
X14396Y1666D01*
X14361Y1654D01*
X14337Y1654D01*
X14301Y1666D01*
X14277Y1690D01*
X14266Y1713D01*
X14254Y1761D01*
X14254Y1797D01*
X14266Y1844D01*
X14277Y1868D01*
X14301Y1892D01*
X14337Y1904D01*
X14361Y1904D01*
X14396Y1892D01*
X14408Y1880D01*
X14635Y1904D02*
X14516Y1904D01*
X14504Y1785D01*
X14516Y1797D01*
X14539Y1809D01*
X14599Y1809D01*
X14623Y1797D01*
X14635Y1785D01*
X14646Y1761D01*
X14646Y1701D01*
X14635Y1678D01*
X14623Y1666D01*
X14599Y1654D01*
X14539Y1654D01*
X14516Y1666D01*
X14504Y1678D01*
X6484Y2673D02*
X6472Y2661D01*
X6437Y2649D01*
X6413Y2649D01*
X6377Y2661D01*
X6353Y2685D01*
X6342Y2708D01*
X6330Y2756D01*
X6330Y2792D01*
X6342Y2839D01*
X6353Y2863D01*
X6377Y2887D01*
X6413Y2899D01*
X6437Y2899D01*
X6472Y2887D01*
X6484Y2875D01*
X6722Y2649D02*
X6580Y2649D01*
X6651Y2649D02*
X6651Y2899D01*
X6627Y2863D01*
X6603Y2839D01*
X6580Y2827D01*
X6937Y2815D02*
X6937Y2649D01*
X6877Y2911D02*
X6818Y2732D01*
X6972Y2732D01*
X3467Y4834D02*
X3479Y4822D01*
X3491Y4787D01*
X3491Y4763D01*
X3479Y4727D01*
X3455Y4703D01*
X3432Y4692D01*
X3384Y4680D01*
X3348Y4680D01*
X3301Y4692D01*
X3277Y4703D01*
X3253Y4727D01*
X3241Y4763D01*
X3241Y4787D01*
X3253Y4822D01*
X3265Y4834D01*
X3491Y5072D02*
X3491Y4930D01*
X3491Y5001D02*
X3241Y5001D01*
X3277Y4977D01*
X3301Y4953D01*
X3313Y4930D01*
X3265Y5168D02*
X3253Y5180D01*
X3241Y5203D01*
X3241Y5263D01*
X3253Y5287D01*
X3265Y5299D01*
X3289Y5310D01*
X3313Y5310D01*
X3348Y5299D01*
X3491Y5156D01*
X3491Y5310D01*
X8354Y8553D02*
X8342Y8541D01*
X8307Y8529D01*
X8283Y8529D01*
X8247Y8541D01*
X8223Y8565D01*
X8212Y8588D01*
X8200Y8636D01*
X8200Y8672D01*
X8212Y8719D01*
X8223Y8743D01*
X8247Y8767D01*
X8283Y8779D01*
X8307Y8779D01*
X8342Y8767D01*
X8354Y8755D01*
X8592Y8529D02*
X8450Y8529D01*
X8521Y8529D02*
X8521Y8779D01*
X8497Y8743D01*
X8473Y8719D01*
X8450Y8707D01*
X8819Y8779D02*
X8700Y8779D01*
X8688Y8660D01*
X8700Y8672D01*
X8723Y8684D01*
X8783Y8684D01*
X8807Y8672D01*
X8819Y8660D01*
X8830Y8636D01*
X8830Y8576D01*
X8819Y8553D01*
X8807Y8541D01*
X8783Y8529D01*
X8723Y8529D01*
X8700Y8541D01*
X8688Y8553D01*
X3393Y13039D02*
X3310Y13158D01*
X3251Y13039D02*
X3251Y13289D01*
X3346Y13289D01*
X3370Y13277D01*
X3381Y13265D01*
X3393Y13241D01*
X3393Y13205D01*
X3381Y13182D01*
X3370Y13170D01*
X3346Y13158D01*
X3251Y13158D01*
X3620Y13289D02*
X3501Y13289D01*
X3489Y13170D01*
X3501Y13182D01*
X3524Y13194D01*
X3584Y13194D01*
X3608Y13182D01*
X3620Y13170D01*
X3631Y13146D01*
X3631Y13086D01*
X3620Y13063D01*
X3608Y13051D01*
X3584Y13039D01*
X3524Y13039D01*
X3501Y13051D01*
X3489Y13063D01*
X19241Y14163D02*
X19122Y14080D01*
X19241Y14021D02*
X18991Y14021D01*
X18991Y14116D01*
X19003Y14140D01*
X19015Y14151D01*
X19039Y14163D01*
X19075Y14163D01*
X19098Y14151D01*
X19110Y14140D01*
X19122Y14116D01*
X19122Y14021D01*
X19075Y14378D02*
X19241Y14378D01*
X18979Y14318D02*
X19158Y14259D01*
X19158Y14413D01*
G54D25*
X16601Y8445D02*
X16587Y8431D01*
X16544Y8417D01*
X16515Y8417D01*
X16472Y8431D01*
X16444Y8459D01*
X16429Y8488D01*
X16415Y8545D01*
X16415Y8588D01*
X16429Y8645D01*
X16444Y8674D01*
X16472Y8702D01*
X16515Y8717D01*
X16544Y8717D01*
X16587Y8702D01*
X16601Y8688D01*
X16887Y8417D02*
X16715Y8417D01*
X16801Y8417D02*
X16801Y8717D01*
X16772Y8674D01*
X16744Y8645D01*
X16715Y8631D01*
X17073Y8717D02*
X17101Y8717D01*
X17130Y8702D01*
X17144Y8688D01*
X17158Y8659D01*
X17173Y8602D01*
X17173Y8531D01*
X17158Y8474D01*
X17144Y8445D01*
X17130Y8431D01*
X17101Y8417D01*
X17073Y8417D01*
X17044Y8431D01*
X17030Y8445D01*
X17015Y8474D01*
X17001Y8531D01*
X17001Y8602D01*
X17015Y8659D01*
X17030Y8688D01*
X17044Y8702D01*
X17073Y8717D01*
G54D20*
X15987Y8711D02*
X16444Y8711D01*
X16215Y8482D02*
X16215Y8939D01*
G54D25*
X8382Y3035D02*
X8363Y3016D01*
X8306Y2997D01*
X8268Y2997D01*
X8210Y3016D01*
X8172Y3054D01*
X8153Y3092D01*
X8134Y3169D01*
X8134Y3226D01*
X8153Y3302D01*
X8172Y3340D01*
X8210Y3378D01*
X8268Y3397D01*
X8306Y3397D01*
X8363Y3378D01*
X8382Y3359D01*
X8515Y3397D02*
X8763Y3397D01*
X8629Y3245D01*
X8687Y3245D01*
X8725Y3226D01*
X8744Y3207D01*
X8763Y3169D01*
X8763Y3073D01*
X8744Y3035D01*
X8725Y3016D01*
X8687Y2997D01*
X8572Y2997D01*
X8534Y3016D01*
X8515Y3035D01*
G54D20*
X9667Y1016D02*
X10124Y1016D01*
X9895Y787D02*
X9895Y1244D01*
G54D25*
X6479Y449D02*
X6460Y430D01*
X6403Y411D01*
X6365Y411D01*
X6307Y430D01*
X6269Y468D01*
X6250Y506D01*
X6231Y583D01*
X6231Y640D01*
X6250Y716D01*
X6269Y754D01*
X6307Y792D01*
X6365Y811D01*
X6403Y811D01*
X6460Y792D01*
X6479Y773D01*
X6860Y411D02*
X6631Y411D01*
X6745Y411D02*
X6745Y811D01*
X6707Y754D01*
X6669Y716D01*
X6631Y697D01*
X6993Y811D02*
X7241Y811D01*
X7107Y659D01*
X7165Y659D01*
X7203Y640D01*
X7222Y621D01*
X7241Y583D01*
X7241Y487D01*
X7222Y449D01*
X7203Y430D01*
X7165Y411D01*
X7050Y411D01*
X7012Y430D01*
X6993Y449D01*
G54D20*
X5662Y991D02*
X6119Y991D01*
X5890Y762D02*
X5890Y1219D01*
G54D25*
X8843Y12506D02*
X8824Y12487D01*
X8767Y12468D01*
X8729Y12468D01*
X8671Y12487D01*
X8633Y12525D01*
X8614Y12563D01*
X8595Y12640D01*
X8595Y12697D01*
X8614Y12773D01*
X8633Y12811D01*
X8671Y12849D01*
X8729Y12868D01*
X8767Y12868D01*
X8824Y12849D01*
X8843Y12830D01*
X9224Y12468D02*
X8995Y12468D01*
X9109Y12468D02*
X9109Y12868D01*
X9071Y12811D01*
X9033Y12773D01*
X8995Y12754D01*
X9605Y12468D02*
X9376Y12468D01*
X9490Y12468D02*
X9490Y12868D01*
X9452Y12811D01*
X9414Y12773D01*
X9376Y12754D01*
G54D20*
X11802Y11106D02*
X12259Y11106D01*
X12030Y10877D02*
X12030Y11334D01*
G54D13*
X1701Y9958D02*
X1582Y9875D01*
X1701Y9816D02*
X1451Y9816D01*
X1451Y9911D01*
X1463Y9935D01*
X1475Y9946D01*
X1499Y9958D01*
X1535Y9958D01*
X1558Y9946D01*
X1570Y9935D01*
X1582Y9911D01*
X1582Y9816D01*
X1451Y10173D02*
X1451Y10125D01*
X1463Y10101D01*
X1475Y10089D01*
X1511Y10066D01*
X1558Y10054D01*
X1654Y10054D01*
X1677Y10066D01*
X1689Y10077D01*
X1701Y10101D01*
X1701Y10149D01*
X1689Y10173D01*
X1677Y10185D01*
X1654Y10196D01*
X1594Y10196D01*
X1570Y10185D01*
X1558Y10173D01*
X1546Y10149D01*
X1546Y10101D01*
X1558Y10077D01*
X1570Y10066D01*
X1594Y10054D01*
G54D10*
X12028Y12959D02*
X12028Y13259D01*
X12143Y13259D01*
X12171Y13244D01*
X12186Y13230D01*
X12200Y13201D01*
X12200Y13159D01*
X12186Y13130D01*
X12171Y13116D01*
X12143Y13101D01*
X12028Y13101D01*
X12300Y13259D02*
X12486Y13259D01*
X12386Y13144D01*
X12428Y13144D01*
X12457Y13130D01*
X12471Y13116D01*
X12486Y13087D01*
X12486Y13016D01*
X12471Y12987D01*
X12457Y12973D01*
X12428Y12959D01*
X12343Y12959D01*
X12314Y12973D01*
X12300Y12987D01*
G36*
X2550Y1050D02*
X2250Y1050D01*
X2250Y1350D01*
X2550Y1350D01*
X2550Y1050D01*
X2550Y1050D01*
G37*
G54D11*
X2550Y1050D02*
X2250Y1050D01*
X2250Y1350D01*
X2550Y1350D01*
X2550Y1050D01*
M02*
