G04 (created by PCBNEW-RS274X (2011-nov-30)-testing) date Fri 27 Jul 2012 07:09:39 PM EDT*
%MOIN*%
G04 Gerber Fmt 3.4, Leading zero omitted, Abs format*
%FSLAX34Y34*%
G01*
G70*
G90*
G04 APERTURE LIST*
%ADD10C,0.006*%
%ADD11C,0.012*%
%ADD12R,0.055X0.055*%
%ADD13C,0.055*%
%ADD14C,0.035*%
%ADD15C,0.014*%
%ADD16C,0.01*%
G04 APERTURE END LIST*
G54D10*
G54D11*
X63246Y-41916D02*
X63703Y-42145D01*
X63246Y-42374D01*
X63017Y-41650D02*
X62646Y-41650D01*
X62846Y-41955D01*
X62760Y-41955D01*
X62703Y-41993D01*
X62674Y-42031D01*
X62646Y-42107D01*
X62646Y-42297D01*
X62674Y-42374D01*
X62703Y-42412D01*
X62760Y-42450D01*
X62932Y-42450D01*
X62989Y-42412D01*
X63017Y-42374D01*
G54D12*
X56398Y-31811D03*
G54D13*
X57398Y-31811D03*
X58398Y-31811D03*
X59398Y-31811D03*
X60398Y-31811D03*
G54D14*
X68532Y-45042D03*
X50152Y-43378D03*
X48734Y-44478D03*
X47478Y-45380D03*
X59034Y-26716D03*
X47140Y-43262D03*
X56934Y-25608D03*
X70604Y-43802D03*
G54D15*
X60398Y-31811D02*
X68532Y-45042D01*
X48734Y-44478D02*
X50152Y-43378D01*
X59398Y-31811D02*
X58870Y-32586D01*
X49410Y-42914D02*
X47478Y-45380D01*
X58870Y-32586D02*
X49410Y-42914D01*
X58398Y-31811D02*
X59034Y-26716D01*
G54D10*
G36*
X72299Y-43504D02*
X69643Y-48103D01*
X68954Y-48103D01*
X68954Y-45126D01*
X68954Y-44958D01*
X68890Y-44803D01*
X68771Y-44684D01*
X68662Y-44639D01*
X60885Y-31998D01*
X60920Y-31916D01*
X60920Y-31708D01*
X60841Y-31516D01*
X60694Y-31369D01*
X60503Y-31289D01*
X60295Y-31289D01*
X60103Y-31368D01*
X59956Y-31515D01*
X59897Y-31653D01*
X59841Y-31516D01*
X59694Y-31369D01*
X59503Y-31289D01*
X59295Y-31289D01*
X59103Y-31368D01*
X58956Y-31515D01*
X58897Y-31653D01*
X58841Y-31516D01*
X58764Y-31439D01*
X59312Y-27034D01*
X59392Y-26955D01*
X59456Y-26800D01*
X59456Y-26632D01*
X59392Y-26477D01*
X59273Y-26358D01*
X59118Y-26294D01*
X58950Y-26294D01*
X58795Y-26358D01*
X58676Y-26477D01*
X58612Y-26632D01*
X58612Y-26800D01*
X58676Y-26955D01*
X58682Y-26961D01*
X58134Y-31354D01*
X58103Y-31368D01*
X57983Y-31487D01*
X57923Y-31479D01*
X57730Y-31672D01*
X57730Y-31286D01*
X57711Y-31148D01*
X57433Y-31078D01*
X57151Y-31121D01*
X57085Y-31148D01*
X57066Y-31286D01*
X57398Y-31617D01*
X57730Y-31286D01*
X57730Y-31672D01*
X57592Y-31811D01*
X57923Y-32143D01*
X57983Y-32134D01*
X58102Y-32253D01*
X58293Y-32333D01*
X58501Y-32333D01*
X58693Y-32254D01*
X58753Y-32193D01*
X58608Y-32405D01*
X57730Y-33363D01*
X57730Y-32336D01*
X57398Y-32005D01*
X57204Y-32198D01*
X57204Y-31811D01*
X56919Y-31525D01*
X56919Y-31487D01*
X56882Y-31397D01*
X56812Y-31327D01*
X56722Y-31290D01*
X56624Y-31290D01*
X56074Y-31290D01*
X55984Y-31327D01*
X55914Y-31397D01*
X55877Y-31487D01*
X55877Y-31585D01*
X55877Y-32135D01*
X55914Y-32225D01*
X55984Y-32295D01*
X56074Y-32332D01*
X56172Y-32332D01*
X56722Y-32332D01*
X56812Y-32295D01*
X56882Y-32225D01*
X56919Y-32135D01*
X56919Y-32096D01*
X57204Y-31811D01*
X57204Y-32198D01*
X57066Y-32336D01*
X57085Y-32474D01*
X57363Y-32544D01*
X57645Y-32501D01*
X57711Y-32474D01*
X57730Y-32336D01*
X57730Y-33363D01*
X49176Y-42700D01*
X49166Y-42714D01*
X49161Y-42720D01*
X47920Y-44302D01*
X47920Y-32163D01*
X47920Y-31814D01*
X47787Y-31492D01*
X47540Y-31245D01*
X47218Y-31111D01*
X46869Y-31111D01*
X46547Y-31244D01*
X46300Y-31491D01*
X46166Y-31813D01*
X46166Y-32162D01*
X46299Y-32484D01*
X46546Y-32731D01*
X46868Y-32865D01*
X47217Y-32865D01*
X47539Y-32732D01*
X47786Y-32485D01*
X47920Y-32163D01*
X47920Y-44302D01*
X47406Y-44958D01*
X47394Y-44958D01*
X47239Y-45022D01*
X47120Y-45141D01*
X47056Y-45296D01*
X47056Y-45464D01*
X47120Y-45619D01*
X47239Y-45738D01*
X47394Y-45802D01*
X47562Y-45802D01*
X47717Y-45738D01*
X47836Y-45619D01*
X47900Y-45464D01*
X47900Y-45355D01*
X48389Y-44730D01*
X48495Y-44836D01*
X48650Y-44900D01*
X48818Y-44900D01*
X48973Y-44836D01*
X49092Y-44717D01*
X49156Y-44562D01*
X49156Y-44551D01*
X50125Y-43800D01*
X50236Y-43800D01*
X50391Y-43736D01*
X50510Y-43617D01*
X50574Y-43462D01*
X50574Y-43294D01*
X50510Y-43139D01*
X50391Y-43020D01*
X50236Y-42956D01*
X50068Y-42956D01*
X49913Y-43020D01*
X49794Y-43139D01*
X49730Y-43294D01*
X49730Y-43304D01*
X49163Y-43743D01*
X49660Y-43111D01*
X49660Y-43109D01*
X59105Y-32803D01*
X59122Y-32774D01*
X59132Y-32765D01*
X59426Y-32333D01*
X59501Y-32333D01*
X59693Y-32254D01*
X59840Y-32107D01*
X59898Y-31968D01*
X59955Y-32106D01*
X60102Y-32253D01*
X60293Y-32333D01*
X60347Y-32333D01*
X68111Y-44954D01*
X68110Y-44958D01*
X68110Y-45126D01*
X68174Y-45281D01*
X68293Y-45400D01*
X68448Y-45464D01*
X68616Y-45464D01*
X68771Y-45400D01*
X68890Y-45281D01*
X68954Y-45126D01*
X68954Y-48103D01*
X64153Y-48103D01*
X64153Y-42993D01*
X64153Y-41139D01*
X62225Y-41139D01*
X62225Y-42993D01*
X64153Y-42993D01*
X64153Y-48103D01*
X64147Y-48103D01*
X64103Y-48111D01*
X64064Y-48114D01*
X64043Y-48123D01*
X64024Y-48128D01*
X63987Y-48151D01*
X63951Y-48170D01*
X63938Y-48184D01*
X63919Y-48197D01*
X63895Y-48233D01*
X63868Y-48264D01*
X61119Y-53024D01*
X59342Y-53024D01*
X59342Y-51946D01*
X59342Y-51597D01*
X59209Y-51275D01*
X58962Y-51028D01*
X58640Y-50894D01*
X58291Y-50894D01*
X57969Y-51027D01*
X57722Y-51274D01*
X57588Y-51596D01*
X57588Y-51945D01*
X57721Y-52267D01*
X57968Y-52514D01*
X58290Y-52648D01*
X58639Y-52648D01*
X58961Y-52515D01*
X59208Y-52268D01*
X59342Y-51946D01*
X59342Y-53024D01*
X55809Y-53024D01*
X53061Y-48264D01*
X53033Y-48233D01*
X53010Y-48197D01*
X52990Y-48184D01*
X52978Y-48170D01*
X52941Y-48151D01*
X52905Y-48128D01*
X52885Y-48123D01*
X52865Y-48114D01*
X52822Y-48111D01*
X52782Y-48103D01*
X47285Y-48103D01*
X44629Y-43504D01*
X47378Y-38744D01*
X47390Y-38707D01*
X47411Y-38666D01*
X47412Y-38641D01*
X47418Y-38625D01*
X47415Y-38585D01*
X47418Y-38541D01*
X47411Y-38521D01*
X47410Y-38500D01*
X47392Y-38464D01*
X47378Y-38422D01*
X44629Y-33661D01*
X47285Y-29062D01*
X52782Y-29062D01*
X52822Y-29053D01*
X52865Y-29051D01*
X52885Y-29041D01*
X52905Y-29037D01*
X52941Y-29013D01*
X52978Y-28995D01*
X52990Y-28980D01*
X53010Y-28968D01*
X53033Y-28931D01*
X53061Y-28901D01*
X55809Y-24141D01*
X61119Y-24141D01*
X63868Y-28901D01*
X63895Y-28931D01*
X63919Y-28968D01*
X63938Y-28980D01*
X63951Y-28995D01*
X63987Y-29013D01*
X64024Y-29037D01*
X64043Y-29041D01*
X64064Y-29051D01*
X64103Y-29053D01*
X64147Y-29062D01*
X69643Y-29062D01*
X72299Y-33661D01*
X70764Y-36320D01*
X70764Y-32163D01*
X70764Y-31814D01*
X70631Y-31492D01*
X70384Y-31245D01*
X70062Y-31111D01*
X69713Y-31111D01*
X69391Y-31244D01*
X69144Y-31491D01*
X69010Y-31813D01*
X69010Y-32162D01*
X69143Y-32484D01*
X69390Y-32731D01*
X69712Y-32865D01*
X70061Y-32865D01*
X70383Y-32732D01*
X70630Y-32485D01*
X70764Y-32163D01*
X70764Y-36320D01*
X69551Y-38422D01*
X69536Y-38463D01*
X69519Y-38500D01*
X69517Y-38521D01*
X69511Y-38541D01*
X69513Y-38583D01*
X69511Y-38625D01*
X69517Y-38644D01*
X69519Y-38666D01*
X69536Y-38702D01*
X69551Y-38744D01*
X72299Y-43504D01*
X72299Y-43504D01*
G37*
G54D16*
X72299Y-43504D02*
X69643Y-48103D01*
X68954Y-48103D01*
X68954Y-45126D01*
X68954Y-44958D01*
X68890Y-44803D01*
X68771Y-44684D01*
X68662Y-44639D01*
X60885Y-31998D01*
X60920Y-31916D01*
X60920Y-31708D01*
X60841Y-31516D01*
X60694Y-31369D01*
X60503Y-31289D01*
X60295Y-31289D01*
X60103Y-31368D01*
X59956Y-31515D01*
X59897Y-31653D01*
X59841Y-31516D01*
X59694Y-31369D01*
X59503Y-31289D01*
X59295Y-31289D01*
X59103Y-31368D01*
X58956Y-31515D01*
X58897Y-31653D01*
X58841Y-31516D01*
X58764Y-31439D01*
X59312Y-27034D01*
X59392Y-26955D01*
X59456Y-26800D01*
X59456Y-26632D01*
X59392Y-26477D01*
X59273Y-26358D01*
X59118Y-26294D01*
X58950Y-26294D01*
X58795Y-26358D01*
X58676Y-26477D01*
X58612Y-26632D01*
X58612Y-26800D01*
X58676Y-26955D01*
X58682Y-26961D01*
X58134Y-31354D01*
X58103Y-31368D01*
X57983Y-31487D01*
X57923Y-31479D01*
X57730Y-31672D01*
X57730Y-31286D01*
X57711Y-31148D01*
X57433Y-31078D01*
X57151Y-31121D01*
X57085Y-31148D01*
X57066Y-31286D01*
X57398Y-31617D01*
X57730Y-31286D01*
X57730Y-31672D01*
X57592Y-31811D01*
X57923Y-32143D01*
X57983Y-32134D01*
X58102Y-32253D01*
X58293Y-32333D01*
X58501Y-32333D01*
X58693Y-32254D01*
X58753Y-32193D01*
X58608Y-32405D01*
X57730Y-33363D01*
X57730Y-32336D01*
X57398Y-32005D01*
X57204Y-32198D01*
X57204Y-31811D01*
X56919Y-31525D01*
X56919Y-31487D01*
X56882Y-31397D01*
X56812Y-31327D01*
X56722Y-31290D01*
X56624Y-31290D01*
X56074Y-31290D01*
X55984Y-31327D01*
X55914Y-31397D01*
X55877Y-31487D01*
X55877Y-31585D01*
X55877Y-32135D01*
X55914Y-32225D01*
X55984Y-32295D01*
X56074Y-32332D01*
X56172Y-32332D01*
X56722Y-32332D01*
X56812Y-32295D01*
X56882Y-32225D01*
X56919Y-32135D01*
X56919Y-32096D01*
X57204Y-31811D01*
X57204Y-32198D01*
X57066Y-32336D01*
X57085Y-32474D01*
X57363Y-32544D01*
X57645Y-32501D01*
X57711Y-32474D01*
X57730Y-32336D01*
X57730Y-33363D01*
X49176Y-42700D01*
X49166Y-42714D01*
X49161Y-42720D01*
X47920Y-44302D01*
X47920Y-32163D01*
X47920Y-31814D01*
X47787Y-31492D01*
X47540Y-31245D01*
X47218Y-31111D01*
X46869Y-31111D01*
X46547Y-31244D01*
X46300Y-31491D01*
X46166Y-31813D01*
X46166Y-32162D01*
X46299Y-32484D01*
X46546Y-32731D01*
X46868Y-32865D01*
X47217Y-32865D01*
X47539Y-32732D01*
X47786Y-32485D01*
X47920Y-32163D01*
X47920Y-44302D01*
X47406Y-44958D01*
X47394Y-44958D01*
X47239Y-45022D01*
X47120Y-45141D01*
X47056Y-45296D01*
X47056Y-45464D01*
X47120Y-45619D01*
X47239Y-45738D01*
X47394Y-45802D01*
X47562Y-45802D01*
X47717Y-45738D01*
X47836Y-45619D01*
X47900Y-45464D01*
X47900Y-45355D01*
X48389Y-44730D01*
X48495Y-44836D01*
X48650Y-44900D01*
X48818Y-44900D01*
X48973Y-44836D01*
X49092Y-44717D01*
X49156Y-44562D01*
X49156Y-44551D01*
X50125Y-43800D01*
X50236Y-43800D01*
X50391Y-43736D01*
X50510Y-43617D01*
X50574Y-43462D01*
X50574Y-43294D01*
X50510Y-43139D01*
X50391Y-43020D01*
X50236Y-42956D01*
X50068Y-42956D01*
X49913Y-43020D01*
X49794Y-43139D01*
X49730Y-43294D01*
X49730Y-43304D01*
X49163Y-43743D01*
X49660Y-43111D01*
X49660Y-43109D01*
X59105Y-32803D01*
X59122Y-32774D01*
X59132Y-32765D01*
X59426Y-32333D01*
X59501Y-32333D01*
X59693Y-32254D01*
X59840Y-32107D01*
X59898Y-31968D01*
X59955Y-32106D01*
X60102Y-32253D01*
X60293Y-32333D01*
X60347Y-32333D01*
X68111Y-44954D01*
X68110Y-44958D01*
X68110Y-45126D01*
X68174Y-45281D01*
X68293Y-45400D01*
X68448Y-45464D01*
X68616Y-45464D01*
X68771Y-45400D01*
X68890Y-45281D01*
X68954Y-45126D01*
X68954Y-48103D01*
X64153Y-48103D01*
X64153Y-42993D01*
X64153Y-41139D01*
X62225Y-41139D01*
X62225Y-42993D01*
X64153Y-42993D01*
X64153Y-48103D01*
X64147Y-48103D01*
X64103Y-48111D01*
X64064Y-48114D01*
X64043Y-48123D01*
X64024Y-48128D01*
X63987Y-48151D01*
X63951Y-48170D01*
X63938Y-48184D01*
X63919Y-48197D01*
X63895Y-48233D01*
X63868Y-48264D01*
X61119Y-53024D01*
X59342Y-53024D01*
X59342Y-51946D01*
X59342Y-51597D01*
X59209Y-51275D01*
X58962Y-51028D01*
X58640Y-50894D01*
X58291Y-50894D01*
X57969Y-51027D01*
X57722Y-51274D01*
X57588Y-51596D01*
X57588Y-51945D01*
X57721Y-52267D01*
X57968Y-52514D01*
X58290Y-52648D01*
X58639Y-52648D01*
X58961Y-52515D01*
X59208Y-52268D01*
X59342Y-51946D01*
X59342Y-53024D01*
X55809Y-53024D01*
X53061Y-48264D01*
X53033Y-48233D01*
X53010Y-48197D01*
X52990Y-48184D01*
X52978Y-48170D01*
X52941Y-48151D01*
X52905Y-48128D01*
X52885Y-48123D01*
X52865Y-48114D01*
X52822Y-48111D01*
X52782Y-48103D01*
X47285Y-48103D01*
X44629Y-43504D01*
X47378Y-38744D01*
X47390Y-38707D01*
X47411Y-38666D01*
X47412Y-38641D01*
X47418Y-38625D01*
X47415Y-38585D01*
X47418Y-38541D01*
X47411Y-38521D01*
X47410Y-38500D01*
X47392Y-38464D01*
X47378Y-38422D01*
X44629Y-33661D01*
X47285Y-29062D01*
X52782Y-29062D01*
X52822Y-29053D01*
X52865Y-29051D01*
X52885Y-29041D01*
X52905Y-29037D01*
X52941Y-29013D01*
X52978Y-28995D01*
X52990Y-28980D01*
X53010Y-28968D01*
X53033Y-28931D01*
X53061Y-28901D01*
X55809Y-24141D01*
X61119Y-24141D01*
X63868Y-28901D01*
X63895Y-28931D01*
X63919Y-28968D01*
X63938Y-28980D01*
X63951Y-28995D01*
X63987Y-29013D01*
X64024Y-29037D01*
X64043Y-29041D01*
X64064Y-29051D01*
X64103Y-29053D01*
X64147Y-29062D01*
X69643Y-29062D01*
X72299Y-33661D01*
X70764Y-36320D01*
X70764Y-32163D01*
X70764Y-31814D01*
X70631Y-31492D01*
X70384Y-31245D01*
X70062Y-31111D01*
X69713Y-31111D01*
X69391Y-31244D01*
X69144Y-31491D01*
X69010Y-31813D01*
X69010Y-32162D01*
X69143Y-32484D01*
X69390Y-32731D01*
X69712Y-32865D01*
X70061Y-32865D01*
X70383Y-32732D01*
X70630Y-32485D01*
X70764Y-32163D01*
X70764Y-36320D01*
X69551Y-38422D01*
X69536Y-38463D01*
X69519Y-38500D01*
X69517Y-38521D01*
X69511Y-38541D01*
X69513Y-38583D01*
X69511Y-38625D01*
X69517Y-38644D01*
X69519Y-38666D01*
X69536Y-38702D01*
X69551Y-38744D01*
X72299Y-43504D01*
M02*
