G04 (created by PCBNEW-RS274X (2011-nov-30)-testing) date Wed 15 Aug 2012 04:31:39 PM EDT*
%MOIN*%
G04 Gerber Fmt 3.4, Leading zero omitted, Abs format*
%FSLAX34Y34*%
G01*
G70*
G90*
G04 APERTURE LIST*
%ADD10C,0.006*%
%ADD11C,0.015*%
%ADD12C,0.0075*%
%ADD13C,0.0079*%
%ADD14C,0.0099*%
%ADD15C,0.012*%
%ADD16C,0.005*%
%ADD17C,0.0157*%
%ADD18C,0.0039*%
G04 APERTURE END LIST*
G54D10*
G54D11*
X68770Y-47300D02*
X69340Y-47300D01*
G54D12*
X68829Y-47881D02*
X68729Y-47739D01*
X68657Y-47881D02*
X68657Y-47581D01*
X68772Y-47581D01*
X68800Y-47596D01*
X68815Y-47610D01*
X68829Y-47639D01*
X68829Y-47681D01*
X68815Y-47710D01*
X68800Y-47724D01*
X68772Y-47739D01*
X68657Y-47739D01*
X69072Y-47867D02*
X69043Y-47881D01*
X68986Y-47881D01*
X68957Y-47867D01*
X68943Y-47839D01*
X68943Y-47724D01*
X68957Y-47696D01*
X68986Y-47681D01*
X69043Y-47681D01*
X69072Y-47696D01*
X69086Y-47724D01*
X69086Y-47753D01*
X68943Y-47781D01*
X69186Y-47681D02*
X69257Y-47881D01*
X69329Y-47681D01*
X69443Y-47853D02*
X69458Y-47867D01*
X69443Y-47881D01*
X69429Y-47867D01*
X69443Y-47853D01*
X69443Y-47881D01*
G54D13*
X64121Y-46725D02*
X64158Y-46725D01*
X64196Y-46744D01*
X64215Y-46763D01*
X64233Y-46801D01*
X64252Y-46876D01*
X64252Y-46969D01*
X64233Y-47044D01*
X64215Y-47082D01*
X64196Y-47101D01*
X64158Y-47119D01*
X64121Y-47119D01*
X64083Y-47101D01*
X64065Y-47082D01*
X64046Y-47044D01*
X64027Y-46969D01*
X64027Y-46876D01*
X64046Y-46801D01*
X64065Y-46763D01*
X64083Y-46744D01*
X64121Y-46725D01*
X64402Y-46763D02*
X64421Y-46744D01*
X64458Y-46725D01*
X64552Y-46725D01*
X64590Y-46744D01*
X64608Y-46763D01*
X64627Y-46801D01*
X64627Y-46838D01*
X64608Y-46894D01*
X64383Y-47119D01*
X64627Y-47119D01*
X64871Y-46725D02*
X64908Y-46725D01*
X64946Y-46744D01*
X64965Y-46763D01*
X64983Y-46801D01*
X65002Y-46876D01*
X65002Y-46969D01*
X64983Y-47044D01*
X64965Y-47082D01*
X64946Y-47101D01*
X64908Y-47119D01*
X64871Y-47119D01*
X64833Y-47101D01*
X64815Y-47082D01*
X64796Y-47044D01*
X64777Y-46969D01*
X64777Y-46876D01*
X64796Y-46801D01*
X64815Y-46763D01*
X64833Y-46744D01*
X64871Y-46725D01*
X65246Y-46725D02*
X65283Y-46725D01*
X65321Y-46744D01*
X65340Y-46763D01*
X65358Y-46801D01*
X65377Y-46876D01*
X65377Y-46969D01*
X65358Y-47044D01*
X65340Y-47082D01*
X65321Y-47101D01*
X65283Y-47119D01*
X65246Y-47119D01*
X65208Y-47101D01*
X65190Y-47082D01*
X65171Y-47044D01*
X65152Y-46969D01*
X65152Y-46876D01*
X65171Y-46801D01*
X65190Y-46763D01*
X65208Y-46744D01*
X65246Y-46725D01*
X65546Y-46969D02*
X65846Y-46969D01*
X66109Y-46725D02*
X66146Y-46725D01*
X66184Y-46744D01*
X66203Y-46763D01*
X66221Y-46801D01*
X66240Y-46876D01*
X66240Y-46969D01*
X66221Y-47044D01*
X66203Y-47082D01*
X66184Y-47101D01*
X66146Y-47119D01*
X66109Y-47119D01*
X66071Y-47101D01*
X66053Y-47082D01*
X66034Y-47044D01*
X66015Y-46969D01*
X66015Y-46876D01*
X66034Y-46801D01*
X66053Y-46763D01*
X66071Y-46744D01*
X66109Y-46725D01*
X66484Y-46725D02*
X66521Y-46725D01*
X66559Y-46744D01*
X66578Y-46763D01*
X66596Y-46801D01*
X66615Y-46876D01*
X66615Y-46969D01*
X66596Y-47044D01*
X66578Y-47082D01*
X66559Y-47101D01*
X66521Y-47119D01*
X66484Y-47119D01*
X66446Y-47101D01*
X66428Y-47082D01*
X66409Y-47044D01*
X66390Y-46969D01*
X66390Y-46876D01*
X66409Y-46801D01*
X66428Y-46763D01*
X66446Y-46744D01*
X66484Y-46725D01*
X66859Y-46725D02*
X66896Y-46725D01*
X66934Y-46744D01*
X66953Y-46763D01*
X66971Y-46801D01*
X66990Y-46876D01*
X66990Y-46969D01*
X66971Y-47044D01*
X66953Y-47082D01*
X66934Y-47101D01*
X66896Y-47119D01*
X66859Y-47119D01*
X66821Y-47101D01*
X66803Y-47082D01*
X66784Y-47044D01*
X66765Y-46969D01*
X66765Y-46876D01*
X66784Y-46801D01*
X66803Y-46763D01*
X66821Y-46744D01*
X66859Y-46725D01*
X67328Y-46725D02*
X67253Y-46725D01*
X67215Y-46744D01*
X67196Y-46763D01*
X67159Y-46819D01*
X67140Y-46894D01*
X67140Y-47044D01*
X67159Y-47082D01*
X67178Y-47101D01*
X67215Y-47119D01*
X67290Y-47119D01*
X67328Y-47101D01*
X67346Y-47082D01*
X67365Y-47044D01*
X67365Y-46951D01*
X67346Y-46913D01*
X67328Y-46894D01*
X67290Y-46876D01*
X67215Y-46876D01*
X67178Y-46894D01*
X67159Y-46913D01*
X67140Y-46951D01*
X67534Y-46969D02*
X67834Y-46969D01*
X68097Y-46725D02*
X68134Y-46725D01*
X68172Y-46744D01*
X68191Y-46763D01*
X68209Y-46801D01*
X68228Y-46876D01*
X68228Y-46969D01*
X68209Y-47044D01*
X68191Y-47082D01*
X68172Y-47101D01*
X68134Y-47119D01*
X68097Y-47119D01*
X68059Y-47101D01*
X68041Y-47082D01*
X68022Y-47044D01*
X68003Y-46969D01*
X68003Y-46876D01*
X68022Y-46801D01*
X68041Y-46763D01*
X68059Y-46744D01*
X68097Y-46725D01*
X68472Y-46725D02*
X68509Y-46725D01*
X68547Y-46744D01*
X68566Y-46763D01*
X68584Y-46801D01*
X68603Y-46876D01*
X68603Y-46969D01*
X68584Y-47044D01*
X68566Y-47082D01*
X68547Y-47101D01*
X68509Y-47119D01*
X68472Y-47119D01*
X68434Y-47101D01*
X68416Y-47082D01*
X68397Y-47044D01*
X68378Y-46969D01*
X68378Y-46876D01*
X68397Y-46801D01*
X68416Y-46763D01*
X68434Y-46744D01*
X68472Y-46725D01*
X68847Y-46725D02*
X68884Y-46725D01*
X68922Y-46744D01*
X68941Y-46763D01*
X68959Y-46801D01*
X68978Y-46876D01*
X68978Y-46969D01*
X68959Y-47044D01*
X68941Y-47082D01*
X68922Y-47101D01*
X68884Y-47119D01*
X68847Y-47119D01*
X68809Y-47101D01*
X68791Y-47082D01*
X68772Y-47044D01*
X68753Y-46969D01*
X68753Y-46876D01*
X68772Y-46801D01*
X68791Y-46763D01*
X68809Y-46744D01*
X68847Y-46725D01*
X69353Y-47119D02*
X69128Y-47119D01*
X69241Y-47119D02*
X69241Y-46725D01*
X69203Y-46782D01*
X69166Y-46819D01*
X69128Y-46838D01*
G54D14*
X62590Y-48395D02*
X62590Y-47595D01*
X62778Y-48395D02*
X62778Y-47595D01*
X62966Y-48395D02*
X62966Y-47595D01*
X63154Y-48395D02*
X63154Y-47595D01*
X63342Y-48395D02*
X63342Y-47595D01*
X62688Y-48395D02*
X62688Y-47595D01*
X62876Y-48395D02*
X62876Y-47595D01*
X63064Y-48395D02*
X63064Y-47595D01*
X63252Y-48395D02*
X63252Y-47595D01*
X63440Y-48395D02*
X63440Y-47595D01*
X62989Y-47382D02*
X62952Y-47354D01*
X62914Y-47298D01*
X62858Y-47213D01*
X62821Y-47185D01*
X62783Y-47185D01*
X62802Y-47326D02*
X62764Y-47298D01*
X62727Y-47241D01*
X62708Y-47129D01*
X62708Y-46932D01*
X62727Y-46819D01*
X62764Y-46763D01*
X62802Y-46735D01*
X62877Y-46735D01*
X62914Y-46763D01*
X62952Y-46819D01*
X62971Y-46932D01*
X62971Y-47129D01*
X62952Y-47241D01*
X62914Y-47298D01*
X62877Y-47326D01*
X62802Y-47326D01*
X63121Y-47157D02*
X63309Y-47157D01*
X63084Y-47326D02*
X63215Y-46735D01*
X63346Y-47326D01*
X60447Y-32823D02*
X60428Y-32879D01*
X60409Y-32898D01*
X60372Y-32917D01*
X60316Y-32917D01*
X60278Y-32898D01*
X60259Y-32879D01*
X60241Y-32842D01*
X60241Y-32692D01*
X60635Y-32692D01*
X60635Y-32823D01*
X60616Y-32861D01*
X60597Y-32879D01*
X60559Y-32898D01*
X60522Y-32898D01*
X60484Y-32879D01*
X60466Y-32861D01*
X60447Y-32823D01*
X60447Y-32692D01*
X60203Y-32992D02*
X60203Y-33292D01*
X60447Y-33386D02*
X60447Y-33517D01*
X60241Y-33573D02*
X60241Y-33386D01*
X60635Y-33386D01*
X60635Y-33573D01*
X60241Y-33742D02*
X60635Y-33742D01*
X60241Y-33967D01*
X60635Y-33967D01*
X59612Y-32898D02*
X59631Y-32861D01*
X59631Y-32804D01*
X59612Y-32748D01*
X59574Y-32711D01*
X59537Y-32692D01*
X59462Y-32673D01*
X59405Y-32673D01*
X59330Y-32692D01*
X59293Y-32711D01*
X59255Y-32748D01*
X59237Y-32804D01*
X59237Y-32842D01*
X59255Y-32898D01*
X59274Y-32917D01*
X59405Y-32917D01*
X59405Y-32842D01*
X59199Y-32992D02*
X59199Y-33292D01*
X59443Y-33386D02*
X59443Y-33517D01*
X59237Y-33573D02*
X59237Y-33386D01*
X59631Y-33386D01*
X59631Y-33573D01*
X59237Y-33742D02*
X59631Y-33742D01*
X59237Y-33967D01*
X59631Y-33967D01*
X58242Y-32917D02*
X58429Y-32786D01*
X58242Y-32692D02*
X58636Y-32692D01*
X58636Y-32842D01*
X58617Y-32879D01*
X58598Y-32898D01*
X58560Y-32917D01*
X58504Y-32917D01*
X58467Y-32898D01*
X58448Y-32879D01*
X58429Y-32842D01*
X58429Y-32692D01*
X58204Y-32992D02*
X58204Y-33292D01*
X58448Y-33386D02*
X58448Y-33517D01*
X58242Y-33573D02*
X58242Y-33386D01*
X58636Y-33386D01*
X58636Y-33573D01*
X58242Y-33742D02*
X58636Y-33742D01*
X58242Y-33967D01*
X58636Y-33967D01*
X57609Y-32898D02*
X57628Y-32861D01*
X57628Y-32804D01*
X57609Y-32748D01*
X57571Y-32711D01*
X57534Y-32692D01*
X57459Y-32673D01*
X57402Y-32673D01*
X57327Y-32692D01*
X57290Y-32711D01*
X57252Y-32748D01*
X57234Y-32804D01*
X57234Y-32842D01*
X57252Y-32898D01*
X57271Y-32917D01*
X57402Y-32917D01*
X57402Y-32842D01*
X57234Y-33086D02*
X57628Y-33086D01*
X57234Y-33311D01*
X57628Y-33311D01*
X57234Y-33499D02*
X57628Y-33499D01*
X57628Y-33593D01*
X57609Y-33649D01*
X57571Y-33686D01*
X57534Y-33705D01*
X57459Y-33724D01*
X57402Y-33724D01*
X57327Y-33705D01*
X57290Y-33686D01*
X57252Y-33649D01*
X57234Y-33593D01*
X57234Y-33499D01*
G54D15*
X57981Y-42114D02*
X57745Y-41733D01*
X57576Y-42114D02*
X57576Y-41314D01*
X57846Y-41314D01*
X57913Y-41352D01*
X57947Y-41390D01*
X57981Y-41466D01*
X57981Y-41580D01*
X57947Y-41657D01*
X57913Y-41695D01*
X57846Y-41733D01*
X57576Y-41733D01*
X58656Y-41352D02*
X58589Y-41314D01*
X58487Y-41314D01*
X58386Y-41352D01*
X58319Y-41428D01*
X58285Y-41504D01*
X58251Y-41657D01*
X58251Y-41771D01*
X58285Y-41923D01*
X58319Y-42000D01*
X58386Y-42076D01*
X58487Y-42114D01*
X58555Y-42114D01*
X58656Y-42076D01*
X58690Y-42038D01*
X58690Y-41771D01*
X58555Y-41771D01*
X59230Y-41695D02*
X59331Y-41733D01*
X59365Y-41771D01*
X59399Y-41847D01*
X59399Y-41961D01*
X59365Y-42038D01*
X59331Y-42076D01*
X59264Y-42114D01*
X58994Y-42114D01*
X58994Y-41314D01*
X59230Y-41314D01*
X59298Y-41352D01*
X59331Y-41390D01*
X59365Y-41466D01*
X59365Y-41542D01*
X59331Y-41619D01*
X59298Y-41657D01*
X59230Y-41695D01*
X58994Y-41695D01*
X56108Y-43354D02*
X56108Y-42554D01*
X56108Y-42935D02*
X56513Y-42935D01*
X56513Y-43354D02*
X56513Y-42554D01*
X56851Y-42935D02*
X57087Y-42935D01*
X57188Y-43354D02*
X56851Y-43354D01*
X56851Y-42554D01*
X57188Y-42554D01*
X57424Y-42554D02*
X57897Y-43354D01*
X57897Y-42554D02*
X57424Y-43354D01*
X58133Y-43125D02*
X58471Y-43125D01*
X58066Y-43354D02*
X58302Y-42554D01*
X58538Y-43354D01*
X58876Y-43354D02*
X58809Y-43316D01*
X58775Y-43240D01*
X58775Y-42554D01*
X59146Y-43354D02*
X59146Y-42820D01*
X59146Y-42554D02*
X59112Y-42592D01*
X59146Y-42630D01*
X59180Y-42592D01*
X59146Y-42554D01*
X59146Y-42630D01*
X59788Y-42820D02*
X59788Y-43468D01*
X59754Y-43544D01*
X59720Y-43582D01*
X59653Y-43620D01*
X59551Y-43620D01*
X59484Y-43582D01*
X59788Y-43316D02*
X59720Y-43354D01*
X59585Y-43354D01*
X59518Y-43316D01*
X59484Y-43278D01*
X59450Y-43201D01*
X59450Y-42973D01*
X59484Y-42897D01*
X59518Y-42859D01*
X59585Y-42820D01*
X59720Y-42820D01*
X59788Y-42859D01*
X60125Y-43354D02*
X60125Y-42554D01*
X60429Y-43354D02*
X60429Y-42935D01*
X60395Y-42859D01*
X60327Y-42820D01*
X60226Y-42820D01*
X60159Y-42859D01*
X60125Y-42897D01*
X60665Y-42820D02*
X60935Y-42820D01*
X60766Y-42554D02*
X60766Y-43240D01*
X60800Y-43316D01*
X60867Y-43354D01*
X60935Y-43354D01*
G54D14*
X56247Y-32898D02*
X56247Y-32673D01*
X56247Y-32786D02*
X56641Y-32786D01*
X56584Y-32748D01*
X56547Y-32711D01*
X56528Y-32673D01*
X56603Y-33048D02*
X56622Y-33067D01*
X56641Y-33104D01*
X56641Y-33198D01*
X56622Y-33236D01*
X56603Y-33254D01*
X56565Y-33273D01*
X56528Y-33273D01*
X56472Y-33254D01*
X56247Y-33029D01*
X56247Y-33273D01*
X56641Y-33386D02*
X56247Y-33517D01*
X56641Y-33648D01*
G54D16*
X57181Y-25785D02*
X57181Y-25385D01*
X57181Y-25385D02*
X57781Y-25385D01*
X57781Y-25385D02*
X57781Y-25785D01*
X57781Y-26185D02*
X57781Y-26585D01*
X57781Y-26585D02*
X57181Y-26585D01*
X57181Y-26585D02*
X57181Y-26185D01*
X47110Y-43577D02*
X47457Y-43377D01*
X47457Y-43377D02*
X47757Y-43897D01*
X47757Y-43897D02*
X47410Y-44097D01*
X47064Y-44297D02*
X46717Y-44497D01*
X46717Y-44497D02*
X46417Y-43977D01*
X46417Y-43977D02*
X46764Y-43777D01*
X70323Y-43934D02*
X70670Y-44134D01*
X70670Y-44134D02*
X70370Y-44654D01*
X70370Y-44654D02*
X70023Y-44454D01*
X69677Y-44254D02*
X69330Y-44054D01*
X69330Y-44054D02*
X69630Y-43534D01*
X69630Y-43534D02*
X69977Y-43734D01*
G54D15*
X55898Y-32311D02*
X55898Y-31311D01*
X55898Y-31311D02*
X60898Y-31311D01*
X60898Y-31311D02*
X60898Y-32311D01*
X60898Y-32311D02*
X55898Y-32311D01*
X56898Y-32311D02*
X56898Y-31311D01*
G54D11*
X69105Y-44338D02*
X70264Y-45007D01*
X70264Y-45007D02*
X69486Y-46354D01*
X69477Y-46370D02*
X68318Y-45701D01*
X68328Y-45685D02*
X69105Y-44338D01*
X68193Y-45562D02*
G75*
G03X68247Y-45866I179J-125D01*
G74*
G01*
X46823Y-44850D02*
X47982Y-44181D01*
X47982Y-44181D02*
X48759Y-45528D01*
X48769Y-45544D02*
X47610Y-46213D01*
X47601Y-46197D02*
X46823Y-44850D01*
X47427Y-46251D02*
G75*
G03X47717Y-46357I198J92D01*
G74*
G01*
X58189Y-26654D02*
X58189Y-25316D01*
X58189Y-25316D02*
X59744Y-25316D01*
X59763Y-25316D02*
X59763Y-26654D01*
X59744Y-26654D02*
X58189Y-26654D01*
X59705Y-26830D02*
G75*
G03X59940Y-26633I19J216D01*
G74*
G01*
X59365Y-51771D02*
G75*
G03X59365Y-51771I-900J0D01*
G74*
G01*
X70787Y-31988D02*
G75*
G03X70787Y-31988I-900J0D01*
G74*
G01*
X47943Y-31988D02*
G75*
G03X47943Y-31988I-900J0D01*
G74*
G01*
G54D17*
X50196Y-44812D02*
X50946Y-44379D01*
X48936Y-42629D02*
X49686Y-42196D01*
X48065Y-43019D02*
G75*
G03X48065Y-43019I-40J0D01*
G74*
G01*
X66733Y-32353D02*
X65983Y-32786D01*
X67993Y-34536D02*
X67243Y-34969D01*
X68944Y-34146D02*
G75*
G03X68944Y-34146I-40J0D01*
G74*
G01*
X67993Y-42629D02*
X67243Y-42196D01*
X66733Y-44812D02*
X65983Y-44379D01*
X67566Y-45406D02*
G75*
G03X67566Y-45406I-40J0D01*
G74*
G01*
X57205Y-28307D02*
X57205Y-29173D01*
X59725Y-28307D02*
X59725Y-29173D01*
X59883Y-27323D02*
G75*
G03X59883Y-27323I-40J0D01*
G74*
G01*
X50946Y-32786D02*
X50196Y-32353D01*
X49686Y-34969D02*
X48936Y-34536D01*
X50519Y-35563D02*
G75*
G03X50519Y-35563I-40J0D01*
G74*
G01*
X57205Y-38150D02*
X57205Y-39016D01*
X59725Y-38150D02*
X59725Y-39016D01*
X59883Y-37166D02*
G75*
G03X59883Y-37166I-40J0D01*
G74*
G01*
X57205Y-47993D02*
X57205Y-48859D01*
X59725Y-47993D02*
X59725Y-48859D01*
X59883Y-47009D02*
G75*
G03X59883Y-47009I-40J0D01*
G74*
G01*
G54D18*
X57582Y-25082D02*
X57463Y-25165D01*
X57582Y-25224D02*
X57332Y-25224D01*
X57332Y-25129D01*
X57344Y-25105D01*
X57356Y-25094D01*
X57380Y-25082D01*
X57416Y-25082D01*
X57439Y-25094D01*
X57451Y-25105D01*
X57463Y-25129D01*
X57463Y-25224D01*
X57582Y-24844D02*
X57582Y-24986D01*
X57582Y-24915D02*
X57332Y-24915D01*
X57368Y-24939D01*
X57392Y-24963D01*
X57404Y-24986D01*
X47566Y-43017D02*
X47435Y-42956D01*
X47443Y-43088D02*
X47318Y-42872D01*
X47400Y-42824D01*
X47427Y-42823D01*
X47443Y-42828D01*
X47465Y-42843D01*
X47483Y-42874D01*
X47484Y-42900D01*
X47481Y-42916D01*
X47466Y-42938D01*
X47384Y-42985D01*
X47536Y-42774D02*
X47541Y-42757D01*
X47555Y-42735D01*
X47607Y-42705D01*
X47633Y-42704D01*
X47650Y-42708D01*
X47671Y-42724D01*
X47683Y-42744D01*
X47691Y-42780D01*
X47639Y-42975D01*
X47772Y-42898D01*
G54D16*
X69401Y-43173D02*
X69389Y-43029D01*
X69278Y-43102D02*
X69403Y-42886D01*
X69485Y-42933D01*
X69500Y-42956D01*
X69504Y-42972D01*
X69502Y-42999D01*
X69484Y-43030D01*
X69462Y-43044D01*
X69447Y-43049D01*
X69420Y-43047D01*
X69338Y-42999D01*
X69599Y-42999D02*
X69732Y-43076D01*
X69613Y-43117D01*
X69644Y-43135D01*
X69659Y-43157D01*
X69663Y-43174D01*
X69661Y-43200D01*
X69631Y-43252D01*
X69610Y-43266D01*
X69593Y-43271D01*
X69567Y-43269D01*
X69504Y-43233D01*
X69490Y-43211D01*
X69486Y-43195D01*
G54D18*
X61120Y-32285D02*
X61120Y-31891D01*
X61270Y-31891D01*
X61307Y-31910D01*
X61326Y-31929D01*
X61345Y-31967D01*
X61345Y-32023D01*
X61326Y-32060D01*
X61307Y-32079D01*
X61270Y-32098D01*
X61120Y-32098D01*
X61720Y-32285D02*
X61495Y-32285D01*
X61608Y-32285D02*
X61608Y-31891D01*
X61570Y-31948D01*
X61533Y-31985D01*
X61495Y-32004D01*
X69799Y-46181D02*
X69639Y-46458D01*
X69637Y-46500D01*
X69643Y-46526D01*
X69667Y-46560D01*
X69732Y-46598D01*
X69773Y-46601D01*
X69799Y-46594D01*
X69834Y-46570D01*
X69994Y-46294D01*
X70123Y-46369D02*
X70335Y-46491D01*
X70146Y-46556D01*
X70194Y-46584D01*
X70218Y-46619D01*
X70224Y-46644D01*
X70222Y-46687D01*
X70175Y-46767D01*
X70140Y-46791D01*
X70115Y-46798D01*
X70073Y-46795D01*
X69976Y-46739D01*
X69952Y-46704D01*
X69945Y-46678D01*
X70141Y-45974D02*
X70186Y-45935D01*
X70212Y-45928D01*
X70253Y-45930D01*
X70302Y-45958D01*
X70325Y-45994D01*
X70332Y-46020D01*
X70329Y-46061D01*
X70254Y-46191D01*
X69913Y-45994D01*
X69978Y-45880D01*
X70014Y-45857D01*
X70039Y-45851D01*
X70082Y-45853D01*
X70114Y-45872D01*
X70137Y-45907D01*
X70144Y-45932D01*
X70141Y-45974D01*
X70076Y-46088D01*
X70437Y-45950D02*
X70587Y-45690D01*
X70601Y-45590D02*
X70260Y-45393D01*
X70307Y-45311D01*
X70351Y-45272D01*
X70403Y-45259D01*
X70444Y-45261D01*
X70519Y-45282D01*
X70568Y-45311D01*
X70624Y-45365D01*
X70646Y-45400D01*
X70661Y-45451D01*
X70648Y-45508D01*
X70601Y-45590D01*
X70911Y-45054D02*
X70683Y-45074D01*
X70798Y-45249D02*
X70457Y-45052D01*
X70532Y-44922D01*
X70567Y-44899D01*
X70593Y-44892D01*
X70635Y-44895D01*
X70684Y-44923D01*
X70706Y-44958D01*
X70713Y-44984D01*
X70711Y-45025D01*
X70636Y-45155D01*
X47930Y-46245D02*
X48089Y-46522D01*
X48125Y-46545D01*
X48150Y-46553D01*
X48192Y-46549D01*
X48257Y-46512D01*
X48280Y-46478D01*
X48287Y-46452D01*
X48284Y-46409D01*
X48125Y-46133D01*
X48290Y-46081D02*
X48297Y-46055D01*
X48319Y-46020D01*
X48401Y-45973D01*
X48443Y-45971D01*
X48468Y-45978D01*
X48504Y-46002D01*
X48522Y-46034D01*
X48534Y-46092D01*
X48451Y-46399D01*
X48663Y-46277D01*
X46790Y-45140D02*
X46788Y-45099D01*
X46759Y-45049D01*
X46715Y-45010D01*
X46663Y-44997D01*
X46622Y-44999D01*
X46547Y-45020D01*
X46498Y-45049D01*
X46442Y-45103D01*
X46420Y-45138D01*
X46405Y-45189D01*
X46418Y-45246D01*
X46437Y-45279D01*
X46480Y-45319D01*
X46506Y-45326D01*
X46620Y-45260D01*
X46582Y-45195D01*
X46479Y-45428D02*
X46629Y-45688D01*
X46709Y-45750D02*
X47050Y-45553D01*
X47097Y-45635D01*
X47109Y-45693D01*
X47094Y-45744D01*
X47072Y-45779D01*
X47016Y-45833D01*
X46967Y-45861D01*
X46892Y-45882D01*
X46851Y-45884D01*
X46799Y-45871D01*
X46756Y-45832D01*
X46709Y-45750D01*
X47018Y-46286D02*
X47115Y-46079D01*
X46906Y-46091D02*
X47247Y-45894D01*
X47322Y-46024D01*
X47324Y-46066D01*
X47317Y-46092D01*
X47294Y-46127D01*
X47245Y-46155D01*
X47204Y-46157D01*
X47178Y-46150D01*
X47143Y-46128D01*
X47068Y-45998D01*
X60015Y-25865D02*
X60015Y-26184D01*
X60034Y-26222D01*
X60052Y-26241D01*
X60090Y-26259D01*
X60165Y-26259D01*
X60202Y-26241D01*
X60221Y-26222D01*
X60240Y-26184D01*
X60240Y-25865D01*
X60634Y-26259D02*
X60409Y-26259D01*
X60522Y-26259D02*
X60522Y-25865D01*
X60484Y-25922D01*
X60447Y-25959D01*
X60409Y-25978D01*
X60238Y-25704D02*
X60107Y-25517D01*
X60013Y-25704D02*
X60013Y-25310D01*
X60163Y-25310D01*
X60200Y-25329D01*
X60219Y-25348D01*
X60238Y-25386D01*
X60238Y-25442D01*
X60219Y-25479D01*
X60200Y-25498D01*
X60163Y-25517D01*
X60013Y-25517D01*
X60313Y-25742D02*
X60613Y-25742D01*
X60707Y-25704D02*
X60707Y-25310D01*
X60801Y-25310D01*
X60857Y-25329D01*
X60894Y-25367D01*
X60913Y-25404D01*
X60932Y-25479D01*
X60932Y-25536D01*
X60913Y-25611D01*
X60894Y-25648D01*
X60857Y-25686D01*
X60801Y-25704D01*
X60707Y-25704D01*
X61326Y-25704D02*
X61195Y-25517D01*
X61101Y-25704D02*
X61101Y-25310D01*
X61251Y-25310D01*
X61288Y-25329D01*
X61307Y-25348D01*
X61326Y-25386D01*
X61326Y-25442D01*
X61307Y-25479D01*
X61288Y-25498D01*
X61251Y-25517D01*
X61101Y-25517D01*
X51188Y-44897D02*
X50991Y-44555D01*
X51073Y-44508D01*
X51131Y-44497D01*
X51182Y-44511D01*
X51217Y-44534D01*
X51271Y-44589D01*
X51299Y-44639D01*
X51320Y-44713D01*
X51322Y-44755D01*
X51309Y-44806D01*
X51270Y-44850D01*
X51188Y-44897D01*
X51708Y-44597D02*
X51513Y-44709D01*
X51611Y-44653D02*
X51414Y-44311D01*
X51410Y-44380D01*
X51396Y-44430D01*
X51373Y-44466D01*
X65397Y-32834D02*
X65200Y-32492D01*
X65282Y-32445D01*
X65340Y-32434D01*
X65391Y-32448D01*
X65426Y-32471D01*
X65480Y-32526D01*
X65508Y-32576D01*
X65529Y-32650D01*
X65531Y-32692D01*
X65518Y-32743D01*
X65479Y-32787D01*
X65397Y-32834D01*
X65544Y-32338D02*
X65551Y-32312D01*
X65574Y-32277D01*
X65655Y-32230D01*
X65697Y-32227D01*
X65723Y-32235D01*
X65758Y-32258D01*
X65776Y-32290D01*
X65788Y-32348D01*
X65706Y-32656D01*
X65917Y-32534D01*
X66909Y-41713D02*
X67106Y-41371D01*
X67188Y-41418D01*
X67227Y-41463D01*
X67240Y-41514D01*
X67238Y-41556D01*
X67217Y-41630D01*
X67188Y-41680D01*
X67134Y-41735D01*
X67099Y-41758D01*
X67048Y-41772D01*
X66991Y-41760D01*
X66909Y-41713D01*
X67415Y-41549D02*
X67626Y-41671D01*
X67437Y-41737D01*
X67486Y-41765D01*
X67509Y-41799D01*
X67516Y-41825D01*
X67513Y-41867D01*
X67466Y-41948D01*
X67431Y-41971D01*
X67406Y-41979D01*
X67364Y-41975D01*
X67267Y-41919D01*
X67243Y-41885D01*
X67236Y-41859D01*
X56953Y-29704D02*
X56559Y-29704D01*
X56559Y-29610D01*
X56578Y-29554D01*
X56616Y-29517D01*
X56653Y-29498D01*
X56728Y-29479D01*
X56785Y-29479D01*
X56860Y-29498D01*
X56897Y-29517D01*
X56935Y-29554D01*
X56953Y-29610D01*
X56953Y-29704D01*
X56691Y-29141D02*
X56953Y-29141D01*
X56541Y-29235D02*
X56822Y-29329D01*
X56822Y-29085D01*
X49862Y-31870D02*
X50059Y-31528D01*
X50141Y-31575D01*
X50180Y-31620D01*
X50193Y-31671D01*
X50191Y-31713D01*
X50170Y-31787D01*
X50141Y-31837D01*
X50087Y-31892D01*
X50052Y-31915D01*
X50001Y-31929D01*
X49944Y-31917D01*
X49862Y-31870D01*
X50563Y-31819D02*
X50401Y-31725D01*
X50290Y-31879D01*
X50316Y-31872D01*
X50357Y-31875D01*
X50439Y-31922D01*
X50462Y-31956D01*
X50469Y-31982D01*
X50466Y-32024D01*
X50419Y-32105D01*
X50384Y-32128D01*
X50359Y-32136D01*
X50317Y-32132D01*
X50236Y-32085D01*
X50213Y-32051D01*
X50206Y-32025D01*
X56953Y-39547D02*
X56559Y-39547D01*
X56559Y-39453D01*
X56578Y-39397D01*
X56616Y-39360D01*
X56653Y-39341D01*
X56728Y-39322D01*
X56785Y-39322D01*
X56860Y-39341D01*
X56897Y-39360D01*
X56935Y-39397D01*
X56953Y-39453D01*
X56953Y-39547D01*
X56559Y-38984D02*
X56559Y-39059D01*
X56578Y-39097D01*
X56597Y-39116D01*
X56653Y-39153D01*
X56728Y-39172D01*
X56878Y-39172D01*
X56916Y-39153D01*
X56935Y-39134D01*
X56953Y-39097D01*
X56953Y-39022D01*
X56935Y-38984D01*
X56916Y-38966D01*
X56878Y-38947D01*
X56785Y-38947D01*
X56747Y-38966D01*
X56728Y-38984D01*
X56710Y-39022D01*
X56710Y-39097D01*
X56728Y-39134D01*
X56747Y-39153D01*
X56785Y-39172D01*
X56953Y-49390D02*
X56559Y-49390D01*
X56559Y-49296D01*
X56578Y-49240D01*
X56616Y-49203D01*
X56653Y-49184D01*
X56728Y-49165D01*
X56785Y-49165D01*
X56860Y-49184D01*
X56897Y-49203D01*
X56935Y-49240D01*
X56953Y-49296D01*
X56953Y-49390D01*
X56559Y-49034D02*
X56559Y-48771D01*
X56953Y-48940D01*
M02*
