G04 (created by PCBNEW-RS274X (2011-nov-30)-testing) date Wed 15 Aug 2012 04:31:39 PM EDT*
%MOIN*%
G04 Gerber Fmt 3.4, Leading zero omitted, Abs format*
%FSLAX34Y34*%
G01*
G70*
G90*
G04 APERTURE LIST*
%ADD10C,0.006*%
%ADD11R,0.055X0.035*%
%ADD12R,0.055X0.055*%
%ADD13C,0.055*%
%ADD14R,0.0197X0.0197*%
%ADD15R,0.0591X0.063*%
%ADD16C,0.035*%
%ADD17C,0.014*%
%ADD18C,0.01*%
G04 APERTURE END LIST*
G54D10*
G54D11*
X57481Y-25610D03*
X57481Y-26360D03*
G54D10*
G36*
X47426Y-43424D02*
X47701Y-43901D01*
X47398Y-44076D01*
X47123Y-43599D01*
X47426Y-43424D01*
X47426Y-43424D01*
G37*
G36*
X46776Y-43798D02*
X47051Y-44275D01*
X46748Y-44450D01*
X46473Y-43973D01*
X46776Y-43798D01*
X46776Y-43798D01*
G37*
G36*
X70614Y-44130D02*
X70339Y-44607D01*
X70036Y-44432D01*
X70311Y-43955D01*
X70614Y-44130D01*
X70614Y-44130D01*
G37*
G36*
X69964Y-43756D02*
X69689Y-44233D01*
X69386Y-44058D01*
X69661Y-43581D01*
X69964Y-43756D01*
X69964Y-43756D01*
G37*
G54D12*
X56398Y-31811D03*
G54D13*
X57398Y-31811D03*
X58398Y-31811D03*
X59398Y-31811D03*
X60398Y-31811D03*
G54D10*
G36*
X68597Y-45612D02*
X68695Y-45442D01*
X68865Y-45540D01*
X68767Y-45710D01*
X68597Y-45612D01*
X68597Y-45612D01*
G37*
G36*
X68921Y-45799D02*
X69019Y-45629D01*
X69189Y-45727D01*
X69091Y-45897D01*
X68921Y-45799D01*
X68921Y-45799D01*
G37*
G36*
X69245Y-45986D02*
X69343Y-45816D01*
X69513Y-45914D01*
X69415Y-46084D01*
X69245Y-45986D01*
X69245Y-45986D01*
G37*
G36*
X69717Y-45168D02*
X69815Y-44998D01*
X69985Y-45096D01*
X69887Y-45266D01*
X69717Y-45168D01*
X69717Y-45168D01*
G37*
G36*
X69393Y-44981D02*
X69491Y-44811D01*
X69661Y-44909D01*
X69563Y-45079D01*
X69393Y-44981D01*
X69393Y-44981D01*
G37*
G36*
X69069Y-44794D02*
X69167Y-44624D01*
X69337Y-44722D01*
X69239Y-44892D01*
X69069Y-44794D01*
X69069Y-44794D01*
G37*
G36*
X47672Y-45927D02*
X47574Y-45757D01*
X47744Y-45659D01*
X47842Y-45829D01*
X47672Y-45927D01*
X47672Y-45927D01*
G37*
G36*
X47996Y-45740D02*
X47898Y-45570D01*
X48068Y-45472D01*
X48166Y-45642D01*
X47996Y-45740D01*
X47996Y-45740D01*
G37*
G36*
X48320Y-45553D02*
X48222Y-45383D01*
X48392Y-45285D01*
X48490Y-45455D01*
X48320Y-45553D01*
X48320Y-45553D01*
G37*
G36*
X47848Y-44735D02*
X47750Y-44565D01*
X47920Y-44467D01*
X48018Y-44637D01*
X47848Y-44735D01*
X47848Y-44735D01*
G37*
G36*
X47524Y-44922D02*
X47426Y-44752D01*
X47596Y-44654D01*
X47694Y-44824D01*
X47524Y-44922D01*
X47524Y-44922D01*
G37*
G36*
X47200Y-45109D02*
X47102Y-44939D01*
X47272Y-44841D01*
X47370Y-45011D01*
X47200Y-45109D01*
X47200Y-45109D01*
G37*
G54D14*
X59448Y-26359D03*
X59448Y-25985D03*
X59448Y-25611D03*
X58504Y-25611D03*
X58504Y-25985D03*
X58504Y-26359D03*
G54D10*
G36*
X50965Y-44253D02*
X50670Y-43742D01*
X51215Y-43427D01*
X51510Y-43938D01*
X50965Y-44253D01*
X50965Y-44253D01*
G37*
G36*
X50099Y-42754D02*
X49804Y-42243D01*
X50349Y-41928D01*
X50644Y-42439D01*
X50099Y-42754D01*
X50099Y-42754D01*
G37*
G36*
X50532Y-43504D02*
X50237Y-42993D01*
X50782Y-42678D01*
X51077Y-43189D01*
X50532Y-43504D01*
X50532Y-43504D01*
G37*
G36*
X49100Y-44330D02*
X48805Y-43819D01*
X49350Y-43504D01*
X49645Y-44015D01*
X49100Y-44330D01*
X49100Y-44330D01*
G37*
G36*
X48667Y-43581D02*
X48372Y-43070D01*
X48917Y-42755D01*
X49212Y-43266D01*
X48667Y-43581D01*
X48667Y-43581D01*
G37*
G36*
X49533Y-45080D02*
X49238Y-44569D01*
X49783Y-44254D01*
X50078Y-44765D01*
X49533Y-45080D01*
X49533Y-45080D01*
G37*
G36*
X65964Y-32912D02*
X66259Y-33423D01*
X65714Y-33738D01*
X65419Y-33227D01*
X65964Y-32912D01*
X65964Y-32912D01*
G37*
G36*
X66830Y-34411D02*
X67125Y-34922D01*
X66580Y-35237D01*
X66285Y-34726D01*
X66830Y-34411D01*
X66830Y-34411D01*
G37*
G36*
X66397Y-33661D02*
X66692Y-34172D01*
X66147Y-34487D01*
X65852Y-33976D01*
X66397Y-33661D01*
X66397Y-33661D01*
G37*
G36*
X67829Y-32835D02*
X68124Y-33346D01*
X67579Y-33661D01*
X67284Y-33150D01*
X67829Y-32835D01*
X67829Y-32835D01*
G37*
G36*
X68262Y-33584D02*
X68557Y-34095D01*
X68012Y-34410D01*
X67717Y-33899D01*
X68262Y-33584D01*
X68262Y-33584D01*
G37*
G36*
X67396Y-32085D02*
X67691Y-32596D01*
X67146Y-32911D01*
X66851Y-32400D01*
X67396Y-32085D01*
X67396Y-32085D01*
G37*
G36*
X67125Y-42243D02*
X66830Y-42754D01*
X66285Y-42439D01*
X66580Y-41928D01*
X67125Y-42243D01*
X67125Y-42243D01*
G37*
G36*
X66259Y-43742D02*
X65964Y-44253D01*
X65419Y-43938D01*
X65714Y-43427D01*
X66259Y-43742D01*
X66259Y-43742D01*
G37*
G36*
X66692Y-42993D02*
X66397Y-43504D01*
X65852Y-43189D01*
X66147Y-42678D01*
X66692Y-42993D01*
X66692Y-42993D01*
G37*
G36*
X68124Y-43819D02*
X67829Y-44330D01*
X67284Y-44015D01*
X67579Y-43504D01*
X68124Y-43819D01*
X68124Y-43819D01*
G37*
G36*
X67691Y-44569D02*
X67396Y-45080D01*
X66851Y-44765D01*
X67146Y-44254D01*
X67691Y-44569D01*
X67691Y-44569D01*
G37*
G36*
X68557Y-43070D02*
X68262Y-43581D01*
X67717Y-43266D01*
X68012Y-42755D01*
X68557Y-43070D01*
X68557Y-43070D01*
G37*
G54D15*
X57599Y-29567D03*
X59331Y-29567D03*
X58465Y-29567D03*
X58465Y-27913D03*
X59331Y-27913D03*
X57599Y-27913D03*
G54D10*
G36*
X50078Y-32400D02*
X49783Y-32911D01*
X49238Y-32596D01*
X49533Y-32085D01*
X50078Y-32400D01*
X50078Y-32400D01*
G37*
G36*
X49212Y-33899D02*
X48917Y-34410D01*
X48372Y-34095D01*
X48667Y-33584D01*
X49212Y-33899D01*
X49212Y-33899D01*
G37*
G36*
X49645Y-33150D02*
X49350Y-33661D01*
X48805Y-33346D01*
X49100Y-32835D01*
X49645Y-33150D01*
X49645Y-33150D01*
G37*
G36*
X51077Y-33976D02*
X50782Y-34487D01*
X50237Y-34172D01*
X50532Y-33661D01*
X51077Y-33976D01*
X51077Y-33976D01*
G37*
G36*
X50644Y-34726D02*
X50349Y-35237D01*
X49804Y-34922D01*
X50099Y-34411D01*
X50644Y-34726D01*
X50644Y-34726D01*
G37*
G36*
X51510Y-33227D02*
X51215Y-33738D01*
X50670Y-33423D01*
X50965Y-32912D01*
X51510Y-33227D01*
X51510Y-33227D01*
G37*
G54D15*
X57599Y-39410D03*
X59331Y-39410D03*
X58465Y-39410D03*
X58465Y-37756D03*
X59331Y-37756D03*
X57599Y-37756D03*
X57599Y-49253D03*
X59331Y-49253D03*
X58465Y-49253D03*
X58465Y-47599D03*
X59331Y-47599D03*
X57599Y-47599D03*
G54D16*
X68532Y-45042D03*
X50152Y-43378D03*
X48734Y-44478D03*
X47478Y-45380D03*
X59034Y-26716D03*
X47140Y-43262D03*
X56934Y-25608D03*
X70604Y-43802D03*
G54D17*
X51090Y-33325D02*
X50657Y-34074D01*
X50657Y-34074D02*
X50224Y-34824D01*
X59331Y-47599D02*
X58465Y-47599D01*
X58465Y-47599D02*
X57599Y-47599D01*
X59331Y-37756D02*
X58465Y-37756D01*
X58465Y-37756D02*
X57599Y-37756D01*
X68137Y-33997D02*
X67704Y-33247D01*
X67271Y-32498D02*
X67704Y-33247D01*
X68137Y-43168D02*
X67704Y-43917D01*
X67704Y-43917D02*
X67271Y-44667D01*
X48792Y-43168D02*
X49225Y-43917D01*
X49225Y-43917D02*
X49658Y-44667D01*
X59331Y-27913D02*
X58465Y-27913D01*
X58465Y-27913D02*
X57599Y-27913D01*
X49658Y-32498D02*
X57060Y-29224D01*
X57312Y-29228D02*
X57599Y-29567D01*
X57060Y-29224D02*
X57312Y-29228D01*
X51090Y-43840D02*
X51368Y-43268D01*
X49950Y-33184D02*
X49658Y-32498D01*
X49690Y-33640D02*
X49950Y-33184D01*
X49876Y-34026D02*
X49690Y-33640D01*
X49492Y-34798D02*
X49876Y-34026D01*
X50604Y-41306D02*
X49492Y-34798D01*
X51242Y-42498D02*
X50604Y-41306D01*
X51094Y-42832D02*
X51242Y-42498D01*
X51368Y-43268D02*
X51094Y-42832D01*
X57599Y-49253D02*
X56148Y-49266D01*
X51282Y-44660D02*
X51090Y-43840D01*
X56148Y-49266D02*
X51282Y-44660D01*
X66705Y-42341D02*
X66012Y-42418D01*
X57922Y-48712D02*
X57599Y-49253D01*
X58534Y-48724D02*
X57922Y-48712D01*
X58842Y-48324D02*
X58534Y-48724D01*
X59032Y-48324D02*
X58842Y-48324D01*
X59930Y-48320D02*
X59032Y-48324D01*
X64710Y-44110D02*
X59930Y-48320D01*
X65454Y-42832D02*
X64710Y-44110D01*
X65736Y-42836D02*
X65454Y-42832D01*
X66012Y-42418D02*
X65736Y-42836D01*
X65839Y-33325D02*
X64570Y-31070D01*
X59140Y-31060D02*
X57599Y-29567D01*
X64570Y-31070D02*
X59140Y-31060D01*
X57599Y-39410D02*
X57976Y-38896D01*
X65506Y-34006D02*
X65839Y-33325D01*
X65730Y-34440D02*
X65506Y-34006D01*
X65604Y-34854D02*
X65730Y-34440D01*
X59638Y-38642D02*
X65604Y-34854D01*
X58674Y-38640D02*
X59638Y-38642D01*
X58492Y-38892D02*
X58674Y-38640D01*
X57976Y-38896D02*
X58492Y-38892D01*
X69055Y-45763D02*
X69264Y-45382D01*
X67650Y-42169D02*
X66705Y-42341D01*
X68697Y-42760D02*
X67650Y-42169D01*
X68908Y-43104D02*
X68697Y-42760D01*
X68862Y-44874D02*
X68908Y-43104D01*
X69264Y-45382D02*
X68862Y-44874D01*
X69527Y-44945D02*
X69055Y-45763D01*
X69055Y-45763D02*
X69379Y-45950D01*
X69379Y-45950D02*
X69527Y-44945D01*
X68532Y-45042D02*
X68731Y-45576D01*
X48356Y-45419D02*
X48734Y-44478D01*
X50152Y-43378D02*
X50657Y-43091D01*
X49225Y-33248D02*
X48910Y-32544D01*
X57966Y-28968D02*
X58465Y-29567D01*
X57002Y-28968D02*
X57966Y-28968D01*
X56940Y-28994D02*
X57002Y-28968D01*
X56904Y-29008D02*
X56940Y-28994D01*
X50684Y-31758D02*
X56904Y-29008D01*
X49414Y-31822D02*
X50684Y-31758D01*
X48910Y-32544D02*
X49414Y-31822D01*
X50657Y-43091D02*
X50896Y-42481D01*
X50896Y-42481D02*
X50338Y-41370D01*
X50338Y-41370D02*
X49186Y-34718D01*
X49186Y-34718D02*
X49554Y-33994D01*
X49554Y-33994D02*
X49225Y-33248D01*
X58465Y-49253D02*
X58110Y-49824D01*
X58110Y-49824D02*
X57246Y-49824D01*
X57246Y-49824D02*
X56928Y-49506D01*
X56928Y-49506D02*
X55990Y-49510D01*
X55990Y-49510D02*
X50732Y-44528D01*
X50732Y-44528D02*
X50352Y-43864D01*
X50352Y-43864D02*
X50657Y-43091D01*
X66272Y-43091D02*
X65600Y-43090D01*
X59068Y-48594D02*
X58465Y-49253D01*
X59980Y-48600D02*
X59068Y-48594D01*
X64900Y-44290D02*
X59980Y-48600D01*
X65600Y-43090D02*
X64900Y-44290D01*
X66272Y-34075D02*
X66514Y-33440D01*
X66514Y-33440D02*
X66056Y-32640D01*
X66056Y-32640D02*
X65746Y-32536D01*
X65746Y-32536D02*
X64760Y-30810D01*
X64760Y-30810D02*
X59300Y-30810D01*
X59300Y-30810D02*
X58604Y-30166D01*
X58604Y-30166D02*
X58465Y-29567D01*
X58465Y-39410D02*
X58864Y-38898D01*
X65980Y-34938D02*
X66272Y-34075D01*
X59692Y-38902D02*
X65980Y-34938D01*
X58864Y-38898D02*
X59692Y-38902D01*
X47560Y-44788D02*
X48032Y-45606D01*
X48032Y-45606D02*
X48356Y-45419D01*
X48356Y-45419D02*
X47560Y-44788D01*
X47478Y-45380D02*
X47708Y-45793D01*
X58504Y-25985D02*
X57042Y-25986D01*
X56880Y-28270D02*
X56880Y-28694D01*
X56880Y-26218D02*
X56880Y-28270D01*
X57042Y-25986D02*
X56880Y-26218D01*
X48792Y-33997D02*
X48520Y-33342D01*
X48520Y-33342D02*
X48754Y-32950D01*
X48754Y-32950D02*
X48556Y-32572D01*
X48556Y-32572D02*
X49208Y-31626D01*
X49208Y-31626D02*
X49276Y-31532D01*
X49276Y-31532D02*
X50526Y-31500D01*
X50526Y-31500D02*
X56876Y-28694D01*
X56876Y-28694D02*
X56880Y-28694D01*
X58990Y-29058D02*
X59331Y-29567D01*
X56880Y-28694D02*
X58072Y-28686D01*
X58072Y-28686D02*
X58380Y-29064D01*
X58380Y-29064D02*
X58990Y-29058D01*
X50224Y-42341D02*
X48792Y-33997D01*
X59331Y-49253D02*
X58776Y-50170D01*
X49894Y-42978D02*
X50224Y-42341D01*
X49746Y-43366D02*
X49894Y-42978D01*
X50040Y-43902D02*
X49746Y-43366D01*
X50520Y-44730D02*
X50040Y-43902D01*
X55902Y-49804D02*
X50520Y-44730D01*
X56844Y-49798D02*
X55902Y-49804D01*
X57196Y-50170D02*
X56844Y-49798D01*
X58776Y-50170D02*
X57196Y-50170D01*
X59331Y-49253D02*
X60026Y-48896D01*
X60026Y-48896D02*
X65839Y-43840D01*
X59331Y-29567D02*
X59334Y-30136D01*
X67000Y-34152D02*
X66705Y-34824D01*
X59780Y-30490D02*
X59334Y-30136D01*
X64922Y-30478D02*
X59780Y-30490D01*
X65974Y-32310D02*
X64922Y-30478D01*
X66240Y-32428D02*
X65974Y-32310D01*
X66816Y-33412D02*
X66240Y-32428D01*
X66694Y-33682D02*
X66816Y-33412D01*
X67000Y-34152D02*
X66694Y-33682D01*
X59331Y-39410D02*
X66705Y-34824D01*
X58504Y-25985D02*
X59448Y-25985D01*
X59448Y-25985D02*
X59448Y-25611D01*
X59448Y-25611D02*
X58504Y-25985D01*
X59034Y-26716D02*
X59448Y-26359D01*
X47412Y-43749D02*
X47140Y-43262D01*
X57481Y-25610D02*
X56934Y-25608D01*
X70325Y-44281D02*
X70604Y-43802D01*
X58504Y-25611D02*
X57481Y-25610D01*
X47884Y-44601D02*
X47412Y-43749D01*
X69851Y-45132D02*
X70325Y-44281D01*
X69203Y-44758D02*
X69675Y-43907D01*
X47236Y-44975D02*
X46762Y-44125D01*
X58504Y-26359D02*
X57481Y-26360D01*
G54D10*
G36*
X72299Y-43504D02*
X71026Y-45708D01*
X71026Y-43886D01*
X71026Y-43718D01*
X70962Y-43563D01*
X70843Y-43444D01*
X70688Y-43380D01*
X70520Y-43380D01*
X70365Y-43444D01*
X70246Y-43563D01*
X70198Y-43678D01*
X70189Y-43645D01*
X70129Y-43568D01*
X70045Y-43519D01*
X69742Y-43344D01*
X69645Y-43331D01*
X69549Y-43356D01*
X69472Y-43416D01*
X69423Y-43501D01*
X69205Y-43878D01*
X69225Y-43113D01*
X69219Y-43082D01*
X69221Y-43054D01*
X69209Y-43022D01*
X69204Y-42991D01*
X69188Y-42966D01*
X69178Y-42938D01*
X69008Y-42660D01*
X69008Y-34125D01*
X68985Y-33950D01*
X68922Y-33840D01*
X68772Y-33800D01*
X68664Y-33862D01*
X68664Y-33395D01*
X68602Y-33286D01*
X68558Y-33253D01*
X68552Y-33200D01*
X68489Y-33090D01*
X68339Y-33050D01*
X68231Y-33112D01*
X68231Y-32645D01*
X68169Y-32536D01*
X68125Y-32503D01*
X68119Y-32451D01*
X68056Y-32341D01*
X67906Y-32301D01*
X67798Y-32363D01*
X67798Y-31896D01*
X67736Y-31787D01*
X67596Y-31680D01*
X67426Y-31634D01*
X67251Y-31657D01*
X67125Y-31729D01*
X67084Y-31881D01*
X67325Y-32297D01*
X67759Y-32047D01*
X67798Y-31896D01*
X67798Y-32363D01*
X67736Y-32399D01*
X67684Y-32406D01*
X67558Y-32478D01*
X67550Y-32506D01*
X67472Y-32552D01*
X67517Y-32630D01*
X67712Y-32968D01*
X67758Y-33046D01*
X67835Y-33001D01*
X67864Y-33009D01*
X67989Y-32936D01*
X68021Y-32894D01*
X68192Y-32796D01*
X68231Y-32645D01*
X68231Y-33112D01*
X68167Y-33149D01*
X68117Y-33156D01*
X67991Y-33228D01*
X67983Y-33255D01*
X67905Y-33301D01*
X67950Y-33379D01*
X67950Y-33380D01*
X68089Y-33620D01*
X68145Y-33717D01*
X68191Y-33796D01*
X68269Y-33750D01*
X68297Y-33758D01*
X68422Y-33685D01*
X68452Y-33645D01*
X68625Y-33546D01*
X68664Y-33395D01*
X68664Y-33862D01*
X68338Y-34051D01*
X68578Y-34467D01*
X68730Y-34508D01*
X68855Y-34435D01*
X68963Y-34295D01*
X69008Y-34125D01*
X69008Y-42660D01*
X68967Y-42594D01*
X68955Y-42581D01*
X68946Y-42563D01*
X68909Y-42531D01*
X68884Y-42504D01*
X68869Y-42497D01*
X68853Y-42483D01*
X68324Y-42184D01*
X68324Y-34614D01*
X68083Y-34198D01*
X67649Y-34448D01*
X67609Y-34598D01*
X67609Y-34600D01*
X67672Y-34708D01*
X67812Y-34815D01*
X67982Y-34861D01*
X68157Y-34838D01*
X68283Y-34766D01*
X68324Y-34614D01*
X68324Y-42184D01*
X67806Y-41893D01*
X67755Y-41876D01*
X67716Y-41859D01*
X67702Y-41858D01*
X67688Y-41854D01*
X67641Y-41857D01*
X67593Y-41857D01*
X67103Y-41946D01*
X66660Y-41690D01*
X66564Y-41678D01*
X66468Y-41703D01*
X66391Y-41763D01*
X66342Y-41847D01*
X66209Y-42077D01*
X65977Y-42103D01*
X65961Y-42107D01*
X65948Y-42108D01*
X65906Y-42125D01*
X65860Y-42140D01*
X65848Y-42149D01*
X65833Y-42156D01*
X65795Y-42194D01*
X65765Y-42220D01*
X65758Y-42232D01*
X65747Y-42244D01*
X65566Y-42516D01*
X65458Y-42515D01*
X65408Y-42523D01*
X65373Y-42526D01*
X65358Y-42533D01*
X65337Y-42537D01*
X65295Y-42563D01*
X65261Y-42581D01*
X65248Y-42594D01*
X65233Y-42605D01*
X65210Y-42637D01*
X65179Y-42673D01*
X64467Y-43896D01*
X60070Y-47772D01*
X60070Y-47341D01*
X60069Y-47196D01*
X60002Y-47033D01*
X59877Y-46909D01*
X59714Y-46841D01*
X59588Y-46841D01*
X59478Y-46951D01*
X59478Y-47452D01*
X59959Y-47452D01*
X60070Y-47341D01*
X60070Y-47772D01*
X60025Y-47812D01*
X59959Y-47746D01*
X59528Y-47746D01*
X59478Y-47746D01*
X59204Y-47746D01*
X59204Y-47341D01*
X59203Y-47196D01*
X59184Y-47149D01*
X59184Y-46951D01*
X59074Y-46841D01*
X58948Y-46841D01*
X58898Y-46861D01*
X58848Y-46841D01*
X58722Y-46841D01*
X58612Y-46951D01*
X58612Y-47149D01*
X58593Y-47196D01*
X58592Y-47341D01*
X58612Y-47361D01*
X58612Y-47452D01*
X58703Y-47452D01*
X59093Y-47452D01*
X59184Y-47452D01*
X59184Y-47361D01*
X59204Y-47341D01*
X59204Y-47746D01*
X59184Y-47746D01*
X59134Y-47746D01*
X59093Y-47746D01*
X58703Y-47746D01*
X58662Y-47746D01*
X58612Y-47746D01*
X58338Y-47746D01*
X58338Y-47341D01*
X58337Y-47196D01*
X58318Y-47149D01*
X58318Y-46951D01*
X58208Y-46841D01*
X58082Y-46841D01*
X58032Y-46861D01*
X57982Y-46841D01*
X57856Y-46841D01*
X57746Y-46951D01*
X57746Y-47149D01*
X57727Y-47196D01*
X57726Y-47341D01*
X57746Y-47361D01*
X57746Y-47452D01*
X57837Y-47452D01*
X58227Y-47452D01*
X58318Y-47452D01*
X58318Y-47361D01*
X58338Y-47341D01*
X58338Y-47746D01*
X58318Y-47746D01*
X58268Y-47746D01*
X58227Y-47746D01*
X57837Y-47746D01*
X57746Y-47746D01*
X57746Y-47837D01*
X57726Y-47857D01*
X57727Y-48002D01*
X57746Y-48048D01*
X57746Y-48247D01*
X57856Y-48357D01*
X57982Y-48357D01*
X58032Y-48336D01*
X58082Y-48357D01*
X58208Y-48357D01*
X58268Y-48297D01*
X58268Y-48358D01*
X58338Y-48358D01*
X58414Y-48358D01*
X58380Y-48403D01*
X58338Y-48402D01*
X57928Y-48395D01*
X57886Y-48402D01*
X57844Y-48405D01*
X57825Y-48413D01*
X57807Y-48417D01*
X57773Y-48438D01*
X57732Y-48458D01*
X57717Y-48474D01*
X57702Y-48484D01*
X57678Y-48516D01*
X57649Y-48550D01*
X57564Y-48692D01*
X57452Y-48692D01*
X57452Y-48247D01*
X57452Y-47746D01*
X57452Y-47452D01*
X57452Y-46951D01*
X57342Y-46841D01*
X57216Y-46841D01*
X57053Y-46909D01*
X56928Y-47033D01*
X56861Y-47196D01*
X56860Y-47341D01*
X56971Y-47452D01*
X57452Y-47452D01*
X57452Y-47746D01*
X56971Y-47746D01*
X56860Y-47857D01*
X56861Y-48002D01*
X56928Y-48165D01*
X57053Y-48289D01*
X57216Y-48357D01*
X57342Y-48357D01*
X57452Y-48247D01*
X57452Y-48692D01*
X57255Y-48692D01*
X57165Y-48729D01*
X57095Y-48799D01*
X57058Y-48889D01*
X57058Y-48940D01*
X56277Y-48947D01*
X56261Y-48931D01*
X56261Y-32419D01*
X56261Y-31948D01*
X56261Y-31674D01*
X56261Y-31203D01*
X56150Y-31092D01*
X56035Y-31093D01*
X55872Y-31160D01*
X55748Y-31285D01*
X55680Y-31448D01*
X55680Y-31564D01*
X55790Y-31674D01*
X56261Y-31674D01*
X56261Y-31948D01*
X55790Y-31948D01*
X55680Y-32058D01*
X55680Y-32174D01*
X55748Y-32337D01*
X55872Y-32462D01*
X56035Y-32529D01*
X56150Y-32530D01*
X56261Y-32419D01*
X56261Y-48931D01*
X51961Y-44865D01*
X51961Y-33197D01*
X51916Y-33027D01*
X51808Y-32887D01*
X51683Y-32814D01*
X51531Y-32855D01*
X51291Y-33271D01*
X51725Y-33522D01*
X51875Y-33481D01*
X51938Y-33372D01*
X51961Y-33197D01*
X51961Y-44865D01*
X51569Y-44495D01*
X51506Y-44224D01*
X51676Y-44127D01*
X51735Y-44049D01*
X51761Y-43954D01*
X51748Y-43857D01*
X51699Y-43773D01*
X51577Y-43562D01*
X51653Y-43407D01*
X51664Y-43364D01*
X51676Y-43338D01*
X51676Y-43315D01*
X51684Y-43288D01*
X51678Y-43250D01*
X51680Y-43214D01*
X51670Y-43188D01*
X51667Y-43165D01*
X51650Y-43137D01*
X51636Y-43099D01*
X51617Y-43068D01*
X51617Y-33926D01*
X51578Y-33776D01*
X51407Y-33677D01*
X51375Y-33636D01*
X51277Y-33578D01*
X51277Y-32708D01*
X51236Y-32556D01*
X51110Y-32484D01*
X50935Y-32461D01*
X50765Y-32507D01*
X50625Y-32614D01*
X50562Y-32722D01*
X50562Y-32723D01*
X50602Y-32874D01*
X51036Y-33124D01*
X51277Y-32708D01*
X51277Y-33578D01*
X51250Y-33563D01*
X51221Y-33570D01*
X51144Y-33526D01*
X51098Y-33603D01*
X51098Y-33604D01*
X50903Y-33942D01*
X50858Y-34020D01*
X50936Y-34065D01*
X50944Y-34094D01*
X51070Y-34166D01*
X51122Y-34172D01*
X51292Y-34271D01*
X51442Y-34230D01*
X51505Y-34121D01*
X51511Y-34068D01*
X51555Y-34036D01*
X51617Y-33926D01*
X51617Y-43068D01*
X51452Y-42806D01*
X51532Y-42627D01*
X51536Y-42607D01*
X51546Y-42589D01*
X51550Y-42545D01*
X51559Y-42506D01*
X51555Y-42488D01*
X51558Y-42466D01*
X51542Y-42416D01*
X51537Y-42384D01*
X51529Y-42371D01*
X51522Y-42348D01*
X51184Y-41718D01*
X51184Y-34675D01*
X51145Y-34525D01*
X50972Y-34425D01*
X50942Y-34386D01*
X50817Y-34313D01*
X50789Y-34320D01*
X50711Y-34275D01*
X50665Y-34353D01*
X50665Y-34354D01*
X50609Y-34451D01*
X50470Y-34691D01*
X50425Y-34770D01*
X50503Y-34815D01*
X50511Y-34843D01*
X50637Y-34915D01*
X50687Y-34921D01*
X50859Y-35021D01*
X51009Y-34980D01*
X51072Y-34871D01*
X51078Y-34817D01*
X51122Y-34785D01*
X51184Y-34675D01*
X51184Y-41718D01*
X50908Y-41204D01*
X50751Y-40285D01*
X49934Y-35509D01*
X50025Y-35562D01*
X50055Y-35509D01*
X50078Y-35593D01*
X50204Y-35665D01*
X50379Y-35688D01*
X50549Y-35642D01*
X50689Y-35535D01*
X50751Y-35425D01*
X50712Y-35275D01*
X50321Y-35050D01*
X50278Y-35025D01*
X50277Y-35025D01*
X50023Y-34878D01*
X50022Y-34877D01*
X50170Y-34623D01*
X50195Y-34580D01*
X50194Y-34579D01*
X50215Y-34544D01*
X50216Y-34544D01*
X50271Y-34447D01*
X50411Y-34207D01*
X50410Y-34206D01*
X50430Y-34170D01*
X50431Y-34171D01*
X50448Y-34141D01*
X50456Y-34128D01*
X50455Y-34127D01*
X50603Y-33873D01*
X50628Y-33830D01*
X50627Y-33829D01*
X50648Y-33795D01*
X50649Y-33795D01*
X50844Y-33457D01*
X50889Y-33379D01*
X50810Y-33333D01*
X50803Y-33305D01*
X50677Y-33233D01*
X50624Y-33226D01*
X50455Y-33128D01*
X50304Y-33168D01*
X50304Y-33169D01*
X50252Y-33260D01*
X50264Y-33225D01*
X50262Y-33203D01*
X50267Y-33180D01*
X50257Y-33133D01*
X50255Y-33101D01*
X50247Y-33086D01*
X50242Y-33059D01*
X50131Y-32800D01*
X50260Y-32577D01*
X57058Y-29565D01*
X57058Y-29931D01*
X57095Y-30021D01*
X57165Y-30091D01*
X57255Y-30128D01*
X57353Y-30128D01*
X57721Y-30128D01*
X58916Y-31284D01*
X58919Y-31287D01*
X58956Y-31311D01*
X59018Y-31353D01*
X59021Y-31353D01*
X59022Y-31354D01*
X59033Y-31356D01*
X59101Y-31369D01*
X58956Y-31515D01*
X58897Y-31653D01*
X58841Y-31516D01*
X58694Y-31369D01*
X58503Y-31289D01*
X58295Y-31289D01*
X58103Y-31368D01*
X57956Y-31515D01*
X57897Y-31653D01*
X57841Y-31516D01*
X57694Y-31369D01*
X57503Y-31289D01*
X57295Y-31289D01*
X57103Y-31368D01*
X57088Y-31382D01*
X57048Y-31285D01*
X56924Y-31160D01*
X56761Y-31093D01*
X56646Y-31092D01*
X56535Y-31203D01*
X56535Y-31674D01*
X56545Y-31674D01*
X56545Y-31948D01*
X56535Y-31948D01*
X56535Y-32419D01*
X56646Y-32530D01*
X56761Y-32529D01*
X56924Y-32462D01*
X57048Y-32337D01*
X57088Y-32239D01*
X57102Y-32253D01*
X57293Y-32333D01*
X57501Y-32333D01*
X57693Y-32254D01*
X57840Y-32107D01*
X57898Y-31968D01*
X57955Y-32106D01*
X58102Y-32253D01*
X58293Y-32333D01*
X58501Y-32333D01*
X58693Y-32254D01*
X58840Y-32107D01*
X58898Y-31968D01*
X58955Y-32106D01*
X59102Y-32253D01*
X59293Y-32333D01*
X59501Y-32333D01*
X59693Y-32254D01*
X59840Y-32107D01*
X59898Y-31968D01*
X59955Y-32106D01*
X60102Y-32253D01*
X60293Y-32333D01*
X60501Y-32333D01*
X60693Y-32254D01*
X60840Y-32107D01*
X60920Y-31916D01*
X60920Y-31708D01*
X60841Y-31516D01*
X60704Y-31379D01*
X64384Y-31385D01*
X65300Y-33010D01*
X65253Y-33038D01*
X65194Y-33116D01*
X65168Y-33211D01*
X65181Y-33308D01*
X65230Y-33392D01*
X65351Y-33601D01*
X65221Y-33867D01*
X65215Y-33890D01*
X65204Y-33910D01*
X65199Y-33949D01*
X65190Y-33986D01*
X65192Y-34007D01*
X65190Y-34033D01*
X65201Y-34071D01*
X65206Y-34109D01*
X65217Y-34129D01*
X65224Y-34151D01*
X65389Y-34470D01*
X65334Y-34651D01*
X60070Y-37991D01*
X60070Y-37498D01*
X60069Y-37353D01*
X60002Y-37190D01*
X59877Y-37066D01*
X59714Y-36998D01*
X59588Y-36998D01*
X59478Y-37108D01*
X59478Y-37609D01*
X59959Y-37609D01*
X60070Y-37498D01*
X60070Y-37991D01*
X60056Y-38000D01*
X59959Y-37903D01*
X59528Y-37903D01*
X59478Y-37903D01*
X59204Y-37903D01*
X59204Y-37498D01*
X59203Y-37353D01*
X59184Y-37306D01*
X59184Y-37108D01*
X59074Y-36998D01*
X58948Y-36998D01*
X58898Y-37018D01*
X58848Y-36998D01*
X58722Y-36998D01*
X58612Y-37108D01*
X58612Y-37306D01*
X58593Y-37353D01*
X58592Y-37498D01*
X58612Y-37518D01*
X58612Y-37609D01*
X58703Y-37609D01*
X59093Y-37609D01*
X59184Y-37609D01*
X59184Y-37518D01*
X59204Y-37498D01*
X59204Y-37903D01*
X59184Y-37903D01*
X59134Y-37903D01*
X59093Y-37903D01*
X58703Y-37903D01*
X58662Y-37903D01*
X58612Y-37903D01*
X58338Y-37903D01*
X58338Y-37498D01*
X58337Y-37353D01*
X58318Y-37306D01*
X58318Y-37108D01*
X58208Y-36998D01*
X58082Y-36998D01*
X58032Y-37018D01*
X57982Y-36998D01*
X57856Y-36998D01*
X57746Y-37108D01*
X57746Y-37306D01*
X57727Y-37353D01*
X57726Y-37498D01*
X57746Y-37518D01*
X57746Y-37609D01*
X57837Y-37609D01*
X58227Y-37609D01*
X58318Y-37609D01*
X58318Y-37518D01*
X58338Y-37498D01*
X58338Y-37903D01*
X58318Y-37903D01*
X58268Y-37903D01*
X58227Y-37903D01*
X57837Y-37903D01*
X57746Y-37903D01*
X57746Y-37994D01*
X57726Y-38014D01*
X57727Y-38159D01*
X57746Y-38205D01*
X57746Y-38404D01*
X57856Y-38514D01*
X57982Y-38514D01*
X58032Y-38493D01*
X58082Y-38514D01*
X58208Y-38514D01*
X58268Y-38454D01*
X58268Y-38515D01*
X58338Y-38515D01*
X58372Y-38515D01*
X58338Y-38562D01*
X58328Y-38576D01*
X57974Y-38579D01*
X57949Y-38584D01*
X57928Y-38583D01*
X57894Y-38595D01*
X57853Y-38604D01*
X57830Y-38618D01*
X57812Y-38626D01*
X57786Y-38649D01*
X57750Y-38674D01*
X57735Y-38695D01*
X57721Y-38709D01*
X57618Y-38849D01*
X57452Y-38849D01*
X57452Y-38404D01*
X57452Y-37903D01*
X57452Y-37609D01*
X57452Y-37108D01*
X57342Y-36998D01*
X57216Y-36998D01*
X57053Y-37066D01*
X56928Y-37190D01*
X56861Y-37353D01*
X56860Y-37498D01*
X56971Y-37609D01*
X57452Y-37609D01*
X57452Y-37903D01*
X56971Y-37903D01*
X56860Y-38014D01*
X56861Y-38159D01*
X56928Y-38322D01*
X57053Y-38446D01*
X57216Y-38514D01*
X57342Y-38514D01*
X57452Y-38404D01*
X57452Y-38849D01*
X57255Y-38849D01*
X57165Y-38886D01*
X57095Y-38956D01*
X57058Y-39046D01*
X57058Y-39144D01*
X57058Y-39774D01*
X57095Y-39864D01*
X57165Y-39934D01*
X57255Y-39971D01*
X57353Y-39971D01*
X57943Y-39971D01*
X58031Y-39934D01*
X58032Y-39934D01*
X58033Y-39934D01*
X58121Y-39971D01*
X58219Y-39971D01*
X58809Y-39971D01*
X58897Y-39934D01*
X58898Y-39934D01*
X58899Y-39934D01*
X58987Y-39971D01*
X59085Y-39971D01*
X59675Y-39971D01*
X59765Y-39934D01*
X59835Y-39864D01*
X59872Y-39774D01*
X59872Y-39676D01*
X59872Y-39446D01*
X66385Y-35392D01*
X66391Y-35402D01*
X66468Y-35462D01*
X66564Y-35487D01*
X66660Y-35475D01*
X66745Y-35426D01*
X67291Y-35111D01*
X67350Y-35033D01*
X67376Y-34938D01*
X67363Y-34841D01*
X67314Y-34757D01*
X67181Y-34527D01*
X67290Y-34280D01*
X67298Y-34243D01*
X67310Y-34216D01*
X67310Y-34190D01*
X67317Y-34160D01*
X67310Y-34125D01*
X67311Y-34092D01*
X67299Y-34063D01*
X67351Y-34153D01*
X67502Y-34194D01*
X67673Y-34094D01*
X67724Y-34088D01*
X67850Y-34016D01*
X67857Y-33988D01*
X67936Y-33943D01*
X67890Y-33864D01*
X67891Y-33864D01*
X67751Y-33624D01*
X67696Y-33527D01*
X67695Y-33526D01*
X67675Y-33491D01*
X67650Y-33448D01*
X67503Y-33193D01*
X67478Y-33150D01*
X67458Y-33115D01*
X67263Y-32777D01*
X67262Y-32776D01*
X67242Y-32742D01*
X67230Y-32722D01*
X67217Y-32699D01*
X67070Y-32444D01*
X67045Y-32401D01*
X66830Y-32028D01*
X66678Y-31987D01*
X66553Y-32060D01*
X66448Y-32194D01*
X66432Y-32176D01*
X66399Y-32160D01*
X66368Y-32138D01*
X66199Y-32063D01*
X65197Y-30320D01*
X65158Y-30276D01*
X65146Y-30257D01*
X65136Y-30250D01*
X65116Y-30227D01*
X65055Y-30197D01*
X65042Y-30188D01*
X65034Y-30186D01*
X65005Y-30172D01*
X64940Y-30167D01*
X64921Y-30164D01*
X64882Y-30164D01*
X64881Y-30164D01*
X64880Y-30164D01*
X60070Y-30171D01*
X60070Y-28171D01*
X60070Y-27655D01*
X60069Y-27510D01*
X60002Y-27347D01*
X59877Y-27223D01*
X59714Y-27155D01*
X59588Y-27155D01*
X59478Y-27265D01*
X59478Y-27766D01*
X59959Y-27766D01*
X60070Y-27655D01*
X60070Y-28171D01*
X59959Y-28060D01*
X59478Y-28060D01*
X59478Y-28561D01*
X59588Y-28671D01*
X59714Y-28671D01*
X59877Y-28603D01*
X60002Y-28479D01*
X60069Y-28316D01*
X60070Y-28171D01*
X60070Y-30171D01*
X59890Y-30172D01*
X59774Y-30081D01*
X59835Y-30021D01*
X59872Y-29931D01*
X59872Y-29833D01*
X59872Y-29203D01*
X59835Y-29113D01*
X59765Y-29043D01*
X59675Y-29006D01*
X59577Y-29006D01*
X59336Y-29006D01*
X59253Y-28882D01*
X59232Y-28861D01*
X59212Y-28831D01*
X59204Y-28825D01*
X59185Y-28813D01*
X59166Y-28794D01*
X59137Y-28782D01*
X59108Y-28763D01*
X59077Y-28757D01*
X59052Y-28747D01*
X59020Y-28747D01*
X58987Y-28741D01*
X58529Y-28745D01*
X58469Y-28672D01*
X58662Y-28672D01*
X58662Y-28611D01*
X58722Y-28671D01*
X58848Y-28671D01*
X58898Y-28650D01*
X58948Y-28671D01*
X59074Y-28671D01*
X59184Y-28561D01*
X59184Y-28362D01*
X59203Y-28316D01*
X59204Y-28171D01*
X59204Y-27655D01*
X59203Y-27510D01*
X59184Y-27463D01*
X59184Y-27265D01*
X59074Y-27155D01*
X58948Y-27155D01*
X58898Y-27175D01*
X58848Y-27155D01*
X58722Y-27155D01*
X58612Y-27265D01*
X58612Y-27463D01*
X58593Y-27510D01*
X58592Y-27655D01*
X58612Y-27675D01*
X58612Y-27766D01*
X58703Y-27766D01*
X59093Y-27766D01*
X59184Y-27766D01*
X59184Y-27675D01*
X59204Y-27655D01*
X59204Y-28171D01*
X59184Y-28151D01*
X59184Y-28060D01*
X59093Y-28060D01*
X58703Y-28060D01*
X58662Y-28060D01*
X58612Y-28060D01*
X58338Y-28060D01*
X58338Y-27655D01*
X58337Y-27510D01*
X58318Y-27463D01*
X58318Y-27265D01*
X58208Y-27155D01*
X58082Y-27155D01*
X58032Y-27175D01*
X57982Y-27155D01*
X57856Y-27155D01*
X57746Y-27265D01*
X57746Y-27463D01*
X57727Y-27510D01*
X57726Y-27655D01*
X57746Y-27675D01*
X57746Y-27766D01*
X57837Y-27766D01*
X58227Y-27766D01*
X58318Y-27766D01*
X58318Y-27675D01*
X58338Y-27655D01*
X58338Y-28060D01*
X58318Y-28060D01*
X58268Y-28060D01*
X58227Y-28060D01*
X57837Y-28060D01*
X57796Y-28060D01*
X57746Y-28060D01*
X57452Y-28060D01*
X57452Y-27766D01*
X57452Y-27716D01*
X57452Y-27265D01*
X57342Y-27155D01*
X57216Y-27155D01*
X57197Y-27162D01*
X57197Y-26781D01*
X57255Y-26781D01*
X57805Y-26781D01*
X57895Y-26744D01*
X57962Y-26676D01*
X58289Y-26675D01*
X58357Y-26703D01*
X58455Y-26703D01*
X58612Y-26703D01*
X58612Y-26800D01*
X58676Y-26955D01*
X58795Y-27074D01*
X58950Y-27138D01*
X59118Y-27138D01*
X59273Y-27074D01*
X59392Y-26955D01*
X59456Y-26800D01*
X59456Y-26770D01*
X59533Y-26703D01*
X59595Y-26703D01*
X59685Y-26666D01*
X59755Y-26596D01*
X59792Y-26506D01*
X59792Y-26408D01*
X59792Y-26212D01*
X59775Y-26172D01*
X59792Y-26132D01*
X59792Y-26034D01*
X59792Y-25838D01*
X59775Y-25798D01*
X59792Y-25758D01*
X59792Y-25660D01*
X59792Y-25464D01*
X59755Y-25374D01*
X59685Y-25304D01*
X59595Y-25267D01*
X59497Y-25267D01*
X59301Y-25267D01*
X59211Y-25304D01*
X59141Y-25374D01*
X59132Y-25395D01*
X58848Y-25507D01*
X58848Y-25464D01*
X58811Y-25374D01*
X58741Y-25304D01*
X58651Y-25267D01*
X58553Y-25267D01*
X58357Y-25267D01*
X58289Y-25294D01*
X57962Y-25293D01*
X57895Y-25226D01*
X57805Y-25189D01*
X57707Y-25189D01*
X57157Y-25189D01*
X57090Y-25216D01*
X57018Y-25186D01*
X56850Y-25186D01*
X56695Y-25250D01*
X56576Y-25369D01*
X56512Y-25524D01*
X56512Y-25692D01*
X56576Y-25847D01*
X56679Y-25950D01*
X56620Y-26037D01*
X56606Y-26068D01*
X56587Y-26097D01*
X56581Y-26123D01*
X56570Y-26150D01*
X56569Y-26185D01*
X56563Y-26218D01*
X56563Y-28270D01*
X56563Y-28491D01*
X50457Y-31183D01*
X49268Y-31215D01*
X49246Y-31219D01*
X49226Y-31219D01*
X49189Y-31232D01*
X49147Y-31242D01*
X49128Y-31255D01*
X49110Y-31262D01*
X49079Y-31290D01*
X49046Y-31314D01*
X49035Y-31330D01*
X49019Y-31346D01*
X48951Y-31440D01*
X48948Y-31445D01*
X48947Y-31447D01*
X48295Y-32392D01*
X48274Y-32438D01*
X48254Y-32477D01*
X48252Y-32489D01*
X48246Y-32505D01*
X48245Y-32555D01*
X48240Y-32601D01*
X48244Y-32615D01*
X48244Y-32629D01*
X48260Y-32670D01*
X48275Y-32719D01*
X48390Y-32940D01*
X48248Y-33180D01*
X48240Y-33201D01*
X48227Y-33221D01*
X48219Y-33258D01*
X48206Y-33296D01*
X48207Y-33320D01*
X48203Y-33343D01*
X48210Y-33382D01*
X48213Y-33420D01*
X48222Y-33439D01*
X48227Y-33464D01*
X48321Y-33689D01*
X48134Y-34014D01*
X48121Y-34111D01*
X48147Y-34206D01*
X48206Y-34284D01*
X48291Y-34333D01*
X48554Y-34484D01*
X49829Y-41943D01*
X49638Y-42054D01*
X49579Y-42132D01*
X49553Y-42227D01*
X49566Y-42324D01*
X49615Y-42408D01*
X49729Y-42606D01*
X49613Y-42832D01*
X49608Y-42849D01*
X49598Y-42865D01*
X49556Y-42974D01*
X49556Y-42975D01*
X49545Y-43003D01*
X49427Y-42971D01*
X49319Y-43033D01*
X49319Y-42566D01*
X49257Y-42457D01*
X49117Y-42350D01*
X48947Y-42304D01*
X48772Y-42327D01*
X48646Y-42399D01*
X48605Y-42551D01*
X48846Y-42967D01*
X49280Y-42717D01*
X49319Y-42566D01*
X49319Y-43033D01*
X49257Y-43069D01*
X49205Y-43076D01*
X49079Y-43148D01*
X49071Y-43176D01*
X48993Y-43222D01*
X49038Y-43300D01*
X49233Y-43638D01*
X49254Y-43673D01*
X49271Y-43702D01*
X49279Y-43716D01*
X49426Y-43970D01*
X49426Y-43971D01*
X49451Y-44014D01*
X49471Y-44049D01*
X49471Y-44050D01*
X49610Y-44290D01*
X49666Y-44387D01*
X49687Y-44423D01*
X49691Y-44431D01*
X49712Y-44466D01*
X49859Y-44720D01*
X49859Y-44721D01*
X49884Y-44764D01*
X50099Y-45137D01*
X50251Y-45178D01*
X50376Y-45105D01*
X50409Y-45061D01*
X55676Y-50025D01*
X55680Y-50030D01*
X55685Y-50033D01*
X55783Y-50098D01*
X55790Y-50099D01*
X55904Y-50121D01*
X56707Y-50115D01*
X56965Y-50388D01*
X56970Y-50391D01*
X56972Y-50394D01*
X57004Y-50415D01*
X57066Y-50459D01*
X57070Y-50460D01*
X57075Y-50463D01*
X57133Y-50474D01*
X57187Y-50487D01*
X57191Y-50486D01*
X57196Y-50487D01*
X58776Y-50487D01*
X58813Y-50479D01*
X58852Y-50478D01*
X58874Y-50467D01*
X58897Y-50463D01*
X58929Y-50441D01*
X58964Y-50425D01*
X58980Y-50407D01*
X59000Y-50394D01*
X59021Y-50362D01*
X59047Y-50334D01*
X59362Y-49814D01*
X59675Y-49814D01*
X59765Y-49777D01*
X59835Y-49707D01*
X59872Y-49617D01*
X59872Y-49519D01*
X59872Y-49331D01*
X60171Y-49178D01*
X60200Y-49154D01*
X60234Y-49135D01*
X65699Y-44384D01*
X65884Y-44491D01*
X65980Y-44503D01*
X66076Y-44478D01*
X66153Y-44418D01*
X66202Y-44334D01*
X66497Y-43823D01*
X66509Y-43729D01*
X66509Y-43728D01*
X66586Y-43669D01*
X66635Y-43585D01*
X66930Y-43074D01*
X66942Y-42979D01*
X66942Y-42978D01*
X66943Y-42977D01*
X67019Y-42919D01*
X67068Y-42835D01*
X67221Y-42569D01*
X67594Y-42501D01*
X67633Y-42523D01*
X67609Y-42565D01*
X67609Y-42566D01*
X67649Y-42717D01*
X68040Y-42942D01*
X68083Y-42967D01*
X68338Y-43114D01*
X68186Y-43377D01*
X68145Y-43446D01*
X68145Y-43447D01*
X67950Y-43785D01*
X67936Y-43809D01*
X67936Y-43222D01*
X67857Y-43176D01*
X67850Y-43148D01*
X67724Y-43076D01*
X67671Y-43069D01*
X67502Y-42971D01*
X67351Y-43011D01*
X67351Y-43012D01*
X67289Y-43121D01*
X67282Y-43173D01*
X67239Y-43206D01*
X67176Y-43314D01*
X67176Y-43315D01*
X67216Y-43466D01*
X67386Y-43564D01*
X67419Y-43606D01*
X67544Y-43679D01*
X67572Y-43671D01*
X67650Y-43716D01*
X67695Y-43638D01*
X67696Y-43638D01*
X67891Y-43300D01*
X67936Y-43222D01*
X67936Y-43809D01*
X67905Y-43863D01*
X67983Y-43908D01*
X67991Y-43937D01*
X68117Y-44009D01*
X68169Y-44015D01*
X68339Y-44114D01*
X68489Y-44073D01*
X68552Y-43964D01*
X68558Y-43911D01*
X68570Y-43903D01*
X68551Y-44620D01*
X68448Y-44620D01*
X68293Y-44684D01*
X68231Y-44746D01*
X68231Y-44518D01*
X68192Y-44368D01*
X68019Y-44268D01*
X67989Y-44229D01*
X67864Y-44156D01*
X67836Y-44163D01*
X67758Y-44118D01*
X67712Y-44196D01*
X67712Y-44197D01*
X67656Y-44294D01*
X67517Y-44534D01*
X67503Y-44558D01*
X67503Y-43971D01*
X67424Y-43925D01*
X67417Y-43898D01*
X67291Y-43826D01*
X67240Y-43819D01*
X67069Y-43720D01*
X66918Y-43760D01*
X66918Y-43761D01*
X66856Y-43870D01*
X66849Y-43923D01*
X66806Y-43956D01*
X66743Y-44064D01*
X66743Y-44065D01*
X66783Y-44216D01*
X66955Y-44315D01*
X66986Y-44355D01*
X67111Y-44428D01*
X67138Y-44420D01*
X67217Y-44466D01*
X67262Y-44387D01*
X67263Y-44387D01*
X67318Y-44290D01*
X67458Y-44050D01*
X67457Y-44049D01*
X67503Y-43971D01*
X67503Y-44558D01*
X67472Y-44613D01*
X67550Y-44658D01*
X67558Y-44686D01*
X67684Y-44758D01*
X67734Y-44764D01*
X67906Y-44864D01*
X68056Y-44823D01*
X68119Y-44714D01*
X68125Y-44660D01*
X68169Y-44628D01*
X68231Y-44518D01*
X68231Y-44746D01*
X68174Y-44803D01*
X68110Y-44958D01*
X68110Y-45126D01*
X68174Y-45281D01*
X68293Y-45400D01*
X68333Y-45416D01*
X68369Y-45514D01*
X68360Y-45531D01*
X68347Y-45628D01*
X68372Y-45723D01*
X68432Y-45800D01*
X68517Y-45849D01*
X68686Y-45947D01*
X68729Y-45952D01*
X68756Y-45987D01*
X68841Y-46036D01*
X69010Y-46134D01*
X69053Y-46139D01*
X69080Y-46174D01*
X69165Y-46223D01*
X69334Y-46321D01*
X69431Y-46334D01*
X69526Y-46309D01*
X69603Y-46249D01*
X69652Y-46164D01*
X69750Y-45995D01*
X69763Y-45898D01*
X69738Y-45803D01*
X69724Y-45785D01*
X69768Y-45481D01*
X69806Y-45503D01*
X69903Y-45516D01*
X69998Y-45491D01*
X70075Y-45431D01*
X70124Y-45346D01*
X70222Y-45177D01*
X70232Y-45098D01*
X70368Y-44853D01*
X70451Y-44832D01*
X70528Y-44772D01*
X70577Y-44687D01*
X70852Y-44211D01*
X70861Y-44141D01*
X70962Y-44041D01*
X71026Y-43886D01*
X71026Y-45708D01*
X69643Y-48103D01*
X67798Y-48103D01*
X67798Y-45268D01*
X67759Y-45118D01*
X67325Y-44868D01*
X67084Y-45284D01*
X67125Y-45436D01*
X67251Y-45508D01*
X67426Y-45531D01*
X67596Y-45485D01*
X67736Y-45378D01*
X67798Y-45268D01*
X67798Y-48103D01*
X67070Y-48103D01*
X67070Y-44721D01*
X66636Y-44470D01*
X66485Y-44510D01*
X66485Y-44511D01*
X66423Y-44620D01*
X66400Y-44795D01*
X66445Y-44965D01*
X66553Y-45105D01*
X66678Y-45178D01*
X66830Y-45137D01*
X67070Y-44721D01*
X67070Y-48103D01*
X64147Y-48103D01*
X64103Y-48111D01*
X64064Y-48114D01*
X64043Y-48123D01*
X64024Y-48128D01*
X63987Y-48151D01*
X63951Y-48170D01*
X63938Y-48184D01*
X63919Y-48197D01*
X63895Y-48233D01*
X63868Y-48264D01*
X61119Y-53024D01*
X59342Y-53024D01*
X59342Y-51946D01*
X59342Y-51597D01*
X59209Y-51275D01*
X58962Y-51028D01*
X58640Y-50894D01*
X58291Y-50894D01*
X57969Y-51027D01*
X57722Y-51274D01*
X57588Y-51596D01*
X57588Y-51945D01*
X57721Y-52267D01*
X57968Y-52514D01*
X58290Y-52648D01*
X58639Y-52648D01*
X58961Y-52515D01*
X59208Y-52268D01*
X59342Y-51946D01*
X59342Y-53024D01*
X55809Y-53024D01*
X53061Y-48264D01*
X53033Y-48233D01*
X53010Y-48197D01*
X52990Y-48184D01*
X52978Y-48170D01*
X52941Y-48151D01*
X52905Y-48128D01*
X52885Y-48123D01*
X52865Y-48114D01*
X52822Y-48111D01*
X52782Y-48103D01*
X49845Y-48103D01*
X49845Y-45284D01*
X49604Y-44868D01*
X49457Y-44952D01*
X49457Y-44613D01*
X49411Y-44534D01*
X49412Y-44534D01*
X49272Y-44294D01*
X49217Y-44197D01*
X49216Y-44196D01*
X49196Y-44161D01*
X49171Y-44118D01*
X49024Y-43863D01*
X48999Y-43820D01*
X48979Y-43785D01*
X48784Y-43447D01*
X48783Y-43446D01*
X48738Y-43369D01*
X48660Y-43413D01*
X48632Y-43406D01*
X48591Y-43429D01*
X48591Y-43114D01*
X48351Y-42698D01*
X48199Y-42657D01*
X48074Y-42730D01*
X47966Y-42870D01*
X47921Y-43040D01*
X47944Y-43215D01*
X48006Y-43324D01*
X48157Y-43365D01*
X48591Y-43114D01*
X48591Y-43429D01*
X48507Y-43479D01*
X48474Y-43520D01*
X48304Y-43619D01*
X48264Y-43769D01*
X48264Y-43771D01*
X48327Y-43879D01*
X48370Y-43911D01*
X48377Y-43964D01*
X48439Y-44073D01*
X48522Y-44095D01*
X48469Y-44126D01*
X48476Y-44138D01*
X48376Y-44239D01*
X48312Y-44394D01*
X48312Y-44562D01*
X48335Y-44619D01*
X48220Y-44907D01*
X48144Y-44847D01*
X48183Y-44825D01*
X48243Y-44748D01*
X48268Y-44653D01*
X48255Y-44556D01*
X48206Y-44471D01*
X48108Y-44302D01*
X48059Y-44264D01*
X47922Y-44015D01*
X47926Y-44011D01*
X47952Y-43916D01*
X47939Y-43819D01*
X47920Y-43786D01*
X47920Y-32163D01*
X47920Y-31814D01*
X47787Y-31492D01*
X47540Y-31245D01*
X47218Y-31111D01*
X46869Y-31111D01*
X46547Y-31244D01*
X46300Y-31491D01*
X46166Y-31813D01*
X46166Y-32162D01*
X46299Y-32484D01*
X46546Y-32731D01*
X46868Y-32865D01*
X47217Y-32865D01*
X47539Y-32732D01*
X47786Y-32485D01*
X47920Y-32163D01*
X47920Y-43786D01*
X47890Y-43734D01*
X47615Y-43258D01*
X47562Y-43216D01*
X47562Y-43178D01*
X47498Y-43023D01*
X47379Y-42904D01*
X47224Y-42840D01*
X47056Y-42840D01*
X46901Y-42904D01*
X46782Y-43023D01*
X46718Y-43178D01*
X46718Y-43346D01*
X46782Y-43501D01*
X46843Y-43562D01*
X46792Y-43549D01*
X46695Y-43562D01*
X46611Y-43611D01*
X46308Y-43786D01*
X46248Y-43863D01*
X46222Y-43958D01*
X46235Y-44055D01*
X46284Y-44140D01*
X46559Y-44616D01*
X46636Y-44676D01*
X46717Y-44697D01*
X46854Y-44943D01*
X46865Y-45020D01*
X46914Y-45105D01*
X47012Y-45274D01*
X47056Y-45308D01*
X47056Y-45464D01*
X47120Y-45619D01*
X47239Y-45738D01*
X47328Y-45774D01*
X47337Y-45838D01*
X47386Y-45923D01*
X47484Y-46092D01*
X47561Y-46152D01*
X47656Y-46177D01*
X47753Y-46164D01*
X47838Y-46115D01*
X48007Y-46017D01*
X48033Y-45982D01*
X48077Y-45977D01*
X48162Y-45928D01*
X48331Y-45830D01*
X48357Y-45795D01*
X48401Y-45790D01*
X48486Y-45741D01*
X48655Y-45643D01*
X48715Y-45566D01*
X48740Y-45471D01*
X48727Y-45374D01*
X48720Y-45362D01*
X48923Y-44856D01*
X48951Y-44844D01*
X49023Y-44864D01*
X49194Y-44764D01*
X49245Y-44758D01*
X49371Y-44686D01*
X49378Y-44658D01*
X49457Y-44613D01*
X49457Y-44952D01*
X49170Y-45118D01*
X49130Y-45268D01*
X49130Y-45270D01*
X49193Y-45378D01*
X49333Y-45485D01*
X49503Y-45531D01*
X49678Y-45508D01*
X49804Y-45436D01*
X49845Y-45284D01*
X49845Y-48103D01*
X47285Y-48103D01*
X44629Y-43504D01*
X47378Y-38744D01*
X47390Y-38707D01*
X47411Y-38666D01*
X47412Y-38641D01*
X47418Y-38625D01*
X47415Y-38585D01*
X47418Y-38541D01*
X47411Y-38521D01*
X47410Y-38500D01*
X47392Y-38464D01*
X47378Y-38422D01*
X44629Y-33661D01*
X47285Y-29062D01*
X52782Y-29062D01*
X52822Y-29053D01*
X52865Y-29051D01*
X52885Y-29041D01*
X52905Y-29037D01*
X52941Y-29013D01*
X52978Y-28995D01*
X52990Y-28980D01*
X53010Y-28968D01*
X53033Y-28931D01*
X53061Y-28901D01*
X55809Y-24141D01*
X61119Y-24141D01*
X63868Y-28901D01*
X63895Y-28931D01*
X63919Y-28968D01*
X63938Y-28980D01*
X63951Y-28995D01*
X63987Y-29013D01*
X64024Y-29037D01*
X64043Y-29041D01*
X64064Y-29051D01*
X64103Y-29053D01*
X64147Y-29062D01*
X69643Y-29062D01*
X72299Y-33661D01*
X70764Y-36320D01*
X70764Y-32163D01*
X70764Y-31814D01*
X70631Y-31492D01*
X70384Y-31245D01*
X70062Y-31111D01*
X69713Y-31111D01*
X69391Y-31244D01*
X69144Y-31491D01*
X69010Y-31813D01*
X69010Y-32162D01*
X69143Y-32484D01*
X69390Y-32731D01*
X69712Y-32865D01*
X70061Y-32865D01*
X70383Y-32732D01*
X70630Y-32485D01*
X70764Y-32163D01*
X70764Y-36320D01*
X69551Y-38422D01*
X69536Y-38463D01*
X69519Y-38500D01*
X69517Y-38521D01*
X69511Y-38541D01*
X69513Y-38583D01*
X69511Y-38625D01*
X69517Y-38644D01*
X69519Y-38666D01*
X69536Y-38702D01*
X69551Y-38744D01*
X72299Y-43504D01*
X72299Y-43504D01*
G37*
G54D18*
X72299Y-43504D02*
X71026Y-45708D01*
X71026Y-43886D01*
X71026Y-43718D01*
X70962Y-43563D01*
X70843Y-43444D01*
X70688Y-43380D01*
X70520Y-43380D01*
X70365Y-43444D01*
X70246Y-43563D01*
X70198Y-43678D01*
X70189Y-43645D01*
X70129Y-43568D01*
X70045Y-43519D01*
X69742Y-43344D01*
X69645Y-43331D01*
X69549Y-43356D01*
X69472Y-43416D01*
X69423Y-43501D01*
X69205Y-43878D01*
X69225Y-43113D01*
X69219Y-43082D01*
X69221Y-43054D01*
X69209Y-43022D01*
X69204Y-42991D01*
X69188Y-42966D01*
X69178Y-42938D01*
X69008Y-42660D01*
X69008Y-34125D01*
X68985Y-33950D01*
X68922Y-33840D01*
X68772Y-33800D01*
X68664Y-33862D01*
X68664Y-33395D01*
X68602Y-33286D01*
X68558Y-33253D01*
X68552Y-33200D01*
X68489Y-33090D01*
X68339Y-33050D01*
X68231Y-33112D01*
X68231Y-32645D01*
X68169Y-32536D01*
X68125Y-32503D01*
X68119Y-32451D01*
X68056Y-32341D01*
X67906Y-32301D01*
X67798Y-32363D01*
X67798Y-31896D01*
X67736Y-31787D01*
X67596Y-31680D01*
X67426Y-31634D01*
X67251Y-31657D01*
X67125Y-31729D01*
X67084Y-31881D01*
X67325Y-32297D01*
X67759Y-32047D01*
X67798Y-31896D01*
X67798Y-32363D01*
X67736Y-32399D01*
X67684Y-32406D01*
X67558Y-32478D01*
X67550Y-32506D01*
X67472Y-32552D01*
X67517Y-32630D01*
X67712Y-32968D01*
X67758Y-33046D01*
X67835Y-33001D01*
X67864Y-33009D01*
X67989Y-32936D01*
X68021Y-32894D01*
X68192Y-32796D01*
X68231Y-32645D01*
X68231Y-33112D01*
X68167Y-33149D01*
X68117Y-33156D01*
X67991Y-33228D01*
X67983Y-33255D01*
X67905Y-33301D01*
X67950Y-33379D01*
X67950Y-33380D01*
X68089Y-33620D01*
X68145Y-33717D01*
X68191Y-33796D01*
X68269Y-33750D01*
X68297Y-33758D01*
X68422Y-33685D01*
X68452Y-33645D01*
X68625Y-33546D01*
X68664Y-33395D01*
X68664Y-33862D01*
X68338Y-34051D01*
X68578Y-34467D01*
X68730Y-34508D01*
X68855Y-34435D01*
X68963Y-34295D01*
X69008Y-34125D01*
X69008Y-42660D01*
X68967Y-42594D01*
X68955Y-42581D01*
X68946Y-42563D01*
X68909Y-42531D01*
X68884Y-42504D01*
X68869Y-42497D01*
X68853Y-42483D01*
X68324Y-42184D01*
X68324Y-34614D01*
X68083Y-34198D01*
X67649Y-34448D01*
X67609Y-34598D01*
X67609Y-34600D01*
X67672Y-34708D01*
X67812Y-34815D01*
X67982Y-34861D01*
X68157Y-34838D01*
X68283Y-34766D01*
X68324Y-34614D01*
X68324Y-42184D01*
X67806Y-41893D01*
X67755Y-41876D01*
X67716Y-41859D01*
X67702Y-41858D01*
X67688Y-41854D01*
X67641Y-41857D01*
X67593Y-41857D01*
X67103Y-41946D01*
X66660Y-41690D01*
X66564Y-41678D01*
X66468Y-41703D01*
X66391Y-41763D01*
X66342Y-41847D01*
X66209Y-42077D01*
X65977Y-42103D01*
X65961Y-42107D01*
X65948Y-42108D01*
X65906Y-42125D01*
X65860Y-42140D01*
X65848Y-42149D01*
X65833Y-42156D01*
X65795Y-42194D01*
X65765Y-42220D01*
X65758Y-42232D01*
X65747Y-42244D01*
X65566Y-42516D01*
X65458Y-42515D01*
X65408Y-42523D01*
X65373Y-42526D01*
X65358Y-42533D01*
X65337Y-42537D01*
X65295Y-42563D01*
X65261Y-42581D01*
X65248Y-42594D01*
X65233Y-42605D01*
X65210Y-42637D01*
X65179Y-42673D01*
X64467Y-43896D01*
X60070Y-47772D01*
X60070Y-47341D01*
X60069Y-47196D01*
X60002Y-47033D01*
X59877Y-46909D01*
X59714Y-46841D01*
X59588Y-46841D01*
X59478Y-46951D01*
X59478Y-47452D01*
X59959Y-47452D01*
X60070Y-47341D01*
X60070Y-47772D01*
X60025Y-47812D01*
X59959Y-47746D01*
X59528Y-47746D01*
X59478Y-47746D01*
X59204Y-47746D01*
X59204Y-47341D01*
X59203Y-47196D01*
X59184Y-47149D01*
X59184Y-46951D01*
X59074Y-46841D01*
X58948Y-46841D01*
X58898Y-46861D01*
X58848Y-46841D01*
X58722Y-46841D01*
X58612Y-46951D01*
X58612Y-47149D01*
X58593Y-47196D01*
X58592Y-47341D01*
X58612Y-47361D01*
X58612Y-47452D01*
X58703Y-47452D01*
X59093Y-47452D01*
X59184Y-47452D01*
X59184Y-47361D01*
X59204Y-47341D01*
X59204Y-47746D01*
X59184Y-47746D01*
X59134Y-47746D01*
X59093Y-47746D01*
X58703Y-47746D01*
X58662Y-47746D01*
X58612Y-47746D01*
X58338Y-47746D01*
X58338Y-47341D01*
X58337Y-47196D01*
X58318Y-47149D01*
X58318Y-46951D01*
X58208Y-46841D01*
X58082Y-46841D01*
X58032Y-46861D01*
X57982Y-46841D01*
X57856Y-46841D01*
X57746Y-46951D01*
X57746Y-47149D01*
X57727Y-47196D01*
X57726Y-47341D01*
X57746Y-47361D01*
X57746Y-47452D01*
X57837Y-47452D01*
X58227Y-47452D01*
X58318Y-47452D01*
X58318Y-47361D01*
X58338Y-47341D01*
X58338Y-47746D01*
X58318Y-47746D01*
X58268Y-47746D01*
X58227Y-47746D01*
X57837Y-47746D01*
X57746Y-47746D01*
X57746Y-47837D01*
X57726Y-47857D01*
X57727Y-48002D01*
X57746Y-48048D01*
X57746Y-48247D01*
X57856Y-48357D01*
X57982Y-48357D01*
X58032Y-48336D01*
X58082Y-48357D01*
X58208Y-48357D01*
X58268Y-48297D01*
X58268Y-48358D01*
X58338Y-48358D01*
X58414Y-48358D01*
X58380Y-48403D01*
X58338Y-48402D01*
X57928Y-48395D01*
X57886Y-48402D01*
X57844Y-48405D01*
X57825Y-48413D01*
X57807Y-48417D01*
X57773Y-48438D01*
X57732Y-48458D01*
X57717Y-48474D01*
X57702Y-48484D01*
X57678Y-48516D01*
X57649Y-48550D01*
X57564Y-48692D01*
X57452Y-48692D01*
X57452Y-48247D01*
X57452Y-47746D01*
X57452Y-47452D01*
X57452Y-46951D01*
X57342Y-46841D01*
X57216Y-46841D01*
X57053Y-46909D01*
X56928Y-47033D01*
X56861Y-47196D01*
X56860Y-47341D01*
X56971Y-47452D01*
X57452Y-47452D01*
X57452Y-47746D01*
X56971Y-47746D01*
X56860Y-47857D01*
X56861Y-48002D01*
X56928Y-48165D01*
X57053Y-48289D01*
X57216Y-48357D01*
X57342Y-48357D01*
X57452Y-48247D01*
X57452Y-48692D01*
X57255Y-48692D01*
X57165Y-48729D01*
X57095Y-48799D01*
X57058Y-48889D01*
X57058Y-48940D01*
X56277Y-48947D01*
X56261Y-48931D01*
X56261Y-32419D01*
X56261Y-31948D01*
X56261Y-31674D01*
X56261Y-31203D01*
X56150Y-31092D01*
X56035Y-31093D01*
X55872Y-31160D01*
X55748Y-31285D01*
X55680Y-31448D01*
X55680Y-31564D01*
X55790Y-31674D01*
X56261Y-31674D01*
X56261Y-31948D01*
X55790Y-31948D01*
X55680Y-32058D01*
X55680Y-32174D01*
X55748Y-32337D01*
X55872Y-32462D01*
X56035Y-32529D01*
X56150Y-32530D01*
X56261Y-32419D01*
X56261Y-48931D01*
X51961Y-44865D01*
X51961Y-33197D01*
X51916Y-33027D01*
X51808Y-32887D01*
X51683Y-32814D01*
X51531Y-32855D01*
X51291Y-33271D01*
X51725Y-33522D01*
X51875Y-33481D01*
X51938Y-33372D01*
X51961Y-33197D01*
X51961Y-44865D01*
X51569Y-44495D01*
X51506Y-44224D01*
X51676Y-44127D01*
X51735Y-44049D01*
X51761Y-43954D01*
X51748Y-43857D01*
X51699Y-43773D01*
X51577Y-43562D01*
X51653Y-43407D01*
X51664Y-43364D01*
X51676Y-43338D01*
X51676Y-43315D01*
X51684Y-43288D01*
X51678Y-43250D01*
X51680Y-43214D01*
X51670Y-43188D01*
X51667Y-43165D01*
X51650Y-43137D01*
X51636Y-43099D01*
X51617Y-43068D01*
X51617Y-33926D01*
X51578Y-33776D01*
X51407Y-33677D01*
X51375Y-33636D01*
X51277Y-33578D01*
X51277Y-32708D01*
X51236Y-32556D01*
X51110Y-32484D01*
X50935Y-32461D01*
X50765Y-32507D01*
X50625Y-32614D01*
X50562Y-32722D01*
X50562Y-32723D01*
X50602Y-32874D01*
X51036Y-33124D01*
X51277Y-32708D01*
X51277Y-33578D01*
X51250Y-33563D01*
X51221Y-33570D01*
X51144Y-33526D01*
X51098Y-33603D01*
X51098Y-33604D01*
X50903Y-33942D01*
X50858Y-34020D01*
X50936Y-34065D01*
X50944Y-34094D01*
X51070Y-34166D01*
X51122Y-34172D01*
X51292Y-34271D01*
X51442Y-34230D01*
X51505Y-34121D01*
X51511Y-34068D01*
X51555Y-34036D01*
X51617Y-33926D01*
X51617Y-43068D01*
X51452Y-42806D01*
X51532Y-42627D01*
X51536Y-42607D01*
X51546Y-42589D01*
X51550Y-42545D01*
X51559Y-42506D01*
X51555Y-42488D01*
X51558Y-42466D01*
X51542Y-42416D01*
X51537Y-42384D01*
X51529Y-42371D01*
X51522Y-42348D01*
X51184Y-41718D01*
X51184Y-34675D01*
X51145Y-34525D01*
X50972Y-34425D01*
X50942Y-34386D01*
X50817Y-34313D01*
X50789Y-34320D01*
X50711Y-34275D01*
X50665Y-34353D01*
X50665Y-34354D01*
X50609Y-34451D01*
X50470Y-34691D01*
X50425Y-34770D01*
X50503Y-34815D01*
X50511Y-34843D01*
X50637Y-34915D01*
X50687Y-34921D01*
X50859Y-35021D01*
X51009Y-34980D01*
X51072Y-34871D01*
X51078Y-34817D01*
X51122Y-34785D01*
X51184Y-34675D01*
X51184Y-41718D01*
X50908Y-41204D01*
X50751Y-40285D01*
X49934Y-35509D01*
X50025Y-35562D01*
X50055Y-35509D01*
X50078Y-35593D01*
X50204Y-35665D01*
X50379Y-35688D01*
X50549Y-35642D01*
X50689Y-35535D01*
X50751Y-35425D01*
X50712Y-35275D01*
X50321Y-35050D01*
X50278Y-35025D01*
X50277Y-35025D01*
X50023Y-34878D01*
X50022Y-34877D01*
X50170Y-34623D01*
X50195Y-34580D01*
X50194Y-34579D01*
X50215Y-34544D01*
X50216Y-34544D01*
X50271Y-34447D01*
X50411Y-34207D01*
X50410Y-34206D01*
X50430Y-34170D01*
X50431Y-34171D01*
X50448Y-34141D01*
X50456Y-34128D01*
X50455Y-34127D01*
X50603Y-33873D01*
X50628Y-33830D01*
X50627Y-33829D01*
X50648Y-33795D01*
X50649Y-33795D01*
X50844Y-33457D01*
X50889Y-33379D01*
X50810Y-33333D01*
X50803Y-33305D01*
X50677Y-33233D01*
X50624Y-33226D01*
X50455Y-33128D01*
X50304Y-33168D01*
X50304Y-33169D01*
X50252Y-33260D01*
X50264Y-33225D01*
X50262Y-33203D01*
X50267Y-33180D01*
X50257Y-33133D01*
X50255Y-33101D01*
X50247Y-33086D01*
X50242Y-33059D01*
X50131Y-32800D01*
X50260Y-32577D01*
X57058Y-29565D01*
X57058Y-29931D01*
X57095Y-30021D01*
X57165Y-30091D01*
X57255Y-30128D01*
X57353Y-30128D01*
X57721Y-30128D01*
X58916Y-31284D01*
X58919Y-31287D01*
X58956Y-31311D01*
X59018Y-31353D01*
X59021Y-31353D01*
X59022Y-31354D01*
X59033Y-31356D01*
X59101Y-31369D01*
X58956Y-31515D01*
X58897Y-31653D01*
X58841Y-31516D01*
X58694Y-31369D01*
X58503Y-31289D01*
X58295Y-31289D01*
X58103Y-31368D01*
X57956Y-31515D01*
X57897Y-31653D01*
X57841Y-31516D01*
X57694Y-31369D01*
X57503Y-31289D01*
X57295Y-31289D01*
X57103Y-31368D01*
X57088Y-31382D01*
X57048Y-31285D01*
X56924Y-31160D01*
X56761Y-31093D01*
X56646Y-31092D01*
X56535Y-31203D01*
X56535Y-31674D01*
X56545Y-31674D01*
X56545Y-31948D01*
X56535Y-31948D01*
X56535Y-32419D01*
X56646Y-32530D01*
X56761Y-32529D01*
X56924Y-32462D01*
X57048Y-32337D01*
X57088Y-32239D01*
X57102Y-32253D01*
X57293Y-32333D01*
X57501Y-32333D01*
X57693Y-32254D01*
X57840Y-32107D01*
X57898Y-31968D01*
X57955Y-32106D01*
X58102Y-32253D01*
X58293Y-32333D01*
X58501Y-32333D01*
X58693Y-32254D01*
X58840Y-32107D01*
X58898Y-31968D01*
X58955Y-32106D01*
X59102Y-32253D01*
X59293Y-32333D01*
X59501Y-32333D01*
X59693Y-32254D01*
X59840Y-32107D01*
X59898Y-31968D01*
X59955Y-32106D01*
X60102Y-32253D01*
X60293Y-32333D01*
X60501Y-32333D01*
X60693Y-32254D01*
X60840Y-32107D01*
X60920Y-31916D01*
X60920Y-31708D01*
X60841Y-31516D01*
X60704Y-31379D01*
X64384Y-31385D01*
X65300Y-33010D01*
X65253Y-33038D01*
X65194Y-33116D01*
X65168Y-33211D01*
X65181Y-33308D01*
X65230Y-33392D01*
X65351Y-33601D01*
X65221Y-33867D01*
X65215Y-33890D01*
X65204Y-33910D01*
X65199Y-33949D01*
X65190Y-33986D01*
X65192Y-34007D01*
X65190Y-34033D01*
X65201Y-34071D01*
X65206Y-34109D01*
X65217Y-34129D01*
X65224Y-34151D01*
X65389Y-34470D01*
X65334Y-34651D01*
X60070Y-37991D01*
X60070Y-37498D01*
X60069Y-37353D01*
X60002Y-37190D01*
X59877Y-37066D01*
X59714Y-36998D01*
X59588Y-36998D01*
X59478Y-37108D01*
X59478Y-37609D01*
X59959Y-37609D01*
X60070Y-37498D01*
X60070Y-37991D01*
X60056Y-38000D01*
X59959Y-37903D01*
X59528Y-37903D01*
X59478Y-37903D01*
X59204Y-37903D01*
X59204Y-37498D01*
X59203Y-37353D01*
X59184Y-37306D01*
X59184Y-37108D01*
X59074Y-36998D01*
X58948Y-36998D01*
X58898Y-37018D01*
X58848Y-36998D01*
X58722Y-36998D01*
X58612Y-37108D01*
X58612Y-37306D01*
X58593Y-37353D01*
X58592Y-37498D01*
X58612Y-37518D01*
X58612Y-37609D01*
X58703Y-37609D01*
X59093Y-37609D01*
X59184Y-37609D01*
X59184Y-37518D01*
X59204Y-37498D01*
X59204Y-37903D01*
X59184Y-37903D01*
X59134Y-37903D01*
X59093Y-37903D01*
X58703Y-37903D01*
X58662Y-37903D01*
X58612Y-37903D01*
X58338Y-37903D01*
X58338Y-37498D01*
X58337Y-37353D01*
X58318Y-37306D01*
X58318Y-37108D01*
X58208Y-36998D01*
X58082Y-36998D01*
X58032Y-37018D01*
X57982Y-36998D01*
X57856Y-36998D01*
X57746Y-37108D01*
X57746Y-37306D01*
X57727Y-37353D01*
X57726Y-37498D01*
X57746Y-37518D01*
X57746Y-37609D01*
X57837Y-37609D01*
X58227Y-37609D01*
X58318Y-37609D01*
X58318Y-37518D01*
X58338Y-37498D01*
X58338Y-37903D01*
X58318Y-37903D01*
X58268Y-37903D01*
X58227Y-37903D01*
X57837Y-37903D01*
X57746Y-37903D01*
X57746Y-37994D01*
X57726Y-38014D01*
X57727Y-38159D01*
X57746Y-38205D01*
X57746Y-38404D01*
X57856Y-38514D01*
X57982Y-38514D01*
X58032Y-38493D01*
X58082Y-38514D01*
X58208Y-38514D01*
X58268Y-38454D01*
X58268Y-38515D01*
X58338Y-38515D01*
X58372Y-38515D01*
X58338Y-38562D01*
X58328Y-38576D01*
X57974Y-38579D01*
X57949Y-38584D01*
X57928Y-38583D01*
X57894Y-38595D01*
X57853Y-38604D01*
X57830Y-38618D01*
X57812Y-38626D01*
X57786Y-38649D01*
X57750Y-38674D01*
X57735Y-38695D01*
X57721Y-38709D01*
X57618Y-38849D01*
X57452Y-38849D01*
X57452Y-38404D01*
X57452Y-37903D01*
X57452Y-37609D01*
X57452Y-37108D01*
X57342Y-36998D01*
X57216Y-36998D01*
X57053Y-37066D01*
X56928Y-37190D01*
X56861Y-37353D01*
X56860Y-37498D01*
X56971Y-37609D01*
X57452Y-37609D01*
X57452Y-37903D01*
X56971Y-37903D01*
X56860Y-38014D01*
X56861Y-38159D01*
X56928Y-38322D01*
X57053Y-38446D01*
X57216Y-38514D01*
X57342Y-38514D01*
X57452Y-38404D01*
X57452Y-38849D01*
X57255Y-38849D01*
X57165Y-38886D01*
X57095Y-38956D01*
X57058Y-39046D01*
X57058Y-39144D01*
X57058Y-39774D01*
X57095Y-39864D01*
X57165Y-39934D01*
X57255Y-39971D01*
X57353Y-39971D01*
X57943Y-39971D01*
X58031Y-39934D01*
X58032Y-39934D01*
X58033Y-39934D01*
X58121Y-39971D01*
X58219Y-39971D01*
X58809Y-39971D01*
X58897Y-39934D01*
X58898Y-39934D01*
X58899Y-39934D01*
X58987Y-39971D01*
X59085Y-39971D01*
X59675Y-39971D01*
X59765Y-39934D01*
X59835Y-39864D01*
X59872Y-39774D01*
X59872Y-39676D01*
X59872Y-39446D01*
X66385Y-35392D01*
X66391Y-35402D01*
X66468Y-35462D01*
X66564Y-35487D01*
X66660Y-35475D01*
X66745Y-35426D01*
X67291Y-35111D01*
X67350Y-35033D01*
X67376Y-34938D01*
X67363Y-34841D01*
X67314Y-34757D01*
X67181Y-34527D01*
X67290Y-34280D01*
X67298Y-34243D01*
X67310Y-34216D01*
X67310Y-34190D01*
X67317Y-34160D01*
X67310Y-34125D01*
X67311Y-34092D01*
X67299Y-34063D01*
X67351Y-34153D01*
X67502Y-34194D01*
X67673Y-34094D01*
X67724Y-34088D01*
X67850Y-34016D01*
X67857Y-33988D01*
X67936Y-33943D01*
X67890Y-33864D01*
X67891Y-33864D01*
X67751Y-33624D01*
X67696Y-33527D01*
X67695Y-33526D01*
X67675Y-33491D01*
X67650Y-33448D01*
X67503Y-33193D01*
X67478Y-33150D01*
X67458Y-33115D01*
X67263Y-32777D01*
X67262Y-32776D01*
X67242Y-32742D01*
X67230Y-32722D01*
X67217Y-32699D01*
X67070Y-32444D01*
X67045Y-32401D01*
X66830Y-32028D01*
X66678Y-31987D01*
X66553Y-32060D01*
X66448Y-32194D01*
X66432Y-32176D01*
X66399Y-32160D01*
X66368Y-32138D01*
X66199Y-32063D01*
X65197Y-30320D01*
X65158Y-30276D01*
X65146Y-30257D01*
X65136Y-30250D01*
X65116Y-30227D01*
X65055Y-30197D01*
X65042Y-30188D01*
X65034Y-30186D01*
X65005Y-30172D01*
X64940Y-30167D01*
X64921Y-30164D01*
X64882Y-30164D01*
X64881Y-30164D01*
X64880Y-30164D01*
X60070Y-30171D01*
X60070Y-28171D01*
X60070Y-27655D01*
X60069Y-27510D01*
X60002Y-27347D01*
X59877Y-27223D01*
X59714Y-27155D01*
X59588Y-27155D01*
X59478Y-27265D01*
X59478Y-27766D01*
X59959Y-27766D01*
X60070Y-27655D01*
X60070Y-28171D01*
X59959Y-28060D01*
X59478Y-28060D01*
X59478Y-28561D01*
X59588Y-28671D01*
X59714Y-28671D01*
X59877Y-28603D01*
X60002Y-28479D01*
X60069Y-28316D01*
X60070Y-28171D01*
X60070Y-30171D01*
X59890Y-30172D01*
X59774Y-30081D01*
X59835Y-30021D01*
X59872Y-29931D01*
X59872Y-29833D01*
X59872Y-29203D01*
X59835Y-29113D01*
X59765Y-29043D01*
X59675Y-29006D01*
X59577Y-29006D01*
X59336Y-29006D01*
X59253Y-28882D01*
X59232Y-28861D01*
X59212Y-28831D01*
X59204Y-28825D01*
X59185Y-28813D01*
X59166Y-28794D01*
X59137Y-28782D01*
X59108Y-28763D01*
X59077Y-28757D01*
X59052Y-28747D01*
X59020Y-28747D01*
X58987Y-28741D01*
X58529Y-28745D01*
X58469Y-28672D01*
X58662Y-28672D01*
X58662Y-28611D01*
X58722Y-28671D01*
X58848Y-28671D01*
X58898Y-28650D01*
X58948Y-28671D01*
X59074Y-28671D01*
X59184Y-28561D01*
X59184Y-28362D01*
X59203Y-28316D01*
X59204Y-28171D01*
X59204Y-27655D01*
X59203Y-27510D01*
X59184Y-27463D01*
X59184Y-27265D01*
X59074Y-27155D01*
X58948Y-27155D01*
X58898Y-27175D01*
X58848Y-27155D01*
X58722Y-27155D01*
X58612Y-27265D01*
X58612Y-27463D01*
X58593Y-27510D01*
X58592Y-27655D01*
X58612Y-27675D01*
X58612Y-27766D01*
X58703Y-27766D01*
X59093Y-27766D01*
X59184Y-27766D01*
X59184Y-27675D01*
X59204Y-27655D01*
X59204Y-28171D01*
X59184Y-28151D01*
X59184Y-28060D01*
X59093Y-28060D01*
X58703Y-28060D01*
X58662Y-28060D01*
X58612Y-28060D01*
X58338Y-28060D01*
X58338Y-27655D01*
X58337Y-27510D01*
X58318Y-27463D01*
X58318Y-27265D01*
X58208Y-27155D01*
X58082Y-27155D01*
X58032Y-27175D01*
X57982Y-27155D01*
X57856Y-27155D01*
X57746Y-27265D01*
X57746Y-27463D01*
X57727Y-27510D01*
X57726Y-27655D01*
X57746Y-27675D01*
X57746Y-27766D01*
X57837Y-27766D01*
X58227Y-27766D01*
X58318Y-27766D01*
X58318Y-27675D01*
X58338Y-27655D01*
X58338Y-28060D01*
X58318Y-28060D01*
X58268Y-28060D01*
X58227Y-28060D01*
X57837Y-28060D01*
X57796Y-28060D01*
X57746Y-28060D01*
X57452Y-28060D01*
X57452Y-27766D01*
X57452Y-27716D01*
X57452Y-27265D01*
X57342Y-27155D01*
X57216Y-27155D01*
X57197Y-27162D01*
X57197Y-26781D01*
X57255Y-26781D01*
X57805Y-26781D01*
X57895Y-26744D01*
X57962Y-26676D01*
X58289Y-26675D01*
X58357Y-26703D01*
X58455Y-26703D01*
X58612Y-26703D01*
X58612Y-26800D01*
X58676Y-26955D01*
X58795Y-27074D01*
X58950Y-27138D01*
X59118Y-27138D01*
X59273Y-27074D01*
X59392Y-26955D01*
X59456Y-26800D01*
X59456Y-26770D01*
X59533Y-26703D01*
X59595Y-26703D01*
X59685Y-26666D01*
X59755Y-26596D01*
X59792Y-26506D01*
X59792Y-26408D01*
X59792Y-26212D01*
X59775Y-26172D01*
X59792Y-26132D01*
X59792Y-26034D01*
X59792Y-25838D01*
X59775Y-25798D01*
X59792Y-25758D01*
X59792Y-25660D01*
X59792Y-25464D01*
X59755Y-25374D01*
X59685Y-25304D01*
X59595Y-25267D01*
X59497Y-25267D01*
X59301Y-25267D01*
X59211Y-25304D01*
X59141Y-25374D01*
X59132Y-25395D01*
X58848Y-25507D01*
X58848Y-25464D01*
X58811Y-25374D01*
X58741Y-25304D01*
X58651Y-25267D01*
X58553Y-25267D01*
X58357Y-25267D01*
X58289Y-25294D01*
X57962Y-25293D01*
X57895Y-25226D01*
X57805Y-25189D01*
X57707Y-25189D01*
X57157Y-25189D01*
X57090Y-25216D01*
X57018Y-25186D01*
X56850Y-25186D01*
X56695Y-25250D01*
X56576Y-25369D01*
X56512Y-25524D01*
X56512Y-25692D01*
X56576Y-25847D01*
X56679Y-25950D01*
X56620Y-26037D01*
X56606Y-26068D01*
X56587Y-26097D01*
X56581Y-26123D01*
X56570Y-26150D01*
X56569Y-26185D01*
X56563Y-26218D01*
X56563Y-28270D01*
X56563Y-28491D01*
X50457Y-31183D01*
X49268Y-31215D01*
X49246Y-31219D01*
X49226Y-31219D01*
X49189Y-31232D01*
X49147Y-31242D01*
X49128Y-31255D01*
X49110Y-31262D01*
X49079Y-31290D01*
X49046Y-31314D01*
X49035Y-31330D01*
X49019Y-31346D01*
X48951Y-31440D01*
X48948Y-31445D01*
X48947Y-31447D01*
X48295Y-32392D01*
X48274Y-32438D01*
X48254Y-32477D01*
X48252Y-32489D01*
X48246Y-32505D01*
X48245Y-32555D01*
X48240Y-32601D01*
X48244Y-32615D01*
X48244Y-32629D01*
X48260Y-32670D01*
X48275Y-32719D01*
X48390Y-32940D01*
X48248Y-33180D01*
X48240Y-33201D01*
X48227Y-33221D01*
X48219Y-33258D01*
X48206Y-33296D01*
X48207Y-33320D01*
X48203Y-33343D01*
X48210Y-33382D01*
X48213Y-33420D01*
X48222Y-33439D01*
X48227Y-33464D01*
X48321Y-33689D01*
X48134Y-34014D01*
X48121Y-34111D01*
X48147Y-34206D01*
X48206Y-34284D01*
X48291Y-34333D01*
X48554Y-34484D01*
X49829Y-41943D01*
X49638Y-42054D01*
X49579Y-42132D01*
X49553Y-42227D01*
X49566Y-42324D01*
X49615Y-42408D01*
X49729Y-42606D01*
X49613Y-42832D01*
X49608Y-42849D01*
X49598Y-42865D01*
X49556Y-42974D01*
X49556Y-42975D01*
X49545Y-43003D01*
X49427Y-42971D01*
X49319Y-43033D01*
X49319Y-42566D01*
X49257Y-42457D01*
X49117Y-42350D01*
X48947Y-42304D01*
X48772Y-42327D01*
X48646Y-42399D01*
X48605Y-42551D01*
X48846Y-42967D01*
X49280Y-42717D01*
X49319Y-42566D01*
X49319Y-43033D01*
X49257Y-43069D01*
X49205Y-43076D01*
X49079Y-43148D01*
X49071Y-43176D01*
X48993Y-43222D01*
X49038Y-43300D01*
X49233Y-43638D01*
X49254Y-43673D01*
X49271Y-43702D01*
X49279Y-43716D01*
X49426Y-43970D01*
X49426Y-43971D01*
X49451Y-44014D01*
X49471Y-44049D01*
X49471Y-44050D01*
X49610Y-44290D01*
X49666Y-44387D01*
X49687Y-44423D01*
X49691Y-44431D01*
X49712Y-44466D01*
X49859Y-44720D01*
X49859Y-44721D01*
X49884Y-44764D01*
X50099Y-45137D01*
X50251Y-45178D01*
X50376Y-45105D01*
X50409Y-45061D01*
X55676Y-50025D01*
X55680Y-50030D01*
X55685Y-50033D01*
X55783Y-50098D01*
X55790Y-50099D01*
X55904Y-50121D01*
X56707Y-50115D01*
X56965Y-50388D01*
X56970Y-50391D01*
X56972Y-50394D01*
X57004Y-50415D01*
X57066Y-50459D01*
X57070Y-50460D01*
X57075Y-50463D01*
X57133Y-50474D01*
X57187Y-50487D01*
X57191Y-50486D01*
X57196Y-50487D01*
X58776Y-50487D01*
X58813Y-50479D01*
X58852Y-50478D01*
X58874Y-50467D01*
X58897Y-50463D01*
X58929Y-50441D01*
X58964Y-50425D01*
X58980Y-50407D01*
X59000Y-50394D01*
X59021Y-50362D01*
X59047Y-50334D01*
X59362Y-49814D01*
X59675Y-49814D01*
X59765Y-49777D01*
X59835Y-49707D01*
X59872Y-49617D01*
X59872Y-49519D01*
X59872Y-49331D01*
X60171Y-49178D01*
X60200Y-49154D01*
X60234Y-49135D01*
X65699Y-44384D01*
X65884Y-44491D01*
X65980Y-44503D01*
X66076Y-44478D01*
X66153Y-44418D01*
X66202Y-44334D01*
X66497Y-43823D01*
X66509Y-43729D01*
X66509Y-43728D01*
X66586Y-43669D01*
X66635Y-43585D01*
X66930Y-43074D01*
X66942Y-42979D01*
X66942Y-42978D01*
X66943Y-42977D01*
X67019Y-42919D01*
X67068Y-42835D01*
X67221Y-42569D01*
X67594Y-42501D01*
X67633Y-42523D01*
X67609Y-42565D01*
X67609Y-42566D01*
X67649Y-42717D01*
X68040Y-42942D01*
X68083Y-42967D01*
X68338Y-43114D01*
X68186Y-43377D01*
X68145Y-43446D01*
X68145Y-43447D01*
X67950Y-43785D01*
X67936Y-43809D01*
X67936Y-43222D01*
X67857Y-43176D01*
X67850Y-43148D01*
X67724Y-43076D01*
X67671Y-43069D01*
X67502Y-42971D01*
X67351Y-43011D01*
X67351Y-43012D01*
X67289Y-43121D01*
X67282Y-43173D01*
X67239Y-43206D01*
X67176Y-43314D01*
X67176Y-43315D01*
X67216Y-43466D01*
X67386Y-43564D01*
X67419Y-43606D01*
X67544Y-43679D01*
X67572Y-43671D01*
X67650Y-43716D01*
X67695Y-43638D01*
X67696Y-43638D01*
X67891Y-43300D01*
X67936Y-43222D01*
X67936Y-43809D01*
X67905Y-43863D01*
X67983Y-43908D01*
X67991Y-43937D01*
X68117Y-44009D01*
X68169Y-44015D01*
X68339Y-44114D01*
X68489Y-44073D01*
X68552Y-43964D01*
X68558Y-43911D01*
X68570Y-43903D01*
X68551Y-44620D01*
X68448Y-44620D01*
X68293Y-44684D01*
X68231Y-44746D01*
X68231Y-44518D01*
X68192Y-44368D01*
X68019Y-44268D01*
X67989Y-44229D01*
X67864Y-44156D01*
X67836Y-44163D01*
X67758Y-44118D01*
X67712Y-44196D01*
X67712Y-44197D01*
X67656Y-44294D01*
X67517Y-44534D01*
X67503Y-44558D01*
X67503Y-43971D01*
X67424Y-43925D01*
X67417Y-43898D01*
X67291Y-43826D01*
X67240Y-43819D01*
X67069Y-43720D01*
X66918Y-43760D01*
X66918Y-43761D01*
X66856Y-43870D01*
X66849Y-43923D01*
X66806Y-43956D01*
X66743Y-44064D01*
X66743Y-44065D01*
X66783Y-44216D01*
X66955Y-44315D01*
X66986Y-44355D01*
X67111Y-44428D01*
X67138Y-44420D01*
X67217Y-44466D01*
X67262Y-44387D01*
X67263Y-44387D01*
X67318Y-44290D01*
X67458Y-44050D01*
X67457Y-44049D01*
X67503Y-43971D01*
X67503Y-44558D01*
X67472Y-44613D01*
X67550Y-44658D01*
X67558Y-44686D01*
X67684Y-44758D01*
X67734Y-44764D01*
X67906Y-44864D01*
X68056Y-44823D01*
X68119Y-44714D01*
X68125Y-44660D01*
X68169Y-44628D01*
X68231Y-44518D01*
X68231Y-44746D01*
X68174Y-44803D01*
X68110Y-44958D01*
X68110Y-45126D01*
X68174Y-45281D01*
X68293Y-45400D01*
X68333Y-45416D01*
X68369Y-45514D01*
X68360Y-45531D01*
X68347Y-45628D01*
X68372Y-45723D01*
X68432Y-45800D01*
X68517Y-45849D01*
X68686Y-45947D01*
X68729Y-45952D01*
X68756Y-45987D01*
X68841Y-46036D01*
X69010Y-46134D01*
X69053Y-46139D01*
X69080Y-46174D01*
X69165Y-46223D01*
X69334Y-46321D01*
X69431Y-46334D01*
X69526Y-46309D01*
X69603Y-46249D01*
X69652Y-46164D01*
X69750Y-45995D01*
X69763Y-45898D01*
X69738Y-45803D01*
X69724Y-45785D01*
X69768Y-45481D01*
X69806Y-45503D01*
X69903Y-45516D01*
X69998Y-45491D01*
X70075Y-45431D01*
X70124Y-45346D01*
X70222Y-45177D01*
X70232Y-45098D01*
X70368Y-44853D01*
X70451Y-44832D01*
X70528Y-44772D01*
X70577Y-44687D01*
X70852Y-44211D01*
X70861Y-44141D01*
X70962Y-44041D01*
X71026Y-43886D01*
X71026Y-45708D01*
X69643Y-48103D01*
X67798Y-48103D01*
X67798Y-45268D01*
X67759Y-45118D01*
X67325Y-44868D01*
X67084Y-45284D01*
X67125Y-45436D01*
X67251Y-45508D01*
X67426Y-45531D01*
X67596Y-45485D01*
X67736Y-45378D01*
X67798Y-45268D01*
X67798Y-48103D01*
X67070Y-48103D01*
X67070Y-44721D01*
X66636Y-44470D01*
X66485Y-44510D01*
X66485Y-44511D01*
X66423Y-44620D01*
X66400Y-44795D01*
X66445Y-44965D01*
X66553Y-45105D01*
X66678Y-45178D01*
X66830Y-45137D01*
X67070Y-44721D01*
X67070Y-48103D01*
X64147Y-48103D01*
X64103Y-48111D01*
X64064Y-48114D01*
X64043Y-48123D01*
X64024Y-48128D01*
X63987Y-48151D01*
X63951Y-48170D01*
X63938Y-48184D01*
X63919Y-48197D01*
X63895Y-48233D01*
X63868Y-48264D01*
X61119Y-53024D01*
X59342Y-53024D01*
X59342Y-51946D01*
X59342Y-51597D01*
X59209Y-51275D01*
X58962Y-51028D01*
X58640Y-50894D01*
X58291Y-50894D01*
X57969Y-51027D01*
X57722Y-51274D01*
X57588Y-51596D01*
X57588Y-51945D01*
X57721Y-52267D01*
X57968Y-52514D01*
X58290Y-52648D01*
X58639Y-52648D01*
X58961Y-52515D01*
X59208Y-52268D01*
X59342Y-51946D01*
X59342Y-53024D01*
X55809Y-53024D01*
X53061Y-48264D01*
X53033Y-48233D01*
X53010Y-48197D01*
X52990Y-48184D01*
X52978Y-48170D01*
X52941Y-48151D01*
X52905Y-48128D01*
X52885Y-48123D01*
X52865Y-48114D01*
X52822Y-48111D01*
X52782Y-48103D01*
X49845Y-48103D01*
X49845Y-45284D01*
X49604Y-44868D01*
X49457Y-44952D01*
X49457Y-44613D01*
X49411Y-44534D01*
X49412Y-44534D01*
X49272Y-44294D01*
X49217Y-44197D01*
X49216Y-44196D01*
X49196Y-44161D01*
X49171Y-44118D01*
X49024Y-43863D01*
X48999Y-43820D01*
X48979Y-43785D01*
X48784Y-43447D01*
X48783Y-43446D01*
X48738Y-43369D01*
X48660Y-43413D01*
X48632Y-43406D01*
X48591Y-43429D01*
X48591Y-43114D01*
X48351Y-42698D01*
X48199Y-42657D01*
X48074Y-42730D01*
X47966Y-42870D01*
X47921Y-43040D01*
X47944Y-43215D01*
X48006Y-43324D01*
X48157Y-43365D01*
X48591Y-43114D01*
X48591Y-43429D01*
X48507Y-43479D01*
X48474Y-43520D01*
X48304Y-43619D01*
X48264Y-43769D01*
X48264Y-43771D01*
X48327Y-43879D01*
X48370Y-43911D01*
X48377Y-43964D01*
X48439Y-44073D01*
X48522Y-44095D01*
X48469Y-44126D01*
X48476Y-44138D01*
X48376Y-44239D01*
X48312Y-44394D01*
X48312Y-44562D01*
X48335Y-44619D01*
X48220Y-44907D01*
X48144Y-44847D01*
X48183Y-44825D01*
X48243Y-44748D01*
X48268Y-44653D01*
X48255Y-44556D01*
X48206Y-44471D01*
X48108Y-44302D01*
X48059Y-44264D01*
X47922Y-44015D01*
X47926Y-44011D01*
X47952Y-43916D01*
X47939Y-43819D01*
X47920Y-43786D01*
X47920Y-32163D01*
X47920Y-31814D01*
X47787Y-31492D01*
X47540Y-31245D01*
X47218Y-31111D01*
X46869Y-31111D01*
X46547Y-31244D01*
X46300Y-31491D01*
X46166Y-31813D01*
X46166Y-32162D01*
X46299Y-32484D01*
X46546Y-32731D01*
X46868Y-32865D01*
X47217Y-32865D01*
X47539Y-32732D01*
X47786Y-32485D01*
X47920Y-32163D01*
X47920Y-43786D01*
X47890Y-43734D01*
X47615Y-43258D01*
X47562Y-43216D01*
X47562Y-43178D01*
X47498Y-43023D01*
X47379Y-42904D01*
X47224Y-42840D01*
X47056Y-42840D01*
X46901Y-42904D01*
X46782Y-43023D01*
X46718Y-43178D01*
X46718Y-43346D01*
X46782Y-43501D01*
X46843Y-43562D01*
X46792Y-43549D01*
X46695Y-43562D01*
X46611Y-43611D01*
X46308Y-43786D01*
X46248Y-43863D01*
X46222Y-43958D01*
X46235Y-44055D01*
X46284Y-44140D01*
X46559Y-44616D01*
X46636Y-44676D01*
X46717Y-44697D01*
X46854Y-44943D01*
X46865Y-45020D01*
X46914Y-45105D01*
X47012Y-45274D01*
X47056Y-45308D01*
X47056Y-45464D01*
X47120Y-45619D01*
X47239Y-45738D01*
X47328Y-45774D01*
X47337Y-45838D01*
X47386Y-45923D01*
X47484Y-46092D01*
X47561Y-46152D01*
X47656Y-46177D01*
X47753Y-46164D01*
X47838Y-46115D01*
X48007Y-46017D01*
X48033Y-45982D01*
X48077Y-45977D01*
X48162Y-45928D01*
X48331Y-45830D01*
X48357Y-45795D01*
X48401Y-45790D01*
X48486Y-45741D01*
X48655Y-45643D01*
X48715Y-45566D01*
X48740Y-45471D01*
X48727Y-45374D01*
X48720Y-45362D01*
X48923Y-44856D01*
X48951Y-44844D01*
X49023Y-44864D01*
X49194Y-44764D01*
X49245Y-44758D01*
X49371Y-44686D01*
X49378Y-44658D01*
X49457Y-44613D01*
X49457Y-44952D01*
X49170Y-45118D01*
X49130Y-45268D01*
X49130Y-45270D01*
X49193Y-45378D01*
X49333Y-45485D01*
X49503Y-45531D01*
X49678Y-45508D01*
X49804Y-45436D01*
X49845Y-45284D01*
X49845Y-48103D01*
X47285Y-48103D01*
X44629Y-43504D01*
X47378Y-38744D01*
X47390Y-38707D01*
X47411Y-38666D01*
X47412Y-38641D01*
X47418Y-38625D01*
X47415Y-38585D01*
X47418Y-38541D01*
X47411Y-38521D01*
X47410Y-38500D01*
X47392Y-38464D01*
X47378Y-38422D01*
X44629Y-33661D01*
X47285Y-29062D01*
X52782Y-29062D01*
X52822Y-29053D01*
X52865Y-29051D01*
X52885Y-29041D01*
X52905Y-29037D01*
X52941Y-29013D01*
X52978Y-28995D01*
X52990Y-28980D01*
X53010Y-28968D01*
X53033Y-28931D01*
X53061Y-28901D01*
X55809Y-24141D01*
X61119Y-24141D01*
X63868Y-28901D01*
X63895Y-28931D01*
X63919Y-28968D01*
X63938Y-28980D01*
X63951Y-28995D01*
X63987Y-29013D01*
X64024Y-29037D01*
X64043Y-29041D01*
X64064Y-29051D01*
X64103Y-29053D01*
X64147Y-29062D01*
X69643Y-29062D01*
X72299Y-33661D01*
X70764Y-36320D01*
X70764Y-32163D01*
X70764Y-31814D01*
X70631Y-31492D01*
X70384Y-31245D01*
X70062Y-31111D01*
X69713Y-31111D01*
X69391Y-31244D01*
X69144Y-31491D01*
X69010Y-31813D01*
X69010Y-32162D01*
X69143Y-32484D01*
X69390Y-32731D01*
X69712Y-32865D01*
X70061Y-32865D01*
X70383Y-32732D01*
X70630Y-32485D01*
X70764Y-32163D01*
X70764Y-36320D01*
X69551Y-38422D01*
X69536Y-38463D01*
X69519Y-38500D01*
X69517Y-38521D01*
X69511Y-38541D01*
X69513Y-38583D01*
X69511Y-38625D01*
X69517Y-38644D01*
X69519Y-38666D01*
X69536Y-38702D01*
X69551Y-38744D01*
X72299Y-43504D01*
M02*
