G04 (created by PCBNEW-RS274X (2011-nov-30)-testing) date Tue 24 Apr 2012 11:37:44 PM EDT*
G01*
G70*
G90*
%MOIN*%
G04 Gerber Fmt 3.4, Leading zero omitted, Abs format*
%FSLAX34Y34*%
G04 APERTURE LIST*
%ADD10C,0.006000*%
%ADD11C,0.012000*%
%ADD12C,0.006900*%
%ADD13C,0.004900*%
G04 APERTURE END LIST*
G54D10*
G54D11*
X63000Y-28000D02*
X64000Y-28000D01*
X64000Y-28000D02*
X64000Y-22000D01*
X64000Y-22000D02*
X63000Y-22000D01*
X63000Y-27000D02*
X64000Y-27000D01*
G54D12*
X63048Y-22165D02*
X63061Y-22204D01*
X63061Y-22270D01*
X63048Y-22296D01*
X63034Y-22309D01*
X63008Y-22322D01*
X62982Y-22322D01*
X62956Y-22309D01*
X62942Y-22296D01*
X62929Y-22270D01*
X62916Y-22217D01*
X62903Y-22191D01*
X62890Y-22178D01*
X62864Y-22165D01*
X62837Y-22165D01*
X62811Y-22178D01*
X62798Y-22191D01*
X62785Y-22217D01*
X62785Y-22283D01*
X62798Y-22322D01*
X62785Y-22401D02*
X62785Y-22559D01*
X63061Y-22480D02*
X62785Y-22480D01*
X63061Y-22795D02*
X63061Y-22638D01*
X63061Y-22716D02*
X62785Y-22716D01*
X62824Y-22690D01*
X62850Y-22664D01*
X62864Y-22638D01*
X63048Y-23189D02*
X63061Y-23228D01*
X63061Y-23294D01*
X63048Y-23320D01*
X63034Y-23333D01*
X63008Y-23346D01*
X62982Y-23346D01*
X62956Y-23333D01*
X62942Y-23320D01*
X62929Y-23294D01*
X62916Y-23241D01*
X62903Y-23215D01*
X62890Y-23202D01*
X62864Y-23189D01*
X62837Y-23189D01*
X62811Y-23202D01*
X62798Y-23215D01*
X62785Y-23241D01*
X62785Y-23307D01*
X62798Y-23346D01*
X62785Y-23425D02*
X62785Y-23583D01*
X63061Y-23504D02*
X62785Y-23504D01*
X62811Y-23662D02*
X62798Y-23675D01*
X62785Y-23701D01*
X62785Y-23767D01*
X62798Y-23793D01*
X62811Y-23806D01*
X62837Y-23819D01*
X62864Y-23819D01*
X62903Y-23806D01*
X63061Y-23648D01*
X63061Y-23819D01*
X62785Y-23950D02*
X62785Y-24108D01*
X63061Y-24029D02*
X62785Y-24029D01*
X62916Y-24200D02*
X62916Y-24292D01*
X63061Y-24331D02*
X63061Y-24200D01*
X62785Y-24200D01*
X62785Y-24331D01*
X63061Y-24450D02*
X62785Y-24450D01*
X62982Y-24542D01*
X62785Y-24634D01*
X63061Y-24634D01*
X63061Y-24765D02*
X62785Y-24765D01*
X62785Y-24870D01*
X62798Y-24896D01*
X62811Y-24909D01*
X62837Y-24922D01*
X62877Y-24922D01*
X62903Y-24909D01*
X62916Y-24896D01*
X62929Y-24870D01*
X62929Y-24765D01*
X63061Y-25308D02*
X62929Y-25216D01*
X63061Y-25151D02*
X62785Y-25151D01*
X62785Y-25256D01*
X62798Y-25282D01*
X62811Y-25295D01*
X62837Y-25308D01*
X62877Y-25308D01*
X62903Y-25295D01*
X62916Y-25282D01*
X62929Y-25256D01*
X62929Y-25151D01*
X63087Y-25361D02*
X63087Y-25571D01*
X62785Y-25689D02*
X62785Y-25742D01*
X62798Y-25768D01*
X62824Y-25794D01*
X62877Y-25808D01*
X62969Y-25808D01*
X63021Y-25794D01*
X63048Y-25768D01*
X63061Y-25742D01*
X63061Y-25689D01*
X63048Y-25663D01*
X63021Y-25637D01*
X62969Y-25624D01*
X62877Y-25624D01*
X62824Y-25637D01*
X62798Y-25663D01*
X62785Y-25689D01*
G54D13*
X62920Y-26346D02*
X62910Y-26327D01*
X62910Y-26299D01*
X62920Y-26271D01*
X62938Y-26252D01*
X62957Y-26243D01*
X62995Y-26234D01*
X63023Y-26234D01*
X63060Y-26243D01*
X63079Y-26252D01*
X63098Y-26271D01*
X63107Y-26299D01*
X63107Y-26318D01*
X63098Y-26346D01*
X63088Y-26355D01*
X63023Y-26355D01*
X63023Y-26318D01*
X63107Y-26440D02*
X62910Y-26440D01*
X63107Y-26552D01*
X62910Y-26552D01*
X63107Y-26646D02*
X62910Y-26646D01*
X62910Y-26693D01*
X62920Y-26721D01*
X62938Y-26740D01*
X62957Y-26749D01*
X62995Y-26758D01*
X63023Y-26758D01*
X63060Y-26749D01*
X63079Y-26740D01*
X63098Y-26721D01*
X63107Y-26693D01*
X63107Y-26646D01*
X62910Y-27258D02*
X63107Y-27323D01*
X62910Y-27389D01*
X63088Y-27567D02*
X63098Y-27558D01*
X63107Y-27530D01*
X63107Y-27511D01*
X63098Y-27483D01*
X63079Y-27464D01*
X63060Y-27455D01*
X63023Y-27446D01*
X62995Y-27446D01*
X62957Y-27455D01*
X62938Y-27464D01*
X62920Y-27483D01*
X62910Y-27511D01*
X62910Y-27530D01*
X62920Y-27558D01*
X62929Y-27567D01*
X63088Y-27764D02*
X63098Y-27755D01*
X63107Y-27727D01*
X63107Y-27708D01*
X63098Y-27680D01*
X63079Y-27661D01*
X63060Y-27652D01*
X63023Y-27643D01*
X62995Y-27643D01*
X62957Y-27652D01*
X62938Y-27661D01*
X62920Y-27680D01*
X62910Y-27708D01*
X62910Y-27727D01*
X62920Y-27755D01*
X62929Y-27764D01*
G54D12*
X62827Y-26950D02*
X62788Y-26963D01*
X62722Y-26963D01*
X62696Y-26950D01*
X62683Y-26936D01*
X62670Y-26910D01*
X62670Y-26884D01*
X62683Y-26858D01*
X62696Y-26844D01*
X62722Y-26831D01*
X62775Y-26818D01*
X62801Y-26805D01*
X62814Y-26792D01*
X62827Y-26766D01*
X62827Y-26739D01*
X62814Y-26713D01*
X62801Y-26700D01*
X62775Y-26687D01*
X62709Y-26687D01*
X62670Y-26700D01*
X62551Y-26687D02*
X62551Y-26910D01*
X62538Y-26936D01*
X62525Y-26950D01*
X62499Y-26963D01*
X62446Y-26963D01*
X62420Y-26950D01*
X62407Y-26936D01*
X62394Y-26910D01*
X62394Y-26687D01*
X62262Y-26963D02*
X62262Y-26687D01*
X62170Y-26884D01*
X62078Y-26687D01*
X62078Y-26963D01*
X61868Y-26687D02*
X61868Y-26884D01*
X61882Y-26923D01*
X61908Y-26950D01*
X61947Y-26963D01*
X61974Y-26963D01*
X56661Y-26884D02*
X56530Y-26884D01*
X56688Y-26963D02*
X56596Y-26687D01*
X56504Y-26963D01*
X56451Y-26687D02*
X56359Y-26963D01*
X56267Y-26687D01*
X56017Y-26936D02*
X56030Y-26950D01*
X56069Y-26963D01*
X56095Y-26963D01*
X56135Y-26950D01*
X56161Y-26923D01*
X56174Y-26897D01*
X56187Y-26844D01*
X56187Y-26805D01*
X56174Y-26752D01*
X56161Y-26726D01*
X56135Y-26700D01*
X56095Y-26687D01*
X56069Y-26687D01*
X56030Y-26700D01*
X56017Y-26713D01*
X55741Y-26936D02*
X55754Y-26950D01*
X55793Y-26963D01*
X55819Y-26963D01*
X55859Y-26950D01*
X55885Y-26923D01*
X55898Y-26897D01*
X55911Y-26844D01*
X55911Y-26805D01*
X55898Y-26752D01*
X55885Y-26726D01*
X55859Y-26700D01*
X55819Y-26687D01*
X55793Y-26687D01*
X55754Y-26700D01*
X55741Y-26713D01*
X57487Y-26936D02*
X57500Y-26950D01*
X57539Y-26963D01*
X57565Y-26963D01*
X57605Y-26950D01*
X57631Y-26923D01*
X57644Y-26897D01*
X57657Y-26844D01*
X57657Y-26805D01*
X57644Y-26752D01*
X57631Y-26726D01*
X57605Y-26700D01*
X57565Y-26687D01*
X57539Y-26687D01*
X57500Y-26700D01*
X57487Y-26713D01*
X57368Y-26963D02*
X57368Y-26687D01*
X57263Y-26687D01*
X57237Y-26700D01*
X57224Y-26713D01*
X57211Y-26739D01*
X57211Y-26779D01*
X57224Y-26805D01*
X57237Y-26818D01*
X57263Y-26831D01*
X57368Y-26831D01*
X56961Y-26687D02*
X57092Y-26687D01*
X57105Y-26818D01*
X57092Y-26805D01*
X57066Y-26792D01*
X57000Y-26792D01*
X56974Y-26805D01*
X56961Y-26818D01*
X56948Y-26844D01*
X56948Y-26910D01*
X56961Y-26936D01*
X56974Y-26950D01*
X57000Y-26963D01*
X57066Y-26963D01*
X57092Y-26950D01*
X57105Y-26936D01*
X58432Y-26936D02*
X58445Y-26950D01*
X58484Y-26963D01*
X58510Y-26963D01*
X58550Y-26950D01*
X58576Y-26923D01*
X58589Y-26897D01*
X58602Y-26844D01*
X58602Y-26805D01*
X58589Y-26752D01*
X58576Y-26726D01*
X58550Y-26700D01*
X58510Y-26687D01*
X58484Y-26687D01*
X58445Y-26700D01*
X58432Y-26713D01*
X58313Y-26963D02*
X58313Y-26687D01*
X58208Y-26687D01*
X58182Y-26700D01*
X58169Y-26713D01*
X58156Y-26739D01*
X58156Y-26779D01*
X58169Y-26805D01*
X58182Y-26818D01*
X58208Y-26831D01*
X58313Y-26831D01*
X58064Y-26687D02*
X57893Y-26687D01*
X57985Y-26792D01*
X57945Y-26792D01*
X57919Y-26805D01*
X57906Y-26818D01*
X57893Y-26844D01*
X57893Y-26910D01*
X57906Y-26936D01*
X57919Y-26950D01*
X57945Y-26963D01*
X58024Y-26963D01*
X58050Y-26950D01*
X58064Y-26936D01*
X59455Y-26936D02*
X59468Y-26950D01*
X59507Y-26963D01*
X59533Y-26963D01*
X59573Y-26950D01*
X59599Y-26923D01*
X59612Y-26897D01*
X59625Y-26844D01*
X59625Y-26805D01*
X59612Y-26752D01*
X59599Y-26726D01*
X59573Y-26700D01*
X59533Y-26687D01*
X59507Y-26687D01*
X59468Y-26700D01*
X59455Y-26713D01*
X59336Y-26963D02*
X59336Y-26687D01*
X59231Y-26687D01*
X59205Y-26700D01*
X59192Y-26713D01*
X59179Y-26739D01*
X59179Y-26779D01*
X59192Y-26805D01*
X59205Y-26818D01*
X59231Y-26831D01*
X59336Y-26831D01*
X58942Y-26779D02*
X58942Y-26963D01*
X59008Y-26674D02*
X59073Y-26871D01*
X58903Y-26871D01*
X60479Y-26936D02*
X60492Y-26950D01*
X60531Y-26963D01*
X60557Y-26963D01*
X60597Y-26950D01*
X60623Y-26923D01*
X60636Y-26897D01*
X60649Y-26844D01*
X60649Y-26805D01*
X60636Y-26752D01*
X60623Y-26726D01*
X60597Y-26700D01*
X60557Y-26687D01*
X60531Y-26687D01*
X60492Y-26700D01*
X60479Y-26713D01*
X60360Y-26963D02*
X60360Y-26687D01*
X60255Y-26687D01*
X60229Y-26700D01*
X60216Y-26713D01*
X60203Y-26739D01*
X60203Y-26779D01*
X60216Y-26805D01*
X60229Y-26818D01*
X60255Y-26831D01*
X60360Y-26831D01*
X59940Y-26963D02*
X60097Y-26963D01*
X60019Y-26963D02*
X60019Y-26687D01*
X60045Y-26726D01*
X60071Y-26752D01*
X60097Y-26766D01*
X61503Y-26936D02*
X61516Y-26950D01*
X61555Y-26963D01*
X61581Y-26963D01*
X61621Y-26950D01*
X61647Y-26923D01*
X61660Y-26897D01*
X61673Y-26844D01*
X61673Y-26805D01*
X61660Y-26752D01*
X61647Y-26726D01*
X61621Y-26700D01*
X61581Y-26687D01*
X61555Y-26687D01*
X61516Y-26700D01*
X61503Y-26713D01*
X61384Y-26963D02*
X61384Y-26687D01*
X61279Y-26687D01*
X61253Y-26700D01*
X61240Y-26713D01*
X61227Y-26739D01*
X61227Y-26779D01*
X61240Y-26805D01*
X61253Y-26818D01*
X61279Y-26831D01*
X61384Y-26831D01*
X61121Y-26713D02*
X61108Y-26700D01*
X61082Y-26687D01*
X61016Y-26687D01*
X60990Y-26700D01*
X60977Y-26713D01*
X60964Y-26739D01*
X60964Y-26766D01*
X60977Y-26805D01*
X61135Y-26963D01*
X60964Y-26963D01*
M02*
