G04 (created by PCBNEW-RS274X (2011-nov-30)-testing) date Tue 24 Apr 2012 11:37:44 PM EDT*
G01*
G70*
G90*
%MOIN*%
G04 Gerber Fmt 3.4, Leading zero omitted, Abs format*
%FSLAX34Y34*%
G04 APERTURE LIST*
%ADD10C,0.006000*%
%ADD11C,0.015700*%
%ADD12R,0.035000X0.055000*%
G04 APERTURE END LIST*
G54D10*
G54D11*
X59508Y-25463D03*
X59193Y-25463D03*
X58879Y-25463D03*
X58564Y-25463D03*
X58249Y-25463D03*
X59823Y-25148D03*
X59823Y-24833D03*
X59823Y-24518D03*
X59823Y-24204D03*
X59823Y-23889D03*
X57934Y-25148D03*
X57934Y-24833D03*
X57934Y-24518D03*
X57934Y-24204D03*
X57934Y-23889D03*
X58249Y-23574D03*
X58249Y-24204D03*
X58249Y-24518D03*
X58249Y-24833D03*
X59508Y-24833D03*
X59508Y-24518D03*
X59508Y-24204D03*
X59508Y-23574D03*
X59193Y-23574D03*
X59193Y-23889D03*
X58879Y-23889D03*
X58879Y-23574D03*
X58564Y-23574D03*
X58564Y-23889D03*
X58564Y-25148D03*
X58879Y-25148D03*
X59193Y-25148D03*
G54D12*
X56517Y-24124D03*
X55767Y-24124D03*
X60993Y-24104D03*
X61743Y-24104D03*
X59566Y-26575D03*
X60316Y-26575D03*
X57696Y-26575D03*
X58446Y-26575D03*
X56536Y-25246D03*
X55786Y-25246D03*
G54D10*
G36*
X61351Y-26341D02*
X60962Y-25952D01*
X61209Y-25705D01*
X61598Y-26094D01*
X61351Y-26341D01*
X61351Y-26341D01*
G37*
G36*
X61881Y-25811D02*
X61492Y-25422D01*
X61739Y-25175D01*
X62128Y-25564D01*
X61881Y-25811D01*
X61881Y-25811D01*
G37*
M02*
