G04 (created by PCBNEW-RS274X (2011-nov-30)-testing) date Tue 24 Apr 2012 11:37:44 PM EDT*
G01*
G70*
G90*
%MOIN*%
G04 Gerber Fmt 3.4, Leading zero omitted, Abs format*
%FSLAX34Y34*%
G04 APERTURE LIST*
%ADD10C,0.006000*%
%ADD11R,0.060000X0.060000*%
%ADD12C,0.060000*%
%ADD13C,0.035000*%
%ADD14C,0.010000*%
G04 APERTURE END LIST*
G54D10*
G54D11*
X63500Y-27500D03*
G54D12*
X63500Y-26500D03*
X63500Y-25500D03*
X63500Y-24500D03*
X63500Y-23500D03*
X63500Y-22500D03*
G54D11*
X62299Y-27587D03*
G54D12*
X61299Y-27587D03*
X60299Y-27587D03*
X59299Y-27587D03*
X58299Y-27587D03*
X57299Y-27587D03*
X56299Y-27587D03*
G54D11*
X57283Y-22441D03*
G54D13*
X57087Y-23465D03*
X55197Y-24724D03*
X55354Y-27638D03*
X62598Y-24488D03*
X60315Y-23543D03*
X58957Y-24606D03*
X56299Y-26870D03*
X62524Y-25186D03*
X58544Y-22126D03*
X62382Y-22126D03*
X58976Y-22520D03*
X60760Y-24990D03*
X62034Y-26264D03*
X59449Y-22913D03*
X61348Y-24892D03*
G54D14*
X62598Y-24488D02*
X62598Y-24567D01*
X60315Y-23543D02*
X60079Y-23307D01*
X60079Y-23307D02*
X58149Y-23307D01*
X58149Y-23307D02*
X57283Y-22441D01*
X56299Y-26870D02*
X58563Y-24606D01*
X58563Y-24606D02*
X58957Y-24606D01*
X63504Y-25480D02*
X63500Y-25500D01*
X62818Y-25480D02*
X63504Y-25480D01*
X62524Y-25186D02*
X62818Y-25480D01*
X62382Y-22126D02*
X58544Y-22126D01*
X63500Y-23500D02*
X63504Y-23520D01*
X63504Y-23520D02*
X62622Y-22539D01*
X62622Y-22539D02*
X58976Y-22520D01*
X62034Y-26264D02*
X60760Y-24990D01*
X62205Y-22913D02*
X59449Y-22913D01*
X63500Y-24208D02*
X62205Y-22913D01*
X63500Y-24500D02*
X63500Y-24208D01*
X62426Y-26460D02*
X63504Y-27538D01*
X62426Y-26068D02*
X62426Y-26460D01*
X61348Y-24892D02*
X61348Y-24990D01*
X63504Y-27538D02*
X63500Y-27500D01*
X61348Y-24990D02*
X62426Y-26068D01*
G54D10*
G36*
X63973Y-27982D02*
X63951Y-27982D01*
X63951Y-27830D01*
X63951Y-27770D01*
X63951Y-27170D01*
X63928Y-27114D01*
X63886Y-27072D01*
X63830Y-27049D01*
X63770Y-27049D01*
X63498Y-27049D01*
X63637Y-27042D01*
X63786Y-26980D01*
X63815Y-26885D01*
X63535Y-26606D01*
X63500Y-26571D01*
X63429Y-26500D01*
X63394Y-26465D01*
X63115Y-26185D01*
X63020Y-26214D01*
X62947Y-26419D01*
X62958Y-26637D01*
X63007Y-26755D01*
X62628Y-26376D01*
X62628Y-26068D01*
X62613Y-25991D01*
X62612Y-25990D01*
X62569Y-25925D01*
X62566Y-25923D01*
X61653Y-25009D01*
X61675Y-24957D01*
X61675Y-24827D01*
X61625Y-24707D01*
X61533Y-24615D01*
X61413Y-24565D01*
X61283Y-24565D01*
X61163Y-24615D01*
X61071Y-24707D01*
X61032Y-24800D01*
X60945Y-24713D01*
X60825Y-24663D01*
X60695Y-24663D01*
X60575Y-24713D01*
X60483Y-24805D01*
X60433Y-24925D01*
X60433Y-25055D01*
X60483Y-25175D01*
X60575Y-25267D01*
X60695Y-25317D01*
X60801Y-25317D01*
X61707Y-26222D01*
X61707Y-26329D01*
X61757Y-26449D01*
X61849Y-26541D01*
X61969Y-26591D01*
X62099Y-26591D01*
X62219Y-26541D01*
X62236Y-26523D01*
X62239Y-26538D01*
X62283Y-26603D01*
X63049Y-27368D01*
X63049Y-27830D01*
X63072Y-27886D01*
X63114Y-27928D01*
X63170Y-27951D01*
X63230Y-27951D01*
X63830Y-27951D01*
X63886Y-27928D01*
X63928Y-27886D01*
X63951Y-27830D01*
X63951Y-27982D01*
X62718Y-27982D01*
X62727Y-27973D01*
X62750Y-27917D01*
X62750Y-27857D01*
X62750Y-27257D01*
X62727Y-27201D01*
X62685Y-27159D01*
X62629Y-27136D01*
X62569Y-27136D01*
X61969Y-27136D01*
X61913Y-27159D01*
X61871Y-27201D01*
X61848Y-27257D01*
X61848Y-27317D01*
X61848Y-27917D01*
X61871Y-27973D01*
X61880Y-27982D01*
X61524Y-27982D01*
X61554Y-27970D01*
X61681Y-27843D01*
X61750Y-27677D01*
X61750Y-27498D01*
X61682Y-27332D01*
X61555Y-27205D01*
X61389Y-27136D01*
X61210Y-27136D01*
X61044Y-27204D01*
X60917Y-27331D01*
X60848Y-27497D01*
X60848Y-27676D01*
X60916Y-27842D01*
X61043Y-27969D01*
X61074Y-27982D01*
X60524Y-27982D01*
X60554Y-27970D01*
X60681Y-27843D01*
X60750Y-27677D01*
X60750Y-27498D01*
X60682Y-27332D01*
X60555Y-27205D01*
X60389Y-27136D01*
X60210Y-27136D01*
X60044Y-27204D01*
X59917Y-27331D01*
X59848Y-27497D01*
X59848Y-27676D01*
X59916Y-27842D01*
X60043Y-27969D01*
X60074Y-27982D01*
X59524Y-27982D01*
X59554Y-27970D01*
X59681Y-27843D01*
X59750Y-27677D01*
X59750Y-27498D01*
X59682Y-27332D01*
X59555Y-27205D01*
X59389Y-27136D01*
X59210Y-27136D01*
X59044Y-27204D01*
X58917Y-27331D01*
X58848Y-27497D01*
X58848Y-27676D01*
X58916Y-27842D01*
X59043Y-27969D01*
X59074Y-27982D01*
X58524Y-27982D01*
X58554Y-27970D01*
X58681Y-27843D01*
X58750Y-27677D01*
X58750Y-27498D01*
X58682Y-27332D01*
X58555Y-27205D01*
X58389Y-27136D01*
X58210Y-27136D01*
X58044Y-27204D01*
X57917Y-27331D01*
X57848Y-27497D01*
X57848Y-27676D01*
X57916Y-27842D01*
X58043Y-27969D01*
X58074Y-27982D01*
X57524Y-27982D01*
X57554Y-27970D01*
X57681Y-27843D01*
X57750Y-27677D01*
X57750Y-27498D01*
X57682Y-27332D01*
X57555Y-27205D01*
X57389Y-27136D01*
X57210Y-27136D01*
X57044Y-27204D01*
X56917Y-27331D01*
X56848Y-27497D01*
X56848Y-27676D01*
X56916Y-27842D01*
X57043Y-27969D01*
X57074Y-27982D01*
X56524Y-27982D01*
X56554Y-27970D01*
X56681Y-27843D01*
X56750Y-27677D01*
X56750Y-27498D01*
X56682Y-27332D01*
X56555Y-27205D01*
X56449Y-27161D01*
X56484Y-27147D01*
X56576Y-27055D01*
X56626Y-26935D01*
X56626Y-26828D01*
X58646Y-24808D01*
X58697Y-24808D01*
X58772Y-24883D01*
X58892Y-24933D01*
X59022Y-24933D01*
X59142Y-24883D01*
X59234Y-24791D01*
X59284Y-24671D01*
X59284Y-24541D01*
X59234Y-24421D01*
X59142Y-24329D01*
X59022Y-24279D01*
X58892Y-24279D01*
X58772Y-24329D01*
X58697Y-24404D01*
X58563Y-24404D01*
X58562Y-24404D01*
X58547Y-24407D01*
X58486Y-24419D01*
X58420Y-24463D01*
X58418Y-24465D01*
X56340Y-26543D01*
X56234Y-26543D01*
X56114Y-26593D01*
X56022Y-26685D01*
X55972Y-26805D01*
X55972Y-26935D01*
X56022Y-27055D01*
X56114Y-27147D01*
X56148Y-27161D01*
X56044Y-27204D01*
X55917Y-27331D01*
X55848Y-27497D01*
X55848Y-27676D01*
X55916Y-27842D01*
X56043Y-27969D01*
X56074Y-27982D01*
X54932Y-27982D01*
X54932Y-22028D01*
X56882Y-22028D01*
X56855Y-22055D01*
X56832Y-22111D01*
X56832Y-22171D01*
X56832Y-22771D01*
X56855Y-22827D01*
X56897Y-22869D01*
X56953Y-22892D01*
X57013Y-22892D01*
X57448Y-22892D01*
X58004Y-23447D01*
X58006Y-23450D01*
X58071Y-23493D01*
X58072Y-23494D01*
X58133Y-23505D01*
X58148Y-23509D01*
X58148Y-23508D01*
X58149Y-23509D01*
X59988Y-23509D01*
X59988Y-23608D01*
X60038Y-23728D01*
X60130Y-23820D01*
X60250Y-23870D01*
X60380Y-23870D01*
X60500Y-23820D01*
X60592Y-23728D01*
X60642Y-23608D01*
X60642Y-23478D01*
X60592Y-23358D01*
X60500Y-23266D01*
X60380Y-23216D01*
X60273Y-23216D01*
X60222Y-23164D01*
X60157Y-23120D01*
X60131Y-23115D01*
X62121Y-23115D01*
X63184Y-24178D01*
X63118Y-24244D01*
X63049Y-24410D01*
X63049Y-24589D01*
X63117Y-24755D01*
X63244Y-24882D01*
X63410Y-24951D01*
X63589Y-24951D01*
X63755Y-24883D01*
X63882Y-24756D01*
X63951Y-24590D01*
X63951Y-24411D01*
X63883Y-24245D01*
X63756Y-24118D01*
X63648Y-24073D01*
X63643Y-24065D01*
X63529Y-23951D01*
X63589Y-23951D01*
X63755Y-23883D01*
X63882Y-23756D01*
X63951Y-23590D01*
X63951Y-23411D01*
X63951Y-22590D01*
X63951Y-22411D01*
X63883Y-22245D01*
X63756Y-22118D01*
X63590Y-22049D01*
X63411Y-22049D01*
X63245Y-22117D01*
X63118Y-22244D01*
X63049Y-22410D01*
X63049Y-22589D01*
X63117Y-22755D01*
X63244Y-22882D01*
X63410Y-22951D01*
X63589Y-22951D01*
X63755Y-22883D01*
X63882Y-22756D01*
X63951Y-22590D01*
X63951Y-23411D01*
X63883Y-23245D01*
X63756Y-23118D01*
X63590Y-23049D01*
X63411Y-23049D01*
X63368Y-23066D01*
X62772Y-22404D01*
X62769Y-22401D01*
X62766Y-22397D01*
X62726Y-22370D01*
X62709Y-22357D01*
X62706Y-22356D01*
X62700Y-22352D01*
X62661Y-22344D01*
X62633Y-22337D01*
X62659Y-22311D01*
X62709Y-22191D01*
X62709Y-22061D01*
X62695Y-22028D01*
X63973Y-22028D01*
X63973Y-26211D01*
X63951Y-26204D01*
X63951Y-25590D01*
X63951Y-25411D01*
X63883Y-25245D01*
X63756Y-25118D01*
X63590Y-25049D01*
X63411Y-25049D01*
X63245Y-25117D01*
X63118Y-25244D01*
X63103Y-25278D01*
X62901Y-25278D01*
X62851Y-25227D01*
X62851Y-25121D01*
X62801Y-25001D01*
X62709Y-24909D01*
X62589Y-24859D01*
X62459Y-24859D01*
X62339Y-24909D01*
X62247Y-25001D01*
X62197Y-25121D01*
X62197Y-25251D01*
X62247Y-25371D01*
X62339Y-25463D01*
X62459Y-25513D01*
X62565Y-25513D01*
X62673Y-25620D01*
X62675Y-25623D01*
X62740Y-25666D01*
X62741Y-25667D01*
X62802Y-25678D01*
X62817Y-25682D01*
X62817Y-25681D01*
X62818Y-25682D01*
X63087Y-25682D01*
X63117Y-25755D01*
X63244Y-25882D01*
X63410Y-25951D01*
X63501Y-25951D01*
X63363Y-25958D01*
X63214Y-26020D01*
X63185Y-26115D01*
X63500Y-26429D01*
X63815Y-26115D01*
X63786Y-26020D01*
X63590Y-25950D01*
X63755Y-25883D01*
X63882Y-25756D01*
X63951Y-25590D01*
X63951Y-26204D01*
X63885Y-26185D01*
X63571Y-26500D01*
X63885Y-26815D01*
X63973Y-26788D01*
X63973Y-27982D01*
X63973Y-27982D01*
G37*
G54D14*
X63973Y-27982D02*
X63951Y-27982D01*
X63951Y-27830D01*
X63951Y-27770D01*
X63951Y-27170D01*
X63928Y-27114D01*
X63886Y-27072D01*
X63830Y-27049D01*
X63770Y-27049D01*
X63498Y-27049D01*
X63637Y-27042D01*
X63786Y-26980D01*
X63815Y-26885D01*
X63535Y-26606D01*
X63500Y-26571D01*
X63429Y-26500D01*
X63394Y-26465D01*
X63115Y-26185D01*
X63020Y-26214D01*
X62947Y-26419D01*
X62958Y-26637D01*
X63007Y-26755D01*
X62628Y-26376D01*
X62628Y-26068D01*
X62613Y-25991D01*
X62612Y-25990D01*
X62569Y-25925D01*
X62566Y-25923D01*
X61653Y-25009D01*
X61675Y-24957D01*
X61675Y-24827D01*
X61625Y-24707D01*
X61533Y-24615D01*
X61413Y-24565D01*
X61283Y-24565D01*
X61163Y-24615D01*
X61071Y-24707D01*
X61032Y-24800D01*
X60945Y-24713D01*
X60825Y-24663D01*
X60695Y-24663D01*
X60575Y-24713D01*
X60483Y-24805D01*
X60433Y-24925D01*
X60433Y-25055D01*
X60483Y-25175D01*
X60575Y-25267D01*
X60695Y-25317D01*
X60801Y-25317D01*
X61707Y-26222D01*
X61707Y-26329D01*
X61757Y-26449D01*
X61849Y-26541D01*
X61969Y-26591D01*
X62099Y-26591D01*
X62219Y-26541D01*
X62236Y-26523D01*
X62239Y-26538D01*
X62283Y-26603D01*
X63049Y-27368D01*
X63049Y-27830D01*
X63072Y-27886D01*
X63114Y-27928D01*
X63170Y-27951D01*
X63230Y-27951D01*
X63830Y-27951D01*
X63886Y-27928D01*
X63928Y-27886D01*
X63951Y-27830D01*
X63951Y-27982D01*
X62718Y-27982D01*
X62727Y-27973D01*
X62750Y-27917D01*
X62750Y-27857D01*
X62750Y-27257D01*
X62727Y-27201D01*
X62685Y-27159D01*
X62629Y-27136D01*
X62569Y-27136D01*
X61969Y-27136D01*
X61913Y-27159D01*
X61871Y-27201D01*
X61848Y-27257D01*
X61848Y-27317D01*
X61848Y-27917D01*
X61871Y-27973D01*
X61880Y-27982D01*
X61524Y-27982D01*
X61554Y-27970D01*
X61681Y-27843D01*
X61750Y-27677D01*
X61750Y-27498D01*
X61682Y-27332D01*
X61555Y-27205D01*
X61389Y-27136D01*
X61210Y-27136D01*
X61044Y-27204D01*
X60917Y-27331D01*
X60848Y-27497D01*
X60848Y-27676D01*
X60916Y-27842D01*
X61043Y-27969D01*
X61074Y-27982D01*
X60524Y-27982D01*
X60554Y-27970D01*
X60681Y-27843D01*
X60750Y-27677D01*
X60750Y-27498D01*
X60682Y-27332D01*
X60555Y-27205D01*
X60389Y-27136D01*
X60210Y-27136D01*
X60044Y-27204D01*
X59917Y-27331D01*
X59848Y-27497D01*
X59848Y-27676D01*
X59916Y-27842D01*
X60043Y-27969D01*
X60074Y-27982D01*
X59524Y-27982D01*
X59554Y-27970D01*
X59681Y-27843D01*
X59750Y-27677D01*
X59750Y-27498D01*
X59682Y-27332D01*
X59555Y-27205D01*
X59389Y-27136D01*
X59210Y-27136D01*
X59044Y-27204D01*
X58917Y-27331D01*
X58848Y-27497D01*
X58848Y-27676D01*
X58916Y-27842D01*
X59043Y-27969D01*
X59074Y-27982D01*
X58524Y-27982D01*
X58554Y-27970D01*
X58681Y-27843D01*
X58750Y-27677D01*
X58750Y-27498D01*
X58682Y-27332D01*
X58555Y-27205D01*
X58389Y-27136D01*
X58210Y-27136D01*
X58044Y-27204D01*
X57917Y-27331D01*
X57848Y-27497D01*
X57848Y-27676D01*
X57916Y-27842D01*
X58043Y-27969D01*
X58074Y-27982D01*
X57524Y-27982D01*
X57554Y-27970D01*
X57681Y-27843D01*
X57750Y-27677D01*
X57750Y-27498D01*
X57682Y-27332D01*
X57555Y-27205D01*
X57389Y-27136D01*
X57210Y-27136D01*
X57044Y-27204D01*
X56917Y-27331D01*
X56848Y-27497D01*
X56848Y-27676D01*
X56916Y-27842D01*
X57043Y-27969D01*
X57074Y-27982D01*
X56524Y-27982D01*
X56554Y-27970D01*
X56681Y-27843D01*
X56750Y-27677D01*
X56750Y-27498D01*
X56682Y-27332D01*
X56555Y-27205D01*
X56449Y-27161D01*
X56484Y-27147D01*
X56576Y-27055D01*
X56626Y-26935D01*
X56626Y-26828D01*
X58646Y-24808D01*
X58697Y-24808D01*
X58772Y-24883D01*
X58892Y-24933D01*
X59022Y-24933D01*
X59142Y-24883D01*
X59234Y-24791D01*
X59284Y-24671D01*
X59284Y-24541D01*
X59234Y-24421D01*
X59142Y-24329D01*
X59022Y-24279D01*
X58892Y-24279D01*
X58772Y-24329D01*
X58697Y-24404D01*
X58563Y-24404D01*
X58562Y-24404D01*
X58547Y-24407D01*
X58486Y-24419D01*
X58420Y-24463D01*
X58418Y-24465D01*
X56340Y-26543D01*
X56234Y-26543D01*
X56114Y-26593D01*
X56022Y-26685D01*
X55972Y-26805D01*
X55972Y-26935D01*
X56022Y-27055D01*
X56114Y-27147D01*
X56148Y-27161D01*
X56044Y-27204D01*
X55917Y-27331D01*
X55848Y-27497D01*
X55848Y-27676D01*
X55916Y-27842D01*
X56043Y-27969D01*
X56074Y-27982D01*
X54932Y-27982D01*
X54932Y-22028D01*
X56882Y-22028D01*
X56855Y-22055D01*
X56832Y-22111D01*
X56832Y-22171D01*
X56832Y-22771D01*
X56855Y-22827D01*
X56897Y-22869D01*
X56953Y-22892D01*
X57013Y-22892D01*
X57448Y-22892D01*
X58004Y-23447D01*
X58006Y-23450D01*
X58071Y-23493D01*
X58072Y-23494D01*
X58133Y-23505D01*
X58148Y-23509D01*
X58148Y-23508D01*
X58149Y-23509D01*
X59988Y-23509D01*
X59988Y-23608D01*
X60038Y-23728D01*
X60130Y-23820D01*
X60250Y-23870D01*
X60380Y-23870D01*
X60500Y-23820D01*
X60592Y-23728D01*
X60642Y-23608D01*
X60642Y-23478D01*
X60592Y-23358D01*
X60500Y-23266D01*
X60380Y-23216D01*
X60273Y-23216D01*
X60222Y-23164D01*
X60157Y-23120D01*
X60131Y-23115D01*
X62121Y-23115D01*
X63184Y-24178D01*
X63118Y-24244D01*
X63049Y-24410D01*
X63049Y-24589D01*
X63117Y-24755D01*
X63244Y-24882D01*
X63410Y-24951D01*
X63589Y-24951D01*
X63755Y-24883D01*
X63882Y-24756D01*
X63951Y-24590D01*
X63951Y-24411D01*
X63883Y-24245D01*
X63756Y-24118D01*
X63648Y-24073D01*
X63643Y-24065D01*
X63529Y-23951D01*
X63589Y-23951D01*
X63755Y-23883D01*
X63882Y-23756D01*
X63951Y-23590D01*
X63951Y-23411D01*
X63951Y-22590D01*
X63951Y-22411D01*
X63883Y-22245D01*
X63756Y-22118D01*
X63590Y-22049D01*
X63411Y-22049D01*
X63245Y-22117D01*
X63118Y-22244D01*
X63049Y-22410D01*
X63049Y-22589D01*
X63117Y-22755D01*
X63244Y-22882D01*
X63410Y-22951D01*
X63589Y-22951D01*
X63755Y-22883D01*
X63882Y-22756D01*
X63951Y-22590D01*
X63951Y-23411D01*
X63883Y-23245D01*
X63756Y-23118D01*
X63590Y-23049D01*
X63411Y-23049D01*
X63368Y-23066D01*
X62772Y-22404D01*
X62769Y-22401D01*
X62766Y-22397D01*
X62726Y-22370D01*
X62709Y-22357D01*
X62706Y-22356D01*
X62700Y-22352D01*
X62661Y-22344D01*
X62633Y-22337D01*
X62659Y-22311D01*
X62709Y-22191D01*
X62709Y-22061D01*
X62695Y-22028D01*
X63973Y-22028D01*
X63973Y-26211D01*
X63951Y-26204D01*
X63951Y-25590D01*
X63951Y-25411D01*
X63883Y-25245D01*
X63756Y-25118D01*
X63590Y-25049D01*
X63411Y-25049D01*
X63245Y-25117D01*
X63118Y-25244D01*
X63103Y-25278D01*
X62901Y-25278D01*
X62851Y-25227D01*
X62851Y-25121D01*
X62801Y-25001D01*
X62709Y-24909D01*
X62589Y-24859D01*
X62459Y-24859D01*
X62339Y-24909D01*
X62247Y-25001D01*
X62197Y-25121D01*
X62197Y-25251D01*
X62247Y-25371D01*
X62339Y-25463D01*
X62459Y-25513D01*
X62565Y-25513D01*
X62673Y-25620D01*
X62675Y-25623D01*
X62740Y-25666D01*
X62741Y-25667D01*
X62802Y-25678D01*
X62817Y-25682D01*
X62817Y-25681D01*
X62818Y-25682D01*
X63087Y-25682D01*
X63117Y-25755D01*
X63244Y-25882D01*
X63410Y-25951D01*
X63501Y-25951D01*
X63363Y-25958D01*
X63214Y-26020D01*
X63185Y-26115D01*
X63500Y-26429D01*
X63815Y-26115D01*
X63786Y-26020D01*
X63590Y-25950D01*
X63755Y-25883D01*
X63882Y-25756D01*
X63951Y-25590D01*
X63951Y-26204D01*
X63885Y-26185D01*
X63571Y-26500D01*
X63885Y-26815D01*
X63973Y-26788D01*
X63973Y-27982D01*
M02*
