M48
;DRILL file {Pcbnew (2011-nov-30)-testing} date Tue 24 Apr 2012 11:37:51 PM EDT
;FORMAT={-:-/ absolute / inch / decimal}
FMAT,2
INCH,TZ
T1C0.025
T2C0.040
%
G90
G05
M72
T1
X5.520Y-2.472
X5.535Y-2.764
X5.630Y-2.687
X5.709Y-2.347
X5.854Y-2.213
X5.896Y-2.461
X5.898Y-2.252
X5.945Y-2.291
X6.032Y-2.354
X6.076Y-2.499
X6.135Y-2.489
X6.203Y-2.626
X6.238Y-2.213
X6.252Y-2.519
X6.260Y-2.449
T2
X5.630Y-2.759
X5.728Y-2.244
X5.730Y-2.759
X5.830Y-2.759
X5.930Y-2.759
X6.030Y-2.759
X6.130Y-2.759
X6.230Y-2.759
X6.350Y-2.250
X6.350Y-2.350
X6.350Y-2.450
X6.350Y-2.550
X6.350Y-2.650
X6.350Y-2.750
T0
M30
