G04 (created by PCBNEW-RS274X (2011-05-25)-stable) date Tue 17 Jan 2012 05:00:04 AM EST*
G01*
G70*
G90*
%MOIN*%
G04 Gerber Fmt 3.4, Leading zero omitted, Abs format*
%FSLAX34Y34*%
G04 APERTURE LIST*
%ADD10C,0.006000*%
%ADD11C,0.146000*%
%ADD12R,0.129900X0.173200*%
%ADD13R,0.153500X0.244100*%
%ADD14C,0.039400*%
%ADD15R,0.050000X0.115000*%
%ADD16R,0.135000X0.065000*%
%ADD17R,0.060000X0.060000*%
%ADD18C,0.060000*%
%ADD19C,0.040000*%
%ADD20C,0.010000*%
G04 APERTURE END LIST*
G54D10*
G54D11*
X33465Y-32480D03*
X48622Y-32480D03*
X48583Y-47126D03*
X33465Y-47244D03*
G54D12*
X38583Y-42126D03*
G54D13*
X35906Y-45826D03*
X41260Y-45826D03*
G54D14*
X38583Y-47047D03*
G54D15*
X44488Y-35221D03*
X44488Y-37021D03*
G54D16*
X43038Y-33071D03*
X45938Y-33071D03*
G54D17*
X45366Y-47244D03*
G54D18*
X46366Y-47244D03*
G54D15*
X38189Y-35221D03*
X38189Y-37021D03*
G54D16*
X36739Y-33071D03*
X39639Y-33071D03*
G54D19*
X38189Y-35221D02*
X38000Y-35000D01*
X38000Y-35000D02*
X37500Y-35000D01*
X37500Y-35000D02*
X37000Y-35500D01*
X37000Y-35500D02*
X37000Y-45000D01*
X37000Y-45000D02*
X36000Y-46000D01*
X36000Y-46000D02*
X35906Y-45826D01*
X41260Y-45826D02*
X41500Y-46000D01*
X41500Y-46000D02*
X44500Y-46000D01*
X44500Y-46000D02*
X45500Y-47000D01*
X45500Y-47000D02*
X45366Y-47244D01*
X38189Y-35221D02*
X38000Y-35000D01*
X38000Y-35000D02*
X44500Y-35000D01*
X44500Y-35000D02*
X44488Y-35221D01*
X35906Y-45826D02*
X36000Y-46000D01*
X36000Y-46000D02*
X41500Y-46000D01*
X41500Y-46000D02*
X41260Y-45826D01*
X44488Y-37021D02*
X44500Y-37000D01*
X44500Y-37000D02*
X44500Y-44000D01*
X44500Y-44000D02*
X46500Y-46000D01*
X46500Y-46000D02*
X46500Y-47000D01*
X46500Y-47000D02*
X46366Y-47244D01*
X38189Y-37021D02*
X38000Y-37000D01*
X38000Y-37000D02*
X44500Y-37000D01*
X44500Y-37000D02*
X44488Y-37021D01*
X38189Y-37021D02*
X38000Y-37000D01*
X38000Y-37000D02*
X38000Y-41500D01*
X38000Y-41500D02*
X38500Y-42000D01*
X38500Y-42000D02*
X38583Y-42126D01*
G54D20*
X34281Y-31627D02*
X47806Y-31627D01*
X34361Y-31707D02*
X47726Y-31707D01*
X34441Y-31787D02*
X47646Y-31787D01*
X34488Y-31867D02*
X47598Y-31867D01*
X34521Y-31947D02*
X47565Y-31947D01*
X34554Y-32027D02*
X47532Y-32027D01*
X34587Y-32107D02*
X47499Y-32107D01*
X34620Y-32187D02*
X47466Y-32187D01*
X34645Y-32267D02*
X47442Y-32267D01*
X34645Y-32347D02*
X35853Y-32347D01*
X37623Y-32347D02*
X38753Y-32347D01*
X40523Y-32347D02*
X42152Y-32347D01*
X43922Y-32347D02*
X45052Y-32347D01*
X46822Y-32347D02*
X47442Y-32347D01*
X34645Y-32427D02*
X35748Y-32427D01*
X37730Y-32427D02*
X38648Y-32427D01*
X40630Y-32427D02*
X42047Y-32427D01*
X44029Y-32427D02*
X44947Y-32427D01*
X46929Y-32427D02*
X47442Y-32427D01*
X34645Y-32507D02*
X35677Y-32507D01*
X37801Y-32507D02*
X38577Y-32507D01*
X40701Y-32507D02*
X41976Y-32507D01*
X44100Y-32507D02*
X44876Y-32507D01*
X47000Y-32507D02*
X47442Y-32507D01*
X34645Y-32587D02*
X35643Y-32587D01*
X37834Y-32587D02*
X38543Y-32587D01*
X40734Y-32587D02*
X41942Y-32587D01*
X44133Y-32587D02*
X44842Y-32587D01*
X47033Y-32587D02*
X47442Y-32587D01*
X34645Y-32667D02*
X35615Y-32667D01*
X37863Y-32667D02*
X38515Y-32667D01*
X40763Y-32667D02*
X41914Y-32667D01*
X44162Y-32667D02*
X44814Y-32667D01*
X47062Y-32667D02*
X47442Y-32667D01*
X34632Y-32747D02*
X35615Y-32747D01*
X37863Y-32747D02*
X38515Y-32747D01*
X40763Y-32747D02*
X41914Y-32747D01*
X44162Y-32747D02*
X44814Y-32747D01*
X47062Y-32747D02*
X47456Y-32747D01*
X34599Y-32827D02*
X35615Y-32827D01*
X37863Y-32827D02*
X38515Y-32827D01*
X40763Y-32827D02*
X41914Y-32827D01*
X44162Y-32827D02*
X44814Y-32827D01*
X47062Y-32827D02*
X47489Y-32827D01*
X34566Y-32907D02*
X35615Y-32907D01*
X37863Y-32907D02*
X38515Y-32907D01*
X40763Y-32907D02*
X41914Y-32907D01*
X44162Y-32907D02*
X44814Y-32907D01*
X47062Y-32907D02*
X47522Y-32907D01*
X34533Y-32987D02*
X35615Y-32987D01*
X37863Y-32987D02*
X38515Y-32987D01*
X40763Y-32987D02*
X41914Y-32987D01*
X44162Y-32987D02*
X44814Y-32987D01*
X47062Y-32987D02*
X47555Y-32987D01*
X34500Y-33067D02*
X35615Y-33067D01*
X37863Y-33067D02*
X38515Y-33067D01*
X40763Y-33067D02*
X41914Y-33067D01*
X44162Y-33067D02*
X44814Y-33067D01*
X47062Y-33067D02*
X47588Y-33067D01*
X34466Y-33147D02*
X35615Y-33147D01*
X37863Y-33147D02*
X38515Y-33147D01*
X40763Y-33147D02*
X41914Y-33147D01*
X44162Y-33147D02*
X44814Y-33147D01*
X47062Y-33147D02*
X47621Y-33147D01*
X34387Y-33227D02*
X35615Y-33227D01*
X37863Y-33227D02*
X38515Y-33227D01*
X40763Y-33227D02*
X41914Y-33227D01*
X44162Y-33227D02*
X44814Y-33227D01*
X47062Y-33227D02*
X47700Y-33227D01*
X34307Y-33307D02*
X35615Y-33307D01*
X37863Y-33307D02*
X38515Y-33307D01*
X40763Y-33307D02*
X41914Y-33307D01*
X44162Y-33307D02*
X44814Y-33307D01*
X47062Y-33307D02*
X47780Y-33307D01*
X49464Y-33307D02*
X49475Y-33307D01*
X34227Y-33387D02*
X35615Y-33387D01*
X37863Y-33387D02*
X38515Y-33387D01*
X40763Y-33387D02*
X41914Y-33387D01*
X44162Y-33387D02*
X44814Y-33387D01*
X47062Y-33387D02*
X47860Y-33387D01*
X49384Y-33387D02*
X49475Y-33387D01*
X34147Y-33467D02*
X35615Y-33467D01*
X37863Y-33467D02*
X38515Y-33467D01*
X40763Y-33467D02*
X41914Y-33467D01*
X44162Y-33467D02*
X44814Y-33467D01*
X47062Y-33467D02*
X47940Y-33467D01*
X49304Y-33467D02*
X49475Y-33467D01*
X32808Y-33547D02*
X32960Y-33547D01*
X33973Y-33547D02*
X35641Y-33547D01*
X37838Y-33547D02*
X37863Y-33547D01*
X37863Y-33547D02*
X38541Y-33547D01*
X40738Y-33547D02*
X40763Y-33547D01*
X40763Y-33547D02*
X41940Y-33547D01*
X44137Y-33547D02*
X44162Y-33547D01*
X44162Y-33547D02*
X44840Y-33547D01*
X47037Y-33547D02*
X47062Y-33547D01*
X47062Y-33547D02*
X48115Y-33547D01*
X49130Y-33547D02*
X49475Y-33547D01*
X32808Y-33627D02*
X33151Y-33627D01*
X33780Y-33627D02*
X35674Y-33627D01*
X37805Y-33627D02*
X37863Y-33627D01*
X37863Y-33627D02*
X38574Y-33627D01*
X40705Y-33627D02*
X40763Y-33627D01*
X40763Y-33627D02*
X41973Y-33627D01*
X44104Y-33627D02*
X44162Y-33627D01*
X44162Y-33627D02*
X44873Y-33627D01*
X47004Y-33627D02*
X47062Y-33627D01*
X47062Y-33627D02*
X48308Y-33627D01*
X48937Y-33627D02*
X49475Y-33627D01*
X32808Y-33707D02*
X35740Y-33707D01*
X37738Y-33707D02*
X37863Y-33707D01*
X37863Y-33707D02*
X38640Y-33707D01*
X40638Y-33707D02*
X40763Y-33707D01*
X40763Y-33707D02*
X42039Y-33707D01*
X44037Y-33707D02*
X44162Y-33707D01*
X44162Y-33707D02*
X44939Y-33707D01*
X46937Y-33707D02*
X47062Y-33707D01*
X47062Y-33707D02*
X49475Y-33707D01*
X32808Y-33787D02*
X35836Y-33787D01*
X37644Y-33787D02*
X37863Y-33787D01*
X37863Y-33787D02*
X38736Y-33787D01*
X40544Y-33787D02*
X40763Y-33787D01*
X40763Y-33787D02*
X42135Y-33787D01*
X43943Y-33787D02*
X44162Y-33787D01*
X44162Y-33787D02*
X45035Y-33787D01*
X46843Y-33787D02*
X47062Y-33787D01*
X47062Y-33787D02*
X49475Y-33787D01*
X32808Y-33867D02*
X37863Y-33867D01*
X37863Y-33867D02*
X40763Y-33867D01*
X40763Y-33867D02*
X44162Y-33867D01*
X44162Y-33867D02*
X47062Y-33867D01*
X47062Y-33867D02*
X49475Y-33867D01*
X32808Y-33947D02*
X37863Y-33947D01*
X37863Y-33947D02*
X40763Y-33947D01*
X40763Y-33947D02*
X44162Y-33947D01*
X44162Y-33947D02*
X47062Y-33947D01*
X47062Y-33947D02*
X49475Y-33947D01*
X32808Y-34027D02*
X37863Y-34027D01*
X37863Y-34027D02*
X40763Y-34027D01*
X40763Y-34027D02*
X44162Y-34027D01*
X44162Y-34027D02*
X47062Y-34027D01*
X47062Y-34027D02*
X49475Y-34027D01*
X32808Y-34107D02*
X37863Y-34107D01*
X37863Y-34107D02*
X40763Y-34107D01*
X40763Y-34107D02*
X44162Y-34107D01*
X44162Y-34107D02*
X47062Y-34107D01*
X47062Y-34107D02*
X49475Y-34107D01*
X32808Y-34187D02*
X37863Y-34187D01*
X37863Y-34187D02*
X40763Y-34187D01*
X40763Y-34187D02*
X44162Y-34187D01*
X44162Y-34187D02*
X47062Y-34187D01*
X47062Y-34187D02*
X49475Y-34187D01*
X32808Y-34267D02*
X37863Y-34267D01*
X37863Y-34267D02*
X40763Y-34267D01*
X40763Y-34267D02*
X44162Y-34267D01*
X44162Y-34267D02*
X47062Y-34267D01*
X47062Y-34267D02*
X49475Y-34267D01*
X32808Y-34347D02*
X37863Y-34347D01*
X37863Y-34347D02*
X40763Y-34347D01*
X40763Y-34347D02*
X44162Y-34347D01*
X44162Y-34347D02*
X47062Y-34347D01*
X47062Y-34347D02*
X49475Y-34347D01*
X32808Y-34427D02*
X37863Y-34427D01*
X37863Y-34427D02*
X40763Y-34427D01*
X40763Y-34427D02*
X44162Y-34427D01*
X44162Y-34427D02*
X47062Y-34427D01*
X47062Y-34427D02*
X49475Y-34427D01*
X32808Y-34507D02*
X37863Y-34507D01*
X37863Y-34507D02*
X40763Y-34507D01*
X40763Y-34507D02*
X44162Y-34507D01*
X44162Y-34507D02*
X47062Y-34507D01*
X47062Y-34507D02*
X49475Y-34507D01*
X32808Y-34587D02*
X37863Y-34587D01*
X37863Y-34587D02*
X40763Y-34587D01*
X40763Y-34587D02*
X44162Y-34587D01*
X44162Y-34587D02*
X47062Y-34587D01*
X47062Y-34587D02*
X49475Y-34587D01*
X32808Y-34667D02*
X37863Y-34667D01*
X37863Y-34667D02*
X40763Y-34667D01*
X40763Y-34667D02*
X44162Y-34667D01*
X44162Y-34667D02*
X47062Y-34667D01*
X47062Y-34667D02*
X49475Y-34667D01*
X32808Y-34747D02*
X37863Y-34747D01*
X37863Y-34747D02*
X40763Y-34747D01*
X40763Y-34747D02*
X44162Y-34747D01*
X44162Y-34747D02*
X47062Y-34747D01*
X47062Y-34747D02*
X49475Y-34747D01*
X32808Y-34827D02*
X37863Y-34827D01*
X37863Y-34827D02*
X40763Y-34827D01*
X40763Y-34827D02*
X44162Y-34827D01*
X44162Y-34827D02*
X47062Y-34827D01*
X47062Y-34827D02*
X49475Y-34827D01*
X32808Y-34907D02*
X37863Y-34907D01*
X37863Y-34907D02*
X40763Y-34907D01*
X40763Y-34907D02*
X44162Y-34907D01*
X44162Y-34907D02*
X47062Y-34907D01*
X47062Y-34907D02*
X49475Y-34907D01*
X32808Y-34987D02*
X37863Y-34987D01*
X37863Y-34987D02*
X40763Y-34987D01*
X40763Y-34987D02*
X44162Y-34987D01*
X44162Y-34987D02*
X47062Y-34987D01*
X47062Y-34987D02*
X49475Y-34987D01*
X32808Y-35067D02*
X37863Y-35067D01*
X37863Y-35067D02*
X40763Y-35067D01*
X40763Y-35067D02*
X44162Y-35067D01*
X44162Y-35067D02*
X47062Y-35067D01*
X47062Y-35067D02*
X49475Y-35067D01*
X32808Y-35147D02*
X37863Y-35147D01*
X37863Y-35147D02*
X40763Y-35147D01*
X40763Y-35147D02*
X44162Y-35147D01*
X44162Y-35147D02*
X47062Y-35147D01*
X47062Y-35147D02*
X49475Y-35147D01*
X32808Y-35227D02*
X37863Y-35227D01*
X37863Y-35227D02*
X40763Y-35227D01*
X40763Y-35227D02*
X44162Y-35227D01*
X44162Y-35227D02*
X47062Y-35227D01*
X47062Y-35227D02*
X49475Y-35227D01*
X32808Y-35307D02*
X37863Y-35307D01*
X37863Y-35307D02*
X40763Y-35307D01*
X40763Y-35307D02*
X44162Y-35307D01*
X44162Y-35307D02*
X47062Y-35307D01*
X47062Y-35307D02*
X49475Y-35307D01*
X32808Y-35387D02*
X37863Y-35387D01*
X37863Y-35387D02*
X40763Y-35387D01*
X40763Y-35387D02*
X44162Y-35387D01*
X44162Y-35387D02*
X47062Y-35387D01*
X47062Y-35387D02*
X49475Y-35387D01*
X32808Y-35467D02*
X37863Y-35467D01*
X37863Y-35467D02*
X40763Y-35467D01*
X40763Y-35467D02*
X44162Y-35467D01*
X44162Y-35467D02*
X47062Y-35467D01*
X47062Y-35467D02*
X49475Y-35467D01*
X32808Y-35547D02*
X37863Y-35547D01*
X37863Y-35547D02*
X40763Y-35547D01*
X40763Y-35547D02*
X44162Y-35547D01*
X44162Y-35547D02*
X47062Y-35547D01*
X47062Y-35547D02*
X49475Y-35547D01*
X32808Y-35627D02*
X37863Y-35627D01*
X37863Y-35627D02*
X40763Y-35627D01*
X40763Y-35627D02*
X44162Y-35627D01*
X44162Y-35627D02*
X47062Y-35627D01*
X47062Y-35627D02*
X49475Y-35627D01*
X32808Y-35707D02*
X37863Y-35707D01*
X37863Y-35707D02*
X40763Y-35707D01*
X40763Y-35707D02*
X44162Y-35707D01*
X44162Y-35707D02*
X47062Y-35707D01*
X47062Y-35707D02*
X49475Y-35707D01*
X32808Y-35787D02*
X37863Y-35787D01*
X37863Y-35787D02*
X40763Y-35787D01*
X40763Y-35787D02*
X44162Y-35787D01*
X44162Y-35787D02*
X47062Y-35787D01*
X47062Y-35787D02*
X49475Y-35787D01*
X32808Y-35867D02*
X37863Y-35867D01*
X37863Y-35867D02*
X40763Y-35867D01*
X40763Y-35867D02*
X44162Y-35867D01*
X44162Y-35867D02*
X47062Y-35867D01*
X47062Y-35867D02*
X49475Y-35867D01*
X32808Y-35947D02*
X37863Y-35947D01*
X37863Y-35947D02*
X40763Y-35947D01*
X40763Y-35947D02*
X44162Y-35947D01*
X44162Y-35947D02*
X47062Y-35947D01*
X47062Y-35947D02*
X49475Y-35947D01*
X32808Y-36027D02*
X37777Y-36027D01*
X38600Y-36027D02*
X40763Y-36027D01*
X40763Y-36027D02*
X44076Y-36027D01*
X44899Y-36027D02*
X47062Y-36027D01*
X47062Y-36027D02*
X49475Y-36027D01*
X32808Y-36107D02*
X37643Y-36107D01*
X38735Y-36107D02*
X40763Y-36107D01*
X40763Y-36107D02*
X43942Y-36107D01*
X45034Y-36107D02*
X47062Y-36107D01*
X47062Y-36107D02*
X49475Y-36107D01*
X32808Y-36187D02*
X37563Y-36187D01*
X38815Y-36187D02*
X40763Y-36187D01*
X40763Y-36187D02*
X43862Y-36187D01*
X45114Y-36187D02*
X47062Y-36187D01*
X47062Y-36187D02*
X49475Y-36187D01*
X32808Y-36267D02*
X37527Y-36267D01*
X38850Y-36267D02*
X40763Y-36267D01*
X40763Y-36267D02*
X43825Y-36267D01*
X45149Y-36267D02*
X47062Y-36267D01*
X47062Y-36267D02*
X49475Y-36267D01*
X32808Y-36347D02*
X37493Y-36347D01*
X38883Y-36347D02*
X40763Y-36347D01*
X40763Y-36347D02*
X43792Y-36347D01*
X45182Y-36347D02*
X47062Y-36347D01*
X47062Y-36347D02*
X49475Y-36347D01*
X32808Y-36427D02*
X37490Y-36427D01*
X45187Y-36427D02*
X47062Y-36427D01*
X47062Y-36427D02*
X49475Y-36427D01*
X32808Y-36507D02*
X37490Y-36507D01*
X45187Y-36507D02*
X47062Y-36507D01*
X47062Y-36507D02*
X49475Y-36507D01*
X32808Y-36587D02*
X37490Y-36587D01*
X45187Y-36587D02*
X47062Y-36587D01*
X47062Y-36587D02*
X49475Y-36587D01*
X32808Y-36667D02*
X37446Y-36667D01*
X45187Y-36667D02*
X47062Y-36667D01*
X47062Y-36667D02*
X49475Y-36667D01*
X32808Y-36747D02*
X37401Y-36747D01*
X45187Y-36747D02*
X47062Y-36747D01*
X47062Y-36747D02*
X49475Y-36747D01*
X32808Y-36827D02*
X37383Y-36827D01*
X45187Y-36827D02*
X47062Y-36827D01*
X47062Y-36827D02*
X49475Y-36827D01*
X32808Y-36907D02*
X37360Y-36907D01*
X45187Y-36907D02*
X47062Y-36907D01*
X47062Y-36907D02*
X49475Y-36907D01*
X32808Y-36987D02*
X37352Y-36987D01*
X45187Y-36987D02*
X47062Y-36987D01*
X47062Y-36987D02*
X49475Y-36987D01*
X32808Y-37067D02*
X37350Y-37067D01*
X45187Y-37067D02*
X47062Y-37067D01*
X47062Y-37067D02*
X49475Y-37067D01*
X32808Y-37147D02*
X37350Y-37147D01*
X45187Y-37147D02*
X47062Y-37147D01*
X47062Y-37147D02*
X49475Y-37147D01*
X32808Y-37227D02*
X37350Y-37227D01*
X45187Y-37227D02*
X47062Y-37227D01*
X47062Y-37227D02*
X49475Y-37227D01*
X32808Y-37307D02*
X37350Y-37307D01*
X45187Y-37307D02*
X47062Y-37307D01*
X47062Y-37307D02*
X49475Y-37307D01*
X32808Y-37387D02*
X37350Y-37387D01*
X45187Y-37387D02*
X47062Y-37387D01*
X47062Y-37387D02*
X49475Y-37387D01*
X32808Y-37467D02*
X37350Y-37467D01*
X45187Y-37467D02*
X47062Y-37467D01*
X47062Y-37467D02*
X49475Y-37467D01*
X32808Y-37547D02*
X37350Y-37547D01*
X45187Y-37547D02*
X47062Y-37547D01*
X47062Y-37547D02*
X49475Y-37547D01*
X32808Y-37627D02*
X37350Y-37627D01*
X45187Y-37627D02*
X47062Y-37627D01*
X47062Y-37627D02*
X49475Y-37627D01*
X32808Y-37707D02*
X37350Y-37707D01*
X38880Y-37707D02*
X43799Y-37707D01*
X45179Y-37707D02*
X47062Y-37707D01*
X47062Y-37707D02*
X49475Y-37707D01*
X32808Y-37787D02*
X37350Y-37787D01*
X38846Y-37787D02*
X43832Y-37787D01*
X45150Y-37787D02*
X47062Y-37787D01*
X47062Y-37787D02*
X49475Y-37787D01*
X32808Y-37867D02*
X37350Y-37867D01*
X38803Y-37867D02*
X43850Y-37867D01*
X45150Y-37867D02*
X47062Y-37867D01*
X47062Y-37867D02*
X49475Y-37867D01*
X32808Y-37947D02*
X37350Y-37947D01*
X38723Y-37947D02*
X43850Y-37947D01*
X45150Y-37947D02*
X47062Y-37947D01*
X47062Y-37947D02*
X49475Y-37947D01*
X32808Y-38027D02*
X37350Y-38027D01*
X38650Y-38027D02*
X43850Y-38027D01*
X45150Y-38027D02*
X47062Y-38027D01*
X47062Y-38027D02*
X49475Y-38027D01*
X32808Y-38107D02*
X37350Y-38107D01*
X38650Y-38107D02*
X43850Y-38107D01*
X45150Y-38107D02*
X47062Y-38107D01*
X47062Y-38107D02*
X49475Y-38107D01*
X32808Y-38187D02*
X37350Y-38187D01*
X38650Y-38187D02*
X43850Y-38187D01*
X45150Y-38187D02*
X47062Y-38187D01*
X47062Y-38187D02*
X49475Y-38187D01*
X32808Y-38267D02*
X37350Y-38267D01*
X38650Y-38267D02*
X43850Y-38267D01*
X45150Y-38267D02*
X47062Y-38267D01*
X47062Y-38267D02*
X49475Y-38267D01*
X32808Y-38347D02*
X37350Y-38347D01*
X38650Y-38347D02*
X43850Y-38347D01*
X45150Y-38347D02*
X47062Y-38347D01*
X47062Y-38347D02*
X49475Y-38347D01*
X32808Y-38427D02*
X37350Y-38427D01*
X38650Y-38427D02*
X43850Y-38427D01*
X45150Y-38427D02*
X47062Y-38427D01*
X47062Y-38427D02*
X49475Y-38427D01*
X32808Y-38507D02*
X37350Y-38507D01*
X38650Y-38507D02*
X43850Y-38507D01*
X45150Y-38507D02*
X47062Y-38507D01*
X47062Y-38507D02*
X49475Y-38507D01*
X32808Y-38587D02*
X37350Y-38587D01*
X38650Y-38587D02*
X43850Y-38587D01*
X45150Y-38587D02*
X47062Y-38587D01*
X47062Y-38587D02*
X49475Y-38587D01*
X32808Y-38667D02*
X37350Y-38667D01*
X38650Y-38667D02*
X43850Y-38667D01*
X45150Y-38667D02*
X47062Y-38667D01*
X47062Y-38667D02*
X49475Y-38667D01*
X32808Y-38747D02*
X37350Y-38747D01*
X38650Y-38747D02*
X43850Y-38747D01*
X45150Y-38747D02*
X47062Y-38747D01*
X47062Y-38747D02*
X49475Y-38747D01*
X32808Y-38827D02*
X37350Y-38827D01*
X38650Y-38827D02*
X43850Y-38827D01*
X45150Y-38827D02*
X47062Y-38827D01*
X47062Y-38827D02*
X49475Y-38827D01*
X32808Y-38907D02*
X37350Y-38907D01*
X38650Y-38907D02*
X43850Y-38907D01*
X45150Y-38907D02*
X47062Y-38907D01*
X47062Y-38907D02*
X49475Y-38907D01*
X32808Y-38987D02*
X37350Y-38987D01*
X38650Y-38987D02*
X43850Y-38987D01*
X45150Y-38987D02*
X47062Y-38987D01*
X47062Y-38987D02*
X49475Y-38987D01*
X32808Y-39067D02*
X37350Y-39067D01*
X38650Y-39067D02*
X43850Y-39067D01*
X45150Y-39067D02*
X47062Y-39067D01*
X47062Y-39067D02*
X49475Y-39067D01*
X32808Y-39147D02*
X37350Y-39147D01*
X38650Y-39147D02*
X43850Y-39147D01*
X45150Y-39147D02*
X47062Y-39147D01*
X47062Y-39147D02*
X49475Y-39147D01*
X32808Y-39227D02*
X37350Y-39227D01*
X38650Y-39227D02*
X43850Y-39227D01*
X45150Y-39227D02*
X47062Y-39227D01*
X47062Y-39227D02*
X49475Y-39227D01*
X32808Y-39307D02*
X37350Y-39307D01*
X38650Y-39307D02*
X43850Y-39307D01*
X45150Y-39307D02*
X47062Y-39307D01*
X47062Y-39307D02*
X49475Y-39307D01*
X32808Y-39387D02*
X37350Y-39387D01*
X38650Y-39387D02*
X43850Y-39387D01*
X45150Y-39387D02*
X47062Y-39387D01*
X47062Y-39387D02*
X49475Y-39387D01*
X32808Y-39467D02*
X37350Y-39467D01*
X38650Y-39467D02*
X43850Y-39467D01*
X45150Y-39467D02*
X47062Y-39467D01*
X47062Y-39467D02*
X49475Y-39467D01*
X32808Y-39547D02*
X37350Y-39547D01*
X38650Y-39547D02*
X43850Y-39547D01*
X45150Y-39547D02*
X47062Y-39547D01*
X47062Y-39547D02*
X49475Y-39547D01*
X32808Y-39627D02*
X37350Y-39627D01*
X38650Y-39627D02*
X43850Y-39627D01*
X45150Y-39627D02*
X47062Y-39627D01*
X47062Y-39627D02*
X49475Y-39627D01*
X32808Y-39707D02*
X37350Y-39707D01*
X38650Y-39707D02*
X43850Y-39707D01*
X45150Y-39707D02*
X47062Y-39707D01*
X47062Y-39707D02*
X49475Y-39707D01*
X32808Y-39787D02*
X37350Y-39787D01*
X38650Y-39787D02*
X43850Y-39787D01*
X45150Y-39787D02*
X47062Y-39787D01*
X47062Y-39787D02*
X49475Y-39787D01*
X32808Y-39867D02*
X37350Y-39867D01*
X38650Y-39867D02*
X43850Y-39867D01*
X45150Y-39867D02*
X47062Y-39867D01*
X47062Y-39867D02*
X49475Y-39867D01*
X32808Y-39947D02*
X37350Y-39947D01*
X38650Y-39947D02*
X43850Y-39947D01*
X45150Y-39947D02*
X47062Y-39947D01*
X47062Y-39947D02*
X49475Y-39947D01*
X32808Y-40027D02*
X37350Y-40027D01*
X38650Y-40027D02*
X43850Y-40027D01*
X45150Y-40027D02*
X47062Y-40027D01*
X47062Y-40027D02*
X49475Y-40027D01*
X32808Y-40107D02*
X37350Y-40107D01*
X38650Y-40107D02*
X43850Y-40107D01*
X45150Y-40107D02*
X47062Y-40107D01*
X47062Y-40107D02*
X49475Y-40107D01*
X32808Y-40187D02*
X37350Y-40187D01*
X38650Y-40187D02*
X43850Y-40187D01*
X45150Y-40187D02*
X47062Y-40187D01*
X47062Y-40187D02*
X49475Y-40187D01*
X32808Y-40267D02*
X37350Y-40267D01*
X38650Y-40267D02*
X43850Y-40267D01*
X45150Y-40267D02*
X47062Y-40267D01*
X47062Y-40267D02*
X49475Y-40267D01*
X32808Y-40347D02*
X37350Y-40347D01*
X38650Y-40347D02*
X43850Y-40347D01*
X45150Y-40347D02*
X47062Y-40347D01*
X47062Y-40347D02*
X49475Y-40347D01*
X32808Y-40427D02*
X37350Y-40427D01*
X38650Y-40427D02*
X43850Y-40427D01*
X45150Y-40427D02*
X47062Y-40427D01*
X47062Y-40427D02*
X49475Y-40427D01*
X32808Y-40507D02*
X37350Y-40507D01*
X38650Y-40507D02*
X43850Y-40507D01*
X45150Y-40507D02*
X47062Y-40507D01*
X47062Y-40507D02*
X49475Y-40507D01*
X32808Y-40587D02*
X37350Y-40587D01*
X38650Y-40587D02*
X43850Y-40587D01*
X45150Y-40587D02*
X47062Y-40587D01*
X47062Y-40587D02*
X49475Y-40587D01*
X32808Y-40667D02*
X37350Y-40667D01*
X38650Y-40667D02*
X43850Y-40667D01*
X45150Y-40667D02*
X47062Y-40667D01*
X47062Y-40667D02*
X49475Y-40667D01*
X32808Y-40747D02*
X37350Y-40747D01*
X38650Y-40747D02*
X43850Y-40747D01*
X45150Y-40747D02*
X47062Y-40747D01*
X47062Y-40747D02*
X49475Y-40747D01*
X32808Y-40827D02*
X37350Y-40827D01*
X39360Y-40827D02*
X43850Y-40827D01*
X45150Y-40827D02*
X47062Y-40827D01*
X47062Y-40827D02*
X49475Y-40827D01*
X32808Y-40907D02*
X37350Y-40907D01*
X39514Y-40907D02*
X43850Y-40907D01*
X45150Y-40907D02*
X47062Y-40907D01*
X47062Y-40907D02*
X49475Y-40907D01*
X32808Y-40987D02*
X37350Y-40987D01*
X39594Y-40987D02*
X43850Y-40987D01*
X45150Y-40987D02*
X47062Y-40987D01*
X47062Y-40987D02*
X49475Y-40987D01*
X32808Y-41067D02*
X37350Y-41067D01*
X39638Y-41067D02*
X43850Y-41067D01*
X45150Y-41067D02*
X47062Y-41067D01*
X47062Y-41067D02*
X49475Y-41067D01*
X32808Y-41147D02*
X37350Y-41147D01*
X39671Y-41147D02*
X43850Y-41147D01*
X45150Y-41147D02*
X47062Y-41147D01*
X47062Y-41147D02*
X49475Y-41147D01*
X32808Y-41227D02*
X37350Y-41227D01*
X39681Y-41227D02*
X43850Y-41227D01*
X45150Y-41227D02*
X47062Y-41227D01*
X47062Y-41227D02*
X49475Y-41227D01*
X32808Y-41307D02*
X37350Y-41307D01*
X39681Y-41307D02*
X43850Y-41307D01*
X45150Y-41307D02*
X47062Y-41307D01*
X47062Y-41307D02*
X49475Y-41307D01*
X32808Y-41387D02*
X37350Y-41387D01*
X39681Y-41387D02*
X43850Y-41387D01*
X45150Y-41387D02*
X47062Y-41387D01*
X47062Y-41387D02*
X49475Y-41387D01*
X32808Y-41467D02*
X37350Y-41467D01*
X39681Y-41467D02*
X43850Y-41467D01*
X45150Y-41467D02*
X47062Y-41467D01*
X47062Y-41467D02*
X49475Y-41467D01*
X32808Y-41547D02*
X37359Y-41547D01*
X39681Y-41547D02*
X43850Y-41547D01*
X45150Y-41547D02*
X47062Y-41547D01*
X47062Y-41547D02*
X49475Y-41547D01*
X32808Y-41627D02*
X37375Y-41627D01*
X39681Y-41627D02*
X43850Y-41627D01*
X45150Y-41627D02*
X47062Y-41627D01*
X47062Y-41627D02*
X49475Y-41627D01*
X32808Y-41707D02*
X37391Y-41707D01*
X39681Y-41707D02*
X43850Y-41707D01*
X45150Y-41707D02*
X47062Y-41707D01*
X47062Y-41707D02*
X49475Y-41707D01*
X32808Y-41787D02*
X37425Y-41787D01*
X39681Y-41787D02*
X43850Y-41787D01*
X45150Y-41787D02*
X47062Y-41787D01*
X47062Y-41787D02*
X49475Y-41787D01*
X32808Y-41867D02*
X37479Y-41867D01*
X39681Y-41867D02*
X43850Y-41867D01*
X45150Y-41867D02*
X47062Y-41867D01*
X47062Y-41867D02*
X49475Y-41867D01*
X32808Y-41947D02*
X37485Y-41947D01*
X39681Y-41947D02*
X43850Y-41947D01*
X45150Y-41947D02*
X47062Y-41947D01*
X47062Y-41947D02*
X49475Y-41947D01*
X32808Y-42027D02*
X37485Y-42027D01*
X39681Y-42027D02*
X43850Y-42027D01*
X45150Y-42027D02*
X47062Y-42027D01*
X47062Y-42027D02*
X49475Y-42027D01*
X32808Y-42107D02*
X37485Y-42107D01*
X39681Y-42107D02*
X43850Y-42107D01*
X45150Y-42107D02*
X47062Y-42107D01*
X47062Y-42107D02*
X49475Y-42107D01*
X32808Y-42187D02*
X37485Y-42187D01*
X39681Y-42187D02*
X43850Y-42187D01*
X45150Y-42187D02*
X47062Y-42187D01*
X47062Y-42187D02*
X49475Y-42187D01*
X32808Y-42267D02*
X37485Y-42267D01*
X39681Y-42267D02*
X43850Y-42267D01*
X45150Y-42267D02*
X47062Y-42267D01*
X47062Y-42267D02*
X49475Y-42267D01*
X32808Y-42347D02*
X37485Y-42347D01*
X39681Y-42347D02*
X43850Y-42347D01*
X45150Y-42347D02*
X47062Y-42347D01*
X47062Y-42347D02*
X49475Y-42347D01*
X32808Y-42427D02*
X37485Y-42427D01*
X39681Y-42427D02*
X43850Y-42427D01*
X45150Y-42427D02*
X47062Y-42427D01*
X47062Y-42427D02*
X49475Y-42427D01*
X32808Y-42507D02*
X37485Y-42507D01*
X39681Y-42507D02*
X43850Y-42507D01*
X45150Y-42507D02*
X47062Y-42507D01*
X47062Y-42507D02*
X49475Y-42507D01*
X32808Y-42587D02*
X37485Y-42587D01*
X39681Y-42587D02*
X43850Y-42587D01*
X45150Y-42587D02*
X47062Y-42587D01*
X47062Y-42587D02*
X49475Y-42587D01*
X32808Y-42667D02*
X37485Y-42667D01*
X39681Y-42667D02*
X43850Y-42667D01*
X45150Y-42667D02*
X47062Y-42667D01*
X47062Y-42667D02*
X49475Y-42667D01*
X32808Y-42747D02*
X37485Y-42747D01*
X39681Y-42747D02*
X43850Y-42747D01*
X45150Y-42747D02*
X47062Y-42747D01*
X47062Y-42747D02*
X49475Y-42747D01*
X32808Y-42827D02*
X37485Y-42827D01*
X39681Y-42827D02*
X43850Y-42827D01*
X45150Y-42827D02*
X47062Y-42827D01*
X47062Y-42827D02*
X49475Y-42827D01*
X32808Y-42907D02*
X37485Y-42907D01*
X39681Y-42907D02*
X43850Y-42907D01*
X45150Y-42907D02*
X47062Y-42907D01*
X47062Y-42907D02*
X49475Y-42907D01*
X32808Y-42987D02*
X37485Y-42987D01*
X39681Y-42987D02*
X43850Y-42987D01*
X45150Y-42987D02*
X47062Y-42987D01*
X47062Y-42987D02*
X49475Y-42987D01*
X32808Y-43067D02*
X37485Y-43067D01*
X39681Y-43067D02*
X43850Y-43067D01*
X45150Y-43067D02*
X47062Y-43067D01*
X47062Y-43067D02*
X49475Y-43067D01*
X32808Y-43147D02*
X37513Y-43147D01*
X39654Y-43147D02*
X43850Y-43147D01*
X45150Y-43147D02*
X47062Y-43147D01*
X47062Y-43147D02*
X49475Y-43147D01*
X32808Y-43227D02*
X37546Y-43227D01*
X39621Y-43227D02*
X43850Y-43227D01*
X45150Y-43227D02*
X47062Y-43227D01*
X47062Y-43227D02*
X49475Y-43227D01*
X32808Y-43307D02*
X37614Y-43307D01*
X39552Y-43307D02*
X43850Y-43307D01*
X45150Y-43307D02*
X47062Y-43307D01*
X47062Y-43307D02*
X49475Y-43307D01*
X32808Y-43387D02*
X37715Y-43387D01*
X39453Y-43387D02*
X43850Y-43387D01*
X45150Y-43387D02*
X47062Y-43387D01*
X47062Y-43387D02*
X49475Y-43387D01*
X32808Y-43467D02*
X43850Y-43467D01*
X45150Y-43467D02*
X47062Y-43467D01*
X47062Y-43467D02*
X49475Y-43467D01*
X32808Y-43547D02*
X43850Y-43547D01*
X45150Y-43547D02*
X47062Y-43547D01*
X47062Y-43547D02*
X49475Y-43547D01*
X32808Y-43627D02*
X43850Y-43627D01*
X45150Y-43627D02*
X47062Y-43627D01*
X47062Y-43627D02*
X49475Y-43627D01*
X32808Y-43707D02*
X43850Y-43707D01*
X45150Y-43707D02*
X47062Y-43707D01*
X47062Y-43707D02*
X49475Y-43707D01*
X32808Y-43787D02*
X43850Y-43787D01*
X45206Y-43787D02*
X47062Y-43787D01*
X47062Y-43787D02*
X49475Y-43787D01*
X32808Y-43867D02*
X43850Y-43867D01*
X45286Y-43867D02*
X47062Y-43867D01*
X47062Y-43867D02*
X49475Y-43867D01*
X32808Y-43947D02*
X43850Y-43947D01*
X45366Y-43947D02*
X47062Y-43947D01*
X47062Y-43947D02*
X49475Y-43947D01*
X32808Y-44027D02*
X43855Y-44027D01*
X45446Y-44027D02*
X47062Y-44027D01*
X47062Y-44027D02*
X49475Y-44027D01*
X32808Y-44107D02*
X43871Y-44107D01*
X45526Y-44107D02*
X47062Y-44107D01*
X47062Y-44107D02*
X49475Y-44107D01*
X32808Y-44187D02*
X43887Y-44187D01*
X45606Y-44187D02*
X47062Y-44187D01*
X47062Y-44187D02*
X49475Y-44187D01*
X32808Y-44267D02*
X43912Y-44267D01*
X45686Y-44267D02*
X47062Y-44267D01*
X47062Y-44267D02*
X49475Y-44267D01*
X32808Y-44347D02*
X43965Y-44347D01*
X45766Y-44347D02*
X47062Y-44347D01*
X47062Y-44347D02*
X49475Y-44347D01*
X32808Y-44427D02*
X44018Y-44427D01*
X45846Y-44427D02*
X47062Y-44427D01*
X47062Y-44427D02*
X49475Y-44427D01*
X32808Y-44507D02*
X44088Y-44507D01*
X45926Y-44507D02*
X47062Y-44507D01*
X47062Y-44507D02*
X49475Y-44507D01*
X32808Y-44587D02*
X44168Y-44587D01*
X46006Y-44587D02*
X47062Y-44587D01*
X47062Y-44587D02*
X49475Y-44587D01*
X32808Y-44667D02*
X44248Y-44667D01*
X46086Y-44667D02*
X47062Y-44667D01*
X47062Y-44667D02*
X49475Y-44667D01*
X32808Y-44747D02*
X44328Y-44747D01*
X46166Y-44747D02*
X47062Y-44747D01*
X47062Y-44747D02*
X49475Y-44747D01*
X32808Y-44827D02*
X44408Y-44827D01*
X46246Y-44827D02*
X47062Y-44827D01*
X47062Y-44827D02*
X49475Y-44827D01*
X32808Y-44907D02*
X44488Y-44907D01*
X46326Y-44907D02*
X47062Y-44907D01*
X47062Y-44907D02*
X49475Y-44907D01*
X32808Y-44987D02*
X44568Y-44987D01*
X46406Y-44987D02*
X47062Y-44987D01*
X47062Y-44987D02*
X49475Y-44987D01*
X32808Y-45067D02*
X44648Y-45067D01*
X46486Y-45067D02*
X47062Y-45067D01*
X47062Y-45067D02*
X49475Y-45067D01*
X32808Y-45147D02*
X44728Y-45147D01*
X46566Y-45147D02*
X47062Y-45147D01*
X47062Y-45147D02*
X49475Y-45147D01*
X32808Y-45227D02*
X44808Y-45227D01*
X46646Y-45227D02*
X47062Y-45227D01*
X47062Y-45227D02*
X49475Y-45227D01*
X32808Y-45307D02*
X44888Y-45307D01*
X46726Y-45307D02*
X47062Y-45307D01*
X47062Y-45307D02*
X49475Y-45307D01*
X32808Y-45387D02*
X44968Y-45387D01*
X46806Y-45387D02*
X47062Y-45387D01*
X47062Y-45387D02*
X49475Y-45387D01*
X32808Y-45467D02*
X45048Y-45467D01*
X46886Y-45467D02*
X47062Y-45467D01*
X47062Y-45467D02*
X49475Y-45467D01*
X32808Y-45547D02*
X45128Y-45547D01*
X46964Y-45547D02*
X47062Y-45547D01*
X47062Y-45547D02*
X49475Y-45547D01*
X32808Y-45627D02*
X45208Y-45627D01*
X47018Y-45627D02*
X47062Y-45627D01*
X47062Y-45627D02*
X49475Y-45627D01*
X32808Y-45707D02*
X45288Y-45707D01*
X47071Y-45707D02*
X49475Y-45707D01*
X32808Y-45787D02*
X45368Y-45787D01*
X47108Y-45787D02*
X49475Y-45787D01*
X32808Y-45867D02*
X45448Y-45867D01*
X47123Y-45867D02*
X49475Y-45867D01*
X32808Y-45947D02*
X45528Y-45947D01*
X47139Y-45947D02*
X48346Y-45947D01*
X48820Y-45947D02*
X49475Y-45947D01*
X32808Y-46027D02*
X45608Y-46027D01*
X47150Y-46027D02*
X48152Y-46027D01*
X49013Y-46027D02*
X49475Y-46027D01*
X32808Y-46107D02*
X33126Y-46107D01*
X33803Y-46107D02*
X45688Y-46107D01*
X47150Y-46107D02*
X47958Y-46107D01*
X49206Y-46107D02*
X49475Y-46107D01*
X32808Y-46187D02*
X32931Y-46187D01*
X33996Y-46187D02*
X45768Y-46187D01*
X47150Y-46187D02*
X47853Y-46187D01*
X49313Y-46187D02*
X49475Y-46187D01*
X34157Y-46267D02*
X45848Y-46267D01*
X47150Y-46267D02*
X47773Y-46267D01*
X49393Y-46267D02*
X49475Y-46267D01*
X34237Y-46347D02*
X45850Y-46347D01*
X47150Y-46347D02*
X47693Y-46347D01*
X49473Y-46347D02*
X49475Y-46347D01*
X34317Y-46427D02*
X38392Y-46427D01*
X38774Y-46427D02*
X45850Y-46427D01*
X47150Y-46427D02*
X47613Y-46427D01*
X34397Y-46507D02*
X38210Y-46507D01*
X38956Y-46507D02*
X45850Y-46507D01*
X47150Y-46507D02*
X47562Y-46507D01*
X34470Y-46587D02*
X38130Y-46587D01*
X39036Y-46587D02*
X45850Y-46587D01*
X47150Y-46587D02*
X47529Y-46587D01*
X34503Y-46667D02*
X38050Y-46667D01*
X39116Y-46667D02*
X45850Y-46667D01*
X47150Y-46667D02*
X47495Y-46667D01*
X34536Y-46747D02*
X38008Y-46747D01*
X39157Y-46747D02*
X45804Y-46747D01*
X47150Y-46747D02*
X47462Y-46747D01*
X34569Y-46827D02*
X37975Y-46827D01*
X39190Y-46827D02*
X45728Y-46827D01*
X47150Y-46827D02*
X47429Y-46827D01*
X34602Y-46907D02*
X37941Y-46907D01*
X39224Y-46907D02*
X45695Y-46907D01*
X47150Y-46907D02*
X47403Y-46907D01*
X34635Y-46987D02*
X37937Y-46987D01*
X39229Y-46987D02*
X45661Y-46987D01*
X47150Y-46987D02*
X47403Y-46987D01*
X34645Y-47067D02*
X37937Y-47067D01*
X39229Y-47067D02*
X45628Y-47067D01*
X47146Y-47067D02*
X47403Y-47067D01*
X34645Y-47147D02*
X37937Y-47147D01*
X39229Y-47147D02*
X45617Y-47147D01*
X47123Y-47147D02*
X47403Y-47147D01*
X34645Y-47227D02*
X37959Y-47227D01*
X39208Y-47227D02*
X39229Y-47227D01*
X39229Y-47227D02*
X45617Y-47227D01*
X47115Y-47227D02*
X47403Y-47227D01*
X34645Y-47307D02*
X37992Y-47307D01*
X39175Y-47307D02*
X39229Y-47307D01*
X39229Y-47307D02*
X45617Y-47307D01*
X47115Y-47307D02*
X47403Y-47307D01*
X34645Y-47387D02*
X38025Y-47387D01*
X39141Y-47387D02*
X39229Y-47387D01*
X39229Y-47387D02*
X45617Y-47387D01*
X47115Y-47387D02*
X47415Y-47387D01*
X34645Y-47467D02*
X38090Y-47467D01*
X39076Y-47467D02*
X39229Y-47467D01*
X39229Y-47467D02*
X45649Y-47467D01*
X47085Y-47467D02*
X47448Y-47467D01*
X34617Y-47547D02*
X38170Y-47547D01*
X38996Y-47547D02*
X39229Y-47547D01*
X39229Y-47547D02*
X45682Y-47547D01*
X47052Y-47547D02*
X47481Y-47547D01*
X34584Y-47627D02*
X38296Y-47627D01*
X38871Y-47627D02*
X39229Y-47627D01*
X39229Y-47627D02*
X45715Y-47627D01*
X47018Y-47627D02*
X47514Y-47627D01*
X34551Y-47707D02*
X39229Y-47707D01*
X39229Y-47707D02*
X45771Y-47707D01*
X46962Y-47707D02*
X47547Y-47707D01*
X34517Y-47787D02*
X39229Y-47787D01*
X39229Y-47787D02*
X45851Y-47787D01*
X46882Y-47787D02*
X47580Y-47787D01*
X34484Y-47867D02*
X39229Y-47867D01*
X39229Y-47867D02*
X45931Y-47867D01*
X46802Y-47867D02*
X47655Y-47867D01*
X49475Y-46349D02*
X49252Y-46126D01*
X48818Y-45946D01*
X48349Y-45946D01*
X47915Y-46125D01*
X47583Y-46457D01*
X47403Y-46891D01*
X47403Y-47360D01*
X47582Y-47794D01*
X47688Y-47900D01*
X46738Y-47900D01*
X46789Y-47879D01*
X47000Y-47669D01*
X47115Y-47394D01*
X47115Y-47177D01*
X47115Y-47172D01*
X47117Y-47164D01*
X47147Y-47072D01*
X47143Y-47032D01*
X47150Y-47000D01*
X47150Y-46000D01*
X47101Y-45751D01*
X47062Y-45692D01*
X47062Y-33486D01*
X47062Y-33307D01*
X47062Y-32657D01*
X46994Y-32492D01*
X46868Y-32366D01*
X46703Y-32297D01*
X46524Y-32297D01*
X45174Y-32297D01*
X45009Y-32365D01*
X44883Y-32491D01*
X44814Y-32656D01*
X44814Y-32835D01*
X44814Y-33485D01*
X44882Y-33650D01*
X45008Y-33776D01*
X45173Y-33845D01*
X45352Y-33845D01*
X46702Y-33845D01*
X46867Y-33777D01*
X46993Y-33651D01*
X47062Y-33486D01*
X47062Y-45692D01*
X46960Y-45540D01*
X46956Y-45537D01*
X45150Y-43730D01*
X45150Y-37774D01*
X45187Y-37686D01*
X45187Y-37507D01*
X45187Y-36357D01*
X45119Y-36192D01*
X44993Y-36066D01*
X44828Y-35997D01*
X44649Y-35997D01*
X44162Y-35997D01*
X44162Y-33486D01*
X44162Y-33307D01*
X44162Y-32657D01*
X44094Y-32492D01*
X43968Y-32366D01*
X43803Y-32297D01*
X43624Y-32297D01*
X42274Y-32297D01*
X42109Y-32365D01*
X41983Y-32491D01*
X41914Y-32656D01*
X41914Y-32835D01*
X41914Y-33485D01*
X41982Y-33650D01*
X42108Y-33776D01*
X42273Y-33845D01*
X42452Y-33845D01*
X43802Y-33845D01*
X43967Y-33777D01*
X44093Y-33651D01*
X44162Y-33486D01*
X44162Y-35997D01*
X44149Y-35997D01*
X43984Y-36065D01*
X43858Y-36191D01*
X43791Y-36350D01*
X40763Y-36350D01*
X40763Y-33486D01*
X40763Y-33307D01*
X40763Y-32657D01*
X40695Y-32492D01*
X40569Y-32366D01*
X40404Y-32297D01*
X40225Y-32297D01*
X38875Y-32297D01*
X38710Y-32365D01*
X38584Y-32491D01*
X38515Y-32656D01*
X38515Y-32835D01*
X38515Y-33485D01*
X38583Y-33650D01*
X38709Y-33776D01*
X38874Y-33845D01*
X39053Y-33845D01*
X40403Y-33845D01*
X40568Y-33777D01*
X40694Y-33651D01*
X40763Y-33486D01*
X40763Y-36350D01*
X38885Y-36350D01*
X38820Y-36192D01*
X38694Y-36066D01*
X38529Y-35997D01*
X38350Y-35997D01*
X37863Y-35997D01*
X37863Y-33486D01*
X37863Y-33307D01*
X37863Y-32657D01*
X37795Y-32492D01*
X37669Y-32366D01*
X37504Y-32297D01*
X37325Y-32297D01*
X35975Y-32297D01*
X35810Y-32365D01*
X35684Y-32491D01*
X35615Y-32656D01*
X35615Y-32835D01*
X35615Y-33485D01*
X35683Y-33650D01*
X35809Y-33776D01*
X35974Y-33845D01*
X36153Y-33845D01*
X37503Y-33845D01*
X37668Y-33777D01*
X37794Y-33651D01*
X37863Y-33486D01*
X37863Y-35997D01*
X37850Y-35997D01*
X37685Y-36065D01*
X37559Y-36191D01*
X37490Y-36356D01*
X37490Y-36535D01*
X37490Y-36614D01*
X37488Y-36616D01*
X37430Y-36687D01*
X37419Y-36720D01*
X37399Y-36751D01*
X37380Y-36843D01*
X37354Y-36929D01*
X37356Y-36964D01*
X37350Y-37000D01*
X37350Y-41495D01*
X37349Y-41500D01*
X37399Y-41749D01*
X37485Y-41877D01*
X37485Y-43081D01*
X37553Y-43246D01*
X37679Y-43372D01*
X37844Y-43441D01*
X38023Y-43441D01*
X39321Y-43441D01*
X39486Y-43373D01*
X39612Y-43247D01*
X39681Y-43082D01*
X39681Y-42903D01*
X39681Y-41171D01*
X39613Y-41006D01*
X39487Y-40880D01*
X39322Y-40811D01*
X39143Y-40811D01*
X38650Y-40811D01*
X38650Y-37994D01*
X38693Y-37977D01*
X38819Y-37851D01*
X38888Y-37686D01*
X38888Y-37650D01*
X43789Y-37650D01*
X43789Y-37685D01*
X43850Y-37833D01*
X43850Y-43995D01*
X43849Y-44000D01*
X43899Y-44249D01*
X44040Y-44460D01*
X45850Y-46269D01*
X45850Y-46701D01*
X45732Y-46819D01*
X45617Y-47094D01*
X45617Y-47392D01*
X45731Y-47667D01*
X45941Y-47878D01*
X45993Y-47900D01*
X39229Y-47900D01*
X39229Y-47176D01*
X39229Y-46919D01*
X39131Y-46682D01*
X38949Y-46500D01*
X38712Y-46401D01*
X38455Y-46401D01*
X38218Y-46499D01*
X38036Y-46681D01*
X37937Y-46918D01*
X37937Y-47175D01*
X38035Y-47412D01*
X38217Y-47594D01*
X38454Y-47693D01*
X38711Y-47693D01*
X38948Y-47595D01*
X39130Y-47413D01*
X39229Y-47176D01*
X39229Y-47900D01*
X34470Y-47900D01*
X34645Y-47479D01*
X34645Y-47010D01*
X34466Y-46576D01*
X34134Y-46244D01*
X33700Y-46064D01*
X33231Y-46064D01*
X32808Y-46238D01*
X32808Y-33484D01*
X33230Y-33660D01*
X33699Y-33660D01*
X34133Y-33481D01*
X34465Y-33149D01*
X34645Y-32715D01*
X34645Y-32246D01*
X34466Y-31812D01*
X34281Y-31627D01*
X47806Y-31627D01*
X47622Y-31811D01*
X47442Y-32245D01*
X47442Y-32714D01*
X47621Y-33148D01*
X47953Y-33480D01*
X48387Y-33660D01*
X48856Y-33660D01*
X49290Y-33481D01*
X49475Y-33296D01*
X49475Y-46349D01*
M02*
