G04 (created by PCBNEW-RS274X (2011-05-25)-stable) date Wed 01 Feb 2012 12:44:34 PM EST*
G01*
G70*
G90*
%MOIN*%
G04 Gerber Fmt 3.4, Leading zero omitted, Abs format*
%FSLAX34Y34*%
G04 APERTURE LIST*
%ADD10C,0.006000*%
%ADD11C,0.017000*%
%ADD12C,0.070900*%
%ADD13C,0.150000*%
%ADD14R,0.060000X0.060000*%
%ADD15C,0.060000*%
%ADD16C,0.010000*%
G04 APERTURE END LIST*
G54D10*
G54D11*
X48186Y-34957D02*
X48529Y-34152D01*
X48871Y-34872D01*
X47786Y-35388D02*
X47786Y-36007D01*
X48243Y-35617D01*
X48243Y-35759D01*
X48300Y-35848D01*
X48357Y-35888D01*
X48471Y-35922D01*
X48757Y-35886D01*
X48871Y-35824D01*
X48929Y-35769D01*
X48986Y-35666D01*
X48986Y-35381D01*
X48929Y-35292D01*
X48871Y-35253D01*
G54D12*
X38583Y-47047D03*
G54D13*
X33662Y-32480D03*
X48819Y-32480D03*
X48780Y-47226D03*
X33662Y-47244D03*
G54D14*
X45000Y-47000D03*
G54D15*
X46000Y-47000D03*
G54D10*
G36*
X49450Y-46204D02*
X49019Y-46026D01*
X48542Y-46026D01*
X48101Y-46208D01*
X47763Y-46546D01*
X47580Y-46987D01*
X47580Y-47464D01*
X47762Y-47905D01*
X47807Y-47950D01*
X46749Y-47950D01*
X46749Y-47150D01*
X46749Y-46852D01*
X46635Y-46577D01*
X46425Y-46366D01*
X46150Y-46251D01*
X45852Y-46251D01*
X45577Y-46365D01*
X45446Y-46494D01*
X45441Y-46489D01*
X45349Y-46451D01*
X45112Y-46450D01*
X45050Y-46512D01*
X45050Y-46900D01*
X45050Y-46950D01*
X45050Y-47050D01*
X45050Y-47100D01*
X45050Y-47488D01*
X45112Y-47550D01*
X45349Y-47549D01*
X45441Y-47511D01*
X45446Y-47505D01*
X45575Y-47634D01*
X45850Y-47749D01*
X46148Y-47749D01*
X46423Y-47635D01*
X46634Y-47425D01*
X46749Y-47150D01*
X46749Y-47950D01*
X44950Y-47950D01*
X44950Y-47488D01*
X44950Y-47050D01*
X44950Y-46950D01*
X44950Y-46512D01*
X44888Y-46450D01*
X44651Y-46451D01*
X44559Y-46489D01*
X44489Y-46559D01*
X44451Y-46650D01*
X44451Y-46749D01*
X44450Y-46888D01*
X44512Y-46950D01*
X44950Y-46950D01*
X44950Y-47050D01*
X44512Y-47050D01*
X44450Y-47112D01*
X44451Y-47251D01*
X44451Y-47350D01*
X44489Y-47441D01*
X44559Y-47511D01*
X44651Y-47549D01*
X44888Y-47550D01*
X44950Y-47488D01*
X44950Y-47950D01*
X39386Y-47950D01*
X39386Y-47207D01*
X39386Y-46888D01*
X39264Y-46593D01*
X39038Y-46367D01*
X38743Y-46244D01*
X38424Y-46244D01*
X38129Y-46366D01*
X37903Y-46592D01*
X37780Y-46887D01*
X37780Y-47206D01*
X37902Y-47501D01*
X38128Y-47727D01*
X38423Y-47850D01*
X38742Y-47850D01*
X39037Y-47728D01*
X39263Y-47502D01*
X39386Y-47207D01*
X39386Y-47950D01*
X34653Y-47950D01*
X34679Y-47924D01*
X34862Y-47483D01*
X34862Y-47006D01*
X34680Y-46565D01*
X34342Y-46227D01*
X33901Y-46044D01*
X33424Y-46044D01*
X33050Y-46198D01*
X33050Y-33525D01*
X33423Y-33680D01*
X33900Y-33680D01*
X34341Y-33498D01*
X34679Y-33160D01*
X34862Y-32719D01*
X34862Y-32242D01*
X34680Y-31801D01*
X34429Y-31550D01*
X48052Y-31550D01*
X47802Y-31800D01*
X47619Y-32241D01*
X47619Y-32718D01*
X47801Y-33159D01*
X47949Y-33307D01*
X46955Y-33307D01*
X46955Y-36862D01*
X49450Y-36862D01*
X49450Y-46204D01*
X49450Y-46204D01*
G37*
G54D16*
X49450Y-46204D02*
X49019Y-46026D01*
X48542Y-46026D01*
X48101Y-46208D01*
X47763Y-46546D01*
X47580Y-46987D01*
X47580Y-47464D01*
X47762Y-47905D01*
X47807Y-47950D01*
X46749Y-47950D01*
X46749Y-47150D01*
X46749Y-46852D01*
X46635Y-46577D01*
X46425Y-46366D01*
X46150Y-46251D01*
X45852Y-46251D01*
X45577Y-46365D01*
X45446Y-46494D01*
X45441Y-46489D01*
X45349Y-46451D01*
X45112Y-46450D01*
X45050Y-46512D01*
X45050Y-46900D01*
X45050Y-46950D01*
X45050Y-47050D01*
X45050Y-47100D01*
X45050Y-47488D01*
X45112Y-47550D01*
X45349Y-47549D01*
X45441Y-47511D01*
X45446Y-47505D01*
X45575Y-47634D01*
X45850Y-47749D01*
X46148Y-47749D01*
X46423Y-47635D01*
X46634Y-47425D01*
X46749Y-47150D01*
X46749Y-47950D01*
X44950Y-47950D01*
X44950Y-47488D01*
X44950Y-47050D01*
X44950Y-46950D01*
X44950Y-46512D01*
X44888Y-46450D01*
X44651Y-46451D01*
X44559Y-46489D01*
X44489Y-46559D01*
X44451Y-46650D01*
X44451Y-46749D01*
X44450Y-46888D01*
X44512Y-46950D01*
X44950Y-46950D01*
X44950Y-47050D01*
X44512Y-47050D01*
X44450Y-47112D01*
X44451Y-47251D01*
X44451Y-47350D01*
X44489Y-47441D01*
X44559Y-47511D01*
X44651Y-47549D01*
X44888Y-47550D01*
X44950Y-47488D01*
X44950Y-47950D01*
X39386Y-47950D01*
X39386Y-47207D01*
X39386Y-46888D01*
X39264Y-46593D01*
X39038Y-46367D01*
X38743Y-46244D01*
X38424Y-46244D01*
X38129Y-46366D01*
X37903Y-46592D01*
X37780Y-46887D01*
X37780Y-47206D01*
X37902Y-47501D01*
X38128Y-47727D01*
X38423Y-47850D01*
X38742Y-47850D01*
X39037Y-47728D01*
X39263Y-47502D01*
X39386Y-47207D01*
X39386Y-47950D01*
X34653Y-47950D01*
X34679Y-47924D01*
X34862Y-47483D01*
X34862Y-47006D01*
X34680Y-46565D01*
X34342Y-46227D01*
X33901Y-46044D01*
X33424Y-46044D01*
X33050Y-46198D01*
X33050Y-33525D01*
X33423Y-33680D01*
X33900Y-33680D01*
X34341Y-33498D01*
X34679Y-33160D01*
X34862Y-32719D01*
X34862Y-32242D01*
X34680Y-31801D01*
X34429Y-31550D01*
X48052Y-31550D01*
X47802Y-31800D01*
X47619Y-32241D01*
X47619Y-32718D01*
X47801Y-33159D01*
X47949Y-33307D01*
X46955Y-33307D01*
X46955Y-36862D01*
X49450Y-36862D01*
X49450Y-46204D01*
M02*
