G04 (created by PCBNEW-RS274X (2011-05-25)-stable) date Wed 01 Feb 2012 12:44:34 PM EST*
G01*
G70*
G90*
%MOIN*%
G04 Gerber Fmt 3.4, Leading zero omitted, Abs format*
%FSLAX34Y34*%
G04 APERTURE LIST*
%ADD10C,0.006000*%
%ADD11R,0.047200X0.047200*%
%ADD12R,0.129900X0.173200*%
%ADD13R,0.153500X0.244100*%
%ADD14C,0.070900*%
%ADD15C,0.150000*%
%ADD16R,0.050000X0.115000*%
%ADD17R,0.135000X0.065000*%
%ADD18R,0.060000X0.060000*%
%ADD19C,0.060000*%
%ADD20C,0.040000*%
%ADD21C,0.010000*%
G04 APERTURE END LIST*
G54D10*
G54D11*
X41713Y-38945D03*
X42539Y-38945D03*
X39351Y-38945D03*
X40177Y-38945D03*
G54D12*
X38583Y-42126D03*
G54D13*
X35906Y-45826D03*
X41260Y-45826D03*
G54D14*
X38583Y-47047D03*
G54D15*
X33662Y-32480D03*
X48819Y-32480D03*
X48780Y-47226D03*
X33662Y-47244D03*
G54D16*
X44488Y-35221D03*
X44488Y-37021D03*
G54D17*
X43038Y-33071D03*
X45938Y-33071D03*
G54D18*
X45000Y-47000D03*
G54D19*
X46000Y-47000D03*
G54D16*
X38189Y-35221D03*
X38189Y-37021D03*
G54D17*
X36739Y-33071D03*
X39639Y-33071D03*
G54D20*
X41260Y-45826D02*
X41500Y-46000D01*
X41500Y-46000D02*
X44000Y-46000D01*
X44000Y-46000D02*
X45000Y-47000D01*
X38189Y-35221D02*
X38000Y-35000D01*
X38000Y-35000D02*
X37500Y-35000D01*
X37500Y-35000D02*
X37000Y-35500D01*
X37000Y-35500D02*
X37008Y-38551D01*
X37008Y-38551D02*
X37000Y-39732D01*
X37000Y-39732D02*
X37000Y-45000D01*
X37000Y-45000D02*
X36000Y-46000D01*
X36000Y-46000D02*
X35906Y-45826D01*
X41260Y-45826D02*
X41500Y-46000D01*
X38189Y-35221D02*
X38000Y-35000D01*
X38000Y-35000D02*
X44500Y-35000D01*
X44500Y-35000D02*
X44488Y-35221D01*
X35906Y-45826D02*
X36000Y-46000D01*
X36000Y-46000D02*
X41500Y-46000D01*
X41500Y-46000D02*
X41260Y-45826D01*
X39351Y-38945D02*
X39300Y-38907D01*
X39300Y-38907D02*
X38907Y-38514D01*
X38907Y-38514D02*
X38907Y-38121D01*
X38907Y-38121D02*
X38121Y-37335D01*
X38121Y-37335D02*
X38121Y-36942D01*
X38121Y-36942D02*
X38189Y-37021D01*
X44488Y-37021D02*
X44500Y-37000D01*
X44500Y-37000D02*
X44500Y-44500D01*
X44500Y-44500D02*
X46000Y-46000D01*
X46000Y-46000D02*
X46000Y-47000D01*
X44488Y-37021D02*
X44500Y-37000D01*
X38189Y-37021D02*
X38000Y-37000D01*
X38000Y-37000D02*
X44500Y-37000D01*
X44500Y-37000D02*
X44488Y-37021D01*
X38189Y-37021D02*
X38000Y-37000D01*
X38000Y-37000D02*
X38000Y-41500D01*
X38000Y-41500D02*
X38500Y-42000D01*
X38500Y-42000D02*
X38583Y-42126D01*
X40177Y-38945D02*
X40086Y-38907D01*
X40086Y-38907D02*
X41658Y-38907D01*
X41658Y-38907D02*
X41713Y-38945D01*
G54D10*
G36*
X49450Y-46204D02*
X49019Y-46026D01*
X48542Y-46026D01*
X48101Y-46208D01*
X47763Y-46546D01*
X47580Y-46987D01*
X47580Y-47464D01*
X47762Y-47905D01*
X47807Y-47950D01*
X47062Y-47950D01*
X47062Y-33486D01*
X47062Y-33307D01*
X47062Y-32657D01*
X46994Y-32492D01*
X46868Y-32366D01*
X46703Y-32297D01*
X46524Y-32297D01*
X45174Y-32297D01*
X45009Y-32365D01*
X44883Y-32491D01*
X44814Y-32656D01*
X44814Y-32835D01*
X44814Y-33485D01*
X44882Y-33650D01*
X45008Y-33776D01*
X45173Y-33845D01*
X45352Y-33845D01*
X46702Y-33845D01*
X46867Y-33777D01*
X46993Y-33651D01*
X47062Y-33486D01*
X47062Y-47950D01*
X46749Y-47950D01*
X46749Y-47150D01*
X46749Y-46852D01*
X46650Y-46613D01*
X46650Y-46000D01*
X46601Y-45751D01*
X46460Y-45540D01*
X46456Y-45537D01*
X45150Y-44230D01*
X45150Y-37774D01*
X45187Y-37686D01*
X45187Y-37507D01*
X45187Y-36357D01*
X45119Y-36192D01*
X44993Y-36066D01*
X44865Y-36012D01*
X44879Y-36007D01*
X44949Y-35937D01*
X44987Y-35846D01*
X44987Y-35747D01*
X44988Y-35333D01*
X44988Y-35109D01*
X44987Y-34695D01*
X44987Y-34596D01*
X44949Y-34505D01*
X44879Y-34435D01*
X44787Y-34397D01*
X44600Y-34396D01*
X44538Y-34458D01*
X44538Y-35171D01*
X44926Y-35171D01*
X44988Y-35109D01*
X44988Y-35333D01*
X44926Y-35271D01*
X44588Y-35271D01*
X44538Y-35271D01*
X44438Y-35271D01*
X44438Y-35171D01*
X44438Y-34458D01*
X44376Y-34396D01*
X44189Y-34397D01*
X44162Y-34408D01*
X44162Y-33486D01*
X44162Y-33307D01*
X44162Y-32657D01*
X44094Y-32492D01*
X43968Y-32366D01*
X43803Y-32297D01*
X43624Y-32297D01*
X42274Y-32297D01*
X42109Y-32365D01*
X41983Y-32491D01*
X41914Y-32656D01*
X41914Y-32835D01*
X41914Y-33485D01*
X41982Y-33650D01*
X42108Y-33776D01*
X42273Y-33845D01*
X42452Y-33845D01*
X43802Y-33845D01*
X43967Y-33777D01*
X44093Y-33651D01*
X44162Y-33486D01*
X44162Y-34408D01*
X44097Y-34435D01*
X44027Y-34505D01*
X43989Y-34596D01*
X43989Y-34695D01*
X43988Y-35109D01*
X44050Y-35171D01*
X44438Y-35171D01*
X44438Y-35271D01*
X44388Y-35271D01*
X44050Y-35271D01*
X43988Y-35333D01*
X43989Y-35747D01*
X43989Y-35846D01*
X44027Y-35937D01*
X44097Y-36007D01*
X44110Y-36012D01*
X43984Y-36065D01*
X43858Y-36191D01*
X43791Y-36350D01*
X40763Y-36350D01*
X40763Y-33486D01*
X40763Y-33307D01*
X40763Y-32657D01*
X40695Y-32492D01*
X40569Y-32366D01*
X40404Y-32297D01*
X40225Y-32297D01*
X38875Y-32297D01*
X38710Y-32365D01*
X38584Y-32491D01*
X38515Y-32656D01*
X38515Y-32835D01*
X38515Y-33485D01*
X38583Y-33650D01*
X38709Y-33776D01*
X38874Y-33845D01*
X39053Y-33845D01*
X40403Y-33845D01*
X40568Y-33777D01*
X40694Y-33651D01*
X40763Y-33486D01*
X40763Y-36350D01*
X38885Y-36350D01*
X38820Y-36192D01*
X38694Y-36066D01*
X38566Y-36012D01*
X38580Y-36007D01*
X38650Y-35937D01*
X38688Y-35846D01*
X38688Y-35747D01*
X38689Y-35333D01*
X38689Y-35109D01*
X38688Y-34695D01*
X38688Y-34596D01*
X38650Y-34505D01*
X38580Y-34435D01*
X38488Y-34397D01*
X38301Y-34396D01*
X38239Y-34458D01*
X38239Y-35171D01*
X38627Y-35171D01*
X38689Y-35109D01*
X38689Y-35333D01*
X38627Y-35271D01*
X38289Y-35271D01*
X38239Y-35271D01*
X38139Y-35271D01*
X38139Y-35171D01*
X38139Y-34458D01*
X38077Y-34396D01*
X37890Y-34397D01*
X37863Y-34408D01*
X37863Y-33486D01*
X37863Y-33307D01*
X37863Y-32657D01*
X37795Y-32492D01*
X37669Y-32366D01*
X37504Y-32297D01*
X37325Y-32297D01*
X35975Y-32297D01*
X35810Y-32365D01*
X35684Y-32491D01*
X35615Y-32656D01*
X35615Y-32835D01*
X35615Y-33485D01*
X35683Y-33650D01*
X35809Y-33776D01*
X35974Y-33845D01*
X36153Y-33845D01*
X37503Y-33845D01*
X37668Y-33777D01*
X37794Y-33651D01*
X37863Y-33486D01*
X37863Y-34408D01*
X37798Y-34435D01*
X37728Y-34505D01*
X37690Y-34596D01*
X37690Y-34695D01*
X37689Y-35109D01*
X37751Y-35171D01*
X38139Y-35171D01*
X38139Y-35271D01*
X38089Y-35271D01*
X37751Y-35271D01*
X37689Y-35333D01*
X37690Y-35747D01*
X37690Y-35846D01*
X37728Y-35937D01*
X37798Y-36007D01*
X37811Y-36012D01*
X37685Y-36065D01*
X37559Y-36191D01*
X37490Y-36356D01*
X37490Y-36535D01*
X37490Y-36614D01*
X37488Y-36616D01*
X37430Y-36687D01*
X37419Y-36720D01*
X37399Y-36751D01*
X37380Y-36843D01*
X37354Y-36929D01*
X37356Y-36964D01*
X37350Y-37000D01*
X37350Y-41495D01*
X37349Y-41500D01*
X37399Y-41749D01*
X37485Y-41877D01*
X37485Y-43081D01*
X37553Y-43246D01*
X37679Y-43372D01*
X37844Y-43441D01*
X38023Y-43441D01*
X39321Y-43441D01*
X39486Y-43373D01*
X39612Y-43247D01*
X39681Y-43082D01*
X39681Y-42903D01*
X39681Y-41171D01*
X39613Y-41006D01*
X39487Y-40880D01*
X39322Y-40811D01*
X39143Y-40811D01*
X38650Y-40811D01*
X38650Y-39176D01*
X38666Y-39192D01*
X38666Y-39270D01*
X38734Y-39435D01*
X38860Y-39561D01*
X39025Y-39630D01*
X39204Y-39630D01*
X39676Y-39630D01*
X39764Y-39593D01*
X39851Y-39630D01*
X40030Y-39630D01*
X40502Y-39630D01*
X40667Y-39562D01*
X40672Y-39557D01*
X41218Y-39557D01*
X41222Y-39561D01*
X41387Y-39630D01*
X41566Y-39630D01*
X42038Y-39630D01*
X42203Y-39562D01*
X42329Y-39436D01*
X42331Y-39430D01*
X42427Y-39431D01*
X42489Y-39369D01*
X42489Y-39045D01*
X42489Y-38995D01*
X42489Y-38895D01*
X42489Y-38845D01*
X42489Y-38521D01*
X42427Y-38459D01*
X42331Y-38459D01*
X42330Y-38455D01*
X42204Y-38329D01*
X42039Y-38260D01*
X41860Y-38260D01*
X41673Y-38260D01*
X41658Y-38257D01*
X40092Y-38257D01*
X40088Y-38256D01*
X40067Y-38260D01*
X39852Y-38260D01*
X39763Y-38296D01*
X39677Y-38260D01*
X39572Y-38260D01*
X39557Y-38244D01*
X39557Y-38121D01*
X39508Y-37872D01*
X39367Y-37661D01*
X39363Y-37658D01*
X39355Y-37650D01*
X43789Y-37650D01*
X43789Y-37685D01*
X43850Y-37833D01*
X43850Y-44495D01*
X43849Y-44500D01*
X43899Y-44749D01*
X44040Y-44960D01*
X45350Y-46269D01*
X45350Y-46451D01*
X45349Y-46451D01*
X45112Y-46450D01*
X45050Y-46512D01*
X45050Y-46900D01*
X45050Y-46950D01*
X45050Y-47050D01*
X45050Y-47100D01*
X45050Y-47488D01*
X45112Y-47550D01*
X45349Y-47549D01*
X45441Y-47511D01*
X45446Y-47505D01*
X45575Y-47634D01*
X45850Y-47749D01*
X46148Y-47749D01*
X46423Y-47635D01*
X46634Y-47425D01*
X46749Y-47150D01*
X46749Y-47950D01*
X44950Y-47950D01*
X44950Y-47488D01*
X44950Y-47050D01*
X44950Y-46950D01*
X44950Y-46512D01*
X44888Y-46450D01*
X44651Y-46451D01*
X44559Y-46489D01*
X44489Y-46559D01*
X44451Y-46650D01*
X44451Y-46749D01*
X44450Y-46888D01*
X44512Y-46950D01*
X44950Y-46950D01*
X44950Y-47050D01*
X44512Y-47050D01*
X44450Y-47112D01*
X44451Y-47251D01*
X44451Y-47350D01*
X44489Y-47441D01*
X44559Y-47511D01*
X44651Y-47549D01*
X44888Y-47550D01*
X44950Y-47488D01*
X44950Y-47950D01*
X43025Y-47950D01*
X43025Y-39057D01*
X43025Y-38833D01*
X43024Y-38758D01*
X43024Y-38659D01*
X42986Y-38568D01*
X42916Y-38498D01*
X42824Y-38460D01*
X42651Y-38459D01*
X42589Y-38521D01*
X42589Y-38895D01*
X42963Y-38895D01*
X43025Y-38833D01*
X43025Y-39057D01*
X42963Y-38995D01*
X42589Y-38995D01*
X42589Y-39369D01*
X42651Y-39431D01*
X42824Y-39430D01*
X42916Y-39392D01*
X42986Y-39322D01*
X43024Y-39231D01*
X43024Y-39132D01*
X43025Y-39057D01*
X43025Y-47950D01*
X42277Y-47950D01*
X42277Y-45938D01*
X42277Y-45714D01*
X42276Y-44655D01*
X42276Y-44556D01*
X42238Y-44465D01*
X42168Y-44395D01*
X42076Y-44357D01*
X41372Y-44356D01*
X41310Y-44418D01*
X41310Y-45776D01*
X42215Y-45776D01*
X42277Y-45714D01*
X42277Y-45938D01*
X42215Y-45876D01*
X41310Y-45876D01*
X41310Y-47234D01*
X41372Y-47296D01*
X42076Y-47295D01*
X42168Y-47257D01*
X42238Y-47187D01*
X42276Y-47096D01*
X42276Y-46997D01*
X42277Y-45938D01*
X42277Y-47950D01*
X41210Y-47950D01*
X41210Y-47234D01*
X41210Y-45876D01*
X41210Y-45776D01*
X41210Y-44418D01*
X41148Y-44356D01*
X40444Y-44357D01*
X40352Y-44395D01*
X40282Y-44465D01*
X40244Y-44556D01*
X40244Y-44655D01*
X40243Y-45714D01*
X40305Y-45776D01*
X41210Y-45776D01*
X41210Y-45876D01*
X40305Y-45876D01*
X40243Y-45938D01*
X40244Y-46997D01*
X40244Y-47096D01*
X40282Y-47187D01*
X40352Y-47257D01*
X40444Y-47295D01*
X41148Y-47296D01*
X41210Y-47234D01*
X41210Y-47950D01*
X39386Y-47950D01*
X39386Y-47207D01*
X39386Y-46888D01*
X39264Y-46593D01*
X39038Y-46367D01*
X38743Y-46244D01*
X38424Y-46244D01*
X38129Y-46366D01*
X37903Y-46592D01*
X37780Y-46887D01*
X37780Y-47206D01*
X37902Y-47501D01*
X38128Y-47727D01*
X38423Y-47850D01*
X38742Y-47850D01*
X39037Y-47728D01*
X39263Y-47502D01*
X39386Y-47207D01*
X39386Y-47950D01*
X36923Y-47950D01*
X36923Y-45938D01*
X36923Y-45714D01*
X36922Y-44655D01*
X36922Y-44556D01*
X36884Y-44465D01*
X36814Y-44395D01*
X36722Y-44357D01*
X36018Y-44356D01*
X35956Y-44418D01*
X35956Y-45776D01*
X36861Y-45776D01*
X36923Y-45714D01*
X36923Y-45938D01*
X36861Y-45876D01*
X35956Y-45876D01*
X35956Y-47234D01*
X36018Y-47296D01*
X36722Y-47295D01*
X36814Y-47257D01*
X36884Y-47187D01*
X36922Y-47096D01*
X36922Y-46997D01*
X36923Y-45938D01*
X36923Y-47950D01*
X35856Y-47950D01*
X35856Y-47234D01*
X35856Y-45876D01*
X35856Y-45776D01*
X35856Y-44418D01*
X35794Y-44356D01*
X35090Y-44357D01*
X34998Y-44395D01*
X34928Y-44465D01*
X34890Y-44556D01*
X34890Y-44655D01*
X34889Y-45714D01*
X34951Y-45776D01*
X35856Y-45776D01*
X35856Y-45876D01*
X34951Y-45876D01*
X34889Y-45938D01*
X34890Y-46997D01*
X34890Y-47096D01*
X34928Y-47187D01*
X34998Y-47257D01*
X35090Y-47295D01*
X35794Y-47296D01*
X35856Y-47234D01*
X35856Y-47950D01*
X34653Y-47950D01*
X34679Y-47924D01*
X34862Y-47483D01*
X34862Y-47006D01*
X34680Y-46565D01*
X34342Y-46227D01*
X33901Y-46044D01*
X33424Y-46044D01*
X33050Y-46198D01*
X33050Y-33525D01*
X33423Y-33680D01*
X33900Y-33680D01*
X34341Y-33498D01*
X34679Y-33160D01*
X34862Y-32719D01*
X34862Y-32242D01*
X34680Y-31801D01*
X34429Y-31550D01*
X48052Y-31550D01*
X47802Y-31800D01*
X47619Y-32241D01*
X47619Y-32718D01*
X47801Y-33159D01*
X48139Y-33497D01*
X48580Y-33680D01*
X49057Y-33680D01*
X49450Y-33517D01*
X49450Y-46204D01*
X49450Y-46204D01*
G37*
G54D21*
X49450Y-46204D02*
X49019Y-46026D01*
X48542Y-46026D01*
X48101Y-46208D01*
X47763Y-46546D01*
X47580Y-46987D01*
X47580Y-47464D01*
X47762Y-47905D01*
X47807Y-47950D01*
X47062Y-47950D01*
X47062Y-33486D01*
X47062Y-33307D01*
X47062Y-32657D01*
X46994Y-32492D01*
X46868Y-32366D01*
X46703Y-32297D01*
X46524Y-32297D01*
X45174Y-32297D01*
X45009Y-32365D01*
X44883Y-32491D01*
X44814Y-32656D01*
X44814Y-32835D01*
X44814Y-33485D01*
X44882Y-33650D01*
X45008Y-33776D01*
X45173Y-33845D01*
X45352Y-33845D01*
X46702Y-33845D01*
X46867Y-33777D01*
X46993Y-33651D01*
X47062Y-33486D01*
X47062Y-47950D01*
X46749Y-47950D01*
X46749Y-47150D01*
X46749Y-46852D01*
X46650Y-46613D01*
X46650Y-46000D01*
X46601Y-45751D01*
X46460Y-45540D01*
X46456Y-45537D01*
X45150Y-44230D01*
X45150Y-37774D01*
X45187Y-37686D01*
X45187Y-37507D01*
X45187Y-36357D01*
X45119Y-36192D01*
X44993Y-36066D01*
X44865Y-36012D01*
X44879Y-36007D01*
X44949Y-35937D01*
X44987Y-35846D01*
X44987Y-35747D01*
X44988Y-35333D01*
X44988Y-35109D01*
X44987Y-34695D01*
X44987Y-34596D01*
X44949Y-34505D01*
X44879Y-34435D01*
X44787Y-34397D01*
X44600Y-34396D01*
X44538Y-34458D01*
X44538Y-35171D01*
X44926Y-35171D01*
X44988Y-35109D01*
X44988Y-35333D01*
X44926Y-35271D01*
X44588Y-35271D01*
X44538Y-35271D01*
X44438Y-35271D01*
X44438Y-35171D01*
X44438Y-34458D01*
X44376Y-34396D01*
X44189Y-34397D01*
X44162Y-34408D01*
X44162Y-33486D01*
X44162Y-33307D01*
X44162Y-32657D01*
X44094Y-32492D01*
X43968Y-32366D01*
X43803Y-32297D01*
X43624Y-32297D01*
X42274Y-32297D01*
X42109Y-32365D01*
X41983Y-32491D01*
X41914Y-32656D01*
X41914Y-32835D01*
X41914Y-33485D01*
X41982Y-33650D01*
X42108Y-33776D01*
X42273Y-33845D01*
X42452Y-33845D01*
X43802Y-33845D01*
X43967Y-33777D01*
X44093Y-33651D01*
X44162Y-33486D01*
X44162Y-34408D01*
X44097Y-34435D01*
X44027Y-34505D01*
X43989Y-34596D01*
X43989Y-34695D01*
X43988Y-35109D01*
X44050Y-35171D01*
X44438Y-35171D01*
X44438Y-35271D01*
X44388Y-35271D01*
X44050Y-35271D01*
X43988Y-35333D01*
X43989Y-35747D01*
X43989Y-35846D01*
X44027Y-35937D01*
X44097Y-36007D01*
X44110Y-36012D01*
X43984Y-36065D01*
X43858Y-36191D01*
X43791Y-36350D01*
X40763Y-36350D01*
X40763Y-33486D01*
X40763Y-33307D01*
X40763Y-32657D01*
X40695Y-32492D01*
X40569Y-32366D01*
X40404Y-32297D01*
X40225Y-32297D01*
X38875Y-32297D01*
X38710Y-32365D01*
X38584Y-32491D01*
X38515Y-32656D01*
X38515Y-32835D01*
X38515Y-33485D01*
X38583Y-33650D01*
X38709Y-33776D01*
X38874Y-33845D01*
X39053Y-33845D01*
X40403Y-33845D01*
X40568Y-33777D01*
X40694Y-33651D01*
X40763Y-33486D01*
X40763Y-36350D01*
X38885Y-36350D01*
X38820Y-36192D01*
X38694Y-36066D01*
X38566Y-36012D01*
X38580Y-36007D01*
X38650Y-35937D01*
X38688Y-35846D01*
X38688Y-35747D01*
X38689Y-35333D01*
X38689Y-35109D01*
X38688Y-34695D01*
X38688Y-34596D01*
X38650Y-34505D01*
X38580Y-34435D01*
X38488Y-34397D01*
X38301Y-34396D01*
X38239Y-34458D01*
X38239Y-35171D01*
X38627Y-35171D01*
X38689Y-35109D01*
X38689Y-35333D01*
X38627Y-35271D01*
X38289Y-35271D01*
X38239Y-35271D01*
X38139Y-35271D01*
X38139Y-35171D01*
X38139Y-34458D01*
X38077Y-34396D01*
X37890Y-34397D01*
X37863Y-34408D01*
X37863Y-33486D01*
X37863Y-33307D01*
X37863Y-32657D01*
X37795Y-32492D01*
X37669Y-32366D01*
X37504Y-32297D01*
X37325Y-32297D01*
X35975Y-32297D01*
X35810Y-32365D01*
X35684Y-32491D01*
X35615Y-32656D01*
X35615Y-32835D01*
X35615Y-33485D01*
X35683Y-33650D01*
X35809Y-33776D01*
X35974Y-33845D01*
X36153Y-33845D01*
X37503Y-33845D01*
X37668Y-33777D01*
X37794Y-33651D01*
X37863Y-33486D01*
X37863Y-34408D01*
X37798Y-34435D01*
X37728Y-34505D01*
X37690Y-34596D01*
X37690Y-34695D01*
X37689Y-35109D01*
X37751Y-35171D01*
X38139Y-35171D01*
X38139Y-35271D01*
X38089Y-35271D01*
X37751Y-35271D01*
X37689Y-35333D01*
X37690Y-35747D01*
X37690Y-35846D01*
X37728Y-35937D01*
X37798Y-36007D01*
X37811Y-36012D01*
X37685Y-36065D01*
X37559Y-36191D01*
X37490Y-36356D01*
X37490Y-36535D01*
X37490Y-36614D01*
X37488Y-36616D01*
X37430Y-36687D01*
X37419Y-36720D01*
X37399Y-36751D01*
X37380Y-36843D01*
X37354Y-36929D01*
X37356Y-36964D01*
X37350Y-37000D01*
X37350Y-41495D01*
X37349Y-41500D01*
X37399Y-41749D01*
X37485Y-41877D01*
X37485Y-43081D01*
X37553Y-43246D01*
X37679Y-43372D01*
X37844Y-43441D01*
X38023Y-43441D01*
X39321Y-43441D01*
X39486Y-43373D01*
X39612Y-43247D01*
X39681Y-43082D01*
X39681Y-42903D01*
X39681Y-41171D01*
X39613Y-41006D01*
X39487Y-40880D01*
X39322Y-40811D01*
X39143Y-40811D01*
X38650Y-40811D01*
X38650Y-39176D01*
X38666Y-39192D01*
X38666Y-39270D01*
X38734Y-39435D01*
X38860Y-39561D01*
X39025Y-39630D01*
X39204Y-39630D01*
X39676Y-39630D01*
X39764Y-39593D01*
X39851Y-39630D01*
X40030Y-39630D01*
X40502Y-39630D01*
X40667Y-39562D01*
X40672Y-39557D01*
X41218Y-39557D01*
X41222Y-39561D01*
X41387Y-39630D01*
X41566Y-39630D01*
X42038Y-39630D01*
X42203Y-39562D01*
X42329Y-39436D01*
X42331Y-39430D01*
X42427Y-39431D01*
X42489Y-39369D01*
X42489Y-39045D01*
X42489Y-38995D01*
X42489Y-38895D01*
X42489Y-38845D01*
X42489Y-38521D01*
X42427Y-38459D01*
X42331Y-38459D01*
X42330Y-38455D01*
X42204Y-38329D01*
X42039Y-38260D01*
X41860Y-38260D01*
X41673Y-38260D01*
X41658Y-38257D01*
X40092Y-38257D01*
X40088Y-38256D01*
X40067Y-38260D01*
X39852Y-38260D01*
X39763Y-38296D01*
X39677Y-38260D01*
X39572Y-38260D01*
X39557Y-38244D01*
X39557Y-38121D01*
X39508Y-37872D01*
X39367Y-37661D01*
X39363Y-37658D01*
X39355Y-37650D01*
X43789Y-37650D01*
X43789Y-37685D01*
X43850Y-37833D01*
X43850Y-44495D01*
X43849Y-44500D01*
X43899Y-44749D01*
X44040Y-44960D01*
X45350Y-46269D01*
X45350Y-46451D01*
X45349Y-46451D01*
X45112Y-46450D01*
X45050Y-46512D01*
X45050Y-46900D01*
X45050Y-46950D01*
X45050Y-47050D01*
X45050Y-47100D01*
X45050Y-47488D01*
X45112Y-47550D01*
X45349Y-47549D01*
X45441Y-47511D01*
X45446Y-47505D01*
X45575Y-47634D01*
X45850Y-47749D01*
X46148Y-47749D01*
X46423Y-47635D01*
X46634Y-47425D01*
X46749Y-47150D01*
X46749Y-47950D01*
X44950Y-47950D01*
X44950Y-47488D01*
X44950Y-47050D01*
X44950Y-46950D01*
X44950Y-46512D01*
X44888Y-46450D01*
X44651Y-46451D01*
X44559Y-46489D01*
X44489Y-46559D01*
X44451Y-46650D01*
X44451Y-46749D01*
X44450Y-46888D01*
X44512Y-46950D01*
X44950Y-46950D01*
X44950Y-47050D01*
X44512Y-47050D01*
X44450Y-47112D01*
X44451Y-47251D01*
X44451Y-47350D01*
X44489Y-47441D01*
X44559Y-47511D01*
X44651Y-47549D01*
X44888Y-47550D01*
X44950Y-47488D01*
X44950Y-47950D01*
X43025Y-47950D01*
X43025Y-39057D01*
X43025Y-38833D01*
X43024Y-38758D01*
X43024Y-38659D01*
X42986Y-38568D01*
X42916Y-38498D01*
X42824Y-38460D01*
X42651Y-38459D01*
X42589Y-38521D01*
X42589Y-38895D01*
X42963Y-38895D01*
X43025Y-38833D01*
X43025Y-39057D01*
X42963Y-38995D01*
X42589Y-38995D01*
X42589Y-39369D01*
X42651Y-39431D01*
X42824Y-39430D01*
X42916Y-39392D01*
X42986Y-39322D01*
X43024Y-39231D01*
X43024Y-39132D01*
X43025Y-39057D01*
X43025Y-47950D01*
X42277Y-47950D01*
X42277Y-45938D01*
X42277Y-45714D01*
X42276Y-44655D01*
X42276Y-44556D01*
X42238Y-44465D01*
X42168Y-44395D01*
X42076Y-44357D01*
X41372Y-44356D01*
X41310Y-44418D01*
X41310Y-45776D01*
X42215Y-45776D01*
X42277Y-45714D01*
X42277Y-45938D01*
X42215Y-45876D01*
X41310Y-45876D01*
X41310Y-47234D01*
X41372Y-47296D01*
X42076Y-47295D01*
X42168Y-47257D01*
X42238Y-47187D01*
X42276Y-47096D01*
X42276Y-46997D01*
X42277Y-45938D01*
X42277Y-47950D01*
X41210Y-47950D01*
X41210Y-47234D01*
X41210Y-45876D01*
X41210Y-45776D01*
X41210Y-44418D01*
X41148Y-44356D01*
X40444Y-44357D01*
X40352Y-44395D01*
X40282Y-44465D01*
X40244Y-44556D01*
X40244Y-44655D01*
X40243Y-45714D01*
X40305Y-45776D01*
X41210Y-45776D01*
X41210Y-45876D01*
X40305Y-45876D01*
X40243Y-45938D01*
X40244Y-46997D01*
X40244Y-47096D01*
X40282Y-47187D01*
X40352Y-47257D01*
X40444Y-47295D01*
X41148Y-47296D01*
X41210Y-47234D01*
X41210Y-47950D01*
X39386Y-47950D01*
X39386Y-47207D01*
X39386Y-46888D01*
X39264Y-46593D01*
X39038Y-46367D01*
X38743Y-46244D01*
X38424Y-46244D01*
X38129Y-46366D01*
X37903Y-46592D01*
X37780Y-46887D01*
X37780Y-47206D01*
X37902Y-47501D01*
X38128Y-47727D01*
X38423Y-47850D01*
X38742Y-47850D01*
X39037Y-47728D01*
X39263Y-47502D01*
X39386Y-47207D01*
X39386Y-47950D01*
X36923Y-47950D01*
X36923Y-45938D01*
X36923Y-45714D01*
X36922Y-44655D01*
X36922Y-44556D01*
X36884Y-44465D01*
X36814Y-44395D01*
X36722Y-44357D01*
X36018Y-44356D01*
X35956Y-44418D01*
X35956Y-45776D01*
X36861Y-45776D01*
X36923Y-45714D01*
X36923Y-45938D01*
X36861Y-45876D01*
X35956Y-45876D01*
X35956Y-47234D01*
X36018Y-47296D01*
X36722Y-47295D01*
X36814Y-47257D01*
X36884Y-47187D01*
X36922Y-47096D01*
X36922Y-46997D01*
X36923Y-45938D01*
X36923Y-47950D01*
X35856Y-47950D01*
X35856Y-47234D01*
X35856Y-45876D01*
X35856Y-45776D01*
X35856Y-44418D01*
X35794Y-44356D01*
X35090Y-44357D01*
X34998Y-44395D01*
X34928Y-44465D01*
X34890Y-44556D01*
X34890Y-44655D01*
X34889Y-45714D01*
X34951Y-45776D01*
X35856Y-45776D01*
X35856Y-45876D01*
X34951Y-45876D01*
X34889Y-45938D01*
X34890Y-46997D01*
X34890Y-47096D01*
X34928Y-47187D01*
X34998Y-47257D01*
X35090Y-47295D01*
X35794Y-47296D01*
X35856Y-47234D01*
X35856Y-47950D01*
X34653Y-47950D01*
X34679Y-47924D01*
X34862Y-47483D01*
X34862Y-47006D01*
X34680Y-46565D01*
X34342Y-46227D01*
X33901Y-46044D01*
X33424Y-46044D01*
X33050Y-46198D01*
X33050Y-33525D01*
X33423Y-33680D01*
X33900Y-33680D01*
X34341Y-33498D01*
X34679Y-33160D01*
X34862Y-32719D01*
X34862Y-32242D01*
X34680Y-31801D01*
X34429Y-31550D01*
X48052Y-31550D01*
X47802Y-31800D01*
X47619Y-32241D01*
X47619Y-32718D01*
X47801Y-33159D01*
X48139Y-33497D01*
X48580Y-33680D01*
X49057Y-33680D01*
X49450Y-33517D01*
X49450Y-46204D01*
M02*
