G04 (created by PCBNEW-RS274X (2011-05-25)-stable) date Mon 06 Feb 2012 01:35:08 PM EST*
G01*
G70*
G90*
%MOIN*%
G04 Gerber Fmt 3.4, Leading zero omitted, Abs format*
%FSLAX34Y34*%
G04 APERTURE LIST*
%ADD10C,0.006000*%
%ADD11C,0.017000*%
%ADD12R,0.060000X0.060000*%
%ADD13C,0.060000*%
%ADD14C,0.070900*%
%ADD15C,0.150000*%
%ADD16C,0.035000*%
%ADD17C,0.010000*%
G04 APERTURE END LIST*
G54D10*
G54D11*
X-01814Y13074D02*
X-01471Y13879D01*
X-01129Y13159D01*
X-02214Y12643D02*
X-02214Y12024D01*
X-01757Y12414D01*
X-01757Y12272D01*
X-01700Y12183D01*
X-01643Y12143D01*
X-01529Y12109D01*
X-01243Y12145D01*
X-01129Y12207D01*
X-01071Y12262D01*
X-01014Y12365D01*
X-01014Y12650D01*
X-01071Y12739D01*
X-01129Y12778D01*
G54D12*
X-05000Y01031D03*
G54D13*
X-04000Y01031D03*
G54D14*
X-11417Y00984D03*
G54D15*
X-16338Y15551D03*
X-01181Y15551D03*
X-01220Y00805D03*
X-16338Y00787D03*
G54D16*
X-14500Y11531D03*
X-14500Y10531D03*
X-14500Y09531D03*
X-03500Y08031D03*
X-03500Y09031D03*
X-03500Y10031D03*
G54D10*
G36*
X-00710Y02109D02*
X-00940Y02204D01*
X-01497Y02205D01*
X-02012Y01992D01*
X-02406Y01599D01*
X-02619Y01085D01*
X-02620Y00528D01*
X-02502Y00241D01*
X-03447Y00241D01*
X-03195Y00492D01*
X-03050Y00841D01*
X-03050Y01219D01*
X-03194Y01568D01*
X-03461Y01836D01*
X-03810Y01981D01*
X-04188Y01981D01*
X-04537Y01837D01*
X-04795Y01581D01*
X-04888Y01581D01*
X-04950Y01519D01*
X-04950Y01221D01*
X-04950Y01131D01*
X-04950Y01081D01*
X-04950Y00981D01*
X-04950Y00931D01*
X-04950Y00843D01*
X-04950Y00543D01*
X-04888Y00481D01*
X-04794Y00482D01*
X-04554Y00241D01*
X-05050Y00241D01*
X-05050Y00543D01*
X-05050Y00981D01*
X-05050Y01081D01*
X-05050Y01519D01*
X-05112Y01581D01*
X-05349Y01580D01*
X-05441Y01542D01*
X-05511Y01472D01*
X-05549Y01381D01*
X-05549Y01282D01*
X-05550Y01143D01*
X-05488Y01081D01*
X-05050Y01081D01*
X-05050Y00981D01*
X-05488Y00981D01*
X-05550Y00919D01*
X-05549Y00780D01*
X-05549Y00681D01*
X-05511Y00590D01*
X-05441Y00520D01*
X-05349Y00482D01*
X-05112Y00481D01*
X-05050Y00543D01*
X-05050Y00241D01*
X-10741Y00241D01*
X-10566Y00415D01*
X-10413Y00784D01*
X-10413Y01183D01*
X-10566Y01552D01*
X-10848Y01835D01*
X-11217Y01988D01*
X-11616Y01988D01*
X-11985Y01835D01*
X-12268Y01553D01*
X-12421Y01184D01*
X-12421Y00785D01*
X-12268Y00416D01*
X-12094Y00241D01*
X-15050Y00241D01*
X-14939Y00507D01*
X-14938Y01064D01*
X-15151Y01579D01*
X-15544Y01973D01*
X-16058Y02186D01*
X-16615Y02187D01*
X-16790Y02115D01*
X-16790Y14224D01*
X-16618Y14152D01*
X-16061Y14151D01*
X-15546Y14364D01*
X-15152Y14757D01*
X-14939Y15271D01*
X-14938Y15828D01*
X-15142Y16321D01*
X-02377Y16321D01*
X-02580Y15831D01*
X-02581Y15274D01*
X-02437Y14924D01*
X-03245Y14924D01*
X-03245Y10969D01*
X-00710Y10969D01*
X-00710Y02109D01*
X-00710Y02109D01*
G37*
G54D17*
X-00710Y02109D02*
X-00940Y02204D01*
X-01497Y02205D01*
X-02012Y01992D01*
X-02406Y01599D01*
X-02619Y01085D01*
X-02620Y00528D01*
X-02502Y00241D01*
X-03447Y00241D01*
X-03195Y00492D01*
X-03050Y00841D01*
X-03050Y01219D01*
X-03194Y01568D01*
X-03461Y01836D01*
X-03810Y01981D01*
X-04188Y01981D01*
X-04537Y01837D01*
X-04795Y01581D01*
X-04888Y01581D01*
X-04950Y01519D01*
X-04950Y01221D01*
X-04950Y01131D01*
X-04950Y01081D01*
X-04950Y00981D01*
X-04950Y00931D01*
X-04950Y00843D01*
X-04950Y00543D01*
X-04888Y00481D01*
X-04794Y00482D01*
X-04554Y00241D01*
X-05050Y00241D01*
X-05050Y00543D01*
X-05050Y00981D01*
X-05050Y01081D01*
X-05050Y01519D01*
X-05112Y01581D01*
X-05349Y01580D01*
X-05441Y01542D01*
X-05511Y01472D01*
X-05549Y01381D01*
X-05549Y01282D01*
X-05550Y01143D01*
X-05488Y01081D01*
X-05050Y01081D01*
X-05050Y00981D01*
X-05488Y00981D01*
X-05550Y00919D01*
X-05549Y00780D01*
X-05549Y00681D01*
X-05511Y00590D01*
X-05441Y00520D01*
X-05349Y00482D01*
X-05112Y00481D01*
X-05050Y00543D01*
X-05050Y00241D01*
X-10741Y00241D01*
X-10566Y00415D01*
X-10413Y00784D01*
X-10413Y01183D01*
X-10566Y01552D01*
X-10848Y01835D01*
X-11217Y01988D01*
X-11616Y01988D01*
X-11985Y01835D01*
X-12268Y01553D01*
X-12421Y01184D01*
X-12421Y00785D01*
X-12268Y00416D01*
X-12094Y00241D01*
X-15050Y00241D01*
X-14939Y00507D01*
X-14938Y01064D01*
X-15151Y01579D01*
X-15544Y01973D01*
X-16058Y02186D01*
X-16615Y02187D01*
X-16790Y02115D01*
X-16790Y14224D01*
X-16618Y14152D01*
X-16061Y14151D01*
X-15546Y14364D01*
X-15152Y14757D01*
X-14939Y15271D01*
X-14938Y15828D01*
X-15142Y16321D01*
X-02377Y16321D01*
X-02580Y15831D01*
X-02581Y15274D01*
X-02437Y14924D01*
X-03245Y14924D01*
X-03245Y10969D01*
X-00710Y10969D01*
X-00710Y02109D01*
M02*
