G04 (created by PCBNEW-RS274X (2011-nov-30)-testing) date Sat 17 Mar 2012 04:30:20 PM EDT*
G01*
G70*
G90*
%MOIN*%
G04 Gerber Fmt 3.4, Leading zero omitted, Abs format*
%FSLAX34Y34*%
G04 APERTURE LIST*
%ADD10C,0.006000*%
%ADD11R,0.047200X0.047200*%
%ADD12R,0.060000X0.060000*%
%ADD13C,0.060000*%
%ADD14R,0.129900X0.173200*%
%ADD15R,0.153500X0.244100*%
%ADD16C,0.080000*%
%ADD17C,0.160000*%
%ADD18R,0.050000X0.115000*%
%ADD19R,0.135000X0.065000*%
%ADD20C,0.035000*%
%ADD21C,0.040000*%
%ADD22C,0.010000*%
G04 APERTURE END LIST*
G54D10*
G54D11*
X06851Y09555D03*
X07677Y09555D03*
X09213Y09555D03*
X10039Y09555D03*
G54D12*
X12500Y01500D03*
G54D13*
X13500Y01500D03*
G54D14*
X06083Y06374D03*
G54D15*
X03406Y02674D03*
X08760Y02674D03*
G54D16*
X06083Y01453D03*
G54D17*
X01162Y16020D03*
X16319Y16020D03*
X16280Y01274D03*
X01162Y01256D03*
G54D18*
X11988Y13279D03*
X11988Y11479D03*
G54D19*
X10538Y15429D03*
X13438Y15429D03*
G54D18*
X05689Y13279D03*
X05689Y11479D03*
G54D19*
X04239Y15429D03*
X07139Y15429D03*
G54D20*
X03250Y12250D03*
X03250Y13000D03*
X15500Y09500D03*
X15000Y10000D03*
X14250Y10500D03*
X03250Y11500D03*
G54D21*
X08760Y02674D02*
X09000Y02500D01*
X03406Y02674D02*
X03500Y02500D01*
X09000Y02500D02*
X08760Y02674D01*
X08760Y02674D02*
X09000Y02500D01*
X03500Y02500D02*
X03406Y02674D01*
X06800Y09593D02*
X06407Y09986D01*
X06407Y09986D02*
X06407Y10379D01*
X11988Y11479D02*
X12000Y11500D01*
X12000Y11500D02*
X11988Y11479D01*
X05500Y11500D02*
X05500Y07000D01*
X06407Y10379D02*
X05621Y11165D01*
X05621Y11165D02*
X05621Y11558D01*
X05500Y07000D02*
X06000Y06500D01*
X12000Y04000D02*
X13500Y02500D01*
X06000Y06500D02*
X06083Y06374D01*
X05689Y11479D02*
X05500Y11500D01*
X12000Y11500D02*
X12000Y04000D01*
X11988Y11479D02*
X12000Y11500D01*
X05621Y11558D02*
X05689Y11479D01*
X05500Y11500D02*
X12000Y11500D01*
X05689Y11479D02*
X05500Y11500D01*
X06851Y09555D02*
X06800Y09593D01*
X13500Y02500D02*
X13500Y01500D01*
X07677Y09555D02*
X07586Y09593D01*
X07586Y09593D02*
X09158Y09593D01*
X09158Y09593D02*
X09213Y09555D01*
G54D10*
G36*
X16950Y02343D02*
X16529Y02517D01*
X16034Y02518D01*
X15577Y02329D01*
X15226Y01980D01*
X15037Y01523D01*
X15036Y01028D01*
X15225Y00571D01*
X15245Y00550D01*
X14762Y00550D01*
X14762Y14975D01*
X14762Y15233D01*
X14762Y15883D01*
X14663Y16122D01*
X14481Y16304D01*
X14242Y16403D01*
X13984Y16403D01*
X12634Y16403D01*
X12395Y16304D01*
X12213Y16122D01*
X12114Y15883D01*
X12114Y15625D01*
X12114Y14975D01*
X12213Y14736D01*
X12395Y14554D01*
X12634Y14455D01*
X12892Y14455D01*
X14242Y14455D01*
X14481Y14554D01*
X14663Y14736D01*
X14762Y14975D01*
X14762Y00550D01*
X13688Y00550D01*
X14037Y00694D01*
X14305Y00961D01*
X14450Y01310D01*
X14450Y01688D01*
X14350Y01931D01*
X14350Y02500D01*
X14285Y02825D01*
X14101Y03101D01*
X12850Y04352D01*
X12850Y10686D01*
X12887Y10775D01*
X12887Y11033D01*
X12887Y12183D01*
X12788Y12422D01*
X12606Y12604D01*
X12487Y12654D01*
X12487Y12753D01*
X12488Y13167D01*
X12488Y13391D01*
X12487Y13805D01*
X12487Y13904D01*
X12449Y13995D01*
X12379Y14065D01*
X12287Y14103D01*
X12100Y14104D01*
X12038Y14042D01*
X12038Y13329D01*
X12426Y13329D01*
X12488Y13391D01*
X12488Y13167D01*
X12426Y13229D01*
X12088Y13229D01*
X12038Y13229D01*
X11938Y13229D01*
X11938Y13329D01*
X11938Y14042D01*
X11876Y14104D01*
X11862Y14104D01*
X11862Y14975D01*
X11862Y15233D01*
X11862Y15883D01*
X11763Y16122D01*
X11581Y16304D01*
X11342Y16403D01*
X11084Y16403D01*
X09734Y16403D01*
X09495Y16304D01*
X09313Y16122D01*
X09214Y15883D01*
X09214Y15625D01*
X09214Y14975D01*
X09313Y14736D01*
X09495Y14554D01*
X09734Y14455D01*
X09992Y14455D01*
X11342Y14455D01*
X11581Y14554D01*
X11763Y14736D01*
X11862Y14975D01*
X11862Y14104D01*
X11689Y14103D01*
X11597Y14065D01*
X11527Y13995D01*
X11489Y13904D01*
X11489Y13805D01*
X11488Y13391D01*
X11550Y13329D01*
X11938Y13329D01*
X11938Y13229D01*
X11888Y13229D01*
X11550Y13229D01*
X11488Y13167D01*
X11489Y12753D01*
X11489Y12654D01*
X11370Y12604D01*
X11188Y12422D01*
X11158Y12350D01*
X08463Y12350D01*
X08463Y14975D01*
X08463Y15233D01*
X08463Y15883D01*
X08364Y16122D01*
X08182Y16304D01*
X07943Y16403D01*
X07685Y16403D01*
X06335Y16403D01*
X06096Y16304D01*
X05914Y16122D01*
X05815Y15883D01*
X05815Y15625D01*
X05815Y14975D01*
X05914Y14736D01*
X06096Y14554D01*
X06335Y14455D01*
X06593Y14455D01*
X07943Y14455D01*
X08182Y14554D01*
X08364Y14736D01*
X08463Y14975D01*
X08463Y12350D01*
X06518Y12350D01*
X06489Y12422D01*
X06307Y12604D01*
X06188Y12654D01*
X06188Y12753D01*
X06189Y13167D01*
X06189Y13391D01*
X06188Y13805D01*
X06188Y13904D01*
X06150Y13995D01*
X06080Y14065D01*
X05988Y14103D01*
X05801Y14104D01*
X05739Y14042D01*
X05739Y13329D01*
X06127Y13329D01*
X06189Y13391D01*
X06189Y13167D01*
X06127Y13229D01*
X05789Y13229D01*
X05739Y13229D01*
X05639Y13229D01*
X05639Y13329D01*
X05639Y14042D01*
X05577Y14104D01*
X05563Y14104D01*
X05563Y14975D01*
X05563Y15233D01*
X05563Y15883D01*
X05464Y16122D01*
X05282Y16304D01*
X05043Y16403D01*
X04785Y16403D01*
X03435Y16403D01*
X03196Y16304D01*
X03014Y16122D01*
X02915Y15883D01*
X02915Y15625D01*
X02915Y14975D01*
X03014Y14736D01*
X03196Y14554D01*
X03435Y14455D01*
X03693Y14455D01*
X05043Y14455D01*
X05282Y14554D01*
X05464Y14736D01*
X05563Y14975D01*
X05563Y14104D01*
X05390Y14103D01*
X05298Y14065D01*
X05228Y13995D01*
X05190Y13904D01*
X05190Y13805D01*
X05189Y13391D01*
X05251Y13329D01*
X05639Y13329D01*
X05639Y13229D01*
X05589Y13229D01*
X05251Y13229D01*
X05189Y13167D01*
X05190Y12753D01*
X05190Y12654D01*
X05071Y12604D01*
X04889Y12422D01*
X04790Y12183D01*
X04790Y11951D01*
X04755Y11909D01*
X04740Y11864D01*
X04715Y11825D01*
X04691Y11710D01*
X04655Y11593D01*
X04659Y11546D01*
X04650Y11500D01*
X04650Y07000D01*
X04715Y06675D01*
X04785Y06570D01*
X04785Y05379D01*
X04884Y05140D01*
X05066Y04958D01*
X05305Y04859D01*
X05563Y04859D01*
X06861Y04859D01*
X07100Y04958D01*
X07282Y05140D01*
X07381Y05379D01*
X07381Y05637D01*
X07381Y07369D01*
X07282Y07608D01*
X07100Y07790D01*
X06861Y07889D01*
X06603Y07889D01*
X06350Y07889D01*
X06350Y08727D01*
X06486Y08670D01*
X06744Y08670D01*
X07216Y08670D01*
X07264Y08690D01*
X07312Y08670D01*
X07570Y08670D01*
X08042Y08670D01*
X08218Y08743D01*
X08671Y08743D01*
X08848Y08670D01*
X09106Y08670D01*
X09578Y08670D01*
X09817Y08769D01*
X09999Y08951D01*
X10047Y09069D01*
X10139Y09069D01*
X10139Y09081D01*
X10151Y09069D01*
X10324Y09070D01*
X10416Y09108D01*
X10486Y09178D01*
X10524Y09269D01*
X10524Y09368D01*
X10525Y09443D01*
X10463Y09505D01*
X10139Y09505D01*
X10098Y09505D01*
X10098Y09605D01*
X10139Y09605D01*
X10463Y09605D01*
X10525Y09667D01*
X10524Y09742D01*
X10524Y09841D01*
X10486Y09932D01*
X10416Y10002D01*
X10324Y10040D01*
X10151Y10041D01*
X10139Y10029D01*
X10139Y10041D01*
X10047Y10041D01*
X09999Y10159D01*
X09817Y10341D01*
X09578Y10440D01*
X09320Y10440D01*
X09173Y10440D01*
X09158Y10443D01*
X07589Y10443D01*
X07586Y10443D01*
X07571Y10440D01*
X07312Y10440D01*
X07264Y10421D01*
X07247Y10427D01*
X07247Y10428D01*
X07202Y10650D01*
X11140Y10650D01*
X11150Y10628D01*
X11150Y04000D01*
X11215Y03675D01*
X11399Y03399D01*
X12650Y02148D01*
X12650Y02050D01*
X12612Y02050D01*
X12550Y01988D01*
X12550Y01690D01*
X12550Y01600D01*
X12550Y01550D01*
X12550Y01450D01*
X12550Y01400D01*
X12550Y01312D01*
X12550Y01012D01*
X12612Y00950D01*
X12706Y00951D01*
X12961Y00695D01*
X13310Y00550D01*
X12450Y00550D01*
X12450Y01012D01*
X12450Y01450D01*
X12450Y01550D01*
X12450Y01988D01*
X12388Y02050D01*
X12151Y02049D01*
X12059Y02011D01*
X11989Y01941D01*
X11951Y01850D01*
X11951Y01751D01*
X11950Y01612D01*
X12012Y01550D01*
X12450Y01550D01*
X12450Y01450D01*
X12012Y01450D01*
X11950Y01388D01*
X11951Y01249D01*
X11951Y01150D01*
X11989Y01059D01*
X12059Y00989D01*
X12151Y00951D01*
X12388Y00950D01*
X12450Y01012D01*
X12450Y00550D01*
X09777Y00550D01*
X09777Y02562D01*
X09777Y02786D01*
X09776Y03845D01*
X09776Y03944D01*
X09738Y04035D01*
X09668Y04105D01*
X09576Y04143D01*
X08872Y04144D01*
X08810Y04082D01*
X08810Y02724D01*
X09715Y02724D01*
X09777Y02786D01*
X09777Y02562D01*
X09715Y02624D01*
X08810Y02624D01*
X08810Y01266D01*
X08872Y01204D01*
X09576Y01205D01*
X09668Y01243D01*
X09738Y01313D01*
X09776Y01404D01*
X09776Y01503D01*
X09777Y02562D01*
X09777Y00550D01*
X08710Y00550D01*
X08710Y01266D01*
X08710Y02624D01*
X08710Y02724D01*
X08710Y04082D01*
X08648Y04144D01*
X07944Y04143D01*
X07852Y04105D01*
X07782Y04035D01*
X07744Y03944D01*
X07744Y03845D01*
X07743Y02786D01*
X07805Y02724D01*
X08710Y02724D01*
X08710Y02624D01*
X07805Y02624D01*
X07743Y02562D01*
X07744Y01503D01*
X07744Y01404D01*
X07782Y01313D01*
X07852Y01243D01*
X07944Y01205D01*
X08648Y01204D01*
X08710Y01266D01*
X08710Y00550D01*
X06645Y00550D01*
X06677Y00563D01*
X06973Y00858D01*
X07133Y01243D01*
X07133Y01661D01*
X06973Y02047D01*
X06678Y02343D01*
X06293Y02503D01*
X05875Y02503D01*
X05489Y02343D01*
X05193Y02048D01*
X05033Y01663D01*
X05033Y01245D01*
X05193Y00859D01*
X05488Y00563D01*
X05519Y00550D01*
X04423Y00550D01*
X04423Y02562D01*
X04423Y02786D01*
X04422Y03845D01*
X04422Y03944D01*
X04384Y04035D01*
X04314Y04105D01*
X04222Y04143D01*
X03518Y04144D01*
X03456Y04082D01*
X03456Y02724D01*
X04361Y02724D01*
X04423Y02786D01*
X04423Y02562D01*
X04361Y02624D01*
X03456Y02624D01*
X03456Y01266D01*
X03518Y01204D01*
X04222Y01205D01*
X04314Y01243D01*
X04384Y01313D01*
X04422Y01404D01*
X04422Y01503D01*
X04423Y02562D01*
X04423Y00550D01*
X02216Y00550D01*
X02405Y01007D01*
X02405Y01367D01*
X02428Y01313D01*
X02498Y01243D01*
X02590Y01205D01*
X03294Y01204D01*
X03356Y01266D01*
X03356Y02624D01*
X03356Y02724D01*
X03356Y04082D01*
X03294Y04144D01*
X02590Y04143D01*
X02498Y04105D01*
X02428Y04035D01*
X02390Y03944D01*
X02390Y03845D01*
X02389Y02786D01*
X02451Y02724D01*
X03356Y02724D01*
X03356Y02624D01*
X02451Y02624D01*
X02389Y02562D01*
X02389Y01541D01*
X02217Y01959D01*
X01868Y02310D01*
X01411Y02499D01*
X00916Y02500D01*
X00550Y02349D01*
X00550Y14928D01*
X00913Y14777D01*
X01408Y14776D01*
X01865Y14965D01*
X02216Y15314D01*
X02405Y15771D01*
X02406Y16266D01*
X02217Y16723D01*
X01991Y16950D01*
X15490Y16950D01*
X15265Y16726D01*
X15076Y16269D01*
X15075Y15774D01*
X15264Y15317D01*
X15613Y14966D01*
X16070Y14777D01*
X16565Y14776D01*
X16950Y14936D01*
X16950Y02343D01*
X16950Y02343D01*
G37*
G54D22*
X16950Y02343D02*
X16529Y02517D01*
X16034Y02518D01*
X15577Y02329D01*
X15226Y01980D01*
X15037Y01523D01*
X15036Y01028D01*
X15225Y00571D01*
X15245Y00550D01*
X14762Y00550D01*
X14762Y14975D01*
X14762Y15233D01*
X14762Y15883D01*
X14663Y16122D01*
X14481Y16304D01*
X14242Y16403D01*
X13984Y16403D01*
X12634Y16403D01*
X12395Y16304D01*
X12213Y16122D01*
X12114Y15883D01*
X12114Y15625D01*
X12114Y14975D01*
X12213Y14736D01*
X12395Y14554D01*
X12634Y14455D01*
X12892Y14455D01*
X14242Y14455D01*
X14481Y14554D01*
X14663Y14736D01*
X14762Y14975D01*
X14762Y00550D01*
X13688Y00550D01*
X14037Y00694D01*
X14305Y00961D01*
X14450Y01310D01*
X14450Y01688D01*
X14350Y01931D01*
X14350Y02500D01*
X14285Y02825D01*
X14101Y03101D01*
X12850Y04352D01*
X12850Y10686D01*
X12887Y10775D01*
X12887Y11033D01*
X12887Y12183D01*
X12788Y12422D01*
X12606Y12604D01*
X12487Y12654D01*
X12487Y12753D01*
X12488Y13167D01*
X12488Y13391D01*
X12487Y13805D01*
X12487Y13904D01*
X12449Y13995D01*
X12379Y14065D01*
X12287Y14103D01*
X12100Y14104D01*
X12038Y14042D01*
X12038Y13329D01*
X12426Y13329D01*
X12488Y13391D01*
X12488Y13167D01*
X12426Y13229D01*
X12088Y13229D01*
X12038Y13229D01*
X11938Y13229D01*
X11938Y13329D01*
X11938Y14042D01*
X11876Y14104D01*
X11862Y14104D01*
X11862Y14975D01*
X11862Y15233D01*
X11862Y15883D01*
X11763Y16122D01*
X11581Y16304D01*
X11342Y16403D01*
X11084Y16403D01*
X09734Y16403D01*
X09495Y16304D01*
X09313Y16122D01*
X09214Y15883D01*
X09214Y15625D01*
X09214Y14975D01*
X09313Y14736D01*
X09495Y14554D01*
X09734Y14455D01*
X09992Y14455D01*
X11342Y14455D01*
X11581Y14554D01*
X11763Y14736D01*
X11862Y14975D01*
X11862Y14104D01*
X11689Y14103D01*
X11597Y14065D01*
X11527Y13995D01*
X11489Y13904D01*
X11489Y13805D01*
X11488Y13391D01*
X11550Y13329D01*
X11938Y13329D01*
X11938Y13229D01*
X11888Y13229D01*
X11550Y13229D01*
X11488Y13167D01*
X11489Y12753D01*
X11489Y12654D01*
X11370Y12604D01*
X11188Y12422D01*
X11158Y12350D01*
X08463Y12350D01*
X08463Y14975D01*
X08463Y15233D01*
X08463Y15883D01*
X08364Y16122D01*
X08182Y16304D01*
X07943Y16403D01*
X07685Y16403D01*
X06335Y16403D01*
X06096Y16304D01*
X05914Y16122D01*
X05815Y15883D01*
X05815Y15625D01*
X05815Y14975D01*
X05914Y14736D01*
X06096Y14554D01*
X06335Y14455D01*
X06593Y14455D01*
X07943Y14455D01*
X08182Y14554D01*
X08364Y14736D01*
X08463Y14975D01*
X08463Y12350D01*
X06518Y12350D01*
X06489Y12422D01*
X06307Y12604D01*
X06188Y12654D01*
X06188Y12753D01*
X06189Y13167D01*
X06189Y13391D01*
X06188Y13805D01*
X06188Y13904D01*
X06150Y13995D01*
X06080Y14065D01*
X05988Y14103D01*
X05801Y14104D01*
X05739Y14042D01*
X05739Y13329D01*
X06127Y13329D01*
X06189Y13391D01*
X06189Y13167D01*
X06127Y13229D01*
X05789Y13229D01*
X05739Y13229D01*
X05639Y13229D01*
X05639Y13329D01*
X05639Y14042D01*
X05577Y14104D01*
X05563Y14104D01*
X05563Y14975D01*
X05563Y15233D01*
X05563Y15883D01*
X05464Y16122D01*
X05282Y16304D01*
X05043Y16403D01*
X04785Y16403D01*
X03435Y16403D01*
X03196Y16304D01*
X03014Y16122D01*
X02915Y15883D01*
X02915Y15625D01*
X02915Y14975D01*
X03014Y14736D01*
X03196Y14554D01*
X03435Y14455D01*
X03693Y14455D01*
X05043Y14455D01*
X05282Y14554D01*
X05464Y14736D01*
X05563Y14975D01*
X05563Y14104D01*
X05390Y14103D01*
X05298Y14065D01*
X05228Y13995D01*
X05190Y13904D01*
X05190Y13805D01*
X05189Y13391D01*
X05251Y13329D01*
X05639Y13329D01*
X05639Y13229D01*
X05589Y13229D01*
X05251Y13229D01*
X05189Y13167D01*
X05190Y12753D01*
X05190Y12654D01*
X05071Y12604D01*
X04889Y12422D01*
X04790Y12183D01*
X04790Y11951D01*
X04755Y11909D01*
X04740Y11864D01*
X04715Y11825D01*
X04691Y11710D01*
X04655Y11593D01*
X04659Y11546D01*
X04650Y11500D01*
X04650Y07000D01*
X04715Y06675D01*
X04785Y06570D01*
X04785Y05379D01*
X04884Y05140D01*
X05066Y04958D01*
X05305Y04859D01*
X05563Y04859D01*
X06861Y04859D01*
X07100Y04958D01*
X07282Y05140D01*
X07381Y05379D01*
X07381Y05637D01*
X07381Y07369D01*
X07282Y07608D01*
X07100Y07790D01*
X06861Y07889D01*
X06603Y07889D01*
X06350Y07889D01*
X06350Y08727D01*
X06486Y08670D01*
X06744Y08670D01*
X07216Y08670D01*
X07264Y08690D01*
X07312Y08670D01*
X07570Y08670D01*
X08042Y08670D01*
X08218Y08743D01*
X08671Y08743D01*
X08848Y08670D01*
X09106Y08670D01*
X09578Y08670D01*
X09817Y08769D01*
X09999Y08951D01*
X10047Y09069D01*
X10139Y09069D01*
X10139Y09081D01*
X10151Y09069D01*
X10324Y09070D01*
X10416Y09108D01*
X10486Y09178D01*
X10524Y09269D01*
X10524Y09368D01*
X10525Y09443D01*
X10463Y09505D01*
X10139Y09505D01*
X10098Y09505D01*
X10098Y09605D01*
X10139Y09605D01*
X10463Y09605D01*
X10525Y09667D01*
X10524Y09742D01*
X10524Y09841D01*
X10486Y09932D01*
X10416Y10002D01*
X10324Y10040D01*
X10151Y10041D01*
X10139Y10029D01*
X10139Y10041D01*
X10047Y10041D01*
X09999Y10159D01*
X09817Y10341D01*
X09578Y10440D01*
X09320Y10440D01*
X09173Y10440D01*
X09158Y10443D01*
X07589Y10443D01*
X07586Y10443D01*
X07571Y10440D01*
X07312Y10440D01*
X07264Y10421D01*
X07247Y10427D01*
X07247Y10428D01*
X07202Y10650D01*
X11140Y10650D01*
X11150Y10628D01*
X11150Y04000D01*
X11215Y03675D01*
X11399Y03399D01*
X12650Y02148D01*
X12650Y02050D01*
X12612Y02050D01*
X12550Y01988D01*
X12550Y01690D01*
X12550Y01600D01*
X12550Y01550D01*
X12550Y01450D01*
X12550Y01400D01*
X12550Y01312D01*
X12550Y01012D01*
X12612Y00950D01*
X12706Y00951D01*
X12961Y00695D01*
X13310Y00550D01*
X12450Y00550D01*
X12450Y01012D01*
X12450Y01450D01*
X12450Y01550D01*
X12450Y01988D01*
X12388Y02050D01*
X12151Y02049D01*
X12059Y02011D01*
X11989Y01941D01*
X11951Y01850D01*
X11951Y01751D01*
X11950Y01612D01*
X12012Y01550D01*
X12450Y01550D01*
X12450Y01450D01*
X12012Y01450D01*
X11950Y01388D01*
X11951Y01249D01*
X11951Y01150D01*
X11989Y01059D01*
X12059Y00989D01*
X12151Y00951D01*
X12388Y00950D01*
X12450Y01012D01*
X12450Y00550D01*
X09777Y00550D01*
X09777Y02562D01*
X09777Y02786D01*
X09776Y03845D01*
X09776Y03944D01*
X09738Y04035D01*
X09668Y04105D01*
X09576Y04143D01*
X08872Y04144D01*
X08810Y04082D01*
X08810Y02724D01*
X09715Y02724D01*
X09777Y02786D01*
X09777Y02562D01*
X09715Y02624D01*
X08810Y02624D01*
X08810Y01266D01*
X08872Y01204D01*
X09576Y01205D01*
X09668Y01243D01*
X09738Y01313D01*
X09776Y01404D01*
X09776Y01503D01*
X09777Y02562D01*
X09777Y00550D01*
X08710Y00550D01*
X08710Y01266D01*
X08710Y02624D01*
X08710Y02724D01*
X08710Y04082D01*
X08648Y04144D01*
X07944Y04143D01*
X07852Y04105D01*
X07782Y04035D01*
X07744Y03944D01*
X07744Y03845D01*
X07743Y02786D01*
X07805Y02724D01*
X08710Y02724D01*
X08710Y02624D01*
X07805Y02624D01*
X07743Y02562D01*
X07744Y01503D01*
X07744Y01404D01*
X07782Y01313D01*
X07852Y01243D01*
X07944Y01205D01*
X08648Y01204D01*
X08710Y01266D01*
X08710Y00550D01*
X06645Y00550D01*
X06677Y00563D01*
X06973Y00858D01*
X07133Y01243D01*
X07133Y01661D01*
X06973Y02047D01*
X06678Y02343D01*
X06293Y02503D01*
X05875Y02503D01*
X05489Y02343D01*
X05193Y02048D01*
X05033Y01663D01*
X05033Y01245D01*
X05193Y00859D01*
X05488Y00563D01*
X05519Y00550D01*
X04423Y00550D01*
X04423Y02562D01*
X04423Y02786D01*
X04422Y03845D01*
X04422Y03944D01*
X04384Y04035D01*
X04314Y04105D01*
X04222Y04143D01*
X03518Y04144D01*
X03456Y04082D01*
X03456Y02724D01*
X04361Y02724D01*
X04423Y02786D01*
X04423Y02562D01*
X04361Y02624D01*
X03456Y02624D01*
X03456Y01266D01*
X03518Y01204D01*
X04222Y01205D01*
X04314Y01243D01*
X04384Y01313D01*
X04422Y01404D01*
X04422Y01503D01*
X04423Y02562D01*
X04423Y00550D01*
X02216Y00550D01*
X02405Y01007D01*
X02405Y01367D01*
X02428Y01313D01*
X02498Y01243D01*
X02590Y01205D01*
X03294Y01204D01*
X03356Y01266D01*
X03356Y02624D01*
X03356Y02724D01*
X03356Y04082D01*
X03294Y04144D01*
X02590Y04143D01*
X02498Y04105D01*
X02428Y04035D01*
X02390Y03944D01*
X02390Y03845D01*
X02389Y02786D01*
X02451Y02724D01*
X03356Y02724D01*
X03356Y02624D01*
X02451Y02624D01*
X02389Y02562D01*
X02389Y01541D01*
X02217Y01959D01*
X01868Y02310D01*
X01411Y02499D01*
X00916Y02500D01*
X00550Y02349D01*
X00550Y14928D01*
X00913Y14777D01*
X01408Y14776D01*
X01865Y14965D01*
X02216Y15314D01*
X02405Y15771D01*
X02406Y16266D01*
X02217Y16723D01*
X01991Y16950D01*
X15490Y16950D01*
X15265Y16726D01*
X15076Y16269D01*
X15075Y15774D01*
X15264Y15317D01*
X15613Y14966D01*
X16070Y14777D01*
X16565Y14776D01*
X16950Y14936D01*
X16950Y02343D01*
M02*
