G04 (created by PCBNEW-RS274X (2011-nov-30)-testing) date Wed 15 Aug 2012 04:22:11 PM EDT*
%MOIN*%
G04 Gerber Fmt 3.4, Leading zero omitted, Abs format*
%FSLAX34Y34*%
G01*
G70*
G90*
G04 APERTURE LIST*
%ADD10C,0.006*%
%ADD11R,0.0472X0.0472*%
%ADD12R,0.0709X0.0709*%
%ADD13C,0.0709*%
%ADD14R,0.1299X0.1732*%
%ADD15R,0.1535X0.2441*%
%ADD16C,0.08*%
%ADD17C,0.16*%
%ADD18R,0.05X0.115*%
%ADD19R,0.135X0.065*%
%ADD20C,0.035*%
%ADD21C,0.04*%
%ADD22C,0.01*%
G04 APERTURE END LIST*
G54D10*
G54D11*
X6851Y9555D03*
X7677Y9555D03*
X9213Y9555D03*
X10039Y9555D03*
G54D12*
X12500Y1500D03*
G54D13*
X13500Y1500D03*
G54D14*
X6083Y6374D03*
G54D15*
X3406Y2674D03*
X8760Y2674D03*
G54D16*
X6083Y1453D03*
G54D17*
X1162Y16020D03*
X16319Y16020D03*
X16280Y1274D03*
X1162Y1256D03*
G54D18*
X11988Y13279D03*
X11988Y11479D03*
G54D19*
X10538Y15429D03*
X13438Y15429D03*
G54D18*
X5689Y13279D03*
X5689Y11479D03*
G54D19*
X4239Y15429D03*
X7139Y15429D03*
G54D20*
X10000Y6000D03*
G54D21*
X10039Y9555D02*
X10039Y6039D01*
X10039Y6039D02*
X10000Y6000D01*
X8760Y2674D02*
X9000Y2500D01*
X3406Y2674D02*
X3500Y2500D01*
X9000Y2500D02*
X8760Y2674D01*
X8760Y2674D02*
X9000Y2500D01*
X3500Y2500D02*
X3406Y2674D01*
X6800Y9593D02*
X6407Y9986D01*
X6407Y9986D02*
X6407Y10379D01*
X11988Y11479D02*
X12000Y11500D01*
X12000Y11500D02*
X11988Y11479D01*
X5500Y11500D02*
X5500Y7000D01*
X6407Y10379D02*
X5621Y11165D01*
X5621Y11165D02*
X5621Y11558D01*
X5500Y7000D02*
X6000Y6500D01*
X12000Y4000D02*
X13500Y2500D01*
X6000Y6500D02*
X6083Y6374D01*
X5689Y11479D02*
X5500Y11500D01*
X12000Y11500D02*
X12000Y4000D01*
X11988Y11479D02*
X12000Y11500D01*
X5621Y11558D02*
X5689Y11479D01*
X5500Y11500D02*
X12000Y11500D01*
X5689Y11479D02*
X5500Y11500D01*
X6851Y9555D02*
X6800Y9593D01*
X13500Y2500D02*
X13500Y1500D01*
X7677Y9555D02*
X7586Y9593D01*
X7586Y9593D02*
X9158Y9593D01*
X9158Y9593D02*
X9213Y9555D01*
G54D10*
G36*
X16950Y2343D02*
X16529Y2517D01*
X16034Y2518D01*
X15577Y2329D01*
X15226Y1980D01*
X15037Y1523D01*
X15036Y1028D01*
X15225Y571D01*
X15245Y550D01*
X14762Y550D01*
X14762Y14975D01*
X14762Y15233D01*
X14762Y15883D01*
X14663Y16122D01*
X14481Y16304D01*
X14242Y16403D01*
X13984Y16403D01*
X12634Y16403D01*
X12395Y16304D01*
X12213Y16122D01*
X12114Y15883D01*
X12114Y15625D01*
X12114Y14975D01*
X12213Y14736D01*
X12395Y14554D01*
X12634Y14455D01*
X12892Y14455D01*
X14242Y14455D01*
X14481Y14554D01*
X14663Y14736D01*
X14762Y14975D01*
X14762Y550D01*
X13829Y550D01*
X14068Y649D01*
X14351Y931D01*
X14504Y1300D01*
X14504Y1699D01*
X14351Y2068D01*
X14350Y2070D01*
X14350Y2500D01*
X14285Y2825D01*
X14101Y3101D01*
X12850Y4352D01*
X12850Y10686D01*
X12887Y10775D01*
X12887Y11033D01*
X12887Y12183D01*
X12788Y12422D01*
X12606Y12604D01*
X12367Y12703D01*
X12109Y12703D01*
X11862Y12703D01*
X11862Y14975D01*
X11862Y15233D01*
X11862Y15883D01*
X11763Y16122D01*
X11581Y16304D01*
X11342Y16403D01*
X11084Y16403D01*
X9734Y16403D01*
X9495Y16304D01*
X9313Y16122D01*
X9214Y15883D01*
X9214Y15625D01*
X9214Y14975D01*
X9313Y14736D01*
X9495Y14554D01*
X9734Y14455D01*
X9992Y14455D01*
X11342Y14455D01*
X11581Y14554D01*
X11763Y14736D01*
X11862Y14975D01*
X11862Y12703D01*
X11609Y12703D01*
X11370Y12604D01*
X11188Y12422D01*
X11158Y12350D01*
X8463Y12350D01*
X8463Y14975D01*
X8463Y15233D01*
X8463Y15883D01*
X8364Y16122D01*
X8182Y16304D01*
X7943Y16403D01*
X7685Y16403D01*
X6335Y16403D01*
X6096Y16304D01*
X5914Y16122D01*
X5815Y15883D01*
X5815Y15625D01*
X5815Y14975D01*
X5914Y14736D01*
X6096Y14554D01*
X6335Y14455D01*
X6593Y14455D01*
X7943Y14455D01*
X8182Y14554D01*
X8364Y14736D01*
X8463Y14975D01*
X8463Y12350D01*
X6518Y12350D01*
X6489Y12422D01*
X6307Y12604D01*
X6068Y12703D01*
X5810Y12703D01*
X5563Y12703D01*
X5563Y14975D01*
X5563Y15233D01*
X5563Y15883D01*
X5464Y16122D01*
X5282Y16304D01*
X5043Y16403D01*
X4785Y16403D01*
X3435Y16403D01*
X3196Y16304D01*
X3014Y16122D01*
X2915Y15883D01*
X2915Y15625D01*
X2915Y14975D01*
X3014Y14736D01*
X3196Y14554D01*
X3435Y14455D01*
X3693Y14455D01*
X5043Y14455D01*
X5282Y14554D01*
X5464Y14736D01*
X5563Y14975D01*
X5563Y12703D01*
X5310Y12703D01*
X5071Y12604D01*
X4889Y12422D01*
X4790Y12183D01*
X4790Y11951D01*
X4755Y11909D01*
X4740Y11864D01*
X4715Y11825D01*
X4691Y11710D01*
X4655Y11593D01*
X4659Y11546D01*
X4650Y11500D01*
X4650Y7000D01*
X4715Y6675D01*
X4785Y6570D01*
X4785Y5379D01*
X4884Y5140D01*
X5066Y4958D01*
X5305Y4859D01*
X5563Y4859D01*
X6861Y4859D01*
X7100Y4958D01*
X7282Y5140D01*
X7381Y5379D01*
X7381Y5637D01*
X7381Y7369D01*
X7282Y7608D01*
X7100Y7790D01*
X6861Y7889D01*
X6603Y7889D01*
X6350Y7889D01*
X6350Y8727D01*
X6486Y8670D01*
X6744Y8670D01*
X7216Y8670D01*
X7264Y8690D01*
X7312Y8670D01*
X7570Y8670D01*
X8042Y8670D01*
X8218Y8743D01*
X8671Y8743D01*
X8848Y8670D01*
X9106Y8670D01*
X9578Y8670D01*
X9817Y8769D01*
X9999Y8951D01*
X10098Y9190D01*
X10098Y9448D01*
X10098Y9920D01*
X9999Y10159D01*
X9817Y10341D01*
X9578Y10440D01*
X9320Y10440D01*
X9173Y10440D01*
X9158Y10443D01*
X7589Y10443D01*
X7586Y10443D01*
X7571Y10440D01*
X7312Y10440D01*
X7264Y10421D01*
X7247Y10427D01*
X7247Y10428D01*
X7202Y10650D01*
X11140Y10650D01*
X11150Y10628D01*
X11150Y4000D01*
X11215Y3675D01*
X11399Y3399D01*
X12650Y2148D01*
X12650Y2070D01*
X12649Y2069D01*
X12496Y1700D01*
X12496Y1301D01*
X12649Y932D01*
X12931Y649D01*
X13169Y550D01*
X6645Y550D01*
X6677Y563D01*
X6973Y858D01*
X7133Y1243D01*
X7133Y1661D01*
X6973Y2047D01*
X6678Y2343D01*
X6293Y2503D01*
X5875Y2503D01*
X5489Y2343D01*
X5193Y2048D01*
X5033Y1663D01*
X5033Y1245D01*
X5193Y859D01*
X5488Y563D01*
X5519Y550D01*
X2216Y550D01*
X2405Y1007D01*
X2406Y1502D01*
X2217Y1959D01*
X1868Y2310D01*
X1411Y2499D01*
X916Y2500D01*
X550Y2349D01*
X550Y14928D01*
X913Y14777D01*
X1408Y14776D01*
X1865Y14965D01*
X2216Y15314D01*
X2405Y15771D01*
X2406Y16266D01*
X2217Y16723D01*
X1991Y16950D01*
X15490Y16950D01*
X15265Y16726D01*
X15076Y16269D01*
X15075Y15774D01*
X15264Y15317D01*
X15613Y14966D01*
X16070Y14777D01*
X16565Y14776D01*
X16950Y14936D01*
X16950Y2343D01*
X16950Y2343D01*
G37*
G54D22*
X16950Y2343D02*
X16529Y2517D01*
X16034Y2518D01*
X15577Y2329D01*
X15226Y1980D01*
X15037Y1523D01*
X15036Y1028D01*
X15225Y571D01*
X15245Y550D01*
X14762Y550D01*
X14762Y14975D01*
X14762Y15233D01*
X14762Y15883D01*
X14663Y16122D01*
X14481Y16304D01*
X14242Y16403D01*
X13984Y16403D01*
X12634Y16403D01*
X12395Y16304D01*
X12213Y16122D01*
X12114Y15883D01*
X12114Y15625D01*
X12114Y14975D01*
X12213Y14736D01*
X12395Y14554D01*
X12634Y14455D01*
X12892Y14455D01*
X14242Y14455D01*
X14481Y14554D01*
X14663Y14736D01*
X14762Y14975D01*
X14762Y550D01*
X13829Y550D01*
X14068Y649D01*
X14351Y931D01*
X14504Y1300D01*
X14504Y1699D01*
X14351Y2068D01*
X14350Y2070D01*
X14350Y2500D01*
X14285Y2825D01*
X14101Y3101D01*
X12850Y4352D01*
X12850Y10686D01*
X12887Y10775D01*
X12887Y11033D01*
X12887Y12183D01*
X12788Y12422D01*
X12606Y12604D01*
X12367Y12703D01*
X12109Y12703D01*
X11862Y12703D01*
X11862Y14975D01*
X11862Y15233D01*
X11862Y15883D01*
X11763Y16122D01*
X11581Y16304D01*
X11342Y16403D01*
X11084Y16403D01*
X9734Y16403D01*
X9495Y16304D01*
X9313Y16122D01*
X9214Y15883D01*
X9214Y15625D01*
X9214Y14975D01*
X9313Y14736D01*
X9495Y14554D01*
X9734Y14455D01*
X9992Y14455D01*
X11342Y14455D01*
X11581Y14554D01*
X11763Y14736D01*
X11862Y14975D01*
X11862Y12703D01*
X11609Y12703D01*
X11370Y12604D01*
X11188Y12422D01*
X11158Y12350D01*
X8463Y12350D01*
X8463Y14975D01*
X8463Y15233D01*
X8463Y15883D01*
X8364Y16122D01*
X8182Y16304D01*
X7943Y16403D01*
X7685Y16403D01*
X6335Y16403D01*
X6096Y16304D01*
X5914Y16122D01*
X5815Y15883D01*
X5815Y15625D01*
X5815Y14975D01*
X5914Y14736D01*
X6096Y14554D01*
X6335Y14455D01*
X6593Y14455D01*
X7943Y14455D01*
X8182Y14554D01*
X8364Y14736D01*
X8463Y14975D01*
X8463Y12350D01*
X6518Y12350D01*
X6489Y12422D01*
X6307Y12604D01*
X6068Y12703D01*
X5810Y12703D01*
X5563Y12703D01*
X5563Y14975D01*
X5563Y15233D01*
X5563Y15883D01*
X5464Y16122D01*
X5282Y16304D01*
X5043Y16403D01*
X4785Y16403D01*
X3435Y16403D01*
X3196Y16304D01*
X3014Y16122D01*
X2915Y15883D01*
X2915Y15625D01*
X2915Y14975D01*
X3014Y14736D01*
X3196Y14554D01*
X3435Y14455D01*
X3693Y14455D01*
X5043Y14455D01*
X5282Y14554D01*
X5464Y14736D01*
X5563Y14975D01*
X5563Y12703D01*
X5310Y12703D01*
X5071Y12604D01*
X4889Y12422D01*
X4790Y12183D01*
X4790Y11951D01*
X4755Y11909D01*
X4740Y11864D01*
X4715Y11825D01*
X4691Y11710D01*
X4655Y11593D01*
X4659Y11546D01*
X4650Y11500D01*
X4650Y7000D01*
X4715Y6675D01*
X4785Y6570D01*
X4785Y5379D01*
X4884Y5140D01*
X5066Y4958D01*
X5305Y4859D01*
X5563Y4859D01*
X6861Y4859D01*
X7100Y4958D01*
X7282Y5140D01*
X7381Y5379D01*
X7381Y5637D01*
X7381Y7369D01*
X7282Y7608D01*
X7100Y7790D01*
X6861Y7889D01*
X6603Y7889D01*
X6350Y7889D01*
X6350Y8727D01*
X6486Y8670D01*
X6744Y8670D01*
X7216Y8670D01*
X7264Y8690D01*
X7312Y8670D01*
X7570Y8670D01*
X8042Y8670D01*
X8218Y8743D01*
X8671Y8743D01*
X8848Y8670D01*
X9106Y8670D01*
X9578Y8670D01*
X9817Y8769D01*
X9999Y8951D01*
X10098Y9190D01*
X10098Y9448D01*
X10098Y9920D01*
X9999Y10159D01*
X9817Y10341D01*
X9578Y10440D01*
X9320Y10440D01*
X9173Y10440D01*
X9158Y10443D01*
X7589Y10443D01*
X7586Y10443D01*
X7571Y10440D01*
X7312Y10440D01*
X7264Y10421D01*
X7247Y10427D01*
X7247Y10428D01*
X7202Y10650D01*
X11140Y10650D01*
X11150Y10628D01*
X11150Y4000D01*
X11215Y3675D01*
X11399Y3399D01*
X12650Y2148D01*
X12650Y2070D01*
X12649Y2069D01*
X12496Y1700D01*
X12496Y1301D01*
X12649Y932D01*
X12931Y649D01*
X13169Y550D01*
X6645Y550D01*
X6677Y563D01*
X6973Y858D01*
X7133Y1243D01*
X7133Y1661D01*
X6973Y2047D01*
X6678Y2343D01*
X6293Y2503D01*
X5875Y2503D01*
X5489Y2343D01*
X5193Y2048D01*
X5033Y1663D01*
X5033Y1245D01*
X5193Y859D01*
X5488Y563D01*
X5519Y550D01*
X2216Y550D01*
X2405Y1007D01*
X2406Y1502D01*
X2217Y1959D01*
X1868Y2310D01*
X1411Y2499D01*
X916Y2500D01*
X550Y2349D01*
X550Y14928D01*
X913Y14777D01*
X1408Y14776D01*
X1865Y14965D01*
X2216Y15314D01*
X2405Y15771D01*
X2406Y16266D01*
X2217Y16723D01*
X1991Y16950D01*
X15490Y16950D01*
X15265Y16726D01*
X15076Y16269D01*
X15075Y15774D01*
X15264Y15317D01*
X15613Y14966D01*
X16070Y14777D01*
X16565Y14776D01*
X16950Y14936D01*
X16950Y2343D01*
M02*
