M48
;DRILL file {Pcbnew (2011-nov-30)-testing} date Mon 30 Jul 2012 05:35:51 PM EDT
;FORMAT={-:-/ absolute / inch / decimal}
FMAT,2
INCH,TZ
T1C0.025
T2C0.028
T3C0.040
T4C0.050
%
G90
G05
M72
T1
X0.295Y0.73
X0.3Y0.615
X0.46Y0.705
X0.498Y0.793
X0.525Y1.29
X0.536Y0.963
X0.62Y0.32
X0.626Y0.229
X0.655Y0.795
X0.705Y0.6
X0.7067Y1.0559
X0.7067Y0.9988
X0.769Y0.856
X0.7709Y1.1091
X0.81Y0.705
X0.819Y0.33
X0.835Y1.26
X0.86Y0.457
X0.885Y1.265
X0.9Y0.695
X0.925Y1.025
X0.94Y1.1762
X0.96Y0.965
X0.96Y0.14
X0.964Y1.125
X0.975Y0.733
X0.9839Y0.7854
X0.9881Y1.411
X0.9931Y1.1988
X1.02Y0.965
X1.041Y1.196
X1.07Y0.565
X1.091Y1.355
X1.11Y0.772
X1.152Y0.814
X1.155Y0.995
X1.1555Y1.1004
X1.186Y0.339
X1.21Y0.5
X1.224Y0.302
X1.27Y1.31
X1.27Y0.555
X1.27Y0.21
X1.275Y0.14
X1.3Y1.07
X1.305Y0.301
X1.317Y0.537
X1.32Y1.155
X1.345Y0.92
X1.37Y1.16
X1.37Y0.303
X1.3711Y1.064
X1.386Y0.8115
X1.439Y0.054
X1.455Y0.337
X1.52Y0.111
X1.525Y0.235
X1.57Y0.54
X1.602Y0.117
X1.645Y0.14
X1.647Y0.745
X1.68Y1.355
X1.68Y0.255
X1.868Y0.9945
X1.8745Y0.517
T3
X0.17Y1.41
X0.27Y1.41
X0.37Y1.41
X0.49Y1.41
X0.59Y1.41
X0.69Y1.41
X0.79Y1.41
X0.89Y1.41
X1.391Y1.418
X1.391Y1.318
X1.491Y1.418
X1.491Y1.318
X1.591Y1.418
X1.591Y1.318
T4
X0.39Y0.9
X0.39Y0.6
X0.59Y0.9
X0.59Y0.6
T2
X0.0633Y0.9114G85X0.0869Y0.9114
G05
X0.0633Y0.5886G85X0.0869Y0.5886
G05
X0.1854Y0.8445G85X0.201Y0.8445
G05
X0.1854Y0.6555G85X0.201Y0.6555
G05
T0
M30
