G04 (created by PCBNEW-RS274X (2011-nov-30)-testing) date Tue 31 Jul 2012 05:06:41 PM EDT*
%MOIN*%
G04 Gerber Fmt 3.4, Leading zero omitted, Abs format*
%FSLAX34Y34*%
G01*
G70*
G90*
G04 APERTURE LIST*
%ADD10C,0.006*%
%ADD11C,0.012*%
%ADD12C,0.06*%
%ADD13R,0.06X0.06*%
%ADD14R,0.0827X0.0472*%
%ADD15R,0.0591X0.0472*%
%ADD16C,0.035*%
%ADD17C,0.01*%
G04 APERTURE END LIST*
G54D10*
G54D11*
X18407Y13560D02*
X18864Y13331D01*
X18407Y13102D01*
X18178Y13826D02*
X17807Y13826D01*
X18007Y13521D01*
X17921Y13521D01*
X17864Y13483D01*
X17835Y13445D01*
X17807Y13369D01*
X17807Y13179D01*
X17835Y13102D01*
X17864Y13064D01*
X17921Y13026D01*
X18093Y13026D01*
X18150Y13064D01*
X18178Y13102D01*
G54D12*
X4430Y14070D03*
X3430Y14070D03*
X2430Y14070D03*
G54D13*
X14980Y12250D03*
G54D12*
X13980Y12250D03*
X14980Y13250D03*
X13980Y13250D03*
X14980Y14250D03*
X13980Y14250D03*
G54D14*
X751Y9114D03*
G54D15*
X1932Y8445D03*
G54D14*
X751Y5886D03*
G54D15*
X1932Y6555D03*
G54D16*
X17300Y9150D03*
X11950Y9450D03*
X11500Y11950D03*
X11550Y10950D03*
X7500Y5144D03*
X6080Y5040D03*
X16100Y8750D03*
X17500Y7800D03*
X13950Y1650D03*
X11650Y1650D03*
X15000Y2100D03*
X16716Y2130D03*
X17650Y5750D03*
X18800Y5750D03*
X18850Y3700D03*
X16300Y1400D03*
X9260Y11980D03*
X7668Y11910D03*
X7126Y11888D03*
X9918Y9074D03*
X15518Y3726D03*
X11950Y7620D03*
X15760Y6030D03*
X7580Y13350D03*
X7470Y5834D03*
X13450Y5050D03*
X10550Y7800D03*
X13450Y5550D03*
X11800Y7150D03*
X14938Y3298D03*
X9150Y5890D03*
X9596Y12888D03*
X9430Y8060D03*
X8700Y14550D03*
X7546Y10802D03*
X7750Y12600D03*
X18500Y7800D03*
X10800Y11050D03*
X17866Y7094D03*
X13512Y6792D03*
X11950Y14150D03*
X12600Y14150D03*
X15810Y13790D03*
X19120Y10840D03*
X13450Y6050D03*
X17030Y5450D03*
X18500Y2200D03*
X15500Y800D03*
X18000Y2250D03*
X16042Y1020D03*
X17700Y5250D03*
X15000Y850D03*
X5750Y9700D03*
X6230Y12270D03*
X12976Y9060D03*
X15196Y7440D03*
X8456Y10208D03*
X8050Y8318D03*
X13074Y13178D03*
X16756Y13634D03*
X4700Y8700D03*
X2800Y7300D03*
X2800Y6550D03*
X5050Y8300D03*
X11450Y3620D03*
X6130Y6300D03*
X4910Y6300D03*
X10010Y11460D03*
X19000Y9150D03*
X5900Y3150D03*
X6550Y4150D03*
X13000Y11850D03*
G54D17*
X17300Y9150D02*
X17000Y9450D01*
X17000Y9450D02*
X11950Y9450D01*
X13980Y13250D02*
X14000Y13250D01*
X14000Y13250D02*
X12950Y12200D01*
X12950Y12200D02*
X12850Y12200D01*
X12850Y12200D02*
X12800Y12150D01*
X12800Y12150D02*
X12750Y12150D01*
X12750Y12150D02*
X12550Y11950D01*
X12550Y11950D02*
X11500Y11950D01*
X11550Y10950D02*
X11750Y11150D01*
X11750Y11150D02*
X11800Y11150D01*
X11800Y11150D02*
X12150Y11500D01*
X12150Y11500D02*
X13150Y11500D01*
X13150Y11500D02*
X13200Y11550D01*
X13200Y11550D02*
X13250Y11550D01*
X13250Y11550D02*
X13500Y11800D01*
X13500Y11800D02*
X14200Y11800D01*
X14200Y11800D02*
X14250Y11850D01*
X14250Y11850D02*
X14300Y11850D01*
X14300Y11850D02*
X14700Y12250D01*
X14700Y12250D02*
X14980Y12250D01*
X7500Y5144D02*
X6080Y5040D01*
X16100Y8750D02*
X16150Y8700D01*
X16150Y8700D02*
X16800Y8700D01*
X16800Y8700D02*
X16850Y8650D01*
X16850Y8650D02*
X16900Y8650D01*
X16900Y8650D02*
X16950Y8600D01*
X16950Y8600D02*
X16950Y8550D01*
X16950Y8550D02*
X17000Y8500D01*
X17000Y8500D02*
X17000Y8300D01*
X17000Y8300D02*
X17500Y7800D01*
X13950Y1650D02*
X11650Y1650D01*
X16716Y2130D02*
X15000Y2100D01*
X17650Y5750D02*
X18800Y5750D01*
X18850Y3700D02*
X16550Y1400D01*
X16550Y1400D02*
X16300Y1400D01*
X8090Y14050D02*
X4430Y14070D01*
X9260Y11980D02*
X8090Y14050D01*
X4350Y13510D02*
X3430Y14070D01*
X6922Y12952D02*
X4350Y13510D01*
X6944Y12448D02*
X6922Y12952D01*
X7668Y11910D02*
X6944Y12448D01*
X2710Y13740D02*
X2430Y14070D01*
X4300Y13170D02*
X2710Y13740D01*
X6460Y12664D02*
X4300Y13170D01*
X7126Y11888D02*
X6460Y12664D01*
X10050Y7724D02*
X9918Y9074D01*
X12922Y4888D02*
X10050Y7724D01*
X15518Y3726D02*
X12922Y4888D01*
X13310Y6490D02*
X11950Y7620D01*
X15760Y6030D02*
X13310Y6490D01*
X7346Y10122D02*
X8252Y11048D01*
X7686Y13246D02*
X7580Y13350D01*
X8428Y12546D02*
X7686Y13246D01*
X8428Y11418D02*
X8428Y12546D01*
X8252Y11048D02*
X8428Y11418D01*
X7350Y10110D02*
X7346Y10122D01*
X7470Y5834D02*
X7350Y10110D01*
X13450Y5050D02*
X13250Y5250D01*
X13250Y5250D02*
X13200Y5250D01*
X13200Y5250D02*
X11600Y6850D01*
X11600Y6850D02*
X11550Y6850D01*
X11550Y6850D02*
X10600Y7800D01*
X10600Y7800D02*
X10550Y7800D01*
X13450Y5550D02*
X13250Y5750D01*
X13250Y5750D02*
X13200Y5750D01*
X13200Y5750D02*
X11800Y7150D01*
X9150Y5890D02*
X14938Y3298D01*
X9596Y12888D02*
X9600Y9550D01*
X9600Y9550D02*
X9430Y8060D01*
X14980Y14250D02*
X15000Y14250D01*
X13550Y14550D02*
X8700Y14550D01*
X13650Y14650D02*
X13550Y14550D01*
X13700Y14650D02*
X13650Y14650D01*
X13750Y14700D02*
X13700Y14650D01*
X14550Y14700D02*
X13750Y14700D01*
X15000Y14250D02*
X14550Y14700D01*
X7546Y10802D02*
X7550Y10950D01*
X7550Y10950D02*
X8050Y11450D01*
X8050Y11450D02*
X8050Y11500D01*
X8050Y11500D02*
X8100Y11550D01*
X8100Y11550D02*
X8100Y12250D01*
X8100Y12250D02*
X7750Y12600D01*
X18500Y7800D02*
X18500Y8500D01*
X18500Y8500D02*
X16300Y10700D01*
X16300Y10700D02*
X14250Y10700D01*
X14250Y10700D02*
X14200Y10650D01*
X14200Y10650D02*
X14150Y10650D01*
X14150Y10650D02*
X14100Y10600D01*
X14100Y10600D02*
X11400Y10600D01*
X11400Y10600D02*
X11350Y10650D01*
X11350Y10650D02*
X11300Y10650D01*
X11300Y10650D02*
X10900Y11050D01*
X10900Y11050D02*
X10800Y11050D01*
X17296Y6824D02*
X17866Y7094D01*
X13512Y6792D02*
X17296Y6824D01*
X11950Y14150D02*
X12600Y14150D01*
X15810Y13790D02*
X16750Y12200D01*
X16750Y12200D02*
X17850Y12200D01*
X17850Y12200D02*
X17900Y12150D01*
X17900Y12150D02*
X17950Y12150D01*
X17950Y12150D02*
X18000Y12100D01*
X18000Y12100D02*
X18050Y12100D01*
X18050Y12100D02*
X19120Y10840D01*
X13450Y6050D02*
X17030Y5450D01*
X18500Y2200D02*
X16744Y688D01*
X16744Y688D02*
X15844Y688D01*
X15844Y688D02*
X15504Y772D01*
X15504Y772D02*
X15484Y786D01*
X15484Y786D02*
X15550Y800D01*
X15550Y800D02*
X15500Y800D01*
X18000Y2250D02*
X16592Y1020D01*
X16592Y1020D02*
X16042Y1020D01*
X17700Y5250D02*
X17100Y4650D01*
X17100Y4650D02*
X17050Y4650D01*
X17050Y4650D02*
X17000Y4600D01*
X17000Y4600D02*
X16950Y4600D01*
X16950Y4600D02*
X14700Y2350D01*
X14700Y2350D02*
X14700Y2300D01*
X14700Y2300D02*
X14650Y2250D01*
X14650Y2250D02*
X14650Y1200D01*
X14650Y1200D02*
X15000Y850D01*
X5750Y9700D02*
X6230Y12270D01*
X15196Y7440D02*
X12976Y9060D01*
X4700Y8700D02*
X3300Y7300D01*
X3300Y7300D02*
X2800Y7300D01*
X2800Y6550D02*
X3300Y7050D01*
X3300Y7050D02*
X3350Y7050D01*
X3350Y7050D02*
X3400Y7100D01*
X3400Y7100D02*
X3450Y7100D01*
X3450Y7100D02*
X4650Y8300D01*
X4650Y8300D02*
X5050Y8300D01*
X11450Y3620D02*
X6550Y4150D01*
X4910Y6300D02*
X6130Y6300D01*
X13000Y11850D02*
X12750Y11730D01*
X11650Y11460D02*
X10010Y11460D01*
X11940Y11720D02*
X11650Y11460D01*
X12750Y11730D02*
X11940Y11720D01*
X13980Y12250D02*
X14000Y12250D01*
X14000Y12250D02*
X14500Y12750D01*
X14500Y12750D02*
X15450Y12750D01*
X15450Y12750D02*
X15450Y11900D01*
X15450Y11900D02*
X18200Y9150D01*
X18200Y9150D02*
X19000Y9150D01*
X6250Y3500D02*
X5900Y3150D01*
X6250Y3800D02*
X6250Y3500D01*
X6300Y3850D02*
X6250Y3800D01*
X6300Y3900D02*
X6300Y3850D01*
X6550Y4150D02*
X6300Y3900D01*
X13000Y11850D02*
X13400Y12250D01*
X13400Y12250D02*
X13980Y12250D01*
G54D10*
G36*
X19675Y325D02*
X3550Y325D01*
X3550Y3540D01*
X3550Y3958D01*
X3390Y4344D01*
X3095Y4640D01*
X2710Y4800D01*
X2292Y4800D01*
X1906Y4640D01*
X1610Y4345D01*
X1450Y3960D01*
X1450Y3542D01*
X1610Y3156D01*
X1905Y2860D01*
X2290Y2700D01*
X2708Y2700D01*
X3094Y2860D01*
X3390Y3155D01*
X3550Y3540D01*
X3550Y325D01*
X325Y325D01*
X325Y14675D01*
X8291Y14675D01*
X8275Y14635D01*
X8275Y14466D01*
X8339Y14310D01*
X8459Y14190D01*
X8615Y14125D01*
X8784Y14125D01*
X8940Y14189D01*
X9001Y14250D01*
X11531Y14250D01*
X11525Y14235D01*
X11525Y14066D01*
X11589Y13910D01*
X11709Y13790D01*
X11865Y13725D01*
X12034Y13725D01*
X12190Y13789D01*
X12251Y13850D01*
X12299Y13850D01*
X12359Y13790D01*
X12515Y13725D01*
X12684Y13725D01*
X12840Y13789D01*
X12960Y13909D01*
X13025Y14065D01*
X13025Y14234D01*
X13018Y14250D01*
X13550Y14250D01*
X13665Y14273D01*
X13762Y14338D01*
X13792Y14369D01*
X13815Y14373D01*
X13855Y14400D01*
X14426Y14400D01*
X14441Y14385D01*
X14431Y14359D01*
X14431Y14141D01*
X14515Y13939D01*
X14669Y13785D01*
X14753Y13750D01*
X14669Y13715D01*
X14515Y13561D01*
X14480Y13477D01*
X14445Y13561D01*
X14291Y13715D01*
X14089Y13799D01*
X13871Y13799D01*
X13669Y13715D01*
X13515Y13561D01*
X13431Y13359D01*
X13431Y13141D01*
X13441Y13116D01*
X12820Y12494D01*
X12819Y12494D01*
X12735Y12477D01*
X12671Y12435D01*
X12670Y12435D01*
X12670Y12434D01*
X12669Y12434D01*
X12635Y12427D01*
X12537Y12362D01*
X12425Y12250D01*
X11801Y12250D01*
X11741Y12310D01*
X11585Y12375D01*
X11416Y12375D01*
X11260Y12311D01*
X11140Y12191D01*
X11075Y12035D01*
X11075Y11866D01*
X11118Y11760D01*
X10311Y11760D01*
X10251Y11820D01*
X10095Y11885D01*
X9926Y11885D01*
X9897Y11874D01*
X9896Y12588D01*
X9956Y12647D01*
X10021Y12803D01*
X10021Y12972D01*
X9957Y13128D01*
X9837Y13248D01*
X9681Y13313D01*
X9512Y13313D01*
X9356Y13249D01*
X9236Y13129D01*
X9171Y12973D01*
X9171Y12804D01*
X9235Y12648D01*
X9296Y12587D01*
X9296Y12528D01*
X8351Y14198D01*
X8328Y14225D01*
X8303Y14262D01*
X8283Y14275D01*
X8274Y14286D01*
X8245Y14301D01*
X8206Y14327D01*
X8184Y14332D01*
X8170Y14339D01*
X8136Y14342D01*
X8092Y14351D01*
X4900Y14368D01*
X4895Y14381D01*
X4741Y14535D01*
X4539Y14619D01*
X4321Y14619D01*
X4119Y14535D01*
X3965Y14381D01*
X3930Y14297D01*
X3895Y14381D01*
X3741Y14535D01*
X3539Y14619D01*
X3321Y14619D01*
X3119Y14535D01*
X2965Y14381D01*
X2930Y14297D01*
X2895Y14381D01*
X2741Y14535D01*
X2539Y14619D01*
X2321Y14619D01*
X2119Y14535D01*
X1965Y14381D01*
X1881Y14179D01*
X1881Y13961D01*
X1965Y13759D01*
X2119Y13605D01*
X2321Y13521D01*
X2505Y13521D01*
X2508Y13518D01*
X2544Y13497D01*
X2573Y13474D01*
X2590Y13470D01*
X2609Y13458D01*
X4199Y12888D01*
X4214Y12886D01*
X4231Y12878D01*
X5863Y12495D01*
X5805Y12355D01*
X5805Y12186D01*
X5869Y12030D01*
X5878Y12021D01*
X5512Y10063D01*
X5510Y10061D01*
X5390Y9941D01*
X5325Y9785D01*
X5325Y9616D01*
X5389Y9460D01*
X5509Y9340D01*
X5665Y9275D01*
X5834Y9275D01*
X5990Y9339D01*
X6110Y9459D01*
X6175Y9615D01*
X6175Y9784D01*
X6111Y9940D01*
X6101Y9950D01*
X6468Y11909D01*
X6470Y11909D01*
X6590Y12029D01*
X6596Y12044D01*
X6701Y11922D01*
X6701Y11804D01*
X6765Y11648D01*
X6885Y11528D01*
X7041Y11463D01*
X7210Y11463D01*
X7366Y11527D01*
X7408Y11569D01*
X7427Y11550D01*
X7583Y11485D01*
X7661Y11485D01*
X7361Y11186D01*
X7306Y11163D01*
X7186Y11043D01*
X7121Y10887D01*
X7121Y10718D01*
X7185Y10562D01*
X7272Y10475D01*
X7132Y10332D01*
X7108Y10296D01*
X7078Y10256D01*
X7074Y10245D01*
X7068Y10234D01*
X7059Y10189D01*
X7047Y10144D01*
X7048Y10132D01*
X7046Y10119D01*
X7050Y10100D01*
X7161Y6127D01*
X7110Y6075D01*
X7045Y5919D01*
X7045Y5750D01*
X7109Y5594D01*
X7229Y5474D01*
X7175Y5421D01*
X6555Y5377D01*
X6555Y6215D01*
X6555Y6384D01*
X6491Y6540D01*
X6371Y6660D01*
X6215Y6725D01*
X6046Y6725D01*
X5890Y6661D01*
X5829Y6600D01*
X5475Y6600D01*
X5475Y8215D01*
X5475Y8384D01*
X5411Y8540D01*
X5291Y8660D01*
X5135Y8725D01*
X5125Y8725D01*
X5125Y8784D01*
X5061Y8940D01*
X4941Y9060D01*
X4785Y9125D01*
X4616Y9125D01*
X4460Y9061D01*
X4340Y8941D01*
X4275Y8785D01*
X4275Y8699D01*
X3550Y7974D01*
X3550Y11040D01*
X3550Y11458D01*
X3390Y11844D01*
X3095Y12140D01*
X2710Y12300D01*
X2292Y12300D01*
X1906Y12140D01*
X1610Y11845D01*
X1450Y11460D01*
X1450Y11042D01*
X1610Y10656D01*
X1905Y10360D01*
X2290Y10200D01*
X2708Y10200D01*
X3094Y10360D01*
X3390Y10655D01*
X3550Y11040D01*
X3550Y7974D01*
X3176Y7600D01*
X3101Y7600D01*
X3041Y7660D01*
X2885Y7725D01*
X2716Y7725D01*
X2560Y7661D01*
X2440Y7541D01*
X2375Y7385D01*
X2375Y7216D01*
X2439Y7060D01*
X2559Y6940D01*
X2594Y6926D01*
X2560Y6911D01*
X2440Y6791D01*
X2375Y6635D01*
X2375Y6466D01*
X2439Y6310D01*
X2559Y6190D01*
X2715Y6125D01*
X2884Y6125D01*
X3040Y6189D01*
X3160Y6309D01*
X3225Y6465D01*
X3225Y6551D01*
X3442Y6769D01*
X3465Y6773D01*
X3528Y6816D01*
X3565Y6823D01*
X3662Y6888D01*
X4761Y7988D01*
X4809Y7940D01*
X4965Y7875D01*
X5134Y7875D01*
X5290Y7939D01*
X5410Y8059D01*
X5475Y8215D01*
X5475Y6600D01*
X5211Y6600D01*
X5151Y6660D01*
X4995Y6725D01*
X4826Y6725D01*
X4670Y6661D01*
X4550Y6541D01*
X4485Y6385D01*
X4485Y6216D01*
X4549Y6060D01*
X4669Y5940D01*
X4825Y5875D01*
X4994Y5875D01*
X5150Y5939D01*
X5211Y6000D01*
X5829Y6000D01*
X5889Y5940D01*
X6045Y5875D01*
X6214Y5875D01*
X6370Y5939D01*
X6490Y6059D01*
X6555Y6215D01*
X6555Y5377D01*
X6359Y5362D01*
X6321Y5400D01*
X6165Y5465D01*
X5996Y5465D01*
X5840Y5401D01*
X5720Y5281D01*
X5655Y5125D01*
X5655Y4956D01*
X5719Y4800D01*
X5839Y4680D01*
X5995Y4615D01*
X6164Y4615D01*
X6320Y4679D01*
X6404Y4764D01*
X7220Y4823D01*
X7259Y4784D01*
X7415Y4719D01*
X7584Y4719D01*
X7740Y4783D01*
X7860Y4903D01*
X7925Y5059D01*
X7925Y5228D01*
X7861Y5384D01*
X7741Y5504D01*
X7830Y5593D01*
X7895Y5749D01*
X7895Y5918D01*
X7831Y6074D01*
X7760Y6145D01*
X7653Y10008D01*
X8453Y10825D01*
X8466Y10837D01*
X8492Y10879D01*
X8523Y10919D01*
X8530Y10936D01*
X8698Y11289D01*
X8699Y11295D01*
X8705Y11303D01*
X8717Y11367D01*
X8727Y11403D01*
X8726Y11409D01*
X8728Y11418D01*
X8728Y12313D01*
X8848Y12099D01*
X8835Y12065D01*
X8835Y11896D01*
X8899Y11740D01*
X9019Y11620D01*
X9175Y11555D01*
X9298Y11555D01*
X9301Y9583D01*
X9166Y8398D01*
X9070Y8301D01*
X9005Y8145D01*
X9005Y7976D01*
X9069Y7820D01*
X9189Y7700D01*
X9345Y7635D01*
X9514Y7635D01*
X9670Y7699D01*
X9744Y7774D01*
X9752Y7695D01*
X9764Y7656D01*
X9774Y7608D01*
X9782Y7596D01*
X9786Y7583D01*
X9809Y7555D01*
X9839Y7510D01*
X12697Y4693D01*
X12704Y4682D01*
X12800Y4614D01*
X14821Y3710D01*
X14789Y3697D01*
X9547Y6041D01*
X9511Y6130D01*
X9391Y6250D01*
X9235Y6315D01*
X9066Y6315D01*
X8910Y6251D01*
X8790Y6131D01*
X8725Y5975D01*
X8725Y5806D01*
X8789Y5650D01*
X8909Y5530D01*
X9065Y5465D01*
X9234Y5465D01*
X9302Y5494D01*
X14538Y3151D01*
X14577Y3058D01*
X14697Y2938D01*
X14814Y2889D01*
X14488Y2562D01*
X14423Y2465D01*
X14415Y2429D01*
X14373Y2365D01*
X14350Y2250D01*
X14350Y1795D01*
X14311Y1890D01*
X14191Y2010D01*
X14035Y2075D01*
X13866Y2075D01*
X13710Y2011D01*
X13649Y1950D01*
X11951Y1950D01*
X11891Y2010D01*
X11875Y2017D01*
X11875Y3535D01*
X11875Y3704D01*
X11811Y3860D01*
X11691Y3980D01*
X11535Y4045D01*
X11366Y4045D01*
X11210Y3981D01*
X11178Y3950D01*
X6886Y4415D01*
X6791Y4510D01*
X6635Y4575D01*
X6466Y4575D01*
X6310Y4511D01*
X6190Y4391D01*
X6125Y4235D01*
X6125Y4150D01*
X6088Y4112D01*
X6023Y4015D01*
X6015Y3979D01*
X5973Y3915D01*
X5950Y3800D01*
X5950Y3624D01*
X5901Y3575D01*
X5816Y3575D01*
X5660Y3511D01*
X5540Y3391D01*
X5475Y3235D01*
X5475Y3066D01*
X5539Y2910D01*
X5659Y2790D01*
X5815Y2725D01*
X5984Y2725D01*
X6140Y2789D01*
X6260Y2909D01*
X6325Y3065D01*
X6325Y3151D01*
X6461Y3287D01*
X6461Y3288D01*
X6462Y3288D01*
X6526Y3385D01*
X6527Y3385D01*
X6549Y3499D01*
X6550Y3500D01*
X6550Y3695D01*
X6570Y3725D01*
X6634Y3725D01*
X6790Y3789D01*
X6820Y3820D01*
X11116Y3353D01*
X11209Y3260D01*
X11365Y3195D01*
X11534Y3195D01*
X11690Y3259D01*
X11810Y3379D01*
X11875Y3535D01*
X11875Y2017D01*
X11735Y2075D01*
X11566Y2075D01*
X11410Y2011D01*
X11290Y1891D01*
X11225Y1735D01*
X11225Y1566D01*
X11289Y1410D01*
X11409Y1290D01*
X11565Y1225D01*
X11734Y1225D01*
X11890Y1289D01*
X11951Y1350D01*
X13649Y1350D01*
X13709Y1290D01*
X13865Y1225D01*
X14034Y1225D01*
X14190Y1289D01*
X14310Y1409D01*
X14350Y1505D01*
X14350Y1200D01*
X14373Y1085D01*
X14438Y988D01*
X14575Y851D01*
X14575Y766D01*
X14639Y610D01*
X14759Y490D01*
X14915Y425D01*
X15084Y425D01*
X15218Y481D01*
X15259Y440D01*
X15415Y375D01*
X15584Y375D01*
X15688Y418D01*
X15772Y397D01*
X15808Y396D01*
X15844Y388D01*
X16744Y388D01*
X16791Y398D01*
X16837Y403D01*
X16846Y409D01*
X16859Y411D01*
X16900Y439D01*
X16940Y461D01*
X16956Y476D01*
X18468Y1775D01*
X18584Y1775D01*
X18740Y1839D01*
X18860Y1959D01*
X18925Y2115D01*
X18925Y2284D01*
X18861Y2440D01*
X18741Y2560D01*
X18585Y2625D01*
X18416Y2625D01*
X18281Y2570D01*
X18241Y2610D01*
X18201Y2627D01*
X18849Y3275D01*
X18934Y3275D01*
X19090Y3339D01*
X19210Y3459D01*
X19275Y3615D01*
X19275Y3784D01*
X19211Y3940D01*
X19091Y4060D01*
X18935Y4125D01*
X18766Y4125D01*
X18610Y4061D01*
X18537Y3989D01*
X18390Y4344D01*
X18095Y4640D01*
X17710Y4800D01*
X17674Y4800D01*
X17699Y4825D01*
X17784Y4825D01*
X17940Y4889D01*
X18060Y5009D01*
X18125Y5165D01*
X18125Y5334D01*
X18077Y5450D01*
X18499Y5450D01*
X18559Y5390D01*
X18715Y5325D01*
X18884Y5325D01*
X19040Y5389D01*
X19160Y5509D01*
X19225Y5665D01*
X19225Y5834D01*
X19161Y5990D01*
X19041Y6110D01*
X18885Y6175D01*
X18716Y6175D01*
X18560Y6111D01*
X18499Y6050D01*
X17951Y6050D01*
X17891Y6110D01*
X17735Y6175D01*
X17566Y6175D01*
X17410Y6111D01*
X17290Y5991D01*
X17225Y5835D01*
X17225Y5830D01*
X17115Y5875D01*
X16946Y5875D01*
X16790Y5811D01*
X16776Y5798D01*
X16166Y5900D01*
X16185Y5945D01*
X16185Y6114D01*
X16121Y6270D01*
X16001Y6390D01*
X15845Y6455D01*
X15676Y6455D01*
X15520Y6391D01*
X15511Y6383D01*
X14866Y6504D01*
X17298Y6525D01*
X17300Y6526D01*
X17310Y6524D01*
X17386Y6544D01*
X17413Y6549D01*
X17415Y6551D01*
X17424Y6553D01*
X17721Y6694D01*
X17781Y6669D01*
X17950Y6669D01*
X18106Y6733D01*
X18226Y6853D01*
X18291Y7009D01*
X18291Y7178D01*
X18227Y7334D01*
X18107Y7454D01*
X17951Y7519D01*
X17820Y7519D01*
X17860Y7559D01*
X17925Y7715D01*
X17925Y7884D01*
X17861Y8040D01*
X17741Y8160D01*
X17585Y8225D01*
X17499Y8225D01*
X17300Y8424D01*
X17300Y8500D01*
X17299Y8501D01*
X17277Y8615D01*
X17234Y8679D01*
X17234Y8680D01*
X17233Y8681D01*
X17227Y8715D01*
X17220Y8725D01*
X17384Y8725D01*
X17540Y8789D01*
X17660Y8909D01*
X17662Y8914D01*
X18200Y8376D01*
X18200Y8101D01*
X18140Y8041D01*
X18075Y7885D01*
X18075Y7716D01*
X18139Y7560D01*
X18259Y7440D01*
X18415Y7375D01*
X18584Y7375D01*
X18740Y7439D01*
X18860Y7559D01*
X18925Y7715D01*
X18925Y7884D01*
X18861Y8040D01*
X18800Y8101D01*
X18800Y8500D01*
X18777Y8615D01*
X18712Y8712D01*
X18574Y8850D01*
X18699Y8850D01*
X18759Y8790D01*
X18915Y8725D01*
X19084Y8725D01*
X19240Y8789D01*
X19360Y8909D01*
X19425Y9065D01*
X19425Y9234D01*
X19361Y9390D01*
X19241Y9510D01*
X19085Y9575D01*
X18916Y9575D01*
X18760Y9511D01*
X18699Y9450D01*
X18324Y9450D01*
X17574Y10200D01*
X17708Y10200D01*
X18094Y10360D01*
X18390Y10655D01*
X18550Y11040D01*
X18550Y11047D01*
X18695Y10876D01*
X18695Y10756D01*
X18759Y10600D01*
X18879Y10480D01*
X19035Y10415D01*
X19204Y10415D01*
X19360Y10479D01*
X19480Y10599D01*
X19545Y10755D01*
X19545Y10924D01*
X19481Y11080D01*
X19361Y11200D01*
X19205Y11265D01*
X19151Y11265D01*
X18279Y12294D01*
X18268Y12303D01*
X18262Y12312D01*
X18225Y12337D01*
X18187Y12367D01*
X18174Y12371D01*
X18165Y12377D01*
X18130Y12384D01*
X18128Y12385D01*
X18065Y12427D01*
X18028Y12435D01*
X17965Y12477D01*
X17950Y12480D01*
X19317Y12480D01*
X19317Y14340D01*
X17383Y14340D01*
X17383Y12500D01*
X16921Y12500D01*
X16224Y13679D01*
X16235Y13705D01*
X16235Y13874D01*
X16171Y14030D01*
X16051Y14150D01*
X15895Y14215D01*
X15726Y14215D01*
X15570Y14151D01*
X15506Y14088D01*
X15529Y14141D01*
X15529Y14359D01*
X15445Y14561D01*
X15331Y14675D01*
X19675Y14675D01*
X19675Y325D01*
X19675Y325D01*
G37*
G54D17*
X19675Y325D02*
X3550Y325D01*
X3550Y3540D01*
X3550Y3958D01*
X3390Y4344D01*
X3095Y4640D01*
X2710Y4800D01*
X2292Y4800D01*
X1906Y4640D01*
X1610Y4345D01*
X1450Y3960D01*
X1450Y3542D01*
X1610Y3156D01*
X1905Y2860D01*
X2290Y2700D01*
X2708Y2700D01*
X3094Y2860D01*
X3390Y3155D01*
X3550Y3540D01*
X3550Y325D01*
X325Y325D01*
X325Y14675D01*
X8291Y14675D01*
X8275Y14635D01*
X8275Y14466D01*
X8339Y14310D01*
X8459Y14190D01*
X8615Y14125D01*
X8784Y14125D01*
X8940Y14189D01*
X9001Y14250D01*
X11531Y14250D01*
X11525Y14235D01*
X11525Y14066D01*
X11589Y13910D01*
X11709Y13790D01*
X11865Y13725D01*
X12034Y13725D01*
X12190Y13789D01*
X12251Y13850D01*
X12299Y13850D01*
X12359Y13790D01*
X12515Y13725D01*
X12684Y13725D01*
X12840Y13789D01*
X12960Y13909D01*
X13025Y14065D01*
X13025Y14234D01*
X13018Y14250D01*
X13550Y14250D01*
X13665Y14273D01*
X13762Y14338D01*
X13792Y14369D01*
X13815Y14373D01*
X13855Y14400D01*
X14426Y14400D01*
X14441Y14385D01*
X14431Y14359D01*
X14431Y14141D01*
X14515Y13939D01*
X14669Y13785D01*
X14753Y13750D01*
X14669Y13715D01*
X14515Y13561D01*
X14480Y13477D01*
X14445Y13561D01*
X14291Y13715D01*
X14089Y13799D01*
X13871Y13799D01*
X13669Y13715D01*
X13515Y13561D01*
X13431Y13359D01*
X13431Y13141D01*
X13441Y13116D01*
X12820Y12494D01*
X12819Y12494D01*
X12735Y12477D01*
X12671Y12435D01*
X12670Y12435D01*
X12670Y12434D01*
X12669Y12434D01*
X12635Y12427D01*
X12537Y12362D01*
X12425Y12250D01*
X11801Y12250D01*
X11741Y12310D01*
X11585Y12375D01*
X11416Y12375D01*
X11260Y12311D01*
X11140Y12191D01*
X11075Y12035D01*
X11075Y11866D01*
X11118Y11760D01*
X10311Y11760D01*
X10251Y11820D01*
X10095Y11885D01*
X9926Y11885D01*
X9897Y11874D01*
X9896Y12588D01*
X9956Y12647D01*
X10021Y12803D01*
X10021Y12972D01*
X9957Y13128D01*
X9837Y13248D01*
X9681Y13313D01*
X9512Y13313D01*
X9356Y13249D01*
X9236Y13129D01*
X9171Y12973D01*
X9171Y12804D01*
X9235Y12648D01*
X9296Y12587D01*
X9296Y12528D01*
X8351Y14198D01*
X8328Y14225D01*
X8303Y14262D01*
X8283Y14275D01*
X8274Y14286D01*
X8245Y14301D01*
X8206Y14327D01*
X8184Y14332D01*
X8170Y14339D01*
X8136Y14342D01*
X8092Y14351D01*
X4900Y14368D01*
X4895Y14381D01*
X4741Y14535D01*
X4539Y14619D01*
X4321Y14619D01*
X4119Y14535D01*
X3965Y14381D01*
X3930Y14297D01*
X3895Y14381D01*
X3741Y14535D01*
X3539Y14619D01*
X3321Y14619D01*
X3119Y14535D01*
X2965Y14381D01*
X2930Y14297D01*
X2895Y14381D01*
X2741Y14535D01*
X2539Y14619D01*
X2321Y14619D01*
X2119Y14535D01*
X1965Y14381D01*
X1881Y14179D01*
X1881Y13961D01*
X1965Y13759D01*
X2119Y13605D01*
X2321Y13521D01*
X2505Y13521D01*
X2508Y13518D01*
X2544Y13497D01*
X2573Y13474D01*
X2590Y13470D01*
X2609Y13458D01*
X4199Y12888D01*
X4214Y12886D01*
X4231Y12878D01*
X5863Y12495D01*
X5805Y12355D01*
X5805Y12186D01*
X5869Y12030D01*
X5878Y12021D01*
X5512Y10063D01*
X5510Y10061D01*
X5390Y9941D01*
X5325Y9785D01*
X5325Y9616D01*
X5389Y9460D01*
X5509Y9340D01*
X5665Y9275D01*
X5834Y9275D01*
X5990Y9339D01*
X6110Y9459D01*
X6175Y9615D01*
X6175Y9784D01*
X6111Y9940D01*
X6101Y9950D01*
X6468Y11909D01*
X6470Y11909D01*
X6590Y12029D01*
X6596Y12044D01*
X6701Y11922D01*
X6701Y11804D01*
X6765Y11648D01*
X6885Y11528D01*
X7041Y11463D01*
X7210Y11463D01*
X7366Y11527D01*
X7408Y11569D01*
X7427Y11550D01*
X7583Y11485D01*
X7661Y11485D01*
X7361Y11186D01*
X7306Y11163D01*
X7186Y11043D01*
X7121Y10887D01*
X7121Y10718D01*
X7185Y10562D01*
X7272Y10475D01*
X7132Y10332D01*
X7108Y10296D01*
X7078Y10256D01*
X7074Y10245D01*
X7068Y10234D01*
X7059Y10189D01*
X7047Y10144D01*
X7048Y10132D01*
X7046Y10119D01*
X7050Y10100D01*
X7161Y6127D01*
X7110Y6075D01*
X7045Y5919D01*
X7045Y5750D01*
X7109Y5594D01*
X7229Y5474D01*
X7175Y5421D01*
X6555Y5377D01*
X6555Y6215D01*
X6555Y6384D01*
X6491Y6540D01*
X6371Y6660D01*
X6215Y6725D01*
X6046Y6725D01*
X5890Y6661D01*
X5829Y6600D01*
X5475Y6600D01*
X5475Y8215D01*
X5475Y8384D01*
X5411Y8540D01*
X5291Y8660D01*
X5135Y8725D01*
X5125Y8725D01*
X5125Y8784D01*
X5061Y8940D01*
X4941Y9060D01*
X4785Y9125D01*
X4616Y9125D01*
X4460Y9061D01*
X4340Y8941D01*
X4275Y8785D01*
X4275Y8699D01*
X3550Y7974D01*
X3550Y11040D01*
X3550Y11458D01*
X3390Y11844D01*
X3095Y12140D01*
X2710Y12300D01*
X2292Y12300D01*
X1906Y12140D01*
X1610Y11845D01*
X1450Y11460D01*
X1450Y11042D01*
X1610Y10656D01*
X1905Y10360D01*
X2290Y10200D01*
X2708Y10200D01*
X3094Y10360D01*
X3390Y10655D01*
X3550Y11040D01*
X3550Y7974D01*
X3176Y7600D01*
X3101Y7600D01*
X3041Y7660D01*
X2885Y7725D01*
X2716Y7725D01*
X2560Y7661D01*
X2440Y7541D01*
X2375Y7385D01*
X2375Y7216D01*
X2439Y7060D01*
X2559Y6940D01*
X2594Y6926D01*
X2560Y6911D01*
X2440Y6791D01*
X2375Y6635D01*
X2375Y6466D01*
X2439Y6310D01*
X2559Y6190D01*
X2715Y6125D01*
X2884Y6125D01*
X3040Y6189D01*
X3160Y6309D01*
X3225Y6465D01*
X3225Y6551D01*
X3442Y6769D01*
X3465Y6773D01*
X3528Y6816D01*
X3565Y6823D01*
X3662Y6888D01*
X4761Y7988D01*
X4809Y7940D01*
X4965Y7875D01*
X5134Y7875D01*
X5290Y7939D01*
X5410Y8059D01*
X5475Y8215D01*
X5475Y6600D01*
X5211Y6600D01*
X5151Y6660D01*
X4995Y6725D01*
X4826Y6725D01*
X4670Y6661D01*
X4550Y6541D01*
X4485Y6385D01*
X4485Y6216D01*
X4549Y6060D01*
X4669Y5940D01*
X4825Y5875D01*
X4994Y5875D01*
X5150Y5939D01*
X5211Y6000D01*
X5829Y6000D01*
X5889Y5940D01*
X6045Y5875D01*
X6214Y5875D01*
X6370Y5939D01*
X6490Y6059D01*
X6555Y6215D01*
X6555Y5377D01*
X6359Y5362D01*
X6321Y5400D01*
X6165Y5465D01*
X5996Y5465D01*
X5840Y5401D01*
X5720Y5281D01*
X5655Y5125D01*
X5655Y4956D01*
X5719Y4800D01*
X5839Y4680D01*
X5995Y4615D01*
X6164Y4615D01*
X6320Y4679D01*
X6404Y4764D01*
X7220Y4823D01*
X7259Y4784D01*
X7415Y4719D01*
X7584Y4719D01*
X7740Y4783D01*
X7860Y4903D01*
X7925Y5059D01*
X7925Y5228D01*
X7861Y5384D01*
X7741Y5504D01*
X7830Y5593D01*
X7895Y5749D01*
X7895Y5918D01*
X7831Y6074D01*
X7760Y6145D01*
X7653Y10008D01*
X8453Y10825D01*
X8466Y10837D01*
X8492Y10879D01*
X8523Y10919D01*
X8530Y10936D01*
X8698Y11289D01*
X8699Y11295D01*
X8705Y11303D01*
X8717Y11367D01*
X8727Y11403D01*
X8726Y11409D01*
X8728Y11418D01*
X8728Y12313D01*
X8848Y12099D01*
X8835Y12065D01*
X8835Y11896D01*
X8899Y11740D01*
X9019Y11620D01*
X9175Y11555D01*
X9298Y11555D01*
X9301Y9583D01*
X9166Y8398D01*
X9070Y8301D01*
X9005Y8145D01*
X9005Y7976D01*
X9069Y7820D01*
X9189Y7700D01*
X9345Y7635D01*
X9514Y7635D01*
X9670Y7699D01*
X9744Y7774D01*
X9752Y7695D01*
X9764Y7656D01*
X9774Y7608D01*
X9782Y7596D01*
X9786Y7583D01*
X9809Y7555D01*
X9839Y7510D01*
X12697Y4693D01*
X12704Y4682D01*
X12800Y4614D01*
X14821Y3710D01*
X14789Y3697D01*
X9547Y6041D01*
X9511Y6130D01*
X9391Y6250D01*
X9235Y6315D01*
X9066Y6315D01*
X8910Y6251D01*
X8790Y6131D01*
X8725Y5975D01*
X8725Y5806D01*
X8789Y5650D01*
X8909Y5530D01*
X9065Y5465D01*
X9234Y5465D01*
X9302Y5494D01*
X14538Y3151D01*
X14577Y3058D01*
X14697Y2938D01*
X14814Y2889D01*
X14488Y2562D01*
X14423Y2465D01*
X14415Y2429D01*
X14373Y2365D01*
X14350Y2250D01*
X14350Y1795D01*
X14311Y1890D01*
X14191Y2010D01*
X14035Y2075D01*
X13866Y2075D01*
X13710Y2011D01*
X13649Y1950D01*
X11951Y1950D01*
X11891Y2010D01*
X11875Y2017D01*
X11875Y3535D01*
X11875Y3704D01*
X11811Y3860D01*
X11691Y3980D01*
X11535Y4045D01*
X11366Y4045D01*
X11210Y3981D01*
X11178Y3950D01*
X6886Y4415D01*
X6791Y4510D01*
X6635Y4575D01*
X6466Y4575D01*
X6310Y4511D01*
X6190Y4391D01*
X6125Y4235D01*
X6125Y4150D01*
X6088Y4112D01*
X6023Y4015D01*
X6015Y3979D01*
X5973Y3915D01*
X5950Y3800D01*
X5950Y3624D01*
X5901Y3575D01*
X5816Y3575D01*
X5660Y3511D01*
X5540Y3391D01*
X5475Y3235D01*
X5475Y3066D01*
X5539Y2910D01*
X5659Y2790D01*
X5815Y2725D01*
X5984Y2725D01*
X6140Y2789D01*
X6260Y2909D01*
X6325Y3065D01*
X6325Y3151D01*
X6461Y3287D01*
X6461Y3288D01*
X6462Y3288D01*
X6526Y3385D01*
X6527Y3385D01*
X6549Y3499D01*
X6550Y3500D01*
X6550Y3695D01*
X6570Y3725D01*
X6634Y3725D01*
X6790Y3789D01*
X6820Y3820D01*
X11116Y3353D01*
X11209Y3260D01*
X11365Y3195D01*
X11534Y3195D01*
X11690Y3259D01*
X11810Y3379D01*
X11875Y3535D01*
X11875Y2017D01*
X11735Y2075D01*
X11566Y2075D01*
X11410Y2011D01*
X11290Y1891D01*
X11225Y1735D01*
X11225Y1566D01*
X11289Y1410D01*
X11409Y1290D01*
X11565Y1225D01*
X11734Y1225D01*
X11890Y1289D01*
X11951Y1350D01*
X13649Y1350D01*
X13709Y1290D01*
X13865Y1225D01*
X14034Y1225D01*
X14190Y1289D01*
X14310Y1409D01*
X14350Y1505D01*
X14350Y1200D01*
X14373Y1085D01*
X14438Y988D01*
X14575Y851D01*
X14575Y766D01*
X14639Y610D01*
X14759Y490D01*
X14915Y425D01*
X15084Y425D01*
X15218Y481D01*
X15259Y440D01*
X15415Y375D01*
X15584Y375D01*
X15688Y418D01*
X15772Y397D01*
X15808Y396D01*
X15844Y388D01*
X16744Y388D01*
X16791Y398D01*
X16837Y403D01*
X16846Y409D01*
X16859Y411D01*
X16900Y439D01*
X16940Y461D01*
X16956Y476D01*
X18468Y1775D01*
X18584Y1775D01*
X18740Y1839D01*
X18860Y1959D01*
X18925Y2115D01*
X18925Y2284D01*
X18861Y2440D01*
X18741Y2560D01*
X18585Y2625D01*
X18416Y2625D01*
X18281Y2570D01*
X18241Y2610D01*
X18201Y2627D01*
X18849Y3275D01*
X18934Y3275D01*
X19090Y3339D01*
X19210Y3459D01*
X19275Y3615D01*
X19275Y3784D01*
X19211Y3940D01*
X19091Y4060D01*
X18935Y4125D01*
X18766Y4125D01*
X18610Y4061D01*
X18537Y3989D01*
X18390Y4344D01*
X18095Y4640D01*
X17710Y4800D01*
X17674Y4800D01*
X17699Y4825D01*
X17784Y4825D01*
X17940Y4889D01*
X18060Y5009D01*
X18125Y5165D01*
X18125Y5334D01*
X18077Y5450D01*
X18499Y5450D01*
X18559Y5390D01*
X18715Y5325D01*
X18884Y5325D01*
X19040Y5389D01*
X19160Y5509D01*
X19225Y5665D01*
X19225Y5834D01*
X19161Y5990D01*
X19041Y6110D01*
X18885Y6175D01*
X18716Y6175D01*
X18560Y6111D01*
X18499Y6050D01*
X17951Y6050D01*
X17891Y6110D01*
X17735Y6175D01*
X17566Y6175D01*
X17410Y6111D01*
X17290Y5991D01*
X17225Y5835D01*
X17225Y5830D01*
X17115Y5875D01*
X16946Y5875D01*
X16790Y5811D01*
X16776Y5798D01*
X16166Y5900D01*
X16185Y5945D01*
X16185Y6114D01*
X16121Y6270D01*
X16001Y6390D01*
X15845Y6455D01*
X15676Y6455D01*
X15520Y6391D01*
X15511Y6383D01*
X14866Y6504D01*
X17298Y6525D01*
X17300Y6526D01*
X17310Y6524D01*
X17386Y6544D01*
X17413Y6549D01*
X17415Y6551D01*
X17424Y6553D01*
X17721Y6694D01*
X17781Y6669D01*
X17950Y6669D01*
X18106Y6733D01*
X18226Y6853D01*
X18291Y7009D01*
X18291Y7178D01*
X18227Y7334D01*
X18107Y7454D01*
X17951Y7519D01*
X17820Y7519D01*
X17860Y7559D01*
X17925Y7715D01*
X17925Y7884D01*
X17861Y8040D01*
X17741Y8160D01*
X17585Y8225D01*
X17499Y8225D01*
X17300Y8424D01*
X17300Y8500D01*
X17299Y8501D01*
X17277Y8615D01*
X17234Y8679D01*
X17234Y8680D01*
X17233Y8681D01*
X17227Y8715D01*
X17220Y8725D01*
X17384Y8725D01*
X17540Y8789D01*
X17660Y8909D01*
X17662Y8914D01*
X18200Y8376D01*
X18200Y8101D01*
X18140Y8041D01*
X18075Y7885D01*
X18075Y7716D01*
X18139Y7560D01*
X18259Y7440D01*
X18415Y7375D01*
X18584Y7375D01*
X18740Y7439D01*
X18860Y7559D01*
X18925Y7715D01*
X18925Y7884D01*
X18861Y8040D01*
X18800Y8101D01*
X18800Y8500D01*
X18777Y8615D01*
X18712Y8712D01*
X18574Y8850D01*
X18699Y8850D01*
X18759Y8790D01*
X18915Y8725D01*
X19084Y8725D01*
X19240Y8789D01*
X19360Y8909D01*
X19425Y9065D01*
X19425Y9234D01*
X19361Y9390D01*
X19241Y9510D01*
X19085Y9575D01*
X18916Y9575D01*
X18760Y9511D01*
X18699Y9450D01*
X18324Y9450D01*
X17574Y10200D01*
X17708Y10200D01*
X18094Y10360D01*
X18390Y10655D01*
X18550Y11040D01*
X18550Y11047D01*
X18695Y10876D01*
X18695Y10756D01*
X18759Y10600D01*
X18879Y10480D01*
X19035Y10415D01*
X19204Y10415D01*
X19360Y10479D01*
X19480Y10599D01*
X19545Y10755D01*
X19545Y10924D01*
X19481Y11080D01*
X19361Y11200D01*
X19205Y11265D01*
X19151Y11265D01*
X18279Y12294D01*
X18268Y12303D01*
X18262Y12312D01*
X18225Y12337D01*
X18187Y12367D01*
X18174Y12371D01*
X18165Y12377D01*
X18130Y12384D01*
X18128Y12385D01*
X18065Y12427D01*
X18028Y12435D01*
X17965Y12477D01*
X17950Y12480D01*
X19317Y12480D01*
X19317Y14340D01*
X17383Y14340D01*
X17383Y12500D01*
X16921Y12500D01*
X16224Y13679D01*
X16235Y13705D01*
X16235Y13874D01*
X16171Y14030D01*
X16051Y14150D01*
X15895Y14215D01*
X15726Y14215D01*
X15570Y14151D01*
X15506Y14088D01*
X15529Y14141D01*
X15529Y14359D01*
X15445Y14561D01*
X15331Y14675D01*
X19675Y14675D01*
X19675Y325D01*
M02*
