G04 (created by PCBNEW-RS274X (2011-nov-30)-testing) date Tue 31 Jul 2012 05:06:42 PM EDT*
%MOIN*%
G04 Gerber Fmt 3.4, Leading zero omitted, Abs format*
%FSLAX34Y34*%
G01*
G70*
G90*
G04 APERTURE LIST*
%ADD10C,0.006*%
%ADD11C,0.012*%
%ADD12C,0.0075*%
%ADD13C,0.01*%
%ADD14C,0.015*%
%ADD15C,0.0079*%
%ADD16C,0.0026*%
%ADD17C,0.004*%
%ADD18C,0.002*%
%ADD19C,0.008*%
%ADD20C,0.0039*%
%ADD21C,0.005*%
%ADD22C,0.0078*%
%ADD23C,0.0099*%
%ADD24C,0.007*%
%ADD25C,0.0062*%
G04 APERTURE END LIST*
G54D10*
G54D11*
X19643Y415D02*
X19043Y415D01*
X19043Y643D01*
X19071Y701D01*
X19100Y729D01*
X19157Y758D01*
X19243Y758D01*
X19300Y729D01*
X19329Y701D01*
X19357Y643D01*
X19357Y415D01*
X19643Y1101D02*
X19614Y1043D01*
X19586Y1015D01*
X19529Y986D01*
X19357Y986D01*
X19300Y1015D01*
X19271Y1043D01*
X19243Y1101D01*
X19243Y1186D01*
X19271Y1243D01*
X19300Y1272D01*
X19357Y1301D01*
X19529Y1301D01*
X19586Y1272D01*
X19614Y1243D01*
X19643Y1186D01*
X19643Y1101D01*
X19643Y1644D02*
X19614Y1586D01*
X19557Y1558D01*
X19043Y1558D01*
X19643Y2129D02*
X19329Y2129D01*
X19271Y2100D01*
X19243Y2043D01*
X19243Y1929D01*
X19271Y1872D01*
X19614Y2129D02*
X19643Y2072D01*
X19643Y1929D01*
X19614Y1872D01*
X19557Y1843D01*
X19500Y1843D01*
X19443Y1872D01*
X19414Y1929D01*
X19414Y2072D01*
X19386Y2129D01*
X19643Y2415D02*
X19243Y2415D01*
X19357Y2415D02*
X19300Y2443D01*
X19271Y2472D01*
X19243Y2529D01*
X19243Y2586D01*
X19643Y3271D02*
X19643Y3386D01*
X19614Y3443D01*
X19586Y3471D01*
X19500Y3529D01*
X19386Y3557D01*
X19157Y3557D01*
X19100Y3529D01*
X19071Y3500D01*
X19043Y3443D01*
X19043Y3329D01*
X19071Y3271D01*
X19100Y3243D01*
X19157Y3214D01*
X19300Y3214D01*
X19357Y3243D01*
X19386Y3271D01*
X19414Y3329D01*
X19414Y3443D01*
X19386Y3500D01*
X19357Y3529D01*
X19300Y3557D01*
X19643Y4271D02*
X19043Y4271D01*
X19643Y4557D02*
X19043Y4557D01*
X19471Y4757D01*
X19043Y4957D01*
X19643Y4957D01*
X19043Y5243D02*
X19529Y5243D01*
X19586Y5271D01*
X19614Y5300D01*
X19643Y5357D01*
X19643Y5471D01*
X19614Y5529D01*
X19586Y5557D01*
X19529Y5586D01*
X19043Y5586D01*
G54D12*
X2550Y1786D02*
X2536Y1758D01*
X2507Y1729D01*
X2464Y1686D01*
X2450Y1658D01*
X2450Y1629D01*
X2521Y1644D02*
X2507Y1615D01*
X2479Y1586D01*
X2421Y1572D01*
X2321Y1572D01*
X2264Y1586D01*
X2236Y1615D01*
X2221Y1644D01*
X2221Y1701D01*
X2236Y1729D01*
X2264Y1758D01*
X2321Y1772D01*
X2421Y1772D01*
X2479Y1758D01*
X2507Y1729D01*
X2521Y1701D01*
X2521Y1644D01*
X2436Y1886D02*
X2436Y2029D01*
X2521Y1858D02*
X2221Y1958D01*
X2521Y2058D01*
G54D13*
X1632Y570D02*
X1365Y570D01*
X1232Y570D02*
X1251Y551D01*
X1270Y570D01*
X1251Y589D01*
X1232Y570D01*
X1270Y570D01*
X1632Y817D02*
X1613Y779D01*
X1575Y760D01*
X1232Y760D01*
X1365Y913D02*
X1365Y1065D01*
X1232Y970D02*
X1575Y970D01*
X1613Y989D01*
X1632Y1027D01*
X1632Y1065D01*
X1232Y1161D02*
X1232Y1409D01*
X1384Y1275D01*
X1384Y1333D01*
X1403Y1371D01*
X1422Y1390D01*
X1460Y1409D01*
X1556Y1409D01*
X1594Y1390D01*
X1613Y1371D01*
X1632Y1333D01*
X1632Y1218D01*
X1613Y1180D01*
X1594Y1161D01*
X1594Y1580D02*
X1613Y1599D01*
X1632Y1580D01*
X1613Y1561D01*
X1594Y1580D01*
X1632Y1580D01*
X1613Y1942D02*
X1632Y1904D01*
X1632Y1827D01*
X1613Y1789D01*
X1594Y1770D01*
X1556Y1751D01*
X1441Y1751D01*
X1403Y1770D01*
X1384Y1789D01*
X1365Y1827D01*
X1365Y1904D01*
X1384Y1942D01*
X1632Y2170D02*
X1613Y2132D01*
X1594Y2113D01*
X1556Y2094D01*
X1441Y2094D01*
X1403Y2113D01*
X1384Y2132D01*
X1365Y2170D01*
X1365Y2228D01*
X1384Y2266D01*
X1403Y2285D01*
X1441Y2304D01*
X1556Y2304D01*
X1594Y2285D01*
X1613Y2266D01*
X1632Y2228D01*
X1632Y2170D01*
X1632Y2475D02*
X1365Y2475D01*
X1403Y2475D02*
X1384Y2494D01*
X1365Y2532D01*
X1365Y2590D01*
X1384Y2628D01*
X1422Y2647D01*
X1632Y2647D01*
X1422Y2647D02*
X1384Y2666D01*
X1365Y2704D01*
X1365Y2761D01*
X1384Y2799D01*
X1422Y2818D01*
X1632Y2818D01*
G54D12*
X1632Y4620D02*
X1441Y4520D01*
X1632Y4448D02*
X1232Y4448D01*
X1232Y4563D01*
X1251Y4591D01*
X1270Y4606D01*
X1308Y4620D01*
X1365Y4620D01*
X1403Y4606D01*
X1422Y4591D01*
X1441Y4563D01*
X1441Y4448D01*
X1613Y4863D02*
X1632Y4834D01*
X1632Y4777D01*
X1613Y4748D01*
X1575Y4734D01*
X1422Y4734D01*
X1384Y4748D01*
X1365Y4777D01*
X1365Y4834D01*
X1384Y4863D01*
X1422Y4877D01*
X1460Y4877D01*
X1499Y4734D01*
X1365Y4977D02*
X1632Y5048D01*
X1365Y5120D01*
G54D14*
X1040Y5050D02*
X1040Y4590D01*
G54D12*
X512Y479D02*
X512Y512D01*
X528Y546D01*
X545Y562D01*
X578Y579D01*
X645Y596D01*
X728Y596D01*
X795Y579D01*
X828Y562D01*
X845Y546D01*
X862Y512D01*
X862Y479D01*
X845Y446D01*
X828Y429D01*
X795Y412D01*
X728Y396D01*
X645Y396D01*
X578Y412D01*
X545Y429D01*
X528Y446D01*
X512Y479D01*
X545Y729D02*
X528Y745D01*
X512Y779D01*
X512Y862D01*
X528Y895D01*
X545Y912D01*
X578Y929D01*
X612Y929D01*
X662Y912D01*
X862Y712D01*
X862Y929D01*
X512Y1145D02*
X512Y1178D01*
X528Y1212D01*
X545Y1228D01*
X578Y1245D01*
X645Y1262D01*
X728Y1262D01*
X795Y1245D01*
X828Y1228D01*
X845Y1212D01*
X862Y1178D01*
X862Y1145D01*
X845Y1112D01*
X828Y1095D01*
X795Y1078D01*
X728Y1062D01*
X645Y1062D01*
X578Y1078D01*
X545Y1095D01*
X528Y1112D01*
X512Y1145D01*
X512Y1478D02*
X512Y1511D01*
X528Y1545D01*
X545Y1561D01*
X578Y1578D01*
X645Y1595D01*
X728Y1595D01*
X795Y1578D01*
X828Y1561D01*
X845Y1545D01*
X862Y1511D01*
X862Y1478D01*
X845Y1445D01*
X828Y1428D01*
X795Y1411D01*
X728Y1395D01*
X645Y1395D01*
X578Y1411D01*
X545Y1428D01*
X528Y1445D01*
X512Y1478D01*
X728Y1744D02*
X728Y2011D01*
X512Y2244D02*
X512Y2277D01*
X528Y2311D01*
X545Y2327D01*
X578Y2344D01*
X645Y2361D01*
X728Y2361D01*
X795Y2344D01*
X828Y2327D01*
X845Y2311D01*
X862Y2277D01*
X862Y2244D01*
X845Y2211D01*
X828Y2194D01*
X795Y2177D01*
X728Y2161D01*
X645Y2161D01*
X578Y2177D01*
X545Y2194D01*
X528Y2211D01*
X512Y2244D01*
X512Y2577D02*
X512Y2610D01*
X528Y2644D01*
X545Y2660D01*
X578Y2677D01*
X645Y2694D01*
X728Y2694D01*
X795Y2677D01*
X828Y2660D01*
X845Y2644D01*
X862Y2610D01*
X862Y2577D01*
X845Y2544D01*
X828Y2527D01*
X795Y2510D01*
X728Y2494D01*
X645Y2494D01*
X578Y2510D01*
X545Y2527D01*
X528Y2544D01*
X512Y2577D01*
X512Y2910D02*
X512Y2943D01*
X528Y2977D01*
X545Y2993D01*
X578Y3010D01*
X645Y3027D01*
X728Y3027D01*
X795Y3010D01*
X828Y2993D01*
X845Y2977D01*
X862Y2943D01*
X862Y2910D01*
X845Y2877D01*
X828Y2860D01*
X795Y2843D01*
X728Y2827D01*
X645Y2827D01*
X578Y2843D01*
X545Y2860D01*
X528Y2877D01*
X512Y2910D01*
X512Y3343D02*
X512Y3176D01*
X678Y3160D01*
X662Y3176D01*
X645Y3210D01*
X645Y3293D01*
X662Y3326D01*
X678Y3343D01*
X712Y3360D01*
X795Y3360D01*
X828Y3343D01*
X845Y3326D01*
X862Y3293D01*
X862Y3210D01*
X845Y3176D01*
X828Y3160D01*
X728Y3509D02*
X728Y3776D01*
X512Y4009D02*
X512Y4042D01*
X528Y4076D01*
X545Y4092D01*
X578Y4109D01*
X645Y4126D01*
X728Y4126D01*
X795Y4109D01*
X828Y4092D01*
X845Y4076D01*
X862Y4042D01*
X862Y4009D01*
X845Y3976D01*
X828Y3959D01*
X795Y3942D01*
X728Y3926D01*
X645Y3926D01*
X578Y3942D01*
X545Y3959D01*
X528Y3976D01*
X512Y4009D01*
X512Y4342D02*
X512Y4375D01*
X528Y4409D01*
X545Y4425D01*
X578Y4442D01*
X645Y4459D01*
X728Y4459D01*
X795Y4442D01*
X828Y4425D01*
X845Y4409D01*
X862Y4375D01*
X862Y4342D01*
X845Y4309D01*
X828Y4292D01*
X795Y4275D01*
X728Y4259D01*
X645Y4259D01*
X578Y4275D01*
X545Y4292D01*
X528Y4309D01*
X512Y4342D01*
X512Y4675D02*
X512Y4708D01*
X528Y4742D01*
X545Y4758D01*
X578Y4775D01*
X645Y4792D01*
X728Y4792D01*
X795Y4775D01*
X828Y4758D01*
X845Y4742D01*
X862Y4708D01*
X862Y4675D01*
X845Y4642D01*
X828Y4625D01*
X795Y4608D01*
X728Y4592D01*
X645Y4592D01*
X578Y4608D01*
X545Y4625D01*
X528Y4642D01*
X512Y4675D01*
X862Y5125D02*
X862Y4925D01*
X862Y5025D02*
X512Y5025D01*
X562Y4991D01*
X595Y4958D01*
X612Y4925D01*
G54D15*
X13739Y7112D02*
G75*
G03X13739Y7112I-40J0D01*
G74*
G01*
G54D13*
X13855Y4910D02*
X13855Y7010D01*
X13855Y7010D02*
X15305Y7010D01*
X15305Y7010D02*
X15305Y4910D01*
X15305Y4910D02*
X13855Y4910D01*
G54D14*
X14274Y1080D02*
G75*
G03X14274Y1080I-79J0D01*
G74*
G01*
G54D15*
X14353Y1238D02*
X14353Y2812D01*
X14353Y2812D02*
X15927Y2812D01*
X15927Y2812D02*
X15927Y1238D01*
X15927Y1238D02*
X14353Y1238D01*
X11700Y8400D02*
X10900Y8400D01*
X10900Y8400D02*
X11000Y8300D01*
X11000Y8300D02*
X11000Y8500D01*
X11000Y8500D02*
X10900Y8400D01*
X12400Y9400D02*
X12400Y10300D01*
X12400Y10300D02*
X12300Y10200D01*
X12300Y10200D02*
X12500Y10200D01*
X12500Y10200D02*
X12400Y10300D01*
X12400Y8300D02*
X12400Y8500D01*
X12500Y8400D02*
X12300Y8400D01*
X12500Y8400D02*
G75*
G03X12500Y8400I-100J0D01*
G74*
G01*
X12500Y8700D02*
X12400Y8900D01*
X12400Y8900D02*
X12500Y9100D01*
X12500Y9100D02*
X12500Y8700D01*
X11900Y8400D02*
G75*
G03X12400Y8900I500J0D01*
G74*
G01*
X1194Y12203D02*
X1312Y12479D01*
X1312Y12479D02*
X1509Y12203D01*
X1509Y12203D02*
X1194Y12203D01*
X1194Y12203D02*
X1430Y12243D01*
X1430Y12243D02*
X1312Y12361D01*
X1312Y12361D02*
X1272Y12282D01*
X1272Y12282D02*
X1351Y12282D01*
X1351Y12282D02*
X1312Y12400D01*
G54D16*
X918Y12596D02*
X1046Y12596D01*
X1046Y12596D02*
X1046Y12793D01*
X918Y12793D02*
X1046Y12793D01*
X918Y12596D02*
X918Y12793D01*
X673Y12596D02*
X732Y12596D01*
X732Y12596D02*
X732Y12695D01*
X673Y12695D02*
X732Y12695D01*
X673Y12596D02*
X673Y12695D01*
X868Y12596D02*
X927Y12596D01*
X927Y12596D02*
X927Y12695D01*
X868Y12695D02*
X927Y12695D01*
X868Y12596D02*
X868Y12695D01*
X722Y12596D02*
X878Y12596D01*
X878Y12596D02*
X878Y12665D01*
X722Y12665D02*
X878Y12665D01*
X722Y12596D02*
X722Y12665D01*
X918Y12007D02*
X1046Y12007D01*
X1046Y12007D02*
X1046Y12204D01*
X918Y12204D02*
X1046Y12204D01*
X918Y12007D02*
X918Y12204D01*
X554Y12007D02*
X682Y12007D01*
X682Y12007D02*
X682Y12204D01*
X554Y12204D02*
X682Y12204D01*
X554Y12007D02*
X554Y12204D01*
X868Y12105D02*
X927Y12105D01*
X927Y12105D02*
X927Y12204D01*
X868Y12204D02*
X927Y12204D01*
X868Y12105D02*
X868Y12204D01*
X673Y12105D02*
X732Y12105D01*
X732Y12105D02*
X732Y12204D01*
X673Y12204D02*
X732Y12204D01*
X673Y12105D02*
X673Y12204D01*
X722Y12135D02*
X878Y12135D01*
X878Y12135D02*
X878Y12204D01*
X722Y12204D02*
X878Y12204D01*
X722Y12135D02*
X722Y12204D01*
X761Y12400D02*
X839Y12400D01*
X839Y12400D02*
X839Y12478D01*
X761Y12478D02*
X839Y12478D01*
X761Y12400D02*
X761Y12478D01*
X564Y12596D02*
X682Y12596D01*
X682Y12596D02*
X682Y12714D01*
X564Y12714D02*
X682Y12714D01*
X564Y12596D02*
X564Y12714D01*
X554Y12764D02*
X643Y12764D01*
X643Y12764D02*
X643Y12793D01*
X554Y12793D02*
X643Y12793D01*
X554Y12764D02*
X554Y12793D01*
G54D17*
X1026Y12606D02*
X1026Y12194D01*
X574Y12204D02*
X574Y12764D01*
G54D18*
X651Y12734D02*
G75*
G03X651Y12734I-28J0D01*
G74*
G01*
G54D17*
X663Y12793D02*
G75*
G03X937Y12793I137J0D01*
G74*
G01*
X937Y12007D02*
G75*
G03X663Y12007I-137J0D01*
G74*
G01*
G54D19*
X15480Y14750D02*
X15480Y11750D01*
X13480Y11750D02*
X13480Y14750D01*
X13480Y14750D02*
X15480Y14750D01*
X15480Y11750D02*
X13480Y11750D01*
G54D15*
X82Y9469D02*
X82Y5571D01*
X82Y5571D02*
X1420Y5571D01*
X1420Y5571D02*
X1420Y6043D01*
X1420Y6043D02*
X2405Y6043D01*
X2405Y6043D02*
X2405Y8957D01*
X2405Y8957D02*
X1460Y8957D01*
X1460Y8957D02*
X1460Y9469D01*
X1460Y9469D02*
X82Y9469D01*
G54D14*
X17749Y13733D02*
X17434Y13575D01*
X17434Y13575D02*
X17749Y13418D01*
X17749Y13418D02*
X17749Y13733D01*
X17749Y13733D02*
X17591Y13496D01*
G54D16*
X17474Y14323D02*
X17474Y14451D01*
X17474Y14451D02*
X17277Y14451D01*
X17277Y14323D02*
X17277Y14451D01*
X17474Y14323D02*
X17277Y14323D01*
X17474Y14078D02*
X17474Y14137D01*
X17474Y14137D02*
X17375Y14137D01*
X17375Y14078D02*
X17375Y14137D01*
X17474Y14078D02*
X17375Y14078D01*
X17474Y14273D02*
X17474Y14332D01*
X17474Y14332D02*
X17375Y14332D01*
X17375Y14273D02*
X17375Y14332D01*
X17474Y14273D02*
X17375Y14273D01*
X17474Y14127D02*
X17474Y14283D01*
X17474Y14283D02*
X17405Y14283D01*
X17405Y14127D02*
X17405Y14283D01*
X17474Y14127D02*
X17405Y14127D01*
X18063Y14323D02*
X18063Y14451D01*
X18063Y14451D02*
X17866Y14451D01*
X17866Y14323D02*
X17866Y14451D01*
X18063Y14323D02*
X17866Y14323D01*
X18063Y13959D02*
X18063Y14087D01*
X18063Y14087D02*
X17866Y14087D01*
X17866Y13959D02*
X17866Y14087D01*
X18063Y13959D02*
X17866Y13959D01*
X17965Y14273D02*
X17965Y14332D01*
X17965Y14332D02*
X17866Y14332D01*
X17866Y14273D02*
X17866Y14332D01*
X17965Y14273D02*
X17866Y14273D01*
X17965Y14078D02*
X17965Y14137D01*
X17965Y14137D02*
X17866Y14137D01*
X17866Y14078D02*
X17866Y14137D01*
X17965Y14078D02*
X17866Y14078D01*
X17935Y14127D02*
X17935Y14283D01*
X17935Y14283D02*
X17866Y14283D01*
X17866Y14127D02*
X17866Y14283D01*
X17935Y14127D02*
X17866Y14127D01*
X17670Y14166D02*
X17670Y14244D01*
X17670Y14244D02*
X17592Y14244D01*
X17592Y14166D02*
X17592Y14244D01*
X17670Y14166D02*
X17592Y14166D01*
X17474Y13969D02*
X17474Y14087D01*
X17474Y14087D02*
X17356Y14087D01*
X17356Y13969D02*
X17356Y14087D01*
X17474Y13969D02*
X17356Y13969D01*
X17306Y13959D02*
X17306Y14048D01*
X17306Y14048D02*
X17277Y14048D01*
X17277Y13959D02*
X17277Y14048D01*
X17306Y13959D02*
X17277Y13959D01*
G54D17*
X17464Y14431D02*
X17876Y14431D01*
X17866Y13979D02*
X17306Y13979D01*
G54D18*
X17364Y14028D02*
G75*
G03X17364Y14028I-28J0D01*
G74*
G01*
G54D17*
X17277Y14068D02*
G75*
G03X17277Y14342I0J137D01*
G74*
G01*
X18063Y14342D02*
G75*
G03X18063Y14068I0J-137D01*
G74*
G01*
G54D20*
X8191Y9626D02*
X8136Y9682D01*
X7774Y9209D02*
X7718Y9264D01*
X8609Y8374D02*
X8664Y8318D01*
X9026Y8791D02*
X9082Y8736D01*
X7718Y9264D02*
X8136Y9682D01*
X9082Y8736D02*
X8664Y8318D01*
G54D13*
X17015Y8200D02*
X19115Y8200D01*
X19115Y8200D02*
X19115Y6750D01*
X19115Y6750D02*
X17015Y6750D01*
X17015Y6750D02*
X17015Y8200D01*
X17376Y6994D02*
G75*
G03X17376Y6994I-128J0D01*
G74*
G01*
G54D10*
X12380Y10710D02*
X11930Y10710D01*
X12380Y12890D02*
X11940Y12890D01*
X12380Y10710D02*
X12380Y12890D01*
X11500Y10240D02*
X11500Y9810D01*
X9290Y10230D02*
X9290Y9810D01*
X9280Y9810D02*
X11500Y9800D01*
X9300Y13780D02*
X11470Y13790D01*
X8870Y13090D02*
X8870Y10260D01*
X11480Y13780D02*
X11480Y13370D01*
X9120Y13330D02*
X11900Y13330D01*
X11920Y10250D02*
X11920Y13290D01*
X8870Y10250D02*
X11870Y10250D01*
X8420Y12920D02*
X8420Y10700D01*
X8420Y10700D02*
X8870Y10700D01*
X8874Y13100D02*
X9104Y13330D01*
X8422Y12920D02*
X8874Y12920D01*
X9300Y13330D02*
X9300Y13782D01*
X9470Y12926D02*
G75*
G03X9470Y12926I-188J0D01*
G74*
G01*
G54D21*
X6366Y5370D02*
G75*
G03X6366Y5370I-141J0D01*
G74*
G01*
X5125Y5170D02*
X5125Y5470D01*
X5125Y5470D02*
X5625Y5470D01*
X5625Y5470D02*
X5625Y5170D01*
X6425Y9220D02*
X6425Y5170D01*
X4325Y5170D02*
X4325Y9220D01*
X4325Y5170D02*
X6425Y5170D01*
X4325Y9220D02*
X6425Y9220D01*
X12140Y6175D02*
X11740Y6175D01*
X11740Y6175D02*
X11740Y6775D01*
X11740Y6775D02*
X12140Y6775D01*
X12540Y6775D02*
X12940Y6775D01*
X12940Y6775D02*
X12940Y6175D01*
X12940Y6175D02*
X12540Y6175D01*
X12520Y615D02*
X12120Y615D01*
X12120Y615D02*
X12120Y1215D01*
X12120Y1215D02*
X12520Y1215D01*
X12920Y1215D02*
X13320Y1215D01*
X13320Y1215D02*
X13320Y615D01*
X13320Y615D02*
X12920Y615D01*
X17040Y1925D02*
X17040Y2325D01*
X17040Y2325D02*
X17640Y2325D01*
X17640Y2325D02*
X17640Y1925D01*
X17640Y1525D02*
X17640Y1125D01*
X17640Y1125D02*
X17040Y1125D01*
X17040Y1125D02*
X17040Y1525D01*
X14315Y3895D02*
X13915Y3895D01*
X13915Y3895D02*
X13915Y4495D01*
X13915Y4495D02*
X14315Y4495D01*
X14715Y4495D02*
X15115Y4495D01*
X15115Y4495D02*
X15115Y3895D01*
X15115Y3895D02*
X14715Y3895D01*
X15810Y7580D02*
X15810Y7980D01*
X15810Y7980D02*
X16410Y7980D01*
X16410Y7980D02*
X16410Y7580D01*
X16410Y7180D02*
X16410Y6780D01*
X16410Y6780D02*
X15810Y6780D01*
X15810Y6780D02*
X15810Y7180D01*
X14315Y7795D02*
X13915Y7795D01*
X13915Y7795D02*
X13915Y8395D01*
X13915Y8395D02*
X14315Y8395D01*
X14715Y8395D02*
X15115Y8395D01*
X15115Y8395D02*
X15115Y7795D01*
X15115Y7795D02*
X14715Y7795D01*
X12080Y3970D02*
X11680Y3970D01*
X11680Y3970D02*
X11680Y4570D01*
X11680Y4570D02*
X12080Y4570D01*
X12480Y4570D02*
X12880Y4570D01*
X12880Y4570D02*
X12880Y3970D01*
X12880Y3970D02*
X12480Y3970D01*
X12110Y5065D02*
X11710Y5065D01*
X11710Y5065D02*
X11710Y5665D01*
X11710Y5665D02*
X12110Y5665D01*
X12510Y5665D02*
X12910Y5665D01*
X12910Y5665D02*
X12910Y5065D01*
X12910Y5065D02*
X12510Y5065D01*
X4270Y4395D02*
X4270Y4795D01*
X4270Y4795D02*
X4870Y4795D01*
X4870Y4795D02*
X4870Y4395D01*
X4870Y3995D02*
X4870Y3595D01*
X4870Y3595D02*
X4270Y3595D01*
X4270Y3595D02*
X4270Y3995D01*
X12905Y3090D02*
X13305Y3090D01*
X13305Y3090D02*
X13305Y2490D01*
X13305Y2490D02*
X12905Y2490D01*
X12505Y2490D02*
X12105Y2490D01*
X12105Y2490D02*
X12105Y3090D01*
X12105Y3090D02*
X12505Y3090D01*
X12920Y2175D02*
X13320Y2175D01*
X13320Y2175D02*
X13320Y1575D01*
X13320Y1575D02*
X12920Y1575D01*
X12520Y1575D02*
X12120Y1575D01*
X12120Y1575D02*
X12120Y2175D01*
X12120Y2175D02*
X12520Y2175D01*
X5600Y4325D02*
X5600Y4725D01*
X5600Y4725D02*
X6200Y4725D01*
X6200Y4725D02*
X6200Y4325D01*
X6200Y3925D02*
X6200Y3525D01*
X6200Y3525D02*
X5600Y3525D01*
X5600Y3525D02*
X5600Y3925D01*
X3200Y8100D02*
X3200Y7700D01*
X3200Y7700D02*
X2600Y7700D01*
X2600Y7700D02*
X2600Y8100D01*
X2600Y8500D02*
X2600Y8900D01*
X2600Y8900D02*
X3200Y8900D01*
X3200Y8900D02*
X3200Y8500D01*
X7960Y14310D02*
X8360Y14310D01*
X8360Y14310D02*
X8360Y13710D01*
X8360Y13710D02*
X7960Y13710D01*
X7560Y13710D02*
X7160Y13710D01*
X7160Y13710D02*
X7160Y14310D01*
X7160Y14310D02*
X7560Y14310D01*
X5990Y13700D02*
X5590Y13700D01*
X5590Y13700D02*
X5590Y14300D01*
X5590Y14300D02*
X5990Y14300D01*
X6390Y14300D02*
X6790Y14300D01*
X6790Y14300D02*
X6790Y13700D01*
X6790Y13700D02*
X6390Y13700D01*
X18840Y13460D02*
X18840Y13860D01*
X18840Y13860D02*
X19440Y13860D01*
X19440Y13860D02*
X19440Y13460D01*
X19440Y13060D02*
X19440Y12660D01*
X19440Y12660D02*
X18840Y12660D01*
X18840Y12660D02*
X18840Y13060D01*
G54D14*
X15861Y10314D02*
X15861Y10707D01*
X15861Y10707D02*
X15467Y11101D01*
X15467Y11101D02*
X13499Y11101D01*
X13499Y11101D02*
X13499Y10314D01*
X13499Y9526D02*
X13499Y8739D01*
X13499Y8739D02*
X15467Y8739D01*
X15467Y8739D02*
X15861Y9133D01*
X15861Y9133D02*
X15861Y9526D01*
G54D22*
X15664Y9920D02*
G75*
G03X15664Y9920I-984J0D01*
G74*
G01*
G54D14*
X10791Y2104D02*
X10791Y2497D01*
X10791Y2497D02*
X10397Y2891D01*
X10397Y2891D02*
X8429Y2891D01*
X8429Y2891D02*
X8429Y2104D01*
X8429Y1316D02*
X8429Y529D01*
X8429Y529D02*
X10397Y529D01*
X10397Y529D02*
X10791Y923D01*
X10791Y923D02*
X10791Y1316D01*
G54D22*
X10594Y1710D02*
G75*
G03X10594Y1710I-984J0D01*
G74*
G01*
G54D14*
X5881Y2094D02*
X5881Y2487D01*
X5881Y2487D02*
X5487Y2881D01*
X5487Y2881D02*
X3519Y2881D01*
X3519Y2881D02*
X3519Y2094D01*
X3519Y1306D02*
X3519Y519D01*
X3519Y519D02*
X5487Y519D01*
X5487Y519D02*
X5881Y913D01*
X5881Y913D02*
X5881Y1306D01*
G54D22*
X5684Y1700D02*
G75*
G03X5684Y1700I-984J0D01*
G74*
G01*
G54D14*
X6731Y11694D02*
X6731Y12087D01*
X6731Y12087D02*
X6337Y12481D01*
X6337Y12481D02*
X4369Y12481D01*
X4369Y12481D02*
X4369Y11694D01*
X4369Y10906D02*
X4369Y10119D01*
X4369Y10119D02*
X6337Y10119D01*
X6337Y10119D02*
X6731Y10513D01*
X6731Y10513D02*
X6731Y10906D01*
G54D22*
X6534Y11300D02*
G75*
G03X6534Y11300I-984J0D01*
G74*
G01*
G54D15*
X3484Y11250D02*
G75*
G03X3484Y11250I-984J0D01*
G74*
G01*
X18484Y3750D02*
G75*
G03X18484Y3750I-984J0D01*
G74*
G01*
X18484Y11250D02*
G75*
G03X18484Y11250I-984J0D01*
G74*
G01*
X3484Y3750D02*
G75*
G03X3484Y3750I-984J0D01*
G74*
G01*
G54D21*
X500Y10800D02*
X500Y11200D01*
X500Y11200D02*
X1100Y11200D01*
X1100Y11200D02*
X1100Y10800D01*
X1100Y10400D02*
X1100Y10000D01*
X1100Y10000D02*
X500Y10000D01*
X500Y10000D02*
X500Y10400D01*
G54D14*
X7475Y7240D02*
X7475Y4090D01*
X9247Y7240D02*
X8853Y7240D01*
X9247Y4090D02*
X8853Y4090D01*
X10625Y7240D02*
X10625Y4090D01*
X9930Y5665D02*
G75*
G03X9930Y5665I-880J0D01*
G74*
G01*
G54D12*
X15498Y5065D02*
X15822Y5065D01*
X15860Y5080D01*
X15879Y5094D01*
X15898Y5123D01*
X15898Y5180D01*
X15879Y5208D01*
X15860Y5223D01*
X15822Y5237D01*
X15498Y5237D01*
X15898Y5537D02*
X15898Y5365D01*
X15898Y5451D02*
X15498Y5451D01*
X15555Y5422D01*
X15593Y5394D01*
X15612Y5365D01*
G54D23*
X16100Y1650D02*
X16419Y1650D01*
X16457Y1669D01*
X16476Y1687D01*
X16494Y1725D01*
X16494Y1800D01*
X16476Y1837D01*
X16457Y1856D01*
X16419Y1875D01*
X16100Y1875D01*
X16100Y2025D02*
X16100Y2269D01*
X16251Y2138D01*
X16251Y2194D01*
X16269Y2232D01*
X16288Y2250D01*
X16326Y2269D01*
X16419Y2269D01*
X16457Y2250D01*
X16476Y2232D01*
X16494Y2194D01*
X16494Y2082D01*
X16476Y2044D01*
X16457Y2025D01*
G54D11*
G54D24*
X11921Y9600D02*
X12221Y9800D01*
X11921Y9800D02*
X12221Y9600D01*
X11379Y8601D02*
X11521Y8601D01*
X11221Y8501D02*
X11379Y8601D01*
X11221Y8701D01*
X11821Y8600D02*
X11821Y8800D01*
X12121Y8600D01*
X12121Y8800D01*
X2164Y13349D02*
X2164Y13649D01*
X2236Y13649D01*
X2279Y13634D01*
X2307Y13606D01*
X2322Y13577D01*
X2336Y13520D01*
X2336Y13477D01*
X2322Y13420D01*
X2307Y13391D01*
X2279Y13363D01*
X2236Y13349D01*
X2164Y13349D01*
X2450Y13620D02*
X2464Y13634D01*
X2493Y13649D01*
X2564Y13649D01*
X2593Y13634D01*
X2607Y13620D01*
X2622Y13591D01*
X2622Y13563D01*
X2607Y13520D01*
X2436Y13349D01*
X2622Y13349D01*
X3208Y13349D02*
X3208Y13649D01*
X3280Y13649D01*
X3323Y13634D01*
X3351Y13606D01*
X3366Y13577D01*
X3380Y13520D01*
X3380Y13477D01*
X3366Y13420D01*
X3351Y13391D01*
X3323Y13363D01*
X3280Y13349D01*
X3208Y13349D01*
X3480Y13649D02*
X3666Y13649D01*
X3566Y13534D01*
X3608Y13534D01*
X3637Y13520D01*
X3651Y13506D01*
X3666Y13477D01*
X3666Y13406D01*
X3651Y13377D01*
X3637Y13363D01*
X3608Y13349D01*
X3523Y13349D01*
X3494Y13363D01*
X3480Y13377D01*
X4252Y13349D02*
X4252Y13649D01*
X4324Y13649D01*
X4367Y13634D01*
X4395Y13606D01*
X4410Y13577D01*
X4424Y13520D01*
X4424Y13477D01*
X4410Y13420D01*
X4395Y13391D01*
X4367Y13363D01*
X4324Y13349D01*
X4252Y13349D01*
X4681Y13549D02*
X4681Y13349D01*
X4610Y13663D02*
X4538Y13449D01*
X4724Y13449D01*
G54D21*
X1521Y12578D02*
X1221Y12578D01*
X1221Y12650D01*
X1236Y12693D01*
X1264Y12721D01*
X1293Y12736D01*
X1350Y12750D01*
X1393Y12750D01*
X1450Y12736D01*
X1479Y12721D01*
X1507Y12693D01*
X1521Y12650D01*
X1521Y12578D01*
X1250Y12864D02*
X1236Y12878D01*
X1221Y12907D01*
X1221Y12978D01*
X1236Y13007D01*
X1250Y13021D01*
X1279Y13036D01*
X1307Y13036D01*
X1350Y13021D01*
X1521Y12850D01*
X1521Y13036D01*
G54D19*
X13342Y13445D02*
X12942Y13445D01*
X12942Y13598D01*
X12961Y13636D01*
X12980Y13655D01*
X13018Y13674D01*
X13075Y13674D01*
X13113Y13655D01*
X13132Y13636D01*
X13151Y13598D01*
X13151Y13445D01*
X13342Y14055D02*
X13342Y13826D01*
X13342Y13940D02*
X12942Y13940D01*
X12999Y13902D01*
X13037Y13864D01*
X13056Y13826D01*
G54D11*
X15733Y11702D02*
X15733Y11359D01*
X15733Y11531D02*
X15133Y11531D01*
X15219Y11474D01*
X15276Y11416D01*
X15304Y11359D01*
X16238Y12335D02*
X15638Y12335D01*
X16181Y12964D02*
X16209Y12935D01*
X16238Y12849D01*
X16238Y12792D01*
X16209Y12707D01*
X16152Y12649D01*
X16095Y12621D01*
X15981Y12592D01*
X15895Y12592D01*
X15781Y12621D01*
X15724Y12649D01*
X15666Y12707D01*
X15638Y12792D01*
X15638Y12849D01*
X15666Y12935D01*
X15695Y12964D01*
X16209Y13192D02*
X16238Y13278D01*
X16238Y13421D01*
X16209Y13478D01*
X16181Y13507D01*
X16124Y13535D01*
X16066Y13535D01*
X16009Y13507D01*
X15981Y13478D01*
X15952Y13421D01*
X15924Y13307D01*
X15895Y13249D01*
X15866Y13221D01*
X15809Y13192D01*
X15752Y13192D01*
X15695Y13221D01*
X15666Y13249D01*
X15638Y13307D01*
X15638Y13449D01*
X15666Y13535D01*
X16238Y13792D02*
X15638Y13792D01*
X15638Y14020D01*
X15666Y14078D01*
X15695Y14106D01*
X15752Y14135D01*
X15838Y14135D01*
X15895Y14106D01*
X15924Y14078D01*
X15952Y14020D01*
X15952Y13792D01*
G54D21*
X16346Y14084D02*
X16346Y14384D01*
X16418Y14384D01*
X16461Y14369D01*
X16489Y14341D01*
X16504Y14312D01*
X16518Y14255D01*
X16518Y14212D01*
X16504Y14155D01*
X16489Y14126D01*
X16461Y14098D01*
X16418Y14084D01*
X16346Y14084D01*
X16804Y14084D02*
X16632Y14084D01*
X16718Y14084D02*
X16718Y14384D01*
X16689Y14341D01*
X16661Y14312D01*
X16632Y14298D01*
G54D13*
X7605Y10101D02*
X7511Y9630D01*
X7794Y9913D02*
X7322Y9819D01*
X7767Y9374D02*
X7605Y9536D01*
X7686Y9455D02*
X7969Y9738D01*
X7901Y9725D01*
X7848Y9725D01*
X7807Y9738D01*
G54D12*
X17886Y7885D02*
X17886Y7561D01*
X17901Y7523D01*
X17915Y7504D01*
X17944Y7485D01*
X18001Y7485D01*
X18029Y7504D01*
X18044Y7523D01*
X18058Y7561D01*
X18058Y7885D01*
X18186Y7847D02*
X18200Y7866D01*
X18229Y7885D01*
X18300Y7885D01*
X18329Y7866D01*
X18343Y7847D01*
X18358Y7809D01*
X18358Y7771D01*
X18343Y7714D01*
X18172Y7485D01*
X18358Y7485D01*
G54D19*
X11866Y13308D02*
X11866Y13808D01*
X12285Y13355D02*
X12266Y13331D01*
X12209Y13308D01*
X12171Y13308D01*
X12113Y13331D01*
X12075Y13379D01*
X12056Y13427D01*
X12037Y13522D01*
X12037Y13593D01*
X12056Y13689D01*
X12075Y13736D01*
X12113Y13784D01*
X12171Y13808D01*
X12209Y13808D01*
X12266Y13784D01*
X12285Y13760D01*
X12666Y13308D02*
X12437Y13308D01*
X12551Y13308D02*
X12551Y13808D01*
X12513Y13736D01*
X12475Y13689D01*
X12437Y13665D01*
G54D21*
X4596Y6991D02*
X4839Y6991D01*
X4868Y7006D01*
X4882Y7020D01*
X4896Y7049D01*
X4896Y7106D01*
X4882Y7134D01*
X4868Y7149D01*
X4839Y7163D01*
X4596Y7163D01*
X4696Y7434D02*
X4896Y7434D01*
X4582Y7363D02*
X4796Y7291D01*
X4796Y7477D01*
X11353Y6374D02*
X11270Y6493D01*
X11211Y6374D02*
X11211Y6624D01*
X11306Y6624D01*
X11330Y6612D01*
X11341Y6600D01*
X11353Y6576D01*
X11353Y6540D01*
X11341Y6517D01*
X11330Y6505D01*
X11306Y6493D01*
X11211Y6493D01*
X11449Y6600D02*
X11461Y6612D01*
X11484Y6624D01*
X11544Y6624D01*
X11568Y6612D01*
X11580Y6600D01*
X11591Y6576D01*
X11591Y6552D01*
X11580Y6517D01*
X11437Y6374D01*
X11591Y6374D01*
X13638Y754D02*
X13555Y873D01*
X13496Y754D02*
X13496Y1004D01*
X13591Y1004D01*
X13615Y992D01*
X13626Y980D01*
X13638Y956D01*
X13638Y920D01*
X13626Y897D01*
X13615Y885D01*
X13591Y873D01*
X13496Y873D01*
X13876Y754D02*
X13734Y754D01*
X13805Y754D02*
X13805Y1004D01*
X13781Y968D01*
X13757Y944D01*
X13734Y932D01*
X17417Y723D02*
X17429Y711D01*
X17441Y676D01*
X17441Y652D01*
X17429Y616D01*
X17405Y592D01*
X17382Y581D01*
X17334Y569D01*
X17298Y569D01*
X17251Y581D01*
X17227Y592D01*
X17203Y616D01*
X17191Y652D01*
X17191Y676D01*
X17203Y711D01*
X17215Y723D01*
X17441Y961D02*
X17441Y819D01*
X17441Y890D02*
X17191Y890D01*
X17227Y866D01*
X17251Y842D01*
X17263Y819D01*
X13528Y4118D02*
X13516Y4106D01*
X13481Y4094D01*
X13457Y4094D01*
X13421Y4106D01*
X13397Y4130D01*
X13386Y4153D01*
X13374Y4201D01*
X13374Y4237D01*
X13386Y4284D01*
X13397Y4308D01*
X13421Y4332D01*
X13457Y4344D01*
X13481Y4344D01*
X13516Y4332D01*
X13528Y4320D01*
X13612Y4344D02*
X13778Y4344D01*
X13671Y4094D01*
X16187Y8283D02*
X16199Y8271D01*
X16211Y8236D01*
X16211Y8212D01*
X16199Y8176D01*
X16175Y8152D01*
X16152Y8141D01*
X16104Y8129D01*
X16068Y8129D01*
X16021Y8141D01*
X15997Y8152D01*
X15973Y8176D01*
X15961Y8212D01*
X15961Y8236D01*
X15973Y8271D01*
X15985Y8283D01*
X15985Y8379D02*
X15973Y8391D01*
X15961Y8414D01*
X15961Y8474D01*
X15973Y8498D01*
X15985Y8510D01*
X16009Y8521D01*
X16033Y8521D01*
X16068Y8510D01*
X16211Y8367D01*
X16211Y8521D01*
X13528Y8018D02*
X13516Y8006D01*
X13481Y7994D01*
X13457Y7994D01*
X13421Y8006D01*
X13397Y8030D01*
X13386Y8053D01*
X13374Y8101D01*
X13374Y8137D01*
X13386Y8184D01*
X13397Y8208D01*
X13421Y8232D01*
X13457Y8244D01*
X13481Y8244D01*
X13516Y8232D01*
X13528Y8220D01*
X13647Y7994D02*
X13695Y7994D01*
X13719Y8006D01*
X13731Y8018D01*
X13755Y8053D01*
X13766Y8101D01*
X13766Y8196D01*
X13755Y8220D01*
X13743Y8232D01*
X13719Y8244D01*
X13671Y8244D01*
X13647Y8232D01*
X13636Y8220D01*
X13624Y8196D01*
X13624Y8137D01*
X13636Y8113D01*
X13647Y8101D01*
X13671Y8089D01*
X13719Y8089D01*
X13743Y8101D01*
X13755Y8113D01*
X13766Y8137D01*
X11293Y4193D02*
X11281Y4181D01*
X11246Y4169D01*
X11222Y4169D01*
X11186Y4181D01*
X11162Y4205D01*
X11151Y4228D01*
X11139Y4276D01*
X11139Y4312D01*
X11151Y4359D01*
X11162Y4383D01*
X11186Y4407D01*
X11222Y4419D01*
X11246Y4419D01*
X11281Y4407D01*
X11293Y4395D01*
X11436Y4312D02*
X11412Y4324D01*
X11401Y4335D01*
X11389Y4359D01*
X11389Y4371D01*
X11401Y4395D01*
X11412Y4407D01*
X11436Y4419D01*
X11484Y4419D01*
X11508Y4407D01*
X11520Y4395D01*
X11531Y4371D01*
X11531Y4359D01*
X11520Y4335D01*
X11508Y4324D01*
X11484Y4312D01*
X11436Y4312D01*
X11412Y4300D01*
X11401Y4288D01*
X11389Y4264D01*
X11389Y4216D01*
X11401Y4193D01*
X11412Y4181D01*
X11436Y4169D01*
X11484Y4169D01*
X11508Y4181D01*
X11520Y4193D01*
X11531Y4216D01*
X11531Y4264D01*
X11520Y4288D01*
X11508Y4300D01*
X11484Y4312D01*
X11323Y5264D02*
X11240Y5383D01*
X11181Y5264D02*
X11181Y5514D01*
X11276Y5514D01*
X11300Y5502D01*
X11311Y5490D01*
X11323Y5466D01*
X11323Y5430D01*
X11311Y5407D01*
X11300Y5395D01*
X11276Y5383D01*
X11181Y5383D01*
X11407Y5514D02*
X11561Y5514D01*
X11478Y5419D01*
X11514Y5419D01*
X11538Y5407D01*
X11550Y5395D01*
X11561Y5371D01*
X11561Y5311D01*
X11550Y5288D01*
X11538Y5276D01*
X11514Y5264D01*
X11442Y5264D01*
X11419Y5276D01*
X11407Y5288D01*
X4017Y4202D02*
X4029Y4190D01*
X4041Y4155D01*
X4041Y4131D01*
X4029Y4095D01*
X4005Y4071D01*
X3982Y4060D01*
X3934Y4048D01*
X3898Y4048D01*
X3851Y4060D01*
X3827Y4071D01*
X3803Y4095D01*
X3791Y4131D01*
X3791Y4155D01*
X3803Y4190D01*
X3815Y4202D01*
X3875Y4417D02*
X4041Y4417D01*
X3779Y4357D02*
X3958Y4298D01*
X3958Y4452D01*
X13593Y2653D02*
X13581Y2641D01*
X13546Y2629D01*
X13522Y2629D01*
X13486Y2641D01*
X13462Y2665D01*
X13451Y2688D01*
X13439Y2736D01*
X13439Y2772D01*
X13451Y2819D01*
X13462Y2843D01*
X13486Y2867D01*
X13522Y2879D01*
X13546Y2879D01*
X13581Y2867D01*
X13593Y2855D01*
X13808Y2879D02*
X13760Y2879D01*
X13736Y2867D01*
X13724Y2855D01*
X13701Y2819D01*
X13689Y2772D01*
X13689Y2676D01*
X13701Y2653D01*
X13712Y2641D01*
X13736Y2629D01*
X13784Y2629D01*
X13808Y2641D01*
X13820Y2653D01*
X13831Y2676D01*
X13831Y2736D01*
X13820Y2760D01*
X13808Y2772D01*
X13784Y2784D01*
X13736Y2784D01*
X13712Y2772D01*
X13701Y2760D01*
X13689Y2736D01*
X13593Y1723D02*
X13581Y1711D01*
X13546Y1699D01*
X13522Y1699D01*
X13486Y1711D01*
X13462Y1735D01*
X13451Y1758D01*
X13439Y1806D01*
X13439Y1842D01*
X13451Y1889D01*
X13462Y1913D01*
X13486Y1937D01*
X13522Y1949D01*
X13546Y1949D01*
X13581Y1937D01*
X13593Y1925D01*
X13820Y1949D02*
X13701Y1949D01*
X13689Y1830D01*
X13701Y1842D01*
X13724Y1854D01*
X13784Y1854D01*
X13808Y1842D01*
X13820Y1830D01*
X13831Y1806D01*
X13831Y1746D01*
X13820Y1723D01*
X13808Y1711D01*
X13784Y1699D01*
X13724Y1699D01*
X13701Y1711D01*
X13689Y1723D01*
X6715Y3737D02*
X6727Y3725D01*
X6739Y3690D01*
X6739Y3666D01*
X6727Y3630D01*
X6703Y3606D01*
X6680Y3595D01*
X6632Y3583D01*
X6596Y3583D01*
X6549Y3595D01*
X6525Y3606D01*
X6501Y3630D01*
X6489Y3666D01*
X6489Y3690D01*
X6501Y3725D01*
X6513Y3737D01*
X6739Y3975D02*
X6739Y3833D01*
X6739Y3904D02*
X6489Y3904D01*
X6525Y3880D01*
X6549Y3856D01*
X6561Y3833D01*
X6573Y4190D02*
X6739Y4190D01*
X6477Y4130D02*
X6656Y4071D01*
X6656Y4225D01*
X3003Y9213D02*
X3015Y9201D01*
X3027Y9166D01*
X3027Y9142D01*
X3015Y9106D01*
X2991Y9082D01*
X2968Y9071D01*
X2920Y9059D01*
X2884Y9059D01*
X2837Y9071D01*
X2813Y9082D01*
X2789Y9106D01*
X2777Y9142D01*
X2777Y9166D01*
X2789Y9201D01*
X2801Y9213D01*
X3027Y9451D02*
X3027Y9309D01*
X3027Y9380D02*
X2777Y9380D01*
X2813Y9356D01*
X2837Y9332D01*
X2849Y9309D01*
X2801Y9547D02*
X2789Y9559D01*
X2777Y9582D01*
X2777Y9642D01*
X2789Y9666D01*
X2801Y9678D01*
X2825Y9689D01*
X2849Y9689D01*
X2884Y9678D01*
X3027Y9535D01*
X3027Y9689D01*
X8544Y13933D02*
X8532Y13921D01*
X8497Y13909D01*
X8473Y13909D01*
X8437Y13921D01*
X8413Y13945D01*
X8402Y13968D01*
X8390Y14016D01*
X8390Y14052D01*
X8402Y14099D01*
X8413Y14123D01*
X8437Y14147D01*
X8473Y14159D01*
X8497Y14159D01*
X8532Y14147D01*
X8544Y14135D01*
X8782Y13909D02*
X8640Y13909D01*
X8711Y13909D02*
X8711Y14159D01*
X8687Y14123D01*
X8663Y14099D01*
X8640Y14087D01*
X9009Y14159D02*
X8890Y14159D01*
X8878Y14040D01*
X8890Y14052D01*
X8913Y14064D01*
X8973Y14064D01*
X8997Y14052D01*
X9009Y14040D01*
X9020Y14016D01*
X9020Y13956D01*
X9009Y13933D01*
X8997Y13921D01*
X8973Y13909D01*
X8913Y13909D01*
X8890Y13921D01*
X8878Y13933D01*
X5203Y13899D02*
X5120Y14018D01*
X5061Y13899D02*
X5061Y14149D01*
X5156Y14149D01*
X5180Y14137D01*
X5191Y14125D01*
X5203Y14101D01*
X5203Y14065D01*
X5191Y14042D01*
X5180Y14030D01*
X5156Y14018D01*
X5061Y14018D01*
X5430Y14149D02*
X5311Y14149D01*
X5299Y14030D01*
X5311Y14042D01*
X5334Y14054D01*
X5394Y14054D01*
X5418Y14042D01*
X5430Y14030D01*
X5441Y14006D01*
X5441Y13946D01*
X5430Y13923D01*
X5418Y13911D01*
X5394Y13899D01*
X5334Y13899D01*
X5311Y13911D01*
X5299Y13923D01*
X19241Y14163D02*
X19122Y14080D01*
X19241Y14021D02*
X18991Y14021D01*
X18991Y14116D01*
X19003Y14140D01*
X19015Y14151D01*
X19039Y14163D01*
X19075Y14163D01*
X19098Y14151D01*
X19110Y14140D01*
X19122Y14116D01*
X19122Y14021D01*
X19075Y14378D02*
X19241Y14378D01*
X18979Y14318D02*
X19158Y14259D01*
X19158Y14413D01*
G54D25*
X16259Y9206D02*
X16240Y9187D01*
X16183Y9168D01*
X16145Y9168D01*
X16087Y9187D01*
X16049Y9225D01*
X16030Y9263D01*
X16011Y9340D01*
X16011Y9397D01*
X16030Y9473D01*
X16049Y9511D01*
X16087Y9549D01*
X16145Y9568D01*
X16183Y9568D01*
X16240Y9549D01*
X16259Y9530D01*
X16640Y9168D02*
X16411Y9168D01*
X16525Y9168D02*
X16525Y9568D01*
X16487Y9511D01*
X16449Y9473D01*
X16411Y9454D01*
X16887Y9568D02*
X16926Y9568D01*
X16964Y9549D01*
X16983Y9530D01*
X17002Y9492D01*
X17021Y9416D01*
X17021Y9320D01*
X17002Y9244D01*
X16983Y9206D01*
X16964Y9187D01*
X16926Y9168D01*
X16887Y9168D01*
X16849Y9187D01*
X16830Y9206D01*
X16811Y9244D01*
X16792Y9320D01*
X16792Y9416D01*
X16811Y9492D01*
X16830Y9530D01*
X16849Y9549D01*
X16887Y9568D01*
G54D19*
X15552Y9256D02*
X16009Y9256D01*
X15780Y9027D02*
X15780Y9484D01*
G54D25*
X10219Y3187D02*
X10200Y3168D01*
X10143Y3149D01*
X10105Y3149D01*
X10047Y3168D01*
X10009Y3206D01*
X9990Y3244D01*
X9971Y3321D01*
X9971Y3378D01*
X9990Y3454D01*
X10009Y3492D01*
X10047Y3530D01*
X10105Y3549D01*
X10143Y3549D01*
X10200Y3530D01*
X10219Y3511D01*
X10352Y3549D02*
X10600Y3549D01*
X10466Y3397D01*
X10524Y3397D01*
X10562Y3378D01*
X10581Y3359D01*
X10600Y3321D01*
X10600Y3225D01*
X10581Y3187D01*
X10562Y3168D01*
X10524Y3149D01*
X10409Y3149D01*
X10371Y3168D01*
X10352Y3187D01*
G54D19*
X10482Y1046D02*
X10939Y1046D01*
X10710Y817D02*
X10710Y1274D01*
G54D25*
X6389Y494D02*
X6370Y475D01*
X6313Y456D01*
X6275Y456D01*
X6217Y475D01*
X6179Y513D01*
X6160Y551D01*
X6141Y628D01*
X6141Y685D01*
X6160Y761D01*
X6179Y799D01*
X6217Y837D01*
X6275Y856D01*
X6313Y856D01*
X6370Y837D01*
X6389Y818D01*
X6770Y456D02*
X6541Y456D01*
X6655Y456D02*
X6655Y856D01*
X6617Y799D01*
X6579Y761D01*
X6541Y742D01*
X6903Y856D02*
X7151Y856D01*
X7017Y704D01*
X7075Y704D01*
X7113Y685D01*
X7132Y666D01*
X7151Y628D01*
X7151Y532D01*
X7132Y494D01*
X7113Y475D01*
X7075Y456D01*
X6960Y456D01*
X6922Y475D01*
X6903Y494D01*
G54D19*
X5572Y1036D02*
X6029Y1036D01*
X5800Y807D02*
X5800Y1264D01*
G54D25*
X5968Y12777D02*
X5949Y12758D01*
X5892Y12739D01*
X5854Y12739D01*
X5796Y12758D01*
X5758Y12796D01*
X5739Y12834D01*
X5720Y12911D01*
X5720Y12968D01*
X5739Y13044D01*
X5758Y13082D01*
X5796Y13120D01*
X5854Y13139D01*
X5892Y13139D01*
X5949Y13120D01*
X5968Y13101D01*
X6349Y12739D02*
X6120Y12739D01*
X6234Y12739D02*
X6234Y13139D01*
X6196Y13082D01*
X6158Y13044D01*
X6120Y13025D01*
X6730Y12739D02*
X6501Y12739D01*
X6615Y12739D02*
X6615Y13139D01*
X6577Y13082D01*
X6539Y13044D01*
X6501Y13025D01*
G54D19*
X6422Y10636D02*
X6879Y10636D01*
X6650Y10407D02*
X6650Y10864D01*
G54D21*
X1701Y9958D02*
X1582Y9875D01*
X1701Y9816D02*
X1451Y9816D01*
X1451Y9911D01*
X1463Y9935D01*
X1475Y9946D01*
X1499Y9958D01*
X1535Y9958D01*
X1558Y9946D01*
X1570Y9935D01*
X1582Y9911D01*
X1582Y9816D01*
X1451Y10173D02*
X1451Y10125D01*
X1463Y10101D01*
X1475Y10089D01*
X1511Y10066D01*
X1558Y10054D01*
X1654Y10054D01*
X1677Y10066D01*
X1689Y10077D01*
X1701Y10101D01*
X1701Y10149D01*
X1689Y10173D01*
X1677Y10185D01*
X1654Y10196D01*
X1594Y10196D01*
X1570Y10185D01*
X1558Y10173D01*
X1546Y10149D01*
X1546Y10101D01*
X1558Y10077D01*
X1570Y10066D01*
X1594Y10054D01*
G54D10*
G36*
X2600Y1000D02*
X2600Y1400D01*
X2200Y1400D01*
X2200Y1000D01*
X2600Y1000D01*
X2600Y1000D01*
G37*
G54D13*
X2600Y1000D02*
X2600Y1400D01*
X2200Y1400D01*
X2200Y1000D01*
X2600Y1000D01*
M02*
