G04 This is an RS-274x file exported by *
G04 gerbv version 2.5.0 *
G04 More information is available about gerbv at *
G04 http://gerbv.gpleda.org/ *
G04 --End of header info--*
%MOIN*%
%FSLAX23Y23*%
%IPPOS*%
G04 --Define apertures--*
%ADD10C,0.0060*%
%ADD11C,0.0120*%
%ADD12C,0.0075*%
%ADD13C,0.0100*%
%ADD14C,0.0150*%
%ADD15C,0.0079*%
%ADD16C,0.0069*%
%ADD17C,0.0026*%
%ADD18C,0.0040*%
%ADD19C,0.0020*%
%ADD20C,0.0050*%
%ADD21C,0.0080*%
%ADD22C,0.0039*%
%ADD23C,0.0078*%
%ADD24C,0.0099*%
%ADD25C,0.0070*%
%ADD26C,0.0062*%
G04 --Start main section--*
G54D11*
G01X01964Y00042D02*
G01X01904Y00042D01*
G01X01904Y00042D02*
G01X01904Y00064D01*
G01X01904Y00064D02*
G01X01907Y00070D01*
G01X01907Y00070D02*
G01X01910Y00073D01*
G01X01910Y00073D02*
G01X01916Y00076D01*
G01X01916Y00076D02*
G01X01924Y00076D01*
G01X01924Y00076D02*
G01X01930Y00073D01*
G01X01930Y00073D02*
G01X01933Y00070D01*
G01X01933Y00070D02*
G01X01936Y00064D01*
G01X01936Y00064D02*
G01X01936Y00042D01*
G01X01964Y00110D02*
G01X01961Y00104D01*
G01X01961Y00104D02*
G01X01959Y00102D01*
G01X01959Y00102D02*
G01X01953Y00099D01*
G01X01953Y00099D02*
G01X01936Y00099D01*
G01X01936Y00099D02*
G01X01930Y00102D01*
G01X01930Y00102D02*
G01X01927Y00104D01*
G01X01927Y00104D02*
G01X01924Y00110D01*
G01X01924Y00110D02*
G01X01924Y00119D01*
G01X01924Y00119D02*
G01X01927Y00124D01*
G01X01927Y00124D02*
G01X01930Y00127D01*
G01X01930Y00127D02*
G01X01936Y00130D01*
G01X01936Y00130D02*
G01X01953Y00130D01*
G01X01953Y00130D02*
G01X01959Y00127D01*
G01X01959Y00127D02*
G01X01961Y00124D01*
G01X01961Y00124D02*
G01X01964Y00119D01*
G01X01964Y00119D02*
G01X01964Y00110D01*
G01X01964Y00164D02*
G01X01961Y00159D01*
G01X01961Y00159D02*
G01X01956Y00156D01*
G01X01956Y00156D02*
G01X01904Y00156D01*
G01X01964Y00213D02*
G01X01933Y00213D01*
G01X01933Y00213D02*
G01X01927Y00210D01*
G01X01927Y00210D02*
G01X01924Y00204D01*
G01X01924Y00204D02*
G01X01924Y00193D01*
G01X01924Y00193D02*
G01X01927Y00187D01*
G01X01961Y00213D02*
G01X01964Y00207D01*
G01X01964Y00207D02*
G01X01964Y00193D01*
G01X01964Y00193D02*
G01X01961Y00187D01*
G01X01961Y00187D02*
G01X01956Y00184D01*
G01X01956Y00184D02*
G01X01950Y00184D01*
G01X01950Y00184D02*
G01X01944Y00187D01*
G01X01944Y00187D02*
G01X01941Y00193D01*
G01X01941Y00193D02*
G01X01941Y00207D01*
G01X01941Y00207D02*
G01X01939Y00213D01*
G01X01964Y00242D02*
G01X01924Y00242D01*
G01X01936Y00242D02*
G01X01930Y00244D01*
G01X01930Y00244D02*
G01X01927Y00247D01*
G01X01927Y00247D02*
G01X01924Y00253D01*
G01X01924Y00253D02*
G01X01924Y00259D01*
G01X01964Y00327D02*
G01X01964Y00339D01*
G01X01964Y00339D02*
G01X01961Y00344D01*
G01X01961Y00344D02*
G01X01959Y00347D01*
G01X01959Y00347D02*
G01X01950Y00353D01*
G01X01950Y00353D02*
G01X01939Y00356D01*
G01X01939Y00356D02*
G01X01916Y00356D01*
G01X01916Y00356D02*
G01X01910Y00353D01*
G01X01910Y00353D02*
G01X01907Y00350D01*
G01X01907Y00350D02*
G01X01904Y00344D01*
G01X01904Y00344D02*
G01X01904Y00333D01*
G01X01904Y00333D02*
G01X01907Y00327D01*
G01X01907Y00327D02*
G01X01910Y00324D01*
G01X01910Y00324D02*
G01X01916Y00321D01*
G01X01916Y00321D02*
G01X01930Y00321D01*
G01X01930Y00321D02*
G01X01936Y00324D01*
G01X01936Y00324D02*
G01X01939Y00327D01*
G01X01939Y00327D02*
G01X01941Y00333D01*
G01X01941Y00333D02*
G01X01941Y00344D01*
G01X01941Y00344D02*
G01X01939Y00350D01*
G01X01939Y00350D02*
G01X01936Y00353D01*
G01X01936Y00353D02*
G01X01930Y00356D01*
G01X01964Y00427D02*
G01X01904Y00427D01*
G01X01964Y00456D02*
G01X01904Y00456D01*
G01X01904Y00456D02*
G01X01947Y00476D01*
G01X01947Y00476D02*
G01X01904Y00496D01*
G01X01904Y00496D02*
G01X01964Y00496D01*
G01X01904Y00524D02*
G01X01953Y00524D01*
G01X01953Y00524D02*
G01X01959Y00527D01*
G01X01959Y00527D02*
G01X01961Y00530D01*
G01X01961Y00530D02*
G01X01964Y00536D01*
G01X01964Y00536D02*
G01X01964Y00547D01*
G01X01964Y00547D02*
G01X01961Y00553D01*
G01X01961Y00553D02*
G01X01959Y00556D01*
G01X01959Y00556D02*
G01X01953Y00559D01*
G01X01953Y00559D02*
G01X01904Y00559D01*
G54D12*
G01X00255Y00179D02*
G01X00254Y00176D01*
G01X00254Y00176D02*
G01X00251Y00173D01*
G01X00251Y00173D02*
G01X00246Y00169D01*
G01X00246Y00169D02*
G01X00245Y00166D01*
G01X00245Y00166D02*
G01X00245Y00163D01*
G01X00252Y00164D02*
G01X00251Y00162D01*
G01X00251Y00162D02*
G01X00248Y00159D01*
G01X00248Y00159D02*
G01X00242Y00157D01*
G01X00242Y00157D02*
G01X00232Y00157D01*
G01X00232Y00157D02*
G01X00226Y00159D01*
G01X00226Y00159D02*
G01X00224Y00162D01*
G01X00224Y00162D02*
G01X00222Y00164D01*
G01X00222Y00164D02*
G01X00222Y00170D01*
G01X00222Y00170D02*
G01X00224Y00173D01*
G01X00224Y00173D02*
G01X00226Y00176D01*
G01X00226Y00176D02*
G01X00232Y00177D01*
G01X00232Y00177D02*
G01X00242Y00177D01*
G01X00242Y00177D02*
G01X00248Y00176D01*
G01X00248Y00176D02*
G01X00251Y00173D01*
G01X00251Y00173D02*
G01X00252Y00170D01*
G01X00252Y00170D02*
G01X00252Y00164D01*
G01X00244Y00189D02*
G01X00244Y00203D01*
G01X00252Y00186D02*
G01X00222Y00196D01*
G01X00222Y00196D02*
G01X00252Y00206D01*
G54D13*
G01X00163Y00057D02*
G01X00137Y00057D01*
G01X00123Y00057D02*
G01X00125Y00055D01*
G01X00125Y00055D02*
G01X00127Y00057D01*
G01X00127Y00057D02*
G01X00125Y00059D01*
G01X00125Y00059D02*
G01X00123Y00057D01*
G01X00123Y00057D02*
G01X00127Y00057D01*
G01X00163Y00082D02*
G01X00161Y00078D01*
G01X00161Y00078D02*
G01X00158Y00076D01*
G01X00158Y00076D02*
G01X00123Y00076D01*
G01X00137Y00091D02*
G01X00137Y00107D01*
G01X00123Y00097D02*
G01X00158Y00097D01*
G01X00158Y00097D02*
G01X00161Y00099D01*
G01X00161Y00099D02*
G01X00163Y00103D01*
G01X00163Y00103D02*
G01X00163Y00107D01*
G01X00123Y00116D02*
G01X00123Y00141D01*
G01X00123Y00141D02*
G01X00138Y00128D01*
G01X00138Y00128D02*
G01X00138Y00133D01*
G01X00138Y00133D02*
G01X00140Y00137D01*
G01X00140Y00137D02*
G01X00142Y00139D01*
G01X00142Y00139D02*
G01X00146Y00141D01*
G01X00146Y00141D02*
G01X00156Y00141D01*
G01X00156Y00141D02*
G01X00159Y00139D01*
G01X00159Y00139D02*
G01X00161Y00137D01*
G01X00161Y00137D02*
G01X00163Y00133D01*
G01X00163Y00133D02*
G01X00163Y00122D01*
G01X00163Y00122D02*
G01X00161Y00118D01*
G01X00161Y00118D02*
G01X00159Y00116D01*
G01X00159Y00158D02*
G01X00161Y00160D01*
G01X00161Y00160D02*
G01X00163Y00158D01*
G01X00163Y00158D02*
G01X00161Y00156D01*
G01X00161Y00156D02*
G01X00159Y00158D01*
G01X00159Y00158D02*
G01X00163Y00158D01*
G01X00161Y00194D02*
G01X00163Y00190D01*
G01X00163Y00190D02*
G01X00163Y00183D01*
G01X00163Y00183D02*
G01X00161Y00179D01*
G01X00161Y00179D02*
G01X00159Y00177D01*
G01X00159Y00177D02*
G01X00156Y00175D01*
G01X00156Y00175D02*
G01X00144Y00175D01*
G01X00144Y00175D02*
G01X00140Y00177D01*
G01X00140Y00177D02*
G01X00138Y00179D01*
G01X00138Y00179D02*
G01X00137Y00183D01*
G01X00137Y00183D02*
G01X00137Y00190D01*
G01X00137Y00190D02*
G01X00138Y00194D01*
G01X00163Y00217D02*
G01X00161Y00213D01*
G01X00161Y00213D02*
G01X00159Y00211D01*
G01X00159Y00211D02*
G01X00156Y00209D01*
G01X00156Y00209D02*
G01X00144Y00209D01*
G01X00144Y00209D02*
G01X00140Y00211D01*
G01X00140Y00211D02*
G01X00138Y00213D01*
G01X00138Y00213D02*
G01X00137Y00217D01*
G01X00137Y00217D02*
G01X00137Y00223D01*
G01X00137Y00223D02*
G01X00138Y00227D01*
G01X00138Y00227D02*
G01X00140Y00229D01*
G01X00140Y00229D02*
G01X00144Y00230D01*
G01X00144Y00230D02*
G01X00156Y00230D01*
G01X00156Y00230D02*
G01X00159Y00229D01*
G01X00159Y00229D02*
G01X00161Y00227D01*
G01X00161Y00227D02*
G01X00163Y00223D01*
G01X00163Y00223D02*
G01X00163Y00217D01*
G01X00163Y00248D02*
G01X00137Y00248D01*
G01X00140Y00248D02*
G01X00138Y00249D01*
G01X00138Y00249D02*
G01X00137Y00253D01*
G01X00137Y00253D02*
G01X00137Y00259D01*
G01X00137Y00259D02*
G01X00138Y00263D01*
G01X00138Y00263D02*
G01X00142Y00265D01*
G01X00142Y00265D02*
G01X00163Y00265D01*
G01X00142Y00265D02*
G01X00138Y00267D01*
G01X00138Y00267D02*
G01X00137Y00270D01*
G01X00137Y00270D02*
G01X00137Y00276D01*
G01X00137Y00276D02*
G01X00138Y00280D01*
G01X00138Y00280D02*
G01X00142Y00282D01*
G01X00142Y00282D02*
G01X00163Y00282D01*
G54D12*
G01X00163Y00462D02*
G01X00144Y00452D01*
G01X00163Y00445D02*
G01X00123Y00445D01*
G01X00123Y00445D02*
G01X00123Y00456D01*
G01X00123Y00456D02*
G01X00125Y00459D01*
G01X00125Y00459D02*
G01X00127Y00461D01*
G01X00127Y00461D02*
G01X00131Y00462D01*
G01X00131Y00462D02*
G01X00137Y00462D01*
G01X00137Y00462D02*
G01X00140Y00461D01*
G01X00140Y00461D02*
G01X00142Y00459D01*
G01X00142Y00459D02*
G01X00144Y00456D01*
G01X00144Y00456D02*
G01X00144Y00445D01*
G01X00161Y00486D02*
G01X00163Y00483D01*
G01X00163Y00483D02*
G01X00163Y00478D01*
G01X00163Y00478D02*
G01X00161Y00475D01*
G01X00161Y00475D02*
G01X00158Y00473D01*
G01X00158Y00473D02*
G01X00142Y00473D01*
G01X00142Y00473D02*
G01X00138Y00475D01*
G01X00138Y00475D02*
G01X00137Y00478D01*
G01X00137Y00478D02*
G01X00137Y00483D01*
G01X00137Y00483D02*
G01X00138Y00486D01*
G01X00138Y00486D02*
G01X00142Y00488D01*
G01X00142Y00488D02*
G01X00146Y00488D01*
G01X00146Y00488D02*
G01X00150Y00473D01*
G01X00137Y00498D02*
G01X00163Y00505D01*
G01X00163Y00505D02*
G01X00137Y00512D01*
G54D14*
G01X00104Y00505D02*
G01X00104Y00459D01*
G54D12*
G01X00051Y00048D02*
G01X00051Y00051D01*
G01X00051Y00051D02*
G01X00053Y00055D01*
G01X00053Y00055D02*
G01X00055Y00056D01*
G01X00055Y00056D02*
G01X00058Y00058D01*
G01X00058Y00058D02*
G01X00065Y00060D01*
G01X00065Y00060D02*
G01X00073Y00060D01*
G01X00073Y00060D02*
G01X00080Y00058D01*
G01X00080Y00058D02*
G01X00083Y00056D01*
G01X00083Y00056D02*
G01X00085Y00055D01*
G01X00085Y00055D02*
G01X00086Y00051D01*
G01X00086Y00051D02*
G01X00086Y00048D01*
G01X00086Y00048D02*
G01X00085Y00045D01*
G01X00085Y00045D02*
G01X00083Y00043D01*
G01X00083Y00043D02*
G01X00080Y00041D01*
G01X00080Y00041D02*
G01X00073Y00040D01*
G01X00073Y00040D02*
G01X00065Y00040D01*
G01X00065Y00040D02*
G01X00058Y00041D01*
G01X00058Y00041D02*
G01X00055Y00043D01*
G01X00055Y00043D02*
G01X00053Y00045D01*
G01X00053Y00045D02*
G01X00051Y00048D01*
G01X00055Y00073D02*
G01X00053Y00075D01*
G01X00053Y00075D02*
G01X00051Y00078D01*
G01X00051Y00078D02*
G01X00051Y00086D01*
G01X00051Y00086D02*
G01X00053Y00090D01*
G01X00053Y00090D02*
G01X00055Y00091D01*
G01X00055Y00091D02*
G01X00058Y00093D01*
G01X00058Y00093D02*
G01X00061Y00093D01*
G01X00061Y00093D02*
G01X00066Y00091D01*
G01X00066Y00091D02*
G01X00086Y00071D01*
G01X00086Y00071D02*
G01X00086Y00093D01*
G01X00051Y00115D02*
G01X00051Y00118D01*
G01X00051Y00118D02*
G01X00053Y00121D01*
G01X00053Y00121D02*
G01X00055Y00123D01*
G01X00055Y00123D02*
G01X00058Y00125D01*
G01X00058Y00125D02*
G01X00065Y00126D01*
G01X00065Y00126D02*
G01X00073Y00126D01*
G01X00073Y00126D02*
G01X00080Y00125D01*
G01X00080Y00125D02*
G01X00083Y00123D01*
G01X00083Y00123D02*
G01X00085Y00121D01*
G01X00085Y00121D02*
G01X00086Y00118D01*
G01X00086Y00118D02*
G01X00086Y00115D01*
G01X00086Y00115D02*
G01X00085Y00111D01*
G01X00085Y00111D02*
G01X00083Y00110D01*
G01X00083Y00110D02*
G01X00080Y00108D01*
G01X00080Y00108D02*
G01X00073Y00106D01*
G01X00073Y00106D02*
G01X00065Y00106D01*
G01X00065Y00106D02*
G01X00058Y00108D01*
G01X00058Y00108D02*
G01X00055Y00110D01*
G01X00055Y00110D02*
G01X00053Y00111D01*
G01X00053Y00111D02*
G01X00051Y00115D01*
G01X00051Y00148D02*
G01X00051Y00151D01*
G01X00051Y00151D02*
G01X00053Y00155D01*
G01X00053Y00155D02*
G01X00055Y00156D01*
G01X00055Y00156D02*
G01X00058Y00158D01*
G01X00058Y00158D02*
G01X00065Y00160D01*
G01X00065Y00160D02*
G01X00073Y00160D01*
G01X00073Y00160D02*
G01X00080Y00158D01*
G01X00080Y00158D02*
G01X00083Y00156D01*
G01X00083Y00156D02*
G01X00085Y00155D01*
G01X00085Y00155D02*
G01X00086Y00151D01*
G01X00086Y00151D02*
G01X00086Y00148D01*
G01X00086Y00148D02*
G01X00085Y00145D01*
G01X00085Y00145D02*
G01X00083Y00143D01*
G01X00083Y00143D02*
G01X00080Y00141D01*
G01X00080Y00141D02*
G01X00073Y00140D01*
G01X00073Y00140D02*
G01X00065Y00140D01*
G01X00065Y00140D02*
G01X00058Y00141D01*
G01X00058Y00141D02*
G01X00055Y00143D01*
G01X00055Y00143D02*
G01X00053Y00145D01*
G01X00053Y00145D02*
G01X00051Y00148D01*
G01X00073Y00174D02*
G01X00073Y00201D01*
G01X00051Y00224D02*
G01X00051Y00228D01*
G01X00051Y00228D02*
G01X00053Y00231D01*
G01X00053Y00231D02*
G01X00055Y00233D01*
G01X00055Y00233D02*
G01X00058Y00234D01*
G01X00058Y00234D02*
G01X00065Y00236D01*
G01X00065Y00236D02*
G01X00073Y00236D01*
G01X00073Y00236D02*
G01X00080Y00234D01*
G01X00080Y00234D02*
G01X00083Y00233D01*
G01X00083Y00233D02*
G01X00085Y00231D01*
G01X00085Y00231D02*
G01X00086Y00228D01*
G01X00086Y00228D02*
G01X00086Y00224D01*
G01X00086Y00224D02*
G01X00085Y00221D01*
G01X00085Y00221D02*
G01X00083Y00219D01*
G01X00083Y00219D02*
G01X00080Y00218D01*
G01X00080Y00218D02*
G01X00073Y00216D01*
G01X00073Y00216D02*
G01X00065Y00216D01*
G01X00065Y00216D02*
G01X00058Y00218D01*
G01X00058Y00218D02*
G01X00055Y00219D01*
G01X00055Y00219D02*
G01X00053Y00221D01*
G01X00053Y00221D02*
G01X00051Y00224D01*
G01X00051Y00258D02*
G01X00051Y00261D01*
G01X00051Y00261D02*
G01X00053Y00264D01*
G01X00053Y00264D02*
G01X00055Y00266D01*
G01X00055Y00266D02*
G01X00058Y00268D01*
G01X00058Y00268D02*
G01X00065Y00269D01*
G01X00065Y00269D02*
G01X00073Y00269D01*
G01X00073Y00269D02*
G01X00080Y00268D01*
G01X00080Y00268D02*
G01X00083Y00266D01*
G01X00083Y00266D02*
G01X00085Y00264D01*
G01X00085Y00264D02*
G01X00086Y00261D01*
G01X00086Y00261D02*
G01X00086Y00258D01*
G01X00086Y00258D02*
G01X00085Y00254D01*
G01X00085Y00254D02*
G01X00083Y00253D01*
G01X00083Y00253D02*
G01X00080Y00251D01*
G01X00080Y00251D02*
G01X00073Y00249D01*
G01X00073Y00249D02*
G01X00065Y00249D01*
G01X00065Y00249D02*
G01X00058Y00251D01*
G01X00058Y00251D02*
G01X00055Y00253D01*
G01X00055Y00253D02*
G01X00053Y00254D01*
G01X00053Y00254D02*
G01X00051Y00258D01*
G01X00051Y00291D02*
G01X00051Y00294D01*
G01X00051Y00294D02*
G01X00053Y00298D01*
G01X00053Y00298D02*
G01X00055Y00299D01*
G01X00055Y00299D02*
G01X00058Y00301D01*
G01X00058Y00301D02*
G01X00065Y00303D01*
G01X00065Y00303D02*
G01X00073Y00303D01*
G01X00073Y00303D02*
G01X00080Y00301D01*
G01X00080Y00301D02*
G01X00083Y00299D01*
G01X00083Y00299D02*
G01X00085Y00298D01*
G01X00085Y00298D02*
G01X00086Y00294D01*
G01X00086Y00294D02*
G01X00086Y00291D01*
G01X00086Y00291D02*
G01X00085Y00288D01*
G01X00085Y00288D02*
G01X00083Y00286D01*
G01X00083Y00286D02*
G01X00080Y00284D01*
G01X00080Y00284D02*
G01X00073Y00283D01*
G01X00073Y00283D02*
G01X00065Y00283D01*
G01X00065Y00283D02*
G01X00058Y00284D01*
G01X00058Y00284D02*
G01X00055Y00286D01*
G01X00055Y00286D02*
G01X00053Y00288D01*
G01X00053Y00288D02*
G01X00051Y00291D01*
G01X00051Y00334D02*
G01X00051Y00318D01*
G01X00051Y00318D02*
G01X00068Y00316D01*
G01X00068Y00316D02*
G01X00066Y00318D01*
G01X00066Y00318D02*
G01X00065Y00321D01*
G01X00065Y00321D02*
G01X00065Y00329D01*
G01X00065Y00329D02*
G01X00066Y00333D01*
G01X00066Y00333D02*
G01X00068Y00334D01*
G01X00068Y00334D02*
G01X00071Y00336D01*
G01X00071Y00336D02*
G01X00080Y00336D01*
G01X00080Y00336D02*
G01X00083Y00334D01*
G01X00083Y00334D02*
G01X00085Y00333D01*
G01X00085Y00333D02*
G01X00086Y00329D01*
G01X00086Y00329D02*
G01X00086Y00321D01*
G01X00086Y00321D02*
G01X00085Y00318D01*
G01X00085Y00318D02*
G01X00083Y00316D01*
G01X00073Y00351D02*
G01X00073Y00378D01*
G01X00051Y00401D02*
G01X00051Y00404D01*
G01X00051Y00404D02*
G01X00053Y00408D01*
G01X00053Y00408D02*
G01X00055Y00409D01*
G01X00055Y00409D02*
G01X00058Y00411D01*
G01X00058Y00411D02*
G01X00065Y00413D01*
G01X00065Y00413D02*
G01X00073Y00413D01*
G01X00073Y00413D02*
G01X00080Y00411D01*
G01X00080Y00411D02*
G01X00083Y00409D01*
G01X00083Y00409D02*
G01X00085Y00408D01*
G01X00085Y00408D02*
G01X00086Y00404D01*
G01X00086Y00404D02*
G01X00086Y00401D01*
G01X00086Y00401D02*
G01X00085Y00398D01*
G01X00085Y00398D02*
G01X00083Y00396D01*
G01X00083Y00396D02*
G01X00080Y00394D01*
G01X00080Y00394D02*
G01X00073Y00393D01*
G01X00073Y00393D02*
G01X00065Y00393D01*
G01X00065Y00393D02*
G01X00058Y00394D01*
G01X00058Y00394D02*
G01X00055Y00396D01*
G01X00055Y00396D02*
G01X00053Y00398D01*
G01X00053Y00398D02*
G01X00051Y00401D01*
G01X00051Y00434D02*
G01X00051Y00438D01*
G01X00051Y00438D02*
G01X00053Y00441D01*
G01X00053Y00441D02*
G01X00055Y00443D01*
G01X00055Y00443D02*
G01X00058Y00444D01*
G01X00058Y00444D02*
G01X00065Y00446D01*
G01X00065Y00446D02*
G01X00073Y00446D01*
G01X00073Y00446D02*
G01X00080Y00444D01*
G01X00080Y00444D02*
G01X00083Y00443D01*
G01X00083Y00443D02*
G01X00085Y00441D01*
G01X00085Y00441D02*
G01X00086Y00438D01*
G01X00086Y00438D02*
G01X00086Y00434D01*
G01X00086Y00434D02*
G01X00085Y00431D01*
G01X00085Y00431D02*
G01X00083Y00429D01*
G01X00083Y00429D02*
G01X00080Y00428D01*
G01X00080Y00428D02*
G01X00073Y00426D01*
G01X00073Y00426D02*
G01X00065Y00426D01*
G01X00065Y00426D02*
G01X00058Y00428D01*
G01X00058Y00428D02*
G01X00055Y00429D01*
G01X00055Y00429D02*
G01X00053Y00431D01*
G01X00053Y00431D02*
G01X00051Y00434D01*
G01X00051Y00468D02*
G01X00051Y00471D01*
G01X00051Y00471D02*
G01X00053Y00474D01*
G01X00053Y00474D02*
G01X00055Y00476D01*
G01X00055Y00476D02*
G01X00058Y00478D01*
G01X00058Y00478D02*
G01X00065Y00479D01*
G01X00065Y00479D02*
G01X00073Y00479D01*
G01X00073Y00479D02*
G01X00080Y00478D01*
G01X00080Y00478D02*
G01X00083Y00476D01*
G01X00083Y00476D02*
G01X00085Y00474D01*
G01X00085Y00474D02*
G01X00086Y00471D01*
G01X00086Y00471D02*
G01X00086Y00468D01*
G01X00086Y00468D02*
G01X00085Y00464D01*
G01X00085Y00464D02*
G01X00083Y00463D01*
G01X00083Y00463D02*
G01X00080Y00461D01*
G01X00080Y00461D02*
G01X00073Y00459D01*
G01X00073Y00459D02*
G01X00065Y00459D01*
G01X00065Y00459D02*
G01X00058Y00461D01*
G01X00058Y00461D02*
G01X00055Y00463D01*
G01X00055Y00463D02*
G01X00053Y00464D01*
G01X00053Y00464D02*
G01X00051Y00468D01*
G01X00086Y00513D02*
G01X00086Y00493D01*
G01X00086Y00502D02*
G01X00051Y00502D01*
G01X00051Y00502D02*
G01X00056Y00499D01*
G01X00056Y00499D02*
G01X00060Y00496D01*
G01X00060Y00496D02*
G01X00061Y00493D01*
G54D15*
G01X01880Y00741D02*
G01X01888Y00733D01*
G01X01880Y00666D02*
G01X01880Y00741D01*
G01X01880Y00741D02*
G01X01872Y00733D01*
G01X01790Y00638D02*
G01X01782Y00630D01*
G01X01845Y00630D02*
G01X01782Y00630D01*
G01X01782Y00630D02*
G01X01790Y00623D01*
G54D13*
G01X01695Y00670D02*
G01X01695Y00880D01*
G01X01695Y00880D02*
G01X01840Y00880D01*
G01X01840Y00880D02*
G01X01840Y00670D01*
G01X01840Y00670D02*
G01X01695Y00670D01*
G54D15*
G01X01658Y00118D02*
G01X01650Y00122D01*
G01X01650Y00122D02*
G01X01658Y00126D01*
G54D16*
G01X01638Y00094D02*
G75*
G03X01650Y00122I-8980J07508D01*
G54D15*
G01X01564Y00114D02*
G01X01552Y00102D01*
G01X01619Y00102D02*
G01X01552Y00102D01*
G01X01552Y00102D02*
G01X01564Y00090D01*
G01X01658Y00212D02*
G01X01670Y00200D01*
G01X01658Y00141D02*
G01X01658Y00212D01*
G01X01658Y00212D02*
G01X01646Y00200D01*
G01X01461Y00141D02*
G01X01461Y00299D01*
G01X01461Y00299D02*
G01X01619Y00299D01*
G01X01619Y00299D02*
G01X01619Y00141D01*
G01X01619Y00141D02*
G01X01461Y00141D01*
G01X00119Y01220D02*
G01X00131Y01248D01*
G01X00131Y01248D02*
G01X00151Y01220D01*
G01X00151Y01220D02*
G01X00119Y01220D01*
G01X00119Y01220D02*
G01X00143Y01224D01*
G01X00143Y01224D02*
G01X00131Y01236D01*
G01X00131Y01236D02*
G01X00127Y01228D01*
G01X00127Y01228D02*
G01X00135Y01228D01*
G01X00135Y01228D02*
G01X00131Y01240D01*
G54D17*
G01X00092Y01260D02*
G01X00105Y01260D01*
G01X00105Y01260D02*
G01X00105Y01279D01*
G01X00092Y01279D02*
G01X00105Y01279D01*
G01X00092Y01260D02*
G01X00092Y01279D01*
G01X00067Y01260D02*
G01X00073Y01260D01*
G01X00073Y01260D02*
G01X00073Y01270D01*
G01X00067Y01270D02*
G01X00073Y01270D01*
G01X00067Y01260D02*
G01X00067Y01270D01*
G01X00087Y01260D02*
G01X00093Y01260D01*
G01X00093Y01260D02*
G01X00093Y01270D01*
G01X00087Y01270D02*
G01X00093Y01270D01*
G01X00087Y01260D02*
G01X00087Y01270D01*
G01X00072Y01260D02*
G01X00088Y01260D01*
G01X00088Y01260D02*
G01X00088Y01267D01*
G01X00072Y01267D02*
G01X00088Y01267D01*
G01X00072Y01260D02*
G01X00072Y01267D01*
G01X00092Y01201D02*
G01X00105Y01201D01*
G01X00105Y01201D02*
G01X00105Y01220D01*
G01X00092Y01220D02*
G01X00105Y01220D01*
G01X00092Y01201D02*
G01X00092Y01220D01*
G01X00055Y01201D02*
G01X00068Y01201D01*
G01X00068Y01201D02*
G01X00068Y01220D01*
G01X00055Y01220D02*
G01X00068Y01220D01*
G01X00055Y01201D02*
G01X00055Y01220D01*
G01X00087Y01211D02*
G01X00093Y01211D01*
G01X00093Y01211D02*
G01X00093Y01220D01*
G01X00087Y01220D02*
G01X00093Y01220D01*
G01X00087Y01211D02*
G01X00087Y01220D01*
G01X00067Y01211D02*
G01X00073Y01211D01*
G01X00073Y01211D02*
G01X00073Y01220D01*
G01X00067Y01220D02*
G01X00073Y01220D01*
G01X00067Y01211D02*
G01X00067Y01220D01*
G01X00072Y01214D02*
G01X00088Y01214D01*
G01X00088Y01214D02*
G01X00088Y01220D01*
G01X00072Y01220D02*
G01X00088Y01220D01*
G01X00072Y01214D02*
G01X00072Y01220D01*
G01X00076Y01240D02*
G01X00084Y01240D01*
G01X00084Y01240D02*
G01X00084Y01248D01*
G01X00076Y01248D02*
G01X00084Y01248D01*
G01X00076Y01240D02*
G01X00076Y01248D01*
G01X00056Y01260D02*
G01X00068Y01260D01*
G01X00068Y01260D02*
G01X00068Y01271D01*
G01X00056Y01271D02*
G01X00068Y01271D01*
G01X00056Y01260D02*
G01X00056Y01271D01*
G01X00055Y01276D02*
G01X00064Y01276D01*
G01X00064Y01276D02*
G01X00064Y01279D01*
G01X00055Y01279D02*
G01X00064Y01279D01*
G01X00055Y01276D02*
G01X00055Y01279D01*
G54D18*
G01X00103Y01261D02*
G01X00103Y01219D01*
G01X00057Y01220D02*
G01X00057Y01276D01*
G01X00066Y01279D02*
G75*
G03X00094Y01279I-8986J07500D01*
G54D20*
G01X00640Y00900D02*
G01X00640Y00600D01*
G01X00640Y00600D02*
G01X00340Y00600D01*
G01X00340Y00600D02*
G01X00340Y00900D01*
G01X00640Y00900D02*
G01X00340Y00900D01*
G54D21*
G01X01641Y01268D02*
G01X01341Y01268D01*
G01X01341Y01468D02*
G01X01641Y01468D01*
G01X01641Y01468D02*
G01X01641Y01268D01*
G01X01341Y01268D02*
G01X01341Y01468D01*
G54D15*
G01X00008Y00947D02*
G01X00008Y00557D01*
G01X00008Y00557D02*
G01X00142Y00557D01*
G01X00142Y00557D02*
G01X00142Y00604D01*
G01X00142Y00604D02*
G01X00241Y00604D01*
G01X00241Y00604D02*
G01X00241Y00896D01*
G01X00241Y00896D02*
G01X00146Y00896D01*
G01X00146Y00896D02*
G01X00146Y00947D01*
G01X00146Y00947D02*
G01X00008Y00947D01*
G54D14*
G01X01937Y01308D02*
G01X01953Y01276D01*
G01X01953Y01276D02*
G01X01969Y01308D01*
G01X01969Y01308D02*
G01X01937Y01308D01*
G01X01937Y01308D02*
G01X01961Y01292D01*
G54D17*
G01X01878Y01280D02*
G01X01865Y01280D01*
G01X01865Y01280D02*
G01X01865Y01261D01*
G01X01878Y01261D02*
G01X01865Y01261D01*
G01X01878Y01280D02*
G01X01878Y01261D01*
G01X01903Y01280D02*
G01X01897Y01280D01*
G01X01897Y01280D02*
G01X01897Y01271D01*
G01X01903Y01271D02*
G01X01897Y01271D01*
G01X01903Y01280D02*
G01X01903Y01271D01*
G01X01883Y01280D02*
G01X01877Y01280D01*
G01X01877Y01280D02*
G01X01877Y01271D01*
G01X01883Y01271D02*
G01X01877Y01271D01*
G01X01883Y01280D02*
G01X01883Y01271D01*
G01X01898Y01280D02*
G01X01882Y01280D01*
G01X01882Y01280D02*
G01X01882Y01274D01*
G01X01898Y01274D02*
G01X01882Y01274D01*
G01X01898Y01280D02*
G01X01898Y01274D01*
G01X01878Y01339D02*
G01X01865Y01339D01*
G01X01865Y01339D02*
G01X01865Y01320D01*
G01X01878Y01320D02*
G01X01865Y01320D01*
G01X01878Y01339D02*
G01X01878Y01320D01*
G01X01915Y01339D02*
G01X01902Y01339D01*
G01X01902Y01339D02*
G01X01902Y01320D01*
G01X01915Y01320D02*
G01X01902Y01320D01*
G01X01915Y01339D02*
G01X01915Y01320D01*
G01X01883Y01330D02*
G01X01877Y01330D01*
G01X01877Y01330D02*
G01X01877Y01320D01*
G01X01883Y01320D02*
G01X01877Y01320D01*
G01X01883Y01330D02*
G01X01883Y01320D01*
G01X01903Y01330D02*
G01X01897Y01330D01*
G01X01897Y01330D02*
G01X01897Y01320D01*
G01X01903Y01320D02*
G01X01897Y01320D01*
G01X01903Y01330D02*
G01X01903Y01320D01*
G01X01898Y01327D02*
G01X01882Y01327D01*
G01X01882Y01327D02*
G01X01882Y01320D01*
G01X01898Y01320D02*
G01X01882Y01320D01*
G01X01898Y01327D02*
G01X01898Y01320D01*
G01X01894Y01300D02*
G01X01886Y01300D01*
G01X01886Y01300D02*
G01X01886Y01292D01*
G01X01894Y01292D02*
G01X01886Y01292D01*
G01X01894Y01300D02*
G01X01894Y01292D01*
G01X01914Y01280D02*
G01X01902Y01280D01*
G01X01902Y01280D02*
G01X01902Y01269D01*
G01X01914Y01269D02*
G01X01902Y01269D01*
G01X01914Y01280D02*
G01X01914Y01269D01*
G01X01915Y01264D02*
G01X01906Y01264D01*
G01X01906Y01264D02*
G01X01906Y01261D01*
G01X01915Y01261D02*
G01X01906Y01261D01*
G01X01915Y01264D02*
G01X01915Y01261D01*
G54D18*
G01X01867Y01279D02*
G01X01867Y01321D01*
G01X01913Y01320D02*
G01X01913Y01264D01*
G01X01876Y01339D02*
G75*
G03X01904Y01339I-8986J07500D01*
G54D22*
G01X00822Y00849D02*
G01X00817Y00854D01*
G01X00780Y00807D02*
G01X00775Y00812D01*
G01X00864Y00723D02*
G01X00869Y00718D01*
G01X00906Y00765D02*
G01X00911Y00760D01*
G01X00775Y00812D02*
G01X00817Y00854D01*
G01X00911Y00760D02*
G01X00869Y00718D01*
G54D13*
G01X01140Y00595D02*
G01X01350Y00595D01*
G01X01350Y00595D02*
G01X01350Y00450D01*
G01X01350Y00450D02*
G01X01140Y00450D01*
G01X01140Y00450D02*
G01X01140Y00595D01*
G54D10*
G01X01238Y00971D02*
G01X01193Y00971D01*
G01X01238Y01189D02*
G01X01194Y01189D01*
G01X01238Y00971D02*
G01X01238Y01189D01*
G01X01150Y00924D02*
G01X01150Y00881D01*
G01X00929Y00923D02*
G01X00929Y00881D01*
G01X00928Y00881D02*
G01X01150Y00880D01*
G01X00930Y01278D02*
G01X01147Y01279D01*
G01X00887Y01209D02*
G01X00887Y00926D01*
G01X01148Y01278D02*
G01X01148Y01237D01*
G01X00912Y01233D02*
G01X01190Y01233D01*
G01X01192Y00925D02*
G01X01192Y01229D01*
G01X00887Y00925D02*
G01X01187Y00925D01*
G01X00842Y01192D02*
G01X00842Y00970D01*
G01X00842Y00970D02*
G01X00887Y00970D01*
G01X00887Y01210D02*
G01X00910Y01233D01*
G01X00842Y01192D02*
G01X00887Y01192D01*
G01X00930Y01233D02*
G01X00930Y01278D01*
G54D20*
G01X01062Y00360D02*
G01X01032Y00360D01*
G01X01032Y00360D02*
G01X01032Y00410D01*
G01X01032Y00410D02*
G01X01062Y00410D01*
G01X00657Y00490D02*
G01X01062Y00490D01*
G01X01062Y00280D02*
G01X00657Y00280D01*
G01X01062Y00280D02*
G01X01062Y00490D01*
G01X00657Y00280D02*
G01X00657Y00490D01*
G01X01531Y00718D02*
G01X01491Y00718D01*
G01X01491Y00718D02*
G01X01491Y00778D01*
G01X01491Y00778D02*
G01X01531Y00778D01*
G01X01571Y00778D02*
G01X01611Y00778D01*
G01X01611Y00778D02*
G01X01611Y00718D01*
G01X01611Y00718D02*
G01X01571Y00718D01*
G01X01790Y00110D02*
G01X01830Y00110D01*
G01X01830Y00110D02*
G01X01830Y00050D01*
G01X01830Y00050D02*
G01X01790Y00050D01*
G01X01750Y00050D02*
G01X01710Y00050D01*
G01X01710Y00050D02*
G01X01710Y00110D01*
G01X01710Y00110D02*
G01X01750Y00110D01*
G01X01500Y00420D02*
G01X01500Y00380D01*
G01X01500Y00380D02*
G01X01440Y00380D01*
G01X01440Y00380D02*
G01X01440Y00420D01*
G01X01440Y00460D02*
G01X01440Y00500D01*
G01X01440Y00500D02*
G01X01500Y00500D01*
G01X01500Y00500D02*
G01X01500Y00460D01*
G01X01750Y00540D02*
G01X01710Y00540D01*
G01X01710Y00540D02*
G01X01710Y00600D01*
G01X01710Y00600D02*
G01X01750Y00600D01*
G01X01790Y00600D02*
G01X01830Y00600D01*
G01X01830Y00600D02*
G01X01830Y00540D01*
G01X01830Y00540D02*
G01X01790Y00540D01*
G01X01890Y00870D02*
G01X01890Y00910D01*
G01X01890Y00910D02*
G01X01950Y00910D01*
G01X01950Y00910D02*
G01X01950Y00870D01*
G01X01950Y00830D02*
G01X01950Y00790D01*
G01X01950Y00790D02*
G01X01890Y00790D01*
G01X01890Y00790D02*
G01X01890Y00830D01*
G01X01750Y00930D02*
G01X01710Y00930D01*
G01X01710Y00930D02*
G01X01710Y00990D01*
G01X01710Y00990D02*
G01X01750Y00990D01*
G01X01790Y00990D02*
G01X01830Y00990D01*
G01X01830Y00990D02*
G01X01830Y00930D01*
G01X01830Y00930D02*
G01X01790Y00930D01*
G01X01330Y00710D02*
G01X01290Y00710D01*
G01X01290Y00710D02*
G01X01290Y00770D01*
G01X01290Y00770D02*
G01X01330Y00770D01*
G01X01370Y00770D02*
G01X01410Y00770D01*
G01X01410Y00770D02*
G01X01410Y00710D01*
G01X01410Y00710D02*
G01X01370Y00710D01*
G01X01531Y00600D02*
G01X01491Y00600D01*
G01X01491Y00600D02*
G01X01491Y00660D01*
G01X01491Y00660D02*
G01X01531Y00660D01*
G01X01571Y00660D02*
G01X01611Y00660D01*
G01X01611Y00660D02*
G01X01611Y00600D01*
G01X01611Y00600D02*
G01X01571Y00600D01*
G01X00735Y00131D02*
G01X00735Y00171D01*
G01X00735Y00171D02*
G01X00795Y00171D01*
G01X00795Y00171D02*
G01X00795Y00131D01*
G01X00795Y00091D02*
G01X00795Y00051D01*
G01X00795Y00051D02*
G01X00735Y00051D01*
G01X00735Y00051D02*
G01X00735Y00091D01*
G01X01750Y00170D02*
G01X01710Y00170D01*
G01X01710Y00170D02*
G01X01710Y00230D01*
G01X01710Y00230D02*
G01X01750Y00230D01*
G01X01790Y00230D02*
G01X01830Y00230D01*
G01X01830Y00230D02*
G01X01830Y00170D01*
G01X01830Y00170D02*
G01X01790Y00170D01*
G01X01610Y00420D02*
G01X01610Y00380D01*
G01X01610Y00380D02*
G01X01550Y00380D01*
G01X01550Y00380D02*
G01X01550Y00420D01*
G01X01550Y00460D02*
G01X01550Y00500D01*
G01X01550Y00500D02*
G01X01610Y00500D01*
G01X01610Y00500D02*
G01X01610Y00460D01*
G01X00864Y00134D02*
G01X00864Y00174D01*
G01X00864Y00174D02*
G01X00924Y00174D01*
G01X00924Y00174D02*
G01X00924Y00134D01*
G01X00924Y00094D02*
G01X00924Y00054D01*
G01X00924Y00054D02*
G01X00864Y00054D01*
G01X00864Y00054D02*
G01X00864Y00094D01*
G01X00320Y00810D02*
G01X00320Y00770D01*
G01X00320Y00770D02*
G01X00260Y00770D01*
G01X00260Y00770D02*
G01X00260Y00810D01*
G01X00260Y00850D02*
G01X00260Y00890D01*
G01X00260Y00890D02*
G01X00320Y00890D01*
G01X00320Y00890D02*
G01X00320Y00850D01*
G01X00971Y00612D02*
G01X00931Y00612D01*
G01X00931Y00612D02*
G01X00931Y00672D01*
G01X00931Y00672D02*
G01X00971Y00672D01*
G01X01011Y00672D02*
G01X01051Y00672D01*
G01X01051Y00672D02*
G01X01051Y00612D01*
G01X01051Y00612D02*
G01X01011Y00612D01*
G01X00820Y00670D02*
G01X00860Y00670D01*
G01X00860Y00670D02*
G01X00860Y00610D01*
G01X00860Y00610D02*
G01X00820Y00610D01*
G01X00780Y00610D02*
G01X00740Y00610D01*
G01X00740Y00610D02*
G01X00740Y00670D01*
G01X00740Y00670D02*
G01X00780Y00670D01*
G01X01790Y01440D02*
G01X01830Y01440D01*
G01X01830Y01440D02*
G01X01830Y01380D01*
G01X01830Y01380D02*
G01X01790Y01380D01*
G01X01750Y01380D02*
G01X01710Y01380D01*
G01X01710Y01380D02*
G01X01710Y01440D01*
G01X01710Y01440D02*
G01X01750Y01440D01*
G54D14*
G01X01622Y01034D02*
G01X01622Y01074D01*
G01X01622Y01074D02*
G01X01583Y01113D01*
G01X01583Y01113D02*
G01X01386Y01113D01*
G01X01386Y01113D02*
G01X01386Y01034D01*
G01X01386Y00956D02*
G01X01386Y00877D01*
G01X01386Y00877D02*
G01X01583Y00877D01*
G01X01583Y00877D02*
G01X01622Y00916D01*
G01X01622Y00916D02*
G01X01622Y00956D01*
G01X01358Y00209D02*
G01X01358Y00249D01*
G01X01358Y00249D02*
G01X01319Y00288D01*
G01X01319Y00288D02*
G01X01122Y00288D01*
G01X01122Y00288D02*
G01X01122Y00209D01*
G01X01122Y00131D02*
G01X01122Y00052D01*
G01X01122Y00052D02*
G01X01319Y00052D01*
G01X01319Y00052D02*
G01X01358Y00091D01*
G01X01358Y00091D02*
G01X01358Y00131D01*
G01X00588Y00209D02*
G01X00588Y00249D01*
G01X00588Y00249D02*
G01X00549Y00288D01*
G01X00549Y00288D02*
G01X00352Y00288D01*
G01X00352Y00288D02*
G01X00352Y00209D01*
G01X00352Y00131D02*
G01X00352Y00052D01*
G01X00352Y00052D02*
G01X00549Y00052D01*
G01X00549Y00052D02*
G01X00588Y00091D01*
G01X00588Y00091D02*
G01X00588Y00131D01*
G01X00673Y01169D02*
G01X00673Y01209D01*
G01X00673Y01209D02*
G01X00634Y01248D01*
G01X00634Y01248D02*
G01X00437Y01248D01*
G01X00437Y01248D02*
G01X00437Y01169D01*
G01X00437Y01091D02*
G01X00437Y01012D01*
G01X00437Y01012D02*
G01X00634Y01012D01*
G01X00634Y01012D02*
G01X00673Y01051D01*
G01X00673Y01051D02*
G01X00673Y01091D01*
G54D20*
G01X00050Y01080D02*
G01X00050Y01120D01*
G01X00050Y01120D02*
G01X00110Y01120D01*
G01X00110Y01120D02*
G01X00110Y01080D01*
G01X00110Y01040D02*
G01X00110Y01000D01*
G01X00110Y01000D02*
G01X00050Y01000D01*
G01X00050Y01000D02*
G01X00050Y01040D01*
G54D12*
G01X01636Y00767D02*
G01X01669Y00767D01*
G01X01669Y00767D02*
G01X01672Y00769D01*
G01X01672Y00769D02*
G01X01674Y00770D01*
G01X01674Y00770D02*
G01X01676Y00773D01*
G01X01676Y00773D02*
G01X01676Y00779D01*
G01X01676Y00779D02*
G01X01674Y00781D01*
G01X01674Y00781D02*
G01X01672Y00783D01*
G01X01672Y00783D02*
G01X01669Y00784D01*
G01X01669Y00784D02*
G01X01636Y00784D01*
G01X01676Y00814D02*
G01X01676Y00797D01*
G01X01676Y00806D02*
G01X01636Y00806D01*
G01X01636Y00806D02*
G01X01642Y00803D01*
G01X01642Y00803D02*
G01X01646Y00800D01*
G01X01646Y00800D02*
G01X01648Y00797D01*
G54D20*
G01X01868Y00588D02*
G01X01868Y00602D01*
G01X01868Y00602D02*
G01X01888Y00588D01*
G01X01888Y00588D02*
G01X01888Y00602D01*
G01X01820Y00646D02*
G01X01829Y00646D01*
G01X01809Y00640D02*
G01X01820Y00646D01*
G01X01820Y00646D02*
G01X01809Y00653D01*
G01X01853Y00703D02*
G01X01873Y00716D01*
G01X01853Y00716D02*
G01X01873Y00703D01*
G54D24*
G01X01406Y00190D02*
G01X01438Y00190D01*
G01X01438Y00190D02*
G01X01442Y00192D01*
G01X01442Y00192D02*
G01X01444Y00194D01*
G01X01444Y00194D02*
G01X01446Y00198D01*
G01X01446Y00198D02*
G01X01446Y00205D01*
G01X01446Y00205D02*
G01X01444Y00209D01*
G01X01444Y00209D02*
G01X01442Y00211D01*
G01X01442Y00211D02*
G01X01438Y00213D01*
G01X01438Y00213D02*
G01X01406Y00213D01*
G01X01406Y00228D02*
G01X01406Y00252D01*
G01X01406Y00252D02*
G01X01421Y00239D01*
G01X01421Y00239D02*
G01X01421Y00244D01*
G01X01421Y00244D02*
G01X01423Y00248D01*
G01X01423Y00248D02*
G01X01425Y00250D01*
G01X01425Y00250D02*
G01X01429Y00252D01*
G01X01429Y00252D02*
G01X01438Y00252D01*
G01X01438Y00252D02*
G01X01442Y00250D01*
G01X01442Y00250D02*
G01X01444Y00248D01*
G01X01444Y00248D02*
G01X01446Y00244D01*
G01X01446Y00244D02*
G01X01446Y00233D01*
G01X01446Y00233D02*
G01X01444Y00229D01*
G01X01444Y00229D02*
G01X01442Y00228D01*
G54D20*
G01X01654Y00052D02*
G01X01654Y00065D01*
G01X01654Y00065D02*
G01X01674Y00052D01*
G01X01674Y00052D02*
G01X01674Y00065D01*
G01X01631Y00166D02*
G01X01651Y00180D01*
G01X01631Y00180D02*
G01X01651Y00166D01*
G01X01598Y00082D02*
G01X01607Y00082D01*
G01X01587Y00076D02*
G01X01598Y00082D01*
G01X01598Y00082D02*
G01X01587Y00089D01*
G54D10*
G01X00061Y01324D02*
G01X00061Y01364D01*
G01X00083Y01324D02*
G01X00066Y01347D01*
G01X00083Y01364D02*
G01X00061Y01341D01*
G01X00122Y01324D02*
G01X00099Y01324D01*
G01X00110Y01324D02*
G01X00110Y01364D01*
G01X00110Y01364D02*
G01X00106Y01358D01*
G01X00106Y01358D02*
G01X00102Y01354D01*
G01X00102Y01354D02*
G01X00099Y01352D01*
G54D25*
G01X00143Y01338D02*
G01X00143Y01368D01*
G01X00143Y01368D02*
G01X00151Y01368D01*
G01X00151Y01368D02*
G01X00155Y01366D01*
G01X00155Y01366D02*
G01X00158Y01364D01*
G01X00158Y01364D02*
G01X00159Y01361D01*
G01X00159Y01361D02*
G01X00161Y01355D01*
G01X00161Y01355D02*
G01X00161Y01351D01*
G01X00161Y01351D02*
G01X00159Y01345D01*
G01X00159Y01345D02*
G01X00158Y01342D01*
G01X00158Y01342D02*
G01X00155Y01339D01*
G01X00155Y01339D02*
G01X00151Y01338D01*
G01X00151Y01338D02*
G01X00143Y01338D01*
G01X00172Y01365D02*
G01X00173Y01366D01*
G01X00173Y01366D02*
G01X00176Y01368D01*
G01X00176Y01368D02*
G01X00183Y01368D01*
G01X00183Y01368D02*
G01X00186Y01366D01*
G01X00186Y01366D02*
G01X00188Y01365D01*
G01X00188Y01365D02*
G01X00189Y01362D01*
G01X00189Y01362D02*
G01X00189Y01359D01*
G01X00189Y01359D02*
G01X00188Y01355D01*
G01X00188Y01355D02*
G01X00171Y01338D01*
G01X00171Y01338D02*
G01X00189Y01338D01*
G01X00248Y01338D02*
G01X00248Y01368D01*
G01X00248Y01368D02*
G01X00255Y01368D01*
G01X00255Y01368D02*
G01X00259Y01366D01*
G01X00259Y01366D02*
G01X00262Y01364D01*
G01X00262Y01364D02*
G01X00264Y01361D01*
G01X00264Y01361D02*
G01X00265Y01355D01*
G01X00265Y01355D02*
G01X00265Y01351D01*
G01X00265Y01351D02*
G01X00264Y01345D01*
G01X00264Y01345D02*
G01X00262Y01342D01*
G01X00262Y01342D02*
G01X00259Y01339D01*
G01X00259Y01339D02*
G01X00255Y01338D01*
G01X00255Y01338D02*
G01X00248Y01338D01*
G01X00275Y01368D02*
G01X00294Y01368D01*
G01X00294Y01368D02*
G01X00284Y01356D01*
G01X00284Y01356D02*
G01X00288Y01356D01*
G01X00288Y01356D02*
G01X00291Y01355D01*
G01X00291Y01355D02*
G01X00292Y01354D01*
G01X00292Y01354D02*
G01X00294Y01351D01*
G01X00294Y01351D02*
G01X00294Y01344D01*
G01X00294Y01344D02*
G01X00292Y01341D01*
G01X00292Y01341D02*
G01X00291Y01339D01*
G01X00291Y01339D02*
G01X00288Y01338D01*
G01X00288Y01338D02*
G01X00279Y01338D01*
G01X00279Y01338D02*
G01X00276Y01339D01*
G01X00276Y01339D02*
G01X00275Y01341D01*
G01X00352Y01338D02*
G01X00352Y01368D01*
G01X00352Y01368D02*
G01X00359Y01368D01*
G01X00359Y01368D02*
G01X00364Y01366D01*
G01X00364Y01366D02*
G01X00367Y01364D01*
G01X00367Y01364D02*
G01X00368Y01361D01*
G01X00368Y01361D02*
G01X00369Y01355D01*
G01X00369Y01355D02*
G01X00369Y01351D01*
G01X00369Y01351D02*
G01X00368Y01345D01*
G01X00368Y01345D02*
G01X00367Y01342D01*
G01X00367Y01342D02*
G01X00364Y01339D01*
G01X00364Y01339D02*
G01X00359Y01338D01*
G01X00359Y01338D02*
G01X00352Y01338D01*
G01X00395Y01358D02*
G01X00395Y01338D01*
G01X00388Y01369D02*
G01X00381Y01348D01*
G01X00381Y01348D02*
G01X00399Y01348D01*
G54D21*
G01X00961Y01374D02*
G01X00961Y01414D01*
G01X00961Y01414D02*
G01X00976Y01414D01*
G01X00976Y01414D02*
G01X00980Y01412D01*
G01X00980Y01412D02*
G01X00982Y01410D01*
G01X00982Y01410D02*
G01X00983Y01406D01*
G01X00983Y01406D02*
G01X00983Y01401D01*
G01X00983Y01401D02*
G01X00982Y01397D01*
G01X00982Y01397D02*
G01X00980Y01395D01*
G01X00980Y01395D02*
G01X00976Y01393D01*
G01X00976Y01393D02*
G01X00961Y01393D01*
G01X00999Y01410D02*
G01X01001Y01412D01*
G01X01001Y01412D02*
G01X01004Y01414D01*
G01X01004Y01414D02*
G01X01014Y01414D01*
G01X01014Y01414D02*
G01X01018Y01412D01*
G01X01018Y01412D02*
G01X01020Y01410D01*
G01X01020Y01410D02*
G01X01022Y01406D01*
G01X01022Y01406D02*
G01X01022Y01402D01*
G01X01022Y01402D02*
G01X01020Y01397D01*
G01X01020Y01397D02*
G01X00997Y01374D01*
G01X00997Y01374D02*
G01X01022Y01374D01*
G54D25*
G01X00463Y01339D02*
G01X00463Y01369D01*
G01X00463Y01369D02*
G01X00470Y01369D01*
G01X00470Y01369D02*
G01X00474Y01367D01*
G01X00474Y01367D02*
G01X00477Y01365D01*
G01X00477Y01365D02*
G01X00479Y01362D01*
G01X00479Y01362D02*
G01X00480Y01356D01*
G01X00480Y01356D02*
G01X00480Y01352D01*
G01X00480Y01352D02*
G01X00479Y01346D01*
G01X00479Y01346D02*
G01X00477Y01343D01*
G01X00477Y01343D02*
G01X00474Y01340D01*
G01X00474Y01340D02*
G01X00470Y01339D01*
G01X00470Y01339D02*
G01X00463Y01339D01*
G01X00507Y01369D02*
G01X00493Y01369D01*
G01X00493Y01369D02*
G01X00492Y01355D01*
G01X00492Y01355D02*
G01X00493Y01356D01*
G01X00493Y01356D02*
G01X00496Y01357D01*
G01X00496Y01357D02*
G01X00503Y01357D01*
G01X00503Y01357D02*
G01X00506Y01356D01*
G01X00506Y01356D02*
G01X00507Y01355D01*
G01X00507Y01355D02*
G01X00509Y01352D01*
G01X00509Y01352D02*
G01X00509Y01345D01*
G01X00509Y01345D02*
G01X00507Y01342D01*
G01X00507Y01342D02*
G01X00506Y01340D01*
G01X00506Y01340D02*
G01X00503Y01339D01*
G01X00503Y01339D02*
G01X00496Y01339D01*
G01X00496Y01339D02*
G01X00493Y01340D01*
G01X00493Y01340D02*
G01X00492Y01342D01*
G01X00567Y01339D02*
G01X00567Y01369D01*
G01X00567Y01369D02*
G01X00575Y01369D01*
G01X00575Y01369D02*
G01X00579Y01367D01*
G01X00579Y01367D02*
G01X00582Y01365D01*
G01X00582Y01365D02*
G01X00583Y01362D01*
G01X00583Y01362D02*
G01X00585Y01356D01*
G01X00585Y01356D02*
G01X00585Y01352D01*
G01X00585Y01352D02*
G01X00583Y01346D01*
G01X00583Y01346D02*
G01X00582Y01343D01*
G01X00582Y01343D02*
G01X00579Y01340D01*
G01X00579Y01340D02*
G01X00575Y01339D01*
G01X00575Y01339D02*
G01X00567Y01339D01*
G01X00610Y01369D02*
G01X00605Y01369D01*
G01X00605Y01369D02*
G01X00602Y01367D01*
G01X00602Y01367D02*
G01X00600Y01366D01*
G01X00600Y01366D02*
G01X00597Y01362D01*
G01X00597Y01362D02*
G01X00596Y01356D01*
G01X00596Y01356D02*
G01X00596Y01345D01*
G01X00596Y01345D02*
G01X00597Y01342D01*
G01X00597Y01342D02*
G01X00599Y01340D01*
G01X00599Y01340D02*
G01X00602Y01339D01*
G01X00602Y01339D02*
G01X00607Y01339D01*
G01X00607Y01339D02*
G01X00610Y01340D01*
G01X00610Y01340D02*
G01X00612Y01342D01*
G01X00612Y01342D02*
G01X00613Y01345D01*
G01X00613Y01345D02*
G01X00613Y01352D01*
G01X00613Y01352D02*
G01X00612Y01355D01*
G01X00612Y01355D02*
G01X00610Y01356D01*
G01X00610Y01356D02*
G01X00607Y01357D01*
G01X00607Y01357D02*
G01X00602Y01357D01*
G01X00602Y01357D02*
G01X00599Y01356D01*
G01X00599Y01356D02*
G01X00597Y01355D01*
G01X00597Y01355D02*
G01X00596Y01352D01*
G01X00672Y01339D02*
G01X00672Y01369D01*
G01X00672Y01369D02*
G01X00679Y01369D01*
G01X00679Y01369D02*
G01X00683Y01367D01*
G01X00683Y01367D02*
G01X00686Y01365D01*
G01X00686Y01365D02*
G01X00688Y01362D01*
G01X00688Y01362D02*
G01X00689Y01356D01*
G01X00689Y01356D02*
G01X00689Y01352D01*
G01X00689Y01352D02*
G01X00688Y01346D01*
G01X00688Y01346D02*
G01X00686Y01343D01*
G01X00686Y01343D02*
G01X00683Y01340D01*
G01X00683Y01340D02*
G01X00679Y01339D01*
G01X00679Y01339D02*
G01X00672Y01339D01*
G01X00699Y01369D02*
G01X00719Y01369D01*
G01X00719Y01369D02*
G01X00706Y01339D01*
G01X00776Y01339D02*
G01X00776Y01369D01*
G01X00776Y01369D02*
G01X00783Y01369D01*
G01X00783Y01369D02*
G01X00788Y01367D01*
G01X00788Y01367D02*
G01X00790Y01365D01*
G01X00790Y01365D02*
G01X00792Y01362D01*
G01X00792Y01362D02*
G01X00793Y01356D01*
G01X00793Y01356D02*
G01X00793Y01352D01*
G01X00793Y01352D02*
G01X00792Y01346D01*
G01X00792Y01346D02*
G01X00790Y01343D01*
G01X00790Y01343D02*
G01X00788Y01340D01*
G01X00788Y01340D02*
G01X00783Y01339D01*
G01X00783Y01339D02*
G01X00776Y01339D01*
G01X00810Y01356D02*
G01X00808Y01357D01*
G01X00808Y01357D02*
G01X00806Y01359D01*
G01X00806Y01359D02*
G01X00805Y01362D01*
G01X00805Y01362D02*
G01X00805Y01363D01*
G01X00805Y01363D02*
G01X00806Y01366D01*
G01X00806Y01366D02*
G01X00808Y01367D01*
G01X00808Y01367D02*
G01X00810Y01369D01*
G01X00810Y01369D02*
G01X00816Y01369D01*
G01X00816Y01369D02*
G01X00819Y01367D01*
G01X00819Y01367D02*
G01X00820Y01366D01*
G01X00820Y01366D02*
G01X00822Y01363D01*
G01X00822Y01363D02*
G01X00822Y01362D01*
G01X00822Y01362D02*
G01X00820Y01359D01*
G01X00820Y01359D02*
G01X00819Y01357D01*
G01X00819Y01357D02*
G01X00816Y01356D01*
G01X00816Y01356D02*
G01X00810Y01356D01*
G01X00810Y01356D02*
G01X00808Y01355D01*
G01X00808Y01355D02*
G01X00806Y01353D01*
G01X00806Y01353D02*
G01X00805Y01350D01*
G01X00805Y01350D02*
G01X00805Y01345D01*
G01X00805Y01345D02*
G01X00806Y01342D01*
G01X00806Y01342D02*
G01X00808Y01340D01*
G01X00808Y01340D02*
G01X00810Y01339D01*
G01X00810Y01339D02*
G01X00816Y01339D01*
G01X00816Y01339D02*
G01X00819Y01340D01*
G01X00819Y01340D02*
G01X00820Y01342D01*
G01X00820Y01342D02*
G01X00822Y01345D01*
G01X00822Y01345D02*
G01X00822Y01350D01*
G01X00822Y01350D02*
G01X00820Y01353D01*
G01X00820Y01353D02*
G01X00819Y01355D01*
G01X00819Y01355D02*
G01X00816Y01356D01*
G01X00881Y01339D02*
G01X00881Y01369D01*
G01X00881Y01369D02*
G01X00888Y01369D01*
G01X00888Y01369D02*
G01X00892Y01367D01*
G01X00892Y01367D02*
G01X00895Y01365D01*
G01X00895Y01365D02*
G01X00896Y01362D01*
G01X00896Y01362D02*
G01X00898Y01356D01*
G01X00898Y01356D02*
G01X00898Y01352D01*
G01X00898Y01352D02*
G01X00896Y01346D01*
G01X00896Y01346D02*
G01X00895Y01343D01*
G01X00895Y01343D02*
G01X00892Y01340D01*
G01X00892Y01340D02*
G01X00888Y01339D01*
G01X00888Y01339D02*
G01X00881Y01339D01*
G01X00912Y01339D02*
G01X00918Y01339D01*
G01X00918Y01339D02*
G01X00921Y01340D01*
G01X00921Y01340D02*
G01X00922Y01342D01*
G01X00922Y01342D02*
G01X00925Y01346D01*
G01X00925Y01346D02*
G01X00926Y01352D01*
G01X00926Y01352D02*
G01X00926Y01363D01*
G01X00926Y01363D02*
G01X00925Y01366D01*
G01X00925Y01366D02*
G01X00923Y01367D01*
G01X00923Y01367D02*
G01X00921Y01369D01*
G01X00921Y01369D02*
G01X00915Y01369D01*
G01X00915Y01369D02*
G01X00912Y01367D01*
G01X00912Y01367D02*
G01X00911Y01366D01*
G01X00911Y01366D02*
G01X00909Y01363D01*
G01X00909Y01363D02*
G01X00909Y01356D01*
G01X00909Y01356D02*
G01X00911Y01353D01*
G01X00911Y01353D02*
G01X00912Y01352D01*
G01X00912Y01352D02*
G01X00915Y01350D01*
G01X00915Y01350D02*
G01X00921Y01350D01*
G01X00921Y01350D02*
G01X00923Y01352D01*
G01X00923Y01352D02*
G01X00925Y01353D01*
G01X00925Y01353D02*
G01X00926Y01356D01*
G54D20*
G01X00152Y01258D02*
G01X00122Y01258D01*
G01X00122Y01258D02*
G01X00122Y01265D01*
G01X00122Y01265D02*
G01X00124Y01269D01*
G01X00124Y01269D02*
G01X00126Y01272D01*
G01X00126Y01272D02*
G01X00129Y01274D01*
G01X00129Y01274D02*
G01X00135Y01275D01*
G01X00135Y01275D02*
G01X00139Y01275D01*
G01X00139Y01275D02*
G01X00145Y01274D01*
G01X00145Y01274D02*
G01X00148Y01272D01*
G01X00148Y01272D02*
G01X00151Y01269D01*
G01X00151Y01269D02*
G01X00152Y01265D01*
G01X00152Y01265D02*
G01X00152Y01258D01*
G01X00125Y01286D02*
G01X00124Y01288D01*
G01X00124Y01288D02*
G01X00122Y01291D01*
G01X00122Y01291D02*
G01X00122Y01298D01*
G01X00122Y01298D02*
G01X00124Y01301D01*
G01X00124Y01301D02*
G01X00125Y01302D01*
G01X00125Y01302D02*
G01X00128Y01304D01*
G01X00128Y01304D02*
G01X00131Y01304D01*
G01X00131Y01304D02*
G01X00135Y01302D01*
G01X00135Y01302D02*
G01X00152Y01285D01*
G01X00152Y01285D02*
G01X00152Y01304D01*
G54D21*
G01X00534Y00697D02*
G01X00536Y00702D01*
G01X00536Y00702D02*
G01X00536Y00712D01*
G01X00536Y00712D02*
G01X00534Y00716D01*
G01X00534Y00716D02*
G01X00532Y00718D01*
G01X00532Y00718D02*
G01X00529Y00720D01*
G01X00529Y00720D02*
G01X00525Y00720D01*
G01X00525Y00720D02*
G01X00521Y00718D01*
G01X00521Y00718D02*
G01X00519Y00716D01*
G01X00519Y00716D02*
G01X00517Y00712D01*
G01X00517Y00712D02*
G01X00515Y00704D01*
G01X00515Y00704D02*
G01X00513Y00701D01*
G01X00513Y00701D02*
G01X00511Y00699D01*
G01X00511Y00699D02*
G01X00508Y00697D01*
G01X00508Y00697D02*
G01X00504Y00697D01*
G01X00504Y00697D02*
G01X00500Y00699D01*
G01X00500Y00699D02*
G01X00498Y00701D01*
G01X00498Y00701D02*
G01X00496Y00704D01*
G01X00496Y00704D02*
G01X00496Y00714D01*
G01X00496Y00714D02*
G01X00498Y00720D01*
G01X00496Y00733D02*
G01X00536Y00742D01*
G01X00536Y00742D02*
G01X00508Y00750D01*
G01X00508Y00750D02*
G01X00536Y00758D01*
G01X00536Y00758D02*
G01X00496Y00767D01*
G01X00536Y00803D02*
G01X00536Y00781D01*
G01X00536Y00792D02*
G01X00496Y00792D01*
G01X00496Y00792D02*
G01X00502Y00788D01*
G01X00502Y00788D02*
G01X00506Y00784D01*
G01X00506Y00784D02*
G01X00508Y00781D01*
G54D13*
G01X00706Y00675D02*
G01X00680Y00675D01*
G01X00687Y00675D02*
G01X00683Y00677D01*
G01X00683Y00677D02*
G01X00681Y00679D01*
G01X00681Y00679D02*
G01X00680Y00683D01*
G01X00680Y00683D02*
G01X00680Y00687D01*
G01X00704Y00715D02*
G01X00706Y00712D01*
G01X00706Y00712D02*
G01X00706Y00704D01*
G01X00706Y00704D02*
G01X00704Y00700D01*
G01X00704Y00700D02*
G01X00701Y00698D01*
G01X00701Y00698D02*
G01X00685Y00698D01*
G01X00685Y00698D02*
G01X00681Y00700D01*
G01X00681Y00700D02*
G01X00680Y00704D01*
G01X00680Y00704D02*
G01X00680Y00712D01*
G01X00680Y00712D02*
G01X00681Y00715D01*
G01X00681Y00715D02*
G01X00685Y00717D01*
G01X00685Y00717D02*
G01X00689Y00717D01*
G01X00689Y00717D02*
G01X00693Y00698D01*
G01X00704Y00732D02*
G01X00706Y00736D01*
G01X00706Y00736D02*
G01X00706Y00744D01*
G01X00706Y00744D02*
G01X00704Y00748D01*
G01X00704Y00748D02*
G01X00701Y00750D01*
G01X00701Y00750D02*
G01X00699Y00750D01*
G01X00699Y00750D02*
G01X00695Y00748D01*
G01X00695Y00748D02*
G01X00693Y00744D01*
G01X00693Y00744D02*
G01X00693Y00738D01*
G01X00693Y00738D02*
G01X00691Y00734D01*
G01X00691Y00734D02*
G01X00687Y00732D01*
G01X00687Y00732D02*
G01X00685Y00732D01*
G01X00685Y00732D02*
G01X00681Y00734D01*
G01X00681Y00734D02*
G01X00680Y00738D01*
G01X00680Y00738D02*
G01X00680Y00744D01*
G01X00680Y00744D02*
G01X00681Y00748D01*
G01X00704Y00782D02*
G01X00706Y00778D01*
G01X00706Y00778D02*
G01X00706Y00771D01*
G01X00706Y00771D02*
G01X00704Y00767D01*
G01X00704Y00767D02*
G01X00701Y00765D01*
G01X00701Y00765D02*
G01X00685Y00765D01*
G01X00685Y00765D02*
G01X00681Y00767D01*
G01X00681Y00767D02*
G01X00680Y00771D01*
G01X00680Y00771D02*
G01X00680Y00778D01*
G01X00680Y00778D02*
G01X00681Y00782D01*
G01X00681Y00782D02*
G01X00685Y00784D01*
G01X00685Y00784D02*
G01X00689Y00784D01*
G01X00689Y00784D02*
G01X00693Y00765D01*
G01X00680Y00795D02*
G01X00680Y00811D01*
G01X00666Y00801D02*
G01X00701Y00801D01*
G01X00701Y00801D02*
G01X00704Y00803D01*
G01X00704Y00803D02*
G01X00706Y00807D01*
G01X00706Y00807D02*
G01X00706Y00811D01*
G54D21*
G01X01272Y01392D02*
G01X01272Y01432D01*
G01X01272Y01432D02*
G01X01287Y01432D01*
G01X01287Y01432D02*
G01X01291Y01430D01*
G01X01291Y01430D02*
G01X01293Y01428D01*
G01X01293Y01428D02*
G01X01294Y01424D01*
G01X01294Y01424D02*
G01X01294Y01419D01*
G01X01294Y01419D02*
G01X01293Y01415D01*
G01X01293Y01415D02*
G01X01291Y01413D01*
G01X01291Y01413D02*
G01X01287Y01411D01*
G01X01287Y01411D02*
G01X01272Y01411D01*
G01X01333Y01392D02*
G01X01310Y01392D01*
G01X01321Y01392D02*
G01X01321Y01432D01*
G01X01321Y01432D02*
G01X01317Y01426D01*
G01X01317Y01426D02*
G01X01313Y01422D01*
G01X01313Y01422D02*
G01X01310Y01420D01*
G54D11*
G01X01323Y01281D02*
G01X01289Y01281D01*
G01X01306Y01281D02*
G01X01306Y01341D01*
G01X01306Y01341D02*
G01X01300Y01332D01*
G01X01300Y01332D02*
G01X01295Y01326D01*
G01X01295Y01326D02*
G01X01289Y01324D01*
G01X01400Y01192D02*
G01X01400Y01252D01*
G01X01462Y01198D02*
G01X01460Y01195D01*
G01X01460Y01195D02*
G01X01451Y01192D01*
G01X01451Y01192D02*
G01X01445Y01192D01*
G01X01445Y01192D02*
G01X01437Y01195D01*
G01X01437Y01195D02*
G01X01431Y01201D01*
G01X01431Y01201D02*
G01X01428Y01207D01*
G01X01428Y01207D02*
G01X01425Y01218D01*
G01X01425Y01218D02*
G01X01425Y01227D01*
G01X01425Y01227D02*
G01X01428Y01238D01*
G01X01428Y01238D02*
G01X01431Y01244D01*
G01X01431Y01244D02*
G01X01437Y01249D01*
G01X01437Y01249D02*
G01X01445Y01252D01*
G01X01445Y01252D02*
G01X01451Y01252D01*
G01X01451Y01252D02*
G01X01460Y01249D01*
G01X01460Y01249D02*
G01X01462Y01247D01*
G01X01485Y01195D02*
G01X01494Y01192D01*
G01X01494Y01192D02*
G01X01508Y01192D01*
G01X01508Y01192D02*
G01X01514Y01195D01*
G01X01514Y01195D02*
G01X01517Y01198D01*
G01X01517Y01198D02*
G01X01520Y01204D01*
G01X01520Y01204D02*
G01X01520Y01209D01*
G01X01520Y01209D02*
G01X01517Y01215D01*
G01X01517Y01215D02*
G01X01514Y01218D01*
G01X01514Y01218D02*
G01X01508Y01221D01*
G01X01508Y01221D02*
G01X01497Y01224D01*
G01X01497Y01224D02*
G01X01491Y01227D01*
G01X01491Y01227D02*
G01X01488Y01229D01*
G01X01488Y01229D02*
G01X01485Y01235D01*
G01X01485Y01235D02*
G01X01485Y01241D01*
G01X01485Y01241D02*
G01X01488Y01247D01*
G01X01488Y01247D02*
G01X01491Y01249D01*
G01X01491Y01249D02*
G01X01497Y01252D01*
G01X01497Y01252D02*
G01X01511Y01252D01*
G01X01511Y01252D02*
G01X01520Y01249D01*
G01X01545Y01192D02*
G01X01545Y01252D01*
G01X01545Y01252D02*
G01X01568Y01252D01*
G01X01568Y01252D02*
G01X01574Y01249D01*
G01X01574Y01249D02*
G01X01577Y01247D01*
G01X01577Y01247D02*
G01X01580Y01241D01*
G01X01580Y01241D02*
G01X01580Y01232D01*
G01X01580Y01232D02*
G01X01577Y01227D01*
G01X01577Y01227D02*
G01X01574Y01224D01*
G01X01574Y01224D02*
G01X01568Y01221D01*
G01X01568Y01221D02*
G01X01545Y01221D01*
G54D20*
G01X01902Y01168D02*
G01X01872Y01168D01*
G01X01872Y01168D02*
G01X01872Y01175D01*
G01X01872Y01175D02*
G01X01874Y01179D01*
G01X01874Y01179D02*
G01X01876Y01182D01*
G01X01876Y01182D02*
G01X01879Y01183D01*
G01X01879Y01183D02*
G01X01885Y01185D01*
G01X01885Y01185D02*
G01X01889Y01185D01*
G01X01889Y01185D02*
G01X01895Y01183D01*
G01X01895Y01183D02*
G01X01898Y01182D01*
G01X01898Y01182D02*
G01X01901Y01179D01*
G01X01901Y01179D02*
G01X01902Y01175D01*
G01X01902Y01175D02*
G01X01902Y01168D01*
G01X01902Y01213D02*
G01X01902Y01196D01*
G01X01902Y01205D02*
G01X01872Y01205D01*
G01X01872Y01205D02*
G01X01876Y01202D01*
G01X01876Y01202D02*
G01X01879Y01199D01*
G01X01879Y01199D02*
G01X01881Y01196D01*
G54D11*
G01X00890Y00901D02*
G01X00875Y00830D01*
G01X00918Y00873D02*
G01X00847Y00859D01*
G01X00914Y00792D02*
G01X00890Y00816D01*
G01X00902Y00804D02*
G01X00944Y00847D01*
G01X00944Y00847D02*
G01X00934Y00845D01*
G01X00934Y00845D02*
G01X00926Y00845D01*
G01X00926Y00845D02*
G01X00920Y00847D01*
G54D12*
G01X01227Y00564D02*
G01X01227Y00531D01*
G01X01227Y00531D02*
G01X01229Y00527D01*
G01X01229Y00527D02*
G01X01230Y00525D01*
G01X01230Y00525D02*
G01X01233Y00524D01*
G01X01233Y00524D02*
G01X01239Y00524D01*
G01X01239Y00524D02*
G01X01241Y00525D01*
G01X01241Y00525D02*
G01X01243Y00527D01*
G01X01243Y00527D02*
G01X01244Y00531D01*
G01X01244Y00531D02*
G01X01244Y00564D01*
G01X01257Y00560D02*
G01X01259Y00562D01*
G01X01259Y00562D02*
G01X01261Y00564D01*
G01X01261Y00564D02*
G01X01269Y00564D01*
G01X01269Y00564D02*
G01X01271Y00562D01*
G01X01271Y00562D02*
G01X01273Y00560D01*
G01X01273Y00560D02*
G01X01274Y00556D01*
G01X01274Y00556D02*
G01X01274Y00552D01*
G01X01274Y00552D02*
G01X01273Y00546D01*
G01X01273Y00546D02*
G01X01256Y00524D01*
G01X01256Y00524D02*
G01X01274Y00524D01*
G54D21*
G01X01131Y01328D02*
G01X01131Y01378D01*
G01X01173Y01333D02*
G01X01171Y01330D01*
G01X01171Y01330D02*
G01X01165Y01328D01*
G01X01165Y01328D02*
G01X01162Y01328D01*
G01X01162Y01328D02*
G01X01156Y01330D01*
G01X01156Y01330D02*
G01X01152Y01335D01*
G01X01152Y01335D02*
G01X01150Y01340D01*
G01X01150Y01340D02*
G01X01148Y01349D01*
G01X01148Y01349D02*
G01X01148Y01356D01*
G01X01148Y01356D02*
G01X01150Y01366D01*
G01X01150Y01366D02*
G01X01152Y01371D01*
G01X01152Y01371D02*
G01X01156Y01375D01*
G01X01156Y01375D02*
G01X01162Y01378D01*
G01X01162Y01378D02*
G01X01165Y01378D01*
G01X01165Y01378D02*
G01X01171Y01375D01*
G01X01171Y01375D02*
G01X01173Y01373D01*
G01X01211Y01328D02*
G01X01188Y01328D01*
G01X01200Y01328D02*
G01X01200Y01378D01*
G01X01200Y01378D02*
G01X01196Y01371D01*
G01X01196Y01371D02*
G01X01192Y01366D01*
G01X01192Y01366D02*
G01X01188Y01364D01*
G54D20*
G01X00834Y00343D02*
G01X00834Y00318D01*
G01X00834Y00318D02*
G01X00836Y00316D01*
G01X00836Y00316D02*
G01X00837Y00314D01*
G01X00837Y00314D02*
G01X00840Y00313D01*
G01X00840Y00313D02*
G01X00846Y00313D01*
G01X00846Y00313D02*
G01X00849Y00314D01*
G01X00849Y00314D02*
G01X00850Y00316D01*
G01X00850Y00316D02*
G01X00852Y00318D01*
G01X00852Y00318D02*
G01X00852Y00343D01*
G01X00879Y00333D02*
G01X00879Y00313D01*
G01X00872Y00344D02*
G01X00864Y00323D01*
G01X00864Y00323D02*
G01X00883Y00323D01*
G01X00785Y00410D02*
G01X00775Y00410D01*
G01X00775Y00395D02*
G01X00775Y00425D01*
G01X00775Y00425D02*
G01X00789Y00425D01*
G01X00797Y00425D02*
G01X00814Y00425D01*
G01X00805Y00395D02*
G01X00805Y00425D01*
G01X00822Y00422D02*
G01X00824Y00423D01*
G01X00824Y00423D02*
G01X00827Y00425D01*
G01X00827Y00425D02*
G01X00834Y00425D01*
G01X00834Y00425D02*
G01X00837Y00423D01*
G01X00837Y00423D02*
G01X00838Y00422D01*
G01X00838Y00422D02*
G01X00839Y00419D01*
G01X00839Y00419D02*
G01X00839Y00416D01*
G01X00839Y00416D02*
G01X00838Y00412D01*
G01X00838Y00412D02*
G01X00821Y00395D01*
G01X00821Y00395D02*
G01X00839Y00395D01*
G01X00849Y00425D02*
G01X00868Y00425D01*
G01X00868Y00425D02*
G01X00858Y00413D01*
G01X00858Y00413D02*
G01X00862Y00413D01*
G01X00862Y00413D02*
G01X00865Y00412D01*
G01X00865Y00412D02*
G01X00867Y00410D01*
G01X00867Y00410D02*
G01X00868Y00408D01*
G01X00868Y00408D02*
G01X00868Y00400D01*
G01X00868Y00400D02*
G01X00867Y00398D01*
G01X00867Y00398D02*
G01X00865Y00396D01*
G01X00865Y00396D02*
G01X00862Y00395D01*
G01X00862Y00395D02*
G01X00854Y00395D01*
G01X00854Y00395D02*
G01X00851Y00396D01*
G01X00851Y00396D02*
G01X00849Y00398D01*
G01X00879Y00422D02*
G01X00881Y00423D01*
G01X00881Y00423D02*
G01X00884Y00425D01*
G01X00884Y00425D02*
G01X00891Y00425D01*
G01X00891Y00425D02*
G01X00894Y00423D01*
G01X00894Y00423D02*
G01X00895Y00422D01*
G01X00895Y00422D02*
G01X00897Y00419D01*
G01X00897Y00419D02*
G01X00897Y00416D01*
G01X00897Y00416D02*
G01X00895Y00412D01*
G01X00895Y00412D02*
G01X00878Y00395D01*
G01X00878Y00395D02*
G01X00897Y00395D01*
G01X00927Y00395D02*
G01X00917Y00409D01*
G01X00909Y00395D02*
G01X00909Y00425D01*
G01X00909Y00425D02*
G01X00921Y00425D01*
G01X00921Y00425D02*
G01X00924Y00423D01*
G01X00924Y00423D02*
G01X00925Y00422D01*
G01X00925Y00422D02*
G01X00927Y00419D01*
G01X00927Y00419D02*
G01X00927Y00415D01*
G01X00927Y00415D02*
G01X00925Y00412D01*
G01X00925Y00412D02*
G01X00924Y00410D01*
G01X00924Y00410D02*
G01X00921Y00409D01*
G01X00921Y00409D02*
G01X00909Y00409D01*
G01X00954Y00395D02*
G01X00939Y00395D01*
G01X00939Y00395D02*
G01X00939Y00425D01*
G01X01453Y00738D02*
G01X01444Y00750D01*
G01X01438Y00738D02*
G01X01438Y00763D01*
G01X01438Y00763D02*
G01X01448Y00763D01*
G01X01448Y00763D02*
G01X01450Y00762D01*
G01X01450Y00762D02*
G01X01451Y00761D01*
G01X01451Y00761D02*
G01X01453Y00758D01*
G01X01453Y00758D02*
G01X01453Y00755D01*
G01X01453Y00755D02*
G01X01451Y00752D01*
G01X01451Y00752D02*
G01X01450Y00751D01*
G01X01450Y00751D02*
G01X01448Y00750D01*
G01X01448Y00750D02*
G01X01438Y00750D01*
G01X01462Y00761D02*
G01X01463Y00762D01*
G01X01463Y00762D02*
G01X01466Y00763D01*
G01X01466Y00763D02*
G01X01472Y00763D01*
G01X01472Y00763D02*
G01X01474Y00762D01*
G01X01474Y00762D02*
G01X01475Y00761D01*
G01X01475Y00761D02*
G01X01476Y00758D01*
G01X01476Y00758D02*
G01X01476Y00756D01*
G01X01476Y00756D02*
G01X01475Y00752D01*
G01X01475Y00752D02*
G01X01461Y00738D01*
G01X01461Y00738D02*
G01X01476Y00738D01*
G01X01860Y00070D02*
G01X01852Y00082D01*
G01X01846Y00070D02*
G01X01846Y00095D01*
G01X01846Y00095D02*
G01X01856Y00095D01*
G01X01856Y00095D02*
G01X01858Y00094D01*
G01X01858Y00094D02*
G01X01859Y00093D01*
G01X01859Y00093D02*
G01X01860Y00090D01*
G01X01860Y00090D02*
G01X01860Y00087D01*
G01X01860Y00087D02*
G01X01859Y00084D01*
G01X01859Y00084D02*
G01X01858Y00083D01*
G01X01858Y00083D02*
G01X01856Y00082D01*
G01X01856Y00082D02*
G01X01846Y00082D01*
G01X01884Y00070D02*
G01X01870Y00070D01*
G01X01877Y00070D02*
G01X01877Y00095D01*
G01X01877Y00095D02*
G01X01875Y00091D01*
G01X01875Y00091D02*
G01X01872Y00089D01*
G01X01872Y00089D02*
G01X01870Y00088D01*
G01X01478Y00341D02*
G01X01479Y00340D01*
G01X01479Y00340D02*
G01X01480Y00337D01*
G01X01480Y00337D02*
G01X01480Y00334D01*
G01X01480Y00334D02*
G01X01479Y00331D01*
G01X01479Y00331D02*
G01X01477Y00328D01*
G01X01477Y00328D02*
G01X01474Y00327D01*
G01X01474Y00327D02*
G01X01469Y00326D01*
G01X01469Y00326D02*
G01X01466Y00326D01*
G01X01466Y00326D02*
G01X01461Y00327D01*
G01X01461Y00327D02*
G01X01459Y00328D01*
G01X01459Y00328D02*
G01X01456Y00331D01*
G01X01456Y00331D02*
G01X01455Y00334D01*
G01X01455Y00334D02*
G01X01455Y00337D01*
G01X01455Y00337D02*
G01X01456Y00340D01*
G01X01456Y00340D02*
G01X01458Y00341D01*
G01X01480Y00365D02*
G01X01480Y00351D01*
G01X01480Y00358D02*
G01X01455Y00358D01*
G01X01455Y00358D02*
G01X01459Y00356D01*
G01X01459Y00356D02*
G01X01461Y00353D01*
G01X01461Y00353D02*
G01X01462Y00351D01*
G01X01671Y00562D02*
G01X01670Y00561D01*
G01X01670Y00561D02*
G01X01667Y00560D01*
G01X01667Y00560D02*
G01X01664Y00560D01*
G01X01664Y00560D02*
G01X01661Y00561D01*
G01X01661Y00561D02*
G01X01658Y00564D01*
G01X01658Y00564D02*
G01X01657Y00566D01*
G01X01657Y00566D02*
G01X01656Y00571D01*
G01X01656Y00571D02*
G01X01656Y00574D01*
G01X01656Y00574D02*
G01X01657Y00579D01*
G01X01657Y00579D02*
G01X01658Y00581D01*
G01X01658Y00581D02*
G01X01661Y00584D01*
G01X01661Y00584D02*
G01X01664Y00585D01*
G01X01664Y00585D02*
G01X01667Y00585D01*
G01X01667Y00585D02*
G01X01670Y00584D01*
G01X01670Y00584D02*
G01X01671Y00583D01*
G01X01680Y00585D02*
G01X01696Y00585D01*
G01X01696Y00585D02*
G01X01686Y00560D01*
G01X01928Y00940D02*
G01X01929Y00939D01*
G01X01929Y00939D02*
G01X01930Y00936D01*
G01X01930Y00936D02*
G01X01930Y00933D01*
G01X01930Y00933D02*
G01X01929Y00930D01*
G01X01929Y00930D02*
G01X01927Y00927D01*
G01X01927Y00927D02*
G01X01924Y00926D01*
G01X01924Y00926D02*
G01X01919Y00925D01*
G01X01919Y00925D02*
G01X01916Y00925D01*
G01X01916Y00925D02*
G01X01911Y00926D01*
G01X01911Y00926D02*
G01X01909Y00927D01*
G01X01909Y00927D02*
G01X01906Y00930D01*
G01X01906Y00930D02*
G01X01905Y00933D01*
G01X01905Y00933D02*
G01X01905Y00936D01*
G01X01905Y00936D02*
G01X01906Y00939D01*
G01X01906Y00939D02*
G01X01908Y00940D01*
G01X01908Y00950D02*
G01X01906Y00951D01*
G01X01906Y00951D02*
G01X01905Y00953D01*
G01X01905Y00953D02*
G01X01905Y00959D01*
G01X01905Y00959D02*
G01X01906Y00962D01*
G01X01906Y00962D02*
G01X01908Y00963D01*
G01X01908Y00963D02*
G01X01910Y00964D01*
G01X01910Y00964D02*
G01X01912Y00964D01*
G01X01912Y00964D02*
G01X01916Y00963D01*
G01X01916Y00963D02*
G01X01930Y00949D01*
G01X01930Y00949D02*
G01X01930Y00964D01*
G01X01671Y00952D02*
G01X01670Y00951D01*
G01X01670Y00951D02*
G01X01667Y00950D01*
G01X01667Y00950D02*
G01X01664Y00950D01*
G01X01664Y00950D02*
G01X01661Y00951D01*
G01X01661Y00951D02*
G01X01658Y00954D01*
G01X01658Y00954D02*
G01X01657Y00956D01*
G01X01657Y00956D02*
G01X01656Y00961D01*
G01X01656Y00961D02*
G01X01656Y00964D01*
G01X01656Y00964D02*
G01X01657Y00969D01*
G01X01657Y00969D02*
G01X01658Y00971D01*
G01X01658Y00971D02*
G01X01661Y00974D01*
G01X01661Y00974D02*
G01X01664Y00975D01*
G01X01664Y00975D02*
G01X01667Y00975D01*
G01X01667Y00975D02*
G01X01670Y00974D01*
G01X01670Y00974D02*
G01X01671Y00973D01*
G01X01683Y00950D02*
G01X01688Y00950D01*
G01X01688Y00950D02*
G01X01690Y00951D01*
G01X01690Y00951D02*
G01X01692Y00952D01*
G01X01692Y00952D02*
G01X01694Y00956D01*
G01X01694Y00956D02*
G01X01695Y00961D01*
G01X01695Y00961D02*
G01X01695Y00970D01*
G01X01695Y00970D02*
G01X01694Y00973D01*
G01X01694Y00973D02*
G01X01693Y00974D01*
G01X01693Y00974D02*
G01X01690Y00975D01*
G01X01690Y00975D02*
G01X01686Y00975D01*
G01X01686Y00975D02*
G01X01683Y00974D01*
G01X01683Y00974D02*
G01X01682Y00973D01*
G01X01682Y00973D02*
G01X01681Y00970D01*
G01X01681Y00970D02*
G01X01681Y00964D01*
G01X01681Y00964D02*
G01X01682Y00962D01*
G01X01682Y00962D02*
G01X01683Y00961D01*
G01X01683Y00961D02*
G01X01686Y00959D01*
G01X01686Y00959D02*
G01X01690Y00959D01*
G01X01690Y00959D02*
G01X01693Y00961D01*
G01X01693Y00961D02*
G01X01694Y00962D01*
G01X01694Y00962D02*
G01X01695Y00964D01*
G01X01251Y00732D02*
G01X01250Y00731D01*
G01X01250Y00731D02*
G01X01247Y00730D01*
G01X01247Y00730D02*
G01X01244Y00730D01*
G01X01244Y00730D02*
G01X01241Y00731D01*
G01X01241Y00731D02*
G01X01238Y00734D01*
G01X01238Y00734D02*
G01X01237Y00736D01*
G01X01237Y00736D02*
G01X01236Y00741D01*
G01X01236Y00741D02*
G01X01236Y00744D01*
G01X01236Y00744D02*
G01X01237Y00749D01*
G01X01237Y00749D02*
G01X01238Y00751D01*
G01X01238Y00751D02*
G01X01241Y00754D01*
G01X01241Y00754D02*
G01X01244Y00755D01*
G01X01244Y00755D02*
G01X01247Y00755D01*
G01X01247Y00755D02*
G01X01250Y00754D01*
G01X01250Y00754D02*
G01X01251Y00753D01*
G01X01266Y00744D02*
G01X01263Y00745D01*
G01X01263Y00745D02*
G01X01262Y00747D01*
G01X01262Y00747D02*
G01X01261Y00749D01*
G01X01261Y00749D02*
G01X01261Y00750D01*
G01X01261Y00750D02*
G01X01262Y00753D01*
G01X01262Y00753D02*
G01X01263Y00754D01*
G01X01263Y00754D02*
G01X01266Y00755D01*
G01X01266Y00755D02*
G01X01270Y00755D01*
G01X01270Y00755D02*
G01X01273Y00754D01*
G01X01273Y00754D02*
G01X01274Y00753D01*
G01X01274Y00753D02*
G01X01275Y00750D01*
G01X01275Y00750D02*
G01X01275Y00749D01*
G01X01275Y00749D02*
G01X01274Y00747D01*
G01X01274Y00747D02*
G01X01273Y00745D01*
G01X01273Y00745D02*
G01X01270Y00744D01*
G01X01270Y00744D02*
G01X01266Y00744D01*
G01X01266Y00744D02*
G01X01263Y00743D01*
G01X01263Y00743D02*
G01X01262Y00742D01*
G01X01262Y00742D02*
G01X01261Y00739D01*
G01X01261Y00739D02*
G01X01261Y00735D01*
G01X01261Y00735D02*
G01X01262Y00732D01*
G01X01262Y00732D02*
G01X01263Y00731D01*
G01X01263Y00731D02*
G01X01266Y00730D01*
G01X01266Y00730D02*
G01X01270Y00730D01*
G01X01270Y00730D02*
G01X01273Y00731D01*
G01X01273Y00731D02*
G01X01274Y00732D01*
G01X01274Y00732D02*
G01X01275Y00735D01*
G01X01275Y00735D02*
G01X01275Y00739D01*
G01X01275Y00739D02*
G01X01274Y00742D01*
G01X01274Y00742D02*
G01X01273Y00743D01*
G01X01273Y00743D02*
G01X01270Y00744D01*
G01X01452Y00620D02*
G01X01444Y00632D01*
G01X01438Y00620D02*
G01X01438Y00645D01*
G01X01438Y00645D02*
G01X01448Y00645D01*
G01X01448Y00645D02*
G01X01450Y00644D01*
G01X01450Y00644D02*
G01X01451Y00643D01*
G01X01451Y00643D02*
G01X01452Y00640D01*
G01X01452Y00640D02*
G01X01452Y00637D01*
G01X01452Y00637D02*
G01X01451Y00634D01*
G01X01451Y00634D02*
G01X01450Y00633D01*
G01X01450Y00633D02*
G01X01448Y00632D01*
G01X01448Y00632D02*
G01X01438Y00632D01*
G01X01461Y00645D02*
G01X01476Y00645D01*
G01X01476Y00645D02*
G01X01468Y00635D01*
G01X01468Y00635D02*
G01X01472Y00635D01*
G01X01472Y00635D02*
G01X01474Y00634D01*
G01X01474Y00634D02*
G01X01475Y00633D01*
G01X01475Y00633D02*
G01X01476Y00631D01*
G01X01476Y00631D02*
G01X01476Y00625D01*
G01X01476Y00625D02*
G01X01475Y00622D01*
G01X01475Y00622D02*
G01X01474Y00621D01*
G01X01474Y00621D02*
G01X01472Y00620D01*
G01X01472Y00620D02*
G01X01464Y00620D01*
G01X01464Y00620D02*
G01X01462Y00621D01*
G01X01462Y00621D02*
G01X01461Y00622D01*
G01X00710Y00112D02*
G01X00711Y00111D01*
G01X00711Y00111D02*
G01X00712Y00107D01*
G01X00712Y00107D02*
G01X00712Y00105D01*
G01X00712Y00105D02*
G01X00711Y00101D01*
G01X00711Y00101D02*
G01X00708Y00099D01*
G01X00708Y00099D02*
G01X00706Y00098D01*
G01X00706Y00098D02*
G01X00701Y00097D01*
G01X00701Y00097D02*
G01X00698Y00097D01*
G01X00698Y00097D02*
G01X00693Y00098D01*
G01X00693Y00098D02*
G01X00691Y00099D01*
G01X00691Y00099D02*
G01X00688Y00101D01*
G01X00688Y00101D02*
G01X00687Y00105D01*
G01X00687Y00105D02*
G01X00687Y00107D01*
G01X00687Y00107D02*
G01X00688Y00111D01*
G01X00688Y00111D02*
G01X00689Y00112D01*
G01X00695Y00133D02*
G01X00712Y00133D01*
G01X00686Y00127D02*
G01X00704Y00122D01*
G01X00704Y00122D02*
G01X00704Y00137D01*
G01X01866Y00192D02*
G01X01865Y00191D01*
G01X01865Y00191D02*
G01X01861Y00190D01*
G01X01861Y00190D02*
G01X01859Y00190D01*
G01X01859Y00190D02*
G01X01855Y00191D01*
G01X01855Y00191D02*
G01X01853Y00194D01*
G01X01853Y00194D02*
G01X01852Y00196D01*
G01X01852Y00196D02*
G01X01850Y00201D01*
G01X01850Y00201D02*
G01X01850Y00204D01*
G01X01850Y00204D02*
G01X01852Y00209D01*
G01X01852Y00209D02*
G01X01853Y00211D01*
G01X01853Y00211D02*
G01X01855Y00214D01*
G01X01855Y00214D02*
G01X01859Y00215D01*
G01X01859Y00215D02*
G01X01861Y00215D01*
G01X01861Y00215D02*
G01X01865Y00214D01*
G01X01865Y00214D02*
G01X01866Y00213D01*
G01X01887Y00215D02*
G01X01883Y00215D01*
G01X01883Y00215D02*
G01X01880Y00214D01*
G01X01880Y00214D02*
G01X01879Y00213D01*
G01X01879Y00213D02*
G01X01877Y00209D01*
G01X01877Y00209D02*
G01X01875Y00204D01*
G01X01875Y00204D02*
G01X01875Y00195D01*
G01X01875Y00195D02*
G01X01877Y00192D01*
G01X01877Y00192D02*
G01X01878Y00191D01*
G01X01878Y00191D02*
G01X01880Y00190D01*
G01X01880Y00190D02*
G01X01885Y00190D01*
G01X01885Y00190D02*
G01X01887Y00191D01*
G01X01887Y00191D02*
G01X01889Y00192D01*
G01X01889Y00192D02*
G01X01890Y00195D01*
G01X01890Y00195D02*
G01X01890Y00201D01*
G01X01890Y00201D02*
G01X01889Y00203D01*
G01X01889Y00203D02*
G01X01887Y00204D01*
G01X01887Y00204D02*
G01X01885Y00205D01*
G01X01885Y00205D02*
G01X01880Y00205D01*
G01X01880Y00205D02*
G01X01878Y00204D01*
G01X01878Y00204D02*
G01X01877Y00203D01*
G01X01877Y00203D02*
G01X01875Y00201D01*
G01X01588Y00341D02*
G01X01589Y00340D01*
G01X01589Y00340D02*
G01X01590Y00337D01*
G01X01590Y00337D02*
G01X01590Y00334D01*
G01X01590Y00334D02*
G01X01589Y00331D01*
G01X01589Y00331D02*
G01X01587Y00328D01*
G01X01587Y00328D02*
G01X01584Y00327D01*
G01X01584Y00327D02*
G01X01579Y00326D01*
G01X01579Y00326D02*
G01X01576Y00326D01*
G01X01576Y00326D02*
G01X01571Y00327D01*
G01X01571Y00327D02*
G01X01569Y00328D01*
G01X01569Y00328D02*
G01X01566Y00331D01*
G01X01566Y00331D02*
G01X01565Y00334D01*
G01X01565Y00334D02*
G01X01565Y00337D01*
G01X01565Y00337D02*
G01X01566Y00340D01*
G01X01566Y00340D02*
G01X01568Y00341D01*
G01X01565Y00364D02*
G01X01565Y00352D01*
G01X01565Y00352D02*
G01X01577Y00351D01*
G01X01577Y00351D02*
G01X01576Y00352D01*
G01X01576Y00352D02*
G01X01575Y00354D01*
G01X01575Y00354D02*
G01X01575Y00360D01*
G01X01575Y00360D02*
G01X01576Y00363D01*
G01X01576Y00363D02*
G01X01577Y00364D01*
G01X01577Y00364D02*
G01X01579Y00365D01*
G01X01579Y00365D02*
G01X01585Y00365D01*
G01X01585Y00365D02*
G01X01588Y00364D01*
G01X01588Y00364D02*
G01X01589Y00363D01*
G01X01589Y00363D02*
G01X01590Y00360D01*
G01X01590Y00360D02*
G01X01590Y00354D01*
G01X01590Y00354D02*
G01X01589Y00352D01*
G01X01589Y00352D02*
G01X01588Y00351D01*
G01X00975Y00075D02*
G01X00976Y00074D01*
G01X00976Y00074D02*
G01X00978Y00071D01*
G01X00978Y00071D02*
G01X00978Y00068D01*
G01X00978Y00068D02*
G01X00976Y00065D01*
G01X00976Y00065D02*
G01X00974Y00062D01*
G01X00974Y00062D02*
G01X00972Y00061D01*
G01X00972Y00061D02*
G01X00967Y00060D01*
G01X00967Y00060D02*
G01X00963Y00060D01*
G01X00963Y00060D02*
G01X00959Y00061D01*
G01X00959Y00061D02*
G01X00956Y00062D01*
G01X00956Y00062D02*
G01X00954Y00065D01*
G01X00954Y00065D02*
G01X00953Y00068D01*
G01X00953Y00068D02*
G01X00953Y00071D01*
G01X00953Y00071D02*
G01X00954Y00074D01*
G01X00954Y00074D02*
G01X00955Y00075D01*
G01X00978Y00099D02*
G01X00978Y00085D01*
G01X00978Y00092D02*
G01X00953Y00092D01*
G01X00953Y00092D02*
G01X00956Y00090D01*
G01X00956Y00090D02*
G01X00959Y00087D01*
G01X00959Y00087D02*
G01X00960Y00085D01*
G01X00961Y00121D02*
G01X00978Y00121D01*
G01X00951Y00115D02*
G01X00969Y00109D01*
G01X00969Y00109D02*
G01X00969Y00124D01*
G01X00298Y00719D02*
G01X00299Y00718D01*
G01X00299Y00718D02*
G01X00300Y00715D01*
G01X00300Y00715D02*
G01X00300Y00712D01*
G01X00300Y00712D02*
G01X00299Y00709D01*
G01X00299Y00709D02*
G01X00297Y00706D01*
G01X00297Y00706D02*
G01X00294Y00705D01*
G01X00294Y00705D02*
G01X00289Y00704D01*
G01X00289Y00704D02*
G01X00286Y00704D01*
G01X00286Y00704D02*
G01X00281Y00705D01*
G01X00281Y00705D02*
G01X00279Y00706D01*
G01X00279Y00706D02*
G01X00276Y00709D01*
G01X00276Y00709D02*
G01X00275Y00712D01*
G01X00275Y00712D02*
G01X00275Y00715D01*
G01X00275Y00715D02*
G01X00276Y00718D01*
G01X00276Y00718D02*
G01X00278Y00719D01*
G01X00300Y00743D02*
G01X00300Y00729D01*
G01X00300Y00736D02*
G01X00275Y00736D01*
G01X00275Y00736D02*
G01X00279Y00734D01*
G01X00279Y00734D02*
G01X00281Y00731D01*
G01X00281Y00731D02*
G01X00282Y00729D01*
G01X00278Y00753D02*
G01X00276Y00754D01*
G01X00276Y00754D02*
G01X00275Y00756D01*
G01X00275Y00756D02*
G01X00275Y00762D01*
G01X00275Y00762D02*
G01X00276Y00765D01*
G01X00276Y00765D02*
G01X00278Y00766D01*
G01X00278Y00766D02*
G01X00280Y00767D01*
G01X00280Y00767D02*
G01X00282Y00767D01*
G01X00282Y00767D02*
G01X00286Y00766D01*
G01X00286Y00766D02*
G01X00300Y00752D01*
G01X00300Y00752D02*
G01X00300Y00767D01*
G01X00881Y00634D02*
G01X00879Y00633D01*
G01X00879Y00633D02*
G01X00876Y00632D01*
G01X00876Y00632D02*
G01X00873Y00632D01*
G01X00873Y00632D02*
G01X00870Y00633D01*
G01X00870Y00633D02*
G01X00867Y00635D01*
G01X00867Y00635D02*
G01X00866Y00638D01*
G01X00866Y00638D02*
G01X00865Y00642D01*
G01X00865Y00642D02*
G01X00865Y00646D01*
G01X00865Y00646D02*
G01X00866Y00651D01*
G01X00866Y00651D02*
G01X00867Y00653D01*
G01X00867Y00653D02*
G01X00870Y00655D01*
G01X00870Y00655D02*
G01X00873Y00657D01*
G01X00873Y00657D02*
G01X00876Y00657D01*
G01X00876Y00657D02*
G01X00879Y00655D01*
G01X00879Y00655D02*
G01X00881Y00654D01*
G01X00904Y00632D02*
G01X00890Y00632D01*
G01X00897Y00632D02*
G01X00897Y00657D01*
G01X00897Y00657D02*
G01X00895Y00653D01*
G01X00895Y00653D02*
G01X00892Y00651D01*
G01X00892Y00651D02*
G01X00890Y00649D01*
G01X00927Y00657D02*
G01X00915Y00657D01*
G01X00915Y00657D02*
G01X00914Y00645D01*
G01X00914Y00645D02*
G01X00915Y00646D01*
G01X00915Y00646D02*
G01X00917Y00647D01*
G01X00917Y00647D02*
G01X00923Y00647D01*
G01X00923Y00647D02*
G01X00926Y00646D01*
G01X00926Y00646D02*
G01X00927Y00645D01*
G01X00927Y00645D02*
G01X00928Y00642D01*
G01X00928Y00642D02*
G01X00928Y00636D01*
G01X00928Y00636D02*
G01X00927Y00634D01*
G01X00927Y00634D02*
G01X00926Y00633D01*
G01X00926Y00633D02*
G01X00923Y00632D01*
G01X00923Y00632D02*
G01X00917Y00632D01*
G01X00917Y00632D02*
G01X00915Y00633D01*
G01X00915Y00633D02*
G01X00914Y00634D01*
G01X00890Y00630D02*
G01X00882Y00642D01*
G01X00876Y00630D02*
G01X00876Y00655D01*
G01X00876Y00655D02*
G01X00886Y00655D01*
G01X00886Y00655D02*
G01X00888Y00654D01*
G01X00888Y00654D02*
G01X00889Y00653D01*
G01X00889Y00653D02*
G01X00890Y00650D01*
G01X00890Y00650D02*
G01X00890Y00647D01*
G01X00890Y00647D02*
G01X00889Y00644D01*
G01X00889Y00644D02*
G01X00888Y00643D01*
G01X00888Y00643D02*
G01X00886Y00642D01*
G01X00886Y00642D02*
G01X00876Y00642D01*
G01X00913Y00655D02*
G01X00901Y00655D01*
G01X00901Y00655D02*
G01X00900Y00643D01*
G01X00900Y00643D02*
G01X00901Y00644D01*
G01X00901Y00644D02*
G01X00903Y00645D01*
G01X00903Y00645D02*
G01X00909Y00645D01*
G01X00909Y00645D02*
G01X00912Y00644D01*
G01X00912Y00644D02*
G01X00913Y00643D01*
G01X00913Y00643D02*
G01X00914Y00641D01*
G01X00914Y00641D02*
G01X00914Y00635D01*
G01X00914Y00635D02*
G01X00913Y00632D01*
G01X00913Y00632D02*
G01X00912Y00631D01*
G01X00912Y00631D02*
G01X00909Y00630D01*
G01X00909Y00630D02*
G01X00903Y00630D01*
G01X00903Y00630D02*
G01X00901Y00631D01*
G01X00901Y00631D02*
G01X00900Y00632D01*
G01X01860Y01400D02*
G01X01852Y01412D01*
G01X01846Y01400D02*
G01X01846Y01425D01*
G01X01846Y01425D02*
G01X01856Y01425D01*
G01X01856Y01425D02*
G01X01858Y01424D01*
G01X01858Y01424D02*
G01X01859Y01423D01*
G01X01859Y01423D02*
G01X01860Y01420D01*
G01X01860Y01420D02*
G01X01860Y01417D01*
G01X01860Y01417D02*
G01X01859Y01414D01*
G01X01859Y01414D02*
G01X01858Y01413D01*
G01X01858Y01413D02*
G01X01856Y01412D01*
G01X01856Y01412D02*
G01X01846Y01412D01*
G01X01882Y01417D02*
G01X01882Y01400D01*
G01X01876Y01426D02*
G01X01870Y01408D01*
G01X01870Y01408D02*
G01X01885Y01408D01*
G54D26*
G01X01546Y01143D02*
G01X01544Y01141D01*
G01X01544Y01141D02*
G01X01538Y01139D01*
G01X01538Y01139D02*
G01X01534Y01139D01*
G01X01534Y01139D02*
G01X01529Y01141D01*
G01X01529Y01141D02*
G01X01525Y01145D01*
G01X01525Y01145D02*
G01X01523Y01148D01*
G01X01523Y01148D02*
G01X01521Y01156D01*
G01X01521Y01156D02*
G01X01521Y01162D01*
G01X01521Y01162D02*
G01X01523Y01169D01*
G01X01523Y01169D02*
G01X01525Y01173D01*
G01X01525Y01173D02*
G01X01529Y01177D01*
G01X01529Y01177D02*
G01X01534Y01179D01*
G01X01534Y01179D02*
G01X01538Y01179D01*
G01X01538Y01179D02*
G01X01544Y01177D01*
G01X01544Y01177D02*
G01X01546Y01175D01*
G01X01584Y01139D02*
G01X01561Y01139D01*
G01X01572Y01139D02*
G01X01572Y01179D01*
G01X01572Y01179D02*
G01X01569Y01173D01*
G01X01569Y01173D02*
G01X01565Y01169D01*
G01X01565Y01169D02*
G01X01561Y01168D01*
G01X01609Y01179D02*
G01X01613Y01179D01*
G01X01613Y01179D02*
G01X01616Y01177D01*
G01X01616Y01177D02*
G01X01618Y01175D01*
G01X01618Y01175D02*
G01X01620Y01171D01*
G01X01620Y01171D02*
G01X01622Y01164D01*
G01X01622Y01164D02*
G01X01622Y01154D01*
G01X01622Y01154D02*
G01X01620Y01147D01*
G01X01620Y01147D02*
G01X01618Y01143D01*
G01X01618Y01143D02*
G01X01616Y01141D01*
G01X01616Y01141D02*
G01X01613Y01139D01*
G01X01613Y01139D02*
G01X01609Y01139D01*
G01X01609Y01139D02*
G01X01605Y01141D01*
G01X01605Y01141D02*
G01X01603Y01143D01*
G01X01603Y01143D02*
G01X01601Y01147D01*
G01X01601Y01147D02*
G01X01599Y01154D01*
G01X01599Y01154D02*
G01X01599Y01164D01*
G01X01599Y01164D02*
G01X01601Y01171D01*
G01X01601Y01171D02*
G01X01603Y01175D01*
G01X01603Y01175D02*
G01X01605Y01177D01*
G01X01605Y01177D02*
G01X01609Y01179D01*
G54D21*
G01X01591Y00929D02*
G01X01637Y00929D01*
G01X01614Y00906D02*
G01X01614Y00951D01*
G54D26*
G01X01301Y00318D02*
G01X01299Y00316D01*
G01X01299Y00316D02*
G01X01293Y00314D01*
G01X01293Y00314D02*
G01X01290Y00314D01*
G01X01290Y00314D02*
G01X01284Y00316D01*
G01X01284Y00316D02*
G01X01280Y00320D01*
G01X01280Y00320D02*
G01X01278Y00323D01*
G01X01278Y00323D02*
G01X01276Y00331D01*
G01X01276Y00331D02*
G01X01276Y00337D01*
G01X01276Y00337D02*
G01X01278Y00344D01*
G01X01278Y00344D02*
G01X01280Y00348D01*
G01X01280Y00348D02*
G01X01284Y00352D01*
G01X01284Y00352D02*
G01X01290Y00354D01*
G01X01290Y00354D02*
G01X01293Y00354D01*
G01X01293Y00354D02*
G01X01299Y00352D01*
G01X01299Y00352D02*
G01X01301Y00350D01*
G01X01314Y00354D02*
G01X01339Y00354D01*
G01X01339Y00354D02*
G01X01326Y00339D01*
G01X01326Y00339D02*
G01X01331Y00339D01*
G01X01331Y00339D02*
G01X01335Y00337D01*
G01X01335Y00337D02*
G01X01337Y00335D01*
G01X01337Y00335D02*
G01X01339Y00331D01*
G01X01339Y00331D02*
G01X01339Y00322D01*
G01X01339Y00322D02*
G01X01337Y00318D01*
G01X01337Y00318D02*
G01X01335Y00316D01*
G01X01335Y00316D02*
G01X01331Y00314D01*
G01X01331Y00314D02*
G01X01320Y00314D01*
G01X01320Y00314D02*
G01X01316Y00316D01*
G01X01316Y00316D02*
G01X01314Y00318D01*
G54D21*
G01X01327Y00104D02*
G01X01373Y00104D01*
G01X01350Y00081D02*
G01X01350Y00126D01*
G54D26*
G01X00512Y00318D02*
G01X00510Y00316D01*
G01X00510Y00316D02*
G01X00504Y00314D01*
G01X00504Y00314D02*
G01X00500Y00314D01*
G01X00500Y00314D02*
G01X00495Y00316D01*
G01X00495Y00316D02*
G01X00491Y00320D01*
G01X00491Y00320D02*
G01X00489Y00323D01*
G01X00489Y00323D02*
G01X00487Y00331D01*
G01X00487Y00331D02*
G01X00487Y00337D01*
G01X00487Y00337D02*
G01X00489Y00344D01*
G01X00489Y00344D02*
G01X00491Y00348D01*
G01X00491Y00348D02*
G01X00495Y00352D01*
G01X00495Y00352D02*
G01X00500Y00354D01*
G01X00500Y00354D02*
G01X00504Y00354D01*
G01X00504Y00354D02*
G01X00510Y00352D01*
G01X00510Y00352D02*
G01X00512Y00350D01*
G01X00550Y00314D02*
G01X00527Y00314D01*
G01X00538Y00314D02*
G01X00538Y00354D01*
G01X00538Y00354D02*
G01X00535Y00348D01*
G01X00535Y00348D02*
G01X00531Y00344D01*
G01X00531Y00344D02*
G01X00527Y00343D01*
G01X00563Y00354D02*
G01X00588Y00354D01*
G01X00588Y00354D02*
G01X00575Y00339D01*
G01X00575Y00339D02*
G01X00580Y00339D01*
G01X00580Y00339D02*
G01X00584Y00337D01*
G01X00584Y00337D02*
G01X00586Y00335D01*
G01X00586Y00335D02*
G01X00588Y00331D01*
G01X00588Y00331D02*
G01X00588Y00322D01*
G01X00588Y00322D02*
G01X00586Y00318D01*
G01X00586Y00318D02*
G01X00584Y00316D01*
G01X00584Y00316D02*
G01X00580Y00314D01*
G01X00580Y00314D02*
G01X00569Y00314D01*
G01X00569Y00314D02*
G01X00565Y00316D01*
G01X00565Y00316D02*
G01X00563Y00318D01*
G54D21*
G01X00557Y00104D02*
G01X00603Y00104D01*
G01X00580Y00081D02*
G01X00580Y00126D01*
G54D26*
G01X00597Y01278D02*
G01X00595Y01276D01*
G01X00595Y01276D02*
G01X00589Y01274D01*
G01X00589Y01274D02*
G01X00585Y01274D01*
G01X00585Y01274D02*
G01X00580Y01276D01*
G01X00580Y01276D02*
G01X00576Y01280D01*
G01X00576Y01280D02*
G01X00574Y01283D01*
G01X00574Y01283D02*
G01X00572Y01291D01*
G01X00572Y01291D02*
G01X00572Y01297D01*
G01X00572Y01297D02*
G01X00574Y01304D01*
G01X00574Y01304D02*
G01X00576Y01308D01*
G01X00576Y01308D02*
G01X00580Y01312D01*
G01X00580Y01312D02*
G01X00585Y01314D01*
G01X00585Y01314D02*
G01X00589Y01314D01*
G01X00589Y01314D02*
G01X00595Y01312D01*
G01X00595Y01312D02*
G01X00597Y01310D01*
G01X00635Y01274D02*
G01X00612Y01274D01*
G01X00623Y01274D02*
G01X00623Y01314D01*
G01X00623Y01314D02*
G01X00620Y01308D01*
G01X00620Y01308D02*
G01X00616Y01304D01*
G01X00616Y01304D02*
G01X00612Y01303D01*
G01X00673Y01274D02*
G01X00650Y01274D01*
G01X00662Y01274D02*
G01X00662Y01314D01*
G01X00662Y01314D02*
G01X00658Y01308D01*
G01X00658Y01308D02*
G01X00654Y01304D01*
G01X00654Y01304D02*
G01X00650Y01303D01*
G54D21*
G01X00642Y01064D02*
G01X00688Y01064D01*
G01X00665Y01041D02*
G01X00665Y01086D01*
G54D20*
G01X00090Y01150D02*
G01X00078Y01142D01*
G01X00090Y01136D02*
G01X00065Y01136D01*
G01X00065Y01136D02*
G01X00065Y01146D01*
G01X00065Y01146D02*
G01X00066Y01148D01*
G01X00066Y01148D02*
G01X00068Y01149D01*
G01X00068Y01149D02*
G01X00070Y01150D01*
G01X00070Y01150D02*
G01X00074Y01150D01*
G01X00074Y01150D02*
G01X00076Y01149D01*
G01X00076Y01149D02*
G01X00077Y01148D01*
G01X00077Y01148D02*
G01X00078Y01146D01*
G01X00078Y01146D02*
G01X00078Y01136D01*
G01X00065Y01172D02*
G01X00065Y01167D01*
G01X00065Y01167D02*
G01X00066Y01165D01*
G01X00066Y01165D02*
G01X00068Y01163D01*
G01X00068Y01163D02*
G01X00071Y01161D01*
G01X00071Y01161D02*
G01X00076Y01160D01*
G01X00076Y01160D02*
G01X00085Y01160D01*
G01X00085Y01160D02*
G01X00088Y01161D01*
G01X00088Y01161D02*
G01X00089Y01162D01*
G01X00089Y01162D02*
G01X00090Y01165D01*
G01X00090Y01165D02*
G01X00090Y01169D01*
G01X00090Y01169D02*
G01X00089Y01172D01*
G01X00089Y01172D02*
G01X00088Y01173D01*
G01X00088Y01173D02*
G01X00085Y01174D01*
G01X00085Y01174D02*
G01X00079Y01174D01*
G01X00079Y01174D02*
G01X00077Y01173D01*
G01X00077Y01173D02*
G01X00076Y01172D01*
G01X00076Y01172D02*
G01X00075Y01169D01*
G01X00075Y01169D02*
G01X00075Y01165D01*
G01X00075Y01165D02*
G01X00076Y01162D01*
G01X00076Y01162D02*
G01X00077Y01161D01*
G01X00077Y01161D02*
G01X00079Y01160D01*
G54D10*
G36*
G01X00260Y00100D02*
G01X00260Y00140D01*
G01X00220Y00140D01*
G01X00220Y00100D01*
G01X00260Y00100D01*
G01X00260Y00100D01*
G37*
G54D13*
G01X00260Y00100D02*
G01X00260Y00140D01*
G01X00260Y00140D02*
G01X00220Y00140D01*
G01X00220Y00140D02*
G01X00220Y00100D01*
G01X00220Y00100D02*
G01X00260Y00100D01*
M02*
