G04 (created by PCBNEW-RS274X (2011-nov-30)-testing) date Tue 31 Jul 2012 05:27:43 PM EDT*
%MOIN*%
G04 Gerber Fmt 3.4, Leading zero omitted, Abs format*
%FSLAX34Y34*%
G01*
G70*
G90*
G04 APERTURE LIST*
%ADD10C,0.006*%
%ADD11R,0.0554X0.0436*%
%ADD12R,0.0436X0.0554*%
%ADD13R,0.0357X0.0397*%
%ADD14R,0.0397X0.0357*%
%ADD15C,0.08*%
%ADD16R,0.0672X0.0672*%
%ADD17R,0.08X0.08*%
%ADD18R,0.0869X0.0357*%
%ADD19R,0.1027X0.0672*%
%ADD20R,0.0791X0.0672*%
%ADD21R,0.1184X0.0909*%
%ADD22R,0.035X0.07*%
%ADD23R,0.0987X0.0377*%
%ADD24R,0.0377X0.0987*%
%ADD25R,0.07X0.036*%
%ADD26R,0.055X0.075*%
%ADD27R,0.075X0.055*%
%ADD28R,0.1184X0.0593*%
%ADD29C,0.18*%
%ADD30R,0.0712X0.142*%
G04 APERTURE END LIST*
G54D10*
G54D11*
X14211Y6797D03*
X14211Y6482D03*
X14211Y6167D03*
X14211Y5853D03*
X14211Y5538D03*
X14211Y5223D03*
G54D12*
X14605Y5223D03*
G54D11*
X14999Y5223D03*
X14999Y5538D03*
X14999Y5853D03*
X14999Y6167D03*
X14999Y6482D03*
X14999Y6797D03*
G54D12*
X14605Y6797D03*
G54D13*
X14756Y1425D03*
X15012Y1425D03*
X15268Y1425D03*
X15524Y1425D03*
G54D14*
X15740Y1641D03*
X15740Y1897D03*
X15740Y2153D03*
X15740Y2409D03*
G54D13*
X15524Y2625D03*
X15268Y2625D03*
X15012Y2625D03*
X14756Y2625D03*
G54D14*
X14540Y2409D03*
X14540Y2153D03*
X14540Y1897D03*
X14540Y1641D03*
G54D15*
X4430Y14070D03*
X3430Y14070D03*
X2430Y14070D03*
G54D16*
X800Y11987D03*
X800Y12813D03*
G54D17*
X14980Y12250D03*
G54D15*
X13980Y12250D03*
X14980Y13250D03*
X13980Y13250D03*
X14980Y14250D03*
X13980Y14250D03*
G54D18*
X1893Y7500D03*
X1893Y7756D03*
X1893Y6988D03*
G54D19*
X751Y9114D03*
G54D20*
X1932Y8445D03*
G54D19*
X751Y5886D03*
G54D20*
X1932Y6555D03*
G54D18*
X1893Y7244D03*
G54D21*
X672Y8051D03*
X672Y6949D03*
G54D18*
X1893Y8012D03*
G54D16*
X18083Y14205D03*
X17257Y14205D03*
G54D10*
G36*
X8806Y9181D02*
X8219Y8594D01*
X7994Y8819D01*
X8581Y9406D01*
X8806Y9181D01*
X8806Y9181D01*
G37*
G36*
X9070Y8917D02*
X8483Y8330D01*
X8258Y8555D01*
X8845Y9142D01*
X9070Y8917D01*
X9070Y8917D01*
G37*
G36*
X8542Y9445D02*
X7955Y8858D01*
X7730Y9083D01*
X8317Y9670D01*
X8542Y9445D01*
X8542Y9445D01*
G37*
G54D22*
X17219Y6348D03*
X17475Y6348D03*
X17731Y6348D03*
X17987Y6348D03*
X18243Y6348D03*
X18499Y6348D03*
X18755Y6348D03*
X19011Y6348D03*
X19011Y8552D03*
X18755Y8552D03*
X18499Y8552D03*
X18243Y8552D03*
X17987Y8552D03*
X17731Y8552D03*
X17475Y8552D03*
X17219Y8552D03*
G54D23*
X8504Y10707D03*
X8504Y11022D03*
X8504Y11337D03*
X8504Y11652D03*
X8504Y11967D03*
X8504Y12282D03*
X8504Y12597D03*
X8504Y12912D03*
X12270Y12910D03*
X12270Y10700D03*
X12270Y11020D03*
X12270Y11340D03*
X12270Y11650D03*
X12270Y11970D03*
X12270Y12280D03*
X12270Y12600D03*
G54D24*
X9288Y13700D03*
X9602Y13700D03*
X9918Y13700D03*
X10232Y13700D03*
X10548Y13700D03*
X10862Y13700D03*
X11178Y13700D03*
X11492Y13700D03*
X9290Y9920D03*
X9600Y9920D03*
X9920Y9920D03*
X10230Y9920D03*
X10540Y9920D03*
X10860Y9920D03*
X11180Y9920D03*
X11500Y9920D03*
G54D25*
X6775Y5520D03*
X6775Y5770D03*
X6775Y6030D03*
X6775Y6290D03*
X6775Y6540D03*
X6775Y6800D03*
X6775Y7060D03*
X6775Y7310D03*
X6775Y7570D03*
X6775Y7820D03*
X6775Y8080D03*
X6775Y8340D03*
X6775Y8590D03*
X6775Y8850D03*
X3975Y8850D03*
X3975Y8590D03*
X3975Y8350D03*
X3975Y8080D03*
X3975Y7820D03*
X3975Y7570D03*
X3975Y7310D03*
X3975Y7060D03*
X3975Y6800D03*
X3975Y6540D03*
X3975Y6290D03*
X3975Y6030D03*
X3975Y5770D03*
X3975Y5520D03*
G54D26*
X11965Y6475D03*
X12715Y6475D03*
X12345Y915D03*
X13095Y915D03*
G54D27*
X17340Y2100D03*
X17340Y1350D03*
G54D26*
X14140Y4195D03*
X14890Y4195D03*
G54D27*
X16110Y7755D03*
X16110Y7005D03*
G54D26*
X14140Y8095D03*
X14890Y8095D03*
X11905Y4270D03*
X12655Y4270D03*
X11935Y5365D03*
X12685Y5365D03*
G54D27*
X4570Y4570D03*
X4570Y3820D03*
G54D26*
X13080Y2790D03*
X12330Y2790D03*
X13095Y1875D03*
X12345Y1875D03*
G54D27*
X5900Y4500D03*
X5900Y3750D03*
X2900Y7925D03*
X2900Y8675D03*
G54D26*
X8135Y14010D03*
X7385Y14010D03*
X5815Y14000D03*
X6565Y14000D03*
G54D27*
X19140Y13635D03*
X19140Y12885D03*
G54D28*
X15859Y9920D03*
X13500Y9920D03*
X10789Y1710D03*
X8430Y1710D03*
X5879Y1700D03*
X3520Y1700D03*
X6729Y11300D03*
X4370Y11300D03*
G54D29*
X2500Y11250D03*
X17500Y3750D03*
X17500Y11250D03*
X2500Y3750D03*
G54D27*
X800Y10975D03*
X800Y10225D03*
G54D30*
X9936Y4100D03*
X9936Y7230D03*
X8164Y7230D03*
X8164Y4100D03*
M02*
