M48
;DRILL file {Pcbnew (2011-nov-30)-testing} date Tue 31 Jul 2012 04:47:59 PM EDT
;FORMAT={-:-/ absolute / inch / decimal}
FMAT,2
INCH,TZ
T1C0.025
T2C0.028
T3C0.040
%
G90
G05
M72
T1
X0.28Y0.73
X0.28Y0.655
X0.47Y0.87
X0.491Y0.63
X0.505Y0.83
X0.575Y0.97
X0.59Y0.315
X0.608Y0.504
X0.613Y0.63
X0.623Y1.227
X0.655Y0.415
X0.7126Y1.1888
X0.747Y0.5834
X0.75Y0.5144
X0.7546Y1.0802
X0.758Y1.335
X0.7668Y1.191
X0.775Y1.26
X0.805Y0.8318
X0.8456Y1.0208
X0.87Y1.455
X0.915Y0.589
X0.926Y1.198
X0.943Y0.806
X0.9596Y1.2888
X0.9918Y0.9074
X1.001Y1.146
X1.055Y0.78
X1.08Y1.105
X1.145Y0.362
X1.15Y1.195
X1.155Y1.095
X1.165Y0.165
X1.18Y0.715
X1.195Y1.415
X1.195Y0.945
X1.195Y0.762
X1.26Y1.415
X1.2976Y0.906
X1.3Y1.185
X1.3074Y1.3178
X1.345Y0.605
X1.345Y0.555
X1.345Y0.505
X1.3512Y0.6792
X1.395Y0.165
X1.4938Y0.3298
X1.5Y0.21
X1.5Y0.085
X1.5196Y0.744
X1.55Y0.08
X1.5518Y0.3726
X1.576Y0.603
X1.581Y1.379
X1.6042Y0.102
X1.61Y0.875
X1.63Y0.14
X1.6716Y0.213
X1.6756Y1.3634
X1.703Y0.545
X1.73Y0.915
X1.75Y0.78
X1.765Y0.575
X1.77Y0.525
X1.7866Y0.7094
X1.8Y0.225
X1.85Y0.78
X1.85Y0.22
X1.88Y0.575
X1.885Y0.37
X1.9Y0.915
X1.912Y1.084
T3
X0.243Y1.407
X0.343Y1.407
X0.443Y1.407
X1.398Y1.425
X1.398Y1.325
X1.398Y1.225
X1.498Y1.425
X1.498Y1.325
X1.498Y1.225
T2
X0.0633Y0.9114G85X0.0869Y0.9114
G05
X0.0633Y0.5886G85X0.0869Y0.5886
G05
X0.1854Y0.8445G85X0.201Y0.8445
G05
X0.1854Y0.6555G85X0.201Y0.6555
G05
T0
M30
