G04 (created by PCBNEW-RS274X (2011-nov-30)-testing) date Wed 20 Jun 2012 12:50:12 PM EDT*
%MOIN*%
G04 Gerber Fmt 3.4, Leading zero omitted, Abs format*
%FSLAX34Y34*%
G01*
G70*
G90*
G04 APERTURE LIST*
%ADD10C,0.006*%
%ADD11R,0.085X0.065*%
%ADD12R,0.0772X0.0772*%
%ADD13R,0.09X0.09*%
%ADD14C,0.09*%
%ADD15O,0.0811X0.089*%
%ADD16O,0.081X0.0889*%
%ADD17C,0.1721*%
%ADD18C,0.18*%
%ADD19C,0.1799*%
G04 APERTURE END LIST*
G54D10*
G54D11*
X8677Y11462D03*
X8677Y10712D03*
G54D12*
X2063Y18390D03*
X2063Y17564D03*
G54D13*
X7587Y15524D03*
G54D14*
X8587Y15524D03*
X7587Y14524D03*
X8587Y14524D03*
G54D13*
X9996Y1480D03*
G54D14*
X10996Y1480D03*
X11996Y1480D03*
X12996Y1480D03*
X13996Y1480D03*
X14996Y1480D03*
X4075Y5984D03*
X4075Y3984D03*
X1076Y5984D03*
X1076Y3984D03*
G54D13*
X6420Y19640D03*
G54D14*
X7420Y19640D03*
X8420Y19640D03*
X9420Y19640D03*
X10420Y19640D03*
X11420Y19640D03*
X12420Y19640D03*
X13420Y19640D03*
G54D13*
X14980Y20509D03*
G54D14*
X15980Y20509D03*
X16980Y20509D03*
X17980Y20509D03*
X18980Y20509D03*
X19980Y20509D03*
X20980Y20509D03*
X21980Y20509D03*
G54D13*
X14970Y19640D03*
G54D14*
X15970Y19640D03*
X16970Y19640D03*
X17970Y19640D03*
X18970Y19640D03*
X19970Y19640D03*
X20970Y19640D03*
X21970Y19640D03*
G54D13*
X6398Y20508D03*
G54D14*
X7398Y20508D03*
X8398Y20508D03*
X9398Y20508D03*
X10398Y20508D03*
X11398Y20508D03*
X12398Y20508D03*
X13398Y20508D03*
G54D13*
X17004Y1480D03*
G54D14*
X18004Y1480D03*
X19004Y1480D03*
X20004Y1480D03*
X21004Y1480D03*
X22004Y1480D03*
G54D13*
X17004Y2425D03*
G54D14*
X18004Y2425D03*
X19004Y2425D03*
X20004Y2425D03*
X21004Y2425D03*
X22004Y2425D03*
G54D13*
X8406Y1441D03*
G54D14*
X7406Y1441D03*
X6406Y1441D03*
X5406Y1441D03*
G54D15*
X12376Y17583D03*
X13165Y15535D03*
X14305Y17583D03*
X15251Y15535D03*
G54D16*
X16430Y17583D03*
G54D15*
X17338Y15535D03*
X18046Y17583D03*
X19070Y15535D03*
X18560Y4434D03*
X17771Y6482D03*
X16631Y4434D03*
X15685Y6482D03*
G54D16*
X14506Y4434D03*
G54D15*
X13598Y6482D03*
X12890Y4434D03*
X11866Y6482D03*
G54D17*
X23047Y3528D03*
G54D18*
X2496Y1559D03*
X2969Y20535D03*
X22969Y14551D03*
X1708Y7937D03*
G54D19*
X1707Y13921D03*
G54D13*
X4937Y14114D03*
G54D14*
X4937Y15114D03*
X4937Y16114D03*
X4937Y17114D03*
G54D13*
X8406Y2819D03*
G54D14*
X7406Y2819D03*
X6406Y2819D03*
X5406Y2819D03*
G54D11*
X9858Y10712D03*
X9858Y11462D03*
X11039Y10712D03*
X11039Y11462D03*
X12220Y10712D03*
X12220Y11462D03*
X13402Y10711D03*
X13402Y11461D03*
X14583Y10711D03*
X14583Y11461D03*
X15764Y10711D03*
X15764Y11461D03*
X16945Y10711D03*
X16945Y11461D03*
X18127Y10711D03*
X18127Y11461D03*
X3166Y17681D03*
X3166Y18431D03*
M02*
