G04 (created by PCBNEW-RS274X (2011-nov-30)-testing) date Mon 11 Jun 2012 06:03:41 PM EDT*
%MOIN*%
G04 Gerber Fmt 3.4, Leading zero omitted, Abs format*
%FSLAX34Y34*%
G01*
G70*
G90*
G04 APERTURE LIST*
%ADD10C,0.006*%
%ADD11C,0.0098*%
%ADD12C,0.012*%
%ADD13C,0.0089*%
%ADD14C,0.015*%
%ADD15C,0.005*%
%ADD16C,0.008*%
%ADD17C,0.0039*%
%ADD18C,0.01*%
%ADD19C,0.0026*%
%ADD20C,0.004*%
%ADD21C,0.002*%
%ADD22C,0.0075*%
%ADD23C,0.0063*%
%ADD24C,0.0079*%
%ADD25C,0.0069*%
G04 APERTURE END LIST*
G54D10*
G54D11*
X13726Y7264D02*
X13464Y7264D01*
X13333Y7264D02*
X13351Y7245D01*
X13370Y7264D01*
X13351Y7282D01*
X13333Y7264D01*
X13370Y7264D01*
X13726Y7507D02*
X13707Y7469D01*
X13669Y7451D01*
X13333Y7451D01*
X13464Y7600D02*
X13464Y7750D01*
X13333Y7657D02*
X13669Y7657D01*
X13707Y7675D01*
X13726Y7713D01*
X13726Y7750D01*
X13688Y7882D02*
X13707Y7900D01*
X13726Y7882D01*
X13707Y7863D01*
X13688Y7882D01*
X13726Y7882D01*
X13707Y8237D02*
X13726Y8200D01*
X13726Y8125D01*
X13707Y8087D01*
X13688Y8069D01*
X13651Y8050D01*
X13538Y8050D01*
X13501Y8069D01*
X13482Y8087D01*
X13464Y8125D01*
X13464Y8200D01*
X13482Y8237D01*
X13726Y8462D02*
X13707Y8424D01*
X13688Y8406D01*
X13651Y8387D01*
X13538Y8387D01*
X13501Y8406D01*
X13482Y8424D01*
X13464Y8462D01*
X13464Y8518D01*
X13482Y8555D01*
X13501Y8574D01*
X13538Y8593D01*
X13651Y8593D01*
X13688Y8574D01*
X13707Y8555D01*
X13726Y8518D01*
X13726Y8462D01*
X13726Y8762D02*
X13464Y8762D01*
X13501Y8762D02*
X13482Y8780D01*
X13464Y8818D01*
X13464Y8874D01*
X13482Y8911D01*
X13520Y8930D01*
X13726Y8930D01*
X13520Y8930D02*
X13482Y8949D01*
X13464Y8986D01*
X13464Y9042D01*
X13482Y9080D01*
X13520Y9098D01*
X13726Y9098D01*
G54D12*
X12908Y6917D02*
X12946Y7003D01*
X12946Y7146D01*
X12908Y7203D01*
X12870Y7232D01*
X12793Y7260D01*
X12717Y7260D01*
X12641Y7232D01*
X12603Y7203D01*
X12565Y7146D01*
X12527Y7032D01*
X12489Y6974D01*
X12451Y6946D01*
X12374Y6917D01*
X12298Y6917D01*
X12222Y6946D01*
X12184Y6974D01*
X12146Y7032D01*
X12146Y7174D01*
X12184Y7260D01*
X12870Y7860D02*
X12908Y7831D01*
X12946Y7745D01*
X12946Y7688D01*
X12908Y7603D01*
X12832Y7545D01*
X12755Y7517D01*
X12603Y7488D01*
X12489Y7488D01*
X12336Y7517D01*
X12260Y7545D01*
X12184Y7603D01*
X12146Y7688D01*
X12146Y7745D01*
X12184Y7831D01*
X12222Y7860D01*
X12146Y8231D02*
X12146Y8345D01*
X12184Y8403D01*
X12260Y8460D01*
X12412Y8488D01*
X12679Y8488D01*
X12832Y8460D01*
X12908Y8403D01*
X12946Y8345D01*
X12946Y8231D01*
X12908Y8174D01*
X12832Y8117D01*
X12679Y8088D01*
X12412Y8088D01*
X12260Y8117D01*
X12184Y8174D01*
X12146Y8231D01*
X12946Y9089D02*
X12565Y8889D01*
X12946Y8746D02*
X12146Y8746D01*
X12146Y8974D01*
X12184Y9032D01*
X12222Y9060D01*
X12298Y9089D01*
X12412Y9089D01*
X12489Y9060D01*
X12527Y9032D01*
X12565Y8974D01*
X12565Y8746D01*
X12717Y9317D02*
X12717Y9603D01*
X12946Y9260D02*
X12146Y9460D01*
X12946Y9660D01*
G54D13*
X1146Y9581D02*
X1129Y9548D01*
X1095Y9514D01*
X1045Y9463D01*
X1028Y9430D01*
X1028Y9396D01*
X1112Y9413D02*
X1095Y9379D01*
X1062Y9345D01*
X994Y9328D01*
X876Y9328D01*
X809Y9345D01*
X775Y9379D01*
X758Y9413D01*
X758Y9480D01*
X775Y9514D01*
X809Y9548D01*
X876Y9564D01*
X994Y9564D01*
X1062Y9548D01*
X1095Y9514D01*
X1112Y9480D01*
X1112Y9413D01*
X1011Y9699D02*
X1011Y9868D01*
X1112Y9666D02*
X758Y9784D01*
X1112Y9902D01*
G54D11*
X2231Y18774D02*
X1950Y18643D01*
X2231Y18550D02*
X1641Y18550D01*
X1641Y18699D01*
X1669Y18737D01*
X1697Y18755D01*
X1753Y18774D01*
X1837Y18774D01*
X1894Y18755D01*
X1922Y18737D01*
X1950Y18699D01*
X1950Y18550D01*
X2203Y19092D02*
X2231Y19055D01*
X2231Y18980D01*
X2203Y18943D01*
X2147Y18924D01*
X1922Y18924D01*
X1866Y18943D01*
X1837Y18980D01*
X1837Y19055D01*
X1866Y19092D01*
X1922Y19111D01*
X1978Y19111D01*
X2034Y18924D01*
X1837Y19242D02*
X2231Y19336D01*
X1837Y19429D01*
G54D14*
X1441Y18417D02*
X1441Y19205D01*
G54D12*
X414Y11277D02*
X414Y11334D01*
X452Y11391D01*
X490Y11420D01*
X566Y11449D01*
X719Y11477D01*
X909Y11477D01*
X1061Y11449D01*
X1138Y11420D01*
X1176Y11391D01*
X1214Y11334D01*
X1214Y11277D01*
X1176Y11220D01*
X1138Y11191D01*
X1061Y11163D01*
X909Y11134D01*
X719Y11134D01*
X566Y11163D01*
X490Y11191D01*
X452Y11220D01*
X414Y11277D01*
X490Y11705D02*
X452Y11734D01*
X414Y11791D01*
X414Y11934D01*
X452Y11991D01*
X490Y12020D01*
X566Y12048D01*
X642Y12048D01*
X757Y12020D01*
X1214Y11677D01*
X1214Y12048D01*
X414Y12419D02*
X414Y12476D01*
X452Y12533D01*
X490Y12562D01*
X566Y12591D01*
X719Y12619D01*
X909Y12619D01*
X1061Y12591D01*
X1138Y12562D01*
X1176Y12533D01*
X1214Y12476D01*
X1214Y12419D01*
X1176Y12362D01*
X1138Y12333D01*
X1061Y12305D01*
X909Y12276D01*
X719Y12276D01*
X566Y12305D01*
X490Y12333D01*
X452Y12362D01*
X414Y12419D01*
X414Y12990D02*
X414Y13047D01*
X452Y13104D01*
X490Y13133D01*
X566Y13162D01*
X719Y13190D01*
X909Y13190D01*
X1061Y13162D01*
X1138Y13133D01*
X1176Y13104D01*
X1214Y13047D01*
X1214Y12990D01*
X1176Y12933D01*
X1138Y12904D01*
X1061Y12876D01*
X909Y12847D01*
X719Y12847D01*
X566Y12876D01*
X490Y12904D01*
X452Y12933D01*
X414Y12990D01*
X909Y13447D02*
X909Y13904D01*
X414Y14304D02*
X414Y14361D01*
X452Y14418D01*
X490Y14447D01*
X566Y14476D01*
X719Y14504D01*
X909Y14504D01*
X1061Y14476D01*
X1138Y14447D01*
X1176Y14418D01*
X1214Y14361D01*
X1214Y14304D01*
X1176Y14247D01*
X1138Y14218D01*
X1061Y14190D01*
X909Y14161D01*
X719Y14161D01*
X566Y14190D01*
X490Y14218D01*
X452Y14247D01*
X414Y14304D01*
X414Y14875D02*
X414Y14932D01*
X452Y14989D01*
X490Y15018D01*
X566Y15047D01*
X719Y15075D01*
X909Y15075D01*
X1061Y15047D01*
X1138Y15018D01*
X1176Y14989D01*
X1214Y14932D01*
X1214Y14875D01*
X1176Y14818D01*
X1138Y14789D01*
X1061Y14761D01*
X909Y14732D01*
X719Y14732D01*
X566Y14761D01*
X490Y14789D01*
X452Y14818D01*
X414Y14875D01*
X414Y15446D02*
X414Y15503D01*
X452Y15560D01*
X490Y15589D01*
X566Y15618D01*
X719Y15646D01*
X909Y15646D01*
X1061Y15618D01*
X1138Y15589D01*
X1176Y15560D01*
X1214Y15503D01*
X1214Y15446D01*
X1176Y15389D01*
X1138Y15360D01*
X1061Y15332D01*
X909Y15303D01*
X719Y15303D01*
X566Y15332D01*
X490Y15360D01*
X452Y15389D01*
X414Y15446D01*
X490Y15874D02*
X452Y15903D01*
X414Y15960D01*
X414Y16103D01*
X452Y16160D01*
X490Y16189D01*
X566Y16217D01*
X642Y16217D01*
X757Y16189D01*
X1214Y15846D01*
X1214Y16217D01*
X909Y16474D02*
X909Y16931D01*
X414Y17331D02*
X414Y17388D01*
X452Y17445D01*
X490Y17474D01*
X566Y17503D01*
X719Y17531D01*
X909Y17531D01*
X1061Y17503D01*
X1138Y17474D01*
X1176Y17445D01*
X1214Y17388D01*
X1214Y17331D01*
X1176Y17274D01*
X1138Y17245D01*
X1061Y17217D01*
X909Y17188D01*
X719Y17188D01*
X566Y17217D01*
X490Y17245D01*
X452Y17274D01*
X414Y17331D01*
X414Y17902D02*
X414Y17959D01*
X452Y18016D01*
X490Y18045D01*
X566Y18074D01*
X719Y18102D01*
X909Y18102D01*
X1061Y18074D01*
X1138Y18045D01*
X1176Y18016D01*
X1214Y17959D01*
X1214Y17902D01*
X1176Y17845D01*
X1138Y17816D01*
X1061Y17788D01*
X909Y17759D01*
X719Y17759D01*
X566Y17788D01*
X490Y17816D01*
X452Y17845D01*
X414Y17902D01*
X414Y18473D02*
X414Y18530D01*
X452Y18587D01*
X490Y18616D01*
X566Y18645D01*
X719Y18673D01*
X909Y18673D01*
X1061Y18645D01*
X1138Y18616D01*
X1176Y18587D01*
X1214Y18530D01*
X1214Y18473D01*
X1176Y18416D01*
X1138Y18387D01*
X1061Y18359D01*
X909Y18330D01*
X719Y18330D01*
X566Y18359D01*
X490Y18387D01*
X452Y18416D01*
X414Y18473D01*
X490Y18901D02*
X452Y18930D01*
X414Y18987D01*
X414Y19130D01*
X452Y19187D01*
X490Y19216D01*
X566Y19244D01*
X642Y19244D01*
X757Y19216D01*
X1214Y18873D01*
X1214Y19244D01*
G54D15*
X10700Y6200D02*
X10700Y6600D01*
X10700Y6600D02*
X11300Y6600D01*
X11300Y6600D02*
X11300Y6200D01*
X11300Y5800D02*
X11300Y5400D01*
X11300Y5400D02*
X10700Y5400D01*
X10700Y5400D02*
X10700Y5800D01*
X7300Y7000D02*
X7300Y6600D01*
X7300Y6600D02*
X6700Y6600D01*
X6700Y6600D02*
X6700Y7000D01*
X6700Y7400D02*
X6700Y7800D01*
X6700Y7800D02*
X7300Y7800D01*
X7300Y7800D02*
X7300Y7400D01*
X6300Y7000D02*
X6300Y6600D01*
X6300Y6600D02*
X5700Y6600D01*
X5700Y6600D02*
X5700Y7000D01*
X5700Y7400D02*
X5700Y7800D01*
X5700Y7800D02*
X6300Y7800D01*
X6300Y7800D02*
X6300Y7400D01*
X2100Y11600D02*
X2100Y12000D01*
X2100Y12000D02*
X2700Y12000D01*
X2700Y12000D02*
X2700Y11600D01*
X2700Y11200D02*
X2700Y10800D01*
X2700Y10800D02*
X2100Y10800D01*
X2100Y10800D02*
X2100Y11200D01*
G54D14*
X4428Y7630D02*
X4426Y7615D01*
X4422Y7601D01*
X4414Y7587D01*
X4405Y7576D01*
X4393Y7566D01*
X4380Y7559D01*
X4365Y7554D01*
X4350Y7553D01*
X4336Y7554D01*
X4321Y7558D01*
X4308Y7565D01*
X4296Y7575D01*
X4286Y7586D01*
X4279Y7600D01*
X4274Y7614D01*
X4273Y7629D01*
X4274Y7644D01*
X4278Y7658D01*
X4285Y7672D01*
X4294Y7684D01*
X4306Y7694D01*
X4319Y7701D01*
X4334Y7706D01*
X4349Y7707D01*
X4363Y7706D01*
X4378Y7702D01*
X4391Y7695D01*
X4403Y7686D01*
X4413Y7674D01*
X4421Y7661D01*
X4426Y7647D01*
X4427Y7632D01*
X4428Y7630D01*
G54D16*
X1000Y8000D02*
X4000Y8000D01*
X4000Y6000D02*
X1000Y6000D01*
X1000Y6000D02*
X1000Y8000D01*
X4000Y8000D02*
X4000Y6000D01*
G54D12*
X7000Y18000D02*
X7000Y19000D01*
X7000Y19000D02*
X13000Y19000D01*
X13000Y19000D02*
X13000Y18000D01*
X13000Y18000D02*
X7000Y18000D01*
X8000Y18000D02*
X8000Y19000D01*
G54D14*
X18618Y13083D02*
X18618Y12492D01*
X18854Y12768D02*
X18303Y12768D01*
X19681Y15681D02*
X17122Y15681D01*
X17122Y15681D02*
X17122Y13319D01*
X17122Y13319D02*
X19681Y13319D01*
X19681Y13319D02*
X19681Y15681D01*
G54D17*
X12012Y12496D02*
X15240Y12496D01*
X15988Y14504D02*
X15988Y13244D01*
X15988Y13244D02*
X15240Y12496D01*
X12012Y12496D02*
X12012Y14504D01*
X12012Y14504D02*
X15988Y14504D01*
G54D18*
X10500Y14000D02*
X10500Y10000D01*
X9500Y14000D02*
X9500Y10000D01*
X9500Y10000D02*
X10500Y10000D01*
X10500Y14000D02*
X9500Y14000D01*
G54D10*
X7000Y9500D02*
X7000Y8500D01*
X7000Y8500D02*
X5000Y8500D01*
X5000Y8500D02*
X5000Y9500D01*
X5000Y9500D02*
X7000Y9500D01*
G54D17*
X15575Y819D02*
X15181Y819D01*
X15181Y3181D02*
X15575Y3181D01*
X15575Y819D02*
X15575Y3181D01*
X12819Y819D02*
X12425Y1213D01*
X12425Y1213D02*
X12425Y2787D01*
X12425Y2787D02*
X12819Y3181D01*
X16181Y19075D02*
X16181Y18681D01*
X13819Y18681D02*
X13819Y19075D01*
X16181Y19075D02*
X13819Y19075D01*
X16181Y16319D02*
X15787Y15925D01*
X15787Y15925D02*
X14213Y15925D01*
X14213Y15925D02*
X13819Y16319D01*
G54D19*
X10396Y7282D02*
X10396Y7154D01*
X10396Y7154D02*
X10593Y7154D01*
X10593Y7282D02*
X10593Y7154D01*
X10396Y7282D02*
X10593Y7282D01*
X10396Y7527D02*
X10396Y7468D01*
X10396Y7468D02*
X10495Y7468D01*
X10495Y7527D02*
X10495Y7468D01*
X10396Y7527D02*
X10495Y7527D01*
X10396Y7332D02*
X10396Y7273D01*
X10396Y7273D02*
X10495Y7273D01*
X10495Y7332D02*
X10495Y7273D01*
X10396Y7332D02*
X10495Y7332D01*
X10396Y7478D02*
X10396Y7322D01*
X10396Y7322D02*
X10465Y7322D01*
X10465Y7478D02*
X10465Y7322D01*
X10396Y7478D02*
X10465Y7478D01*
X9807Y7282D02*
X9807Y7154D01*
X9807Y7154D02*
X10004Y7154D01*
X10004Y7282D02*
X10004Y7154D01*
X9807Y7282D02*
X10004Y7282D01*
X9807Y7646D02*
X9807Y7518D01*
X9807Y7518D02*
X10004Y7518D01*
X10004Y7646D02*
X10004Y7518D01*
X9807Y7646D02*
X10004Y7646D01*
X9905Y7332D02*
X9905Y7273D01*
X9905Y7273D02*
X10004Y7273D01*
X10004Y7332D02*
X10004Y7273D01*
X9905Y7332D02*
X10004Y7332D01*
X9905Y7527D02*
X9905Y7468D01*
X9905Y7468D02*
X10004Y7468D01*
X10004Y7527D02*
X10004Y7468D01*
X9905Y7527D02*
X10004Y7527D01*
X9935Y7478D02*
X9935Y7322D01*
X9935Y7322D02*
X10004Y7322D01*
X10004Y7478D02*
X10004Y7322D01*
X9935Y7478D02*
X10004Y7478D01*
X10200Y7439D02*
X10200Y7361D01*
X10200Y7361D02*
X10278Y7361D01*
X10278Y7439D02*
X10278Y7361D01*
X10200Y7439D02*
X10278Y7439D01*
X10396Y7636D02*
X10396Y7518D01*
X10396Y7518D02*
X10514Y7518D01*
X10514Y7636D02*
X10514Y7518D01*
X10396Y7636D02*
X10514Y7636D01*
X10564Y7646D02*
X10564Y7557D01*
X10564Y7557D02*
X10593Y7557D01*
X10593Y7646D02*
X10593Y7557D01*
X10564Y7646D02*
X10593Y7646D01*
G54D20*
X10406Y7174D02*
X9994Y7174D01*
X10004Y7626D02*
X10564Y7626D01*
G54D21*
X10562Y7577D02*
X10561Y7572D01*
X10559Y7567D01*
X10557Y7562D01*
X10553Y7558D01*
X10549Y7554D01*
X10544Y7552D01*
X10539Y7550D01*
X10534Y7550D01*
X10529Y7550D01*
X10524Y7552D01*
X10519Y7554D01*
X10515Y7557D01*
X10511Y7562D01*
X10509Y7566D01*
X10507Y7572D01*
X10507Y7577D01*
X10507Y7582D01*
X10508Y7587D01*
X10511Y7592D01*
X10514Y7596D01*
X10519Y7599D01*
X10523Y7602D01*
X10528Y7604D01*
X10534Y7604D01*
X10538Y7604D01*
X10544Y7603D01*
X10549Y7600D01*
X10553Y7597D01*
X10556Y7593D01*
X10559Y7588D01*
X10561Y7583D01*
X10561Y7577D01*
X10562Y7577D01*
G54D20*
X10593Y7537D02*
X10582Y7536D01*
X10570Y7534D01*
X10558Y7532D01*
X10547Y7528D01*
X10536Y7524D01*
X10525Y7518D01*
X10515Y7512D01*
X10505Y7504D01*
X10497Y7496D01*
X10489Y7488D01*
X10481Y7478D01*
X10475Y7468D01*
X10469Y7457D01*
X10465Y7446D01*
X10461Y7435D01*
X10459Y7423D01*
X10457Y7411D01*
X10456Y7400D01*
X10457Y7389D01*
X10459Y7377D01*
X10461Y7365D01*
X10465Y7354D01*
X10469Y7343D01*
X10475Y7332D01*
X10481Y7322D01*
X10489Y7312D01*
X10497Y7304D01*
X10505Y7296D01*
X10515Y7288D01*
X10525Y7282D01*
X10536Y7276D01*
X10547Y7272D01*
X10558Y7268D01*
X10570Y7266D01*
X10582Y7264D01*
X10593Y7263D01*
X9807Y7263D02*
X9818Y7264D01*
X9830Y7266D01*
X9842Y7268D01*
X9853Y7272D01*
X9864Y7276D01*
X9875Y7282D01*
X9885Y7288D01*
X9895Y7296D01*
X9903Y7304D01*
X9911Y7312D01*
X9919Y7322D01*
X9925Y7332D01*
X9931Y7343D01*
X9935Y7354D01*
X9939Y7365D01*
X9941Y7377D01*
X9943Y7389D01*
X9944Y7400D01*
X9943Y7411D01*
X9941Y7423D01*
X9939Y7435D01*
X9935Y7446D01*
X9931Y7457D01*
X9925Y7468D01*
X9919Y7478D01*
X9911Y7488D01*
X9903Y7496D01*
X9895Y7504D01*
X9885Y7512D01*
X9875Y7518D01*
X9864Y7524D01*
X9853Y7528D01*
X9842Y7532D01*
X9830Y7534D01*
X9818Y7536D01*
X9807Y7537D01*
G54D19*
X2282Y12804D02*
X2154Y12804D01*
X2154Y12804D02*
X2154Y12607D01*
X2282Y12607D02*
X2154Y12607D01*
X2282Y12804D02*
X2282Y12607D01*
X2527Y12804D02*
X2468Y12804D01*
X2468Y12804D02*
X2468Y12705D01*
X2527Y12705D02*
X2468Y12705D01*
X2527Y12804D02*
X2527Y12705D01*
X2332Y12804D02*
X2273Y12804D01*
X2273Y12804D02*
X2273Y12705D01*
X2332Y12705D02*
X2273Y12705D01*
X2332Y12804D02*
X2332Y12705D01*
X2478Y12804D02*
X2322Y12804D01*
X2322Y12804D02*
X2322Y12735D01*
X2478Y12735D02*
X2322Y12735D01*
X2478Y12804D02*
X2478Y12735D01*
X2282Y13393D02*
X2154Y13393D01*
X2154Y13393D02*
X2154Y13196D01*
X2282Y13196D02*
X2154Y13196D01*
X2282Y13393D02*
X2282Y13196D01*
X2646Y13393D02*
X2518Y13393D01*
X2518Y13393D02*
X2518Y13196D01*
X2646Y13196D02*
X2518Y13196D01*
X2646Y13393D02*
X2646Y13196D01*
X2332Y13295D02*
X2273Y13295D01*
X2273Y13295D02*
X2273Y13196D01*
X2332Y13196D02*
X2273Y13196D01*
X2332Y13295D02*
X2332Y13196D01*
X2527Y13295D02*
X2468Y13295D01*
X2468Y13295D02*
X2468Y13196D01*
X2527Y13196D02*
X2468Y13196D01*
X2527Y13295D02*
X2527Y13196D01*
X2478Y13265D02*
X2322Y13265D01*
X2322Y13265D02*
X2322Y13196D01*
X2478Y13196D02*
X2322Y13196D01*
X2478Y13265D02*
X2478Y13196D01*
X2439Y13000D02*
X2361Y13000D01*
X2361Y13000D02*
X2361Y12922D01*
X2439Y12922D02*
X2361Y12922D01*
X2439Y13000D02*
X2439Y12922D01*
X2636Y12804D02*
X2518Y12804D01*
X2518Y12804D02*
X2518Y12686D01*
X2636Y12686D02*
X2518Y12686D01*
X2636Y12804D02*
X2636Y12686D01*
X2646Y12636D02*
X2557Y12636D01*
X2557Y12636D02*
X2557Y12607D01*
X2646Y12607D02*
X2557Y12607D01*
X2646Y12636D02*
X2646Y12607D01*
G54D20*
X2174Y12794D02*
X2174Y13206D01*
X2626Y13196D02*
X2626Y12636D01*
G54D21*
X2605Y12666D02*
X2604Y12661D01*
X2602Y12656D01*
X2600Y12651D01*
X2596Y12647D01*
X2592Y12643D01*
X2587Y12641D01*
X2582Y12639D01*
X2577Y12639D01*
X2572Y12639D01*
X2567Y12641D01*
X2562Y12643D01*
X2558Y12646D01*
X2554Y12651D01*
X2552Y12655D01*
X2550Y12661D01*
X2550Y12666D01*
X2550Y12671D01*
X2551Y12676D01*
X2554Y12681D01*
X2557Y12685D01*
X2562Y12688D01*
X2566Y12691D01*
X2571Y12693D01*
X2577Y12693D01*
X2581Y12693D01*
X2587Y12692D01*
X2592Y12689D01*
X2596Y12686D01*
X2599Y12682D01*
X2602Y12677D01*
X2604Y12672D01*
X2604Y12666D01*
X2605Y12666D01*
G54D20*
X2537Y12607D02*
X2536Y12618D01*
X2534Y12630D01*
X2532Y12642D01*
X2528Y12653D01*
X2524Y12664D01*
X2518Y12675D01*
X2512Y12685D01*
X2504Y12695D01*
X2496Y12703D01*
X2488Y12711D01*
X2478Y12719D01*
X2468Y12725D01*
X2457Y12731D01*
X2446Y12735D01*
X2435Y12739D01*
X2423Y12741D01*
X2411Y12743D01*
X2400Y12744D01*
X2389Y12743D01*
X2377Y12741D01*
X2365Y12739D01*
X2354Y12735D01*
X2343Y12731D01*
X2332Y12725D01*
X2322Y12719D01*
X2312Y12711D01*
X2304Y12703D01*
X2296Y12695D01*
X2288Y12685D01*
X2282Y12675D01*
X2276Y12664D01*
X2272Y12653D01*
X2268Y12642D01*
X2266Y12630D01*
X2264Y12618D01*
X2263Y12607D01*
X2263Y13393D02*
X2264Y13382D01*
X2266Y13370D01*
X2268Y13358D01*
X2272Y13347D01*
X2276Y13336D01*
X2282Y13325D01*
X2288Y13315D01*
X2296Y13305D01*
X2304Y13297D01*
X2312Y13289D01*
X2322Y13281D01*
X2332Y13275D01*
X2343Y13269D01*
X2354Y13265D01*
X2365Y13261D01*
X2377Y13259D01*
X2389Y13257D01*
X2400Y13256D01*
X2411Y13257D01*
X2423Y13259D01*
X2435Y13261D01*
X2446Y13265D01*
X2457Y13269D01*
X2468Y13275D01*
X2478Y13281D01*
X2488Y13289D01*
X2496Y13297D01*
X2504Y13305D01*
X2512Y13315D01*
X2518Y13325D01*
X2524Y13336D01*
X2528Y13347D01*
X2532Y13358D01*
X2534Y13370D01*
X2536Y13382D01*
X2537Y13393D01*
G54D15*
X4800Y10700D02*
X4799Y10691D01*
X4796Y10681D01*
X4791Y10673D01*
X4785Y10665D01*
X4777Y10659D01*
X4769Y10654D01*
X4760Y10652D01*
X4750Y10651D01*
X4741Y10651D01*
X4732Y10654D01*
X4723Y10659D01*
X4716Y10665D01*
X4709Y10672D01*
X4705Y10681D01*
X4702Y10690D01*
X4701Y10700D01*
X4701Y10709D01*
X4704Y10718D01*
X4708Y10727D01*
X4715Y10734D01*
X4722Y10741D01*
X4730Y10745D01*
X4740Y10748D01*
X4749Y10749D01*
X4758Y10749D01*
X4768Y10746D01*
X4776Y10742D01*
X4784Y10736D01*
X4790Y10728D01*
X4795Y10720D01*
X4798Y10711D01*
X4799Y10701D01*
X4800Y10700D01*
X5200Y10700D02*
X4800Y10700D01*
X4800Y10700D02*
X4800Y11300D01*
X4800Y11300D02*
X5200Y11300D01*
X5600Y11300D02*
X6000Y11300D01*
X6000Y11300D02*
X6000Y10700D01*
X6000Y10700D02*
X5600Y10700D01*
X12500Y11300D02*
X12499Y11291D01*
X12496Y11281D01*
X12491Y11273D01*
X12485Y11265D01*
X12477Y11259D01*
X12469Y11254D01*
X12460Y11252D01*
X12450Y11251D01*
X12441Y11251D01*
X12432Y11254D01*
X12423Y11259D01*
X12416Y11265D01*
X12409Y11272D01*
X12405Y11281D01*
X12402Y11290D01*
X12401Y11300D01*
X12401Y11309D01*
X12404Y11318D01*
X12408Y11327D01*
X12415Y11334D01*
X12422Y11341D01*
X12430Y11345D01*
X12440Y11348D01*
X12449Y11349D01*
X12458Y11349D01*
X12468Y11346D01*
X12476Y11342D01*
X12484Y11336D01*
X12490Y11328D01*
X12495Y11320D01*
X12498Y11311D01*
X12499Y11301D01*
X12500Y11300D01*
X12000Y11300D02*
X12400Y11300D01*
X12400Y11300D02*
X12400Y10700D01*
X12400Y10700D02*
X12000Y10700D01*
X11600Y10700D02*
X11200Y10700D01*
X11200Y10700D02*
X11200Y11300D01*
X11200Y11300D02*
X11600Y11300D01*
X9250Y6650D02*
X9249Y6641D01*
X9246Y6631D01*
X9241Y6623D01*
X9235Y6615D01*
X9227Y6609D01*
X9219Y6604D01*
X9210Y6602D01*
X9200Y6601D01*
X9191Y6601D01*
X9182Y6604D01*
X9173Y6609D01*
X9166Y6615D01*
X9159Y6622D01*
X9155Y6631D01*
X9152Y6640D01*
X9151Y6650D01*
X9151Y6659D01*
X9154Y6668D01*
X9158Y6677D01*
X9165Y6684D01*
X9172Y6691D01*
X9180Y6695D01*
X9190Y6698D01*
X9199Y6699D01*
X9208Y6699D01*
X9218Y6696D01*
X9226Y6692D01*
X9234Y6686D01*
X9240Y6678D01*
X9245Y6670D01*
X9248Y6661D01*
X9249Y6651D01*
X9250Y6650D01*
X9200Y6200D02*
X9200Y6600D01*
X9200Y6600D02*
X9800Y6600D01*
X9800Y6600D02*
X9800Y6200D01*
X9800Y5800D02*
X9800Y5400D01*
X9800Y5400D02*
X9200Y5400D01*
X9200Y5400D02*
X9200Y5800D01*
X2150Y15270D02*
X2149Y15261D01*
X2146Y15251D01*
X2141Y15243D01*
X2135Y15235D01*
X2127Y15229D01*
X2119Y15224D01*
X2110Y15222D01*
X2100Y15221D01*
X2091Y15221D01*
X2082Y15224D01*
X2073Y15229D01*
X2066Y15235D01*
X2059Y15242D01*
X2055Y15251D01*
X2052Y15260D01*
X2051Y15270D01*
X2051Y15279D01*
X2054Y15288D01*
X2058Y15297D01*
X2065Y15304D01*
X2072Y15311D01*
X2080Y15315D01*
X2090Y15318D01*
X2099Y15319D01*
X2108Y15319D01*
X2118Y15316D01*
X2126Y15312D01*
X2134Y15306D01*
X2140Y15298D01*
X2145Y15290D01*
X2148Y15281D01*
X2149Y15271D01*
X2150Y15270D01*
X2100Y14820D02*
X2100Y15220D01*
X2100Y15220D02*
X2700Y15220D01*
X2700Y15220D02*
X2700Y14820D01*
X2700Y14420D02*
X2700Y14020D01*
X2700Y14020D02*
X2100Y14020D01*
X2100Y14020D02*
X2100Y14420D01*
X6500Y17820D02*
X6499Y17811D01*
X6496Y17801D01*
X6491Y17793D01*
X6485Y17785D01*
X6477Y17779D01*
X6469Y17774D01*
X6460Y17772D01*
X6450Y17771D01*
X6441Y17771D01*
X6432Y17774D01*
X6423Y17779D01*
X6416Y17785D01*
X6409Y17792D01*
X6405Y17801D01*
X6402Y17810D01*
X6401Y17820D01*
X6401Y17829D01*
X6404Y17838D01*
X6408Y17847D01*
X6415Y17854D01*
X6422Y17861D01*
X6430Y17865D01*
X6440Y17868D01*
X6449Y17869D01*
X6458Y17869D01*
X6468Y17866D01*
X6476Y17862D01*
X6484Y17856D01*
X6490Y17848D01*
X6495Y17840D01*
X6498Y17831D01*
X6499Y17821D01*
X6500Y17820D01*
X6000Y17820D02*
X6400Y17820D01*
X6400Y17820D02*
X6400Y17220D01*
X6400Y17220D02*
X6000Y17220D01*
X5600Y17220D02*
X5200Y17220D01*
X5200Y17220D02*
X5200Y17820D01*
X5200Y17820D02*
X5600Y17820D01*
X9405Y14311D02*
X9404Y14302D01*
X9401Y14292D01*
X9396Y14284D01*
X9390Y14276D01*
X9382Y14270D01*
X9374Y14265D01*
X9365Y14263D01*
X9355Y14262D01*
X9346Y14262D01*
X9337Y14265D01*
X9328Y14270D01*
X9321Y14276D01*
X9314Y14283D01*
X9310Y14292D01*
X9307Y14301D01*
X9306Y14311D01*
X9306Y14320D01*
X9309Y14329D01*
X9313Y14338D01*
X9320Y14345D01*
X9327Y14352D01*
X9335Y14356D01*
X9345Y14359D01*
X9354Y14360D01*
X9363Y14360D01*
X9373Y14357D01*
X9381Y14353D01*
X9389Y14347D01*
X9395Y14339D01*
X9400Y14331D01*
X9403Y14322D01*
X9404Y14312D01*
X9405Y14311D01*
X9355Y14761D02*
X9355Y14361D01*
X9355Y14361D02*
X8755Y14361D01*
X8755Y14361D02*
X8755Y14761D01*
X8755Y15161D02*
X8755Y15561D01*
X8755Y15561D02*
X9355Y15561D01*
X9355Y15561D02*
X9355Y15161D01*
X8650Y8600D02*
X8650Y8700D01*
X8650Y8700D02*
X7750Y8700D01*
X7750Y8700D02*
X7750Y8600D01*
X8650Y8600D02*
X7750Y8600D01*
X7750Y8600D02*
X7750Y7950D01*
X8650Y7250D02*
X8650Y6600D01*
X8650Y6600D02*
X7750Y6600D01*
X7750Y6600D02*
X7750Y7250D01*
X8650Y7950D02*
X8650Y8600D01*
G54D17*
X18941Y4634D02*
X18941Y11366D01*
X18941Y11366D02*
X14059Y11366D01*
X14059Y11366D02*
X14059Y4634D01*
X14059Y4634D02*
X18941Y4634D01*
G54D12*
X3655Y16345D02*
X7595Y16345D01*
X7595Y16345D02*
X7595Y12405D01*
X3845Y12405D02*
X7595Y12405D01*
X3655Y12595D02*
X3655Y16345D01*
X3845Y12405D02*
X3655Y12595D01*
G54D16*
X4375Y12875D02*
X4370Y12827D01*
X4356Y12780D01*
X4333Y12737D01*
X4302Y12699D01*
X4264Y12668D01*
X4221Y12645D01*
X4175Y12631D01*
X4126Y12626D01*
X4079Y12630D01*
X4032Y12644D01*
X3989Y12666D01*
X3951Y12697D01*
X3919Y12734D01*
X3896Y12777D01*
X3881Y12824D01*
X3876Y12872D01*
X3880Y12920D01*
X3893Y12967D01*
X3915Y13010D01*
X3946Y13048D01*
X3983Y13080D01*
X4025Y13104D01*
X4072Y13119D01*
X4120Y13124D01*
X4168Y13121D01*
X4215Y13108D01*
X4258Y13086D01*
X4297Y13056D01*
X4329Y13019D01*
X4353Y12976D01*
X4368Y12930D01*
X4374Y12881D01*
X4375Y12875D01*
G54D17*
X7391Y10705D02*
X7469Y10705D01*
X7391Y11295D02*
X7469Y11295D01*
X6209Y11295D02*
X6131Y11295D01*
X6209Y10705D02*
X6131Y10705D01*
X7469Y11295D02*
X7469Y10705D01*
X6131Y10705D02*
X6131Y11295D01*
G54D10*
X3230Y7770D02*
X3230Y7230D01*
X3770Y7230D01*
X3770Y7770D01*
X3230Y7770D01*
X3770Y6500D02*
X3764Y6448D01*
X3749Y6398D01*
X3724Y6351D01*
X3691Y6310D01*
X3650Y6277D01*
X3604Y6252D01*
X3554Y6236D01*
X3501Y6231D01*
X3450Y6235D01*
X3399Y6250D01*
X3353Y6275D01*
X3312Y6308D01*
X3278Y6348D01*
X3252Y6394D01*
X3236Y6444D01*
X3231Y6497D01*
X3235Y6548D01*
X3249Y6599D01*
X3274Y6646D01*
X3306Y6687D01*
X3346Y6721D01*
X3392Y6747D01*
X3443Y6763D01*
X3495Y6769D01*
X3546Y6765D01*
X3597Y6751D01*
X3644Y6727D01*
X3686Y6695D01*
X3720Y6655D01*
X3746Y6609D01*
X3763Y6559D01*
X3769Y6507D01*
X3770Y6500D01*
X2770Y7500D02*
X2764Y7448D01*
X2749Y7398D01*
X2724Y7351D01*
X2691Y7310D01*
X2650Y7277D01*
X2604Y7252D01*
X2554Y7236D01*
X2501Y7231D01*
X2450Y7235D01*
X2399Y7250D01*
X2353Y7275D01*
X2312Y7308D01*
X2278Y7348D01*
X2252Y7394D01*
X2236Y7444D01*
X2231Y7497D01*
X2235Y7548D01*
X2249Y7599D01*
X2274Y7646D01*
X2306Y7687D01*
X2346Y7721D01*
X2392Y7747D01*
X2443Y7763D01*
X2495Y7769D01*
X2546Y7765D01*
X2597Y7751D01*
X2644Y7727D01*
X2686Y7695D01*
X2720Y7655D01*
X2746Y7609D01*
X2763Y7559D01*
X2769Y7507D01*
X2770Y7500D01*
X2770Y6500D02*
X2764Y6448D01*
X2749Y6398D01*
X2724Y6351D01*
X2691Y6310D01*
X2650Y6277D01*
X2604Y6252D01*
X2554Y6236D01*
X2501Y6231D01*
X2450Y6235D01*
X2399Y6250D01*
X2353Y6275D01*
X2312Y6308D01*
X2278Y6348D01*
X2252Y6394D01*
X2236Y6444D01*
X2231Y6497D01*
X2235Y6548D01*
X2249Y6599D01*
X2274Y6646D01*
X2306Y6687D01*
X2346Y6721D01*
X2392Y6747D01*
X2443Y6763D01*
X2495Y6769D01*
X2546Y6765D01*
X2597Y6751D01*
X2644Y6727D01*
X2686Y6695D01*
X2720Y6655D01*
X2746Y6609D01*
X2763Y6559D01*
X2769Y6507D01*
X2770Y6500D01*
X1770Y7500D02*
X1764Y7448D01*
X1749Y7398D01*
X1724Y7351D01*
X1691Y7310D01*
X1650Y7277D01*
X1604Y7252D01*
X1554Y7236D01*
X1501Y7231D01*
X1450Y7235D01*
X1399Y7250D01*
X1353Y7275D01*
X1312Y7308D01*
X1278Y7348D01*
X1252Y7394D01*
X1236Y7444D01*
X1231Y7497D01*
X1235Y7548D01*
X1249Y7599D01*
X1274Y7646D01*
X1306Y7687D01*
X1346Y7721D01*
X1392Y7747D01*
X1443Y7763D01*
X1495Y7769D01*
X1546Y7765D01*
X1597Y7751D01*
X1644Y7727D01*
X1686Y7695D01*
X1720Y7655D01*
X1746Y7609D01*
X1763Y7559D01*
X1769Y7507D01*
X1770Y7500D01*
X1770Y6500D02*
X1764Y6448D01*
X1749Y6398D01*
X1724Y6351D01*
X1691Y6310D01*
X1650Y6277D01*
X1604Y6252D01*
X1554Y6236D01*
X1501Y6231D01*
X1450Y6235D01*
X1399Y6250D01*
X1353Y6275D01*
X1312Y6308D01*
X1278Y6348D01*
X1252Y6394D01*
X1236Y6444D01*
X1231Y6497D01*
X1235Y6548D01*
X1249Y6599D01*
X1274Y6646D01*
X1306Y6687D01*
X1346Y6721D01*
X1392Y6747D01*
X1443Y6763D01*
X1495Y6769D01*
X1546Y6765D01*
X1597Y6751D01*
X1644Y6727D01*
X1686Y6695D01*
X1720Y6655D01*
X1746Y6609D01*
X1763Y6559D01*
X1769Y6507D01*
X1770Y6500D01*
X7230Y18770D02*
X7230Y18230D01*
X7770Y18230D01*
X7770Y18770D01*
X7230Y18770D01*
X8770Y18500D02*
X8764Y18448D01*
X8749Y18398D01*
X8724Y18351D01*
X8691Y18310D01*
X8650Y18277D01*
X8604Y18252D01*
X8554Y18236D01*
X8501Y18231D01*
X8450Y18235D01*
X8399Y18250D01*
X8353Y18275D01*
X8312Y18308D01*
X8278Y18348D01*
X8252Y18394D01*
X8236Y18444D01*
X8231Y18497D01*
X8235Y18548D01*
X8249Y18599D01*
X8274Y18646D01*
X8306Y18687D01*
X8346Y18721D01*
X8392Y18747D01*
X8443Y18763D01*
X8495Y18769D01*
X8546Y18765D01*
X8597Y18751D01*
X8644Y18727D01*
X8686Y18695D01*
X8720Y18655D01*
X8746Y18609D01*
X8763Y18559D01*
X8769Y18507D01*
X8770Y18500D01*
X9770Y18500D02*
X9764Y18448D01*
X9749Y18398D01*
X9724Y18351D01*
X9691Y18310D01*
X9650Y18277D01*
X9604Y18252D01*
X9554Y18236D01*
X9501Y18231D01*
X9450Y18235D01*
X9399Y18250D01*
X9353Y18275D01*
X9312Y18308D01*
X9278Y18348D01*
X9252Y18394D01*
X9236Y18444D01*
X9231Y18497D01*
X9235Y18548D01*
X9249Y18599D01*
X9274Y18646D01*
X9306Y18687D01*
X9346Y18721D01*
X9392Y18747D01*
X9443Y18763D01*
X9495Y18769D01*
X9546Y18765D01*
X9597Y18751D01*
X9644Y18727D01*
X9686Y18695D01*
X9720Y18655D01*
X9746Y18609D01*
X9763Y18559D01*
X9769Y18507D01*
X9770Y18500D01*
X10770Y18500D02*
X10764Y18448D01*
X10749Y18398D01*
X10724Y18351D01*
X10691Y18310D01*
X10650Y18277D01*
X10604Y18252D01*
X10554Y18236D01*
X10501Y18231D01*
X10450Y18235D01*
X10399Y18250D01*
X10353Y18275D01*
X10312Y18308D01*
X10278Y18348D01*
X10252Y18394D01*
X10236Y18444D01*
X10231Y18497D01*
X10235Y18548D01*
X10249Y18599D01*
X10274Y18646D01*
X10306Y18687D01*
X10346Y18721D01*
X10392Y18747D01*
X10443Y18763D01*
X10495Y18769D01*
X10546Y18765D01*
X10597Y18751D01*
X10644Y18727D01*
X10686Y18695D01*
X10720Y18655D01*
X10746Y18609D01*
X10763Y18559D01*
X10769Y18507D01*
X10770Y18500D01*
X11770Y18500D02*
X11764Y18448D01*
X11749Y18398D01*
X11724Y18351D01*
X11691Y18310D01*
X11650Y18277D01*
X11604Y18252D01*
X11554Y18236D01*
X11501Y18231D01*
X11450Y18235D01*
X11399Y18250D01*
X11353Y18275D01*
X11312Y18308D01*
X11278Y18348D01*
X11252Y18394D01*
X11236Y18444D01*
X11231Y18497D01*
X11235Y18548D01*
X11249Y18599D01*
X11274Y18646D01*
X11306Y18687D01*
X11346Y18721D01*
X11392Y18747D01*
X11443Y18763D01*
X11495Y18769D01*
X11546Y18765D01*
X11597Y18751D01*
X11644Y18727D01*
X11686Y18695D01*
X11720Y18655D01*
X11746Y18609D01*
X11763Y18559D01*
X11769Y18507D01*
X11770Y18500D01*
X12770Y18500D02*
X12764Y18448D01*
X12749Y18398D01*
X12724Y18351D01*
X12691Y18310D01*
X12650Y18277D01*
X12604Y18252D01*
X12554Y18236D01*
X12501Y18231D01*
X12450Y18235D01*
X12399Y18250D01*
X12353Y18275D01*
X12312Y18308D01*
X12278Y18348D01*
X12252Y18394D01*
X12236Y18444D01*
X12231Y18497D01*
X12235Y18548D01*
X12249Y18599D01*
X12274Y18646D01*
X12306Y18687D01*
X12346Y18721D01*
X12392Y18747D01*
X12443Y18763D01*
X12495Y18769D01*
X12546Y18765D01*
X12597Y18751D01*
X12644Y18727D01*
X12686Y18695D01*
X12720Y18655D01*
X12746Y18609D01*
X12763Y18559D01*
X12769Y18507D01*
X12770Y18500D01*
X18230Y15270D02*
X18230Y14730D01*
X18770Y14730D01*
X18770Y15270D01*
X18230Y15270D01*
X18770Y14000D02*
X18764Y13948D01*
X18749Y13898D01*
X18724Y13851D01*
X18691Y13810D01*
X18650Y13777D01*
X18604Y13752D01*
X18554Y13736D01*
X18501Y13731D01*
X18450Y13735D01*
X18399Y13750D01*
X18353Y13775D01*
X18312Y13808D01*
X18278Y13848D01*
X18252Y13894D01*
X18236Y13944D01*
X18231Y13997D01*
X18235Y14048D01*
X18249Y14099D01*
X18274Y14146D01*
X18306Y14187D01*
X18346Y14221D01*
X18392Y14247D01*
X18443Y14263D01*
X18495Y14269D01*
X18546Y14265D01*
X18597Y14251D01*
X18644Y14227D01*
X18686Y14195D01*
X18720Y14155D01*
X18746Y14109D01*
X18763Y14059D01*
X18769Y14007D01*
X18770Y14000D01*
X15288Y13500D02*
X15282Y13441D01*
X15265Y13385D01*
X15237Y13332D01*
X15199Y13286D01*
X15153Y13248D01*
X15101Y13220D01*
X15045Y13203D01*
X14986Y13197D01*
X14928Y13202D01*
X14871Y13219D01*
X14818Y13246D01*
X14772Y13283D01*
X14734Y13329D01*
X14705Y13381D01*
X14687Y13437D01*
X14681Y13496D01*
X14685Y13554D01*
X14702Y13611D01*
X14729Y13664D01*
X14766Y13711D01*
X14811Y13749D01*
X14863Y13778D01*
X14919Y13796D01*
X14978Y13803D01*
X15036Y13799D01*
X15093Y13783D01*
X15146Y13756D01*
X15193Y13720D01*
X15232Y13675D01*
X15261Y13623D01*
X15280Y13567D01*
X15287Y13508D01*
X15288Y13500D01*
X14304Y13500D02*
X14298Y13441D01*
X14281Y13385D01*
X14253Y13332D01*
X14215Y13286D01*
X14169Y13248D01*
X14117Y13220D01*
X14061Y13203D01*
X14002Y13197D01*
X13944Y13202D01*
X13887Y13219D01*
X13834Y13246D01*
X13788Y13283D01*
X13750Y13329D01*
X13721Y13381D01*
X13703Y13437D01*
X13697Y13496D01*
X13701Y13554D01*
X13718Y13611D01*
X13745Y13664D01*
X13782Y13711D01*
X13827Y13749D01*
X13879Y13778D01*
X13935Y13796D01*
X13994Y13803D01*
X14052Y13799D01*
X14109Y13783D01*
X14162Y13756D01*
X14209Y13720D01*
X14248Y13675D01*
X14277Y13623D01*
X14296Y13567D01*
X14303Y13508D01*
X14304Y13500D01*
X13320Y13500D02*
X13314Y13441D01*
X13297Y13385D01*
X13269Y13332D01*
X13231Y13286D01*
X13185Y13248D01*
X13133Y13220D01*
X13077Y13203D01*
X13018Y13197D01*
X12960Y13202D01*
X12903Y13219D01*
X12850Y13246D01*
X12804Y13283D01*
X12766Y13329D01*
X12737Y13381D01*
X12719Y13437D01*
X12713Y13496D01*
X12717Y13554D01*
X12734Y13611D01*
X12761Y13664D01*
X12798Y13711D01*
X12843Y13749D01*
X12895Y13778D01*
X12951Y13796D01*
X13010Y13803D01*
X13068Y13799D01*
X13125Y13783D01*
X13178Y13756D01*
X13225Y13720D01*
X13264Y13675D01*
X13293Y13623D01*
X13312Y13567D01*
X13319Y13508D01*
X13320Y13500D01*
X9730Y10770D02*
X9730Y10230D01*
X10270Y10230D01*
X10270Y10770D01*
X9730Y10770D01*
X10270Y11500D02*
X10264Y11448D01*
X10249Y11398D01*
X10224Y11351D01*
X10191Y11310D01*
X10150Y11277D01*
X10104Y11252D01*
X10054Y11236D01*
X10001Y11231D01*
X9950Y11235D01*
X9899Y11250D01*
X9853Y11275D01*
X9812Y11308D01*
X9778Y11348D01*
X9752Y11394D01*
X9736Y11444D01*
X9731Y11497D01*
X9735Y11548D01*
X9749Y11599D01*
X9774Y11646D01*
X9806Y11687D01*
X9846Y11721D01*
X9892Y11747D01*
X9943Y11763D01*
X9995Y11769D01*
X10046Y11765D01*
X10097Y11751D01*
X10144Y11727D01*
X10186Y11695D01*
X10220Y11655D01*
X10246Y11609D01*
X10263Y11559D01*
X10269Y11507D01*
X10270Y11500D01*
X10270Y12500D02*
X10264Y12448D01*
X10249Y12398D01*
X10224Y12351D01*
X10191Y12310D01*
X10150Y12277D01*
X10104Y12252D01*
X10054Y12236D01*
X10001Y12231D01*
X9950Y12235D01*
X9899Y12250D01*
X9853Y12275D01*
X9812Y12308D01*
X9778Y12348D01*
X9752Y12394D01*
X9736Y12444D01*
X9731Y12497D01*
X9735Y12548D01*
X9749Y12599D01*
X9774Y12646D01*
X9806Y12687D01*
X9846Y12721D01*
X9892Y12747D01*
X9943Y12763D01*
X9995Y12769D01*
X10046Y12765D01*
X10097Y12751D01*
X10144Y12727D01*
X10186Y12695D01*
X10220Y12655D01*
X10246Y12609D01*
X10263Y12559D01*
X10269Y12507D01*
X10270Y12500D01*
X10270Y13500D02*
X10264Y13448D01*
X10249Y13398D01*
X10224Y13351D01*
X10191Y13310D01*
X10150Y13277D01*
X10104Y13252D01*
X10054Y13236D01*
X10001Y13231D01*
X9950Y13235D01*
X9899Y13250D01*
X9853Y13275D01*
X9812Y13308D01*
X9778Y13348D01*
X9752Y13394D01*
X9736Y13444D01*
X9731Y13497D01*
X9735Y13548D01*
X9749Y13599D01*
X9774Y13646D01*
X9806Y13687D01*
X9846Y13721D01*
X9892Y13747D01*
X9943Y13763D01*
X9995Y13769D01*
X10046Y13765D01*
X10097Y13751D01*
X10144Y13727D01*
X10186Y13695D01*
X10220Y13655D01*
X10246Y13609D01*
X10263Y13559D01*
X10269Y13507D01*
X10270Y13500D01*
X6230Y9270D02*
X6230Y8730D01*
X6770Y8730D01*
X6770Y9270D01*
X6230Y9270D01*
X5770Y9000D02*
X5764Y8948D01*
X5749Y8898D01*
X5724Y8851D01*
X5691Y8810D01*
X5650Y8777D01*
X5604Y8752D01*
X5554Y8736D01*
X5501Y8731D01*
X5450Y8735D01*
X5399Y8750D01*
X5353Y8775D01*
X5312Y8808D01*
X5278Y8848D01*
X5252Y8894D01*
X5236Y8944D01*
X5231Y8997D01*
X5235Y9048D01*
X5249Y9099D01*
X5274Y9146D01*
X5306Y9187D01*
X5346Y9221D01*
X5392Y9247D01*
X5443Y9263D01*
X5495Y9269D01*
X5546Y9265D01*
X5597Y9251D01*
X5644Y9227D01*
X5686Y9195D01*
X5720Y9155D01*
X5746Y9109D01*
X5763Y9059D01*
X5769Y9007D01*
X5770Y9000D01*
X5544Y4000D02*
X5537Y3938D01*
X5519Y3877D01*
X5489Y3821D01*
X5449Y3772D01*
X5401Y3732D01*
X5345Y3702D01*
X5285Y3683D01*
X5222Y3677D01*
X5160Y3682D01*
X5099Y3700D01*
X5043Y3729D01*
X4994Y3769D01*
X4953Y3817D01*
X4923Y3873D01*
X4904Y3933D01*
X4897Y3996D01*
X4902Y4058D01*
X4919Y4119D01*
X4948Y4175D01*
X4987Y4225D01*
X5036Y4266D01*
X5091Y4296D01*
X5151Y4316D01*
X5214Y4323D01*
X5276Y4319D01*
X5337Y4302D01*
X5393Y4273D01*
X5443Y4234D01*
X5484Y4186D01*
X5515Y4131D01*
X5535Y4071D01*
X5543Y4009D01*
X5544Y4000D01*
X8104Y4000D02*
X8097Y3938D01*
X8079Y3877D01*
X8049Y3821D01*
X8009Y3772D01*
X7961Y3732D01*
X7905Y3702D01*
X7845Y3683D01*
X7782Y3677D01*
X7720Y3682D01*
X7659Y3700D01*
X7603Y3729D01*
X7554Y3769D01*
X7513Y3817D01*
X7483Y3873D01*
X7464Y3933D01*
X7457Y3996D01*
X7462Y4058D01*
X7479Y4119D01*
X7508Y4175D01*
X7547Y4225D01*
X7596Y4266D01*
X7651Y4296D01*
X7711Y4316D01*
X7774Y4323D01*
X7836Y4319D01*
X7897Y4302D01*
X7953Y4273D01*
X8003Y4234D01*
X8044Y4186D01*
X8075Y4131D01*
X8095Y4071D01*
X8103Y4009D01*
X8104Y4000D01*
X5544Y2228D02*
X5537Y2166D01*
X5519Y2105D01*
X5489Y2049D01*
X5449Y2000D01*
X5401Y1960D01*
X5345Y1930D01*
X5285Y1911D01*
X5222Y1905D01*
X5160Y1910D01*
X5099Y1928D01*
X5043Y1957D01*
X4994Y1997D01*
X4953Y2045D01*
X4923Y2101D01*
X4904Y2161D01*
X4897Y2224D01*
X4902Y2286D01*
X4919Y2347D01*
X4948Y2403D01*
X4987Y2453D01*
X5036Y2494D01*
X5091Y2524D01*
X5151Y2544D01*
X5214Y2551D01*
X5276Y2547D01*
X5337Y2530D01*
X5393Y2501D01*
X5443Y2462D01*
X5484Y2414D01*
X5515Y2359D01*
X5535Y2299D01*
X5543Y2237D01*
X5544Y2228D01*
X8104Y2228D02*
X8097Y2166D01*
X8079Y2105D01*
X8049Y2049D01*
X8009Y2000D01*
X7961Y1960D01*
X7905Y1930D01*
X7845Y1911D01*
X7782Y1905D01*
X7720Y1910D01*
X7659Y1928D01*
X7603Y1957D01*
X7554Y1997D01*
X7513Y2045D01*
X7483Y2101D01*
X7464Y2161D01*
X7457Y2224D01*
X7462Y2286D01*
X7479Y2347D01*
X7508Y2403D01*
X7547Y2453D01*
X7596Y2494D01*
X7651Y2524D01*
X7711Y2544D01*
X7774Y2551D01*
X7836Y2547D01*
X7897Y2530D01*
X7953Y2501D01*
X8003Y2462D01*
X8044Y2414D01*
X8075Y2359D01*
X8095Y2299D01*
X8103Y2237D01*
X8104Y2228D01*
X6824Y1500D02*
X6817Y1438D01*
X6799Y1377D01*
X6769Y1321D01*
X6729Y1272D01*
X6681Y1232D01*
X6625Y1202D01*
X6565Y1183D01*
X6502Y1177D01*
X6440Y1182D01*
X6379Y1200D01*
X6323Y1229D01*
X6274Y1269D01*
X6233Y1317D01*
X6203Y1373D01*
X6184Y1433D01*
X6177Y1496D01*
X6182Y1558D01*
X6199Y1619D01*
X6228Y1675D01*
X6267Y1725D01*
X6316Y1766D01*
X6371Y1796D01*
X6431Y1816D01*
X6494Y1823D01*
X6556Y1819D01*
X6617Y1802D01*
X6673Y1773D01*
X6723Y1734D01*
X6764Y1686D01*
X6795Y1631D01*
X6815Y1571D01*
X6823Y1509D01*
X6824Y1500D01*
X18220Y17500D02*
X18206Y17361D01*
X18165Y17226D01*
X18099Y17102D01*
X18010Y16993D01*
X17902Y16904D01*
X17779Y16837D01*
X17644Y16795D01*
X17505Y16781D01*
X17366Y16793D01*
X17231Y16833D01*
X17106Y16898D01*
X16997Y16986D01*
X16906Y17094D01*
X16839Y17217D01*
X16796Y17351D01*
X16781Y17490D01*
X16792Y17629D01*
X16831Y17765D01*
X16895Y17890D01*
X16983Y18000D01*
X17090Y18091D01*
X17212Y18159D01*
X17346Y18203D01*
X17485Y18219D01*
X17625Y18209D01*
X17760Y18171D01*
X17885Y18107D01*
X17996Y18021D01*
X18088Y17915D01*
X18157Y17792D01*
X18202Y17659D01*
X18219Y17520D01*
X18220Y17500D01*
X3220Y17500D02*
X3206Y17361D01*
X3165Y17226D01*
X3099Y17102D01*
X3010Y16993D01*
X2902Y16904D01*
X2779Y16837D01*
X2644Y16795D01*
X2505Y16781D01*
X2366Y16793D01*
X2231Y16833D01*
X2106Y16898D01*
X1997Y16986D01*
X1906Y17094D01*
X1839Y17217D01*
X1796Y17351D01*
X1781Y17490D01*
X1792Y17629D01*
X1831Y17765D01*
X1895Y17890D01*
X1983Y18000D01*
X2090Y18091D01*
X2212Y18159D01*
X2346Y18203D01*
X2485Y18219D01*
X2625Y18209D01*
X2760Y18171D01*
X2885Y18107D01*
X2996Y18021D01*
X3088Y17915D01*
X3157Y17792D01*
X3202Y17659D01*
X3219Y17520D01*
X3220Y17500D01*
X3220Y2500D02*
X3206Y2361D01*
X3165Y2226D01*
X3099Y2102D01*
X3010Y1993D01*
X2902Y1904D01*
X2779Y1837D01*
X2644Y1795D01*
X2505Y1781D01*
X2366Y1793D01*
X2231Y1833D01*
X2106Y1898D01*
X1997Y1986D01*
X1906Y2094D01*
X1839Y2217D01*
X1796Y2351D01*
X1781Y2490D01*
X1792Y2629D01*
X1831Y2765D01*
X1895Y2890D01*
X1983Y3000D01*
X2090Y3091D01*
X2212Y3159D01*
X2346Y3203D01*
X2485Y3219D01*
X2625Y3209D01*
X2760Y3171D01*
X2885Y3107D01*
X2996Y3021D01*
X3088Y2915D01*
X3157Y2792D01*
X3202Y2659D01*
X3219Y2520D01*
X3220Y2500D01*
X18220Y2500D02*
X18206Y2361D01*
X18165Y2226D01*
X18099Y2102D01*
X18010Y1993D01*
X17902Y1904D01*
X17779Y1837D01*
X17644Y1795D01*
X17505Y1781D01*
X17366Y1793D01*
X17231Y1833D01*
X17106Y1898D01*
X16997Y1986D01*
X16906Y2094D01*
X16839Y2217D01*
X16796Y2351D01*
X16781Y2490D01*
X16792Y2629D01*
X16831Y2765D01*
X16895Y2890D01*
X16983Y3000D01*
X17090Y3091D01*
X17212Y3159D01*
X17346Y3203D01*
X17485Y3219D01*
X17625Y3209D01*
X17760Y3171D01*
X17885Y3107D01*
X17996Y3021D01*
X18088Y2915D01*
X18157Y2792D01*
X18202Y2659D01*
X18219Y2520D01*
X18220Y2500D01*
G54D15*
X11081Y6867D02*
X10986Y6800D01*
X11081Y6753D02*
X10881Y6753D01*
X10881Y6829D01*
X10890Y6848D01*
X10900Y6857D01*
X10919Y6867D01*
X10948Y6867D01*
X10967Y6857D01*
X10976Y6848D01*
X10986Y6829D01*
X10986Y6753D01*
X11081Y7057D02*
X11081Y6943D01*
X11081Y7000D02*
X10881Y7000D01*
X10910Y6981D01*
X10929Y6962D01*
X10938Y6943D01*
X7101Y6158D02*
X6982Y6075D01*
X7101Y6016D02*
X6851Y6016D01*
X6851Y6111D01*
X6863Y6135D01*
X6875Y6146D01*
X6899Y6158D01*
X6935Y6158D01*
X6958Y6146D01*
X6970Y6135D01*
X6982Y6111D01*
X6982Y6016D01*
X6851Y6242D02*
X6851Y6396D01*
X6946Y6313D01*
X6946Y6349D01*
X6958Y6373D01*
X6970Y6385D01*
X6994Y6396D01*
X7054Y6396D01*
X7077Y6385D01*
X7089Y6373D01*
X7101Y6349D01*
X7101Y6277D01*
X7089Y6254D01*
X7077Y6242D01*
X6101Y6158D02*
X5982Y6075D01*
X6101Y6016D02*
X5851Y6016D01*
X5851Y6111D01*
X5863Y6135D01*
X5875Y6146D01*
X5899Y6158D01*
X5935Y6158D01*
X5958Y6146D01*
X5970Y6135D01*
X5982Y6111D01*
X5982Y6016D01*
X5935Y6373D02*
X6101Y6373D01*
X5839Y6313D02*
X6018Y6254D01*
X6018Y6408D01*
X2981Y10767D02*
X2886Y10700D01*
X2981Y10653D02*
X2781Y10653D01*
X2781Y10729D01*
X2790Y10748D01*
X2800Y10757D01*
X2819Y10767D01*
X2848Y10767D01*
X2867Y10757D01*
X2876Y10748D01*
X2886Y10729D01*
X2886Y10653D01*
X2800Y10843D02*
X2790Y10853D01*
X2781Y10872D01*
X2781Y10919D01*
X2790Y10938D01*
X2800Y10948D01*
X2819Y10957D01*
X2838Y10957D01*
X2867Y10948D01*
X2981Y10834D01*
X2981Y10957D01*
G54D22*
X1078Y5479D02*
X1078Y5779D01*
X1193Y5779D01*
X1221Y5764D01*
X1236Y5750D01*
X1250Y5721D01*
X1250Y5679D01*
X1236Y5650D01*
X1221Y5636D01*
X1193Y5621D01*
X1078Y5621D01*
X1536Y5479D02*
X1364Y5479D01*
X1450Y5479D02*
X1450Y5779D01*
X1421Y5736D01*
X1393Y5707D01*
X1364Y5693D01*
G54D11*
X2707Y5424D02*
X2707Y5817D01*
X2856Y5817D01*
X2894Y5799D01*
X2912Y5780D01*
X2931Y5743D01*
X2931Y5686D01*
X2912Y5649D01*
X2894Y5630D01*
X2856Y5612D01*
X2707Y5612D01*
X3100Y5424D02*
X3100Y5686D01*
X3100Y5612D02*
X3118Y5649D01*
X3137Y5668D01*
X3174Y5686D01*
X3212Y5686D01*
X3399Y5424D02*
X3361Y5443D01*
X3343Y5462D01*
X3324Y5499D01*
X3324Y5612D01*
X3343Y5649D01*
X3361Y5668D01*
X3399Y5686D01*
X3455Y5686D01*
X3492Y5668D01*
X3511Y5649D01*
X3530Y5612D01*
X3530Y5499D01*
X3511Y5462D01*
X3492Y5443D01*
X3455Y5424D01*
X3399Y5424D01*
X3867Y5686D02*
X3867Y5368D01*
X3848Y5331D01*
X3830Y5312D01*
X3792Y5293D01*
X3736Y5293D01*
X3699Y5312D01*
X3867Y5443D02*
X3830Y5424D01*
X3755Y5424D01*
X3717Y5443D01*
X3699Y5462D01*
X3680Y5499D01*
X3680Y5612D01*
X3699Y5649D01*
X3717Y5668D01*
X3755Y5686D01*
X3830Y5686D01*
X3867Y5668D01*
G54D23*
X6303Y18379D02*
X6303Y18679D01*
X6418Y18679D01*
X6446Y18664D01*
X6461Y18650D01*
X6475Y18621D01*
X6475Y18579D01*
X6461Y18550D01*
X6446Y18536D01*
X6418Y18521D01*
X6303Y18521D01*
X6575Y18679D02*
X6761Y18679D01*
X6661Y18564D01*
X6703Y18564D01*
X6732Y18550D01*
X6746Y18536D01*
X6761Y18507D01*
X6761Y18436D01*
X6746Y18407D01*
X6732Y18393D01*
X6703Y18379D01*
X6618Y18379D01*
X6589Y18393D01*
X6575Y18407D01*
G54D11*
X9617Y17485D02*
X9486Y17485D01*
X9486Y17279D02*
X9486Y17672D01*
X9673Y17672D01*
X9766Y17672D02*
X9991Y17672D01*
X9879Y17279D02*
X9879Y17672D01*
X10122Y17279D02*
X10122Y17672D01*
X10215Y17672D01*
X10271Y17654D01*
X10309Y17616D01*
X10327Y17579D01*
X10346Y17504D01*
X10346Y17448D01*
X10327Y17373D01*
X10309Y17336D01*
X10271Y17298D01*
X10215Y17279D01*
X10122Y17279D01*
X10515Y17279D02*
X10515Y17672D01*
G54D24*
X12434Y17716D02*
X12434Y17462D01*
X12419Y17432D01*
X12404Y17417D01*
X12375Y17402D01*
X12330Y17402D01*
X12300Y17417D01*
X12434Y17522D02*
X12404Y17507D01*
X12345Y17507D01*
X12315Y17522D01*
X12300Y17537D01*
X12285Y17567D01*
X12285Y17656D01*
X12300Y17686D01*
X12315Y17701D01*
X12345Y17716D01*
X12404Y17716D01*
X12434Y17701D01*
X12584Y17507D02*
X12584Y17716D01*
X12584Y17656D02*
X12599Y17686D01*
X12614Y17701D01*
X12644Y17716D01*
X12673Y17716D01*
X12897Y17522D02*
X12867Y17507D01*
X12808Y17507D01*
X12778Y17522D01*
X12763Y17552D01*
X12763Y17671D01*
X12778Y17701D01*
X12808Y17716D01*
X12867Y17716D01*
X12897Y17701D01*
X12912Y17671D01*
X12912Y17641D01*
X12763Y17612D01*
X7165Y17467D02*
X7165Y17781D01*
X7165Y17661D02*
X7195Y17676D01*
X7254Y17676D01*
X7284Y17661D01*
X7299Y17646D01*
X7314Y17616D01*
X7314Y17527D01*
X7299Y17497D01*
X7284Y17482D01*
X7254Y17467D01*
X7195Y17467D01*
X7165Y17482D01*
X7494Y17467D02*
X7464Y17482D01*
X7449Y17512D01*
X7449Y17781D01*
X7613Y17467D02*
X7613Y17781D01*
X7643Y17587D02*
X7732Y17467D01*
X7732Y17676D02*
X7613Y17557D01*
G54D25*
X7352Y19478D02*
X7325Y19491D01*
X7286Y19491D01*
X7247Y19478D01*
X7221Y19452D01*
X7207Y19426D01*
X7194Y19373D01*
X7194Y19334D01*
X7207Y19282D01*
X7221Y19255D01*
X7247Y19229D01*
X7286Y19216D01*
X7312Y19216D01*
X7352Y19229D01*
X7365Y19242D01*
X7365Y19334D01*
X7312Y19334D01*
X7482Y19216D02*
X7482Y19491D01*
X7640Y19216D01*
X7640Y19491D01*
X7770Y19216D02*
X7770Y19491D01*
X7836Y19491D01*
X7875Y19478D01*
X7901Y19452D01*
X7915Y19426D01*
X7928Y19373D01*
X7928Y19334D01*
X7915Y19282D01*
X7901Y19255D01*
X7875Y19229D01*
X7836Y19216D01*
X7770Y19216D01*
X10093Y19216D02*
X10001Y19347D01*
X9935Y19216D02*
X9935Y19491D01*
X10040Y19491D01*
X10066Y19478D01*
X10080Y19465D01*
X10093Y19439D01*
X10093Y19400D01*
X10080Y19373D01*
X10066Y19360D01*
X10040Y19347D01*
X9935Y19347D01*
X10184Y19491D02*
X10368Y19216D01*
X10368Y19491D02*
X10184Y19216D01*
X10472Y19216D02*
X10472Y19491D01*
X10538Y19491D01*
X10577Y19478D01*
X10603Y19452D01*
X10617Y19426D01*
X10630Y19373D01*
X10630Y19334D01*
X10617Y19282D01*
X10603Y19255D01*
X10577Y19229D01*
X10538Y19216D01*
X10472Y19216D01*
X10800Y19491D02*
X10852Y19491D01*
X10878Y19478D01*
X10905Y19452D01*
X10918Y19400D01*
X10918Y19308D01*
X10905Y19255D01*
X10878Y19229D01*
X10852Y19216D01*
X10800Y19216D01*
X10774Y19229D01*
X10747Y19255D01*
X10734Y19308D01*
X10734Y19400D01*
X10747Y19452D01*
X10774Y19478D01*
X10800Y19491D01*
X11206Y19491D02*
X11363Y19491D01*
X11285Y19216D02*
X11285Y19491D01*
X11429Y19491D02*
X11613Y19216D01*
X11613Y19491D02*
X11429Y19216D01*
X11717Y19216D02*
X11717Y19491D01*
X11783Y19491D01*
X11822Y19478D01*
X11848Y19452D01*
X11862Y19426D01*
X11875Y19373D01*
X11875Y19334D01*
X11862Y19282D01*
X11848Y19255D01*
X11822Y19229D01*
X11783Y19216D01*
X11717Y19216D01*
X12045Y19491D02*
X12097Y19491D01*
X12123Y19478D01*
X12150Y19452D01*
X12163Y19400D01*
X12163Y19308D01*
X12150Y19255D01*
X12123Y19229D01*
X12097Y19216D01*
X12045Y19216D01*
X12019Y19229D01*
X11992Y19255D01*
X11979Y19308D01*
X11979Y19400D01*
X11992Y19452D01*
X12019Y19478D01*
X12045Y19491D01*
X12648Y19216D02*
X12556Y19347D01*
X12490Y19216D02*
X12490Y19491D01*
X12595Y19491D01*
X12621Y19478D01*
X12635Y19465D01*
X12648Y19439D01*
X12648Y19400D01*
X12635Y19373D01*
X12621Y19360D01*
X12595Y19347D01*
X12490Y19347D01*
X12752Y19229D02*
X12792Y19216D01*
X12857Y19216D01*
X12883Y19229D01*
X12896Y19242D01*
X12910Y19269D01*
X12910Y19295D01*
X12896Y19321D01*
X12883Y19334D01*
X12857Y19347D01*
X12805Y19360D01*
X12779Y19373D01*
X12765Y19386D01*
X12752Y19413D01*
X12752Y19439D01*
X12765Y19465D01*
X12779Y19478D01*
X12805Y19491D01*
X12870Y19491D01*
X12910Y19478D01*
X12988Y19491D02*
X13145Y19491D01*
X13067Y19216D02*
X13067Y19491D01*
G54D10*
X19121Y16278D02*
X18821Y16278D01*
X18821Y16393D01*
X18836Y16421D01*
X18850Y16436D01*
X18879Y16450D01*
X18921Y16450D01*
X18950Y16436D01*
X18964Y16421D01*
X18979Y16393D01*
X18979Y16278D01*
X18850Y16564D02*
X18836Y16578D01*
X18821Y16607D01*
X18821Y16678D01*
X18836Y16707D01*
X18850Y16721D01*
X18879Y16736D01*
X18907Y16736D01*
X18950Y16721D01*
X19121Y16550D01*
X19121Y16736D01*
G54D11*
X16876Y14587D02*
X16483Y14587D01*
X16483Y14736D01*
X16501Y14774D01*
X16520Y14792D01*
X16557Y14811D01*
X16614Y14811D01*
X16651Y14792D01*
X16670Y14774D01*
X16688Y14736D01*
X16688Y14587D01*
X16483Y14942D02*
X16876Y15036D01*
X16595Y15111D01*
X16876Y15185D01*
X16483Y15279D01*
X16876Y15653D02*
X16688Y15522D01*
X16876Y15429D02*
X16483Y15429D01*
X16483Y15578D01*
X16501Y15616D01*
X16520Y15634D01*
X16557Y15653D01*
X16614Y15653D01*
X16651Y15634D01*
X16670Y15616D01*
X16688Y15578D01*
X16688Y15429D01*
G54D15*
X15803Y12479D02*
X15803Y12779D01*
X15918Y12779D01*
X15946Y12764D01*
X15961Y12750D01*
X15975Y12721D01*
X15975Y12679D01*
X15961Y12650D01*
X15946Y12636D01*
X15918Y12621D01*
X15803Y12621D01*
X16232Y12679D02*
X16232Y12479D01*
X16161Y12793D02*
X16089Y12579D01*
X16275Y12579D01*
G54D11*
X13271Y12021D02*
X13327Y12002D01*
X13421Y12002D01*
X13458Y12021D01*
X13477Y12040D01*
X13495Y12077D01*
X13495Y12115D01*
X13477Y12152D01*
X13458Y12171D01*
X13421Y12190D01*
X13346Y12208D01*
X13308Y12227D01*
X13290Y12246D01*
X13271Y12283D01*
X13271Y12321D01*
X13290Y12358D01*
X13308Y12377D01*
X13346Y12395D01*
X13439Y12395D01*
X13495Y12377D01*
X13813Y12021D02*
X13776Y12002D01*
X13701Y12002D01*
X13664Y12021D01*
X13645Y12059D01*
X13645Y12208D01*
X13664Y12246D01*
X13701Y12264D01*
X13776Y12264D01*
X13813Y12246D01*
X13832Y12208D01*
X13832Y12171D01*
X13645Y12133D01*
X14001Y12002D02*
X14001Y12264D01*
X14001Y12190D02*
X14019Y12227D01*
X14038Y12246D01*
X14075Y12264D01*
X14113Y12264D01*
X14206Y12264D02*
X14300Y12002D01*
X14393Y12264D01*
X14599Y12002D02*
X14561Y12021D01*
X14543Y12040D01*
X14524Y12077D01*
X14524Y12190D01*
X14543Y12227D01*
X14561Y12246D01*
X14599Y12264D01*
X14655Y12264D01*
X14692Y12246D01*
X14711Y12227D01*
X14730Y12190D01*
X14730Y12077D01*
X14711Y12040D01*
X14692Y12021D01*
X14655Y12002D01*
X14599Y12002D01*
G54D16*
X10162Y14205D02*
X9762Y14205D01*
X9762Y14358D01*
X9781Y14396D01*
X9800Y14415D01*
X9838Y14434D01*
X9895Y14434D01*
X9933Y14415D01*
X9952Y14396D01*
X9971Y14358D01*
X9971Y14205D01*
X9762Y14796D02*
X9762Y14605D01*
X9952Y14586D01*
X9933Y14605D01*
X9914Y14643D01*
X9914Y14739D01*
X9933Y14777D01*
X9952Y14796D01*
X9990Y14815D01*
X10086Y14815D01*
X10124Y14796D01*
X10143Y14777D01*
X10162Y14739D01*
X10162Y14643D01*
X10143Y14605D01*
X10124Y14586D01*
G54D24*
X9261Y11530D02*
X8947Y11530D01*
X9261Y11664D02*
X9097Y11664D01*
X9067Y11649D01*
X9052Y11619D01*
X9052Y11575D01*
X9067Y11545D01*
X9082Y11530D01*
X9261Y11948D02*
X9097Y11948D01*
X9067Y11933D01*
X9052Y11903D01*
X9052Y11844D01*
X9067Y11814D01*
X9246Y11948D02*
X9261Y11918D01*
X9261Y11844D01*
X9246Y11814D01*
X9216Y11799D01*
X9186Y11799D01*
X9156Y11814D01*
X9141Y11844D01*
X9141Y11918D01*
X9127Y11948D01*
X9246Y12232D02*
X9261Y12202D01*
X9261Y12143D01*
X9246Y12113D01*
X9231Y12098D01*
X9201Y12083D01*
X9112Y12083D01*
X9082Y12098D01*
X9067Y12113D01*
X9052Y12143D01*
X9052Y12202D01*
X9067Y12232D01*
X9261Y12367D02*
X8947Y12367D01*
X9141Y12397D02*
X9261Y12486D01*
X9052Y12486D02*
X9171Y12367D01*
G54D15*
X4434Y9119D02*
X4434Y8976D01*
X4424Y8948D01*
X4405Y8929D01*
X4377Y8919D01*
X4358Y8919D01*
X4529Y8919D02*
X4529Y9119D01*
X4605Y9119D01*
X4624Y9110D01*
X4633Y9100D01*
X4643Y9081D01*
X4643Y9052D01*
X4633Y9033D01*
X4624Y9024D01*
X4605Y9014D01*
X4529Y9014D01*
X4833Y8919D02*
X4719Y8919D01*
X4776Y8919D02*
X4776Y9119D01*
X4757Y9090D01*
X4738Y9071D01*
X4719Y9062D01*
G54D24*
X5425Y9873D02*
X5321Y10022D01*
X5246Y9873D02*
X5246Y10187D01*
X5365Y10187D01*
X5395Y10172D01*
X5410Y10157D01*
X5425Y10127D01*
X5425Y10082D01*
X5410Y10052D01*
X5395Y10037D01*
X5365Y10022D01*
X5246Y10022D01*
X5545Y9888D02*
X5590Y9873D01*
X5664Y9873D01*
X5694Y9888D01*
X5709Y9903D01*
X5724Y9933D01*
X5724Y9963D01*
X5709Y9993D01*
X5694Y10007D01*
X5664Y10022D01*
X5605Y10037D01*
X5575Y10052D01*
X5560Y10067D01*
X5545Y10097D01*
X5545Y10127D01*
X5560Y10157D01*
X5575Y10172D01*
X5605Y10187D01*
X5679Y10187D01*
X5724Y10172D01*
X5814Y10187D02*
X5993Y10187D01*
X5904Y9873D02*
X5904Y10187D01*
X6337Y10037D02*
X6441Y10037D01*
X6486Y9873D02*
X6337Y9873D01*
X6337Y10187D01*
X6486Y10187D01*
X6621Y10082D02*
X6621Y9873D01*
X6621Y10052D02*
X6636Y10067D01*
X6666Y10082D01*
X6710Y10082D01*
X6740Y10067D01*
X6755Y10037D01*
X6755Y9873D01*
G54D22*
X6271Y3393D02*
X6314Y3379D01*
X6385Y3379D01*
X6414Y3393D01*
X6428Y3407D01*
X6443Y3436D01*
X6443Y3464D01*
X6428Y3493D01*
X6414Y3507D01*
X6385Y3521D01*
X6328Y3536D01*
X6300Y3550D01*
X6285Y3564D01*
X6271Y3593D01*
X6271Y3621D01*
X6285Y3650D01*
X6300Y3664D01*
X6328Y3679D01*
X6400Y3679D01*
X6443Y3664D01*
X6729Y3379D02*
X6557Y3379D01*
X6643Y3379D02*
X6643Y3679D01*
X6614Y3636D01*
X6586Y3607D01*
X6557Y3593D01*
G54D11*
X2958Y4085D02*
X2827Y4273D01*
X2734Y4085D02*
X2734Y4478D01*
X2883Y4478D01*
X2921Y4460D01*
X2939Y4441D01*
X2958Y4404D01*
X2958Y4347D01*
X2939Y4310D01*
X2921Y4291D01*
X2883Y4273D01*
X2734Y4273D01*
X3108Y4104D02*
X3164Y4085D01*
X3258Y4085D01*
X3295Y4104D01*
X3314Y4123D01*
X3332Y4160D01*
X3332Y4198D01*
X3314Y4235D01*
X3295Y4254D01*
X3258Y4273D01*
X3183Y4291D01*
X3145Y4310D01*
X3127Y4329D01*
X3108Y4366D01*
X3108Y4404D01*
X3127Y4441D01*
X3145Y4460D01*
X3183Y4478D01*
X3276Y4478D01*
X3332Y4460D01*
X3444Y4478D02*
X3669Y4478D01*
X3557Y4085D02*
X3557Y4478D01*
G54D23*
X12277Y1958D02*
X12289Y1946D01*
X12301Y1911D01*
X12301Y1887D01*
X12289Y1851D01*
X12265Y1827D01*
X12242Y1816D01*
X12194Y1804D01*
X12158Y1804D01*
X12111Y1816D01*
X12087Y1827D01*
X12063Y1851D01*
X12051Y1887D01*
X12051Y1911D01*
X12063Y1946D01*
X12075Y1958D01*
X12051Y2173D02*
X12051Y2125D01*
X12063Y2101D01*
X12075Y2089D01*
X12111Y2066D01*
X12158Y2054D01*
X12254Y2054D01*
X12277Y2066D01*
X12289Y2077D01*
X12301Y2101D01*
X12301Y2149D01*
X12289Y2173D01*
X12277Y2185D01*
X12254Y2196D01*
X12194Y2196D01*
X12170Y2185D01*
X12158Y2173D01*
X12146Y2149D01*
X12146Y2101D01*
X12158Y2077D01*
X12170Y2066D01*
X12194Y2054D01*
G54D12*
X12045Y591D02*
X12045Y1048D01*
X12274Y819D02*
X11817Y819D01*
G54D15*
X14958Y15548D02*
X14946Y15536D01*
X14911Y15524D01*
X14887Y15524D01*
X14851Y15536D01*
X14827Y15560D01*
X14816Y15583D01*
X14804Y15631D01*
X14804Y15667D01*
X14816Y15714D01*
X14827Y15738D01*
X14851Y15762D01*
X14887Y15774D01*
X14911Y15774D01*
X14946Y15762D01*
X14958Y15750D01*
X15185Y15774D02*
X15066Y15774D01*
X15054Y15655D01*
X15066Y15667D01*
X15089Y15679D01*
X15149Y15679D01*
X15173Y15667D01*
X15185Y15655D01*
X15196Y15631D01*
X15196Y15571D01*
X15185Y15548D01*
X15173Y15536D01*
X15149Y15524D01*
X15089Y15524D01*
X15066Y15536D01*
X15054Y15548D01*
G54D12*
X15772Y15511D02*
X16229Y15511D01*
X16000Y15282D02*
X16000Y15739D01*
G54D15*
X11053Y7319D02*
X11053Y7519D01*
X11100Y7519D01*
X11129Y7510D01*
X11148Y7490D01*
X11157Y7471D01*
X11167Y7433D01*
X11167Y7405D01*
X11157Y7367D01*
X11148Y7348D01*
X11129Y7329D01*
X11100Y7319D01*
X11053Y7319D01*
X11357Y7319D02*
X11243Y7319D01*
X11300Y7319D02*
X11300Y7519D01*
X11281Y7490D01*
X11262Y7471D01*
X11243Y7462D01*
X2981Y12153D02*
X2781Y12153D01*
X2781Y12200D01*
X2790Y12229D01*
X2810Y12248D01*
X2829Y12257D01*
X2867Y12267D01*
X2895Y12267D01*
X2933Y12257D01*
X2952Y12248D01*
X2971Y12229D01*
X2981Y12200D01*
X2981Y12153D01*
X2800Y12343D02*
X2790Y12353D01*
X2781Y12372D01*
X2781Y12419D01*
X2790Y12438D01*
X2800Y12448D01*
X2819Y12457D01*
X2838Y12457D01*
X2867Y12448D01*
X2981Y12334D01*
X2981Y12457D01*
X4458Y10923D02*
X4446Y10911D01*
X4411Y10899D01*
X4387Y10899D01*
X4351Y10911D01*
X4327Y10935D01*
X4316Y10958D01*
X4304Y11006D01*
X4304Y11042D01*
X4316Y11089D01*
X4327Y11113D01*
X4351Y11137D01*
X4387Y11149D01*
X4411Y11149D01*
X4446Y11137D01*
X4458Y11125D01*
X4696Y10899D02*
X4554Y10899D01*
X4625Y10899D02*
X4625Y11149D01*
X4601Y11113D01*
X4577Y11089D01*
X4554Y11077D01*
X10858Y10923D02*
X10846Y10911D01*
X10811Y10899D01*
X10787Y10899D01*
X10751Y10911D01*
X10727Y10935D01*
X10716Y10958D01*
X10704Y11006D01*
X10704Y11042D01*
X10716Y11089D01*
X10727Y11113D01*
X10751Y11137D01*
X10787Y11149D01*
X10811Y11149D01*
X10846Y11137D01*
X10858Y11125D01*
X11001Y11042D02*
X10977Y11054D01*
X10966Y11065D01*
X10954Y11089D01*
X10954Y11101D01*
X10966Y11125D01*
X10977Y11137D01*
X11001Y11149D01*
X11049Y11149D01*
X11073Y11137D01*
X11085Y11125D01*
X11096Y11101D01*
X11096Y11089D01*
X11085Y11065D01*
X11073Y11054D01*
X11049Y11042D01*
X11001Y11042D01*
X10977Y11030D01*
X10966Y11018D01*
X10954Y10994D01*
X10954Y10946D01*
X10966Y10923D01*
X10977Y10911D01*
X11001Y10899D01*
X11049Y10899D01*
X11073Y10911D01*
X11085Y10923D01*
X11096Y10946D01*
X11096Y10994D01*
X11085Y11018D01*
X11073Y11030D01*
X11049Y11042D01*
X9562Y6867D02*
X9571Y6857D01*
X9581Y6829D01*
X9581Y6810D01*
X9571Y6781D01*
X9552Y6762D01*
X9533Y6753D01*
X9495Y6743D01*
X9467Y6743D01*
X9429Y6753D01*
X9410Y6762D01*
X9390Y6781D01*
X9381Y6810D01*
X9381Y6829D01*
X9390Y6857D01*
X9400Y6867D01*
X9381Y6934D02*
X9381Y7067D01*
X9581Y6981D01*
X2962Y13967D02*
X2971Y13957D01*
X2981Y13929D01*
X2981Y13910D01*
X2971Y13881D01*
X2952Y13862D01*
X2933Y13853D01*
X2895Y13843D01*
X2867Y13843D01*
X2829Y13853D01*
X2810Y13862D01*
X2790Y13881D01*
X2781Y13910D01*
X2781Y13929D01*
X2790Y13957D01*
X2800Y13967D01*
X2848Y14138D02*
X2981Y14138D01*
X2771Y14091D02*
X2914Y14043D01*
X2914Y14167D01*
X4867Y17438D02*
X4857Y17429D01*
X4829Y17419D01*
X4810Y17419D01*
X4781Y17429D01*
X4762Y17448D01*
X4753Y17467D01*
X4743Y17505D01*
X4743Y17533D01*
X4753Y17571D01*
X4762Y17590D01*
X4781Y17610D01*
X4810Y17619D01*
X4829Y17619D01*
X4857Y17610D01*
X4867Y17600D01*
X4934Y17619D02*
X5057Y17619D01*
X4991Y17543D01*
X5019Y17543D01*
X5038Y17533D01*
X5048Y17524D01*
X5057Y17505D01*
X5057Y17457D01*
X5048Y17438D01*
X5038Y17429D01*
X5019Y17419D01*
X4962Y17419D01*
X4943Y17429D01*
X4934Y17438D01*
X9132Y13919D02*
X9144Y13907D01*
X9156Y13872D01*
X9156Y13848D01*
X9144Y13812D01*
X9120Y13788D01*
X9097Y13777D01*
X9049Y13765D01*
X9013Y13765D01*
X8966Y13777D01*
X8942Y13788D01*
X8918Y13812D01*
X8906Y13848D01*
X8906Y13872D01*
X8918Y13907D01*
X8930Y13919D01*
X8930Y14015D02*
X8918Y14027D01*
X8906Y14050D01*
X8906Y14110D01*
X8918Y14134D01*
X8930Y14146D01*
X8954Y14157D01*
X8978Y14157D01*
X9013Y14146D01*
X9156Y14003D01*
X9156Y14157D01*
X8301Y6016D02*
X8051Y6016D01*
X8051Y6075D01*
X8063Y6111D01*
X8087Y6135D01*
X8111Y6146D01*
X8158Y6158D01*
X8194Y6158D01*
X8242Y6146D01*
X8265Y6135D01*
X8289Y6111D01*
X8301Y6075D01*
X8301Y6016D01*
X8051Y6242D02*
X8051Y6396D01*
X8146Y6313D01*
X8146Y6349D01*
X8158Y6373D01*
X8170Y6385D01*
X8194Y6396D01*
X8254Y6396D01*
X8277Y6385D01*
X8289Y6373D01*
X8301Y6349D01*
X8301Y6277D01*
X8289Y6254D01*
X8277Y6242D01*
G54D22*
X16271Y4242D02*
X16271Y3999D01*
X16286Y3970D01*
X16300Y3956D01*
X16329Y3942D01*
X16386Y3942D01*
X16414Y3956D01*
X16429Y3970D01*
X16443Y3999D01*
X16443Y4242D01*
X16743Y3942D02*
X16571Y3942D01*
X16657Y3942D02*
X16657Y4242D01*
X16628Y4199D01*
X16600Y4170D01*
X16571Y4156D01*
G54D16*
X5118Y13985D02*
X4518Y13985D01*
X5061Y14404D02*
X5089Y14385D01*
X5118Y14328D01*
X5118Y14290D01*
X5089Y14232D01*
X5032Y14194D01*
X4975Y14175D01*
X4861Y14156D01*
X4775Y14156D01*
X4661Y14175D01*
X4604Y14194D01*
X4546Y14232D01*
X4518Y14290D01*
X4518Y14328D01*
X4546Y14385D01*
X4575Y14404D01*
X5118Y14785D02*
X5118Y14556D01*
X5118Y14670D02*
X4518Y14670D01*
X4604Y14632D01*
X4661Y14594D01*
X4689Y14556D01*
G54D15*
X6124Y13292D02*
X6124Y13387D01*
X6181Y13273D02*
X5981Y13340D01*
X6181Y13406D01*
X5981Y13444D02*
X5981Y13558D01*
X6181Y13501D02*
X5981Y13501D01*
X6181Y13625D02*
X5981Y13625D01*
X6124Y13691D01*
X5981Y13758D01*
X6181Y13758D01*
X6076Y13854D02*
X6076Y13920D01*
X6181Y13949D02*
X6181Y13854D01*
X5981Y13854D01*
X5981Y13949D01*
X5990Y14139D02*
X5981Y14120D01*
X5981Y14092D01*
X5990Y14063D01*
X6010Y14044D01*
X6029Y14035D01*
X6067Y14025D01*
X6095Y14025D01*
X6133Y14035D01*
X6152Y14044D01*
X6171Y14063D01*
X6181Y14092D01*
X6181Y14111D01*
X6171Y14139D01*
X6162Y14149D01*
X6095Y14149D01*
X6095Y14111D01*
X6124Y14225D02*
X6124Y14320D01*
X6181Y14206D02*
X5981Y14273D01*
X6181Y14339D01*
X5981Y14491D02*
X5981Y14453D01*
X5990Y14434D01*
X6000Y14425D01*
X6029Y14406D01*
X6067Y14396D01*
X6143Y14396D01*
X6162Y14406D01*
X6171Y14415D01*
X6181Y14434D01*
X6181Y14472D01*
X6171Y14491D01*
X6162Y14501D01*
X6143Y14510D01*
X6095Y14510D01*
X6076Y14501D01*
X6067Y14491D01*
X6057Y14472D01*
X6057Y14434D01*
X6067Y14415D01*
X6076Y14406D01*
X6095Y14396D01*
X6048Y14681D02*
X6181Y14681D01*
X5971Y14634D02*
X6114Y14586D01*
X6114Y14710D01*
X6048Y14871D02*
X6181Y14871D01*
X5971Y14824D02*
X6114Y14776D01*
X6114Y14900D01*
X6181Y14976D02*
X5981Y14976D01*
X5981Y15052D01*
X5990Y15071D01*
X6000Y15080D01*
X6019Y15090D01*
X6048Y15090D01*
X6067Y15080D01*
X6076Y15071D01*
X6086Y15052D01*
X6086Y14976D01*
X6105Y15176D02*
X6105Y15328D01*
X6124Y15414D02*
X6124Y15509D01*
X6181Y15395D02*
X5981Y15462D01*
X6181Y15528D01*
X7598Y11149D02*
X7764Y10899D01*
X7764Y11149D02*
X7598Y10899D01*
X7990Y10899D02*
X7848Y10899D01*
X7919Y10899D02*
X7919Y11149D01*
X7895Y11113D01*
X7871Y11089D01*
X7848Y11077D01*
G54D10*
G36*
X1126Y8811D02*
X1126Y9126D01*
X811Y9126D01*
X811Y8811D01*
X1126Y8811D01*
X1126Y8811D01*
G37*
G54D18*
X1126Y8811D02*
X1126Y9126D01*
X811Y9126D01*
X811Y8811D01*
X1126Y8811D01*
M02*
