G04 (created by PCBNEW-RS274X (2011-nov-30)-testing) date Tue 24 Jan 2012 06:26:41 PM EST*
G01*
G70*
G90*
%MOIN*%
G04 Gerber Fmt 3.4, Leading zero omitted, Abs format*
%FSLAX34Y34*%
G04 APERTURE LIST*
%ADD10C,0.006000*%
%ADD11C,0.008000*%
G04 APERTURE END LIST*
G54D10*
G54D11*
X65362Y-56171D02*
X64962Y-56171D01*
X65362Y-56666D02*
X64962Y-56666D01*
X65152Y-56666D02*
X65152Y-56895D01*
X65362Y-56895D02*
X64962Y-56895D01*
X65343Y-57238D02*
X65362Y-57200D01*
X65362Y-57123D01*
X65343Y-57085D01*
X65305Y-57066D01*
X65152Y-57066D01*
X65114Y-57085D01*
X65095Y-57123D01*
X65095Y-57200D01*
X65114Y-57238D01*
X65152Y-57257D01*
X65190Y-57257D01*
X65229Y-57066D01*
X65362Y-57600D02*
X65152Y-57600D01*
X65114Y-57581D01*
X65095Y-57543D01*
X65095Y-57466D01*
X65114Y-57428D01*
X65343Y-57600D02*
X65362Y-57562D01*
X65362Y-57466D01*
X65343Y-57428D01*
X65305Y-57409D01*
X65267Y-57409D01*
X65229Y-57428D01*
X65210Y-57466D01*
X65210Y-57562D01*
X65190Y-57600D01*
X65362Y-57790D02*
X65095Y-57790D01*
X65171Y-57790D02*
X65133Y-57809D01*
X65114Y-57828D01*
X65095Y-57866D01*
X65095Y-57905D01*
X65095Y-57981D02*
X65095Y-58133D01*
X64962Y-58038D02*
X65305Y-58038D01*
X65343Y-58057D01*
X65362Y-58095D01*
X65362Y-58133D01*
X65152Y-58572D02*
X65152Y-58706D01*
X65362Y-58763D02*
X65362Y-58572D01*
X64962Y-58572D01*
X64962Y-58763D01*
X65095Y-58934D02*
X65362Y-58934D01*
X65133Y-58934D02*
X65114Y-58953D01*
X65095Y-58991D01*
X65095Y-59049D01*
X65114Y-59087D01*
X65152Y-59106D01*
X65362Y-59106D01*
X65095Y-59468D02*
X65419Y-59468D01*
X65457Y-59449D01*
X65476Y-59430D01*
X65495Y-59391D01*
X65495Y-59334D01*
X65476Y-59296D01*
X65343Y-59468D02*
X65362Y-59430D01*
X65362Y-59353D01*
X65343Y-59315D01*
X65324Y-59296D01*
X65286Y-59277D01*
X65171Y-59277D01*
X65133Y-59296D01*
X65114Y-59315D01*
X65095Y-59353D01*
X65095Y-59430D01*
X65114Y-59468D01*
X65362Y-59658D02*
X65095Y-59658D01*
X64962Y-59658D02*
X64981Y-59639D01*
X65000Y-59658D01*
X64981Y-59677D01*
X64962Y-59658D01*
X65000Y-59658D01*
X65095Y-59848D02*
X65362Y-59848D01*
X65133Y-59848D02*
X65114Y-59867D01*
X65095Y-59905D01*
X65095Y-59963D01*
X65114Y-60001D01*
X65152Y-60020D01*
X65362Y-60020D01*
X65343Y-60363D02*
X65362Y-60325D01*
X65362Y-60248D01*
X65343Y-60210D01*
X65305Y-60191D01*
X65152Y-60191D01*
X65114Y-60210D01*
X65095Y-60248D01*
X65095Y-60325D01*
X65114Y-60363D01*
X65152Y-60382D01*
X65190Y-60382D01*
X65229Y-60191D01*
X65343Y-60706D02*
X65362Y-60668D01*
X65362Y-60591D01*
X65343Y-60553D01*
X65305Y-60534D01*
X65152Y-60534D01*
X65114Y-60553D01*
X65095Y-60591D01*
X65095Y-60668D01*
X65114Y-60706D01*
X65152Y-60725D01*
X65190Y-60725D01*
X65229Y-60534D01*
X65362Y-60896D02*
X65095Y-60896D01*
X65171Y-60896D02*
X65133Y-60915D01*
X65114Y-60934D01*
X65095Y-60972D01*
X65095Y-61011D01*
X65362Y-61144D02*
X65095Y-61144D01*
X64962Y-61144D02*
X64981Y-61125D01*
X65000Y-61144D01*
X64981Y-61163D01*
X64962Y-61144D01*
X65000Y-61144D01*
X65095Y-61334D02*
X65362Y-61334D01*
X65133Y-61334D02*
X65114Y-61353D01*
X65095Y-61391D01*
X65095Y-61449D01*
X65114Y-61487D01*
X65152Y-61506D01*
X65362Y-61506D01*
X65095Y-61868D02*
X65419Y-61868D01*
X65457Y-61849D01*
X65476Y-61830D01*
X65495Y-61791D01*
X65495Y-61734D01*
X65476Y-61696D01*
X65343Y-61868D02*
X65362Y-61830D01*
X65362Y-61753D01*
X65343Y-61715D01*
X65324Y-61696D01*
X65286Y-61677D01*
X65171Y-61677D01*
X65133Y-61696D01*
X65114Y-61715D01*
X65095Y-61753D01*
X65095Y-61830D01*
X65114Y-61868D01*
X65095Y-62668D02*
X65210Y-62363D01*
X65324Y-62668D01*
X64962Y-62820D02*
X64962Y-63068D01*
X65114Y-62934D01*
X65114Y-62992D01*
X65133Y-63030D01*
X65152Y-63049D01*
X65190Y-63068D01*
X65286Y-63068D01*
X65324Y-63049D01*
X65343Y-63030D01*
X65362Y-62992D01*
X65362Y-62877D01*
X65343Y-62839D01*
X65324Y-62820D01*
X64962Y-63620D02*
X64962Y-63697D01*
X64981Y-63735D01*
X65019Y-63773D01*
X65095Y-63792D01*
X65229Y-63792D01*
X65305Y-63773D01*
X65343Y-63735D01*
X65362Y-63697D01*
X65362Y-63620D01*
X65343Y-63582D01*
X65305Y-63544D01*
X65229Y-63525D01*
X65095Y-63525D01*
X65019Y-63544D01*
X64981Y-63582D01*
X64962Y-63620D01*
X65343Y-63944D02*
X65362Y-64001D01*
X65362Y-64097D01*
X65343Y-64135D01*
X65324Y-64154D01*
X65286Y-64173D01*
X65248Y-64173D01*
X65210Y-64154D01*
X65190Y-64135D01*
X65171Y-64097D01*
X65152Y-64020D01*
X65133Y-63982D01*
X65114Y-63963D01*
X65076Y-63944D01*
X65038Y-63944D01*
X65000Y-63963D01*
X64981Y-63982D01*
X64962Y-64020D01*
X64962Y-64116D01*
X64981Y-64173D01*
X65362Y-64344D02*
X64962Y-64344D01*
X65152Y-64344D02*
X65152Y-64573D01*
X65362Y-64573D02*
X64962Y-64573D01*
X64962Y-64725D02*
X65362Y-64820D01*
X65076Y-64897D01*
X65362Y-64973D01*
X64962Y-65068D01*
X66002Y-55552D02*
X65602Y-55552D01*
X66002Y-55724D02*
X65792Y-55724D01*
X65754Y-55705D01*
X65735Y-55667D01*
X65735Y-55609D01*
X65754Y-55571D01*
X65773Y-55552D01*
X65735Y-55857D02*
X65735Y-56009D01*
X65602Y-55914D02*
X65945Y-55914D01*
X65983Y-55933D01*
X66002Y-55971D01*
X66002Y-56009D01*
X65735Y-56086D02*
X65735Y-56238D01*
X65602Y-56143D02*
X65945Y-56143D01*
X65983Y-56162D01*
X66002Y-56200D01*
X66002Y-56238D01*
X65735Y-56372D02*
X66135Y-56372D01*
X65754Y-56372D02*
X65735Y-56410D01*
X65735Y-56487D01*
X65754Y-56525D01*
X65773Y-56544D01*
X65811Y-56563D01*
X65926Y-56563D01*
X65964Y-56544D01*
X65983Y-56525D01*
X66002Y-56487D01*
X66002Y-56410D01*
X65983Y-56372D01*
X65964Y-56734D02*
X65983Y-56753D01*
X66002Y-56734D01*
X65983Y-56715D01*
X65964Y-56734D01*
X66002Y-56734D01*
X65754Y-56734D02*
X65773Y-56753D01*
X65792Y-56734D01*
X65773Y-56715D01*
X65754Y-56734D01*
X65792Y-56734D01*
X65583Y-57210D02*
X66097Y-56867D01*
X65583Y-57629D02*
X66097Y-57286D01*
X65735Y-57724D02*
X66002Y-57800D01*
X65811Y-57877D01*
X66002Y-57953D01*
X65735Y-58029D01*
X65735Y-58143D02*
X66002Y-58219D01*
X65811Y-58296D01*
X66002Y-58372D01*
X65735Y-58448D01*
X65735Y-58562D02*
X66002Y-58638D01*
X65811Y-58715D01*
X66002Y-58791D01*
X65735Y-58867D01*
X65964Y-59019D02*
X65983Y-59038D01*
X66002Y-59019D01*
X65983Y-59000D01*
X65964Y-59019D01*
X66002Y-59019D01*
X66002Y-59209D02*
X65735Y-59209D01*
X65602Y-59209D02*
X65621Y-59190D01*
X65640Y-59209D01*
X65621Y-59228D01*
X65602Y-59209D01*
X65640Y-59209D01*
X66002Y-59399D02*
X65602Y-59399D01*
X66002Y-59571D02*
X65792Y-59571D01*
X65754Y-59552D01*
X65735Y-59514D01*
X65735Y-59456D01*
X65754Y-59418D01*
X65773Y-59399D01*
X65983Y-59914D02*
X66002Y-59876D01*
X66002Y-59799D01*
X65983Y-59761D01*
X65945Y-59742D01*
X65792Y-59742D01*
X65754Y-59761D01*
X65735Y-59799D01*
X65735Y-59876D01*
X65754Y-59914D01*
X65792Y-59933D01*
X65830Y-59933D01*
X65869Y-59742D01*
X66002Y-60276D02*
X65792Y-60276D01*
X65754Y-60257D01*
X65735Y-60219D01*
X65735Y-60142D01*
X65754Y-60104D01*
X65983Y-60276D02*
X66002Y-60238D01*
X66002Y-60142D01*
X65983Y-60104D01*
X65945Y-60085D01*
X65907Y-60085D01*
X65869Y-60104D01*
X65850Y-60142D01*
X65850Y-60238D01*
X65830Y-60276D01*
X66002Y-60466D02*
X65735Y-60466D01*
X65811Y-60466D02*
X65773Y-60485D01*
X65754Y-60504D01*
X65735Y-60542D01*
X65735Y-60581D01*
X65735Y-60657D02*
X65735Y-60809D01*
X65602Y-60714D02*
X65945Y-60714D01*
X65983Y-60733D01*
X66002Y-60771D01*
X66002Y-60809D01*
X65983Y-61096D02*
X66002Y-61058D01*
X66002Y-60981D01*
X65983Y-60943D01*
X65945Y-60924D01*
X65792Y-60924D01*
X65754Y-60943D01*
X65735Y-60981D01*
X65735Y-61058D01*
X65754Y-61096D01*
X65792Y-61115D01*
X65830Y-61115D01*
X65869Y-60924D01*
X65735Y-61286D02*
X66002Y-61286D01*
X65773Y-61286D02*
X65754Y-61305D01*
X65735Y-61343D01*
X65735Y-61401D01*
X65754Y-61439D01*
X65792Y-61458D01*
X66002Y-61458D01*
X65735Y-61820D02*
X66059Y-61820D01*
X66097Y-61801D01*
X66116Y-61782D01*
X66135Y-61743D01*
X66135Y-61686D01*
X66116Y-61648D01*
X65983Y-61820D02*
X66002Y-61782D01*
X66002Y-61705D01*
X65983Y-61667D01*
X65964Y-61648D01*
X65926Y-61629D01*
X65811Y-61629D01*
X65773Y-61648D01*
X65754Y-61667D01*
X65735Y-61705D01*
X65735Y-61782D01*
X65754Y-61820D01*
X66002Y-62010D02*
X65735Y-62010D01*
X65602Y-62010D02*
X65621Y-61991D01*
X65640Y-62010D01*
X65621Y-62029D01*
X65602Y-62010D01*
X65640Y-62010D01*
X65735Y-62200D02*
X66002Y-62200D01*
X65773Y-62200D02*
X65754Y-62219D01*
X65735Y-62257D01*
X65735Y-62315D01*
X65754Y-62353D01*
X65792Y-62372D01*
X66002Y-62372D01*
X65983Y-62715D02*
X66002Y-62677D01*
X66002Y-62600D01*
X65983Y-62562D01*
X65945Y-62543D01*
X65792Y-62543D01*
X65754Y-62562D01*
X65735Y-62600D01*
X65735Y-62677D01*
X65754Y-62715D01*
X65792Y-62734D01*
X65830Y-62734D01*
X65869Y-62543D01*
X65983Y-63058D02*
X66002Y-63020D01*
X66002Y-62943D01*
X65983Y-62905D01*
X65945Y-62886D01*
X65792Y-62886D01*
X65754Y-62905D01*
X65735Y-62943D01*
X65735Y-63020D01*
X65754Y-63058D01*
X65792Y-63077D01*
X65830Y-63077D01*
X65869Y-62886D01*
X66002Y-63248D02*
X65735Y-63248D01*
X65811Y-63248D02*
X65773Y-63267D01*
X65754Y-63286D01*
X65735Y-63324D01*
X65735Y-63363D01*
X66002Y-63496D02*
X65735Y-63496D01*
X65602Y-63496D02*
X65621Y-63477D01*
X65640Y-63496D01*
X65621Y-63515D01*
X65602Y-63496D01*
X65640Y-63496D01*
X65735Y-63686D02*
X66002Y-63686D01*
X65773Y-63686D02*
X65754Y-63705D01*
X65735Y-63743D01*
X65735Y-63801D01*
X65754Y-63839D01*
X65792Y-63858D01*
X66002Y-63858D01*
X65735Y-64220D02*
X66059Y-64220D01*
X66097Y-64201D01*
X66116Y-64182D01*
X66135Y-64143D01*
X66135Y-64086D01*
X66116Y-64048D01*
X65983Y-64220D02*
X66002Y-64182D01*
X66002Y-64105D01*
X65983Y-64067D01*
X65964Y-64048D01*
X65926Y-64029D01*
X65811Y-64029D01*
X65773Y-64048D01*
X65754Y-64067D01*
X65735Y-64105D01*
X65735Y-64182D01*
X65754Y-64220D01*
X65964Y-64410D02*
X65983Y-64429D01*
X66002Y-64410D01*
X65983Y-64391D01*
X65964Y-64410D01*
X66002Y-64410D01*
X65983Y-64772D02*
X66002Y-64734D01*
X66002Y-64657D01*
X65983Y-64619D01*
X65964Y-64600D01*
X65926Y-64581D01*
X65811Y-64581D01*
X65773Y-64600D01*
X65754Y-64619D01*
X65735Y-64657D01*
X65735Y-64734D01*
X65754Y-64772D01*
X66002Y-65000D02*
X65983Y-64962D01*
X65964Y-64943D01*
X65926Y-64924D01*
X65811Y-64924D01*
X65773Y-64943D01*
X65754Y-64962D01*
X65735Y-65000D01*
X65735Y-65058D01*
X65754Y-65096D01*
X65773Y-65115D01*
X65811Y-65134D01*
X65926Y-65134D01*
X65964Y-65115D01*
X65983Y-65096D01*
X66002Y-65058D01*
X66002Y-65000D01*
X66002Y-65305D02*
X65735Y-65305D01*
X65773Y-65305D02*
X65754Y-65324D01*
X65735Y-65362D01*
X65735Y-65420D01*
X65754Y-65458D01*
X65792Y-65477D01*
X66002Y-65477D01*
X65792Y-65477D02*
X65754Y-65496D01*
X65735Y-65534D01*
X65735Y-65591D01*
X65754Y-65629D01*
X65792Y-65648D01*
X66002Y-65648D01*
M02*
