M48
;DRILL file {Pcbnew (2011-nov-30)-testing} date Tue 24 Jan 2012 05:10:51 PM EST
;FORMAT={-:-/ absolute / inch / decimal}
FMAT,2
INCH,TZ
T1C0.025
T2C0.034
T3C0.039
T4C0.040
%
G90
G05
M72
T1
X5.655Y-5.225
X5.670Y-5.300
X5.760Y-5.360
X5.800Y-5.300
X5.940Y-5.500
X6.080Y-5.760
X6.440Y-5.840
X6.520Y-5.840
X6.600Y-5.840
X6.680Y-5.840
X6.760Y-5.840
T2
X6.439Y-5.450
X6.538Y-5.450
X6.636Y-5.450
T3
X5.552Y-6.240
X5.552Y-6.417
X5.680Y-6.490
X5.808Y-6.240
X5.808Y-6.417
T4
X5.360Y-5.870
X5.360Y-5.970
X5.460Y-5.870
X5.460Y-5.970
X5.560Y-5.870
X5.560Y-5.970
X5.710Y-5.760
X5.810Y-5.760
X5.913Y-4.950
X6.013Y-4.950
X6.100Y-5.350
X6.100Y-5.450
X6.100Y-5.550
X6.100Y-5.650
X6.113Y-4.950
X6.213Y-4.950
X6.312Y-4.950
X6.413Y-4.950
X6.850Y-5.213
X6.850Y-5.312
T0
M30
