M48
;DRILL file {Pcbnew (2011-nov-30)-testing} date Mon 11 Jun 2012 06:03:47 PM EDT
;FORMAT={-:-/ absolute / inch / decimal}
FMAT,2
INCH,TZ
T1C0.025
T2C0.034
T3C0.039
T4C0.040
%
G90
G05
M72
T1
X0.180Y1.370
X0.390Y0.890
X0.410Y1.370
X0.530Y0.710
X0.630Y1.300
X0.630Y0.610
X0.680Y1.440
X0.710Y1.310
X0.770Y1.180
X0.840Y1.230
X0.860Y1.370
X0.870Y1.310
X1.000Y0.960
X1.020Y0.600
X1.040Y0.800
X1.120Y0.500
X1.480Y0.990
T2
X1.302Y1.350
X1.400Y1.350
X1.498Y1.350
T3
X0.522Y0.400
X0.522Y0.223
X0.650Y0.150
X0.778Y0.400
X0.778Y0.223
T4
X0.150Y0.750
X0.150Y0.650
X0.250Y0.750
X0.250Y0.650
X0.350Y0.750
X0.350Y0.650
X0.550Y0.900
X0.650Y0.900
X0.750Y1.850
X0.850Y1.850
X0.950Y1.850
X1.000Y1.350
X1.000Y1.250
X1.000Y1.150
X1.000Y1.050
X1.050Y1.850
X1.150Y1.850
X1.250Y1.850
X1.850Y1.500
X1.850Y1.400
T0
M30
