G04 (created by PCBNEW-RS274X (2011-nov-30)-testing) date Mon 11 Jun 2012 06:03:41 PM EDT*
%MOIN*%
G04 Gerber Fmt 3.4, Leading zero omitted, Abs format*
%FSLAX34Y34*%
G01*
G70*
G90*
G04 APERTURE LIST*
%ADD10C,0.006*%
%ADD11R,0.055X0.035*%
%ADD12R,0.122X0.0512*%
%ADD13R,0.1102X0.063*%
%ADD14R,0.063X0.1102*%
%ADD15R,0.0472X0.0472*%
%ADD16R,0.035X0.055*%
%ADD17R,0.08X0.06*%
%ADD18R,0.4803X0.3839*%
%ADD19R,0.063X0.1378*%
%ADD20R,0.06X0.016*%
%ADD21R,0.016X0.06*%
%ADD22R,0.0118X0.063*%
G04 APERTURE END LIST*
G54D10*
G54D11*
X11000Y6375D03*
X11000Y5625D03*
X7000Y6825D03*
X7000Y7575D03*
X6000Y6825D03*
X6000Y7575D03*
X2400Y11775D03*
X2400Y11025D03*
G54D12*
X8065Y4886D03*
X4935Y4886D03*
X4935Y3114D03*
X8065Y3114D03*
G54D13*
X13154Y2000D03*
X14846Y2000D03*
G54D14*
X15000Y16654D03*
X15000Y18346D03*
G54D15*
X9787Y7400D03*
X10613Y7400D03*
X2400Y13413D03*
X2400Y12587D03*
G54D16*
X5025Y11000D03*
X5775Y11000D03*
X12175Y11000D03*
X11425Y11000D03*
G54D11*
X9500Y6375D03*
X9500Y5625D03*
X2400Y14995D03*
X2400Y14245D03*
G54D16*
X6175Y17520D03*
X5425Y17520D03*
G54D11*
X9055Y14586D03*
X9055Y15336D03*
G54D17*
X8200Y8250D03*
X8200Y6950D03*
G54D18*
X16500Y6593D03*
G54D19*
X17500Y10638D03*
X15500Y10638D03*
G54D20*
X3375Y14375D03*
X3375Y14060D03*
X3375Y13745D03*
X3375Y13430D03*
X3375Y13115D03*
X3375Y12800D03*
X3375Y14690D03*
X3375Y15005D03*
X3375Y15320D03*
X3375Y15635D03*
X3375Y15950D03*
X7875Y14375D03*
X7875Y14060D03*
X7875Y13745D03*
X7875Y13430D03*
X7875Y13115D03*
X7875Y12800D03*
X7875Y14690D03*
X7875Y15005D03*
X7875Y15320D03*
X7875Y15635D03*
X7875Y15950D03*
G54D21*
X5625Y12125D03*
X5625Y16625D03*
X5940Y12125D03*
X5940Y16625D03*
X6255Y16625D03*
X6255Y12125D03*
X6570Y12125D03*
X6570Y16625D03*
X6885Y16625D03*
X6885Y12125D03*
X7200Y12125D03*
X7200Y16625D03*
X5310Y16625D03*
X5310Y12125D03*
X4995Y12125D03*
X4995Y16625D03*
X4680Y16625D03*
X4680Y12125D03*
X4365Y12125D03*
X4365Y16625D03*
X4050Y16625D03*
X4050Y12125D03*
G54D22*
X6800Y11000D03*
X6426Y11000D03*
X7174Y11000D03*
M02*
