G04 (created by PCBNEW-RS274X (2011-nov-30)-testing) date Tue 24 Jan 2012 06:26:41 PM EST*
G01*
G70*
G90*
%MOIN*%
G04 Gerber Fmt 3.4, Leading zero omitted, Abs format*
%FSLAX34Y34*%
G04 APERTURE LIST*
%ADD10C,0.006000*%
%ADD11R,0.130200X0.083000*%
%ADD12C,0.086900*%
%ADD13R,0.067200X0.067200*%
%ADD14R,0.080000X0.080000*%
%ADD15C,0.080000*%
%ADD16R,0.075000X0.055000*%
%ADD17R,0.055000X0.075000*%
%ADD18R,0.100000X0.080000*%
%ADD19R,0.500300X0.403900*%
%ADD20R,0.083000X0.157800*%
%ADD21R,0.080000X0.036000*%
%ADD22R,0.036000X0.080000*%
%ADD23C,0.170000*%
%ADD24R,0.142000X0.071200*%
%ADD25C,0.090900*%
%ADD26R,0.031800X0.083000*%
G04 APERTURE END LIST*
G54D10*
G54D11*
X60654Y-63000D03*
X62346Y-63000D03*
X64529Y-52000D03*
X66221Y-52000D03*
G54D12*
X66359Y-54500D03*
X65375Y-54500D03*
X64391Y-54500D03*
G54D13*
X60787Y-59600D03*
X61613Y-59600D03*
X53400Y-53587D03*
X53400Y-54413D03*
G54D14*
X64125Y-49500D03*
G54D15*
X63125Y-49500D03*
X62125Y-49500D03*
X61125Y-49500D03*
X60125Y-49500D03*
X59125Y-49500D03*
G54D14*
X68500Y-52125D03*
G54D15*
X68500Y-53125D03*
G54D14*
X58100Y-57600D03*
G54D15*
X57100Y-57600D03*
G54D14*
X55600Y-58700D03*
G54D15*
X55600Y-59700D03*
X54600Y-58700D03*
X54600Y-59700D03*
X53600Y-58700D03*
X53600Y-59700D03*
G54D16*
X62000Y-60625D03*
X62000Y-61375D03*
X53400Y-55225D03*
X53400Y-55975D03*
G54D17*
X56025Y-56000D03*
X56775Y-56000D03*
G54D16*
X58000Y-60175D03*
X58000Y-59425D03*
X57000Y-60175D03*
X57000Y-59425D03*
G54D17*
X63175Y-56000D03*
X62425Y-56000D03*
G54D16*
X60500Y-60625D03*
X60500Y-61375D03*
X53400Y-52005D03*
X53400Y-52755D03*
G54D17*
X57175Y-49480D03*
X56425Y-49480D03*
G54D16*
X60055Y-52414D03*
X60055Y-51664D03*
G54D18*
X59200Y-58750D03*
X59200Y-60050D03*
G54D19*
X66000Y-60907D03*
G54D20*
X67000Y-56862D03*
X65000Y-56862D03*
G54D21*
X54375Y-52625D03*
X54375Y-52940D03*
X54375Y-53255D03*
X54375Y-53570D03*
X54375Y-53885D03*
X54375Y-54200D03*
X54375Y-52310D03*
X54375Y-51995D03*
X54375Y-51680D03*
X54375Y-51365D03*
X54375Y-51050D03*
X58875Y-52625D03*
X58875Y-52940D03*
X58875Y-53255D03*
X58875Y-53570D03*
X58875Y-53885D03*
X58875Y-54200D03*
X58875Y-52310D03*
X58875Y-51995D03*
X58875Y-51680D03*
X58875Y-51365D03*
X58875Y-51050D03*
G54D22*
X56625Y-54875D03*
X56625Y-50375D03*
X56940Y-54875D03*
X56940Y-50375D03*
X57255Y-50375D03*
X57255Y-54875D03*
X57570Y-54875D03*
X57570Y-50375D03*
X57885Y-50375D03*
X57885Y-54875D03*
X58200Y-54875D03*
X58200Y-50375D03*
X56310Y-50375D03*
X56310Y-54875D03*
X55995Y-54875D03*
X55995Y-50375D03*
X55680Y-50375D03*
X55680Y-54875D03*
X55365Y-54875D03*
X55365Y-50375D03*
X55050Y-50375D03*
X55050Y-54875D03*
G54D23*
X68500Y-49500D03*
X53500Y-49500D03*
X53500Y-64500D03*
X68500Y-64500D03*
G54D24*
X58365Y-61514D03*
X55235Y-61514D03*
X55235Y-63286D03*
X58365Y-63286D03*
G54D25*
X55520Y-62400D03*
X58080Y-62400D03*
X55520Y-64172D03*
X58080Y-64172D03*
X56800Y-64900D03*
G54D14*
X61000Y-56500D03*
G54D15*
X61000Y-55500D03*
X61000Y-54500D03*
X61000Y-53500D03*
G54D26*
X57800Y-56000D03*
X57426Y-56000D03*
X58174Y-56000D03*
M02*
