G04 (created by PCBNEW-RS274X (2011-nov-30)-testing) date Tue 24 Jan 2012 06:26:41 PM EST*
G01*
G70*
G90*
%MOIN*%
G04 Gerber Fmt 3.4, Leading zero omitted, Abs format*
%FSLAX34Y34*%
G04 APERTURE LIST*
%ADD10C,0.006000*%
%ADD11C,0.003900*%
%ADD12C,0.002600*%
%ADD13C,0.004000*%
%ADD14C,0.002000*%
%ADD15C,0.012000*%
%ADD16C,0.008000*%
%ADD17C,0.005000*%
%ADD18C,0.010000*%
%ADD19C,0.006300*%
%ADD20C,0.007500*%
G04 APERTURE END LIST*
G54D10*
G54D11*
X63075Y-64181D02*
X62681Y-64181D01*
X62681Y-61819D02*
X63075Y-61819D01*
X63075Y-64181D02*
X63075Y-61819D01*
X60319Y-64181D02*
X59925Y-63787D01*
X59925Y-63787D02*
X59925Y-62213D01*
X59925Y-62213D02*
X60319Y-61819D01*
X66950Y-53181D02*
X66556Y-53181D01*
X66556Y-50819D02*
X66950Y-50819D01*
X66950Y-53181D02*
X66950Y-50819D01*
X64194Y-53181D02*
X63800Y-52787D01*
X63800Y-52787D02*
X63800Y-51213D01*
X63800Y-51213D02*
X64194Y-50819D01*
X63387Y-55504D02*
X66615Y-55504D01*
X67363Y-53496D02*
X67363Y-54756D01*
X67363Y-54756D02*
X66615Y-55504D01*
X63387Y-55504D02*
X63387Y-53496D01*
X63387Y-53496D02*
X67363Y-53496D01*
G54D12*
X61396Y-59718D02*
X61396Y-59846D01*
X61396Y-59846D02*
X61593Y-59846D01*
X61593Y-59718D02*
X61593Y-59846D01*
X61396Y-59718D02*
X61593Y-59718D01*
X61396Y-59473D02*
X61396Y-59532D01*
X61396Y-59532D02*
X61495Y-59532D01*
X61495Y-59473D02*
X61495Y-59532D01*
X61396Y-59473D02*
X61495Y-59473D01*
X61396Y-59668D02*
X61396Y-59727D01*
X61396Y-59727D02*
X61495Y-59727D01*
X61495Y-59668D02*
X61495Y-59727D01*
X61396Y-59668D02*
X61495Y-59668D01*
X61396Y-59522D02*
X61396Y-59678D01*
X61396Y-59678D02*
X61465Y-59678D01*
X61465Y-59522D02*
X61465Y-59678D01*
X61396Y-59522D02*
X61465Y-59522D01*
X60807Y-59718D02*
X60807Y-59846D01*
X60807Y-59846D02*
X61004Y-59846D01*
X61004Y-59718D02*
X61004Y-59846D01*
X60807Y-59718D02*
X61004Y-59718D01*
X60807Y-59354D02*
X60807Y-59482D01*
X60807Y-59482D02*
X61004Y-59482D01*
X61004Y-59354D02*
X61004Y-59482D01*
X60807Y-59354D02*
X61004Y-59354D01*
X60905Y-59668D02*
X60905Y-59727D01*
X60905Y-59727D02*
X61004Y-59727D01*
X61004Y-59668D02*
X61004Y-59727D01*
X60905Y-59668D02*
X61004Y-59668D01*
X60905Y-59473D02*
X60905Y-59532D01*
X60905Y-59532D02*
X61004Y-59532D01*
X61004Y-59473D02*
X61004Y-59532D01*
X60905Y-59473D02*
X61004Y-59473D01*
X60935Y-59522D02*
X60935Y-59678D01*
X60935Y-59678D02*
X61004Y-59678D01*
X61004Y-59522D02*
X61004Y-59678D01*
X60935Y-59522D02*
X61004Y-59522D01*
X61200Y-59561D02*
X61200Y-59639D01*
X61200Y-59639D02*
X61278Y-59639D01*
X61278Y-59561D02*
X61278Y-59639D01*
X61200Y-59561D02*
X61278Y-59561D01*
X61396Y-59364D02*
X61396Y-59482D01*
X61396Y-59482D02*
X61514Y-59482D01*
X61514Y-59364D02*
X61514Y-59482D01*
X61396Y-59364D02*
X61514Y-59364D01*
X61564Y-59354D02*
X61564Y-59443D01*
X61564Y-59443D02*
X61593Y-59443D01*
X61593Y-59354D02*
X61593Y-59443D01*
X61564Y-59354D02*
X61593Y-59354D01*
G54D13*
X61406Y-59826D02*
X60994Y-59826D01*
X61004Y-59374D02*
X61564Y-59374D01*
G54D14*
X61562Y-59423D02*
X61561Y-59428D01*
X61559Y-59433D01*
X61557Y-59438D01*
X61553Y-59442D01*
X61549Y-59446D01*
X61544Y-59448D01*
X61539Y-59450D01*
X61534Y-59450D01*
X61529Y-59450D01*
X61524Y-59448D01*
X61519Y-59446D01*
X61515Y-59443D01*
X61511Y-59438D01*
X61509Y-59434D01*
X61507Y-59428D01*
X61507Y-59423D01*
X61507Y-59418D01*
X61508Y-59413D01*
X61511Y-59408D01*
X61514Y-59404D01*
X61519Y-59401D01*
X61523Y-59398D01*
X61528Y-59396D01*
X61534Y-59396D01*
X61538Y-59396D01*
X61544Y-59397D01*
X61549Y-59400D01*
X61553Y-59403D01*
X61556Y-59407D01*
X61559Y-59412D01*
X61561Y-59417D01*
X61561Y-59423D01*
X61562Y-59423D01*
G54D13*
X61593Y-59463D02*
X61582Y-59464D01*
X61570Y-59466D01*
X61558Y-59468D01*
X61547Y-59472D01*
X61536Y-59476D01*
X61525Y-59482D01*
X61515Y-59488D01*
X61505Y-59496D01*
X61497Y-59504D01*
X61489Y-59512D01*
X61481Y-59522D01*
X61475Y-59532D01*
X61469Y-59543D01*
X61465Y-59554D01*
X61461Y-59565D01*
X61459Y-59577D01*
X61457Y-59589D01*
X61456Y-59600D01*
X61457Y-59611D01*
X61459Y-59623D01*
X61461Y-59635D01*
X61465Y-59646D01*
X61469Y-59657D01*
X61475Y-59668D01*
X61481Y-59678D01*
X61489Y-59688D01*
X61497Y-59696D01*
X61505Y-59704D01*
X61515Y-59712D01*
X61525Y-59718D01*
X61536Y-59724D01*
X61547Y-59728D01*
X61558Y-59732D01*
X61570Y-59734D01*
X61582Y-59736D01*
X61593Y-59737D01*
X60807Y-59737D02*
X60818Y-59736D01*
X60830Y-59734D01*
X60842Y-59732D01*
X60853Y-59728D01*
X60864Y-59724D01*
X60875Y-59718D01*
X60885Y-59712D01*
X60895Y-59704D01*
X60903Y-59696D01*
X60911Y-59688D01*
X60919Y-59678D01*
X60925Y-59668D01*
X60931Y-59657D01*
X60935Y-59646D01*
X60939Y-59635D01*
X60941Y-59623D01*
X60943Y-59611D01*
X60944Y-59600D01*
X60943Y-59589D01*
X60941Y-59577D01*
X60939Y-59565D01*
X60935Y-59554D01*
X60931Y-59543D01*
X60925Y-59532D01*
X60919Y-59522D01*
X60911Y-59512D01*
X60903Y-59504D01*
X60895Y-59496D01*
X60885Y-59488D01*
X60875Y-59482D01*
X60864Y-59476D01*
X60853Y-59472D01*
X60842Y-59468D01*
X60830Y-59466D01*
X60818Y-59464D01*
X60807Y-59463D01*
G54D12*
X53282Y-54196D02*
X53154Y-54196D01*
X53154Y-54196D02*
X53154Y-54393D01*
X53282Y-54393D02*
X53154Y-54393D01*
X53282Y-54196D02*
X53282Y-54393D01*
X53527Y-54196D02*
X53468Y-54196D01*
X53468Y-54196D02*
X53468Y-54295D01*
X53527Y-54295D02*
X53468Y-54295D01*
X53527Y-54196D02*
X53527Y-54295D01*
X53332Y-54196D02*
X53273Y-54196D01*
X53273Y-54196D02*
X53273Y-54295D01*
X53332Y-54295D02*
X53273Y-54295D01*
X53332Y-54196D02*
X53332Y-54295D01*
X53478Y-54196D02*
X53322Y-54196D01*
X53322Y-54196D02*
X53322Y-54265D01*
X53478Y-54265D02*
X53322Y-54265D01*
X53478Y-54196D02*
X53478Y-54265D01*
X53282Y-53607D02*
X53154Y-53607D01*
X53154Y-53607D02*
X53154Y-53804D01*
X53282Y-53804D02*
X53154Y-53804D01*
X53282Y-53607D02*
X53282Y-53804D01*
X53646Y-53607D02*
X53518Y-53607D01*
X53518Y-53607D02*
X53518Y-53804D01*
X53646Y-53804D02*
X53518Y-53804D01*
X53646Y-53607D02*
X53646Y-53804D01*
X53332Y-53705D02*
X53273Y-53705D01*
X53273Y-53705D02*
X53273Y-53804D01*
X53332Y-53804D02*
X53273Y-53804D01*
X53332Y-53705D02*
X53332Y-53804D01*
X53527Y-53705D02*
X53468Y-53705D01*
X53468Y-53705D02*
X53468Y-53804D01*
X53527Y-53804D02*
X53468Y-53804D01*
X53527Y-53705D02*
X53527Y-53804D01*
X53478Y-53735D02*
X53322Y-53735D01*
X53322Y-53735D02*
X53322Y-53804D01*
X53478Y-53804D02*
X53322Y-53804D01*
X53478Y-53735D02*
X53478Y-53804D01*
X53439Y-54000D02*
X53361Y-54000D01*
X53361Y-54000D02*
X53361Y-54078D01*
X53439Y-54078D02*
X53361Y-54078D01*
X53439Y-54000D02*
X53439Y-54078D01*
X53636Y-54196D02*
X53518Y-54196D01*
X53518Y-54196D02*
X53518Y-54314D01*
X53636Y-54314D02*
X53518Y-54314D01*
X53636Y-54196D02*
X53636Y-54314D01*
X53646Y-54364D02*
X53557Y-54364D01*
X53557Y-54364D02*
X53557Y-54393D01*
X53646Y-54393D02*
X53557Y-54393D01*
X53646Y-54364D02*
X53646Y-54393D01*
G54D13*
X53174Y-54206D02*
X53174Y-53794D01*
X53626Y-53804D02*
X53626Y-54364D01*
G54D14*
X53605Y-54334D02*
X53604Y-54339D01*
X53602Y-54344D01*
X53600Y-54349D01*
X53596Y-54353D01*
X53592Y-54357D01*
X53587Y-54359D01*
X53582Y-54361D01*
X53577Y-54361D01*
X53572Y-54361D01*
X53567Y-54359D01*
X53562Y-54357D01*
X53558Y-54354D01*
X53554Y-54349D01*
X53552Y-54345D01*
X53550Y-54339D01*
X53550Y-54334D01*
X53550Y-54329D01*
X53551Y-54324D01*
X53554Y-54319D01*
X53557Y-54315D01*
X53562Y-54312D01*
X53566Y-54309D01*
X53571Y-54307D01*
X53577Y-54307D01*
X53581Y-54307D01*
X53587Y-54308D01*
X53592Y-54311D01*
X53596Y-54314D01*
X53599Y-54318D01*
X53602Y-54323D01*
X53604Y-54328D01*
X53604Y-54334D01*
X53605Y-54334D01*
G54D13*
X53537Y-54393D02*
X53536Y-54382D01*
X53534Y-54370D01*
X53532Y-54358D01*
X53528Y-54347D01*
X53524Y-54336D01*
X53518Y-54325D01*
X53512Y-54315D01*
X53504Y-54305D01*
X53496Y-54297D01*
X53488Y-54289D01*
X53478Y-54281D01*
X53468Y-54275D01*
X53457Y-54269D01*
X53446Y-54265D01*
X53435Y-54261D01*
X53423Y-54259D01*
X53411Y-54257D01*
X53400Y-54256D01*
X53389Y-54257D01*
X53377Y-54259D01*
X53365Y-54261D01*
X53354Y-54265D01*
X53343Y-54269D01*
X53332Y-54275D01*
X53322Y-54281D01*
X53312Y-54289D01*
X53304Y-54297D01*
X53296Y-54305D01*
X53288Y-54315D01*
X53282Y-54325D01*
X53276Y-54336D01*
X53272Y-54347D01*
X53268Y-54358D01*
X53266Y-54370D01*
X53264Y-54382D01*
X53263Y-54393D01*
X53263Y-53607D02*
X53264Y-53618D01*
X53266Y-53630D01*
X53268Y-53642D01*
X53272Y-53653D01*
X53276Y-53664D01*
X53282Y-53675D01*
X53288Y-53685D01*
X53296Y-53695D01*
X53304Y-53703D01*
X53312Y-53711D01*
X53322Y-53719D01*
X53332Y-53725D01*
X53343Y-53731D01*
X53354Y-53735D01*
X53365Y-53739D01*
X53377Y-53741D01*
X53389Y-53743D01*
X53400Y-53744D01*
X53411Y-53743D01*
X53423Y-53741D01*
X53435Y-53739D01*
X53446Y-53735D01*
X53457Y-53731D01*
X53468Y-53725D01*
X53478Y-53719D01*
X53488Y-53711D01*
X53496Y-53703D01*
X53504Y-53695D01*
X53512Y-53685D01*
X53518Y-53675D01*
X53524Y-53664D01*
X53528Y-53653D01*
X53532Y-53642D01*
X53534Y-53630D01*
X53536Y-53618D01*
X53537Y-53607D01*
G54D15*
X64625Y-49000D02*
X64625Y-50000D01*
X64625Y-50000D02*
X58625Y-50000D01*
X58625Y-50000D02*
X58625Y-49000D01*
X58625Y-49000D02*
X64625Y-49000D01*
X63625Y-49000D02*
X63625Y-50000D01*
G54D10*
X68000Y-51625D02*
X69000Y-51625D01*
X69000Y-51625D02*
X69000Y-53625D01*
X69000Y-53625D02*
X68000Y-53625D01*
X68000Y-53625D02*
X68000Y-51625D01*
X58600Y-57100D02*
X58600Y-58100D01*
X58600Y-58100D02*
X56600Y-58100D01*
X56600Y-58100D02*
X56600Y-57100D01*
X56600Y-57100D02*
X58600Y-57100D01*
G54D16*
X53100Y-58200D02*
X56100Y-58200D01*
X56100Y-60200D02*
X53100Y-60200D01*
X53100Y-60200D02*
X53100Y-58200D01*
X56100Y-58200D02*
X56100Y-60200D01*
G54D17*
X61750Y-60350D02*
X61749Y-60359D01*
X61746Y-60369D01*
X61741Y-60377D01*
X61735Y-60385D01*
X61727Y-60391D01*
X61719Y-60396D01*
X61710Y-60398D01*
X61700Y-60399D01*
X61691Y-60399D01*
X61682Y-60396D01*
X61673Y-60391D01*
X61666Y-60385D01*
X61659Y-60378D01*
X61655Y-60369D01*
X61652Y-60360D01*
X61651Y-60350D01*
X61651Y-60341D01*
X61654Y-60332D01*
X61658Y-60323D01*
X61665Y-60316D01*
X61672Y-60309D01*
X61680Y-60305D01*
X61690Y-60302D01*
X61699Y-60301D01*
X61708Y-60301D01*
X61718Y-60304D01*
X61726Y-60308D01*
X61734Y-60314D01*
X61740Y-60322D01*
X61745Y-60330D01*
X61748Y-60339D01*
X61749Y-60349D01*
X61750Y-60350D01*
X61700Y-60800D02*
X61700Y-60400D01*
X61700Y-60400D02*
X62300Y-60400D01*
X62300Y-60400D02*
X62300Y-60800D01*
X62300Y-61200D02*
X62300Y-61600D01*
X62300Y-61600D02*
X61700Y-61600D01*
X61700Y-61600D02*
X61700Y-61200D01*
X53150Y-54950D02*
X53149Y-54959D01*
X53146Y-54969D01*
X53141Y-54977D01*
X53135Y-54985D01*
X53127Y-54991D01*
X53119Y-54996D01*
X53110Y-54998D01*
X53100Y-54999D01*
X53091Y-54999D01*
X53082Y-54996D01*
X53073Y-54991D01*
X53066Y-54985D01*
X53059Y-54978D01*
X53055Y-54969D01*
X53052Y-54960D01*
X53051Y-54950D01*
X53051Y-54941D01*
X53054Y-54932D01*
X53058Y-54923D01*
X53065Y-54916D01*
X53072Y-54909D01*
X53080Y-54905D01*
X53090Y-54902D01*
X53099Y-54901D01*
X53108Y-54901D01*
X53118Y-54904D01*
X53126Y-54908D01*
X53134Y-54914D01*
X53140Y-54922D01*
X53145Y-54930D01*
X53148Y-54939D01*
X53149Y-54949D01*
X53150Y-54950D01*
X53100Y-55400D02*
X53100Y-55000D01*
X53100Y-55000D02*
X53700Y-55000D01*
X53700Y-55000D02*
X53700Y-55400D01*
X53700Y-55800D02*
X53700Y-56200D01*
X53700Y-56200D02*
X53100Y-56200D01*
X53100Y-56200D02*
X53100Y-55800D01*
X55800Y-56300D02*
X55799Y-56309D01*
X55796Y-56319D01*
X55791Y-56327D01*
X55785Y-56335D01*
X55777Y-56341D01*
X55769Y-56346D01*
X55760Y-56348D01*
X55750Y-56349D01*
X55741Y-56349D01*
X55732Y-56346D01*
X55723Y-56341D01*
X55716Y-56335D01*
X55709Y-56328D01*
X55705Y-56319D01*
X55702Y-56310D01*
X55701Y-56300D01*
X55701Y-56291D01*
X55704Y-56282D01*
X55708Y-56273D01*
X55715Y-56266D01*
X55722Y-56259D01*
X55730Y-56255D01*
X55740Y-56252D01*
X55749Y-56251D01*
X55758Y-56251D01*
X55768Y-56254D01*
X55776Y-56258D01*
X55784Y-56264D01*
X55790Y-56272D01*
X55795Y-56280D01*
X55798Y-56289D01*
X55799Y-56299D01*
X55800Y-56300D01*
X56200Y-56300D02*
X55800Y-56300D01*
X55800Y-56300D02*
X55800Y-55700D01*
X55800Y-55700D02*
X56200Y-55700D01*
X56600Y-55700D02*
X57000Y-55700D01*
X57000Y-55700D02*
X57000Y-56300D01*
X57000Y-56300D02*
X56600Y-56300D01*
X58350Y-60450D02*
X58349Y-60459D01*
X58346Y-60469D01*
X58341Y-60477D01*
X58335Y-60485D01*
X58327Y-60491D01*
X58319Y-60496D01*
X58310Y-60498D01*
X58300Y-60499D01*
X58291Y-60499D01*
X58282Y-60496D01*
X58273Y-60491D01*
X58266Y-60485D01*
X58259Y-60478D01*
X58255Y-60469D01*
X58252Y-60460D01*
X58251Y-60450D01*
X58251Y-60441D01*
X58254Y-60432D01*
X58258Y-60423D01*
X58265Y-60416D01*
X58272Y-60409D01*
X58280Y-60405D01*
X58290Y-60402D01*
X58299Y-60401D01*
X58308Y-60401D01*
X58318Y-60404D01*
X58326Y-60408D01*
X58334Y-60414D01*
X58340Y-60422D01*
X58345Y-60430D01*
X58348Y-60439D01*
X58349Y-60449D01*
X58350Y-60450D01*
X58300Y-60000D02*
X58300Y-60400D01*
X58300Y-60400D02*
X57700Y-60400D01*
X57700Y-60400D02*
X57700Y-60000D01*
X57700Y-59600D02*
X57700Y-59200D01*
X57700Y-59200D02*
X58300Y-59200D01*
X58300Y-59200D02*
X58300Y-59600D01*
X57350Y-60450D02*
X57349Y-60459D01*
X57346Y-60469D01*
X57341Y-60477D01*
X57335Y-60485D01*
X57327Y-60491D01*
X57319Y-60496D01*
X57310Y-60498D01*
X57300Y-60499D01*
X57291Y-60499D01*
X57282Y-60496D01*
X57273Y-60491D01*
X57266Y-60485D01*
X57259Y-60478D01*
X57255Y-60469D01*
X57252Y-60460D01*
X57251Y-60450D01*
X57251Y-60441D01*
X57254Y-60432D01*
X57258Y-60423D01*
X57265Y-60416D01*
X57272Y-60409D01*
X57280Y-60405D01*
X57290Y-60402D01*
X57299Y-60401D01*
X57308Y-60401D01*
X57318Y-60404D01*
X57326Y-60408D01*
X57334Y-60414D01*
X57340Y-60422D01*
X57345Y-60430D01*
X57348Y-60439D01*
X57349Y-60449D01*
X57350Y-60450D01*
X57300Y-60000D02*
X57300Y-60400D01*
X57300Y-60400D02*
X56700Y-60400D01*
X56700Y-60400D02*
X56700Y-60000D01*
X56700Y-59600D02*
X56700Y-59200D01*
X56700Y-59200D02*
X57300Y-59200D01*
X57300Y-59200D02*
X57300Y-59600D01*
X63500Y-55700D02*
X63499Y-55709D01*
X63496Y-55719D01*
X63491Y-55727D01*
X63485Y-55735D01*
X63477Y-55741D01*
X63469Y-55746D01*
X63460Y-55748D01*
X63450Y-55749D01*
X63441Y-55749D01*
X63432Y-55746D01*
X63423Y-55741D01*
X63416Y-55735D01*
X63409Y-55728D01*
X63405Y-55719D01*
X63402Y-55710D01*
X63401Y-55700D01*
X63401Y-55691D01*
X63404Y-55682D01*
X63408Y-55673D01*
X63415Y-55666D01*
X63422Y-55659D01*
X63430Y-55655D01*
X63440Y-55652D01*
X63449Y-55651D01*
X63458Y-55651D01*
X63468Y-55654D01*
X63476Y-55658D01*
X63484Y-55664D01*
X63490Y-55672D01*
X63495Y-55680D01*
X63498Y-55689D01*
X63499Y-55699D01*
X63500Y-55700D01*
X63000Y-55700D02*
X63400Y-55700D01*
X63400Y-55700D02*
X63400Y-56300D01*
X63400Y-56300D02*
X63000Y-56300D01*
X62600Y-56300D02*
X62200Y-56300D01*
X62200Y-56300D02*
X62200Y-55700D01*
X62200Y-55700D02*
X62600Y-55700D01*
X60250Y-60350D02*
X60249Y-60359D01*
X60246Y-60369D01*
X60241Y-60377D01*
X60235Y-60385D01*
X60227Y-60391D01*
X60219Y-60396D01*
X60210Y-60398D01*
X60200Y-60399D01*
X60191Y-60399D01*
X60182Y-60396D01*
X60173Y-60391D01*
X60166Y-60385D01*
X60159Y-60378D01*
X60155Y-60369D01*
X60152Y-60360D01*
X60151Y-60350D01*
X60151Y-60341D01*
X60154Y-60332D01*
X60158Y-60323D01*
X60165Y-60316D01*
X60172Y-60309D01*
X60180Y-60305D01*
X60190Y-60302D01*
X60199Y-60301D01*
X60208Y-60301D01*
X60218Y-60304D01*
X60226Y-60308D01*
X60234Y-60314D01*
X60240Y-60322D01*
X60245Y-60330D01*
X60248Y-60339D01*
X60249Y-60349D01*
X60250Y-60350D01*
X60200Y-60800D02*
X60200Y-60400D01*
X60200Y-60400D02*
X60800Y-60400D01*
X60800Y-60400D02*
X60800Y-60800D01*
X60800Y-61200D02*
X60800Y-61600D01*
X60800Y-61600D02*
X60200Y-61600D01*
X60200Y-61600D02*
X60200Y-61200D01*
X53150Y-51730D02*
X53149Y-51739D01*
X53146Y-51749D01*
X53141Y-51757D01*
X53135Y-51765D01*
X53127Y-51771D01*
X53119Y-51776D01*
X53110Y-51778D01*
X53100Y-51779D01*
X53091Y-51779D01*
X53082Y-51776D01*
X53073Y-51771D01*
X53066Y-51765D01*
X53059Y-51758D01*
X53055Y-51749D01*
X53052Y-51740D01*
X53051Y-51730D01*
X53051Y-51721D01*
X53054Y-51712D01*
X53058Y-51703D01*
X53065Y-51696D01*
X53072Y-51689D01*
X53080Y-51685D01*
X53090Y-51682D01*
X53099Y-51681D01*
X53108Y-51681D01*
X53118Y-51684D01*
X53126Y-51688D01*
X53134Y-51694D01*
X53140Y-51702D01*
X53145Y-51710D01*
X53148Y-51719D01*
X53149Y-51729D01*
X53150Y-51730D01*
X53100Y-52180D02*
X53100Y-51780D01*
X53100Y-51780D02*
X53700Y-51780D01*
X53700Y-51780D02*
X53700Y-52180D01*
X53700Y-52580D02*
X53700Y-52980D01*
X53700Y-52980D02*
X53100Y-52980D01*
X53100Y-52980D02*
X53100Y-52580D01*
X57500Y-49180D02*
X57499Y-49189D01*
X57496Y-49199D01*
X57491Y-49207D01*
X57485Y-49215D01*
X57477Y-49221D01*
X57469Y-49226D01*
X57460Y-49228D01*
X57450Y-49229D01*
X57441Y-49229D01*
X57432Y-49226D01*
X57423Y-49221D01*
X57416Y-49215D01*
X57409Y-49208D01*
X57405Y-49199D01*
X57402Y-49190D01*
X57401Y-49180D01*
X57401Y-49171D01*
X57404Y-49162D01*
X57408Y-49153D01*
X57415Y-49146D01*
X57422Y-49139D01*
X57430Y-49135D01*
X57440Y-49132D01*
X57449Y-49131D01*
X57458Y-49131D01*
X57468Y-49134D01*
X57476Y-49138D01*
X57484Y-49144D01*
X57490Y-49152D01*
X57495Y-49160D01*
X57498Y-49169D01*
X57499Y-49179D01*
X57500Y-49180D01*
X57000Y-49180D02*
X57400Y-49180D01*
X57400Y-49180D02*
X57400Y-49780D01*
X57400Y-49780D02*
X57000Y-49780D01*
X56600Y-49780D02*
X56200Y-49780D01*
X56200Y-49780D02*
X56200Y-49180D01*
X56200Y-49180D02*
X56600Y-49180D01*
X60405Y-52689D02*
X60404Y-52698D01*
X60401Y-52708D01*
X60396Y-52716D01*
X60390Y-52724D01*
X60382Y-52730D01*
X60374Y-52735D01*
X60365Y-52737D01*
X60355Y-52738D01*
X60346Y-52738D01*
X60337Y-52735D01*
X60328Y-52730D01*
X60321Y-52724D01*
X60314Y-52717D01*
X60310Y-52708D01*
X60307Y-52699D01*
X60306Y-52689D01*
X60306Y-52680D01*
X60309Y-52671D01*
X60313Y-52662D01*
X60320Y-52655D01*
X60327Y-52648D01*
X60335Y-52644D01*
X60345Y-52641D01*
X60354Y-52640D01*
X60363Y-52640D01*
X60373Y-52643D01*
X60381Y-52647D01*
X60389Y-52653D01*
X60395Y-52661D01*
X60400Y-52669D01*
X60403Y-52678D01*
X60404Y-52688D01*
X60405Y-52689D01*
X60355Y-52239D02*
X60355Y-52639D01*
X60355Y-52639D02*
X59755Y-52639D01*
X59755Y-52639D02*
X59755Y-52239D01*
X59755Y-51839D02*
X59755Y-51439D01*
X59755Y-51439D02*
X60355Y-51439D01*
X60355Y-51439D02*
X60355Y-51839D01*
X59650Y-58400D02*
X59650Y-58300D01*
X59650Y-58300D02*
X58750Y-58300D01*
X58750Y-58300D02*
X58750Y-58400D01*
X59650Y-58400D02*
X58750Y-58400D01*
X58750Y-58400D02*
X58750Y-59050D01*
X59650Y-59750D02*
X59650Y-60400D01*
X59650Y-60400D02*
X58750Y-60400D01*
X58750Y-60400D02*
X58750Y-59750D01*
X59650Y-59050D02*
X59650Y-58400D01*
G54D11*
X68441Y-62866D02*
X68441Y-56134D01*
X68441Y-56134D02*
X63559Y-56134D01*
X63559Y-56134D02*
X63559Y-62866D01*
X63559Y-62866D02*
X68441Y-62866D01*
G54D15*
X54655Y-50655D02*
X58595Y-50655D01*
X58595Y-50655D02*
X58595Y-54595D01*
X54845Y-54595D02*
X58595Y-54595D01*
X54655Y-54405D02*
X54655Y-50655D01*
X54845Y-54595D02*
X54655Y-54405D01*
G54D16*
X55375Y-54125D02*
X55370Y-54173D01*
X55356Y-54220D01*
X55333Y-54263D01*
X55302Y-54301D01*
X55264Y-54332D01*
X55221Y-54355D01*
X55175Y-54369D01*
X55126Y-54374D01*
X55079Y-54370D01*
X55032Y-54356D01*
X54989Y-54334D01*
X54951Y-54303D01*
X54919Y-54266D01*
X54896Y-54223D01*
X54881Y-54176D01*
X54876Y-54128D01*
X54880Y-54080D01*
X54893Y-54033D01*
X54915Y-53990D01*
X54946Y-53952D01*
X54983Y-53920D01*
X55025Y-53896D01*
X55072Y-53881D01*
X55120Y-53876D01*
X55168Y-53879D01*
X55215Y-53892D01*
X55258Y-53914D01*
X55297Y-53944D01*
X55329Y-53981D01*
X55353Y-54024D01*
X55368Y-54070D01*
X55374Y-54119D01*
X55375Y-54125D01*
G54D18*
X61500Y-53000D02*
X61500Y-57000D01*
X60500Y-53000D02*
X60500Y-57000D01*
X60500Y-57000D02*
X61500Y-57000D01*
X61500Y-53000D02*
X60500Y-53000D01*
G54D11*
X58391Y-56295D02*
X58469Y-56295D01*
X58391Y-55705D02*
X58469Y-55705D01*
X57209Y-55705D02*
X57131Y-55705D01*
X57209Y-56295D02*
X57131Y-56295D01*
X58469Y-55705D02*
X58469Y-56295D01*
X57131Y-56295D02*
X57131Y-55705D01*
G54D10*
X66663Y-54500D02*
X66657Y-54559D01*
X66640Y-54615D01*
X66612Y-54668D01*
X66574Y-54714D01*
X66528Y-54752D01*
X66476Y-54780D01*
X66420Y-54797D01*
X66361Y-54803D01*
X66303Y-54798D01*
X66246Y-54781D01*
X66193Y-54754D01*
X66147Y-54717D01*
X66109Y-54671D01*
X66080Y-54619D01*
X66062Y-54563D01*
X66056Y-54504D01*
X66060Y-54446D01*
X66077Y-54389D01*
X66104Y-54336D01*
X66141Y-54289D01*
X66186Y-54251D01*
X66238Y-54222D01*
X66294Y-54204D01*
X66353Y-54197D01*
X66411Y-54201D01*
X66468Y-54217D01*
X66521Y-54244D01*
X66568Y-54280D01*
X66607Y-54325D01*
X66636Y-54377D01*
X66655Y-54433D01*
X66662Y-54492D01*
X66663Y-54500D01*
X65679Y-54500D02*
X65673Y-54559D01*
X65656Y-54615D01*
X65628Y-54668D01*
X65590Y-54714D01*
X65544Y-54752D01*
X65492Y-54780D01*
X65436Y-54797D01*
X65377Y-54803D01*
X65319Y-54798D01*
X65262Y-54781D01*
X65209Y-54754D01*
X65163Y-54717D01*
X65125Y-54671D01*
X65096Y-54619D01*
X65078Y-54563D01*
X65072Y-54504D01*
X65076Y-54446D01*
X65093Y-54389D01*
X65120Y-54336D01*
X65157Y-54289D01*
X65202Y-54251D01*
X65254Y-54222D01*
X65310Y-54204D01*
X65369Y-54197D01*
X65427Y-54201D01*
X65484Y-54217D01*
X65537Y-54244D01*
X65584Y-54280D01*
X65623Y-54325D01*
X65652Y-54377D01*
X65671Y-54433D01*
X65678Y-54492D01*
X65679Y-54500D01*
X64695Y-54500D02*
X64689Y-54559D01*
X64672Y-54615D01*
X64644Y-54668D01*
X64606Y-54714D01*
X64560Y-54752D01*
X64508Y-54780D01*
X64452Y-54797D01*
X64393Y-54803D01*
X64335Y-54798D01*
X64278Y-54781D01*
X64225Y-54754D01*
X64179Y-54717D01*
X64141Y-54671D01*
X64112Y-54619D01*
X64094Y-54563D01*
X64088Y-54504D01*
X64092Y-54446D01*
X64109Y-54389D01*
X64136Y-54336D01*
X64173Y-54289D01*
X64218Y-54251D01*
X64270Y-54222D01*
X64326Y-54204D01*
X64385Y-54197D01*
X64443Y-54201D01*
X64500Y-54217D01*
X64553Y-54244D01*
X64600Y-54280D01*
X64639Y-54325D01*
X64668Y-54377D01*
X64687Y-54433D01*
X64694Y-54492D01*
X64695Y-54500D01*
X63855Y-49230D02*
X63855Y-49770D01*
X64395Y-49770D01*
X64395Y-49230D01*
X63855Y-49230D01*
X63395Y-49500D02*
X63389Y-49552D01*
X63374Y-49602D01*
X63349Y-49649D01*
X63316Y-49690D01*
X63275Y-49723D01*
X63229Y-49748D01*
X63179Y-49764D01*
X63126Y-49769D01*
X63075Y-49765D01*
X63024Y-49750D01*
X62978Y-49725D01*
X62937Y-49692D01*
X62903Y-49652D01*
X62877Y-49606D01*
X62861Y-49556D01*
X62856Y-49503D01*
X62860Y-49452D01*
X62874Y-49401D01*
X62899Y-49354D01*
X62931Y-49313D01*
X62971Y-49279D01*
X63017Y-49253D01*
X63068Y-49237D01*
X63120Y-49231D01*
X63171Y-49235D01*
X63222Y-49249D01*
X63269Y-49273D01*
X63311Y-49305D01*
X63345Y-49345D01*
X63371Y-49391D01*
X63388Y-49441D01*
X63394Y-49493D01*
X63395Y-49500D01*
X62395Y-49500D02*
X62389Y-49552D01*
X62374Y-49602D01*
X62349Y-49649D01*
X62316Y-49690D01*
X62275Y-49723D01*
X62229Y-49748D01*
X62179Y-49764D01*
X62126Y-49769D01*
X62075Y-49765D01*
X62024Y-49750D01*
X61978Y-49725D01*
X61937Y-49692D01*
X61903Y-49652D01*
X61877Y-49606D01*
X61861Y-49556D01*
X61856Y-49503D01*
X61860Y-49452D01*
X61874Y-49401D01*
X61899Y-49354D01*
X61931Y-49313D01*
X61971Y-49279D01*
X62017Y-49253D01*
X62068Y-49237D01*
X62120Y-49231D01*
X62171Y-49235D01*
X62222Y-49249D01*
X62269Y-49273D01*
X62311Y-49305D01*
X62345Y-49345D01*
X62371Y-49391D01*
X62388Y-49441D01*
X62394Y-49493D01*
X62395Y-49500D01*
X61395Y-49500D02*
X61389Y-49552D01*
X61374Y-49602D01*
X61349Y-49649D01*
X61316Y-49690D01*
X61275Y-49723D01*
X61229Y-49748D01*
X61179Y-49764D01*
X61126Y-49769D01*
X61075Y-49765D01*
X61024Y-49750D01*
X60978Y-49725D01*
X60937Y-49692D01*
X60903Y-49652D01*
X60877Y-49606D01*
X60861Y-49556D01*
X60856Y-49503D01*
X60860Y-49452D01*
X60874Y-49401D01*
X60899Y-49354D01*
X60931Y-49313D01*
X60971Y-49279D01*
X61017Y-49253D01*
X61068Y-49237D01*
X61120Y-49231D01*
X61171Y-49235D01*
X61222Y-49249D01*
X61269Y-49273D01*
X61311Y-49305D01*
X61345Y-49345D01*
X61371Y-49391D01*
X61388Y-49441D01*
X61394Y-49493D01*
X61395Y-49500D01*
X60395Y-49500D02*
X60389Y-49552D01*
X60374Y-49602D01*
X60349Y-49649D01*
X60316Y-49690D01*
X60275Y-49723D01*
X60229Y-49748D01*
X60179Y-49764D01*
X60126Y-49769D01*
X60075Y-49765D01*
X60024Y-49750D01*
X59978Y-49725D01*
X59937Y-49692D01*
X59903Y-49652D01*
X59877Y-49606D01*
X59861Y-49556D01*
X59856Y-49503D01*
X59860Y-49452D01*
X59874Y-49401D01*
X59899Y-49354D01*
X59931Y-49313D01*
X59971Y-49279D01*
X60017Y-49253D01*
X60068Y-49237D01*
X60120Y-49231D01*
X60171Y-49235D01*
X60222Y-49249D01*
X60269Y-49273D01*
X60311Y-49305D01*
X60345Y-49345D01*
X60371Y-49391D01*
X60388Y-49441D01*
X60394Y-49493D01*
X60395Y-49500D01*
X59395Y-49500D02*
X59389Y-49552D01*
X59374Y-49602D01*
X59349Y-49649D01*
X59316Y-49690D01*
X59275Y-49723D01*
X59229Y-49748D01*
X59179Y-49764D01*
X59126Y-49769D01*
X59075Y-49765D01*
X59024Y-49750D01*
X58978Y-49725D01*
X58937Y-49692D01*
X58903Y-49652D01*
X58877Y-49606D01*
X58861Y-49556D01*
X58856Y-49503D01*
X58860Y-49452D01*
X58874Y-49401D01*
X58899Y-49354D01*
X58931Y-49313D01*
X58971Y-49279D01*
X59017Y-49253D01*
X59068Y-49237D01*
X59120Y-49231D01*
X59171Y-49235D01*
X59222Y-49249D01*
X59269Y-49273D01*
X59311Y-49305D01*
X59345Y-49345D01*
X59371Y-49391D01*
X59388Y-49441D01*
X59394Y-49493D01*
X59395Y-49500D01*
X68230Y-51855D02*
X68230Y-52395D01*
X68770Y-52395D01*
X68770Y-51855D01*
X68230Y-51855D01*
X68770Y-53125D02*
X68764Y-53177D01*
X68749Y-53227D01*
X68724Y-53274D01*
X68691Y-53315D01*
X68650Y-53348D01*
X68604Y-53373D01*
X68554Y-53389D01*
X68501Y-53394D01*
X68450Y-53390D01*
X68399Y-53375D01*
X68353Y-53350D01*
X68312Y-53317D01*
X68278Y-53277D01*
X68252Y-53231D01*
X68236Y-53181D01*
X68231Y-53128D01*
X68235Y-53077D01*
X68249Y-53026D01*
X68274Y-52979D01*
X68306Y-52938D01*
X68346Y-52904D01*
X68392Y-52878D01*
X68443Y-52862D01*
X68495Y-52856D01*
X68546Y-52860D01*
X68597Y-52874D01*
X68644Y-52898D01*
X68686Y-52930D01*
X68720Y-52970D01*
X68746Y-53016D01*
X68763Y-53066D01*
X68769Y-53118D01*
X68770Y-53125D01*
X57830Y-57330D02*
X57830Y-57870D01*
X58370Y-57870D01*
X58370Y-57330D01*
X57830Y-57330D01*
X57370Y-57600D02*
X57364Y-57652D01*
X57349Y-57702D01*
X57324Y-57749D01*
X57291Y-57790D01*
X57250Y-57823D01*
X57204Y-57848D01*
X57154Y-57864D01*
X57101Y-57869D01*
X57050Y-57865D01*
X56999Y-57850D01*
X56953Y-57825D01*
X56912Y-57792D01*
X56878Y-57752D01*
X56852Y-57706D01*
X56836Y-57656D01*
X56831Y-57603D01*
X56835Y-57552D01*
X56849Y-57501D01*
X56874Y-57454D01*
X56906Y-57413D01*
X56946Y-57379D01*
X56992Y-57353D01*
X57043Y-57337D01*
X57095Y-57331D01*
X57146Y-57335D01*
X57197Y-57349D01*
X57244Y-57373D01*
X57286Y-57405D01*
X57320Y-57445D01*
X57346Y-57491D01*
X57363Y-57541D01*
X57369Y-57593D01*
X57370Y-57600D01*
X55330Y-58430D02*
X55330Y-58970D01*
X55870Y-58970D01*
X55870Y-58430D01*
X55330Y-58430D01*
X55870Y-59700D02*
X55864Y-59752D01*
X55849Y-59802D01*
X55824Y-59849D01*
X55791Y-59890D01*
X55750Y-59923D01*
X55704Y-59948D01*
X55654Y-59964D01*
X55601Y-59969D01*
X55550Y-59965D01*
X55499Y-59950D01*
X55453Y-59925D01*
X55412Y-59892D01*
X55378Y-59852D01*
X55352Y-59806D01*
X55336Y-59756D01*
X55331Y-59703D01*
X55335Y-59652D01*
X55349Y-59601D01*
X55374Y-59554D01*
X55406Y-59513D01*
X55446Y-59479D01*
X55492Y-59453D01*
X55543Y-59437D01*
X55595Y-59431D01*
X55646Y-59435D01*
X55697Y-59449D01*
X55744Y-59473D01*
X55786Y-59505D01*
X55820Y-59545D01*
X55846Y-59591D01*
X55863Y-59641D01*
X55869Y-59693D01*
X55870Y-59700D01*
X54870Y-58700D02*
X54864Y-58752D01*
X54849Y-58802D01*
X54824Y-58849D01*
X54791Y-58890D01*
X54750Y-58923D01*
X54704Y-58948D01*
X54654Y-58964D01*
X54601Y-58969D01*
X54550Y-58965D01*
X54499Y-58950D01*
X54453Y-58925D01*
X54412Y-58892D01*
X54378Y-58852D01*
X54352Y-58806D01*
X54336Y-58756D01*
X54331Y-58703D01*
X54335Y-58652D01*
X54349Y-58601D01*
X54374Y-58554D01*
X54406Y-58513D01*
X54446Y-58479D01*
X54492Y-58453D01*
X54543Y-58437D01*
X54595Y-58431D01*
X54646Y-58435D01*
X54697Y-58449D01*
X54744Y-58473D01*
X54786Y-58505D01*
X54820Y-58545D01*
X54846Y-58591D01*
X54863Y-58641D01*
X54869Y-58693D01*
X54870Y-58700D01*
X54870Y-59700D02*
X54864Y-59752D01*
X54849Y-59802D01*
X54824Y-59849D01*
X54791Y-59890D01*
X54750Y-59923D01*
X54704Y-59948D01*
X54654Y-59964D01*
X54601Y-59969D01*
X54550Y-59965D01*
X54499Y-59950D01*
X54453Y-59925D01*
X54412Y-59892D01*
X54378Y-59852D01*
X54352Y-59806D01*
X54336Y-59756D01*
X54331Y-59703D01*
X54335Y-59652D01*
X54349Y-59601D01*
X54374Y-59554D01*
X54406Y-59513D01*
X54446Y-59479D01*
X54492Y-59453D01*
X54543Y-59437D01*
X54595Y-59431D01*
X54646Y-59435D01*
X54697Y-59449D01*
X54744Y-59473D01*
X54786Y-59505D01*
X54820Y-59545D01*
X54846Y-59591D01*
X54863Y-59641D01*
X54869Y-59693D01*
X54870Y-59700D01*
X53870Y-58700D02*
X53864Y-58752D01*
X53849Y-58802D01*
X53824Y-58849D01*
X53791Y-58890D01*
X53750Y-58923D01*
X53704Y-58948D01*
X53654Y-58964D01*
X53601Y-58969D01*
X53550Y-58965D01*
X53499Y-58950D01*
X53453Y-58925D01*
X53412Y-58892D01*
X53378Y-58852D01*
X53352Y-58806D01*
X53336Y-58756D01*
X53331Y-58703D01*
X53335Y-58652D01*
X53349Y-58601D01*
X53374Y-58554D01*
X53406Y-58513D01*
X53446Y-58479D01*
X53492Y-58453D01*
X53543Y-58437D01*
X53595Y-58431D01*
X53646Y-58435D01*
X53697Y-58449D01*
X53744Y-58473D01*
X53786Y-58505D01*
X53820Y-58545D01*
X53846Y-58591D01*
X53863Y-58641D01*
X53869Y-58693D01*
X53870Y-58700D01*
X53870Y-59700D02*
X53864Y-59752D01*
X53849Y-59802D01*
X53824Y-59849D01*
X53791Y-59890D01*
X53750Y-59923D01*
X53704Y-59948D01*
X53654Y-59964D01*
X53601Y-59969D01*
X53550Y-59965D01*
X53499Y-59950D01*
X53453Y-59925D01*
X53412Y-59892D01*
X53378Y-59852D01*
X53352Y-59806D01*
X53336Y-59756D01*
X53331Y-59703D01*
X53335Y-59652D01*
X53349Y-59601D01*
X53374Y-59554D01*
X53406Y-59513D01*
X53446Y-59479D01*
X53492Y-59453D01*
X53543Y-59437D01*
X53595Y-59431D01*
X53646Y-59435D01*
X53697Y-59449D01*
X53744Y-59473D01*
X53786Y-59505D01*
X53820Y-59545D01*
X53846Y-59591D01*
X53863Y-59641D01*
X53869Y-59693D01*
X53870Y-59700D01*
X69220Y-49500D02*
X69206Y-49639D01*
X69165Y-49774D01*
X69099Y-49898D01*
X69010Y-50007D01*
X68902Y-50096D01*
X68779Y-50163D01*
X68644Y-50205D01*
X68505Y-50219D01*
X68366Y-50207D01*
X68231Y-50167D01*
X68106Y-50102D01*
X67997Y-50014D01*
X67906Y-49906D01*
X67839Y-49783D01*
X67796Y-49649D01*
X67781Y-49510D01*
X67792Y-49371D01*
X67831Y-49235D01*
X67895Y-49110D01*
X67983Y-49000D01*
X68090Y-48909D01*
X68212Y-48841D01*
X68346Y-48797D01*
X68485Y-48781D01*
X68625Y-48791D01*
X68760Y-48829D01*
X68885Y-48893D01*
X68996Y-48979D01*
X69088Y-49085D01*
X69157Y-49208D01*
X69202Y-49341D01*
X69219Y-49480D01*
X69220Y-49500D01*
X54220Y-49500D02*
X54206Y-49639D01*
X54165Y-49774D01*
X54099Y-49898D01*
X54010Y-50007D01*
X53902Y-50096D01*
X53779Y-50163D01*
X53644Y-50205D01*
X53505Y-50219D01*
X53366Y-50207D01*
X53231Y-50167D01*
X53106Y-50102D01*
X52997Y-50014D01*
X52906Y-49906D01*
X52839Y-49783D01*
X52796Y-49649D01*
X52781Y-49510D01*
X52792Y-49371D01*
X52831Y-49235D01*
X52895Y-49110D01*
X52983Y-49000D01*
X53090Y-48909D01*
X53212Y-48841D01*
X53346Y-48797D01*
X53485Y-48781D01*
X53625Y-48791D01*
X53760Y-48829D01*
X53885Y-48893D01*
X53996Y-48979D01*
X54088Y-49085D01*
X54157Y-49208D01*
X54202Y-49341D01*
X54219Y-49480D01*
X54220Y-49500D01*
X54220Y-64500D02*
X54206Y-64639D01*
X54165Y-64774D01*
X54099Y-64898D01*
X54010Y-65007D01*
X53902Y-65096D01*
X53779Y-65163D01*
X53644Y-65205D01*
X53505Y-65219D01*
X53366Y-65207D01*
X53231Y-65167D01*
X53106Y-65102D01*
X52997Y-65014D01*
X52906Y-64906D01*
X52839Y-64783D01*
X52796Y-64649D01*
X52781Y-64510D01*
X52792Y-64371D01*
X52831Y-64235D01*
X52895Y-64110D01*
X52983Y-64000D01*
X53090Y-63909D01*
X53212Y-63841D01*
X53346Y-63797D01*
X53485Y-63781D01*
X53625Y-63791D01*
X53760Y-63829D01*
X53885Y-63893D01*
X53996Y-63979D01*
X54088Y-64085D01*
X54157Y-64208D01*
X54202Y-64341D01*
X54219Y-64480D01*
X54220Y-64500D01*
X69220Y-64500D02*
X69206Y-64639D01*
X69165Y-64774D01*
X69099Y-64898D01*
X69010Y-65007D01*
X68902Y-65096D01*
X68779Y-65163D01*
X68644Y-65205D01*
X68505Y-65219D01*
X68366Y-65207D01*
X68231Y-65167D01*
X68106Y-65102D01*
X67997Y-65014D01*
X67906Y-64906D01*
X67839Y-64783D01*
X67796Y-64649D01*
X67781Y-64510D01*
X67792Y-64371D01*
X67831Y-64235D01*
X67895Y-64110D01*
X67983Y-64000D01*
X68090Y-63909D01*
X68212Y-63841D01*
X68346Y-63797D01*
X68485Y-63781D01*
X68625Y-63791D01*
X68760Y-63829D01*
X68885Y-63893D01*
X68996Y-63979D01*
X69088Y-64085D01*
X69157Y-64208D01*
X69202Y-64341D01*
X69219Y-64480D01*
X69220Y-64500D01*
X55844Y-62400D02*
X55837Y-62462D01*
X55819Y-62523D01*
X55789Y-62579D01*
X55749Y-62628D01*
X55701Y-62668D01*
X55645Y-62698D01*
X55585Y-62717D01*
X55522Y-62723D01*
X55460Y-62718D01*
X55399Y-62700D01*
X55343Y-62671D01*
X55294Y-62631D01*
X55253Y-62583D01*
X55223Y-62527D01*
X55204Y-62467D01*
X55197Y-62404D01*
X55202Y-62342D01*
X55219Y-62281D01*
X55248Y-62225D01*
X55287Y-62175D01*
X55336Y-62134D01*
X55391Y-62104D01*
X55451Y-62084D01*
X55514Y-62077D01*
X55576Y-62081D01*
X55637Y-62098D01*
X55693Y-62127D01*
X55743Y-62166D01*
X55784Y-62214D01*
X55815Y-62269D01*
X55835Y-62329D01*
X55843Y-62391D01*
X55844Y-62400D01*
X58404Y-62400D02*
X58397Y-62462D01*
X58379Y-62523D01*
X58349Y-62579D01*
X58309Y-62628D01*
X58261Y-62668D01*
X58205Y-62698D01*
X58145Y-62717D01*
X58082Y-62723D01*
X58020Y-62718D01*
X57959Y-62700D01*
X57903Y-62671D01*
X57854Y-62631D01*
X57813Y-62583D01*
X57783Y-62527D01*
X57764Y-62467D01*
X57757Y-62404D01*
X57762Y-62342D01*
X57779Y-62281D01*
X57808Y-62225D01*
X57847Y-62175D01*
X57896Y-62134D01*
X57951Y-62104D01*
X58011Y-62084D01*
X58074Y-62077D01*
X58136Y-62081D01*
X58197Y-62098D01*
X58253Y-62127D01*
X58303Y-62166D01*
X58344Y-62214D01*
X58375Y-62269D01*
X58395Y-62329D01*
X58403Y-62391D01*
X58404Y-62400D01*
X55844Y-64172D02*
X55837Y-64234D01*
X55819Y-64295D01*
X55789Y-64351D01*
X55749Y-64400D01*
X55701Y-64440D01*
X55645Y-64470D01*
X55585Y-64489D01*
X55522Y-64495D01*
X55460Y-64490D01*
X55399Y-64472D01*
X55343Y-64443D01*
X55294Y-64403D01*
X55253Y-64355D01*
X55223Y-64299D01*
X55204Y-64239D01*
X55197Y-64176D01*
X55202Y-64114D01*
X55219Y-64053D01*
X55248Y-63997D01*
X55287Y-63947D01*
X55336Y-63906D01*
X55391Y-63876D01*
X55451Y-63856D01*
X55514Y-63849D01*
X55576Y-63853D01*
X55637Y-63870D01*
X55693Y-63899D01*
X55743Y-63938D01*
X55784Y-63986D01*
X55815Y-64041D01*
X55835Y-64101D01*
X55843Y-64163D01*
X55844Y-64172D01*
X58404Y-64172D02*
X58397Y-64234D01*
X58379Y-64295D01*
X58349Y-64351D01*
X58309Y-64400D01*
X58261Y-64440D01*
X58205Y-64470D01*
X58145Y-64489D01*
X58082Y-64495D01*
X58020Y-64490D01*
X57959Y-64472D01*
X57903Y-64443D01*
X57854Y-64403D01*
X57813Y-64355D01*
X57783Y-64299D01*
X57764Y-64239D01*
X57757Y-64176D01*
X57762Y-64114D01*
X57779Y-64053D01*
X57808Y-63997D01*
X57847Y-63947D01*
X57896Y-63906D01*
X57951Y-63876D01*
X58011Y-63856D01*
X58074Y-63849D01*
X58136Y-63853D01*
X58197Y-63870D01*
X58253Y-63899D01*
X58303Y-63938D01*
X58344Y-63986D01*
X58375Y-64041D01*
X58395Y-64101D01*
X58403Y-64163D01*
X58404Y-64172D01*
X57124Y-64900D02*
X57117Y-64962D01*
X57099Y-65023D01*
X57069Y-65079D01*
X57029Y-65128D01*
X56981Y-65168D01*
X56925Y-65198D01*
X56865Y-65217D01*
X56802Y-65223D01*
X56740Y-65218D01*
X56679Y-65200D01*
X56623Y-65171D01*
X56574Y-65131D01*
X56533Y-65083D01*
X56503Y-65027D01*
X56484Y-64967D01*
X56477Y-64904D01*
X56482Y-64842D01*
X56499Y-64781D01*
X56528Y-64725D01*
X56567Y-64675D01*
X56616Y-64634D01*
X56671Y-64604D01*
X56731Y-64584D01*
X56794Y-64577D01*
X56856Y-64581D01*
X56917Y-64598D01*
X56973Y-64627D01*
X57023Y-64666D01*
X57064Y-64714D01*
X57095Y-64769D01*
X57115Y-64829D01*
X57123Y-64891D01*
X57124Y-64900D01*
X60730Y-56230D02*
X60730Y-56770D01*
X61270Y-56770D01*
X61270Y-56230D01*
X60730Y-56230D01*
X61270Y-55500D02*
X61264Y-55552D01*
X61249Y-55602D01*
X61224Y-55649D01*
X61191Y-55690D01*
X61150Y-55723D01*
X61104Y-55748D01*
X61054Y-55764D01*
X61001Y-55769D01*
X60950Y-55765D01*
X60899Y-55750D01*
X60853Y-55725D01*
X60812Y-55692D01*
X60778Y-55652D01*
X60752Y-55606D01*
X60736Y-55556D01*
X60731Y-55503D01*
X60735Y-55452D01*
X60749Y-55401D01*
X60774Y-55354D01*
X60806Y-55313D01*
X60846Y-55279D01*
X60892Y-55253D01*
X60943Y-55237D01*
X60995Y-55231D01*
X61046Y-55235D01*
X61097Y-55249D01*
X61144Y-55273D01*
X61186Y-55305D01*
X61220Y-55345D01*
X61246Y-55391D01*
X61263Y-55441D01*
X61269Y-55493D01*
X61270Y-55500D01*
X61270Y-54500D02*
X61264Y-54552D01*
X61249Y-54602D01*
X61224Y-54649D01*
X61191Y-54690D01*
X61150Y-54723D01*
X61104Y-54748D01*
X61054Y-54764D01*
X61001Y-54769D01*
X60950Y-54765D01*
X60899Y-54750D01*
X60853Y-54725D01*
X60812Y-54692D01*
X60778Y-54652D01*
X60752Y-54606D01*
X60736Y-54556D01*
X60731Y-54503D01*
X60735Y-54452D01*
X60749Y-54401D01*
X60774Y-54354D01*
X60806Y-54313D01*
X60846Y-54279D01*
X60892Y-54253D01*
X60943Y-54237D01*
X60995Y-54231D01*
X61046Y-54235D01*
X61097Y-54249D01*
X61144Y-54273D01*
X61186Y-54305D01*
X61220Y-54345D01*
X61246Y-54391D01*
X61263Y-54441D01*
X61269Y-54493D01*
X61270Y-54500D01*
X61270Y-53500D02*
X61264Y-53552D01*
X61249Y-53602D01*
X61224Y-53649D01*
X61191Y-53690D01*
X61150Y-53723D01*
X61104Y-53748D01*
X61054Y-53764D01*
X61001Y-53769D01*
X60950Y-53765D01*
X60899Y-53750D01*
X60853Y-53725D01*
X60812Y-53692D01*
X60778Y-53652D01*
X60752Y-53606D01*
X60736Y-53556D01*
X60731Y-53503D01*
X60735Y-53452D01*
X60749Y-53401D01*
X60774Y-53354D01*
X60806Y-53313D01*
X60846Y-53279D01*
X60892Y-53253D01*
X60943Y-53237D01*
X60995Y-53231D01*
X61046Y-53235D01*
X61097Y-53249D01*
X61144Y-53273D01*
X61186Y-53305D01*
X61220Y-53345D01*
X61246Y-53391D01*
X61263Y-53441D01*
X61269Y-53493D01*
X61270Y-53500D01*
G54D19*
X59777Y-63042D02*
X59789Y-63054D01*
X59801Y-63089D01*
X59801Y-63113D01*
X59789Y-63149D01*
X59765Y-63173D01*
X59742Y-63184D01*
X59694Y-63196D01*
X59658Y-63196D01*
X59611Y-63184D01*
X59587Y-63173D01*
X59563Y-63149D01*
X59551Y-63113D01*
X59551Y-63089D01*
X59563Y-63054D01*
X59575Y-63042D01*
X59551Y-62827D02*
X59551Y-62875D01*
X59563Y-62899D01*
X59575Y-62911D01*
X59611Y-62934D01*
X59658Y-62946D01*
X59754Y-62946D01*
X59777Y-62934D01*
X59789Y-62923D01*
X59801Y-62899D01*
X59801Y-62851D01*
X59789Y-62827D01*
X59777Y-62815D01*
X59754Y-62804D01*
X59694Y-62804D01*
X59670Y-62815D01*
X59658Y-62827D01*
X59646Y-62851D01*
X59646Y-62899D01*
X59658Y-62923D01*
X59670Y-62934D01*
X59694Y-62946D01*
G54D15*
X59545Y-64409D02*
X59545Y-63952D01*
X59774Y-64181D02*
X59317Y-64181D01*
G54D17*
X63577Y-52042D02*
X63589Y-52054D01*
X63601Y-52089D01*
X63601Y-52113D01*
X63589Y-52149D01*
X63565Y-52173D01*
X63542Y-52184D01*
X63494Y-52196D01*
X63458Y-52196D01*
X63411Y-52184D01*
X63387Y-52173D01*
X63363Y-52149D01*
X63351Y-52113D01*
X63351Y-52089D01*
X63363Y-52054D01*
X63375Y-52042D01*
X63351Y-51815D02*
X63351Y-51934D01*
X63470Y-51946D01*
X63458Y-51934D01*
X63446Y-51911D01*
X63446Y-51851D01*
X63458Y-51827D01*
X63470Y-51815D01*
X63494Y-51804D01*
X63554Y-51804D01*
X63577Y-51815D01*
X63589Y-51827D01*
X63601Y-51851D01*
X63601Y-51911D01*
X63589Y-51934D01*
X63577Y-51946D01*
G54D15*
X63414Y-53228D02*
X63414Y-52771D01*
X63643Y-53000D02*
X63186Y-53000D01*
G54D17*
X67178Y-55521D02*
X67178Y-55221D01*
X67293Y-55221D01*
X67321Y-55236D01*
X67336Y-55250D01*
X67350Y-55279D01*
X67350Y-55321D01*
X67336Y-55350D01*
X67321Y-55364D01*
X67293Y-55379D01*
X67178Y-55379D01*
X67607Y-55321D02*
X67607Y-55521D01*
X67536Y-55207D02*
X67464Y-55421D01*
X67650Y-55421D01*
X62053Y-59681D02*
X62053Y-59481D01*
X62100Y-59481D01*
X62129Y-59490D01*
X62148Y-59510D01*
X62157Y-59529D01*
X62167Y-59567D01*
X62167Y-59595D01*
X62157Y-59633D01*
X62148Y-59652D01*
X62129Y-59671D01*
X62100Y-59681D01*
X62053Y-59681D01*
X62357Y-59681D02*
X62243Y-59681D01*
X62300Y-59681D02*
X62300Y-59481D01*
X62281Y-59510D01*
X62262Y-59529D01*
X62243Y-59538D01*
X53981Y-54847D02*
X53781Y-54847D01*
X53781Y-54800D01*
X53790Y-54771D01*
X53810Y-54752D01*
X53829Y-54743D01*
X53867Y-54733D01*
X53895Y-54733D01*
X53933Y-54743D01*
X53952Y-54752D01*
X53971Y-54771D01*
X53981Y-54800D01*
X53981Y-54847D01*
X53800Y-54657D02*
X53790Y-54647D01*
X53781Y-54628D01*
X53781Y-54581D01*
X53790Y-54562D01*
X53800Y-54552D01*
X53819Y-54543D01*
X53838Y-54543D01*
X53867Y-54552D01*
X53981Y-54666D01*
X53981Y-54543D01*
G54D19*
X64878Y-49621D02*
X64878Y-49321D01*
X64993Y-49321D01*
X65021Y-49336D01*
X65036Y-49350D01*
X65050Y-49379D01*
X65050Y-49421D01*
X65036Y-49450D01*
X65021Y-49464D01*
X64993Y-49479D01*
X64878Y-49479D01*
X65150Y-49321D02*
X65336Y-49321D01*
X65236Y-49436D01*
X65278Y-49436D01*
X65307Y-49450D01*
X65321Y-49464D01*
X65336Y-49493D01*
X65336Y-49564D01*
X65321Y-49593D01*
X65307Y-49607D01*
X65278Y-49621D01*
X65193Y-49621D01*
X65164Y-49607D01*
X65150Y-49593D01*
G54D10*
X68621Y-51422D02*
X68321Y-51422D01*
X68321Y-51307D01*
X68336Y-51279D01*
X68350Y-51264D01*
X68379Y-51250D01*
X68421Y-51250D01*
X68450Y-51264D01*
X68464Y-51279D01*
X68479Y-51307D01*
X68479Y-51422D01*
X68350Y-51136D02*
X68336Y-51122D01*
X68321Y-51093D01*
X68321Y-51022D01*
X68336Y-50993D01*
X68350Y-50979D01*
X68379Y-50964D01*
X68407Y-50964D01*
X68450Y-50979D01*
X68621Y-51150D01*
X68621Y-50964D01*
G54D17*
X56034Y-57481D02*
X56034Y-57624D01*
X56024Y-57652D01*
X56005Y-57671D01*
X55977Y-57681D01*
X55958Y-57681D01*
X56129Y-57681D02*
X56129Y-57481D01*
X56205Y-57481D01*
X56224Y-57490D01*
X56233Y-57500D01*
X56243Y-57519D01*
X56243Y-57548D01*
X56233Y-57567D01*
X56224Y-57576D01*
X56205Y-57586D01*
X56129Y-57586D01*
X56433Y-57681D02*
X56319Y-57681D01*
X56376Y-57681D02*
X56376Y-57481D01*
X56357Y-57510D01*
X56338Y-57529D01*
X56319Y-57538D01*
G54D20*
X53178Y-60721D02*
X53178Y-60421D01*
X53293Y-60421D01*
X53321Y-60436D01*
X53336Y-60450D01*
X53350Y-60479D01*
X53350Y-60521D01*
X53336Y-60550D01*
X53321Y-60564D01*
X53293Y-60579D01*
X53178Y-60579D01*
X53636Y-60721D02*
X53464Y-60721D01*
X53550Y-60721D02*
X53550Y-60421D01*
X53521Y-60464D01*
X53493Y-60493D01*
X53464Y-60507D01*
G54D17*
X62081Y-60133D02*
X61986Y-60200D01*
X62081Y-60247D02*
X61881Y-60247D01*
X61881Y-60171D01*
X61890Y-60152D01*
X61900Y-60143D01*
X61919Y-60133D01*
X61948Y-60133D01*
X61967Y-60143D01*
X61976Y-60152D01*
X61986Y-60171D01*
X61986Y-60247D01*
X62081Y-59943D02*
X62081Y-60057D01*
X62081Y-60000D02*
X61881Y-60000D01*
X61910Y-60019D01*
X61929Y-60038D01*
X61938Y-60057D01*
X53981Y-56233D02*
X53886Y-56300D01*
X53981Y-56347D02*
X53781Y-56347D01*
X53781Y-56271D01*
X53790Y-56252D01*
X53800Y-56243D01*
X53819Y-56233D01*
X53848Y-56233D01*
X53867Y-56243D01*
X53876Y-56252D01*
X53886Y-56271D01*
X53886Y-56347D01*
X53800Y-56157D02*
X53790Y-56147D01*
X53781Y-56128D01*
X53781Y-56081D01*
X53790Y-56062D01*
X53800Y-56052D01*
X53819Y-56043D01*
X53838Y-56043D01*
X53867Y-56052D01*
X53981Y-56166D01*
X53981Y-56043D01*
X55458Y-56077D02*
X55446Y-56089D01*
X55411Y-56101D01*
X55387Y-56101D01*
X55351Y-56089D01*
X55327Y-56065D01*
X55316Y-56042D01*
X55304Y-55994D01*
X55304Y-55958D01*
X55316Y-55911D01*
X55327Y-55887D01*
X55351Y-55863D01*
X55387Y-55851D01*
X55411Y-55851D01*
X55446Y-55863D01*
X55458Y-55875D01*
X55696Y-56101D02*
X55554Y-56101D01*
X55625Y-56101D02*
X55625Y-55851D01*
X55601Y-55887D01*
X55577Y-55911D01*
X55554Y-55923D01*
X58101Y-60842D02*
X57982Y-60925D01*
X58101Y-60984D02*
X57851Y-60984D01*
X57851Y-60889D01*
X57863Y-60865D01*
X57875Y-60854D01*
X57899Y-60842D01*
X57935Y-60842D01*
X57958Y-60854D01*
X57970Y-60865D01*
X57982Y-60889D01*
X57982Y-60984D01*
X57851Y-60758D02*
X57851Y-60604D01*
X57946Y-60687D01*
X57946Y-60651D01*
X57958Y-60627D01*
X57970Y-60615D01*
X57994Y-60604D01*
X58054Y-60604D01*
X58077Y-60615D01*
X58089Y-60627D01*
X58101Y-60651D01*
X58101Y-60723D01*
X58089Y-60746D01*
X58077Y-60758D01*
X57101Y-60842D02*
X56982Y-60925D01*
X57101Y-60984D02*
X56851Y-60984D01*
X56851Y-60889D01*
X56863Y-60865D01*
X56875Y-60854D01*
X56899Y-60842D01*
X56935Y-60842D01*
X56958Y-60854D01*
X56970Y-60865D01*
X56982Y-60889D01*
X56982Y-60984D01*
X56935Y-60627D02*
X57101Y-60627D01*
X56839Y-60687D02*
X57018Y-60746D01*
X57018Y-60592D01*
X61858Y-56077D02*
X61846Y-56089D01*
X61811Y-56101D01*
X61787Y-56101D01*
X61751Y-56089D01*
X61727Y-56065D01*
X61716Y-56042D01*
X61704Y-55994D01*
X61704Y-55958D01*
X61716Y-55911D01*
X61727Y-55887D01*
X61751Y-55863D01*
X61787Y-55851D01*
X61811Y-55851D01*
X61846Y-55863D01*
X61858Y-55875D01*
X62001Y-55958D02*
X61977Y-55946D01*
X61966Y-55935D01*
X61954Y-55911D01*
X61954Y-55899D01*
X61966Y-55875D01*
X61977Y-55863D01*
X62001Y-55851D01*
X62049Y-55851D01*
X62073Y-55863D01*
X62085Y-55875D01*
X62096Y-55899D01*
X62096Y-55911D01*
X62085Y-55935D01*
X62073Y-55946D01*
X62049Y-55958D01*
X62001Y-55958D01*
X61977Y-55970D01*
X61966Y-55982D01*
X61954Y-56006D01*
X61954Y-56054D01*
X61966Y-56077D01*
X61977Y-56089D01*
X62001Y-56101D01*
X62049Y-56101D01*
X62073Y-56089D01*
X62085Y-56077D01*
X62096Y-56054D01*
X62096Y-56006D01*
X62085Y-55982D01*
X62073Y-55970D01*
X62049Y-55958D01*
X60562Y-60133D02*
X60571Y-60143D01*
X60581Y-60171D01*
X60581Y-60190D01*
X60571Y-60219D01*
X60552Y-60238D01*
X60533Y-60247D01*
X60495Y-60257D01*
X60467Y-60257D01*
X60429Y-60247D01*
X60410Y-60238D01*
X60390Y-60219D01*
X60381Y-60190D01*
X60381Y-60171D01*
X60390Y-60143D01*
X60400Y-60133D01*
X60381Y-60066D02*
X60381Y-59933D01*
X60581Y-60019D01*
X53962Y-53033D02*
X53971Y-53043D01*
X53981Y-53071D01*
X53981Y-53090D01*
X53971Y-53119D01*
X53952Y-53138D01*
X53933Y-53147D01*
X53895Y-53157D01*
X53867Y-53157D01*
X53829Y-53147D01*
X53810Y-53138D01*
X53790Y-53119D01*
X53781Y-53090D01*
X53781Y-53071D01*
X53790Y-53043D01*
X53800Y-53033D01*
X53848Y-52862D02*
X53981Y-52862D01*
X53771Y-52909D02*
X53914Y-52957D01*
X53914Y-52833D01*
X55867Y-49562D02*
X55857Y-49571D01*
X55829Y-49581D01*
X55810Y-49581D01*
X55781Y-49571D01*
X55762Y-49552D01*
X55753Y-49533D01*
X55743Y-49495D01*
X55743Y-49467D01*
X55753Y-49429D01*
X55762Y-49410D01*
X55781Y-49390D01*
X55810Y-49381D01*
X55829Y-49381D01*
X55857Y-49390D01*
X55867Y-49400D01*
X55934Y-49381D02*
X56057Y-49381D01*
X55991Y-49457D01*
X56019Y-49457D01*
X56038Y-49467D01*
X56048Y-49476D01*
X56057Y-49495D01*
X56057Y-49543D01*
X56048Y-49562D01*
X56038Y-49571D01*
X56019Y-49581D01*
X55962Y-49581D01*
X55943Y-49571D01*
X55934Y-49562D01*
X60132Y-53081D02*
X60144Y-53093D01*
X60156Y-53128D01*
X60156Y-53152D01*
X60144Y-53188D01*
X60120Y-53212D01*
X60097Y-53223D01*
X60049Y-53235D01*
X60013Y-53235D01*
X59966Y-53223D01*
X59942Y-53212D01*
X59918Y-53188D01*
X59906Y-53152D01*
X59906Y-53128D01*
X59918Y-53093D01*
X59930Y-53081D01*
X59930Y-52985D02*
X59918Y-52973D01*
X59906Y-52950D01*
X59906Y-52890D01*
X59918Y-52866D01*
X59930Y-52854D01*
X59954Y-52843D01*
X59978Y-52843D01*
X60013Y-52854D01*
X60156Y-52997D01*
X60156Y-52843D01*
X59301Y-60984D02*
X59051Y-60984D01*
X59051Y-60925D01*
X59063Y-60889D01*
X59087Y-60865D01*
X59111Y-60854D01*
X59158Y-60842D01*
X59194Y-60842D01*
X59242Y-60854D01*
X59265Y-60865D01*
X59289Y-60889D01*
X59301Y-60925D01*
X59301Y-60984D01*
X59051Y-60758D02*
X59051Y-60604D01*
X59146Y-60687D01*
X59146Y-60651D01*
X59158Y-60627D01*
X59170Y-60615D01*
X59194Y-60604D01*
X59254Y-60604D01*
X59277Y-60615D01*
X59289Y-60627D01*
X59301Y-60651D01*
X59301Y-60723D01*
X59289Y-60746D01*
X59277Y-60758D01*
G54D20*
X65771Y-63258D02*
X65771Y-63501D01*
X65786Y-63530D01*
X65800Y-63544D01*
X65829Y-63558D01*
X65886Y-63558D01*
X65914Y-63544D01*
X65929Y-63530D01*
X65943Y-63501D01*
X65943Y-63258D01*
X66243Y-63558D02*
X66071Y-63558D01*
X66157Y-63558D02*
X66157Y-63258D01*
X66128Y-63301D01*
X66100Y-63330D01*
X66071Y-63344D01*
G54D16*
X56118Y-53015D02*
X55518Y-53015D01*
X56061Y-52596D02*
X56089Y-52615D01*
X56118Y-52672D01*
X56118Y-52710D01*
X56089Y-52768D01*
X56032Y-52806D01*
X55975Y-52825D01*
X55861Y-52844D01*
X55775Y-52844D01*
X55661Y-52825D01*
X55604Y-52806D01*
X55546Y-52768D01*
X55518Y-52710D01*
X55518Y-52672D01*
X55546Y-52615D01*
X55575Y-52596D01*
X56118Y-52215D02*
X56118Y-52444D01*
X56118Y-52330D02*
X55518Y-52330D01*
X55604Y-52368D01*
X55661Y-52406D01*
X55689Y-52444D01*
G54D17*
X57124Y-53708D02*
X57124Y-53613D01*
X57181Y-53727D02*
X56981Y-53660D01*
X57181Y-53594D01*
X56981Y-53556D02*
X56981Y-53442D01*
X57181Y-53499D02*
X56981Y-53499D01*
X57181Y-53375D02*
X56981Y-53375D01*
X57124Y-53309D01*
X56981Y-53242D01*
X57181Y-53242D01*
X57076Y-53146D02*
X57076Y-53080D01*
X57181Y-53051D02*
X57181Y-53146D01*
X56981Y-53146D01*
X56981Y-53051D01*
X56990Y-52861D02*
X56981Y-52880D01*
X56981Y-52908D01*
X56990Y-52937D01*
X57010Y-52956D01*
X57029Y-52965D01*
X57067Y-52975D01*
X57095Y-52975D01*
X57133Y-52965D01*
X57152Y-52956D01*
X57171Y-52937D01*
X57181Y-52908D01*
X57181Y-52889D01*
X57171Y-52861D01*
X57162Y-52851D01*
X57095Y-52851D01*
X57095Y-52889D01*
X57124Y-52775D02*
X57124Y-52680D01*
X57181Y-52794D02*
X56981Y-52727D01*
X57181Y-52661D01*
X56981Y-52509D02*
X56981Y-52547D01*
X56990Y-52566D01*
X57000Y-52575D01*
X57029Y-52594D01*
X57067Y-52604D01*
X57143Y-52604D01*
X57162Y-52594D01*
X57171Y-52585D01*
X57181Y-52566D01*
X57181Y-52528D01*
X57171Y-52509D01*
X57162Y-52499D01*
X57143Y-52490D01*
X57095Y-52490D01*
X57076Y-52499D01*
X57067Y-52509D01*
X57057Y-52528D01*
X57057Y-52566D01*
X57067Y-52585D01*
X57076Y-52594D01*
X57095Y-52604D01*
X57048Y-52319D02*
X57181Y-52319D01*
X56971Y-52366D02*
X57114Y-52414D01*
X57114Y-52290D01*
X57048Y-52129D02*
X57181Y-52129D01*
X56971Y-52176D02*
X57114Y-52224D01*
X57114Y-52100D01*
X57181Y-52024D02*
X56981Y-52024D01*
X56981Y-51948D01*
X56990Y-51929D01*
X57000Y-51920D01*
X57019Y-51910D01*
X57048Y-51910D01*
X57067Y-51920D01*
X57076Y-51929D01*
X57086Y-51948D01*
X57086Y-52024D01*
X57105Y-51824D02*
X57105Y-51672D01*
X57124Y-51586D02*
X57124Y-51491D01*
X57181Y-51605D02*
X56981Y-51538D01*
X57181Y-51472D01*
G54D20*
X56571Y-63007D02*
X56614Y-63021D01*
X56685Y-63021D01*
X56714Y-63007D01*
X56728Y-62993D01*
X56743Y-62964D01*
X56743Y-62936D01*
X56728Y-62907D01*
X56714Y-62893D01*
X56685Y-62879D01*
X56628Y-62864D01*
X56600Y-62850D01*
X56585Y-62836D01*
X56571Y-62807D01*
X56571Y-62779D01*
X56585Y-62750D01*
X56600Y-62736D01*
X56628Y-62721D01*
X56700Y-62721D01*
X56743Y-62736D01*
X57029Y-63021D02*
X56857Y-63021D01*
X56943Y-63021D02*
X56943Y-62721D01*
X56914Y-62764D01*
X56886Y-62793D01*
X56857Y-62807D01*
G54D16*
X61162Y-52795D02*
X60762Y-52795D01*
X60762Y-52642D01*
X60781Y-52604D01*
X60800Y-52585D01*
X60838Y-52566D01*
X60895Y-52566D01*
X60933Y-52585D01*
X60952Y-52604D01*
X60971Y-52642D01*
X60971Y-52795D01*
X60762Y-52204D02*
X60762Y-52395D01*
X60952Y-52414D01*
X60933Y-52395D01*
X60914Y-52357D01*
X60914Y-52261D01*
X60933Y-52223D01*
X60952Y-52204D01*
X60990Y-52185D01*
X61086Y-52185D01*
X61124Y-52204D01*
X61143Y-52223D01*
X61162Y-52261D01*
X61162Y-52357D01*
X61143Y-52395D01*
X61124Y-52414D01*
G54D17*
X58598Y-55851D02*
X58764Y-56101D01*
X58764Y-55851D02*
X58598Y-56101D01*
X58990Y-56101D02*
X58848Y-56101D01*
X58919Y-56101D02*
X58919Y-55851D01*
X58895Y-55887D01*
X58871Y-55911D01*
X58848Y-55923D01*
M02*
