G04 (created by PCBNEW (2012-nov-02)-testing) date Thu 27 Dec 2012 04:07:20 PM EST*
%MOIN*%
G04 Gerber Fmt 3.4, Leading zero omitted, Abs format*
%FSLAX34Y34*%
G01*
G70*
G90*
G04 APERTURE LIST*
%ADD10C,2.3622e-06*%
%ADD11C,0.01*%
%ADD12R,0.06X0.06*%
%ADD13C,0.06*%
%ADD14C,0.055*%
%ADD15C,0.066*%
%ADD16C,0.035*%
G04 APERTURE END LIST*
G54D10*
G54D11*
X39148Y451D02*
X39129Y432D01*
X39072Y413D01*
X39034Y413D01*
X38977Y432D01*
X38939Y470D01*
X38920Y508D01*
X38901Y584D01*
X38901Y641D01*
X38920Y717D01*
X38939Y755D01*
X38977Y794D01*
X39034Y813D01*
X39072Y813D01*
X39129Y794D01*
X39148Y775D01*
X39548Y451D02*
X39529Y432D01*
X39472Y413D01*
X39434Y413D01*
X39377Y432D01*
X39339Y470D01*
X39320Y508D01*
X39301Y584D01*
X39301Y641D01*
X39320Y717D01*
X39339Y755D01*
X39377Y794D01*
X39434Y813D01*
X39472Y813D01*
X39529Y794D01*
X39548Y775D01*
G54D12*
X1750Y1750D03*
G54D13*
X750Y1750D03*
X1750Y2750D03*
X750Y2750D03*
X1750Y3750D03*
X750Y3750D03*
X1750Y4750D03*
X750Y4750D03*
G54D12*
X39250Y1750D03*
G54D13*
X38250Y1750D03*
X39250Y2750D03*
X38250Y2750D03*
X39250Y3750D03*
X38250Y3750D03*
X39250Y4750D03*
X38250Y4750D03*
G54D14*
X22700Y5800D03*
X25700Y5800D03*
G54D15*
X20600Y4775D03*
X19600Y4775D03*
G54D16*
X25650Y2550D03*
X19950Y3150D03*
X34250Y2600D03*
X23250Y2900D03*
X3775Y3125D03*
X14075Y5650D03*
X33200Y4050D03*
X24400Y3800D03*
X18250Y5050D03*
X13750Y5300D03*
X25700Y1700D03*
X18500Y2800D03*
X34350Y1750D03*
X23300Y2100D03*
X13700Y4500D03*
X25850Y900D03*
X18250Y2400D03*
X34350Y850D03*
X23350Y1300D03*
X34775Y5825D03*
X11700Y4750D03*
X25425Y3700D03*
X18750Y4800D03*
X33800Y1250D03*
X37200Y4625D03*
X18250Y6075D03*
X27950Y2650D03*
X34450Y4850D03*
X5525Y3300D03*
X9750Y775D03*
X14225Y775D03*
X5650Y5625D03*
X18450Y1650D03*
X25475Y4400D03*
X16000Y1525D03*
X700Y600D03*
G54D11*
X20550Y2550D02*
X25650Y2550D01*
X19950Y3150D02*
X20550Y2550D01*
X32750Y1800D02*
X33450Y1800D01*
X33450Y1800D02*
X34250Y2600D01*
X28050Y1800D02*
X32750Y1800D01*
X26900Y2950D02*
X28050Y1800D01*
X23300Y2950D02*
X26900Y2950D01*
X23250Y2900D02*
X23300Y2950D01*
X3400Y2750D02*
X3775Y3125D01*
X14075Y5650D02*
X14075Y5500D01*
X38750Y2250D02*
X39250Y2750D01*
X38750Y1525D02*
X38750Y2250D01*
X38478Y1253D02*
X38750Y1525D01*
X38453Y1253D02*
X38478Y1253D01*
X37675Y475D02*
X38453Y1253D01*
X19100Y475D02*
X37675Y475D01*
X14075Y5500D02*
X19100Y475D01*
X14075Y5650D02*
X14000Y5650D01*
X3400Y2750D02*
X1750Y2750D01*
X37950Y4250D02*
X37850Y4250D01*
X37650Y4050D02*
X37850Y4250D01*
X37650Y4050D02*
X33200Y4050D01*
X18250Y5050D02*
X18350Y4950D01*
X18350Y4950D02*
X18350Y4550D01*
X18350Y4550D02*
X19100Y3800D01*
X19100Y3800D02*
X24400Y3800D01*
X13800Y6000D02*
X17300Y6000D01*
X17300Y6000D02*
X17300Y5950D01*
X17300Y5950D02*
X17300Y6000D01*
X13800Y6000D02*
X12075Y4275D01*
X37950Y4250D02*
X38750Y4250D01*
X38750Y4250D02*
X39250Y3750D01*
X1750Y3750D02*
X6800Y3750D01*
X17300Y6000D02*
X18250Y5050D01*
X7325Y4275D02*
X12075Y4275D01*
X6800Y3750D02*
X7325Y4275D01*
X39250Y1750D02*
X39250Y1700D01*
X18925Y225D02*
X18750Y400D01*
X37775Y225D02*
X18925Y225D01*
X39250Y1700D02*
X37775Y225D01*
X13750Y5300D02*
X13850Y5300D01*
X13850Y5300D02*
X18750Y400D01*
X10200Y1750D02*
X1750Y1750D01*
X13750Y5300D02*
X10200Y1750D01*
X19600Y1700D02*
X25700Y1700D01*
X18500Y2800D02*
X19600Y1700D01*
X33675Y1575D02*
X27325Y1575D01*
X27350Y1600D02*
X27350Y1550D01*
X27325Y1575D02*
X27350Y1600D01*
X33850Y1750D02*
X34350Y1750D01*
X33675Y1575D02*
X33850Y1750D01*
X26800Y2100D02*
X27350Y1550D01*
X23300Y2100D02*
X26800Y2100D01*
X750Y1750D02*
X750Y1700D01*
X10400Y1200D02*
X13700Y4500D01*
X1250Y1200D02*
X10400Y1200D01*
X750Y1700D02*
X1250Y1200D01*
X19950Y900D02*
X25850Y900D01*
X18250Y2400D02*
X19950Y900D01*
X27300Y900D02*
X34300Y900D01*
X34300Y900D02*
X34350Y850D01*
X26900Y1300D02*
X27300Y900D01*
X23350Y1300D02*
X26900Y1300D01*
X33925Y5200D02*
X34150Y5200D01*
X34150Y5200D02*
X34775Y5825D01*
X11700Y4750D02*
X12025Y4750D01*
X22200Y5200D02*
X33925Y5200D01*
X21825Y5575D02*
X22200Y5200D01*
X18125Y5575D02*
X21825Y5575D01*
X17450Y6250D02*
X18125Y5575D01*
X13525Y6250D02*
X17450Y6250D01*
X12025Y4750D02*
X13525Y6250D01*
X1750Y4750D02*
X11700Y4750D01*
X24900Y4150D02*
X24975Y4150D01*
X24975Y4150D02*
X25425Y3700D01*
X38250Y1750D02*
X35150Y1750D01*
X19400Y4150D02*
X18750Y4800D01*
X24900Y4150D02*
X19400Y4150D01*
X33950Y1400D02*
X33800Y1250D01*
X34800Y1400D02*
X33950Y1400D01*
X35150Y1750D02*
X34800Y1400D01*
X35550Y6275D02*
X37200Y4625D01*
X18450Y6275D02*
X35550Y6275D01*
X18250Y6075D02*
X18450Y6275D01*
X25825Y4775D02*
X20600Y4775D01*
X27950Y2650D02*
X25825Y4775D01*
X175Y3250D02*
X3300Y3250D01*
X5350Y3475D02*
X5525Y3300D01*
X3525Y3475D02*
X5350Y3475D01*
X3300Y3250D02*
X3525Y3475D01*
X9750Y650D02*
X9750Y775D01*
X14225Y650D02*
X14225Y775D01*
X700Y600D02*
X700Y650D01*
X175Y4175D02*
X750Y4750D01*
X175Y1175D02*
X175Y3250D01*
X175Y3250D02*
X175Y4175D01*
X700Y650D02*
X175Y1175D01*
X17600Y2500D02*
X18450Y1650D01*
X17600Y2825D02*
X17600Y2500D01*
X18325Y3550D02*
X17600Y2825D01*
X20325Y3550D02*
X18325Y3550D01*
X20550Y3325D02*
X20325Y3550D01*
X25600Y3325D02*
X20550Y3325D01*
X25950Y3675D02*
X25600Y3325D01*
X25950Y3925D02*
X25950Y3675D01*
X25475Y4400D02*
X25950Y3925D01*
X16000Y1525D02*
X15125Y650D01*
X15125Y650D02*
X14225Y650D01*
X14225Y650D02*
X9750Y650D01*
X9750Y650D02*
X750Y650D01*
X750Y650D02*
X700Y600D01*
G54D10*
G36*
X3499Y3450D02*
X3414Y3366D01*
X3350Y3209D01*
X3349Y3124D01*
X3275Y3050D01*
X2221Y3050D01*
X2216Y3061D01*
X2061Y3215D01*
X1980Y3249D01*
X2061Y3283D01*
X2215Y3438D01*
X2220Y3450D01*
X3499Y3450D01*
X3499Y3450D01*
G37*
G54D11*
X3499Y3450D02*
X3414Y3366D01*
X3350Y3209D01*
X3349Y3124D01*
X3275Y3050D01*
X2221Y3050D01*
X2216Y3061D01*
X2061Y3215D01*
X1980Y3249D01*
X2061Y3283D01*
X2215Y3438D01*
X2220Y3450D01*
X3499Y3450D01*
G54D10*
G36*
X7610Y3975D02*
X7406Y3890D01*
X7110Y3595D01*
X6950Y3209D01*
X6949Y2792D01*
X7109Y2406D01*
X7404Y2110D01*
X7549Y2050D01*
X2300Y2050D01*
X2300Y2099D01*
X2262Y2191D01*
X2191Y2261D01*
X2099Y2299D01*
X2077Y2299D01*
X2215Y2438D01*
X2220Y2450D01*
X3400Y2450D01*
X3400Y2450D01*
X3514Y2472D01*
X3514Y2472D01*
X3612Y2537D01*
X3774Y2700D01*
X3859Y2699D01*
X4015Y2764D01*
X4135Y2883D01*
X4199Y3040D01*
X4200Y3209D01*
X4135Y3365D01*
X4051Y3450D01*
X6800Y3450D01*
X6800Y3450D01*
X6914Y3472D01*
X6914Y3472D01*
X7012Y3537D01*
X7449Y3975D01*
X7610Y3975D01*
X7610Y3975D01*
G37*
G54D11*
X7610Y3975D02*
X7406Y3890D01*
X7110Y3595D01*
X6950Y3209D01*
X6949Y2792D01*
X7109Y2406D01*
X7404Y2110D01*
X7549Y2050D01*
X2300Y2050D01*
X2300Y2099D01*
X2262Y2191D01*
X2191Y2261D01*
X2099Y2299D01*
X2077Y2299D01*
X2215Y2438D01*
X2220Y2450D01*
X3400Y2450D01*
X3400Y2450D01*
X3514Y2472D01*
X3514Y2472D01*
X3612Y2537D01*
X3774Y2700D01*
X3859Y2699D01*
X4015Y2764D01*
X4135Y2883D01*
X4199Y3040D01*
X4200Y3209D01*
X4135Y3365D01*
X4051Y3450D01*
X6800Y3450D01*
X6800Y3450D01*
X6914Y3472D01*
X6914Y3472D01*
X7012Y3537D01*
X7449Y3975D01*
X7610Y3975D01*
G54D10*
G36*
X13025Y6175D02*
X11950Y5100D01*
X11941Y5110D01*
X11784Y5174D01*
X11615Y5175D01*
X11459Y5110D01*
X11398Y5050D01*
X2221Y5050D01*
X2216Y5061D01*
X2061Y5215D01*
X1859Y5299D01*
X1641Y5300D01*
X1438Y5216D01*
X1284Y5061D01*
X1200Y4859D01*
X1199Y4641D01*
X1283Y4438D01*
X1438Y4284D01*
X1519Y4250D01*
X1438Y4216D01*
X1284Y4061D01*
X1250Y3980D01*
X1216Y4061D01*
X1061Y4215D01*
X859Y4299D01*
X641Y4300D01*
X438Y4216D01*
X325Y4102D01*
X325Y6175D01*
X13025Y6175D01*
X13025Y6175D01*
G37*
G54D11*
X13025Y6175D02*
X11950Y5100D01*
X11941Y5110D01*
X11784Y5174D01*
X11615Y5175D01*
X11459Y5110D01*
X11398Y5050D01*
X2221Y5050D01*
X2216Y5061D01*
X2061Y5215D01*
X1859Y5299D01*
X1641Y5300D01*
X1438Y5216D01*
X1284Y5061D01*
X1200Y4859D01*
X1199Y4641D01*
X1283Y4438D01*
X1438Y4284D01*
X1519Y4250D01*
X1438Y4216D01*
X1284Y4061D01*
X1250Y3980D01*
X1216Y4061D01*
X1061Y4215D01*
X859Y4299D01*
X641Y4300D01*
X438Y4216D01*
X325Y4102D01*
X325Y6175D01*
X13025Y6175D01*
G54D10*
G36*
X18400Y325D02*
X325Y325D01*
X325Y1397D01*
X438Y1284D01*
X640Y1200D01*
X825Y1199D01*
X1037Y987D01*
X1037Y987D01*
X1135Y922D01*
X1250Y900D01*
X10400Y900D01*
X10400Y900D01*
X10514Y922D01*
X10514Y922D01*
X10612Y987D01*
X13699Y4075D01*
X13784Y4074D01*
X13940Y4139D01*
X14060Y4258D01*
X14124Y4415D01*
X14125Y4584D01*
X14113Y4612D01*
X18400Y325D01*
X18400Y325D01*
G37*
G54D11*
X18400Y325D02*
X325Y325D01*
X325Y1397D01*
X438Y1284D01*
X640Y1200D01*
X825Y1199D01*
X1037Y987D01*
X1037Y987D01*
X1135Y922D01*
X1250Y900D01*
X10400Y900D01*
X10400Y900D01*
X10514Y922D01*
X10514Y922D01*
X10612Y987D01*
X13699Y4075D01*
X13784Y4074D01*
X13940Y4139D01*
X14060Y4258D01*
X14124Y4415D01*
X14125Y4584D01*
X14113Y4612D01*
X18400Y325D01*
G54D10*
G36*
X22902Y2250D02*
X22875Y2184D01*
X22874Y2015D01*
X22881Y2000D01*
X19724Y2000D01*
X18924Y2799D01*
X18925Y2884D01*
X18860Y3040D01*
X18741Y3160D01*
X18584Y3224D01*
X18415Y3225D01*
X18259Y3160D01*
X18139Y3041D01*
X18075Y2884D01*
X18074Y2787D01*
X18009Y2760D01*
X17889Y2641D01*
X17825Y2484D01*
X17824Y2315D01*
X17889Y2159D01*
X18008Y2039D01*
X18165Y1975D01*
X18278Y1974D01*
X19639Y775D01*
X19224Y775D01*
X14480Y5518D01*
X14499Y5565D01*
X14500Y5700D01*
X17144Y5700D01*
X17185Y5672D01*
X17207Y5668D01*
X17825Y5050D01*
X17824Y4965D01*
X17889Y4809D01*
X18008Y4689D01*
X18050Y4672D01*
X18050Y4550D01*
X18072Y4435D01*
X18137Y4337D01*
X18887Y3587D01*
X18887Y3587D01*
X18985Y3522D01*
X19099Y3500D01*
X19100Y3500D01*
X19699Y3500D01*
X19589Y3391D01*
X19525Y3234D01*
X19524Y3065D01*
X19589Y2909D01*
X19708Y2789D01*
X19865Y2725D01*
X19950Y2724D01*
X20337Y2337D01*
X20337Y2337D01*
X20435Y2272D01*
X20550Y2250D01*
X22902Y2250D01*
X22902Y2250D01*
G37*
G54D11*
X22902Y2250D02*
X22875Y2184D01*
X22874Y2015D01*
X22881Y2000D01*
X19724Y2000D01*
X18924Y2799D01*
X18925Y2884D01*
X18860Y3040D01*
X18741Y3160D01*
X18584Y3224D01*
X18415Y3225D01*
X18259Y3160D01*
X18139Y3041D01*
X18075Y2884D01*
X18074Y2787D01*
X18009Y2760D01*
X17889Y2641D01*
X17825Y2484D01*
X17824Y2315D01*
X17889Y2159D01*
X18008Y2039D01*
X18165Y1975D01*
X18278Y1974D01*
X19639Y775D01*
X19224Y775D01*
X14480Y5518D01*
X14499Y5565D01*
X14500Y5700D01*
X17144Y5700D01*
X17185Y5672D01*
X17207Y5668D01*
X17825Y5050D01*
X17824Y4965D01*
X17889Y4809D01*
X18008Y4689D01*
X18050Y4672D01*
X18050Y4550D01*
X18072Y4435D01*
X18137Y4337D01*
X18887Y3587D01*
X18887Y3587D01*
X18985Y3522D01*
X19099Y3500D01*
X19100Y3500D01*
X19699Y3500D01*
X19589Y3391D01*
X19525Y3234D01*
X19524Y3065D01*
X19589Y2909D01*
X19708Y2789D01*
X19865Y2725D01*
X19950Y2724D01*
X20337Y2337D01*
X20337Y2337D01*
X20435Y2272D01*
X20550Y2250D01*
X22902Y2250D01*
G54D10*
G36*
X26932Y3243D02*
X26900Y3250D01*
X23501Y3250D01*
X23491Y3260D01*
X23334Y3324D01*
X23165Y3325D01*
X23009Y3260D01*
X22889Y3141D01*
X22825Y2984D01*
X22824Y2850D01*
X20674Y2850D01*
X20374Y3149D01*
X20375Y3234D01*
X20310Y3390D01*
X20201Y3500D01*
X24098Y3500D01*
X24158Y3439D01*
X24315Y3375D01*
X24484Y3374D01*
X24640Y3439D01*
X24760Y3558D01*
X24824Y3715D01*
X24825Y3850D01*
X24850Y3850D01*
X25000Y3700D01*
X24999Y3615D01*
X25064Y3459D01*
X25183Y3339D01*
X25340Y3275D01*
X25509Y3274D01*
X25665Y3339D01*
X25785Y3458D01*
X25849Y3615D01*
X25850Y3784D01*
X25785Y3940D01*
X25666Y4060D01*
X25509Y4124D01*
X25424Y4125D01*
X25187Y4362D01*
X25089Y4427D01*
X24975Y4450D01*
X24900Y4450D01*
X21093Y4450D01*
X21103Y4475D01*
X25700Y4475D01*
X26932Y3243D01*
X26932Y3243D01*
G37*
G54D11*
X26932Y3243D02*
X26900Y3250D01*
X23501Y3250D01*
X23491Y3260D01*
X23334Y3324D01*
X23165Y3325D01*
X23009Y3260D01*
X22889Y3141D01*
X22825Y2984D01*
X22824Y2850D01*
X20674Y2850D01*
X20374Y3149D01*
X20375Y3234D01*
X20310Y3390D01*
X20201Y3500D01*
X24098Y3500D01*
X24158Y3439D01*
X24315Y3375D01*
X24484Y3374D01*
X24640Y3439D01*
X24760Y3558D01*
X24824Y3715D01*
X24825Y3850D01*
X24850Y3850D01*
X25000Y3700D01*
X24999Y3615D01*
X25064Y3459D01*
X25183Y3339D01*
X25340Y3275D01*
X25509Y3274D01*
X25665Y3339D01*
X25785Y3458D01*
X25849Y3615D01*
X25850Y3784D01*
X25785Y3940D01*
X25666Y4060D01*
X25509Y4124D01*
X25424Y4125D01*
X25187Y4362D01*
X25089Y4427D01*
X24975Y4450D01*
X24900Y4450D01*
X21093Y4450D01*
X21103Y4475D01*
X25700Y4475D01*
X26932Y3243D01*
G54D10*
G36*
X34377Y5975D02*
X34350Y5909D01*
X34349Y5824D01*
X34025Y5500D01*
X33925Y5500D01*
X23142Y5500D01*
X23144Y5502D01*
X23224Y5695D01*
X23225Y5903D01*
X23195Y5975D01*
X34377Y5975D01*
X34377Y5975D01*
G37*
G54D11*
X34377Y5975D02*
X34350Y5909D01*
X34349Y5824D01*
X34025Y5500D01*
X33925Y5500D01*
X23142Y5500D01*
X23144Y5502D01*
X23224Y5695D01*
X23225Y5903D01*
X23195Y5975D01*
X34377Y5975D01*
G54D10*
G36*
X38019Y2250D02*
X37938Y2216D01*
X37784Y2061D01*
X37779Y2050D01*
X35150Y2050D01*
X35035Y2027D01*
X34937Y1962D01*
X34775Y1799D01*
X34775Y1834D01*
X34710Y1990D01*
X34591Y2110D01*
X34434Y2174D01*
X34334Y2175D01*
X34490Y2239D01*
X34610Y2358D01*
X34674Y2515D01*
X34675Y2684D01*
X34610Y2840D01*
X34491Y2960D01*
X34334Y3024D01*
X34165Y3025D01*
X34009Y2960D01*
X33889Y2841D01*
X33825Y2684D01*
X33824Y2599D01*
X33325Y2100D01*
X32750Y2100D01*
X32571Y2100D01*
X32594Y2109D01*
X32889Y2404D01*
X33049Y2790D01*
X33050Y3207D01*
X32890Y3594D01*
X32595Y3889D01*
X32209Y4049D01*
X31792Y4050D01*
X31406Y3890D01*
X31110Y3595D01*
X30950Y3209D01*
X30949Y2792D01*
X31109Y2406D01*
X31404Y2110D01*
X31429Y2100D01*
X28174Y2100D01*
X28044Y2229D01*
X28190Y2289D01*
X28310Y2408D01*
X28374Y2565D01*
X28375Y2734D01*
X28310Y2890D01*
X28191Y3010D01*
X28034Y3074D01*
X27949Y3075D01*
X26124Y4900D01*
X33925Y4900D01*
X34150Y4900D01*
X34150Y4900D01*
X34264Y4922D01*
X34264Y4922D01*
X34362Y4987D01*
X34774Y5400D01*
X34859Y5399D01*
X35015Y5464D01*
X35135Y5583D01*
X35199Y5740D01*
X35200Y5909D01*
X35172Y5975D01*
X35425Y5975D01*
X36775Y4625D01*
X36774Y4540D01*
X36839Y4384D01*
X36874Y4350D01*
X33501Y4350D01*
X33441Y4410D01*
X33284Y4474D01*
X33115Y4475D01*
X32959Y4410D01*
X32839Y4291D01*
X32775Y4134D01*
X32774Y3965D01*
X32839Y3809D01*
X32958Y3689D01*
X33115Y3625D01*
X33284Y3624D01*
X33440Y3689D01*
X33501Y3750D01*
X37650Y3750D01*
X37650Y3750D01*
X37700Y3759D01*
X37699Y3641D01*
X37783Y3438D01*
X37938Y3284D01*
X38019Y3250D01*
X37938Y3216D01*
X37784Y3061D01*
X37700Y2859D01*
X37699Y2641D01*
X37783Y2438D01*
X37938Y2284D01*
X38019Y2250D01*
X38019Y2250D01*
G37*
G54D11*
X38019Y2250D02*
X37938Y2216D01*
X37784Y2061D01*
X37779Y2050D01*
X35150Y2050D01*
X35035Y2027D01*
X34937Y1962D01*
X34775Y1799D01*
X34775Y1834D01*
X34710Y1990D01*
X34591Y2110D01*
X34434Y2174D01*
X34334Y2175D01*
X34490Y2239D01*
X34610Y2358D01*
X34674Y2515D01*
X34675Y2684D01*
X34610Y2840D01*
X34491Y2960D01*
X34334Y3024D01*
X34165Y3025D01*
X34009Y2960D01*
X33889Y2841D01*
X33825Y2684D01*
X33824Y2599D01*
X33325Y2100D01*
X32750Y2100D01*
X32571Y2100D01*
X32594Y2109D01*
X32889Y2404D01*
X33049Y2790D01*
X33050Y3207D01*
X32890Y3594D01*
X32595Y3889D01*
X32209Y4049D01*
X31792Y4050D01*
X31406Y3890D01*
X31110Y3595D01*
X30950Y3209D01*
X30949Y2792D01*
X31109Y2406D01*
X31404Y2110D01*
X31429Y2100D01*
X28174Y2100D01*
X28044Y2229D01*
X28190Y2289D01*
X28310Y2408D01*
X28374Y2565D01*
X28375Y2734D01*
X28310Y2890D01*
X28191Y3010D01*
X28034Y3074D01*
X27949Y3075D01*
X26124Y4900D01*
X33925Y4900D01*
X34150Y4900D01*
X34150Y4900D01*
X34264Y4922D01*
X34264Y4922D01*
X34362Y4987D01*
X34774Y5400D01*
X34859Y5399D01*
X35015Y5464D01*
X35135Y5583D01*
X35199Y5740D01*
X35200Y5909D01*
X35172Y5975D01*
X35425Y5975D01*
X36775Y4625D01*
X36774Y4540D01*
X36839Y4384D01*
X36874Y4350D01*
X33501Y4350D01*
X33441Y4410D01*
X33284Y4474D01*
X33115Y4475D01*
X32959Y4410D01*
X32839Y4291D01*
X32775Y4134D01*
X32774Y3965D01*
X32839Y3809D01*
X32958Y3689D01*
X33115Y3625D01*
X33284Y3624D01*
X33440Y3689D01*
X33501Y3750D01*
X37650Y3750D01*
X37650Y3750D01*
X37700Y3759D01*
X37699Y3641D01*
X37783Y3438D01*
X37938Y3284D01*
X38019Y3250D01*
X37938Y3216D01*
X37784Y3061D01*
X37700Y2859D01*
X37699Y2641D01*
X37783Y2438D01*
X37938Y2284D01*
X38019Y2250D01*
G54D10*
G36*
X39675Y5102D02*
X39561Y5215D01*
X39359Y5299D01*
X39141Y5300D01*
X38938Y5216D01*
X38784Y5061D01*
X38700Y4859D01*
X38699Y4641D01*
X38737Y4550D01*
X37950Y4550D01*
X37850Y4550D01*
X37735Y4527D01*
X37637Y4462D01*
X37560Y4384D01*
X37624Y4540D01*
X37625Y4709D01*
X37560Y4865D01*
X37441Y4985D01*
X37284Y5049D01*
X37199Y5050D01*
X36074Y6175D01*
X39675Y6175D01*
X39675Y5102D01*
X39675Y5102D01*
G37*
G54D11*
X39675Y5102D02*
X39561Y5215D01*
X39359Y5299D01*
X39141Y5300D01*
X38938Y5216D01*
X38784Y5061D01*
X38700Y4859D01*
X38699Y4641D01*
X38737Y4550D01*
X37950Y4550D01*
X37850Y4550D01*
X37735Y4527D01*
X37637Y4462D01*
X37560Y4384D01*
X37624Y4540D01*
X37625Y4709D01*
X37560Y4865D01*
X37441Y4985D01*
X37284Y5049D01*
X37199Y5050D01*
X36074Y6175D01*
X39675Y6175D01*
X39675Y5102D01*
M02*
