G04 (created by PCBNEW (2013-mar-13)-testing) date Wed 26 Jun 2013 01:18:13 PM EDT*
%MOIN*%
G04 Gerber Fmt 3.4, Leading zero omitted, Abs format*
%FSLAX34Y34*%
G01*
G70*
G90*
G04 APERTURE LIST*
%ADD10C,0.000787*%
%ADD11R,0.050000X0.016000*%
%ADD12R,0.094488X0.242913*%
%ADD13R,0.063000X0.059100*%
%ADD14R,0.060000X0.060000*%
%ADD15C,0.060000*%
%ADD16R,0.035000X0.055000*%
%ADD17R,0.055000X0.035000*%
%ADD18C,0.055000*%
%ADD19R,0.047200X0.047200*%
%ADD20C,0.035000*%
%ADD21C,0.010000*%
%ADD22C,0.014000*%
G04 APERTURE END LIST*
G54D10*
G54D11*
X14600Y4550D03*
X14600Y4300D03*
X14600Y4040D03*
X14600Y3780D03*
X14600Y3530D03*
X14600Y3270D03*
X14600Y3010D03*
X14600Y2760D03*
X14600Y2500D03*
X14600Y2250D03*
X14600Y1990D03*
X14600Y1730D03*
X14600Y1480D03*
X14600Y1220D03*
X17400Y1220D03*
X17400Y1480D03*
X17400Y1720D03*
X17400Y1990D03*
X17400Y2250D03*
X17400Y2500D03*
X17400Y2760D03*
X17400Y3010D03*
X17400Y3270D03*
X17400Y3530D03*
X17400Y3780D03*
X17400Y4040D03*
X17400Y4300D03*
X17400Y4550D03*
G54D12*
X16000Y2900D03*
G54D13*
X19173Y4116D03*
X19173Y2384D03*
X19173Y3250D03*
X20827Y3250D03*
X20827Y2384D03*
X20827Y4116D03*
X35173Y4116D03*
X35173Y2384D03*
X35173Y3250D03*
X36827Y3250D03*
X36827Y2384D03*
X36827Y4116D03*
X27173Y4116D03*
X27173Y2384D03*
X27173Y3250D03*
X28827Y3250D03*
X28827Y2384D03*
X28827Y4116D03*
X12827Y2384D03*
X12827Y4116D03*
X12827Y3250D03*
X11173Y3250D03*
X11173Y4116D03*
X11173Y2384D03*
X4827Y2384D03*
X4827Y4116D03*
X4827Y3250D03*
X3173Y3250D03*
X3173Y4116D03*
X3173Y2384D03*
G54D14*
X1750Y1750D03*
G54D15*
X750Y1750D03*
X1750Y2750D03*
X750Y2750D03*
X1750Y3750D03*
X750Y3750D03*
X1750Y4750D03*
X750Y4750D03*
G54D14*
X39200Y1750D03*
G54D15*
X38200Y1750D03*
X39200Y2750D03*
X38200Y2750D03*
X39200Y3750D03*
X38200Y3750D03*
X39200Y4750D03*
X38200Y4750D03*
G54D16*
X16375Y6000D03*
X15625Y6000D03*
G54D17*
X12800Y5275D03*
X12800Y6025D03*
G54D18*
X17500Y6000D03*
X14500Y6000D03*
G54D17*
X10100Y3225D03*
X10100Y3975D03*
X18450Y5225D03*
X18450Y5975D03*
G54D19*
X20413Y750D03*
X19587Y750D03*
X20413Y5750D03*
X19587Y5750D03*
G54D20*
X15100Y2500D03*
X12200Y900D03*
X22220Y2000D03*
X18100Y2225D03*
X21480Y2560D03*
X18100Y2950D03*
X14075Y5175D03*
X11850Y2250D03*
X34320Y4500D03*
X23840Y4340D03*
X22260Y2780D03*
X16850Y3700D03*
X13650Y4900D03*
X6100Y1750D03*
X6600Y2900D03*
X14050Y2650D03*
X14000Y1200D03*
X19400Y1400D03*
X22220Y1500D03*
X18100Y1750D03*
X33300Y1380D03*
X16840Y2640D03*
X9100Y3200D03*
X5900Y2250D03*
X13850Y3550D03*
X6650Y3400D03*
X14050Y3100D03*
X21940Y1140D03*
X18350Y1350D03*
X27440Y680D03*
X33140Y640D03*
X21425Y1125D03*
X17400Y700D03*
X21720Y3300D03*
X13500Y4450D03*
X18300Y4160D03*
X19060Y5220D03*
X13550Y5650D03*
X17100Y4900D03*
X21150Y550D03*
X10750Y1600D03*
X4000Y4100D03*
X6400Y4350D03*
X4300Y500D03*
X5650Y500D03*
X7000Y500D03*
X8400Y450D03*
X9550Y500D03*
X6650Y1250D03*
X7950Y1250D03*
X9100Y1250D03*
X4450Y5650D03*
X5700Y5650D03*
X6950Y5650D03*
X8050Y5650D03*
X11400Y5650D03*
X10350Y5650D03*
X35500Y6000D03*
X33500Y6000D03*
X31500Y6000D03*
X29500Y6000D03*
X27500Y6000D03*
X25500Y6000D03*
X15470Y5150D03*
X25520Y980D03*
X24880Y1480D03*
X35700Y640D03*
X34080Y1180D03*
X30140Y1040D03*
X23060Y2080D03*
X24080Y3040D03*
X22400Y4560D03*
X22320Y5600D03*
X16775Y725D03*
X10900Y500D03*
X13200Y700D03*
X9900Y1800D03*
X17100Y5400D03*
X19000Y6000D03*
X9550Y4200D03*
X9200Y5650D03*
X9200Y4950D03*
G54D21*
X4827Y2384D02*
X4866Y2384D01*
X4866Y2384D02*
X6400Y850D01*
X6400Y850D02*
X6600Y850D01*
X14600Y2500D02*
X15100Y2500D01*
X6600Y850D02*
X6450Y850D01*
X12150Y850D02*
X6600Y850D01*
X12200Y900D02*
X12150Y850D01*
X14600Y1730D02*
X13380Y1730D01*
X12827Y2283D02*
X12827Y2384D01*
X13380Y1730D02*
X12827Y2283D01*
X19173Y4116D02*
X18700Y3643D01*
X18700Y3643D02*
X18700Y1100D01*
X18600Y1000D02*
X18300Y1000D01*
X18700Y1100D02*
X18600Y1000D01*
X17400Y1220D02*
X17480Y1220D01*
X17700Y1000D02*
X18300Y1000D01*
X17480Y1220D02*
X17700Y1000D01*
X24336Y4116D02*
X27173Y4116D01*
X22220Y2000D02*
X24336Y4116D01*
X17400Y1990D02*
X17865Y1990D01*
X17865Y1990D02*
X18100Y2225D01*
X23620Y4700D02*
X23640Y4700D01*
X21480Y2560D02*
X23620Y4700D01*
X33550Y4700D02*
X34075Y4175D01*
X23640Y4700D02*
X33550Y4700D01*
X17400Y2760D02*
X17910Y2760D01*
X34134Y4116D02*
X35173Y4116D01*
X34075Y4175D02*
X34134Y4116D01*
X17910Y2760D02*
X18100Y2950D01*
X13250Y5275D02*
X13975Y5275D01*
X14150Y5100D02*
X14150Y4432D01*
X13975Y5275D02*
X14075Y5175D01*
X14075Y5175D02*
X14150Y5100D01*
X12575Y5275D02*
X12800Y5275D01*
X11900Y4600D02*
X12575Y5275D01*
X11900Y2300D02*
X11900Y4600D01*
X11850Y2250D02*
X11900Y2300D01*
X14600Y4300D02*
X14282Y4300D01*
X14282Y4300D02*
X14150Y4432D01*
X13250Y5275D02*
X12800Y5275D01*
X38690Y4260D02*
X39200Y3750D01*
X37840Y4260D02*
X38690Y4260D01*
X37360Y4740D02*
X37840Y4260D01*
X34560Y4740D02*
X37360Y4740D01*
X34320Y4500D02*
X34560Y4740D01*
X23820Y4340D02*
X23840Y4340D01*
X22260Y2780D02*
X23820Y4340D01*
X17400Y3780D02*
X16930Y3780D01*
X16930Y3780D02*
X16850Y3700D01*
X9400Y1750D02*
X9450Y1750D01*
X10100Y1100D02*
X11600Y1100D01*
X9450Y1750D02*
X10100Y1100D01*
X11600Y1100D02*
X12250Y1750D01*
X12300Y1800D02*
X12300Y4600D01*
X12250Y1750D02*
X12300Y1800D01*
X12600Y4900D02*
X12300Y4600D01*
X14260Y4040D02*
X13900Y4400D01*
X13900Y4650D02*
X13650Y4900D01*
X13900Y4400D02*
X13900Y4650D01*
X13650Y4900D02*
X12600Y4900D01*
X14600Y4040D02*
X14260Y4040D01*
X6100Y1750D02*
X9400Y1750D01*
X14260Y4040D02*
X14600Y4040D01*
X14600Y2760D02*
X14160Y2760D01*
X6250Y3250D02*
X4827Y3250D01*
X6600Y2900D02*
X6250Y3250D01*
X14160Y2760D02*
X14050Y2650D01*
X12827Y3250D02*
X13100Y3250D01*
X13510Y1990D02*
X14600Y1990D01*
X13450Y2050D02*
X13510Y1990D01*
X13450Y2900D02*
X13450Y2050D01*
X13100Y3250D02*
X13450Y2900D01*
X19173Y3250D02*
X19450Y3250D01*
X14020Y1220D02*
X14600Y1220D01*
X14000Y1200D02*
X14020Y1220D01*
X19400Y1700D02*
X19400Y1400D01*
X19900Y2200D02*
X19400Y1700D01*
X19900Y2800D02*
X19900Y2200D01*
X19450Y3250D02*
X19900Y2800D01*
X23360Y1460D02*
X25150Y3250D01*
X22260Y1460D02*
X23360Y1460D01*
X22220Y1500D02*
X22260Y1460D01*
X27173Y3250D02*
X25150Y3250D01*
X18070Y1720D02*
X17400Y1720D01*
X18100Y1750D02*
X18070Y1720D01*
X35173Y3250D02*
X35170Y3250D01*
X35170Y3250D02*
X33300Y1380D01*
X17400Y2500D02*
X16960Y2500D01*
X16840Y2620D02*
X16840Y2640D01*
X16960Y2500D02*
X16840Y2620D01*
X9100Y3200D02*
X9100Y2800D01*
X6950Y2250D02*
X5900Y2250D01*
X14600Y3530D02*
X13870Y3530D01*
X8550Y2250D02*
X6950Y2250D01*
X9100Y2800D02*
X8550Y2250D01*
X13870Y3530D02*
X13850Y3550D01*
X14600Y3010D02*
X14140Y3010D01*
X5934Y4116D02*
X4827Y4116D01*
X6650Y3400D02*
X5934Y4116D01*
X14140Y3010D02*
X14050Y3100D01*
X14600Y2250D02*
X13700Y2250D01*
X13400Y3543D02*
X12827Y4116D01*
X13400Y3400D02*
X13400Y3543D01*
X13700Y3100D02*
X13400Y3400D01*
X13700Y2250D02*
X13700Y3100D01*
X13700Y2250D02*
X13700Y2250D01*
X15100Y800D02*
X15600Y300D01*
X18300Y300D02*
X19000Y1000D01*
X15600Y300D02*
X18300Y300D01*
X19173Y2384D02*
X19173Y1973D01*
X15020Y1480D02*
X14600Y1480D01*
X15100Y1400D02*
X15020Y1480D01*
X15100Y800D02*
X15100Y1400D01*
X19000Y1800D02*
X19000Y1000D01*
X19173Y1973D02*
X19000Y1800D01*
X23440Y1140D02*
X23636Y1140D01*
X23636Y1140D02*
X24880Y2384D01*
X21940Y1140D02*
X23440Y1140D01*
X17400Y1480D02*
X17870Y1480D01*
X24880Y2384D02*
X27173Y2384D01*
X18000Y1350D02*
X18350Y1350D01*
X17870Y1480D02*
X18000Y1350D01*
X35173Y2384D02*
X35173Y1467D01*
X34346Y640D02*
X33140Y640D01*
X35173Y1467D02*
X34346Y640D01*
X27440Y680D02*
X27435Y685D01*
X27435Y685D02*
X27440Y680D01*
X27440Y680D02*
X27440Y690D01*
X21425Y1125D02*
X21425Y1095D01*
X27330Y580D02*
X27440Y690D01*
X21940Y580D02*
X27330Y580D01*
X21425Y1095D02*
X21940Y580D01*
X17400Y2250D02*
X16975Y2250D01*
X17300Y700D02*
X17400Y700D01*
X16825Y1175D02*
X17300Y700D01*
X16825Y2100D02*
X16825Y1175D01*
X16975Y2250D02*
X16825Y2100D01*
X23680Y5260D02*
X23680Y5300D01*
X21720Y3300D02*
X23680Y5260D01*
X38650Y5300D02*
X39200Y4750D01*
X23680Y5300D02*
X38650Y5300D01*
X14600Y3780D02*
X14170Y3780D01*
X14170Y3780D02*
X13500Y4450D01*
X14150Y3800D02*
X13500Y4450D01*
X14600Y3780D02*
X14170Y3780D01*
X17400Y3530D02*
X17730Y3530D01*
X17730Y3530D02*
X18300Y4100D01*
X18300Y4100D02*
X18300Y4160D01*
X18450Y5225D02*
X19055Y5225D01*
X19055Y5225D02*
X19060Y5220D01*
X17400Y4550D02*
X17400Y4600D01*
X13175Y6025D02*
X12800Y6025D01*
X13550Y5650D02*
X13175Y6025D01*
X17400Y4600D02*
X17100Y4900D01*
X17400Y4550D02*
X16900Y4550D01*
X16910Y4040D02*
X17400Y4040D01*
X16900Y4050D02*
X16910Y4040D01*
X16900Y4550D02*
X16900Y4050D01*
G54D22*
X750Y3750D02*
X900Y3750D01*
X900Y3750D02*
X1400Y4250D01*
X1400Y4250D02*
X2300Y4250D01*
X2300Y4250D02*
X4075Y6025D01*
X4075Y6025D02*
X12800Y6025D01*
X28820Y280D02*
X28820Y2377D01*
X28820Y2377D02*
X28827Y2384D01*
X21150Y550D02*
X21150Y510D01*
X34723Y280D02*
X36827Y2384D01*
X21380Y280D02*
X28820Y280D01*
X28820Y280D02*
X34723Y280D01*
X21150Y510D02*
X21380Y280D01*
X11173Y2384D02*
X11173Y2023D01*
X20950Y750D02*
X20413Y750D01*
X21150Y550D02*
X20950Y750D01*
X11173Y2023D02*
X10750Y1600D01*
X11173Y4116D02*
X11134Y4116D01*
X11134Y4116D02*
X10700Y4550D01*
X3984Y4116D02*
X3173Y4116D01*
X4000Y4100D02*
X3984Y4116D01*
X6600Y4550D02*
X6400Y4350D01*
X10700Y4550D02*
X6600Y4550D01*
G54D21*
X11173Y3250D02*
X10125Y3250D01*
X10125Y3250D02*
X10100Y3225D01*
G54D22*
X36827Y4116D02*
X36827Y3250D01*
X36827Y3250D02*
X36827Y2384D01*
X38200Y2750D02*
X37193Y2750D01*
X37193Y2750D02*
X36827Y2384D01*
X28827Y4116D02*
X28827Y3250D01*
X28827Y3250D02*
X28827Y2384D01*
X20413Y5750D02*
X20413Y4530D01*
X20413Y4530D02*
X20827Y4116D01*
X20413Y750D02*
X20413Y1970D01*
X20413Y1970D02*
X20827Y2384D01*
X20827Y2384D02*
X20827Y3250D01*
X20827Y3250D02*
X20827Y4116D01*
X3173Y2384D02*
X2534Y2384D01*
X1250Y2250D02*
X750Y2750D01*
G54D21*
X2400Y2250D02*
X1250Y2250D01*
G54D22*
X2534Y2384D02*
X2400Y2250D01*
X3173Y4116D02*
X3173Y3250D01*
X3173Y3250D02*
X3173Y2384D01*
X11173Y4116D02*
X11173Y3250D01*
X11173Y3250D02*
X11173Y2384D01*
G54D21*
X18100Y3425D02*
X18105Y3425D01*
X18880Y4720D02*
X20080Y4720D01*
X18640Y4480D02*
X18880Y4720D01*
X18640Y3960D02*
X18640Y4480D01*
X18105Y3425D02*
X18640Y3960D01*
X17400Y3010D02*
X17685Y3010D01*
X17685Y3010D02*
X18100Y3425D01*
X19587Y5750D02*
X19587Y5213D01*
X19587Y5213D02*
X20080Y4720D01*
X19900Y1063D02*
X19587Y750D01*
X19900Y1800D02*
X19900Y1063D01*
X20192Y2092D02*
X19900Y1800D01*
X20192Y3307D02*
X20192Y2092D01*
X20100Y3400D02*
X20192Y3307D01*
X20100Y4700D02*
X20100Y3400D01*
X20080Y4720D02*
X20100Y4700D01*
X10900Y500D02*
X9550Y500D01*
X5650Y500D02*
X4300Y500D01*
X8350Y500D02*
X7000Y500D01*
X8400Y450D02*
X8350Y500D01*
X9100Y1250D02*
X7950Y1250D01*
X9200Y5650D02*
X8050Y5650D01*
X6950Y5650D02*
X5700Y5650D01*
X9200Y5650D02*
X10350Y5650D01*
X14600Y5180D02*
X15470Y5150D01*
X25020Y1480D02*
X25520Y980D01*
X24880Y1480D02*
X25020Y1480D01*
X35700Y640D02*
X35720Y640D01*
X33900Y1000D02*
X34080Y1180D01*
X33060Y1000D02*
X33900Y1000D01*
X33000Y1060D02*
X33060Y1000D01*
X30160Y1060D02*
X33000Y1060D01*
X30140Y1040D02*
X30160Y1060D01*
X23120Y2080D02*
X23060Y2080D01*
X24080Y3040D02*
X23120Y2080D01*
X22400Y5520D02*
X22400Y4560D01*
X22320Y5600D02*
X22400Y5520D01*
X16000Y2900D02*
X16000Y1800D01*
X16000Y1800D02*
X16775Y725D01*
X10900Y500D02*
X12400Y500D01*
X12400Y500D02*
X12600Y700D01*
X12600Y700D02*
X13200Y700D01*
X9550Y4200D02*
X9550Y2150D01*
X9550Y2150D02*
X9900Y1800D01*
X16900Y5200D02*
X17100Y5400D01*
X16000Y5200D02*
X16900Y5200D01*
X18975Y5975D02*
X18450Y5975D01*
X19000Y6000D02*
X18975Y5975D01*
X15625Y6000D02*
X15625Y5575D01*
X16000Y5200D02*
X16000Y2900D01*
X15625Y5575D02*
X16000Y5200D01*
X10100Y3975D02*
X9775Y3975D01*
X9775Y3975D02*
X9550Y4200D01*
X14600Y4550D02*
X14600Y5180D01*
X14600Y5180D02*
X14600Y5900D01*
X14600Y5900D02*
X14500Y6000D01*
X9200Y4950D02*
X9200Y5650D01*
X15625Y6000D02*
X14500Y6000D01*
X14600Y4550D02*
X15300Y4550D01*
X15300Y4550D02*
X16000Y3850D01*
X16000Y3850D02*
X16000Y2900D01*
X14600Y3270D02*
X15130Y3270D01*
X15130Y3270D02*
X15500Y2900D01*
X15500Y2900D02*
X16000Y2900D01*
X17500Y6000D02*
X17500Y5150D01*
X17900Y4300D02*
X17400Y4300D01*
X17950Y4350D02*
X17900Y4300D01*
X17950Y4700D02*
X17950Y4350D01*
X17500Y5150D02*
X17950Y4700D01*
X16375Y6000D02*
X17500Y6000D01*
G54D10*
G36*
X3772Y6175D02*
X2299Y4702D01*
X2300Y4858D01*
X2216Y5061D01*
X2061Y5215D01*
X1859Y5299D01*
X1641Y5300D01*
X1438Y5216D01*
X1284Y5061D01*
X1200Y4859D01*
X1199Y4641D01*
X1247Y4525D01*
X1173Y4476D01*
X957Y4259D01*
X859Y4299D01*
X641Y4300D01*
X438Y4216D01*
X425Y4202D01*
X425Y5365D01*
X1234Y6175D01*
X3772Y6175D01*
X3772Y6175D01*
G37*
G54D21*
X3772Y6175D02*
X2299Y4702D01*
X2300Y4858D01*
X2216Y5061D01*
X2061Y5215D01*
X1859Y5299D01*
X1641Y5300D01*
X1438Y5216D01*
X1284Y5061D01*
X1200Y4859D01*
X1199Y4641D01*
X1247Y4525D01*
X1173Y4476D01*
X957Y4259D01*
X859Y4299D01*
X641Y4300D01*
X438Y4216D01*
X425Y4202D01*
X425Y5365D01*
X1234Y6175D01*
X3772Y6175D01*
G54D10*
G36*
X9625Y1150D02*
X6600Y1150D01*
X6524Y1150D01*
X6301Y1373D01*
X6340Y1389D01*
X6401Y1450D01*
X9325Y1450D01*
X9625Y1150D01*
X9625Y1150D01*
G37*
G54D21*
X9625Y1150D02*
X6600Y1150D01*
X6524Y1150D01*
X6301Y1373D01*
X6340Y1389D01*
X6401Y1450D01*
X9325Y1450D01*
X9625Y1150D01*
G54D10*
G36*
X10644Y2816D02*
X10608Y2729D01*
X10607Y2629D01*
X10607Y2038D01*
X10621Y2006D01*
X10509Y1960D01*
X10389Y1841D01*
X10325Y1684D01*
X10324Y1515D01*
X10372Y1400D01*
X10224Y1400D01*
X9662Y1962D01*
X9564Y2027D01*
X9450Y2050D01*
X9400Y2050D01*
X8774Y2050D01*
X9312Y2587D01*
X9312Y2587D01*
X9377Y2685D01*
X9399Y2800D01*
X9400Y2800D01*
X9400Y2898D01*
X9460Y2958D01*
X9524Y3115D01*
X9525Y3284D01*
X9460Y3440D01*
X9341Y3560D01*
X9184Y3624D01*
X9015Y3625D01*
X8859Y3560D01*
X8849Y3550D01*
X8763Y3759D01*
X8510Y4012D01*
X8179Y4149D01*
X7821Y4150D01*
X7490Y4013D01*
X7237Y3760D01*
X7100Y3429D01*
X7099Y3071D01*
X7236Y2740D01*
X7427Y2550D01*
X6950Y2550D01*
X6850Y2550D01*
X6960Y2658D01*
X7024Y2815D01*
X7025Y2984D01*
X6969Y3118D01*
X7010Y3158D01*
X7074Y3315D01*
X7075Y3484D01*
X7010Y3640D01*
X6891Y3760D01*
X6734Y3824D01*
X6649Y3825D01*
X6530Y3943D01*
X6640Y3989D01*
X6760Y4108D01*
X6810Y4230D01*
X10567Y4230D01*
X10607Y4189D01*
X10607Y3770D01*
X10644Y3682D01*
X10608Y3595D01*
X10608Y3550D01*
X10578Y3550D01*
X10516Y3611D01*
X10424Y3649D01*
X10325Y3650D01*
X9775Y3650D01*
X9683Y3612D01*
X9613Y3541D01*
X9575Y3449D01*
X9574Y3350D01*
X9574Y3000D01*
X9612Y2908D01*
X9683Y2838D01*
X9775Y2800D01*
X9874Y2799D01*
X10424Y2799D01*
X10516Y2837D01*
X10586Y2908D01*
X10604Y2950D01*
X10607Y2950D01*
X10607Y2904D01*
X10644Y2816D01*
X10644Y2816D01*
G37*
G54D21*
X10644Y2816D02*
X10608Y2729D01*
X10607Y2629D01*
X10607Y2038D01*
X10621Y2006D01*
X10509Y1960D01*
X10389Y1841D01*
X10325Y1684D01*
X10324Y1515D01*
X10372Y1400D01*
X10224Y1400D01*
X9662Y1962D01*
X9564Y2027D01*
X9450Y2050D01*
X9400Y2050D01*
X8774Y2050D01*
X9312Y2587D01*
X9312Y2587D01*
X9377Y2685D01*
X9399Y2800D01*
X9400Y2800D01*
X9400Y2898D01*
X9460Y2958D01*
X9524Y3115D01*
X9525Y3284D01*
X9460Y3440D01*
X9341Y3560D01*
X9184Y3624D01*
X9015Y3625D01*
X8859Y3560D01*
X8849Y3550D01*
X8763Y3759D01*
X8510Y4012D01*
X8179Y4149D01*
X7821Y4150D01*
X7490Y4013D01*
X7237Y3760D01*
X7100Y3429D01*
X7099Y3071D01*
X7236Y2740D01*
X7427Y2550D01*
X6950Y2550D01*
X6850Y2550D01*
X6960Y2658D01*
X7024Y2815D01*
X7025Y2984D01*
X6969Y3118D01*
X7010Y3158D01*
X7074Y3315D01*
X7075Y3484D01*
X7010Y3640D01*
X6891Y3760D01*
X6734Y3824D01*
X6649Y3825D01*
X6530Y3943D01*
X6640Y3989D01*
X6760Y4108D01*
X6810Y4230D01*
X10567Y4230D01*
X10607Y4189D01*
X10607Y3770D01*
X10644Y3682D01*
X10608Y3595D01*
X10608Y3550D01*
X10578Y3550D01*
X10516Y3611D01*
X10424Y3649D01*
X10325Y3650D01*
X9775Y3650D01*
X9683Y3612D01*
X9613Y3541D01*
X9575Y3449D01*
X9574Y3350D01*
X9574Y3000D01*
X9612Y2908D01*
X9683Y2838D01*
X9775Y2800D01*
X9874Y2799D01*
X10424Y2799D01*
X10516Y2837D01*
X10586Y2908D01*
X10604Y2950D01*
X10607Y2950D01*
X10607Y2904D01*
X10644Y2816D01*
G54D10*
G36*
X12371Y5649D02*
X12313Y5591D01*
X12275Y5499D01*
X12274Y5400D01*
X12274Y5399D01*
X11687Y4812D01*
X11622Y4714D01*
X11606Y4632D01*
X11537Y4661D01*
X11438Y4661D01*
X11041Y4661D01*
X10926Y4776D01*
X10822Y4845D01*
X10700Y4870D01*
X6600Y4870D01*
X6477Y4845D01*
X6373Y4776D01*
X6372Y4775D01*
X6315Y4775D01*
X6159Y4710D01*
X6039Y4591D01*
X5975Y4434D01*
X5975Y4407D01*
X5934Y4416D01*
X5392Y4416D01*
X5392Y4461D01*
X5354Y4552D01*
X5283Y4623D01*
X5191Y4661D01*
X5092Y4661D01*
X4462Y4661D01*
X4370Y4623D01*
X4300Y4553D01*
X4262Y4461D01*
X4262Y4439D01*
X4241Y4460D01*
X4084Y4524D01*
X3915Y4525D01*
X3759Y4460D01*
X3738Y4439D01*
X3738Y4461D01*
X3700Y4552D01*
X3629Y4623D01*
X3537Y4661D01*
X3438Y4661D01*
X3164Y4661D01*
X4207Y5705D01*
X12316Y5705D01*
X12371Y5649D01*
X12371Y5649D01*
G37*
G54D21*
X12371Y5649D02*
X12313Y5591D01*
X12275Y5499D01*
X12274Y5400D01*
X12274Y5399D01*
X11687Y4812D01*
X11622Y4714D01*
X11606Y4632D01*
X11537Y4661D01*
X11438Y4661D01*
X11041Y4661D01*
X10926Y4776D01*
X10822Y4845D01*
X10700Y4870D01*
X6600Y4870D01*
X6477Y4845D01*
X6373Y4776D01*
X6372Y4775D01*
X6315Y4775D01*
X6159Y4710D01*
X6039Y4591D01*
X5975Y4434D01*
X5975Y4407D01*
X5934Y4416D01*
X5392Y4416D01*
X5392Y4461D01*
X5354Y4552D01*
X5283Y4623D01*
X5191Y4661D01*
X5092Y4661D01*
X4462Y4661D01*
X4370Y4623D01*
X4300Y4553D01*
X4262Y4461D01*
X4262Y4439D01*
X4241Y4460D01*
X4084Y4524D01*
X3915Y4525D01*
X3759Y4460D01*
X3738Y4439D01*
X3738Y4461D01*
X3700Y4552D01*
X3629Y4623D01*
X3537Y4661D01*
X3438Y4661D01*
X3164Y4661D01*
X4207Y5705D01*
X12316Y5705D01*
X12371Y5649D01*
G54D10*
G36*
X15150Y325D02*
X1234Y325D01*
X425Y1134D01*
X425Y1297D01*
X438Y1284D01*
X640Y1200D01*
X858Y1199D01*
X1061Y1283D01*
X1199Y1422D01*
X1199Y1400D01*
X1237Y1308D01*
X1308Y1238D01*
X1400Y1200D01*
X1499Y1199D01*
X2099Y1199D01*
X2191Y1237D01*
X2261Y1308D01*
X2299Y1400D01*
X2300Y1499D01*
X2300Y1949D01*
X2400Y1930D01*
X2522Y1954D01*
X2616Y2017D01*
X2645Y1947D01*
X2716Y1876D01*
X2808Y1838D01*
X2907Y1838D01*
X3537Y1838D01*
X3629Y1876D01*
X3699Y1946D01*
X3737Y2038D01*
X3738Y2138D01*
X3738Y2729D01*
X3701Y2817D01*
X3737Y2904D01*
X3738Y3004D01*
X3738Y3595D01*
X3701Y3683D01*
X3735Y3763D01*
X3758Y3739D01*
X3915Y3675D01*
X4084Y3674D01*
X4240Y3739D01*
X4264Y3763D01*
X4298Y3682D01*
X4262Y3595D01*
X4261Y3495D01*
X4261Y2904D01*
X4298Y2816D01*
X4262Y2729D01*
X4261Y2629D01*
X4261Y2038D01*
X4299Y1947D01*
X4370Y1876D01*
X4462Y1838D01*
X4561Y1838D01*
X4987Y1838D01*
X6187Y637D01*
X6285Y572D01*
X6400Y550D01*
X6450Y550D01*
X6600Y550D01*
X11948Y550D01*
X11958Y539D01*
X12115Y475D01*
X12284Y474D01*
X12440Y539D01*
X12560Y658D01*
X12624Y815D01*
X12625Y984D01*
X12560Y1140D01*
X12441Y1260D01*
X12284Y1324D01*
X12249Y1324D01*
X12462Y1537D01*
X12462Y1537D01*
X12462Y1537D01*
X12512Y1587D01*
X12577Y1685D01*
X12599Y1800D01*
X12600Y1800D01*
X12600Y1838D01*
X12847Y1838D01*
X13167Y1517D01*
X13167Y1517D01*
X13265Y1452D01*
X13380Y1430D01*
X13635Y1430D01*
X13575Y1284D01*
X13574Y1115D01*
X13639Y959D01*
X13758Y839D01*
X13915Y775D01*
X14084Y774D01*
X14240Y839D01*
X14293Y892D01*
X14300Y890D01*
X14399Y889D01*
X14800Y889D01*
X14800Y800D01*
X14822Y685D01*
X14887Y587D01*
X15150Y325D01*
X15150Y325D01*
G37*
G54D21*
X15150Y325D02*
X1234Y325D01*
X425Y1134D01*
X425Y1297D01*
X438Y1284D01*
X640Y1200D01*
X858Y1199D01*
X1061Y1283D01*
X1199Y1422D01*
X1199Y1400D01*
X1237Y1308D01*
X1308Y1238D01*
X1400Y1200D01*
X1499Y1199D01*
X2099Y1199D01*
X2191Y1237D01*
X2261Y1308D01*
X2299Y1400D01*
X2300Y1499D01*
X2300Y1949D01*
X2400Y1930D01*
X2522Y1954D01*
X2616Y2017D01*
X2645Y1947D01*
X2716Y1876D01*
X2808Y1838D01*
X2907Y1838D01*
X3537Y1838D01*
X3629Y1876D01*
X3699Y1946D01*
X3737Y2038D01*
X3738Y2138D01*
X3738Y2729D01*
X3701Y2817D01*
X3737Y2904D01*
X3738Y3004D01*
X3738Y3595D01*
X3701Y3683D01*
X3735Y3763D01*
X3758Y3739D01*
X3915Y3675D01*
X4084Y3674D01*
X4240Y3739D01*
X4264Y3763D01*
X4298Y3682D01*
X4262Y3595D01*
X4261Y3495D01*
X4261Y2904D01*
X4298Y2816D01*
X4262Y2729D01*
X4261Y2629D01*
X4261Y2038D01*
X4299Y1947D01*
X4370Y1876D01*
X4462Y1838D01*
X4561Y1838D01*
X4987Y1838D01*
X6187Y637D01*
X6285Y572D01*
X6400Y550D01*
X6450Y550D01*
X6600Y550D01*
X11948Y550D01*
X11958Y539D01*
X12115Y475D01*
X12284Y474D01*
X12440Y539D01*
X12560Y658D01*
X12624Y815D01*
X12625Y984D01*
X12560Y1140D01*
X12441Y1260D01*
X12284Y1324D01*
X12249Y1324D01*
X12462Y1537D01*
X12462Y1537D01*
X12462Y1537D01*
X12512Y1587D01*
X12577Y1685D01*
X12599Y1800D01*
X12600Y1800D01*
X12600Y1838D01*
X12847Y1838D01*
X13167Y1517D01*
X13167Y1517D01*
X13265Y1452D01*
X13380Y1430D01*
X13635Y1430D01*
X13575Y1284D01*
X13574Y1115D01*
X13639Y959D01*
X13758Y839D01*
X13915Y775D01*
X14084Y774D01*
X14240Y839D01*
X14293Y892D01*
X14300Y890D01*
X14399Y889D01*
X14800Y889D01*
X14800Y800D01*
X14822Y685D01*
X14887Y587D01*
X15150Y325D01*
G54D10*
G36*
X17200Y5318D02*
X17184Y5324D01*
X17015Y5325D01*
X16859Y5260D01*
X16739Y5141D01*
X16675Y4984D01*
X16674Y4815D01*
X16695Y4766D01*
X16687Y4762D01*
X16622Y4664D01*
X16600Y4550D01*
X16600Y4050D01*
X16489Y3941D01*
X16425Y3784D01*
X16424Y3615D01*
X16489Y3459D01*
X16608Y3339D01*
X16765Y3275D01*
X16899Y3274D01*
X16899Y3140D01*
X16900Y3140D01*
X16900Y3139D01*
X16899Y3064D01*
X16755Y3065D01*
X16599Y3000D01*
X16479Y2881D01*
X16415Y2724D01*
X16414Y2555D01*
X16479Y2399D01*
X16594Y2284D01*
X16547Y2214D01*
X16525Y2100D01*
X16525Y1175D01*
X16547Y1060D01*
X16612Y962D01*
X16975Y600D01*
X15724Y600D01*
X15400Y924D01*
X15400Y1400D01*
X15377Y1514D01*
X15312Y1612D01*
X15312Y1612D01*
X15232Y1692D01*
X15134Y1757D01*
X15100Y1764D01*
X15100Y1764D01*
X15100Y1859D01*
X15099Y1859D01*
X15099Y1860D01*
X15100Y1959D01*
X15100Y2075D01*
X15184Y2074D01*
X15340Y2139D01*
X15460Y2258D01*
X15524Y2415D01*
X15525Y2584D01*
X15460Y2740D01*
X15341Y2860D01*
X15184Y2924D01*
X15099Y2925D01*
X15100Y2979D01*
X15100Y3139D01*
X15062Y3231D01*
X15023Y3270D01*
X15061Y3308D01*
X15099Y3400D01*
X15100Y3499D01*
X15100Y3659D01*
X15099Y3659D01*
X15100Y3749D01*
X15100Y3909D01*
X15099Y3909D01*
X15099Y3910D01*
X15100Y4009D01*
X15100Y4169D01*
X15099Y4169D01*
X15099Y4170D01*
X15100Y4269D01*
X15100Y4429D01*
X15062Y4521D01*
X14991Y4591D01*
X14899Y4629D01*
X14800Y4630D01*
X14450Y4630D01*
X14450Y4969D01*
X14499Y5090D01*
X14500Y5259D01*
X14435Y5415D01*
X14316Y5535D01*
X14159Y5599D01*
X13990Y5600D01*
X13974Y5593D01*
X13975Y5734D01*
X13910Y5890D01*
X13791Y6010D01*
X13634Y6074D01*
X13549Y6075D01*
X13449Y6175D01*
X15949Y6175D01*
X15949Y5675D01*
X15987Y5583D01*
X16058Y5513D01*
X16150Y5475D01*
X16249Y5474D01*
X16599Y5474D01*
X16691Y5512D01*
X16761Y5583D01*
X16799Y5675D01*
X16799Y5700D01*
X17057Y5700D01*
X17200Y5557D01*
X17200Y5318D01*
X17200Y5318D01*
G37*
G54D21*
X17200Y5318D02*
X17184Y5324D01*
X17015Y5325D01*
X16859Y5260D01*
X16739Y5141D01*
X16675Y4984D01*
X16674Y4815D01*
X16695Y4766D01*
X16687Y4762D01*
X16622Y4664D01*
X16600Y4550D01*
X16600Y4050D01*
X16489Y3941D01*
X16425Y3784D01*
X16424Y3615D01*
X16489Y3459D01*
X16608Y3339D01*
X16765Y3275D01*
X16899Y3274D01*
X16899Y3140D01*
X16900Y3140D01*
X16900Y3139D01*
X16899Y3064D01*
X16755Y3065D01*
X16599Y3000D01*
X16479Y2881D01*
X16415Y2724D01*
X16414Y2555D01*
X16479Y2399D01*
X16594Y2284D01*
X16547Y2214D01*
X16525Y2100D01*
X16525Y1175D01*
X16547Y1060D01*
X16612Y962D01*
X16975Y600D01*
X15724Y600D01*
X15400Y924D01*
X15400Y1400D01*
X15377Y1514D01*
X15312Y1612D01*
X15312Y1612D01*
X15232Y1692D01*
X15134Y1757D01*
X15100Y1764D01*
X15100Y1764D01*
X15100Y1859D01*
X15099Y1859D01*
X15099Y1860D01*
X15100Y1959D01*
X15100Y2075D01*
X15184Y2074D01*
X15340Y2139D01*
X15460Y2258D01*
X15524Y2415D01*
X15525Y2584D01*
X15460Y2740D01*
X15341Y2860D01*
X15184Y2924D01*
X15099Y2925D01*
X15100Y2979D01*
X15100Y3139D01*
X15062Y3231D01*
X15023Y3270D01*
X15061Y3308D01*
X15099Y3400D01*
X15100Y3499D01*
X15100Y3659D01*
X15099Y3659D01*
X15100Y3749D01*
X15100Y3909D01*
X15099Y3909D01*
X15099Y3910D01*
X15100Y4009D01*
X15100Y4169D01*
X15099Y4169D01*
X15099Y4170D01*
X15100Y4269D01*
X15100Y4429D01*
X15062Y4521D01*
X14991Y4591D01*
X14899Y4629D01*
X14800Y4630D01*
X14450Y4630D01*
X14450Y4969D01*
X14499Y5090D01*
X14500Y5259D01*
X14435Y5415D01*
X14316Y5535D01*
X14159Y5599D01*
X13990Y5600D01*
X13974Y5593D01*
X13975Y5734D01*
X13910Y5890D01*
X13791Y6010D01*
X13634Y6074D01*
X13549Y6075D01*
X13449Y6175D01*
X15949Y6175D01*
X15949Y5675D01*
X15987Y5583D01*
X16058Y5513D01*
X16150Y5475D01*
X16249Y5474D01*
X16599Y5474D01*
X16691Y5512D01*
X16761Y5583D01*
X16799Y5675D01*
X16799Y5700D01*
X17057Y5700D01*
X17200Y5557D01*
X17200Y5318D01*
G54D10*
G36*
X19186Y6175D02*
X19139Y6127D01*
X19101Y6035D01*
X19100Y5936D01*
X19100Y5644D01*
X18975Y5645D01*
X18875Y5603D01*
X18866Y5611D01*
X18774Y5649D01*
X18675Y5650D01*
X18125Y5650D01*
X18033Y5612D01*
X17963Y5541D01*
X17925Y5449D01*
X17924Y5350D01*
X17924Y5149D01*
X17800Y5274D01*
X17800Y5557D01*
X17944Y5702D01*
X18024Y5895D01*
X18025Y6103D01*
X17995Y6175D01*
X19186Y6175D01*
X19186Y6175D01*
G37*
G54D21*
X19186Y6175D02*
X19139Y6127D01*
X19101Y6035D01*
X19100Y5936D01*
X19100Y5644D01*
X18975Y5645D01*
X18875Y5603D01*
X18866Y5611D01*
X18774Y5649D01*
X18675Y5650D01*
X18125Y5650D01*
X18033Y5612D01*
X17963Y5541D01*
X17925Y5449D01*
X17924Y5350D01*
X17924Y5149D01*
X17800Y5274D01*
X17800Y5557D01*
X17944Y5702D01*
X18024Y5895D01*
X18025Y6103D01*
X17995Y6175D01*
X19186Y6175D01*
G54D10*
G36*
X26644Y3682D02*
X26608Y3595D01*
X26608Y3550D01*
X25150Y3550D01*
X25035Y3527D01*
X24937Y3462D01*
X23235Y1760D01*
X22580Y1760D01*
X22644Y1915D01*
X22645Y2000D01*
X24460Y3816D01*
X26607Y3816D01*
X26607Y3770D01*
X26644Y3682D01*
X26644Y3682D01*
G37*
G54D21*
X26644Y3682D02*
X26608Y3595D01*
X26608Y3550D01*
X25150Y3550D01*
X25035Y3527D01*
X24937Y3462D01*
X23235Y1760D01*
X22580Y1760D01*
X22644Y1915D01*
X22645Y2000D01*
X24460Y3816D01*
X26607Y3816D01*
X26607Y3770D01*
X26644Y3682D01*
G54D10*
G36*
X28500Y600D02*
X27864Y600D01*
X27865Y764D01*
X27800Y920D01*
X27681Y1040D01*
X27524Y1104D01*
X27355Y1105D01*
X27199Y1040D01*
X27079Y921D01*
X27062Y880D01*
X23776Y880D01*
X23848Y927D01*
X25004Y2084D01*
X26607Y2084D01*
X26607Y2038D01*
X26645Y1947D01*
X26716Y1876D01*
X26808Y1838D01*
X26907Y1838D01*
X27537Y1838D01*
X27629Y1876D01*
X27699Y1946D01*
X27737Y2038D01*
X27738Y2138D01*
X27738Y2729D01*
X27701Y2817D01*
X27737Y2904D01*
X27738Y3004D01*
X27738Y3595D01*
X27701Y3683D01*
X27737Y3770D01*
X27738Y3870D01*
X27738Y4400D01*
X28261Y4400D01*
X28261Y4361D01*
X28261Y3770D01*
X28298Y3682D01*
X28262Y3595D01*
X28261Y3495D01*
X28261Y2904D01*
X28298Y2816D01*
X28262Y2729D01*
X28261Y2629D01*
X28261Y2038D01*
X28299Y1947D01*
X28370Y1876D01*
X28462Y1838D01*
X28500Y1838D01*
X28500Y600D01*
X28500Y600D01*
G37*
G54D21*
X28500Y600D02*
X27864Y600D01*
X27865Y764D01*
X27800Y920D01*
X27681Y1040D01*
X27524Y1104D01*
X27355Y1105D01*
X27199Y1040D01*
X27079Y921D01*
X27062Y880D01*
X23776Y880D01*
X23848Y927D01*
X25004Y2084D01*
X26607Y2084D01*
X26607Y2038D01*
X26645Y1947D01*
X26716Y1876D01*
X26808Y1838D01*
X26907Y1838D01*
X27537Y1838D01*
X27629Y1876D01*
X27699Y1946D01*
X27737Y2038D01*
X27738Y2138D01*
X27738Y2729D01*
X27701Y2817D01*
X27737Y2904D01*
X27738Y3004D01*
X27738Y3595D01*
X27701Y3683D01*
X27737Y3770D01*
X27738Y3870D01*
X27738Y4400D01*
X28261Y4400D01*
X28261Y4361D01*
X28261Y3770D01*
X28298Y3682D01*
X28262Y3595D01*
X28261Y3495D01*
X28261Y2904D01*
X28298Y2816D01*
X28262Y2729D01*
X28261Y2629D01*
X28261Y2038D01*
X28299Y1947D01*
X28370Y1876D01*
X28462Y1838D01*
X28500Y1838D01*
X28500Y600D01*
G54D10*
G36*
X34644Y3682D02*
X34608Y3595D01*
X34607Y3495D01*
X34607Y3112D01*
X33300Y1805D01*
X33215Y1805D01*
X33059Y1740D01*
X32939Y1621D01*
X32900Y1525D01*
X32900Y3428D01*
X32763Y3759D01*
X32510Y4012D01*
X32179Y4149D01*
X31821Y4150D01*
X31490Y4013D01*
X31237Y3760D01*
X31100Y3429D01*
X31099Y3071D01*
X31236Y2740D01*
X31489Y2487D01*
X31820Y2350D01*
X32178Y2349D01*
X32509Y2486D01*
X32762Y2739D01*
X32899Y3070D01*
X32900Y3428D01*
X32900Y1525D01*
X32875Y1464D01*
X32874Y1295D01*
X32939Y1139D01*
X33026Y1052D01*
X32899Y1000D01*
X32779Y881D01*
X32715Y724D01*
X32714Y600D01*
X29140Y600D01*
X29140Y1838D01*
X29191Y1838D01*
X29283Y1876D01*
X29353Y1946D01*
X29391Y2038D01*
X29392Y2138D01*
X29392Y2729D01*
X29355Y2817D01*
X29391Y2904D01*
X29392Y3004D01*
X29392Y3595D01*
X29355Y3683D01*
X29391Y3770D01*
X29392Y3870D01*
X29392Y4400D01*
X33425Y4400D01*
X33862Y3962D01*
X33862Y3962D01*
X33862Y3962D01*
X33921Y3903D01*
X34019Y3838D01*
X34134Y3816D01*
X34607Y3816D01*
X34607Y3770D01*
X34644Y3682D01*
X34644Y3682D01*
G37*
G54D21*
X34644Y3682D02*
X34608Y3595D01*
X34607Y3495D01*
X34607Y3112D01*
X33300Y1805D01*
X33215Y1805D01*
X33059Y1740D01*
X32939Y1621D01*
X32900Y1525D01*
X32900Y3428D01*
X32763Y3759D01*
X32510Y4012D01*
X32179Y4149D01*
X31821Y4150D01*
X31490Y4013D01*
X31237Y3760D01*
X31100Y3429D01*
X31099Y3071D01*
X31236Y2740D01*
X31489Y2487D01*
X31820Y2350D01*
X32178Y2349D01*
X32509Y2486D01*
X32762Y2739D01*
X32899Y3070D01*
X32900Y3428D01*
X32900Y1525D01*
X32875Y1464D01*
X32874Y1295D01*
X32939Y1139D01*
X33026Y1052D01*
X32899Y1000D01*
X32779Y881D01*
X32715Y724D01*
X32714Y600D01*
X29140Y600D01*
X29140Y1838D01*
X29191Y1838D01*
X29283Y1876D01*
X29353Y1946D01*
X29391Y2038D01*
X29392Y2138D01*
X29392Y2729D01*
X29355Y2817D01*
X29391Y2904D01*
X29392Y3004D01*
X29392Y3595D01*
X29355Y3683D01*
X29391Y3770D01*
X29392Y3870D01*
X29392Y4400D01*
X33425Y4400D01*
X33862Y3962D01*
X33862Y3962D01*
X33862Y3962D01*
X33921Y3903D01*
X34019Y3838D01*
X34134Y3816D01*
X34607Y3816D01*
X34607Y3770D01*
X34644Y3682D01*
G54D10*
G36*
X34873Y1591D02*
X34221Y940D01*
X33441Y940D01*
X33413Y967D01*
X33540Y1019D01*
X33660Y1138D01*
X33724Y1295D01*
X33725Y1380D01*
X34607Y2263D01*
X34607Y2038D01*
X34645Y1947D01*
X34716Y1876D01*
X34808Y1838D01*
X34873Y1838D01*
X34873Y1591D01*
X34873Y1591D01*
G37*
G54D21*
X34873Y1591D02*
X34221Y940D01*
X33441Y940D01*
X33413Y967D01*
X33540Y1019D01*
X33660Y1138D01*
X33724Y1295D01*
X33725Y1380D01*
X34607Y2263D01*
X34607Y2038D01*
X34645Y1947D01*
X34716Y1876D01*
X34808Y1838D01*
X34873Y1838D01*
X34873Y1591D01*
G54D10*
G36*
X38683Y4560D02*
X37964Y4560D01*
X37572Y4952D01*
X37500Y5000D01*
X38525Y5000D01*
X38654Y4871D01*
X38650Y4859D01*
X38649Y4641D01*
X38683Y4560D01*
X38683Y4560D01*
G37*
G54D21*
X38683Y4560D02*
X37964Y4560D01*
X37572Y4952D01*
X37500Y5000D01*
X38525Y5000D01*
X38654Y4871D01*
X38650Y4859D01*
X38649Y4641D01*
X38683Y4560D01*
G54D10*
G36*
X39575Y5152D02*
X39511Y5215D01*
X39309Y5299D01*
X39091Y5300D01*
X39079Y5295D01*
X38862Y5512D01*
X38764Y5577D01*
X38650Y5600D01*
X23680Y5600D01*
X23565Y5577D01*
X23467Y5512D01*
X23402Y5414D01*
X23400Y5405D01*
X21720Y3725D01*
X21635Y3725D01*
X21479Y3660D01*
X21392Y3573D01*
X21392Y3595D01*
X21355Y3683D01*
X21391Y3770D01*
X21392Y3870D01*
X21392Y4461D01*
X21354Y4552D01*
X21283Y4623D01*
X21191Y4661D01*
X21092Y4661D01*
X20734Y4661D01*
X20733Y4662D01*
X20733Y5278D01*
X20790Y5301D01*
X20860Y5372D01*
X20898Y5464D01*
X20899Y5563D01*
X20899Y6035D01*
X20861Y6127D01*
X20813Y6175D01*
X38765Y6175D01*
X39575Y5365D01*
X39575Y5152D01*
X39575Y5152D01*
G37*
G54D21*
X39575Y5152D02*
X39511Y5215D01*
X39309Y5299D01*
X39091Y5300D01*
X39079Y5295D01*
X38862Y5512D01*
X38764Y5577D01*
X38650Y5600D01*
X23680Y5600D01*
X23565Y5577D01*
X23467Y5512D01*
X23402Y5414D01*
X23400Y5405D01*
X21720Y3725D01*
X21635Y3725D01*
X21479Y3660D01*
X21392Y3573D01*
X21392Y3595D01*
X21355Y3683D01*
X21391Y3770D01*
X21392Y3870D01*
X21392Y4461D01*
X21354Y4552D01*
X21283Y4623D01*
X21191Y4661D01*
X21092Y4661D01*
X20734Y4661D01*
X20733Y4662D01*
X20733Y5278D01*
X20790Y5301D01*
X20860Y5372D01*
X20898Y5464D01*
X20899Y5563D01*
X20899Y6035D01*
X20861Y6127D01*
X20813Y6175D01*
X38765Y6175D01*
X39575Y5365D01*
X39575Y5152D01*
G54D10*
G36*
X39575Y1134D02*
X38765Y325D01*
X35220Y325D01*
X36734Y1838D01*
X37191Y1838D01*
X37283Y1876D01*
X37353Y1946D01*
X37391Y2038D01*
X37392Y2138D01*
X37392Y2430D01*
X37742Y2430D01*
X37888Y2284D01*
X37969Y2250D01*
X37888Y2216D01*
X37734Y2061D01*
X37650Y1859D01*
X37649Y1641D01*
X37733Y1438D01*
X37888Y1284D01*
X38090Y1200D01*
X38308Y1199D01*
X38511Y1283D01*
X38649Y1422D01*
X38649Y1400D01*
X38687Y1308D01*
X38758Y1238D01*
X38850Y1200D01*
X38949Y1199D01*
X39549Y1199D01*
X39575Y1210D01*
X39575Y1134D01*
X39575Y1134D01*
G37*
G54D21*
X39575Y1134D02*
X38765Y325D01*
X35220Y325D01*
X36734Y1838D01*
X37191Y1838D01*
X37283Y1876D01*
X37353Y1946D01*
X37391Y2038D01*
X37392Y2138D01*
X37392Y2430D01*
X37742Y2430D01*
X37888Y2284D01*
X37969Y2250D01*
X37888Y2216D01*
X37734Y2061D01*
X37650Y1859D01*
X37649Y1641D01*
X37733Y1438D01*
X37888Y1284D01*
X38090Y1200D01*
X38308Y1199D01*
X38511Y1283D01*
X38649Y1422D01*
X38649Y1400D01*
X38687Y1308D01*
X38758Y1238D01*
X38850Y1200D01*
X38949Y1199D01*
X39549Y1199D01*
X39575Y1210D01*
X39575Y1134D01*
M02*
