G04 (created by PCBNEW (2012-nov-02)-testing) date Thu 27 Dec 2012 04:07:20 PM EST*
%MOIN*%
G04 Gerber Fmt 3.4, Leading zero omitted, Abs format*
%FSLAX34Y34*%
G01*
G70*
G90*
G04 APERTURE LIST*
%ADD10C,2.3622e-06*%
%ADD11R,0.083X0.0791*%
%ADD12R,0.08X0.08*%
%ADD13C,0.08*%
%ADD14R,0.07X0.036*%
%ADD15R,0.12X0.42*%
%ADD16R,0.055X0.075*%
%ADD17R,0.075X0.055*%
%ADD18C,0.075*%
%ADD19C,0.086*%
%ADD20R,0.0672X0.0672*%
%ADD21C,0.18*%
G04 APERTURE END LIST*
G54D10*
G54D11*
X19173Y2616D03*
X19173Y884D03*
X19173Y1750D03*
X20827Y1750D03*
X20827Y884D03*
X20827Y2616D03*
X35173Y2616D03*
X35173Y884D03*
X35173Y1750D03*
X36827Y1750D03*
X36827Y884D03*
X36827Y2616D03*
X27173Y2616D03*
X27173Y884D03*
X27173Y1750D03*
X28827Y1750D03*
X28827Y884D03*
X28827Y2616D03*
X12827Y884D03*
X12827Y2616D03*
X12827Y1750D03*
X11173Y1750D03*
X11173Y2616D03*
X11173Y884D03*
X4827Y884D03*
X4827Y2616D03*
X4827Y1750D03*
X3173Y1750D03*
X3173Y2616D03*
X3173Y884D03*
G54D12*
X1750Y1750D03*
G54D13*
X750Y1750D03*
X1750Y2750D03*
X750Y2750D03*
X1750Y3750D03*
X750Y3750D03*
X1750Y4750D03*
X750Y4750D03*
G54D12*
X39250Y1750D03*
G54D13*
X38250Y1750D03*
X39250Y2750D03*
X38250Y2750D03*
X39250Y3750D03*
X38250Y3750D03*
X39250Y4750D03*
X38250Y4750D03*
G54D14*
X14700Y5650D03*
X14700Y5400D03*
X14700Y5140D03*
X14700Y4880D03*
X14700Y4630D03*
X14700Y4370D03*
X14700Y4110D03*
X14700Y3860D03*
X14700Y3600D03*
X14700Y3350D03*
X14700Y3090D03*
X14700Y2830D03*
X14700Y2580D03*
X14700Y2320D03*
X17500Y2320D03*
X17500Y2580D03*
X17500Y2820D03*
X17500Y3090D03*
X17500Y3350D03*
X17500Y3600D03*
X17500Y3860D03*
X17500Y4110D03*
X17500Y4370D03*
X17500Y4630D03*
X17500Y4880D03*
X17500Y5140D03*
X17500Y5400D03*
X17500Y5650D03*
G54D15*
X16100Y4000D03*
G54D16*
X23875Y4900D03*
X24625Y4900D03*
G54D17*
X12800Y5225D03*
X12800Y5975D03*
G54D18*
X22700Y5800D03*
X25700Y5800D03*
G54D19*
X20600Y4775D03*
X19600Y4775D03*
G54D20*
X20475Y5550D03*
X19650Y5550D03*
G54D21*
X8000Y3000D03*
X32000Y3000D03*
G54D17*
X35550Y4675D03*
X35550Y5425D03*
X4450Y4625D03*
X4450Y5375D03*
X36550Y4675D03*
X36550Y5425D03*
X3450Y4625D03*
X3450Y5375D03*
M02*
