M48
;DRILL file {Pcbnew (2012-nov-02)-testing} date Thu 27 Dec 2012 04:07:23 PM EST
;FORMAT={-:-/ absolute / inch / decimal}
FMAT,2
INCH,TZ
T1C0.025
T2C0.032
T3C0.040
%
G90
G05
M72
T1
X0.07Y0.06
X0.3775Y0.3125
X0.5525Y0.33
X0.565Y0.5625
X0.975Y0.0775
X1.17Y0.475
X1.37Y0.45
X1.375Y0.53
X1.4075Y0.565
X1.4225Y0.0775
X1.6Y0.1525
X1.825Y0.6075
X1.825Y0.505
X1.825Y0.24
X1.845Y0.165
X1.85Y0.28
X1.875Y0.48
X1.995Y0.315
X2.325Y0.29
X2.33Y0.21
X2.335Y0.13
X2.44Y0.38
X2.5425Y0.37
X2.5475Y0.44
X2.565Y0.255
X2.57Y0.17
X2.585Y0.09
X2.795Y0.265
X3.32Y0.405
X3.38Y0.125
X3.425Y0.26
X3.435Y0.175
X3.435Y0.085
X3.445Y0.485
X3.4775Y0.5825
X3.72Y0.4625
T2
X1.96Y0.4775
X2.06Y0.4775
X2.27Y0.58
X2.57Y0.58
T3
X0.075Y0.475
X0.075Y0.375
X0.075Y0.275
X0.075Y0.175
X0.175Y0.475
X0.175Y0.375
X0.175Y0.275
X0.175Y0.175
X3.825Y0.475
X3.825Y0.375
X3.825Y0.275
X3.825Y0.175
X3.925Y0.475
X3.925Y0.375
X3.925Y0.275
X3.925Y0.175
T0
M30
