M48
;DRILL file {Pcbnew (2013-mar-13)-testing} date Wed 26 Jun 2013 01:18:16 PM EDT
;FORMAT={-:-/ absolute / inch / decimal}
FMAT,2
INCH,TZ
T1C0.025
T2C0.032
T3C0.040
%
G90
G05
M72
T1
X0.4Y0.41
X0.43Y0.05
X0.445Y0.565
X0.565Y0.05
X0.57Y0.565
X0.59Y0.225
X0.61Y0.175
X0.64Y0.435
X0.66Y0.29
X0.665Y0.34
X0.665Y0.125
X0.695Y0.565
X0.7Y0.05
X0.795Y0.125
X0.805Y0.565
X0.84Y0.045
X0.91Y0.32
X0.91Y0.125
X0.92Y0.565
X0.92Y0.495
X0.955Y0.42
X0.955Y0.05
X0.99Y0.18
X1.035Y0.565
X1.075Y0.16
X1.09Y0.05
X1.14Y0.565
X1.185Y0.225
X1.22Y0.09
X1.32Y0.07
X1.35Y0.445
X1.355Y0.565
X1.365Y0.49
X1.385Y0.355
X1.4Y0.12
X1.405Y0.31
X1.405Y0.265
X1.4075Y0.5175
X1.51Y0.25
X1.547Y0.515
X1.6775Y0.0725
X1.684Y0.264
X1.685Y0.37
X1.71Y0.54
X1.71Y0.49
X1.74Y0.07
X1.81Y0.295
X1.81Y0.2225
X1.81Y0.175
X1.83Y0.416
X1.835Y0.135
X1.9Y0.6
X1.906Y0.522
X1.94Y0.14
X2.115Y0.055
X2.1425Y0.1125
X2.148Y0.256
X2.172Y0.33
X2.194Y0.114
X2.222Y0.2
X2.222Y0.15
X2.226Y0.278
X2.232Y0.56
X2.24Y0.456
X2.306Y0.208
X2.384Y0.434
X2.408Y0.304
X2.488Y0.148
X2.55Y0.6
X2.552Y0.098
X2.744Y0.068
X2.75Y0.6
X2.95Y0.6
X3.014Y0.104
X3.15Y0.6
X3.314Y0.064
X3.33Y0.138
X3.35Y0.6
X3.408Y0.118
X3.432Y0.45
X3.55Y0.6
X3.57Y0.064
T2
X1.45Y0.6
X1.75Y0.6
T3
X0.075Y0.475
X0.075Y0.375
X0.075Y0.275
X0.075Y0.175
X0.175Y0.475
X0.175Y0.375
X0.175Y0.275
X0.175Y0.175
X3.82Y0.475
X3.82Y0.375
X3.82Y0.275
X3.82Y0.175
X3.92Y0.475
X3.92Y0.375
X3.92Y0.275
X3.92Y0.175
T0
M30
