G04 (created by PCBNEW (2013-mar-13)-testing) date Wed 26 Jun 2013 01:18:13 PM EDT*
%MOIN*%
G04 Gerber Fmt 3.4, Leading zero omitted, Abs format*
%FSLAX34Y34*%
G01*
G70*
G90*
G04 APERTURE LIST*
%ADD10C,0.000787*%
%ADD11C,0.012000*%
%ADD12C,0.010000*%
%ADD13R,0.060000X0.060000*%
%ADD14C,0.060000*%
%ADD15C,0.055000*%
%ADD16C,0.035000*%
%ADD17C,0.014000*%
G04 APERTURE END LIST*
G54D10*
G54D11*
X29942Y3271D02*
X29485Y3042D01*
X29942Y2814D01*
X30171Y3538D02*
X30542Y3538D01*
X30342Y3233D01*
X30428Y3233D01*
X30485Y3195D01*
X30514Y3157D01*
X30542Y3080D01*
X30542Y2890D01*
X30514Y2814D01*
X30485Y2776D01*
X30428Y2738D01*
X30257Y2738D01*
X30200Y2776D01*
X30171Y2814D01*
G54D12*
X36983Y1337D02*
X36964Y1318D01*
X36907Y1299D01*
X36869Y1299D01*
X36812Y1318D01*
X36774Y1356D01*
X36755Y1394D01*
X36736Y1470D01*
X36736Y1527D01*
X36755Y1603D01*
X36774Y1641D01*
X36812Y1680D01*
X36869Y1699D01*
X36907Y1699D01*
X36964Y1680D01*
X36983Y1660D01*
X37383Y1337D02*
X37364Y1318D01*
X37307Y1299D01*
X37269Y1299D01*
X37212Y1318D01*
X37174Y1356D01*
X37155Y1394D01*
X37136Y1470D01*
X37136Y1527D01*
X37155Y1603D01*
X37174Y1641D01*
X37212Y1680D01*
X37269Y1699D01*
X37307Y1699D01*
X37364Y1680D01*
X37383Y1660D01*
G54D13*
X1750Y1750D03*
G54D14*
X750Y1750D03*
X1750Y2750D03*
X750Y2750D03*
X1750Y3750D03*
X750Y3750D03*
X1750Y4750D03*
X750Y4750D03*
G54D13*
X39200Y1750D03*
G54D14*
X38200Y1750D03*
X39200Y2750D03*
X38200Y2750D03*
X39200Y3750D03*
X38200Y3750D03*
X39200Y4750D03*
X38200Y4750D03*
G54D15*
X17500Y6000D03*
X14500Y6000D03*
G54D16*
X15100Y2500D03*
X12200Y900D03*
X22220Y2000D03*
X18100Y2225D03*
X21480Y2560D03*
X18100Y2950D03*
X14075Y5175D03*
X11850Y2250D03*
X34320Y4500D03*
X23840Y4340D03*
X22260Y2780D03*
X16850Y3700D03*
X13650Y4900D03*
X6100Y1750D03*
X6600Y2900D03*
X14050Y2650D03*
X14000Y1200D03*
X19400Y1400D03*
X22220Y1500D03*
X18100Y1750D03*
X33300Y1380D03*
X16840Y2640D03*
X9100Y3200D03*
X5900Y2250D03*
X13850Y3550D03*
X6650Y3400D03*
X14050Y3100D03*
X21940Y1140D03*
X18350Y1350D03*
X27440Y680D03*
X33140Y640D03*
X21425Y1125D03*
X17400Y700D03*
X21720Y3300D03*
X13500Y4450D03*
X18300Y4160D03*
X19060Y5220D03*
X13550Y5650D03*
X17100Y4900D03*
X21150Y550D03*
X10750Y1600D03*
X4000Y4100D03*
X6400Y4350D03*
X4300Y500D03*
X5650Y500D03*
X7000Y500D03*
X8400Y450D03*
X9550Y500D03*
X6650Y1250D03*
X7950Y1250D03*
X9100Y1250D03*
X4450Y5650D03*
X5700Y5650D03*
X6950Y5650D03*
X8050Y5650D03*
X11400Y5650D03*
X10350Y5650D03*
X35500Y6000D03*
X33500Y6000D03*
X31500Y6000D03*
X29500Y6000D03*
X27500Y6000D03*
X25500Y6000D03*
X15470Y5150D03*
X25520Y980D03*
X24880Y1480D03*
X35700Y640D03*
X34080Y1180D03*
X30140Y1040D03*
X23060Y2080D03*
X24080Y3040D03*
X22400Y4560D03*
X22320Y5600D03*
X16775Y725D03*
X10900Y500D03*
X13200Y700D03*
X9900Y1800D03*
X17100Y5400D03*
X19000Y6000D03*
X9550Y4200D03*
X9200Y5650D03*
X9200Y4950D03*
G54D12*
X33910Y4010D02*
X33950Y4040D01*
X34020Y4070D02*
X34100Y4070D01*
X33990Y4060D02*
X34020Y4070D01*
X33950Y4040D02*
X33990Y4060D01*
X34170Y4030D02*
X34130Y4050D01*
X33674Y3868D02*
X33650Y3950D01*
X33830Y3910D02*
X33780Y3870D01*
X33810Y3950D02*
X33830Y3910D01*
X33800Y3990D02*
X33810Y3950D01*
X33770Y4010D02*
X33800Y3990D01*
X33700Y4000D02*
X33770Y4010D01*
X33680Y3990D02*
X33700Y4000D01*
X33650Y3950D02*
X33680Y3990D01*
X33780Y3870D02*
X33870Y3940D01*
X33870Y3940D02*
X33910Y4000D01*
X33510Y3760D02*
X33500Y3740D01*
X33620Y3850D02*
X33674Y3868D01*
X33580Y3830D02*
X33620Y3850D01*
X33540Y3790D02*
X33580Y3830D01*
X33510Y3760D02*
X33540Y3790D01*
X34130Y4050D02*
X34100Y4070D01*
X34020Y3760D02*
X34080Y3760D01*
X34200Y3970D02*
X34170Y4030D01*
X34170Y4030D02*
X34190Y3990D01*
X34200Y3940D02*
X34200Y3970D01*
X34190Y3900D02*
X34200Y3940D01*
X34190Y3870D02*
X34190Y3900D01*
X34180Y3840D02*
X34190Y3870D01*
X34170Y3810D02*
X34180Y3840D01*
X34150Y3790D02*
X34170Y3810D01*
X34110Y3770D02*
X34150Y3790D01*
X34080Y3760D02*
X34110Y3770D01*
X33740Y3740D02*
X33730Y3740D01*
X34438Y3556D02*
X34360Y3600D01*
X34435Y3474D02*
X34360Y3520D01*
X34430Y3420D02*
X34360Y3430D01*
X34419Y3293D02*
X34340Y3320D01*
X34371Y3100D02*
X34330Y3210D01*
X34250Y3040D02*
X34310Y3000D01*
X34330Y3100D02*
X34410Y3060D01*
X34385Y3196D02*
X34470Y3160D01*
X34410Y3296D02*
X34419Y3293D01*
X34419Y3293D02*
X34500Y3270D01*
X34426Y3396D02*
X34510Y3370D01*
X34520Y3370D02*
X34510Y3380D01*
X34510Y3370D02*
X34520Y3370D01*
X34435Y3474D02*
X34435Y3474D01*
X34435Y3474D02*
X34530Y3490D01*
X34433Y3553D02*
X34438Y3556D01*
X34438Y3556D02*
X34510Y3600D01*
X34510Y3600D02*
X34500Y3610D01*
X34220Y3100D02*
X34371Y3100D01*
X34371Y3100D02*
X34330Y3100D01*
X34440Y3520D02*
X34433Y3553D01*
X34433Y3553D02*
X34420Y3630D01*
X34430Y3420D02*
X34435Y3474D01*
X34435Y3474D02*
X34440Y3520D01*
X34410Y3290D02*
X34410Y3296D01*
X34410Y3296D02*
X34426Y3396D01*
X34426Y3396D02*
X34430Y3420D01*
X34370Y3140D02*
X34385Y3196D01*
X34385Y3196D02*
X34410Y3290D01*
X34330Y3100D02*
X34370Y3140D01*
X34020Y3630D02*
X33960Y3560D01*
X34020Y3670D02*
X34020Y3630D01*
X34020Y3740D02*
X34020Y3760D01*
X34020Y3760D02*
X34020Y3670D01*
X33600Y3500D02*
X33590Y3460D01*
X33730Y2870D02*
X33770Y2890D01*
X33660Y2860D02*
X33730Y2870D01*
X33580Y2860D02*
X33660Y2860D01*
X33560Y2890D02*
X33580Y2860D01*
X33580Y2920D02*
X33560Y2890D01*
X33670Y2940D02*
X33580Y2920D01*
X33690Y2980D02*
X33670Y2940D01*
X33690Y3020D02*
X33690Y2980D01*
X33660Y3060D02*
X33690Y3020D01*
X33620Y3130D02*
X33660Y3060D01*
X33600Y3210D02*
X33620Y3130D01*
X33570Y3340D02*
X33600Y3210D01*
X33570Y3420D02*
X33570Y3340D01*
X33590Y3460D02*
X33570Y3420D01*
X34070Y3240D02*
X33960Y3230D01*
X34161Y3056D02*
X34170Y3060D01*
X34200Y2960D02*
X34161Y3056D01*
X34170Y2880D02*
X34200Y2960D01*
X34060Y2870D02*
X34170Y2880D01*
X33850Y2860D02*
X34060Y2870D01*
X33820Y2880D02*
X33850Y2860D01*
X33830Y2910D02*
X33820Y2880D01*
X34016Y2991D02*
X33830Y2910D01*
X33950Y3080D02*
X34016Y2991D01*
X33910Y3130D02*
X33950Y3080D01*
X33900Y3170D02*
X33910Y3130D01*
X33920Y3210D02*
X33900Y3170D01*
X33960Y3230D02*
X33920Y3210D01*
X33820Y3310D02*
X33760Y3210D01*
X33760Y3210D02*
X33740Y3210D01*
X33670Y3320D02*
X33500Y3240D01*
X33500Y3240D02*
X33510Y3250D01*
X33780Y3560D02*
X33740Y3550D01*
X33850Y3580D02*
X33780Y3560D01*
X33920Y3560D02*
X33850Y3580D01*
X33960Y3560D02*
X33920Y3560D01*
X34010Y3510D02*
X33960Y3560D01*
X34060Y3450D02*
X34010Y3510D01*
X34130Y3410D02*
X34060Y3450D01*
X34180Y3330D02*
X34130Y3410D01*
X34210Y3270D02*
X34180Y3330D01*
X34230Y3180D02*
X34210Y3270D01*
X34220Y3100D02*
X34230Y3180D01*
X34170Y3060D02*
X34220Y3100D01*
X33490Y3640D02*
X33560Y3570D01*
X33670Y3550D02*
X33620Y3550D01*
X33620Y3550D02*
X33700Y3550D01*
X33610Y3560D02*
X33670Y3550D01*
X33560Y3570D02*
X33610Y3560D01*
X33490Y3660D02*
X33470Y3680D01*
X33490Y3640D02*
X33480Y3650D01*
X33460Y3620D02*
X33490Y3640D01*
X33440Y3650D02*
X33460Y3620D01*
X33470Y3680D02*
X33440Y3650D01*
X13500Y2200D02*
X12200Y900D01*
X14400Y2200D02*
X13500Y2200D01*
X14700Y2500D02*
X14400Y2200D01*
X15100Y2500D02*
X14700Y2500D01*
X20140Y2225D02*
X20140Y2220D01*
X20360Y2000D02*
X22220Y2000D01*
X20140Y2220D02*
X20360Y2000D01*
X18100Y2225D02*
X20140Y2225D01*
X18100Y2950D02*
X20290Y2950D01*
X20680Y2560D02*
X21480Y2560D01*
X20290Y2950D02*
X20680Y2560D01*
X17720Y4500D02*
X17720Y4520D01*
X18820Y4699D02*
X19020Y4500D01*
X17899Y4699D02*
X18820Y4699D01*
X17720Y4520D02*
X17899Y4699D01*
X39200Y2750D02*
X38910Y2750D01*
X38910Y2750D02*
X38420Y3240D01*
X38420Y3240D02*
X37640Y3240D01*
X37640Y3240D02*
X37020Y2620D01*
X37020Y2620D02*
X32960Y2620D01*
X32960Y2620D02*
X32620Y2280D01*
X32620Y2280D02*
X31340Y2280D01*
X31340Y2280D02*
X31100Y2520D01*
X31100Y2520D02*
X23840Y2520D01*
X23840Y2520D02*
X21860Y4500D01*
X21860Y4500D02*
X19020Y4500D01*
X14750Y4500D02*
X14075Y5175D01*
X17720Y4500D02*
X14750Y4500D01*
X14075Y5175D02*
X14100Y5200D01*
X1750Y2750D02*
X6100Y2750D01*
X9450Y2250D02*
X11850Y2250D01*
X9000Y1800D02*
X9450Y2250D01*
X7050Y1800D02*
X9000Y1800D01*
X6100Y2750D02*
X7050Y1800D01*
X16850Y3700D02*
X17840Y3700D01*
X34260Y4440D02*
X34320Y4500D01*
X23940Y4440D02*
X34260Y4440D01*
X23840Y4340D02*
X23940Y4440D01*
X22120Y2920D02*
X22260Y2780D01*
X21600Y2920D02*
X22120Y2920D01*
X21180Y3340D02*
X21600Y2920D01*
X18200Y3340D02*
X21180Y3340D01*
X17840Y3700D02*
X18200Y3340D01*
X16850Y3700D02*
X14180Y3700D01*
X14180Y3700D02*
X13930Y3950D01*
X6350Y3750D02*
X1750Y3750D01*
X7000Y4400D02*
X6350Y3750D01*
X8700Y4400D02*
X7000Y4400D01*
X9300Y3800D02*
X8700Y4400D01*
X9750Y3800D02*
X9300Y3800D01*
X9900Y3950D02*
X9750Y3800D01*
X13930Y3950D02*
X9900Y3950D01*
X17700Y4240D02*
X17760Y4240D01*
X18640Y4499D02*
X18900Y4240D01*
X18020Y4499D02*
X18640Y4499D01*
X17760Y4240D02*
X18020Y4499D01*
X30880Y2260D02*
X30920Y2260D01*
X30880Y2260D02*
X23740Y2260D01*
X23740Y2260D02*
X21760Y4240D01*
X21760Y4240D02*
X18900Y4240D01*
X38400Y2260D02*
X33080Y2260D01*
X38910Y1750D02*
X38400Y2260D01*
X39200Y1750D02*
X38910Y1750D01*
X30920Y2260D02*
X31199Y1980D01*
X31199Y1980D02*
X32800Y1980D01*
X32800Y1980D02*
X33080Y2260D01*
X14310Y4240D02*
X13650Y4900D01*
X17700Y4240D02*
X14310Y4240D01*
X1750Y1750D02*
X6100Y1750D01*
X7450Y2050D02*
X6600Y2900D01*
X8650Y2050D02*
X7450Y2050D01*
X9200Y2600D02*
X8650Y2050D01*
X14000Y2600D02*
X9200Y2600D01*
X14050Y2650D02*
X14000Y2600D01*
X17400Y1200D02*
X17500Y1200D01*
X19000Y1000D02*
X19400Y1400D01*
X17700Y1000D02*
X19000Y1000D01*
X17500Y1200D02*
X17700Y1000D01*
X17400Y1200D02*
X14000Y1200D01*
X21800Y1750D02*
X21970Y1750D01*
X21970Y1750D02*
X22220Y1500D01*
X19900Y2000D02*
X19900Y1975D01*
X20125Y1750D02*
X21800Y1750D01*
X19900Y1975D02*
X20125Y1750D01*
X18350Y2000D02*
X18100Y1750D01*
X19900Y2000D02*
X18350Y2000D01*
X25040Y1080D02*
X25380Y1420D01*
X25380Y1420D02*
X27460Y1420D01*
X22280Y2360D02*
X22320Y2360D01*
X22320Y2360D02*
X23600Y1080D01*
X23600Y1080D02*
X25040Y1080D01*
X20160Y2600D02*
X20180Y2600D01*
X20180Y2600D02*
X20560Y2220D01*
X21920Y2340D02*
X21920Y2360D01*
X21940Y2360D02*
X21920Y2340D01*
X21800Y2220D02*
X21940Y2360D01*
X20560Y2220D02*
X21800Y2220D01*
X18260Y2600D02*
X20160Y2600D01*
X21920Y2360D02*
X22280Y2360D01*
X33300Y1380D02*
X33260Y1420D01*
X33260Y1420D02*
X27460Y1420D01*
X16880Y2600D02*
X18260Y2600D01*
X16840Y2640D02*
X16880Y2600D01*
X9300Y3200D02*
X9100Y3200D01*
X750Y1750D02*
X750Y1900D01*
X750Y1900D02*
X1100Y2250D01*
X1100Y2250D02*
X5900Y2250D01*
X13500Y3200D02*
X9300Y3200D01*
X13850Y3550D02*
X13500Y3200D01*
X6950Y3100D02*
X6650Y3400D01*
X6950Y2832D02*
X6950Y3100D01*
X7532Y2250D02*
X6950Y2832D01*
X8567Y2250D02*
X7532Y2250D01*
X9167Y2850D02*
X8567Y2250D01*
X13500Y2850D02*
X9167Y2850D01*
X13650Y3000D02*
X13500Y2850D01*
X13950Y3000D02*
X13650Y3000D01*
X14050Y3100D02*
X13950Y3000D01*
X21540Y1500D02*
X21580Y1500D01*
X21580Y1500D02*
X21940Y1140D01*
X19150Y1750D02*
X19700Y1750D01*
X19950Y1500D02*
X21540Y1500D01*
X19700Y1750D02*
X19950Y1500D01*
X18850Y1450D02*
X19150Y1750D01*
X18450Y1450D02*
X18850Y1450D01*
X18350Y1350D02*
X18450Y1450D01*
X33100Y680D02*
X27440Y680D01*
X33140Y640D02*
X33100Y680D01*
X20875Y1125D02*
X21425Y1125D01*
X20375Y625D02*
X20875Y1125D01*
X17475Y625D02*
X20375Y625D01*
X17400Y700D02*
X17475Y625D01*
X21720Y3300D02*
X21280Y3740D01*
X13500Y4450D02*
X13770Y4450D01*
X13770Y4450D02*
X14180Y4039D01*
X14180Y4039D02*
X17920Y4039D01*
X17920Y4039D02*
X18220Y3740D01*
X18220Y3740D02*
X21280Y3740D01*
X7850Y4750D02*
X1750Y4750D01*
X8400Y5300D02*
X9550Y5300D01*
X9550Y5300D02*
X10075Y4775D01*
X7850Y4750D02*
X8400Y5300D01*
X13175Y4775D02*
X13500Y4450D01*
X10075Y4775D02*
X13175Y4775D01*
X21580Y4020D02*
X22220Y3380D01*
X18820Y4020D02*
X21580Y4020D01*
X18660Y4180D02*
X18820Y4020D01*
X18320Y4180D02*
X18660Y4180D01*
X18300Y4160D02*
X18320Y4180D01*
X33220Y1980D02*
X33180Y1980D01*
X31040Y1780D02*
X30840Y1980D01*
X32980Y1780D02*
X31040Y1780D01*
X33180Y1980D02*
X32980Y1780D01*
X23620Y1980D02*
X30840Y1980D01*
X22220Y3380D02*
X23620Y1980D01*
X37970Y1980D02*
X38200Y1750D01*
X33220Y1980D02*
X37970Y1980D01*
X19100Y5180D02*
X19100Y4900D01*
X19060Y5220D02*
X19100Y5180D01*
X38200Y3750D02*
X38200Y3800D01*
X38200Y3800D02*
X37100Y4900D01*
X37100Y4900D02*
X19100Y4900D01*
X17100Y4900D02*
X19100Y4900D01*
X14200Y5650D02*
X13550Y5650D01*
X14350Y5500D02*
X14200Y5650D01*
X16500Y5500D02*
X14350Y5500D01*
X17100Y4900D02*
X16500Y5500D01*
G54D17*
X20950Y350D02*
X21150Y550D01*
X12000Y350D02*
X20950Y350D01*
X10750Y1600D02*
X12000Y350D01*
X6150Y4100D02*
X4000Y4100D01*
X6400Y4350D02*
X6150Y4100D01*
G54D12*
X7000Y500D02*
X5650Y500D01*
X9500Y450D02*
X8400Y450D01*
X9550Y500D02*
X9500Y450D01*
X9900Y1800D02*
X9100Y1250D01*
X7950Y1250D02*
X6650Y1250D01*
X5700Y5650D02*
X4450Y5650D01*
X8050Y5650D02*
X6950Y5650D01*
X10350Y5650D02*
X11400Y5650D01*
X15470Y5150D02*
X15470Y5140D01*
X25520Y980D02*
X27140Y980D01*
X23060Y2080D02*
X23660Y1480D01*
X23660Y1480D02*
X24880Y1480D01*
X34620Y640D02*
X35700Y640D01*
X34080Y1180D02*
X34620Y640D01*
X27200Y1040D02*
X30140Y1040D01*
X27140Y980D02*
X27200Y1040D01*
X22280Y6000D02*
X22280Y5640D01*
X23060Y2080D02*
X23080Y2080D01*
X23920Y3040D02*
X24080Y3040D01*
X22400Y4560D02*
X23920Y3040D01*
X22280Y5640D02*
X22320Y5600D01*
X16775Y725D02*
X13200Y700D01*
X9900Y1800D02*
X9900Y1500D01*
X9900Y1500D02*
X10900Y500D01*
X13200Y700D02*
X13200Y800D01*
X19000Y6000D02*
X22280Y6000D01*
X22280Y6000D02*
X25500Y6000D01*
X25500Y6000D02*
X27500Y6000D01*
X27500Y6000D02*
X29500Y6000D01*
X29500Y6000D02*
X31500Y6000D01*
X31500Y6000D02*
X33500Y6000D01*
X33500Y6000D02*
X35500Y6000D01*
X35500Y6000D02*
X36950Y6000D01*
X36950Y6000D02*
X38200Y4750D01*
X17100Y5400D02*
X18400Y5400D01*
X18400Y5400D02*
X19000Y6000D01*
X9200Y4550D02*
X9200Y4950D01*
X9550Y4200D02*
X9200Y4550D01*
X9200Y5650D02*
X9200Y6000D01*
X750Y4750D02*
X750Y4800D01*
X1950Y6000D02*
X9200Y6000D01*
X9200Y6000D02*
X14500Y6000D01*
X750Y4800D02*
X1950Y6000D01*
G54D10*
G36*
X11572Y325D02*
X1234Y325D01*
X425Y1134D01*
X425Y1297D01*
X438Y1284D01*
X640Y1200D01*
X858Y1199D01*
X1061Y1283D01*
X1199Y1422D01*
X1199Y1400D01*
X1237Y1308D01*
X1308Y1238D01*
X1400Y1200D01*
X1499Y1199D01*
X2099Y1199D01*
X2191Y1237D01*
X2261Y1308D01*
X2299Y1400D01*
X2299Y1450D01*
X5798Y1450D01*
X5858Y1389D01*
X6015Y1325D01*
X6184Y1324D01*
X6340Y1389D01*
X6460Y1508D01*
X6524Y1665D01*
X6525Y1834D01*
X6478Y1947D01*
X6837Y1587D01*
X6837Y1587D01*
X6935Y1522D01*
X7050Y1500D01*
X9000Y1500D01*
X9000Y1500D01*
X9114Y1522D01*
X9114Y1522D01*
X9212Y1587D01*
X9574Y1950D01*
X10499Y1950D01*
X10389Y1841D01*
X10325Y1684D01*
X10324Y1515D01*
X10389Y1359D01*
X10508Y1239D01*
X10665Y1175D01*
X10722Y1175D01*
X11572Y325D01*
X11572Y325D01*
G37*
G54D12*
X11572Y325D02*
X1234Y325D01*
X425Y1134D01*
X425Y1297D01*
X438Y1284D01*
X640Y1200D01*
X858Y1199D01*
X1061Y1283D01*
X1199Y1422D01*
X1199Y1400D01*
X1237Y1308D01*
X1308Y1238D01*
X1400Y1200D01*
X1499Y1199D01*
X2099Y1199D01*
X2191Y1237D01*
X2261Y1308D01*
X2299Y1400D01*
X2299Y1450D01*
X5798Y1450D01*
X5858Y1389D01*
X6015Y1325D01*
X6184Y1324D01*
X6340Y1389D01*
X6460Y1508D01*
X6524Y1665D01*
X6525Y1834D01*
X6478Y1947D01*
X6837Y1587D01*
X6837Y1587D01*
X6935Y1522D01*
X7050Y1500D01*
X9000Y1500D01*
X9000Y1500D01*
X9114Y1522D01*
X9114Y1522D01*
X9212Y1587D01*
X9574Y1950D01*
X10499Y1950D01*
X10389Y1841D01*
X10325Y1684D01*
X10324Y1515D01*
X10389Y1359D01*
X10508Y1239D01*
X10665Y1175D01*
X10722Y1175D01*
X11572Y325D01*
G54D10*
G36*
X13122Y4250D02*
X9900Y4250D01*
X9785Y4227D01*
X9687Y4162D01*
X9625Y4100D01*
X9424Y4100D01*
X8912Y4612D01*
X8814Y4677D01*
X8700Y4700D01*
X8224Y4700D01*
X8524Y5000D01*
X9425Y5000D01*
X9862Y4562D01*
X9862Y4562D01*
X9960Y4497D01*
X10074Y4475D01*
X10075Y4475D01*
X13050Y4475D01*
X13075Y4450D01*
X13074Y4365D01*
X13122Y4250D01*
X13122Y4250D01*
G37*
G54D12*
X13122Y4250D02*
X9900Y4250D01*
X9785Y4227D01*
X9687Y4162D01*
X9625Y4100D01*
X9424Y4100D01*
X8912Y4612D01*
X8814Y4677D01*
X8700Y4700D01*
X8224Y4700D01*
X8524Y5000D01*
X9425Y5000D01*
X9862Y4562D01*
X9862Y4562D01*
X9960Y4497D01*
X10074Y4475D01*
X10075Y4475D01*
X13050Y4475D01*
X13075Y4450D01*
X13074Y4365D01*
X13122Y4250D01*
G54D10*
G36*
X16681Y4800D02*
X14874Y4800D01*
X14499Y5174D01*
X14500Y5200D01*
X16375Y5200D01*
X16675Y4900D01*
X16674Y4815D01*
X16681Y4800D01*
X16681Y4800D01*
G37*
G54D12*
X16681Y4800D02*
X14874Y4800D01*
X14499Y5174D01*
X14500Y5200D01*
X16375Y5200D01*
X16675Y4900D01*
X16674Y4815D01*
X16681Y4800D01*
G54D10*
G36*
X17925Y1362D02*
X17924Y1300D01*
X17824Y1300D01*
X17712Y1412D01*
X17614Y1477D01*
X17500Y1500D01*
X17400Y1500D01*
X14301Y1500D01*
X14241Y1560D01*
X14084Y1624D01*
X13915Y1625D01*
X13759Y1560D01*
X13639Y1441D01*
X13575Y1284D01*
X13574Y1115D01*
X13639Y959D01*
X13758Y839D01*
X13915Y775D01*
X14084Y774D01*
X14240Y839D01*
X14301Y900D01*
X17022Y900D01*
X16975Y784D01*
X16974Y670D01*
X12564Y670D01*
X12624Y815D01*
X12625Y900D01*
X13624Y1900D01*
X14400Y1900D01*
X14400Y1900D01*
X14514Y1922D01*
X14514Y1922D01*
X14612Y1987D01*
X14811Y2187D01*
X14858Y2139D01*
X15015Y2075D01*
X15184Y2074D01*
X15340Y2139D01*
X15460Y2258D01*
X15524Y2415D01*
X15525Y2584D01*
X15460Y2740D01*
X15341Y2860D01*
X15184Y2924D01*
X15015Y2925D01*
X14859Y2860D01*
X14798Y2800D01*
X14700Y2800D01*
X14585Y2777D01*
X14487Y2712D01*
X14475Y2699D01*
X14475Y2734D01*
X14416Y2875D01*
X14474Y3015D01*
X14475Y3184D01*
X14410Y3340D01*
X14351Y3400D01*
X16548Y3400D01*
X16608Y3339D01*
X16765Y3275D01*
X16934Y3274D01*
X17090Y3339D01*
X17151Y3400D01*
X17715Y3400D01*
X17832Y3283D01*
X17739Y3191D01*
X17675Y3034D01*
X17674Y2900D01*
X17180Y2900D01*
X17081Y3000D01*
X16924Y3064D01*
X16755Y3065D01*
X16599Y3000D01*
X16479Y2881D01*
X16415Y2724D01*
X16414Y2555D01*
X16479Y2399D01*
X16598Y2279D01*
X16755Y2215D01*
X16924Y2214D01*
X17080Y2279D01*
X17100Y2300D01*
X17675Y2300D01*
X17674Y2140D01*
X17738Y1987D01*
X17675Y1834D01*
X17674Y1665D01*
X17739Y1509D01*
X17858Y1389D01*
X17925Y1362D01*
X17925Y1362D01*
G37*
G54D12*
X17925Y1362D02*
X17924Y1300D01*
X17824Y1300D01*
X17712Y1412D01*
X17614Y1477D01*
X17500Y1500D01*
X17400Y1500D01*
X14301Y1500D01*
X14241Y1560D01*
X14084Y1624D01*
X13915Y1625D01*
X13759Y1560D01*
X13639Y1441D01*
X13575Y1284D01*
X13574Y1115D01*
X13639Y959D01*
X13758Y839D01*
X13915Y775D01*
X14084Y774D01*
X14240Y839D01*
X14301Y900D01*
X17022Y900D01*
X16975Y784D01*
X16974Y670D01*
X12564Y670D01*
X12624Y815D01*
X12625Y900D01*
X13624Y1900D01*
X14400Y1900D01*
X14400Y1900D01*
X14514Y1922D01*
X14514Y1922D01*
X14612Y1987D01*
X14811Y2187D01*
X14858Y2139D01*
X15015Y2075D01*
X15184Y2074D01*
X15340Y2139D01*
X15460Y2258D01*
X15524Y2415D01*
X15525Y2584D01*
X15460Y2740D01*
X15341Y2860D01*
X15184Y2924D01*
X15015Y2925D01*
X14859Y2860D01*
X14798Y2800D01*
X14700Y2800D01*
X14585Y2777D01*
X14487Y2712D01*
X14475Y2699D01*
X14475Y2734D01*
X14416Y2875D01*
X14474Y3015D01*
X14475Y3184D01*
X14410Y3340D01*
X14351Y3400D01*
X16548Y3400D01*
X16608Y3339D01*
X16765Y3275D01*
X16934Y3274D01*
X17090Y3339D01*
X17151Y3400D01*
X17715Y3400D01*
X17832Y3283D01*
X17739Y3191D01*
X17675Y3034D01*
X17674Y2900D01*
X17180Y2900D01*
X17081Y3000D01*
X16924Y3064D01*
X16755Y3065D01*
X16599Y3000D01*
X16479Y2881D01*
X16415Y2724D01*
X16414Y2555D01*
X16479Y2399D01*
X16598Y2279D01*
X16755Y2215D01*
X16924Y2214D01*
X17080Y2279D01*
X17100Y2300D01*
X17675Y2300D01*
X17674Y2140D01*
X17738Y1987D01*
X17675Y1834D01*
X17674Y1665D01*
X17739Y1509D01*
X17858Y1389D01*
X17925Y1362D01*
G54D10*
G36*
X25239Y1680D02*
X25167Y1632D01*
X24915Y1380D01*
X23724Y1380D01*
X22592Y2511D01*
X22620Y2538D01*
X22624Y2550D01*
X23407Y1767D01*
X23407Y1767D01*
X23505Y1702D01*
X23620Y1680D01*
X25239Y1680D01*
X25239Y1680D01*
G37*
G54D12*
X25239Y1680D02*
X25167Y1632D01*
X24915Y1380D01*
X23724Y1380D01*
X22592Y2511D01*
X22620Y2538D01*
X22624Y2550D01*
X23407Y1767D01*
X23407Y1767D01*
X23505Y1702D01*
X23620Y1680D01*
X25239Y1680D01*
G54D10*
G36*
X31797Y4140D02*
X31490Y4013D01*
X31237Y3760D01*
X31100Y3429D01*
X31099Y3071D01*
X31213Y2797D01*
X31100Y2820D01*
X30967Y2820D01*
X30967Y4090D01*
X29032Y4090D01*
X29032Y2820D01*
X23964Y2820D01*
X22184Y4600D01*
X23498Y4600D01*
X23479Y4581D01*
X23415Y4424D01*
X23414Y4255D01*
X23479Y4099D01*
X23598Y3979D01*
X23755Y3915D01*
X23924Y3914D01*
X24080Y3979D01*
X24200Y4098D01*
X24217Y4140D01*
X31797Y4140D01*
X31797Y4140D01*
G37*
G54D12*
X31797Y4140D02*
X31490Y4013D01*
X31237Y3760D01*
X31100Y3429D01*
X31099Y3071D01*
X31213Y2797D01*
X31100Y2820D01*
X30967Y2820D01*
X30967Y4090D01*
X29032Y4090D01*
X29032Y2820D01*
X23964Y2820D01*
X22184Y4600D01*
X23498Y4600D01*
X23479Y4581D01*
X23415Y4424D01*
X23414Y4255D01*
X23479Y4099D01*
X23598Y3979D01*
X23755Y3915D01*
X23924Y3914D01*
X24080Y3979D01*
X24200Y4098D01*
X24217Y4140D01*
X31797Y4140D01*
G54D10*
G36*
X33026Y1052D02*
X32899Y1000D01*
X32879Y980D01*
X27741Y980D01*
X27681Y1040D01*
X27524Y1104D01*
X27355Y1105D01*
X27199Y1040D01*
X27079Y921D01*
X27015Y764D01*
X27014Y595D01*
X27079Y439D01*
X27193Y325D01*
X21516Y325D01*
X21574Y465D01*
X21575Y634D01*
X21542Y713D01*
X21665Y764D01*
X21689Y788D01*
X21698Y779D01*
X21855Y715D01*
X22024Y714D01*
X22180Y779D01*
X22300Y898D01*
X22364Y1055D01*
X22364Y1100D01*
X22460Y1139D01*
X22580Y1258D01*
X22644Y1415D01*
X22645Y1584D01*
X22626Y1629D01*
X23387Y867D01*
X23485Y802D01*
X23600Y780D01*
X25040Y780D01*
X25040Y780D01*
X25154Y802D01*
X25154Y802D01*
X25252Y867D01*
X25504Y1120D01*
X27460Y1120D01*
X32959Y1120D01*
X33026Y1052D01*
X33026Y1052D01*
G37*
G54D12*
X33026Y1052D02*
X32899Y1000D01*
X32879Y980D01*
X27741Y980D01*
X27681Y1040D01*
X27524Y1104D01*
X27355Y1105D01*
X27199Y1040D01*
X27079Y921D01*
X27015Y764D01*
X27014Y595D01*
X27079Y439D01*
X27193Y325D01*
X21516Y325D01*
X21574Y465D01*
X21575Y634D01*
X21542Y713D01*
X21665Y764D01*
X21689Y788D01*
X21698Y779D01*
X21855Y715D01*
X22024Y714D01*
X22180Y779D01*
X22300Y898D01*
X22364Y1055D01*
X22364Y1100D01*
X22460Y1139D01*
X22580Y1258D01*
X22644Y1415D01*
X22645Y1584D01*
X22626Y1629D01*
X23387Y867D01*
X23485Y802D01*
X23600Y780D01*
X25040Y780D01*
X25040Y780D01*
X25154Y802D01*
X25154Y802D01*
X25252Y867D01*
X25504Y1120D01*
X27460Y1120D01*
X32959Y1120D01*
X33026Y1052D01*
G54D10*
G36*
X39575Y5152D02*
X39511Y5215D01*
X39309Y5299D01*
X39091Y5300D01*
X38888Y5216D01*
X38734Y5061D01*
X38650Y4859D01*
X38649Y4641D01*
X38733Y4438D01*
X38888Y4284D01*
X38969Y4250D01*
X38888Y4216D01*
X38734Y4061D01*
X38700Y3980D01*
X38666Y4061D01*
X38511Y4215D01*
X38309Y4299D01*
X38124Y4300D01*
X37312Y5112D01*
X37214Y5177D01*
X37100Y5200D01*
X19484Y5200D01*
X19485Y5304D01*
X19420Y5460D01*
X19301Y5580D01*
X19144Y5644D01*
X18975Y5645D01*
X18819Y5580D01*
X18699Y5461D01*
X18635Y5304D01*
X18634Y5200D01*
X17401Y5200D01*
X17341Y5260D01*
X17184Y5324D01*
X17099Y5325D01*
X16712Y5712D01*
X16614Y5777D01*
X16500Y5800D01*
X14474Y5800D01*
X14412Y5862D01*
X14314Y5927D01*
X14200Y5950D01*
X13851Y5950D01*
X13791Y6010D01*
X13634Y6074D01*
X13465Y6075D01*
X13309Y6010D01*
X13189Y5891D01*
X13125Y5734D01*
X13124Y5565D01*
X13189Y5409D01*
X13308Y5289D01*
X13400Y5251D01*
X13289Y5141D01*
X13255Y5058D01*
X13175Y5075D01*
X10199Y5075D01*
X9762Y5512D01*
X9664Y5577D01*
X9550Y5600D01*
X8400Y5600D01*
X8285Y5577D01*
X8187Y5512D01*
X7725Y5050D01*
X2221Y5050D01*
X2216Y5061D01*
X2061Y5215D01*
X1859Y5299D01*
X1641Y5300D01*
X1438Y5216D01*
X1284Y5061D01*
X1200Y4859D01*
X1199Y4641D01*
X1283Y4438D01*
X1438Y4284D01*
X1519Y4250D01*
X1438Y4216D01*
X1284Y4061D01*
X1250Y3980D01*
X1216Y4061D01*
X1061Y4215D01*
X859Y4299D01*
X641Y4300D01*
X438Y4216D01*
X425Y4202D01*
X425Y5365D01*
X1234Y6175D01*
X17004Y6175D01*
X16975Y6104D01*
X16974Y5896D01*
X17054Y5703D01*
X17202Y5555D01*
X17395Y5475D01*
X17603Y5474D01*
X17797Y5554D01*
X17944Y5702D01*
X18024Y5895D01*
X18025Y6103D01*
X17995Y6175D01*
X38765Y6175D01*
X39575Y5365D01*
X39575Y5152D01*
X39575Y5152D01*
G37*
G54D12*
X39575Y5152D02*
X39511Y5215D01*
X39309Y5299D01*
X39091Y5300D01*
X38888Y5216D01*
X38734Y5061D01*
X38650Y4859D01*
X38649Y4641D01*
X38733Y4438D01*
X38888Y4284D01*
X38969Y4250D01*
X38888Y4216D01*
X38734Y4061D01*
X38700Y3980D01*
X38666Y4061D01*
X38511Y4215D01*
X38309Y4299D01*
X38124Y4300D01*
X37312Y5112D01*
X37214Y5177D01*
X37100Y5200D01*
X19484Y5200D01*
X19485Y5304D01*
X19420Y5460D01*
X19301Y5580D01*
X19144Y5644D01*
X18975Y5645D01*
X18819Y5580D01*
X18699Y5461D01*
X18635Y5304D01*
X18634Y5200D01*
X17401Y5200D01*
X17341Y5260D01*
X17184Y5324D01*
X17099Y5325D01*
X16712Y5712D01*
X16614Y5777D01*
X16500Y5800D01*
X14474Y5800D01*
X14412Y5862D01*
X14314Y5927D01*
X14200Y5950D01*
X13851Y5950D01*
X13791Y6010D01*
X13634Y6074D01*
X13465Y6075D01*
X13309Y6010D01*
X13189Y5891D01*
X13125Y5734D01*
X13124Y5565D01*
X13189Y5409D01*
X13308Y5289D01*
X13400Y5251D01*
X13289Y5141D01*
X13255Y5058D01*
X13175Y5075D01*
X10199Y5075D01*
X9762Y5512D01*
X9664Y5577D01*
X9550Y5600D01*
X8400Y5600D01*
X8285Y5577D01*
X8187Y5512D01*
X7725Y5050D01*
X2221Y5050D01*
X2216Y5061D01*
X2061Y5215D01*
X1859Y5299D01*
X1641Y5300D01*
X1438Y5216D01*
X1284Y5061D01*
X1200Y4859D01*
X1199Y4641D01*
X1283Y4438D01*
X1438Y4284D01*
X1519Y4250D01*
X1438Y4216D01*
X1284Y4061D01*
X1250Y3980D01*
X1216Y4061D01*
X1061Y4215D01*
X859Y4299D01*
X641Y4300D01*
X438Y4216D01*
X425Y4202D01*
X425Y5365D01*
X1234Y6175D01*
X17004Y6175D01*
X16975Y6104D01*
X16974Y5896D01*
X17054Y5703D01*
X17202Y5555D01*
X17395Y5475D01*
X17603Y5474D01*
X17797Y5554D01*
X17944Y5702D01*
X18024Y5895D01*
X18025Y6103D01*
X17995Y6175D01*
X38765Y6175D01*
X39575Y5365D01*
X39575Y5152D01*
G54D10*
G36*
X39575Y1134D02*
X38765Y325D01*
X33426Y325D01*
X33500Y398D01*
X33564Y555D01*
X33565Y724D01*
X33500Y880D01*
X33413Y967D01*
X33540Y1019D01*
X33660Y1138D01*
X33724Y1295D01*
X33725Y1464D01*
X33660Y1620D01*
X33601Y1680D01*
X36360Y1680D01*
X36360Y900D01*
X37760Y900D01*
X37760Y1412D01*
X37888Y1284D01*
X38090Y1200D01*
X38308Y1199D01*
X38511Y1283D01*
X38649Y1422D01*
X38649Y1400D01*
X38687Y1308D01*
X38758Y1238D01*
X38850Y1200D01*
X38949Y1199D01*
X39549Y1199D01*
X39575Y1210D01*
X39575Y1134D01*
X39575Y1134D01*
G37*
G54D12*
X39575Y1134D02*
X38765Y325D01*
X33426Y325D01*
X33500Y398D01*
X33564Y555D01*
X33565Y724D01*
X33500Y880D01*
X33413Y967D01*
X33540Y1019D01*
X33660Y1138D01*
X33724Y1295D01*
X33725Y1464D01*
X33660Y1620D01*
X33601Y1680D01*
X36360Y1680D01*
X36360Y900D01*
X37760Y900D01*
X37760Y1412D01*
X37888Y1284D01*
X38090Y1200D01*
X38308Y1199D01*
X38511Y1283D01*
X38649Y1422D01*
X38649Y1400D01*
X38687Y1308D01*
X38758Y1238D01*
X38850Y1200D01*
X38949Y1199D01*
X39549Y1199D01*
X39575Y1210D01*
X39575Y1134D01*
M02*
