G04 (created by PCBNEW-RS274X (2011-nov-30)-testing) date Mon 11 Jun 2012 06:03:41 PM EDT*
%MOIN*%
G04 Gerber Fmt 3.4, Leading zero omitted, Abs format*
%FSLAX34Y34*%
G01*
G70*
G90*
G04 APERTURE LIST*
%ADD10C,0.006*%
%ADD11C,0.012*%
%ADD12R,0.055X0.035*%
%ADD13R,0.06X0.06*%
%ADD14C,0.06*%
%ADD15C,0.0669*%
%ADD16R,0.122X0.0512*%
%ADD17C,0.0709*%
%ADD18R,0.1102X0.063*%
%ADD19R,0.063X0.1102*%
%ADD20R,0.0472X0.0472*%
%ADD21R,0.035X0.055*%
%ADD22R,0.08X0.06*%
%ADD23R,0.4803X0.3839*%
%ADD24R,0.063X0.1378*%
%ADD25R,0.06X0.016*%
%ADD26R,0.016X0.06*%
%ADD27R,0.0118X0.063*%
%ADD28C,0.035*%
%ADD29C,0.02*%
%ADD30C,0.01*%
G04 APERTURE END LIST*
G54D10*
G54D11*
X10203Y2249D02*
X9746Y2020D01*
X10203Y1791D01*
X10432Y2515D02*
X10803Y2515D01*
X10603Y2210D01*
X10689Y2210D01*
X10746Y2172D01*
X10775Y2134D01*
X10803Y2058D01*
X10803Y1868D01*
X10775Y1791D01*
X10746Y1753D01*
X10689Y1715D01*
X10517Y1715D01*
X10460Y1753D01*
X10432Y1791D01*
G54D12*
X11000Y6375D03*
X11000Y5625D03*
X7000Y6825D03*
X7000Y7575D03*
X6000Y6825D03*
X6000Y7575D03*
X2400Y11775D03*
X2400Y11025D03*
G54D13*
X3500Y7500D03*
G54D14*
X3500Y6500D03*
X2500Y7500D03*
X2500Y6500D03*
X1500Y7500D03*
X1500Y6500D03*
G54D13*
X7500Y18500D03*
G54D14*
X8500Y18500D03*
X9500Y18500D03*
X10500Y18500D03*
X11500Y18500D03*
X12500Y18500D03*
G54D13*
X18500Y15000D03*
G54D14*
X18500Y14000D03*
G54D15*
X14984Y13500D03*
X14000Y13500D03*
X13016Y13500D03*
G54D13*
X10000Y10500D03*
G54D14*
X10000Y11500D03*
X10000Y12500D03*
X10000Y13500D03*
G54D13*
X6500Y9000D03*
G54D14*
X5500Y9000D03*
G54D16*
X8065Y4886D03*
X4935Y4886D03*
X4935Y3114D03*
X8065Y3114D03*
G54D17*
X5220Y4000D03*
X7780Y4000D03*
X5220Y2228D03*
X7780Y2228D03*
X6500Y1500D03*
G54D18*
X13154Y2000D03*
X14846Y2000D03*
G54D19*
X15000Y16654D03*
X15000Y18346D03*
G54D20*
X9787Y7400D03*
X10613Y7400D03*
X2400Y13413D03*
X2400Y12587D03*
G54D21*
X5025Y11000D03*
X5775Y11000D03*
X12175Y11000D03*
X11425Y11000D03*
G54D12*
X9500Y6375D03*
X9500Y5625D03*
X2400Y14995D03*
X2400Y14245D03*
G54D21*
X6175Y17520D03*
X5425Y17520D03*
G54D12*
X9055Y14586D03*
X9055Y15336D03*
G54D22*
X8200Y8250D03*
X8200Y6950D03*
G54D23*
X16500Y6593D03*
G54D24*
X17500Y10638D03*
X15500Y10638D03*
G54D25*
X3375Y14375D03*
X3375Y14060D03*
X3375Y13745D03*
X3375Y13430D03*
X3375Y13115D03*
X3375Y12800D03*
X3375Y14690D03*
X3375Y15005D03*
X3375Y15320D03*
X3375Y15635D03*
X3375Y15950D03*
X7875Y14375D03*
X7875Y14060D03*
X7875Y13745D03*
X7875Y13430D03*
X7875Y13115D03*
X7875Y12800D03*
X7875Y14690D03*
X7875Y15005D03*
X7875Y15320D03*
X7875Y15635D03*
X7875Y15950D03*
G54D26*
X5625Y12125D03*
X5625Y16625D03*
X5940Y12125D03*
X5940Y16625D03*
X6255Y16625D03*
X6255Y12125D03*
X6570Y12125D03*
X6570Y16625D03*
X6885Y16625D03*
X6885Y12125D03*
X7200Y12125D03*
X7200Y16625D03*
X5310Y16625D03*
X5310Y12125D03*
X4995Y12125D03*
X4995Y16625D03*
X4680Y16625D03*
X4680Y12125D03*
X4365Y12125D03*
X4365Y16625D03*
X4050Y16625D03*
X4050Y12125D03*
G54D27*
X6800Y11000D03*
X6426Y11000D03*
X7174Y11000D03*
G54D28*
X10200Y6000D03*
X11200Y5000D03*
X10400Y8000D03*
X6300Y6100D03*
X14800Y9900D03*
X4100Y13700D03*
X1800Y13700D03*
X10000Y9600D03*
X7100Y13100D03*
X6300Y13000D03*
X7700Y11800D03*
X8600Y13700D03*
X8700Y13100D03*
X5300Y7100D03*
X6800Y14400D03*
X8400Y12300D03*
X3900Y8900D03*
G54D10*
X5800Y16200D02*
X5200Y16200D01*
X11200Y5000D02*
X13200Y3000D01*
X13200Y3000D02*
X13200Y2000D01*
X13200Y2000D02*
X13154Y2000D01*
X9800Y7400D02*
X10400Y8000D01*
X5300Y13100D02*
X5300Y12100D01*
X3400Y14700D02*
X2700Y14700D01*
X5800Y16500D02*
X5800Y16200D01*
X15500Y10600D02*
X15500Y10638D01*
X5940Y16625D02*
X5900Y16600D01*
X5900Y16600D02*
X6000Y16500D01*
X9787Y7400D02*
X9800Y7400D01*
X3375Y14690D02*
X3400Y14700D01*
X5025Y11000D02*
X5200Y10400D01*
X5940Y16625D02*
X5900Y16600D01*
X5900Y16600D02*
X5800Y16500D01*
X7900Y14400D02*
X7875Y14375D01*
X7800Y14500D02*
X7900Y14400D01*
X6000Y16200D02*
X7400Y14800D01*
X7400Y14800D02*
X7400Y14500D01*
X7400Y14500D02*
X7800Y14500D01*
X5200Y12000D02*
X5200Y11700D01*
X9500Y6400D02*
X9800Y6400D01*
X3400Y14700D02*
X3700Y14700D01*
X3700Y14700D02*
X5300Y13100D01*
X5200Y16200D02*
X3800Y14800D01*
X3800Y14800D02*
X3500Y14800D01*
X3500Y14800D02*
X3400Y14700D01*
X3400Y14700D02*
X3375Y14690D01*
X3375Y14690D02*
X3400Y14700D01*
X6000Y16500D02*
X6000Y16200D01*
X14800Y9900D02*
X15500Y10600D01*
X6300Y6100D02*
X7000Y6800D01*
X7000Y6800D02*
X7000Y6825D01*
X8200Y6950D02*
X8200Y6900D01*
X8200Y6900D02*
X9000Y6900D01*
X5900Y16600D02*
X5940Y16625D01*
X5310Y12125D02*
X5300Y12100D01*
X5300Y12100D02*
X5200Y12000D01*
X9100Y14600D02*
X9055Y14586D01*
X5200Y11700D02*
X5000Y11500D01*
X5000Y11500D02*
X5000Y11000D01*
X5000Y11000D02*
X5025Y11000D01*
X6175Y17520D02*
X6200Y17500D01*
X6200Y17500D02*
X5900Y17200D01*
X5900Y17200D02*
X5900Y16600D01*
X9500Y6400D02*
X9500Y6375D01*
X5200Y10400D02*
X8900Y9500D01*
X8900Y9500D02*
X10400Y8000D01*
X2700Y14700D02*
X2400Y15000D01*
X2400Y15000D02*
X2400Y14995D01*
X9800Y6700D02*
X9800Y7400D01*
X9800Y7400D02*
X9787Y7400D01*
X9000Y6900D02*
X9500Y6400D01*
X7900Y14400D02*
X8900Y14400D01*
X8900Y14400D02*
X9100Y14600D01*
X9500Y6375D02*
X9500Y6400D01*
X9500Y6400D02*
X9800Y6700D01*
X8100Y6800D02*
X8200Y6900D01*
X7000Y6800D02*
X8100Y6800D01*
X7000Y6825D02*
X7000Y6800D01*
X8200Y6900D02*
X8200Y6950D01*
X5300Y12100D02*
X5310Y12125D01*
X7875Y14375D02*
X7900Y14400D01*
X9500Y6375D02*
X9500Y6400D01*
X9800Y6400D02*
X10200Y6000D01*
G54D29*
X14000Y15700D02*
X14000Y13500D01*
X15000Y16700D02*
X14000Y15700D01*
X15000Y16654D02*
X15000Y16700D01*
X17500Y13000D02*
X17500Y10638D01*
X18500Y14000D02*
X17500Y13000D01*
G54D10*
X2100Y13700D02*
X2400Y13400D01*
X3400Y14100D02*
X3700Y14100D01*
X1800Y13700D02*
X2100Y13700D01*
X2400Y13400D02*
X2400Y13413D01*
X3375Y14060D02*
X3400Y14100D01*
X3700Y14100D02*
X4100Y13700D01*
X3375Y14375D02*
X2530Y14375D01*
X2530Y14375D02*
X2400Y14245D01*
X7875Y14690D02*
X8409Y14690D01*
X8409Y14690D02*
X9055Y15336D01*
X5625Y12125D02*
X5625Y11150D01*
X5625Y11150D02*
X5775Y11000D01*
X5625Y16625D02*
X5625Y17320D01*
X5625Y17320D02*
X5425Y17520D01*
X4365Y12125D02*
X4400Y12100D01*
X4400Y12100D02*
X4300Y12000D01*
X4300Y12000D02*
X4300Y11700D01*
X4300Y11700D02*
X3500Y10900D01*
X3500Y10900D02*
X3500Y7500D01*
X3300Y8100D02*
X3300Y11000D01*
X2500Y6500D02*
X3100Y7100D01*
X3100Y7900D02*
X3300Y8100D01*
X3300Y11000D02*
X4100Y11800D01*
X4100Y11800D02*
X4100Y12100D01*
X4100Y12100D02*
X4050Y12125D01*
X3100Y7100D02*
X3100Y7900D01*
X11000Y6375D02*
X11000Y6400D01*
X11000Y6400D02*
X10600Y6800D01*
X10600Y6800D02*
X10600Y7400D01*
X10600Y7400D02*
X10613Y7400D01*
X11000Y7013D02*
X11000Y6375D01*
X11425Y11000D02*
X11400Y11000D01*
X11400Y11000D02*
X10000Y9600D01*
X2400Y11775D02*
X2400Y12587D01*
X7900Y13400D02*
X8100Y13400D01*
X7875Y13430D02*
X7900Y13400D01*
X8200Y13300D02*
X8300Y13300D01*
X8400Y13100D02*
X8400Y12900D01*
X8400Y12900D02*
X8500Y12800D01*
X8300Y13200D02*
X8400Y13100D01*
X8500Y12800D02*
X8700Y12800D01*
X8700Y12800D02*
X10000Y11500D01*
X8300Y13300D02*
X8300Y13200D01*
X8100Y13400D02*
X8200Y13300D01*
X7100Y13100D02*
X7900Y13100D01*
X7900Y13100D02*
X7875Y13115D01*
X8100Y4900D02*
X8065Y4886D01*
X8100Y4300D02*
X8100Y4900D01*
X6000Y6000D02*
X6000Y6825D01*
X4900Y4900D02*
X6000Y6000D01*
X4935Y4886D02*
X4900Y4900D01*
X4900Y4900D02*
X4935Y4886D01*
X7800Y4000D02*
X8100Y4300D01*
X4900Y4300D02*
X4900Y4900D01*
X5200Y4000D02*
X4900Y4300D01*
X7780Y4000D02*
X7800Y4000D01*
X5220Y4000D02*
X5200Y4000D01*
X6426Y11000D02*
X6426Y11228D01*
X5940Y11714D02*
X5940Y12125D01*
X6426Y11228D02*
X5940Y11714D01*
X6300Y12600D02*
X6300Y13000D01*
X6300Y12100D02*
X6300Y12600D01*
X6255Y12125D02*
X6300Y12100D01*
X7200Y11300D02*
X7200Y11000D01*
X7700Y11800D02*
X7200Y11300D01*
X7200Y11000D02*
X7174Y11000D01*
X7900Y14100D02*
X7875Y14060D01*
X8000Y14000D02*
X7900Y14100D01*
X8300Y14000D02*
X8000Y14000D01*
X8600Y13700D02*
X8300Y14000D01*
X7900Y13700D02*
X7875Y13745D01*
X8300Y13700D02*
X7900Y13700D01*
X8300Y13500D02*
X8300Y13700D01*
X8700Y13100D02*
X8300Y13500D01*
X6000Y7575D02*
X6000Y7600D01*
X6000Y7600D02*
X5800Y7600D01*
X6000Y7600D02*
X7000Y7600D01*
X7000Y7600D02*
X7000Y7575D01*
X6000Y7575D02*
X6000Y7600D01*
X5500Y8100D02*
X5500Y9000D01*
X4800Y11600D02*
X5000Y11800D01*
X5000Y11800D02*
X5000Y12100D01*
X5800Y7600D02*
X5300Y7100D01*
X6000Y7600D02*
X5500Y8100D01*
X7000Y7575D02*
X7000Y7600D01*
X4600Y11500D02*
X4800Y11600D01*
X5500Y9000D02*
X4600Y9900D01*
X4600Y9900D02*
X4600Y11500D01*
X6000Y7575D02*
X6000Y7600D01*
X5000Y12100D02*
X4995Y12125D01*
X8200Y8200D02*
X8200Y8250D01*
X7600Y7600D02*
X8200Y8200D01*
X7000Y7600D02*
X7600Y7600D01*
X6570Y12125D02*
X6600Y12600D01*
X6800Y13600D02*
X6800Y14400D01*
X6600Y12600D02*
X6800Y13600D01*
X7900Y12800D02*
X8400Y12300D01*
X7900Y12800D02*
X7200Y12100D01*
X7875Y12800D02*
X7900Y12800D01*
X7875Y12800D02*
X7900Y12800D01*
X7200Y12100D02*
X7200Y12125D01*
X4600Y11700D02*
X4400Y11500D01*
X3900Y8900D02*
X4400Y9500D01*
X4400Y9500D02*
X4400Y11500D01*
X4700Y12100D02*
X4680Y12125D01*
X4700Y11800D02*
X4700Y12100D01*
X4600Y11700D02*
X4700Y11800D01*
X12200Y11000D02*
X12175Y11000D01*
X12500Y18500D02*
X12200Y18200D01*
X12200Y18200D02*
X12200Y11000D01*
X6900Y12100D02*
X6885Y12125D01*
X6900Y11800D02*
X6900Y12100D01*
X7000Y11700D02*
X6900Y11800D01*
X7400Y11700D02*
X7000Y11700D01*
X7400Y12000D02*
X7400Y11700D01*
X7500Y12100D02*
X7400Y12000D01*
X7900Y12100D02*
X7500Y12100D01*
X8900Y11100D02*
X7900Y12100D01*
X10300Y11100D02*
X8900Y11100D01*
X10400Y11200D02*
X10300Y11100D01*
X10400Y17400D02*
X10400Y11200D01*
X11500Y18500D02*
X10400Y17400D01*
G36*
X19450Y550D02*
X19049Y550D01*
X19049Y13891D01*
X19049Y14109D01*
X18965Y14311D01*
X18811Y14465D01*
X18609Y14549D01*
X18498Y14549D01*
X18498Y17301D01*
X18498Y17698D01*
X18346Y18065D01*
X18066Y18346D01*
X17699Y18498D01*
X17302Y18498D01*
X16935Y18346D01*
X16654Y18066D01*
X16502Y17699D01*
X16502Y17302D01*
X16654Y16935D01*
X16934Y16654D01*
X17301Y16502D01*
X17698Y16502D01*
X18065Y16654D01*
X18346Y16934D01*
X18498Y17301D01*
X18498Y14549D01*
X18391Y14549D01*
X18189Y14465D01*
X18035Y14311D01*
X17951Y14109D01*
X17951Y13946D01*
X17253Y13247D01*
X17177Y13134D01*
X17150Y13000D01*
X17150Y11576D01*
X17136Y11576D01*
X17044Y11538D01*
X16974Y11468D01*
X16936Y11377D01*
X16936Y11278D01*
X16936Y9900D01*
X16974Y9808D01*
X17044Y9738D01*
X17135Y9700D01*
X17234Y9700D01*
X17864Y9700D01*
X17956Y9738D01*
X18026Y9808D01*
X18064Y9899D01*
X18064Y9998D01*
X18064Y11376D01*
X18026Y11468D01*
X17956Y11538D01*
X17865Y11576D01*
X17850Y11576D01*
X17850Y12856D01*
X18445Y13451D01*
X18609Y13451D01*
X18811Y13535D01*
X18965Y13689D01*
X19049Y13891D01*
X19049Y550D01*
X18498Y550D01*
X18498Y2301D01*
X18498Y2698D01*
X18346Y3065D01*
X18066Y3346D01*
X17699Y3498D01*
X17302Y3498D01*
X16935Y3346D01*
X16654Y3066D01*
X16502Y2699D01*
X16502Y2302D01*
X16654Y1935D01*
X16934Y1654D01*
X17301Y1502D01*
X17698Y1502D01*
X18065Y1654D01*
X18346Y1934D01*
X18498Y2301D01*
X18498Y550D01*
X16062Y550D01*
X16062Y9900D01*
X16062Y9998D01*
X16062Y11376D01*
X16024Y11467D01*
X15955Y11536D01*
X15864Y11574D01*
X15766Y11574D01*
X15564Y11574D01*
X15564Y16053D01*
X15564Y16152D01*
X15564Y17254D01*
X15526Y17346D01*
X15456Y17416D01*
X15365Y17454D01*
X15266Y17454D01*
X14636Y17454D01*
X14544Y17416D01*
X14474Y17346D01*
X14436Y17255D01*
X14436Y17156D01*
X14436Y16631D01*
X13753Y15947D01*
X13677Y15834D01*
X13650Y15700D01*
X13650Y13976D01*
X13506Y13833D01*
X13346Y13993D01*
X13132Y14082D01*
X12901Y14082D01*
X12687Y13994D01*
X12523Y13830D01*
X12478Y13722D01*
X12478Y17953D01*
X12608Y17953D01*
X12809Y18036D01*
X12963Y18190D01*
X13047Y18390D01*
X13047Y18608D01*
X12964Y18809D01*
X12810Y18963D01*
X12610Y19047D01*
X12392Y19047D01*
X12191Y18964D01*
X12037Y18810D01*
X11999Y18722D01*
X11964Y18809D01*
X11810Y18963D01*
X11610Y19047D01*
X11392Y19047D01*
X11191Y18964D01*
X11037Y18810D01*
X10999Y18722D01*
X10964Y18809D01*
X10810Y18963D01*
X10610Y19047D01*
X10392Y19047D01*
X10191Y18964D01*
X10037Y18810D01*
X9999Y18722D01*
X9964Y18809D01*
X9810Y18963D01*
X9610Y19047D01*
X9392Y19047D01*
X9191Y18964D01*
X9037Y18810D01*
X8953Y18610D01*
X8953Y18392D01*
X9036Y18191D01*
X9190Y18037D01*
X9390Y17953D01*
X9608Y17953D01*
X9809Y18036D01*
X9963Y18190D01*
X10000Y18279D01*
X10036Y18191D01*
X10190Y18037D01*
X10390Y17953D01*
X10559Y17953D01*
X10203Y17597D01*
X10143Y17507D01*
X10121Y17400D01*
X10122Y17396D01*
X10122Y14042D01*
X10110Y14047D01*
X9892Y14047D01*
X9691Y13964D01*
X9537Y13810D01*
X9453Y13610D01*
X9453Y13392D01*
X9536Y13191D01*
X9690Y13037D01*
X9778Y13000D01*
X9691Y12964D01*
X9537Y12810D01*
X9453Y12610D01*
X9453Y12441D01*
X9046Y12848D01*
X9059Y12860D01*
X9123Y13016D01*
X9123Y13184D01*
X9059Y13339D01*
X8948Y13451D01*
X8959Y13460D01*
X9023Y13616D01*
X9023Y13784D01*
X8959Y13939D01*
X8840Y14059D01*
X8686Y14122D01*
X8895Y14122D01*
X8900Y14121D01*
X8900Y14122D01*
X9006Y14143D01*
X9007Y14143D01*
X9037Y14164D01*
X9038Y14164D01*
X9379Y14164D01*
X9470Y14202D01*
X9539Y14271D01*
X9577Y14362D01*
X9577Y14460D01*
X9577Y14810D01*
X9539Y14901D01*
X9470Y14970D01*
X9379Y15008D01*
X9281Y15008D01*
X8731Y15008D01*
X8640Y14970D01*
X8571Y14901D01*
X8533Y14810D01*
X8533Y14712D01*
X8533Y14678D01*
X8281Y14678D01*
X8252Y14690D01*
X8315Y14716D01*
X8384Y14785D01*
X8422Y14876D01*
X8422Y14974D01*
X8422Y15134D01*
X8410Y15163D01*
X8422Y15191D01*
X8422Y15289D01*
X8422Y15449D01*
X8410Y15478D01*
X8422Y15506D01*
X8422Y15604D01*
X8422Y15764D01*
X8410Y15793D01*
X8422Y15821D01*
X8422Y15919D01*
X8422Y16079D01*
X8384Y16170D01*
X8315Y16239D01*
X8224Y16277D01*
X8126Y16277D01*
X7527Y16277D01*
X7527Y16374D01*
X7527Y16974D01*
X7489Y17065D01*
X7420Y17134D01*
X7329Y17172D01*
X7231Y17172D01*
X7071Y17172D01*
X7042Y17161D01*
X7014Y17172D01*
X6916Y17172D01*
X6756Y17172D01*
X6727Y17161D01*
X6699Y17172D01*
X6601Y17172D01*
X6586Y17172D01*
X6597Y17196D01*
X6597Y17294D01*
X6597Y17844D01*
X6559Y17935D01*
X6490Y18004D01*
X6399Y18042D01*
X6301Y18042D01*
X5951Y18042D01*
X5860Y18004D01*
X5791Y17935D01*
X5753Y17844D01*
X5753Y17746D01*
X5753Y17447D01*
X5703Y17397D01*
X5643Y17307D01*
X5621Y17200D01*
X5622Y17196D01*
X5622Y17010D01*
X5599Y17065D01*
X5530Y17134D01*
X5439Y17172D01*
X5341Y17172D01*
X5181Y17172D01*
X5152Y17161D01*
X5124Y17172D01*
X5026Y17172D01*
X4866Y17172D01*
X4837Y17161D01*
X4809Y17172D01*
X4711Y17172D01*
X4551Y17172D01*
X4522Y17161D01*
X4494Y17172D01*
X4396Y17172D01*
X4236Y17172D01*
X4207Y17161D01*
X4179Y17172D01*
X4081Y17172D01*
X3921Y17172D01*
X3830Y17134D01*
X3761Y17065D01*
X3723Y16974D01*
X3723Y16876D01*
X3723Y16277D01*
X3626Y16277D01*
X3498Y16277D01*
X3498Y17301D01*
X3498Y17698D01*
X3346Y18065D01*
X3066Y18346D01*
X2699Y18498D01*
X2302Y18498D01*
X1935Y18346D01*
X1654Y18066D01*
X1502Y17699D01*
X1502Y17302D01*
X1654Y16935D01*
X1934Y16654D01*
X2301Y16502D01*
X2698Y16502D01*
X3065Y16654D01*
X3346Y16934D01*
X3498Y17301D01*
X3498Y16277D01*
X3026Y16277D01*
X2935Y16239D01*
X2866Y16170D01*
X2828Y16079D01*
X2828Y15981D01*
X2828Y15821D01*
X2839Y15793D01*
X2828Y15764D01*
X2828Y15666D01*
X2828Y15506D01*
X2839Y15478D01*
X2828Y15449D01*
X2828Y15366D01*
X2815Y15379D01*
X2724Y15417D01*
X2626Y15417D01*
X2076Y15417D01*
X1985Y15379D01*
X1916Y15310D01*
X1878Y15219D01*
X1878Y15121D01*
X1878Y14771D01*
X1916Y14680D01*
X1985Y14611D01*
X2076Y14573D01*
X2174Y14573D01*
X2433Y14573D01*
X2501Y14506D01*
X2503Y14503D01*
X2593Y14444D01*
X2594Y14443D01*
X2700Y14422D01*
X2914Y14422D01*
X2935Y14401D01*
X2997Y14375D01*
X2935Y14349D01*
X2866Y14280D01*
X2828Y14189D01*
X2828Y14091D01*
X2828Y13931D01*
X2839Y13903D01*
X2828Y13874D01*
X2828Y13806D01*
X2776Y13858D01*
X2685Y13896D01*
X2587Y13896D01*
X2297Y13896D01*
X2297Y13897D01*
X2207Y13957D01*
X2124Y13975D01*
X2040Y14059D01*
X1884Y14123D01*
X1716Y14123D01*
X1561Y14059D01*
X1441Y13940D01*
X1377Y13784D01*
X1377Y13616D01*
X1441Y13461D01*
X1560Y13341D01*
X1716Y13277D01*
X1884Y13277D01*
X1917Y13291D01*
X1917Y13128D01*
X1955Y13037D01*
X1992Y13000D01*
X1955Y12963D01*
X1917Y12872D01*
X1917Y12774D01*
X1917Y12302D01*
X1955Y12211D01*
X2000Y12166D01*
X1985Y12159D01*
X1916Y12090D01*
X1878Y11999D01*
X1878Y11901D01*
X1878Y11551D01*
X1916Y11460D01*
X1985Y11391D01*
X2076Y11353D01*
X2174Y11353D01*
X2724Y11353D01*
X2815Y11391D01*
X2884Y11460D01*
X2922Y11551D01*
X2922Y11649D01*
X2922Y11999D01*
X2884Y12090D01*
X2815Y12159D01*
X2799Y12166D01*
X2845Y12211D01*
X2883Y12302D01*
X2883Y12400D01*
X2883Y12563D01*
X2935Y12511D01*
X3026Y12473D01*
X3124Y12473D01*
X3723Y12473D01*
X3723Y12376D01*
X3723Y11817D01*
X3103Y11197D01*
X3043Y11107D01*
X3021Y11000D01*
X3022Y10996D01*
X3022Y8216D01*
X2903Y8097D01*
X2843Y8007D01*
X2829Y7944D01*
X2810Y7963D01*
X2610Y8047D01*
X2392Y8047D01*
X2191Y7964D01*
X2037Y7810D01*
X1999Y7722D01*
X1964Y7809D01*
X1810Y7963D01*
X1610Y8047D01*
X1392Y8047D01*
X1191Y7964D01*
X1037Y7810D01*
X953Y7610D01*
X953Y7392D01*
X1036Y7191D01*
X1190Y7037D01*
X1390Y6953D01*
X1608Y6953D01*
X1809Y7036D01*
X1963Y7190D01*
X2000Y7279D01*
X2036Y7191D01*
X2190Y7037D01*
X2278Y7000D01*
X2191Y6964D01*
X2037Y6810D01*
X1953Y6610D01*
X1953Y6392D01*
X2036Y6191D01*
X2190Y6037D01*
X2390Y5953D01*
X2608Y5953D01*
X2809Y6036D01*
X2963Y6190D01*
X3000Y6279D01*
X3036Y6191D01*
X3190Y6037D01*
X3390Y5953D01*
X3608Y5953D01*
X3809Y6036D01*
X3963Y6190D01*
X4047Y6390D01*
X4047Y6608D01*
X3964Y6809D01*
X3820Y6953D01*
X3849Y6953D01*
X3940Y6991D01*
X4009Y7060D01*
X4047Y7151D01*
X4047Y7249D01*
X4047Y7849D01*
X4009Y7940D01*
X3940Y8009D01*
X3849Y8047D01*
X3778Y8047D01*
X3778Y8493D01*
X3816Y8477D01*
X3984Y8477D01*
X4139Y8541D01*
X4259Y8660D01*
X4323Y8816D01*
X4323Y8973D01*
X4597Y9303D01*
X4614Y9322D01*
X4633Y9359D01*
X4657Y9394D01*
X4659Y9407D01*
X4665Y9417D01*
X4667Y9439D01*
X4965Y9141D01*
X4953Y9110D01*
X4953Y8892D01*
X5036Y8691D01*
X5190Y8537D01*
X5222Y8524D01*
X5222Y8105D01*
X5221Y8100D01*
X5243Y7993D01*
X5303Y7903D01*
X5478Y7728D01*
X5478Y7701D01*
X5478Y7672D01*
X5329Y7523D01*
X5216Y7523D01*
X5061Y7459D01*
X4941Y7340D01*
X4877Y7184D01*
X4877Y7016D01*
X4941Y6861D01*
X5060Y6741D01*
X5216Y6677D01*
X5384Y6677D01*
X5478Y6716D01*
X5478Y6601D01*
X5516Y6510D01*
X5585Y6441D01*
X5676Y6403D01*
X5722Y6403D01*
X5722Y6116D01*
X4995Y5389D01*
X4276Y5389D01*
X4185Y5351D01*
X4116Y5282D01*
X4078Y5191D01*
X4078Y5093D01*
X4078Y4581D01*
X4116Y4490D01*
X4185Y4421D01*
X4276Y4383D01*
X4374Y4383D01*
X4622Y4383D01*
X4622Y4305D01*
X4621Y4300D01*
X4643Y4193D01*
X4646Y4188D01*
X4619Y4120D01*
X4619Y3881D01*
X4710Y3660D01*
X4879Y3491D01*
X5100Y3399D01*
X5339Y3399D01*
X5560Y3490D01*
X5729Y3659D01*
X5821Y3880D01*
X5821Y4119D01*
X5730Y4340D01*
X5659Y4411D01*
X5685Y4421D01*
X5754Y4490D01*
X5792Y4581D01*
X5792Y4679D01*
X5792Y5191D01*
X5754Y5282D01*
X5714Y5322D01*
X6112Y5720D01*
X6216Y5677D01*
X6384Y5677D01*
X6539Y5741D01*
X6659Y5860D01*
X6723Y6016D01*
X6723Y6130D01*
X6996Y6403D01*
X7324Y6403D01*
X7415Y6441D01*
X7484Y6510D01*
X7489Y6522D01*
X7585Y6522D01*
X7591Y6510D01*
X7660Y6441D01*
X7751Y6403D01*
X7849Y6403D01*
X8649Y6403D01*
X8740Y6441D01*
X8809Y6510D01*
X8847Y6601D01*
X8847Y6622D01*
X8884Y6622D01*
X8978Y6528D01*
X8978Y6501D01*
X8978Y6151D01*
X9016Y6060D01*
X9085Y5991D01*
X9176Y5953D01*
X9274Y5953D01*
X9777Y5953D01*
X9777Y5916D01*
X9841Y5761D01*
X9960Y5641D01*
X10116Y5577D01*
X10284Y5577D01*
X10439Y5641D01*
X10559Y5760D01*
X10623Y5916D01*
X10623Y5976D01*
X10676Y5953D01*
X10774Y5953D01*
X11324Y5953D01*
X11415Y5991D01*
X11484Y6060D01*
X11522Y6151D01*
X11522Y6249D01*
X11522Y6599D01*
X11484Y6690D01*
X11415Y6759D01*
X11324Y6797D01*
X11278Y6797D01*
X11278Y7013D01*
X11257Y7119D01*
X11197Y7210D01*
X11106Y7270D01*
X11096Y7272D01*
X11096Y7685D01*
X11058Y7776D01*
X10989Y7845D01*
X10898Y7883D01*
X10809Y7883D01*
X10823Y7916D01*
X10823Y8084D01*
X10759Y8239D01*
X10640Y8359D01*
X10484Y8423D01*
X10370Y8423D01*
X9097Y9697D01*
X9071Y9715D01*
X9063Y9723D01*
X9046Y9731D01*
X9007Y9757D01*
X8974Y9764D01*
X8965Y9768D01*
X5427Y10631D01*
X5447Y10676D01*
X5447Y10774D01*
X5447Y11324D01*
X5409Y11415D01*
X5358Y11466D01*
X5394Y11502D01*
X5396Y11503D01*
X5397Y11503D01*
X5449Y11583D01*
X5530Y11616D01*
X5599Y11685D01*
X5625Y11748D01*
X5651Y11685D01*
X5671Y11665D01*
X5683Y11607D01*
X5743Y11517D01*
X6120Y11141D01*
X6120Y10636D01*
X6158Y10545D01*
X6227Y10476D01*
X6318Y10438D01*
X6416Y10438D01*
X6534Y10438D01*
X6625Y10476D01*
X6694Y10545D01*
X6732Y10636D01*
X6732Y10734D01*
X6732Y11364D01*
X6694Y11455D01*
X6625Y11524D01*
X6534Y11562D01*
X6485Y11562D01*
X6469Y11578D01*
X6539Y11578D01*
X6699Y11578D01*
X6719Y11587D01*
X6801Y11506D01*
X6803Y11503D01*
X6893Y11444D01*
X6894Y11443D01*
X6900Y11442D01*
X6868Y11364D01*
X6868Y11266D01*
X6868Y10636D01*
X6906Y10545D01*
X6975Y10476D01*
X7066Y10438D01*
X7164Y10438D01*
X7282Y10438D01*
X7373Y10476D01*
X7442Y10545D01*
X7480Y10636D01*
X7480Y10734D01*
X7480Y11186D01*
X7671Y11377D01*
X7784Y11377D01*
X7939Y11441D01*
X8052Y11554D01*
X8701Y10906D01*
X8703Y10903D01*
X8757Y10868D01*
X8793Y10843D01*
X8794Y10843D01*
X8900Y10822D01*
X9453Y10822D01*
X9453Y10751D01*
X9453Y10151D01*
X9491Y10060D01*
X9560Y9991D01*
X9651Y9953D01*
X9749Y9953D01*
X9754Y9953D01*
X9641Y9840D01*
X9577Y9684D01*
X9577Y9516D01*
X9641Y9361D01*
X9760Y9241D01*
X9916Y9177D01*
X10084Y9177D01*
X10239Y9241D01*
X10359Y9360D01*
X10423Y9516D01*
X10423Y9630D01*
X11271Y10478D01*
X11299Y10478D01*
X11649Y10478D01*
X11740Y10516D01*
X11800Y10576D01*
X11860Y10516D01*
X11951Y10478D01*
X12049Y10478D01*
X12399Y10478D01*
X12490Y10516D01*
X12559Y10585D01*
X12597Y10676D01*
X12597Y10774D01*
X12597Y11324D01*
X12559Y11415D01*
X12490Y11484D01*
X12478Y11490D01*
X12478Y13278D01*
X12522Y13171D01*
X12686Y13007D01*
X12900Y12918D01*
X13131Y12918D01*
X13345Y13006D01*
X13506Y13168D01*
X13669Y13005D01*
X13884Y12916D01*
X14116Y12916D01*
X14331Y13005D01*
X14495Y13169D01*
X14584Y13384D01*
X14584Y13616D01*
X14495Y13831D01*
X14350Y13976D01*
X14350Y15556D01*
X14648Y15854D01*
X14734Y15854D01*
X15364Y15854D01*
X15456Y15892D01*
X15526Y15962D01*
X15564Y16053D01*
X15564Y11574D01*
X15136Y11574D01*
X15045Y11536D01*
X14976Y11467D01*
X14938Y11376D01*
X14938Y11278D01*
X14938Y10432D01*
X14829Y10323D01*
X14716Y10323D01*
X14561Y10259D01*
X14441Y10140D01*
X14377Y9984D01*
X14377Y9816D01*
X14441Y9661D01*
X14560Y9541D01*
X14716Y9477D01*
X14884Y9477D01*
X15039Y9541D01*
X15159Y9660D01*
X15176Y9702D01*
X15234Y9702D01*
X15864Y9702D01*
X15955Y9740D01*
X16024Y9809D01*
X16062Y9900D01*
X16062Y550D01*
X13952Y550D01*
X13952Y1636D01*
X13952Y1734D01*
X13952Y2364D01*
X13914Y2455D01*
X13845Y2524D01*
X13754Y2562D01*
X13656Y2562D01*
X13478Y2562D01*
X13478Y3000D01*
X13457Y3106D01*
X13456Y3107D01*
X13397Y3197D01*
X13394Y3199D01*
X11623Y4971D01*
X11623Y5084D01*
X11559Y5239D01*
X11440Y5359D01*
X11284Y5423D01*
X11116Y5423D01*
X10961Y5359D01*
X10841Y5240D01*
X10777Y5084D01*
X10777Y4916D01*
X10841Y4761D01*
X10960Y4641D01*
X11116Y4577D01*
X11229Y4577D01*
X12922Y2885D01*
X12922Y2562D01*
X12554Y2562D01*
X12463Y2524D01*
X12394Y2455D01*
X12356Y2364D01*
X12356Y2266D01*
X12356Y1636D01*
X12394Y1545D01*
X12463Y1476D01*
X12554Y1438D01*
X12652Y1438D01*
X13754Y1438D01*
X13845Y1476D01*
X13914Y1545D01*
X13952Y1636D01*
X13952Y550D01*
X11225Y550D01*
X11225Y1171D01*
X11225Y3027D01*
X9295Y3027D01*
X9295Y1171D01*
X11225Y1171D01*
X11225Y550D01*
X8922Y550D01*
X8922Y4581D01*
X8922Y4679D01*
X8922Y5191D01*
X8884Y5282D01*
X8815Y5351D01*
X8724Y5389D01*
X8626Y5389D01*
X7406Y5389D01*
X7315Y5351D01*
X7246Y5282D01*
X7208Y5191D01*
X7208Y5093D01*
X7208Y4581D01*
X7246Y4490D01*
X7315Y4421D01*
X7340Y4411D01*
X7271Y4341D01*
X7179Y4120D01*
X7179Y3881D01*
X7270Y3660D01*
X7439Y3491D01*
X7660Y3399D01*
X7899Y3399D01*
X8120Y3490D01*
X8289Y3659D01*
X8381Y3880D01*
X8381Y4119D01*
X8352Y4188D01*
X8356Y4193D01*
X8357Y4194D01*
X8378Y4300D01*
X8378Y4383D01*
X8724Y4383D01*
X8815Y4421D01*
X8884Y4490D01*
X8922Y4581D01*
X8922Y550D01*
X3498Y550D01*
X3498Y2301D01*
X3498Y2698D01*
X3346Y3065D01*
X3066Y3346D01*
X2699Y3498D01*
X2302Y3498D01*
X1935Y3346D01*
X1654Y3066D01*
X1502Y2699D01*
X1502Y2302D01*
X1654Y1935D01*
X1934Y1654D01*
X2301Y1502D01*
X2698Y1502D01*
X3065Y1654D01*
X3346Y1934D01*
X3498Y2301D01*
X3498Y550D01*
X550Y550D01*
X550Y19450D01*
X19450Y19450D01*
X19450Y550D01*
X19450Y550D01*
G37*
G54D30*
X19450Y550D02*
X19049Y550D01*
X19049Y13891D01*
X19049Y14109D01*
X18965Y14311D01*
X18811Y14465D01*
X18609Y14549D01*
X18498Y14549D01*
X18498Y17301D01*
X18498Y17698D01*
X18346Y18065D01*
X18066Y18346D01*
X17699Y18498D01*
X17302Y18498D01*
X16935Y18346D01*
X16654Y18066D01*
X16502Y17699D01*
X16502Y17302D01*
X16654Y16935D01*
X16934Y16654D01*
X17301Y16502D01*
X17698Y16502D01*
X18065Y16654D01*
X18346Y16934D01*
X18498Y17301D01*
X18498Y14549D01*
X18391Y14549D01*
X18189Y14465D01*
X18035Y14311D01*
X17951Y14109D01*
X17951Y13946D01*
X17253Y13247D01*
X17177Y13134D01*
X17150Y13000D01*
X17150Y11576D01*
X17136Y11576D01*
X17044Y11538D01*
X16974Y11468D01*
X16936Y11377D01*
X16936Y11278D01*
X16936Y9900D01*
X16974Y9808D01*
X17044Y9738D01*
X17135Y9700D01*
X17234Y9700D01*
X17864Y9700D01*
X17956Y9738D01*
X18026Y9808D01*
X18064Y9899D01*
X18064Y9998D01*
X18064Y11376D01*
X18026Y11468D01*
X17956Y11538D01*
X17865Y11576D01*
X17850Y11576D01*
X17850Y12856D01*
X18445Y13451D01*
X18609Y13451D01*
X18811Y13535D01*
X18965Y13689D01*
X19049Y13891D01*
X19049Y550D01*
X18498Y550D01*
X18498Y2301D01*
X18498Y2698D01*
X18346Y3065D01*
X18066Y3346D01*
X17699Y3498D01*
X17302Y3498D01*
X16935Y3346D01*
X16654Y3066D01*
X16502Y2699D01*
X16502Y2302D01*
X16654Y1935D01*
X16934Y1654D01*
X17301Y1502D01*
X17698Y1502D01*
X18065Y1654D01*
X18346Y1934D01*
X18498Y2301D01*
X18498Y550D01*
X16062Y550D01*
X16062Y9900D01*
X16062Y9998D01*
X16062Y11376D01*
X16024Y11467D01*
X15955Y11536D01*
X15864Y11574D01*
X15766Y11574D01*
X15564Y11574D01*
X15564Y16053D01*
X15564Y16152D01*
X15564Y17254D01*
X15526Y17346D01*
X15456Y17416D01*
X15365Y17454D01*
X15266Y17454D01*
X14636Y17454D01*
X14544Y17416D01*
X14474Y17346D01*
X14436Y17255D01*
X14436Y17156D01*
X14436Y16631D01*
X13753Y15947D01*
X13677Y15834D01*
X13650Y15700D01*
X13650Y13976D01*
X13506Y13833D01*
X13346Y13993D01*
X13132Y14082D01*
X12901Y14082D01*
X12687Y13994D01*
X12523Y13830D01*
X12478Y13722D01*
X12478Y17953D01*
X12608Y17953D01*
X12809Y18036D01*
X12963Y18190D01*
X13047Y18390D01*
X13047Y18608D01*
X12964Y18809D01*
X12810Y18963D01*
X12610Y19047D01*
X12392Y19047D01*
X12191Y18964D01*
X12037Y18810D01*
X11999Y18722D01*
X11964Y18809D01*
X11810Y18963D01*
X11610Y19047D01*
X11392Y19047D01*
X11191Y18964D01*
X11037Y18810D01*
X10999Y18722D01*
X10964Y18809D01*
X10810Y18963D01*
X10610Y19047D01*
X10392Y19047D01*
X10191Y18964D01*
X10037Y18810D01*
X9999Y18722D01*
X9964Y18809D01*
X9810Y18963D01*
X9610Y19047D01*
X9392Y19047D01*
X9191Y18964D01*
X9037Y18810D01*
X8953Y18610D01*
X8953Y18392D01*
X9036Y18191D01*
X9190Y18037D01*
X9390Y17953D01*
X9608Y17953D01*
X9809Y18036D01*
X9963Y18190D01*
X10000Y18279D01*
X10036Y18191D01*
X10190Y18037D01*
X10390Y17953D01*
X10559Y17953D01*
X10203Y17597D01*
X10143Y17507D01*
X10121Y17400D01*
X10122Y17396D01*
X10122Y14042D01*
X10110Y14047D01*
X9892Y14047D01*
X9691Y13964D01*
X9537Y13810D01*
X9453Y13610D01*
X9453Y13392D01*
X9536Y13191D01*
X9690Y13037D01*
X9778Y13000D01*
X9691Y12964D01*
X9537Y12810D01*
X9453Y12610D01*
X9453Y12441D01*
X9046Y12848D01*
X9059Y12860D01*
X9123Y13016D01*
X9123Y13184D01*
X9059Y13339D01*
X8948Y13451D01*
X8959Y13460D01*
X9023Y13616D01*
X9023Y13784D01*
X8959Y13939D01*
X8840Y14059D01*
X8686Y14122D01*
X8895Y14122D01*
X8900Y14121D01*
X8900Y14122D01*
X9006Y14143D01*
X9007Y14143D01*
X9037Y14164D01*
X9038Y14164D01*
X9379Y14164D01*
X9470Y14202D01*
X9539Y14271D01*
X9577Y14362D01*
X9577Y14460D01*
X9577Y14810D01*
X9539Y14901D01*
X9470Y14970D01*
X9379Y15008D01*
X9281Y15008D01*
X8731Y15008D01*
X8640Y14970D01*
X8571Y14901D01*
X8533Y14810D01*
X8533Y14712D01*
X8533Y14678D01*
X8281Y14678D01*
X8252Y14690D01*
X8315Y14716D01*
X8384Y14785D01*
X8422Y14876D01*
X8422Y14974D01*
X8422Y15134D01*
X8410Y15163D01*
X8422Y15191D01*
X8422Y15289D01*
X8422Y15449D01*
X8410Y15478D01*
X8422Y15506D01*
X8422Y15604D01*
X8422Y15764D01*
X8410Y15793D01*
X8422Y15821D01*
X8422Y15919D01*
X8422Y16079D01*
X8384Y16170D01*
X8315Y16239D01*
X8224Y16277D01*
X8126Y16277D01*
X7527Y16277D01*
X7527Y16374D01*
X7527Y16974D01*
X7489Y17065D01*
X7420Y17134D01*
X7329Y17172D01*
X7231Y17172D01*
X7071Y17172D01*
X7042Y17161D01*
X7014Y17172D01*
X6916Y17172D01*
X6756Y17172D01*
X6727Y17161D01*
X6699Y17172D01*
X6601Y17172D01*
X6586Y17172D01*
X6597Y17196D01*
X6597Y17294D01*
X6597Y17844D01*
X6559Y17935D01*
X6490Y18004D01*
X6399Y18042D01*
X6301Y18042D01*
X5951Y18042D01*
X5860Y18004D01*
X5791Y17935D01*
X5753Y17844D01*
X5753Y17746D01*
X5753Y17447D01*
X5703Y17397D01*
X5643Y17307D01*
X5621Y17200D01*
X5622Y17196D01*
X5622Y17010D01*
X5599Y17065D01*
X5530Y17134D01*
X5439Y17172D01*
X5341Y17172D01*
X5181Y17172D01*
X5152Y17161D01*
X5124Y17172D01*
X5026Y17172D01*
X4866Y17172D01*
X4837Y17161D01*
X4809Y17172D01*
X4711Y17172D01*
X4551Y17172D01*
X4522Y17161D01*
X4494Y17172D01*
X4396Y17172D01*
X4236Y17172D01*
X4207Y17161D01*
X4179Y17172D01*
X4081Y17172D01*
X3921Y17172D01*
X3830Y17134D01*
X3761Y17065D01*
X3723Y16974D01*
X3723Y16876D01*
X3723Y16277D01*
X3626Y16277D01*
X3498Y16277D01*
X3498Y17301D01*
X3498Y17698D01*
X3346Y18065D01*
X3066Y18346D01*
X2699Y18498D01*
X2302Y18498D01*
X1935Y18346D01*
X1654Y18066D01*
X1502Y17699D01*
X1502Y17302D01*
X1654Y16935D01*
X1934Y16654D01*
X2301Y16502D01*
X2698Y16502D01*
X3065Y16654D01*
X3346Y16934D01*
X3498Y17301D01*
X3498Y16277D01*
X3026Y16277D01*
X2935Y16239D01*
X2866Y16170D01*
X2828Y16079D01*
X2828Y15981D01*
X2828Y15821D01*
X2839Y15793D01*
X2828Y15764D01*
X2828Y15666D01*
X2828Y15506D01*
X2839Y15478D01*
X2828Y15449D01*
X2828Y15366D01*
X2815Y15379D01*
X2724Y15417D01*
X2626Y15417D01*
X2076Y15417D01*
X1985Y15379D01*
X1916Y15310D01*
X1878Y15219D01*
X1878Y15121D01*
X1878Y14771D01*
X1916Y14680D01*
X1985Y14611D01*
X2076Y14573D01*
X2174Y14573D01*
X2433Y14573D01*
X2501Y14506D01*
X2503Y14503D01*
X2593Y14444D01*
X2594Y14443D01*
X2700Y14422D01*
X2914Y14422D01*
X2935Y14401D01*
X2997Y14375D01*
X2935Y14349D01*
X2866Y14280D01*
X2828Y14189D01*
X2828Y14091D01*
X2828Y13931D01*
X2839Y13903D01*
X2828Y13874D01*
X2828Y13806D01*
X2776Y13858D01*
X2685Y13896D01*
X2587Y13896D01*
X2297Y13896D01*
X2297Y13897D01*
X2207Y13957D01*
X2124Y13975D01*
X2040Y14059D01*
X1884Y14123D01*
X1716Y14123D01*
X1561Y14059D01*
X1441Y13940D01*
X1377Y13784D01*
X1377Y13616D01*
X1441Y13461D01*
X1560Y13341D01*
X1716Y13277D01*
X1884Y13277D01*
X1917Y13291D01*
X1917Y13128D01*
X1955Y13037D01*
X1992Y13000D01*
X1955Y12963D01*
X1917Y12872D01*
X1917Y12774D01*
X1917Y12302D01*
X1955Y12211D01*
X2000Y12166D01*
X1985Y12159D01*
X1916Y12090D01*
X1878Y11999D01*
X1878Y11901D01*
X1878Y11551D01*
X1916Y11460D01*
X1985Y11391D01*
X2076Y11353D01*
X2174Y11353D01*
X2724Y11353D01*
X2815Y11391D01*
X2884Y11460D01*
X2922Y11551D01*
X2922Y11649D01*
X2922Y11999D01*
X2884Y12090D01*
X2815Y12159D01*
X2799Y12166D01*
X2845Y12211D01*
X2883Y12302D01*
X2883Y12400D01*
X2883Y12563D01*
X2935Y12511D01*
X3026Y12473D01*
X3124Y12473D01*
X3723Y12473D01*
X3723Y12376D01*
X3723Y11817D01*
X3103Y11197D01*
X3043Y11107D01*
X3021Y11000D01*
X3022Y10996D01*
X3022Y8216D01*
X2903Y8097D01*
X2843Y8007D01*
X2829Y7944D01*
X2810Y7963D01*
X2610Y8047D01*
X2392Y8047D01*
X2191Y7964D01*
X2037Y7810D01*
X1999Y7722D01*
X1964Y7809D01*
X1810Y7963D01*
X1610Y8047D01*
X1392Y8047D01*
X1191Y7964D01*
X1037Y7810D01*
X953Y7610D01*
X953Y7392D01*
X1036Y7191D01*
X1190Y7037D01*
X1390Y6953D01*
X1608Y6953D01*
X1809Y7036D01*
X1963Y7190D01*
X2000Y7279D01*
X2036Y7191D01*
X2190Y7037D01*
X2278Y7000D01*
X2191Y6964D01*
X2037Y6810D01*
X1953Y6610D01*
X1953Y6392D01*
X2036Y6191D01*
X2190Y6037D01*
X2390Y5953D01*
X2608Y5953D01*
X2809Y6036D01*
X2963Y6190D01*
X3000Y6279D01*
X3036Y6191D01*
X3190Y6037D01*
X3390Y5953D01*
X3608Y5953D01*
X3809Y6036D01*
X3963Y6190D01*
X4047Y6390D01*
X4047Y6608D01*
X3964Y6809D01*
X3820Y6953D01*
X3849Y6953D01*
X3940Y6991D01*
X4009Y7060D01*
X4047Y7151D01*
X4047Y7249D01*
X4047Y7849D01*
X4009Y7940D01*
X3940Y8009D01*
X3849Y8047D01*
X3778Y8047D01*
X3778Y8493D01*
X3816Y8477D01*
X3984Y8477D01*
X4139Y8541D01*
X4259Y8660D01*
X4323Y8816D01*
X4323Y8973D01*
X4597Y9303D01*
X4614Y9322D01*
X4633Y9359D01*
X4657Y9394D01*
X4659Y9407D01*
X4665Y9417D01*
X4667Y9439D01*
X4965Y9141D01*
X4953Y9110D01*
X4953Y8892D01*
X5036Y8691D01*
X5190Y8537D01*
X5222Y8524D01*
X5222Y8105D01*
X5221Y8100D01*
X5243Y7993D01*
X5303Y7903D01*
X5478Y7728D01*
X5478Y7701D01*
X5478Y7672D01*
X5329Y7523D01*
X5216Y7523D01*
X5061Y7459D01*
X4941Y7340D01*
X4877Y7184D01*
X4877Y7016D01*
X4941Y6861D01*
X5060Y6741D01*
X5216Y6677D01*
X5384Y6677D01*
X5478Y6716D01*
X5478Y6601D01*
X5516Y6510D01*
X5585Y6441D01*
X5676Y6403D01*
X5722Y6403D01*
X5722Y6116D01*
X4995Y5389D01*
X4276Y5389D01*
X4185Y5351D01*
X4116Y5282D01*
X4078Y5191D01*
X4078Y5093D01*
X4078Y4581D01*
X4116Y4490D01*
X4185Y4421D01*
X4276Y4383D01*
X4374Y4383D01*
X4622Y4383D01*
X4622Y4305D01*
X4621Y4300D01*
X4643Y4193D01*
X4646Y4188D01*
X4619Y4120D01*
X4619Y3881D01*
X4710Y3660D01*
X4879Y3491D01*
X5100Y3399D01*
X5339Y3399D01*
X5560Y3490D01*
X5729Y3659D01*
X5821Y3880D01*
X5821Y4119D01*
X5730Y4340D01*
X5659Y4411D01*
X5685Y4421D01*
X5754Y4490D01*
X5792Y4581D01*
X5792Y4679D01*
X5792Y5191D01*
X5754Y5282D01*
X5714Y5322D01*
X6112Y5720D01*
X6216Y5677D01*
X6384Y5677D01*
X6539Y5741D01*
X6659Y5860D01*
X6723Y6016D01*
X6723Y6130D01*
X6996Y6403D01*
X7324Y6403D01*
X7415Y6441D01*
X7484Y6510D01*
X7489Y6522D01*
X7585Y6522D01*
X7591Y6510D01*
X7660Y6441D01*
X7751Y6403D01*
X7849Y6403D01*
X8649Y6403D01*
X8740Y6441D01*
X8809Y6510D01*
X8847Y6601D01*
X8847Y6622D01*
X8884Y6622D01*
X8978Y6528D01*
X8978Y6501D01*
X8978Y6151D01*
X9016Y6060D01*
X9085Y5991D01*
X9176Y5953D01*
X9274Y5953D01*
X9777Y5953D01*
X9777Y5916D01*
X9841Y5761D01*
X9960Y5641D01*
X10116Y5577D01*
X10284Y5577D01*
X10439Y5641D01*
X10559Y5760D01*
X10623Y5916D01*
X10623Y5976D01*
X10676Y5953D01*
X10774Y5953D01*
X11324Y5953D01*
X11415Y5991D01*
X11484Y6060D01*
X11522Y6151D01*
X11522Y6249D01*
X11522Y6599D01*
X11484Y6690D01*
X11415Y6759D01*
X11324Y6797D01*
X11278Y6797D01*
X11278Y7013D01*
X11257Y7119D01*
X11197Y7210D01*
X11106Y7270D01*
X11096Y7272D01*
X11096Y7685D01*
X11058Y7776D01*
X10989Y7845D01*
X10898Y7883D01*
X10809Y7883D01*
X10823Y7916D01*
X10823Y8084D01*
X10759Y8239D01*
X10640Y8359D01*
X10484Y8423D01*
X10370Y8423D01*
X9097Y9697D01*
X9071Y9715D01*
X9063Y9723D01*
X9046Y9731D01*
X9007Y9757D01*
X8974Y9764D01*
X8965Y9768D01*
X5427Y10631D01*
X5447Y10676D01*
X5447Y10774D01*
X5447Y11324D01*
X5409Y11415D01*
X5358Y11466D01*
X5394Y11502D01*
X5396Y11503D01*
X5397Y11503D01*
X5449Y11583D01*
X5530Y11616D01*
X5599Y11685D01*
X5625Y11748D01*
X5651Y11685D01*
X5671Y11665D01*
X5683Y11607D01*
X5743Y11517D01*
X6120Y11141D01*
X6120Y10636D01*
X6158Y10545D01*
X6227Y10476D01*
X6318Y10438D01*
X6416Y10438D01*
X6534Y10438D01*
X6625Y10476D01*
X6694Y10545D01*
X6732Y10636D01*
X6732Y10734D01*
X6732Y11364D01*
X6694Y11455D01*
X6625Y11524D01*
X6534Y11562D01*
X6485Y11562D01*
X6469Y11578D01*
X6539Y11578D01*
X6699Y11578D01*
X6719Y11587D01*
X6801Y11506D01*
X6803Y11503D01*
X6893Y11444D01*
X6894Y11443D01*
X6900Y11442D01*
X6868Y11364D01*
X6868Y11266D01*
X6868Y10636D01*
X6906Y10545D01*
X6975Y10476D01*
X7066Y10438D01*
X7164Y10438D01*
X7282Y10438D01*
X7373Y10476D01*
X7442Y10545D01*
X7480Y10636D01*
X7480Y10734D01*
X7480Y11186D01*
X7671Y11377D01*
X7784Y11377D01*
X7939Y11441D01*
X8052Y11554D01*
X8701Y10906D01*
X8703Y10903D01*
X8757Y10868D01*
X8793Y10843D01*
X8794Y10843D01*
X8900Y10822D01*
X9453Y10822D01*
X9453Y10751D01*
X9453Y10151D01*
X9491Y10060D01*
X9560Y9991D01*
X9651Y9953D01*
X9749Y9953D01*
X9754Y9953D01*
X9641Y9840D01*
X9577Y9684D01*
X9577Y9516D01*
X9641Y9361D01*
X9760Y9241D01*
X9916Y9177D01*
X10084Y9177D01*
X10239Y9241D01*
X10359Y9360D01*
X10423Y9516D01*
X10423Y9630D01*
X11271Y10478D01*
X11299Y10478D01*
X11649Y10478D01*
X11740Y10516D01*
X11800Y10576D01*
X11860Y10516D01*
X11951Y10478D01*
X12049Y10478D01*
X12399Y10478D01*
X12490Y10516D01*
X12559Y10585D01*
X12597Y10676D01*
X12597Y10774D01*
X12597Y11324D01*
X12559Y11415D01*
X12490Y11484D01*
X12478Y11490D01*
X12478Y13278D01*
X12522Y13171D01*
X12686Y13007D01*
X12900Y12918D01*
X13131Y12918D01*
X13345Y13006D01*
X13506Y13168D01*
X13669Y13005D01*
X13884Y12916D01*
X14116Y12916D01*
X14331Y13005D01*
X14495Y13169D01*
X14584Y13384D01*
X14584Y13616D01*
X14495Y13831D01*
X14350Y13976D01*
X14350Y15556D01*
X14648Y15854D01*
X14734Y15854D01*
X15364Y15854D01*
X15456Y15892D01*
X15526Y15962D01*
X15564Y16053D01*
X15564Y11574D01*
X15136Y11574D01*
X15045Y11536D01*
X14976Y11467D01*
X14938Y11376D01*
X14938Y11278D01*
X14938Y10432D01*
X14829Y10323D01*
X14716Y10323D01*
X14561Y10259D01*
X14441Y10140D01*
X14377Y9984D01*
X14377Y9816D01*
X14441Y9661D01*
X14560Y9541D01*
X14716Y9477D01*
X14884Y9477D01*
X15039Y9541D01*
X15159Y9660D01*
X15176Y9702D01*
X15234Y9702D01*
X15864Y9702D01*
X15955Y9740D01*
X16024Y9809D01*
X16062Y9900D01*
X16062Y550D01*
X13952Y550D01*
X13952Y1636D01*
X13952Y1734D01*
X13952Y2364D01*
X13914Y2455D01*
X13845Y2524D01*
X13754Y2562D01*
X13656Y2562D01*
X13478Y2562D01*
X13478Y3000D01*
X13457Y3106D01*
X13456Y3107D01*
X13397Y3197D01*
X13394Y3199D01*
X11623Y4971D01*
X11623Y5084D01*
X11559Y5239D01*
X11440Y5359D01*
X11284Y5423D01*
X11116Y5423D01*
X10961Y5359D01*
X10841Y5240D01*
X10777Y5084D01*
X10777Y4916D01*
X10841Y4761D01*
X10960Y4641D01*
X11116Y4577D01*
X11229Y4577D01*
X12922Y2885D01*
X12922Y2562D01*
X12554Y2562D01*
X12463Y2524D01*
X12394Y2455D01*
X12356Y2364D01*
X12356Y2266D01*
X12356Y1636D01*
X12394Y1545D01*
X12463Y1476D01*
X12554Y1438D01*
X12652Y1438D01*
X13754Y1438D01*
X13845Y1476D01*
X13914Y1545D01*
X13952Y1636D01*
X13952Y550D01*
X11225Y550D01*
X11225Y1171D01*
X11225Y3027D01*
X9295Y3027D01*
X9295Y1171D01*
X11225Y1171D01*
X11225Y550D01*
X8922Y550D01*
X8922Y4581D01*
X8922Y4679D01*
X8922Y5191D01*
X8884Y5282D01*
X8815Y5351D01*
X8724Y5389D01*
X8626Y5389D01*
X7406Y5389D01*
X7315Y5351D01*
X7246Y5282D01*
X7208Y5191D01*
X7208Y5093D01*
X7208Y4581D01*
X7246Y4490D01*
X7315Y4421D01*
X7340Y4411D01*
X7271Y4341D01*
X7179Y4120D01*
X7179Y3881D01*
X7270Y3660D01*
X7439Y3491D01*
X7660Y3399D01*
X7899Y3399D01*
X8120Y3490D01*
X8289Y3659D01*
X8381Y3880D01*
X8381Y4119D01*
X8352Y4188D01*
X8356Y4193D01*
X8357Y4194D01*
X8378Y4300D01*
X8378Y4383D01*
X8724Y4383D01*
X8815Y4421D01*
X8884Y4490D01*
X8922Y4581D01*
X8922Y550D01*
X3498Y550D01*
X3498Y2301D01*
X3498Y2698D01*
X3346Y3065D01*
X3066Y3346D01*
X2699Y3498D01*
X2302Y3498D01*
X1935Y3346D01*
X1654Y3066D01*
X1502Y2699D01*
X1502Y2302D01*
X1654Y1935D01*
X1934Y1654D01*
X2301Y1502D01*
X2698Y1502D01*
X3065Y1654D01*
X3346Y1934D01*
X3498Y2301D01*
X3498Y550D01*
X550Y550D01*
X550Y19450D01*
X19450Y19450D01*
X19450Y550D01*
M02*
