G04 (created by PCBNEW-RS274X (2011-nov-30)-testing) date Fri 25 May 2012 05:34:57 PM EDT*
%MOIN*%
G04 Gerber Fmt 3.4, Leading zero omitted, Abs format*
%FSLAX34Y34*%
G01*
G70*
G90*
G04 APERTURE LIST*
%ADD10C,0.006*%
%ADD11R,0.06X0.06*%
%ADD12C,0.06*%
%ADD13C,0.055*%
%ADD14C,0.035*%
%ADD15C,0.014*%
%ADD16C,0.01*%
G04 APERTURE END LIST*
G54D10*
G54D11*
X58996Y-52520D03*
G54D12*
X59996Y-52520D03*
X60996Y-52520D03*
X61996Y-52520D03*
X62996Y-52520D03*
X63996Y-52520D03*
G54D11*
X61210Y-38530D03*
G54D12*
X62210Y-38530D03*
X61210Y-39530D03*
X62210Y-39530D03*
G54D11*
X58087Y-39657D03*
G54D12*
X58087Y-40657D03*
X57087Y-39657D03*
X57087Y-40657D03*
X56087Y-39657D03*
X56087Y-40657D03*
G54D13*
X58000Y-51000D03*
X56000Y-51000D03*
X58000Y-48000D03*
X56000Y-48000D03*
G54D11*
X55398Y-35146D03*
G54D12*
X56398Y-35146D03*
X57398Y-35146D03*
X58398Y-35146D03*
X59398Y-35146D03*
X60398Y-35146D03*
X61398Y-35146D03*
X62398Y-35146D03*
G54D11*
X63980Y-33491D03*
G54D12*
X64980Y-33491D03*
X65980Y-33491D03*
X66980Y-33491D03*
X67980Y-33491D03*
X68980Y-33491D03*
X69980Y-33491D03*
X70980Y-33491D03*
G54D11*
X63980Y-35320D03*
G54D12*
X64980Y-35320D03*
X65980Y-35320D03*
X66980Y-35320D03*
X67980Y-35320D03*
X68980Y-35320D03*
X69980Y-35320D03*
X70980Y-35320D03*
G54D11*
X55398Y-33492D03*
G54D12*
X56398Y-33492D03*
X57398Y-33492D03*
X58398Y-33492D03*
X59398Y-33492D03*
X60398Y-33492D03*
X61398Y-33492D03*
X62398Y-33492D03*
G54D11*
X61250Y-48700D03*
G54D12*
X61250Y-47700D03*
X61250Y-46700D03*
X61250Y-45700D03*
X61250Y-44700D03*
X61250Y-43700D03*
X61250Y-42700D03*
X61250Y-41700D03*
G54D11*
X65854Y-48776D03*
G54D12*
X65854Y-47776D03*
X65854Y-46776D03*
X65854Y-45776D03*
X65854Y-44776D03*
X65854Y-43776D03*
X65854Y-42776D03*
X65854Y-41776D03*
G54D11*
X70130Y-41303D03*
G54D12*
X70130Y-42303D03*
X70130Y-43303D03*
X70130Y-44303D03*
X70130Y-45303D03*
X70130Y-46303D03*
X70130Y-47303D03*
X70130Y-48303D03*
G54D11*
X66004Y-52520D03*
G54D12*
X67004Y-52520D03*
X68004Y-52520D03*
X69004Y-52520D03*
X70004Y-52520D03*
X71004Y-52520D03*
G54D11*
X66004Y-50984D03*
G54D12*
X67004Y-50984D03*
X68004Y-50984D03*
X69004Y-50984D03*
X70004Y-50984D03*
X71004Y-50984D03*
G54D11*
X58200Y-46000D03*
G54D12*
X58200Y-45000D03*
X58200Y-44000D03*
X58200Y-43000D03*
G54D14*
X59360Y-38360D03*
X60270Y-40640D03*
X64750Y-40640D03*
G54D15*
X70130Y-43303D02*
X60398Y-35146D01*
X56087Y-39657D02*
X60398Y-35146D01*
X70130Y-44303D02*
X63630Y-38750D01*
X59960Y-37630D02*
X59360Y-38360D01*
X62580Y-37660D02*
X59960Y-37630D01*
X63630Y-38750D02*
X62580Y-37660D01*
X57087Y-40657D02*
X57160Y-41760D01*
X59330Y-41760D02*
X59360Y-38360D01*
X57160Y-41760D02*
X59330Y-41760D01*
X60270Y-40640D02*
X64750Y-40640D01*
X62398Y-35146D02*
X70130Y-41303D01*
X61398Y-35146D02*
X70130Y-42303D01*
G54D10*
G36*
X71604Y-53100D02*
X71553Y-53100D01*
X71553Y-52629D01*
X71553Y-52411D01*
X71553Y-51093D01*
X71553Y-50875D01*
X71529Y-50817D01*
X71529Y-35429D01*
X71529Y-35211D01*
X71445Y-35009D01*
X71291Y-34855D01*
X71089Y-34771D01*
X70871Y-34771D01*
X70669Y-34855D01*
X70515Y-35009D01*
X70480Y-35093D01*
X70445Y-35009D01*
X70291Y-34855D01*
X70089Y-34771D01*
X69871Y-34771D01*
X69669Y-34855D01*
X69515Y-35009D01*
X69480Y-35093D01*
X69445Y-35009D01*
X69291Y-34855D01*
X69089Y-34771D01*
X68871Y-34771D01*
X68669Y-34855D01*
X68515Y-35009D01*
X68480Y-35093D01*
X68445Y-35009D01*
X68291Y-34855D01*
X68089Y-34771D01*
X67871Y-34771D01*
X67669Y-34855D01*
X67515Y-35009D01*
X67480Y-35093D01*
X67445Y-35009D01*
X67291Y-34855D01*
X67089Y-34771D01*
X66871Y-34771D01*
X66669Y-34855D01*
X66515Y-35009D01*
X66480Y-35093D01*
X66445Y-35009D01*
X66291Y-34855D01*
X66089Y-34771D01*
X65871Y-34771D01*
X65669Y-34855D01*
X65515Y-35009D01*
X65480Y-35093D01*
X65445Y-35009D01*
X65291Y-34855D01*
X65089Y-34771D01*
X64871Y-34771D01*
X64669Y-34855D01*
X64529Y-34995D01*
X64529Y-34971D01*
X64491Y-34879D01*
X64421Y-34809D01*
X64330Y-34771D01*
X64231Y-34771D01*
X63631Y-34771D01*
X63539Y-34809D01*
X63469Y-34879D01*
X63431Y-34970D01*
X63431Y-35069D01*
X63431Y-35559D01*
X62947Y-35174D01*
X62947Y-35037D01*
X62863Y-34835D01*
X62709Y-34681D01*
X62507Y-34597D01*
X62289Y-34597D01*
X62087Y-34681D01*
X61933Y-34835D01*
X61898Y-34919D01*
X61863Y-34835D01*
X61709Y-34681D01*
X61507Y-34597D01*
X61289Y-34597D01*
X61087Y-34681D01*
X60933Y-34835D01*
X60898Y-34919D01*
X60863Y-34835D01*
X60709Y-34681D01*
X60507Y-34597D01*
X60289Y-34597D01*
X60087Y-34681D01*
X59933Y-34835D01*
X59898Y-34919D01*
X59863Y-34835D01*
X59709Y-34681D01*
X59507Y-34597D01*
X59289Y-34597D01*
X59087Y-34681D01*
X58933Y-34835D01*
X58898Y-34919D01*
X58863Y-34835D01*
X58709Y-34681D01*
X58507Y-34597D01*
X58289Y-34597D01*
X58087Y-34681D01*
X57933Y-34835D01*
X57898Y-34919D01*
X57863Y-34835D01*
X57709Y-34681D01*
X57507Y-34597D01*
X57289Y-34597D01*
X57087Y-34681D01*
X56933Y-34835D01*
X56849Y-35037D01*
X56849Y-35255D01*
X56933Y-35457D01*
X57087Y-35611D01*
X57289Y-35695D01*
X57507Y-35695D01*
X57709Y-35611D01*
X57863Y-35457D01*
X57898Y-35372D01*
X57933Y-35457D01*
X58087Y-35611D01*
X58289Y-35695D01*
X58507Y-35695D01*
X58709Y-35611D01*
X58863Y-35457D01*
X58898Y-35372D01*
X58933Y-35457D01*
X59087Y-35611D01*
X59289Y-35695D01*
X59430Y-35695D01*
X56169Y-39108D01*
X55978Y-39108D01*
X55947Y-39120D01*
X55947Y-35496D01*
X55947Y-35397D01*
X55947Y-34797D01*
X55909Y-34705D01*
X55839Y-34635D01*
X55748Y-34597D01*
X55649Y-34597D01*
X55049Y-34597D01*
X54957Y-34635D01*
X54887Y-34705D01*
X54849Y-34796D01*
X54849Y-34895D01*
X54849Y-35495D01*
X54887Y-35587D01*
X54957Y-35657D01*
X55048Y-35695D01*
X55147Y-35695D01*
X55747Y-35695D01*
X55839Y-35657D01*
X55909Y-35587D01*
X55947Y-35496D01*
X55947Y-39120D01*
X55776Y-39192D01*
X55622Y-39346D01*
X55538Y-39548D01*
X55538Y-39766D01*
X55622Y-39968D01*
X55776Y-40122D01*
X55978Y-40206D01*
X56196Y-40206D01*
X56398Y-40122D01*
X56552Y-39968D01*
X56587Y-39883D01*
X56622Y-39968D01*
X56776Y-40122D01*
X56860Y-40157D01*
X56776Y-40192D01*
X56622Y-40346D01*
X56538Y-40548D01*
X56538Y-40766D01*
X56622Y-40968D01*
X56776Y-41122D01*
X56797Y-41131D01*
X56841Y-41781D01*
X56852Y-41825D01*
X56864Y-41882D01*
X56870Y-41891D01*
X56873Y-41901D01*
X56901Y-41937D01*
X56934Y-41986D01*
X56944Y-41993D01*
X56950Y-42000D01*
X56986Y-42021D01*
X57038Y-42056D01*
X57050Y-42058D01*
X57058Y-42063D01*
X57104Y-42068D01*
X57160Y-42080D01*
X59327Y-42080D01*
X59330Y-42080D01*
X59399Y-42066D01*
X59449Y-42057D01*
X59449Y-42056D01*
X59452Y-42056D01*
X59512Y-42014D01*
X59554Y-41988D01*
X59554Y-41986D01*
X59556Y-41986D01*
X59581Y-41947D01*
X59625Y-41885D01*
X59625Y-41882D01*
X59626Y-41882D01*
X59635Y-41835D01*
X59650Y-41763D01*
X59650Y-41760D01*
X59677Y-38643D01*
X59720Y-38601D01*
X59785Y-38445D01*
X59785Y-38346D01*
X60109Y-37951D01*
X62443Y-37980D01*
X62637Y-38181D01*
X62521Y-38065D01*
X62319Y-37981D01*
X62101Y-37981D01*
X61899Y-38065D01*
X61759Y-38205D01*
X61759Y-38181D01*
X61721Y-38089D01*
X61651Y-38019D01*
X61560Y-37981D01*
X61461Y-37981D01*
X60861Y-37981D01*
X60769Y-38019D01*
X60699Y-38089D01*
X60661Y-38180D01*
X60661Y-38279D01*
X60661Y-38879D01*
X60699Y-38971D01*
X60769Y-39041D01*
X60860Y-39079D01*
X60885Y-39079D01*
X60745Y-39219D01*
X60661Y-39421D01*
X60661Y-39639D01*
X60745Y-39841D01*
X60899Y-39995D01*
X61101Y-40079D01*
X61319Y-40079D01*
X61521Y-39995D01*
X61675Y-39841D01*
X61710Y-39756D01*
X61745Y-39841D01*
X61899Y-39995D01*
X62101Y-40079D01*
X62319Y-40079D01*
X62521Y-39995D01*
X62675Y-39841D01*
X62759Y-39639D01*
X62759Y-39421D01*
X62675Y-39219D01*
X62521Y-39065D01*
X62436Y-39030D01*
X62521Y-38995D01*
X62675Y-38841D01*
X62759Y-38639D01*
X62759Y-38421D01*
X62676Y-38221D01*
X63399Y-38972D01*
X63413Y-38982D01*
X63422Y-38993D01*
X64869Y-40229D01*
X64835Y-40215D01*
X64666Y-40215D01*
X64510Y-40279D01*
X64469Y-40320D01*
X60551Y-40320D01*
X60511Y-40280D01*
X60355Y-40215D01*
X60186Y-40215D01*
X60030Y-40279D01*
X59910Y-40399D01*
X59845Y-40555D01*
X59845Y-40724D01*
X59909Y-40880D01*
X60029Y-41000D01*
X60185Y-41065D01*
X60354Y-41065D01*
X60510Y-41001D01*
X60551Y-40960D01*
X64469Y-40960D01*
X64509Y-41000D01*
X64665Y-41065D01*
X64834Y-41065D01*
X64990Y-41001D01*
X65110Y-40881D01*
X65175Y-40725D01*
X65175Y-40556D01*
X65133Y-40454D01*
X69581Y-44252D01*
X69581Y-44412D01*
X69665Y-44614D01*
X69819Y-44768D01*
X69903Y-44803D01*
X69819Y-44838D01*
X69665Y-44992D01*
X69581Y-45194D01*
X69581Y-45412D01*
X69665Y-45614D01*
X69819Y-45768D01*
X69903Y-45803D01*
X69819Y-45838D01*
X69665Y-45992D01*
X69581Y-46194D01*
X69581Y-46412D01*
X69665Y-46614D01*
X69819Y-46768D01*
X69903Y-46803D01*
X69819Y-46838D01*
X69665Y-46992D01*
X69581Y-47194D01*
X69581Y-47412D01*
X69665Y-47614D01*
X69819Y-47768D01*
X69903Y-47803D01*
X69819Y-47838D01*
X69665Y-47992D01*
X69581Y-48194D01*
X69581Y-48412D01*
X69665Y-48614D01*
X69819Y-48768D01*
X70021Y-48852D01*
X70239Y-48852D01*
X70441Y-48768D01*
X70595Y-48614D01*
X70679Y-48412D01*
X70679Y-48194D01*
X70595Y-47992D01*
X70441Y-47838D01*
X70356Y-47803D01*
X70441Y-47768D01*
X70595Y-47614D01*
X70679Y-47412D01*
X70679Y-47194D01*
X70595Y-46992D01*
X70441Y-46838D01*
X70356Y-46803D01*
X70441Y-46768D01*
X70595Y-46614D01*
X70679Y-46412D01*
X70679Y-46194D01*
X70595Y-45992D01*
X70441Y-45838D01*
X70356Y-45803D01*
X70441Y-45768D01*
X70595Y-45614D01*
X70679Y-45412D01*
X70679Y-45194D01*
X70595Y-44992D01*
X70441Y-44838D01*
X70356Y-44803D01*
X70441Y-44768D01*
X70595Y-44614D01*
X70679Y-44412D01*
X70679Y-44194D01*
X70595Y-43992D01*
X70441Y-43838D01*
X70356Y-43803D01*
X70441Y-43768D01*
X70595Y-43614D01*
X70679Y-43412D01*
X70679Y-43194D01*
X70595Y-42992D01*
X70441Y-42838D01*
X70356Y-42803D01*
X70441Y-42768D01*
X70595Y-42614D01*
X70679Y-42412D01*
X70679Y-42194D01*
X70595Y-41992D01*
X70455Y-41852D01*
X70479Y-41852D01*
X70571Y-41814D01*
X70641Y-41744D01*
X70679Y-41653D01*
X70679Y-41554D01*
X70679Y-40954D01*
X70641Y-40862D01*
X70571Y-40792D01*
X70480Y-40754D01*
X70381Y-40754D01*
X69962Y-40754D01*
X63820Y-35869D01*
X64329Y-35869D01*
X64421Y-35831D01*
X64491Y-35761D01*
X64529Y-35670D01*
X64529Y-35645D01*
X64669Y-35785D01*
X64871Y-35869D01*
X65089Y-35869D01*
X65291Y-35785D01*
X65445Y-35631D01*
X65480Y-35546D01*
X65515Y-35631D01*
X65669Y-35785D01*
X65871Y-35869D01*
X66089Y-35869D01*
X66291Y-35785D01*
X66445Y-35631D01*
X66480Y-35546D01*
X66515Y-35631D01*
X66669Y-35785D01*
X66871Y-35869D01*
X67089Y-35869D01*
X67291Y-35785D01*
X67445Y-35631D01*
X67480Y-35546D01*
X67515Y-35631D01*
X67669Y-35785D01*
X67871Y-35869D01*
X68089Y-35869D01*
X68291Y-35785D01*
X68445Y-35631D01*
X68480Y-35546D01*
X68515Y-35631D01*
X68669Y-35785D01*
X68871Y-35869D01*
X69089Y-35869D01*
X69291Y-35785D01*
X69445Y-35631D01*
X69480Y-35546D01*
X69515Y-35631D01*
X69669Y-35785D01*
X69871Y-35869D01*
X70089Y-35869D01*
X70291Y-35785D01*
X70445Y-35631D01*
X70480Y-35546D01*
X70515Y-35631D01*
X70669Y-35785D01*
X70871Y-35869D01*
X71089Y-35869D01*
X71291Y-35785D01*
X71445Y-35631D01*
X71529Y-35429D01*
X71529Y-50817D01*
X71469Y-50673D01*
X71315Y-50519D01*
X71113Y-50435D01*
X70895Y-50435D01*
X70693Y-50519D01*
X70539Y-50673D01*
X70504Y-50757D01*
X70469Y-50673D01*
X70315Y-50519D01*
X70113Y-50435D01*
X69895Y-50435D01*
X69693Y-50519D01*
X69539Y-50673D01*
X69504Y-50757D01*
X69469Y-50673D01*
X69315Y-50519D01*
X69113Y-50435D01*
X68895Y-50435D01*
X68693Y-50519D01*
X68539Y-50673D01*
X68504Y-50757D01*
X68469Y-50673D01*
X68315Y-50519D01*
X68113Y-50435D01*
X67895Y-50435D01*
X67693Y-50519D01*
X67539Y-50673D01*
X67504Y-50757D01*
X67469Y-50673D01*
X67315Y-50519D01*
X67113Y-50435D01*
X66895Y-50435D01*
X66693Y-50519D01*
X66553Y-50659D01*
X66553Y-50635D01*
X66515Y-50543D01*
X66445Y-50473D01*
X66354Y-50435D01*
X66255Y-50435D01*
X65655Y-50435D01*
X65563Y-50473D01*
X65493Y-50543D01*
X65455Y-50634D01*
X65455Y-50733D01*
X65455Y-51333D01*
X65493Y-51425D01*
X65563Y-51495D01*
X65654Y-51533D01*
X65753Y-51533D01*
X66353Y-51533D01*
X66445Y-51495D01*
X66515Y-51425D01*
X66553Y-51334D01*
X66553Y-51309D01*
X66693Y-51449D01*
X66895Y-51533D01*
X67113Y-51533D01*
X67315Y-51449D01*
X67469Y-51295D01*
X67504Y-51210D01*
X67539Y-51295D01*
X67693Y-51449D01*
X67895Y-51533D01*
X68113Y-51533D01*
X68315Y-51449D01*
X68469Y-51295D01*
X68504Y-51210D01*
X68539Y-51295D01*
X68693Y-51449D01*
X68895Y-51533D01*
X69113Y-51533D01*
X69315Y-51449D01*
X69469Y-51295D01*
X69504Y-51210D01*
X69539Y-51295D01*
X69693Y-51449D01*
X69895Y-51533D01*
X70113Y-51533D01*
X70315Y-51449D01*
X70469Y-51295D01*
X70504Y-51210D01*
X70539Y-51295D01*
X70693Y-51449D01*
X70895Y-51533D01*
X71113Y-51533D01*
X71315Y-51449D01*
X71469Y-51295D01*
X71553Y-51093D01*
X71553Y-52411D01*
X71469Y-52209D01*
X71315Y-52055D01*
X71113Y-51971D01*
X70895Y-51971D01*
X70693Y-52055D01*
X70539Y-52209D01*
X70504Y-52293D01*
X70469Y-52209D01*
X70315Y-52055D01*
X70113Y-51971D01*
X69895Y-51971D01*
X69693Y-52055D01*
X69539Y-52209D01*
X69504Y-52293D01*
X69469Y-52209D01*
X69315Y-52055D01*
X69113Y-51971D01*
X68895Y-51971D01*
X68693Y-52055D01*
X68539Y-52209D01*
X68504Y-52293D01*
X68469Y-52209D01*
X68315Y-52055D01*
X68113Y-51971D01*
X67895Y-51971D01*
X67693Y-52055D01*
X67539Y-52209D01*
X67504Y-52293D01*
X67469Y-52209D01*
X67315Y-52055D01*
X67113Y-51971D01*
X66895Y-51971D01*
X66693Y-52055D01*
X66553Y-52195D01*
X66553Y-52171D01*
X66515Y-52079D01*
X66445Y-52009D01*
X66354Y-51971D01*
X66255Y-51971D01*
X65655Y-51971D01*
X65563Y-52009D01*
X65493Y-52079D01*
X65455Y-52170D01*
X65455Y-52269D01*
X65455Y-52869D01*
X65493Y-52961D01*
X65563Y-53031D01*
X65654Y-53069D01*
X65753Y-53069D01*
X66353Y-53069D01*
X66445Y-53031D01*
X66515Y-52961D01*
X66553Y-52870D01*
X66553Y-52845D01*
X66693Y-52985D01*
X66895Y-53069D01*
X67113Y-53069D01*
X67315Y-52985D01*
X67469Y-52831D01*
X67504Y-52746D01*
X67539Y-52831D01*
X67693Y-52985D01*
X67895Y-53069D01*
X68113Y-53069D01*
X68315Y-52985D01*
X68469Y-52831D01*
X68504Y-52746D01*
X68539Y-52831D01*
X68693Y-52985D01*
X68895Y-53069D01*
X69113Y-53069D01*
X69315Y-52985D01*
X69469Y-52831D01*
X69504Y-52746D01*
X69539Y-52831D01*
X69693Y-52985D01*
X69895Y-53069D01*
X70113Y-53069D01*
X70315Y-52985D01*
X70469Y-52831D01*
X70504Y-52746D01*
X70539Y-52831D01*
X70693Y-52985D01*
X70895Y-53069D01*
X71113Y-53069D01*
X71315Y-52985D01*
X71469Y-52831D01*
X71553Y-52629D01*
X71553Y-53100D01*
X64545Y-53100D01*
X64545Y-52629D01*
X64545Y-52411D01*
X64461Y-52209D01*
X64307Y-52055D01*
X64105Y-51971D01*
X63887Y-51971D01*
X63685Y-52055D01*
X63531Y-52209D01*
X63447Y-52411D01*
X63447Y-52629D01*
X63531Y-52831D01*
X63685Y-52985D01*
X63887Y-53069D01*
X64105Y-53069D01*
X64307Y-52985D01*
X64461Y-52831D01*
X64545Y-52629D01*
X64545Y-53100D01*
X61799Y-53100D01*
X61799Y-49050D01*
X61799Y-48951D01*
X61799Y-48351D01*
X61761Y-48259D01*
X61691Y-48189D01*
X61600Y-48151D01*
X61575Y-48151D01*
X61715Y-48011D01*
X61799Y-47809D01*
X61799Y-47591D01*
X61715Y-47389D01*
X61561Y-47235D01*
X61476Y-47200D01*
X61561Y-47165D01*
X61715Y-47011D01*
X61799Y-46809D01*
X61799Y-46591D01*
X61715Y-46389D01*
X61561Y-46235D01*
X61476Y-46200D01*
X61561Y-46165D01*
X61715Y-46011D01*
X61799Y-45809D01*
X61799Y-45591D01*
X61715Y-45389D01*
X61561Y-45235D01*
X61476Y-45200D01*
X61561Y-45165D01*
X61715Y-45011D01*
X61799Y-44809D01*
X61799Y-44591D01*
X61715Y-44389D01*
X61561Y-44235D01*
X61476Y-44200D01*
X61561Y-44165D01*
X61715Y-44011D01*
X61799Y-43809D01*
X61799Y-43591D01*
X61715Y-43389D01*
X61561Y-43235D01*
X61476Y-43200D01*
X61561Y-43165D01*
X61715Y-43011D01*
X61799Y-42809D01*
X61799Y-42591D01*
X61715Y-42389D01*
X61561Y-42235D01*
X61476Y-42200D01*
X61561Y-42165D01*
X61715Y-42011D01*
X61799Y-41809D01*
X61799Y-41591D01*
X61715Y-41389D01*
X61561Y-41235D01*
X61359Y-41151D01*
X61141Y-41151D01*
X60939Y-41235D01*
X60785Y-41389D01*
X60701Y-41591D01*
X60701Y-41809D01*
X60785Y-42011D01*
X60939Y-42165D01*
X61023Y-42200D01*
X60939Y-42235D01*
X60785Y-42389D01*
X60701Y-42591D01*
X60701Y-42809D01*
X60785Y-43011D01*
X60939Y-43165D01*
X61023Y-43200D01*
X60939Y-43235D01*
X60785Y-43389D01*
X60701Y-43591D01*
X60701Y-43809D01*
X60785Y-44011D01*
X60939Y-44165D01*
X61023Y-44200D01*
X60939Y-44235D01*
X60785Y-44389D01*
X60701Y-44591D01*
X60701Y-44809D01*
X60785Y-45011D01*
X60939Y-45165D01*
X61023Y-45200D01*
X60939Y-45235D01*
X60785Y-45389D01*
X60701Y-45591D01*
X60701Y-45809D01*
X60785Y-46011D01*
X60939Y-46165D01*
X61023Y-46200D01*
X60939Y-46235D01*
X60785Y-46389D01*
X60701Y-46591D01*
X60701Y-46809D01*
X60785Y-47011D01*
X60939Y-47165D01*
X61023Y-47200D01*
X60939Y-47235D01*
X60785Y-47389D01*
X60701Y-47591D01*
X60701Y-47809D01*
X60785Y-48011D01*
X60925Y-48151D01*
X60901Y-48151D01*
X60809Y-48189D01*
X60739Y-48259D01*
X60701Y-48350D01*
X60701Y-48449D01*
X60701Y-49049D01*
X60739Y-49141D01*
X60809Y-49211D01*
X60900Y-49249D01*
X60999Y-49249D01*
X61599Y-49249D01*
X61691Y-49211D01*
X61761Y-49141D01*
X61799Y-49050D01*
X61799Y-53100D01*
X61545Y-53100D01*
X61545Y-52629D01*
X61545Y-52411D01*
X61461Y-52209D01*
X61307Y-52055D01*
X61105Y-51971D01*
X60887Y-51971D01*
X60685Y-52055D01*
X60531Y-52209D01*
X60496Y-52293D01*
X60461Y-52209D01*
X60307Y-52055D01*
X60105Y-51971D01*
X59887Y-51971D01*
X59685Y-52055D01*
X59545Y-52195D01*
X59545Y-52171D01*
X59507Y-52079D01*
X59437Y-52009D01*
X59346Y-51971D01*
X59247Y-51971D01*
X58749Y-51971D01*
X58749Y-46350D01*
X58749Y-46251D01*
X58749Y-45651D01*
X58711Y-45559D01*
X58641Y-45489D01*
X58550Y-45451D01*
X58525Y-45451D01*
X58665Y-45311D01*
X58749Y-45109D01*
X58749Y-44891D01*
X58665Y-44689D01*
X58511Y-44535D01*
X58426Y-44500D01*
X58511Y-44465D01*
X58665Y-44311D01*
X58749Y-44109D01*
X58749Y-43891D01*
X58665Y-43689D01*
X58511Y-43535D01*
X58426Y-43500D01*
X58511Y-43465D01*
X58665Y-43311D01*
X58749Y-43109D01*
X58749Y-42891D01*
X58665Y-42689D01*
X58511Y-42535D01*
X58309Y-42451D01*
X58091Y-42451D01*
X57889Y-42535D01*
X57735Y-42689D01*
X57651Y-42891D01*
X57651Y-43109D01*
X57735Y-43311D01*
X57889Y-43465D01*
X57973Y-43500D01*
X57889Y-43535D01*
X57735Y-43689D01*
X57651Y-43891D01*
X57651Y-44109D01*
X57735Y-44311D01*
X57889Y-44465D01*
X57973Y-44500D01*
X57889Y-44535D01*
X57735Y-44689D01*
X57651Y-44891D01*
X57651Y-45109D01*
X57735Y-45311D01*
X57875Y-45451D01*
X57851Y-45451D01*
X57759Y-45489D01*
X57689Y-45559D01*
X57651Y-45650D01*
X57651Y-45749D01*
X57651Y-46349D01*
X57689Y-46441D01*
X57759Y-46511D01*
X57850Y-46549D01*
X57949Y-46549D01*
X58549Y-46549D01*
X58641Y-46511D01*
X58711Y-46441D01*
X58749Y-46350D01*
X58749Y-51971D01*
X58647Y-51971D01*
X58555Y-52009D01*
X58525Y-52039D01*
X58525Y-51105D01*
X58525Y-50896D01*
X58525Y-48105D01*
X58525Y-47896D01*
X58445Y-47703D01*
X58298Y-47555D01*
X58105Y-47475D01*
X57896Y-47475D01*
X57703Y-47555D01*
X57555Y-47702D01*
X57475Y-47895D01*
X57475Y-48104D01*
X57555Y-48297D01*
X57702Y-48445D01*
X57895Y-48525D01*
X58104Y-48525D01*
X58297Y-48445D01*
X58445Y-48298D01*
X58525Y-48105D01*
X58525Y-50896D01*
X58445Y-50703D01*
X58298Y-50555D01*
X58105Y-50475D01*
X57896Y-50475D01*
X57703Y-50555D01*
X57555Y-50702D01*
X57475Y-50895D01*
X57475Y-51104D01*
X57555Y-51297D01*
X57702Y-51445D01*
X57895Y-51525D01*
X58104Y-51525D01*
X58297Y-51445D01*
X58445Y-51298D01*
X58525Y-51105D01*
X58525Y-52039D01*
X58485Y-52079D01*
X58447Y-52170D01*
X58447Y-52269D01*
X58447Y-52869D01*
X58485Y-52961D01*
X58555Y-53031D01*
X58646Y-53069D01*
X58745Y-53069D01*
X59345Y-53069D01*
X59437Y-53031D01*
X59507Y-52961D01*
X59545Y-52870D01*
X59545Y-52845D01*
X59685Y-52985D01*
X59887Y-53069D01*
X60105Y-53069D01*
X60307Y-52985D01*
X60461Y-52831D01*
X60496Y-52746D01*
X60531Y-52831D01*
X60685Y-52985D01*
X60887Y-53069D01*
X61105Y-53069D01*
X61307Y-52985D01*
X61461Y-52831D01*
X61545Y-52629D01*
X61545Y-53100D01*
X54774Y-53100D01*
X54774Y-33121D01*
X54857Y-33121D01*
X54849Y-33142D01*
X54849Y-33241D01*
X54849Y-33841D01*
X54887Y-33933D01*
X54957Y-34003D01*
X55048Y-34041D01*
X55147Y-34041D01*
X55747Y-34041D01*
X55839Y-34003D01*
X55909Y-33933D01*
X55947Y-33842D01*
X55947Y-33743D01*
X55947Y-33143D01*
X55937Y-33121D01*
X56993Y-33121D01*
X56933Y-33181D01*
X56849Y-33383D01*
X56849Y-33601D01*
X56933Y-33803D01*
X57087Y-33957D01*
X57289Y-34041D01*
X57507Y-34041D01*
X57709Y-33957D01*
X57863Y-33803D01*
X57898Y-33718D01*
X57933Y-33803D01*
X58087Y-33957D01*
X58289Y-34041D01*
X58507Y-34041D01*
X58709Y-33957D01*
X58863Y-33803D01*
X58898Y-33718D01*
X58933Y-33803D01*
X59087Y-33957D01*
X59289Y-34041D01*
X59507Y-34041D01*
X59709Y-33957D01*
X59863Y-33803D01*
X59898Y-33718D01*
X59933Y-33803D01*
X60087Y-33957D01*
X60289Y-34041D01*
X60507Y-34041D01*
X60709Y-33957D01*
X60863Y-33803D01*
X60898Y-33718D01*
X60933Y-33803D01*
X61087Y-33957D01*
X61289Y-34041D01*
X61507Y-34041D01*
X61709Y-33957D01*
X61863Y-33803D01*
X61898Y-33718D01*
X61933Y-33803D01*
X62087Y-33957D01*
X62289Y-34041D01*
X62507Y-34041D01*
X62709Y-33957D01*
X62863Y-33803D01*
X62947Y-33601D01*
X62947Y-33383D01*
X62863Y-33181D01*
X62803Y-33121D01*
X63439Y-33121D01*
X63431Y-33141D01*
X63431Y-33240D01*
X63431Y-33840D01*
X63469Y-33932D01*
X63539Y-34002D01*
X63630Y-34040D01*
X63729Y-34040D01*
X64329Y-34040D01*
X64421Y-34002D01*
X64491Y-33932D01*
X64529Y-33841D01*
X64529Y-33816D01*
X64669Y-33956D01*
X64871Y-34040D01*
X65089Y-34040D01*
X65291Y-33956D01*
X65445Y-33802D01*
X65480Y-33717D01*
X65515Y-33802D01*
X65669Y-33956D01*
X65871Y-34040D01*
X66089Y-34040D01*
X66291Y-33956D01*
X66445Y-33802D01*
X66480Y-33717D01*
X66515Y-33802D01*
X66669Y-33956D01*
X66871Y-34040D01*
X67089Y-34040D01*
X67291Y-33956D01*
X67445Y-33802D01*
X67480Y-33717D01*
X67515Y-33802D01*
X67669Y-33956D01*
X67871Y-34040D01*
X68089Y-34040D01*
X68291Y-33956D01*
X68445Y-33802D01*
X68480Y-33717D01*
X68515Y-33802D01*
X68669Y-33956D01*
X68871Y-34040D01*
X69089Y-34040D01*
X69291Y-33956D01*
X69445Y-33802D01*
X69480Y-33717D01*
X69515Y-33802D01*
X69669Y-33956D01*
X69871Y-34040D01*
X70089Y-34040D01*
X70291Y-33956D01*
X70445Y-33802D01*
X70480Y-33717D01*
X70515Y-33802D01*
X70669Y-33956D01*
X70871Y-34040D01*
X71089Y-34040D01*
X71291Y-33956D01*
X71445Y-33802D01*
X71529Y-33600D01*
X71529Y-33382D01*
X71445Y-33180D01*
X71386Y-33121D01*
X71604Y-33121D01*
X71604Y-53100D01*
X71604Y-53100D01*
G37*
G54D16*
X71604Y-53100D02*
X71553Y-53100D01*
X71553Y-52629D01*
X71553Y-52411D01*
X71553Y-51093D01*
X71553Y-50875D01*
X71529Y-50817D01*
X71529Y-35429D01*
X71529Y-35211D01*
X71445Y-35009D01*
X71291Y-34855D01*
X71089Y-34771D01*
X70871Y-34771D01*
X70669Y-34855D01*
X70515Y-35009D01*
X70480Y-35093D01*
X70445Y-35009D01*
X70291Y-34855D01*
X70089Y-34771D01*
X69871Y-34771D01*
X69669Y-34855D01*
X69515Y-35009D01*
X69480Y-35093D01*
X69445Y-35009D01*
X69291Y-34855D01*
X69089Y-34771D01*
X68871Y-34771D01*
X68669Y-34855D01*
X68515Y-35009D01*
X68480Y-35093D01*
X68445Y-35009D01*
X68291Y-34855D01*
X68089Y-34771D01*
X67871Y-34771D01*
X67669Y-34855D01*
X67515Y-35009D01*
X67480Y-35093D01*
X67445Y-35009D01*
X67291Y-34855D01*
X67089Y-34771D01*
X66871Y-34771D01*
X66669Y-34855D01*
X66515Y-35009D01*
X66480Y-35093D01*
X66445Y-35009D01*
X66291Y-34855D01*
X66089Y-34771D01*
X65871Y-34771D01*
X65669Y-34855D01*
X65515Y-35009D01*
X65480Y-35093D01*
X65445Y-35009D01*
X65291Y-34855D01*
X65089Y-34771D01*
X64871Y-34771D01*
X64669Y-34855D01*
X64529Y-34995D01*
X64529Y-34971D01*
X64491Y-34879D01*
X64421Y-34809D01*
X64330Y-34771D01*
X64231Y-34771D01*
X63631Y-34771D01*
X63539Y-34809D01*
X63469Y-34879D01*
X63431Y-34970D01*
X63431Y-35069D01*
X63431Y-35559D01*
X62947Y-35174D01*
X62947Y-35037D01*
X62863Y-34835D01*
X62709Y-34681D01*
X62507Y-34597D01*
X62289Y-34597D01*
X62087Y-34681D01*
X61933Y-34835D01*
X61898Y-34919D01*
X61863Y-34835D01*
X61709Y-34681D01*
X61507Y-34597D01*
X61289Y-34597D01*
X61087Y-34681D01*
X60933Y-34835D01*
X60898Y-34919D01*
X60863Y-34835D01*
X60709Y-34681D01*
X60507Y-34597D01*
X60289Y-34597D01*
X60087Y-34681D01*
X59933Y-34835D01*
X59898Y-34919D01*
X59863Y-34835D01*
X59709Y-34681D01*
X59507Y-34597D01*
X59289Y-34597D01*
X59087Y-34681D01*
X58933Y-34835D01*
X58898Y-34919D01*
X58863Y-34835D01*
X58709Y-34681D01*
X58507Y-34597D01*
X58289Y-34597D01*
X58087Y-34681D01*
X57933Y-34835D01*
X57898Y-34919D01*
X57863Y-34835D01*
X57709Y-34681D01*
X57507Y-34597D01*
X57289Y-34597D01*
X57087Y-34681D01*
X56933Y-34835D01*
X56849Y-35037D01*
X56849Y-35255D01*
X56933Y-35457D01*
X57087Y-35611D01*
X57289Y-35695D01*
X57507Y-35695D01*
X57709Y-35611D01*
X57863Y-35457D01*
X57898Y-35372D01*
X57933Y-35457D01*
X58087Y-35611D01*
X58289Y-35695D01*
X58507Y-35695D01*
X58709Y-35611D01*
X58863Y-35457D01*
X58898Y-35372D01*
X58933Y-35457D01*
X59087Y-35611D01*
X59289Y-35695D01*
X59430Y-35695D01*
X56169Y-39108D01*
X55978Y-39108D01*
X55947Y-39120D01*
X55947Y-35496D01*
X55947Y-35397D01*
X55947Y-34797D01*
X55909Y-34705D01*
X55839Y-34635D01*
X55748Y-34597D01*
X55649Y-34597D01*
X55049Y-34597D01*
X54957Y-34635D01*
X54887Y-34705D01*
X54849Y-34796D01*
X54849Y-34895D01*
X54849Y-35495D01*
X54887Y-35587D01*
X54957Y-35657D01*
X55048Y-35695D01*
X55147Y-35695D01*
X55747Y-35695D01*
X55839Y-35657D01*
X55909Y-35587D01*
X55947Y-35496D01*
X55947Y-39120D01*
X55776Y-39192D01*
X55622Y-39346D01*
X55538Y-39548D01*
X55538Y-39766D01*
X55622Y-39968D01*
X55776Y-40122D01*
X55978Y-40206D01*
X56196Y-40206D01*
X56398Y-40122D01*
X56552Y-39968D01*
X56587Y-39883D01*
X56622Y-39968D01*
X56776Y-40122D01*
X56860Y-40157D01*
X56776Y-40192D01*
X56622Y-40346D01*
X56538Y-40548D01*
X56538Y-40766D01*
X56622Y-40968D01*
X56776Y-41122D01*
X56797Y-41131D01*
X56841Y-41781D01*
X56852Y-41825D01*
X56864Y-41882D01*
X56870Y-41891D01*
X56873Y-41901D01*
X56901Y-41937D01*
X56934Y-41986D01*
X56944Y-41993D01*
X56950Y-42000D01*
X56986Y-42021D01*
X57038Y-42056D01*
X57050Y-42058D01*
X57058Y-42063D01*
X57104Y-42068D01*
X57160Y-42080D01*
X59327Y-42080D01*
X59330Y-42080D01*
X59399Y-42066D01*
X59449Y-42057D01*
X59449Y-42056D01*
X59452Y-42056D01*
X59512Y-42014D01*
X59554Y-41988D01*
X59554Y-41986D01*
X59556Y-41986D01*
X59581Y-41947D01*
X59625Y-41885D01*
X59625Y-41882D01*
X59626Y-41882D01*
X59635Y-41835D01*
X59650Y-41763D01*
X59650Y-41760D01*
X59677Y-38643D01*
X59720Y-38601D01*
X59785Y-38445D01*
X59785Y-38346D01*
X60109Y-37951D01*
X62443Y-37980D01*
X62637Y-38181D01*
X62521Y-38065D01*
X62319Y-37981D01*
X62101Y-37981D01*
X61899Y-38065D01*
X61759Y-38205D01*
X61759Y-38181D01*
X61721Y-38089D01*
X61651Y-38019D01*
X61560Y-37981D01*
X61461Y-37981D01*
X60861Y-37981D01*
X60769Y-38019D01*
X60699Y-38089D01*
X60661Y-38180D01*
X60661Y-38279D01*
X60661Y-38879D01*
X60699Y-38971D01*
X60769Y-39041D01*
X60860Y-39079D01*
X60885Y-39079D01*
X60745Y-39219D01*
X60661Y-39421D01*
X60661Y-39639D01*
X60745Y-39841D01*
X60899Y-39995D01*
X61101Y-40079D01*
X61319Y-40079D01*
X61521Y-39995D01*
X61675Y-39841D01*
X61710Y-39756D01*
X61745Y-39841D01*
X61899Y-39995D01*
X62101Y-40079D01*
X62319Y-40079D01*
X62521Y-39995D01*
X62675Y-39841D01*
X62759Y-39639D01*
X62759Y-39421D01*
X62675Y-39219D01*
X62521Y-39065D01*
X62436Y-39030D01*
X62521Y-38995D01*
X62675Y-38841D01*
X62759Y-38639D01*
X62759Y-38421D01*
X62676Y-38221D01*
X63399Y-38972D01*
X63413Y-38982D01*
X63422Y-38993D01*
X64869Y-40229D01*
X64835Y-40215D01*
X64666Y-40215D01*
X64510Y-40279D01*
X64469Y-40320D01*
X60551Y-40320D01*
X60511Y-40280D01*
X60355Y-40215D01*
X60186Y-40215D01*
X60030Y-40279D01*
X59910Y-40399D01*
X59845Y-40555D01*
X59845Y-40724D01*
X59909Y-40880D01*
X60029Y-41000D01*
X60185Y-41065D01*
X60354Y-41065D01*
X60510Y-41001D01*
X60551Y-40960D01*
X64469Y-40960D01*
X64509Y-41000D01*
X64665Y-41065D01*
X64834Y-41065D01*
X64990Y-41001D01*
X65110Y-40881D01*
X65175Y-40725D01*
X65175Y-40556D01*
X65133Y-40454D01*
X69581Y-44252D01*
X69581Y-44412D01*
X69665Y-44614D01*
X69819Y-44768D01*
X69903Y-44803D01*
X69819Y-44838D01*
X69665Y-44992D01*
X69581Y-45194D01*
X69581Y-45412D01*
X69665Y-45614D01*
X69819Y-45768D01*
X69903Y-45803D01*
X69819Y-45838D01*
X69665Y-45992D01*
X69581Y-46194D01*
X69581Y-46412D01*
X69665Y-46614D01*
X69819Y-46768D01*
X69903Y-46803D01*
X69819Y-46838D01*
X69665Y-46992D01*
X69581Y-47194D01*
X69581Y-47412D01*
X69665Y-47614D01*
X69819Y-47768D01*
X69903Y-47803D01*
X69819Y-47838D01*
X69665Y-47992D01*
X69581Y-48194D01*
X69581Y-48412D01*
X69665Y-48614D01*
X69819Y-48768D01*
X70021Y-48852D01*
X70239Y-48852D01*
X70441Y-48768D01*
X70595Y-48614D01*
X70679Y-48412D01*
X70679Y-48194D01*
X70595Y-47992D01*
X70441Y-47838D01*
X70356Y-47803D01*
X70441Y-47768D01*
X70595Y-47614D01*
X70679Y-47412D01*
X70679Y-47194D01*
X70595Y-46992D01*
X70441Y-46838D01*
X70356Y-46803D01*
X70441Y-46768D01*
X70595Y-46614D01*
X70679Y-46412D01*
X70679Y-46194D01*
X70595Y-45992D01*
X70441Y-45838D01*
X70356Y-45803D01*
X70441Y-45768D01*
X70595Y-45614D01*
X70679Y-45412D01*
X70679Y-45194D01*
X70595Y-44992D01*
X70441Y-44838D01*
X70356Y-44803D01*
X70441Y-44768D01*
X70595Y-44614D01*
X70679Y-44412D01*
X70679Y-44194D01*
X70595Y-43992D01*
X70441Y-43838D01*
X70356Y-43803D01*
X70441Y-43768D01*
X70595Y-43614D01*
X70679Y-43412D01*
X70679Y-43194D01*
X70595Y-42992D01*
X70441Y-42838D01*
X70356Y-42803D01*
X70441Y-42768D01*
X70595Y-42614D01*
X70679Y-42412D01*
X70679Y-42194D01*
X70595Y-41992D01*
X70455Y-41852D01*
X70479Y-41852D01*
X70571Y-41814D01*
X70641Y-41744D01*
X70679Y-41653D01*
X70679Y-41554D01*
X70679Y-40954D01*
X70641Y-40862D01*
X70571Y-40792D01*
X70480Y-40754D01*
X70381Y-40754D01*
X69962Y-40754D01*
X63820Y-35869D01*
X64329Y-35869D01*
X64421Y-35831D01*
X64491Y-35761D01*
X64529Y-35670D01*
X64529Y-35645D01*
X64669Y-35785D01*
X64871Y-35869D01*
X65089Y-35869D01*
X65291Y-35785D01*
X65445Y-35631D01*
X65480Y-35546D01*
X65515Y-35631D01*
X65669Y-35785D01*
X65871Y-35869D01*
X66089Y-35869D01*
X66291Y-35785D01*
X66445Y-35631D01*
X66480Y-35546D01*
X66515Y-35631D01*
X66669Y-35785D01*
X66871Y-35869D01*
X67089Y-35869D01*
X67291Y-35785D01*
X67445Y-35631D01*
X67480Y-35546D01*
X67515Y-35631D01*
X67669Y-35785D01*
X67871Y-35869D01*
X68089Y-35869D01*
X68291Y-35785D01*
X68445Y-35631D01*
X68480Y-35546D01*
X68515Y-35631D01*
X68669Y-35785D01*
X68871Y-35869D01*
X69089Y-35869D01*
X69291Y-35785D01*
X69445Y-35631D01*
X69480Y-35546D01*
X69515Y-35631D01*
X69669Y-35785D01*
X69871Y-35869D01*
X70089Y-35869D01*
X70291Y-35785D01*
X70445Y-35631D01*
X70480Y-35546D01*
X70515Y-35631D01*
X70669Y-35785D01*
X70871Y-35869D01*
X71089Y-35869D01*
X71291Y-35785D01*
X71445Y-35631D01*
X71529Y-35429D01*
X71529Y-50817D01*
X71469Y-50673D01*
X71315Y-50519D01*
X71113Y-50435D01*
X70895Y-50435D01*
X70693Y-50519D01*
X70539Y-50673D01*
X70504Y-50757D01*
X70469Y-50673D01*
X70315Y-50519D01*
X70113Y-50435D01*
X69895Y-50435D01*
X69693Y-50519D01*
X69539Y-50673D01*
X69504Y-50757D01*
X69469Y-50673D01*
X69315Y-50519D01*
X69113Y-50435D01*
X68895Y-50435D01*
X68693Y-50519D01*
X68539Y-50673D01*
X68504Y-50757D01*
X68469Y-50673D01*
X68315Y-50519D01*
X68113Y-50435D01*
X67895Y-50435D01*
X67693Y-50519D01*
X67539Y-50673D01*
X67504Y-50757D01*
X67469Y-50673D01*
X67315Y-50519D01*
X67113Y-50435D01*
X66895Y-50435D01*
X66693Y-50519D01*
X66553Y-50659D01*
X66553Y-50635D01*
X66515Y-50543D01*
X66445Y-50473D01*
X66354Y-50435D01*
X66255Y-50435D01*
X65655Y-50435D01*
X65563Y-50473D01*
X65493Y-50543D01*
X65455Y-50634D01*
X65455Y-50733D01*
X65455Y-51333D01*
X65493Y-51425D01*
X65563Y-51495D01*
X65654Y-51533D01*
X65753Y-51533D01*
X66353Y-51533D01*
X66445Y-51495D01*
X66515Y-51425D01*
X66553Y-51334D01*
X66553Y-51309D01*
X66693Y-51449D01*
X66895Y-51533D01*
X67113Y-51533D01*
X67315Y-51449D01*
X67469Y-51295D01*
X67504Y-51210D01*
X67539Y-51295D01*
X67693Y-51449D01*
X67895Y-51533D01*
X68113Y-51533D01*
X68315Y-51449D01*
X68469Y-51295D01*
X68504Y-51210D01*
X68539Y-51295D01*
X68693Y-51449D01*
X68895Y-51533D01*
X69113Y-51533D01*
X69315Y-51449D01*
X69469Y-51295D01*
X69504Y-51210D01*
X69539Y-51295D01*
X69693Y-51449D01*
X69895Y-51533D01*
X70113Y-51533D01*
X70315Y-51449D01*
X70469Y-51295D01*
X70504Y-51210D01*
X70539Y-51295D01*
X70693Y-51449D01*
X70895Y-51533D01*
X71113Y-51533D01*
X71315Y-51449D01*
X71469Y-51295D01*
X71553Y-51093D01*
X71553Y-52411D01*
X71469Y-52209D01*
X71315Y-52055D01*
X71113Y-51971D01*
X70895Y-51971D01*
X70693Y-52055D01*
X70539Y-52209D01*
X70504Y-52293D01*
X70469Y-52209D01*
X70315Y-52055D01*
X70113Y-51971D01*
X69895Y-51971D01*
X69693Y-52055D01*
X69539Y-52209D01*
X69504Y-52293D01*
X69469Y-52209D01*
X69315Y-52055D01*
X69113Y-51971D01*
X68895Y-51971D01*
X68693Y-52055D01*
X68539Y-52209D01*
X68504Y-52293D01*
X68469Y-52209D01*
X68315Y-52055D01*
X68113Y-51971D01*
X67895Y-51971D01*
X67693Y-52055D01*
X67539Y-52209D01*
X67504Y-52293D01*
X67469Y-52209D01*
X67315Y-52055D01*
X67113Y-51971D01*
X66895Y-51971D01*
X66693Y-52055D01*
X66553Y-52195D01*
X66553Y-52171D01*
X66515Y-52079D01*
X66445Y-52009D01*
X66354Y-51971D01*
X66255Y-51971D01*
X65655Y-51971D01*
X65563Y-52009D01*
X65493Y-52079D01*
X65455Y-52170D01*
X65455Y-52269D01*
X65455Y-52869D01*
X65493Y-52961D01*
X65563Y-53031D01*
X65654Y-53069D01*
X65753Y-53069D01*
X66353Y-53069D01*
X66445Y-53031D01*
X66515Y-52961D01*
X66553Y-52870D01*
X66553Y-52845D01*
X66693Y-52985D01*
X66895Y-53069D01*
X67113Y-53069D01*
X67315Y-52985D01*
X67469Y-52831D01*
X67504Y-52746D01*
X67539Y-52831D01*
X67693Y-52985D01*
X67895Y-53069D01*
X68113Y-53069D01*
X68315Y-52985D01*
X68469Y-52831D01*
X68504Y-52746D01*
X68539Y-52831D01*
X68693Y-52985D01*
X68895Y-53069D01*
X69113Y-53069D01*
X69315Y-52985D01*
X69469Y-52831D01*
X69504Y-52746D01*
X69539Y-52831D01*
X69693Y-52985D01*
X69895Y-53069D01*
X70113Y-53069D01*
X70315Y-52985D01*
X70469Y-52831D01*
X70504Y-52746D01*
X70539Y-52831D01*
X70693Y-52985D01*
X70895Y-53069D01*
X71113Y-53069D01*
X71315Y-52985D01*
X71469Y-52831D01*
X71553Y-52629D01*
X71553Y-53100D01*
X64545Y-53100D01*
X64545Y-52629D01*
X64545Y-52411D01*
X64461Y-52209D01*
X64307Y-52055D01*
X64105Y-51971D01*
X63887Y-51971D01*
X63685Y-52055D01*
X63531Y-52209D01*
X63447Y-52411D01*
X63447Y-52629D01*
X63531Y-52831D01*
X63685Y-52985D01*
X63887Y-53069D01*
X64105Y-53069D01*
X64307Y-52985D01*
X64461Y-52831D01*
X64545Y-52629D01*
X64545Y-53100D01*
X61799Y-53100D01*
X61799Y-49050D01*
X61799Y-48951D01*
X61799Y-48351D01*
X61761Y-48259D01*
X61691Y-48189D01*
X61600Y-48151D01*
X61575Y-48151D01*
X61715Y-48011D01*
X61799Y-47809D01*
X61799Y-47591D01*
X61715Y-47389D01*
X61561Y-47235D01*
X61476Y-47200D01*
X61561Y-47165D01*
X61715Y-47011D01*
X61799Y-46809D01*
X61799Y-46591D01*
X61715Y-46389D01*
X61561Y-46235D01*
X61476Y-46200D01*
X61561Y-46165D01*
X61715Y-46011D01*
X61799Y-45809D01*
X61799Y-45591D01*
X61715Y-45389D01*
X61561Y-45235D01*
X61476Y-45200D01*
X61561Y-45165D01*
X61715Y-45011D01*
X61799Y-44809D01*
X61799Y-44591D01*
X61715Y-44389D01*
X61561Y-44235D01*
X61476Y-44200D01*
X61561Y-44165D01*
X61715Y-44011D01*
X61799Y-43809D01*
X61799Y-43591D01*
X61715Y-43389D01*
X61561Y-43235D01*
X61476Y-43200D01*
X61561Y-43165D01*
X61715Y-43011D01*
X61799Y-42809D01*
X61799Y-42591D01*
X61715Y-42389D01*
X61561Y-42235D01*
X61476Y-42200D01*
X61561Y-42165D01*
X61715Y-42011D01*
X61799Y-41809D01*
X61799Y-41591D01*
X61715Y-41389D01*
X61561Y-41235D01*
X61359Y-41151D01*
X61141Y-41151D01*
X60939Y-41235D01*
X60785Y-41389D01*
X60701Y-41591D01*
X60701Y-41809D01*
X60785Y-42011D01*
X60939Y-42165D01*
X61023Y-42200D01*
X60939Y-42235D01*
X60785Y-42389D01*
X60701Y-42591D01*
X60701Y-42809D01*
X60785Y-43011D01*
X60939Y-43165D01*
X61023Y-43200D01*
X60939Y-43235D01*
X60785Y-43389D01*
X60701Y-43591D01*
X60701Y-43809D01*
X60785Y-44011D01*
X60939Y-44165D01*
X61023Y-44200D01*
X60939Y-44235D01*
X60785Y-44389D01*
X60701Y-44591D01*
X60701Y-44809D01*
X60785Y-45011D01*
X60939Y-45165D01*
X61023Y-45200D01*
X60939Y-45235D01*
X60785Y-45389D01*
X60701Y-45591D01*
X60701Y-45809D01*
X60785Y-46011D01*
X60939Y-46165D01*
X61023Y-46200D01*
X60939Y-46235D01*
X60785Y-46389D01*
X60701Y-46591D01*
X60701Y-46809D01*
X60785Y-47011D01*
X60939Y-47165D01*
X61023Y-47200D01*
X60939Y-47235D01*
X60785Y-47389D01*
X60701Y-47591D01*
X60701Y-47809D01*
X60785Y-48011D01*
X60925Y-48151D01*
X60901Y-48151D01*
X60809Y-48189D01*
X60739Y-48259D01*
X60701Y-48350D01*
X60701Y-48449D01*
X60701Y-49049D01*
X60739Y-49141D01*
X60809Y-49211D01*
X60900Y-49249D01*
X60999Y-49249D01*
X61599Y-49249D01*
X61691Y-49211D01*
X61761Y-49141D01*
X61799Y-49050D01*
X61799Y-53100D01*
X61545Y-53100D01*
X61545Y-52629D01*
X61545Y-52411D01*
X61461Y-52209D01*
X61307Y-52055D01*
X61105Y-51971D01*
X60887Y-51971D01*
X60685Y-52055D01*
X60531Y-52209D01*
X60496Y-52293D01*
X60461Y-52209D01*
X60307Y-52055D01*
X60105Y-51971D01*
X59887Y-51971D01*
X59685Y-52055D01*
X59545Y-52195D01*
X59545Y-52171D01*
X59507Y-52079D01*
X59437Y-52009D01*
X59346Y-51971D01*
X59247Y-51971D01*
X58749Y-51971D01*
X58749Y-46350D01*
X58749Y-46251D01*
X58749Y-45651D01*
X58711Y-45559D01*
X58641Y-45489D01*
X58550Y-45451D01*
X58525Y-45451D01*
X58665Y-45311D01*
X58749Y-45109D01*
X58749Y-44891D01*
X58665Y-44689D01*
X58511Y-44535D01*
X58426Y-44500D01*
X58511Y-44465D01*
X58665Y-44311D01*
X58749Y-44109D01*
X58749Y-43891D01*
X58665Y-43689D01*
X58511Y-43535D01*
X58426Y-43500D01*
X58511Y-43465D01*
X58665Y-43311D01*
X58749Y-43109D01*
X58749Y-42891D01*
X58665Y-42689D01*
X58511Y-42535D01*
X58309Y-42451D01*
X58091Y-42451D01*
X57889Y-42535D01*
X57735Y-42689D01*
X57651Y-42891D01*
X57651Y-43109D01*
X57735Y-43311D01*
X57889Y-43465D01*
X57973Y-43500D01*
X57889Y-43535D01*
X57735Y-43689D01*
X57651Y-43891D01*
X57651Y-44109D01*
X57735Y-44311D01*
X57889Y-44465D01*
X57973Y-44500D01*
X57889Y-44535D01*
X57735Y-44689D01*
X57651Y-44891D01*
X57651Y-45109D01*
X57735Y-45311D01*
X57875Y-45451D01*
X57851Y-45451D01*
X57759Y-45489D01*
X57689Y-45559D01*
X57651Y-45650D01*
X57651Y-45749D01*
X57651Y-46349D01*
X57689Y-46441D01*
X57759Y-46511D01*
X57850Y-46549D01*
X57949Y-46549D01*
X58549Y-46549D01*
X58641Y-46511D01*
X58711Y-46441D01*
X58749Y-46350D01*
X58749Y-51971D01*
X58647Y-51971D01*
X58555Y-52009D01*
X58525Y-52039D01*
X58525Y-51105D01*
X58525Y-50896D01*
X58525Y-48105D01*
X58525Y-47896D01*
X58445Y-47703D01*
X58298Y-47555D01*
X58105Y-47475D01*
X57896Y-47475D01*
X57703Y-47555D01*
X57555Y-47702D01*
X57475Y-47895D01*
X57475Y-48104D01*
X57555Y-48297D01*
X57702Y-48445D01*
X57895Y-48525D01*
X58104Y-48525D01*
X58297Y-48445D01*
X58445Y-48298D01*
X58525Y-48105D01*
X58525Y-50896D01*
X58445Y-50703D01*
X58298Y-50555D01*
X58105Y-50475D01*
X57896Y-50475D01*
X57703Y-50555D01*
X57555Y-50702D01*
X57475Y-50895D01*
X57475Y-51104D01*
X57555Y-51297D01*
X57702Y-51445D01*
X57895Y-51525D01*
X58104Y-51525D01*
X58297Y-51445D01*
X58445Y-51298D01*
X58525Y-51105D01*
X58525Y-52039D01*
X58485Y-52079D01*
X58447Y-52170D01*
X58447Y-52269D01*
X58447Y-52869D01*
X58485Y-52961D01*
X58555Y-53031D01*
X58646Y-53069D01*
X58745Y-53069D01*
X59345Y-53069D01*
X59437Y-53031D01*
X59507Y-52961D01*
X59545Y-52870D01*
X59545Y-52845D01*
X59685Y-52985D01*
X59887Y-53069D01*
X60105Y-53069D01*
X60307Y-52985D01*
X60461Y-52831D01*
X60496Y-52746D01*
X60531Y-52831D01*
X60685Y-52985D01*
X60887Y-53069D01*
X61105Y-53069D01*
X61307Y-52985D01*
X61461Y-52831D01*
X61545Y-52629D01*
X61545Y-53100D01*
X54774Y-53100D01*
X54774Y-33121D01*
X54857Y-33121D01*
X54849Y-33142D01*
X54849Y-33241D01*
X54849Y-33841D01*
X54887Y-33933D01*
X54957Y-34003D01*
X55048Y-34041D01*
X55147Y-34041D01*
X55747Y-34041D01*
X55839Y-34003D01*
X55909Y-33933D01*
X55947Y-33842D01*
X55947Y-33743D01*
X55947Y-33143D01*
X55937Y-33121D01*
X56993Y-33121D01*
X56933Y-33181D01*
X56849Y-33383D01*
X56849Y-33601D01*
X56933Y-33803D01*
X57087Y-33957D01*
X57289Y-34041D01*
X57507Y-34041D01*
X57709Y-33957D01*
X57863Y-33803D01*
X57898Y-33718D01*
X57933Y-33803D01*
X58087Y-33957D01*
X58289Y-34041D01*
X58507Y-34041D01*
X58709Y-33957D01*
X58863Y-33803D01*
X58898Y-33718D01*
X58933Y-33803D01*
X59087Y-33957D01*
X59289Y-34041D01*
X59507Y-34041D01*
X59709Y-33957D01*
X59863Y-33803D01*
X59898Y-33718D01*
X59933Y-33803D01*
X60087Y-33957D01*
X60289Y-34041D01*
X60507Y-34041D01*
X60709Y-33957D01*
X60863Y-33803D01*
X60898Y-33718D01*
X60933Y-33803D01*
X61087Y-33957D01*
X61289Y-34041D01*
X61507Y-34041D01*
X61709Y-33957D01*
X61863Y-33803D01*
X61898Y-33718D01*
X61933Y-33803D01*
X62087Y-33957D01*
X62289Y-34041D01*
X62507Y-34041D01*
X62709Y-33957D01*
X62863Y-33803D01*
X62947Y-33601D01*
X62947Y-33383D01*
X62863Y-33181D01*
X62803Y-33121D01*
X63439Y-33121D01*
X63431Y-33141D01*
X63431Y-33240D01*
X63431Y-33840D01*
X63469Y-33932D01*
X63539Y-34002D01*
X63630Y-34040D01*
X63729Y-34040D01*
X64329Y-34040D01*
X64421Y-34002D01*
X64491Y-33932D01*
X64529Y-33841D01*
X64529Y-33816D01*
X64669Y-33956D01*
X64871Y-34040D01*
X65089Y-34040D01*
X65291Y-33956D01*
X65445Y-33802D01*
X65480Y-33717D01*
X65515Y-33802D01*
X65669Y-33956D01*
X65871Y-34040D01*
X66089Y-34040D01*
X66291Y-33956D01*
X66445Y-33802D01*
X66480Y-33717D01*
X66515Y-33802D01*
X66669Y-33956D01*
X66871Y-34040D01*
X67089Y-34040D01*
X67291Y-33956D01*
X67445Y-33802D01*
X67480Y-33717D01*
X67515Y-33802D01*
X67669Y-33956D01*
X67871Y-34040D01*
X68089Y-34040D01*
X68291Y-33956D01*
X68445Y-33802D01*
X68480Y-33717D01*
X68515Y-33802D01*
X68669Y-33956D01*
X68871Y-34040D01*
X69089Y-34040D01*
X69291Y-33956D01*
X69445Y-33802D01*
X69480Y-33717D01*
X69515Y-33802D01*
X69669Y-33956D01*
X69871Y-34040D01*
X70089Y-34040D01*
X70291Y-33956D01*
X70445Y-33802D01*
X70480Y-33717D01*
X70515Y-33802D01*
X70669Y-33956D01*
X70871Y-34040D01*
X71089Y-34040D01*
X71291Y-33956D01*
X71445Y-33802D01*
X71529Y-33600D01*
X71529Y-33382D01*
X71445Y-33180D01*
X71386Y-33121D01*
X71604Y-33121D01*
X71604Y-53100D01*
M02*
