G04 (created by PCBNEW-RS274X (2011-nov-30)-testing) date Wed 06 Jun 2012 08:38:00 PM EDT*
%MOIN*%
G04 Gerber Fmt 3.4, Leading zero omitted, Abs format*
%FSLAX34Y34*%
G01*
G70*
G90*
G04 APERTURE LIST*
%ADD10C,0.006*%
%ADD11C,0.012*%
%ADD12C,0.015*%
%ADD13C,0.0026*%
%ADD14C,0.004*%
%ADD15C,0.002*%
%ADD16C,0.005*%
%ADD17C,0.01*%
%ADD18C,0.0035*%
%ADD19C,0.008*%
%ADD20C,0.0079*%
G04 APERTURE END LIST*
G54D10*
G54D11*
X16888Y16161D02*
X16850Y16104D01*
X16774Y16047D01*
X16659Y15961D01*
X16621Y15904D01*
X16621Y15847D01*
X16812Y15875D02*
X16774Y15818D01*
X16698Y15761D01*
X16545Y15732D01*
X16278Y15732D01*
X16126Y15761D01*
X16050Y15818D01*
X16012Y15875D01*
X16012Y15989D01*
X16050Y16047D01*
X16126Y16104D01*
X16278Y16132D01*
X16545Y16132D01*
X16698Y16104D01*
X16774Y16047D01*
X16812Y15989D01*
X16812Y15875D01*
X16583Y16361D02*
X16583Y16647D01*
X16812Y16304D02*
X16012Y16504D01*
X16812Y16704D01*
X11484Y4239D02*
X11484Y4582D01*
X12284Y4411D02*
X11484Y4411D01*
X11750Y5039D02*
X12284Y5039D01*
X11750Y4782D02*
X12170Y4782D01*
X12246Y4810D01*
X12284Y4868D01*
X12284Y4953D01*
X12246Y5010D01*
X12208Y5039D01*
X12284Y5325D02*
X11750Y5325D01*
X11903Y5325D02*
X11827Y5353D01*
X11789Y5382D01*
X11750Y5439D01*
X11750Y5496D01*
X11750Y5610D02*
X11750Y5839D01*
X11484Y5696D02*
X12170Y5696D01*
X12246Y5724D01*
X12284Y5782D01*
X12284Y5839D01*
X12284Y6125D02*
X12246Y6067D01*
X12170Y6039D01*
X11484Y6039D01*
X12246Y6581D02*
X12284Y6524D01*
X12284Y6410D01*
X12246Y6353D01*
X12170Y6324D01*
X11865Y6324D01*
X11789Y6353D01*
X11750Y6410D01*
X11750Y6524D01*
X11789Y6581D01*
X11865Y6610D01*
X11941Y6610D01*
X12017Y6324D01*
X11865Y7067D02*
X11903Y7153D01*
X11941Y7181D01*
X12017Y7210D01*
X12131Y7210D01*
X12208Y7181D01*
X12246Y7153D01*
X12284Y7095D01*
X12284Y6867D01*
X11484Y6867D01*
X11484Y7067D01*
X11522Y7124D01*
X11560Y7153D01*
X11636Y7181D01*
X11712Y7181D01*
X11789Y7153D01*
X11827Y7124D01*
X11865Y7067D01*
X11865Y6867D01*
X12284Y7553D02*
X12246Y7495D01*
X12208Y7467D01*
X12131Y7438D01*
X11903Y7438D01*
X11827Y7467D01*
X11789Y7495D01*
X11750Y7553D01*
X11750Y7638D01*
X11789Y7695D01*
X11827Y7724D01*
X11903Y7753D01*
X12131Y7753D01*
X12208Y7724D01*
X12246Y7695D01*
X12284Y7638D01*
X12284Y7553D01*
X11750Y7924D02*
X11750Y8153D01*
X11484Y8010D02*
X12170Y8010D01*
X12246Y8038D01*
X12284Y8096D01*
X12284Y8153D01*
X11865Y9010D02*
X11903Y9096D01*
X11941Y9124D01*
X12017Y9153D01*
X12131Y9153D01*
X12208Y9124D01*
X12246Y9096D01*
X12284Y9038D01*
X12284Y8810D01*
X11484Y8810D01*
X11484Y9010D01*
X11522Y9067D01*
X11560Y9096D01*
X11636Y9124D01*
X11712Y9124D01*
X11789Y9096D01*
X11827Y9067D01*
X11865Y9010D01*
X11865Y8810D01*
X11750Y9667D02*
X12284Y9667D01*
X11750Y9410D02*
X12170Y9410D01*
X12246Y9438D01*
X12284Y9496D01*
X12284Y9581D01*
X12246Y9638D01*
X12208Y9667D01*
X11750Y9867D02*
X11750Y10096D01*
X11484Y9953D02*
X12170Y9953D01*
X12246Y9981D01*
X12284Y10039D01*
X12284Y10096D01*
X11750Y10210D02*
X11750Y10439D01*
X11484Y10296D02*
X12170Y10296D01*
X12246Y10324D01*
X12284Y10382D01*
X12284Y10439D01*
X12284Y10725D02*
X12246Y10667D01*
X12208Y10639D01*
X12131Y10610D01*
X11903Y10610D01*
X11827Y10639D01*
X11789Y10667D01*
X11750Y10725D01*
X11750Y10810D01*
X11789Y10867D01*
X11827Y10896D01*
X11903Y10925D01*
X12131Y10925D01*
X12208Y10896D01*
X12246Y10867D01*
X12284Y10810D01*
X12284Y10725D01*
X11750Y11182D02*
X12284Y11182D01*
X11827Y11182D02*
X11789Y11210D01*
X11750Y11268D01*
X11750Y11353D01*
X11789Y11410D01*
X11865Y11439D01*
X12284Y11439D01*
X12246Y12153D02*
X12284Y12239D01*
X12284Y12382D01*
X12246Y12439D01*
X12208Y12468D01*
X12131Y12496D01*
X12055Y12496D01*
X11979Y12468D01*
X11941Y12439D01*
X11903Y12382D01*
X11865Y12268D01*
X11827Y12210D01*
X11789Y12182D01*
X11712Y12153D01*
X11636Y12153D01*
X11560Y12182D01*
X11522Y12210D01*
X11484Y12268D01*
X11484Y12410D01*
X11522Y12496D01*
X12284Y12753D02*
X11484Y12753D01*
X12284Y13010D02*
X11865Y13010D01*
X11789Y12981D01*
X11750Y12924D01*
X11750Y12839D01*
X11789Y12781D01*
X11827Y12753D01*
X12284Y13296D02*
X11750Y13296D01*
X11484Y13296D02*
X11522Y13267D01*
X11560Y13296D01*
X11522Y13324D01*
X11484Y13296D01*
X11560Y13296D01*
X12246Y13810D02*
X12284Y13753D01*
X12284Y13639D01*
X12246Y13582D01*
X12170Y13553D01*
X11865Y13553D01*
X11789Y13582D01*
X11750Y13639D01*
X11750Y13753D01*
X11789Y13810D01*
X11865Y13839D01*
X11941Y13839D01*
X12017Y13553D01*
X12284Y14182D02*
X12246Y14124D01*
X12170Y14096D01*
X11484Y14096D01*
X12284Y14667D02*
X11484Y14667D01*
X12246Y14667D02*
X12284Y14610D01*
X12284Y14496D01*
X12246Y14438D01*
X12208Y14410D01*
X12131Y14381D01*
X11903Y14381D01*
X11827Y14410D01*
X11789Y14438D01*
X11750Y14496D01*
X11750Y14610D01*
X11789Y14667D01*
X-2085Y13528D02*
X-2466Y13328D01*
X-2085Y13185D02*
X-2885Y13185D01*
X-2885Y13413D01*
X-2847Y13471D01*
X-2809Y13499D01*
X-2733Y13528D01*
X-2619Y13528D01*
X-2542Y13499D01*
X-2504Y13471D01*
X-2466Y13413D01*
X-2466Y13185D01*
X-2123Y14013D02*
X-2085Y13956D01*
X-2085Y13842D01*
X-2123Y13785D01*
X-2199Y13756D01*
X-2504Y13756D01*
X-2580Y13785D01*
X-2619Y13842D01*
X-2619Y13956D01*
X-2580Y14013D01*
X-2504Y14042D01*
X-2428Y14042D01*
X-2352Y13756D01*
X-2619Y14242D02*
X-2085Y14385D01*
X-2619Y14527D01*
G54D12*
X-3197Y13433D02*
X-3197Y14220D01*
G54D11*
X-4264Y6371D02*
X-4264Y6428D01*
X-4226Y6485D01*
X-4188Y6514D01*
X-4112Y6543D01*
X-3959Y6571D01*
X-3769Y6571D01*
X-3617Y6543D01*
X-3540Y6514D01*
X-3502Y6485D01*
X-3464Y6428D01*
X-3464Y6371D01*
X-3502Y6314D01*
X-3540Y6285D01*
X-3617Y6257D01*
X-3769Y6228D01*
X-3959Y6228D01*
X-4112Y6257D01*
X-4188Y6285D01*
X-4226Y6314D01*
X-4264Y6371D01*
X-4188Y6799D02*
X-4226Y6828D01*
X-4264Y6885D01*
X-4264Y7028D01*
X-4226Y7085D01*
X-4188Y7114D01*
X-4112Y7142D01*
X-4036Y7142D01*
X-3921Y7114D01*
X-3464Y6771D01*
X-3464Y7142D01*
X-4264Y7513D02*
X-4264Y7570D01*
X-4226Y7627D01*
X-4188Y7656D01*
X-4112Y7685D01*
X-3959Y7713D01*
X-3769Y7713D01*
X-3617Y7685D01*
X-3540Y7656D01*
X-3502Y7627D01*
X-3464Y7570D01*
X-3464Y7513D01*
X-3502Y7456D01*
X-3540Y7427D01*
X-3617Y7399D01*
X-3769Y7370D01*
X-3959Y7370D01*
X-4112Y7399D01*
X-4188Y7427D01*
X-4226Y7456D01*
X-4264Y7513D01*
X-4264Y8084D02*
X-4264Y8141D01*
X-4226Y8198D01*
X-4188Y8227D01*
X-4112Y8256D01*
X-3959Y8284D01*
X-3769Y8284D01*
X-3617Y8256D01*
X-3540Y8227D01*
X-3502Y8198D01*
X-3464Y8141D01*
X-3464Y8084D01*
X-3502Y8027D01*
X-3540Y7998D01*
X-3617Y7970D01*
X-3769Y7941D01*
X-3959Y7941D01*
X-4112Y7970D01*
X-4188Y7998D01*
X-4226Y8027D01*
X-4264Y8084D01*
X-3769Y8541D02*
X-3769Y8998D01*
X-4264Y9398D02*
X-4264Y9455D01*
X-4226Y9512D01*
X-4188Y9541D01*
X-4112Y9570D01*
X-3959Y9598D01*
X-3769Y9598D01*
X-3617Y9570D01*
X-3540Y9541D01*
X-3502Y9512D01*
X-3464Y9455D01*
X-3464Y9398D01*
X-3502Y9341D01*
X-3540Y9312D01*
X-3617Y9284D01*
X-3769Y9255D01*
X-3959Y9255D01*
X-4112Y9284D01*
X-4188Y9312D01*
X-4226Y9341D01*
X-4264Y9398D01*
X-4264Y9969D02*
X-4264Y10026D01*
X-4226Y10083D01*
X-4188Y10112D01*
X-4112Y10141D01*
X-3959Y10169D01*
X-3769Y10169D01*
X-3617Y10141D01*
X-3540Y10112D01*
X-3502Y10083D01*
X-3464Y10026D01*
X-3464Y9969D01*
X-3502Y9912D01*
X-3540Y9883D01*
X-3617Y9855D01*
X-3769Y9826D01*
X-3959Y9826D01*
X-4112Y9855D01*
X-4188Y9883D01*
X-4226Y9912D01*
X-4264Y9969D01*
X-4264Y10540D02*
X-4264Y10597D01*
X-4226Y10654D01*
X-4188Y10683D01*
X-4112Y10712D01*
X-3959Y10740D01*
X-3769Y10740D01*
X-3617Y10712D01*
X-3540Y10683D01*
X-3502Y10654D01*
X-3464Y10597D01*
X-3464Y10540D01*
X-3502Y10483D01*
X-3540Y10454D01*
X-3617Y10426D01*
X-3769Y10397D01*
X-3959Y10397D01*
X-4112Y10426D01*
X-4188Y10454D01*
X-4226Y10483D01*
X-4264Y10540D01*
X-4264Y10940D02*
X-4264Y11311D01*
X-3959Y11111D01*
X-3959Y11197D01*
X-3921Y11254D01*
X-3883Y11283D01*
X-3807Y11311D01*
X-3617Y11311D01*
X-3540Y11283D01*
X-3502Y11254D01*
X-3464Y11197D01*
X-3464Y11025D01*
X-3502Y10968D01*
X-3540Y10940D01*
X-3769Y11568D02*
X-3769Y12025D01*
X-4264Y12425D02*
X-4264Y12482D01*
X-4226Y12539D01*
X-4188Y12568D01*
X-4112Y12597D01*
X-3959Y12625D01*
X-3769Y12625D01*
X-3617Y12597D01*
X-3540Y12568D01*
X-3502Y12539D01*
X-3464Y12482D01*
X-3464Y12425D01*
X-3502Y12368D01*
X-3540Y12339D01*
X-3617Y12311D01*
X-3769Y12282D01*
X-3959Y12282D01*
X-4112Y12311D01*
X-4188Y12339D01*
X-4226Y12368D01*
X-4264Y12425D01*
X-4264Y12996D02*
X-4264Y13053D01*
X-4226Y13110D01*
X-4188Y13139D01*
X-4112Y13168D01*
X-3959Y13196D01*
X-3769Y13196D01*
X-3617Y13168D01*
X-3540Y13139D01*
X-3502Y13110D01*
X-3464Y13053D01*
X-3464Y12996D01*
X-3502Y12939D01*
X-3540Y12910D01*
X-3617Y12882D01*
X-3769Y12853D01*
X-3959Y12853D01*
X-4112Y12882D01*
X-4188Y12910D01*
X-4226Y12939D01*
X-4264Y12996D01*
X-4264Y13567D02*
X-4264Y13624D01*
X-4226Y13681D01*
X-4188Y13710D01*
X-4112Y13739D01*
X-3959Y13767D01*
X-3769Y13767D01*
X-3617Y13739D01*
X-3540Y13710D01*
X-3502Y13681D01*
X-3464Y13624D01*
X-3464Y13567D01*
X-3502Y13510D01*
X-3540Y13481D01*
X-3617Y13453D01*
X-3769Y13424D01*
X-3959Y13424D01*
X-4112Y13453D01*
X-4188Y13481D01*
X-4226Y13510D01*
X-4264Y13567D01*
X-3464Y14338D02*
X-3464Y13995D01*
X-3464Y14167D02*
X-4264Y14167D01*
X-4150Y14110D01*
X-4074Y14052D01*
X-4036Y13995D01*
G54D12*
X-2317Y19211D02*
X-2041Y19407D01*
X-2041Y19407D02*
X-2041Y19092D01*
X-2041Y19092D02*
X-2277Y19171D01*
X-2277Y19171D02*
X-2159Y19211D01*
G54D13*
X-1924Y18502D02*
X-1924Y18374D01*
X-1924Y18374D02*
X-1727Y18374D01*
X-1727Y18502D02*
X-1727Y18374D01*
X-1924Y18502D02*
X-1727Y18502D01*
X-1924Y18747D02*
X-1924Y18688D01*
X-1924Y18688D02*
X-1825Y18688D01*
X-1825Y18747D02*
X-1825Y18688D01*
X-1924Y18747D02*
X-1825Y18747D01*
X-1924Y18552D02*
X-1924Y18493D01*
X-1924Y18493D02*
X-1825Y18493D01*
X-1825Y18552D02*
X-1825Y18493D01*
X-1924Y18552D02*
X-1825Y18552D01*
X-1924Y18698D02*
X-1924Y18542D01*
X-1924Y18542D02*
X-1855Y18542D01*
X-1855Y18698D02*
X-1855Y18542D01*
X-1924Y18698D02*
X-1855Y18698D01*
X-2513Y18502D02*
X-2513Y18374D01*
X-2513Y18374D02*
X-2316Y18374D01*
X-2316Y18502D02*
X-2316Y18374D01*
X-2513Y18502D02*
X-2316Y18502D01*
X-2513Y18866D02*
X-2513Y18738D01*
X-2513Y18738D02*
X-2316Y18738D01*
X-2316Y18866D02*
X-2316Y18738D01*
X-2513Y18866D02*
X-2316Y18866D01*
X-2415Y18552D02*
X-2415Y18493D01*
X-2415Y18493D02*
X-2316Y18493D01*
X-2316Y18552D02*
X-2316Y18493D01*
X-2415Y18552D02*
X-2316Y18552D01*
X-2415Y18747D02*
X-2415Y18688D01*
X-2415Y18688D02*
X-2316Y18688D01*
X-2316Y18747D02*
X-2316Y18688D01*
X-2415Y18747D02*
X-2316Y18747D01*
X-2385Y18698D02*
X-2385Y18542D01*
X-2385Y18542D02*
X-2316Y18542D01*
X-2316Y18698D02*
X-2316Y18542D01*
X-2385Y18698D02*
X-2316Y18698D01*
X-2120Y18659D02*
X-2120Y18581D01*
X-2120Y18581D02*
X-2042Y18581D01*
X-2042Y18659D02*
X-2042Y18581D01*
X-2120Y18659D02*
X-2042Y18659D01*
X-1924Y18856D02*
X-1924Y18738D01*
X-1924Y18738D02*
X-1806Y18738D01*
X-1806Y18856D02*
X-1806Y18738D01*
X-1924Y18856D02*
X-1806Y18856D01*
X-1756Y18866D02*
X-1756Y18777D01*
X-1756Y18777D02*
X-1727Y18777D01*
X-1727Y18866D02*
X-1727Y18777D01*
X-1756Y18866D02*
X-1727Y18866D01*
G54D14*
X-1914Y18394D02*
X-2326Y18394D01*
X-2316Y18846D02*
X-1756Y18846D01*
G54D15*
X-1758Y18797D02*
X-1759Y18792D01*
X-1761Y18787D01*
X-1763Y18782D01*
X-1767Y18778D01*
X-1771Y18774D01*
X-1776Y18772D01*
X-1781Y18770D01*
X-1786Y18770D01*
X-1791Y18770D01*
X-1796Y18772D01*
X-1801Y18774D01*
X-1805Y18777D01*
X-1809Y18782D01*
X-1811Y18786D01*
X-1813Y18792D01*
X-1813Y18797D01*
X-1813Y18802D01*
X-1812Y18807D01*
X-1809Y18812D01*
X-1806Y18816D01*
X-1801Y18819D01*
X-1797Y18822D01*
X-1792Y18824D01*
X-1786Y18824D01*
X-1782Y18824D01*
X-1776Y18823D01*
X-1771Y18820D01*
X-1767Y18817D01*
X-1764Y18813D01*
X-1761Y18808D01*
X-1759Y18803D01*
X-1759Y18797D01*
X-1758Y18797D01*
G54D14*
X-1727Y18757D02*
X-1738Y18756D01*
X-1750Y18754D01*
X-1762Y18752D01*
X-1773Y18748D01*
X-1784Y18744D01*
X-1795Y18738D01*
X-1805Y18732D01*
X-1815Y18724D01*
X-1823Y18716D01*
X-1831Y18708D01*
X-1839Y18698D01*
X-1845Y18688D01*
X-1851Y18677D01*
X-1855Y18666D01*
X-1859Y18655D01*
X-1861Y18643D01*
X-1863Y18631D01*
X-1864Y18620D01*
X-1863Y18609D01*
X-1861Y18597D01*
X-1859Y18585D01*
X-1855Y18574D01*
X-1851Y18563D01*
X-1845Y18552D01*
X-1839Y18542D01*
X-1831Y18532D01*
X-1823Y18524D01*
X-1815Y18516D01*
X-1805Y18508D01*
X-1795Y18502D01*
X-1784Y18496D01*
X-1773Y18492D01*
X-1762Y18488D01*
X-1750Y18486D01*
X-1738Y18484D01*
X-1727Y18483D01*
X-2513Y18483D02*
X-2502Y18484D01*
X-2490Y18486D01*
X-2478Y18488D01*
X-2467Y18492D01*
X-2456Y18496D01*
X-2445Y18502D01*
X-2435Y18508D01*
X-2425Y18516D01*
X-2417Y18524D01*
X-2409Y18532D01*
X-2401Y18542D01*
X-2395Y18552D01*
X-2389Y18563D01*
X-2385Y18574D01*
X-2381Y18585D01*
X-2379Y18597D01*
X-2377Y18609D01*
X-2376Y18620D01*
X-2377Y18631D01*
X-2379Y18643D01*
X-2381Y18655D01*
X-2385Y18666D01*
X-2389Y18677D01*
X-2395Y18688D01*
X-2401Y18698D01*
X-2409Y18708D01*
X-2417Y18716D01*
X-2425Y18724D01*
X-2435Y18732D01*
X-2445Y18738D01*
X-2456Y18744D01*
X-2467Y18748D01*
X-2478Y18752D01*
X-2490Y18754D01*
X-2502Y18756D01*
X-2513Y18757D01*
G54D11*
X5496Y-20D02*
X5496Y980D01*
X5496Y980D02*
X11496Y980D01*
X11496Y980D02*
X11496Y-20D01*
X11496Y-20D02*
X5496Y-20D01*
X6496Y-20D02*
X6496Y980D01*
X-380Y11480D02*
X-380Y9480D01*
X-380Y9480D02*
X-2380Y9480D01*
X-2380Y9480D02*
X-2380Y11480D01*
X-2380Y11480D02*
X-380Y11480D01*
G54D16*
X-420Y18340D02*
X-421Y18331D01*
X-424Y18321D01*
X-429Y18313D01*
X-435Y18305D01*
X-443Y18299D01*
X-451Y18294D01*
X-460Y18292D01*
X-470Y18291D01*
X-479Y18291D01*
X-488Y18294D01*
X-497Y18299D01*
X-504Y18305D01*
X-511Y18312D01*
X-515Y18321D01*
X-518Y18330D01*
X-519Y18340D01*
X-519Y18349D01*
X-516Y18358D01*
X-512Y18367D01*
X-505Y18374D01*
X-498Y18381D01*
X-490Y18385D01*
X-480Y18388D01*
X-471Y18389D01*
X-462Y18389D01*
X-452Y18386D01*
X-444Y18382D01*
X-436Y18376D01*
X-430Y18368D01*
X-425Y18360D01*
X-422Y18351D01*
X-421Y18341D01*
X-420Y18340D01*
X-20Y18340D02*
X-420Y18340D01*
X-420Y18340D02*
X-420Y18940D01*
X-420Y18940D02*
X-20Y18940D01*
X380Y18940D02*
X780Y18940D01*
X780Y18940D02*
X780Y18340D01*
X780Y18340D02*
X380Y18340D01*
X-400Y3040D02*
X-420Y2846D01*
X-476Y2659D01*
X-568Y2487D01*
X-691Y2336D01*
X-841Y2211D01*
X-1013Y2119D01*
X-1199Y2061D01*
X-1394Y2041D01*
X-1587Y2058D01*
X-1774Y2113D01*
X-1947Y2204D01*
X-2099Y2326D01*
X-2225Y2476D01*
X-2319Y2647D01*
X-2378Y2833D01*
X-2399Y3027D01*
X-2383Y3220D01*
X-2329Y3408D01*
X-2240Y3581D01*
X-2119Y3734D01*
X-1970Y3861D01*
X-1800Y3956D01*
X-1614Y4016D01*
X-1420Y4039D01*
X-1227Y4024D01*
X-1039Y3972D01*
X-865Y3884D01*
X-711Y3764D01*
X-583Y3616D01*
X-487Y3446D01*
X-425Y3261D01*
X-401Y3067D01*
X-400Y3040D01*
X100Y1540D02*
X-2900Y1540D01*
X-2900Y1540D02*
X-2900Y4540D01*
X-2900Y4540D02*
X100Y4540D01*
X100Y1540D02*
X100Y4540D01*
G54D12*
X9837Y18234D02*
X9837Y19042D01*
X2022Y18254D02*
X2022Y19042D01*
G54D11*
X2020Y19056D02*
X9820Y19056D01*
X9820Y18240D02*
X2020Y18240D01*
G54D12*
X18397Y19103D02*
X18397Y19911D01*
X10582Y19123D02*
X10582Y19911D01*
G54D11*
X10580Y19925D02*
X18380Y19925D01*
X18380Y19109D02*
X10580Y19109D01*
G54D12*
X18387Y18234D02*
X18387Y19042D01*
X10572Y18254D02*
X10572Y19042D01*
G54D11*
X10570Y19056D02*
X18370Y19056D01*
X18370Y18240D02*
X10570Y18240D01*
G54D12*
X9815Y19102D02*
X9815Y19910D01*
X2000Y19122D02*
X2000Y19910D01*
G54D11*
X1998Y19924D02*
X9798Y19924D01*
X9798Y19108D02*
X1998Y19108D01*
X12504Y-20D02*
X12504Y980D01*
X12504Y980D02*
X18504Y980D01*
X18504Y980D02*
X18504Y-20D01*
X18504Y-20D02*
X12504Y-20D01*
X13504Y-20D02*
X13504Y980D01*
X12504Y925D02*
X12504Y1925D01*
X12504Y1925D02*
X18504Y1925D01*
X18504Y1925D02*
X18504Y925D01*
X18504Y925D02*
X12504Y925D01*
X13504Y925D02*
X13504Y1925D01*
G54D17*
X-3400Y1000D02*
X600Y1000D01*
X-3400Y0D02*
X600Y0D01*
X600Y0D02*
X600Y1000D01*
X-3400Y1000D02*
X-3400Y0D01*
G54D12*
X13929Y14417D02*
X13929Y5914D01*
X13929Y5913D02*
X18653Y5913D01*
X18653Y5914D02*
X18653Y14417D01*
X18653Y14417D02*
X13929Y14417D01*
X10462Y7372D02*
X1959Y7372D01*
X1958Y7372D02*
X1958Y2648D01*
X1959Y2648D02*
X10462Y2648D01*
X10462Y2648D02*
X10462Y7372D01*
X1922Y12015D02*
X10425Y12015D01*
X10426Y12015D02*
X10426Y16739D01*
X10425Y16739D02*
X1922Y16739D01*
X1922Y16739D02*
X1922Y12015D01*
G54D18*
X-2385Y17759D02*
X-2385Y18259D01*
X-2266Y18259D01*
X-2194Y18235D01*
X-2147Y18187D01*
X-2123Y18140D01*
X-2099Y18044D01*
X-2099Y17973D01*
X-2123Y17878D01*
X-2147Y17830D01*
X-2194Y17782D01*
X-2266Y17759D01*
X-2385Y17759D01*
X-1623Y17759D02*
X-1909Y17759D01*
X-1766Y17759D02*
X-1766Y18259D01*
X-1814Y18187D01*
X-1861Y18140D01*
X-1909Y18116D01*
G54D19*
X5628Y1168D02*
X5628Y1435D01*
X5628Y1359D02*
X5647Y1397D01*
X5666Y1416D01*
X5704Y1435D01*
X5743Y1435D01*
X5857Y1187D02*
X5895Y1168D01*
X5971Y1168D01*
X6010Y1187D01*
X6029Y1225D01*
X6029Y1244D01*
X6010Y1282D01*
X5971Y1301D01*
X5914Y1301D01*
X5876Y1320D01*
X5857Y1359D01*
X5857Y1378D01*
X5876Y1416D01*
X5914Y1435D01*
X5971Y1435D01*
X6010Y1416D01*
X6143Y1435D02*
X6295Y1435D01*
X6200Y1568D02*
X6200Y1225D01*
X6219Y1187D01*
X6257Y1168D01*
X6295Y1168D01*
X6696Y1568D02*
X6944Y1568D01*
X6810Y1416D01*
X6868Y1416D01*
X6906Y1397D01*
X6925Y1378D01*
X6944Y1340D01*
X6944Y1244D01*
X6925Y1206D01*
X6906Y1187D01*
X6868Y1168D01*
X6753Y1168D01*
X6715Y1187D01*
X6696Y1206D01*
X7077Y1435D02*
X7172Y1168D01*
X7268Y1435D01*
X7382Y1568D02*
X7630Y1568D01*
X7496Y1416D01*
X7554Y1416D01*
X7592Y1397D01*
X7611Y1378D01*
X7630Y1340D01*
X7630Y1244D01*
X7611Y1206D01*
X7592Y1187D01*
X7554Y1168D01*
X7439Y1168D01*
X7401Y1187D01*
X7382Y1206D01*
X8297Y1568D02*
X8106Y1568D01*
X8087Y1378D01*
X8106Y1397D01*
X8144Y1416D01*
X8240Y1416D01*
X8278Y1397D01*
X8297Y1378D01*
X8316Y1340D01*
X8316Y1244D01*
X8297Y1206D01*
X8278Y1187D01*
X8240Y1168D01*
X8144Y1168D01*
X8106Y1187D01*
X8087Y1206D01*
X8430Y1568D02*
X8563Y1168D01*
X8697Y1568D01*
X9345Y1549D02*
X9307Y1568D01*
X9250Y1568D01*
X9192Y1549D01*
X9154Y1511D01*
X9135Y1473D01*
X9116Y1397D01*
X9116Y1340D01*
X9135Y1263D01*
X9154Y1225D01*
X9192Y1187D01*
X9250Y1168D01*
X9288Y1168D01*
X9345Y1187D01*
X9364Y1206D01*
X9364Y1340D01*
X9288Y1340D01*
X9535Y1168D02*
X9535Y1568D01*
X9764Y1168D01*
X9764Y1568D01*
X9954Y1168D02*
X9954Y1568D01*
X10049Y1568D01*
X10107Y1549D01*
X10145Y1511D01*
X10164Y1473D01*
X10183Y1397D01*
X10183Y1340D01*
X10164Y1263D01*
X10145Y1225D01*
X10107Y1187D01*
X10049Y1168D01*
X9954Y1168D01*
X10602Y1568D02*
X10735Y1168D01*
X10869Y1568D01*
X11002Y1168D02*
X11002Y1435D01*
X11002Y1568D02*
X10983Y1549D01*
X11002Y1530D01*
X11021Y1549D01*
X11002Y1568D01*
X11002Y1530D01*
X11192Y1435D02*
X11192Y1168D01*
X11192Y1397D02*
X11211Y1416D01*
X11249Y1435D01*
X11307Y1435D01*
X11345Y1416D01*
X11364Y1378D01*
X11364Y1168D01*
X102Y9394D02*
X102Y9528D01*
X312Y9585D02*
X312Y9394D01*
X-88Y9394D01*
X-88Y9585D01*
X160Y9756D02*
X160Y10061D01*
X293Y10232D02*
X312Y10289D01*
X312Y10385D01*
X293Y10423D01*
X274Y10442D01*
X236Y10461D01*
X198Y10461D01*
X160Y10442D01*
X140Y10423D01*
X121Y10385D01*
X102Y10308D01*
X83Y10270D01*
X64Y10251D01*
X26Y10232D01*
X-12Y10232D01*
X-50Y10251D01*
X-69Y10270D01*
X-88Y10308D01*
X-88Y10404D01*
X-69Y10461D01*
X-88Y10575D02*
X-88Y10804D01*
X312Y10689D02*
X-88Y10689D01*
X-88Y11013D02*
X-88Y11090D01*
X-69Y11128D01*
X-31Y11166D01*
X45Y11185D01*
X179Y11185D01*
X255Y11166D01*
X293Y11128D01*
X312Y11090D01*
X312Y11013D01*
X293Y10975D01*
X255Y10937D01*
X179Y10918D01*
X45Y10918D01*
X-31Y10937D01*
X-69Y10975D01*
X-88Y11013D01*
X312Y11356D02*
X-88Y11356D01*
X-88Y11509D01*
X-69Y11547D01*
X-50Y11566D01*
X-12Y11585D01*
X45Y11585D01*
X83Y11566D01*
X102Y11547D01*
X121Y11509D01*
X121Y11356D01*
G54D16*
X501Y17663D02*
X418Y17782D01*
X359Y17663D02*
X359Y17913D01*
X454Y17913D01*
X478Y17901D01*
X489Y17889D01*
X501Y17865D01*
X501Y17829D01*
X489Y17806D01*
X478Y17794D01*
X454Y17782D01*
X359Y17782D01*
X739Y17663D02*
X597Y17663D01*
X668Y17663D02*
X668Y17913D01*
X644Y17877D01*
X620Y17853D01*
X597Y17841D01*
G54D20*
X-1723Y5003D02*
X-1857Y5194D01*
X-1952Y5003D02*
X-1952Y5403D01*
X-1799Y5403D01*
X-1761Y5384D01*
X-1742Y5365D01*
X-1723Y5327D01*
X-1723Y5270D01*
X-1742Y5232D01*
X-1761Y5213D01*
X-1799Y5194D01*
X-1952Y5194D01*
X-1399Y5022D02*
X-1437Y5003D01*
X-1514Y5003D01*
X-1552Y5022D01*
X-1571Y5060D01*
X-1571Y5213D01*
X-1552Y5251D01*
X-1514Y5270D01*
X-1437Y5270D01*
X-1399Y5251D01*
X-1380Y5213D01*
X-1380Y5175D01*
X-1571Y5136D01*
X-1228Y5022D02*
X-1190Y5003D01*
X-1114Y5003D01*
X-1075Y5022D01*
X-1056Y5060D01*
X-1056Y5079D01*
X-1075Y5117D01*
X-1114Y5136D01*
X-1171Y5136D01*
X-1209Y5155D01*
X-1228Y5194D01*
X-1228Y5213D01*
X-1209Y5251D01*
X-1171Y5270D01*
X-1114Y5270D01*
X-1075Y5251D01*
X-732Y5022D02*
X-770Y5003D01*
X-847Y5003D01*
X-885Y5022D01*
X-904Y5060D01*
X-904Y5213D01*
X-885Y5251D01*
X-847Y5270D01*
X-770Y5270D01*
X-732Y5251D01*
X-713Y5213D01*
X-713Y5175D01*
X-904Y5136D01*
X-599Y5270D02*
X-447Y5270D01*
X-542Y5403D02*
X-542Y5060D01*
X-523Y5022D01*
X-485Y5003D01*
X-447Y5003D01*
G54D19*
X1917Y17838D02*
X2108Y17838D01*
X1879Y17724D02*
X2012Y18124D01*
X2146Y17724D01*
X2279Y17724D02*
X2279Y17991D01*
X2279Y17915D02*
X2298Y17953D01*
X2317Y17972D01*
X2355Y17991D01*
X2394Y17991D01*
X3004Y17991D02*
X3004Y17667D01*
X2985Y17629D01*
X2966Y17610D01*
X2927Y17591D01*
X2870Y17591D01*
X2832Y17610D01*
X3004Y17743D02*
X2966Y17724D01*
X2889Y17724D01*
X2851Y17743D01*
X2832Y17762D01*
X2813Y17800D01*
X2813Y17915D01*
X2832Y17953D01*
X2851Y17972D01*
X2889Y17991D01*
X2966Y17991D01*
X3004Y17972D01*
X3194Y17991D02*
X3194Y17724D01*
X3194Y17953D02*
X3213Y17972D01*
X3251Y17991D01*
X3309Y17991D01*
X3347Y17972D01*
X3366Y17934D01*
X3366Y17724D01*
X3728Y17724D02*
X3728Y18124D01*
X3728Y17743D02*
X3690Y17724D01*
X3613Y17724D01*
X3575Y17743D01*
X3556Y17762D01*
X3537Y17800D01*
X3537Y17915D01*
X3556Y17953D01*
X3575Y17972D01*
X3613Y17991D01*
X3690Y17991D01*
X3728Y17972D01*
X4433Y17724D02*
X4204Y17724D01*
X4318Y17724D02*
X4318Y18124D01*
X4280Y18067D01*
X4242Y18029D01*
X4204Y18010D01*
X4566Y18124D02*
X4814Y18124D01*
X4680Y17972D01*
X4738Y17972D01*
X4776Y17953D01*
X4795Y17934D01*
X4814Y17896D01*
X4814Y17800D01*
X4795Y17762D01*
X4776Y17743D01*
X4738Y17724D01*
X4623Y17724D01*
X4585Y17743D01*
X4566Y17762D01*
X5500Y17724D02*
X5271Y17724D01*
X5385Y17724D02*
X5385Y18124D01*
X5347Y18067D01*
X5309Y18029D01*
X5271Y18010D01*
X5652Y18086D02*
X5671Y18105D01*
X5709Y18124D01*
X5805Y18124D01*
X5843Y18105D01*
X5862Y18086D01*
X5881Y18048D01*
X5881Y18010D01*
X5862Y17953D01*
X5633Y17724D01*
X5881Y17724D01*
X6567Y17724D02*
X6338Y17724D01*
X6452Y17724D02*
X6452Y18124D01*
X6414Y18067D01*
X6376Y18029D01*
X6338Y18010D01*
X6948Y17724D02*
X6719Y17724D01*
X6833Y17724D02*
X6833Y18124D01*
X6795Y18067D01*
X6757Y18029D01*
X6719Y18010D01*
X7634Y17724D02*
X7405Y17724D01*
X7519Y17724D02*
X7519Y18124D01*
X7481Y18067D01*
X7443Y18029D01*
X7405Y18010D01*
X7881Y18124D02*
X7920Y18124D01*
X7958Y18105D01*
X7977Y18086D01*
X7996Y18048D01*
X8015Y17972D01*
X8015Y17876D01*
X7996Y17800D01*
X7977Y17762D01*
X7958Y17743D01*
X7920Y17724D01*
X7881Y17724D01*
X7843Y17743D01*
X7824Y17762D01*
X7805Y17800D01*
X7786Y17876D01*
X7786Y17972D01*
X7805Y18048D01*
X7824Y18086D01*
X7843Y18105D01*
X7881Y18124D01*
X8510Y17724D02*
X8586Y17724D01*
X8625Y17743D01*
X8644Y17762D01*
X8682Y17819D01*
X8701Y17896D01*
X8701Y18048D01*
X8682Y18086D01*
X8663Y18105D01*
X8625Y18124D01*
X8548Y18124D01*
X8510Y18105D01*
X8491Y18086D01*
X8472Y18048D01*
X8472Y17953D01*
X8491Y17915D01*
X8510Y17896D01*
X8548Y17876D01*
X8625Y17876D01*
X8663Y17896D01*
X8682Y17915D01*
X8701Y17953D01*
X9234Y17953D02*
X9196Y17972D01*
X9177Y17991D01*
X9158Y18029D01*
X9158Y18048D01*
X9177Y18086D01*
X9196Y18105D01*
X9234Y18124D01*
X9311Y18124D01*
X9349Y18105D01*
X9368Y18086D01*
X9387Y18048D01*
X9387Y18029D01*
X9368Y17991D01*
X9349Y17972D01*
X9311Y17953D01*
X9234Y17953D01*
X9196Y17934D01*
X9177Y17915D01*
X9158Y17876D01*
X9158Y17800D01*
X9177Y17762D01*
X9196Y17743D01*
X9234Y17724D01*
X9311Y17724D01*
X9349Y17743D01*
X9368Y17762D01*
X9387Y17800D01*
X9387Y17876D01*
X9368Y17915D01*
X9349Y17934D01*
X9311Y17953D01*
X10821Y18078D02*
X11088Y18078D01*
X10916Y17678D01*
X12022Y18078D02*
X11945Y18078D01*
X11907Y18059D01*
X11888Y18040D01*
X11850Y17983D01*
X11831Y17907D01*
X11831Y17754D01*
X11850Y17716D01*
X11869Y17697D01*
X11907Y17678D01*
X11984Y17678D01*
X12022Y17697D01*
X12041Y17716D01*
X12060Y17754D01*
X12060Y17850D01*
X12041Y17888D01*
X12022Y17907D01*
X11984Y17926D01*
X11907Y17926D01*
X11869Y17907D01*
X11850Y17888D01*
X11831Y17850D01*
X13032Y18078D02*
X12841Y18078D01*
X12822Y17888D01*
X12841Y17907D01*
X12879Y17926D01*
X12975Y17926D01*
X13013Y17907D01*
X13032Y17888D01*
X13051Y17850D01*
X13051Y17754D01*
X13032Y17716D01*
X13013Y17697D01*
X12975Y17678D01*
X12879Y17678D01*
X12841Y17697D01*
X12822Y17716D01*
X14004Y17945D02*
X14004Y17678D01*
X13908Y18097D02*
X13813Y17811D01*
X14061Y17811D01*
X14785Y18078D02*
X15033Y18078D01*
X14899Y17926D01*
X14957Y17926D01*
X14995Y17907D01*
X15014Y17888D01*
X15033Y17850D01*
X15033Y17754D01*
X15014Y17716D01*
X14995Y17697D01*
X14957Y17678D01*
X14842Y17678D01*
X14804Y17697D01*
X14785Y17716D01*
X15795Y18040D02*
X15814Y18059D01*
X15852Y18078D01*
X15948Y18078D01*
X15986Y18059D01*
X16005Y18040D01*
X16024Y18002D01*
X16024Y17964D01*
X16005Y17907D01*
X15776Y17678D01*
X16024Y17678D01*
X16443Y18078D02*
X16672Y18078D01*
X16557Y17678D02*
X16557Y18078D01*
X16767Y18078D02*
X17034Y17678D01*
X17034Y18078D02*
X16767Y17678D01*
X17720Y17678D02*
X17586Y17869D01*
X17491Y17678D02*
X17491Y18078D01*
X17644Y18078D01*
X17682Y18059D01*
X17701Y18040D01*
X17720Y18002D01*
X17720Y17945D01*
X17701Y17907D01*
X17682Y17888D01*
X17644Y17869D01*
X17491Y17869D01*
X17853Y18078D02*
X18120Y17678D01*
X18120Y18078D02*
X17853Y17678D01*
X12646Y2227D02*
X12837Y2227D01*
X12608Y2113D02*
X12741Y2513D01*
X12875Y2113D01*
X13084Y2513D02*
X13123Y2513D01*
X13161Y2494D01*
X13180Y2475D01*
X13199Y2437D01*
X13218Y2361D01*
X13218Y2265D01*
X13199Y2189D01*
X13180Y2151D01*
X13161Y2132D01*
X13123Y2113D01*
X13084Y2113D01*
X13046Y2132D01*
X13027Y2151D01*
X13008Y2189D01*
X12989Y2265D01*
X12989Y2361D01*
X13008Y2437D01*
X13027Y2475D01*
X13046Y2494D01*
X13084Y2513D01*
X13675Y2227D02*
X13866Y2227D01*
X13637Y2113D02*
X13770Y2513D01*
X13904Y2113D01*
X14247Y2113D02*
X14018Y2113D01*
X14132Y2113D02*
X14132Y2513D01*
X14094Y2456D01*
X14056Y2418D01*
X14018Y2399D01*
X14704Y2227D02*
X14895Y2227D01*
X14666Y2113D02*
X14799Y2513D01*
X14933Y2113D01*
X15047Y2475D02*
X15066Y2494D01*
X15104Y2513D01*
X15200Y2513D01*
X15238Y2494D01*
X15257Y2475D01*
X15276Y2437D01*
X15276Y2399D01*
X15257Y2342D01*
X15028Y2113D01*
X15276Y2113D01*
X15733Y2227D02*
X15924Y2227D01*
X15695Y2113D02*
X15828Y2513D01*
X15962Y2113D01*
X16057Y2513D02*
X16305Y2513D01*
X16171Y2361D01*
X16229Y2361D01*
X16267Y2342D01*
X16286Y2323D01*
X16305Y2285D01*
X16305Y2189D01*
X16286Y2151D01*
X16267Y2132D01*
X16229Y2113D01*
X16114Y2113D01*
X16076Y2132D01*
X16057Y2151D01*
X16762Y2227D02*
X16953Y2227D01*
X16724Y2113D02*
X16857Y2513D01*
X16991Y2113D01*
X17296Y2380D02*
X17296Y2113D01*
X17200Y2532D02*
X17105Y2246D01*
X17353Y2246D01*
X17791Y2227D02*
X17982Y2227D01*
X17753Y2113D02*
X17886Y2513D01*
X18020Y2113D01*
X18344Y2513D02*
X18153Y2513D01*
X18134Y2323D01*
X18153Y2342D01*
X18191Y2361D01*
X18287Y2361D01*
X18325Y2342D01*
X18344Y2323D01*
X18363Y2285D01*
X18363Y2189D01*
X18344Y2151D01*
X18325Y2132D01*
X18287Y2113D01*
X18191Y2113D01*
X18153Y2132D01*
X18134Y2151D01*
X1010Y738D02*
X1258Y738D01*
X1124Y586D01*
X1182Y586D01*
X1220Y567D01*
X1239Y548D01*
X1258Y510D01*
X1258Y414D01*
X1239Y376D01*
X1220Y357D01*
X1182Y338D01*
X1067Y338D01*
X1029Y357D01*
X1010Y376D01*
X1429Y376D02*
X1448Y357D01*
X1429Y338D01*
X1410Y357D01*
X1429Y376D01*
X1429Y338D01*
X1581Y738D02*
X1829Y738D01*
X1695Y586D01*
X1753Y586D01*
X1791Y567D01*
X1810Y548D01*
X1829Y510D01*
X1829Y414D01*
X1810Y376D01*
X1791Y357D01*
X1753Y338D01*
X1638Y338D01*
X1600Y357D01*
X1581Y376D01*
X1943Y738D02*
X2076Y338D01*
X2210Y738D01*
G54D20*
X13184Y6226D02*
X13184Y6395D01*
X13285Y6193D02*
X12931Y6311D01*
X13285Y6429D01*
X12965Y6529D02*
X12948Y6546D01*
X12931Y6580D01*
X12931Y6664D01*
X12948Y6698D01*
X12965Y6715D01*
X12999Y6732D01*
X13032Y6732D01*
X13083Y6715D01*
X13285Y6513D01*
X13285Y6732D01*
X13184Y7406D02*
X13184Y7575D01*
X13285Y7373D02*
X12931Y7491D01*
X13285Y7609D01*
X13285Y7912D02*
X13285Y7709D01*
X13285Y7811D02*
X12931Y7811D01*
X12982Y7777D01*
X13016Y7743D01*
X13032Y7709D01*
X13184Y8586D02*
X13184Y8755D01*
X13285Y8553D02*
X12931Y8671D01*
X13285Y8789D01*
X12931Y8974D02*
X12931Y9007D01*
X12948Y9041D01*
X12965Y9058D01*
X12999Y9075D01*
X13066Y9092D01*
X13150Y9092D01*
X13218Y9075D01*
X13252Y9058D01*
X13268Y9041D01*
X13285Y9007D01*
X13285Y8974D01*
X13268Y8940D01*
X13252Y8923D01*
X13218Y8906D01*
X13150Y8889D01*
X13066Y8889D01*
X12999Y8906D01*
X12965Y8923D01*
X12948Y8940D01*
X12931Y8974D01*
X13285Y9699D02*
X13285Y9496D01*
X13285Y9598D02*
X12931Y9598D01*
X12982Y9564D01*
X13016Y9530D01*
X13032Y9496D01*
X12965Y9833D02*
X12948Y9850D01*
X12931Y9884D01*
X12931Y9968D01*
X12948Y10002D01*
X12965Y10019D01*
X12999Y10036D01*
X13032Y10036D01*
X13083Y10019D01*
X13285Y9817D01*
X13285Y10036D01*
X13285Y10643D02*
X13285Y10440D01*
X13285Y10542D02*
X12931Y10542D01*
X12982Y10508D01*
X13016Y10474D01*
X13032Y10440D01*
X13285Y10980D02*
X13285Y10777D01*
X13285Y10879D02*
X12931Y10879D01*
X12982Y10845D01*
X13016Y10811D01*
X13032Y10777D01*
X13285Y11857D02*
X13285Y11654D01*
X13285Y11756D02*
X12931Y11756D01*
X12982Y11722D01*
X13016Y11688D01*
X13032Y11654D01*
X12931Y12076D02*
X12931Y12109D01*
X12948Y12143D01*
X12965Y12160D01*
X12999Y12177D01*
X13066Y12194D01*
X13150Y12194D01*
X13218Y12177D01*
X13252Y12160D01*
X13268Y12143D01*
X13285Y12109D01*
X13285Y12076D01*
X13268Y12042D01*
X13252Y12025D01*
X13218Y12008D01*
X13150Y11991D01*
X13066Y11991D01*
X12999Y12008D01*
X12965Y12025D01*
X12948Y12042D01*
X12931Y12076D01*
X13285Y12902D02*
X13285Y12970D01*
X13268Y13003D01*
X13252Y13020D01*
X13201Y13054D01*
X13134Y13071D01*
X12999Y13071D01*
X12965Y13054D01*
X12948Y13037D01*
X12931Y13003D01*
X12931Y12936D01*
X12948Y12902D01*
X12965Y12885D01*
X12999Y12868D01*
X13083Y12868D01*
X13117Y12885D01*
X13134Y12902D01*
X13150Y12936D01*
X13150Y13003D01*
X13134Y13037D01*
X13117Y13054D01*
X13083Y13071D01*
X13083Y13813D02*
X13066Y13779D01*
X13049Y13762D01*
X13016Y13745D01*
X12999Y13745D01*
X12965Y13762D01*
X12948Y13779D01*
X12931Y13813D01*
X12931Y13880D01*
X12948Y13914D01*
X12965Y13931D01*
X12999Y13948D01*
X13016Y13948D01*
X13049Y13931D01*
X13066Y13914D01*
X13083Y13880D01*
X13083Y13813D01*
X13100Y13779D01*
X13117Y13762D01*
X13150Y13745D01*
X13218Y13745D01*
X13252Y13762D01*
X13268Y13779D01*
X13285Y13813D01*
X13285Y13880D01*
X13268Y13914D01*
X13252Y13931D01*
X13218Y13948D01*
X13150Y13948D01*
X13117Y13931D01*
X13100Y13914D01*
X13083Y13880D01*
G54D11*
X5872Y8488D02*
X5815Y8516D01*
X5729Y8516D01*
X5644Y8488D01*
X5586Y8430D01*
X5558Y8373D01*
X5529Y8259D01*
X5529Y8173D01*
X5558Y8059D01*
X5586Y8002D01*
X5644Y7945D01*
X5729Y7916D01*
X5786Y7916D01*
X5872Y7945D01*
X5901Y7973D01*
X5901Y8173D01*
X5786Y8173D01*
X6158Y7916D02*
X6158Y8516D01*
X6501Y7916D01*
X6501Y8516D01*
X6787Y7916D02*
X6787Y8516D01*
X6930Y8516D01*
X7015Y8488D01*
X7073Y8430D01*
X7101Y8373D01*
X7130Y8259D01*
X7130Y8173D01*
X7101Y8059D01*
X7073Y8002D01*
X7015Y7945D01*
X6930Y7916D01*
X6787Y7916D01*
X5942Y11585D02*
X5656Y11585D01*
X5627Y11299D01*
X5656Y11328D01*
X5713Y11357D01*
X5856Y11357D01*
X5913Y11328D01*
X5942Y11299D01*
X5970Y11242D01*
X5970Y11099D01*
X5942Y11042D01*
X5913Y11014D01*
X5856Y10985D01*
X5713Y10985D01*
X5656Y11014D01*
X5627Y11042D01*
X6141Y11585D02*
X6341Y10985D01*
X6541Y11585D01*
G54D10*
G36*
X18457Y15598D02*
X18457Y16780D01*
X17472Y16780D01*
X17472Y15598D01*
X18457Y15598D01*
X18457Y15598D01*
G37*
G54D17*
X18457Y15598D02*
X18457Y16780D01*
X17472Y16780D01*
X17472Y15598D01*
X18457Y15598D01*
M02*
