M48
;DRILL file {Pcbnew (2011-nov-30)-testing} date Tue 29 May 2012 07:34:08 PM EDT
;FORMAT={-:-/ absolute / inch / decimal}
FMAT,2
INCH,TZ
T1C0.025
T2C0.032
T3C0.040
%
G90
G05
M72
T1
X0.516Y0.820
T2
X0.290Y0.460
X0.290Y0.260
X0.590Y0.460
X0.590Y0.260
T3
X0.240Y1.951
X0.242Y1.864
X0.320Y1.170
X0.320Y1.070
X0.320Y0.970
X0.320Y0.870
X0.340Y1.951
X0.342Y1.864
X0.440Y1.951
X0.442Y1.864
X0.540Y1.951
X0.542Y1.864
X0.550Y1.070
X0.550Y0.970
X0.600Y0.048
X0.640Y1.951
X0.642Y1.864
X0.650Y1.070
X0.650Y0.970
X0.700Y0.048
X0.740Y1.951
X0.742Y1.864
X0.767Y1.523
X0.767Y0.460
X0.800Y0.048
X0.840Y1.951
X0.842Y1.864
X0.867Y1.523
X0.867Y0.460
X0.900Y0.048
X0.940Y1.951
X0.942Y1.864
X0.967Y1.523
X0.967Y0.460
X1.000Y0.048
X1.067Y1.523
X1.067Y0.460
X1.097Y1.864
X1.098Y1.951
X1.100Y0.048
X1.167Y1.523
X1.167Y0.460
X1.197Y1.864
X1.198Y1.951
X1.267Y1.523
X1.267Y0.460
X1.297Y1.864
X1.298Y1.951
X1.300Y0.143
X1.300Y0.048
X1.367Y1.523
X1.367Y0.460
X1.397Y1.864
X1.398Y1.951
X1.400Y0.143
X1.400Y0.048
X1.467Y1.523
X1.467Y0.460
X1.497Y1.864
X1.498Y1.951
X1.500Y0.143
X1.500Y0.048
X1.597Y1.864
X1.598Y1.951
X1.600Y0.143
X1.600Y0.048
X1.697Y1.864
X1.698Y1.951
X1.700Y0.143
X1.700Y0.048
X1.761Y1.350
X1.761Y1.250
X1.761Y1.150
X1.761Y1.050
X1.761Y0.950
X1.761Y0.850
X1.761Y0.750
X1.761Y0.650
X1.797Y1.864
X1.798Y1.951
X1.800Y0.143
X1.800Y0.048
T0
M30
