M48
INCH,TZ
T10C0.025
T11C0.032
T12C0.040
%
T10
X059360Y-38360
X060270Y-40640
X064750Y-40640
T11
X056000Y-48000
X056000Y-51000
X058000Y-48000
X058000Y-51000
T12
X055400Y-33490
X055400Y-35150
X056090Y-39660
X056090Y-40660
X056400Y-33490
X056400Y-35150
X057090Y-39660
X057090Y-40660
X057400Y-33490
X057400Y-35150
X058090Y-39660
X058090Y-40660
X058200Y-43000
X058200Y-44000
X058200Y-45000
X058200Y-46000
X058400Y-33490
X058400Y-35150
X059000Y-52520
X059400Y-33490
X059400Y-35150
X060000Y-52520
X060400Y-33490
X060400Y-35150
X061000Y-52520
X061210Y-38530
X061210Y-39530
X061250Y-41700
X061250Y-42700
X061250Y-43700
X061250Y-44700
X061250Y-45700
X061250Y-46700
X061250Y-47700
X061250Y-48700
X061400Y-33490
X061400Y-35150
X062000Y-52520
X062210Y-38530
X062210Y-39530
X062400Y-33490
X062400Y-35150
X063000Y-52520
X063980Y-33490
X063980Y-35320
X064000Y-52520
X064980Y-33490
X064980Y-35320
X065850Y-41780
X065850Y-42780
X065850Y-43780
X065850Y-44780
X065850Y-45780
X065850Y-46780
X065850Y-47780
X065850Y-48780
X065980Y-33490
X065980Y-35320
X066000Y-50980
X066000Y-52520
X066980Y-33490
X066980Y-35320
X067000Y-50980
X067000Y-52520
X067980Y-33490
X067980Y-35320
X068000Y-50980
X068000Y-52520
X068980Y-33490
X068980Y-35320
X069000Y-50980
X069000Y-52520
X069980Y-33490
X069980Y-35320
X070000Y-50980
X070000Y-52520
X070130Y-41300
X070130Y-42300
X070130Y-43300
X070130Y-44300
X070130Y-45300
X070130Y-46300
X070130Y-47300
X070130Y-48300
X070980Y-33490
X070980Y-35320
X071000Y-50980
X071000Y-52520
M30

