G04 (created by PCBNEW-RS274X (2011-nov-30)-testing) date Tue 29 May 2012 07:38:49 PM EDT*
%MOIN*%
G04 Gerber Fmt 3.4, Leading zero omitted, Abs format*
%FSLAX34Y34*%
G01*
G70*
G90*
G04 APERTURE LIST*
%ADD10C,0.006*%
%ADD11R,0.0772X0.0772*%
%ADD12R,0.09X0.09*%
%ADD13C,0.09*%
%ADD14R,0.085X0.065*%
%ADD15C,0.085*%
G04 APERTURE END LIST*
G54D10*
G54D11*
X3200Y14587D03*
X3200Y15413D03*
G54D12*
X17611Y13500D03*
G54D13*
X17611Y12500D03*
X17611Y11500D03*
X17611Y10500D03*
X17611Y9500D03*
X17611Y8500D03*
X17611Y7500D03*
X17611Y6500D03*
G54D12*
X14673Y4603D03*
G54D13*
X13673Y4603D03*
X12673Y4603D03*
X11673Y4603D03*
X10673Y4603D03*
X9673Y4603D03*
X8673Y4603D03*
X7673Y4603D03*
G54D12*
X14673Y15233D03*
G54D13*
X13673Y15233D03*
X12673Y15233D03*
X11673Y15233D03*
X10673Y15233D03*
X9673Y15233D03*
X8673Y15233D03*
X7673Y15233D03*
G54D12*
X5996Y480D03*
G54D13*
X6996Y480D03*
X7996Y480D03*
X8996Y480D03*
X9996Y480D03*
X10996Y480D03*
G54D12*
X5500Y10700D03*
G54D13*
X6500Y10700D03*
X5500Y9700D03*
X6500Y9700D03*
G54D14*
X3200Y16425D03*
X3200Y17175D03*
G54D15*
X2900Y2600D03*
X2900Y4600D03*
X5900Y2600D03*
X5900Y4600D03*
G54D12*
X2420Y18640D03*
G54D13*
X3420Y18640D03*
X4420Y18640D03*
X5420Y18640D03*
X6420Y18640D03*
X7420Y18640D03*
X8420Y18640D03*
X9420Y18640D03*
G54D12*
X10980Y19509D03*
G54D13*
X11980Y19509D03*
X12980Y19509D03*
X13980Y19509D03*
X14980Y19509D03*
X15980Y19509D03*
X16980Y19509D03*
X17980Y19509D03*
G54D12*
X10970Y18640D03*
G54D13*
X11970Y18640D03*
X12970Y18640D03*
X13970Y18640D03*
X14970Y18640D03*
X15970Y18640D03*
X16970Y18640D03*
X17970Y18640D03*
G54D12*
X2398Y19508D03*
G54D13*
X3398Y19508D03*
X4398Y19508D03*
X5398Y19508D03*
X6398Y19508D03*
X7398Y19508D03*
X8398Y19508D03*
X9398Y19508D03*
G54D12*
X13004Y480D03*
G54D13*
X14004Y480D03*
X15004Y480D03*
X16004Y480D03*
X17004Y480D03*
X18004Y480D03*
G54D12*
X13004Y1425D03*
G54D13*
X14004Y1425D03*
X15004Y1425D03*
X16004Y1425D03*
X17004Y1425D03*
X18004Y1425D03*
G54D12*
X3200Y8700D03*
G54D13*
X3200Y9700D03*
X3200Y10700D03*
X3200Y11700D03*
M02*
