M48
;DRILL file {Pcbnew (2011-nov-30)-testing} date Wed 06 Jun 2012 08:38:06 PM EDT
;FORMAT={-:-/ absolute / inch / decimal}
FMAT,2
INCH,TZ
T1C0.025
T2C0.032
T3C0.040
T4C0.047
%
G90
G05
M72
T1
X0.115Y1.810
X0.160Y0.055
X0.740Y1.345
X0.745Y1.525
X0.745Y1.460
X0.925Y1.750
X0.985Y1.755
X1.625Y0.365
T2
X-0.290Y0.404
X-0.290Y0.204
X0.010Y0.404
X0.010Y0.204
T3
X-0.290Y0.050
X-0.190Y0.050
X-0.188Y1.098
X-0.188Y0.998
X-0.090Y0.050
X-0.088Y1.098
X-0.088Y0.998
X0.010Y0.050
X0.240Y1.951
X0.242Y1.864
X0.340Y1.951
X0.342Y1.864
X0.440Y1.951
X0.442Y1.864
X0.540Y1.951
X0.542Y1.864
X0.600Y0.048
X0.640Y1.951
X0.642Y1.864
X0.700Y0.048
X0.740Y1.951
X0.742Y1.864
X0.800Y0.048
X0.840Y1.951
X0.842Y1.864
X0.900Y0.048
X0.940Y1.951
X0.942Y1.864
X1.000Y0.048
X1.097Y1.864
X1.098Y1.951
X1.100Y0.048
X1.197Y1.864
X1.198Y1.951
X1.297Y1.864
X1.298Y1.951
X1.300Y0.143
X1.300Y0.048
X1.397Y1.864
X1.398Y1.951
X1.400Y0.143
X1.400Y0.048
X1.497Y1.864
X1.498Y1.951
X1.500Y0.143
X1.500Y0.048
X1.597Y1.864
X1.598Y1.951
X1.600Y0.143
X1.600Y0.048
X1.697Y1.864
X1.698Y1.951
X1.700Y0.143
X1.700Y0.048
X1.797Y1.864
X1.798Y1.951
X1.800Y0.143
X1.800Y0.048
T4
X0.263Y0.548
X0.306Y1.595
X0.365Y0.344
X0.385Y1.390
X0.436Y0.548
X0.499Y1.595
X0.527Y0.344
X0.594Y1.390
X0.645Y0.548
X0.712Y1.595
X0.739Y0.344
X0.802Y1.390
X0.853Y0.548
X0.873Y1.595
X0.932Y0.344
X0.976Y1.390
X1.582Y1.249
X1.582Y1.040
X1.582Y0.832
X1.582Y0.658
X1.787Y1.328
X1.787Y1.135
X1.787Y0.922
X1.787Y0.761
T0
M30
