G04 (created by PCBNEW-RS274X (2011-nov-30)-testing) date Wed 06 Jun 2012 07:56:20 PM EDT*
%MOIN*%
G04 Gerber Fmt 3.4, Leading zero omitted, Abs format*
%FSLAX34Y34*%
G01*
G70*
G90*
G04 APERTURE LIST*
%ADD10C,0.006*%
%ADD11R,0.0472X0.0472*%
%ADD12R,0.06X0.06*%
%ADD13C,0.06*%
%ADD14R,0.035X0.055*%
%ADD15C,0.055*%
%ADD16O,0.059X0.0511*%
%ADD17O,0.0589X0.051*%
%ADD18O,0.0511X0.059*%
%ADD19O,0.051X0.0589*%
%ADD20C,0.035*%
%ADD21C,0.014*%
%ADD22C,0.01*%
G04 APERTURE END LIST*
G54D10*
G54D11*
X-2533Y18620D03*
X-1707Y18620D03*
G54D12*
X5996Y480D03*
G54D13*
X6996Y480D03*
X7996Y480D03*
X8996Y480D03*
X9996Y480D03*
X10996Y480D03*
G54D12*
X-1880Y10980D03*
G54D13*
X-880Y10980D03*
X-1880Y9980D03*
X-880Y9980D03*
G54D14*
X-195Y18640D03*
X555Y18640D03*
G54D15*
X-2900Y2040D03*
X-2900Y4040D03*
X100Y2040D03*
X100Y4040D03*
G54D12*
X2420Y18640D03*
G54D13*
X3420Y18640D03*
X4420Y18640D03*
X5420Y18640D03*
X6420Y18640D03*
X7420Y18640D03*
X8420Y18640D03*
X9420Y18640D03*
G54D12*
X10980Y19509D03*
G54D13*
X11980Y19509D03*
X12980Y19509D03*
X13980Y19509D03*
X14980Y19509D03*
X15980Y19509D03*
X16980Y19509D03*
X17980Y19509D03*
G54D12*
X10970Y18640D03*
G54D13*
X11970Y18640D03*
X12970Y18640D03*
X13970Y18640D03*
X14970Y18640D03*
X15970Y18640D03*
X16970Y18640D03*
X17970Y18640D03*
G54D12*
X2398Y19508D03*
G54D13*
X3398Y19508D03*
X4398Y19508D03*
X5398Y19508D03*
X6398Y19508D03*
X7398Y19508D03*
X8398Y19508D03*
X9398Y19508D03*
G54D12*
X13004Y480D03*
G54D13*
X14004Y480D03*
X15004Y480D03*
X16004Y480D03*
X17004Y480D03*
X18004Y480D03*
G54D12*
X13004Y1425D03*
G54D13*
X14004Y1425D03*
X15004Y1425D03*
X16004Y1425D03*
X17004Y1425D03*
X18004Y1425D03*
G54D12*
X100Y500D03*
G54D13*
X-900Y500D03*
X-1900Y500D03*
X-2900Y500D03*
G54D16*
X17866Y13277D03*
X15818Y12488D03*
X17866Y11348D03*
X15818Y10402D03*
G54D17*
X17866Y9223D03*
G54D16*
X15818Y8315D03*
X17866Y7607D03*
X15818Y6583D03*
G54D18*
X9322Y3435D03*
X8533Y5483D03*
X7393Y3435D03*
X6447Y5483D03*
G54D19*
X5268Y3435D03*
G54D18*
X4360Y5483D03*
X3652Y3435D03*
X2628Y5483D03*
X3062Y15952D03*
X3851Y13904D03*
X4991Y15952D03*
X5937Y13904D03*
G54D19*
X7116Y15952D03*
G54D18*
X8024Y13904D03*
X8732Y15952D03*
X9756Y13904D03*
G54D20*
X7450Y14600D03*
X7400Y13450D03*
X1150Y18100D03*
X7450Y15250D03*
X9250Y17500D03*
X9850Y17550D03*
X16250Y3650D03*
X1600Y550D03*
G54D21*
X7398Y19508D02*
X7400Y19500D01*
X7400Y19500D02*
X7400Y18650D01*
X7400Y18650D02*
X7420Y18640D01*
X6398Y19508D02*
X6400Y19500D01*
X6420Y18640D02*
X6400Y18650D01*
X6400Y18650D02*
X6650Y18400D01*
X6650Y18400D02*
X6650Y15400D01*
X6400Y19500D02*
X6400Y18650D01*
X6400Y18650D02*
X6420Y18640D01*
X6650Y15400D02*
X7450Y14600D01*
X5420Y18640D02*
X5400Y18650D01*
X6350Y17700D02*
X6350Y15250D01*
X5400Y18650D02*
X6350Y17700D01*
X5400Y18650D02*
X5420Y18640D01*
X6350Y15250D02*
X7050Y14550D01*
X7050Y14400D02*
X7400Y14050D01*
X7050Y14550D02*
X7050Y14400D01*
X7400Y14050D02*
X7400Y13450D01*
X5398Y19508D02*
X5400Y19500D01*
X5400Y19500D02*
X5400Y18650D01*
X4400Y18650D02*
X4420Y18640D01*
X4400Y19500D02*
X4400Y18650D01*
X4398Y19508D02*
X4400Y19500D01*
X550Y18650D02*
X555Y18640D01*
X1100Y18100D02*
X550Y18650D01*
X1150Y18100D02*
X1100Y18100D01*
X15980Y19509D02*
X16000Y19500D01*
X16000Y19500D02*
X15950Y19450D01*
X15950Y19450D02*
X15950Y18650D01*
X15950Y18650D02*
X15970Y18640D01*
X15000Y19500D02*
X14950Y19450D01*
X14950Y18650D02*
X14970Y18640D01*
X14950Y19450D02*
X14950Y18650D01*
X14980Y19509D02*
X15000Y19500D01*
X14000Y19500D02*
X13950Y19450D01*
X13950Y19450D02*
X13950Y18650D01*
X13950Y18650D02*
X13970Y18640D01*
X13980Y19509D02*
X14000Y19500D01*
X12950Y18650D02*
X12970Y18640D01*
X13000Y19500D02*
X12950Y19450D01*
X12950Y19450D02*
X12950Y18650D01*
X12980Y19509D02*
X13000Y19500D01*
X8732Y15952D02*
X8750Y15950D01*
X8024Y13904D02*
X8000Y13900D01*
X8000Y13900D02*
X8000Y500D01*
X8000Y500D02*
X7996Y480D01*
X8750Y15950D02*
X8000Y15200D01*
X8000Y15200D02*
X8000Y13900D01*
X8000Y13900D02*
X8024Y13904D01*
X11970Y18640D02*
X11950Y18650D01*
X11950Y18650D02*
X12000Y18700D01*
X12000Y18700D02*
X12000Y19500D01*
X12000Y19500D02*
X11980Y19509D01*
X7600Y15850D02*
X7600Y15400D01*
X7600Y15400D02*
X7450Y15250D01*
X9250Y17500D02*
X7600Y15850D01*
X10950Y18650D02*
X9850Y17550D01*
X10970Y18640D02*
X10950Y18650D01*
X11000Y19500D02*
X10980Y19509D01*
X10970Y18640D02*
X10950Y18650D01*
X10950Y18650D02*
X11000Y18700D01*
X11000Y18700D02*
X11000Y19500D01*
X9400Y18650D02*
X9400Y19500D01*
X9420Y18640D02*
X9400Y18650D01*
X9400Y19500D02*
X9398Y19508D01*
X8420Y18640D02*
X8400Y18650D01*
X8400Y19500D02*
X8398Y19508D01*
X8400Y18650D02*
X8400Y19500D01*
X13004Y1425D02*
X13000Y1400D01*
X13000Y1400D02*
X15300Y3700D01*
X15300Y3700D02*
X15300Y7050D01*
X15300Y7050D02*
X15800Y7550D01*
X15800Y7550D02*
X15800Y8300D01*
X15800Y8300D02*
X15818Y8315D01*
X13004Y480D02*
X13000Y500D01*
X13000Y500D02*
X13000Y1400D01*
X13000Y1400D02*
X13004Y1425D01*
X16250Y3650D02*
X17850Y5250D01*
X17850Y5250D02*
X17850Y7600D01*
X14000Y500D02*
X14000Y1400D01*
X14004Y480D02*
X14000Y500D01*
X17850Y7600D02*
X17866Y7607D01*
X14000Y1400D02*
X14004Y1425D01*
X15000Y1400D02*
X15004Y1425D01*
X15000Y500D02*
X15000Y1400D01*
X15004Y480D02*
X15000Y500D01*
X15800Y6600D02*
X15818Y6583D01*
X15800Y2200D02*
X15800Y6600D01*
X15000Y1400D02*
X15800Y2200D01*
X15004Y1425D02*
X15000Y1400D01*
X16004Y480D02*
X16000Y500D01*
X16000Y500D02*
X16000Y1400D01*
X16000Y1400D02*
X16004Y1425D01*
X17000Y1400D02*
X17004Y1425D01*
X17000Y500D02*
X17000Y1400D01*
X17004Y480D02*
X17000Y500D01*
X18004Y480D02*
X18000Y500D01*
X18000Y500D02*
X18000Y1400D01*
X18000Y1400D02*
X18004Y1425D01*
X2400Y19500D02*
X2398Y19508D01*
X2420Y18640D02*
X2400Y18650D01*
X2400Y18650D02*
X2400Y19500D01*
X100Y2040D02*
X100Y2050D01*
X100Y2050D02*
X1600Y550D01*
X17950Y19450D02*
X17950Y18650D01*
X18000Y19500D02*
X17950Y19450D01*
X17980Y19509D02*
X18000Y19500D01*
X17950Y18650D02*
X17970Y18640D01*
X16980Y19509D02*
X17000Y19500D01*
X17000Y19500D02*
X16950Y19450D01*
X16950Y19450D02*
X16950Y18650D01*
X16950Y18650D02*
X16970Y18640D01*
X-195Y18640D02*
X-200Y18650D01*
X-200Y18650D02*
X-1650Y18650D01*
X-1650Y18650D02*
X-1700Y18600D01*
X-1700Y18600D02*
X-1707Y18620D01*
G54D10*
G36*
X18997Y265D02*
X18553Y-179D01*
X18553Y371D01*
X18553Y589D01*
X18469Y791D01*
X18320Y940D01*
X18320Y965D01*
X18469Y1114D01*
X18553Y1316D01*
X18553Y1534D01*
X18529Y1592D01*
X18529Y19400D01*
X18529Y19618D01*
X18445Y19820D01*
X18291Y19974D01*
X18089Y20058D01*
X17871Y20058D01*
X17669Y19974D01*
X17515Y19820D01*
X17480Y19736D01*
X17445Y19820D01*
X17291Y19974D01*
X17089Y20058D01*
X16871Y20058D01*
X16669Y19974D01*
X16515Y19820D01*
X16480Y19736D01*
X16445Y19820D01*
X16291Y19974D01*
X16089Y20058D01*
X15871Y20058D01*
X15669Y19974D01*
X15515Y19820D01*
X15480Y19736D01*
X15445Y19820D01*
X15291Y19974D01*
X15089Y20058D01*
X14871Y20058D01*
X14669Y19974D01*
X14515Y19820D01*
X14480Y19736D01*
X14445Y19820D01*
X14291Y19974D01*
X14089Y20058D01*
X13871Y20058D01*
X13669Y19974D01*
X13515Y19820D01*
X13480Y19736D01*
X13445Y19820D01*
X13291Y19974D01*
X13089Y20058D01*
X12871Y20058D01*
X12669Y19974D01*
X12515Y19820D01*
X12480Y19736D01*
X12445Y19820D01*
X12291Y19974D01*
X12089Y20058D01*
X11871Y20058D01*
X11669Y19974D01*
X11529Y19834D01*
X11529Y19858D01*
X11491Y19950D01*
X11421Y20020D01*
X11330Y20058D01*
X11231Y20058D01*
X10631Y20058D01*
X10539Y20020D01*
X10469Y19950D01*
X10431Y19859D01*
X10431Y19760D01*
X10431Y19160D01*
X10462Y19085D01*
X10459Y19081D01*
X10421Y18990D01*
X10421Y18891D01*
X10421Y18574D01*
X9822Y17975D01*
X9766Y17975D01*
X9610Y17911D01*
X9525Y17826D01*
X9491Y17860D01*
X9335Y17925D01*
X9166Y17925D01*
X9010Y17861D01*
X8890Y17741D01*
X8825Y17585D01*
X8825Y17528D01*
X7548Y16251D01*
X7536Y16281D01*
X7397Y16420D01*
X7215Y16496D01*
X7018Y16496D01*
X6970Y16477D01*
X6970Y18314D01*
X7109Y18175D01*
X7311Y18091D01*
X7529Y18091D01*
X7731Y18175D01*
X7885Y18329D01*
X7920Y18414D01*
X7955Y18329D01*
X8109Y18175D01*
X8311Y18091D01*
X8529Y18091D01*
X8731Y18175D01*
X8885Y18329D01*
X8920Y18414D01*
X8955Y18329D01*
X9109Y18175D01*
X9311Y18091D01*
X9529Y18091D01*
X9731Y18175D01*
X9885Y18329D01*
X9969Y18531D01*
X9969Y18749D01*
X9885Y18951D01*
X9751Y19085D01*
X9863Y19197D01*
X9947Y19399D01*
X9947Y19617D01*
X9863Y19819D01*
X9709Y19973D01*
X9507Y20057D01*
X9289Y20057D01*
X9087Y19973D01*
X8933Y19819D01*
X8898Y19735D01*
X8863Y19819D01*
X8709Y19973D01*
X8507Y20057D01*
X8289Y20057D01*
X8087Y19973D01*
X7933Y19819D01*
X7898Y19735D01*
X7863Y19819D01*
X7709Y19973D01*
X7507Y20057D01*
X7289Y20057D01*
X7087Y19973D01*
X6933Y19819D01*
X6898Y19735D01*
X6863Y19819D01*
X6709Y19973D01*
X6507Y20057D01*
X6289Y20057D01*
X6087Y19973D01*
X5933Y19819D01*
X5898Y19735D01*
X5863Y19819D01*
X5709Y19973D01*
X5507Y20057D01*
X5289Y20057D01*
X5087Y19973D01*
X4933Y19819D01*
X4898Y19735D01*
X4863Y19819D01*
X4709Y19973D01*
X4507Y20057D01*
X4289Y20057D01*
X4087Y19973D01*
X3933Y19819D01*
X3849Y19617D01*
X3849Y19399D01*
X3933Y19197D01*
X4067Y19063D01*
X3955Y18951D01*
X3871Y18749D01*
X3871Y18531D01*
X3955Y18329D01*
X4109Y18175D01*
X4311Y18091D01*
X4529Y18091D01*
X4731Y18175D01*
X4885Y18329D01*
X4920Y18414D01*
X4955Y18329D01*
X5109Y18175D01*
X5311Y18091D01*
X5506Y18091D01*
X6030Y17568D01*
X6030Y15250D01*
X6054Y15127D01*
X6124Y15024D01*
X6730Y14418D01*
X6730Y14400D01*
X6754Y14277D01*
X6824Y14174D01*
X7080Y13918D01*
X7080Y13731D01*
X7040Y13691D01*
X6975Y13535D01*
X6975Y13366D01*
X7039Y13210D01*
X7159Y13090D01*
X7315Y13025D01*
X7484Y13025D01*
X7640Y13089D01*
X7680Y13129D01*
X7680Y940D01*
X7531Y791D01*
X7496Y707D01*
X7461Y791D01*
X7307Y945D01*
X7105Y1029D01*
X6887Y1029D01*
X6685Y945D01*
X6545Y805D01*
X6545Y829D01*
X6507Y921D01*
X6437Y991D01*
X6432Y994D01*
X6432Y13755D01*
X6432Y13952D01*
X6432Y14052D01*
X6357Y14234D01*
X6218Y14373D01*
X6036Y14449D01*
X5839Y14449D01*
X5657Y14374D01*
X5518Y14235D01*
X5486Y14159D01*
X5486Y15803D01*
X5486Y16000D01*
X5486Y16100D01*
X5411Y16282D01*
X5272Y16421D01*
X5090Y16497D01*
X4893Y16497D01*
X4711Y16422D01*
X4572Y16283D01*
X4496Y16101D01*
X4496Y15904D01*
X4496Y15804D01*
X4571Y15622D01*
X4710Y15483D01*
X4892Y15407D01*
X5089Y15407D01*
X5271Y15482D01*
X5410Y15621D01*
X5486Y15803D01*
X5486Y14159D01*
X5442Y14053D01*
X5442Y13856D01*
X5442Y13756D01*
X5517Y13574D01*
X5656Y13435D01*
X5838Y13359D01*
X6035Y13359D01*
X6217Y13434D01*
X6356Y13573D01*
X6432Y13755D01*
X6432Y994D01*
X6346Y1029D01*
X6247Y1029D01*
X5647Y1029D01*
X5555Y991D01*
X5485Y921D01*
X5447Y830D01*
X5447Y731D01*
X5447Y131D01*
X5485Y39D01*
X5555Y-31D01*
X5646Y-69D01*
X5745Y-69D01*
X6345Y-69D01*
X6437Y-31D01*
X6507Y39D01*
X6545Y130D01*
X6545Y155D01*
X6685Y15D01*
X6887Y-69D01*
X7105Y-69D01*
X7307Y15D01*
X7461Y169D01*
X7496Y254D01*
X7531Y169D01*
X7685Y15D01*
X7887Y-69D01*
X8105Y-69D01*
X8307Y15D01*
X8461Y169D01*
X8545Y371D01*
X8545Y589D01*
X8461Y791D01*
X8320Y932D01*
X8320Y13450D01*
X8443Y13573D01*
X8519Y13755D01*
X8519Y13952D01*
X8519Y14052D01*
X8444Y14234D01*
X8320Y14358D01*
X8320Y15068D01*
X8659Y15407D01*
X8830Y15407D01*
X9012Y15482D01*
X9151Y15621D01*
X9227Y15803D01*
X9227Y16000D01*
X9227Y16100D01*
X9152Y16282D01*
X9013Y16421D01*
X8831Y16497D01*
X8699Y16497D01*
X9277Y17075D01*
X9334Y17075D01*
X9490Y17139D01*
X9575Y17224D01*
X9609Y17190D01*
X9765Y17125D01*
X9934Y17125D01*
X10090Y17189D01*
X10210Y17309D01*
X10275Y17465D01*
X10275Y17523D01*
X10843Y18091D01*
X11319Y18091D01*
X11411Y18129D01*
X11481Y18199D01*
X11519Y18290D01*
X11519Y18315D01*
X11659Y18175D01*
X11861Y18091D01*
X12079Y18091D01*
X12281Y18175D01*
X12435Y18329D01*
X12470Y18414D01*
X12505Y18329D01*
X12659Y18175D01*
X12861Y18091D01*
X13079Y18091D01*
X13281Y18175D01*
X13435Y18329D01*
X13470Y18414D01*
X13505Y18329D01*
X13659Y18175D01*
X13861Y18091D01*
X14079Y18091D01*
X14281Y18175D01*
X14435Y18329D01*
X14470Y18414D01*
X14505Y18329D01*
X14659Y18175D01*
X14861Y18091D01*
X15079Y18091D01*
X15281Y18175D01*
X15435Y18329D01*
X15470Y18414D01*
X15505Y18329D01*
X15659Y18175D01*
X15861Y18091D01*
X16079Y18091D01*
X16281Y18175D01*
X16435Y18329D01*
X16470Y18414D01*
X16505Y18329D01*
X16659Y18175D01*
X16861Y18091D01*
X17079Y18091D01*
X17281Y18175D01*
X17435Y18329D01*
X17470Y18414D01*
X17505Y18329D01*
X17659Y18175D01*
X17861Y18091D01*
X18079Y18091D01*
X18281Y18175D01*
X18435Y18329D01*
X18519Y18531D01*
X18519Y18749D01*
X18435Y18951D01*
X18316Y19070D01*
X18445Y19198D01*
X18529Y19400D01*
X18529Y1592D01*
X18469Y1736D01*
X18315Y1890D01*
X18113Y1974D01*
X17895Y1974D01*
X17693Y1890D01*
X17539Y1736D01*
X17504Y1652D01*
X17469Y1736D01*
X17315Y1890D01*
X17113Y1974D01*
X16895Y1974D01*
X16693Y1890D01*
X16539Y1736D01*
X16504Y1652D01*
X16469Y1736D01*
X16315Y1890D01*
X16113Y1974D01*
X16026Y1974D01*
X16072Y2043D01*
X16095Y2077D01*
X16096Y2078D01*
X16119Y2200D01*
X16120Y2200D01*
X16120Y3244D01*
X16165Y3225D01*
X16334Y3225D01*
X16490Y3289D01*
X16610Y3409D01*
X16675Y3565D01*
X16675Y3623D01*
X18076Y5023D01*
X18076Y5024D01*
X18145Y5126D01*
X18145Y5127D01*
X18146Y5128D01*
X18169Y5249D01*
X18170Y5250D01*
X18170Y7177D01*
X18196Y7187D01*
X18335Y7326D01*
X18411Y7508D01*
X18411Y7705D01*
X18411Y11249D01*
X18411Y11446D01*
X18411Y13178D01*
X18411Y13375D01*
X18336Y13557D01*
X18197Y13696D01*
X18015Y13772D01*
X17818Y13772D01*
X17718Y13772D01*
X17536Y13697D01*
X17397Y13558D01*
X17321Y13376D01*
X17321Y13179D01*
X17396Y12997D01*
X17535Y12858D01*
X17717Y12782D01*
X17914Y12782D01*
X18014Y12782D01*
X18196Y12857D01*
X18335Y12996D01*
X18411Y13178D01*
X18411Y11446D01*
X18336Y11628D01*
X18197Y11767D01*
X18015Y11843D01*
X17818Y11843D01*
X17718Y11843D01*
X17536Y11768D01*
X17397Y11629D01*
X17321Y11447D01*
X17321Y11250D01*
X17396Y11068D01*
X17535Y10929D01*
X17717Y10853D01*
X17914Y10853D01*
X18014Y10853D01*
X18196Y10928D01*
X18335Y11067D01*
X18411Y11249D01*
X18411Y7705D01*
X18410Y7708D01*
X18410Y9124D01*
X18410Y9321D01*
X18335Y9503D01*
X18196Y9642D01*
X18014Y9718D01*
X17817Y9718D01*
X17719Y9718D01*
X17537Y9643D01*
X17398Y9504D01*
X17322Y9322D01*
X17322Y9125D01*
X17397Y8943D01*
X17536Y8804D01*
X17718Y8728D01*
X17915Y8728D01*
X18013Y8728D01*
X18195Y8803D01*
X18334Y8942D01*
X18410Y9124D01*
X18410Y7708D01*
X18336Y7887D01*
X18197Y8026D01*
X18015Y8102D01*
X17818Y8102D01*
X17718Y8102D01*
X17536Y8027D01*
X17397Y7888D01*
X17321Y7706D01*
X17321Y7509D01*
X17396Y7327D01*
X17530Y7193D01*
X17530Y5383D01*
X16222Y4075D01*
X16166Y4075D01*
X16120Y4057D01*
X16120Y6152D01*
X16148Y6163D01*
X16287Y6302D01*
X16363Y6484D01*
X16363Y6681D01*
X16288Y6863D01*
X16149Y7002D01*
X15967Y7078D01*
X15780Y7078D01*
X16026Y7324D01*
X16095Y7427D01*
X16096Y7428D01*
X16120Y7550D01*
X16120Y7884D01*
X16148Y7895D01*
X16287Y8034D01*
X16363Y8216D01*
X16363Y8413D01*
X16363Y10303D01*
X16363Y10500D01*
X16363Y12389D01*
X16363Y12586D01*
X16288Y12768D01*
X16149Y12907D01*
X15967Y12983D01*
X15770Y12983D01*
X15670Y12983D01*
X15488Y12908D01*
X15349Y12769D01*
X15273Y12587D01*
X15273Y12390D01*
X15348Y12208D01*
X15487Y12069D01*
X15669Y11993D01*
X15866Y11993D01*
X15966Y11993D01*
X16148Y12068D01*
X16287Y12207D01*
X16363Y12389D01*
X16363Y10500D01*
X16288Y10682D01*
X16149Y10821D01*
X15967Y10897D01*
X15770Y10897D01*
X15670Y10897D01*
X15488Y10822D01*
X15349Y10683D01*
X15273Y10501D01*
X15273Y10304D01*
X15348Y10122D01*
X15487Y9983D01*
X15669Y9907D01*
X15866Y9907D01*
X15966Y9907D01*
X16148Y9982D01*
X16287Y10121D01*
X16363Y10303D01*
X16363Y8413D01*
X16288Y8595D01*
X16149Y8734D01*
X15967Y8810D01*
X15770Y8810D01*
X15670Y8810D01*
X15488Y8735D01*
X15349Y8596D01*
X15273Y8414D01*
X15273Y8217D01*
X15348Y8035D01*
X15480Y7903D01*
X15480Y7682D01*
X15074Y7276D01*
X15004Y7173D01*
X14980Y7050D01*
X14980Y3833D01*
X13121Y1974D01*
X12655Y1974D01*
X12563Y1936D01*
X12493Y1866D01*
X12455Y1775D01*
X12455Y1676D01*
X12455Y1076D01*
X12493Y984D01*
X12524Y953D01*
X12493Y921D01*
X12455Y830D01*
X12455Y731D01*
X12455Y131D01*
X12493Y39D01*
X12563Y-31D01*
X12654Y-69D01*
X12753Y-69D01*
X13353Y-69D01*
X13445Y-31D01*
X13515Y39D01*
X13553Y130D01*
X13553Y155D01*
X13693Y15D01*
X13895Y-69D01*
X14113Y-69D01*
X14315Y15D01*
X14469Y169D01*
X14504Y254D01*
X14539Y169D01*
X14693Y15D01*
X14895Y-69D01*
X15113Y-69D01*
X15315Y15D01*
X15469Y169D01*
X15504Y254D01*
X15539Y169D01*
X15693Y15D01*
X15895Y-69D01*
X16113Y-69D01*
X16315Y15D01*
X16469Y169D01*
X16504Y254D01*
X16539Y169D01*
X16693Y15D01*
X16895Y-69D01*
X17113Y-69D01*
X17315Y15D01*
X17469Y169D01*
X17504Y254D01*
X17539Y169D01*
X17693Y15D01*
X17895Y-69D01*
X18113Y-69D01*
X18315Y15D01*
X18469Y169D01*
X18553Y371D01*
X18553Y-179D01*
X18239Y-493D01*
X11545Y-493D01*
X11545Y371D01*
X11545Y589D01*
X11461Y791D01*
X11307Y945D01*
X11105Y1029D01*
X10887Y1029D01*
X10685Y945D01*
X10531Y791D01*
X10447Y589D01*
X10447Y371D01*
X10531Y169D01*
X10685Y15D01*
X10887Y-69D01*
X11105Y-69D01*
X11307Y15D01*
X11461Y169D01*
X11545Y371D01*
X11545Y-493D01*
X10251Y-493D01*
X10251Y13755D01*
X10251Y13952D01*
X10251Y14052D01*
X10176Y14234D01*
X10037Y14373D01*
X9855Y14449D01*
X9658Y14449D01*
X9476Y14374D01*
X9337Y14235D01*
X9261Y14053D01*
X9261Y13856D01*
X9261Y13756D01*
X9336Y13574D01*
X9475Y13435D01*
X9657Y13359D01*
X9854Y13359D01*
X10036Y13434D01*
X10175Y13573D01*
X10251Y13755D01*
X10251Y-493D01*
X4346Y-493D01*
X4346Y13755D01*
X4346Y13952D01*
X4346Y14052D01*
X4271Y14234D01*
X4132Y14373D01*
X3950Y14449D01*
X3753Y14449D01*
X3571Y14374D01*
X3557Y14360D01*
X3557Y15803D01*
X3557Y16000D01*
X3557Y16100D01*
X3482Y16282D01*
X3343Y16421D01*
X3161Y16497D01*
X2969Y16497D01*
X2969Y18290D01*
X2969Y18389D01*
X2969Y18989D01*
X2931Y19081D01*
X2919Y19093D01*
X2947Y19158D01*
X2947Y19257D01*
X2947Y19857D01*
X2909Y19949D01*
X2839Y20019D01*
X2748Y20057D01*
X2649Y20057D01*
X2049Y20057D01*
X1957Y20019D01*
X1887Y19949D01*
X1849Y19858D01*
X1849Y19759D01*
X1849Y19159D01*
X1887Y19067D01*
X1898Y19056D01*
X1871Y18990D01*
X1871Y18891D01*
X1871Y18291D01*
X1909Y18199D01*
X1979Y18129D01*
X2070Y18091D01*
X2169Y18091D01*
X2769Y18091D01*
X2861Y18129D01*
X2931Y18199D01*
X2969Y18290D01*
X2969Y16497D01*
X2964Y16497D01*
X2782Y16422D01*
X2643Y16283D01*
X2567Y16101D01*
X2567Y15904D01*
X2567Y15804D01*
X2642Y15622D01*
X2781Y15483D01*
X2963Y15407D01*
X3160Y15407D01*
X3342Y15482D01*
X3481Y15621D01*
X3557Y15803D01*
X3557Y14360D01*
X3432Y14235D01*
X3356Y14053D01*
X3356Y13856D01*
X3356Y13756D01*
X3431Y13574D01*
X3570Y13435D01*
X3752Y13359D01*
X3949Y13359D01*
X4131Y13434D01*
X4270Y13573D01*
X4346Y13755D01*
X4346Y-493D01*
X2025Y-493D01*
X2025Y465D01*
X2025Y634D01*
X1961Y790D01*
X1841Y910D01*
X1685Y975D01*
X1627Y975D01*
X1575Y1028D01*
X1575Y18015D01*
X1575Y18184D01*
X1511Y18340D01*
X1391Y18460D01*
X1235Y18525D01*
X1127Y18525D01*
X979Y18674D01*
X979Y18964D01*
X941Y19056D01*
X871Y19126D01*
X780Y19164D01*
X681Y19164D01*
X331Y19164D01*
X239Y19126D01*
X180Y19067D01*
X121Y19126D01*
X30Y19164D01*
X-69Y19164D01*
X-419Y19164D01*
X-511Y19126D01*
X-581Y19056D01*
X-617Y18970D01*
X-1249Y18970D01*
X-1260Y18997D01*
X-1330Y19067D01*
X-1421Y19105D01*
X-1520Y19105D01*
X-1992Y19105D01*
X-2084Y19067D01*
X-2154Y18997D01*
X-2192Y18906D01*
X-2192Y18807D01*
X-2192Y18335D01*
X-2154Y18243D01*
X-2084Y18173D01*
X-1993Y18135D01*
X-1894Y18135D01*
X-1422Y18135D01*
X-1330Y18173D01*
X-1260Y18243D01*
X-1224Y18330D01*
X-619Y18330D01*
X-619Y18316D01*
X-581Y18224D01*
X-511Y18154D01*
X-420Y18116D01*
X-321Y18116D01*
X29Y18116D01*
X121Y18154D01*
X180Y18213D01*
X239Y18154D01*
X330Y18116D01*
X429Y18116D01*
X631Y18116D01*
X725Y18023D01*
X725Y18016D01*
X789Y17860D01*
X909Y17740D01*
X1065Y17675D01*
X1234Y17675D01*
X1390Y17739D01*
X1510Y17859D01*
X1575Y18015D01*
X1575Y1028D01*
X625Y1978D01*
X625Y2144D01*
X545Y2337D01*
X398Y2485D01*
X205Y2565D01*
X-4Y2565D01*
X-197Y2485D01*
X-331Y2352D01*
X-331Y9871D01*
X-331Y10089D01*
X-415Y10291D01*
X-569Y10445D01*
X-654Y10480D01*
X-569Y10515D01*
X-415Y10669D01*
X-331Y10871D01*
X-331Y11089D01*
X-415Y11291D01*
X-569Y11445D01*
X-771Y11529D01*
X-989Y11529D01*
X-1191Y11445D01*
X-1331Y11305D01*
X-1331Y11329D01*
X-1369Y11421D01*
X-1439Y11491D01*
X-1530Y11529D01*
X-1629Y11529D01*
X-2229Y11529D01*
X-2321Y11491D01*
X-2391Y11421D01*
X-2429Y11330D01*
X-2429Y11231D01*
X-2429Y10631D01*
X-2391Y10539D01*
X-2321Y10469D01*
X-2230Y10431D01*
X-2205Y10431D01*
X-2345Y10291D01*
X-2429Y10089D01*
X-2429Y9871D01*
X-2345Y9669D01*
X-2191Y9515D01*
X-1989Y9431D01*
X-1771Y9431D01*
X-1569Y9515D01*
X-1415Y9669D01*
X-1380Y9754D01*
X-1345Y9669D01*
X-1191Y9515D01*
X-989Y9431D01*
X-771Y9431D01*
X-569Y9515D01*
X-415Y9669D01*
X-331Y9871D01*
X-331Y2352D01*
X-345Y2338D01*
X-425Y2145D01*
X-425Y1936D01*
X-345Y1743D01*
X-198Y1595D01*
X-5Y1515D01*
X182Y1515D01*
X1175Y523D01*
X1175Y466D01*
X1239Y310D01*
X1359Y190D01*
X1515Y125D01*
X1684Y125D01*
X1840Y189D01*
X1960Y309D01*
X2025Y465D01*
X2025Y-493D01*
X649Y-493D01*
X649Y150D01*
X649Y249D01*
X649Y849D01*
X611Y941D01*
X541Y1011D01*
X450Y1049D01*
X351Y1049D01*
X-249Y1049D01*
X-341Y1011D01*
X-411Y941D01*
X-449Y850D01*
X-449Y825D01*
X-589Y965D01*
X-791Y1049D01*
X-1009Y1049D01*
X-1211Y965D01*
X-1365Y811D01*
X-1400Y727D01*
X-1435Y811D01*
X-1589Y965D01*
X-1791Y1049D01*
X-2009Y1049D01*
X-2211Y965D01*
X-2365Y811D01*
X-2375Y787D01*
X-2375Y1935D01*
X-2375Y2144D01*
X-2455Y2337D01*
X-2602Y2485D01*
X-2795Y2565D01*
X-3004Y2565D01*
X-3197Y2485D01*
X-3345Y2338D01*
X-3425Y2145D01*
X-3425Y1936D01*
X-3345Y1743D01*
X-3198Y1595D01*
X-3005Y1515D01*
X-2796Y1515D01*
X-2603Y1595D01*
X-2455Y1742D01*
X-2375Y1935D01*
X-2375Y787D01*
X-2400Y727D01*
X-2435Y811D01*
X-2589Y965D01*
X-2791Y1049D01*
X-3009Y1049D01*
X-3211Y965D01*
X-3365Y811D01*
X-3449Y609D01*
X-3449Y391D01*
X-3365Y189D01*
X-3211Y35D01*
X-3009Y-49D01*
X-2791Y-49D01*
X-2589Y35D01*
X-2435Y189D01*
X-2400Y274D01*
X-2365Y189D01*
X-2211Y35D01*
X-2009Y-49D01*
X-1791Y-49D01*
X-1589Y35D01*
X-1435Y189D01*
X-1400Y274D01*
X-1365Y189D01*
X-1211Y35D01*
X-1009Y-49D01*
X-791Y-49D01*
X-589Y35D01*
X-449Y175D01*
X-449Y151D01*
X-411Y59D01*
X-341Y-11D01*
X-250Y-49D01*
X-151Y-49D01*
X449Y-49D01*
X541Y-11D01*
X611Y59D01*
X649Y150D01*
X649Y-493D01*
X-3766Y-493D01*
X-4525Y265D01*
X-4525Y19514D01*
X-3766Y20273D01*
X18239Y20273D01*
X18997Y19514D01*
X18997Y265D01*
X18997Y265D01*
G37*
G54D22*
X18997Y265D02*
X18553Y-179D01*
X18553Y371D01*
X18553Y589D01*
X18469Y791D01*
X18320Y940D01*
X18320Y965D01*
X18469Y1114D01*
X18553Y1316D01*
X18553Y1534D01*
X18529Y1592D01*
X18529Y19400D01*
X18529Y19618D01*
X18445Y19820D01*
X18291Y19974D01*
X18089Y20058D01*
X17871Y20058D01*
X17669Y19974D01*
X17515Y19820D01*
X17480Y19736D01*
X17445Y19820D01*
X17291Y19974D01*
X17089Y20058D01*
X16871Y20058D01*
X16669Y19974D01*
X16515Y19820D01*
X16480Y19736D01*
X16445Y19820D01*
X16291Y19974D01*
X16089Y20058D01*
X15871Y20058D01*
X15669Y19974D01*
X15515Y19820D01*
X15480Y19736D01*
X15445Y19820D01*
X15291Y19974D01*
X15089Y20058D01*
X14871Y20058D01*
X14669Y19974D01*
X14515Y19820D01*
X14480Y19736D01*
X14445Y19820D01*
X14291Y19974D01*
X14089Y20058D01*
X13871Y20058D01*
X13669Y19974D01*
X13515Y19820D01*
X13480Y19736D01*
X13445Y19820D01*
X13291Y19974D01*
X13089Y20058D01*
X12871Y20058D01*
X12669Y19974D01*
X12515Y19820D01*
X12480Y19736D01*
X12445Y19820D01*
X12291Y19974D01*
X12089Y20058D01*
X11871Y20058D01*
X11669Y19974D01*
X11529Y19834D01*
X11529Y19858D01*
X11491Y19950D01*
X11421Y20020D01*
X11330Y20058D01*
X11231Y20058D01*
X10631Y20058D01*
X10539Y20020D01*
X10469Y19950D01*
X10431Y19859D01*
X10431Y19760D01*
X10431Y19160D01*
X10462Y19085D01*
X10459Y19081D01*
X10421Y18990D01*
X10421Y18891D01*
X10421Y18574D01*
X9822Y17975D01*
X9766Y17975D01*
X9610Y17911D01*
X9525Y17826D01*
X9491Y17860D01*
X9335Y17925D01*
X9166Y17925D01*
X9010Y17861D01*
X8890Y17741D01*
X8825Y17585D01*
X8825Y17528D01*
X7548Y16251D01*
X7536Y16281D01*
X7397Y16420D01*
X7215Y16496D01*
X7018Y16496D01*
X6970Y16477D01*
X6970Y18314D01*
X7109Y18175D01*
X7311Y18091D01*
X7529Y18091D01*
X7731Y18175D01*
X7885Y18329D01*
X7920Y18414D01*
X7955Y18329D01*
X8109Y18175D01*
X8311Y18091D01*
X8529Y18091D01*
X8731Y18175D01*
X8885Y18329D01*
X8920Y18414D01*
X8955Y18329D01*
X9109Y18175D01*
X9311Y18091D01*
X9529Y18091D01*
X9731Y18175D01*
X9885Y18329D01*
X9969Y18531D01*
X9969Y18749D01*
X9885Y18951D01*
X9751Y19085D01*
X9863Y19197D01*
X9947Y19399D01*
X9947Y19617D01*
X9863Y19819D01*
X9709Y19973D01*
X9507Y20057D01*
X9289Y20057D01*
X9087Y19973D01*
X8933Y19819D01*
X8898Y19735D01*
X8863Y19819D01*
X8709Y19973D01*
X8507Y20057D01*
X8289Y20057D01*
X8087Y19973D01*
X7933Y19819D01*
X7898Y19735D01*
X7863Y19819D01*
X7709Y19973D01*
X7507Y20057D01*
X7289Y20057D01*
X7087Y19973D01*
X6933Y19819D01*
X6898Y19735D01*
X6863Y19819D01*
X6709Y19973D01*
X6507Y20057D01*
X6289Y20057D01*
X6087Y19973D01*
X5933Y19819D01*
X5898Y19735D01*
X5863Y19819D01*
X5709Y19973D01*
X5507Y20057D01*
X5289Y20057D01*
X5087Y19973D01*
X4933Y19819D01*
X4898Y19735D01*
X4863Y19819D01*
X4709Y19973D01*
X4507Y20057D01*
X4289Y20057D01*
X4087Y19973D01*
X3933Y19819D01*
X3849Y19617D01*
X3849Y19399D01*
X3933Y19197D01*
X4067Y19063D01*
X3955Y18951D01*
X3871Y18749D01*
X3871Y18531D01*
X3955Y18329D01*
X4109Y18175D01*
X4311Y18091D01*
X4529Y18091D01*
X4731Y18175D01*
X4885Y18329D01*
X4920Y18414D01*
X4955Y18329D01*
X5109Y18175D01*
X5311Y18091D01*
X5506Y18091D01*
X6030Y17568D01*
X6030Y15250D01*
X6054Y15127D01*
X6124Y15024D01*
X6730Y14418D01*
X6730Y14400D01*
X6754Y14277D01*
X6824Y14174D01*
X7080Y13918D01*
X7080Y13731D01*
X7040Y13691D01*
X6975Y13535D01*
X6975Y13366D01*
X7039Y13210D01*
X7159Y13090D01*
X7315Y13025D01*
X7484Y13025D01*
X7640Y13089D01*
X7680Y13129D01*
X7680Y940D01*
X7531Y791D01*
X7496Y707D01*
X7461Y791D01*
X7307Y945D01*
X7105Y1029D01*
X6887Y1029D01*
X6685Y945D01*
X6545Y805D01*
X6545Y829D01*
X6507Y921D01*
X6437Y991D01*
X6432Y994D01*
X6432Y13755D01*
X6432Y13952D01*
X6432Y14052D01*
X6357Y14234D01*
X6218Y14373D01*
X6036Y14449D01*
X5839Y14449D01*
X5657Y14374D01*
X5518Y14235D01*
X5486Y14159D01*
X5486Y15803D01*
X5486Y16000D01*
X5486Y16100D01*
X5411Y16282D01*
X5272Y16421D01*
X5090Y16497D01*
X4893Y16497D01*
X4711Y16422D01*
X4572Y16283D01*
X4496Y16101D01*
X4496Y15904D01*
X4496Y15804D01*
X4571Y15622D01*
X4710Y15483D01*
X4892Y15407D01*
X5089Y15407D01*
X5271Y15482D01*
X5410Y15621D01*
X5486Y15803D01*
X5486Y14159D01*
X5442Y14053D01*
X5442Y13856D01*
X5442Y13756D01*
X5517Y13574D01*
X5656Y13435D01*
X5838Y13359D01*
X6035Y13359D01*
X6217Y13434D01*
X6356Y13573D01*
X6432Y13755D01*
X6432Y994D01*
X6346Y1029D01*
X6247Y1029D01*
X5647Y1029D01*
X5555Y991D01*
X5485Y921D01*
X5447Y830D01*
X5447Y731D01*
X5447Y131D01*
X5485Y39D01*
X5555Y-31D01*
X5646Y-69D01*
X5745Y-69D01*
X6345Y-69D01*
X6437Y-31D01*
X6507Y39D01*
X6545Y130D01*
X6545Y155D01*
X6685Y15D01*
X6887Y-69D01*
X7105Y-69D01*
X7307Y15D01*
X7461Y169D01*
X7496Y254D01*
X7531Y169D01*
X7685Y15D01*
X7887Y-69D01*
X8105Y-69D01*
X8307Y15D01*
X8461Y169D01*
X8545Y371D01*
X8545Y589D01*
X8461Y791D01*
X8320Y932D01*
X8320Y13450D01*
X8443Y13573D01*
X8519Y13755D01*
X8519Y13952D01*
X8519Y14052D01*
X8444Y14234D01*
X8320Y14358D01*
X8320Y15068D01*
X8659Y15407D01*
X8830Y15407D01*
X9012Y15482D01*
X9151Y15621D01*
X9227Y15803D01*
X9227Y16000D01*
X9227Y16100D01*
X9152Y16282D01*
X9013Y16421D01*
X8831Y16497D01*
X8699Y16497D01*
X9277Y17075D01*
X9334Y17075D01*
X9490Y17139D01*
X9575Y17224D01*
X9609Y17190D01*
X9765Y17125D01*
X9934Y17125D01*
X10090Y17189D01*
X10210Y17309D01*
X10275Y17465D01*
X10275Y17523D01*
X10843Y18091D01*
X11319Y18091D01*
X11411Y18129D01*
X11481Y18199D01*
X11519Y18290D01*
X11519Y18315D01*
X11659Y18175D01*
X11861Y18091D01*
X12079Y18091D01*
X12281Y18175D01*
X12435Y18329D01*
X12470Y18414D01*
X12505Y18329D01*
X12659Y18175D01*
X12861Y18091D01*
X13079Y18091D01*
X13281Y18175D01*
X13435Y18329D01*
X13470Y18414D01*
X13505Y18329D01*
X13659Y18175D01*
X13861Y18091D01*
X14079Y18091D01*
X14281Y18175D01*
X14435Y18329D01*
X14470Y18414D01*
X14505Y18329D01*
X14659Y18175D01*
X14861Y18091D01*
X15079Y18091D01*
X15281Y18175D01*
X15435Y18329D01*
X15470Y18414D01*
X15505Y18329D01*
X15659Y18175D01*
X15861Y18091D01*
X16079Y18091D01*
X16281Y18175D01*
X16435Y18329D01*
X16470Y18414D01*
X16505Y18329D01*
X16659Y18175D01*
X16861Y18091D01*
X17079Y18091D01*
X17281Y18175D01*
X17435Y18329D01*
X17470Y18414D01*
X17505Y18329D01*
X17659Y18175D01*
X17861Y18091D01*
X18079Y18091D01*
X18281Y18175D01*
X18435Y18329D01*
X18519Y18531D01*
X18519Y18749D01*
X18435Y18951D01*
X18316Y19070D01*
X18445Y19198D01*
X18529Y19400D01*
X18529Y1592D01*
X18469Y1736D01*
X18315Y1890D01*
X18113Y1974D01*
X17895Y1974D01*
X17693Y1890D01*
X17539Y1736D01*
X17504Y1652D01*
X17469Y1736D01*
X17315Y1890D01*
X17113Y1974D01*
X16895Y1974D01*
X16693Y1890D01*
X16539Y1736D01*
X16504Y1652D01*
X16469Y1736D01*
X16315Y1890D01*
X16113Y1974D01*
X16026Y1974D01*
X16072Y2043D01*
X16095Y2077D01*
X16096Y2078D01*
X16119Y2200D01*
X16120Y2200D01*
X16120Y3244D01*
X16165Y3225D01*
X16334Y3225D01*
X16490Y3289D01*
X16610Y3409D01*
X16675Y3565D01*
X16675Y3623D01*
X18076Y5023D01*
X18076Y5024D01*
X18145Y5126D01*
X18145Y5127D01*
X18146Y5128D01*
X18169Y5249D01*
X18170Y5250D01*
X18170Y7177D01*
X18196Y7187D01*
X18335Y7326D01*
X18411Y7508D01*
X18411Y7705D01*
X18411Y11249D01*
X18411Y11446D01*
X18411Y13178D01*
X18411Y13375D01*
X18336Y13557D01*
X18197Y13696D01*
X18015Y13772D01*
X17818Y13772D01*
X17718Y13772D01*
X17536Y13697D01*
X17397Y13558D01*
X17321Y13376D01*
X17321Y13179D01*
X17396Y12997D01*
X17535Y12858D01*
X17717Y12782D01*
X17914Y12782D01*
X18014Y12782D01*
X18196Y12857D01*
X18335Y12996D01*
X18411Y13178D01*
X18411Y11446D01*
X18336Y11628D01*
X18197Y11767D01*
X18015Y11843D01*
X17818Y11843D01*
X17718Y11843D01*
X17536Y11768D01*
X17397Y11629D01*
X17321Y11447D01*
X17321Y11250D01*
X17396Y11068D01*
X17535Y10929D01*
X17717Y10853D01*
X17914Y10853D01*
X18014Y10853D01*
X18196Y10928D01*
X18335Y11067D01*
X18411Y11249D01*
X18411Y7705D01*
X18410Y7708D01*
X18410Y9124D01*
X18410Y9321D01*
X18335Y9503D01*
X18196Y9642D01*
X18014Y9718D01*
X17817Y9718D01*
X17719Y9718D01*
X17537Y9643D01*
X17398Y9504D01*
X17322Y9322D01*
X17322Y9125D01*
X17397Y8943D01*
X17536Y8804D01*
X17718Y8728D01*
X17915Y8728D01*
X18013Y8728D01*
X18195Y8803D01*
X18334Y8942D01*
X18410Y9124D01*
X18410Y7708D01*
X18336Y7887D01*
X18197Y8026D01*
X18015Y8102D01*
X17818Y8102D01*
X17718Y8102D01*
X17536Y8027D01*
X17397Y7888D01*
X17321Y7706D01*
X17321Y7509D01*
X17396Y7327D01*
X17530Y7193D01*
X17530Y5383D01*
X16222Y4075D01*
X16166Y4075D01*
X16120Y4057D01*
X16120Y6152D01*
X16148Y6163D01*
X16287Y6302D01*
X16363Y6484D01*
X16363Y6681D01*
X16288Y6863D01*
X16149Y7002D01*
X15967Y7078D01*
X15780Y7078D01*
X16026Y7324D01*
X16095Y7427D01*
X16096Y7428D01*
X16120Y7550D01*
X16120Y7884D01*
X16148Y7895D01*
X16287Y8034D01*
X16363Y8216D01*
X16363Y8413D01*
X16363Y10303D01*
X16363Y10500D01*
X16363Y12389D01*
X16363Y12586D01*
X16288Y12768D01*
X16149Y12907D01*
X15967Y12983D01*
X15770Y12983D01*
X15670Y12983D01*
X15488Y12908D01*
X15349Y12769D01*
X15273Y12587D01*
X15273Y12390D01*
X15348Y12208D01*
X15487Y12069D01*
X15669Y11993D01*
X15866Y11993D01*
X15966Y11993D01*
X16148Y12068D01*
X16287Y12207D01*
X16363Y12389D01*
X16363Y10500D01*
X16288Y10682D01*
X16149Y10821D01*
X15967Y10897D01*
X15770Y10897D01*
X15670Y10897D01*
X15488Y10822D01*
X15349Y10683D01*
X15273Y10501D01*
X15273Y10304D01*
X15348Y10122D01*
X15487Y9983D01*
X15669Y9907D01*
X15866Y9907D01*
X15966Y9907D01*
X16148Y9982D01*
X16287Y10121D01*
X16363Y10303D01*
X16363Y8413D01*
X16288Y8595D01*
X16149Y8734D01*
X15967Y8810D01*
X15770Y8810D01*
X15670Y8810D01*
X15488Y8735D01*
X15349Y8596D01*
X15273Y8414D01*
X15273Y8217D01*
X15348Y8035D01*
X15480Y7903D01*
X15480Y7682D01*
X15074Y7276D01*
X15004Y7173D01*
X14980Y7050D01*
X14980Y3833D01*
X13121Y1974D01*
X12655Y1974D01*
X12563Y1936D01*
X12493Y1866D01*
X12455Y1775D01*
X12455Y1676D01*
X12455Y1076D01*
X12493Y984D01*
X12524Y953D01*
X12493Y921D01*
X12455Y830D01*
X12455Y731D01*
X12455Y131D01*
X12493Y39D01*
X12563Y-31D01*
X12654Y-69D01*
X12753Y-69D01*
X13353Y-69D01*
X13445Y-31D01*
X13515Y39D01*
X13553Y130D01*
X13553Y155D01*
X13693Y15D01*
X13895Y-69D01*
X14113Y-69D01*
X14315Y15D01*
X14469Y169D01*
X14504Y254D01*
X14539Y169D01*
X14693Y15D01*
X14895Y-69D01*
X15113Y-69D01*
X15315Y15D01*
X15469Y169D01*
X15504Y254D01*
X15539Y169D01*
X15693Y15D01*
X15895Y-69D01*
X16113Y-69D01*
X16315Y15D01*
X16469Y169D01*
X16504Y254D01*
X16539Y169D01*
X16693Y15D01*
X16895Y-69D01*
X17113Y-69D01*
X17315Y15D01*
X17469Y169D01*
X17504Y254D01*
X17539Y169D01*
X17693Y15D01*
X17895Y-69D01*
X18113Y-69D01*
X18315Y15D01*
X18469Y169D01*
X18553Y371D01*
X18553Y-179D01*
X18239Y-493D01*
X11545Y-493D01*
X11545Y371D01*
X11545Y589D01*
X11461Y791D01*
X11307Y945D01*
X11105Y1029D01*
X10887Y1029D01*
X10685Y945D01*
X10531Y791D01*
X10447Y589D01*
X10447Y371D01*
X10531Y169D01*
X10685Y15D01*
X10887Y-69D01*
X11105Y-69D01*
X11307Y15D01*
X11461Y169D01*
X11545Y371D01*
X11545Y-493D01*
X10251Y-493D01*
X10251Y13755D01*
X10251Y13952D01*
X10251Y14052D01*
X10176Y14234D01*
X10037Y14373D01*
X9855Y14449D01*
X9658Y14449D01*
X9476Y14374D01*
X9337Y14235D01*
X9261Y14053D01*
X9261Y13856D01*
X9261Y13756D01*
X9336Y13574D01*
X9475Y13435D01*
X9657Y13359D01*
X9854Y13359D01*
X10036Y13434D01*
X10175Y13573D01*
X10251Y13755D01*
X10251Y-493D01*
X4346Y-493D01*
X4346Y13755D01*
X4346Y13952D01*
X4346Y14052D01*
X4271Y14234D01*
X4132Y14373D01*
X3950Y14449D01*
X3753Y14449D01*
X3571Y14374D01*
X3557Y14360D01*
X3557Y15803D01*
X3557Y16000D01*
X3557Y16100D01*
X3482Y16282D01*
X3343Y16421D01*
X3161Y16497D01*
X2969Y16497D01*
X2969Y18290D01*
X2969Y18389D01*
X2969Y18989D01*
X2931Y19081D01*
X2919Y19093D01*
X2947Y19158D01*
X2947Y19257D01*
X2947Y19857D01*
X2909Y19949D01*
X2839Y20019D01*
X2748Y20057D01*
X2649Y20057D01*
X2049Y20057D01*
X1957Y20019D01*
X1887Y19949D01*
X1849Y19858D01*
X1849Y19759D01*
X1849Y19159D01*
X1887Y19067D01*
X1898Y19056D01*
X1871Y18990D01*
X1871Y18891D01*
X1871Y18291D01*
X1909Y18199D01*
X1979Y18129D01*
X2070Y18091D01*
X2169Y18091D01*
X2769Y18091D01*
X2861Y18129D01*
X2931Y18199D01*
X2969Y18290D01*
X2969Y16497D01*
X2964Y16497D01*
X2782Y16422D01*
X2643Y16283D01*
X2567Y16101D01*
X2567Y15904D01*
X2567Y15804D01*
X2642Y15622D01*
X2781Y15483D01*
X2963Y15407D01*
X3160Y15407D01*
X3342Y15482D01*
X3481Y15621D01*
X3557Y15803D01*
X3557Y14360D01*
X3432Y14235D01*
X3356Y14053D01*
X3356Y13856D01*
X3356Y13756D01*
X3431Y13574D01*
X3570Y13435D01*
X3752Y13359D01*
X3949Y13359D01*
X4131Y13434D01*
X4270Y13573D01*
X4346Y13755D01*
X4346Y-493D01*
X2025Y-493D01*
X2025Y465D01*
X2025Y634D01*
X1961Y790D01*
X1841Y910D01*
X1685Y975D01*
X1627Y975D01*
X1575Y1028D01*
X1575Y18015D01*
X1575Y18184D01*
X1511Y18340D01*
X1391Y18460D01*
X1235Y18525D01*
X1127Y18525D01*
X979Y18674D01*
X979Y18964D01*
X941Y19056D01*
X871Y19126D01*
X780Y19164D01*
X681Y19164D01*
X331Y19164D01*
X239Y19126D01*
X180Y19067D01*
X121Y19126D01*
X30Y19164D01*
X-69Y19164D01*
X-419Y19164D01*
X-511Y19126D01*
X-581Y19056D01*
X-617Y18970D01*
X-1249Y18970D01*
X-1260Y18997D01*
X-1330Y19067D01*
X-1421Y19105D01*
X-1520Y19105D01*
X-1992Y19105D01*
X-2084Y19067D01*
X-2154Y18997D01*
X-2192Y18906D01*
X-2192Y18807D01*
X-2192Y18335D01*
X-2154Y18243D01*
X-2084Y18173D01*
X-1993Y18135D01*
X-1894Y18135D01*
X-1422Y18135D01*
X-1330Y18173D01*
X-1260Y18243D01*
X-1224Y18330D01*
X-619Y18330D01*
X-619Y18316D01*
X-581Y18224D01*
X-511Y18154D01*
X-420Y18116D01*
X-321Y18116D01*
X29Y18116D01*
X121Y18154D01*
X180Y18213D01*
X239Y18154D01*
X330Y18116D01*
X429Y18116D01*
X631Y18116D01*
X725Y18023D01*
X725Y18016D01*
X789Y17860D01*
X909Y17740D01*
X1065Y17675D01*
X1234Y17675D01*
X1390Y17739D01*
X1510Y17859D01*
X1575Y18015D01*
X1575Y1028D01*
X625Y1978D01*
X625Y2144D01*
X545Y2337D01*
X398Y2485D01*
X205Y2565D01*
X-4Y2565D01*
X-197Y2485D01*
X-331Y2352D01*
X-331Y9871D01*
X-331Y10089D01*
X-415Y10291D01*
X-569Y10445D01*
X-654Y10480D01*
X-569Y10515D01*
X-415Y10669D01*
X-331Y10871D01*
X-331Y11089D01*
X-415Y11291D01*
X-569Y11445D01*
X-771Y11529D01*
X-989Y11529D01*
X-1191Y11445D01*
X-1331Y11305D01*
X-1331Y11329D01*
X-1369Y11421D01*
X-1439Y11491D01*
X-1530Y11529D01*
X-1629Y11529D01*
X-2229Y11529D01*
X-2321Y11491D01*
X-2391Y11421D01*
X-2429Y11330D01*
X-2429Y11231D01*
X-2429Y10631D01*
X-2391Y10539D01*
X-2321Y10469D01*
X-2230Y10431D01*
X-2205Y10431D01*
X-2345Y10291D01*
X-2429Y10089D01*
X-2429Y9871D01*
X-2345Y9669D01*
X-2191Y9515D01*
X-1989Y9431D01*
X-1771Y9431D01*
X-1569Y9515D01*
X-1415Y9669D01*
X-1380Y9754D01*
X-1345Y9669D01*
X-1191Y9515D01*
X-989Y9431D01*
X-771Y9431D01*
X-569Y9515D01*
X-415Y9669D01*
X-331Y9871D01*
X-331Y2352D01*
X-345Y2338D01*
X-425Y2145D01*
X-425Y1936D01*
X-345Y1743D01*
X-198Y1595D01*
X-5Y1515D01*
X182Y1515D01*
X1175Y523D01*
X1175Y466D01*
X1239Y310D01*
X1359Y190D01*
X1515Y125D01*
X1684Y125D01*
X1840Y189D01*
X1960Y309D01*
X2025Y465D01*
X2025Y-493D01*
X649Y-493D01*
X649Y150D01*
X649Y249D01*
X649Y849D01*
X611Y941D01*
X541Y1011D01*
X450Y1049D01*
X351Y1049D01*
X-249Y1049D01*
X-341Y1011D01*
X-411Y941D01*
X-449Y850D01*
X-449Y825D01*
X-589Y965D01*
X-791Y1049D01*
X-1009Y1049D01*
X-1211Y965D01*
X-1365Y811D01*
X-1400Y727D01*
X-1435Y811D01*
X-1589Y965D01*
X-1791Y1049D01*
X-2009Y1049D01*
X-2211Y965D01*
X-2365Y811D01*
X-2375Y787D01*
X-2375Y1935D01*
X-2375Y2144D01*
X-2455Y2337D01*
X-2602Y2485D01*
X-2795Y2565D01*
X-3004Y2565D01*
X-3197Y2485D01*
X-3345Y2338D01*
X-3425Y2145D01*
X-3425Y1936D01*
X-3345Y1743D01*
X-3198Y1595D01*
X-3005Y1515D01*
X-2796Y1515D01*
X-2603Y1595D01*
X-2455Y1742D01*
X-2375Y1935D01*
X-2375Y787D01*
X-2400Y727D01*
X-2435Y811D01*
X-2589Y965D01*
X-2791Y1049D01*
X-3009Y1049D01*
X-3211Y965D01*
X-3365Y811D01*
X-3449Y609D01*
X-3449Y391D01*
X-3365Y189D01*
X-3211Y35D01*
X-3009Y-49D01*
X-2791Y-49D01*
X-2589Y35D01*
X-2435Y189D01*
X-2400Y274D01*
X-2365Y189D01*
X-2211Y35D01*
X-2009Y-49D01*
X-1791Y-49D01*
X-1589Y35D01*
X-1435Y189D01*
X-1400Y274D01*
X-1365Y189D01*
X-1211Y35D01*
X-1009Y-49D01*
X-791Y-49D01*
X-589Y35D01*
X-449Y175D01*
X-449Y151D01*
X-411Y59D01*
X-341Y-11D01*
X-250Y-49D01*
X-151Y-49D01*
X449Y-49D01*
X541Y-11D01*
X611Y59D01*
X649Y150D01*
X649Y-493D01*
X-3766Y-493D01*
X-4525Y265D01*
X-4525Y19514D01*
X-3766Y20273D01*
X18239Y20273D01*
X18997Y19514D01*
X18997Y265D01*
M02*
