G04 (created by PCBNEW-RS274X (2011-nov-30)-testing) date Fri 25 May 2012 05:34:57 PM EDT*
%MOIN*%
G04 Gerber Fmt 3.4, Leading zero omitted, Abs format*
%FSLAX34Y34*%
G01*
G70*
G90*
G04 APERTURE LIST*
%ADD10C,0.006*%
%ADD11R,0.0472X0.0472*%
%ADD12R,0.06X0.06*%
%ADD13C,0.06*%
%ADD14R,0.035X0.055*%
%ADD15C,0.055*%
%ADD16C,0.035*%
%ADD17C,0.014*%
%ADD18C,0.01*%
G04 APERTURE END LIST*
G54D10*
G54D11*
X55697Y-36800D03*
X56523Y-36800D03*
G54D12*
X58996Y-52520D03*
G54D13*
X59996Y-52520D03*
X60996Y-52520D03*
X61996Y-52520D03*
X62996Y-52520D03*
X63996Y-52520D03*
G54D12*
X61210Y-38530D03*
G54D13*
X62210Y-38530D03*
X61210Y-39530D03*
X62210Y-39530D03*
G54D12*
X58087Y-39657D03*
G54D13*
X58087Y-40657D03*
X57087Y-39657D03*
X57087Y-40657D03*
X56087Y-39657D03*
X56087Y-40657D03*
G54D14*
X57425Y-36800D03*
X58175Y-36800D03*
G54D15*
X58000Y-51000D03*
X56000Y-51000D03*
X58000Y-48000D03*
X56000Y-48000D03*
G54D12*
X55398Y-35146D03*
G54D13*
X56398Y-35146D03*
X57398Y-35146D03*
X58398Y-35146D03*
X59398Y-35146D03*
X60398Y-35146D03*
X61398Y-35146D03*
X62398Y-35146D03*
G54D12*
X63980Y-33491D03*
G54D13*
X64980Y-33491D03*
X65980Y-33491D03*
X66980Y-33491D03*
X67980Y-33491D03*
X68980Y-33491D03*
X69980Y-33491D03*
X70980Y-33491D03*
G54D12*
X63980Y-35320D03*
G54D13*
X64980Y-35320D03*
X65980Y-35320D03*
X66980Y-35320D03*
X67980Y-35320D03*
X68980Y-35320D03*
X69980Y-35320D03*
X70980Y-35320D03*
G54D12*
X55398Y-33492D03*
G54D13*
X56398Y-33492D03*
X57398Y-33492D03*
X58398Y-33492D03*
X59398Y-33492D03*
X60398Y-33492D03*
X61398Y-33492D03*
X62398Y-33492D03*
G54D12*
X61250Y-48700D03*
G54D13*
X61250Y-47700D03*
X61250Y-46700D03*
X61250Y-45700D03*
X61250Y-44700D03*
X61250Y-43700D03*
X61250Y-42700D03*
X61250Y-41700D03*
G54D12*
X65854Y-48776D03*
G54D13*
X65854Y-47776D03*
X65854Y-46776D03*
X65854Y-45776D03*
X65854Y-44776D03*
X65854Y-43776D03*
X65854Y-42776D03*
X65854Y-41776D03*
G54D12*
X70130Y-41303D03*
G54D13*
X70130Y-42303D03*
X70130Y-43303D03*
X70130Y-44303D03*
X70130Y-45303D03*
X70130Y-46303D03*
X70130Y-47303D03*
X70130Y-48303D03*
G54D12*
X66004Y-52520D03*
G54D13*
X67004Y-52520D03*
X68004Y-52520D03*
X69004Y-52520D03*
X70004Y-52520D03*
X71004Y-52520D03*
G54D12*
X66004Y-50984D03*
G54D13*
X67004Y-50984D03*
X68004Y-50984D03*
X69004Y-50984D03*
X70004Y-50984D03*
X71004Y-50984D03*
G54D12*
X58200Y-46000D03*
G54D13*
X58200Y-45000D03*
X58200Y-44000D03*
X58200Y-43000D03*
G54D16*
X59360Y-38360D03*
X60270Y-40640D03*
X64750Y-40640D03*
G54D17*
X60398Y-35146D02*
X60398Y-33492D01*
X59360Y-38360D02*
X59398Y-35146D01*
X59398Y-33492D02*
X59398Y-35146D01*
X64750Y-40640D02*
X65840Y-40640D01*
X58398Y-35146D02*
X58398Y-33492D01*
X59000Y-36800D02*
X58398Y-35146D01*
X58087Y-39657D02*
X59000Y-36800D01*
X65840Y-40640D02*
X68360Y-42810D01*
X68360Y-42810D02*
X68360Y-45190D01*
X68360Y-45190D02*
X70130Y-45303D01*
X58087Y-39657D02*
X60270Y-40640D01*
X57087Y-39657D02*
X58175Y-36800D01*
X58175Y-36800D02*
X57398Y-35146D01*
X57398Y-35146D02*
X57398Y-33492D01*
X68980Y-35320D02*
X68981Y-33492D01*
X67981Y-33492D02*
X67980Y-35320D01*
X58200Y-44000D02*
X58200Y-43000D01*
X58200Y-45000D02*
X58200Y-44000D01*
X58200Y-46000D02*
X58200Y-45000D01*
X59996Y-52520D02*
X60000Y-45980D01*
X60000Y-45980D02*
X58200Y-46000D01*
X66980Y-35320D02*
X66981Y-33492D01*
X65981Y-33492D02*
X65980Y-35320D01*
X61250Y-41700D02*
X61210Y-39530D01*
X61250Y-45700D02*
X61250Y-44700D01*
X60996Y-52520D02*
X61250Y-48700D01*
X61250Y-47700D02*
X61250Y-46700D01*
X61250Y-46700D02*
X61250Y-45700D01*
X61250Y-48700D02*
X61250Y-47700D01*
X61250Y-42700D02*
X61250Y-41700D01*
X61250Y-44700D02*
X61250Y-43700D01*
X61250Y-43700D02*
X61250Y-42700D01*
X61250Y-41700D02*
X58087Y-40657D01*
X64980Y-35320D02*
X64981Y-33492D01*
X61210Y-38530D02*
X63980Y-35320D01*
X63980Y-35320D02*
X63981Y-33492D01*
X62398Y-35146D02*
X62398Y-33492D01*
X61398Y-33492D02*
X61398Y-35146D01*
X66004Y-52520D02*
X66004Y-50984D01*
X66004Y-50984D02*
X70130Y-46303D01*
X67004Y-50984D02*
X70130Y-47303D01*
X67004Y-52520D02*
X67004Y-50984D01*
X68004Y-50984D02*
X70130Y-48303D01*
X68004Y-52520D02*
X68004Y-50984D01*
X69004Y-52520D02*
X69004Y-50984D01*
X70004Y-52520D02*
X70004Y-50984D01*
X71004Y-52520D02*
X71004Y-50984D01*
X55398Y-35146D02*
X55398Y-33492D01*
X58000Y-51000D02*
X58000Y-48000D01*
X58996Y-52520D02*
X58000Y-51000D01*
X70980Y-35320D02*
X70981Y-33492D01*
X69981Y-33492D02*
X69980Y-35320D01*
X57425Y-36800D02*
X56523Y-36800D01*
G54D10*
G36*
X71604Y-53100D02*
X71553Y-53100D01*
X71553Y-52629D01*
X71553Y-52411D01*
X71469Y-52209D01*
X71324Y-52064D01*
X71324Y-51440D01*
X71469Y-51295D01*
X71553Y-51093D01*
X71553Y-50875D01*
X71469Y-50673D01*
X71315Y-50519D01*
X71113Y-50435D01*
X70895Y-50435D01*
X70693Y-50519D01*
X70539Y-50673D01*
X70504Y-50757D01*
X70469Y-50673D01*
X70315Y-50519D01*
X70113Y-50435D01*
X69895Y-50435D01*
X69693Y-50519D01*
X69539Y-50673D01*
X69504Y-50757D01*
X69469Y-50673D01*
X69315Y-50519D01*
X69113Y-50435D01*
X68895Y-50435D01*
X68824Y-50464D01*
X70102Y-48852D01*
X70239Y-48852D01*
X70441Y-48768D01*
X70595Y-48614D01*
X70679Y-48412D01*
X70679Y-48194D01*
X70595Y-47992D01*
X70441Y-47838D01*
X70356Y-47803D01*
X70441Y-47768D01*
X70595Y-47614D01*
X70679Y-47412D01*
X70679Y-47194D01*
X70595Y-46992D01*
X70441Y-46838D01*
X70356Y-46803D01*
X70441Y-46768D01*
X70595Y-46614D01*
X70679Y-46412D01*
X70679Y-46194D01*
X70595Y-45992D01*
X70441Y-45838D01*
X70356Y-45803D01*
X70441Y-45768D01*
X70595Y-45614D01*
X70679Y-45412D01*
X70679Y-45194D01*
X70595Y-44992D01*
X70441Y-44838D01*
X70356Y-44803D01*
X70441Y-44768D01*
X70595Y-44614D01*
X70679Y-44412D01*
X70679Y-44194D01*
X70595Y-43992D01*
X70441Y-43838D01*
X70356Y-43803D01*
X70441Y-43768D01*
X70595Y-43614D01*
X70679Y-43412D01*
X70679Y-43194D01*
X70595Y-42992D01*
X70441Y-42838D01*
X70356Y-42803D01*
X70441Y-42768D01*
X70595Y-42614D01*
X70679Y-42412D01*
X70679Y-42194D01*
X70595Y-41992D01*
X70455Y-41852D01*
X70479Y-41852D01*
X70571Y-41814D01*
X70641Y-41744D01*
X70679Y-41653D01*
X70679Y-41554D01*
X70679Y-40954D01*
X70641Y-40862D01*
X70571Y-40792D01*
X70480Y-40754D01*
X70381Y-40754D01*
X69781Y-40754D01*
X69689Y-40792D01*
X69619Y-40862D01*
X69581Y-40953D01*
X69581Y-41052D01*
X69581Y-41652D01*
X69619Y-41744D01*
X69689Y-41814D01*
X69780Y-41852D01*
X69805Y-41852D01*
X69665Y-41992D01*
X69581Y-42194D01*
X69581Y-42412D01*
X69665Y-42614D01*
X69819Y-42768D01*
X69903Y-42803D01*
X69819Y-42838D01*
X69665Y-42992D01*
X69581Y-43194D01*
X69581Y-43412D01*
X69665Y-43614D01*
X69819Y-43768D01*
X69903Y-43803D01*
X69819Y-43838D01*
X69665Y-43992D01*
X69581Y-44194D01*
X69581Y-44412D01*
X69665Y-44614D01*
X69819Y-44768D01*
X69903Y-44803D01*
X69819Y-44838D01*
X69700Y-44956D01*
X68680Y-44890D01*
X68680Y-42810D01*
X68678Y-42800D01*
X68680Y-42784D01*
X68662Y-42723D01*
X68656Y-42688D01*
X68650Y-42680D01*
X68646Y-42663D01*
X68601Y-42606D01*
X68586Y-42584D01*
X68580Y-42580D01*
X68569Y-42566D01*
X66049Y-40397D01*
X65997Y-40368D01*
X65962Y-40344D01*
X65951Y-40341D01*
X65941Y-40336D01*
X65890Y-40329D01*
X65840Y-40320D01*
X65031Y-40320D01*
X64991Y-40280D01*
X64835Y-40215D01*
X64666Y-40215D01*
X64510Y-40279D01*
X64390Y-40399D01*
X64325Y-40555D01*
X64325Y-40724D01*
X64389Y-40880D01*
X64509Y-41000D01*
X64665Y-41065D01*
X64834Y-41065D01*
X64990Y-41001D01*
X65031Y-40960D01*
X65720Y-40960D01*
X68040Y-42954D01*
X68040Y-45190D01*
X68050Y-45244D01*
X68057Y-45293D01*
X68061Y-45301D01*
X68064Y-45312D01*
X68094Y-45357D01*
X68120Y-45401D01*
X68128Y-45407D01*
X68134Y-45416D01*
X68173Y-45442D01*
X68219Y-45478D01*
X68230Y-45480D01*
X68238Y-45486D01*
X68288Y-45495D01*
X68339Y-45509D01*
X68360Y-45510D01*
X69656Y-45594D01*
X69665Y-45614D01*
X69819Y-45768D01*
X69903Y-45803D01*
X69819Y-45838D01*
X69665Y-45992D01*
X69581Y-46194D01*
X69581Y-46412D01*
X69589Y-46432D01*
X66061Y-50435D01*
X65655Y-50435D01*
X65563Y-50473D01*
X65493Y-50543D01*
X65455Y-50634D01*
X65455Y-50733D01*
X65455Y-51333D01*
X65493Y-51425D01*
X65563Y-51495D01*
X65654Y-51533D01*
X65684Y-51533D01*
X65684Y-51971D01*
X65655Y-51971D01*
X65563Y-52009D01*
X65493Y-52079D01*
X65455Y-52170D01*
X65455Y-52269D01*
X65455Y-52869D01*
X65493Y-52961D01*
X65563Y-53031D01*
X65654Y-53069D01*
X65753Y-53069D01*
X66353Y-53069D01*
X66445Y-53031D01*
X66515Y-52961D01*
X66553Y-52870D01*
X66553Y-52845D01*
X66693Y-52985D01*
X66895Y-53069D01*
X67113Y-53069D01*
X67315Y-52985D01*
X67469Y-52831D01*
X67504Y-52746D01*
X67539Y-52831D01*
X67693Y-52985D01*
X67895Y-53069D01*
X68113Y-53069D01*
X68315Y-52985D01*
X68469Y-52831D01*
X68504Y-52746D01*
X68539Y-52831D01*
X68693Y-52985D01*
X68895Y-53069D01*
X69113Y-53069D01*
X69315Y-52985D01*
X69469Y-52831D01*
X69504Y-52746D01*
X69539Y-52831D01*
X69693Y-52985D01*
X69895Y-53069D01*
X70113Y-53069D01*
X70315Y-52985D01*
X70469Y-52831D01*
X70504Y-52746D01*
X70539Y-52831D01*
X70693Y-52985D01*
X70895Y-53069D01*
X71113Y-53069D01*
X71315Y-52985D01*
X71469Y-52831D01*
X71553Y-52629D01*
X71553Y-53100D01*
X64545Y-53100D01*
X64545Y-52629D01*
X64545Y-52411D01*
X64461Y-52209D01*
X64307Y-52055D01*
X64105Y-51971D01*
X63887Y-51971D01*
X63685Y-52055D01*
X63531Y-52209D01*
X63447Y-52411D01*
X63447Y-52629D01*
X63531Y-52831D01*
X63685Y-52985D01*
X63887Y-53069D01*
X64105Y-53069D01*
X64307Y-52985D01*
X64461Y-52831D01*
X64545Y-52629D01*
X64545Y-53100D01*
X54774Y-53100D01*
X54774Y-33121D01*
X54857Y-33121D01*
X54849Y-33142D01*
X54849Y-33241D01*
X54849Y-33841D01*
X54887Y-33933D01*
X54957Y-34003D01*
X55048Y-34041D01*
X55078Y-34041D01*
X55078Y-34597D01*
X55049Y-34597D01*
X54957Y-34635D01*
X54887Y-34705D01*
X54849Y-34796D01*
X54849Y-34895D01*
X54849Y-35495D01*
X54887Y-35587D01*
X54957Y-35657D01*
X55048Y-35695D01*
X55147Y-35695D01*
X55747Y-35695D01*
X55839Y-35657D01*
X55909Y-35587D01*
X55947Y-35496D01*
X55947Y-35397D01*
X55947Y-34797D01*
X55909Y-34705D01*
X55839Y-34635D01*
X55748Y-34597D01*
X55718Y-34597D01*
X55718Y-34041D01*
X55747Y-34041D01*
X55839Y-34003D01*
X55909Y-33933D01*
X55947Y-33842D01*
X55947Y-33743D01*
X55947Y-33143D01*
X55937Y-33121D01*
X56993Y-33121D01*
X56933Y-33181D01*
X56849Y-33383D01*
X56849Y-33601D01*
X56933Y-33803D01*
X57078Y-33948D01*
X57078Y-34690D01*
X56933Y-34835D01*
X56849Y-35037D01*
X56849Y-35255D01*
X56933Y-35457D01*
X57087Y-35611D01*
X57289Y-35695D01*
X57302Y-35695D01*
X57575Y-36276D01*
X57551Y-36276D01*
X57201Y-36276D01*
X57109Y-36314D01*
X57039Y-36384D01*
X57001Y-36475D01*
X57001Y-36480D01*
X56993Y-36480D01*
X56970Y-36423D01*
X56900Y-36353D01*
X56809Y-36315D01*
X56710Y-36315D01*
X56238Y-36315D01*
X56146Y-36353D01*
X56076Y-36423D01*
X56038Y-36514D01*
X56038Y-36613D01*
X56038Y-37085D01*
X56076Y-37177D01*
X56146Y-37247D01*
X56237Y-37285D01*
X56336Y-37285D01*
X56808Y-37285D01*
X56900Y-37247D01*
X56970Y-37177D01*
X56993Y-37120D01*
X57001Y-37120D01*
X57001Y-37124D01*
X57039Y-37216D01*
X57109Y-37286D01*
X57200Y-37324D01*
X57299Y-37324D01*
X57630Y-37324D01*
X56948Y-39120D01*
X56776Y-39192D01*
X56622Y-39346D01*
X56587Y-39430D01*
X56552Y-39346D01*
X56398Y-39192D01*
X56196Y-39108D01*
X55978Y-39108D01*
X55776Y-39192D01*
X55622Y-39346D01*
X55538Y-39548D01*
X55538Y-39766D01*
X55622Y-39968D01*
X55776Y-40122D01*
X55978Y-40206D01*
X56196Y-40206D01*
X56398Y-40122D01*
X56552Y-39968D01*
X56587Y-39883D01*
X56622Y-39968D01*
X56776Y-40122D01*
X56860Y-40157D01*
X56776Y-40192D01*
X56622Y-40346D01*
X56538Y-40548D01*
X56538Y-40766D01*
X56622Y-40968D01*
X56776Y-41122D01*
X56978Y-41206D01*
X57196Y-41206D01*
X57398Y-41122D01*
X57552Y-40968D01*
X57587Y-40883D01*
X57622Y-40968D01*
X57776Y-41122D01*
X57978Y-41206D01*
X58196Y-41206D01*
X58398Y-41122D01*
X58417Y-41102D01*
X60722Y-41860D01*
X60785Y-42011D01*
X60930Y-42156D01*
X60930Y-42244D01*
X60785Y-42389D01*
X60701Y-42591D01*
X60701Y-42809D01*
X60785Y-43011D01*
X60930Y-43156D01*
X60930Y-43244D01*
X60785Y-43389D01*
X60701Y-43591D01*
X60701Y-43809D01*
X60785Y-44011D01*
X60930Y-44156D01*
X60930Y-44244D01*
X60785Y-44389D01*
X60701Y-44591D01*
X60701Y-44809D01*
X60785Y-45011D01*
X60930Y-45156D01*
X60930Y-45244D01*
X60785Y-45389D01*
X60701Y-45591D01*
X60701Y-45809D01*
X60785Y-46011D01*
X60930Y-46156D01*
X60930Y-46244D01*
X60785Y-46389D01*
X60701Y-46591D01*
X60701Y-46809D01*
X60785Y-47011D01*
X60930Y-47156D01*
X60930Y-47244D01*
X60785Y-47389D01*
X60701Y-47591D01*
X60701Y-47809D01*
X60785Y-48011D01*
X60925Y-48151D01*
X60901Y-48151D01*
X60809Y-48189D01*
X60739Y-48259D01*
X60701Y-48350D01*
X60701Y-48449D01*
X60701Y-49049D01*
X60739Y-49141D01*
X60809Y-49211D01*
X60892Y-49245D01*
X60707Y-52045D01*
X60685Y-52055D01*
X60531Y-52209D01*
X60496Y-52293D01*
X60461Y-52209D01*
X60316Y-52064D01*
X60316Y-45999D01*
X60320Y-45978D01*
X60295Y-45856D01*
X60224Y-45753D01*
X60119Y-45684D01*
X60095Y-45679D01*
X59996Y-45660D01*
X59990Y-45661D01*
X58749Y-45674D01*
X58749Y-45651D01*
X58711Y-45559D01*
X58641Y-45489D01*
X58550Y-45451D01*
X58525Y-45451D01*
X58665Y-45311D01*
X58749Y-45109D01*
X58749Y-44891D01*
X58665Y-44689D01*
X58520Y-44544D01*
X58520Y-44456D01*
X58665Y-44311D01*
X58749Y-44109D01*
X58749Y-43891D01*
X58665Y-43689D01*
X58520Y-43544D01*
X58520Y-43456D01*
X58665Y-43311D01*
X58749Y-43109D01*
X58749Y-42891D01*
X58665Y-42689D01*
X58511Y-42535D01*
X58309Y-42451D01*
X58091Y-42451D01*
X57889Y-42535D01*
X57735Y-42689D01*
X57651Y-42891D01*
X57651Y-43109D01*
X57735Y-43311D01*
X57880Y-43456D01*
X57880Y-43544D01*
X57735Y-43689D01*
X57651Y-43891D01*
X57651Y-44109D01*
X57735Y-44311D01*
X57880Y-44456D01*
X57880Y-44544D01*
X57735Y-44689D01*
X57651Y-44891D01*
X57651Y-45109D01*
X57735Y-45311D01*
X57875Y-45451D01*
X57851Y-45451D01*
X57759Y-45489D01*
X57689Y-45559D01*
X57651Y-45650D01*
X57651Y-45749D01*
X57651Y-46349D01*
X57689Y-46441D01*
X57759Y-46511D01*
X57850Y-46549D01*
X57949Y-46549D01*
X58549Y-46549D01*
X58641Y-46511D01*
X58711Y-46441D01*
X58749Y-46350D01*
X58749Y-46314D01*
X59676Y-46304D01*
X59676Y-52064D01*
X59545Y-52195D01*
X59545Y-52171D01*
X59507Y-52079D01*
X59437Y-52009D01*
X59346Y-51971D01*
X59247Y-51971D01*
X59018Y-51971D01*
X58496Y-51173D01*
X58525Y-51105D01*
X58525Y-50896D01*
X58445Y-50703D01*
X58320Y-50577D01*
X58320Y-48422D01*
X58445Y-48298D01*
X58525Y-48105D01*
X58525Y-47896D01*
X58445Y-47703D01*
X58298Y-47555D01*
X58105Y-47475D01*
X57896Y-47475D01*
X57703Y-47555D01*
X57555Y-47702D01*
X57475Y-47895D01*
X57475Y-48104D01*
X57555Y-48297D01*
X57680Y-48422D01*
X57680Y-50577D01*
X57555Y-50702D01*
X57475Y-50895D01*
X57475Y-51104D01*
X57555Y-51297D01*
X57702Y-51445D01*
X57895Y-51525D01*
X57960Y-51525D01*
X58447Y-52267D01*
X58447Y-52269D01*
X58447Y-52869D01*
X58485Y-52961D01*
X58555Y-53031D01*
X58646Y-53069D01*
X58745Y-53069D01*
X59345Y-53069D01*
X59437Y-53031D01*
X59507Y-52961D01*
X59545Y-52870D01*
X59545Y-52845D01*
X59685Y-52985D01*
X59887Y-53069D01*
X60105Y-53069D01*
X60307Y-52985D01*
X60461Y-52831D01*
X60496Y-52746D01*
X60531Y-52831D01*
X60685Y-52985D01*
X60887Y-53069D01*
X61105Y-53069D01*
X61307Y-52985D01*
X61461Y-52831D01*
X61545Y-52629D01*
X61545Y-52411D01*
X61461Y-52209D01*
X61344Y-52092D01*
X61533Y-49249D01*
X61599Y-49249D01*
X61691Y-49211D01*
X61761Y-49141D01*
X61799Y-49050D01*
X61799Y-48951D01*
X61799Y-48351D01*
X61761Y-48259D01*
X61691Y-48189D01*
X61600Y-48151D01*
X61575Y-48151D01*
X61715Y-48011D01*
X61799Y-47809D01*
X61799Y-47591D01*
X61715Y-47389D01*
X61570Y-47244D01*
X61570Y-47156D01*
X61715Y-47011D01*
X61799Y-46809D01*
X61799Y-46591D01*
X61715Y-46389D01*
X61570Y-46244D01*
X61570Y-46156D01*
X61715Y-46011D01*
X61799Y-45809D01*
X61799Y-45591D01*
X61715Y-45389D01*
X61570Y-45244D01*
X61570Y-45156D01*
X61715Y-45011D01*
X61799Y-44809D01*
X61799Y-44591D01*
X61715Y-44389D01*
X61570Y-44244D01*
X61570Y-44156D01*
X61715Y-44011D01*
X61799Y-43809D01*
X61799Y-43591D01*
X61715Y-43389D01*
X61570Y-43244D01*
X61570Y-43156D01*
X61715Y-43011D01*
X61799Y-42809D01*
X61799Y-42591D01*
X61715Y-42389D01*
X61570Y-42244D01*
X61570Y-42156D01*
X61715Y-42011D01*
X61799Y-41809D01*
X61799Y-41591D01*
X61715Y-41389D01*
X61563Y-41237D01*
X61538Y-39977D01*
X61675Y-39841D01*
X61710Y-39756D01*
X61745Y-39841D01*
X61899Y-39995D01*
X62101Y-40079D01*
X62319Y-40079D01*
X62521Y-39995D01*
X62675Y-39841D01*
X62759Y-39639D01*
X62759Y-39421D01*
X62675Y-39219D01*
X62521Y-39065D01*
X62436Y-39030D01*
X62521Y-38995D01*
X62675Y-38841D01*
X62759Y-38639D01*
X62759Y-38421D01*
X62675Y-38219D01*
X62521Y-38065D01*
X62319Y-37981D01*
X62106Y-37981D01*
X63929Y-35869D01*
X64329Y-35869D01*
X64421Y-35831D01*
X64491Y-35761D01*
X64529Y-35670D01*
X64529Y-35645D01*
X64669Y-35785D01*
X64871Y-35869D01*
X65089Y-35869D01*
X65291Y-35785D01*
X65445Y-35631D01*
X65480Y-35546D01*
X65515Y-35631D01*
X65669Y-35785D01*
X65871Y-35869D01*
X66089Y-35869D01*
X66291Y-35785D01*
X66445Y-35631D01*
X66480Y-35546D01*
X66515Y-35631D01*
X66669Y-35785D01*
X66871Y-35869D01*
X67089Y-35869D01*
X67291Y-35785D01*
X67445Y-35631D01*
X67480Y-35546D01*
X67515Y-35631D01*
X67669Y-35785D01*
X67871Y-35869D01*
X68089Y-35869D01*
X68291Y-35785D01*
X68445Y-35631D01*
X68480Y-35546D01*
X68515Y-35631D01*
X68669Y-35785D01*
X68871Y-35869D01*
X69089Y-35869D01*
X69291Y-35785D01*
X69445Y-35631D01*
X69480Y-35546D01*
X69515Y-35631D01*
X69669Y-35785D01*
X69871Y-35869D01*
X70089Y-35869D01*
X70291Y-35785D01*
X70445Y-35631D01*
X70480Y-35546D01*
X70515Y-35631D01*
X70669Y-35785D01*
X70871Y-35869D01*
X71089Y-35869D01*
X71291Y-35785D01*
X71445Y-35631D01*
X71529Y-35429D01*
X71529Y-35211D01*
X71445Y-35009D01*
X71300Y-34864D01*
X71300Y-33947D01*
X71445Y-33802D01*
X71529Y-33600D01*
X71529Y-33382D01*
X71445Y-33180D01*
X71386Y-33121D01*
X71604Y-33121D01*
X71604Y-53100D01*
X71604Y-53100D01*
G37*
G54D18*
X71604Y-53100D02*
X71553Y-53100D01*
X71553Y-52629D01*
X71553Y-52411D01*
X71469Y-52209D01*
X71324Y-52064D01*
X71324Y-51440D01*
X71469Y-51295D01*
X71553Y-51093D01*
X71553Y-50875D01*
X71469Y-50673D01*
X71315Y-50519D01*
X71113Y-50435D01*
X70895Y-50435D01*
X70693Y-50519D01*
X70539Y-50673D01*
X70504Y-50757D01*
X70469Y-50673D01*
X70315Y-50519D01*
X70113Y-50435D01*
X69895Y-50435D01*
X69693Y-50519D01*
X69539Y-50673D01*
X69504Y-50757D01*
X69469Y-50673D01*
X69315Y-50519D01*
X69113Y-50435D01*
X68895Y-50435D01*
X68824Y-50464D01*
X70102Y-48852D01*
X70239Y-48852D01*
X70441Y-48768D01*
X70595Y-48614D01*
X70679Y-48412D01*
X70679Y-48194D01*
X70595Y-47992D01*
X70441Y-47838D01*
X70356Y-47803D01*
X70441Y-47768D01*
X70595Y-47614D01*
X70679Y-47412D01*
X70679Y-47194D01*
X70595Y-46992D01*
X70441Y-46838D01*
X70356Y-46803D01*
X70441Y-46768D01*
X70595Y-46614D01*
X70679Y-46412D01*
X70679Y-46194D01*
X70595Y-45992D01*
X70441Y-45838D01*
X70356Y-45803D01*
X70441Y-45768D01*
X70595Y-45614D01*
X70679Y-45412D01*
X70679Y-45194D01*
X70595Y-44992D01*
X70441Y-44838D01*
X70356Y-44803D01*
X70441Y-44768D01*
X70595Y-44614D01*
X70679Y-44412D01*
X70679Y-44194D01*
X70595Y-43992D01*
X70441Y-43838D01*
X70356Y-43803D01*
X70441Y-43768D01*
X70595Y-43614D01*
X70679Y-43412D01*
X70679Y-43194D01*
X70595Y-42992D01*
X70441Y-42838D01*
X70356Y-42803D01*
X70441Y-42768D01*
X70595Y-42614D01*
X70679Y-42412D01*
X70679Y-42194D01*
X70595Y-41992D01*
X70455Y-41852D01*
X70479Y-41852D01*
X70571Y-41814D01*
X70641Y-41744D01*
X70679Y-41653D01*
X70679Y-41554D01*
X70679Y-40954D01*
X70641Y-40862D01*
X70571Y-40792D01*
X70480Y-40754D01*
X70381Y-40754D01*
X69781Y-40754D01*
X69689Y-40792D01*
X69619Y-40862D01*
X69581Y-40953D01*
X69581Y-41052D01*
X69581Y-41652D01*
X69619Y-41744D01*
X69689Y-41814D01*
X69780Y-41852D01*
X69805Y-41852D01*
X69665Y-41992D01*
X69581Y-42194D01*
X69581Y-42412D01*
X69665Y-42614D01*
X69819Y-42768D01*
X69903Y-42803D01*
X69819Y-42838D01*
X69665Y-42992D01*
X69581Y-43194D01*
X69581Y-43412D01*
X69665Y-43614D01*
X69819Y-43768D01*
X69903Y-43803D01*
X69819Y-43838D01*
X69665Y-43992D01*
X69581Y-44194D01*
X69581Y-44412D01*
X69665Y-44614D01*
X69819Y-44768D01*
X69903Y-44803D01*
X69819Y-44838D01*
X69700Y-44956D01*
X68680Y-44890D01*
X68680Y-42810D01*
X68678Y-42800D01*
X68680Y-42784D01*
X68662Y-42723D01*
X68656Y-42688D01*
X68650Y-42680D01*
X68646Y-42663D01*
X68601Y-42606D01*
X68586Y-42584D01*
X68580Y-42580D01*
X68569Y-42566D01*
X66049Y-40397D01*
X65997Y-40368D01*
X65962Y-40344D01*
X65951Y-40341D01*
X65941Y-40336D01*
X65890Y-40329D01*
X65840Y-40320D01*
X65031Y-40320D01*
X64991Y-40280D01*
X64835Y-40215D01*
X64666Y-40215D01*
X64510Y-40279D01*
X64390Y-40399D01*
X64325Y-40555D01*
X64325Y-40724D01*
X64389Y-40880D01*
X64509Y-41000D01*
X64665Y-41065D01*
X64834Y-41065D01*
X64990Y-41001D01*
X65031Y-40960D01*
X65720Y-40960D01*
X68040Y-42954D01*
X68040Y-45190D01*
X68050Y-45244D01*
X68057Y-45293D01*
X68061Y-45301D01*
X68064Y-45312D01*
X68094Y-45357D01*
X68120Y-45401D01*
X68128Y-45407D01*
X68134Y-45416D01*
X68173Y-45442D01*
X68219Y-45478D01*
X68230Y-45480D01*
X68238Y-45486D01*
X68288Y-45495D01*
X68339Y-45509D01*
X68360Y-45510D01*
X69656Y-45594D01*
X69665Y-45614D01*
X69819Y-45768D01*
X69903Y-45803D01*
X69819Y-45838D01*
X69665Y-45992D01*
X69581Y-46194D01*
X69581Y-46412D01*
X69589Y-46432D01*
X66061Y-50435D01*
X65655Y-50435D01*
X65563Y-50473D01*
X65493Y-50543D01*
X65455Y-50634D01*
X65455Y-50733D01*
X65455Y-51333D01*
X65493Y-51425D01*
X65563Y-51495D01*
X65654Y-51533D01*
X65684Y-51533D01*
X65684Y-51971D01*
X65655Y-51971D01*
X65563Y-52009D01*
X65493Y-52079D01*
X65455Y-52170D01*
X65455Y-52269D01*
X65455Y-52869D01*
X65493Y-52961D01*
X65563Y-53031D01*
X65654Y-53069D01*
X65753Y-53069D01*
X66353Y-53069D01*
X66445Y-53031D01*
X66515Y-52961D01*
X66553Y-52870D01*
X66553Y-52845D01*
X66693Y-52985D01*
X66895Y-53069D01*
X67113Y-53069D01*
X67315Y-52985D01*
X67469Y-52831D01*
X67504Y-52746D01*
X67539Y-52831D01*
X67693Y-52985D01*
X67895Y-53069D01*
X68113Y-53069D01*
X68315Y-52985D01*
X68469Y-52831D01*
X68504Y-52746D01*
X68539Y-52831D01*
X68693Y-52985D01*
X68895Y-53069D01*
X69113Y-53069D01*
X69315Y-52985D01*
X69469Y-52831D01*
X69504Y-52746D01*
X69539Y-52831D01*
X69693Y-52985D01*
X69895Y-53069D01*
X70113Y-53069D01*
X70315Y-52985D01*
X70469Y-52831D01*
X70504Y-52746D01*
X70539Y-52831D01*
X70693Y-52985D01*
X70895Y-53069D01*
X71113Y-53069D01*
X71315Y-52985D01*
X71469Y-52831D01*
X71553Y-52629D01*
X71553Y-53100D01*
X64545Y-53100D01*
X64545Y-52629D01*
X64545Y-52411D01*
X64461Y-52209D01*
X64307Y-52055D01*
X64105Y-51971D01*
X63887Y-51971D01*
X63685Y-52055D01*
X63531Y-52209D01*
X63447Y-52411D01*
X63447Y-52629D01*
X63531Y-52831D01*
X63685Y-52985D01*
X63887Y-53069D01*
X64105Y-53069D01*
X64307Y-52985D01*
X64461Y-52831D01*
X64545Y-52629D01*
X64545Y-53100D01*
X54774Y-53100D01*
X54774Y-33121D01*
X54857Y-33121D01*
X54849Y-33142D01*
X54849Y-33241D01*
X54849Y-33841D01*
X54887Y-33933D01*
X54957Y-34003D01*
X55048Y-34041D01*
X55078Y-34041D01*
X55078Y-34597D01*
X55049Y-34597D01*
X54957Y-34635D01*
X54887Y-34705D01*
X54849Y-34796D01*
X54849Y-34895D01*
X54849Y-35495D01*
X54887Y-35587D01*
X54957Y-35657D01*
X55048Y-35695D01*
X55147Y-35695D01*
X55747Y-35695D01*
X55839Y-35657D01*
X55909Y-35587D01*
X55947Y-35496D01*
X55947Y-35397D01*
X55947Y-34797D01*
X55909Y-34705D01*
X55839Y-34635D01*
X55748Y-34597D01*
X55718Y-34597D01*
X55718Y-34041D01*
X55747Y-34041D01*
X55839Y-34003D01*
X55909Y-33933D01*
X55947Y-33842D01*
X55947Y-33743D01*
X55947Y-33143D01*
X55937Y-33121D01*
X56993Y-33121D01*
X56933Y-33181D01*
X56849Y-33383D01*
X56849Y-33601D01*
X56933Y-33803D01*
X57078Y-33948D01*
X57078Y-34690D01*
X56933Y-34835D01*
X56849Y-35037D01*
X56849Y-35255D01*
X56933Y-35457D01*
X57087Y-35611D01*
X57289Y-35695D01*
X57302Y-35695D01*
X57575Y-36276D01*
X57551Y-36276D01*
X57201Y-36276D01*
X57109Y-36314D01*
X57039Y-36384D01*
X57001Y-36475D01*
X57001Y-36480D01*
X56993Y-36480D01*
X56970Y-36423D01*
X56900Y-36353D01*
X56809Y-36315D01*
X56710Y-36315D01*
X56238Y-36315D01*
X56146Y-36353D01*
X56076Y-36423D01*
X56038Y-36514D01*
X56038Y-36613D01*
X56038Y-37085D01*
X56076Y-37177D01*
X56146Y-37247D01*
X56237Y-37285D01*
X56336Y-37285D01*
X56808Y-37285D01*
X56900Y-37247D01*
X56970Y-37177D01*
X56993Y-37120D01*
X57001Y-37120D01*
X57001Y-37124D01*
X57039Y-37216D01*
X57109Y-37286D01*
X57200Y-37324D01*
X57299Y-37324D01*
X57630Y-37324D01*
X56948Y-39120D01*
X56776Y-39192D01*
X56622Y-39346D01*
X56587Y-39430D01*
X56552Y-39346D01*
X56398Y-39192D01*
X56196Y-39108D01*
X55978Y-39108D01*
X55776Y-39192D01*
X55622Y-39346D01*
X55538Y-39548D01*
X55538Y-39766D01*
X55622Y-39968D01*
X55776Y-40122D01*
X55978Y-40206D01*
X56196Y-40206D01*
X56398Y-40122D01*
X56552Y-39968D01*
X56587Y-39883D01*
X56622Y-39968D01*
X56776Y-40122D01*
X56860Y-40157D01*
X56776Y-40192D01*
X56622Y-40346D01*
X56538Y-40548D01*
X56538Y-40766D01*
X56622Y-40968D01*
X56776Y-41122D01*
X56978Y-41206D01*
X57196Y-41206D01*
X57398Y-41122D01*
X57552Y-40968D01*
X57587Y-40883D01*
X57622Y-40968D01*
X57776Y-41122D01*
X57978Y-41206D01*
X58196Y-41206D01*
X58398Y-41122D01*
X58417Y-41102D01*
X60722Y-41860D01*
X60785Y-42011D01*
X60930Y-42156D01*
X60930Y-42244D01*
X60785Y-42389D01*
X60701Y-42591D01*
X60701Y-42809D01*
X60785Y-43011D01*
X60930Y-43156D01*
X60930Y-43244D01*
X60785Y-43389D01*
X60701Y-43591D01*
X60701Y-43809D01*
X60785Y-44011D01*
X60930Y-44156D01*
X60930Y-44244D01*
X60785Y-44389D01*
X60701Y-44591D01*
X60701Y-44809D01*
X60785Y-45011D01*
X60930Y-45156D01*
X60930Y-45244D01*
X60785Y-45389D01*
X60701Y-45591D01*
X60701Y-45809D01*
X60785Y-46011D01*
X60930Y-46156D01*
X60930Y-46244D01*
X60785Y-46389D01*
X60701Y-46591D01*
X60701Y-46809D01*
X60785Y-47011D01*
X60930Y-47156D01*
X60930Y-47244D01*
X60785Y-47389D01*
X60701Y-47591D01*
X60701Y-47809D01*
X60785Y-48011D01*
X60925Y-48151D01*
X60901Y-48151D01*
X60809Y-48189D01*
X60739Y-48259D01*
X60701Y-48350D01*
X60701Y-48449D01*
X60701Y-49049D01*
X60739Y-49141D01*
X60809Y-49211D01*
X60892Y-49245D01*
X60707Y-52045D01*
X60685Y-52055D01*
X60531Y-52209D01*
X60496Y-52293D01*
X60461Y-52209D01*
X60316Y-52064D01*
X60316Y-45999D01*
X60320Y-45978D01*
X60295Y-45856D01*
X60224Y-45753D01*
X60119Y-45684D01*
X60095Y-45679D01*
X59996Y-45660D01*
X59990Y-45661D01*
X58749Y-45674D01*
X58749Y-45651D01*
X58711Y-45559D01*
X58641Y-45489D01*
X58550Y-45451D01*
X58525Y-45451D01*
X58665Y-45311D01*
X58749Y-45109D01*
X58749Y-44891D01*
X58665Y-44689D01*
X58520Y-44544D01*
X58520Y-44456D01*
X58665Y-44311D01*
X58749Y-44109D01*
X58749Y-43891D01*
X58665Y-43689D01*
X58520Y-43544D01*
X58520Y-43456D01*
X58665Y-43311D01*
X58749Y-43109D01*
X58749Y-42891D01*
X58665Y-42689D01*
X58511Y-42535D01*
X58309Y-42451D01*
X58091Y-42451D01*
X57889Y-42535D01*
X57735Y-42689D01*
X57651Y-42891D01*
X57651Y-43109D01*
X57735Y-43311D01*
X57880Y-43456D01*
X57880Y-43544D01*
X57735Y-43689D01*
X57651Y-43891D01*
X57651Y-44109D01*
X57735Y-44311D01*
X57880Y-44456D01*
X57880Y-44544D01*
X57735Y-44689D01*
X57651Y-44891D01*
X57651Y-45109D01*
X57735Y-45311D01*
X57875Y-45451D01*
X57851Y-45451D01*
X57759Y-45489D01*
X57689Y-45559D01*
X57651Y-45650D01*
X57651Y-45749D01*
X57651Y-46349D01*
X57689Y-46441D01*
X57759Y-46511D01*
X57850Y-46549D01*
X57949Y-46549D01*
X58549Y-46549D01*
X58641Y-46511D01*
X58711Y-46441D01*
X58749Y-46350D01*
X58749Y-46314D01*
X59676Y-46304D01*
X59676Y-52064D01*
X59545Y-52195D01*
X59545Y-52171D01*
X59507Y-52079D01*
X59437Y-52009D01*
X59346Y-51971D01*
X59247Y-51971D01*
X59018Y-51971D01*
X58496Y-51173D01*
X58525Y-51105D01*
X58525Y-50896D01*
X58445Y-50703D01*
X58320Y-50577D01*
X58320Y-48422D01*
X58445Y-48298D01*
X58525Y-48105D01*
X58525Y-47896D01*
X58445Y-47703D01*
X58298Y-47555D01*
X58105Y-47475D01*
X57896Y-47475D01*
X57703Y-47555D01*
X57555Y-47702D01*
X57475Y-47895D01*
X57475Y-48104D01*
X57555Y-48297D01*
X57680Y-48422D01*
X57680Y-50577D01*
X57555Y-50702D01*
X57475Y-50895D01*
X57475Y-51104D01*
X57555Y-51297D01*
X57702Y-51445D01*
X57895Y-51525D01*
X57960Y-51525D01*
X58447Y-52267D01*
X58447Y-52269D01*
X58447Y-52869D01*
X58485Y-52961D01*
X58555Y-53031D01*
X58646Y-53069D01*
X58745Y-53069D01*
X59345Y-53069D01*
X59437Y-53031D01*
X59507Y-52961D01*
X59545Y-52870D01*
X59545Y-52845D01*
X59685Y-52985D01*
X59887Y-53069D01*
X60105Y-53069D01*
X60307Y-52985D01*
X60461Y-52831D01*
X60496Y-52746D01*
X60531Y-52831D01*
X60685Y-52985D01*
X60887Y-53069D01*
X61105Y-53069D01*
X61307Y-52985D01*
X61461Y-52831D01*
X61545Y-52629D01*
X61545Y-52411D01*
X61461Y-52209D01*
X61344Y-52092D01*
X61533Y-49249D01*
X61599Y-49249D01*
X61691Y-49211D01*
X61761Y-49141D01*
X61799Y-49050D01*
X61799Y-48951D01*
X61799Y-48351D01*
X61761Y-48259D01*
X61691Y-48189D01*
X61600Y-48151D01*
X61575Y-48151D01*
X61715Y-48011D01*
X61799Y-47809D01*
X61799Y-47591D01*
X61715Y-47389D01*
X61570Y-47244D01*
X61570Y-47156D01*
X61715Y-47011D01*
X61799Y-46809D01*
X61799Y-46591D01*
X61715Y-46389D01*
X61570Y-46244D01*
X61570Y-46156D01*
X61715Y-46011D01*
X61799Y-45809D01*
X61799Y-45591D01*
X61715Y-45389D01*
X61570Y-45244D01*
X61570Y-45156D01*
X61715Y-45011D01*
X61799Y-44809D01*
X61799Y-44591D01*
X61715Y-44389D01*
X61570Y-44244D01*
X61570Y-44156D01*
X61715Y-44011D01*
X61799Y-43809D01*
X61799Y-43591D01*
X61715Y-43389D01*
X61570Y-43244D01*
X61570Y-43156D01*
X61715Y-43011D01*
X61799Y-42809D01*
X61799Y-42591D01*
X61715Y-42389D01*
X61570Y-42244D01*
X61570Y-42156D01*
X61715Y-42011D01*
X61799Y-41809D01*
X61799Y-41591D01*
X61715Y-41389D01*
X61563Y-41237D01*
X61538Y-39977D01*
X61675Y-39841D01*
X61710Y-39756D01*
X61745Y-39841D01*
X61899Y-39995D01*
X62101Y-40079D01*
X62319Y-40079D01*
X62521Y-39995D01*
X62675Y-39841D01*
X62759Y-39639D01*
X62759Y-39421D01*
X62675Y-39219D01*
X62521Y-39065D01*
X62436Y-39030D01*
X62521Y-38995D01*
X62675Y-38841D01*
X62759Y-38639D01*
X62759Y-38421D01*
X62675Y-38219D01*
X62521Y-38065D01*
X62319Y-37981D01*
X62106Y-37981D01*
X63929Y-35869D01*
X64329Y-35869D01*
X64421Y-35831D01*
X64491Y-35761D01*
X64529Y-35670D01*
X64529Y-35645D01*
X64669Y-35785D01*
X64871Y-35869D01*
X65089Y-35869D01*
X65291Y-35785D01*
X65445Y-35631D01*
X65480Y-35546D01*
X65515Y-35631D01*
X65669Y-35785D01*
X65871Y-35869D01*
X66089Y-35869D01*
X66291Y-35785D01*
X66445Y-35631D01*
X66480Y-35546D01*
X66515Y-35631D01*
X66669Y-35785D01*
X66871Y-35869D01*
X67089Y-35869D01*
X67291Y-35785D01*
X67445Y-35631D01*
X67480Y-35546D01*
X67515Y-35631D01*
X67669Y-35785D01*
X67871Y-35869D01*
X68089Y-35869D01*
X68291Y-35785D01*
X68445Y-35631D01*
X68480Y-35546D01*
X68515Y-35631D01*
X68669Y-35785D01*
X68871Y-35869D01*
X69089Y-35869D01*
X69291Y-35785D01*
X69445Y-35631D01*
X69480Y-35546D01*
X69515Y-35631D01*
X69669Y-35785D01*
X69871Y-35869D01*
X70089Y-35869D01*
X70291Y-35785D01*
X70445Y-35631D01*
X70480Y-35546D01*
X70515Y-35631D01*
X70669Y-35785D01*
X70871Y-35869D01*
X71089Y-35869D01*
X71291Y-35785D01*
X71445Y-35631D01*
X71529Y-35429D01*
X71529Y-35211D01*
X71445Y-35009D01*
X71300Y-34864D01*
X71300Y-33947D01*
X71445Y-33802D01*
X71529Y-33600D01*
X71529Y-33382D01*
X71445Y-33180D01*
X71386Y-33121D01*
X71604Y-33121D01*
X71604Y-53100D01*
M02*
