G04 (created by PCBNEW-RS274X (2011-nov-30)-testing) date Wed 06 Jun 2012 07:56:20 PM EDT*
%MOIN*%
G04 Gerber Fmt 3.4, Leading zero omitted, Abs format*
%FSLAX34Y34*%
G01*
G70*
G90*
G04 APERTURE LIST*
%ADD10C,0.006*%
%ADD11C,0.015*%
%ADD12C,0.0026*%
%ADD13C,0.004*%
%ADD14C,0.002*%
%ADD15C,0.012*%
%ADD16C,0.005*%
%ADD17C,0.01*%
%ADD18C,0.0035*%
%ADD19C,0.008*%
%ADD20C,0.0079*%
G04 APERTURE END LIST*
G54D10*
G54D11*
X-2317Y19211D02*
X-2041Y19407D01*
X-2041Y19407D02*
X-2041Y19092D01*
X-2041Y19092D02*
X-2277Y19171D01*
X-2277Y19171D02*
X-2159Y19211D01*
G54D12*
X-1924Y18502D02*
X-1924Y18374D01*
X-1924Y18374D02*
X-1727Y18374D01*
X-1727Y18502D02*
X-1727Y18374D01*
X-1924Y18502D02*
X-1727Y18502D01*
X-1924Y18747D02*
X-1924Y18688D01*
X-1924Y18688D02*
X-1825Y18688D01*
X-1825Y18747D02*
X-1825Y18688D01*
X-1924Y18747D02*
X-1825Y18747D01*
X-1924Y18552D02*
X-1924Y18493D01*
X-1924Y18493D02*
X-1825Y18493D01*
X-1825Y18552D02*
X-1825Y18493D01*
X-1924Y18552D02*
X-1825Y18552D01*
X-1924Y18698D02*
X-1924Y18542D01*
X-1924Y18542D02*
X-1855Y18542D01*
X-1855Y18698D02*
X-1855Y18542D01*
X-1924Y18698D02*
X-1855Y18698D01*
X-2513Y18502D02*
X-2513Y18374D01*
X-2513Y18374D02*
X-2316Y18374D01*
X-2316Y18502D02*
X-2316Y18374D01*
X-2513Y18502D02*
X-2316Y18502D01*
X-2513Y18866D02*
X-2513Y18738D01*
X-2513Y18738D02*
X-2316Y18738D01*
X-2316Y18866D02*
X-2316Y18738D01*
X-2513Y18866D02*
X-2316Y18866D01*
X-2415Y18552D02*
X-2415Y18493D01*
X-2415Y18493D02*
X-2316Y18493D01*
X-2316Y18552D02*
X-2316Y18493D01*
X-2415Y18552D02*
X-2316Y18552D01*
X-2415Y18747D02*
X-2415Y18688D01*
X-2415Y18688D02*
X-2316Y18688D01*
X-2316Y18747D02*
X-2316Y18688D01*
X-2415Y18747D02*
X-2316Y18747D01*
X-2385Y18698D02*
X-2385Y18542D01*
X-2385Y18542D02*
X-2316Y18542D01*
X-2316Y18698D02*
X-2316Y18542D01*
X-2385Y18698D02*
X-2316Y18698D01*
X-2120Y18659D02*
X-2120Y18581D01*
X-2120Y18581D02*
X-2042Y18581D01*
X-2042Y18659D02*
X-2042Y18581D01*
X-2120Y18659D02*
X-2042Y18659D01*
X-1924Y18856D02*
X-1924Y18738D01*
X-1924Y18738D02*
X-1806Y18738D01*
X-1806Y18856D02*
X-1806Y18738D01*
X-1924Y18856D02*
X-1806Y18856D01*
X-1756Y18866D02*
X-1756Y18777D01*
X-1756Y18777D02*
X-1727Y18777D01*
X-1727Y18866D02*
X-1727Y18777D01*
X-1756Y18866D02*
X-1727Y18866D01*
G54D13*
X-1914Y18394D02*
X-2326Y18394D01*
X-2316Y18846D02*
X-1756Y18846D01*
G54D14*
X-1758Y18797D02*
X-1759Y18792D01*
X-1761Y18787D01*
X-1763Y18782D01*
X-1767Y18778D01*
X-1771Y18774D01*
X-1776Y18772D01*
X-1781Y18770D01*
X-1786Y18770D01*
X-1791Y18770D01*
X-1796Y18772D01*
X-1801Y18774D01*
X-1805Y18777D01*
X-1809Y18782D01*
X-1811Y18786D01*
X-1813Y18792D01*
X-1813Y18797D01*
X-1813Y18802D01*
X-1812Y18807D01*
X-1809Y18812D01*
X-1806Y18816D01*
X-1801Y18819D01*
X-1797Y18822D01*
X-1792Y18824D01*
X-1786Y18824D01*
X-1782Y18824D01*
X-1776Y18823D01*
X-1771Y18820D01*
X-1767Y18817D01*
X-1764Y18813D01*
X-1761Y18808D01*
X-1759Y18803D01*
X-1759Y18797D01*
X-1758Y18797D01*
G54D13*
X-1727Y18757D02*
X-1738Y18756D01*
X-1750Y18754D01*
X-1762Y18752D01*
X-1773Y18748D01*
X-1784Y18744D01*
X-1795Y18738D01*
X-1805Y18732D01*
X-1815Y18724D01*
X-1823Y18716D01*
X-1831Y18708D01*
X-1839Y18698D01*
X-1845Y18688D01*
X-1851Y18677D01*
X-1855Y18666D01*
X-1859Y18655D01*
X-1861Y18643D01*
X-1863Y18631D01*
X-1864Y18620D01*
X-1863Y18609D01*
X-1861Y18597D01*
X-1859Y18585D01*
X-1855Y18574D01*
X-1851Y18563D01*
X-1845Y18552D01*
X-1839Y18542D01*
X-1831Y18532D01*
X-1823Y18524D01*
X-1815Y18516D01*
X-1805Y18508D01*
X-1795Y18502D01*
X-1784Y18496D01*
X-1773Y18492D01*
X-1762Y18488D01*
X-1750Y18486D01*
X-1738Y18484D01*
X-1727Y18483D01*
X-2513Y18483D02*
X-2502Y18484D01*
X-2490Y18486D01*
X-2478Y18488D01*
X-2467Y18492D01*
X-2456Y18496D01*
X-2445Y18502D01*
X-2435Y18508D01*
X-2425Y18516D01*
X-2417Y18524D01*
X-2409Y18532D01*
X-2401Y18542D01*
X-2395Y18552D01*
X-2389Y18563D01*
X-2385Y18574D01*
X-2381Y18585D01*
X-2379Y18597D01*
X-2377Y18609D01*
X-2376Y18620D01*
X-2377Y18631D01*
X-2379Y18643D01*
X-2381Y18655D01*
X-2385Y18666D01*
X-2389Y18677D01*
X-2395Y18688D01*
X-2401Y18698D01*
X-2409Y18708D01*
X-2417Y18716D01*
X-2425Y18724D01*
X-2435Y18732D01*
X-2445Y18738D01*
X-2456Y18744D01*
X-2467Y18748D01*
X-2478Y18752D01*
X-2490Y18754D01*
X-2502Y18756D01*
X-2513Y18757D01*
G54D15*
X5496Y-20D02*
X5496Y980D01*
X5496Y980D02*
X11496Y980D01*
X11496Y980D02*
X11496Y-20D01*
X11496Y-20D02*
X5496Y-20D01*
X6496Y-20D02*
X6496Y980D01*
X-380Y11480D02*
X-380Y9480D01*
X-380Y9480D02*
X-2380Y9480D01*
X-2380Y9480D02*
X-2380Y11480D01*
X-2380Y11480D02*
X-380Y11480D01*
G54D16*
X-420Y18340D02*
X-421Y18331D01*
X-424Y18321D01*
X-429Y18313D01*
X-435Y18305D01*
X-443Y18299D01*
X-451Y18294D01*
X-460Y18292D01*
X-470Y18291D01*
X-479Y18291D01*
X-488Y18294D01*
X-497Y18299D01*
X-504Y18305D01*
X-511Y18312D01*
X-515Y18321D01*
X-518Y18330D01*
X-519Y18340D01*
X-519Y18349D01*
X-516Y18358D01*
X-512Y18367D01*
X-505Y18374D01*
X-498Y18381D01*
X-490Y18385D01*
X-480Y18388D01*
X-471Y18389D01*
X-462Y18389D01*
X-452Y18386D01*
X-444Y18382D01*
X-436Y18376D01*
X-430Y18368D01*
X-425Y18360D01*
X-422Y18351D01*
X-421Y18341D01*
X-420Y18340D01*
X-20Y18340D02*
X-420Y18340D01*
X-420Y18340D02*
X-420Y18940D01*
X-420Y18940D02*
X-20Y18940D01*
X380Y18940D02*
X780Y18940D01*
X780Y18940D02*
X780Y18340D01*
X780Y18340D02*
X380Y18340D01*
X-400Y3040D02*
X-420Y2846D01*
X-476Y2659D01*
X-568Y2487D01*
X-691Y2336D01*
X-841Y2211D01*
X-1013Y2119D01*
X-1199Y2061D01*
X-1394Y2041D01*
X-1587Y2058D01*
X-1774Y2113D01*
X-1947Y2204D01*
X-2099Y2326D01*
X-2225Y2476D01*
X-2319Y2647D01*
X-2378Y2833D01*
X-2399Y3027D01*
X-2383Y3220D01*
X-2329Y3408D01*
X-2240Y3581D01*
X-2119Y3734D01*
X-1970Y3861D01*
X-1800Y3956D01*
X-1614Y4016D01*
X-1420Y4039D01*
X-1227Y4024D01*
X-1039Y3972D01*
X-865Y3884D01*
X-711Y3764D01*
X-583Y3616D01*
X-487Y3446D01*
X-425Y3261D01*
X-401Y3067D01*
X-400Y3040D01*
X100Y1540D02*
X-2900Y1540D01*
X-2900Y1540D02*
X-2900Y4540D01*
X-2900Y4540D02*
X100Y4540D01*
X100Y1540D02*
X100Y4540D01*
G54D11*
X9837Y18234D02*
X9837Y19042D01*
X2022Y18254D02*
X2022Y19042D01*
G54D15*
X2020Y19056D02*
X9820Y19056D01*
X9820Y18240D02*
X2020Y18240D01*
G54D11*
X18397Y19103D02*
X18397Y19911D01*
X10582Y19123D02*
X10582Y19911D01*
G54D15*
X10580Y19925D02*
X18380Y19925D01*
X18380Y19109D02*
X10580Y19109D01*
G54D11*
X18387Y18234D02*
X18387Y19042D01*
X10572Y18254D02*
X10572Y19042D01*
G54D15*
X10570Y19056D02*
X18370Y19056D01*
X18370Y18240D02*
X10570Y18240D01*
G54D11*
X9815Y19102D02*
X9815Y19910D01*
X2000Y19122D02*
X2000Y19910D01*
G54D15*
X1998Y19924D02*
X9798Y19924D01*
X9798Y19108D02*
X1998Y19108D01*
X12504Y-20D02*
X12504Y980D01*
X12504Y980D02*
X18504Y980D01*
X18504Y980D02*
X18504Y-20D01*
X18504Y-20D02*
X12504Y-20D01*
X13504Y-20D02*
X13504Y980D01*
X12504Y925D02*
X12504Y1925D01*
X12504Y1925D02*
X18504Y1925D01*
X18504Y1925D02*
X18504Y925D01*
X18504Y925D02*
X12504Y925D01*
X13504Y925D02*
X13504Y1925D01*
G54D17*
X-3400Y1000D02*
X600Y1000D01*
X-3400Y0D02*
X600Y0D01*
X600Y0D02*
X600Y1000D01*
X-3400Y1000D02*
X-3400Y0D01*
G54D11*
X13929Y14417D02*
X13929Y5914D01*
X13929Y5913D02*
X18653Y5913D01*
X18653Y5914D02*
X18653Y14417D01*
X18653Y14417D02*
X13929Y14417D01*
X10462Y7372D02*
X1959Y7372D01*
X1958Y7372D02*
X1958Y2648D01*
X1959Y2648D02*
X10462Y2648D01*
X10462Y2648D02*
X10462Y7372D01*
X1922Y12015D02*
X10425Y12015D01*
X10426Y12015D02*
X10426Y16739D01*
X10425Y16739D02*
X1922Y16739D01*
X1922Y16739D02*
X1922Y12015D01*
G54D18*
X-1739Y19168D02*
X-1739Y19668D01*
X-1620Y19668D01*
X-1548Y19644D01*
X-1501Y19596D01*
X-1477Y19549D01*
X-1453Y19453D01*
X-1453Y19382D01*
X-1477Y19287D01*
X-1501Y19239D01*
X-1548Y19191D01*
X-1620Y19168D01*
X-1739Y19168D01*
X-977Y19168D02*
X-1263Y19168D01*
X-1120Y19168D02*
X-1120Y19668D01*
X-1168Y19596D01*
X-1215Y19549D01*
X-1263Y19525D01*
X-1441Y17668D02*
X-1679Y17668D01*
X-1679Y18168D01*
X-1274Y17930D02*
X-1107Y17930D01*
X-1036Y17668D02*
X-1274Y17668D01*
X-1274Y18168D01*
X-1036Y18168D01*
X-822Y17668D02*
X-822Y18168D01*
X-703Y18168D01*
X-631Y18144D01*
X-584Y18096D01*
X-560Y18049D01*
X-536Y17953D01*
X-536Y17882D01*
X-560Y17787D01*
X-584Y17739D01*
X-631Y17691D01*
X-703Y17668D01*
X-822Y17668D01*
G54D19*
X5628Y1168D02*
X5628Y1435D01*
X5628Y1359D02*
X5647Y1397D01*
X5666Y1416D01*
X5704Y1435D01*
X5743Y1435D01*
X5857Y1187D02*
X5895Y1168D01*
X5971Y1168D01*
X6010Y1187D01*
X6029Y1225D01*
X6029Y1244D01*
X6010Y1282D01*
X5971Y1301D01*
X5914Y1301D01*
X5876Y1320D01*
X5857Y1359D01*
X5857Y1378D01*
X5876Y1416D01*
X5914Y1435D01*
X5971Y1435D01*
X6010Y1416D01*
X6143Y1435D02*
X6295Y1435D01*
X6200Y1568D02*
X6200Y1225D01*
X6219Y1187D01*
X6257Y1168D01*
X6295Y1168D01*
X6696Y1568D02*
X6944Y1568D01*
X6810Y1416D01*
X6868Y1416D01*
X6906Y1397D01*
X6925Y1378D01*
X6944Y1340D01*
X6944Y1244D01*
X6925Y1206D01*
X6906Y1187D01*
X6868Y1168D01*
X6753Y1168D01*
X6715Y1187D01*
X6696Y1206D01*
X7077Y1435D02*
X7172Y1168D01*
X7268Y1435D01*
X7382Y1568D02*
X7630Y1568D01*
X7496Y1416D01*
X7554Y1416D01*
X7592Y1397D01*
X7611Y1378D01*
X7630Y1340D01*
X7630Y1244D01*
X7611Y1206D01*
X7592Y1187D01*
X7554Y1168D01*
X7439Y1168D01*
X7401Y1187D01*
X7382Y1206D01*
X8297Y1568D02*
X8106Y1568D01*
X8087Y1378D01*
X8106Y1397D01*
X8144Y1416D01*
X8240Y1416D01*
X8278Y1397D01*
X8297Y1378D01*
X8316Y1340D01*
X8316Y1244D01*
X8297Y1206D01*
X8278Y1187D01*
X8240Y1168D01*
X8144Y1168D01*
X8106Y1187D01*
X8087Y1206D01*
X8430Y1568D02*
X8563Y1168D01*
X8697Y1568D01*
X9345Y1549D02*
X9307Y1568D01*
X9250Y1568D01*
X9192Y1549D01*
X9154Y1511D01*
X9135Y1473D01*
X9116Y1397D01*
X9116Y1340D01*
X9135Y1263D01*
X9154Y1225D01*
X9192Y1187D01*
X9250Y1168D01*
X9288Y1168D01*
X9345Y1187D01*
X9364Y1206D01*
X9364Y1340D01*
X9288Y1340D01*
X9535Y1168D02*
X9535Y1568D01*
X9764Y1168D01*
X9764Y1568D01*
X9954Y1168D02*
X9954Y1568D01*
X10049Y1568D01*
X10107Y1549D01*
X10145Y1511D01*
X10164Y1473D01*
X10183Y1397D01*
X10183Y1340D01*
X10164Y1263D01*
X10145Y1225D01*
X10107Y1187D01*
X10049Y1168D01*
X9954Y1168D01*
X10602Y1568D02*
X10735Y1168D01*
X10869Y1568D01*
X11002Y1168D02*
X11002Y1435D01*
X11002Y1568D02*
X10983Y1549D01*
X11002Y1530D01*
X11021Y1549D01*
X11002Y1568D01*
X11002Y1530D01*
X11192Y1435D02*
X11192Y1168D01*
X11192Y1397D02*
X11211Y1416D01*
X11249Y1435D01*
X11307Y1435D01*
X11345Y1416D01*
X11364Y1378D01*
X11364Y1168D01*
X-2968Y9394D02*
X-2968Y9528D01*
X-2758Y9585D02*
X-2758Y9394D01*
X-3158Y9394D01*
X-3158Y9585D01*
X-2910Y9756D02*
X-2910Y10061D01*
X-2777Y10232D02*
X-2758Y10289D01*
X-2758Y10385D01*
X-2777Y10423D01*
X-2796Y10442D01*
X-2834Y10461D01*
X-2872Y10461D01*
X-2910Y10442D01*
X-2930Y10423D01*
X-2949Y10385D01*
X-2968Y10308D01*
X-2987Y10270D01*
X-3006Y10251D01*
X-3044Y10232D01*
X-3082Y10232D01*
X-3120Y10251D01*
X-3139Y10270D01*
X-3158Y10308D01*
X-3158Y10404D01*
X-3139Y10461D01*
X-3158Y10575D02*
X-3158Y10804D01*
X-2758Y10689D02*
X-3158Y10689D01*
X-3158Y11013D02*
X-3158Y11090D01*
X-3139Y11128D01*
X-3101Y11166D01*
X-3025Y11185D01*
X-2891Y11185D01*
X-2815Y11166D01*
X-2777Y11128D01*
X-2758Y11090D01*
X-2758Y11013D01*
X-2777Y10975D01*
X-2815Y10937D01*
X-2891Y10918D01*
X-3025Y10918D01*
X-3101Y10937D01*
X-3139Y10975D01*
X-3158Y11013D01*
X-2758Y11356D02*
X-3158Y11356D01*
X-3158Y11509D01*
X-3139Y11547D01*
X-3120Y11566D01*
X-3082Y11585D01*
X-3025Y11585D01*
X-2987Y11566D01*
X-2968Y11547D01*
X-2949Y11509D01*
X-2949Y11356D01*
G54D16*
X158Y18397D02*
X75Y18516D01*
X16Y18397D02*
X16Y18647D01*
X111Y18647D01*
X135Y18635D01*
X146Y18623D01*
X158Y18599D01*
X158Y18563D01*
X146Y18540D01*
X135Y18528D01*
X111Y18516D01*
X16Y18516D01*
X396Y18397D02*
X254Y18397D01*
X325Y18397D02*
X325Y18647D01*
X301Y18611D01*
X277Y18587D01*
X254Y18575D01*
G54D19*
X1917Y17838D02*
X2108Y17838D01*
X1879Y17724D02*
X2012Y18124D01*
X2146Y17724D01*
X2279Y17724D02*
X2279Y17991D01*
X2279Y17915D02*
X2298Y17953D01*
X2317Y17972D01*
X2355Y17991D01*
X2394Y17991D01*
X3004Y17991D02*
X3004Y17667D01*
X2985Y17629D01*
X2966Y17610D01*
X2927Y17591D01*
X2870Y17591D01*
X2832Y17610D01*
X3004Y17743D02*
X2966Y17724D01*
X2889Y17724D01*
X2851Y17743D01*
X2832Y17762D01*
X2813Y17800D01*
X2813Y17915D01*
X2832Y17953D01*
X2851Y17972D01*
X2889Y17991D01*
X2966Y17991D01*
X3004Y17972D01*
X3194Y17991D02*
X3194Y17724D01*
X3194Y17953D02*
X3213Y17972D01*
X3251Y17991D01*
X3309Y17991D01*
X3347Y17972D01*
X3366Y17934D01*
X3366Y17724D01*
X3728Y17724D02*
X3728Y18124D01*
X3728Y17743D02*
X3690Y17724D01*
X3613Y17724D01*
X3575Y17743D01*
X3556Y17762D01*
X3537Y17800D01*
X3537Y17915D01*
X3556Y17953D01*
X3575Y17972D01*
X3613Y17991D01*
X3690Y17991D01*
X3728Y17972D01*
X4433Y17724D02*
X4204Y17724D01*
X4318Y17724D02*
X4318Y18124D01*
X4280Y18067D01*
X4242Y18029D01*
X4204Y18010D01*
X4566Y18124D02*
X4814Y18124D01*
X4680Y17972D01*
X4738Y17972D01*
X4776Y17953D01*
X4795Y17934D01*
X4814Y17896D01*
X4814Y17800D01*
X4795Y17762D01*
X4776Y17743D01*
X4738Y17724D01*
X4623Y17724D01*
X4585Y17743D01*
X4566Y17762D01*
X5500Y17724D02*
X5271Y17724D01*
X5385Y17724D02*
X5385Y18124D01*
X5347Y18067D01*
X5309Y18029D01*
X5271Y18010D01*
X5652Y18086D02*
X5671Y18105D01*
X5709Y18124D01*
X5805Y18124D01*
X5843Y18105D01*
X5862Y18086D01*
X5881Y18048D01*
X5881Y18010D01*
X5862Y17953D01*
X5633Y17724D01*
X5881Y17724D01*
X6567Y17724D02*
X6338Y17724D01*
X6452Y17724D02*
X6452Y18124D01*
X6414Y18067D01*
X6376Y18029D01*
X6338Y18010D01*
X6948Y17724D02*
X6719Y17724D01*
X6833Y17724D02*
X6833Y18124D01*
X6795Y18067D01*
X6757Y18029D01*
X6719Y18010D01*
X7634Y17724D02*
X7405Y17724D01*
X7519Y17724D02*
X7519Y18124D01*
X7481Y18067D01*
X7443Y18029D01*
X7405Y18010D01*
X7881Y18124D02*
X7920Y18124D01*
X7958Y18105D01*
X7977Y18086D01*
X7996Y18048D01*
X8015Y17972D01*
X8015Y17876D01*
X7996Y17800D01*
X7977Y17762D01*
X7958Y17743D01*
X7920Y17724D01*
X7881Y17724D01*
X7843Y17743D01*
X7824Y17762D01*
X7805Y17800D01*
X7786Y17876D01*
X7786Y17972D01*
X7805Y18048D01*
X7824Y18086D01*
X7843Y18105D01*
X7881Y18124D01*
X8510Y17724D02*
X8586Y17724D01*
X8625Y17743D01*
X8644Y17762D01*
X8682Y17819D01*
X8701Y17896D01*
X8701Y18048D01*
X8682Y18086D01*
X8663Y18105D01*
X8625Y18124D01*
X8548Y18124D01*
X8510Y18105D01*
X8491Y18086D01*
X8472Y18048D01*
X8472Y17953D01*
X8491Y17915D01*
X8510Y17896D01*
X8548Y17876D01*
X8625Y17876D01*
X8663Y17896D01*
X8682Y17915D01*
X8701Y17953D01*
X9234Y17953D02*
X9196Y17972D01*
X9177Y17991D01*
X9158Y18029D01*
X9158Y18048D01*
X9177Y18086D01*
X9196Y18105D01*
X9234Y18124D01*
X9311Y18124D01*
X9349Y18105D01*
X9368Y18086D01*
X9387Y18048D01*
X9387Y18029D01*
X9368Y17991D01*
X9349Y17972D01*
X9311Y17953D01*
X9234Y17953D01*
X9196Y17934D01*
X9177Y17915D01*
X9158Y17876D01*
X9158Y17800D01*
X9177Y17762D01*
X9196Y17743D01*
X9234Y17724D01*
X9311Y17724D01*
X9349Y17743D01*
X9368Y17762D01*
X9387Y17800D01*
X9387Y17876D01*
X9368Y17915D01*
X9349Y17934D01*
X9311Y17953D01*
X10821Y18078D02*
X11088Y18078D01*
X10916Y17678D01*
X12022Y18078D02*
X11945Y18078D01*
X11907Y18059D01*
X11888Y18040D01*
X11850Y17983D01*
X11831Y17907D01*
X11831Y17754D01*
X11850Y17716D01*
X11869Y17697D01*
X11907Y17678D01*
X11984Y17678D01*
X12022Y17697D01*
X12041Y17716D01*
X12060Y17754D01*
X12060Y17850D01*
X12041Y17888D01*
X12022Y17907D01*
X11984Y17926D01*
X11907Y17926D01*
X11869Y17907D01*
X11850Y17888D01*
X11831Y17850D01*
X13032Y18078D02*
X12841Y18078D01*
X12822Y17888D01*
X12841Y17907D01*
X12879Y17926D01*
X12975Y17926D01*
X13013Y17907D01*
X13032Y17888D01*
X13051Y17850D01*
X13051Y17754D01*
X13032Y17716D01*
X13013Y17697D01*
X12975Y17678D01*
X12879Y17678D01*
X12841Y17697D01*
X12822Y17716D01*
X14004Y17945D02*
X14004Y17678D01*
X13908Y18097D02*
X13813Y17811D01*
X14061Y17811D01*
X14785Y18078D02*
X15033Y18078D01*
X14899Y17926D01*
X14957Y17926D01*
X14995Y17907D01*
X15014Y17888D01*
X15033Y17850D01*
X15033Y17754D01*
X15014Y17716D01*
X14995Y17697D01*
X14957Y17678D01*
X14842Y17678D01*
X14804Y17697D01*
X14785Y17716D01*
X15795Y18040D02*
X15814Y18059D01*
X15852Y18078D01*
X15948Y18078D01*
X15986Y18059D01*
X16005Y18040D01*
X16024Y18002D01*
X16024Y17964D01*
X16005Y17907D01*
X15776Y17678D01*
X16024Y17678D01*
X16443Y18078D02*
X16672Y18078D01*
X16557Y17678D02*
X16557Y18078D01*
X16767Y18078D02*
X17034Y17678D01*
X17034Y18078D02*
X16767Y17678D01*
X17720Y17678D02*
X17586Y17869D01*
X17491Y17678D02*
X17491Y18078D01*
X17644Y18078D01*
X17682Y18059D01*
X17701Y18040D01*
X17720Y18002D01*
X17720Y17945D01*
X17701Y17907D01*
X17682Y17888D01*
X17644Y17869D01*
X17491Y17869D01*
X17853Y18078D02*
X18120Y17678D01*
X18120Y18078D02*
X17853Y17678D01*
X12646Y2227D02*
X12837Y2227D01*
X12608Y2113D02*
X12741Y2513D01*
X12875Y2113D01*
X13084Y2513D02*
X13123Y2513D01*
X13161Y2494D01*
X13180Y2475D01*
X13199Y2437D01*
X13218Y2361D01*
X13218Y2265D01*
X13199Y2189D01*
X13180Y2151D01*
X13161Y2132D01*
X13123Y2113D01*
X13084Y2113D01*
X13046Y2132D01*
X13027Y2151D01*
X13008Y2189D01*
X12989Y2265D01*
X12989Y2361D01*
X13008Y2437D01*
X13027Y2475D01*
X13046Y2494D01*
X13084Y2513D01*
X13675Y2227D02*
X13866Y2227D01*
X13637Y2113D02*
X13770Y2513D01*
X13904Y2113D01*
X14247Y2113D02*
X14018Y2113D01*
X14132Y2113D02*
X14132Y2513D01*
X14094Y2456D01*
X14056Y2418D01*
X14018Y2399D01*
X14704Y2227D02*
X14895Y2227D01*
X14666Y2113D02*
X14799Y2513D01*
X14933Y2113D01*
X15047Y2475D02*
X15066Y2494D01*
X15104Y2513D01*
X15200Y2513D01*
X15238Y2494D01*
X15257Y2475D01*
X15276Y2437D01*
X15276Y2399D01*
X15257Y2342D01*
X15028Y2113D01*
X15276Y2113D01*
X15733Y2227D02*
X15924Y2227D01*
X15695Y2113D02*
X15828Y2513D01*
X15962Y2113D01*
X16057Y2513D02*
X16305Y2513D01*
X16171Y2361D01*
X16229Y2361D01*
X16267Y2342D01*
X16286Y2323D01*
X16305Y2285D01*
X16305Y2189D01*
X16286Y2151D01*
X16267Y2132D01*
X16229Y2113D01*
X16114Y2113D01*
X16076Y2132D01*
X16057Y2151D01*
X16762Y2227D02*
X16953Y2227D01*
X16724Y2113D02*
X16857Y2513D01*
X16991Y2113D01*
X17296Y2380D02*
X17296Y2113D01*
X17200Y2532D02*
X17105Y2246D01*
X17353Y2246D01*
X17791Y2227D02*
X17982Y2227D01*
X17753Y2113D02*
X17886Y2513D01*
X18020Y2113D01*
X18344Y2513D02*
X18153Y2513D01*
X18134Y2323D01*
X18153Y2342D01*
X18191Y2361D01*
X18287Y2361D01*
X18325Y2342D01*
X18344Y2323D01*
X18363Y2285D01*
X18363Y2189D01*
X18344Y2151D01*
X18325Y2132D01*
X18287Y2113D01*
X18191Y2113D01*
X18153Y2132D01*
X18134Y2151D01*
X1010Y738D02*
X1258Y738D01*
X1124Y586D01*
X1182Y586D01*
X1220Y567D01*
X1239Y548D01*
X1258Y510D01*
X1258Y414D01*
X1239Y376D01*
X1220Y357D01*
X1182Y338D01*
X1067Y338D01*
X1029Y357D01*
X1010Y376D01*
X1429Y376D02*
X1448Y357D01*
X1429Y338D01*
X1410Y357D01*
X1429Y376D01*
X1429Y338D01*
X1581Y738D02*
X1829Y738D01*
X1695Y586D01*
X1753Y586D01*
X1791Y567D01*
X1810Y548D01*
X1829Y510D01*
X1829Y414D01*
X1810Y376D01*
X1791Y357D01*
X1753Y338D01*
X1638Y338D01*
X1600Y357D01*
X1581Y376D01*
X1943Y738D02*
X2076Y338D01*
X2210Y738D01*
G54D20*
X13184Y6226D02*
X13184Y6395D01*
X13285Y6193D02*
X12931Y6311D01*
X13285Y6429D01*
X12965Y6529D02*
X12948Y6546D01*
X12931Y6580D01*
X12931Y6664D01*
X12948Y6698D01*
X12965Y6715D01*
X12999Y6732D01*
X13032Y6732D01*
X13083Y6715D01*
X13285Y6513D01*
X13285Y6732D01*
X13184Y7406D02*
X13184Y7575D01*
X13285Y7373D02*
X12931Y7491D01*
X13285Y7609D01*
X13285Y7912D02*
X13285Y7709D01*
X13285Y7811D02*
X12931Y7811D01*
X12982Y7777D01*
X13016Y7743D01*
X13032Y7709D01*
X13184Y8586D02*
X13184Y8755D01*
X13285Y8553D02*
X12931Y8671D01*
X13285Y8789D01*
X12931Y8974D02*
X12931Y9007D01*
X12948Y9041D01*
X12965Y9058D01*
X12999Y9075D01*
X13066Y9092D01*
X13150Y9092D01*
X13218Y9075D01*
X13252Y9058D01*
X13268Y9041D01*
X13285Y9007D01*
X13285Y8974D01*
X13268Y8940D01*
X13252Y8923D01*
X13218Y8906D01*
X13150Y8889D01*
X13066Y8889D01*
X12999Y8906D01*
X12965Y8923D01*
X12948Y8940D01*
X12931Y8974D01*
X13285Y9699D02*
X13285Y9496D01*
X13285Y9598D02*
X12931Y9598D01*
X12982Y9564D01*
X13016Y9530D01*
X13032Y9496D01*
X12965Y9833D02*
X12948Y9850D01*
X12931Y9884D01*
X12931Y9968D01*
X12948Y10002D01*
X12965Y10019D01*
X12999Y10036D01*
X13032Y10036D01*
X13083Y10019D01*
X13285Y9817D01*
X13285Y10036D01*
X13285Y10643D02*
X13285Y10440D01*
X13285Y10542D02*
X12931Y10542D01*
X12982Y10508D01*
X13016Y10474D01*
X13032Y10440D01*
X13285Y10980D02*
X13285Y10777D01*
X13285Y10879D02*
X12931Y10879D01*
X12982Y10845D01*
X13016Y10811D01*
X13032Y10777D01*
X13285Y11857D02*
X13285Y11654D01*
X13285Y11756D02*
X12931Y11756D01*
X12982Y11722D01*
X13016Y11688D01*
X13032Y11654D01*
X12931Y12076D02*
X12931Y12109D01*
X12948Y12143D01*
X12965Y12160D01*
X12999Y12177D01*
X13066Y12194D01*
X13150Y12194D01*
X13218Y12177D01*
X13252Y12160D01*
X13268Y12143D01*
X13285Y12109D01*
X13285Y12076D01*
X13268Y12042D01*
X13252Y12025D01*
X13218Y12008D01*
X13150Y11991D01*
X13066Y11991D01*
X12999Y12008D01*
X12965Y12025D01*
X12948Y12042D01*
X12931Y12076D01*
X13285Y12902D02*
X13285Y12970D01*
X13268Y13003D01*
X13252Y13020D01*
X13201Y13054D01*
X13134Y13071D01*
X12999Y13071D01*
X12965Y13054D01*
X12948Y13037D01*
X12931Y13003D01*
X12931Y12936D01*
X12948Y12902D01*
X12965Y12885D01*
X12999Y12868D01*
X13083Y12868D01*
X13117Y12885D01*
X13134Y12902D01*
X13150Y12936D01*
X13150Y13003D01*
X13134Y13037D01*
X13117Y13054D01*
X13083Y13071D01*
X13083Y13813D02*
X13066Y13779D01*
X13049Y13762D01*
X13016Y13745D01*
X12999Y13745D01*
X12965Y13762D01*
X12948Y13779D01*
X12931Y13813D01*
X12931Y13880D01*
X12948Y13914D01*
X12965Y13931D01*
X12999Y13948D01*
X13016Y13948D01*
X13049Y13931D01*
X13066Y13914D01*
X13083Y13880D01*
X13083Y13813D01*
X13100Y13779D01*
X13117Y13762D01*
X13150Y13745D01*
X13218Y13745D01*
X13252Y13762D01*
X13268Y13779D01*
X13285Y13813D01*
X13285Y13880D01*
X13268Y13914D01*
X13252Y13931D01*
X13218Y13948D01*
X13150Y13948D01*
X13117Y13931D01*
X13100Y13914D01*
X13083Y13880D01*
G54D15*
X5872Y8488D02*
X5815Y8516D01*
X5729Y8516D01*
X5644Y8488D01*
X5586Y8430D01*
X5558Y8373D01*
X5529Y8259D01*
X5529Y8173D01*
X5558Y8059D01*
X5586Y8002D01*
X5644Y7945D01*
X5729Y7916D01*
X5786Y7916D01*
X5872Y7945D01*
X5901Y7973D01*
X5901Y8173D01*
X5786Y8173D01*
X6158Y7916D02*
X6158Y8516D01*
X6501Y7916D01*
X6501Y8516D01*
X6787Y7916D02*
X6787Y8516D01*
X6930Y8516D01*
X7015Y8488D01*
X7073Y8430D01*
X7101Y8373D01*
X7130Y8259D01*
X7130Y8173D01*
X7101Y8059D01*
X7073Y8002D01*
X7015Y7945D01*
X6930Y7916D01*
X6787Y7916D01*
X5942Y11585D02*
X5656Y11585D01*
X5627Y11299D01*
X5656Y11328D01*
X5713Y11357D01*
X5856Y11357D01*
X5913Y11328D01*
X5942Y11299D01*
X5970Y11242D01*
X5970Y11099D01*
X5942Y11042D01*
X5913Y11014D01*
X5856Y10985D01*
X5713Y10985D01*
X5656Y11014D01*
X5627Y11042D01*
X6141Y11585D02*
X6341Y10985D01*
X6541Y11585D01*
M02*
