G04 (created by PCBNEW-RS274X (2011-nov-30)-testing) date Tue 29 May 2012 07:38:49 PM EDT*
%MOIN*%
G04 Gerber Fmt 3.4, Leading zero omitted, Abs format*
%FSLAX34Y34*%
G01*
G70*
G90*
G04 APERTURE LIST*
%ADD10C,0.006*%
%ADD11R,0.06X0.06*%
%ADD12C,0.06*%
%ADD13C,0.055*%
%ADD14C,0.035*%
%ADD15C,0.014*%
%ADD16C,0.01*%
G04 APERTURE END LIST*
G54D10*
G54D11*
X17611Y13500D03*
G54D12*
X17611Y12500D03*
X17611Y11500D03*
X17611Y10500D03*
X17611Y9500D03*
X17611Y8500D03*
X17611Y7500D03*
X17611Y6500D03*
G54D11*
X14673Y4603D03*
G54D12*
X13673Y4603D03*
X12673Y4603D03*
X11673Y4603D03*
X10673Y4603D03*
X9673Y4603D03*
X8673Y4603D03*
X7673Y4603D03*
G54D11*
X14673Y15233D03*
G54D12*
X13673Y15233D03*
X12673Y15233D03*
X11673Y15233D03*
X10673Y15233D03*
X9673Y15233D03*
X8673Y15233D03*
X7673Y15233D03*
G54D11*
X5996Y480D03*
G54D12*
X6996Y480D03*
X7996Y480D03*
X8996Y480D03*
X9996Y480D03*
X10996Y480D03*
G54D11*
X5500Y10700D03*
G54D12*
X6500Y10700D03*
X5500Y9700D03*
X6500Y9700D03*
G54D13*
X2900Y2600D03*
X2900Y4600D03*
X5900Y2600D03*
X5900Y4600D03*
G54D11*
X2420Y18640D03*
G54D12*
X3420Y18640D03*
X4420Y18640D03*
X5420Y18640D03*
X6420Y18640D03*
X7420Y18640D03*
X8420Y18640D03*
X9420Y18640D03*
G54D11*
X10980Y19509D03*
G54D12*
X11980Y19509D03*
X12980Y19509D03*
X13980Y19509D03*
X14980Y19509D03*
X15980Y19509D03*
X16980Y19509D03*
X17980Y19509D03*
G54D11*
X10970Y18640D03*
G54D12*
X11970Y18640D03*
X12970Y18640D03*
X13970Y18640D03*
X14970Y18640D03*
X15970Y18640D03*
X16970Y18640D03*
X17970Y18640D03*
G54D11*
X2398Y19508D03*
G54D12*
X3398Y19508D03*
X4398Y19508D03*
X5398Y19508D03*
X6398Y19508D03*
X7398Y19508D03*
X8398Y19508D03*
X9398Y19508D03*
G54D11*
X13004Y480D03*
G54D12*
X14004Y480D03*
X15004Y480D03*
X16004Y480D03*
X17004Y480D03*
X18004Y480D03*
G54D11*
X13004Y1425D03*
G54D12*
X14004Y1425D03*
X15004Y1425D03*
X16004Y1425D03*
X17004Y1425D03*
X18004Y1425D03*
G54D11*
X3200Y8700D03*
G54D12*
X3200Y9700D03*
X3200Y10700D03*
X3200Y11700D03*
G54D14*
X5164Y8198D03*
G54D15*
X7129Y18416D02*
X7522Y18809D01*
X7129Y18023D02*
X7129Y18416D01*
X4771Y15665D02*
X7129Y18023D01*
X4771Y7805D02*
X4771Y15665D01*
X13810Y7805D02*
X4771Y7805D01*
X17347Y11342D02*
X13810Y7805D01*
X17740Y11342D02*
X17347Y11342D01*
X17611Y11500D02*
X17740Y11342D01*
X7522Y18809D02*
X7420Y18640D01*
X17347Y10163D02*
X16954Y10163D01*
X5950Y18416D02*
X6343Y18809D01*
X17740Y10556D02*
X17347Y10163D01*
X17611Y10500D02*
X17740Y10556D01*
X16954Y10163D02*
X16954Y9770D01*
X16954Y9770D02*
X14596Y7412D01*
X14596Y7412D02*
X4378Y7412D01*
X4378Y7412D02*
X4378Y16451D01*
X4378Y16451D02*
X5950Y18023D01*
X5950Y18023D02*
X5950Y18416D01*
X6343Y18809D02*
X6420Y18640D01*
X17347Y9377D02*
X17347Y8984D01*
X17347Y8984D02*
X16954Y8984D01*
X16954Y8591D02*
X15382Y7019D01*
X16954Y8984D02*
X16954Y8591D01*
X4771Y17630D02*
X4771Y18023D01*
X17740Y9377D02*
X17347Y9377D01*
X17611Y9500D02*
X17740Y9377D01*
X15382Y7019D02*
X3985Y7019D01*
X5557Y18809D02*
X5420Y18640D01*
X5164Y18416D02*
X5557Y18809D01*
X5164Y18023D02*
X5164Y18416D01*
X4771Y18023D02*
X5164Y18023D01*
X4378Y17630D02*
X4771Y17630D01*
X4378Y17237D02*
X4378Y17630D01*
X3985Y17237D02*
X4378Y17237D01*
X3985Y7019D02*
X3985Y17237D01*
X10666Y15272D02*
X10673Y15233D01*
X12673Y15233D02*
X12631Y15272D01*
X12631Y15272D02*
X13810Y15272D01*
X13810Y15272D02*
X13673Y15233D01*
X10673Y15233D02*
X10666Y15272D01*
X10666Y15272D02*
X11845Y15272D01*
X9673Y15233D02*
X9487Y15272D01*
X9487Y15272D02*
X10666Y15272D01*
X13810Y15272D02*
X14596Y15272D01*
X9487Y15272D02*
X9673Y15233D01*
X8701Y15272D02*
X9487Y15272D01*
X8673Y15233D02*
X8701Y15272D01*
X14596Y15272D02*
X14673Y15233D01*
X11845Y15272D02*
X11673Y15233D01*
X13673Y15233D02*
X13810Y15272D01*
X12631Y15272D02*
X12673Y15233D01*
X11845Y15272D02*
X12631Y15272D01*
X11673Y15233D02*
X11845Y15272D01*
X7673Y15233D02*
X7522Y15272D01*
X8701Y15272D02*
X8673Y15233D01*
X7522Y15272D02*
X8701Y15272D01*
X5500Y10700D02*
X5557Y10556D01*
X11059Y18809D02*
X10970Y18640D01*
X5557Y10556D02*
X5557Y14486D01*
X5557Y14486D02*
X9094Y18023D01*
X9094Y18023D02*
X9880Y18023D01*
X9880Y18023D02*
X10666Y18809D01*
X10666Y18809D02*
X11059Y18809D01*
X5164Y8198D02*
X5950Y8984D01*
X5950Y8984D02*
X7129Y8984D01*
X7129Y8984D02*
X10666Y12521D01*
X10666Y12521D02*
X17740Y12521D01*
X17740Y12521D02*
X17611Y12500D01*
X2806Y2696D02*
X2900Y2600D01*
X5900Y2600D02*
X5950Y2696D01*
X5950Y2696D02*
X2806Y2696D01*
G54D10*
G36*
X18997Y265D02*
X18553Y-179D01*
X18553Y371D01*
X18553Y589D01*
X18469Y791D01*
X18315Y945D01*
X18296Y953D01*
X18315Y960D01*
X18469Y1114D01*
X18553Y1316D01*
X18553Y1534D01*
X18529Y1592D01*
X18529Y19400D01*
X18529Y19618D01*
X18445Y19820D01*
X18291Y19974D01*
X18089Y20058D01*
X17871Y20058D01*
X17669Y19974D01*
X17515Y19820D01*
X17480Y19736D01*
X17445Y19820D01*
X17291Y19974D01*
X17089Y20058D01*
X16871Y20058D01*
X16669Y19974D01*
X16515Y19820D01*
X16480Y19736D01*
X16445Y19820D01*
X16291Y19974D01*
X16089Y20058D01*
X15871Y20058D01*
X15669Y19974D01*
X15515Y19820D01*
X15480Y19736D01*
X15445Y19820D01*
X15291Y19974D01*
X15089Y20058D01*
X14871Y20058D01*
X14669Y19974D01*
X14515Y19820D01*
X14480Y19736D01*
X14445Y19820D01*
X14291Y19974D01*
X14089Y20058D01*
X13871Y20058D01*
X13669Y19974D01*
X13515Y19820D01*
X13480Y19736D01*
X13445Y19820D01*
X13291Y19974D01*
X13089Y20058D01*
X12871Y20058D01*
X12669Y19974D01*
X12515Y19820D01*
X12480Y19736D01*
X12445Y19820D01*
X12291Y19974D01*
X12089Y20058D01*
X11871Y20058D01*
X11669Y19974D01*
X11529Y19834D01*
X11529Y19858D01*
X11491Y19950D01*
X11421Y20020D01*
X11330Y20058D01*
X11231Y20058D01*
X10631Y20058D01*
X10539Y20020D01*
X10469Y19950D01*
X10431Y19859D01*
X10431Y19760D01*
X10431Y19160D01*
X10462Y19085D01*
X10459Y19081D01*
X10440Y19036D01*
X10439Y19035D01*
X9969Y18565D01*
X9969Y18749D01*
X9885Y18951D01*
X9751Y19085D01*
X9863Y19197D01*
X9947Y19399D01*
X9947Y19617D01*
X9863Y19819D01*
X9709Y19973D01*
X9507Y20057D01*
X9289Y20057D01*
X9087Y19973D01*
X8933Y19819D01*
X8898Y19735D01*
X8863Y19819D01*
X8709Y19973D01*
X8507Y20057D01*
X8289Y20057D01*
X8087Y19973D01*
X7933Y19819D01*
X7898Y19735D01*
X7863Y19819D01*
X7709Y19973D01*
X7507Y20057D01*
X7289Y20057D01*
X7087Y19973D01*
X6933Y19819D01*
X6898Y19735D01*
X6863Y19819D01*
X6709Y19973D01*
X6507Y20057D01*
X6289Y20057D01*
X6087Y19973D01*
X5933Y19819D01*
X5898Y19735D01*
X5863Y19819D01*
X5709Y19973D01*
X5507Y20057D01*
X5289Y20057D01*
X5087Y19973D01*
X4933Y19819D01*
X4898Y19735D01*
X4863Y19819D01*
X4709Y19973D01*
X4507Y20057D01*
X4289Y20057D01*
X4087Y19973D01*
X3933Y19819D01*
X3849Y19617D01*
X3849Y19399D01*
X3933Y19197D01*
X4067Y19063D01*
X3955Y18951D01*
X3871Y18749D01*
X3871Y18531D01*
X3955Y18329D01*
X4109Y18175D01*
X4311Y18091D01*
X4464Y18091D01*
X4451Y18023D01*
X4451Y17950D01*
X4378Y17950D01*
X4256Y17926D01*
X4152Y17856D01*
X4082Y17752D01*
X4058Y17630D01*
X4058Y17557D01*
X3985Y17557D01*
X3863Y17533D01*
X3759Y17463D01*
X3689Y17359D01*
X3665Y17237D01*
X3665Y12011D01*
X3511Y12165D01*
X3309Y12249D01*
X3091Y12249D01*
X2969Y12199D01*
X2969Y18290D01*
X2969Y18389D01*
X2969Y18989D01*
X2931Y19081D01*
X2919Y19093D01*
X2947Y19158D01*
X2947Y19257D01*
X2947Y19857D01*
X2909Y19949D01*
X2839Y20019D01*
X2748Y20057D01*
X2649Y20057D01*
X2049Y20057D01*
X1957Y20019D01*
X1887Y19949D01*
X1849Y19858D01*
X1849Y19759D01*
X1849Y19159D01*
X1887Y19067D01*
X1898Y19056D01*
X1871Y18990D01*
X1871Y18891D01*
X1871Y18291D01*
X1909Y18199D01*
X1979Y18129D01*
X2070Y18091D01*
X2169Y18091D01*
X2769Y18091D01*
X2861Y18129D01*
X2931Y18199D01*
X2969Y18290D01*
X2969Y12199D01*
X2889Y12165D01*
X2735Y12011D01*
X2651Y11809D01*
X2651Y11591D01*
X2735Y11389D01*
X2889Y11235D01*
X2973Y11200D01*
X2889Y11165D01*
X2735Y11011D01*
X2651Y10809D01*
X2651Y10591D01*
X2735Y10389D01*
X2889Y10235D01*
X2973Y10200D01*
X2889Y10165D01*
X2735Y10011D01*
X2651Y9809D01*
X2651Y9591D01*
X2735Y9389D01*
X2875Y9249D01*
X2851Y9249D01*
X2759Y9211D01*
X2689Y9141D01*
X2651Y9050D01*
X2651Y8951D01*
X2651Y8351D01*
X2689Y8259D01*
X2759Y8189D01*
X2850Y8151D01*
X2949Y8151D01*
X3549Y8151D01*
X3641Y8189D01*
X3665Y8213D01*
X3665Y7019D01*
X3689Y6897D01*
X3759Y6793D01*
X3863Y6723D01*
X3985Y6699D01*
X15382Y6699D01*
X15504Y6723D01*
X15505Y6723D01*
X15608Y6793D01*
X17104Y8290D01*
X17146Y8189D01*
X17300Y8035D01*
X17384Y8000D01*
X17300Y7965D01*
X17146Y7811D01*
X17062Y7609D01*
X17062Y7391D01*
X17146Y7189D01*
X17300Y7035D01*
X17384Y7000D01*
X17300Y6965D01*
X17146Y6811D01*
X17062Y6609D01*
X17062Y6391D01*
X17146Y6189D01*
X17300Y6035D01*
X17502Y5951D01*
X17720Y5951D01*
X17922Y6035D01*
X18076Y6189D01*
X18160Y6391D01*
X18160Y6609D01*
X18076Y6811D01*
X17922Y6965D01*
X17837Y7000D01*
X17922Y7035D01*
X18076Y7189D01*
X18160Y7391D01*
X18160Y7609D01*
X18076Y7811D01*
X17922Y7965D01*
X17837Y8000D01*
X17922Y8035D01*
X18076Y8189D01*
X18160Y8391D01*
X18160Y8609D01*
X18076Y8811D01*
X17922Y8965D01*
X17837Y9000D01*
X17922Y9035D01*
X18076Y9189D01*
X18160Y9391D01*
X18160Y9609D01*
X18076Y9811D01*
X17922Y9965D01*
X17837Y10000D01*
X17922Y10035D01*
X18076Y10189D01*
X18160Y10391D01*
X18160Y10609D01*
X18076Y10811D01*
X17922Y10965D01*
X17837Y11000D01*
X17922Y11035D01*
X18076Y11189D01*
X18160Y11391D01*
X18160Y11609D01*
X18076Y11811D01*
X17922Y11965D01*
X17837Y12000D01*
X17922Y12035D01*
X18076Y12189D01*
X18160Y12391D01*
X18160Y12609D01*
X18076Y12811D01*
X17936Y12951D01*
X17960Y12951D01*
X18052Y12989D01*
X18122Y13059D01*
X18160Y13150D01*
X18160Y13249D01*
X18160Y13849D01*
X18122Y13941D01*
X18052Y14011D01*
X17961Y14049D01*
X17862Y14049D01*
X17262Y14049D01*
X17170Y14011D01*
X17100Y13941D01*
X17062Y13850D01*
X17062Y13751D01*
X17062Y13151D01*
X17100Y13059D01*
X17170Y12989D01*
X17261Y12951D01*
X17286Y12951D01*
X17176Y12841D01*
X15222Y12841D01*
X15222Y14883D01*
X15222Y14982D01*
X15222Y15582D01*
X15184Y15674D01*
X15114Y15744D01*
X15023Y15782D01*
X14924Y15782D01*
X14324Y15782D01*
X14232Y15744D01*
X14162Y15674D01*
X14127Y15592D01*
X14090Y15592D01*
X13984Y15698D01*
X13782Y15782D01*
X13564Y15782D01*
X13362Y15698D01*
X13256Y15592D01*
X13090Y15592D01*
X12984Y15698D01*
X12782Y15782D01*
X12564Y15782D01*
X12362Y15698D01*
X12256Y15592D01*
X12090Y15592D01*
X11984Y15698D01*
X11782Y15782D01*
X11564Y15782D01*
X11362Y15698D01*
X11256Y15592D01*
X11090Y15592D01*
X10984Y15698D01*
X10782Y15782D01*
X10564Y15782D01*
X10362Y15698D01*
X10256Y15592D01*
X10090Y15592D01*
X9984Y15698D01*
X9782Y15782D01*
X9564Y15782D01*
X9362Y15698D01*
X9256Y15592D01*
X9090Y15592D01*
X8984Y15698D01*
X8782Y15782D01*
X8564Y15782D01*
X8362Y15698D01*
X8256Y15592D01*
X8090Y15592D01*
X7984Y15698D01*
X7782Y15782D01*
X7564Y15782D01*
X7362Y15698D01*
X7208Y15544D01*
X7124Y15342D01*
X7124Y15124D01*
X7208Y14922D01*
X7362Y14768D01*
X7564Y14684D01*
X7782Y14684D01*
X7984Y14768D01*
X8138Y14922D01*
X8150Y14952D01*
X8195Y14952D01*
X8208Y14922D01*
X8362Y14768D01*
X8564Y14684D01*
X8782Y14684D01*
X8984Y14768D01*
X9138Y14922D01*
X9150Y14952D01*
X9195Y14952D01*
X9208Y14922D01*
X9362Y14768D01*
X9564Y14684D01*
X9782Y14684D01*
X9984Y14768D01*
X10138Y14922D01*
X10150Y14952D01*
X10195Y14952D01*
X10208Y14922D01*
X10362Y14768D01*
X10564Y14684D01*
X10782Y14684D01*
X10984Y14768D01*
X11138Y14922D01*
X11150Y14952D01*
X11195Y14952D01*
X11208Y14922D01*
X11362Y14768D01*
X11564Y14684D01*
X11782Y14684D01*
X11984Y14768D01*
X12138Y14922D01*
X12150Y14952D01*
X12195Y14952D01*
X12208Y14922D01*
X12362Y14768D01*
X12564Y14684D01*
X12782Y14684D01*
X12984Y14768D01*
X13138Y14922D01*
X13150Y14952D01*
X13195Y14952D01*
X13208Y14922D01*
X13362Y14768D01*
X13564Y14684D01*
X13782Y14684D01*
X13984Y14768D01*
X14124Y14908D01*
X14124Y14884D01*
X14162Y14792D01*
X14232Y14722D01*
X14323Y14684D01*
X14422Y14684D01*
X15022Y14684D01*
X15114Y14722D01*
X15184Y14792D01*
X15222Y14883D01*
X15222Y12841D01*
X10666Y12841D01*
X10543Y12817D01*
X10440Y12747D01*
X6997Y9304D01*
X6880Y9304D01*
X6965Y9389D01*
X7049Y9591D01*
X7049Y9809D01*
X6965Y10011D01*
X6811Y10165D01*
X6726Y10200D01*
X6811Y10235D01*
X6965Y10389D01*
X7049Y10591D01*
X7049Y10809D01*
X6965Y11011D01*
X6811Y11165D01*
X6609Y11249D01*
X6391Y11249D01*
X6189Y11165D01*
X6049Y11025D01*
X6049Y11049D01*
X6011Y11141D01*
X5941Y11211D01*
X5877Y11238D01*
X5877Y14354D01*
X9226Y17703D01*
X9880Y17703D01*
X10002Y17727D01*
X10003Y17727D01*
X10106Y17797D01*
X10483Y18175D01*
X10529Y18129D01*
X10620Y18091D01*
X10719Y18091D01*
X11319Y18091D01*
X11411Y18129D01*
X11481Y18199D01*
X11519Y18290D01*
X11519Y18315D01*
X11659Y18175D01*
X11861Y18091D01*
X12079Y18091D01*
X12281Y18175D01*
X12435Y18329D01*
X12470Y18414D01*
X12505Y18329D01*
X12659Y18175D01*
X12861Y18091D01*
X13079Y18091D01*
X13281Y18175D01*
X13435Y18329D01*
X13470Y18414D01*
X13505Y18329D01*
X13659Y18175D01*
X13861Y18091D01*
X14079Y18091D01*
X14281Y18175D01*
X14435Y18329D01*
X14470Y18414D01*
X14505Y18329D01*
X14659Y18175D01*
X14861Y18091D01*
X15079Y18091D01*
X15281Y18175D01*
X15435Y18329D01*
X15470Y18414D01*
X15505Y18329D01*
X15659Y18175D01*
X15861Y18091D01*
X16079Y18091D01*
X16281Y18175D01*
X16435Y18329D01*
X16470Y18414D01*
X16505Y18329D01*
X16659Y18175D01*
X16861Y18091D01*
X17079Y18091D01*
X17281Y18175D01*
X17435Y18329D01*
X17470Y18414D01*
X17505Y18329D01*
X17659Y18175D01*
X17861Y18091D01*
X18079Y18091D01*
X18281Y18175D01*
X18435Y18329D01*
X18519Y18531D01*
X18519Y18749D01*
X18435Y18951D01*
X18316Y19070D01*
X18445Y19198D01*
X18529Y19400D01*
X18529Y1592D01*
X18469Y1736D01*
X18315Y1890D01*
X18113Y1974D01*
X17895Y1974D01*
X17693Y1890D01*
X17539Y1736D01*
X17504Y1652D01*
X17469Y1736D01*
X17315Y1890D01*
X17113Y1974D01*
X16895Y1974D01*
X16693Y1890D01*
X16539Y1736D01*
X16504Y1652D01*
X16469Y1736D01*
X16315Y1890D01*
X16113Y1974D01*
X15895Y1974D01*
X15693Y1890D01*
X15539Y1736D01*
X15504Y1652D01*
X15469Y1736D01*
X15315Y1890D01*
X15113Y1974D01*
X14895Y1974D01*
X14693Y1890D01*
X14539Y1736D01*
X14504Y1652D01*
X14469Y1736D01*
X14315Y1890D01*
X14113Y1974D01*
X13895Y1974D01*
X13693Y1890D01*
X13553Y1750D01*
X13553Y1774D01*
X13515Y1866D01*
X13445Y1936D01*
X13354Y1974D01*
X13255Y1974D01*
X12655Y1974D01*
X12563Y1936D01*
X12493Y1866D01*
X12455Y1775D01*
X12455Y1676D01*
X12455Y1076D01*
X12493Y984D01*
X12524Y953D01*
X12493Y921D01*
X12455Y830D01*
X12455Y731D01*
X12455Y131D01*
X12493Y39D01*
X12563Y-31D01*
X12654Y-69D01*
X12753Y-69D01*
X13353Y-69D01*
X13445Y-31D01*
X13515Y39D01*
X13553Y130D01*
X13553Y155D01*
X13693Y15D01*
X13895Y-69D01*
X14113Y-69D01*
X14315Y15D01*
X14469Y169D01*
X14504Y254D01*
X14539Y169D01*
X14693Y15D01*
X14895Y-69D01*
X15113Y-69D01*
X15315Y15D01*
X15469Y169D01*
X15504Y254D01*
X15539Y169D01*
X15693Y15D01*
X15895Y-69D01*
X16113Y-69D01*
X16315Y15D01*
X16469Y169D01*
X16504Y254D01*
X16539Y169D01*
X16693Y15D01*
X16895Y-69D01*
X17113Y-69D01*
X17315Y15D01*
X17469Y169D01*
X17504Y254D01*
X17539Y169D01*
X17693Y15D01*
X17895Y-69D01*
X18113Y-69D01*
X18315Y15D01*
X18469Y169D01*
X18553Y371D01*
X18553Y-179D01*
X18239Y-493D01*
X11545Y-493D01*
X11545Y371D01*
X11545Y589D01*
X11461Y791D01*
X11307Y945D01*
X11105Y1029D01*
X10887Y1029D01*
X10685Y945D01*
X10531Y791D01*
X10447Y589D01*
X10447Y371D01*
X10531Y169D01*
X10685Y15D01*
X10887Y-69D01*
X11105Y-69D01*
X11307Y15D01*
X11461Y169D01*
X11545Y371D01*
X11545Y-493D01*
X8545Y-493D01*
X8545Y371D01*
X8545Y589D01*
X8461Y791D01*
X8307Y945D01*
X8105Y1029D01*
X7887Y1029D01*
X7685Y945D01*
X7531Y791D01*
X7496Y707D01*
X7461Y791D01*
X7307Y945D01*
X7105Y1029D01*
X6887Y1029D01*
X6685Y945D01*
X6545Y805D01*
X6545Y829D01*
X6507Y921D01*
X6437Y991D01*
X6425Y997D01*
X6425Y2495D01*
X6425Y2704D01*
X6345Y2897D01*
X6198Y3045D01*
X6005Y3125D01*
X5796Y3125D01*
X5603Y3045D01*
X5573Y3016D01*
X3226Y3016D01*
X3198Y3045D01*
X3005Y3125D01*
X2796Y3125D01*
X2603Y3045D01*
X2455Y2898D01*
X2375Y2705D01*
X2375Y2496D01*
X2455Y2303D01*
X2602Y2155D01*
X2795Y2075D01*
X3004Y2075D01*
X3197Y2155D01*
X3345Y2302D01*
X3375Y2376D01*
X5424Y2376D01*
X5455Y2303D01*
X5602Y2155D01*
X5795Y2075D01*
X6004Y2075D01*
X6197Y2155D01*
X6345Y2302D01*
X6425Y2495D01*
X6425Y997D01*
X6346Y1029D01*
X6247Y1029D01*
X5647Y1029D01*
X5555Y991D01*
X5485Y921D01*
X5447Y830D01*
X5447Y731D01*
X5447Y131D01*
X5485Y39D01*
X5555Y-31D01*
X5646Y-69D01*
X5745Y-69D01*
X6345Y-69D01*
X6437Y-31D01*
X6507Y39D01*
X6545Y130D01*
X6545Y155D01*
X6685Y15D01*
X6887Y-69D01*
X7105Y-69D01*
X7307Y15D01*
X7461Y169D01*
X7496Y254D01*
X7531Y169D01*
X7685Y15D01*
X7887Y-69D01*
X8105Y-69D01*
X8307Y15D01*
X8461Y169D01*
X8545Y371D01*
X8545Y-493D01*
X2139Y-493D01*
X1381Y265D01*
X1381Y19514D01*
X2139Y20273D01*
X18239Y20273D01*
X18997Y19514D01*
X18997Y265D01*
X18997Y265D01*
G37*
G54D16*
X18997Y265D02*
X18553Y-179D01*
X18553Y371D01*
X18553Y589D01*
X18469Y791D01*
X18315Y945D01*
X18296Y953D01*
X18315Y960D01*
X18469Y1114D01*
X18553Y1316D01*
X18553Y1534D01*
X18529Y1592D01*
X18529Y19400D01*
X18529Y19618D01*
X18445Y19820D01*
X18291Y19974D01*
X18089Y20058D01*
X17871Y20058D01*
X17669Y19974D01*
X17515Y19820D01*
X17480Y19736D01*
X17445Y19820D01*
X17291Y19974D01*
X17089Y20058D01*
X16871Y20058D01*
X16669Y19974D01*
X16515Y19820D01*
X16480Y19736D01*
X16445Y19820D01*
X16291Y19974D01*
X16089Y20058D01*
X15871Y20058D01*
X15669Y19974D01*
X15515Y19820D01*
X15480Y19736D01*
X15445Y19820D01*
X15291Y19974D01*
X15089Y20058D01*
X14871Y20058D01*
X14669Y19974D01*
X14515Y19820D01*
X14480Y19736D01*
X14445Y19820D01*
X14291Y19974D01*
X14089Y20058D01*
X13871Y20058D01*
X13669Y19974D01*
X13515Y19820D01*
X13480Y19736D01*
X13445Y19820D01*
X13291Y19974D01*
X13089Y20058D01*
X12871Y20058D01*
X12669Y19974D01*
X12515Y19820D01*
X12480Y19736D01*
X12445Y19820D01*
X12291Y19974D01*
X12089Y20058D01*
X11871Y20058D01*
X11669Y19974D01*
X11529Y19834D01*
X11529Y19858D01*
X11491Y19950D01*
X11421Y20020D01*
X11330Y20058D01*
X11231Y20058D01*
X10631Y20058D01*
X10539Y20020D01*
X10469Y19950D01*
X10431Y19859D01*
X10431Y19760D01*
X10431Y19160D01*
X10462Y19085D01*
X10459Y19081D01*
X10440Y19036D01*
X10439Y19035D01*
X9969Y18565D01*
X9969Y18749D01*
X9885Y18951D01*
X9751Y19085D01*
X9863Y19197D01*
X9947Y19399D01*
X9947Y19617D01*
X9863Y19819D01*
X9709Y19973D01*
X9507Y20057D01*
X9289Y20057D01*
X9087Y19973D01*
X8933Y19819D01*
X8898Y19735D01*
X8863Y19819D01*
X8709Y19973D01*
X8507Y20057D01*
X8289Y20057D01*
X8087Y19973D01*
X7933Y19819D01*
X7898Y19735D01*
X7863Y19819D01*
X7709Y19973D01*
X7507Y20057D01*
X7289Y20057D01*
X7087Y19973D01*
X6933Y19819D01*
X6898Y19735D01*
X6863Y19819D01*
X6709Y19973D01*
X6507Y20057D01*
X6289Y20057D01*
X6087Y19973D01*
X5933Y19819D01*
X5898Y19735D01*
X5863Y19819D01*
X5709Y19973D01*
X5507Y20057D01*
X5289Y20057D01*
X5087Y19973D01*
X4933Y19819D01*
X4898Y19735D01*
X4863Y19819D01*
X4709Y19973D01*
X4507Y20057D01*
X4289Y20057D01*
X4087Y19973D01*
X3933Y19819D01*
X3849Y19617D01*
X3849Y19399D01*
X3933Y19197D01*
X4067Y19063D01*
X3955Y18951D01*
X3871Y18749D01*
X3871Y18531D01*
X3955Y18329D01*
X4109Y18175D01*
X4311Y18091D01*
X4464Y18091D01*
X4451Y18023D01*
X4451Y17950D01*
X4378Y17950D01*
X4256Y17926D01*
X4152Y17856D01*
X4082Y17752D01*
X4058Y17630D01*
X4058Y17557D01*
X3985Y17557D01*
X3863Y17533D01*
X3759Y17463D01*
X3689Y17359D01*
X3665Y17237D01*
X3665Y12011D01*
X3511Y12165D01*
X3309Y12249D01*
X3091Y12249D01*
X2969Y12199D01*
X2969Y18290D01*
X2969Y18389D01*
X2969Y18989D01*
X2931Y19081D01*
X2919Y19093D01*
X2947Y19158D01*
X2947Y19257D01*
X2947Y19857D01*
X2909Y19949D01*
X2839Y20019D01*
X2748Y20057D01*
X2649Y20057D01*
X2049Y20057D01*
X1957Y20019D01*
X1887Y19949D01*
X1849Y19858D01*
X1849Y19759D01*
X1849Y19159D01*
X1887Y19067D01*
X1898Y19056D01*
X1871Y18990D01*
X1871Y18891D01*
X1871Y18291D01*
X1909Y18199D01*
X1979Y18129D01*
X2070Y18091D01*
X2169Y18091D01*
X2769Y18091D01*
X2861Y18129D01*
X2931Y18199D01*
X2969Y18290D01*
X2969Y12199D01*
X2889Y12165D01*
X2735Y12011D01*
X2651Y11809D01*
X2651Y11591D01*
X2735Y11389D01*
X2889Y11235D01*
X2973Y11200D01*
X2889Y11165D01*
X2735Y11011D01*
X2651Y10809D01*
X2651Y10591D01*
X2735Y10389D01*
X2889Y10235D01*
X2973Y10200D01*
X2889Y10165D01*
X2735Y10011D01*
X2651Y9809D01*
X2651Y9591D01*
X2735Y9389D01*
X2875Y9249D01*
X2851Y9249D01*
X2759Y9211D01*
X2689Y9141D01*
X2651Y9050D01*
X2651Y8951D01*
X2651Y8351D01*
X2689Y8259D01*
X2759Y8189D01*
X2850Y8151D01*
X2949Y8151D01*
X3549Y8151D01*
X3641Y8189D01*
X3665Y8213D01*
X3665Y7019D01*
X3689Y6897D01*
X3759Y6793D01*
X3863Y6723D01*
X3985Y6699D01*
X15382Y6699D01*
X15504Y6723D01*
X15505Y6723D01*
X15608Y6793D01*
X17104Y8290D01*
X17146Y8189D01*
X17300Y8035D01*
X17384Y8000D01*
X17300Y7965D01*
X17146Y7811D01*
X17062Y7609D01*
X17062Y7391D01*
X17146Y7189D01*
X17300Y7035D01*
X17384Y7000D01*
X17300Y6965D01*
X17146Y6811D01*
X17062Y6609D01*
X17062Y6391D01*
X17146Y6189D01*
X17300Y6035D01*
X17502Y5951D01*
X17720Y5951D01*
X17922Y6035D01*
X18076Y6189D01*
X18160Y6391D01*
X18160Y6609D01*
X18076Y6811D01*
X17922Y6965D01*
X17837Y7000D01*
X17922Y7035D01*
X18076Y7189D01*
X18160Y7391D01*
X18160Y7609D01*
X18076Y7811D01*
X17922Y7965D01*
X17837Y8000D01*
X17922Y8035D01*
X18076Y8189D01*
X18160Y8391D01*
X18160Y8609D01*
X18076Y8811D01*
X17922Y8965D01*
X17837Y9000D01*
X17922Y9035D01*
X18076Y9189D01*
X18160Y9391D01*
X18160Y9609D01*
X18076Y9811D01*
X17922Y9965D01*
X17837Y10000D01*
X17922Y10035D01*
X18076Y10189D01*
X18160Y10391D01*
X18160Y10609D01*
X18076Y10811D01*
X17922Y10965D01*
X17837Y11000D01*
X17922Y11035D01*
X18076Y11189D01*
X18160Y11391D01*
X18160Y11609D01*
X18076Y11811D01*
X17922Y11965D01*
X17837Y12000D01*
X17922Y12035D01*
X18076Y12189D01*
X18160Y12391D01*
X18160Y12609D01*
X18076Y12811D01*
X17936Y12951D01*
X17960Y12951D01*
X18052Y12989D01*
X18122Y13059D01*
X18160Y13150D01*
X18160Y13249D01*
X18160Y13849D01*
X18122Y13941D01*
X18052Y14011D01*
X17961Y14049D01*
X17862Y14049D01*
X17262Y14049D01*
X17170Y14011D01*
X17100Y13941D01*
X17062Y13850D01*
X17062Y13751D01*
X17062Y13151D01*
X17100Y13059D01*
X17170Y12989D01*
X17261Y12951D01*
X17286Y12951D01*
X17176Y12841D01*
X15222Y12841D01*
X15222Y14883D01*
X15222Y14982D01*
X15222Y15582D01*
X15184Y15674D01*
X15114Y15744D01*
X15023Y15782D01*
X14924Y15782D01*
X14324Y15782D01*
X14232Y15744D01*
X14162Y15674D01*
X14127Y15592D01*
X14090Y15592D01*
X13984Y15698D01*
X13782Y15782D01*
X13564Y15782D01*
X13362Y15698D01*
X13256Y15592D01*
X13090Y15592D01*
X12984Y15698D01*
X12782Y15782D01*
X12564Y15782D01*
X12362Y15698D01*
X12256Y15592D01*
X12090Y15592D01*
X11984Y15698D01*
X11782Y15782D01*
X11564Y15782D01*
X11362Y15698D01*
X11256Y15592D01*
X11090Y15592D01*
X10984Y15698D01*
X10782Y15782D01*
X10564Y15782D01*
X10362Y15698D01*
X10256Y15592D01*
X10090Y15592D01*
X9984Y15698D01*
X9782Y15782D01*
X9564Y15782D01*
X9362Y15698D01*
X9256Y15592D01*
X9090Y15592D01*
X8984Y15698D01*
X8782Y15782D01*
X8564Y15782D01*
X8362Y15698D01*
X8256Y15592D01*
X8090Y15592D01*
X7984Y15698D01*
X7782Y15782D01*
X7564Y15782D01*
X7362Y15698D01*
X7208Y15544D01*
X7124Y15342D01*
X7124Y15124D01*
X7208Y14922D01*
X7362Y14768D01*
X7564Y14684D01*
X7782Y14684D01*
X7984Y14768D01*
X8138Y14922D01*
X8150Y14952D01*
X8195Y14952D01*
X8208Y14922D01*
X8362Y14768D01*
X8564Y14684D01*
X8782Y14684D01*
X8984Y14768D01*
X9138Y14922D01*
X9150Y14952D01*
X9195Y14952D01*
X9208Y14922D01*
X9362Y14768D01*
X9564Y14684D01*
X9782Y14684D01*
X9984Y14768D01*
X10138Y14922D01*
X10150Y14952D01*
X10195Y14952D01*
X10208Y14922D01*
X10362Y14768D01*
X10564Y14684D01*
X10782Y14684D01*
X10984Y14768D01*
X11138Y14922D01*
X11150Y14952D01*
X11195Y14952D01*
X11208Y14922D01*
X11362Y14768D01*
X11564Y14684D01*
X11782Y14684D01*
X11984Y14768D01*
X12138Y14922D01*
X12150Y14952D01*
X12195Y14952D01*
X12208Y14922D01*
X12362Y14768D01*
X12564Y14684D01*
X12782Y14684D01*
X12984Y14768D01*
X13138Y14922D01*
X13150Y14952D01*
X13195Y14952D01*
X13208Y14922D01*
X13362Y14768D01*
X13564Y14684D01*
X13782Y14684D01*
X13984Y14768D01*
X14124Y14908D01*
X14124Y14884D01*
X14162Y14792D01*
X14232Y14722D01*
X14323Y14684D01*
X14422Y14684D01*
X15022Y14684D01*
X15114Y14722D01*
X15184Y14792D01*
X15222Y14883D01*
X15222Y12841D01*
X10666Y12841D01*
X10543Y12817D01*
X10440Y12747D01*
X6997Y9304D01*
X6880Y9304D01*
X6965Y9389D01*
X7049Y9591D01*
X7049Y9809D01*
X6965Y10011D01*
X6811Y10165D01*
X6726Y10200D01*
X6811Y10235D01*
X6965Y10389D01*
X7049Y10591D01*
X7049Y10809D01*
X6965Y11011D01*
X6811Y11165D01*
X6609Y11249D01*
X6391Y11249D01*
X6189Y11165D01*
X6049Y11025D01*
X6049Y11049D01*
X6011Y11141D01*
X5941Y11211D01*
X5877Y11238D01*
X5877Y14354D01*
X9226Y17703D01*
X9880Y17703D01*
X10002Y17727D01*
X10003Y17727D01*
X10106Y17797D01*
X10483Y18175D01*
X10529Y18129D01*
X10620Y18091D01*
X10719Y18091D01*
X11319Y18091D01*
X11411Y18129D01*
X11481Y18199D01*
X11519Y18290D01*
X11519Y18315D01*
X11659Y18175D01*
X11861Y18091D01*
X12079Y18091D01*
X12281Y18175D01*
X12435Y18329D01*
X12470Y18414D01*
X12505Y18329D01*
X12659Y18175D01*
X12861Y18091D01*
X13079Y18091D01*
X13281Y18175D01*
X13435Y18329D01*
X13470Y18414D01*
X13505Y18329D01*
X13659Y18175D01*
X13861Y18091D01*
X14079Y18091D01*
X14281Y18175D01*
X14435Y18329D01*
X14470Y18414D01*
X14505Y18329D01*
X14659Y18175D01*
X14861Y18091D01*
X15079Y18091D01*
X15281Y18175D01*
X15435Y18329D01*
X15470Y18414D01*
X15505Y18329D01*
X15659Y18175D01*
X15861Y18091D01*
X16079Y18091D01*
X16281Y18175D01*
X16435Y18329D01*
X16470Y18414D01*
X16505Y18329D01*
X16659Y18175D01*
X16861Y18091D01*
X17079Y18091D01*
X17281Y18175D01*
X17435Y18329D01*
X17470Y18414D01*
X17505Y18329D01*
X17659Y18175D01*
X17861Y18091D01*
X18079Y18091D01*
X18281Y18175D01*
X18435Y18329D01*
X18519Y18531D01*
X18519Y18749D01*
X18435Y18951D01*
X18316Y19070D01*
X18445Y19198D01*
X18529Y19400D01*
X18529Y1592D01*
X18469Y1736D01*
X18315Y1890D01*
X18113Y1974D01*
X17895Y1974D01*
X17693Y1890D01*
X17539Y1736D01*
X17504Y1652D01*
X17469Y1736D01*
X17315Y1890D01*
X17113Y1974D01*
X16895Y1974D01*
X16693Y1890D01*
X16539Y1736D01*
X16504Y1652D01*
X16469Y1736D01*
X16315Y1890D01*
X16113Y1974D01*
X15895Y1974D01*
X15693Y1890D01*
X15539Y1736D01*
X15504Y1652D01*
X15469Y1736D01*
X15315Y1890D01*
X15113Y1974D01*
X14895Y1974D01*
X14693Y1890D01*
X14539Y1736D01*
X14504Y1652D01*
X14469Y1736D01*
X14315Y1890D01*
X14113Y1974D01*
X13895Y1974D01*
X13693Y1890D01*
X13553Y1750D01*
X13553Y1774D01*
X13515Y1866D01*
X13445Y1936D01*
X13354Y1974D01*
X13255Y1974D01*
X12655Y1974D01*
X12563Y1936D01*
X12493Y1866D01*
X12455Y1775D01*
X12455Y1676D01*
X12455Y1076D01*
X12493Y984D01*
X12524Y953D01*
X12493Y921D01*
X12455Y830D01*
X12455Y731D01*
X12455Y131D01*
X12493Y39D01*
X12563Y-31D01*
X12654Y-69D01*
X12753Y-69D01*
X13353Y-69D01*
X13445Y-31D01*
X13515Y39D01*
X13553Y130D01*
X13553Y155D01*
X13693Y15D01*
X13895Y-69D01*
X14113Y-69D01*
X14315Y15D01*
X14469Y169D01*
X14504Y254D01*
X14539Y169D01*
X14693Y15D01*
X14895Y-69D01*
X15113Y-69D01*
X15315Y15D01*
X15469Y169D01*
X15504Y254D01*
X15539Y169D01*
X15693Y15D01*
X15895Y-69D01*
X16113Y-69D01*
X16315Y15D01*
X16469Y169D01*
X16504Y254D01*
X16539Y169D01*
X16693Y15D01*
X16895Y-69D01*
X17113Y-69D01*
X17315Y15D01*
X17469Y169D01*
X17504Y254D01*
X17539Y169D01*
X17693Y15D01*
X17895Y-69D01*
X18113Y-69D01*
X18315Y15D01*
X18469Y169D01*
X18553Y371D01*
X18553Y-179D01*
X18239Y-493D01*
X11545Y-493D01*
X11545Y371D01*
X11545Y589D01*
X11461Y791D01*
X11307Y945D01*
X11105Y1029D01*
X10887Y1029D01*
X10685Y945D01*
X10531Y791D01*
X10447Y589D01*
X10447Y371D01*
X10531Y169D01*
X10685Y15D01*
X10887Y-69D01*
X11105Y-69D01*
X11307Y15D01*
X11461Y169D01*
X11545Y371D01*
X11545Y-493D01*
X8545Y-493D01*
X8545Y371D01*
X8545Y589D01*
X8461Y791D01*
X8307Y945D01*
X8105Y1029D01*
X7887Y1029D01*
X7685Y945D01*
X7531Y791D01*
X7496Y707D01*
X7461Y791D01*
X7307Y945D01*
X7105Y1029D01*
X6887Y1029D01*
X6685Y945D01*
X6545Y805D01*
X6545Y829D01*
X6507Y921D01*
X6437Y991D01*
X6425Y997D01*
X6425Y2495D01*
X6425Y2704D01*
X6345Y2897D01*
X6198Y3045D01*
X6005Y3125D01*
X5796Y3125D01*
X5603Y3045D01*
X5573Y3016D01*
X3226Y3016D01*
X3198Y3045D01*
X3005Y3125D01*
X2796Y3125D01*
X2603Y3045D01*
X2455Y2898D01*
X2375Y2705D01*
X2375Y2496D01*
X2455Y2303D01*
X2602Y2155D01*
X2795Y2075D01*
X3004Y2075D01*
X3197Y2155D01*
X3345Y2302D01*
X3375Y2376D01*
X5424Y2376D01*
X5455Y2303D01*
X5602Y2155D01*
X5795Y2075D01*
X6004Y2075D01*
X6197Y2155D01*
X6345Y2302D01*
X6425Y2495D01*
X6425Y997D01*
X6346Y1029D01*
X6247Y1029D01*
X5647Y1029D01*
X5555Y991D01*
X5485Y921D01*
X5447Y830D01*
X5447Y731D01*
X5447Y131D01*
X5485Y39D01*
X5555Y-31D01*
X5646Y-69D01*
X5745Y-69D01*
X6345Y-69D01*
X6437Y-31D01*
X6507Y39D01*
X6545Y130D01*
X6545Y155D01*
X6685Y15D01*
X6887Y-69D01*
X7105Y-69D01*
X7307Y15D01*
X7461Y169D01*
X7496Y254D01*
X7531Y169D01*
X7685Y15D01*
X7887Y-69D01*
X8105Y-69D01*
X8307Y15D01*
X8461Y169D01*
X8545Y371D01*
X8545Y-493D01*
X2139Y-493D01*
X1381Y265D01*
X1381Y19514D01*
X2139Y20273D01*
X18239Y20273D01*
X18997Y19514D01*
X18997Y265D01*
M02*
