G04 (created by PCBNEW-RS274X (2011-nov-30)-testing) date Tue 29 May 2012 07:38:49 PM EDT*
%MOIN*%
G04 Gerber Fmt 3.4, Leading zero omitted, Abs format*
%FSLAX34Y34*%
G01*
G70*
G90*
G04 APERTURE LIST*
%ADD10C,0.006*%
%ADD11R,0.0472X0.0472*%
%ADD12R,0.06X0.06*%
%ADD13C,0.06*%
%ADD14R,0.055X0.035*%
%ADD15C,0.055*%
%ADD16C,0.035*%
%ADD17C,0.014*%
%ADD18C,0.01*%
G04 APERTURE END LIST*
G54D10*
G54D11*
X3200Y14587D03*
X3200Y15413D03*
G54D12*
X17611Y13500D03*
G54D13*
X17611Y12500D03*
X17611Y11500D03*
X17611Y10500D03*
X17611Y9500D03*
X17611Y8500D03*
X17611Y7500D03*
X17611Y6500D03*
G54D12*
X14673Y4603D03*
G54D13*
X13673Y4603D03*
X12673Y4603D03*
X11673Y4603D03*
X10673Y4603D03*
X9673Y4603D03*
X8673Y4603D03*
X7673Y4603D03*
G54D12*
X14673Y15233D03*
G54D13*
X13673Y15233D03*
X12673Y15233D03*
X11673Y15233D03*
X10673Y15233D03*
X9673Y15233D03*
X8673Y15233D03*
X7673Y15233D03*
G54D12*
X5996Y480D03*
G54D13*
X6996Y480D03*
X7996Y480D03*
X8996Y480D03*
X9996Y480D03*
X10996Y480D03*
G54D12*
X5500Y10700D03*
G54D13*
X6500Y10700D03*
X5500Y9700D03*
X6500Y9700D03*
G54D14*
X3200Y16425D03*
X3200Y17175D03*
G54D15*
X2900Y2600D03*
X2900Y4600D03*
X5900Y2600D03*
X5900Y4600D03*
G54D12*
X2420Y18640D03*
G54D13*
X3420Y18640D03*
X4420Y18640D03*
X5420Y18640D03*
X6420Y18640D03*
X7420Y18640D03*
X8420Y18640D03*
X9420Y18640D03*
G54D12*
X10980Y19509D03*
G54D13*
X11980Y19509D03*
X12980Y19509D03*
X13980Y19509D03*
X14980Y19509D03*
X15980Y19509D03*
X16980Y19509D03*
X17980Y19509D03*
G54D12*
X10970Y18640D03*
G54D13*
X11970Y18640D03*
X12970Y18640D03*
X13970Y18640D03*
X14970Y18640D03*
X15970Y18640D03*
X16970Y18640D03*
X17970Y18640D03*
G54D12*
X2398Y19508D03*
G54D13*
X3398Y19508D03*
X4398Y19508D03*
X5398Y19508D03*
X6398Y19508D03*
X7398Y19508D03*
X8398Y19508D03*
X9398Y19508D03*
G54D12*
X13004Y480D03*
G54D13*
X14004Y480D03*
X15004Y480D03*
X16004Y480D03*
X17004Y480D03*
X18004Y480D03*
G54D12*
X13004Y1425D03*
G54D13*
X14004Y1425D03*
X15004Y1425D03*
X16004Y1425D03*
X17004Y1425D03*
X18004Y1425D03*
G54D12*
X3200Y8700D03*
G54D13*
X3200Y9700D03*
X3200Y10700D03*
X3200Y11700D03*
G54D16*
X5164Y8198D03*
G54D17*
X7522Y19595D02*
X7398Y19508D01*
X7522Y18809D02*
X7522Y19595D01*
X7420Y18640D02*
X7522Y18809D01*
X6343Y19595D02*
X6398Y19508D01*
X6343Y18809D02*
X6343Y19595D01*
X6420Y18640D02*
X6343Y18809D01*
X5557Y19595D02*
X5398Y19508D01*
X5557Y18809D02*
X5557Y19595D01*
X5420Y18640D02*
X5557Y18809D01*
X3200Y17175D02*
X3200Y17420D01*
X3200Y17420D02*
X4420Y18640D01*
X4378Y19595D02*
X4378Y18809D01*
X4398Y19508D02*
X4378Y19595D01*
X4378Y18809D02*
X4420Y18640D01*
X15775Y18809D02*
X15970Y18640D01*
X15775Y19202D02*
X15775Y18809D01*
X16168Y19595D02*
X15775Y19202D01*
X15980Y19509D02*
X16168Y19595D01*
X14989Y18809D02*
X14970Y18640D01*
X14989Y19595D02*
X14989Y18809D01*
X14980Y19509D02*
X14989Y19595D01*
X3199Y11735D02*
X3200Y11700D01*
X3200Y10700D02*
X3199Y10556D01*
X3199Y10556D02*
X3199Y11735D01*
X3199Y8591D02*
X3199Y9770D01*
X3199Y10556D02*
X3200Y10700D01*
X3199Y9770D02*
X3199Y10556D01*
X3200Y9700D02*
X3199Y9770D01*
X3200Y8700D02*
X3199Y8591D01*
X3199Y8591D02*
X3200Y8700D01*
X6736Y5054D02*
X3199Y8591D01*
X6736Y731D02*
X6736Y5054D01*
X6996Y480D02*
X7129Y338D01*
X3199Y9770D02*
X3200Y9700D01*
X7129Y338D02*
X6736Y731D01*
X13810Y18809D02*
X13970Y18640D01*
X13810Y19595D02*
X13810Y18809D01*
X13980Y19509D02*
X13810Y19595D01*
X13024Y18809D02*
X12970Y18640D01*
X13024Y19595D02*
X13024Y18809D01*
X12980Y19509D02*
X13024Y19595D01*
X7915Y338D02*
X7996Y480D01*
X7915Y3089D02*
X7915Y338D01*
X7129Y3875D02*
X7915Y3089D01*
X7129Y7805D02*
X7129Y3875D01*
X5950Y8984D02*
X7129Y7805D01*
X5950Y9377D02*
X5950Y8984D01*
X5557Y9770D02*
X5950Y9377D01*
X5500Y9700D02*
X5557Y9770D01*
X7522Y14093D02*
X7522Y15272D01*
X4771Y11342D02*
X7522Y14093D01*
X4771Y10163D02*
X4771Y11342D01*
X5164Y9770D02*
X4771Y10163D01*
X5557Y9770D02*
X5164Y9770D01*
X5500Y9700D02*
X5557Y9770D01*
X7522Y15272D02*
X7673Y15233D01*
X11845Y19595D02*
X11980Y19509D01*
X11845Y18809D02*
X11845Y19595D01*
X11970Y18640D02*
X11845Y18809D01*
X11059Y19595D02*
X10980Y19509D01*
X11059Y18809D02*
X11059Y19595D01*
X10970Y18640D02*
X11059Y18809D01*
X10273Y18023D02*
X13417Y18023D01*
X9420Y18640D02*
X9487Y18809D01*
X9487Y18809D02*
X9420Y18640D01*
X9487Y19595D02*
X9487Y18809D01*
X9398Y19508D02*
X9487Y19595D01*
X13417Y18023D02*
X17740Y13700D01*
X17740Y13700D02*
X17740Y13307D01*
X17740Y13307D02*
X17611Y13500D01*
X9487Y18809D02*
X10273Y18023D01*
X5164Y8591D02*
X5164Y8198D01*
X8420Y18640D02*
X8308Y18809D01*
X8308Y18809D02*
X8308Y19595D01*
X8308Y19595D02*
X8398Y19508D01*
X8420Y18640D02*
X8308Y18809D01*
X8308Y18809D02*
X7915Y18416D01*
X7915Y18416D02*
X7915Y18023D01*
X7915Y18023D02*
X4378Y14486D01*
X4378Y14486D02*
X4378Y9377D01*
X4378Y9377D02*
X5164Y8591D01*
X14989Y3875D02*
X15382Y3875D01*
X13417Y1910D02*
X13417Y2303D01*
X13417Y2303D02*
X14989Y3875D01*
X13004Y1425D02*
X13024Y1517D01*
X13024Y1517D02*
X13417Y1910D01*
X13024Y338D02*
X13004Y480D01*
X13024Y1517D02*
X13024Y338D01*
X13004Y1425D02*
X13024Y1517D01*
X15382Y3875D02*
X15382Y4268D01*
X17740Y8591D02*
X17611Y8500D01*
X17347Y8198D02*
X17740Y8591D01*
X16954Y8198D02*
X17347Y8198D01*
X16954Y7805D02*
X16954Y8198D01*
X16561Y7412D02*
X16954Y7805D01*
X16561Y5447D02*
X16561Y7412D01*
X15382Y4268D02*
X16561Y5447D01*
X17740Y7412D02*
X17611Y7500D01*
X17347Y7019D02*
X17740Y7412D01*
X16954Y7019D02*
X17347Y7019D01*
X16954Y4661D02*
X16954Y7019D01*
X13810Y1517D02*
X16954Y4661D01*
X14004Y1425D02*
X13810Y1517D01*
X13810Y338D02*
X14004Y480D01*
X13810Y1517D02*
X13810Y338D01*
X14004Y1425D02*
X13810Y1517D01*
X14989Y1517D02*
X15004Y1425D01*
X15004Y480D02*
X14989Y338D01*
X14989Y338D02*
X14989Y1517D01*
X15004Y1425D02*
X14989Y1517D01*
X17740Y6626D02*
X17611Y6500D01*
X17740Y4268D02*
X17740Y6626D01*
X14989Y1517D02*
X17740Y4268D01*
X16168Y338D02*
X16004Y480D01*
X16168Y1517D02*
X16168Y338D01*
X16004Y1425D02*
X16168Y1517D01*
X16954Y1517D02*
X17004Y1425D01*
X16954Y338D02*
X16954Y1517D01*
X17004Y480D02*
X16954Y338D01*
X18133Y1517D02*
X18004Y1425D01*
X18133Y338D02*
X18133Y1517D01*
X18004Y480D02*
X18133Y338D01*
X2413Y19595D02*
X2398Y19508D01*
X2413Y18809D02*
X2413Y19595D01*
X2420Y18640D02*
X2413Y18809D01*
X5950Y2696D02*
X5950Y338D01*
X5900Y2600D02*
X5950Y2696D01*
X5950Y338D02*
X5996Y480D01*
X18133Y18809D02*
X17970Y18640D01*
X18133Y19595D02*
X18133Y18809D01*
X17980Y19509D02*
X18133Y19595D01*
X16954Y19595D02*
X16980Y19509D01*
X16954Y18809D02*
X16954Y19595D01*
X16970Y18640D02*
X16954Y18809D01*
X3199Y15272D02*
X3200Y15413D01*
X3199Y16451D02*
X3199Y15272D01*
X3200Y16425D02*
X3199Y16451D01*
G54D10*
G36*
X18997Y265D02*
X18553Y-179D01*
X18553Y371D01*
X18553Y589D01*
X18469Y791D01*
X18453Y807D01*
X18453Y1098D01*
X18469Y1114D01*
X18553Y1316D01*
X18553Y1534D01*
X18469Y1736D01*
X18315Y1890D01*
X18113Y1974D01*
X17895Y1974D01*
X17693Y1890D01*
X17539Y1736D01*
X17504Y1652D01*
X17469Y1736D01*
X17315Y1890D01*
X17113Y1974D01*
X16895Y1974D01*
X16693Y1890D01*
X16539Y1736D01*
X16504Y1652D01*
X16469Y1736D01*
X16315Y1890D01*
X16113Y1974D01*
X15898Y1974D01*
X17966Y4041D01*
X17966Y4042D01*
X18012Y4111D01*
X18035Y4145D01*
X18036Y4146D01*
X18059Y4268D01*
X18060Y4268D01*
X18060Y6173D01*
X18076Y6189D01*
X18160Y6391D01*
X18160Y6609D01*
X18076Y6811D01*
X17922Y6965D01*
X17837Y7000D01*
X17922Y7035D01*
X18076Y7189D01*
X18160Y7391D01*
X18160Y7609D01*
X18076Y7811D01*
X17922Y7965D01*
X17837Y8000D01*
X17922Y8035D01*
X18076Y8189D01*
X18160Y8391D01*
X18160Y8609D01*
X18076Y8811D01*
X17922Y8965D01*
X17837Y9000D01*
X17922Y9035D01*
X18076Y9189D01*
X18160Y9391D01*
X18160Y9609D01*
X18076Y9811D01*
X17922Y9965D01*
X17837Y10000D01*
X17922Y10035D01*
X18076Y10189D01*
X18160Y10391D01*
X18160Y10609D01*
X18076Y10811D01*
X17922Y10965D01*
X17837Y11000D01*
X17922Y11035D01*
X18076Y11189D01*
X18160Y11391D01*
X18160Y11609D01*
X18076Y11811D01*
X17922Y11965D01*
X17837Y12000D01*
X17922Y12035D01*
X18076Y12189D01*
X18160Y12391D01*
X18160Y12609D01*
X18076Y12811D01*
X17936Y12951D01*
X17960Y12951D01*
X18052Y12989D01*
X18122Y13059D01*
X18160Y13150D01*
X18160Y13249D01*
X18160Y13849D01*
X18122Y13941D01*
X18052Y14011D01*
X17961Y14049D01*
X17862Y14049D01*
X17843Y14049D01*
X13758Y18134D01*
X13861Y18091D01*
X14079Y18091D01*
X14281Y18175D01*
X14435Y18329D01*
X14470Y18414D01*
X14505Y18329D01*
X14659Y18175D01*
X14861Y18091D01*
X15079Y18091D01*
X15281Y18175D01*
X15435Y18329D01*
X15470Y18414D01*
X15505Y18329D01*
X15659Y18175D01*
X15861Y18091D01*
X16079Y18091D01*
X16281Y18175D01*
X16435Y18329D01*
X16470Y18414D01*
X16505Y18329D01*
X16659Y18175D01*
X16861Y18091D01*
X17079Y18091D01*
X17281Y18175D01*
X17435Y18329D01*
X17470Y18414D01*
X17505Y18329D01*
X17659Y18175D01*
X17861Y18091D01*
X18079Y18091D01*
X18281Y18175D01*
X18435Y18329D01*
X18519Y18531D01*
X18519Y18749D01*
X18453Y18908D01*
X18453Y19218D01*
X18529Y19400D01*
X18529Y19618D01*
X18445Y19820D01*
X18291Y19974D01*
X18089Y20058D01*
X17871Y20058D01*
X17669Y19974D01*
X17515Y19820D01*
X17480Y19736D01*
X17445Y19820D01*
X17291Y19974D01*
X17089Y20058D01*
X16871Y20058D01*
X16669Y19974D01*
X16515Y19820D01*
X16480Y19736D01*
X16445Y19820D01*
X16291Y19974D01*
X16089Y20058D01*
X15871Y20058D01*
X15669Y19974D01*
X15515Y19820D01*
X15480Y19736D01*
X15445Y19820D01*
X15291Y19974D01*
X15089Y20058D01*
X14871Y20058D01*
X14669Y19974D01*
X14515Y19820D01*
X14480Y19736D01*
X14445Y19820D01*
X14291Y19974D01*
X14089Y20058D01*
X13871Y20058D01*
X13669Y19974D01*
X13515Y19820D01*
X13480Y19736D01*
X13445Y19820D01*
X13291Y19974D01*
X13089Y20058D01*
X12871Y20058D01*
X12669Y19974D01*
X12515Y19820D01*
X12480Y19736D01*
X12445Y19820D01*
X12291Y19974D01*
X12089Y20058D01*
X11871Y20058D01*
X11669Y19974D01*
X11529Y19834D01*
X11529Y19858D01*
X11491Y19950D01*
X11421Y20020D01*
X11330Y20058D01*
X11231Y20058D01*
X10631Y20058D01*
X10539Y20020D01*
X10469Y19950D01*
X10431Y19859D01*
X10431Y19760D01*
X10431Y19160D01*
X10462Y19085D01*
X10459Y19081D01*
X10421Y18990D01*
X10421Y18891D01*
X10421Y18343D01*
X10405Y18343D01*
X9947Y18801D01*
X9885Y18951D01*
X9807Y19029D01*
X9807Y19141D01*
X9863Y19197D01*
X9947Y19399D01*
X9947Y19617D01*
X9863Y19819D01*
X9709Y19973D01*
X9507Y20057D01*
X9289Y20057D01*
X9087Y19973D01*
X8933Y19819D01*
X8898Y19735D01*
X8863Y19819D01*
X8709Y19973D01*
X8507Y20057D01*
X8289Y20057D01*
X8087Y19973D01*
X7933Y19819D01*
X7898Y19735D01*
X7863Y19819D01*
X7709Y19973D01*
X7507Y20057D01*
X7289Y20057D01*
X7087Y19973D01*
X6933Y19819D01*
X6898Y19735D01*
X6863Y19819D01*
X6709Y19973D01*
X6507Y20057D01*
X6289Y20057D01*
X6087Y19973D01*
X5933Y19819D01*
X5898Y19735D01*
X5863Y19819D01*
X5709Y19973D01*
X5507Y20057D01*
X5289Y20057D01*
X5087Y19973D01*
X4933Y19819D01*
X4898Y19735D01*
X4863Y19819D01*
X4709Y19973D01*
X4507Y20057D01*
X4289Y20057D01*
X4087Y19973D01*
X3933Y19819D01*
X3849Y19617D01*
X3849Y19399D01*
X3933Y19197D01*
X4058Y19072D01*
X4058Y19054D01*
X3955Y18951D01*
X3871Y18749D01*
X3871Y18544D01*
X2974Y17646D01*
X2969Y17639D01*
X2969Y18290D01*
X2969Y18389D01*
X2969Y18989D01*
X2931Y19081D01*
X2919Y19093D01*
X2947Y19158D01*
X2947Y19257D01*
X2947Y19857D01*
X2909Y19949D01*
X2839Y20019D01*
X2748Y20057D01*
X2649Y20057D01*
X2049Y20057D01*
X1957Y20019D01*
X1887Y19949D01*
X1849Y19858D01*
X1849Y19759D01*
X1849Y19159D01*
X1887Y19067D01*
X1898Y19056D01*
X1871Y18990D01*
X1871Y18891D01*
X1871Y18291D01*
X1909Y18199D01*
X1979Y18129D01*
X2070Y18091D01*
X2169Y18091D01*
X2769Y18091D01*
X2861Y18129D01*
X2931Y18199D01*
X2969Y18290D01*
X2969Y17639D01*
X2942Y17599D01*
X2876Y17599D01*
X2784Y17561D01*
X2714Y17491D01*
X2676Y17400D01*
X2676Y17301D01*
X2676Y16951D01*
X2714Y16859D01*
X2773Y16800D01*
X2714Y16741D01*
X2676Y16650D01*
X2676Y16551D01*
X2676Y16201D01*
X2714Y16109D01*
X2784Y16039D01*
X2875Y16001D01*
X2879Y16001D01*
X2879Y15884D01*
X2823Y15860D01*
X2753Y15790D01*
X2715Y15699D01*
X2715Y15600D01*
X2715Y15128D01*
X2753Y15036D01*
X2823Y14966D01*
X2914Y14928D01*
X3013Y14928D01*
X3485Y14928D01*
X3577Y14966D01*
X3647Y15036D01*
X3685Y15127D01*
X3685Y15226D01*
X3685Y15698D01*
X3647Y15790D01*
X3577Y15860D01*
X3519Y15885D01*
X3519Y16001D01*
X3524Y16001D01*
X3616Y16039D01*
X3686Y16109D01*
X3724Y16200D01*
X3724Y16299D01*
X3724Y16649D01*
X3686Y16741D01*
X3627Y16800D01*
X3686Y16859D01*
X3724Y16950D01*
X3724Y17049D01*
X3724Y17399D01*
X3696Y17465D01*
X4323Y18091D01*
X4529Y18091D01*
X4731Y18175D01*
X4885Y18329D01*
X4920Y18414D01*
X4955Y18329D01*
X5109Y18175D01*
X5311Y18091D01*
X5529Y18091D01*
X5731Y18175D01*
X5885Y18329D01*
X5920Y18414D01*
X5955Y18329D01*
X6109Y18175D01*
X6311Y18091D01*
X6529Y18091D01*
X6731Y18175D01*
X6885Y18329D01*
X6920Y18414D01*
X6955Y18329D01*
X7109Y18175D01*
X7311Y18091D01*
X7529Y18091D01*
X4152Y14712D01*
X4082Y14609D01*
X4058Y14486D01*
X4058Y9377D01*
X4082Y9254D01*
X4152Y9151D01*
X4833Y8469D01*
X4804Y8439D01*
X4739Y8283D01*
X4739Y8114D01*
X4803Y7958D01*
X4923Y7838D01*
X5079Y7773D01*
X5248Y7773D01*
X5404Y7837D01*
X5524Y7957D01*
X5589Y8113D01*
X5589Y8282D01*
X5525Y8438D01*
X5484Y8479D01*
X5484Y8591D01*
X5460Y8713D01*
X5459Y8714D01*
X5436Y8748D01*
X5390Y8817D01*
X5390Y8818D01*
X4698Y9510D01*
X4698Y9784D01*
X4937Y9544D01*
X4938Y9544D01*
X4983Y9514D01*
X4983Y9513D01*
X5035Y9389D01*
X5189Y9235D01*
X5391Y9151D01*
X5609Y9151D01*
X5630Y9160D01*
X5630Y8984D01*
X5654Y8861D01*
X5724Y8758D01*
X6809Y7673D01*
X6809Y5433D01*
X3749Y8493D01*
X3749Y9049D01*
X3711Y9141D01*
X3641Y9211D01*
X3550Y9249D01*
X3525Y9249D01*
X3665Y9389D01*
X3749Y9591D01*
X3749Y9809D01*
X3665Y10011D01*
X3519Y10157D01*
X3519Y10243D01*
X3665Y10389D01*
X3749Y10591D01*
X3749Y10809D01*
X3665Y11011D01*
X3519Y11157D01*
X3519Y11243D01*
X3665Y11389D01*
X3749Y11591D01*
X3749Y11809D01*
X3665Y12011D01*
X3511Y12165D01*
X3309Y12249D01*
X3091Y12249D01*
X2889Y12165D01*
X2735Y12011D01*
X2651Y11809D01*
X2651Y11591D01*
X2735Y11389D01*
X2879Y11245D01*
X2879Y11155D01*
X2735Y11011D01*
X2651Y10809D01*
X2651Y10591D01*
X2735Y10389D01*
X2879Y10245D01*
X2879Y10155D01*
X2735Y10011D01*
X2651Y9809D01*
X2651Y9591D01*
X2735Y9389D01*
X2875Y9249D01*
X2851Y9249D01*
X2759Y9211D01*
X2689Y9141D01*
X2651Y9050D01*
X2651Y8951D01*
X2651Y8351D01*
X2689Y8259D01*
X2759Y8189D01*
X2850Y8151D01*
X2949Y8151D01*
X3187Y8151D01*
X6416Y4922D01*
X6416Y2726D01*
X6345Y2897D01*
X6198Y3045D01*
X6005Y3125D01*
X5796Y3125D01*
X5603Y3045D01*
X5455Y2898D01*
X5375Y2705D01*
X5375Y2496D01*
X5455Y2303D01*
X5602Y2155D01*
X5630Y2144D01*
X5630Y1022D01*
X5555Y991D01*
X5485Y921D01*
X5447Y830D01*
X5447Y731D01*
X5447Y131D01*
X5485Y39D01*
X5555Y-31D01*
X5646Y-69D01*
X5745Y-69D01*
X6345Y-69D01*
X6437Y-31D01*
X6507Y39D01*
X6545Y130D01*
X6545Y155D01*
X6685Y15D01*
X6887Y-69D01*
X7105Y-69D01*
X7307Y15D01*
X7461Y169D01*
X7496Y254D01*
X7531Y169D01*
X7685Y15D01*
X7887Y-69D01*
X8105Y-69D01*
X8307Y15D01*
X8461Y169D01*
X8545Y371D01*
X8545Y589D01*
X8461Y791D01*
X8307Y945D01*
X8235Y975D01*
X8235Y3089D01*
X8211Y3211D01*
X8210Y3212D01*
X8187Y3246D01*
X8141Y3315D01*
X8141Y3316D01*
X7449Y4008D01*
X7449Y7805D01*
X7425Y7927D01*
X7424Y7928D01*
X7401Y7962D01*
X7355Y8031D01*
X7355Y8032D01*
X6270Y9117D01*
X6270Y9202D01*
X6391Y9151D01*
X6609Y9151D01*
X6811Y9235D01*
X6965Y9389D01*
X7049Y9591D01*
X7049Y9809D01*
X6965Y10011D01*
X6811Y10165D01*
X6726Y10200D01*
X6811Y10235D01*
X6965Y10389D01*
X7049Y10591D01*
X7049Y10809D01*
X6965Y11011D01*
X6811Y11165D01*
X6609Y11249D01*
X6391Y11249D01*
X6189Y11165D01*
X6049Y11025D01*
X6049Y11049D01*
X6011Y11141D01*
X5941Y11211D01*
X5850Y11249D01*
X5751Y11249D01*
X5151Y11249D01*
X5115Y11235D01*
X7748Y13866D01*
X7748Y13867D01*
X7794Y13936D01*
X7817Y13970D01*
X7818Y13971D01*
X7841Y14093D01*
X7842Y14093D01*
X7842Y14709D01*
X7984Y14768D01*
X8138Y14922D01*
X8173Y15007D01*
X8208Y14922D01*
X8362Y14768D01*
X8564Y14684D01*
X8782Y14684D01*
X8984Y14768D01*
X9138Y14922D01*
X9173Y15007D01*
X9208Y14922D01*
X9362Y14768D01*
X9564Y14684D01*
X9782Y14684D01*
X9984Y14768D01*
X10138Y14922D01*
X10173Y15007D01*
X10208Y14922D01*
X10362Y14768D01*
X10564Y14684D01*
X10782Y14684D01*
X10984Y14768D01*
X11138Y14922D01*
X11173Y15007D01*
X11208Y14922D01*
X11362Y14768D01*
X11564Y14684D01*
X11782Y14684D01*
X11984Y14768D01*
X12138Y14922D01*
X12173Y15007D01*
X12208Y14922D01*
X12362Y14768D01*
X12564Y14684D01*
X12782Y14684D01*
X12984Y14768D01*
X13138Y14922D01*
X13173Y15007D01*
X13208Y14922D01*
X13362Y14768D01*
X13564Y14684D01*
X13782Y14684D01*
X13984Y14768D01*
X14124Y14908D01*
X14124Y14884D01*
X14162Y14792D01*
X14232Y14722D01*
X14323Y14684D01*
X14422Y14684D01*
X15022Y14684D01*
X15114Y14722D01*
X15184Y14792D01*
X15222Y14883D01*
X15222Y14982D01*
X15222Y15582D01*
X15184Y15674D01*
X15114Y15744D01*
X15023Y15782D01*
X14924Y15782D01*
X14324Y15782D01*
X14232Y15744D01*
X14162Y15674D01*
X14124Y15583D01*
X14124Y15558D01*
X13984Y15698D01*
X13782Y15782D01*
X13564Y15782D01*
X13362Y15698D01*
X13208Y15544D01*
X13173Y15460D01*
X13138Y15544D01*
X12984Y15698D01*
X12782Y15782D01*
X12564Y15782D01*
X12362Y15698D01*
X12208Y15544D01*
X12173Y15460D01*
X12138Y15544D01*
X11984Y15698D01*
X11782Y15782D01*
X11564Y15782D01*
X11362Y15698D01*
X11208Y15544D01*
X11173Y15460D01*
X11138Y15544D01*
X10984Y15698D01*
X10782Y15782D01*
X10564Y15782D01*
X10362Y15698D01*
X10208Y15544D01*
X10173Y15460D01*
X10138Y15544D01*
X9984Y15698D01*
X9782Y15782D01*
X9564Y15782D01*
X9362Y15698D01*
X9208Y15544D01*
X9173Y15460D01*
X9138Y15544D01*
X8984Y15698D01*
X8782Y15782D01*
X8564Y15782D01*
X8362Y15698D01*
X8208Y15544D01*
X8173Y15460D01*
X8138Y15544D01*
X7984Y15698D01*
X7782Y15782D01*
X7564Y15782D01*
X7362Y15698D01*
X7208Y15544D01*
X7124Y15342D01*
X7124Y15124D01*
X7202Y14937D01*
X7202Y14226D01*
X4698Y11722D01*
X4698Y14354D01*
X8141Y17797D01*
X8211Y17900D01*
X8211Y17901D01*
X8235Y18023D01*
X8235Y18123D01*
X8311Y18091D01*
X8529Y18091D01*
X8731Y18175D01*
X8885Y18329D01*
X8920Y18414D01*
X8955Y18329D01*
X9109Y18175D01*
X9311Y18091D01*
X9529Y18091D01*
X9686Y18157D01*
X10046Y17797D01*
X10047Y17797D01*
X10116Y17751D01*
X10150Y17728D01*
X10151Y17727D01*
X10273Y17703D01*
X13284Y17703D01*
X17084Y13903D01*
X17062Y13850D01*
X17062Y13751D01*
X17062Y13151D01*
X17100Y13059D01*
X17170Y12989D01*
X17261Y12951D01*
X17286Y12951D01*
X17146Y12811D01*
X17062Y12609D01*
X17062Y12391D01*
X17146Y12189D01*
X17300Y12035D01*
X17384Y12000D01*
X17300Y11965D01*
X17146Y11811D01*
X17062Y11609D01*
X17062Y11391D01*
X17146Y11189D01*
X17300Y11035D01*
X17384Y11000D01*
X17300Y10965D01*
X17146Y10811D01*
X17062Y10609D01*
X17062Y10391D01*
X17146Y10189D01*
X17300Y10035D01*
X17384Y10000D01*
X17300Y9965D01*
X17146Y9811D01*
X17062Y9609D01*
X17062Y9391D01*
X17146Y9189D01*
X17300Y9035D01*
X17384Y9000D01*
X17300Y8965D01*
X17146Y8811D01*
X17062Y8609D01*
X17062Y8518D01*
X16954Y8518D01*
X16832Y8494D01*
X16728Y8424D01*
X16658Y8320D01*
X16634Y8198D01*
X16634Y7938D01*
X16335Y7638D01*
X16265Y7535D01*
X16241Y7412D01*
X16241Y5580D01*
X15156Y4494D01*
X15086Y4391D01*
X15062Y4268D01*
X15062Y4195D01*
X14989Y4195D01*
X14867Y4171D01*
X14763Y4101D01*
X13191Y2529D01*
X13121Y2426D01*
X13097Y2303D01*
X13097Y2043D01*
X13028Y1974D01*
X12655Y1974D01*
X12563Y1936D01*
X12493Y1866D01*
X12455Y1775D01*
X12455Y1676D01*
X12455Y1076D01*
X12493Y984D01*
X12524Y953D01*
X12493Y921D01*
X12455Y830D01*
X12455Y731D01*
X12455Y131D01*
X12493Y39D01*
X12563Y-31D01*
X12654Y-69D01*
X12753Y-69D01*
X13353Y-69D01*
X13445Y-31D01*
X13515Y39D01*
X13553Y130D01*
X13553Y149D01*
X13570Y132D01*
X13584Y112D01*
X13613Y92D01*
X13643Y65D01*
X13693Y15D01*
X13895Y-69D01*
X14113Y-69D01*
X14315Y15D01*
X14469Y169D01*
X14504Y254D01*
X14539Y169D01*
X14693Y15D01*
X14895Y-69D01*
X15113Y-69D01*
X15315Y15D01*
X15469Y169D01*
X15504Y254D01*
X15539Y169D01*
X15693Y15D01*
X15895Y-69D01*
X16113Y-69D01*
X16315Y15D01*
X16469Y169D01*
X16504Y254D01*
X16539Y169D01*
X16693Y15D01*
X16895Y-69D01*
X17113Y-69D01*
X17315Y15D01*
X17469Y169D01*
X17504Y254D01*
X17539Y169D01*
X17693Y15D01*
X17895Y-69D01*
X18113Y-69D01*
X18315Y15D01*
X18469Y169D01*
X18553Y371D01*
X18553Y-179D01*
X18239Y-493D01*
X11545Y-493D01*
X11545Y371D01*
X11545Y589D01*
X11461Y791D01*
X11307Y945D01*
X11105Y1029D01*
X10887Y1029D01*
X10685Y945D01*
X10531Y791D01*
X10447Y589D01*
X10447Y371D01*
X10531Y169D01*
X10685Y15D01*
X10887Y-69D01*
X11105Y-69D01*
X11307Y15D01*
X11461Y169D01*
X11545Y371D01*
X11545Y-493D01*
X3425Y-493D01*
X3425Y2495D01*
X3425Y2704D01*
X3345Y2897D01*
X3198Y3045D01*
X3005Y3125D01*
X2796Y3125D01*
X2603Y3045D01*
X2455Y2898D01*
X2375Y2705D01*
X2375Y2496D01*
X2455Y2303D01*
X2602Y2155D01*
X2795Y2075D01*
X3004Y2075D01*
X3197Y2155D01*
X3345Y2302D01*
X3425Y2495D01*
X3425Y-493D01*
X2139Y-493D01*
X1381Y265D01*
X1381Y19514D01*
X2139Y20273D01*
X18239Y20273D01*
X18997Y19514D01*
X18997Y265D01*
X18997Y265D01*
G37*
G54D18*
X18997Y265D02*
X18553Y-179D01*
X18553Y371D01*
X18553Y589D01*
X18469Y791D01*
X18453Y807D01*
X18453Y1098D01*
X18469Y1114D01*
X18553Y1316D01*
X18553Y1534D01*
X18469Y1736D01*
X18315Y1890D01*
X18113Y1974D01*
X17895Y1974D01*
X17693Y1890D01*
X17539Y1736D01*
X17504Y1652D01*
X17469Y1736D01*
X17315Y1890D01*
X17113Y1974D01*
X16895Y1974D01*
X16693Y1890D01*
X16539Y1736D01*
X16504Y1652D01*
X16469Y1736D01*
X16315Y1890D01*
X16113Y1974D01*
X15898Y1974D01*
X17966Y4041D01*
X17966Y4042D01*
X18012Y4111D01*
X18035Y4145D01*
X18036Y4146D01*
X18059Y4268D01*
X18060Y4268D01*
X18060Y6173D01*
X18076Y6189D01*
X18160Y6391D01*
X18160Y6609D01*
X18076Y6811D01*
X17922Y6965D01*
X17837Y7000D01*
X17922Y7035D01*
X18076Y7189D01*
X18160Y7391D01*
X18160Y7609D01*
X18076Y7811D01*
X17922Y7965D01*
X17837Y8000D01*
X17922Y8035D01*
X18076Y8189D01*
X18160Y8391D01*
X18160Y8609D01*
X18076Y8811D01*
X17922Y8965D01*
X17837Y9000D01*
X17922Y9035D01*
X18076Y9189D01*
X18160Y9391D01*
X18160Y9609D01*
X18076Y9811D01*
X17922Y9965D01*
X17837Y10000D01*
X17922Y10035D01*
X18076Y10189D01*
X18160Y10391D01*
X18160Y10609D01*
X18076Y10811D01*
X17922Y10965D01*
X17837Y11000D01*
X17922Y11035D01*
X18076Y11189D01*
X18160Y11391D01*
X18160Y11609D01*
X18076Y11811D01*
X17922Y11965D01*
X17837Y12000D01*
X17922Y12035D01*
X18076Y12189D01*
X18160Y12391D01*
X18160Y12609D01*
X18076Y12811D01*
X17936Y12951D01*
X17960Y12951D01*
X18052Y12989D01*
X18122Y13059D01*
X18160Y13150D01*
X18160Y13249D01*
X18160Y13849D01*
X18122Y13941D01*
X18052Y14011D01*
X17961Y14049D01*
X17862Y14049D01*
X17843Y14049D01*
X13758Y18134D01*
X13861Y18091D01*
X14079Y18091D01*
X14281Y18175D01*
X14435Y18329D01*
X14470Y18414D01*
X14505Y18329D01*
X14659Y18175D01*
X14861Y18091D01*
X15079Y18091D01*
X15281Y18175D01*
X15435Y18329D01*
X15470Y18414D01*
X15505Y18329D01*
X15659Y18175D01*
X15861Y18091D01*
X16079Y18091D01*
X16281Y18175D01*
X16435Y18329D01*
X16470Y18414D01*
X16505Y18329D01*
X16659Y18175D01*
X16861Y18091D01*
X17079Y18091D01*
X17281Y18175D01*
X17435Y18329D01*
X17470Y18414D01*
X17505Y18329D01*
X17659Y18175D01*
X17861Y18091D01*
X18079Y18091D01*
X18281Y18175D01*
X18435Y18329D01*
X18519Y18531D01*
X18519Y18749D01*
X18453Y18908D01*
X18453Y19218D01*
X18529Y19400D01*
X18529Y19618D01*
X18445Y19820D01*
X18291Y19974D01*
X18089Y20058D01*
X17871Y20058D01*
X17669Y19974D01*
X17515Y19820D01*
X17480Y19736D01*
X17445Y19820D01*
X17291Y19974D01*
X17089Y20058D01*
X16871Y20058D01*
X16669Y19974D01*
X16515Y19820D01*
X16480Y19736D01*
X16445Y19820D01*
X16291Y19974D01*
X16089Y20058D01*
X15871Y20058D01*
X15669Y19974D01*
X15515Y19820D01*
X15480Y19736D01*
X15445Y19820D01*
X15291Y19974D01*
X15089Y20058D01*
X14871Y20058D01*
X14669Y19974D01*
X14515Y19820D01*
X14480Y19736D01*
X14445Y19820D01*
X14291Y19974D01*
X14089Y20058D01*
X13871Y20058D01*
X13669Y19974D01*
X13515Y19820D01*
X13480Y19736D01*
X13445Y19820D01*
X13291Y19974D01*
X13089Y20058D01*
X12871Y20058D01*
X12669Y19974D01*
X12515Y19820D01*
X12480Y19736D01*
X12445Y19820D01*
X12291Y19974D01*
X12089Y20058D01*
X11871Y20058D01*
X11669Y19974D01*
X11529Y19834D01*
X11529Y19858D01*
X11491Y19950D01*
X11421Y20020D01*
X11330Y20058D01*
X11231Y20058D01*
X10631Y20058D01*
X10539Y20020D01*
X10469Y19950D01*
X10431Y19859D01*
X10431Y19760D01*
X10431Y19160D01*
X10462Y19085D01*
X10459Y19081D01*
X10421Y18990D01*
X10421Y18891D01*
X10421Y18343D01*
X10405Y18343D01*
X9947Y18801D01*
X9885Y18951D01*
X9807Y19029D01*
X9807Y19141D01*
X9863Y19197D01*
X9947Y19399D01*
X9947Y19617D01*
X9863Y19819D01*
X9709Y19973D01*
X9507Y20057D01*
X9289Y20057D01*
X9087Y19973D01*
X8933Y19819D01*
X8898Y19735D01*
X8863Y19819D01*
X8709Y19973D01*
X8507Y20057D01*
X8289Y20057D01*
X8087Y19973D01*
X7933Y19819D01*
X7898Y19735D01*
X7863Y19819D01*
X7709Y19973D01*
X7507Y20057D01*
X7289Y20057D01*
X7087Y19973D01*
X6933Y19819D01*
X6898Y19735D01*
X6863Y19819D01*
X6709Y19973D01*
X6507Y20057D01*
X6289Y20057D01*
X6087Y19973D01*
X5933Y19819D01*
X5898Y19735D01*
X5863Y19819D01*
X5709Y19973D01*
X5507Y20057D01*
X5289Y20057D01*
X5087Y19973D01*
X4933Y19819D01*
X4898Y19735D01*
X4863Y19819D01*
X4709Y19973D01*
X4507Y20057D01*
X4289Y20057D01*
X4087Y19973D01*
X3933Y19819D01*
X3849Y19617D01*
X3849Y19399D01*
X3933Y19197D01*
X4058Y19072D01*
X4058Y19054D01*
X3955Y18951D01*
X3871Y18749D01*
X3871Y18544D01*
X2974Y17646D01*
X2969Y17639D01*
X2969Y18290D01*
X2969Y18389D01*
X2969Y18989D01*
X2931Y19081D01*
X2919Y19093D01*
X2947Y19158D01*
X2947Y19257D01*
X2947Y19857D01*
X2909Y19949D01*
X2839Y20019D01*
X2748Y20057D01*
X2649Y20057D01*
X2049Y20057D01*
X1957Y20019D01*
X1887Y19949D01*
X1849Y19858D01*
X1849Y19759D01*
X1849Y19159D01*
X1887Y19067D01*
X1898Y19056D01*
X1871Y18990D01*
X1871Y18891D01*
X1871Y18291D01*
X1909Y18199D01*
X1979Y18129D01*
X2070Y18091D01*
X2169Y18091D01*
X2769Y18091D01*
X2861Y18129D01*
X2931Y18199D01*
X2969Y18290D01*
X2969Y17639D01*
X2942Y17599D01*
X2876Y17599D01*
X2784Y17561D01*
X2714Y17491D01*
X2676Y17400D01*
X2676Y17301D01*
X2676Y16951D01*
X2714Y16859D01*
X2773Y16800D01*
X2714Y16741D01*
X2676Y16650D01*
X2676Y16551D01*
X2676Y16201D01*
X2714Y16109D01*
X2784Y16039D01*
X2875Y16001D01*
X2879Y16001D01*
X2879Y15884D01*
X2823Y15860D01*
X2753Y15790D01*
X2715Y15699D01*
X2715Y15600D01*
X2715Y15128D01*
X2753Y15036D01*
X2823Y14966D01*
X2914Y14928D01*
X3013Y14928D01*
X3485Y14928D01*
X3577Y14966D01*
X3647Y15036D01*
X3685Y15127D01*
X3685Y15226D01*
X3685Y15698D01*
X3647Y15790D01*
X3577Y15860D01*
X3519Y15885D01*
X3519Y16001D01*
X3524Y16001D01*
X3616Y16039D01*
X3686Y16109D01*
X3724Y16200D01*
X3724Y16299D01*
X3724Y16649D01*
X3686Y16741D01*
X3627Y16800D01*
X3686Y16859D01*
X3724Y16950D01*
X3724Y17049D01*
X3724Y17399D01*
X3696Y17465D01*
X4323Y18091D01*
X4529Y18091D01*
X4731Y18175D01*
X4885Y18329D01*
X4920Y18414D01*
X4955Y18329D01*
X5109Y18175D01*
X5311Y18091D01*
X5529Y18091D01*
X5731Y18175D01*
X5885Y18329D01*
X5920Y18414D01*
X5955Y18329D01*
X6109Y18175D01*
X6311Y18091D01*
X6529Y18091D01*
X6731Y18175D01*
X6885Y18329D01*
X6920Y18414D01*
X6955Y18329D01*
X7109Y18175D01*
X7311Y18091D01*
X7529Y18091D01*
X4152Y14712D01*
X4082Y14609D01*
X4058Y14486D01*
X4058Y9377D01*
X4082Y9254D01*
X4152Y9151D01*
X4833Y8469D01*
X4804Y8439D01*
X4739Y8283D01*
X4739Y8114D01*
X4803Y7958D01*
X4923Y7838D01*
X5079Y7773D01*
X5248Y7773D01*
X5404Y7837D01*
X5524Y7957D01*
X5589Y8113D01*
X5589Y8282D01*
X5525Y8438D01*
X5484Y8479D01*
X5484Y8591D01*
X5460Y8713D01*
X5459Y8714D01*
X5436Y8748D01*
X5390Y8817D01*
X5390Y8818D01*
X4698Y9510D01*
X4698Y9784D01*
X4937Y9544D01*
X4938Y9544D01*
X4983Y9514D01*
X4983Y9513D01*
X5035Y9389D01*
X5189Y9235D01*
X5391Y9151D01*
X5609Y9151D01*
X5630Y9160D01*
X5630Y8984D01*
X5654Y8861D01*
X5724Y8758D01*
X6809Y7673D01*
X6809Y5433D01*
X3749Y8493D01*
X3749Y9049D01*
X3711Y9141D01*
X3641Y9211D01*
X3550Y9249D01*
X3525Y9249D01*
X3665Y9389D01*
X3749Y9591D01*
X3749Y9809D01*
X3665Y10011D01*
X3519Y10157D01*
X3519Y10243D01*
X3665Y10389D01*
X3749Y10591D01*
X3749Y10809D01*
X3665Y11011D01*
X3519Y11157D01*
X3519Y11243D01*
X3665Y11389D01*
X3749Y11591D01*
X3749Y11809D01*
X3665Y12011D01*
X3511Y12165D01*
X3309Y12249D01*
X3091Y12249D01*
X2889Y12165D01*
X2735Y12011D01*
X2651Y11809D01*
X2651Y11591D01*
X2735Y11389D01*
X2879Y11245D01*
X2879Y11155D01*
X2735Y11011D01*
X2651Y10809D01*
X2651Y10591D01*
X2735Y10389D01*
X2879Y10245D01*
X2879Y10155D01*
X2735Y10011D01*
X2651Y9809D01*
X2651Y9591D01*
X2735Y9389D01*
X2875Y9249D01*
X2851Y9249D01*
X2759Y9211D01*
X2689Y9141D01*
X2651Y9050D01*
X2651Y8951D01*
X2651Y8351D01*
X2689Y8259D01*
X2759Y8189D01*
X2850Y8151D01*
X2949Y8151D01*
X3187Y8151D01*
X6416Y4922D01*
X6416Y2726D01*
X6345Y2897D01*
X6198Y3045D01*
X6005Y3125D01*
X5796Y3125D01*
X5603Y3045D01*
X5455Y2898D01*
X5375Y2705D01*
X5375Y2496D01*
X5455Y2303D01*
X5602Y2155D01*
X5630Y2144D01*
X5630Y1022D01*
X5555Y991D01*
X5485Y921D01*
X5447Y830D01*
X5447Y731D01*
X5447Y131D01*
X5485Y39D01*
X5555Y-31D01*
X5646Y-69D01*
X5745Y-69D01*
X6345Y-69D01*
X6437Y-31D01*
X6507Y39D01*
X6545Y130D01*
X6545Y155D01*
X6685Y15D01*
X6887Y-69D01*
X7105Y-69D01*
X7307Y15D01*
X7461Y169D01*
X7496Y254D01*
X7531Y169D01*
X7685Y15D01*
X7887Y-69D01*
X8105Y-69D01*
X8307Y15D01*
X8461Y169D01*
X8545Y371D01*
X8545Y589D01*
X8461Y791D01*
X8307Y945D01*
X8235Y975D01*
X8235Y3089D01*
X8211Y3211D01*
X8210Y3212D01*
X8187Y3246D01*
X8141Y3315D01*
X8141Y3316D01*
X7449Y4008D01*
X7449Y7805D01*
X7425Y7927D01*
X7424Y7928D01*
X7401Y7962D01*
X7355Y8031D01*
X7355Y8032D01*
X6270Y9117D01*
X6270Y9202D01*
X6391Y9151D01*
X6609Y9151D01*
X6811Y9235D01*
X6965Y9389D01*
X7049Y9591D01*
X7049Y9809D01*
X6965Y10011D01*
X6811Y10165D01*
X6726Y10200D01*
X6811Y10235D01*
X6965Y10389D01*
X7049Y10591D01*
X7049Y10809D01*
X6965Y11011D01*
X6811Y11165D01*
X6609Y11249D01*
X6391Y11249D01*
X6189Y11165D01*
X6049Y11025D01*
X6049Y11049D01*
X6011Y11141D01*
X5941Y11211D01*
X5850Y11249D01*
X5751Y11249D01*
X5151Y11249D01*
X5115Y11235D01*
X7748Y13866D01*
X7748Y13867D01*
X7794Y13936D01*
X7817Y13970D01*
X7818Y13971D01*
X7841Y14093D01*
X7842Y14093D01*
X7842Y14709D01*
X7984Y14768D01*
X8138Y14922D01*
X8173Y15007D01*
X8208Y14922D01*
X8362Y14768D01*
X8564Y14684D01*
X8782Y14684D01*
X8984Y14768D01*
X9138Y14922D01*
X9173Y15007D01*
X9208Y14922D01*
X9362Y14768D01*
X9564Y14684D01*
X9782Y14684D01*
X9984Y14768D01*
X10138Y14922D01*
X10173Y15007D01*
X10208Y14922D01*
X10362Y14768D01*
X10564Y14684D01*
X10782Y14684D01*
X10984Y14768D01*
X11138Y14922D01*
X11173Y15007D01*
X11208Y14922D01*
X11362Y14768D01*
X11564Y14684D01*
X11782Y14684D01*
X11984Y14768D01*
X12138Y14922D01*
X12173Y15007D01*
X12208Y14922D01*
X12362Y14768D01*
X12564Y14684D01*
X12782Y14684D01*
X12984Y14768D01*
X13138Y14922D01*
X13173Y15007D01*
X13208Y14922D01*
X13362Y14768D01*
X13564Y14684D01*
X13782Y14684D01*
X13984Y14768D01*
X14124Y14908D01*
X14124Y14884D01*
X14162Y14792D01*
X14232Y14722D01*
X14323Y14684D01*
X14422Y14684D01*
X15022Y14684D01*
X15114Y14722D01*
X15184Y14792D01*
X15222Y14883D01*
X15222Y14982D01*
X15222Y15582D01*
X15184Y15674D01*
X15114Y15744D01*
X15023Y15782D01*
X14924Y15782D01*
X14324Y15782D01*
X14232Y15744D01*
X14162Y15674D01*
X14124Y15583D01*
X14124Y15558D01*
X13984Y15698D01*
X13782Y15782D01*
X13564Y15782D01*
X13362Y15698D01*
X13208Y15544D01*
X13173Y15460D01*
X13138Y15544D01*
X12984Y15698D01*
X12782Y15782D01*
X12564Y15782D01*
X12362Y15698D01*
X12208Y15544D01*
X12173Y15460D01*
X12138Y15544D01*
X11984Y15698D01*
X11782Y15782D01*
X11564Y15782D01*
X11362Y15698D01*
X11208Y15544D01*
X11173Y15460D01*
X11138Y15544D01*
X10984Y15698D01*
X10782Y15782D01*
X10564Y15782D01*
X10362Y15698D01*
X10208Y15544D01*
X10173Y15460D01*
X10138Y15544D01*
X9984Y15698D01*
X9782Y15782D01*
X9564Y15782D01*
X9362Y15698D01*
X9208Y15544D01*
X9173Y15460D01*
X9138Y15544D01*
X8984Y15698D01*
X8782Y15782D01*
X8564Y15782D01*
X8362Y15698D01*
X8208Y15544D01*
X8173Y15460D01*
X8138Y15544D01*
X7984Y15698D01*
X7782Y15782D01*
X7564Y15782D01*
X7362Y15698D01*
X7208Y15544D01*
X7124Y15342D01*
X7124Y15124D01*
X7202Y14937D01*
X7202Y14226D01*
X4698Y11722D01*
X4698Y14354D01*
X8141Y17797D01*
X8211Y17900D01*
X8211Y17901D01*
X8235Y18023D01*
X8235Y18123D01*
X8311Y18091D01*
X8529Y18091D01*
X8731Y18175D01*
X8885Y18329D01*
X8920Y18414D01*
X8955Y18329D01*
X9109Y18175D01*
X9311Y18091D01*
X9529Y18091D01*
X9686Y18157D01*
X10046Y17797D01*
X10047Y17797D01*
X10116Y17751D01*
X10150Y17728D01*
X10151Y17727D01*
X10273Y17703D01*
X13284Y17703D01*
X17084Y13903D01*
X17062Y13850D01*
X17062Y13751D01*
X17062Y13151D01*
X17100Y13059D01*
X17170Y12989D01*
X17261Y12951D01*
X17286Y12951D01*
X17146Y12811D01*
X17062Y12609D01*
X17062Y12391D01*
X17146Y12189D01*
X17300Y12035D01*
X17384Y12000D01*
X17300Y11965D01*
X17146Y11811D01*
X17062Y11609D01*
X17062Y11391D01*
X17146Y11189D01*
X17300Y11035D01*
X17384Y11000D01*
X17300Y10965D01*
X17146Y10811D01*
X17062Y10609D01*
X17062Y10391D01*
X17146Y10189D01*
X17300Y10035D01*
X17384Y10000D01*
X17300Y9965D01*
X17146Y9811D01*
X17062Y9609D01*
X17062Y9391D01*
X17146Y9189D01*
X17300Y9035D01*
X17384Y9000D01*
X17300Y8965D01*
X17146Y8811D01*
X17062Y8609D01*
X17062Y8518D01*
X16954Y8518D01*
X16832Y8494D01*
X16728Y8424D01*
X16658Y8320D01*
X16634Y8198D01*
X16634Y7938D01*
X16335Y7638D01*
X16265Y7535D01*
X16241Y7412D01*
X16241Y5580D01*
X15156Y4494D01*
X15086Y4391D01*
X15062Y4268D01*
X15062Y4195D01*
X14989Y4195D01*
X14867Y4171D01*
X14763Y4101D01*
X13191Y2529D01*
X13121Y2426D01*
X13097Y2303D01*
X13097Y2043D01*
X13028Y1974D01*
X12655Y1974D01*
X12563Y1936D01*
X12493Y1866D01*
X12455Y1775D01*
X12455Y1676D01*
X12455Y1076D01*
X12493Y984D01*
X12524Y953D01*
X12493Y921D01*
X12455Y830D01*
X12455Y731D01*
X12455Y131D01*
X12493Y39D01*
X12563Y-31D01*
X12654Y-69D01*
X12753Y-69D01*
X13353Y-69D01*
X13445Y-31D01*
X13515Y39D01*
X13553Y130D01*
X13553Y149D01*
X13570Y132D01*
X13584Y112D01*
X13613Y92D01*
X13643Y65D01*
X13693Y15D01*
X13895Y-69D01*
X14113Y-69D01*
X14315Y15D01*
X14469Y169D01*
X14504Y254D01*
X14539Y169D01*
X14693Y15D01*
X14895Y-69D01*
X15113Y-69D01*
X15315Y15D01*
X15469Y169D01*
X15504Y254D01*
X15539Y169D01*
X15693Y15D01*
X15895Y-69D01*
X16113Y-69D01*
X16315Y15D01*
X16469Y169D01*
X16504Y254D01*
X16539Y169D01*
X16693Y15D01*
X16895Y-69D01*
X17113Y-69D01*
X17315Y15D01*
X17469Y169D01*
X17504Y254D01*
X17539Y169D01*
X17693Y15D01*
X17895Y-69D01*
X18113Y-69D01*
X18315Y15D01*
X18469Y169D01*
X18553Y371D01*
X18553Y-179D01*
X18239Y-493D01*
X11545Y-493D01*
X11545Y371D01*
X11545Y589D01*
X11461Y791D01*
X11307Y945D01*
X11105Y1029D01*
X10887Y1029D01*
X10685Y945D01*
X10531Y791D01*
X10447Y589D01*
X10447Y371D01*
X10531Y169D01*
X10685Y15D01*
X10887Y-69D01*
X11105Y-69D01*
X11307Y15D01*
X11461Y169D01*
X11545Y371D01*
X11545Y-493D01*
X3425Y-493D01*
X3425Y2495D01*
X3425Y2704D01*
X3345Y2897D01*
X3198Y3045D01*
X3005Y3125D01*
X2796Y3125D01*
X2603Y3045D01*
X2455Y2898D01*
X2375Y2705D01*
X2375Y2496D01*
X2455Y2303D01*
X2602Y2155D01*
X2795Y2075D01*
X3004Y2075D01*
X3197Y2155D01*
X3345Y2302D01*
X3425Y2495D01*
X3425Y-493D01*
X2139Y-493D01*
X1381Y265D01*
X1381Y19514D01*
X2139Y20273D01*
X18239Y20273D01*
X18997Y19514D01*
X18997Y265D01*
M02*
