G04 (created by PCBNEW-RS274X (2011-nov-30)-testing) date Wed 06 Jun 2012 07:56:20 PM EDT*
%MOIN*%
G04 Gerber Fmt 3.4, Leading zero omitted, Abs format*
%FSLAX34Y34*%
G01*
G70*
G90*
G04 APERTURE LIST*
%ADD10C,0.006*%
%ADD11R,0.0772X0.0772*%
%ADD12R,0.09X0.09*%
%ADD13C,0.09*%
%ADD14R,0.065X0.085*%
%ADD15C,0.085*%
%ADD16O,0.089X0.0811*%
%ADD17O,0.0889X0.081*%
%ADD18O,0.0811X0.089*%
%ADD19O,0.081X0.0889*%
G04 APERTURE END LIST*
G54D10*
G54D11*
X-2533Y18620D03*
X-1707Y18620D03*
G54D12*
X5996Y480D03*
G54D13*
X6996Y480D03*
X7996Y480D03*
X8996Y480D03*
X9996Y480D03*
X10996Y480D03*
G54D12*
X-1880Y10980D03*
G54D13*
X-880Y10980D03*
X-1880Y9980D03*
X-880Y9980D03*
G54D14*
X-195Y18640D03*
X555Y18640D03*
G54D15*
X-2900Y2040D03*
X-2900Y4040D03*
X100Y2040D03*
X100Y4040D03*
G54D12*
X2420Y18640D03*
G54D13*
X3420Y18640D03*
X4420Y18640D03*
X5420Y18640D03*
X6420Y18640D03*
X7420Y18640D03*
X8420Y18640D03*
X9420Y18640D03*
G54D12*
X10980Y19509D03*
G54D13*
X11980Y19509D03*
X12980Y19509D03*
X13980Y19509D03*
X14980Y19509D03*
X15980Y19509D03*
X16980Y19509D03*
X17980Y19509D03*
G54D12*
X10970Y18640D03*
G54D13*
X11970Y18640D03*
X12970Y18640D03*
X13970Y18640D03*
X14970Y18640D03*
X15970Y18640D03*
X16970Y18640D03*
X17970Y18640D03*
G54D12*
X2398Y19508D03*
G54D13*
X3398Y19508D03*
X4398Y19508D03*
X5398Y19508D03*
X6398Y19508D03*
X7398Y19508D03*
X8398Y19508D03*
X9398Y19508D03*
G54D12*
X13004Y480D03*
G54D13*
X14004Y480D03*
X15004Y480D03*
X16004Y480D03*
X17004Y480D03*
X18004Y480D03*
G54D12*
X13004Y1425D03*
G54D13*
X14004Y1425D03*
X15004Y1425D03*
X16004Y1425D03*
X17004Y1425D03*
X18004Y1425D03*
G54D12*
X100Y500D03*
G54D13*
X-900Y500D03*
X-1900Y500D03*
X-2900Y500D03*
G54D16*
X17866Y13277D03*
X15818Y12488D03*
X17866Y11348D03*
X15818Y10402D03*
G54D17*
X17866Y9223D03*
G54D16*
X15818Y8315D03*
X17866Y7607D03*
X15818Y6583D03*
G54D18*
X9322Y3435D03*
X8533Y5483D03*
X7393Y3435D03*
X6447Y5483D03*
G54D19*
X5268Y3435D03*
G54D18*
X4360Y5483D03*
X3652Y3435D03*
X2628Y5483D03*
X3062Y15952D03*
X3851Y13904D03*
X4991Y15952D03*
X5937Y13904D03*
G54D19*
X7116Y15952D03*
G54D18*
X8024Y13904D03*
X8732Y15952D03*
X9756Y13904D03*
M02*
