G04 (created by PCBNEW-RS274X (2011-nov-30)-testing) date Wed 06 Jun 2012 08:38:00 PM EDT*
%MOIN*%
G04 Gerber Fmt 3.4, Leading zero omitted, Abs format*
%FSLAX34Y34*%
G01*
G70*
G90*
G04 APERTURE LIST*
%ADD10C,0.006*%
%ADD11C,0.015*%
G04 APERTURE END LIST*
G54D10*
G54D11*
X-3783Y20716D02*
X-3885Y20711D01*
X-3987Y20698D01*
X-4088Y20675D01*
X-4186Y20644D01*
X-4281Y20605D01*
X-4372Y20557D01*
X-4459Y20502D01*
X-4541Y20439D01*
X-4617Y20370D01*
X-4686Y20294D01*
X-4749Y20212D01*
X-4804Y20125D01*
X-4852Y20034D01*
X-4891Y19939D01*
X-4922Y19841D01*
X-4945Y19740D01*
X-4958Y19638D01*
X-4963Y19536D01*
X-4965Y245D02*
X-4960Y142D01*
X-4947Y40D01*
X-4924Y-60D01*
X-4893Y-159D01*
X-4854Y-254D01*
X-4806Y-345D01*
X-4751Y-432D01*
X-4688Y-514D01*
X-4618Y-590D01*
X-4542Y-660D01*
X-4460Y-723D01*
X-4373Y-778D01*
X-4282Y-826D01*
X-4187Y-865D01*
X-4088Y-896D01*
X-3988Y-919D01*
X-3886Y-932D01*
X-3783Y-937D01*
X17864Y-938D02*
X18001Y-932D01*
X18137Y-914D01*
X18271Y-884D01*
X18403Y-842D01*
X18530Y-790D01*
X18652Y-726D01*
X18767Y-652D01*
X18877Y-569D01*
X18978Y-476D01*
X19071Y-375D01*
X19154Y-265D01*
X19228Y-149D01*
X19292Y-28D01*
X19344Y99D01*
X19386Y231D01*
X19416Y365D01*
X19434Y501D01*
X19440Y638D01*
X17866Y20718D02*
X-3783Y20718D01*
X19439Y19143D02*
X19433Y19280D01*
X19415Y19416D01*
X19385Y19550D01*
X19344Y19681D01*
X19291Y19808D01*
X19227Y19930D01*
X19154Y20046D01*
X19070Y20155D01*
X18977Y20256D01*
X18876Y20349D01*
X18767Y20433D01*
X18651Y20506D01*
X18529Y20570D01*
X18402Y20623D01*
X18271Y20664D01*
X18137Y20694D01*
X18001Y20712D01*
X17864Y20718D01*
X-4963Y19536D02*
X-4963Y245D01*
X19440Y638D02*
X19440Y19143D01*
X-3783Y-937D02*
X17866Y-937D01*
M02*
