G04 (created by PCBNEW (2013-mar-13)-testing) date Wed 12 Jun 2013 08:10:13 PM EDT*
%MOIN*%
G04 Gerber Fmt 3.4, Leading zero omitted, Abs format*
%FSLAX34Y34*%
G01*
G70*
G90*
G04 APERTURE LIST*
%ADD10C,0.006000*%
%ADD11C,0.009843*%
%ADD12C,0.007874*%
%ADD13C,0.005906*%
%ADD14C,0.015000*%
%ADD15C,0.007900*%
%ADD16C,0.008000*%
%ADD17C,0.005000*%
%ADD18C,0.010000*%
G04 APERTURE END LIST*
G54D10*
G54D11*
X53903Y-29496D02*
X53921Y-29478D01*
X53959Y-29459D01*
X54053Y-29459D01*
X54090Y-29478D01*
X54109Y-29496D01*
X54128Y-29534D01*
X54128Y-29571D01*
X54109Y-29628D01*
X53884Y-29853D01*
X54128Y-29853D01*
X54259Y-29853D02*
X54465Y-29590D01*
X54259Y-29590D02*
X54465Y-29853D01*
X54596Y-29496D02*
X54615Y-29478D01*
X54653Y-29459D01*
X54746Y-29459D01*
X54784Y-29478D01*
X54803Y-29496D01*
X54821Y-29534D01*
X54821Y-29571D01*
X54803Y-29628D01*
X54578Y-29853D01*
X54821Y-29853D01*
X55215Y-29853D02*
X55084Y-29665D01*
X54990Y-29853D02*
X54990Y-29459D01*
X55140Y-29459D01*
X55178Y-29478D01*
X55196Y-29496D01*
X55215Y-29534D01*
X55215Y-29590D01*
X55196Y-29628D01*
X55178Y-29646D01*
X55140Y-29665D01*
X54990Y-29665D01*
X55384Y-29853D02*
X55384Y-29459D01*
X55534Y-29459D01*
X55571Y-29478D01*
X55590Y-29496D01*
X55609Y-29534D01*
X55609Y-29590D01*
X55590Y-29628D01*
X55571Y-29646D01*
X55534Y-29665D01*
X55384Y-29665D01*
X55778Y-29853D02*
X55778Y-29590D01*
X55778Y-29459D02*
X55759Y-29478D01*
X55778Y-29496D01*
X55796Y-29478D01*
X55778Y-29459D01*
X55778Y-29496D01*
X52665Y-30502D02*
X52665Y-30109D01*
X52853Y-30502D02*
X52853Y-30109D01*
X52853Y-30296D02*
X53078Y-30296D01*
X53078Y-30502D02*
X53078Y-30109D01*
X53265Y-30296D02*
X53397Y-30296D01*
X53453Y-30502D02*
X53265Y-30502D01*
X53265Y-30109D01*
X53453Y-30109D01*
X54821Y-30502D02*
X54821Y-30240D01*
X54821Y-30109D02*
X54803Y-30127D01*
X54821Y-30146D01*
X54840Y-30127D01*
X54821Y-30109D01*
X54821Y-30146D01*
X55065Y-30502D02*
X55028Y-30483D01*
X55009Y-30446D01*
X55009Y-30109D01*
X55159Y-30240D02*
X55309Y-30240D01*
X55215Y-30109D02*
X55215Y-30446D01*
X55234Y-30483D01*
X55271Y-30502D01*
X55309Y-30502D01*
X55403Y-30109D02*
X55646Y-30109D01*
X55515Y-30258D01*
X55571Y-30258D01*
X55609Y-30277D01*
X55628Y-30296D01*
X55646Y-30333D01*
X55646Y-30427D01*
X55628Y-30465D01*
X55609Y-30483D01*
X55571Y-30502D01*
X55459Y-30502D01*
X55421Y-30483D01*
X55403Y-30465D01*
X55815Y-30465D02*
X55834Y-30483D01*
X55815Y-30502D01*
X55796Y-30483D01*
X55815Y-30465D01*
X55815Y-30502D01*
X56171Y-30483D02*
X56134Y-30502D01*
X56059Y-30502D01*
X56021Y-30483D01*
X56002Y-30465D01*
X55984Y-30427D01*
X55984Y-30315D01*
X56002Y-30277D01*
X56021Y-30258D01*
X56059Y-30240D01*
X56134Y-30240D01*
X56171Y-30258D01*
X56396Y-30502D02*
X56359Y-30483D01*
X56340Y-30465D01*
X56321Y-30427D01*
X56321Y-30315D01*
X56340Y-30277D01*
X56359Y-30258D01*
X56396Y-30240D01*
X56452Y-30240D01*
X56490Y-30258D01*
X56509Y-30277D01*
X56527Y-30315D01*
X56527Y-30427D01*
X56509Y-30465D01*
X56490Y-30483D01*
X56452Y-30502D01*
X56396Y-30502D01*
X56696Y-30502D02*
X56696Y-30240D01*
X56696Y-30277D02*
X56715Y-30258D01*
X56752Y-30240D01*
X56809Y-30240D01*
X56846Y-30258D01*
X56865Y-30296D01*
X56865Y-30502D01*
X56865Y-30296D02*
X56884Y-30258D01*
X56921Y-30240D01*
X56977Y-30240D01*
X57015Y-30258D01*
X57034Y-30296D01*
X57034Y-30502D01*
G54D12*
X54375Y-38675D02*
X54375Y-38350D01*
X54200Y-38500D02*
X54550Y-38500D01*
X41650Y-23600D02*
X42500Y-23600D01*
X40950Y-23600D02*
X41650Y-24200D01*
X40500Y-23600D02*
X40950Y-23600D01*
X44950Y-23600D02*
X45850Y-23600D01*
X44050Y-23600D02*
X44900Y-24150D01*
X43650Y-23600D02*
X44050Y-23600D01*
G54D13*
X40000Y-20000D02*
X40000Y-40000D01*
X57500Y-20000D02*
X40000Y-20000D01*
X57500Y-40000D02*
X57500Y-20000D01*
X40000Y-40000D02*
X57500Y-40000D01*
G54D10*
X47678Y-22087D02*
X47678Y-20513D01*
X47678Y-20513D02*
X52322Y-20513D01*
X52322Y-20513D02*
X52322Y-22087D01*
X52322Y-22087D02*
X47678Y-22087D01*
G54D14*
X57281Y-33519D02*
X54722Y-33519D01*
X54722Y-33519D02*
X54722Y-35881D01*
X54722Y-35881D02*
X57281Y-35881D01*
X57281Y-35881D02*
X57281Y-33519D01*
G54D15*
X44285Y-25300D02*
G75*
G03X44285Y-25300I-885J0D01*
G74*
G01*
G54D13*
X53100Y-38900D02*
X52100Y-38900D01*
X52100Y-38900D02*
X52100Y-37900D01*
X53290Y-37785D02*
G75*
G03X53290Y-37785I-88J0D01*
G74*
G01*
G54D16*
X53100Y-37900D02*
X40100Y-37900D01*
X40100Y-39900D02*
X53100Y-39900D01*
X53100Y-39900D02*
X53100Y-37900D01*
X40100Y-37900D02*
X40100Y-39900D01*
G54D14*
X48650Y-30050D02*
X48650Y-31600D01*
X48650Y-31600D02*
X49350Y-31600D01*
X49350Y-31600D02*
X49350Y-30050D01*
X47650Y-30050D02*
X47650Y-31600D01*
X47650Y-31600D02*
X48350Y-31600D01*
X48350Y-31600D02*
X48350Y-30050D01*
X46650Y-30050D02*
X46650Y-31550D01*
X46650Y-31550D02*
X47300Y-31550D01*
X47300Y-31550D02*
X47350Y-31550D01*
X47350Y-31550D02*
X47350Y-30050D01*
X46850Y-29400D02*
G75*
G03X46850Y-29400I-300J0D01*
G74*
G01*
X45900Y-30050D02*
X45900Y-25850D01*
X45900Y-25850D02*
X46150Y-25600D01*
X46150Y-25600D02*
X49700Y-25600D01*
X49700Y-25600D02*
X49800Y-25600D01*
X49800Y-25600D02*
X49850Y-25600D01*
X49850Y-25600D02*
X50100Y-25850D01*
X50100Y-25850D02*
X50100Y-30050D01*
X45900Y-30050D02*
X50100Y-30050D01*
X50100Y-26050D02*
X45900Y-26050D01*
G54D17*
X42000Y-36250D02*
X42000Y-36950D01*
X42000Y-36950D02*
X40800Y-36950D01*
X40800Y-36950D02*
X40800Y-36250D01*
X40800Y-36250D02*
X42000Y-36250D01*
X44800Y-36150D02*
X44800Y-36850D01*
X44800Y-36850D02*
X43600Y-36850D01*
X43600Y-36850D02*
X43600Y-36150D01*
X43600Y-36150D02*
X44800Y-36150D01*
X48200Y-33500D02*
X48200Y-33900D01*
X48200Y-33900D02*
X47600Y-33900D01*
X47600Y-33900D02*
X47600Y-33500D01*
X47600Y-33100D02*
X47600Y-32700D01*
X47600Y-32700D02*
X48200Y-32700D01*
X48200Y-32700D02*
X48200Y-33100D01*
X47600Y-35000D02*
X47600Y-34600D01*
X47600Y-34600D02*
X48200Y-34600D01*
X48200Y-34600D02*
X48200Y-35000D01*
X48200Y-35400D02*
X48200Y-35800D01*
X48200Y-35800D02*
X47600Y-35800D01*
X47600Y-35800D02*
X47600Y-35400D01*
X52700Y-35200D02*
X52700Y-34800D01*
X52700Y-34800D02*
X53300Y-34800D01*
X53300Y-34800D02*
X53300Y-35200D01*
X53300Y-35600D02*
X53300Y-36000D01*
X53300Y-36000D02*
X52700Y-36000D01*
X52700Y-36000D02*
X52700Y-35600D01*
X53300Y-34100D02*
X53300Y-34500D01*
X53300Y-34500D02*
X52700Y-34500D01*
X52700Y-34500D02*
X52700Y-34100D01*
X52700Y-33700D02*
X52700Y-33300D01*
X52700Y-33300D02*
X53300Y-33300D01*
X53300Y-33300D02*
X53300Y-33700D01*
G54D13*
X43215Y-34537D02*
X45184Y-34537D01*
X45184Y-34537D02*
X45184Y-26662D01*
X45184Y-26662D02*
X43215Y-26662D01*
X43215Y-26662D02*
X43215Y-34537D01*
X40615Y-34537D02*
X42584Y-34537D01*
X42584Y-34537D02*
X42584Y-26662D01*
X42584Y-26662D02*
X40615Y-26662D01*
X40615Y-26662D02*
X40615Y-34537D01*
G54D18*
X49900Y-36200D02*
X49900Y-35700D01*
X49900Y-35700D02*
X50900Y-35700D01*
X50900Y-35700D02*
X50900Y-36200D01*
X49400Y-36200D02*
X49400Y-32200D01*
X49400Y-32200D02*
X51400Y-32200D01*
X51400Y-32200D02*
X51400Y-36200D01*
X51400Y-36200D02*
X49400Y-36200D01*
G54D10*
X47050Y-33700D02*
X47050Y-32900D01*
X47050Y-32900D02*
X46550Y-32900D01*
X46550Y-32900D02*
X46550Y-33700D01*
X46550Y-33700D02*
X47050Y-33700D01*
X47050Y-35700D02*
X47050Y-34900D01*
X47050Y-34900D02*
X46550Y-34900D01*
X46550Y-34900D02*
X46550Y-35700D01*
X46550Y-35700D02*
X47050Y-35700D01*
G54D14*
X45981Y-22781D02*
X45981Y-20222D01*
X45981Y-20222D02*
X43619Y-20222D01*
X43619Y-20222D02*
X43619Y-22781D01*
X43619Y-22781D02*
X45981Y-22781D01*
X54719Y-38981D02*
X57278Y-38981D01*
X57278Y-38981D02*
X57278Y-36619D01*
X57278Y-36619D02*
X54719Y-36619D01*
X54719Y-36619D02*
X54719Y-38981D01*
X42681Y-22781D02*
X42681Y-20222D01*
X42681Y-20222D02*
X40319Y-20222D01*
X40319Y-20222D02*
X40319Y-22781D01*
X40319Y-22781D02*
X42681Y-22781D01*
X54819Y-22681D02*
X57378Y-22681D01*
X57378Y-22681D02*
X57378Y-20319D01*
X57378Y-20319D02*
X54819Y-20319D01*
X54819Y-20319D02*
X54819Y-22681D01*
X57374Y-26819D02*
X56941Y-26819D01*
X56941Y-26819D02*
X56941Y-24181D01*
X56941Y-24181D02*
X57335Y-24181D01*
X57433Y-27370D02*
X51567Y-27370D01*
X51567Y-27370D02*
X51567Y-23630D01*
X51567Y-23630D02*
X57433Y-23630D01*
X57433Y-23630D02*
X57433Y-27370D01*
G54D17*
X43400Y-35600D02*
X43400Y-36000D01*
X43400Y-36000D02*
X42800Y-36000D01*
X42800Y-36000D02*
X42800Y-35600D01*
X42800Y-35200D02*
X42800Y-34800D01*
X42800Y-34800D02*
X43400Y-34800D01*
X43400Y-34800D02*
X43400Y-35200D01*
X41200Y-35400D02*
X40800Y-35400D01*
X40800Y-35400D02*
X40800Y-34800D01*
X40800Y-34800D02*
X41200Y-34800D01*
X41600Y-34800D02*
X42000Y-34800D01*
X42000Y-34800D02*
X42000Y-35400D01*
X42000Y-35400D02*
X41600Y-35400D01*
M02*
