G04 (created by PCBNEW (2012-nov-02)-testing) date Mon 04 Feb 2013 05:38:42 PM EST*
%MOIN*%
G04 Gerber Fmt 3.4, Leading zero omitted, Abs format*
%FSLAX34Y34*%
G01*
G70*
G90*
G04 APERTURE LIST*
%ADD10C,0.006*%
%ADD11R,0.06X0.06*%
%ADD12C,0.06*%
%ADD13C,0.114173*%
%ADD14R,0.045X0.09*%
%ADD15R,0.4252X0.2755*%
%ADD16R,0.02X0.03*%
%ADD17R,0.055X0.035*%
%ADD18C,0.0472441*%
%ADD19C,0.0354331*%
%ADD20R,0.055X0.055*%
%ADD21C,0.055*%
%ADD22R,0.02X0.012*%
%ADD23O,0.2362X0.0984*%
%ADD24O,0.0984X0.1575*%
G04 APERTURE END LIST*
G54D10*
G54D11*
X9016Y18700D03*
G54D12*
X10000Y18700D03*
X10984Y18700D03*
G54D11*
X16100Y5800D03*
G54D12*
X16100Y4800D03*
G54D13*
X3400Y14700D03*
G54D11*
X12600Y1600D03*
G54D12*
X12600Y600D03*
X11600Y1600D03*
X11600Y600D03*
X10600Y1600D03*
X10600Y600D03*
X9600Y1600D03*
X9600Y600D03*
X8600Y1600D03*
X8600Y600D03*
X7600Y1600D03*
X7600Y600D03*
X6600Y1600D03*
X6600Y600D03*
X5600Y1600D03*
X5600Y600D03*
X4600Y1600D03*
X4600Y600D03*
X3600Y1600D03*
X3600Y600D03*
X2600Y1600D03*
X2600Y600D03*
X1600Y1600D03*
X1600Y600D03*
X600Y1600D03*
X600Y600D03*
G54D14*
X7000Y9000D03*
G54D15*
X8000Y13250D03*
G54D14*
X9000Y9000D03*
X8000Y9000D03*
G54D16*
X1025Y2900D03*
X1775Y2900D03*
X1025Y3900D03*
X1400Y2900D03*
X1775Y3900D03*
X3825Y3000D03*
X4575Y3000D03*
X3825Y4000D03*
X4200Y3000D03*
X4575Y4000D03*
G54D17*
X7900Y6325D03*
X7900Y7075D03*
X7900Y5175D03*
X7900Y4425D03*
X13000Y4975D03*
X13000Y4225D03*
X13000Y5725D03*
X13000Y6475D03*
G54D18*
X3629Y12217D03*
X3629Y9611D03*
G54D19*
X3629Y5618D03*
X3629Y6618D03*
G54D18*
X1029Y12217D03*
X1029Y9611D03*
G54D19*
X1029Y5618D03*
X1029Y6618D03*
G54D20*
X11900Y4300D03*
G54D21*
X11900Y5300D03*
X11900Y6300D03*
X11900Y7300D03*
X8900Y7300D03*
X8900Y6300D03*
X8900Y5300D03*
X8900Y4300D03*
G54D22*
X6400Y6950D03*
X6400Y6450D03*
X7200Y6950D03*
X6400Y6700D03*
X7200Y6450D03*
X6400Y4950D03*
X6400Y4450D03*
X7200Y4950D03*
X6400Y4700D03*
X7200Y4450D03*
G54D11*
X5300Y18400D03*
G54D12*
X4300Y18400D03*
G54D11*
X15900Y1700D03*
G54D12*
X15900Y2700D03*
G54D11*
X2000Y18400D03*
G54D12*
X1000Y18400D03*
G54D11*
X16000Y18000D03*
G54D12*
X16000Y19000D03*
G54D23*
X13122Y16350D03*
G54D24*
X14303Y14500D03*
X11941Y14500D03*
M02*
