G04 (created by PCBNEW (2013-mar-13)-testing) date Mon 24 Jun 2013 02:45:38 PM EDT*
%MOIN*%
G04 Gerber Fmt 3.4, Leading zero omitted, Abs format*
%FSLAX34Y34*%
G01*
G70*
G90*
G04 APERTURE LIST*
%ADD10C,0.006000*%
%ADD11C,0.005906*%
%ADD12R,0.047200X0.047200*%
%ADD13R,0.066900X0.015700*%
%ADD14R,0.098400X0.070900*%
%ADD15R,0.080000X0.060000*%
%ADD16R,0.055000X0.035000*%
%ADD17R,0.030000X0.020000*%
%ADD18R,0.035000X0.055000*%
%ADD19R,0.012000X0.020000*%
%ADD20R,0.039300X0.098400*%
%ADD21R,0.060000X0.080000*%
G04 APERTURE END LIST*
G54D10*
G54D11*
X3000Y5000D02*
X0Y5000D01*
X3000Y0D02*
X3000Y5000D01*
X0Y21000D02*
X0Y5000D01*
X17500Y21000D02*
X0Y21000D01*
X17500Y0D02*
X17500Y21000D01*
X3000Y0D02*
X17500Y0D01*
G54D12*
X16600Y9187D03*
X16600Y10013D03*
G54D13*
X15358Y13900D03*
X15358Y13644D03*
X15358Y14412D03*
X15358Y14156D03*
G54D14*
X16579Y13349D03*
X16579Y14451D03*
G54D13*
X15358Y13388D03*
G54D15*
X7100Y10050D03*
X7100Y8750D03*
X3300Y10050D03*
X3300Y8750D03*
G54D16*
X4600Y6175D03*
X4600Y5425D03*
G54D17*
X7200Y3825D03*
X7200Y4575D03*
X6200Y3825D03*
X7200Y4200D03*
X6200Y4575D03*
X3200Y5725D03*
X3200Y6475D03*
X2200Y5725D03*
X3200Y6100D03*
X2200Y6475D03*
G54D18*
X525Y7400D03*
X1275Y7400D03*
X7825Y3000D03*
X8575Y3000D03*
X10375Y3000D03*
X9625Y3000D03*
G54D19*
X11350Y5000D03*
X10850Y5000D03*
X11350Y4200D03*
X11100Y5000D03*
X10850Y4200D03*
G54D12*
X1000Y5587D03*
X1000Y6413D03*
X4600Y3887D03*
X4600Y4713D03*
G54D16*
X10400Y14675D03*
X10400Y13925D03*
X9500Y14675D03*
X9500Y13925D03*
G54D18*
X15925Y10800D03*
X16675Y10800D03*
G54D20*
X12800Y15179D03*
X12800Y12820D03*
G54D21*
X16450Y3700D03*
X15150Y3700D03*
G54D18*
X11325Y7200D03*
X12075Y7200D03*
X11325Y6300D03*
X12075Y6300D03*
G54D19*
X9650Y6300D03*
X9150Y6300D03*
X9650Y5500D03*
X9400Y6300D03*
X9150Y5500D03*
M02*
