G04 (created by PCBNEW (2013-mar-13)-testing) date Thu 20 Jun 2013 05:01:11 PM EDT*
%MOIN*%
G04 Gerber Fmt 3.4, Leading zero omitted, Abs format*
%FSLAX34Y34*%
G01*
G70*
G90*
G04 APERTURE LIST*
%ADD10C,0.006000*%
%ADD11C,0.009843*%
%ADD12C,0.005906*%
%ADD13R,0.055000X0.035000*%
%ADD14R,0.060000X0.060000*%
%ADD15C,0.060000*%
%ADD16R,0.030000X0.020000*%
%ADD17R,0.035000X0.055000*%
%ADD18C,0.047244*%
%ADD19C,0.035433*%
%ADD20R,0.012000X0.020000*%
%ADD21O,0.236200X0.098400*%
%ADD22O,0.098400X0.157500*%
%ADD23R,0.047200X0.047200*%
%ADD24R,0.066900X0.015700*%
%ADD25R,0.090600X0.051200*%
%ADD26R,0.086700X0.051200*%
%ADD27R,0.059100X0.051200*%
%ADD28R,0.098400X0.070900*%
%ADD29R,0.039300X0.098400*%
%ADD30R,0.080000X0.060000*%
%ADD31R,0.060000X0.080000*%
%ADD32R,0.055000X0.055000*%
%ADD33C,0.055000*%
%ADD34C,0.035000*%
%ADD35C,0.016000*%
%ADD36C,0.020000*%
%ADD37C,0.022000*%
%ADD38C,0.014000*%
%ADD39C,0.018000*%
%ADD40C,0.010000*%
G04 APERTURE END LIST*
G54D10*
G54D11*
X8092Y12752D02*
X8235Y12371D01*
X8378Y12752D01*
X7926Y12942D02*
X7926Y13252D01*
X8116Y13085D01*
X8116Y13157D01*
X8140Y13204D01*
X8164Y13228D01*
X8211Y13252D01*
X8330Y13252D01*
X8378Y13228D01*
X8402Y13204D01*
X8426Y13157D01*
X8426Y13014D01*
X8402Y12966D01*
X8378Y12942D01*
G54D12*
X0Y21000D02*
X0Y0D01*
X17500Y21000D02*
X0Y21000D01*
X17500Y0D02*
X17500Y21000D01*
X0Y0D02*
X17500Y0D01*
G54D13*
X4800Y6275D03*
X4800Y5525D03*
G54D14*
X15000Y6316D03*
G54D15*
X15000Y7300D03*
X15000Y8284D03*
G54D14*
X12600Y2600D03*
G54D15*
X12600Y1600D03*
X11600Y2600D03*
X11600Y1600D03*
X10600Y2600D03*
X10600Y1600D03*
X9600Y2600D03*
X9600Y1600D03*
X8600Y2600D03*
X8600Y1600D03*
X7600Y2600D03*
X7600Y1600D03*
X6600Y2600D03*
X6600Y1600D03*
X5600Y2600D03*
X5600Y1600D03*
X4600Y2600D03*
X4600Y1600D03*
X3600Y2600D03*
X3600Y1600D03*
X2600Y2600D03*
X2600Y1600D03*
X1600Y2600D03*
X1600Y1600D03*
X600Y2600D03*
X600Y1600D03*
G54D16*
X7400Y3925D03*
X7400Y4675D03*
X6400Y3925D03*
X7400Y4300D03*
X6400Y4675D03*
X2900Y4025D03*
X2900Y4775D03*
X1900Y4025D03*
X2900Y4400D03*
X1900Y4775D03*
G54D13*
X900Y6275D03*
X900Y5525D03*
G54D17*
X3725Y500D03*
X4475Y500D03*
X6475Y500D03*
X5725Y500D03*
G54D18*
X829Y14117D03*
X829Y11511D03*
G54D19*
X829Y7518D03*
X829Y8518D03*
G54D18*
X4829Y14117D03*
X4829Y11511D03*
G54D19*
X4829Y7518D03*
X4829Y8518D03*
G54D20*
X11550Y5100D03*
X11050Y5100D03*
X11550Y4300D03*
X11300Y5100D03*
X11050Y4300D03*
G54D14*
X1900Y19400D03*
G54D15*
X900Y19400D03*
G54D14*
X15900Y1100D03*
G54D15*
X15900Y2100D03*
G54D21*
X13022Y20250D03*
G54D22*
X14203Y18400D03*
X11841Y18400D03*
G54D23*
X900Y3987D03*
X900Y4813D03*
X4800Y3987D03*
X4800Y4813D03*
G54D24*
X15558Y14000D03*
X15558Y13744D03*
X15558Y14512D03*
G54D25*
X16700Y12386D03*
G54D26*
X15519Y13055D03*
G54D25*
X16700Y15614D03*
G54D27*
X15519Y14945D03*
G54D24*
X15558Y14256D03*
G54D28*
X16779Y13449D03*
X16779Y14551D03*
G54D24*
X15558Y13488D03*
G54D13*
X8500Y16275D03*
X8500Y15525D03*
X7500Y16275D03*
X7500Y15525D03*
G54D17*
X16125Y10900D03*
X16875Y10900D03*
G54D29*
X13000Y15279D03*
X13000Y12920D03*
G54D30*
X3300Y8950D03*
X3300Y7650D03*
X7200Y8950D03*
X7200Y7650D03*
G54D23*
X16800Y9287D03*
X16800Y10113D03*
G54D31*
X16650Y3800D03*
X15350Y3800D03*
G54D14*
X7400Y19600D03*
G54D15*
X8400Y19600D03*
G54D17*
X11525Y7300D03*
X12275Y7300D03*
X11525Y6400D03*
X12275Y6400D03*
G54D32*
X12400Y11500D03*
G54D33*
X11400Y11500D03*
X10400Y11500D03*
X9400Y11500D03*
X9400Y8500D03*
X10400Y8500D03*
X11400Y8500D03*
X12400Y8500D03*
G54D20*
X9850Y6400D03*
X9350Y6400D03*
X9850Y5600D03*
X9600Y6400D03*
X9350Y5600D03*
G54D14*
X5200Y19400D03*
G54D15*
X4200Y19400D03*
G54D34*
X9310Y3810D03*
X3600Y4000D03*
X8000Y3900D03*
X16800Y7700D03*
X15300Y4700D03*
X14340Y14380D03*
X10460Y4100D03*
X8070Y5260D03*
X9150Y4420D03*
X9600Y7060D03*
G54D35*
X11550Y4300D02*
X11550Y4550D01*
X10790Y4660D02*
X9850Y5600D01*
X11440Y4660D02*
X10790Y4660D01*
X11550Y4550D02*
X11440Y4660D01*
G54D36*
X12275Y7300D02*
X12275Y8375D01*
X12275Y8375D02*
X12400Y8500D01*
X12275Y6400D02*
X12275Y7300D01*
X11550Y4300D02*
X11700Y4300D01*
X12275Y4875D02*
X12275Y6400D01*
X11700Y4300D02*
X12275Y4875D01*
X11550Y4300D02*
X11550Y4250D01*
X12600Y3200D02*
X12600Y2600D01*
X11550Y4250D02*
X12600Y3200D01*
G54D35*
X11600Y1600D02*
X11600Y1700D01*
X9730Y3390D02*
X9310Y3810D01*
X10750Y3390D02*
X9730Y3390D01*
X11110Y3030D02*
X10750Y3390D01*
X11110Y2190D02*
X11110Y3030D01*
X11600Y1700D02*
X11110Y2190D01*
G54D36*
X2900Y4025D02*
X3575Y4025D01*
X3575Y4025D02*
X3600Y4000D01*
X7975Y3925D02*
X7400Y3925D01*
X8000Y3900D02*
X7975Y3925D01*
X15350Y3800D02*
X15350Y4650D01*
X16800Y7700D02*
X16800Y9287D01*
X15350Y4650D02*
X15300Y4700D01*
X15900Y1100D02*
X16100Y1100D01*
X16700Y2450D02*
X15350Y3800D01*
X16700Y1700D02*
X16700Y2450D01*
X16100Y1100D02*
X16700Y1700D01*
X15900Y1100D02*
X13100Y1100D01*
X13100Y1100D02*
X12600Y1600D01*
X12600Y1600D02*
X11600Y1600D01*
G54D37*
X5700Y5400D02*
X5700Y6275D01*
G54D36*
X5700Y6275D02*
X5700Y7518D01*
X5700Y3925D02*
X5700Y5400D01*
X5700Y5400D02*
X5700Y5525D01*
X6400Y3925D02*
X5700Y3925D01*
X5700Y3925D02*
X4862Y3925D01*
X4862Y3925D02*
X4800Y3987D01*
X5700Y7518D02*
X5700Y7500D01*
X5700Y7500D02*
X5700Y7518D01*
X4829Y7518D02*
X5700Y7518D01*
X5700Y7518D02*
X7068Y7518D01*
X7068Y7518D02*
X7200Y7650D01*
G54D37*
X1800Y5525D02*
X1800Y6275D01*
G54D36*
X1800Y7650D02*
X1800Y6275D01*
X1200Y4300D02*
X1500Y4600D01*
X1500Y4600D02*
X1500Y5225D01*
X1500Y5225D02*
X1800Y5525D01*
X1200Y4300D02*
X1200Y3987D01*
X900Y3987D02*
X1200Y3987D01*
X1200Y3987D02*
X1862Y3987D01*
X1862Y3987D02*
X1900Y4025D01*
X1800Y7650D02*
X1800Y7600D01*
X1800Y7600D02*
X1800Y7650D01*
X3300Y7650D02*
X1800Y7650D01*
X1800Y7650D02*
X960Y7650D01*
X960Y7650D02*
X829Y7518D01*
G54D38*
X14645Y14685D02*
X14645Y14725D01*
X14340Y14380D02*
X14645Y14685D01*
X15558Y14512D02*
X14858Y14512D01*
X14091Y15279D02*
X13000Y15279D01*
X14858Y14512D02*
X14645Y14725D01*
X14645Y14725D02*
X14091Y15279D01*
G54D37*
X13000Y15279D02*
X13000Y17241D01*
X13000Y17241D02*
X11841Y18400D01*
G54D35*
X7600Y1600D02*
X7600Y1800D01*
X8600Y4850D02*
X9350Y5600D01*
X8600Y3640D02*
X8600Y4850D01*
X8110Y3150D02*
X8600Y3640D01*
X8110Y2310D02*
X8110Y3150D01*
X7600Y1800D02*
X8110Y2310D01*
X5600Y1600D02*
X5600Y1810D01*
X7005Y4675D02*
X7400Y4675D01*
X6900Y4570D02*
X7005Y4675D01*
X6900Y3630D02*
X6900Y4570D01*
X6770Y3500D02*
X6900Y3630D01*
X6690Y3500D02*
X6770Y3500D01*
X6100Y2910D02*
X6690Y3500D01*
X6100Y2310D02*
X6100Y2910D01*
X5600Y1810D02*
X6100Y2310D01*
G54D39*
X5725Y500D02*
X5725Y1475D01*
X5725Y1475D02*
X5600Y1600D01*
G54D35*
X4600Y1600D02*
X4600Y1640D01*
X3485Y4775D02*
X2900Y4775D01*
X4100Y4160D02*
X3485Y4775D01*
X4100Y2140D02*
X4100Y4160D01*
X4600Y1640D02*
X4100Y2140D01*
G54D39*
X4475Y500D02*
X4475Y1475D01*
X4475Y1475D02*
X4600Y1600D01*
G54D35*
X10660Y4300D02*
X11050Y4300D01*
X10460Y4100D02*
X10660Y4300D01*
G54D36*
X8500Y16275D02*
X8500Y19500D01*
X8500Y19500D02*
X8400Y19600D01*
X7500Y16275D02*
X7500Y19500D01*
X7500Y19500D02*
X7400Y19600D01*
G54D37*
X14203Y18400D02*
X14203Y19069D01*
X14203Y19069D02*
X13022Y20250D01*
G54D39*
X4800Y6275D02*
X4800Y6400D01*
X4800Y6400D02*
X4200Y7000D01*
X4200Y7000D02*
X4200Y8950D01*
G54D38*
X15519Y13055D02*
X15519Y13449D01*
X15519Y13449D02*
X15558Y13488D01*
X15558Y13488D02*
X15558Y13744D01*
X8600Y2600D02*
X8600Y2660D01*
X8900Y4170D02*
X9150Y4420D01*
X8900Y2960D02*
X8900Y4170D01*
X8600Y2660D02*
X8900Y2960D01*
X8070Y5260D02*
X8080Y5260D01*
X8080Y5260D02*
X8070Y5260D01*
X8070Y5260D02*
X8080Y5260D01*
X11050Y5100D02*
X11020Y5100D01*
X9390Y5970D02*
X8960Y6400D01*
X10150Y5970D02*
X9390Y5970D01*
X11020Y5100D02*
X10150Y5970D01*
X9350Y6400D02*
X8960Y6400D01*
X8960Y6400D02*
X8180Y6400D01*
X8180Y6400D02*
X8080Y6500D01*
G54D35*
X16779Y14551D02*
X16779Y15535D01*
X16779Y15535D02*
X16700Y15614D01*
X2900Y4400D02*
X2550Y4400D01*
X3110Y2090D02*
X3600Y1600D01*
X3110Y3000D02*
X3110Y2090D01*
X2430Y3680D02*
X3110Y3000D01*
X2430Y4280D02*
X2430Y3680D01*
X2550Y4400D02*
X2430Y4280D01*
X15000Y6316D02*
X14654Y6316D01*
X13900Y7070D02*
X13900Y11436D01*
X14654Y6316D02*
X13900Y7070D01*
X7400Y4300D02*
X7740Y4300D01*
X8080Y7180D02*
X9400Y8500D01*
X8080Y4640D02*
X8080Y5260D01*
X8080Y5260D02*
X8080Y6500D01*
X8080Y6500D02*
X8080Y7180D01*
X7740Y4300D02*
X8080Y4640D01*
X3725Y500D02*
X1530Y500D01*
X1100Y2100D02*
X600Y2600D01*
X1100Y930D02*
X1100Y2100D01*
X1530Y500D02*
X1100Y930D01*
G54D39*
X900Y6275D02*
X900Y6400D01*
X300Y7989D02*
X829Y8518D01*
X300Y7000D02*
X300Y7989D01*
X900Y6400D02*
X300Y7000D01*
X3725Y500D02*
X3725Y1475D01*
X3725Y1475D02*
X3600Y1600D01*
X6475Y500D02*
X10100Y500D01*
X10600Y1000D02*
X10600Y1600D01*
X10100Y500D02*
X10600Y1000D01*
X6600Y1600D02*
X6600Y625D01*
X6600Y625D02*
X6475Y500D01*
X10600Y1600D02*
X10500Y1600D01*
X10500Y1600D02*
X10000Y2100D01*
X10000Y2100D02*
X9100Y2100D01*
X9100Y2100D02*
X8600Y2600D01*
G54D36*
X15900Y2100D02*
X15300Y2100D01*
X15300Y2100D02*
X14400Y3000D01*
X14400Y3000D02*
X14400Y5716D01*
X14400Y5716D02*
X15000Y6316D01*
X16125Y10900D02*
X16125Y11811D01*
X16125Y11811D02*
X16700Y12386D01*
X11250Y10650D02*
X13114Y10650D01*
X13114Y10650D02*
X13900Y11436D01*
X13900Y11436D02*
X15519Y13055D01*
X9400Y11500D02*
X9400Y11000D01*
X11400Y10800D02*
X11400Y11500D01*
X11000Y10400D02*
X11250Y10650D01*
X11250Y10650D02*
X11400Y10800D01*
X10000Y10400D02*
X11000Y10400D01*
X9400Y11000D02*
X10000Y10400D01*
X7200Y8950D02*
X8950Y8950D01*
X8950Y8950D02*
X9400Y8500D01*
X9400Y8500D02*
X9400Y11500D01*
X4829Y8518D02*
X6768Y8518D01*
X6768Y8518D02*
X7200Y8950D01*
X3300Y8950D02*
X4200Y8950D01*
X4200Y8950D02*
X4398Y8950D01*
X4398Y8950D02*
X4829Y8518D01*
X3300Y8950D02*
X1260Y8950D01*
X1260Y8950D02*
X829Y8518D01*
X15519Y14945D02*
X15519Y17084D01*
X15519Y17084D02*
X14203Y18400D01*
X16700Y12386D02*
X16700Y13370D01*
X16700Y13370D02*
X16779Y13449D01*
X15519Y13055D02*
X16385Y13055D01*
X16385Y13055D02*
X16779Y13449D01*
X16779Y13449D02*
X16779Y15535D01*
X16189Y14945D02*
X15519Y14945D01*
X16779Y15535D02*
X16189Y14945D01*
X15519Y13055D02*
X13135Y13055D01*
X13135Y13055D02*
X13000Y12920D01*
X900Y4813D02*
X900Y5525D01*
X16650Y3800D02*
X16650Y5650D01*
X16650Y5650D02*
X15000Y7300D01*
X16800Y10113D02*
X16800Y10825D01*
X16800Y10825D02*
X16875Y10900D01*
X4800Y4813D02*
X4800Y5525D01*
X1900Y19400D02*
X1900Y12581D01*
X1900Y12581D02*
X829Y11511D01*
X829Y14117D02*
X829Y19329D01*
X829Y19329D02*
X900Y19400D01*
X4829Y14117D02*
X4829Y16870D01*
X4200Y17500D02*
X4200Y19400D01*
X4829Y16870D02*
X4200Y17500D01*
X5200Y19400D02*
X5200Y17700D01*
X5700Y12381D02*
X4829Y11511D01*
X5700Y17200D02*
X5700Y12381D01*
X5200Y17700D02*
X5700Y17200D01*
G54D35*
X11300Y5100D02*
X11300Y5660D01*
X11525Y5885D02*
X11525Y6400D01*
X11300Y5660D02*
X11525Y5885D01*
G54D36*
X11525Y6400D02*
X11000Y6400D01*
X10400Y7000D02*
X10400Y8500D01*
X11000Y6400D02*
X10400Y7000D01*
G54D35*
X9600Y6400D02*
X9600Y6780D01*
X9600Y6780D02*
X9600Y7060D01*
G54D36*
X11525Y7300D02*
X11525Y8375D01*
X11525Y8375D02*
X11400Y8500D01*
X10400Y11500D02*
X10400Y12100D01*
X7500Y15000D02*
X7500Y15525D01*
X10400Y12100D02*
X7500Y15000D01*
X12400Y11500D02*
X12400Y11900D01*
X8775Y15525D02*
X8500Y15525D01*
X12400Y11900D02*
X8775Y15525D01*
G54D10*
G36*
X4135Y963D02*
X4088Y916D01*
X4050Y824D01*
X4050Y725D01*
X4050Y279D01*
X279Y279D01*
X279Y1142D01*
X288Y1134D01*
X490Y1050D01*
X708Y1049D01*
X911Y1133D01*
X1065Y1288D01*
X1099Y1369D01*
X1133Y1288D01*
X1288Y1134D01*
X1490Y1050D01*
X1708Y1049D01*
X1911Y1133D01*
X2065Y1288D01*
X2099Y1369D01*
X2133Y1288D01*
X2288Y1134D01*
X2490Y1050D01*
X2708Y1049D01*
X2911Y1133D01*
X3065Y1288D01*
X3149Y1490D01*
X3150Y1708D01*
X3066Y1911D01*
X2911Y2065D01*
X2830Y2099D01*
X2911Y2133D01*
X3065Y2288D01*
X3099Y2369D01*
X3133Y2288D01*
X3288Y2134D01*
X3490Y2050D01*
X3708Y2049D01*
X3781Y2080D01*
X3795Y2013D01*
X3866Y1906D01*
X4054Y1719D01*
X4050Y1709D01*
X4049Y1491D01*
X4133Y1288D01*
X4135Y1287D01*
X4135Y963D01*
X4135Y963D01*
G37*
G54D40*
X4135Y963D02*
X4088Y916D01*
X4050Y824D01*
X4050Y725D01*
X4050Y279D01*
X279Y279D01*
X279Y1142D01*
X288Y1134D01*
X490Y1050D01*
X708Y1049D01*
X911Y1133D01*
X1065Y1288D01*
X1099Y1369D01*
X1133Y1288D01*
X1288Y1134D01*
X1490Y1050D01*
X1708Y1049D01*
X1911Y1133D01*
X2065Y1288D01*
X2099Y1369D01*
X2133Y1288D01*
X2288Y1134D01*
X2490Y1050D01*
X2708Y1049D01*
X2911Y1133D01*
X3065Y1288D01*
X3149Y1490D01*
X3150Y1708D01*
X3066Y1911D01*
X2911Y2065D01*
X2830Y2099D01*
X2911Y2133D01*
X3065Y2288D01*
X3099Y2369D01*
X3133Y2288D01*
X3288Y2134D01*
X3490Y2050D01*
X3708Y2049D01*
X3781Y2080D01*
X3795Y2013D01*
X3866Y1906D01*
X4054Y1719D01*
X4050Y1709D01*
X4049Y1491D01*
X4133Y1288D01*
X4135Y1287D01*
X4135Y963D01*
G54D10*
G36*
X9506Y3150D02*
X9491Y3150D01*
X9288Y3066D01*
X9134Y2911D01*
X9050Y2709D01*
X9049Y2491D01*
X9133Y2288D01*
X9288Y2134D01*
X9369Y2100D01*
X9288Y2066D01*
X9134Y1911D01*
X9100Y1830D01*
X9066Y1911D01*
X8911Y2065D01*
X8709Y2149D01*
X8491Y2150D01*
X8354Y2093D01*
X8414Y2183D01*
X8414Y2183D01*
X8440Y2310D01*
X8440Y3013D01*
X8833Y3406D01*
X8904Y3513D01*
X8904Y3513D01*
X8926Y3624D01*
X8949Y3569D01*
X9068Y3449D01*
X9225Y3385D01*
X9268Y3385D01*
X9496Y3156D01*
X9506Y3150D01*
X9506Y3150D01*
G37*
G54D40*
X9506Y3150D02*
X9491Y3150D01*
X9288Y3066D01*
X9134Y2911D01*
X9050Y2709D01*
X9049Y2491D01*
X9133Y2288D01*
X9288Y2134D01*
X9369Y2100D01*
X9288Y2066D01*
X9134Y1911D01*
X9100Y1830D01*
X9066Y1911D01*
X8911Y2065D01*
X8709Y2149D01*
X8491Y2150D01*
X8354Y2093D01*
X8414Y2183D01*
X8414Y2183D01*
X8440Y2310D01*
X8440Y3013D01*
X8833Y3406D01*
X8904Y3513D01*
X8904Y3513D01*
X8926Y3624D01*
X8949Y3569D01*
X9068Y3449D01*
X9225Y3385D01*
X9268Y3385D01*
X9496Y3156D01*
X9506Y3150D01*
G54D10*
G36*
X10440Y4542D02*
X10426Y4533D01*
X10418Y4525D01*
X10375Y4525D01*
X10219Y4460D01*
X10099Y4341D01*
X10035Y4184D01*
X10034Y4015D01*
X10099Y3859D01*
X10218Y3739D01*
X10266Y3720D01*
X9866Y3720D01*
X9735Y3851D01*
X9735Y3894D01*
X9670Y4050D01*
X9551Y4170D01*
X9394Y4234D01*
X9225Y4235D01*
X9069Y4170D01*
X8949Y4051D01*
X8930Y4003D01*
X8930Y4713D01*
X9471Y5254D01*
X9551Y5288D01*
X9600Y5336D01*
X9648Y5288D01*
X9728Y5254D01*
X10440Y4542D01*
X10440Y4542D01*
G37*
G54D40*
X10440Y4542D02*
X10426Y4533D01*
X10418Y4525D01*
X10375Y4525D01*
X10219Y4460D01*
X10099Y4341D01*
X10035Y4184D01*
X10034Y4015D01*
X10099Y3859D01*
X10218Y3739D01*
X10266Y3720D01*
X9866Y3720D01*
X9735Y3851D01*
X9735Y3894D01*
X9670Y4050D01*
X9551Y4170D01*
X9394Y4234D01*
X9225Y4235D01*
X9069Y4170D01*
X8949Y4051D01*
X8930Y4003D01*
X8930Y4713D01*
X9471Y5254D01*
X9551Y5288D01*
X9600Y5336D01*
X9648Y5288D01*
X9728Y5254D01*
X10440Y4542D01*
G54D10*
G36*
X17220Y279D02*
X6150Y279D01*
X6150Y824D01*
X6111Y916D01*
X6065Y963D01*
X6065Y1287D01*
X6065Y1288D01*
X6149Y1490D01*
X6150Y1708D01*
X6096Y1839D01*
X6333Y2076D01*
X6353Y2106D01*
X6353Y2106D01*
X6490Y2050D01*
X6708Y2049D01*
X6911Y2133D01*
X7065Y2288D01*
X7099Y2369D01*
X7133Y2288D01*
X7288Y2134D01*
X7369Y2100D01*
X7288Y2066D01*
X7134Y1911D01*
X7050Y1709D01*
X7049Y1491D01*
X7133Y1288D01*
X7288Y1134D01*
X7490Y1050D01*
X7708Y1049D01*
X7911Y1133D01*
X8065Y1288D01*
X8099Y1369D01*
X8133Y1288D01*
X8288Y1134D01*
X8490Y1050D01*
X8708Y1049D01*
X8911Y1133D01*
X9065Y1288D01*
X9099Y1369D01*
X9133Y1288D01*
X9288Y1134D01*
X9490Y1050D01*
X9708Y1049D01*
X9911Y1133D01*
X10065Y1288D01*
X10149Y1490D01*
X10150Y1708D01*
X10066Y1911D01*
X9911Y2065D01*
X9830Y2099D01*
X9911Y2133D01*
X10065Y2288D01*
X10099Y2369D01*
X10133Y2288D01*
X10288Y2134D01*
X10490Y2050D01*
X10708Y2049D01*
X10800Y2087D01*
X10805Y2063D01*
X10876Y1956D01*
X11071Y1761D01*
X11050Y1709D01*
X11049Y1491D01*
X11133Y1288D01*
X11288Y1134D01*
X11490Y1050D01*
X11708Y1049D01*
X11911Y1133D01*
X12027Y1250D01*
X12172Y1250D01*
X12288Y1134D01*
X12490Y1050D01*
X12655Y1049D01*
X12852Y852D01*
X12966Y776D01*
X12966Y776D01*
X13100Y750D01*
X15350Y750D01*
X15388Y658D01*
X15458Y588D01*
X15550Y550D01*
X15649Y550D01*
X16249Y550D01*
X16341Y588D01*
X16411Y658D01*
X16450Y750D01*
X16450Y849D01*
X16450Y955D01*
X16947Y1452D01*
X17023Y1566D01*
X17050Y1700D01*
X17050Y2450D01*
X17023Y2583D01*
X16947Y2697D01*
X16494Y3150D01*
X16999Y3150D01*
X17091Y3188D01*
X17161Y3258D01*
X17200Y3350D01*
X17200Y3449D01*
X17200Y4249D01*
X17161Y4341D01*
X17091Y4411D01*
X17000Y4449D01*
X17000Y5650D01*
X16973Y5783D01*
X16973Y5783D01*
X16897Y5897D01*
X16142Y6652D01*
X16142Y13871D01*
X16142Y13971D01*
X16142Y14127D01*
X16142Y14128D01*
X16142Y14227D01*
X16142Y14383D01*
X16142Y14384D01*
X16142Y14483D01*
X16142Y14640D01*
X16104Y14732D01*
X16034Y14802D01*
X15942Y14840D01*
X15842Y14840D01*
X15173Y14840D01*
X15153Y14832D01*
X14990Y14832D01*
X14871Y14951D01*
X14871Y14951D01*
X14317Y15505D01*
X14213Y15574D01*
X14091Y15599D01*
X13446Y15599D01*
X13446Y15820D01*
X13408Y15912D01*
X13360Y15961D01*
X13360Y17241D01*
X13332Y17378D01*
X13332Y17378D01*
X13254Y17495D01*
X12583Y18167D01*
X12583Y18715D01*
X12526Y18999D01*
X12365Y19240D01*
X12124Y19401D01*
X11841Y19457D01*
X11557Y19401D01*
X11316Y19240D01*
X11155Y18999D01*
X11099Y18715D01*
X11099Y18084D01*
X11155Y17800D01*
X11316Y17559D01*
X11557Y17398D01*
X11841Y17342D01*
X12124Y17398D01*
X12249Y17482D01*
X12640Y17091D01*
X12640Y15961D01*
X12591Y15912D01*
X12553Y15820D01*
X12553Y15721D01*
X12553Y14737D01*
X12591Y14645D01*
X12661Y14575D01*
X12753Y14537D01*
X12853Y14537D01*
X13246Y14537D01*
X13338Y14575D01*
X13408Y14645D01*
X13446Y14737D01*
X13446Y14836D01*
X13446Y14959D01*
X13958Y14959D01*
X14154Y14763D01*
X14099Y14740D01*
X13979Y14621D01*
X13915Y14464D01*
X13914Y14295D01*
X13979Y14139D01*
X14098Y14019D01*
X14255Y13955D01*
X14424Y13954D01*
X14580Y14019D01*
X14700Y14138D01*
X14732Y14218D01*
X14735Y14216D01*
X14858Y14192D01*
X14973Y14192D01*
X14973Y14128D01*
X14973Y14127D01*
X14973Y14028D01*
X14973Y13871D01*
X15011Y13779D01*
X15081Y13709D01*
X15173Y13671D01*
X15273Y13671D01*
X15942Y13671D01*
X16034Y13709D01*
X16104Y13779D01*
X16142Y13871D01*
X16142Y6652D01*
X15549Y7245D01*
X15550Y7408D01*
X15466Y7611D01*
X15311Y7765D01*
X15249Y7791D01*
X15311Y7817D01*
X15465Y7972D01*
X15549Y8174D01*
X15550Y8392D01*
X15466Y8595D01*
X15311Y8749D01*
X15109Y8833D01*
X14891Y8834D01*
X14688Y8750D01*
X14534Y8595D01*
X14450Y8393D01*
X14449Y8175D01*
X14533Y7972D01*
X14688Y7818D01*
X14750Y7792D01*
X14688Y7766D01*
X14534Y7611D01*
X14450Y7409D01*
X14449Y7191D01*
X14533Y6988D01*
X14688Y6834D01*
X14890Y6750D01*
X15055Y6749D01*
X16300Y5505D01*
X16300Y4449D01*
X16208Y4411D01*
X16138Y4341D01*
X16100Y4249D01*
X16100Y4150D01*
X16100Y3544D01*
X15900Y3744D01*
X15900Y4249D01*
X15861Y4341D01*
X15791Y4411D01*
X15700Y4449D01*
X15700Y4555D01*
X15724Y4615D01*
X15725Y4784D01*
X15660Y4940D01*
X15541Y5060D01*
X15384Y5124D01*
X15215Y5125D01*
X15059Y5060D01*
X14939Y4941D01*
X14875Y4784D01*
X14874Y4615D01*
X14939Y4459D01*
X14964Y4434D01*
X14908Y4411D01*
X14838Y4341D01*
X14800Y4249D01*
X14800Y4150D01*
X14800Y3350D01*
X14838Y3258D01*
X14908Y3188D01*
X15000Y3150D01*
X15099Y3150D01*
X15505Y3150D01*
X16350Y2305D01*
X16350Y1844D01*
X16155Y1650D01*
X16150Y1650D01*
X15550Y1650D01*
X15458Y1611D01*
X15388Y1541D01*
X15350Y1450D01*
X13244Y1450D01*
X13149Y1545D01*
X13150Y1708D01*
X13066Y1911D01*
X12927Y2050D01*
X12949Y2050D01*
X13041Y2088D01*
X13111Y2158D01*
X13150Y2250D01*
X13150Y2349D01*
X13150Y2949D01*
X13111Y3041D01*
X13041Y3111D01*
X12950Y3149D01*
X12950Y3200D01*
X12923Y3333D01*
X12923Y3333D01*
X12847Y3447D01*
X12094Y4200D01*
X12522Y4627D01*
X12598Y4741D01*
X12598Y4741D01*
X12625Y4875D01*
X12625Y5946D01*
X12661Y5983D01*
X12700Y6075D01*
X12700Y6174D01*
X12700Y6724D01*
X12661Y6816D01*
X12628Y6850D01*
X12661Y6883D01*
X12700Y6975D01*
X12700Y7074D01*
X12700Y7624D01*
X12661Y7716D01*
X12625Y7753D01*
X12625Y8024D01*
X12697Y8054D01*
X12844Y8202D01*
X12924Y8395D01*
X12925Y8603D01*
X12925Y8604D01*
X12925Y11175D01*
X12925Y11274D01*
X12925Y11824D01*
X12886Y11916D01*
X12816Y11986D01*
X12725Y12024D01*
X12723Y12033D01*
X12647Y12147D01*
X9022Y15772D01*
X9012Y15778D01*
X8986Y15841D01*
X8928Y15900D01*
X8986Y15958D01*
X9025Y16050D01*
X9025Y16149D01*
X9025Y16499D01*
X8986Y16591D01*
X8916Y16661D01*
X8850Y16689D01*
X8850Y19272D01*
X8865Y19288D01*
X8949Y19490D01*
X8950Y19708D01*
X8866Y19911D01*
X8711Y20065D01*
X8509Y20149D01*
X8291Y20150D01*
X8088Y20066D01*
X7950Y19927D01*
X7950Y19949D01*
X7911Y20041D01*
X7841Y20111D01*
X7749Y20150D01*
X7650Y20150D01*
X7050Y20150D01*
X6958Y20111D01*
X6888Y20041D01*
X6850Y19949D01*
X6850Y19850D01*
X6850Y19250D01*
X6888Y19158D01*
X6958Y19088D01*
X7050Y19050D01*
X7149Y19050D01*
X7150Y19050D01*
X7150Y16689D01*
X7083Y16661D01*
X7013Y16591D01*
X6975Y16499D01*
X6975Y16400D01*
X6975Y16050D01*
X7013Y15958D01*
X7071Y15900D01*
X7013Y15841D01*
X6975Y15749D01*
X6975Y15650D01*
X6975Y15300D01*
X7013Y15208D01*
X7083Y15138D01*
X7150Y15110D01*
X7150Y15000D01*
X7176Y14866D01*
X7252Y14752D01*
X8358Y13646D01*
X7452Y13646D01*
X7452Y11953D01*
X8849Y11953D01*
X8849Y13155D01*
X10050Y11955D01*
X10050Y11892D01*
X9955Y11797D01*
X9875Y11604D01*
X9874Y11396D01*
X9954Y11203D01*
X10102Y11055D01*
X10295Y10975D01*
X10503Y10974D01*
X10697Y11054D01*
X10844Y11202D01*
X10924Y11395D01*
X10925Y11603D01*
X10845Y11797D01*
X10750Y11892D01*
X10750Y12100D01*
X10723Y12233D01*
X10723Y12233D01*
X10647Y12347D01*
X7874Y15120D01*
X7916Y15138D01*
X7986Y15208D01*
X8000Y15239D01*
X8013Y15208D01*
X8083Y15138D01*
X8175Y15100D01*
X8274Y15100D01*
X8705Y15100D01*
X11905Y11899D01*
X11875Y11824D01*
X11875Y11725D01*
X11875Y11175D01*
X11913Y11083D01*
X11983Y11013D01*
X12075Y10975D01*
X12174Y10975D01*
X12724Y10975D01*
X12816Y11013D01*
X12886Y11083D01*
X12925Y11175D01*
X12925Y8604D01*
X12845Y8797D01*
X12697Y8944D01*
X12504Y9024D01*
X12296Y9025D01*
X12103Y8945D01*
X11955Y8797D01*
X11899Y8664D01*
X11845Y8797D01*
X11697Y8944D01*
X11504Y9024D01*
X11296Y9025D01*
X11103Y8945D01*
X10955Y8797D01*
X10899Y8664D01*
X10845Y8797D01*
X10697Y8944D01*
X10504Y9024D01*
X10296Y9025D01*
X10103Y8945D01*
X9955Y8797D01*
X9875Y8604D01*
X9874Y8396D01*
X9954Y8203D01*
X10050Y8107D01*
X10050Y7000D01*
X10076Y6866D01*
X10152Y6752D01*
X10752Y6152D01*
X10866Y6076D01*
X11000Y6050D01*
X11110Y6050D01*
X11138Y5983D01*
X11147Y5974D01*
X11066Y5893D01*
X10995Y5786D01*
X10970Y5660D01*
X10970Y5100D01*
X10990Y4999D01*
X10990Y4990D01*
X10926Y4990D01*
X10160Y5756D01*
X10160Y6250D01*
X10160Y6349D01*
X10160Y6549D01*
X10121Y6641D01*
X10051Y6711D01*
X9959Y6750D01*
X9930Y6750D01*
X9930Y6780D01*
X9930Y6788D01*
X9960Y6818D01*
X10024Y6975D01*
X10025Y7144D01*
X9960Y7300D01*
X9841Y7420D01*
X9684Y7484D01*
X9515Y7485D01*
X9359Y7420D01*
X9239Y7301D01*
X9175Y7144D01*
X9174Y6975D01*
X9239Y6819D01*
X9270Y6789D01*
X9270Y6780D01*
X9270Y6400D01*
X9290Y6299D01*
X9290Y6250D01*
X9328Y6158D01*
X9398Y6088D01*
X9490Y6050D01*
X9589Y6050D01*
X9709Y6050D01*
X9724Y6056D01*
X9740Y6050D01*
X9839Y6050D01*
X9959Y6050D01*
X10051Y6088D01*
X10121Y6158D01*
X10160Y6250D01*
X10160Y5756D01*
X10155Y5761D01*
X10121Y5841D01*
X10051Y5911D01*
X9959Y5950D01*
X9860Y5950D01*
X9740Y5950D01*
X9648Y5911D01*
X9599Y5863D01*
X9551Y5911D01*
X9459Y5950D01*
X9360Y5950D01*
X9240Y5950D01*
X9148Y5911D01*
X9078Y5841D01*
X9044Y5761D01*
X8366Y5083D01*
X8295Y4976D01*
X8270Y4850D01*
X8270Y4231D01*
X8241Y4260D01*
X8084Y4324D01*
X7915Y4325D01*
X7794Y4275D01*
X7599Y4275D01*
X7500Y4275D01*
X7400Y4275D01*
X7230Y4275D01*
X7230Y4325D01*
X7299Y4325D01*
X7599Y4325D01*
X7691Y4363D01*
X7761Y4433D01*
X7800Y4525D01*
X7800Y4624D01*
X7800Y4824D01*
X7761Y4916D01*
X7691Y4986D01*
X7599Y5025D01*
X7500Y5025D01*
X7200Y5025D01*
X7151Y5005D01*
X7005Y5005D01*
X6878Y4979D01*
X6771Y4908D01*
X6767Y4903D01*
X6761Y4916D01*
X6691Y4986D01*
X6599Y5025D01*
X6500Y5025D01*
X6200Y5025D01*
X6108Y4986D01*
X6050Y4928D01*
X6050Y5349D01*
X6060Y5400D01*
X6060Y6275D01*
X6050Y6325D01*
X6050Y7168D01*
X6627Y7168D01*
X6658Y7138D01*
X6750Y7100D01*
X6849Y7100D01*
X7649Y7100D01*
X7741Y7138D01*
X7811Y7208D01*
X7850Y7300D01*
X7850Y7399D01*
X7850Y7999D01*
X7811Y8091D01*
X7741Y8161D01*
X7649Y8200D01*
X7550Y8200D01*
X6750Y8200D01*
X6658Y8161D01*
X6588Y8091D01*
X6550Y7999D01*
X6550Y7900D01*
X6550Y7868D01*
X6050Y7868D01*
X6050Y12381D01*
X6050Y17200D01*
X6023Y17333D01*
X6023Y17333D01*
X5947Y17447D01*
X5550Y17844D01*
X5550Y18850D01*
X5641Y18888D01*
X5711Y18958D01*
X5750Y19050D01*
X5750Y19149D01*
X5750Y19749D01*
X5711Y19841D01*
X5641Y19911D01*
X5549Y19950D01*
X5450Y19950D01*
X4850Y19950D01*
X4758Y19911D01*
X4688Y19841D01*
X4650Y19749D01*
X4650Y19727D01*
X4511Y19865D01*
X4309Y19949D01*
X4091Y19950D01*
X3888Y19866D01*
X3734Y19711D01*
X3650Y19509D01*
X3649Y19291D01*
X3733Y19088D01*
X3850Y18972D01*
X3850Y17500D01*
X3876Y17366D01*
X3952Y17252D01*
X4479Y16725D01*
X4479Y14454D01*
X4417Y14393D01*
X4342Y14214D01*
X4342Y14021D01*
X4416Y13842D01*
X4553Y13705D01*
X4731Y13631D01*
X4925Y13631D01*
X5104Y13704D01*
X5241Y13841D01*
X5315Y14020D01*
X5315Y14213D01*
X5241Y14392D01*
X5179Y14454D01*
X5179Y16870D01*
X5152Y17004D01*
X5076Y17118D01*
X4550Y17644D01*
X4550Y18972D01*
X4650Y19072D01*
X4650Y19050D01*
X4688Y18958D01*
X4758Y18888D01*
X4850Y18850D01*
X4850Y17700D01*
X4876Y17566D01*
X4952Y17452D01*
X5350Y17055D01*
X5350Y12526D01*
X4820Y11997D01*
X4732Y11997D01*
X4554Y11923D01*
X4417Y11786D01*
X4342Y11608D01*
X4342Y11414D01*
X4416Y11235D01*
X4553Y11099D01*
X4731Y11024D01*
X4925Y11024D01*
X5104Y11098D01*
X5241Y11235D01*
X5315Y11413D01*
X5315Y11502D01*
X5947Y12134D01*
X6023Y12247D01*
X6050Y12381D01*
X6050Y7868D01*
X5700Y7868D01*
X5083Y7868D01*
X5071Y7880D01*
X4914Y7945D01*
X4744Y7946D01*
X4587Y7881D01*
X4467Y7761D01*
X4402Y7604D01*
X4401Y7434D01*
X4466Y7277D01*
X4586Y7156D01*
X4743Y7091D01*
X4913Y7091D01*
X5070Y7156D01*
X5083Y7168D01*
X5350Y7168D01*
X5350Y6325D01*
X5340Y6275D01*
X5340Y5400D01*
X5350Y5349D01*
X5350Y4275D01*
X5285Y4275D01*
X5247Y4364D01*
X5212Y4400D01*
X5247Y4435D01*
X5286Y4527D01*
X5286Y4626D01*
X5286Y5098D01*
X5254Y5175D01*
X5286Y5208D01*
X5325Y5300D01*
X5325Y5399D01*
X5325Y5749D01*
X5286Y5841D01*
X5216Y5911D01*
X5124Y5950D01*
X5025Y5950D01*
X4475Y5950D01*
X4383Y5911D01*
X4313Y5841D01*
X4275Y5749D01*
X4275Y5650D01*
X4275Y5300D01*
X4313Y5208D01*
X4345Y5175D01*
X4314Y5098D01*
X4314Y4999D01*
X4314Y4527D01*
X4352Y4435D01*
X4387Y4400D01*
X4352Y4364D01*
X4333Y4393D01*
X3950Y4776D01*
X3950Y7300D01*
X3950Y7399D01*
X3950Y7999D01*
X3911Y8091D01*
X3841Y8161D01*
X3749Y8200D01*
X3650Y8200D01*
X2850Y8200D01*
X2758Y8161D01*
X2688Y8091D01*
X2650Y8000D01*
X2450Y8000D01*
X2450Y19050D01*
X2450Y19149D01*
X2450Y19749D01*
X2411Y19841D01*
X2341Y19911D01*
X2249Y19950D01*
X2150Y19950D01*
X1550Y19950D01*
X1458Y19911D01*
X1388Y19841D01*
X1350Y19749D01*
X1350Y19727D01*
X1211Y19865D01*
X1009Y19949D01*
X791Y19950D01*
X588Y19866D01*
X434Y19711D01*
X350Y19509D01*
X349Y19291D01*
X433Y19088D01*
X479Y19043D01*
X479Y14454D01*
X417Y14393D01*
X342Y14214D01*
X342Y14021D01*
X416Y13842D01*
X553Y13705D01*
X731Y13631D01*
X925Y13631D01*
X1104Y13704D01*
X1241Y13841D01*
X1315Y14020D01*
X1315Y14213D01*
X1241Y14392D01*
X1179Y14454D01*
X1179Y18920D01*
X1211Y18933D01*
X1350Y19072D01*
X1350Y19050D01*
X1388Y18958D01*
X1458Y18888D01*
X1550Y18850D01*
X1550Y12726D01*
X820Y11997D01*
X732Y11997D01*
X554Y11923D01*
X417Y11786D01*
X342Y11608D01*
X342Y11414D01*
X416Y11235D01*
X553Y11099D01*
X731Y11024D01*
X925Y11024D01*
X1104Y11098D01*
X1241Y11235D01*
X1315Y11413D01*
X1315Y11502D01*
X2147Y12334D01*
X2223Y12447D01*
X2223Y12447D01*
X2250Y12581D01*
X2250Y18850D01*
X2341Y18888D01*
X2411Y18958D01*
X2450Y19050D01*
X2450Y8000D01*
X1800Y8000D01*
X960Y8000D01*
X826Y7973D01*
X785Y7946D01*
X744Y7946D01*
X587Y7881D01*
X467Y7761D01*
X402Y7604D01*
X401Y7434D01*
X466Y7277D01*
X586Y7156D01*
X743Y7091D01*
X913Y7091D01*
X1070Y7156D01*
X1191Y7276D01*
X1200Y7300D01*
X1450Y7300D01*
X1450Y6325D01*
X1440Y6275D01*
X1440Y5659D01*
X1425Y5644D01*
X1425Y5749D01*
X1386Y5841D01*
X1316Y5911D01*
X1224Y5950D01*
X1125Y5950D01*
X575Y5950D01*
X483Y5911D01*
X413Y5841D01*
X375Y5749D01*
X375Y5650D01*
X375Y5300D01*
X413Y5208D01*
X445Y5175D01*
X414Y5098D01*
X414Y4999D01*
X414Y4527D01*
X452Y4435D01*
X487Y4400D01*
X452Y4364D01*
X414Y4272D01*
X414Y4173D01*
X414Y3701D01*
X452Y3609D01*
X522Y3539D01*
X614Y3501D01*
X713Y3501D01*
X1185Y3501D01*
X1277Y3539D01*
X1347Y3609D01*
X1359Y3637D01*
X1862Y3637D01*
X1995Y3663D01*
X1995Y3663D01*
X2012Y3675D01*
X2012Y3675D01*
X2099Y3675D01*
X2191Y3713D01*
X2261Y3783D01*
X2300Y3875D01*
X2300Y3974D01*
X2300Y4174D01*
X2261Y4266D01*
X2191Y4336D01*
X2099Y4375D01*
X2000Y4375D01*
X1900Y4375D01*
X1762Y4375D01*
X1795Y4425D01*
X1799Y4425D01*
X2099Y4425D01*
X2191Y4463D01*
X2261Y4533D01*
X2300Y4625D01*
X2300Y4724D01*
X2300Y4924D01*
X2261Y5016D01*
X2191Y5086D01*
X2099Y5125D01*
X2000Y5125D01*
X1894Y5125D01*
X2011Y5241D01*
X2054Y5270D01*
X2132Y5387D01*
X2160Y5525D01*
X2160Y6275D01*
X2150Y6325D01*
X2150Y7300D01*
X2650Y7300D01*
X2688Y7208D01*
X2758Y7138D01*
X2850Y7100D01*
X2949Y7100D01*
X3749Y7100D01*
X3841Y7138D01*
X3911Y7208D01*
X3950Y7300D01*
X3950Y4776D01*
X3718Y5008D01*
X3611Y5079D01*
X3485Y5105D01*
X3148Y5105D01*
X3099Y5125D01*
X3000Y5125D01*
X2700Y5125D01*
X2608Y5086D01*
X2538Y5016D01*
X2500Y4924D01*
X2500Y4825D01*
X2500Y4625D01*
X2538Y4533D01*
X2608Y4463D01*
X2700Y4425D01*
X2799Y4425D01*
X3099Y4425D01*
X3148Y4445D01*
X3348Y4445D01*
X3411Y4381D01*
X3394Y4375D01*
X3099Y4375D01*
X3000Y4375D01*
X2900Y4375D01*
X2700Y4375D01*
X2608Y4336D01*
X2538Y4266D01*
X2500Y4174D01*
X2500Y4075D01*
X2500Y3875D01*
X2538Y3783D01*
X2608Y3713D01*
X2700Y3675D01*
X2799Y3675D01*
X2900Y3675D01*
X3099Y3675D01*
X3323Y3675D01*
X3358Y3639D01*
X3515Y3575D01*
X3684Y3574D01*
X3770Y3610D01*
X3770Y3124D01*
X3709Y3149D01*
X3491Y3150D01*
X3288Y3066D01*
X3134Y2911D01*
X3100Y2830D01*
X3066Y2911D01*
X2911Y3065D01*
X2709Y3149D01*
X2491Y3150D01*
X2288Y3066D01*
X2134Y2911D01*
X2100Y2830D01*
X2066Y2911D01*
X1911Y3065D01*
X1709Y3149D01*
X1491Y3150D01*
X1288Y3066D01*
X1134Y2911D01*
X1050Y2709D01*
X1049Y2491D01*
X1133Y2288D01*
X1288Y2134D01*
X1369Y2100D01*
X1288Y2066D01*
X1134Y1911D01*
X1100Y1830D01*
X1066Y1911D01*
X911Y2065D01*
X709Y2149D01*
X491Y2150D01*
X288Y2066D01*
X279Y2057D01*
X279Y20720D01*
X17220Y20720D01*
X17220Y11358D01*
X17191Y11386D01*
X17099Y11425D01*
X17000Y11425D01*
X16650Y11425D01*
X16558Y11386D01*
X16488Y11316D01*
X16450Y11224D01*
X16450Y11125D01*
X16450Y10825D01*
X16450Y10575D01*
X16450Y10572D01*
X16422Y10560D01*
X16352Y10490D01*
X16314Y10398D01*
X16314Y10299D01*
X16314Y9827D01*
X16352Y9735D01*
X16387Y9700D01*
X16352Y9664D01*
X16314Y9572D01*
X16314Y9473D01*
X16314Y9001D01*
X16352Y8909D01*
X16422Y8839D01*
X16450Y8827D01*
X16450Y7951D01*
X16439Y7941D01*
X16375Y7784D01*
X16374Y7615D01*
X16439Y7459D01*
X16558Y7339D01*
X16715Y7275D01*
X16884Y7274D01*
X17040Y7339D01*
X17160Y7458D01*
X17220Y7604D01*
X17220Y279D01*
X17220Y279D01*
G37*
G54D40*
X17220Y279D02*
X6150Y279D01*
X6150Y824D01*
X6111Y916D01*
X6065Y963D01*
X6065Y1287D01*
X6065Y1288D01*
X6149Y1490D01*
X6150Y1708D01*
X6096Y1839D01*
X6333Y2076D01*
X6353Y2106D01*
X6353Y2106D01*
X6490Y2050D01*
X6708Y2049D01*
X6911Y2133D01*
X7065Y2288D01*
X7099Y2369D01*
X7133Y2288D01*
X7288Y2134D01*
X7369Y2100D01*
X7288Y2066D01*
X7134Y1911D01*
X7050Y1709D01*
X7049Y1491D01*
X7133Y1288D01*
X7288Y1134D01*
X7490Y1050D01*
X7708Y1049D01*
X7911Y1133D01*
X8065Y1288D01*
X8099Y1369D01*
X8133Y1288D01*
X8288Y1134D01*
X8490Y1050D01*
X8708Y1049D01*
X8911Y1133D01*
X9065Y1288D01*
X9099Y1369D01*
X9133Y1288D01*
X9288Y1134D01*
X9490Y1050D01*
X9708Y1049D01*
X9911Y1133D01*
X10065Y1288D01*
X10149Y1490D01*
X10150Y1708D01*
X10066Y1911D01*
X9911Y2065D01*
X9830Y2099D01*
X9911Y2133D01*
X10065Y2288D01*
X10099Y2369D01*
X10133Y2288D01*
X10288Y2134D01*
X10490Y2050D01*
X10708Y2049D01*
X10800Y2087D01*
X10805Y2063D01*
X10876Y1956D01*
X11071Y1761D01*
X11050Y1709D01*
X11049Y1491D01*
X11133Y1288D01*
X11288Y1134D01*
X11490Y1050D01*
X11708Y1049D01*
X11911Y1133D01*
X12027Y1250D01*
X12172Y1250D01*
X12288Y1134D01*
X12490Y1050D01*
X12655Y1049D01*
X12852Y852D01*
X12966Y776D01*
X12966Y776D01*
X13100Y750D01*
X15350Y750D01*
X15388Y658D01*
X15458Y588D01*
X15550Y550D01*
X15649Y550D01*
X16249Y550D01*
X16341Y588D01*
X16411Y658D01*
X16450Y750D01*
X16450Y849D01*
X16450Y955D01*
X16947Y1452D01*
X17023Y1566D01*
X17050Y1700D01*
X17050Y2450D01*
X17023Y2583D01*
X16947Y2697D01*
X16494Y3150D01*
X16999Y3150D01*
X17091Y3188D01*
X17161Y3258D01*
X17200Y3350D01*
X17200Y3449D01*
X17200Y4249D01*
X17161Y4341D01*
X17091Y4411D01*
X17000Y4449D01*
X17000Y5650D01*
X16973Y5783D01*
X16973Y5783D01*
X16897Y5897D01*
X16142Y6652D01*
X16142Y13871D01*
X16142Y13971D01*
X16142Y14127D01*
X16142Y14128D01*
X16142Y14227D01*
X16142Y14383D01*
X16142Y14384D01*
X16142Y14483D01*
X16142Y14640D01*
X16104Y14732D01*
X16034Y14802D01*
X15942Y14840D01*
X15842Y14840D01*
X15173Y14840D01*
X15153Y14832D01*
X14990Y14832D01*
X14871Y14951D01*
X14871Y14951D01*
X14317Y15505D01*
X14213Y15574D01*
X14091Y15599D01*
X13446Y15599D01*
X13446Y15820D01*
X13408Y15912D01*
X13360Y15961D01*
X13360Y17241D01*
X13332Y17378D01*
X13332Y17378D01*
X13254Y17495D01*
X12583Y18167D01*
X12583Y18715D01*
X12526Y18999D01*
X12365Y19240D01*
X12124Y19401D01*
X11841Y19457D01*
X11557Y19401D01*
X11316Y19240D01*
X11155Y18999D01*
X11099Y18715D01*
X11099Y18084D01*
X11155Y17800D01*
X11316Y17559D01*
X11557Y17398D01*
X11841Y17342D01*
X12124Y17398D01*
X12249Y17482D01*
X12640Y17091D01*
X12640Y15961D01*
X12591Y15912D01*
X12553Y15820D01*
X12553Y15721D01*
X12553Y14737D01*
X12591Y14645D01*
X12661Y14575D01*
X12753Y14537D01*
X12853Y14537D01*
X13246Y14537D01*
X13338Y14575D01*
X13408Y14645D01*
X13446Y14737D01*
X13446Y14836D01*
X13446Y14959D01*
X13958Y14959D01*
X14154Y14763D01*
X14099Y14740D01*
X13979Y14621D01*
X13915Y14464D01*
X13914Y14295D01*
X13979Y14139D01*
X14098Y14019D01*
X14255Y13955D01*
X14424Y13954D01*
X14580Y14019D01*
X14700Y14138D01*
X14732Y14218D01*
X14735Y14216D01*
X14858Y14192D01*
X14973Y14192D01*
X14973Y14128D01*
X14973Y14127D01*
X14973Y14028D01*
X14973Y13871D01*
X15011Y13779D01*
X15081Y13709D01*
X15173Y13671D01*
X15273Y13671D01*
X15942Y13671D01*
X16034Y13709D01*
X16104Y13779D01*
X16142Y13871D01*
X16142Y6652D01*
X15549Y7245D01*
X15550Y7408D01*
X15466Y7611D01*
X15311Y7765D01*
X15249Y7791D01*
X15311Y7817D01*
X15465Y7972D01*
X15549Y8174D01*
X15550Y8392D01*
X15466Y8595D01*
X15311Y8749D01*
X15109Y8833D01*
X14891Y8834D01*
X14688Y8750D01*
X14534Y8595D01*
X14450Y8393D01*
X14449Y8175D01*
X14533Y7972D01*
X14688Y7818D01*
X14750Y7792D01*
X14688Y7766D01*
X14534Y7611D01*
X14450Y7409D01*
X14449Y7191D01*
X14533Y6988D01*
X14688Y6834D01*
X14890Y6750D01*
X15055Y6749D01*
X16300Y5505D01*
X16300Y4449D01*
X16208Y4411D01*
X16138Y4341D01*
X16100Y4249D01*
X16100Y4150D01*
X16100Y3544D01*
X15900Y3744D01*
X15900Y4249D01*
X15861Y4341D01*
X15791Y4411D01*
X15700Y4449D01*
X15700Y4555D01*
X15724Y4615D01*
X15725Y4784D01*
X15660Y4940D01*
X15541Y5060D01*
X15384Y5124D01*
X15215Y5125D01*
X15059Y5060D01*
X14939Y4941D01*
X14875Y4784D01*
X14874Y4615D01*
X14939Y4459D01*
X14964Y4434D01*
X14908Y4411D01*
X14838Y4341D01*
X14800Y4249D01*
X14800Y4150D01*
X14800Y3350D01*
X14838Y3258D01*
X14908Y3188D01*
X15000Y3150D01*
X15099Y3150D01*
X15505Y3150D01*
X16350Y2305D01*
X16350Y1844D01*
X16155Y1650D01*
X16150Y1650D01*
X15550Y1650D01*
X15458Y1611D01*
X15388Y1541D01*
X15350Y1450D01*
X13244Y1450D01*
X13149Y1545D01*
X13150Y1708D01*
X13066Y1911D01*
X12927Y2050D01*
X12949Y2050D01*
X13041Y2088D01*
X13111Y2158D01*
X13150Y2250D01*
X13150Y2349D01*
X13150Y2949D01*
X13111Y3041D01*
X13041Y3111D01*
X12950Y3149D01*
X12950Y3200D01*
X12923Y3333D01*
X12923Y3333D01*
X12847Y3447D01*
X12094Y4200D01*
X12522Y4627D01*
X12598Y4741D01*
X12598Y4741D01*
X12625Y4875D01*
X12625Y5946D01*
X12661Y5983D01*
X12700Y6075D01*
X12700Y6174D01*
X12700Y6724D01*
X12661Y6816D01*
X12628Y6850D01*
X12661Y6883D01*
X12700Y6975D01*
X12700Y7074D01*
X12700Y7624D01*
X12661Y7716D01*
X12625Y7753D01*
X12625Y8024D01*
X12697Y8054D01*
X12844Y8202D01*
X12924Y8395D01*
X12925Y8603D01*
X12925Y8604D01*
X12925Y11175D01*
X12925Y11274D01*
X12925Y11824D01*
X12886Y11916D01*
X12816Y11986D01*
X12725Y12024D01*
X12723Y12033D01*
X12647Y12147D01*
X9022Y15772D01*
X9012Y15778D01*
X8986Y15841D01*
X8928Y15900D01*
X8986Y15958D01*
X9025Y16050D01*
X9025Y16149D01*
X9025Y16499D01*
X8986Y16591D01*
X8916Y16661D01*
X8850Y16689D01*
X8850Y19272D01*
X8865Y19288D01*
X8949Y19490D01*
X8950Y19708D01*
X8866Y19911D01*
X8711Y20065D01*
X8509Y20149D01*
X8291Y20150D01*
X8088Y20066D01*
X7950Y19927D01*
X7950Y19949D01*
X7911Y20041D01*
X7841Y20111D01*
X7749Y20150D01*
X7650Y20150D01*
X7050Y20150D01*
X6958Y20111D01*
X6888Y20041D01*
X6850Y19949D01*
X6850Y19850D01*
X6850Y19250D01*
X6888Y19158D01*
X6958Y19088D01*
X7050Y19050D01*
X7149Y19050D01*
X7150Y19050D01*
X7150Y16689D01*
X7083Y16661D01*
X7013Y16591D01*
X6975Y16499D01*
X6975Y16400D01*
X6975Y16050D01*
X7013Y15958D01*
X7071Y15900D01*
X7013Y15841D01*
X6975Y15749D01*
X6975Y15650D01*
X6975Y15300D01*
X7013Y15208D01*
X7083Y15138D01*
X7150Y15110D01*
X7150Y15000D01*
X7176Y14866D01*
X7252Y14752D01*
X8358Y13646D01*
X7452Y13646D01*
X7452Y11953D01*
X8849Y11953D01*
X8849Y13155D01*
X10050Y11955D01*
X10050Y11892D01*
X9955Y11797D01*
X9875Y11604D01*
X9874Y11396D01*
X9954Y11203D01*
X10102Y11055D01*
X10295Y10975D01*
X10503Y10974D01*
X10697Y11054D01*
X10844Y11202D01*
X10924Y11395D01*
X10925Y11603D01*
X10845Y11797D01*
X10750Y11892D01*
X10750Y12100D01*
X10723Y12233D01*
X10723Y12233D01*
X10647Y12347D01*
X7874Y15120D01*
X7916Y15138D01*
X7986Y15208D01*
X8000Y15239D01*
X8013Y15208D01*
X8083Y15138D01*
X8175Y15100D01*
X8274Y15100D01*
X8705Y15100D01*
X11905Y11899D01*
X11875Y11824D01*
X11875Y11725D01*
X11875Y11175D01*
X11913Y11083D01*
X11983Y11013D01*
X12075Y10975D01*
X12174Y10975D01*
X12724Y10975D01*
X12816Y11013D01*
X12886Y11083D01*
X12925Y11175D01*
X12925Y8604D01*
X12845Y8797D01*
X12697Y8944D01*
X12504Y9024D01*
X12296Y9025D01*
X12103Y8945D01*
X11955Y8797D01*
X11899Y8664D01*
X11845Y8797D01*
X11697Y8944D01*
X11504Y9024D01*
X11296Y9025D01*
X11103Y8945D01*
X10955Y8797D01*
X10899Y8664D01*
X10845Y8797D01*
X10697Y8944D01*
X10504Y9024D01*
X10296Y9025D01*
X10103Y8945D01*
X9955Y8797D01*
X9875Y8604D01*
X9874Y8396D01*
X9954Y8203D01*
X10050Y8107D01*
X10050Y7000D01*
X10076Y6866D01*
X10152Y6752D01*
X10752Y6152D01*
X10866Y6076D01*
X11000Y6050D01*
X11110Y6050D01*
X11138Y5983D01*
X11147Y5974D01*
X11066Y5893D01*
X10995Y5786D01*
X10970Y5660D01*
X10970Y5100D01*
X10990Y4999D01*
X10990Y4990D01*
X10926Y4990D01*
X10160Y5756D01*
X10160Y6250D01*
X10160Y6349D01*
X10160Y6549D01*
X10121Y6641D01*
X10051Y6711D01*
X9959Y6750D01*
X9930Y6750D01*
X9930Y6780D01*
X9930Y6788D01*
X9960Y6818D01*
X10024Y6975D01*
X10025Y7144D01*
X9960Y7300D01*
X9841Y7420D01*
X9684Y7484D01*
X9515Y7485D01*
X9359Y7420D01*
X9239Y7301D01*
X9175Y7144D01*
X9174Y6975D01*
X9239Y6819D01*
X9270Y6789D01*
X9270Y6780D01*
X9270Y6400D01*
X9290Y6299D01*
X9290Y6250D01*
X9328Y6158D01*
X9398Y6088D01*
X9490Y6050D01*
X9589Y6050D01*
X9709Y6050D01*
X9724Y6056D01*
X9740Y6050D01*
X9839Y6050D01*
X9959Y6050D01*
X10051Y6088D01*
X10121Y6158D01*
X10160Y6250D01*
X10160Y5756D01*
X10155Y5761D01*
X10121Y5841D01*
X10051Y5911D01*
X9959Y5950D01*
X9860Y5950D01*
X9740Y5950D01*
X9648Y5911D01*
X9599Y5863D01*
X9551Y5911D01*
X9459Y5950D01*
X9360Y5950D01*
X9240Y5950D01*
X9148Y5911D01*
X9078Y5841D01*
X9044Y5761D01*
X8366Y5083D01*
X8295Y4976D01*
X8270Y4850D01*
X8270Y4231D01*
X8241Y4260D01*
X8084Y4324D01*
X7915Y4325D01*
X7794Y4275D01*
X7599Y4275D01*
X7500Y4275D01*
X7400Y4275D01*
X7230Y4275D01*
X7230Y4325D01*
X7299Y4325D01*
X7599Y4325D01*
X7691Y4363D01*
X7761Y4433D01*
X7800Y4525D01*
X7800Y4624D01*
X7800Y4824D01*
X7761Y4916D01*
X7691Y4986D01*
X7599Y5025D01*
X7500Y5025D01*
X7200Y5025D01*
X7151Y5005D01*
X7005Y5005D01*
X6878Y4979D01*
X6771Y4908D01*
X6767Y4903D01*
X6761Y4916D01*
X6691Y4986D01*
X6599Y5025D01*
X6500Y5025D01*
X6200Y5025D01*
X6108Y4986D01*
X6050Y4928D01*
X6050Y5349D01*
X6060Y5400D01*
X6060Y6275D01*
X6050Y6325D01*
X6050Y7168D01*
X6627Y7168D01*
X6658Y7138D01*
X6750Y7100D01*
X6849Y7100D01*
X7649Y7100D01*
X7741Y7138D01*
X7811Y7208D01*
X7850Y7300D01*
X7850Y7399D01*
X7850Y7999D01*
X7811Y8091D01*
X7741Y8161D01*
X7649Y8200D01*
X7550Y8200D01*
X6750Y8200D01*
X6658Y8161D01*
X6588Y8091D01*
X6550Y7999D01*
X6550Y7900D01*
X6550Y7868D01*
X6050Y7868D01*
X6050Y12381D01*
X6050Y17200D01*
X6023Y17333D01*
X6023Y17333D01*
X5947Y17447D01*
X5550Y17844D01*
X5550Y18850D01*
X5641Y18888D01*
X5711Y18958D01*
X5750Y19050D01*
X5750Y19149D01*
X5750Y19749D01*
X5711Y19841D01*
X5641Y19911D01*
X5549Y19950D01*
X5450Y19950D01*
X4850Y19950D01*
X4758Y19911D01*
X4688Y19841D01*
X4650Y19749D01*
X4650Y19727D01*
X4511Y19865D01*
X4309Y19949D01*
X4091Y19950D01*
X3888Y19866D01*
X3734Y19711D01*
X3650Y19509D01*
X3649Y19291D01*
X3733Y19088D01*
X3850Y18972D01*
X3850Y17500D01*
X3876Y17366D01*
X3952Y17252D01*
X4479Y16725D01*
X4479Y14454D01*
X4417Y14393D01*
X4342Y14214D01*
X4342Y14021D01*
X4416Y13842D01*
X4553Y13705D01*
X4731Y13631D01*
X4925Y13631D01*
X5104Y13704D01*
X5241Y13841D01*
X5315Y14020D01*
X5315Y14213D01*
X5241Y14392D01*
X5179Y14454D01*
X5179Y16870D01*
X5152Y17004D01*
X5076Y17118D01*
X4550Y17644D01*
X4550Y18972D01*
X4650Y19072D01*
X4650Y19050D01*
X4688Y18958D01*
X4758Y18888D01*
X4850Y18850D01*
X4850Y17700D01*
X4876Y17566D01*
X4952Y17452D01*
X5350Y17055D01*
X5350Y12526D01*
X4820Y11997D01*
X4732Y11997D01*
X4554Y11923D01*
X4417Y11786D01*
X4342Y11608D01*
X4342Y11414D01*
X4416Y11235D01*
X4553Y11099D01*
X4731Y11024D01*
X4925Y11024D01*
X5104Y11098D01*
X5241Y11235D01*
X5315Y11413D01*
X5315Y11502D01*
X5947Y12134D01*
X6023Y12247D01*
X6050Y12381D01*
X6050Y7868D01*
X5700Y7868D01*
X5083Y7868D01*
X5071Y7880D01*
X4914Y7945D01*
X4744Y7946D01*
X4587Y7881D01*
X4467Y7761D01*
X4402Y7604D01*
X4401Y7434D01*
X4466Y7277D01*
X4586Y7156D01*
X4743Y7091D01*
X4913Y7091D01*
X5070Y7156D01*
X5083Y7168D01*
X5350Y7168D01*
X5350Y6325D01*
X5340Y6275D01*
X5340Y5400D01*
X5350Y5349D01*
X5350Y4275D01*
X5285Y4275D01*
X5247Y4364D01*
X5212Y4400D01*
X5247Y4435D01*
X5286Y4527D01*
X5286Y4626D01*
X5286Y5098D01*
X5254Y5175D01*
X5286Y5208D01*
X5325Y5300D01*
X5325Y5399D01*
X5325Y5749D01*
X5286Y5841D01*
X5216Y5911D01*
X5124Y5950D01*
X5025Y5950D01*
X4475Y5950D01*
X4383Y5911D01*
X4313Y5841D01*
X4275Y5749D01*
X4275Y5650D01*
X4275Y5300D01*
X4313Y5208D01*
X4345Y5175D01*
X4314Y5098D01*
X4314Y4999D01*
X4314Y4527D01*
X4352Y4435D01*
X4387Y4400D01*
X4352Y4364D01*
X4333Y4393D01*
X3950Y4776D01*
X3950Y7300D01*
X3950Y7399D01*
X3950Y7999D01*
X3911Y8091D01*
X3841Y8161D01*
X3749Y8200D01*
X3650Y8200D01*
X2850Y8200D01*
X2758Y8161D01*
X2688Y8091D01*
X2650Y8000D01*
X2450Y8000D01*
X2450Y19050D01*
X2450Y19149D01*
X2450Y19749D01*
X2411Y19841D01*
X2341Y19911D01*
X2249Y19950D01*
X2150Y19950D01*
X1550Y19950D01*
X1458Y19911D01*
X1388Y19841D01*
X1350Y19749D01*
X1350Y19727D01*
X1211Y19865D01*
X1009Y19949D01*
X791Y19950D01*
X588Y19866D01*
X434Y19711D01*
X350Y19509D01*
X349Y19291D01*
X433Y19088D01*
X479Y19043D01*
X479Y14454D01*
X417Y14393D01*
X342Y14214D01*
X342Y14021D01*
X416Y13842D01*
X553Y13705D01*
X731Y13631D01*
X925Y13631D01*
X1104Y13704D01*
X1241Y13841D01*
X1315Y14020D01*
X1315Y14213D01*
X1241Y14392D01*
X1179Y14454D01*
X1179Y18920D01*
X1211Y18933D01*
X1350Y19072D01*
X1350Y19050D01*
X1388Y18958D01*
X1458Y18888D01*
X1550Y18850D01*
X1550Y12726D01*
X820Y11997D01*
X732Y11997D01*
X554Y11923D01*
X417Y11786D01*
X342Y11608D01*
X342Y11414D01*
X416Y11235D01*
X553Y11099D01*
X731Y11024D01*
X925Y11024D01*
X1104Y11098D01*
X1241Y11235D01*
X1315Y11413D01*
X1315Y11502D01*
X2147Y12334D01*
X2223Y12447D01*
X2223Y12447D01*
X2250Y12581D01*
X2250Y18850D01*
X2341Y18888D01*
X2411Y18958D01*
X2450Y19050D01*
X2450Y8000D01*
X1800Y8000D01*
X960Y8000D01*
X826Y7973D01*
X785Y7946D01*
X744Y7946D01*
X587Y7881D01*
X467Y7761D01*
X402Y7604D01*
X401Y7434D01*
X466Y7277D01*
X586Y7156D01*
X743Y7091D01*
X913Y7091D01*
X1070Y7156D01*
X1191Y7276D01*
X1200Y7300D01*
X1450Y7300D01*
X1450Y6325D01*
X1440Y6275D01*
X1440Y5659D01*
X1425Y5644D01*
X1425Y5749D01*
X1386Y5841D01*
X1316Y5911D01*
X1224Y5950D01*
X1125Y5950D01*
X575Y5950D01*
X483Y5911D01*
X413Y5841D01*
X375Y5749D01*
X375Y5650D01*
X375Y5300D01*
X413Y5208D01*
X445Y5175D01*
X414Y5098D01*
X414Y4999D01*
X414Y4527D01*
X452Y4435D01*
X487Y4400D01*
X452Y4364D01*
X414Y4272D01*
X414Y4173D01*
X414Y3701D01*
X452Y3609D01*
X522Y3539D01*
X614Y3501D01*
X713Y3501D01*
X1185Y3501D01*
X1277Y3539D01*
X1347Y3609D01*
X1359Y3637D01*
X1862Y3637D01*
X1995Y3663D01*
X1995Y3663D01*
X2012Y3675D01*
X2012Y3675D01*
X2099Y3675D01*
X2191Y3713D01*
X2261Y3783D01*
X2300Y3875D01*
X2300Y3974D01*
X2300Y4174D01*
X2261Y4266D01*
X2191Y4336D01*
X2099Y4375D01*
X2000Y4375D01*
X1900Y4375D01*
X1762Y4375D01*
X1795Y4425D01*
X1799Y4425D01*
X2099Y4425D01*
X2191Y4463D01*
X2261Y4533D01*
X2300Y4625D01*
X2300Y4724D01*
X2300Y4924D01*
X2261Y5016D01*
X2191Y5086D01*
X2099Y5125D01*
X2000Y5125D01*
X1894Y5125D01*
X2011Y5241D01*
X2054Y5270D01*
X2132Y5387D01*
X2160Y5525D01*
X2160Y6275D01*
X2150Y6325D01*
X2150Y7300D01*
X2650Y7300D01*
X2688Y7208D01*
X2758Y7138D01*
X2850Y7100D01*
X2949Y7100D01*
X3749Y7100D01*
X3841Y7138D01*
X3911Y7208D01*
X3950Y7300D01*
X3950Y4776D01*
X3718Y5008D01*
X3611Y5079D01*
X3485Y5105D01*
X3148Y5105D01*
X3099Y5125D01*
X3000Y5125D01*
X2700Y5125D01*
X2608Y5086D01*
X2538Y5016D01*
X2500Y4924D01*
X2500Y4825D01*
X2500Y4625D01*
X2538Y4533D01*
X2608Y4463D01*
X2700Y4425D01*
X2799Y4425D01*
X3099Y4425D01*
X3148Y4445D01*
X3348Y4445D01*
X3411Y4381D01*
X3394Y4375D01*
X3099Y4375D01*
X3000Y4375D01*
X2900Y4375D01*
X2700Y4375D01*
X2608Y4336D01*
X2538Y4266D01*
X2500Y4174D01*
X2500Y4075D01*
X2500Y3875D01*
X2538Y3783D01*
X2608Y3713D01*
X2700Y3675D01*
X2799Y3675D01*
X2900Y3675D01*
X3099Y3675D01*
X3323Y3675D01*
X3358Y3639D01*
X3515Y3575D01*
X3684Y3574D01*
X3770Y3610D01*
X3770Y3124D01*
X3709Y3149D01*
X3491Y3150D01*
X3288Y3066D01*
X3134Y2911D01*
X3100Y2830D01*
X3066Y2911D01*
X2911Y3065D01*
X2709Y3149D01*
X2491Y3150D01*
X2288Y3066D01*
X2134Y2911D01*
X2100Y2830D01*
X2066Y2911D01*
X1911Y3065D01*
X1709Y3149D01*
X1491Y3150D01*
X1288Y3066D01*
X1134Y2911D01*
X1050Y2709D01*
X1049Y2491D01*
X1133Y2288D01*
X1288Y2134D01*
X1369Y2100D01*
X1288Y2066D01*
X1134Y1911D01*
X1100Y1830D01*
X1066Y1911D01*
X911Y2065D01*
X709Y2149D01*
X491Y2150D01*
X288Y2066D01*
X279Y2057D01*
X279Y20720D01*
X17220Y20720D01*
X17220Y11358D01*
X17191Y11386D01*
X17099Y11425D01*
X17000Y11425D01*
X16650Y11425D01*
X16558Y11386D01*
X16488Y11316D01*
X16450Y11224D01*
X16450Y11125D01*
X16450Y10825D01*
X16450Y10575D01*
X16450Y10572D01*
X16422Y10560D01*
X16352Y10490D01*
X16314Y10398D01*
X16314Y10299D01*
X16314Y9827D01*
X16352Y9735D01*
X16387Y9700D01*
X16352Y9664D01*
X16314Y9572D01*
X16314Y9473D01*
X16314Y9001D01*
X16352Y8909D01*
X16422Y8839D01*
X16450Y8827D01*
X16450Y7951D01*
X16439Y7941D01*
X16375Y7784D01*
X16374Y7615D01*
X16439Y7459D01*
X16558Y7339D01*
X16715Y7275D01*
X16884Y7274D01*
X17040Y7339D01*
X17160Y7458D01*
X17220Y7604D01*
X17220Y279D01*
M02*
