G04 (created by PCBNEW (2013-mar-13)-testing) date Thu 20 Jun 2013 06:48:32 PM EDT*
%MOIN*%
G04 Gerber Fmt 3.4, Leading zero omitted, Abs format*
%FSLAX34Y34*%
G01*
G70*
G90*
G04 APERTURE LIST*
%ADD10C,0.006000*%
%ADD11C,0.009843*%
%ADD12C,0.007874*%
%ADD13C,0.005906*%
%ADD14C,0.008000*%
%ADD15C,0.005000*%
%ADD16C,0.015000*%
%ADD17C,0.010900*%
%ADD18C,0.007900*%
%ADD19C,0.007800*%
%ADD20C,0.010000*%
%ADD21C,0.012000*%
%ADD22C,0.006200*%
G04 APERTURE END LIST*
G54D10*
G54D11*
X7753Y13178D02*
X7771Y13196D01*
X7809Y13215D01*
X7903Y13215D01*
X7940Y13196D01*
X7959Y13178D01*
X7978Y13140D01*
X7978Y13103D01*
X7959Y13046D01*
X7734Y12821D01*
X7978Y12821D01*
X8109Y12821D02*
X8315Y13084D01*
X8109Y13084D02*
X8315Y12821D01*
X8446Y13178D02*
X8465Y13196D01*
X8503Y13215D01*
X8596Y13215D01*
X8634Y13196D01*
X8653Y13178D01*
X8671Y13140D01*
X8671Y13103D01*
X8653Y13046D01*
X8428Y12821D01*
X8671Y12821D01*
X9065Y12821D02*
X8934Y13009D01*
X8840Y12821D02*
X8840Y13215D01*
X8990Y13215D01*
X9028Y13196D01*
X9046Y13178D01*
X9065Y13140D01*
X9065Y13084D01*
X9046Y13046D01*
X9028Y13028D01*
X8990Y13009D01*
X8840Y13009D01*
X9234Y12821D02*
X9234Y13215D01*
X9384Y13215D01*
X9421Y13196D01*
X9440Y13178D01*
X9459Y13140D01*
X9459Y13084D01*
X9440Y13046D01*
X9421Y13028D01*
X9384Y13009D01*
X9234Y13009D01*
X9628Y12821D02*
X9628Y13084D01*
X9628Y13215D02*
X9609Y13196D01*
X9628Y13178D01*
X9646Y13196D01*
X9628Y13215D01*
X9628Y13178D01*
X6515Y12172D02*
X6515Y12565D01*
X6703Y12172D02*
X6703Y12565D01*
X6703Y12378D02*
X6928Y12378D01*
X6928Y12172D02*
X6928Y12565D01*
X7115Y12378D02*
X7247Y12378D01*
X7303Y12172D02*
X7115Y12172D01*
X7115Y12565D01*
X7303Y12565D01*
X8671Y12172D02*
X8671Y12434D01*
X8671Y12565D02*
X8653Y12547D01*
X8671Y12528D01*
X8690Y12547D01*
X8671Y12565D01*
X8671Y12528D01*
X8915Y12172D02*
X8878Y12191D01*
X8859Y12228D01*
X8859Y12565D01*
X9009Y12434D02*
X9159Y12434D01*
X9065Y12565D02*
X9065Y12228D01*
X9084Y12191D01*
X9121Y12172D01*
X9159Y12172D01*
X9253Y12565D02*
X9496Y12565D01*
X9365Y12416D01*
X9421Y12416D01*
X9459Y12397D01*
X9478Y12378D01*
X9496Y12341D01*
X9496Y12247D01*
X9478Y12209D01*
X9459Y12191D01*
X9421Y12172D01*
X9309Y12172D01*
X9271Y12191D01*
X9253Y12209D01*
X9665Y12209D02*
X9684Y12191D01*
X9665Y12172D01*
X9646Y12191D01*
X9665Y12209D01*
X9665Y12172D01*
X10021Y12191D02*
X9984Y12172D01*
X9909Y12172D01*
X9871Y12191D01*
X9852Y12209D01*
X9834Y12247D01*
X9834Y12359D01*
X9852Y12397D01*
X9871Y12416D01*
X9909Y12434D01*
X9984Y12434D01*
X10021Y12416D01*
X10246Y12172D02*
X10209Y12191D01*
X10190Y12209D01*
X10171Y12247D01*
X10171Y12359D01*
X10190Y12397D01*
X10209Y12416D01*
X10246Y12434D01*
X10302Y12434D01*
X10340Y12416D01*
X10359Y12397D01*
X10377Y12359D01*
X10377Y12247D01*
X10359Y12209D01*
X10340Y12191D01*
X10302Y12172D01*
X10246Y12172D01*
X10546Y12172D02*
X10546Y12434D01*
X10546Y12397D02*
X10565Y12416D01*
X10602Y12434D01*
X10659Y12434D01*
X10696Y12416D01*
X10715Y12378D01*
X10715Y12172D01*
X10715Y12378D02*
X10734Y12416D01*
X10771Y12434D01*
X10827Y12434D01*
X10865Y12416D01*
X10884Y12378D01*
X10884Y12172D01*
G54D12*
X1550Y16900D02*
X2400Y16900D01*
X850Y16900D02*
X1550Y16300D01*
X400Y16900D02*
X850Y16900D01*
X4750Y16900D02*
X5650Y16900D01*
X3850Y16900D02*
X4700Y16350D01*
X3450Y16900D02*
X3850Y16900D01*
G54D13*
X0Y21000D02*
X0Y0D01*
X17500Y21000D02*
X0Y21000D01*
X17500Y0D02*
X17500Y21000D01*
X0Y0D02*
X17500Y0D01*
X17400Y2500D02*
G75*
G03X17400Y2500I-200J0D01*
G74*
G01*
X17100Y1400D02*
X16100Y1400D01*
X16100Y1400D02*
X16100Y2400D01*
X17290Y2514D02*
G75*
G03X17290Y2514I-88J0D01*
G74*
G01*
G54D14*
X17100Y2400D02*
X4100Y2400D01*
X4100Y400D02*
X17100Y400D01*
X17100Y400D02*
X17100Y2400D01*
X4100Y2400D02*
X4100Y400D01*
G54D13*
X6400Y8100D02*
X6400Y8000D01*
X6600Y8100D02*
X6400Y8100D01*
X6400Y8100D02*
X6200Y8100D01*
X6400Y8400D02*
X6400Y8300D01*
X6400Y8300D02*
X6600Y8300D01*
X6600Y8300D02*
X6400Y8100D01*
X6400Y8100D02*
X6200Y8300D01*
X6200Y8300D02*
X6400Y8300D01*
G54D15*
X7450Y9200D02*
X6550Y9200D01*
X6550Y9200D02*
X6550Y8550D01*
X7450Y7850D02*
X7450Y7200D01*
X7450Y7200D02*
X6550Y7200D01*
X6550Y7200D02*
X6550Y7850D01*
X7450Y8550D02*
X7450Y9200D01*
G54D13*
X2500Y8300D02*
X2500Y8400D01*
X2500Y8100D02*
X2300Y8300D01*
X2300Y8300D02*
X2700Y8300D01*
X2700Y8300D02*
X2500Y8100D01*
X2500Y8000D02*
X2500Y8100D01*
X2500Y8100D02*
X2700Y8100D01*
X2700Y8100D02*
X2300Y8100D01*
G54D15*
X3550Y9200D02*
X2650Y9200D01*
X2650Y9200D02*
X2650Y8550D01*
X3550Y7850D02*
X3550Y7200D01*
X3550Y7200D02*
X2650Y7200D01*
X2650Y7200D02*
X2650Y7850D01*
X3550Y8550D02*
X3550Y9200D01*
X4300Y6000D02*
X4300Y6400D01*
X4300Y6400D02*
X4900Y6400D01*
X4900Y6400D02*
X4900Y6000D01*
X4900Y5600D02*
X4900Y5200D01*
X4900Y5200D02*
X4300Y5200D01*
X4300Y5200D02*
X4300Y5600D01*
G54D10*
X15587Y4878D02*
X14013Y4878D01*
X14013Y4878D02*
X14013Y9522D01*
X14013Y9522D02*
X15587Y9522D01*
X15587Y9522D02*
X15587Y4878D01*
G54D15*
X6350Y4800D02*
X7050Y4800D01*
X7050Y4800D02*
X7050Y3600D01*
X7050Y3600D02*
X6350Y3600D01*
X6350Y3600D02*
X6350Y4800D01*
X1850Y4900D02*
X2550Y4900D01*
X2550Y4900D02*
X2550Y3700D01*
X2550Y3700D02*
X1850Y3700D01*
X1850Y3700D02*
X1850Y4900D01*
X400Y6000D02*
X400Y6400D01*
X400Y6400D02*
X1000Y6400D01*
X1000Y6400D02*
X1000Y6000D01*
X1000Y5600D02*
X1000Y5200D01*
X1000Y5200D02*
X400Y5200D01*
X400Y5200D02*
X400Y5600D01*
X8000Y2700D02*
X7600Y2700D01*
X7600Y2700D02*
X7600Y3300D01*
X7600Y3300D02*
X8000Y3300D01*
X8400Y3300D02*
X8800Y3300D01*
X8800Y3300D02*
X8800Y2700D01*
X8800Y2700D02*
X8400Y2700D01*
X10200Y3300D02*
X10600Y3300D01*
X10600Y3300D02*
X10600Y2700D01*
X10600Y2700D02*
X10200Y2700D01*
X9800Y2700D02*
X9400Y2700D01*
X9400Y2700D02*
X9400Y3300D01*
X9400Y3300D02*
X9800Y3300D01*
G54D13*
X215Y6662D02*
X2184Y6662D01*
X2184Y6662D02*
X2184Y14537D01*
X2184Y14537D02*
X215Y14537D01*
X215Y14537D02*
X215Y6662D01*
X4215Y6662D02*
X6184Y6662D01*
X6184Y6662D02*
X6184Y14537D01*
X6184Y14537D02*
X4215Y14537D01*
X4215Y14537D02*
X4215Y6662D01*
G54D10*
X10700Y4350D02*
X11500Y4350D01*
X11500Y4350D02*
X11500Y4850D01*
X11500Y4850D02*
X10700Y4850D01*
X10700Y4850D02*
X10700Y4350D01*
G54D16*
X2581Y18119D02*
X2581Y20678D01*
X2581Y20678D02*
X219Y20678D01*
X219Y20678D02*
X219Y18119D01*
X219Y18119D02*
X2581Y18119D01*
X17274Y16981D02*
X16841Y16981D01*
X16841Y16981D02*
X16841Y19619D01*
X16841Y19619D02*
X17235Y19619D01*
X17333Y16430D02*
X11467Y16430D01*
X11467Y16430D02*
X11467Y20170D01*
X11467Y20170D02*
X17333Y20170D01*
X17333Y20170D02*
X17333Y16430D01*
G54D17*
X0Y4100D02*
X200Y4500D01*
X200Y4500D02*
X400Y4100D01*
X400Y4100D02*
X0Y4100D01*
X3900Y4100D02*
X4100Y4500D01*
X4100Y4500D02*
X4300Y4100D01*
X4300Y4100D02*
X3900Y4100D01*
G54D18*
X17169Y11931D02*
X17169Y15829D01*
X17169Y15829D02*
X15831Y15829D01*
X15831Y15829D02*
X15831Y15357D01*
X15831Y15357D02*
X14846Y15357D01*
X14846Y15357D02*
X14846Y12443D01*
X14846Y12443D02*
X15791Y12443D01*
X15791Y12443D02*
X15791Y11931D01*
X15791Y11931D02*
X17169Y11931D01*
G54D15*
X10100Y14500D02*
X10100Y14900D01*
X10100Y14900D02*
X10700Y14900D01*
X10700Y14900D02*
X10700Y14500D01*
X10700Y14100D02*
X10700Y13700D01*
X10700Y13700D02*
X10100Y13700D01*
X10100Y13700D02*
X10100Y14100D01*
X9200Y14500D02*
X9200Y14900D01*
X9200Y14900D02*
X9800Y14900D01*
X9800Y14900D02*
X9800Y14500D01*
X9800Y14100D02*
X9800Y13700D01*
X9800Y13700D02*
X9200Y13700D01*
X9200Y13700D02*
X9200Y14100D01*
X16100Y10500D02*
X15700Y10500D01*
X15700Y10500D02*
X15700Y11100D01*
X15700Y11100D02*
X16100Y11100D01*
X16500Y11100D02*
X16900Y11100D01*
X16900Y11100D02*
X16900Y10500D01*
X16900Y10500D02*
X16500Y10500D01*
G54D16*
X12406Y15181D02*
X12013Y15181D01*
X12013Y15181D02*
X11619Y14787D01*
X11619Y14787D02*
X11619Y12819D01*
X11619Y12819D02*
X12406Y12819D01*
X13194Y12819D02*
X13981Y12819D01*
X13981Y12819D02*
X13981Y14787D01*
X13981Y14787D02*
X13587Y15181D01*
X13587Y15181D02*
X13194Y15181D01*
G54D19*
X13784Y14000D02*
G75*
G03X13784Y14000I-984J0D01*
G74*
G01*
G54D17*
X15900Y9400D02*
X16100Y9800D01*
X16100Y9800D02*
X16300Y9400D01*
X16300Y9400D02*
X15900Y9400D01*
G54D15*
X16800Y3250D02*
X16800Y4150D01*
X16800Y4150D02*
X16150Y4150D01*
X15450Y3250D02*
X14800Y3250D01*
X14800Y3250D02*
X14800Y4150D01*
X14800Y4150D02*
X15450Y4150D01*
X16150Y3250D02*
X16800Y3250D01*
G54D16*
X6519Y20681D02*
X6519Y18122D01*
X6519Y18122D02*
X8881Y18122D01*
X8881Y18122D02*
X8881Y20681D01*
X8881Y20681D02*
X6519Y20681D01*
G54D15*
X11500Y6900D02*
X11100Y6900D01*
X11100Y6900D02*
X11100Y7500D01*
X11100Y7500D02*
X11500Y7500D01*
X11900Y7500D02*
X12300Y7500D01*
X12300Y7500D02*
X12300Y6900D01*
X12300Y6900D02*
X11900Y6900D01*
X11500Y6000D02*
X11100Y6000D01*
X11100Y6000D02*
X11100Y6600D01*
X11100Y6600D02*
X11500Y6600D01*
X11900Y6600D02*
X12300Y6600D01*
X12300Y6600D02*
X12300Y6000D01*
X12300Y6000D02*
X11900Y6000D01*
G54D20*
X12700Y9400D02*
X12200Y9400D01*
X12200Y9400D02*
X12200Y10400D01*
X12200Y10400D02*
X12700Y10400D01*
X12700Y8900D02*
X8700Y8900D01*
X8700Y8900D02*
X8700Y10900D01*
X8700Y10900D02*
X12700Y10900D01*
X12700Y10900D02*
X12700Y8900D01*
G54D10*
X9000Y5650D02*
X9800Y5650D01*
X9800Y5650D02*
X9800Y6150D01*
X9800Y6150D02*
X9000Y6150D01*
X9000Y6150D02*
X9000Y5650D01*
G54D16*
X5681Y18119D02*
X5681Y20678D01*
X5681Y20678D02*
X3319Y20678D01*
X3319Y20678D02*
X3319Y18119D01*
X3319Y18119D02*
X5681Y18119D01*
X8300Y15000D02*
G75*
G03X8300Y15000I-900J0D01*
G74*
G01*
G54D14*
X3780Y1104D02*
X3380Y1104D01*
X3380Y1257D01*
X3400Y1295D01*
X3419Y1314D01*
X3457Y1333D01*
X3514Y1333D01*
X3552Y1314D01*
X3571Y1295D01*
X3590Y1257D01*
X3590Y1104D01*
X3419Y1485D02*
X3400Y1504D01*
X3380Y1542D01*
X3380Y1638D01*
X3400Y1676D01*
X3419Y1695D01*
X3457Y1714D01*
X3495Y1714D01*
X3552Y1695D01*
X3780Y1466D01*
X3780Y1714D01*
G54D15*
X7135Y9378D02*
X6835Y9378D01*
X6835Y9450D01*
X6850Y9492D01*
X6878Y9521D01*
X6907Y9535D01*
X6964Y9550D01*
X7007Y9550D01*
X7064Y9535D01*
X7092Y9521D01*
X7121Y9492D01*
X7135Y9450D01*
X7135Y9378D01*
X6935Y9807D02*
X7135Y9807D01*
X6821Y9735D02*
X7035Y9664D01*
X7035Y9850D01*
X3235Y9378D02*
X2935Y9378D01*
X2935Y9450D01*
X2950Y9492D01*
X2978Y9521D01*
X3007Y9535D01*
X3064Y9550D01*
X3107Y9550D01*
X3164Y9535D01*
X3192Y9521D01*
X3221Y9492D01*
X3235Y9450D01*
X3235Y9378D01*
X2935Y9650D02*
X2935Y9835D01*
X3050Y9735D01*
X3050Y9778D01*
X3064Y9807D01*
X3078Y9821D01*
X3107Y9835D01*
X3178Y9835D01*
X3207Y9821D01*
X3221Y9807D01*
X3235Y9778D01*
X3235Y9692D01*
X3221Y9664D01*
X3207Y9650D01*
X4213Y5758D02*
X4094Y5675D01*
X4213Y5615D02*
X3963Y5615D01*
X3963Y5710D01*
X3975Y5734D01*
X3986Y5746D01*
X4010Y5758D01*
X4046Y5758D01*
X4070Y5746D01*
X4082Y5734D01*
X4094Y5710D01*
X4094Y5615D01*
X4046Y5972D02*
X4213Y5972D01*
X3951Y5913D02*
X4129Y5853D01*
X4129Y6008D01*
G54D10*
X14861Y9666D02*
X14880Y9723D01*
X14880Y9819D01*
X14861Y9857D01*
X14842Y9876D01*
X14804Y9895D01*
X14766Y9895D01*
X14728Y9876D01*
X14709Y9857D01*
X14690Y9819D01*
X14671Y9742D01*
X14652Y9704D01*
X14633Y9685D01*
X14595Y9666D01*
X14557Y9666D01*
X14519Y9685D01*
X14500Y9704D01*
X14480Y9742D01*
X14480Y9838D01*
X14500Y9895D01*
X14480Y10028D02*
X14880Y10123D01*
X14595Y10200D01*
X14880Y10276D01*
X14480Y10371D01*
X14880Y10733D02*
X14880Y10504D01*
X14880Y10619D02*
X14480Y10619D01*
X14538Y10580D01*
X14576Y10542D01*
X14595Y10504D01*
X16155Y4895D02*
X15755Y4895D01*
X15755Y5047D01*
X15775Y5085D01*
X15794Y5104D01*
X15832Y5123D01*
X15889Y5123D01*
X15927Y5104D01*
X15946Y5085D01*
X15965Y5047D01*
X15965Y4895D01*
X15755Y5257D02*
X16155Y5352D01*
X15870Y5428D01*
X16155Y5504D01*
X15755Y5600D01*
X16155Y5980D02*
X15965Y5847D01*
X16155Y5752D02*
X15755Y5752D01*
X15755Y5904D01*
X15775Y5942D01*
X15794Y5961D01*
X15832Y5980D01*
X15889Y5980D01*
X15927Y5961D01*
X15946Y5942D01*
X15965Y5904D01*
X15965Y5752D01*
X16136Y6438D02*
X16155Y6495D01*
X16155Y6590D01*
X16136Y6628D01*
X16117Y6647D01*
X16079Y6666D01*
X16041Y6666D01*
X16003Y6647D01*
X15984Y6628D01*
X15965Y6590D01*
X15946Y6514D01*
X15927Y6476D01*
X15908Y6457D01*
X15870Y6438D01*
X15832Y6438D01*
X15794Y6457D01*
X15775Y6476D01*
X15755Y6514D01*
X15755Y6609D01*
X15775Y6666D01*
X15755Y6800D02*
X16155Y6895D01*
X15870Y6971D01*
X16155Y7047D01*
X15755Y7142D01*
G54D13*
X15759Y8481D02*
X15759Y8556D01*
X15778Y8593D01*
X15815Y8631D01*
X15890Y8650D01*
X16021Y8650D01*
X16096Y8631D01*
X16134Y8593D01*
X16153Y8556D01*
X16153Y8481D01*
X16134Y8443D01*
X16096Y8406D01*
X16021Y8387D01*
X15890Y8387D01*
X15815Y8406D01*
X15778Y8443D01*
X15759Y8481D01*
X16153Y8818D02*
X15759Y8818D01*
X16153Y9043D01*
X15759Y9043D01*
G54D15*
X6563Y3109D02*
X6765Y3109D01*
X6789Y3121D01*
X6801Y3133D01*
X6813Y3157D01*
X6813Y3204D01*
X6801Y3228D01*
X6789Y3240D01*
X6765Y3252D01*
X6563Y3252D01*
X6586Y3359D02*
X6575Y3371D01*
X6563Y3395D01*
X6563Y3454D01*
X6575Y3478D01*
X6586Y3490D01*
X6610Y3502D01*
X6634Y3502D01*
X6670Y3490D01*
X6813Y3347D01*
X6813Y3502D01*
X2063Y3209D02*
X2265Y3209D01*
X2289Y3221D01*
X2301Y3233D01*
X2313Y3257D01*
X2313Y3304D01*
X2301Y3328D01*
X2289Y3340D01*
X2265Y3352D01*
X2063Y3352D01*
X2313Y3602D02*
X2313Y3459D01*
X2313Y3530D02*
X2063Y3530D01*
X2098Y3507D01*
X2122Y3483D01*
X2134Y3459D01*
X1413Y5758D02*
X1294Y5675D01*
X1413Y5615D02*
X1163Y5615D01*
X1163Y5710D01*
X1175Y5734D01*
X1186Y5746D01*
X1210Y5758D01*
X1246Y5758D01*
X1270Y5746D01*
X1282Y5734D01*
X1294Y5710D01*
X1294Y5615D01*
X1163Y5841D02*
X1163Y5996D01*
X1258Y5913D01*
X1258Y5948D01*
X1270Y5972D01*
X1282Y5984D01*
X1305Y5996D01*
X1365Y5996D01*
X1389Y5984D01*
X1401Y5972D01*
X1413Y5948D01*
X1413Y5877D01*
X1401Y5853D01*
X1389Y5841D01*
X7413Y2958D02*
X7294Y2875D01*
X7413Y2815D02*
X7163Y2815D01*
X7163Y2910D01*
X7175Y2934D01*
X7186Y2946D01*
X7210Y2958D01*
X7246Y2958D01*
X7270Y2946D01*
X7282Y2934D01*
X7294Y2910D01*
X7294Y2815D01*
X7413Y3196D02*
X7413Y3053D01*
X7413Y3125D02*
X7163Y3125D01*
X7198Y3101D01*
X7222Y3077D01*
X7234Y3053D01*
X11013Y2958D02*
X10894Y2875D01*
X11013Y2815D02*
X10763Y2815D01*
X10763Y2910D01*
X10775Y2934D01*
X10786Y2946D01*
X10810Y2958D01*
X10846Y2958D01*
X10870Y2946D01*
X10882Y2934D01*
X10894Y2910D01*
X10894Y2815D01*
X10786Y3053D02*
X10775Y3065D01*
X10763Y3089D01*
X10763Y3148D01*
X10775Y3172D01*
X10786Y3184D01*
X10810Y3196D01*
X10834Y3196D01*
X10870Y3184D01*
X11013Y3041D01*
X11013Y3196D01*
G54D13*
X1212Y14621D02*
X1212Y14884D01*
X1212Y14809D02*
X1231Y14846D01*
X1250Y14865D01*
X1287Y14884D01*
X1325Y14884D01*
X1606Y14640D02*
X1568Y14621D01*
X1493Y14621D01*
X1456Y14640D01*
X1437Y14678D01*
X1437Y14828D01*
X1456Y14865D01*
X1493Y14884D01*
X1568Y14884D01*
X1606Y14865D01*
X1625Y14828D01*
X1625Y14790D01*
X1437Y14753D01*
X1849Y14621D02*
X1812Y14640D01*
X1793Y14678D01*
X1793Y15015D01*
X2206Y14621D02*
X1981Y14621D01*
X2093Y14621D02*
X2093Y15015D01*
X2056Y14959D01*
X2018Y14921D01*
X1981Y14903D01*
X4312Y14621D02*
X4312Y14884D01*
X4312Y14809D02*
X4331Y14846D01*
X4350Y14865D01*
X4387Y14884D01*
X4425Y14884D01*
X4706Y14640D02*
X4668Y14621D01*
X4593Y14621D01*
X4556Y14640D01*
X4537Y14678D01*
X4537Y14828D01*
X4556Y14865D01*
X4593Y14884D01*
X4668Y14884D01*
X4706Y14865D01*
X4725Y14828D01*
X4725Y14790D01*
X4537Y14753D01*
X4949Y14621D02*
X4912Y14640D01*
X4893Y14678D01*
X4893Y15015D01*
X5081Y14978D02*
X5099Y14996D01*
X5137Y15015D01*
X5231Y15015D01*
X5268Y14996D01*
X5287Y14978D01*
X5306Y14940D01*
X5306Y14903D01*
X5287Y14846D01*
X5062Y14621D01*
X5306Y14621D01*
G54D15*
X10335Y4409D02*
X10578Y4409D01*
X10607Y4421D01*
X10621Y4433D01*
X10635Y4457D01*
X10635Y4504D01*
X10621Y4528D01*
X10607Y4540D01*
X10578Y4552D01*
X10335Y4552D01*
X10335Y4790D02*
X10335Y4671D01*
X10478Y4659D01*
X10464Y4671D01*
X10450Y4695D01*
X10450Y4754D01*
X10464Y4778D01*
X10478Y4790D01*
X10507Y4802D01*
X10578Y4802D01*
X10607Y4790D01*
X10621Y4778D01*
X10635Y4754D01*
X10635Y4695D01*
X10621Y4671D01*
X10607Y4659D01*
G54D10*
X278Y17564D02*
X278Y17864D01*
X392Y17864D01*
X421Y17850D01*
X435Y17835D01*
X450Y17807D01*
X450Y17764D01*
X435Y17735D01*
X421Y17721D01*
X392Y17707D01*
X278Y17707D01*
X707Y17764D02*
X707Y17564D01*
X635Y17878D02*
X564Y17664D01*
X750Y17664D01*
X1692Y17564D02*
X1592Y17707D01*
X1521Y17564D02*
X1521Y17864D01*
X1635Y17864D01*
X1664Y17850D01*
X1678Y17835D01*
X1692Y17807D01*
X1692Y17764D01*
X1678Y17735D01*
X1664Y17721D01*
X1635Y17707D01*
X1521Y17707D01*
X1821Y17721D02*
X1921Y17721D01*
X1964Y17564D02*
X1821Y17564D01*
X1821Y17864D01*
X1964Y17864D01*
X2235Y17564D02*
X2092Y17564D01*
X2092Y17864D01*
X2321Y17835D02*
X2335Y17850D01*
X2364Y17864D01*
X2435Y17864D01*
X2464Y17850D01*
X2478Y17835D01*
X2492Y17807D01*
X2492Y17778D01*
X2478Y17735D01*
X2307Y17564D01*
X2492Y17564D01*
G54D21*
X11071Y16457D02*
X10471Y16457D01*
X10471Y16685D01*
X10500Y16742D01*
X10528Y16771D01*
X10585Y16800D01*
X10671Y16800D01*
X10728Y16771D01*
X10757Y16742D01*
X10785Y16685D01*
X10785Y16457D01*
X11071Y17371D02*
X11071Y17028D01*
X11071Y17200D02*
X10471Y17200D01*
X10557Y17142D01*
X10614Y17085D01*
X10642Y17028D01*
X10471Y19042D02*
X11071Y19242D01*
X10471Y19442D01*
X11071Y19642D02*
X10471Y19642D01*
X11071Y19928D02*
X10471Y19928D01*
X11071Y20271D01*
X10471Y20271D01*
G54D15*
X835Y3078D02*
X535Y3078D01*
X535Y3150D01*
X550Y3192D01*
X578Y3221D01*
X607Y3235D01*
X664Y3250D01*
X707Y3250D01*
X764Y3235D01*
X792Y3221D01*
X821Y3192D01*
X835Y3150D01*
X835Y3078D01*
X835Y3535D02*
X835Y3364D01*
X835Y3450D02*
X535Y3450D01*
X578Y3421D01*
X607Y3392D01*
X621Y3364D01*
X4235Y3478D02*
X3935Y3478D01*
X3935Y3550D01*
X3950Y3592D01*
X3978Y3621D01*
X4007Y3635D01*
X4064Y3650D01*
X4107Y3650D01*
X4164Y3635D01*
X4192Y3621D01*
X4221Y3592D01*
X4235Y3550D01*
X4235Y3478D01*
X3964Y3764D02*
X3950Y3778D01*
X3935Y3807D01*
X3935Y3878D01*
X3950Y3907D01*
X3964Y3921D01*
X3992Y3935D01*
X4021Y3935D01*
X4064Y3921D01*
X4235Y3750D01*
X4235Y3935D01*
X10513Y15203D02*
X10394Y15120D01*
X10513Y15060D02*
X10263Y15060D01*
X10263Y15155D01*
X10275Y15179D01*
X10286Y15191D01*
X10310Y15203D01*
X10346Y15203D01*
X10370Y15191D01*
X10382Y15179D01*
X10394Y15155D01*
X10394Y15060D01*
X10263Y15286D02*
X10263Y15453D01*
X10513Y15346D01*
X9613Y15258D02*
X9494Y15175D01*
X9613Y15115D02*
X9363Y15115D01*
X9363Y15210D01*
X9375Y15234D01*
X9386Y15246D01*
X9410Y15258D01*
X9446Y15258D01*
X9470Y15246D01*
X9482Y15234D01*
X9494Y15210D01*
X9494Y15115D01*
X9470Y15401D02*
X9458Y15377D01*
X9446Y15365D01*
X9422Y15353D01*
X9410Y15353D01*
X9386Y15365D01*
X9375Y15377D01*
X9363Y15401D01*
X9363Y15448D01*
X9375Y15472D01*
X9386Y15484D01*
X9410Y15496D01*
X9422Y15496D01*
X9446Y15484D01*
X9458Y15472D01*
X9470Y15448D01*
X9470Y15401D01*
X9482Y15377D01*
X9494Y15365D01*
X9517Y15353D01*
X9565Y15353D01*
X9589Y15365D01*
X9601Y15377D01*
X9613Y15401D01*
X9613Y15448D01*
X9601Y15472D01*
X9589Y15484D01*
X9565Y15496D01*
X9517Y15496D01*
X9494Y15484D01*
X9482Y15472D01*
X9470Y15448D01*
X15513Y10758D02*
X15394Y10675D01*
X15513Y10615D02*
X15263Y10615D01*
X15263Y10710D01*
X15275Y10734D01*
X15286Y10746D01*
X15310Y10758D01*
X15346Y10758D01*
X15370Y10746D01*
X15382Y10734D01*
X15394Y10710D01*
X15394Y10615D01*
X15513Y10877D02*
X15513Y10925D01*
X15501Y10948D01*
X15489Y10960D01*
X15453Y10984D01*
X15405Y10996D01*
X15310Y10996D01*
X15286Y10984D01*
X15275Y10972D01*
X15263Y10948D01*
X15263Y10901D01*
X15275Y10877D01*
X15286Y10865D01*
X15310Y10853D01*
X15370Y10853D01*
X15394Y10865D01*
X15405Y10877D01*
X15417Y10901D01*
X15417Y10948D01*
X15405Y10972D01*
X15394Y10984D01*
X15370Y10996D01*
G54D22*
X13642Y12233D02*
X13661Y12214D01*
X13680Y12157D01*
X13680Y12119D01*
X13661Y12061D01*
X13623Y12023D01*
X13585Y12004D01*
X13509Y11985D01*
X13452Y11985D01*
X13376Y12004D01*
X13338Y12023D01*
X13300Y12061D01*
X13280Y12119D01*
X13280Y12157D01*
X13300Y12214D01*
X13319Y12233D01*
X13680Y12614D02*
X13680Y12385D01*
X13680Y12500D02*
X13280Y12500D01*
X13338Y12461D01*
X13376Y12423D01*
X13395Y12385D01*
G54D14*
X13492Y14871D02*
X13492Y15328D01*
X13721Y15100D02*
X13264Y15100D01*
G54D15*
X16935Y8278D02*
X16635Y8278D01*
X16635Y8350D01*
X16650Y8392D01*
X16678Y8421D01*
X16707Y8435D01*
X16764Y8450D01*
X16807Y8450D01*
X16864Y8435D01*
X16892Y8421D01*
X16921Y8392D01*
X16935Y8350D01*
X16935Y8278D01*
X16635Y8721D02*
X16635Y8578D01*
X16778Y8564D01*
X16764Y8578D01*
X16750Y8607D01*
X16750Y8678D01*
X16764Y8707D01*
X16778Y8721D01*
X16807Y8735D01*
X16878Y8735D01*
X16907Y8721D01*
X16921Y8707D01*
X16935Y8678D01*
X16935Y8607D01*
X16921Y8578D01*
X16907Y8564D01*
X14378Y3700D02*
X14378Y3600D01*
X14535Y3600D02*
X14235Y3600D01*
X14235Y3742D01*
X14535Y4014D02*
X14535Y3842D01*
X14535Y3928D02*
X14235Y3928D01*
X14278Y3900D01*
X14307Y3871D01*
X14321Y3842D01*
G54D10*
X8278Y17464D02*
X8278Y17764D01*
X8392Y17764D01*
X8421Y17750D01*
X8435Y17735D01*
X8450Y17707D01*
X8450Y17664D01*
X8435Y17635D01*
X8421Y17621D01*
X8392Y17607D01*
X8278Y17607D01*
X8550Y17764D02*
X8735Y17764D01*
X8635Y17650D01*
X8678Y17650D01*
X8707Y17635D01*
X8721Y17621D01*
X8735Y17592D01*
X8735Y17521D01*
X8721Y17492D01*
X8707Y17478D01*
X8678Y17464D01*
X8592Y17464D01*
X8564Y17478D01*
X8550Y17492D01*
G54D15*
X12713Y7039D02*
X12594Y6955D01*
X12713Y6896D02*
X12463Y6896D01*
X12463Y6991D01*
X12475Y7015D01*
X12486Y7027D01*
X12510Y7039D01*
X12546Y7039D01*
X12570Y7027D01*
X12582Y7015D01*
X12594Y6991D01*
X12594Y6896D01*
X12713Y7277D02*
X12713Y7134D01*
X12713Y7205D02*
X12463Y7205D01*
X12498Y7182D01*
X12522Y7158D01*
X12534Y7134D01*
X12463Y7432D02*
X12463Y7455D01*
X12475Y7479D01*
X12486Y7491D01*
X12510Y7503D01*
X12558Y7515D01*
X12617Y7515D01*
X12665Y7503D01*
X12689Y7491D01*
X12701Y7479D01*
X12713Y7455D01*
X12713Y7432D01*
X12701Y7408D01*
X12689Y7396D01*
X12665Y7384D01*
X12617Y7372D01*
X12558Y7372D01*
X12510Y7384D01*
X12486Y7396D01*
X12475Y7408D01*
X12463Y7432D01*
X12713Y6139D02*
X12594Y6055D01*
X12713Y5996D02*
X12463Y5996D01*
X12463Y6091D01*
X12475Y6115D01*
X12486Y6127D01*
X12510Y6139D01*
X12546Y6139D01*
X12570Y6127D01*
X12582Y6115D01*
X12594Y6091D01*
X12594Y5996D01*
X12713Y6377D02*
X12713Y6234D01*
X12713Y6305D02*
X12463Y6305D01*
X12498Y6282D01*
X12522Y6258D01*
X12534Y6234D01*
X12713Y6615D02*
X12713Y6472D01*
X12713Y6544D02*
X12463Y6544D01*
X12498Y6520D01*
X12522Y6496D01*
X12534Y6472D01*
G54D14*
X12926Y9557D02*
X13330Y9557D01*
X13378Y9578D01*
X13402Y9600D01*
X13426Y9642D01*
X13426Y9728D01*
X13402Y9771D01*
X13378Y9792D01*
X13330Y9814D01*
X12926Y9814D01*
X12926Y9985D02*
X12926Y10264D01*
X13116Y10114D01*
X13116Y10178D01*
X13140Y10221D01*
X13164Y10242D01*
X13211Y10264D01*
X13330Y10264D01*
X13378Y10242D01*
X13402Y10221D01*
X13426Y10178D01*
X13426Y10050D01*
X13402Y10007D01*
X13378Y9985D01*
G54D15*
X8535Y5709D02*
X8778Y5709D01*
X8807Y5721D01*
X8821Y5733D01*
X8835Y5757D01*
X8835Y5804D01*
X8821Y5828D01*
X8807Y5840D01*
X8778Y5852D01*
X8535Y5852D01*
X8635Y6078D02*
X8835Y6078D01*
X8521Y6019D02*
X8735Y5959D01*
X8735Y6114D01*
G54D10*
X3578Y17564D02*
X3578Y17864D01*
X3692Y17864D01*
X3721Y17850D01*
X3735Y17835D01*
X3750Y17807D01*
X3750Y17764D01*
X3735Y17735D01*
X3721Y17721D01*
X3692Y17707D01*
X3578Y17707D01*
X4007Y17864D02*
X3950Y17864D01*
X3921Y17850D01*
X3907Y17835D01*
X3878Y17792D01*
X3864Y17735D01*
X3864Y17621D01*
X3878Y17592D01*
X3892Y17578D01*
X3921Y17564D01*
X3978Y17564D01*
X4007Y17578D01*
X4021Y17592D01*
X4035Y17621D01*
X4035Y17692D01*
X4021Y17721D01*
X4007Y17735D01*
X3978Y17750D01*
X3921Y17750D01*
X3892Y17735D01*
X3878Y17721D01*
X3864Y17692D01*
X4992Y17564D02*
X4892Y17707D01*
X4821Y17564D02*
X4821Y17864D01*
X4935Y17864D01*
X4964Y17850D01*
X4978Y17835D01*
X4992Y17807D01*
X4992Y17764D01*
X4978Y17735D01*
X4964Y17721D01*
X4935Y17707D01*
X4821Y17707D01*
X5121Y17721D02*
X5221Y17721D01*
X5264Y17564D02*
X5121Y17564D01*
X5121Y17864D01*
X5264Y17864D01*
X5535Y17564D02*
X5392Y17564D01*
X5392Y17864D01*
X5792Y17564D02*
X5621Y17564D01*
X5707Y17564D02*
X5707Y17864D01*
X5678Y17821D01*
X5650Y17792D01*
X5621Y17778D01*
M02*
