M48
;DRILL file {Pcbnew (2013-mar-13)-testing} date Mon 24 Jun 2013 02:45:40 PM EDT
;FORMAT={-:-/ absolute / inch / decimal}
FMAT,2
INCH,TZ
T1C0.024
T2C0.025
T3C0.032
T4C0.035
T5C0.039
T6C0.039
T7C0.040
T8C0.043
T9C0.075
%
G90
G05
M72
T1
X0.0779Y0.9719
X0.0779Y0.8719
X0.4529Y0.9719
X0.4529Y0.8719
T2
X0.38Y0.67
X0.41Y0.27
X0.64Y0.54
X0.81Y0.49
X0.95Y0.37
X1.01Y0.42
X1.06Y0.62
X1.38Y0.37
X1.43Y1.41
X1.66Y0.76
T3
X0.92Y1.14
X0.92Y0.84
X1.02Y1.14
X1.02Y0.84
X1.12Y1.14
X1.12Y0.84
X1.22Y1.14
X1.22Y0.84
T4
X0.0779Y1.5317
X0.0779Y1.2711
X0.4529Y1.5317
X0.4529Y1.2711
T5
X1.48Y0.8184
X1.48Y0.6216
T7
X0.09Y1.93
X0.19Y1.93
X0.4Y1.93
X0.46Y0.19
X0.46Y0.09
X0.5Y1.93
X0.56Y0.19
X0.56Y0.09
X0.66Y0.19
X0.66Y0.09
X0.72Y1.95
X0.76Y0.19
X0.76Y0.09
X0.82Y1.95
X0.86Y0.19
X0.86Y0.09
X0.96Y0.19
X0.96Y0.09
X1.06Y0.19
X1.06Y0.09
X1.16Y0.19
X1.16Y0.09
X1.26Y0.19
X1.26Y0.09
X1.36Y0.19
X1.36Y0.09
X1.46Y0.19
X1.46Y0.09
X1.48Y0.72
X1.56Y0.19
X1.56Y0.09
X1.66Y0.19
X1.66Y0.09
T8
X1.5319Y1.4845
X1.5319Y1.2955
T9
X1.1841Y1.83
X1.3022Y2.015
X1.4203Y1.83
T6
X1.6696Y1.5514G85X1.6303Y1.5514
G05
X1.6696Y1.2286G85X1.6303Y1.2286
G05
T0
M30
