G04 (created by PCBNEW (2013-mar-13)-testing) date Mon 24 Jun 2013 02:45:38 PM EDT*
%MOIN*%
G04 Gerber Fmt 3.4, Leading zero omitted, Abs format*
%FSLAX34Y34*%
G01*
G70*
G90*
G04 APERTURE LIST*
%ADD10C,0.006000*%
%ADD11C,0.005906*%
%ADD12C,0.009843*%
%ADD13R,0.047200X0.047200*%
%ADD14R,0.060000X0.060000*%
%ADD15C,0.060000*%
%ADD16R,0.066900X0.015700*%
%ADD17R,0.090600X0.051200*%
%ADD18R,0.059100X0.051200*%
%ADD19R,0.098400X0.070900*%
%ADD20R,0.080000X0.060000*%
%ADD21R,0.055000X0.035000*%
%ADD22R,0.030000X0.020000*%
%ADD23R,0.035000X0.055000*%
%ADD24C,0.047244*%
%ADD25C,0.035433*%
%ADD26R,0.012000X0.020000*%
%ADD27O,0.236200X0.098400*%
%ADD28O,0.098400X0.157500*%
%ADD29R,0.039300X0.098400*%
%ADD30R,0.060000X0.080000*%
%ADD31R,0.055000X0.055000*%
%ADD32C,0.055000*%
%ADD33C,0.035000*%
%ADD34C,0.022000*%
%ADD35C,0.014000*%
%ADD36C,0.010000*%
G04 APERTURE END LIST*
G54D10*
G54D11*
X3000Y5000D02*
X0Y5000D01*
X3000Y0D02*
X3000Y5000D01*
G54D12*
X7292Y12052D02*
X7435Y11671D01*
X7578Y12052D01*
X7126Y12242D02*
X7126Y12552D01*
X7316Y12385D01*
X7316Y12457D01*
X7340Y12504D01*
X7364Y12528D01*
X7411Y12552D01*
X7530Y12552D01*
X7578Y12528D01*
X7602Y12504D01*
X7626Y12457D01*
X7626Y12314D01*
X7602Y12266D01*
X7578Y12242D01*
G54D11*
X0Y21000D02*
X0Y5000D01*
X17500Y21000D02*
X0Y21000D01*
X17500Y0D02*
X17500Y21000D01*
X3000Y0D02*
X17500Y0D01*
G54D13*
X16600Y9187D03*
X16600Y10013D03*
G54D14*
X7200Y19500D03*
G54D15*
X8200Y19500D03*
G54D16*
X15358Y13900D03*
X15358Y13644D03*
X15358Y14412D03*
G54D17*
X16500Y12286D03*
G54D18*
X15319Y12955D03*
G54D17*
X16500Y15514D03*
G54D18*
X15319Y14845D03*
G54D16*
X15358Y14156D03*
G54D19*
X16579Y13349D03*
X16579Y14451D03*
G54D16*
X15358Y13388D03*
G54D14*
X16600Y1900D03*
G54D15*
X16600Y900D03*
X15600Y1900D03*
X15600Y900D03*
X14600Y1900D03*
X14600Y900D03*
X13600Y1900D03*
X13600Y900D03*
X12600Y1900D03*
X12600Y900D03*
X11600Y1900D03*
X11600Y900D03*
X10600Y1900D03*
X10600Y900D03*
X9600Y1900D03*
X9600Y900D03*
X8600Y1900D03*
X8600Y900D03*
X7600Y1900D03*
X7600Y900D03*
X6600Y1900D03*
X6600Y900D03*
X5600Y1900D03*
X5600Y900D03*
X4600Y1900D03*
X4600Y900D03*
G54D20*
X7100Y10050D03*
X7100Y8750D03*
X3300Y10050D03*
X3300Y8750D03*
G54D21*
X4600Y6175D03*
X4600Y5425D03*
G54D14*
X14800Y6216D03*
G54D15*
X14800Y7200D03*
X14800Y8184D03*
G54D22*
X7200Y3825D03*
X7200Y4575D03*
X6200Y3825D03*
X7200Y4200D03*
X6200Y4575D03*
X3200Y5725D03*
X3200Y6475D03*
X2200Y5725D03*
X3200Y6100D03*
X2200Y6475D03*
G54D23*
X525Y7400D03*
X1275Y7400D03*
X7825Y3000D03*
X8575Y3000D03*
X10375Y3000D03*
X9625Y3000D03*
G54D24*
X779Y15317D03*
X779Y12711D03*
G54D25*
X779Y8718D03*
X779Y9718D03*
G54D24*
X4529Y15317D03*
X4529Y12711D03*
G54D25*
X4529Y8718D03*
X4529Y9718D03*
G54D26*
X11350Y5000D03*
X10850Y5000D03*
X11350Y4200D03*
X11100Y5000D03*
X10850Y4200D03*
G54D14*
X1900Y19300D03*
G54D15*
X900Y19300D03*
G54D27*
X13022Y20150D03*
G54D28*
X14203Y18300D03*
X11841Y18300D03*
G54D13*
X1000Y5587D03*
X1000Y6413D03*
X4600Y3887D03*
X4600Y4713D03*
G54D21*
X10400Y14675D03*
X10400Y13925D03*
X9500Y14675D03*
X9500Y13925D03*
G54D23*
X15925Y10800D03*
X16675Y10800D03*
G54D29*
X12800Y15179D03*
X12800Y12820D03*
G54D30*
X16450Y3700D03*
X15150Y3700D03*
G54D23*
X11325Y7200D03*
X12075Y7200D03*
X11325Y6300D03*
X12075Y6300D03*
G54D31*
X12200Y11400D03*
G54D32*
X11200Y11400D03*
X10200Y11400D03*
X9200Y11400D03*
X9200Y8400D03*
X10200Y8400D03*
X11200Y8400D03*
X12200Y8400D03*
G54D26*
X9650Y6300D03*
X9150Y6300D03*
X9650Y5500D03*
X9400Y6300D03*
X9150Y5500D03*
G54D14*
X5000Y19300D03*
G54D15*
X4000Y19300D03*
G54D33*
X16600Y7600D03*
X13800Y3700D03*
X8100Y4900D03*
X14300Y14100D03*
X9500Y3700D03*
X4100Y2700D03*
X3800Y6700D03*
X10100Y4200D03*
X6400Y5400D03*
X10600Y6200D03*
G54D34*
X11350Y4200D02*
X11400Y4200D01*
X12075Y4875D02*
X12075Y6300D01*
X11400Y4200D02*
X12075Y4875D01*
X16600Y1900D02*
X16600Y2300D01*
X12750Y2800D02*
X11350Y4200D01*
X16100Y2800D02*
X12750Y2800D01*
X16600Y2300D02*
X16100Y2800D01*
G54D35*
X12075Y7200D02*
X12075Y6300D01*
X12075Y7200D02*
X12075Y8275D01*
X12075Y8275D02*
X12200Y8400D01*
X11350Y4200D02*
X11350Y4450D01*
X10550Y4600D02*
X9650Y5500D01*
X11200Y4600D02*
X10550Y4600D01*
X11350Y4450D02*
X11200Y4600D01*
G54D34*
X3200Y5725D02*
X3200Y5600D01*
X6575Y3200D02*
X7200Y3825D01*
X4100Y3200D02*
X6575Y3200D01*
X3700Y3600D02*
X4100Y3200D01*
X3700Y5100D02*
X3700Y3600D01*
X3200Y5600D02*
X3700Y5100D01*
X16600Y7600D02*
X16600Y9187D01*
X7200Y3825D02*
X7725Y3825D01*
X8100Y4200D02*
X8100Y4900D01*
X7725Y3825D02*
X8100Y4200D01*
X15150Y3700D02*
X13800Y3700D01*
G54D35*
X15600Y900D02*
X16600Y900D01*
G54D34*
X5600Y3887D02*
X5600Y8600D01*
X5600Y8600D02*
X5718Y8718D01*
X4529Y8718D02*
X5718Y8718D01*
X5718Y8718D02*
X7068Y8718D01*
X7068Y8718D02*
X7100Y8750D01*
X4600Y3887D02*
X5400Y3887D01*
X5400Y3887D02*
X5600Y3887D01*
X5600Y3887D02*
X6138Y3887D01*
X6138Y3887D02*
X6200Y3825D01*
X2081Y8718D02*
X3268Y8718D01*
X3268Y8718D02*
X3300Y8750D01*
X779Y8718D02*
X2081Y8718D01*
X1700Y6700D02*
X2100Y7100D01*
X2100Y7100D02*
X2100Y8700D01*
X1700Y6700D02*
X1700Y5587D01*
X2081Y8718D02*
X2100Y8700D01*
X1000Y5587D02*
X1700Y5587D01*
X1700Y5587D02*
X2062Y5587D01*
X2062Y5587D02*
X2200Y5725D01*
X12800Y15179D02*
X12800Y17341D01*
X12800Y17341D02*
X11841Y18300D01*
X14300Y14300D02*
X14300Y14400D01*
X14300Y14100D02*
X14300Y14300D01*
X14300Y14400D02*
X13521Y15179D01*
X13521Y15179D02*
X12800Y15179D01*
G54D35*
X15358Y14412D02*
X14288Y14412D01*
X13521Y15179D02*
X12800Y15179D01*
X14288Y14412D02*
X13521Y15179D01*
X9150Y4050D02*
X9150Y5500D01*
X9500Y3700D02*
X9150Y4050D01*
G54D34*
X9625Y3000D02*
X9600Y3000D01*
X7200Y4700D02*
X7200Y4575D01*
X7900Y5400D02*
X7200Y4700D01*
X8400Y5400D02*
X7900Y5400D01*
X8700Y5100D02*
X8400Y5400D01*
X8700Y3900D02*
X8700Y5100D01*
X9600Y3000D02*
X8700Y3900D01*
G54D35*
X9600Y900D02*
X9600Y1000D01*
X9625Y2775D02*
X9625Y3000D01*
X10100Y2300D02*
X9625Y2775D01*
X10100Y1500D02*
X10100Y2300D01*
X9600Y1000D02*
X10100Y1500D01*
G54D34*
X6100Y2800D02*
X4200Y2800D01*
X4200Y2800D02*
X4100Y2700D01*
X8575Y3000D02*
X8575Y3225D01*
X3575Y6475D02*
X3200Y6475D01*
X3800Y6700D02*
X3575Y6475D01*
X6800Y2800D02*
X6100Y2800D01*
X7500Y3500D02*
X6800Y2800D01*
X8300Y3500D02*
X7500Y3500D01*
X8575Y3225D02*
X8300Y3500D01*
G54D35*
X8575Y3000D02*
X8575Y2725D01*
X9100Y1400D02*
X8600Y900D01*
X9100Y2200D02*
X9100Y1400D01*
X8575Y2725D02*
X9100Y2200D01*
X10100Y4200D02*
X10850Y4200D01*
G54D34*
X8200Y19500D02*
X8200Y17300D01*
X10400Y15100D02*
X10400Y14675D01*
X8200Y17300D02*
X10400Y15100D01*
X9500Y14675D02*
X9500Y14900D01*
X7200Y17200D02*
X7200Y19500D01*
X9500Y14900D02*
X7200Y17200D01*
X6600Y5200D02*
X7200Y5200D01*
X6400Y5400D02*
X6600Y5200D01*
X4600Y6175D02*
X4600Y7200D01*
X4100Y7700D02*
X4100Y10050D01*
X4600Y7200D02*
X4100Y7700D01*
X4600Y6175D02*
X3775Y6175D01*
X3700Y6100D02*
X3200Y6100D01*
X3775Y6175D02*
X3700Y6100D01*
X525Y7400D02*
X525Y7975D01*
X300Y9239D02*
X779Y9718D01*
X300Y8200D02*
X300Y9239D01*
X525Y7975D02*
X300Y8200D01*
X7100Y10050D02*
X7850Y10050D01*
X7850Y10050D02*
X9200Y11400D01*
X4529Y9718D02*
X6768Y9718D01*
X6768Y9718D02*
X7100Y10050D01*
X3300Y10050D02*
X4100Y10050D01*
X4100Y10050D02*
X4198Y10050D01*
X4198Y10050D02*
X4529Y9718D01*
X779Y9718D02*
X2968Y9718D01*
X2968Y9718D02*
X3300Y10050D01*
X16579Y14451D02*
X16579Y15435D01*
X16579Y15435D02*
X16500Y15514D01*
X7200Y4200D02*
X6800Y4200D01*
X6800Y4200D02*
X6700Y4300D01*
X6700Y4300D02*
X6700Y4700D01*
X6700Y4700D02*
X7200Y5200D01*
X7900Y5900D02*
X8500Y5900D01*
X7200Y5200D02*
X7900Y5900D01*
X9300Y5900D02*
X8500Y5900D01*
X8600Y7800D02*
X9200Y8400D01*
X8600Y6000D02*
X8600Y7800D01*
X8500Y5900D02*
X8600Y6000D01*
X4600Y1900D02*
X4500Y1900D01*
X4200Y300D02*
X8000Y300D01*
X4000Y500D02*
X4200Y300D01*
X4000Y1400D02*
X4000Y500D01*
X4500Y1900D02*
X4000Y1400D01*
X7600Y900D02*
X7600Y700D01*
X10000Y300D02*
X10600Y900D01*
X8000Y300D02*
X10000Y300D01*
X7600Y700D02*
X8000Y300D01*
X11200Y11400D02*
X11200Y10500D01*
X11200Y10500D02*
X11200Y10600D01*
X11200Y10600D02*
X11200Y10500D01*
X9200Y11400D02*
X9200Y11000D01*
X9200Y11000D02*
X9700Y10500D01*
X9700Y10500D02*
X11200Y10500D01*
X12800Y10500D02*
X12800Y12820D01*
X11200Y10500D02*
X12800Y10500D01*
X9200Y8400D02*
X9200Y11400D01*
X14203Y18300D02*
X14203Y18969D01*
X14203Y18969D02*
X13022Y20150D01*
X16500Y15514D02*
X15988Y15514D01*
X15988Y15514D02*
X15319Y14845D01*
X14203Y18300D02*
X14203Y15961D01*
X14203Y15961D02*
X15319Y14845D01*
X15925Y10800D02*
X15925Y11711D01*
X15925Y11711D02*
X16500Y12286D01*
G54D35*
X14600Y900D02*
X14500Y900D01*
X13100Y1400D02*
X12600Y1900D01*
X14000Y1400D02*
X13100Y1400D01*
X14500Y900D02*
X14000Y1400D01*
X12600Y1900D02*
X12600Y2200D01*
X12400Y2400D02*
X10975Y2400D01*
X12600Y2200D02*
X12400Y2400D01*
X10600Y900D02*
X10600Y1000D01*
X10600Y1000D02*
X11100Y1500D01*
X11100Y1500D02*
X11100Y2275D01*
X11100Y2275D02*
X10975Y2400D01*
X10975Y2400D02*
X10375Y3000D01*
X7600Y900D02*
X8100Y1400D01*
X8100Y2725D02*
X7825Y3000D01*
X8100Y1400D02*
X8100Y2725D01*
X9150Y6300D02*
X9150Y6050D01*
X10600Y5000D02*
X10850Y5000D01*
X9700Y5900D02*
X10600Y5000D01*
X9300Y5900D02*
X9700Y5900D01*
X9150Y6050D02*
X9300Y5900D01*
X15319Y12955D02*
X12935Y12955D01*
X12935Y12955D02*
X12800Y12820D01*
X16579Y13349D02*
X16579Y12365D01*
X16579Y12365D02*
X16500Y12286D01*
X15358Y13388D02*
X16540Y13388D01*
X16579Y15435D02*
X16500Y15514D01*
X16579Y13427D02*
X16579Y15435D01*
X16540Y13388D02*
X16579Y13427D01*
X15358Y13644D02*
X15358Y13388D01*
X15358Y13388D02*
X15319Y13349D01*
X15319Y13349D02*
X15319Y12955D01*
G54D34*
X1000Y6413D02*
X1000Y7125D01*
X1000Y7125D02*
X1275Y7400D01*
X16450Y3700D02*
X16450Y5550D01*
X16450Y5550D02*
X14800Y7200D01*
X16600Y10013D02*
X16600Y10725D01*
X16600Y10725D02*
X16675Y10800D01*
X4600Y4713D02*
X4600Y5425D01*
X779Y12711D02*
X911Y12711D01*
X1900Y13700D02*
X1900Y19300D01*
X911Y12711D02*
X1900Y13700D01*
X779Y15317D02*
X779Y19179D01*
X779Y19179D02*
X900Y19300D01*
X4000Y19300D02*
X4000Y15846D01*
X4000Y15846D02*
X4529Y15317D01*
X5000Y19300D02*
X5000Y15700D01*
X5300Y13481D02*
X4529Y12711D01*
X5300Y15400D02*
X5300Y13481D01*
X5000Y15700D02*
X5300Y15400D01*
G54D35*
X11325Y6300D02*
X10700Y6300D01*
X10700Y6300D02*
X10600Y6200D01*
X11100Y5000D02*
X11100Y5700D01*
X11325Y5925D02*
X11325Y6300D01*
X11100Y5700D02*
X11325Y5925D01*
X9400Y6300D02*
X9400Y6700D01*
X9900Y7200D02*
X11325Y7200D01*
X9400Y6700D02*
X9900Y7200D01*
X11325Y7200D02*
X11325Y8275D01*
X11325Y8275D02*
X11200Y8400D01*
G54D34*
X10200Y11400D02*
X10200Y13225D01*
X10200Y13225D02*
X9500Y13925D01*
X12200Y11400D02*
X12200Y12125D01*
X12200Y12125D02*
X10400Y13925D01*
G54D10*
G36*
X8424Y2422D02*
X8288Y2366D01*
X8134Y2211D01*
X8100Y2130D01*
X8066Y2211D01*
X7911Y2365D01*
X7709Y2449D01*
X7491Y2450D01*
X7288Y2366D01*
X7134Y2211D01*
X7100Y2130D01*
X7066Y2211D01*
X6911Y2365D01*
X6733Y2440D01*
X6800Y2440D01*
X6800Y2440D01*
X6937Y2467D01*
X6937Y2467D01*
X7054Y2545D01*
X7649Y3140D01*
X8150Y3140D01*
X8150Y2675D01*
X8188Y2583D01*
X8258Y2513D01*
X8350Y2475D01*
X8372Y2475D01*
X8424Y2422D01*
X8424Y2422D01*
G37*
G54D36*
X8424Y2422D02*
X8288Y2366D01*
X8134Y2211D01*
X8100Y2130D01*
X8066Y2211D01*
X7911Y2365D01*
X7709Y2449D01*
X7491Y2450D01*
X7288Y2366D01*
X7134Y2211D01*
X7100Y2130D01*
X7066Y2211D01*
X6911Y2365D01*
X6733Y2440D01*
X6800Y2440D01*
X6800Y2440D01*
X6937Y2467D01*
X6937Y2467D01*
X7054Y2545D01*
X7649Y3140D01*
X8150Y3140D01*
X8150Y2675D01*
X8188Y2583D01*
X8258Y2513D01*
X8350Y2475D01*
X8372Y2475D01*
X8424Y2422D01*
G54D10*
G36*
X13466Y2440D02*
X13288Y2366D01*
X13134Y2211D01*
X13050Y2009D01*
X13049Y1791D01*
X13133Y1588D01*
X13288Y1434D01*
X13369Y1400D01*
X13288Y1366D01*
X13134Y1211D01*
X13100Y1130D01*
X13066Y1211D01*
X12911Y1365D01*
X12709Y1449D01*
X12491Y1450D01*
X12288Y1366D01*
X12134Y1211D01*
X12100Y1130D01*
X12066Y1211D01*
X11911Y1365D01*
X11830Y1399D01*
X11911Y1433D01*
X12065Y1588D01*
X12149Y1790D01*
X12150Y2008D01*
X12066Y2211D01*
X11911Y2365D01*
X11709Y2449D01*
X11491Y2450D01*
X11288Y2366D01*
X11134Y2211D01*
X11100Y2130D01*
X11066Y2211D01*
X10911Y2365D01*
X10709Y2449D01*
X10491Y2450D01*
X10397Y2411D01*
X10395Y2422D01*
X10326Y2526D01*
X10050Y2802D01*
X10050Y3324D01*
X10011Y3416D01*
X9941Y3486D01*
X9881Y3511D01*
X9924Y3615D01*
X9925Y3784D01*
X9910Y3818D01*
X10015Y3775D01*
X10184Y3774D01*
X10340Y3839D01*
X10381Y3880D01*
X10667Y3880D01*
X10740Y3850D01*
X10839Y3850D01*
X10959Y3850D01*
X11051Y3888D01*
X11100Y3936D01*
X11148Y3888D01*
X11155Y3884D01*
X12495Y2545D01*
X12495Y2545D01*
X12612Y2467D01*
X12750Y2440D01*
X13466Y2440D01*
X13466Y2440D01*
G37*
G54D36*
X13466Y2440D02*
X13288Y2366D01*
X13134Y2211D01*
X13050Y2009D01*
X13049Y1791D01*
X13133Y1588D01*
X13288Y1434D01*
X13369Y1400D01*
X13288Y1366D01*
X13134Y1211D01*
X13100Y1130D01*
X13066Y1211D01*
X12911Y1365D01*
X12709Y1449D01*
X12491Y1450D01*
X12288Y1366D01*
X12134Y1211D01*
X12100Y1130D01*
X12066Y1211D01*
X11911Y1365D01*
X11830Y1399D01*
X11911Y1433D01*
X12065Y1588D01*
X12149Y1790D01*
X12150Y2008D01*
X12066Y2211D01*
X11911Y2365D01*
X11709Y2449D01*
X11491Y2450D01*
X11288Y2366D01*
X11134Y2211D01*
X11100Y2130D01*
X11066Y2211D01*
X10911Y2365D01*
X10709Y2449D01*
X10491Y2450D01*
X10397Y2411D01*
X10395Y2422D01*
X10326Y2526D01*
X10050Y2802D01*
X10050Y3324D01*
X10011Y3416D01*
X9941Y3486D01*
X9881Y3511D01*
X9924Y3615D01*
X9925Y3784D01*
X9910Y3818D01*
X10015Y3775D01*
X10184Y3774D01*
X10340Y3839D01*
X10381Y3880D01*
X10667Y3880D01*
X10740Y3850D01*
X10839Y3850D01*
X10959Y3850D01*
X11051Y3888D01*
X11100Y3936D01*
X11148Y3888D01*
X11155Y3884D01*
X12495Y2545D01*
X12495Y2545D01*
X12612Y2467D01*
X12750Y2440D01*
X13466Y2440D01*
G54D10*
G36*
X17220Y279D02*
X3279Y279D01*
X3279Y5000D01*
X3276Y5014D01*
X3340Y4950D01*
X3340Y3600D01*
X3367Y3462D01*
X3445Y3345D01*
X3794Y2995D01*
X3739Y2941D01*
X3675Y2784D01*
X3674Y2615D01*
X3739Y2459D01*
X3858Y2339D01*
X4015Y2275D01*
X4184Y2274D01*
X4340Y2339D01*
X4441Y2440D01*
X5466Y2440D01*
X5288Y2366D01*
X5134Y2211D01*
X5050Y2009D01*
X5049Y1791D01*
X5133Y1588D01*
X5288Y1434D01*
X5369Y1400D01*
X5288Y1366D01*
X5134Y1211D01*
X5100Y1130D01*
X5066Y1211D01*
X4911Y1365D01*
X4709Y1449D01*
X4491Y1450D01*
X4288Y1366D01*
X4134Y1211D01*
X4050Y1009D01*
X4049Y791D01*
X4133Y588D01*
X4288Y434D01*
X4490Y350D01*
X4708Y349D01*
X4911Y433D01*
X5065Y588D01*
X5099Y669D01*
X5133Y588D01*
X5288Y434D01*
X5490Y350D01*
X5708Y349D01*
X5911Y433D01*
X6065Y588D01*
X6099Y669D01*
X6133Y588D01*
X6288Y434D01*
X6490Y350D01*
X6708Y349D01*
X6911Y433D01*
X7065Y588D01*
X7149Y790D01*
X7150Y1008D01*
X7066Y1211D01*
X6911Y1365D01*
X6830Y1399D01*
X6911Y1433D01*
X7065Y1588D01*
X7099Y1669D01*
X7133Y1588D01*
X7288Y1434D01*
X7490Y1350D01*
X7708Y1349D01*
X7911Y1433D01*
X8065Y1588D01*
X8099Y1669D01*
X8133Y1588D01*
X8288Y1434D01*
X8369Y1400D01*
X8288Y1366D01*
X8134Y1211D01*
X8050Y1009D01*
X8049Y791D01*
X8133Y588D01*
X8288Y434D01*
X8490Y350D01*
X8708Y349D01*
X8911Y433D01*
X9065Y588D01*
X9099Y669D01*
X9133Y588D01*
X9288Y434D01*
X9490Y350D01*
X9708Y349D01*
X9911Y433D01*
X10065Y588D01*
X10149Y790D01*
X10150Y1008D01*
X10124Y1071D01*
X10326Y1273D01*
X10326Y1273D01*
X10395Y1377D01*
X10397Y1388D01*
X10490Y1350D01*
X10708Y1349D01*
X10911Y1433D01*
X11065Y1588D01*
X11099Y1669D01*
X11133Y1588D01*
X11288Y1434D01*
X11369Y1400D01*
X11288Y1366D01*
X11134Y1211D01*
X11050Y1009D01*
X11049Y791D01*
X11133Y588D01*
X11288Y434D01*
X11490Y350D01*
X11708Y349D01*
X11911Y433D01*
X12065Y588D01*
X12099Y669D01*
X12133Y588D01*
X12288Y434D01*
X12490Y350D01*
X12708Y349D01*
X12911Y433D01*
X13065Y588D01*
X13099Y669D01*
X13133Y588D01*
X13288Y434D01*
X13490Y350D01*
X13708Y349D01*
X13911Y433D01*
X14065Y588D01*
X14149Y790D01*
X14150Y1008D01*
X14066Y1211D01*
X13911Y1365D01*
X13830Y1399D01*
X13911Y1433D01*
X14065Y1588D01*
X14099Y1669D01*
X14133Y1588D01*
X14288Y1434D01*
X14490Y1350D01*
X14708Y1349D01*
X14911Y1433D01*
X15065Y1588D01*
X15099Y1669D01*
X15133Y1588D01*
X15288Y1434D01*
X15369Y1400D01*
X15288Y1366D01*
X15134Y1211D01*
X15050Y1009D01*
X15049Y791D01*
X15133Y588D01*
X15288Y434D01*
X15490Y350D01*
X15708Y349D01*
X15911Y433D01*
X16057Y580D01*
X16142Y580D01*
X16288Y434D01*
X16490Y350D01*
X16708Y349D01*
X16911Y433D01*
X17065Y588D01*
X17149Y790D01*
X17150Y1008D01*
X17066Y1211D01*
X16927Y1350D01*
X16949Y1350D01*
X17041Y1388D01*
X17111Y1458D01*
X17150Y1550D01*
X17150Y1649D01*
X17150Y2249D01*
X17111Y2341D01*
X17100Y2353D01*
X17100Y10475D01*
X17100Y10574D01*
X17100Y11124D01*
X17061Y11216D01*
X16991Y11286D01*
X16899Y11325D01*
X16800Y11325D01*
X16450Y11325D01*
X16358Y11286D01*
X16288Y11216D01*
X16250Y11124D01*
X16250Y11025D01*
X16250Y10775D01*
X16240Y10725D01*
X16240Y10468D01*
X16222Y10460D01*
X16152Y10390D01*
X16114Y10298D01*
X16114Y10199D01*
X16114Y9727D01*
X16152Y9635D01*
X16187Y9600D01*
X16152Y9564D01*
X16114Y9472D01*
X16114Y9373D01*
X16114Y8901D01*
X16152Y8809D01*
X16222Y8739D01*
X16240Y8731D01*
X16240Y7841D01*
X16239Y7841D01*
X16175Y7684D01*
X16174Y7515D01*
X16239Y7359D01*
X16358Y7239D01*
X16515Y7175D01*
X16684Y7174D01*
X16840Y7239D01*
X16960Y7358D01*
X17024Y7515D01*
X17025Y7684D01*
X16960Y7840D01*
X16960Y7840D01*
X16960Y8731D01*
X16977Y8739D01*
X17047Y8809D01*
X17086Y8901D01*
X17086Y9000D01*
X17086Y9472D01*
X17047Y9564D01*
X17012Y9600D01*
X17047Y9635D01*
X17086Y9727D01*
X17086Y9826D01*
X17086Y10298D01*
X17054Y10375D01*
X17061Y10383D01*
X17100Y10475D01*
X17100Y2353D01*
X17041Y2411D01*
X16949Y2450D01*
X16924Y2450D01*
X16893Y2496D01*
X16854Y2554D01*
X16854Y2554D01*
X16359Y3050D01*
X16799Y3050D01*
X16891Y3088D01*
X16961Y3158D01*
X17000Y3250D01*
X17000Y3349D01*
X17000Y4149D01*
X16961Y4241D01*
X16891Y4311D01*
X16810Y4345D01*
X16810Y5550D01*
X16782Y5687D01*
X16782Y5687D01*
X16704Y5804D01*
X15942Y6566D01*
X15942Y13771D01*
X15942Y13871D01*
X15942Y14027D01*
X15942Y14028D01*
X15942Y14127D01*
X15942Y14283D01*
X15942Y14284D01*
X15942Y14383D01*
X15942Y14540D01*
X15904Y14632D01*
X15834Y14702D01*
X15742Y14740D01*
X15642Y14740D01*
X14973Y14740D01*
X14953Y14732D01*
X14477Y14732D01*
X13775Y15433D01*
X13658Y15511D01*
X13521Y15539D01*
X13246Y15539D01*
X13246Y15720D01*
X13208Y15812D01*
X13160Y15861D01*
X13160Y17341D01*
X13132Y17478D01*
X13132Y17478D01*
X13093Y17537D01*
X13054Y17595D01*
X13054Y17595D01*
X12583Y18067D01*
X12583Y18615D01*
X12526Y18899D01*
X12365Y19140D01*
X12124Y19301D01*
X11841Y19357D01*
X11557Y19301D01*
X11316Y19140D01*
X11155Y18899D01*
X11099Y18615D01*
X11099Y17984D01*
X11155Y17700D01*
X11316Y17459D01*
X11557Y17298D01*
X11841Y17242D01*
X12124Y17298D01*
X12249Y17382D01*
X12440Y17191D01*
X12440Y15861D01*
X12391Y15812D01*
X12353Y15720D01*
X12353Y15621D01*
X12353Y14637D01*
X12391Y14545D01*
X12461Y14475D01*
X12553Y14437D01*
X12653Y14437D01*
X13046Y14437D01*
X13138Y14475D01*
X13208Y14545D01*
X13246Y14637D01*
X13246Y14736D01*
X13246Y14819D01*
X13371Y14819D01*
X13913Y14277D01*
X13875Y14184D01*
X13874Y14015D01*
X13939Y13859D01*
X14058Y13739D01*
X14215Y13675D01*
X14384Y13674D01*
X14540Y13739D01*
X14660Y13858D01*
X14724Y14015D01*
X14724Y14092D01*
X14773Y14092D01*
X14773Y14028D01*
X14773Y14027D01*
X14773Y13928D01*
X14773Y13771D01*
X14811Y13679D01*
X14881Y13609D01*
X14973Y13571D01*
X15073Y13571D01*
X15742Y13571D01*
X15834Y13609D01*
X15904Y13679D01*
X15942Y13771D01*
X15942Y6566D01*
X15349Y7159D01*
X15350Y7308D01*
X15266Y7511D01*
X15111Y7665D01*
X15049Y7691D01*
X15111Y7717D01*
X15265Y7872D01*
X15349Y8074D01*
X15350Y8292D01*
X15266Y8495D01*
X15111Y8649D01*
X14909Y8733D01*
X14691Y8734D01*
X14488Y8650D01*
X14334Y8495D01*
X14250Y8293D01*
X14249Y8075D01*
X14333Y7872D01*
X14488Y7718D01*
X14550Y7692D01*
X14488Y7666D01*
X14334Y7511D01*
X14250Y7309D01*
X14249Y7091D01*
X14333Y6888D01*
X14488Y6734D01*
X14690Y6650D01*
X14840Y6649D01*
X16090Y5400D01*
X16090Y4345D01*
X16008Y4311D01*
X15938Y4241D01*
X15900Y4149D01*
X15900Y4050D01*
X15900Y3250D01*
X15937Y3160D01*
X15662Y3160D01*
X15700Y3250D01*
X15700Y3349D01*
X15700Y4149D01*
X15661Y4241D01*
X15591Y4311D01*
X15499Y4350D01*
X15400Y4350D01*
X14800Y4350D01*
X14708Y4311D01*
X14638Y4241D01*
X14600Y4149D01*
X14600Y4060D01*
X14041Y4060D01*
X14041Y4060D01*
X13884Y4124D01*
X13715Y4125D01*
X13559Y4060D01*
X13439Y3941D01*
X13375Y3784D01*
X13374Y3615D01*
X13439Y3459D01*
X13558Y3339D01*
X13715Y3275D01*
X13884Y3274D01*
X14040Y3339D01*
X14040Y3340D01*
X14600Y3340D01*
X14600Y3250D01*
X14637Y3160D01*
X12899Y3160D01*
X11884Y4175D01*
X12329Y4620D01*
X12329Y4620D01*
X12368Y4678D01*
X12407Y4737D01*
X12407Y4737D01*
X12434Y4875D01*
X12435Y4875D01*
X12435Y5856D01*
X12461Y5883D01*
X12500Y5975D01*
X12500Y6074D01*
X12500Y6624D01*
X12461Y6716D01*
X12428Y6750D01*
X12461Y6783D01*
X12500Y6875D01*
X12500Y6974D01*
X12500Y7524D01*
X12461Y7616D01*
X12395Y7683D01*
X12395Y7912D01*
X12497Y7954D01*
X12644Y8102D01*
X12724Y8295D01*
X12725Y8503D01*
X12725Y8504D01*
X12725Y11075D01*
X12725Y11174D01*
X12725Y11724D01*
X12686Y11816D01*
X12616Y11886D01*
X12560Y11910D01*
X12560Y12125D01*
X12532Y12262D01*
X12454Y12379D01*
X12454Y12379D01*
X10925Y13909D01*
X10925Y14149D01*
X10886Y14241D01*
X10828Y14300D01*
X10886Y14358D01*
X10925Y14450D01*
X10925Y14549D01*
X10925Y14899D01*
X10886Y14991D01*
X10816Y15061D01*
X10760Y15085D01*
X10760Y15100D01*
X10732Y15237D01*
X10732Y15237D01*
X10693Y15296D01*
X10654Y15354D01*
X10654Y15354D01*
X8560Y17449D01*
X8560Y19082D01*
X8665Y19188D01*
X8749Y19390D01*
X8750Y19608D01*
X8666Y19811D01*
X8511Y19965D01*
X8309Y20049D01*
X8091Y20050D01*
X7888Y19966D01*
X7750Y19827D01*
X7750Y19849D01*
X7711Y19941D01*
X7641Y20011D01*
X7549Y20050D01*
X7450Y20050D01*
X6850Y20050D01*
X6758Y20011D01*
X6688Y19941D01*
X6650Y19849D01*
X6650Y19750D01*
X6650Y19150D01*
X6688Y19058D01*
X6758Y18988D01*
X6840Y18954D01*
X6840Y17200D01*
X6867Y17062D01*
X6945Y16945D01*
X8979Y14911D01*
X8975Y14899D01*
X8975Y14800D01*
X8975Y14450D01*
X9013Y14358D01*
X9071Y14300D01*
X9013Y14241D01*
X8975Y14149D01*
X8975Y14050D01*
X8975Y13700D01*
X9013Y13608D01*
X9083Y13538D01*
X9175Y13500D01*
X9274Y13500D01*
X9415Y13500D01*
X9840Y13075D01*
X9840Y11782D01*
X9755Y11697D01*
X9675Y11504D01*
X9674Y11296D01*
X9754Y11103D01*
X9902Y10955D01*
X10095Y10875D01*
X10303Y10874D01*
X10497Y10954D01*
X10644Y11102D01*
X10724Y11295D01*
X10725Y11503D01*
X10645Y11697D01*
X10560Y11782D01*
X10560Y13225D01*
X10552Y13263D01*
X11840Y11975D01*
X11840Y11910D01*
X11783Y11886D01*
X11713Y11816D01*
X11675Y11724D01*
X11675Y11625D01*
X11675Y11075D01*
X11713Y10983D01*
X11783Y10913D01*
X11875Y10875D01*
X11974Y10875D01*
X12524Y10875D01*
X12616Y10913D01*
X12686Y10983D01*
X12725Y11075D01*
X12725Y8504D01*
X12645Y8697D01*
X12497Y8844D01*
X12304Y8924D01*
X12096Y8925D01*
X11903Y8845D01*
X11755Y8697D01*
X11699Y8564D01*
X11645Y8697D01*
X11497Y8844D01*
X11304Y8924D01*
X11096Y8925D01*
X10903Y8845D01*
X10755Y8697D01*
X10699Y8564D01*
X10645Y8697D01*
X10497Y8844D01*
X10304Y8924D01*
X10096Y8925D01*
X9903Y8845D01*
X9755Y8697D01*
X9675Y8504D01*
X9674Y8296D01*
X9754Y8103D01*
X9902Y7955D01*
X10095Y7875D01*
X10303Y7874D01*
X10497Y7954D01*
X10644Y8102D01*
X10700Y8235D01*
X10754Y8103D01*
X10902Y7955D01*
X11005Y7912D01*
X11005Y7683D01*
X10938Y7616D01*
X10900Y7524D01*
X10900Y7520D01*
X9900Y7520D01*
X9777Y7495D01*
X9673Y7426D01*
X9173Y6926D01*
X9104Y6822D01*
X9080Y6700D01*
X9080Y6300D01*
X9090Y6249D01*
X9090Y6150D01*
X9128Y6058D01*
X9198Y5988D01*
X9290Y5950D01*
X9389Y5950D01*
X9509Y5950D01*
X9524Y5956D01*
X9540Y5950D01*
X9639Y5950D01*
X9759Y5950D01*
X9851Y5988D01*
X9921Y6058D01*
X9960Y6150D01*
X9960Y6249D01*
X9960Y6449D01*
X9921Y6541D01*
X9851Y6611D01*
X9790Y6637D01*
X10032Y6880D01*
X10900Y6880D01*
X10900Y6875D01*
X10938Y6783D01*
X10971Y6750D01*
X10938Y6716D01*
X10900Y6624D01*
X10900Y6620D01*
X10700Y6620D01*
X10697Y6619D01*
X10684Y6624D01*
X10515Y6625D01*
X10359Y6560D01*
X10239Y6441D01*
X10175Y6284D01*
X10174Y6115D01*
X10239Y5959D01*
X10358Y5839D01*
X10515Y5775D01*
X10684Y5774D01*
X10806Y5825D01*
X10804Y5822D01*
X10780Y5700D01*
X10780Y5000D01*
X10790Y4949D01*
X10790Y4920D01*
X10682Y4920D01*
X9960Y5642D01*
X9960Y5649D01*
X9921Y5741D01*
X9851Y5811D01*
X9759Y5850D01*
X9660Y5850D01*
X9540Y5850D01*
X9448Y5811D01*
X9399Y5763D01*
X9351Y5811D01*
X9259Y5850D01*
X9160Y5850D01*
X9040Y5850D01*
X8948Y5811D01*
X8878Y5741D01*
X8840Y5649D01*
X8840Y5550D01*
X8830Y5500D01*
X8830Y5479D01*
X8654Y5654D01*
X8537Y5732D01*
X8400Y5760D01*
X8280Y5760D01*
X8280Y15174D01*
X8146Y15497D01*
X7899Y15745D01*
X7575Y15879D01*
X7225Y15880D01*
X6902Y15746D01*
X6654Y15499D01*
X6520Y15175D01*
X6519Y14825D01*
X6653Y14502D01*
X6900Y14254D01*
X7224Y14120D01*
X7574Y14119D01*
X7897Y14253D01*
X8145Y14500D01*
X8279Y14824D01*
X8280Y15174D01*
X8280Y5760D01*
X8049Y5760D01*
X8049Y11253D01*
X8049Y12946D01*
X6652Y12946D01*
X6652Y11253D01*
X8049Y11253D01*
X8049Y5760D01*
X7900Y5760D01*
X7762Y5732D01*
X7645Y5654D01*
X6945Y4954D01*
X6883Y4862D01*
X6883Y4862D01*
X6838Y4816D01*
X6800Y4724D01*
X6800Y4625D01*
X6800Y4425D01*
X6838Y4333D01*
X6908Y4263D01*
X7000Y4225D01*
X7099Y4225D01*
X7149Y4225D01*
X7200Y4215D01*
X7250Y4225D01*
X7399Y4225D01*
X7491Y4263D01*
X7561Y4333D01*
X7600Y4425D01*
X7600Y4524D01*
X7600Y4590D01*
X7718Y4709D01*
X7739Y4659D01*
X7740Y4659D01*
X7740Y4349D01*
X7575Y4185D01*
X7200Y4185D01*
X7149Y4175D01*
X7000Y4175D01*
X6908Y4136D01*
X6838Y4066D01*
X6800Y3974D01*
X6800Y3934D01*
X6600Y3734D01*
X6600Y3774D01*
X6600Y3974D01*
X6561Y4066D01*
X6491Y4136D01*
X6399Y4175D01*
X6342Y4175D01*
X6275Y4219D01*
X6248Y4225D01*
X6399Y4225D01*
X6491Y4263D01*
X6561Y4333D01*
X6600Y4425D01*
X6600Y4524D01*
X6600Y4724D01*
X6561Y4816D01*
X6491Y4886D01*
X6399Y4925D01*
X6300Y4925D01*
X6000Y4925D01*
X5960Y4908D01*
X5960Y8358D01*
X6467Y8358D01*
X6488Y8308D01*
X6558Y8238D01*
X6650Y8200D01*
X6749Y8200D01*
X7549Y8200D01*
X7641Y8238D01*
X7711Y8308D01*
X7750Y8400D01*
X7750Y8499D01*
X7750Y9099D01*
X7711Y9191D01*
X7641Y9261D01*
X7549Y9300D01*
X7450Y9300D01*
X6650Y9300D01*
X6558Y9261D01*
X6488Y9191D01*
X6450Y9099D01*
X6450Y9078D01*
X5718Y9078D01*
X5660Y9078D01*
X5660Y13481D01*
X5660Y15400D01*
X5632Y15537D01*
X5632Y15537D01*
X5554Y15654D01*
X5360Y15849D01*
X5360Y18754D01*
X5441Y18788D01*
X5511Y18858D01*
X5550Y18950D01*
X5550Y19049D01*
X5550Y19649D01*
X5511Y19741D01*
X5441Y19811D01*
X5349Y19850D01*
X5250Y19850D01*
X4650Y19850D01*
X4558Y19811D01*
X4488Y19741D01*
X4450Y19649D01*
X4450Y19627D01*
X4311Y19765D01*
X4109Y19849D01*
X3891Y19850D01*
X3688Y19766D01*
X3534Y19611D01*
X3450Y19409D01*
X3449Y19191D01*
X3533Y18988D01*
X3640Y18882D01*
X3640Y15846D01*
X3667Y15708D01*
X3745Y15591D01*
X4042Y15294D01*
X4042Y15221D01*
X4116Y15042D01*
X4253Y14905D01*
X4431Y14831D01*
X4625Y14831D01*
X4804Y14904D01*
X4940Y15040D01*
X4940Y13631D01*
X4506Y13197D01*
X4432Y13197D01*
X4254Y13123D01*
X4117Y12986D01*
X4042Y12808D01*
X4042Y12614D01*
X4116Y12435D01*
X4253Y12299D01*
X4431Y12224D01*
X4625Y12224D01*
X4804Y12298D01*
X4941Y12435D01*
X5015Y12613D01*
X5015Y12688D01*
X5554Y13227D01*
X5554Y13227D01*
X5593Y13285D01*
X5632Y13344D01*
X5632Y13344D01*
X5659Y13481D01*
X5660Y13481D01*
X5660Y9078D01*
X4773Y9078D01*
X4771Y9080D01*
X4614Y9145D01*
X4444Y9146D01*
X4287Y9081D01*
X4167Y8961D01*
X4102Y8804D01*
X4101Y8634D01*
X4166Y8477D01*
X4286Y8356D01*
X4443Y8291D01*
X4613Y8291D01*
X4770Y8356D01*
X4773Y8358D01*
X5240Y8358D01*
X5240Y4247D01*
X5055Y4247D01*
X5047Y4264D01*
X5012Y4300D01*
X5047Y4335D01*
X5086Y4427D01*
X5086Y4526D01*
X5086Y4998D01*
X5054Y5075D01*
X5086Y5108D01*
X5125Y5200D01*
X5125Y5299D01*
X5125Y5649D01*
X5086Y5741D01*
X5016Y5811D01*
X4924Y5850D01*
X4825Y5850D01*
X4275Y5850D01*
X4225Y5829D01*
X4225Y6784D01*
X4160Y6940D01*
X4041Y7060D01*
X3884Y7124D01*
X3715Y7125D01*
X3559Y7060D01*
X3439Y6941D01*
X3395Y6835D01*
X3200Y6835D01*
X3149Y6825D01*
X3000Y6825D01*
X2908Y6786D01*
X2838Y6716D01*
X2800Y6624D01*
X2800Y6525D01*
X2800Y6325D01*
X2838Y6233D01*
X2908Y6163D01*
X3000Y6125D01*
X3099Y6125D01*
X3149Y6125D01*
X3200Y6115D01*
X3575Y6115D01*
X3575Y6115D01*
X3712Y6142D01*
X3712Y6142D01*
X3829Y6220D01*
X3884Y6274D01*
X3884Y6274D01*
X4040Y6339D01*
X4160Y6458D01*
X4224Y6615D01*
X4225Y6784D01*
X4225Y5829D01*
X4183Y5811D01*
X4113Y5741D01*
X4075Y5649D01*
X4075Y5550D01*
X4075Y5200D01*
X4113Y5108D01*
X4145Y5075D01*
X4114Y4998D01*
X4114Y4899D01*
X4114Y4427D01*
X4152Y4335D01*
X4187Y4300D01*
X4152Y4264D01*
X4114Y4172D01*
X4114Y4073D01*
X4114Y3695D01*
X4060Y3749D01*
X4060Y5100D01*
X4032Y5237D01*
X4032Y5237D01*
X3993Y5296D01*
X3954Y5354D01*
X3954Y5354D01*
X3600Y5709D01*
X3600Y5874D01*
X3561Y5966D01*
X3491Y6036D01*
X3399Y6075D01*
X3300Y6075D01*
X3250Y6075D01*
X3200Y6085D01*
X3149Y6075D01*
X3000Y6075D01*
X2908Y6036D01*
X2838Y5966D01*
X2800Y5874D01*
X2800Y5775D01*
X2800Y5575D01*
X2838Y5483D01*
X2883Y5437D01*
X2883Y5437D01*
X2945Y5345D01*
X3014Y5276D01*
X3000Y5279D01*
X2237Y5279D01*
X2316Y5332D01*
X2359Y5375D01*
X2399Y5375D01*
X2491Y5413D01*
X2561Y5483D01*
X2600Y5575D01*
X2600Y5674D01*
X2600Y5874D01*
X2561Y5966D01*
X2491Y6036D01*
X2399Y6075D01*
X2300Y6075D01*
X2250Y6075D01*
X2200Y6084D01*
X2149Y6075D01*
X2060Y6075D01*
X2060Y6125D01*
X2099Y6125D01*
X2399Y6125D01*
X2491Y6163D01*
X2561Y6233D01*
X2600Y6325D01*
X2600Y6424D01*
X2600Y6624D01*
X2561Y6716D01*
X2491Y6786D01*
X2399Y6825D01*
X2334Y6825D01*
X2354Y6845D01*
X2432Y6962D01*
X2432Y6962D01*
X2459Y7100D01*
X2460Y7100D01*
X2460Y8358D01*
X2667Y8358D01*
X2688Y8308D01*
X2758Y8238D01*
X2850Y8200D01*
X2949Y8200D01*
X3749Y8200D01*
X3841Y8238D01*
X3911Y8308D01*
X3950Y8400D01*
X3950Y8499D01*
X3950Y9099D01*
X3911Y9191D01*
X3841Y9261D01*
X3749Y9300D01*
X3650Y9300D01*
X2850Y9300D01*
X2758Y9261D01*
X2688Y9191D01*
X2650Y9099D01*
X2650Y9078D01*
X2450Y9078D01*
X2450Y18950D01*
X2450Y19049D01*
X2450Y19649D01*
X2411Y19741D01*
X2341Y19811D01*
X2249Y19850D01*
X2150Y19850D01*
X1550Y19850D01*
X1458Y19811D01*
X1388Y19741D01*
X1350Y19649D01*
X1350Y19627D01*
X1211Y19765D01*
X1009Y19849D01*
X791Y19850D01*
X588Y19766D01*
X434Y19611D01*
X350Y19409D01*
X349Y19191D01*
X419Y19023D01*
X419Y15644D01*
X367Y15593D01*
X292Y15414D01*
X292Y15221D01*
X366Y15042D01*
X503Y14905D01*
X681Y14831D01*
X875Y14831D01*
X1054Y14904D01*
X1191Y15041D01*
X1265Y15220D01*
X1265Y15413D01*
X1191Y15592D01*
X1139Y15644D01*
X1139Y18803D01*
X1211Y18833D01*
X1350Y18972D01*
X1350Y18950D01*
X1388Y18858D01*
X1458Y18788D01*
X1540Y18754D01*
X1540Y13849D01*
X884Y13193D01*
X876Y13197D01*
X682Y13197D01*
X504Y13123D01*
X367Y12986D01*
X292Y12808D01*
X292Y12614D01*
X366Y12435D01*
X503Y12299D01*
X681Y12224D01*
X875Y12224D01*
X1054Y12298D01*
X1191Y12435D01*
X1224Y12515D01*
X2154Y13445D01*
X2154Y13445D01*
X2232Y13562D01*
X2259Y13700D01*
X2260Y13700D01*
X2260Y18754D01*
X2341Y18788D01*
X2411Y18858D01*
X2450Y18950D01*
X2450Y9078D01*
X2081Y9078D01*
X1023Y9078D01*
X1021Y9080D01*
X864Y9145D01*
X694Y9146D01*
X537Y9081D01*
X417Y8961D01*
X352Y8804D01*
X351Y8634D01*
X416Y8477D01*
X536Y8356D01*
X693Y8291D01*
X863Y8291D01*
X1020Y8356D01*
X1023Y8358D01*
X1740Y8358D01*
X1740Y7249D01*
X1700Y7209D01*
X1700Y7724D01*
X1661Y7816D01*
X1591Y7886D01*
X1499Y7925D01*
X1400Y7925D01*
X1050Y7925D01*
X958Y7886D01*
X888Y7816D01*
X850Y7724D01*
X850Y7625D01*
X850Y7484D01*
X745Y7379D01*
X667Y7262D01*
X640Y7125D01*
X640Y6868D01*
X622Y6860D01*
X552Y6790D01*
X514Y6698D01*
X514Y6599D01*
X514Y6127D01*
X552Y6035D01*
X587Y6000D01*
X552Y5964D01*
X514Y5872D01*
X514Y5773D01*
X514Y5301D01*
X523Y5279D01*
X279Y5279D01*
X279Y20720D01*
X17220Y20720D01*
X17220Y279D01*
X17220Y279D01*
G37*
G54D36*
X17220Y279D02*
X3279Y279D01*
X3279Y5000D01*
X3276Y5014D01*
X3340Y4950D01*
X3340Y3600D01*
X3367Y3462D01*
X3445Y3345D01*
X3794Y2995D01*
X3739Y2941D01*
X3675Y2784D01*
X3674Y2615D01*
X3739Y2459D01*
X3858Y2339D01*
X4015Y2275D01*
X4184Y2274D01*
X4340Y2339D01*
X4441Y2440D01*
X5466Y2440D01*
X5288Y2366D01*
X5134Y2211D01*
X5050Y2009D01*
X5049Y1791D01*
X5133Y1588D01*
X5288Y1434D01*
X5369Y1400D01*
X5288Y1366D01*
X5134Y1211D01*
X5100Y1130D01*
X5066Y1211D01*
X4911Y1365D01*
X4709Y1449D01*
X4491Y1450D01*
X4288Y1366D01*
X4134Y1211D01*
X4050Y1009D01*
X4049Y791D01*
X4133Y588D01*
X4288Y434D01*
X4490Y350D01*
X4708Y349D01*
X4911Y433D01*
X5065Y588D01*
X5099Y669D01*
X5133Y588D01*
X5288Y434D01*
X5490Y350D01*
X5708Y349D01*
X5911Y433D01*
X6065Y588D01*
X6099Y669D01*
X6133Y588D01*
X6288Y434D01*
X6490Y350D01*
X6708Y349D01*
X6911Y433D01*
X7065Y588D01*
X7149Y790D01*
X7150Y1008D01*
X7066Y1211D01*
X6911Y1365D01*
X6830Y1399D01*
X6911Y1433D01*
X7065Y1588D01*
X7099Y1669D01*
X7133Y1588D01*
X7288Y1434D01*
X7490Y1350D01*
X7708Y1349D01*
X7911Y1433D01*
X8065Y1588D01*
X8099Y1669D01*
X8133Y1588D01*
X8288Y1434D01*
X8369Y1400D01*
X8288Y1366D01*
X8134Y1211D01*
X8050Y1009D01*
X8049Y791D01*
X8133Y588D01*
X8288Y434D01*
X8490Y350D01*
X8708Y349D01*
X8911Y433D01*
X9065Y588D01*
X9099Y669D01*
X9133Y588D01*
X9288Y434D01*
X9490Y350D01*
X9708Y349D01*
X9911Y433D01*
X10065Y588D01*
X10149Y790D01*
X10150Y1008D01*
X10124Y1071D01*
X10326Y1273D01*
X10326Y1273D01*
X10395Y1377D01*
X10397Y1388D01*
X10490Y1350D01*
X10708Y1349D01*
X10911Y1433D01*
X11065Y1588D01*
X11099Y1669D01*
X11133Y1588D01*
X11288Y1434D01*
X11369Y1400D01*
X11288Y1366D01*
X11134Y1211D01*
X11050Y1009D01*
X11049Y791D01*
X11133Y588D01*
X11288Y434D01*
X11490Y350D01*
X11708Y349D01*
X11911Y433D01*
X12065Y588D01*
X12099Y669D01*
X12133Y588D01*
X12288Y434D01*
X12490Y350D01*
X12708Y349D01*
X12911Y433D01*
X13065Y588D01*
X13099Y669D01*
X13133Y588D01*
X13288Y434D01*
X13490Y350D01*
X13708Y349D01*
X13911Y433D01*
X14065Y588D01*
X14149Y790D01*
X14150Y1008D01*
X14066Y1211D01*
X13911Y1365D01*
X13830Y1399D01*
X13911Y1433D01*
X14065Y1588D01*
X14099Y1669D01*
X14133Y1588D01*
X14288Y1434D01*
X14490Y1350D01*
X14708Y1349D01*
X14911Y1433D01*
X15065Y1588D01*
X15099Y1669D01*
X15133Y1588D01*
X15288Y1434D01*
X15369Y1400D01*
X15288Y1366D01*
X15134Y1211D01*
X15050Y1009D01*
X15049Y791D01*
X15133Y588D01*
X15288Y434D01*
X15490Y350D01*
X15708Y349D01*
X15911Y433D01*
X16057Y580D01*
X16142Y580D01*
X16288Y434D01*
X16490Y350D01*
X16708Y349D01*
X16911Y433D01*
X17065Y588D01*
X17149Y790D01*
X17150Y1008D01*
X17066Y1211D01*
X16927Y1350D01*
X16949Y1350D01*
X17041Y1388D01*
X17111Y1458D01*
X17150Y1550D01*
X17150Y1649D01*
X17150Y2249D01*
X17111Y2341D01*
X17100Y2353D01*
X17100Y10475D01*
X17100Y10574D01*
X17100Y11124D01*
X17061Y11216D01*
X16991Y11286D01*
X16899Y11325D01*
X16800Y11325D01*
X16450Y11325D01*
X16358Y11286D01*
X16288Y11216D01*
X16250Y11124D01*
X16250Y11025D01*
X16250Y10775D01*
X16240Y10725D01*
X16240Y10468D01*
X16222Y10460D01*
X16152Y10390D01*
X16114Y10298D01*
X16114Y10199D01*
X16114Y9727D01*
X16152Y9635D01*
X16187Y9600D01*
X16152Y9564D01*
X16114Y9472D01*
X16114Y9373D01*
X16114Y8901D01*
X16152Y8809D01*
X16222Y8739D01*
X16240Y8731D01*
X16240Y7841D01*
X16239Y7841D01*
X16175Y7684D01*
X16174Y7515D01*
X16239Y7359D01*
X16358Y7239D01*
X16515Y7175D01*
X16684Y7174D01*
X16840Y7239D01*
X16960Y7358D01*
X17024Y7515D01*
X17025Y7684D01*
X16960Y7840D01*
X16960Y7840D01*
X16960Y8731D01*
X16977Y8739D01*
X17047Y8809D01*
X17086Y8901D01*
X17086Y9000D01*
X17086Y9472D01*
X17047Y9564D01*
X17012Y9600D01*
X17047Y9635D01*
X17086Y9727D01*
X17086Y9826D01*
X17086Y10298D01*
X17054Y10375D01*
X17061Y10383D01*
X17100Y10475D01*
X17100Y2353D01*
X17041Y2411D01*
X16949Y2450D01*
X16924Y2450D01*
X16893Y2496D01*
X16854Y2554D01*
X16854Y2554D01*
X16359Y3050D01*
X16799Y3050D01*
X16891Y3088D01*
X16961Y3158D01*
X17000Y3250D01*
X17000Y3349D01*
X17000Y4149D01*
X16961Y4241D01*
X16891Y4311D01*
X16810Y4345D01*
X16810Y5550D01*
X16782Y5687D01*
X16782Y5687D01*
X16704Y5804D01*
X15942Y6566D01*
X15942Y13771D01*
X15942Y13871D01*
X15942Y14027D01*
X15942Y14028D01*
X15942Y14127D01*
X15942Y14283D01*
X15942Y14284D01*
X15942Y14383D01*
X15942Y14540D01*
X15904Y14632D01*
X15834Y14702D01*
X15742Y14740D01*
X15642Y14740D01*
X14973Y14740D01*
X14953Y14732D01*
X14477Y14732D01*
X13775Y15433D01*
X13658Y15511D01*
X13521Y15539D01*
X13246Y15539D01*
X13246Y15720D01*
X13208Y15812D01*
X13160Y15861D01*
X13160Y17341D01*
X13132Y17478D01*
X13132Y17478D01*
X13093Y17537D01*
X13054Y17595D01*
X13054Y17595D01*
X12583Y18067D01*
X12583Y18615D01*
X12526Y18899D01*
X12365Y19140D01*
X12124Y19301D01*
X11841Y19357D01*
X11557Y19301D01*
X11316Y19140D01*
X11155Y18899D01*
X11099Y18615D01*
X11099Y17984D01*
X11155Y17700D01*
X11316Y17459D01*
X11557Y17298D01*
X11841Y17242D01*
X12124Y17298D01*
X12249Y17382D01*
X12440Y17191D01*
X12440Y15861D01*
X12391Y15812D01*
X12353Y15720D01*
X12353Y15621D01*
X12353Y14637D01*
X12391Y14545D01*
X12461Y14475D01*
X12553Y14437D01*
X12653Y14437D01*
X13046Y14437D01*
X13138Y14475D01*
X13208Y14545D01*
X13246Y14637D01*
X13246Y14736D01*
X13246Y14819D01*
X13371Y14819D01*
X13913Y14277D01*
X13875Y14184D01*
X13874Y14015D01*
X13939Y13859D01*
X14058Y13739D01*
X14215Y13675D01*
X14384Y13674D01*
X14540Y13739D01*
X14660Y13858D01*
X14724Y14015D01*
X14724Y14092D01*
X14773Y14092D01*
X14773Y14028D01*
X14773Y14027D01*
X14773Y13928D01*
X14773Y13771D01*
X14811Y13679D01*
X14881Y13609D01*
X14973Y13571D01*
X15073Y13571D01*
X15742Y13571D01*
X15834Y13609D01*
X15904Y13679D01*
X15942Y13771D01*
X15942Y6566D01*
X15349Y7159D01*
X15350Y7308D01*
X15266Y7511D01*
X15111Y7665D01*
X15049Y7691D01*
X15111Y7717D01*
X15265Y7872D01*
X15349Y8074D01*
X15350Y8292D01*
X15266Y8495D01*
X15111Y8649D01*
X14909Y8733D01*
X14691Y8734D01*
X14488Y8650D01*
X14334Y8495D01*
X14250Y8293D01*
X14249Y8075D01*
X14333Y7872D01*
X14488Y7718D01*
X14550Y7692D01*
X14488Y7666D01*
X14334Y7511D01*
X14250Y7309D01*
X14249Y7091D01*
X14333Y6888D01*
X14488Y6734D01*
X14690Y6650D01*
X14840Y6649D01*
X16090Y5400D01*
X16090Y4345D01*
X16008Y4311D01*
X15938Y4241D01*
X15900Y4149D01*
X15900Y4050D01*
X15900Y3250D01*
X15937Y3160D01*
X15662Y3160D01*
X15700Y3250D01*
X15700Y3349D01*
X15700Y4149D01*
X15661Y4241D01*
X15591Y4311D01*
X15499Y4350D01*
X15400Y4350D01*
X14800Y4350D01*
X14708Y4311D01*
X14638Y4241D01*
X14600Y4149D01*
X14600Y4060D01*
X14041Y4060D01*
X14041Y4060D01*
X13884Y4124D01*
X13715Y4125D01*
X13559Y4060D01*
X13439Y3941D01*
X13375Y3784D01*
X13374Y3615D01*
X13439Y3459D01*
X13558Y3339D01*
X13715Y3275D01*
X13884Y3274D01*
X14040Y3339D01*
X14040Y3340D01*
X14600Y3340D01*
X14600Y3250D01*
X14637Y3160D01*
X12899Y3160D01*
X11884Y4175D01*
X12329Y4620D01*
X12329Y4620D01*
X12368Y4678D01*
X12407Y4737D01*
X12407Y4737D01*
X12434Y4875D01*
X12435Y4875D01*
X12435Y5856D01*
X12461Y5883D01*
X12500Y5975D01*
X12500Y6074D01*
X12500Y6624D01*
X12461Y6716D01*
X12428Y6750D01*
X12461Y6783D01*
X12500Y6875D01*
X12500Y6974D01*
X12500Y7524D01*
X12461Y7616D01*
X12395Y7683D01*
X12395Y7912D01*
X12497Y7954D01*
X12644Y8102D01*
X12724Y8295D01*
X12725Y8503D01*
X12725Y8504D01*
X12725Y11075D01*
X12725Y11174D01*
X12725Y11724D01*
X12686Y11816D01*
X12616Y11886D01*
X12560Y11910D01*
X12560Y12125D01*
X12532Y12262D01*
X12454Y12379D01*
X12454Y12379D01*
X10925Y13909D01*
X10925Y14149D01*
X10886Y14241D01*
X10828Y14300D01*
X10886Y14358D01*
X10925Y14450D01*
X10925Y14549D01*
X10925Y14899D01*
X10886Y14991D01*
X10816Y15061D01*
X10760Y15085D01*
X10760Y15100D01*
X10732Y15237D01*
X10732Y15237D01*
X10693Y15296D01*
X10654Y15354D01*
X10654Y15354D01*
X8560Y17449D01*
X8560Y19082D01*
X8665Y19188D01*
X8749Y19390D01*
X8750Y19608D01*
X8666Y19811D01*
X8511Y19965D01*
X8309Y20049D01*
X8091Y20050D01*
X7888Y19966D01*
X7750Y19827D01*
X7750Y19849D01*
X7711Y19941D01*
X7641Y20011D01*
X7549Y20050D01*
X7450Y20050D01*
X6850Y20050D01*
X6758Y20011D01*
X6688Y19941D01*
X6650Y19849D01*
X6650Y19750D01*
X6650Y19150D01*
X6688Y19058D01*
X6758Y18988D01*
X6840Y18954D01*
X6840Y17200D01*
X6867Y17062D01*
X6945Y16945D01*
X8979Y14911D01*
X8975Y14899D01*
X8975Y14800D01*
X8975Y14450D01*
X9013Y14358D01*
X9071Y14300D01*
X9013Y14241D01*
X8975Y14149D01*
X8975Y14050D01*
X8975Y13700D01*
X9013Y13608D01*
X9083Y13538D01*
X9175Y13500D01*
X9274Y13500D01*
X9415Y13500D01*
X9840Y13075D01*
X9840Y11782D01*
X9755Y11697D01*
X9675Y11504D01*
X9674Y11296D01*
X9754Y11103D01*
X9902Y10955D01*
X10095Y10875D01*
X10303Y10874D01*
X10497Y10954D01*
X10644Y11102D01*
X10724Y11295D01*
X10725Y11503D01*
X10645Y11697D01*
X10560Y11782D01*
X10560Y13225D01*
X10552Y13263D01*
X11840Y11975D01*
X11840Y11910D01*
X11783Y11886D01*
X11713Y11816D01*
X11675Y11724D01*
X11675Y11625D01*
X11675Y11075D01*
X11713Y10983D01*
X11783Y10913D01*
X11875Y10875D01*
X11974Y10875D01*
X12524Y10875D01*
X12616Y10913D01*
X12686Y10983D01*
X12725Y11075D01*
X12725Y8504D01*
X12645Y8697D01*
X12497Y8844D01*
X12304Y8924D01*
X12096Y8925D01*
X11903Y8845D01*
X11755Y8697D01*
X11699Y8564D01*
X11645Y8697D01*
X11497Y8844D01*
X11304Y8924D01*
X11096Y8925D01*
X10903Y8845D01*
X10755Y8697D01*
X10699Y8564D01*
X10645Y8697D01*
X10497Y8844D01*
X10304Y8924D01*
X10096Y8925D01*
X9903Y8845D01*
X9755Y8697D01*
X9675Y8504D01*
X9674Y8296D01*
X9754Y8103D01*
X9902Y7955D01*
X10095Y7875D01*
X10303Y7874D01*
X10497Y7954D01*
X10644Y8102D01*
X10700Y8235D01*
X10754Y8103D01*
X10902Y7955D01*
X11005Y7912D01*
X11005Y7683D01*
X10938Y7616D01*
X10900Y7524D01*
X10900Y7520D01*
X9900Y7520D01*
X9777Y7495D01*
X9673Y7426D01*
X9173Y6926D01*
X9104Y6822D01*
X9080Y6700D01*
X9080Y6300D01*
X9090Y6249D01*
X9090Y6150D01*
X9128Y6058D01*
X9198Y5988D01*
X9290Y5950D01*
X9389Y5950D01*
X9509Y5950D01*
X9524Y5956D01*
X9540Y5950D01*
X9639Y5950D01*
X9759Y5950D01*
X9851Y5988D01*
X9921Y6058D01*
X9960Y6150D01*
X9960Y6249D01*
X9960Y6449D01*
X9921Y6541D01*
X9851Y6611D01*
X9790Y6637D01*
X10032Y6880D01*
X10900Y6880D01*
X10900Y6875D01*
X10938Y6783D01*
X10971Y6750D01*
X10938Y6716D01*
X10900Y6624D01*
X10900Y6620D01*
X10700Y6620D01*
X10697Y6619D01*
X10684Y6624D01*
X10515Y6625D01*
X10359Y6560D01*
X10239Y6441D01*
X10175Y6284D01*
X10174Y6115D01*
X10239Y5959D01*
X10358Y5839D01*
X10515Y5775D01*
X10684Y5774D01*
X10806Y5825D01*
X10804Y5822D01*
X10780Y5700D01*
X10780Y5000D01*
X10790Y4949D01*
X10790Y4920D01*
X10682Y4920D01*
X9960Y5642D01*
X9960Y5649D01*
X9921Y5741D01*
X9851Y5811D01*
X9759Y5850D01*
X9660Y5850D01*
X9540Y5850D01*
X9448Y5811D01*
X9399Y5763D01*
X9351Y5811D01*
X9259Y5850D01*
X9160Y5850D01*
X9040Y5850D01*
X8948Y5811D01*
X8878Y5741D01*
X8840Y5649D01*
X8840Y5550D01*
X8830Y5500D01*
X8830Y5479D01*
X8654Y5654D01*
X8537Y5732D01*
X8400Y5760D01*
X8280Y5760D01*
X8280Y15174D01*
X8146Y15497D01*
X7899Y15745D01*
X7575Y15879D01*
X7225Y15880D01*
X6902Y15746D01*
X6654Y15499D01*
X6520Y15175D01*
X6519Y14825D01*
X6653Y14502D01*
X6900Y14254D01*
X7224Y14120D01*
X7574Y14119D01*
X7897Y14253D01*
X8145Y14500D01*
X8279Y14824D01*
X8280Y15174D01*
X8280Y5760D01*
X8049Y5760D01*
X8049Y11253D01*
X8049Y12946D01*
X6652Y12946D01*
X6652Y11253D01*
X8049Y11253D01*
X8049Y5760D01*
X7900Y5760D01*
X7762Y5732D01*
X7645Y5654D01*
X6945Y4954D01*
X6883Y4862D01*
X6883Y4862D01*
X6838Y4816D01*
X6800Y4724D01*
X6800Y4625D01*
X6800Y4425D01*
X6838Y4333D01*
X6908Y4263D01*
X7000Y4225D01*
X7099Y4225D01*
X7149Y4225D01*
X7200Y4215D01*
X7250Y4225D01*
X7399Y4225D01*
X7491Y4263D01*
X7561Y4333D01*
X7600Y4425D01*
X7600Y4524D01*
X7600Y4590D01*
X7718Y4709D01*
X7739Y4659D01*
X7740Y4659D01*
X7740Y4349D01*
X7575Y4185D01*
X7200Y4185D01*
X7149Y4175D01*
X7000Y4175D01*
X6908Y4136D01*
X6838Y4066D01*
X6800Y3974D01*
X6800Y3934D01*
X6600Y3734D01*
X6600Y3774D01*
X6600Y3974D01*
X6561Y4066D01*
X6491Y4136D01*
X6399Y4175D01*
X6342Y4175D01*
X6275Y4219D01*
X6248Y4225D01*
X6399Y4225D01*
X6491Y4263D01*
X6561Y4333D01*
X6600Y4425D01*
X6600Y4524D01*
X6600Y4724D01*
X6561Y4816D01*
X6491Y4886D01*
X6399Y4925D01*
X6300Y4925D01*
X6000Y4925D01*
X5960Y4908D01*
X5960Y8358D01*
X6467Y8358D01*
X6488Y8308D01*
X6558Y8238D01*
X6650Y8200D01*
X6749Y8200D01*
X7549Y8200D01*
X7641Y8238D01*
X7711Y8308D01*
X7750Y8400D01*
X7750Y8499D01*
X7750Y9099D01*
X7711Y9191D01*
X7641Y9261D01*
X7549Y9300D01*
X7450Y9300D01*
X6650Y9300D01*
X6558Y9261D01*
X6488Y9191D01*
X6450Y9099D01*
X6450Y9078D01*
X5718Y9078D01*
X5660Y9078D01*
X5660Y13481D01*
X5660Y15400D01*
X5632Y15537D01*
X5632Y15537D01*
X5554Y15654D01*
X5360Y15849D01*
X5360Y18754D01*
X5441Y18788D01*
X5511Y18858D01*
X5550Y18950D01*
X5550Y19049D01*
X5550Y19649D01*
X5511Y19741D01*
X5441Y19811D01*
X5349Y19850D01*
X5250Y19850D01*
X4650Y19850D01*
X4558Y19811D01*
X4488Y19741D01*
X4450Y19649D01*
X4450Y19627D01*
X4311Y19765D01*
X4109Y19849D01*
X3891Y19850D01*
X3688Y19766D01*
X3534Y19611D01*
X3450Y19409D01*
X3449Y19191D01*
X3533Y18988D01*
X3640Y18882D01*
X3640Y15846D01*
X3667Y15708D01*
X3745Y15591D01*
X4042Y15294D01*
X4042Y15221D01*
X4116Y15042D01*
X4253Y14905D01*
X4431Y14831D01*
X4625Y14831D01*
X4804Y14904D01*
X4940Y15040D01*
X4940Y13631D01*
X4506Y13197D01*
X4432Y13197D01*
X4254Y13123D01*
X4117Y12986D01*
X4042Y12808D01*
X4042Y12614D01*
X4116Y12435D01*
X4253Y12299D01*
X4431Y12224D01*
X4625Y12224D01*
X4804Y12298D01*
X4941Y12435D01*
X5015Y12613D01*
X5015Y12688D01*
X5554Y13227D01*
X5554Y13227D01*
X5593Y13285D01*
X5632Y13344D01*
X5632Y13344D01*
X5659Y13481D01*
X5660Y13481D01*
X5660Y9078D01*
X4773Y9078D01*
X4771Y9080D01*
X4614Y9145D01*
X4444Y9146D01*
X4287Y9081D01*
X4167Y8961D01*
X4102Y8804D01*
X4101Y8634D01*
X4166Y8477D01*
X4286Y8356D01*
X4443Y8291D01*
X4613Y8291D01*
X4770Y8356D01*
X4773Y8358D01*
X5240Y8358D01*
X5240Y4247D01*
X5055Y4247D01*
X5047Y4264D01*
X5012Y4300D01*
X5047Y4335D01*
X5086Y4427D01*
X5086Y4526D01*
X5086Y4998D01*
X5054Y5075D01*
X5086Y5108D01*
X5125Y5200D01*
X5125Y5299D01*
X5125Y5649D01*
X5086Y5741D01*
X5016Y5811D01*
X4924Y5850D01*
X4825Y5850D01*
X4275Y5850D01*
X4225Y5829D01*
X4225Y6784D01*
X4160Y6940D01*
X4041Y7060D01*
X3884Y7124D01*
X3715Y7125D01*
X3559Y7060D01*
X3439Y6941D01*
X3395Y6835D01*
X3200Y6835D01*
X3149Y6825D01*
X3000Y6825D01*
X2908Y6786D01*
X2838Y6716D01*
X2800Y6624D01*
X2800Y6525D01*
X2800Y6325D01*
X2838Y6233D01*
X2908Y6163D01*
X3000Y6125D01*
X3099Y6125D01*
X3149Y6125D01*
X3200Y6115D01*
X3575Y6115D01*
X3575Y6115D01*
X3712Y6142D01*
X3712Y6142D01*
X3829Y6220D01*
X3884Y6274D01*
X3884Y6274D01*
X4040Y6339D01*
X4160Y6458D01*
X4224Y6615D01*
X4225Y6784D01*
X4225Y5829D01*
X4183Y5811D01*
X4113Y5741D01*
X4075Y5649D01*
X4075Y5550D01*
X4075Y5200D01*
X4113Y5108D01*
X4145Y5075D01*
X4114Y4998D01*
X4114Y4899D01*
X4114Y4427D01*
X4152Y4335D01*
X4187Y4300D01*
X4152Y4264D01*
X4114Y4172D01*
X4114Y4073D01*
X4114Y3695D01*
X4060Y3749D01*
X4060Y5100D01*
X4032Y5237D01*
X4032Y5237D01*
X3993Y5296D01*
X3954Y5354D01*
X3954Y5354D01*
X3600Y5709D01*
X3600Y5874D01*
X3561Y5966D01*
X3491Y6036D01*
X3399Y6075D01*
X3300Y6075D01*
X3250Y6075D01*
X3200Y6085D01*
X3149Y6075D01*
X3000Y6075D01*
X2908Y6036D01*
X2838Y5966D01*
X2800Y5874D01*
X2800Y5775D01*
X2800Y5575D01*
X2838Y5483D01*
X2883Y5437D01*
X2883Y5437D01*
X2945Y5345D01*
X3014Y5276D01*
X3000Y5279D01*
X2237Y5279D01*
X2316Y5332D01*
X2359Y5375D01*
X2399Y5375D01*
X2491Y5413D01*
X2561Y5483D01*
X2600Y5575D01*
X2600Y5674D01*
X2600Y5874D01*
X2561Y5966D01*
X2491Y6036D01*
X2399Y6075D01*
X2300Y6075D01*
X2250Y6075D01*
X2200Y6084D01*
X2149Y6075D01*
X2060Y6075D01*
X2060Y6125D01*
X2099Y6125D01*
X2399Y6125D01*
X2491Y6163D01*
X2561Y6233D01*
X2600Y6325D01*
X2600Y6424D01*
X2600Y6624D01*
X2561Y6716D01*
X2491Y6786D01*
X2399Y6825D01*
X2334Y6825D01*
X2354Y6845D01*
X2432Y6962D01*
X2432Y6962D01*
X2459Y7100D01*
X2460Y7100D01*
X2460Y8358D01*
X2667Y8358D01*
X2688Y8308D01*
X2758Y8238D01*
X2850Y8200D01*
X2949Y8200D01*
X3749Y8200D01*
X3841Y8238D01*
X3911Y8308D01*
X3950Y8400D01*
X3950Y8499D01*
X3950Y9099D01*
X3911Y9191D01*
X3841Y9261D01*
X3749Y9300D01*
X3650Y9300D01*
X2850Y9300D01*
X2758Y9261D01*
X2688Y9191D01*
X2650Y9099D01*
X2650Y9078D01*
X2450Y9078D01*
X2450Y18950D01*
X2450Y19049D01*
X2450Y19649D01*
X2411Y19741D01*
X2341Y19811D01*
X2249Y19850D01*
X2150Y19850D01*
X1550Y19850D01*
X1458Y19811D01*
X1388Y19741D01*
X1350Y19649D01*
X1350Y19627D01*
X1211Y19765D01*
X1009Y19849D01*
X791Y19850D01*
X588Y19766D01*
X434Y19611D01*
X350Y19409D01*
X349Y19191D01*
X419Y19023D01*
X419Y15644D01*
X367Y15593D01*
X292Y15414D01*
X292Y15221D01*
X366Y15042D01*
X503Y14905D01*
X681Y14831D01*
X875Y14831D01*
X1054Y14904D01*
X1191Y15041D01*
X1265Y15220D01*
X1265Y15413D01*
X1191Y15592D01*
X1139Y15644D01*
X1139Y18803D01*
X1211Y18833D01*
X1350Y18972D01*
X1350Y18950D01*
X1388Y18858D01*
X1458Y18788D01*
X1540Y18754D01*
X1540Y13849D01*
X884Y13193D01*
X876Y13197D01*
X682Y13197D01*
X504Y13123D01*
X367Y12986D01*
X292Y12808D01*
X292Y12614D01*
X366Y12435D01*
X503Y12299D01*
X681Y12224D01*
X875Y12224D01*
X1054Y12298D01*
X1191Y12435D01*
X1224Y12515D01*
X2154Y13445D01*
X2154Y13445D01*
X2232Y13562D01*
X2259Y13700D01*
X2260Y13700D01*
X2260Y18754D01*
X2341Y18788D01*
X2411Y18858D01*
X2450Y18950D01*
X2450Y9078D01*
X2081Y9078D01*
X1023Y9078D01*
X1021Y9080D01*
X864Y9145D01*
X694Y9146D01*
X537Y9081D01*
X417Y8961D01*
X352Y8804D01*
X351Y8634D01*
X416Y8477D01*
X536Y8356D01*
X693Y8291D01*
X863Y8291D01*
X1020Y8356D01*
X1023Y8358D01*
X1740Y8358D01*
X1740Y7249D01*
X1700Y7209D01*
X1700Y7724D01*
X1661Y7816D01*
X1591Y7886D01*
X1499Y7925D01*
X1400Y7925D01*
X1050Y7925D01*
X958Y7886D01*
X888Y7816D01*
X850Y7724D01*
X850Y7625D01*
X850Y7484D01*
X745Y7379D01*
X667Y7262D01*
X640Y7125D01*
X640Y6868D01*
X622Y6860D01*
X552Y6790D01*
X514Y6698D01*
X514Y6599D01*
X514Y6127D01*
X552Y6035D01*
X587Y6000D01*
X552Y5964D01*
X514Y5872D01*
X514Y5773D01*
X514Y5301D01*
X523Y5279D01*
X279Y5279D01*
X279Y20720D01*
X17220Y20720D01*
X17220Y279D01*
M02*
