G04 (created by PCBNEW (2012-nov-02)-testing) date Mon 04 Feb 2013 05:38:42 PM EST*
%MOIN*%
G04 Gerber Fmt 3.4, Leading zero omitted, Abs format*
%FSLAX34Y34*%
G01*
G70*
G90*
G04 APERTURE LIST*
%ADD10C,0.006*%
%ADD11R,0.06X0.06*%
%ADD12C,0.06*%
%ADD13C,0.114173*%
%ADD14C,0.0472441*%
%ADD15C,0.0354331*%
%ADD16R,0.055X0.055*%
%ADD17C,0.055*%
%ADD18O,0.2362X0.0984*%
%ADD19O,0.0984X0.1575*%
%ADD20C,0.035*%
%ADD21C,0.01*%
%ADD22C,0.018*%
G04 APERTURE END LIST*
G54D10*
G54D11*
X9016Y18700D03*
G54D12*
X10000Y18700D03*
X10984Y18700D03*
G54D11*
X16100Y5800D03*
G54D12*
X16100Y4800D03*
G54D13*
X3400Y14700D03*
G54D11*
X12600Y1600D03*
G54D12*
X12600Y600D03*
X11600Y1600D03*
X11600Y600D03*
X10600Y1600D03*
X10600Y600D03*
X9600Y1600D03*
X9600Y600D03*
X8600Y1600D03*
X8600Y600D03*
X7600Y1600D03*
X7600Y600D03*
X6600Y1600D03*
X6600Y600D03*
X5600Y1600D03*
X5600Y600D03*
X4600Y1600D03*
X4600Y600D03*
X3600Y1600D03*
X3600Y600D03*
X2600Y1600D03*
X2600Y600D03*
X1600Y1600D03*
X1600Y600D03*
X600Y1600D03*
X600Y600D03*
G54D14*
X3629Y12217D03*
X3629Y9611D03*
G54D15*
X3629Y5618D03*
X3629Y6618D03*
G54D14*
X1029Y12217D03*
X1029Y9611D03*
G54D15*
X1029Y5618D03*
X1029Y6618D03*
G54D16*
X11900Y4300D03*
G54D17*
X11900Y5300D03*
X11900Y6300D03*
X11900Y7300D03*
X8900Y7300D03*
X8900Y6300D03*
X8900Y5300D03*
X8900Y4300D03*
G54D11*
X5300Y18400D03*
G54D12*
X4300Y18400D03*
G54D11*
X15900Y1700D03*
G54D12*
X15900Y2700D03*
G54D11*
X2000Y18400D03*
G54D12*
X1000Y18400D03*
G54D11*
X16000Y18000D03*
G54D12*
X16000Y19000D03*
G54D18*
X13122Y16350D03*
G54D19*
X14303Y14500D03*
X11941Y14500D03*
G54D20*
X7300Y10500D03*
X5100Y2900D03*
X2300Y2900D03*
G54D21*
X14940Y11210D02*
X14870Y11130D01*
X14870Y11130D02*
X14820Y11110D01*
X15020Y11110D02*
X15060Y11150D01*
X15090Y11200D02*
X15060Y11150D01*
X15090Y11200D02*
X15100Y11220D01*
X16070Y11260D02*
X16150Y11270D01*
X16070Y11130D02*
X16150Y11160D01*
X16056Y10992D02*
X16150Y11050D01*
X16050Y10960D02*
X16120Y10930D01*
X15964Y10865D02*
X16070Y10820D01*
X16070Y11260D02*
X16010Y11270D01*
X16070Y11130D02*
X15990Y11200D01*
X16056Y10992D02*
X15980Y11070D01*
X15964Y10865D02*
X15940Y10970D01*
X16070Y11330D02*
X15960Y11340D01*
X16034Y11432D02*
X15910Y11470D01*
X16070Y11330D02*
X16150Y11380D01*
X16034Y11432D02*
X16120Y11490D01*
X15981Y11562D02*
X15900Y11600D01*
X15981Y11562D02*
X16090Y11610D01*
X16090Y11610D02*
X16100Y11600D01*
X15850Y10830D02*
X15964Y10865D01*
X15964Y10865D02*
X15980Y10870D01*
X15980Y11550D02*
X15981Y11562D01*
X15981Y11562D02*
X15990Y11650D01*
X16040Y11420D02*
X16034Y11432D01*
X16034Y11432D02*
X15980Y11550D01*
X16070Y11330D02*
X16040Y11420D01*
X16070Y11180D02*
X16070Y11260D01*
X16070Y11260D02*
X16070Y11330D01*
X16070Y11060D02*
X16070Y11130D01*
X16070Y11130D02*
X16070Y11180D01*
X16050Y10960D02*
X16056Y10992D01*
X16056Y10992D02*
X16070Y11060D01*
X15980Y10870D02*
X16050Y10960D01*
X15390Y11540D02*
X15490Y11500D01*
X15360Y11640D02*
X15390Y11590D01*
X15390Y11590D02*
X15390Y11540D01*
X15030Y11860D02*
X15100Y11910D01*
X15100Y11910D02*
X15130Y11960D01*
X15130Y11960D02*
X15190Y12000D01*
X15190Y12000D02*
X15240Y12010D01*
X15240Y12010D02*
X15310Y12010D01*
X15310Y12010D02*
X15360Y11980D01*
X15360Y11980D02*
X15410Y11930D01*
X15410Y11930D02*
X15440Y11870D01*
X15440Y11870D02*
X15430Y11830D01*
X15430Y11830D02*
X15400Y11780D01*
X15400Y11780D02*
X15380Y11740D01*
X15380Y11740D02*
X15340Y11730D01*
X15340Y11730D02*
X15300Y11720D01*
X15300Y11720D02*
X15360Y11640D01*
X15820Y10790D02*
X15720Y10760D01*
X15850Y10830D02*
X15820Y10790D01*
X15860Y10910D02*
X15850Y10830D01*
X15850Y11010D02*
X15860Y10910D01*
X15830Y11100D02*
X15850Y11010D01*
X15780Y11200D02*
X15830Y11100D01*
X15740Y11270D02*
X15780Y11200D01*
X15660Y11370D02*
X15740Y11270D01*
X15600Y11430D02*
X15660Y11370D01*
X15490Y11500D02*
X15600Y11430D01*
X15410Y11080D02*
X15340Y11090D01*
X15550Y10690D02*
X15650Y10730D01*
X15520Y10650D02*
X15550Y10690D01*
X15360Y10610D02*
X15520Y10650D01*
X15120Y10600D02*
X15360Y10610D01*
X15060Y10610D02*
X15120Y10600D01*
X15060Y10650D02*
X15060Y10610D01*
X15160Y10700D02*
X15060Y10650D01*
X15240Y10720D02*
X15160Y10700D01*
X15290Y10770D02*
X15240Y10720D01*
X15360Y10800D02*
X15290Y10770D01*
X15310Y10880D02*
X15360Y10800D01*
X15270Y10920D02*
X15310Y10880D01*
X15250Y11010D02*
X15270Y10920D01*
X15260Y11070D02*
X15250Y11010D01*
X15340Y11090D02*
X15260Y11070D01*
X15110Y10840D02*
X14980Y10770D01*
X14860Y10700D02*
X15060Y10710D01*
X14860Y10730D02*
X14860Y10700D01*
X14900Y10770D02*
X14860Y10730D01*
X14980Y10770D02*
X14900Y10770D01*
X14880Y11350D02*
X14860Y11290D01*
X15000Y10860D02*
X15040Y10820D01*
X14940Y10930D02*
X15000Y10860D01*
X14900Y11030D02*
X14940Y10930D01*
X14870Y11130D02*
X14900Y11030D01*
X14860Y11240D02*
X14870Y11130D01*
X14860Y11290D02*
X14860Y11240D01*
X14890Y11620D02*
X14900Y11620D01*
X14650Y11440D02*
X14680Y11420D01*
X14840Y11400D02*
X14890Y11410D01*
X14780Y11380D02*
X14840Y11400D01*
X14730Y11390D02*
X14780Y11380D01*
X14680Y11420D02*
X14730Y11390D01*
X14980Y11760D02*
X15020Y11800D01*
X15020Y11800D02*
X15030Y11860D01*
X14830Y11750D02*
X14790Y11810D01*
X14590Y11560D02*
X14600Y11590D01*
X14600Y11590D02*
X14630Y11620D01*
X14630Y11620D02*
X14670Y11650D01*
X14670Y11650D02*
X14710Y11680D01*
X14710Y11680D02*
X14750Y11710D01*
X14750Y11710D02*
X14800Y11740D01*
X14800Y11740D02*
X14830Y11750D01*
X14590Y11490D02*
X14590Y11560D01*
X15030Y11880D02*
X15030Y11860D01*
X15010Y11920D02*
X15030Y11880D01*
X14990Y11960D02*
X15010Y11920D01*
X14950Y11980D02*
X14990Y11960D01*
X14900Y11980D02*
X14950Y11980D01*
X14850Y11970D02*
X14900Y11980D01*
X14810Y11960D02*
X14850Y11970D01*
X14780Y11930D02*
X14810Y11960D01*
X14760Y11890D02*
X14780Y11930D01*
X14760Y11850D02*
X14760Y11890D01*
X14790Y11810D02*
X14760Y11850D01*
X14580Y11490D02*
X14560Y11490D01*
X14600Y11470D02*
X14590Y11490D01*
X14590Y11490D02*
X14590Y11490D01*
X14570Y11460D02*
X14600Y11470D01*
X14560Y11490D02*
X14570Y11460D01*
G54D22*
X10000Y18700D02*
X10000Y16800D01*
X7300Y14100D02*
X7300Y10500D01*
X10000Y16800D02*
X7300Y14100D01*
G54D21*
X12600Y1600D02*
X12600Y1700D01*
X10400Y2800D02*
X8900Y4300D01*
X11500Y2800D02*
X10400Y2800D01*
X12600Y1700D02*
X11500Y2800D01*
X5600Y600D02*
X5500Y600D01*
X5100Y1000D02*
X5100Y2900D01*
X5500Y600D02*
X5100Y1000D01*
X4600Y600D02*
X4600Y700D01*
X3100Y2900D02*
X2300Y2900D01*
X4100Y1900D02*
X3100Y2900D01*
X4100Y1200D02*
X4100Y1900D01*
X4600Y700D02*
X4100Y1200D01*
X3600Y600D02*
X3550Y600D01*
X1100Y1100D02*
X600Y1600D01*
X3050Y1100D02*
X1100Y1100D01*
X3550Y600D02*
X3050Y1100D01*
X600Y1600D02*
X600Y6189D01*
X600Y6189D02*
X1029Y6618D01*
X1029Y6618D02*
X3629Y6618D01*
X6600Y600D02*
X6800Y600D01*
X8100Y1100D02*
X8600Y1600D01*
X7300Y1100D02*
X8100Y1100D01*
X6800Y600D02*
X7300Y1100D01*
X10600Y600D02*
X10500Y600D01*
X9100Y1100D02*
X8600Y1600D01*
X10000Y1100D02*
X9100Y1100D01*
X10500Y600D02*
X10000Y1100D01*
X15900Y2700D02*
X14500Y2700D01*
X14500Y2700D02*
X11900Y5300D01*
X11900Y7300D02*
X8900Y7300D01*
X16000Y19000D02*
X15600Y19400D01*
X15600Y19400D02*
X9400Y19400D01*
X9400Y19400D02*
X9016Y19016D01*
X9016Y19016D02*
X9016Y18700D01*
G54D22*
X3629Y9611D02*
X3629Y10979D01*
X5300Y12650D02*
X5300Y18400D01*
X3629Y10979D02*
X5300Y12650D01*
X4300Y18400D02*
X4300Y15550D01*
X4600Y13188D02*
X3629Y12217D01*
X4600Y15250D02*
X4600Y13188D01*
X4300Y15550D02*
X4600Y15250D01*
X1029Y12217D02*
X1029Y18370D01*
X1029Y18370D02*
X1000Y18400D01*
X1029Y9611D02*
X1029Y10929D01*
X2000Y11900D02*
X2000Y18400D01*
X1029Y10929D02*
X2000Y11900D01*
G54D10*
G36*
X4142Y279D02*
X3057Y279D01*
X3065Y288D01*
X3149Y490D01*
X3150Y708D01*
X3066Y911D01*
X2911Y1065D01*
X2830Y1099D01*
X2911Y1133D01*
X3065Y1288D01*
X3099Y1369D01*
X3133Y1288D01*
X3288Y1134D01*
X3490Y1050D01*
X3708Y1049D01*
X3820Y1096D01*
X3820Y1096D01*
X3822Y1085D01*
X3887Y987D01*
X4084Y791D01*
X4050Y709D01*
X4049Y491D01*
X4133Y288D01*
X4142Y279D01*
X4142Y279D01*
G37*
G54D21*
X4142Y279D02*
X3057Y279D01*
X3065Y288D01*
X3149Y490D01*
X3150Y708D01*
X3066Y911D01*
X2911Y1065D01*
X2830Y1099D01*
X2911Y1133D01*
X3065Y1288D01*
X3099Y1369D01*
X3133Y1288D01*
X3288Y1134D01*
X3490Y1050D01*
X3708Y1049D01*
X3820Y1096D01*
X3820Y1096D01*
X3822Y1085D01*
X3887Y987D01*
X4084Y791D01*
X4050Y709D01*
X4049Y491D01*
X4133Y288D01*
X4142Y279D01*
G54D10*
G36*
X7369Y1100D02*
X7288Y1066D01*
X7134Y911D01*
X7050Y709D01*
X7049Y491D01*
X7133Y288D01*
X7142Y279D01*
X6057Y279D01*
X6065Y288D01*
X6149Y490D01*
X6150Y708D01*
X6066Y911D01*
X5911Y1065D01*
X5830Y1099D01*
X5911Y1133D01*
X6065Y1288D01*
X6099Y1369D01*
X6133Y1288D01*
X6288Y1134D01*
X6490Y1050D01*
X6708Y1049D01*
X6911Y1133D01*
X7065Y1288D01*
X7099Y1369D01*
X7133Y1288D01*
X7288Y1134D01*
X7369Y1100D01*
X7369Y1100D01*
G37*
G54D21*
X7369Y1100D02*
X7288Y1066D01*
X7134Y911D01*
X7050Y709D01*
X7049Y491D01*
X7133Y288D01*
X7142Y279D01*
X6057Y279D01*
X6065Y288D01*
X6149Y490D01*
X6150Y708D01*
X6066Y911D01*
X5911Y1065D01*
X5830Y1099D01*
X5911Y1133D01*
X6065Y1288D01*
X6099Y1369D01*
X6133Y1288D01*
X6288Y1134D01*
X6490Y1050D01*
X6708Y1049D01*
X6911Y1133D01*
X7065Y1288D01*
X7099Y1369D01*
X7133Y1288D01*
X7288Y1134D01*
X7369Y1100D01*
G54D10*
G36*
X11369Y1100D02*
X11288Y1066D01*
X11134Y911D01*
X11050Y709D01*
X11049Y491D01*
X11133Y288D01*
X11142Y279D01*
X10057Y279D01*
X10065Y288D01*
X10149Y490D01*
X10150Y708D01*
X10066Y911D01*
X9911Y1065D01*
X9830Y1099D01*
X9911Y1133D01*
X10065Y1288D01*
X10099Y1369D01*
X10133Y1288D01*
X10288Y1134D01*
X10490Y1050D01*
X10708Y1049D01*
X10911Y1133D01*
X11065Y1288D01*
X11099Y1369D01*
X11133Y1288D01*
X11288Y1134D01*
X11369Y1100D01*
X11369Y1100D01*
G37*
G54D21*
X11369Y1100D02*
X11288Y1066D01*
X11134Y911D01*
X11050Y709D01*
X11049Y491D01*
X11133Y288D01*
X11142Y279D01*
X10057Y279D01*
X10065Y288D01*
X10149Y490D01*
X10150Y708D01*
X10066Y911D01*
X9911Y1065D01*
X9830Y1099D01*
X9911Y1133D01*
X10065Y1288D01*
X10099Y1369D01*
X10133Y1288D01*
X10288Y1134D01*
X10490Y1050D01*
X10708Y1049D01*
X10911Y1133D01*
X11065Y1288D01*
X11099Y1369D01*
X11133Y1288D01*
X11288Y1134D01*
X11369Y1100D01*
G54D10*
G36*
X17220Y279D02*
X16650Y279D01*
X16650Y4908D01*
X16566Y5111D01*
X16427Y5249D01*
X16449Y5249D01*
X16541Y5287D01*
X16611Y5358D01*
X16649Y5450D01*
X16650Y5549D01*
X16650Y6149D01*
X16612Y6241D01*
X16550Y6303D01*
X16550Y17749D01*
X16550Y18349D01*
X16512Y18441D01*
X16441Y18511D01*
X16349Y18549D01*
X16250Y18550D01*
X15650Y18550D01*
X15558Y18512D01*
X15488Y18441D01*
X15450Y18349D01*
X15449Y18250D01*
X15449Y17650D01*
X15487Y17558D01*
X15558Y17488D01*
X15650Y17450D01*
X15749Y17449D01*
X16349Y17449D01*
X16441Y17487D01*
X16511Y17558D01*
X16549Y17650D01*
X16550Y17749D01*
X16550Y6303D01*
X16541Y6311D01*
X16449Y6349D01*
X16449Y6349D01*
X16449Y11150D01*
X16440Y11207D01*
X16447Y11307D01*
X16442Y11322D01*
X16445Y11429D01*
X16414Y11512D01*
X16414Y11548D01*
X16397Y11588D01*
X16399Y11600D01*
X16377Y11714D01*
X16312Y11812D01*
X16302Y11822D01*
X16300Y11823D01*
X16298Y11825D01*
X16253Y11854D01*
X16204Y11887D01*
X16202Y11887D01*
X16200Y11888D01*
X16152Y11897D01*
X16131Y11914D01*
X16019Y11948D01*
X15903Y11937D01*
X15799Y11882D01*
X15799Y11881D01*
X15794Y11881D01*
X15733Y11842D01*
X15733Y11843D01*
X15739Y11891D01*
X15736Y11902D01*
X15736Y11914D01*
X15720Y11958D01*
X15708Y12004D01*
X15678Y12064D01*
X15648Y12102D01*
X15622Y12142D01*
X15572Y12192D01*
X15541Y12212D01*
X15514Y12237D01*
X15464Y12267D01*
X15443Y12274D01*
X15424Y12287D01*
X15388Y12294D01*
X15354Y12306D01*
X15331Y12305D01*
X15310Y12310D01*
X15240Y12310D01*
X15210Y12304D01*
X15181Y12304D01*
X15131Y12294D01*
X15131Y12294D01*
X15131Y12294D01*
X15131Y12294D01*
X15083Y12274D01*
X15049Y12260D01*
X15017Y12266D01*
X14971Y12279D01*
X14960Y12277D01*
X14950Y12280D01*
X14900Y12280D01*
X14870Y12274D01*
X14841Y12274D01*
X14791Y12264D01*
X14784Y12261D01*
X14777Y12261D01*
X14737Y12251D01*
X14717Y12241D01*
X14695Y12237D01*
X14664Y12216D01*
X14631Y12201D01*
X14616Y12184D01*
X14597Y12172D01*
X14567Y12142D01*
X14540Y12101D01*
X14511Y12064D01*
X14491Y12024D01*
X14488Y12013D01*
X14482Y12004D01*
X14473Y11957D01*
X14460Y11911D01*
X14462Y11900D01*
X14460Y11890D01*
X14460Y11867D01*
X14449Y11859D01*
X14435Y11843D01*
X14417Y11832D01*
X14387Y11802D01*
X14381Y11793D01*
X14373Y11786D01*
X14349Y11744D01*
X14322Y11704D01*
X14320Y11694D01*
X14315Y11684D01*
X14305Y11654D01*
X14303Y11639D01*
X14291Y11624D01*
X14288Y11613D01*
X14282Y11604D01*
X14273Y11557D01*
X14260Y11511D01*
X14262Y11500D01*
X14260Y11490D01*
X14269Y11442D01*
X14275Y11395D01*
X14285Y11365D01*
X14343Y11263D01*
X14435Y11191D01*
X14513Y11170D01*
X14520Y11167D01*
X14525Y11162D01*
X14529Y11160D01*
X14520Y11113D01*
X14541Y10998D01*
X14605Y10900D01*
X14615Y10893D01*
X14582Y10844D01*
X14560Y10730D01*
X14560Y10700D01*
X14561Y10692D01*
X14560Y10684D01*
X14572Y10635D01*
X14582Y10585D01*
X14587Y10578D01*
X14588Y10571D01*
X14619Y10530D01*
X14647Y10487D01*
X14654Y10483D01*
X14658Y10477D01*
X14702Y10451D01*
X14745Y10422D01*
X14752Y10421D01*
X14759Y10417D01*
X14809Y10409D01*
X14844Y10403D01*
X14847Y10397D01*
X14876Y10378D01*
X14901Y10355D01*
X14924Y10346D01*
X14945Y10332D01*
X14978Y10326D01*
X15010Y10314D01*
X15070Y10304D01*
X15101Y10305D01*
X15132Y10300D01*
X15372Y10310D01*
X15401Y10317D01*
X15432Y10318D01*
X15592Y10358D01*
X15632Y10377D01*
X15672Y10391D01*
X15684Y10401D01*
X15698Y10408D01*
X15723Y10436D01*
X15761Y10451D01*
X15791Y10471D01*
X15806Y10472D01*
X15906Y10502D01*
X15938Y10519D01*
X15972Y10531D01*
X15980Y10538D01*
X16066Y10520D01*
X16181Y10541D01*
X16279Y10605D01*
X16345Y10701D01*
X16357Y10755D01*
X16395Y10811D01*
X16419Y10926D01*
X16419Y10930D01*
X16441Y10979D01*
X16446Y11096D01*
X16440Y11111D01*
X16449Y11150D01*
X16449Y6349D01*
X16350Y6350D01*
X15750Y6350D01*
X15658Y6312D01*
X15588Y6241D01*
X15550Y6149D01*
X15549Y6050D01*
X15549Y5450D01*
X15587Y5358D01*
X15658Y5288D01*
X15750Y5250D01*
X15772Y5250D01*
X15634Y5111D01*
X15550Y4909D01*
X15549Y4691D01*
X15633Y4488D01*
X15788Y4334D01*
X15990Y4250D01*
X16208Y4249D01*
X16411Y4333D01*
X16565Y4488D01*
X16649Y4690D01*
X16650Y4908D01*
X16650Y279D01*
X16450Y279D01*
X16450Y1449D01*
X16450Y2049D01*
X16412Y2141D01*
X16341Y2211D01*
X16249Y2249D01*
X16150Y2250D01*
X15550Y2250D01*
X15458Y2212D01*
X15388Y2141D01*
X15350Y2049D01*
X15349Y1950D01*
X15349Y1350D01*
X15387Y1258D01*
X15458Y1188D01*
X15550Y1150D01*
X15649Y1149D01*
X16249Y1149D01*
X16341Y1187D01*
X16411Y1258D01*
X16449Y1350D01*
X16450Y1449D01*
X16450Y279D01*
X13057Y279D01*
X13065Y288D01*
X13149Y490D01*
X13150Y708D01*
X13066Y911D01*
X12927Y1049D01*
X12949Y1049D01*
X13041Y1087D01*
X13111Y1158D01*
X13149Y1250D01*
X13150Y1349D01*
X13150Y1949D01*
X13112Y2041D01*
X13041Y2111D01*
X12949Y2149D01*
X12850Y2150D01*
X12683Y2150D01*
X12683Y14184D01*
X12683Y14815D01*
X12626Y15099D01*
X12465Y15340D01*
X12224Y15501D01*
X11941Y15557D01*
X11657Y15501D01*
X11534Y15419D01*
X11534Y18808D01*
X11450Y19011D01*
X11295Y19165D01*
X11093Y19249D01*
X10875Y19250D01*
X10672Y19166D01*
X10518Y19011D01*
X10492Y18949D01*
X10466Y19011D01*
X10311Y19165D01*
X10109Y19249D01*
X9891Y19250D01*
X9688Y19166D01*
X9534Y19011D01*
X9450Y18809D01*
X9449Y18591D01*
X9533Y18388D01*
X9660Y18262D01*
X9660Y16940D01*
X7059Y14340D01*
X6985Y14230D01*
X6960Y14100D01*
X6960Y10761D01*
X6939Y10741D01*
X6875Y10584D01*
X6874Y10415D01*
X6939Y10259D01*
X7058Y10139D01*
X7215Y10075D01*
X7384Y10074D01*
X7540Y10139D01*
X7660Y10258D01*
X7724Y10415D01*
X7725Y10584D01*
X7660Y10740D01*
X7640Y10760D01*
X7640Y13959D01*
X10240Y16559D01*
X10240Y16559D01*
X10289Y16633D01*
X10314Y16669D01*
X10314Y16669D01*
X10339Y16800D01*
X10340Y16800D01*
X10340Y18262D01*
X10465Y18388D01*
X10491Y18450D01*
X10517Y18388D01*
X10672Y18234D01*
X10874Y18150D01*
X11092Y18149D01*
X11295Y18233D01*
X11449Y18388D01*
X11533Y18590D01*
X11534Y18808D01*
X11534Y15419D01*
X11416Y15340D01*
X11255Y15099D01*
X11199Y14815D01*
X11199Y14184D01*
X11255Y13900D01*
X11416Y13659D01*
X11657Y13498D01*
X11941Y13442D01*
X12224Y13498D01*
X12465Y13659D01*
X12626Y13900D01*
X12683Y14184D01*
X12683Y2150D01*
X12574Y2150D01*
X12425Y2299D01*
X12425Y6403D01*
X12345Y6597D01*
X12197Y6744D01*
X12004Y6824D01*
X11796Y6825D01*
X11603Y6745D01*
X11455Y6597D01*
X11375Y6404D01*
X11374Y6196D01*
X11454Y6003D01*
X11602Y5855D01*
X11795Y5775D01*
X12003Y5774D01*
X12197Y5854D01*
X12344Y6002D01*
X12424Y6195D01*
X12425Y6403D01*
X12425Y2299D01*
X12425Y2299D01*
X12425Y4074D01*
X12425Y4624D01*
X12387Y4716D01*
X12316Y4786D01*
X12224Y4824D01*
X12125Y4825D01*
X11575Y4825D01*
X11483Y4787D01*
X11413Y4716D01*
X11375Y4624D01*
X11374Y4525D01*
X11374Y3975D01*
X11412Y3883D01*
X11483Y3813D01*
X11575Y3775D01*
X11674Y3774D01*
X12224Y3774D01*
X12316Y3812D01*
X12386Y3883D01*
X12424Y3975D01*
X12425Y4074D01*
X12425Y2299D01*
X11712Y3012D01*
X11614Y3077D01*
X11500Y3100D01*
X10524Y3100D01*
X9424Y4199D01*
X9425Y4403D01*
X9345Y4597D01*
X9197Y4744D01*
X9064Y4800D01*
X9197Y4854D01*
X9344Y5002D01*
X9424Y5195D01*
X9425Y5403D01*
X9345Y5597D01*
X9197Y5744D01*
X9064Y5800D01*
X9197Y5854D01*
X9344Y6002D01*
X9424Y6195D01*
X9425Y6403D01*
X9345Y6597D01*
X9197Y6744D01*
X9004Y6824D01*
X8796Y6825D01*
X8603Y6745D01*
X8455Y6597D01*
X8375Y6404D01*
X8374Y6196D01*
X8454Y6003D01*
X8602Y5855D01*
X8735Y5799D01*
X8603Y5745D01*
X8455Y5597D01*
X8375Y5404D01*
X8374Y5196D01*
X8454Y5003D01*
X8602Y4855D01*
X8735Y4799D01*
X8603Y4745D01*
X8455Y4597D01*
X8375Y4404D01*
X8374Y4196D01*
X8454Y4003D01*
X8602Y3855D01*
X8795Y3775D01*
X9000Y3774D01*
X10187Y2587D01*
X10187Y2587D01*
X10285Y2522D01*
X10400Y2500D01*
X11375Y2500D01*
X11737Y2138D01*
X11709Y2149D01*
X11491Y2150D01*
X11288Y2066D01*
X11134Y1911D01*
X11100Y1830D01*
X11066Y1911D01*
X10911Y2065D01*
X10709Y2149D01*
X10491Y2150D01*
X10288Y2066D01*
X10134Y1911D01*
X10100Y1830D01*
X10066Y1911D01*
X9911Y2065D01*
X9709Y2149D01*
X9491Y2150D01*
X9288Y2066D01*
X9134Y1911D01*
X9050Y1709D01*
X9049Y1491D01*
X9133Y1288D01*
X9288Y1134D01*
X9369Y1100D01*
X9288Y1066D01*
X9134Y911D01*
X9100Y830D01*
X9066Y911D01*
X8911Y1065D01*
X8709Y1149D01*
X8491Y1150D01*
X8288Y1066D01*
X8134Y911D01*
X8100Y830D01*
X8066Y911D01*
X7911Y1065D01*
X7830Y1099D01*
X7911Y1133D01*
X8065Y1288D01*
X8149Y1490D01*
X8150Y1708D01*
X8066Y1911D01*
X7911Y2065D01*
X7709Y2149D01*
X7491Y2150D01*
X7288Y2066D01*
X7134Y1911D01*
X7100Y1830D01*
X7066Y1911D01*
X6911Y2065D01*
X6709Y2149D01*
X6491Y2150D01*
X6288Y2066D01*
X6134Y1911D01*
X6100Y1830D01*
X6066Y1911D01*
X5911Y2065D01*
X5850Y2091D01*
X5850Y18149D01*
X5850Y18749D01*
X5812Y18841D01*
X5741Y18911D01*
X5649Y18949D01*
X5550Y18950D01*
X4950Y18950D01*
X4858Y18912D01*
X4788Y18841D01*
X4750Y18749D01*
X4750Y18727D01*
X4611Y18865D01*
X4409Y18949D01*
X4191Y18950D01*
X3988Y18866D01*
X3834Y18711D01*
X3750Y18509D01*
X3749Y18291D01*
X3833Y18088D01*
X3960Y17962D01*
X3960Y15550D01*
X3985Y15419D01*
X4059Y15309D01*
X4260Y15109D01*
X4260Y13329D01*
X4221Y13290D01*
X4221Y14862D01*
X4096Y15164D01*
X3865Y15395D01*
X3563Y15520D01*
X3237Y15521D01*
X2935Y15396D01*
X2704Y15165D01*
X2579Y14863D01*
X2578Y14537D01*
X2703Y14235D01*
X2934Y14004D01*
X3236Y13879D01*
X3562Y13878D01*
X3864Y14003D01*
X4095Y14234D01*
X4220Y14536D01*
X4221Y14862D01*
X4221Y13290D01*
X3634Y12703D01*
X3532Y12703D01*
X3354Y12629D01*
X3217Y12493D01*
X3142Y12314D01*
X3142Y12121D01*
X3216Y11942D01*
X3353Y11805D01*
X3531Y11731D01*
X3725Y11731D01*
X3904Y11804D01*
X4041Y11941D01*
X4115Y12120D01*
X4115Y12222D01*
X4840Y12947D01*
X4840Y12947D01*
X4889Y13021D01*
X4914Y13058D01*
X4914Y13058D01*
X4939Y13188D01*
X4940Y13188D01*
X4940Y15250D01*
X4939Y15250D01*
X4914Y15380D01*
X4914Y15380D01*
X4889Y15416D01*
X4840Y15490D01*
X4840Y15490D01*
X4640Y15690D01*
X4640Y17962D01*
X4749Y18072D01*
X4749Y18050D01*
X4787Y17958D01*
X4858Y17888D01*
X4950Y17850D01*
X4960Y17850D01*
X4960Y12790D01*
X3388Y11219D01*
X3315Y11109D01*
X3289Y10979D01*
X3289Y9958D01*
X3217Y9886D01*
X3142Y9708D01*
X3142Y9514D01*
X3216Y9335D01*
X3353Y9199D01*
X3531Y9124D01*
X3725Y9124D01*
X3904Y9198D01*
X4041Y9335D01*
X4115Y9513D01*
X4115Y9707D01*
X4041Y9886D01*
X3969Y9958D01*
X3969Y10838D01*
X5540Y12409D01*
X5540Y12409D01*
X5614Y12519D01*
X5614Y12519D01*
X5618Y12541D01*
X5639Y12650D01*
X5640Y12650D01*
X5640Y17849D01*
X5649Y17849D01*
X5741Y17887D01*
X5811Y17958D01*
X5849Y18050D01*
X5850Y18149D01*
X5850Y2091D01*
X5709Y2149D01*
X5491Y2150D01*
X5400Y2112D01*
X5400Y2598D01*
X5460Y2658D01*
X5524Y2815D01*
X5525Y2984D01*
X5460Y3140D01*
X5341Y3260D01*
X5184Y3324D01*
X5015Y3325D01*
X4859Y3260D01*
X4739Y3141D01*
X4675Y2984D01*
X4674Y2815D01*
X4739Y2659D01*
X4800Y2598D01*
X4800Y2112D01*
X4709Y2149D01*
X4491Y2150D01*
X4330Y2083D01*
X4330Y2083D01*
X4312Y2112D01*
X4312Y2112D01*
X4056Y2367D01*
X4056Y5703D01*
X3991Y5860D01*
X3871Y5980D01*
X3714Y6045D01*
X3544Y6046D01*
X3387Y5981D01*
X3267Y5861D01*
X3202Y5704D01*
X3201Y5534D01*
X3266Y5377D01*
X3386Y5256D01*
X3543Y5191D01*
X3713Y5191D01*
X3870Y5256D01*
X3991Y5376D01*
X4056Y5533D01*
X4056Y5703D01*
X4056Y2367D01*
X3312Y3112D01*
X3214Y3177D01*
X3100Y3200D01*
X2601Y3200D01*
X2550Y3251D01*
X2550Y18149D01*
X2550Y18749D01*
X2512Y18841D01*
X2441Y18911D01*
X2349Y18949D01*
X2250Y18950D01*
X1650Y18950D01*
X1558Y18912D01*
X1488Y18841D01*
X1450Y18749D01*
X1450Y18727D01*
X1311Y18865D01*
X1109Y18949D01*
X891Y18950D01*
X688Y18866D01*
X534Y18711D01*
X450Y18509D01*
X449Y18291D01*
X533Y18088D01*
X688Y17934D01*
X689Y17933D01*
X689Y12564D01*
X617Y12493D01*
X542Y12314D01*
X542Y12121D01*
X616Y11942D01*
X753Y11805D01*
X931Y11731D01*
X1125Y11731D01*
X1304Y11804D01*
X1441Y11941D01*
X1515Y12120D01*
X1515Y12313D01*
X1441Y12492D01*
X1369Y12564D01*
X1369Y17991D01*
X1449Y18072D01*
X1449Y18050D01*
X1487Y17958D01*
X1558Y17888D01*
X1650Y17850D01*
X1660Y17850D01*
X1660Y12040D01*
X788Y11169D01*
X715Y11059D01*
X689Y10929D01*
X689Y9958D01*
X617Y9886D01*
X542Y9708D01*
X542Y9514D01*
X616Y9335D01*
X753Y9199D01*
X931Y9124D01*
X1125Y9124D01*
X1304Y9198D01*
X1441Y9335D01*
X1515Y9513D01*
X1515Y9707D01*
X1441Y9886D01*
X1369Y9958D01*
X1369Y10788D01*
X2240Y11659D01*
X2240Y11659D01*
X2289Y11733D01*
X2314Y11769D01*
X2314Y11769D01*
X2339Y11900D01*
X2340Y11900D01*
X2340Y17849D01*
X2349Y17849D01*
X2441Y17887D01*
X2511Y17958D01*
X2549Y18050D01*
X2550Y18149D01*
X2550Y3251D01*
X2541Y3260D01*
X2384Y3324D01*
X2215Y3325D01*
X2059Y3260D01*
X1939Y3141D01*
X1875Y2984D01*
X1874Y2815D01*
X1939Y2659D01*
X2058Y2539D01*
X2215Y2475D01*
X2384Y2474D01*
X2540Y2539D01*
X2601Y2600D01*
X2975Y2600D01*
X3444Y2130D01*
X3288Y2066D01*
X3134Y1911D01*
X3100Y1830D01*
X3066Y1911D01*
X2911Y2065D01*
X2709Y2149D01*
X2491Y2150D01*
X2288Y2066D01*
X2134Y1911D01*
X2100Y1830D01*
X2066Y1911D01*
X1911Y2065D01*
X1709Y2149D01*
X1491Y2150D01*
X1456Y2135D01*
X1456Y5703D01*
X1391Y5860D01*
X1271Y5980D01*
X1114Y6045D01*
X944Y6046D01*
X787Y5981D01*
X667Y5861D01*
X602Y5704D01*
X601Y5534D01*
X666Y5377D01*
X786Y5256D01*
X943Y5191D01*
X1113Y5191D01*
X1270Y5256D01*
X1391Y5376D01*
X1456Y5533D01*
X1456Y5703D01*
X1456Y2135D01*
X1288Y2066D01*
X1134Y1911D01*
X1050Y1709D01*
X1049Y1491D01*
X1133Y1288D01*
X1288Y1134D01*
X1369Y1100D01*
X1288Y1066D01*
X1134Y911D01*
X1100Y830D01*
X1066Y911D01*
X911Y1065D01*
X709Y1149D01*
X491Y1150D01*
X288Y1066D01*
X279Y1057D01*
X279Y19720D01*
X17220Y19720D01*
X17220Y279D01*
X17220Y279D01*
G37*
G54D21*
X17220Y279D02*
X16650Y279D01*
X16650Y4908D01*
X16566Y5111D01*
X16427Y5249D01*
X16449Y5249D01*
X16541Y5287D01*
X16611Y5358D01*
X16649Y5450D01*
X16650Y5549D01*
X16650Y6149D01*
X16612Y6241D01*
X16550Y6303D01*
X16550Y17749D01*
X16550Y18349D01*
X16512Y18441D01*
X16441Y18511D01*
X16349Y18549D01*
X16250Y18550D01*
X15650Y18550D01*
X15558Y18512D01*
X15488Y18441D01*
X15450Y18349D01*
X15449Y18250D01*
X15449Y17650D01*
X15487Y17558D01*
X15558Y17488D01*
X15650Y17450D01*
X15749Y17449D01*
X16349Y17449D01*
X16441Y17487D01*
X16511Y17558D01*
X16549Y17650D01*
X16550Y17749D01*
X16550Y6303D01*
X16541Y6311D01*
X16449Y6349D01*
X16449Y6349D01*
X16449Y11150D01*
X16440Y11207D01*
X16447Y11307D01*
X16442Y11322D01*
X16445Y11429D01*
X16414Y11512D01*
X16414Y11548D01*
X16397Y11588D01*
X16399Y11600D01*
X16377Y11714D01*
X16312Y11812D01*
X16302Y11822D01*
X16300Y11823D01*
X16298Y11825D01*
X16253Y11854D01*
X16204Y11887D01*
X16202Y11887D01*
X16200Y11888D01*
X16152Y11897D01*
X16131Y11914D01*
X16019Y11948D01*
X15903Y11937D01*
X15799Y11882D01*
X15799Y11881D01*
X15794Y11881D01*
X15733Y11842D01*
X15733Y11843D01*
X15739Y11891D01*
X15736Y11902D01*
X15736Y11914D01*
X15720Y11958D01*
X15708Y12004D01*
X15678Y12064D01*
X15648Y12102D01*
X15622Y12142D01*
X15572Y12192D01*
X15541Y12212D01*
X15514Y12237D01*
X15464Y12267D01*
X15443Y12274D01*
X15424Y12287D01*
X15388Y12294D01*
X15354Y12306D01*
X15331Y12305D01*
X15310Y12310D01*
X15240Y12310D01*
X15210Y12304D01*
X15181Y12304D01*
X15131Y12294D01*
X15131Y12294D01*
X15131Y12294D01*
X15131Y12294D01*
X15083Y12274D01*
X15049Y12260D01*
X15017Y12266D01*
X14971Y12279D01*
X14960Y12277D01*
X14950Y12280D01*
X14900Y12280D01*
X14870Y12274D01*
X14841Y12274D01*
X14791Y12264D01*
X14784Y12261D01*
X14777Y12261D01*
X14737Y12251D01*
X14717Y12241D01*
X14695Y12237D01*
X14664Y12216D01*
X14631Y12201D01*
X14616Y12184D01*
X14597Y12172D01*
X14567Y12142D01*
X14540Y12101D01*
X14511Y12064D01*
X14491Y12024D01*
X14488Y12013D01*
X14482Y12004D01*
X14473Y11957D01*
X14460Y11911D01*
X14462Y11900D01*
X14460Y11890D01*
X14460Y11867D01*
X14449Y11859D01*
X14435Y11843D01*
X14417Y11832D01*
X14387Y11802D01*
X14381Y11793D01*
X14373Y11786D01*
X14349Y11744D01*
X14322Y11704D01*
X14320Y11694D01*
X14315Y11684D01*
X14305Y11654D01*
X14303Y11639D01*
X14291Y11624D01*
X14288Y11613D01*
X14282Y11604D01*
X14273Y11557D01*
X14260Y11511D01*
X14262Y11500D01*
X14260Y11490D01*
X14269Y11442D01*
X14275Y11395D01*
X14285Y11365D01*
X14343Y11263D01*
X14435Y11191D01*
X14513Y11170D01*
X14520Y11167D01*
X14525Y11162D01*
X14529Y11160D01*
X14520Y11113D01*
X14541Y10998D01*
X14605Y10900D01*
X14615Y10893D01*
X14582Y10844D01*
X14560Y10730D01*
X14560Y10700D01*
X14561Y10692D01*
X14560Y10684D01*
X14572Y10635D01*
X14582Y10585D01*
X14587Y10578D01*
X14588Y10571D01*
X14619Y10530D01*
X14647Y10487D01*
X14654Y10483D01*
X14658Y10477D01*
X14702Y10451D01*
X14745Y10422D01*
X14752Y10421D01*
X14759Y10417D01*
X14809Y10409D01*
X14844Y10403D01*
X14847Y10397D01*
X14876Y10378D01*
X14901Y10355D01*
X14924Y10346D01*
X14945Y10332D01*
X14978Y10326D01*
X15010Y10314D01*
X15070Y10304D01*
X15101Y10305D01*
X15132Y10300D01*
X15372Y10310D01*
X15401Y10317D01*
X15432Y10318D01*
X15592Y10358D01*
X15632Y10377D01*
X15672Y10391D01*
X15684Y10401D01*
X15698Y10408D01*
X15723Y10436D01*
X15761Y10451D01*
X15791Y10471D01*
X15806Y10472D01*
X15906Y10502D01*
X15938Y10519D01*
X15972Y10531D01*
X15980Y10538D01*
X16066Y10520D01*
X16181Y10541D01*
X16279Y10605D01*
X16345Y10701D01*
X16357Y10755D01*
X16395Y10811D01*
X16419Y10926D01*
X16419Y10930D01*
X16441Y10979D01*
X16446Y11096D01*
X16440Y11111D01*
X16449Y11150D01*
X16449Y6349D01*
X16350Y6350D01*
X15750Y6350D01*
X15658Y6312D01*
X15588Y6241D01*
X15550Y6149D01*
X15549Y6050D01*
X15549Y5450D01*
X15587Y5358D01*
X15658Y5288D01*
X15750Y5250D01*
X15772Y5250D01*
X15634Y5111D01*
X15550Y4909D01*
X15549Y4691D01*
X15633Y4488D01*
X15788Y4334D01*
X15990Y4250D01*
X16208Y4249D01*
X16411Y4333D01*
X16565Y4488D01*
X16649Y4690D01*
X16650Y4908D01*
X16650Y279D01*
X16450Y279D01*
X16450Y1449D01*
X16450Y2049D01*
X16412Y2141D01*
X16341Y2211D01*
X16249Y2249D01*
X16150Y2250D01*
X15550Y2250D01*
X15458Y2212D01*
X15388Y2141D01*
X15350Y2049D01*
X15349Y1950D01*
X15349Y1350D01*
X15387Y1258D01*
X15458Y1188D01*
X15550Y1150D01*
X15649Y1149D01*
X16249Y1149D01*
X16341Y1187D01*
X16411Y1258D01*
X16449Y1350D01*
X16450Y1449D01*
X16450Y279D01*
X13057Y279D01*
X13065Y288D01*
X13149Y490D01*
X13150Y708D01*
X13066Y911D01*
X12927Y1049D01*
X12949Y1049D01*
X13041Y1087D01*
X13111Y1158D01*
X13149Y1250D01*
X13150Y1349D01*
X13150Y1949D01*
X13112Y2041D01*
X13041Y2111D01*
X12949Y2149D01*
X12850Y2150D01*
X12683Y2150D01*
X12683Y14184D01*
X12683Y14815D01*
X12626Y15099D01*
X12465Y15340D01*
X12224Y15501D01*
X11941Y15557D01*
X11657Y15501D01*
X11534Y15419D01*
X11534Y18808D01*
X11450Y19011D01*
X11295Y19165D01*
X11093Y19249D01*
X10875Y19250D01*
X10672Y19166D01*
X10518Y19011D01*
X10492Y18949D01*
X10466Y19011D01*
X10311Y19165D01*
X10109Y19249D01*
X9891Y19250D01*
X9688Y19166D01*
X9534Y19011D01*
X9450Y18809D01*
X9449Y18591D01*
X9533Y18388D01*
X9660Y18262D01*
X9660Y16940D01*
X7059Y14340D01*
X6985Y14230D01*
X6960Y14100D01*
X6960Y10761D01*
X6939Y10741D01*
X6875Y10584D01*
X6874Y10415D01*
X6939Y10259D01*
X7058Y10139D01*
X7215Y10075D01*
X7384Y10074D01*
X7540Y10139D01*
X7660Y10258D01*
X7724Y10415D01*
X7725Y10584D01*
X7660Y10740D01*
X7640Y10760D01*
X7640Y13959D01*
X10240Y16559D01*
X10240Y16559D01*
X10289Y16633D01*
X10314Y16669D01*
X10314Y16669D01*
X10339Y16800D01*
X10340Y16800D01*
X10340Y18262D01*
X10465Y18388D01*
X10491Y18450D01*
X10517Y18388D01*
X10672Y18234D01*
X10874Y18150D01*
X11092Y18149D01*
X11295Y18233D01*
X11449Y18388D01*
X11533Y18590D01*
X11534Y18808D01*
X11534Y15419D01*
X11416Y15340D01*
X11255Y15099D01*
X11199Y14815D01*
X11199Y14184D01*
X11255Y13900D01*
X11416Y13659D01*
X11657Y13498D01*
X11941Y13442D01*
X12224Y13498D01*
X12465Y13659D01*
X12626Y13900D01*
X12683Y14184D01*
X12683Y2150D01*
X12574Y2150D01*
X12425Y2299D01*
X12425Y6403D01*
X12345Y6597D01*
X12197Y6744D01*
X12004Y6824D01*
X11796Y6825D01*
X11603Y6745D01*
X11455Y6597D01*
X11375Y6404D01*
X11374Y6196D01*
X11454Y6003D01*
X11602Y5855D01*
X11795Y5775D01*
X12003Y5774D01*
X12197Y5854D01*
X12344Y6002D01*
X12424Y6195D01*
X12425Y6403D01*
X12425Y2299D01*
X12425Y2299D01*
X12425Y4074D01*
X12425Y4624D01*
X12387Y4716D01*
X12316Y4786D01*
X12224Y4824D01*
X12125Y4825D01*
X11575Y4825D01*
X11483Y4787D01*
X11413Y4716D01*
X11375Y4624D01*
X11374Y4525D01*
X11374Y3975D01*
X11412Y3883D01*
X11483Y3813D01*
X11575Y3775D01*
X11674Y3774D01*
X12224Y3774D01*
X12316Y3812D01*
X12386Y3883D01*
X12424Y3975D01*
X12425Y4074D01*
X12425Y2299D01*
X11712Y3012D01*
X11614Y3077D01*
X11500Y3100D01*
X10524Y3100D01*
X9424Y4199D01*
X9425Y4403D01*
X9345Y4597D01*
X9197Y4744D01*
X9064Y4800D01*
X9197Y4854D01*
X9344Y5002D01*
X9424Y5195D01*
X9425Y5403D01*
X9345Y5597D01*
X9197Y5744D01*
X9064Y5800D01*
X9197Y5854D01*
X9344Y6002D01*
X9424Y6195D01*
X9425Y6403D01*
X9345Y6597D01*
X9197Y6744D01*
X9004Y6824D01*
X8796Y6825D01*
X8603Y6745D01*
X8455Y6597D01*
X8375Y6404D01*
X8374Y6196D01*
X8454Y6003D01*
X8602Y5855D01*
X8735Y5799D01*
X8603Y5745D01*
X8455Y5597D01*
X8375Y5404D01*
X8374Y5196D01*
X8454Y5003D01*
X8602Y4855D01*
X8735Y4799D01*
X8603Y4745D01*
X8455Y4597D01*
X8375Y4404D01*
X8374Y4196D01*
X8454Y4003D01*
X8602Y3855D01*
X8795Y3775D01*
X9000Y3774D01*
X10187Y2587D01*
X10187Y2587D01*
X10285Y2522D01*
X10400Y2500D01*
X11375Y2500D01*
X11737Y2138D01*
X11709Y2149D01*
X11491Y2150D01*
X11288Y2066D01*
X11134Y1911D01*
X11100Y1830D01*
X11066Y1911D01*
X10911Y2065D01*
X10709Y2149D01*
X10491Y2150D01*
X10288Y2066D01*
X10134Y1911D01*
X10100Y1830D01*
X10066Y1911D01*
X9911Y2065D01*
X9709Y2149D01*
X9491Y2150D01*
X9288Y2066D01*
X9134Y1911D01*
X9050Y1709D01*
X9049Y1491D01*
X9133Y1288D01*
X9288Y1134D01*
X9369Y1100D01*
X9288Y1066D01*
X9134Y911D01*
X9100Y830D01*
X9066Y911D01*
X8911Y1065D01*
X8709Y1149D01*
X8491Y1150D01*
X8288Y1066D01*
X8134Y911D01*
X8100Y830D01*
X8066Y911D01*
X7911Y1065D01*
X7830Y1099D01*
X7911Y1133D01*
X8065Y1288D01*
X8149Y1490D01*
X8150Y1708D01*
X8066Y1911D01*
X7911Y2065D01*
X7709Y2149D01*
X7491Y2150D01*
X7288Y2066D01*
X7134Y1911D01*
X7100Y1830D01*
X7066Y1911D01*
X6911Y2065D01*
X6709Y2149D01*
X6491Y2150D01*
X6288Y2066D01*
X6134Y1911D01*
X6100Y1830D01*
X6066Y1911D01*
X5911Y2065D01*
X5850Y2091D01*
X5850Y18149D01*
X5850Y18749D01*
X5812Y18841D01*
X5741Y18911D01*
X5649Y18949D01*
X5550Y18950D01*
X4950Y18950D01*
X4858Y18912D01*
X4788Y18841D01*
X4750Y18749D01*
X4750Y18727D01*
X4611Y18865D01*
X4409Y18949D01*
X4191Y18950D01*
X3988Y18866D01*
X3834Y18711D01*
X3750Y18509D01*
X3749Y18291D01*
X3833Y18088D01*
X3960Y17962D01*
X3960Y15550D01*
X3985Y15419D01*
X4059Y15309D01*
X4260Y15109D01*
X4260Y13329D01*
X4221Y13290D01*
X4221Y14862D01*
X4096Y15164D01*
X3865Y15395D01*
X3563Y15520D01*
X3237Y15521D01*
X2935Y15396D01*
X2704Y15165D01*
X2579Y14863D01*
X2578Y14537D01*
X2703Y14235D01*
X2934Y14004D01*
X3236Y13879D01*
X3562Y13878D01*
X3864Y14003D01*
X4095Y14234D01*
X4220Y14536D01*
X4221Y14862D01*
X4221Y13290D01*
X3634Y12703D01*
X3532Y12703D01*
X3354Y12629D01*
X3217Y12493D01*
X3142Y12314D01*
X3142Y12121D01*
X3216Y11942D01*
X3353Y11805D01*
X3531Y11731D01*
X3725Y11731D01*
X3904Y11804D01*
X4041Y11941D01*
X4115Y12120D01*
X4115Y12222D01*
X4840Y12947D01*
X4840Y12947D01*
X4889Y13021D01*
X4914Y13058D01*
X4914Y13058D01*
X4939Y13188D01*
X4940Y13188D01*
X4940Y15250D01*
X4939Y15250D01*
X4914Y15380D01*
X4914Y15380D01*
X4889Y15416D01*
X4840Y15490D01*
X4840Y15490D01*
X4640Y15690D01*
X4640Y17962D01*
X4749Y18072D01*
X4749Y18050D01*
X4787Y17958D01*
X4858Y17888D01*
X4950Y17850D01*
X4960Y17850D01*
X4960Y12790D01*
X3388Y11219D01*
X3315Y11109D01*
X3289Y10979D01*
X3289Y9958D01*
X3217Y9886D01*
X3142Y9708D01*
X3142Y9514D01*
X3216Y9335D01*
X3353Y9199D01*
X3531Y9124D01*
X3725Y9124D01*
X3904Y9198D01*
X4041Y9335D01*
X4115Y9513D01*
X4115Y9707D01*
X4041Y9886D01*
X3969Y9958D01*
X3969Y10838D01*
X5540Y12409D01*
X5540Y12409D01*
X5614Y12519D01*
X5614Y12519D01*
X5618Y12541D01*
X5639Y12650D01*
X5640Y12650D01*
X5640Y17849D01*
X5649Y17849D01*
X5741Y17887D01*
X5811Y17958D01*
X5849Y18050D01*
X5850Y18149D01*
X5850Y2091D01*
X5709Y2149D01*
X5491Y2150D01*
X5400Y2112D01*
X5400Y2598D01*
X5460Y2658D01*
X5524Y2815D01*
X5525Y2984D01*
X5460Y3140D01*
X5341Y3260D01*
X5184Y3324D01*
X5015Y3325D01*
X4859Y3260D01*
X4739Y3141D01*
X4675Y2984D01*
X4674Y2815D01*
X4739Y2659D01*
X4800Y2598D01*
X4800Y2112D01*
X4709Y2149D01*
X4491Y2150D01*
X4330Y2083D01*
X4330Y2083D01*
X4312Y2112D01*
X4312Y2112D01*
X4056Y2367D01*
X4056Y5703D01*
X3991Y5860D01*
X3871Y5980D01*
X3714Y6045D01*
X3544Y6046D01*
X3387Y5981D01*
X3267Y5861D01*
X3202Y5704D01*
X3201Y5534D01*
X3266Y5377D01*
X3386Y5256D01*
X3543Y5191D01*
X3713Y5191D01*
X3870Y5256D01*
X3991Y5376D01*
X4056Y5533D01*
X4056Y5703D01*
X4056Y2367D01*
X3312Y3112D01*
X3214Y3177D01*
X3100Y3200D01*
X2601Y3200D01*
X2550Y3251D01*
X2550Y18149D01*
X2550Y18749D01*
X2512Y18841D01*
X2441Y18911D01*
X2349Y18949D01*
X2250Y18950D01*
X1650Y18950D01*
X1558Y18912D01*
X1488Y18841D01*
X1450Y18749D01*
X1450Y18727D01*
X1311Y18865D01*
X1109Y18949D01*
X891Y18950D01*
X688Y18866D01*
X534Y18711D01*
X450Y18509D01*
X449Y18291D01*
X533Y18088D01*
X688Y17934D01*
X689Y17933D01*
X689Y12564D01*
X617Y12493D01*
X542Y12314D01*
X542Y12121D01*
X616Y11942D01*
X753Y11805D01*
X931Y11731D01*
X1125Y11731D01*
X1304Y11804D01*
X1441Y11941D01*
X1515Y12120D01*
X1515Y12313D01*
X1441Y12492D01*
X1369Y12564D01*
X1369Y17991D01*
X1449Y18072D01*
X1449Y18050D01*
X1487Y17958D01*
X1558Y17888D01*
X1650Y17850D01*
X1660Y17850D01*
X1660Y12040D01*
X788Y11169D01*
X715Y11059D01*
X689Y10929D01*
X689Y9958D01*
X617Y9886D01*
X542Y9708D01*
X542Y9514D01*
X616Y9335D01*
X753Y9199D01*
X931Y9124D01*
X1125Y9124D01*
X1304Y9198D01*
X1441Y9335D01*
X1515Y9513D01*
X1515Y9707D01*
X1441Y9886D01*
X1369Y9958D01*
X1369Y10788D01*
X2240Y11659D01*
X2240Y11659D01*
X2289Y11733D01*
X2314Y11769D01*
X2314Y11769D01*
X2339Y11900D01*
X2340Y11900D01*
X2340Y17849D01*
X2349Y17849D01*
X2441Y17887D01*
X2511Y17958D01*
X2549Y18050D01*
X2550Y18149D01*
X2550Y3251D01*
X2541Y3260D01*
X2384Y3324D01*
X2215Y3325D01*
X2059Y3260D01*
X1939Y3141D01*
X1875Y2984D01*
X1874Y2815D01*
X1939Y2659D01*
X2058Y2539D01*
X2215Y2475D01*
X2384Y2474D01*
X2540Y2539D01*
X2601Y2600D01*
X2975Y2600D01*
X3444Y2130D01*
X3288Y2066D01*
X3134Y1911D01*
X3100Y1830D01*
X3066Y1911D01*
X2911Y2065D01*
X2709Y2149D01*
X2491Y2150D01*
X2288Y2066D01*
X2134Y1911D01*
X2100Y1830D01*
X2066Y1911D01*
X1911Y2065D01*
X1709Y2149D01*
X1491Y2150D01*
X1456Y2135D01*
X1456Y5703D01*
X1391Y5860D01*
X1271Y5980D01*
X1114Y6045D01*
X944Y6046D01*
X787Y5981D01*
X667Y5861D01*
X602Y5704D01*
X601Y5534D01*
X666Y5377D01*
X786Y5256D01*
X943Y5191D01*
X1113Y5191D01*
X1270Y5256D01*
X1391Y5376D01*
X1456Y5533D01*
X1456Y5703D01*
X1456Y2135D01*
X1288Y2066D01*
X1134Y1911D01*
X1050Y1709D01*
X1049Y1491D01*
X1133Y1288D01*
X1288Y1134D01*
X1369Y1100D01*
X1288Y1066D01*
X1134Y911D01*
X1100Y830D01*
X1066Y911D01*
X911Y1065D01*
X709Y1149D01*
X491Y1150D01*
X288Y1066D01*
X279Y1057D01*
X279Y19720D01*
X17220Y19720D01*
X17220Y279D01*
M02*
