M48
;DRILL file {Pcbnew (2012-nov-02)-testing} date Mon 04 Feb 2013 05:38:36 PM EST
;FORMAT={-:-/ absolute / inch / decimal}
FMAT,2
INCH,TZ
T1C0.024
T2C0.025
T3C0.032
T4C0.035
T5C0.039
T6C0.040
T7C0.075
%
G90
G05
M72
T1
X0.1029Y0.6619
X0.1029Y0.5619
X0.3629Y0.6619
X0.3629Y0.5619
T2
X0.23Y0.29
X0.51Y0.29
X0.73Y1.05
T3
X0.89Y0.73
X0.89Y0.63
X0.89Y0.53
X0.89Y0.43
X1.19Y0.73
X1.19Y0.63
X1.19Y0.53
X1.19Y0.43
T4
X0.1029Y1.2217
X0.1029Y0.9611
X0.3629Y1.2217
X0.3629Y0.9611
T5
X0.9016Y1.87
X1.0984Y1.87
T6
X0.06Y0.16
X0.06Y0.06
X0.1Y1.84
X0.16Y0.16
X0.16Y0.06
X0.2Y1.84
X0.26Y0.16
X0.26Y0.06
X0.36Y0.16
X0.36Y0.06
X0.43Y1.84
X0.46Y0.16
X0.46Y0.06
X0.53Y1.84
X0.56Y0.16
X0.56Y0.06
X0.66Y0.16
X0.66Y0.06
X0.76Y0.16
X0.76Y0.06
X0.86Y0.16
X0.86Y0.06
X0.96Y0.16
X0.96Y0.06
X1.Y1.87
X1.06Y0.16
X1.06Y0.06
X1.16Y0.16
X1.16Y0.06
X1.26Y0.16
X1.26Y0.06
X1.59Y0.27
X1.59Y0.17
X1.6Y1.9
X1.6Y1.8
X1.61Y0.58
X1.61Y0.48
T7
X1.1941Y1.45
X1.3122Y1.635
X1.4303Y1.45
T0
M30
