G04 (created by PCBNEW (2013-mar-13)-testing) date Thu 20 Jun 2013 05:01:11 PM EDT*
%MOIN*%
G04 Gerber Fmt 3.4, Leading zero omitted, Abs format*
%FSLAX34Y34*%
G01*
G70*
G90*
G04 APERTURE LIST*
%ADD10C,0.006000*%
%ADD11C,0.005906*%
%ADD12R,0.055000X0.035000*%
%ADD13R,0.030000X0.020000*%
%ADD14R,0.035000X0.055000*%
%ADD15R,0.012000X0.020000*%
%ADD16R,0.047200X0.047200*%
%ADD17R,0.066900X0.015700*%
%ADD18R,0.098400X0.070900*%
%ADD19R,0.039300X0.098400*%
%ADD20R,0.080000X0.060000*%
%ADD21R,0.060000X0.080000*%
G04 APERTURE END LIST*
G54D10*
G54D11*
X0Y21000D02*
X0Y0D01*
X17500Y21000D02*
X0Y21000D01*
X17500Y0D02*
X17500Y21000D01*
X0Y0D02*
X17500Y0D01*
G54D12*
X4800Y6275D03*
X4800Y5525D03*
G54D13*
X7400Y3925D03*
X7400Y4675D03*
X6400Y3925D03*
X7400Y4300D03*
X6400Y4675D03*
X2900Y4025D03*
X2900Y4775D03*
X1900Y4025D03*
X2900Y4400D03*
X1900Y4775D03*
G54D12*
X900Y6275D03*
X900Y5525D03*
G54D14*
X3725Y500D03*
X4475Y500D03*
X6475Y500D03*
X5725Y500D03*
G54D15*
X11550Y5100D03*
X11050Y5100D03*
X11550Y4300D03*
X11300Y5100D03*
X11050Y4300D03*
G54D16*
X900Y3987D03*
X900Y4813D03*
X4800Y3987D03*
X4800Y4813D03*
G54D17*
X15558Y14000D03*
X15558Y13744D03*
X15558Y14512D03*
X15558Y14256D03*
G54D18*
X16779Y13449D03*
X16779Y14551D03*
G54D17*
X15558Y13488D03*
G54D12*
X8500Y16275D03*
X8500Y15525D03*
X7500Y16275D03*
X7500Y15525D03*
G54D14*
X16125Y10900D03*
X16875Y10900D03*
G54D19*
X13000Y15279D03*
X13000Y12920D03*
G54D20*
X3300Y8950D03*
X3300Y7650D03*
X7200Y8950D03*
X7200Y7650D03*
G54D16*
X16800Y9287D03*
X16800Y10113D03*
G54D21*
X16650Y3800D03*
X15350Y3800D03*
G54D14*
X11525Y7300D03*
X12275Y7300D03*
X11525Y6400D03*
X12275Y6400D03*
G54D15*
X9850Y6400D03*
X9350Y6400D03*
X9850Y5600D03*
X9600Y6400D03*
X9350Y5600D03*
M02*
