M48
;DRILL file {Pcbnew (2013-mar-13)-testing} date Thu 20 Jun 2013 05:01:09 PM EDT
;FORMAT={-:-/ absolute / inch / decimal}
FMAT,2
INCH,TZ
T1C0.024
T2C0.025
T3C0.032
T4C0.035
T5C0.039
T6C0.039
T7C0.040
T8C0.043
T9C0.075
%
G90
G05
M72
T1
X0.0829Y0.8519
X0.0829Y0.7519
X0.4829Y0.8519
X0.4829Y0.7519
T2
X0.36Y0.4
X0.8Y0.39
X0.807Y0.526
X0.915Y0.442
X0.931Y0.381
X0.96Y0.706
X1.046Y0.41
X1.434Y1.438
X1.53Y0.47
X1.68Y0.77
T3
X0.94Y1.15
X0.94Y0.85
X1.04Y1.15
X1.04Y0.85
X1.14Y1.15
X1.14Y0.85
X1.24Y1.15
X1.24Y0.85
T4
X0.0829Y1.4117
X0.0829Y1.1511
X0.4829Y1.4117
X0.4829Y1.1511
T5
X1.5Y0.8284
X1.5Y0.6316
T7
X0.06Y0.26
X0.06Y0.16
X0.09Y1.94
X0.16Y0.26
X0.16Y0.16
X0.19Y1.94
X0.26Y0.26
X0.26Y0.16
X0.36Y0.26
X0.36Y0.16
X0.42Y1.94
X0.46Y0.26
X0.46Y0.16
X0.52Y1.94
X0.56Y0.26
X0.56Y0.16
X0.66Y0.26
X0.66Y0.16
X0.74Y1.96
X0.76Y0.26
X0.76Y0.16
X0.84Y1.96
X0.86Y0.26
X0.86Y0.16
X0.96Y0.26
X0.96Y0.16
X1.06Y0.26
X1.06Y0.16
X1.16Y0.26
X1.16Y0.16
X1.26Y0.26
X1.26Y0.16
X1.5Y0.73
X1.59Y0.21
X1.59Y0.11
T8
X1.5519Y1.4945
X1.5519Y1.3055
T9
X1.1841Y1.84
X1.3022Y2.025
X1.4203Y1.84
T6
X1.6896Y1.5614G85X1.6503Y1.5614
G05
X1.6896Y1.2386G85X1.6503Y1.2386
G05
T0
M30
