G04 (created by PCBNEW (2013-mar-13)-testing) date Mon 24 Jun 2013 03:34:55 PM EDT*
%MOIN*%
G04 Gerber Fmt 3.4, Leading zero omitted, Abs format*
%FSLAX34Y34*%
G01*
G70*
G90*
G04 APERTURE LIST*
%ADD10C,0.006000*%
%ADD11R,0.060000X0.060000*%
%ADD12C,0.060000*%
%ADD13R,0.090600X0.051200*%
%ADD14R,0.059100X0.051200*%
%ADD15C,0.047244*%
%ADD16C,0.035433*%
%ADD17O,0.236200X0.098400*%
%ADD18O,0.098400X0.157500*%
%ADD19R,0.055000X0.055000*%
%ADD20C,0.055000*%
%ADD21C,0.126000*%
G04 APERTURE END LIST*
G54D10*
G54D11*
X7200Y19500D03*
G54D12*
X8200Y19500D03*
G54D13*
X16500Y12286D03*
G54D14*
X15319Y12955D03*
G54D13*
X16500Y15514D03*
G54D14*
X15319Y14845D03*
G54D11*
X16600Y1900D03*
G54D12*
X16600Y900D03*
X15600Y1900D03*
X15600Y900D03*
X14600Y1900D03*
X14600Y900D03*
X13600Y1900D03*
X13600Y900D03*
X12600Y1900D03*
X12600Y900D03*
X11600Y1900D03*
X11600Y900D03*
X10600Y1900D03*
X10600Y900D03*
X9600Y1900D03*
X9600Y900D03*
X8600Y1900D03*
X8600Y900D03*
X7600Y1900D03*
X7600Y900D03*
X6600Y1900D03*
X6600Y900D03*
X5600Y1900D03*
X5600Y900D03*
X4600Y1900D03*
X4600Y900D03*
G54D11*
X14800Y6216D03*
G54D12*
X14800Y7200D03*
X14800Y8184D03*
G54D15*
X779Y15317D03*
X779Y12711D03*
G54D16*
X779Y8718D03*
X779Y9718D03*
G54D15*
X4529Y15317D03*
X4529Y12711D03*
G54D16*
X4529Y8718D03*
X4529Y9718D03*
G54D11*
X1900Y19300D03*
G54D12*
X900Y19300D03*
G54D17*
X13022Y20150D03*
G54D18*
X14203Y18300D03*
X11841Y18300D03*
G54D19*
X12200Y11400D03*
G54D20*
X11200Y11400D03*
X10200Y11400D03*
X9200Y11400D03*
X9200Y8400D03*
X10200Y8400D03*
X11200Y8400D03*
X12200Y8400D03*
G54D11*
X5000Y19300D03*
G54D12*
X4000Y19300D03*
G54D21*
X7400Y15000D03*
M02*
