G04 (created by PCBNEW (2013-mar-13)-testing) date Wed 26 Jun 2013 11:52:56 AM EDT*
%MOIN*%
G04 Gerber Fmt 3.4, Leading zero omitted, Abs format*
%FSLAX34Y34*%
G01*
G70*
G90*
G04 APERTURE LIST*
%ADD10C,0.006000*%
%ADD11R,0.060000X0.060000*%
%ADD12C,0.060000*%
%ADD13R,0.090600X0.051200*%
%ADD14R,0.059100X0.051200*%
%ADD15C,0.047244*%
%ADD16C,0.035433*%
%ADD17O,0.236200X0.098400*%
%ADD18O,0.098400X0.157500*%
%ADD19R,0.055000X0.055000*%
%ADD20C,0.055000*%
%ADD21C,0.035000*%
%ADD22C,0.014000*%
%ADD23C,0.022000*%
%ADD24C,0.010000*%
G04 APERTURE END LIST*
G54D10*
G54D11*
X7200Y19500D03*
G54D12*
X8200Y19500D03*
G54D13*
X16500Y12286D03*
G54D14*
X15319Y12955D03*
G54D13*
X16500Y15514D03*
G54D14*
X15319Y14845D03*
G54D11*
X16600Y1900D03*
G54D12*
X16600Y900D03*
X15600Y1900D03*
X15600Y900D03*
X14600Y1900D03*
X14600Y900D03*
X13600Y1900D03*
X13600Y900D03*
X12600Y1900D03*
X12600Y900D03*
X11600Y1900D03*
X11600Y900D03*
X10600Y1900D03*
X10600Y900D03*
X9600Y1900D03*
X9600Y900D03*
X8600Y1900D03*
X8600Y900D03*
X7600Y1900D03*
X7600Y900D03*
X6600Y1900D03*
X6600Y900D03*
X5600Y1900D03*
X5600Y900D03*
X4600Y1900D03*
X4600Y900D03*
G54D11*
X14800Y6216D03*
G54D12*
X14800Y7200D03*
X14800Y8184D03*
G54D15*
X779Y15317D03*
X779Y12711D03*
G54D16*
X779Y8718D03*
X779Y9718D03*
G54D15*
X4529Y15317D03*
X4529Y12711D03*
G54D16*
X4529Y8718D03*
X4529Y9718D03*
G54D11*
X1900Y19300D03*
G54D12*
X900Y19300D03*
G54D17*
X13022Y20150D03*
G54D18*
X14203Y18300D03*
X11841Y18300D03*
G54D19*
X12200Y11400D03*
G54D20*
X11200Y11400D03*
X10200Y11400D03*
X9200Y11400D03*
X9200Y8400D03*
X10200Y8400D03*
X11200Y8400D03*
X12200Y8400D03*
G54D11*
X5000Y19300D03*
G54D12*
X4000Y19300D03*
G54D21*
X16600Y7600D03*
X13800Y3700D03*
X8100Y4900D03*
X14300Y14100D03*
X9500Y3700D03*
X4100Y2700D03*
X3800Y6700D03*
X10100Y4200D03*
X6400Y5400D03*
X10600Y6200D03*
G54D22*
X15600Y900D02*
X15100Y1400D01*
X15100Y2400D02*
X13800Y3700D01*
X15100Y1400D02*
X15100Y2400D01*
G54D23*
X13800Y3700D02*
X13800Y3800D01*
X13800Y3800D02*
X16600Y6600D01*
X16600Y6600D02*
X16600Y7600D01*
X13800Y3700D02*
X13700Y3700D01*
X12500Y4900D02*
X8100Y4900D01*
X13700Y3700D02*
X12500Y4900D01*
X14800Y11000D02*
X14300Y11500D01*
X14300Y11500D02*
X14300Y14100D01*
X14800Y8184D02*
X14800Y11000D01*
G54D22*
X11600Y900D02*
X11100Y1400D01*
X10200Y3700D02*
X9500Y3700D01*
X11100Y2800D02*
X10200Y3700D01*
X11100Y1400D02*
X11100Y2800D01*
G54D23*
X3800Y3000D02*
X3800Y6700D01*
X4100Y2700D02*
X3800Y3000D01*
G54D22*
X6600Y900D02*
X7100Y1400D01*
X8900Y4200D02*
X10100Y4200D01*
X7100Y2400D02*
X8900Y4200D01*
X7100Y1400D02*
X7100Y2400D01*
G54D23*
X4600Y1900D02*
X4600Y2000D01*
X6400Y3800D02*
X6400Y5400D01*
X4600Y2000D02*
X6400Y3800D01*
X9200Y8400D02*
X9200Y8800D01*
X13800Y7216D02*
X14800Y6216D01*
X13800Y7900D02*
X13800Y7216D01*
X12400Y9300D02*
X13800Y7900D01*
X9700Y9300D02*
X12400Y9300D01*
X9200Y8800D02*
X9700Y9300D01*
G54D22*
X10200Y6600D02*
X10200Y8400D01*
X10600Y6200D02*
X10200Y6600D01*
G54D10*
G36*
X14597Y2450D02*
X14491Y2450D01*
X14288Y2366D01*
X14134Y2211D01*
X14100Y2130D01*
X14066Y2211D01*
X13911Y2365D01*
X13709Y2449D01*
X13491Y2450D01*
X13288Y2366D01*
X13134Y2211D01*
X13050Y2009D01*
X13049Y1791D01*
X13133Y1588D01*
X13288Y1434D01*
X13369Y1400D01*
X13288Y1366D01*
X13134Y1211D01*
X13100Y1130D01*
X13066Y1211D01*
X12911Y1365D01*
X12709Y1449D01*
X12491Y1450D01*
X12288Y1366D01*
X12134Y1211D01*
X12100Y1130D01*
X12066Y1211D01*
X11911Y1365D01*
X11830Y1399D01*
X11911Y1433D01*
X12065Y1588D01*
X12149Y1790D01*
X12150Y2008D01*
X12066Y2211D01*
X11911Y2365D01*
X11709Y2449D01*
X11491Y2450D01*
X11420Y2420D01*
X11420Y2800D01*
X11395Y2922D01*
X11326Y3026D01*
X11326Y3026D01*
X10426Y3925D01*
X10460Y3958D01*
X10524Y4115D01*
X10525Y4284D01*
X10460Y4440D01*
X10361Y4540D01*
X12350Y4540D01*
X13445Y3445D01*
X13469Y3429D01*
X13469Y3429D01*
X13558Y3339D01*
X13715Y3275D01*
X13772Y3275D01*
X14597Y2450D01*
X14597Y2450D01*
G37*
G54D24*
X14597Y2450D02*
X14491Y2450D01*
X14288Y2366D01*
X14134Y2211D01*
X14100Y2130D01*
X14066Y2211D01*
X13911Y2365D01*
X13709Y2449D01*
X13491Y2450D01*
X13288Y2366D01*
X13134Y2211D01*
X13050Y2009D01*
X13049Y1791D01*
X13133Y1588D01*
X13288Y1434D01*
X13369Y1400D01*
X13288Y1366D01*
X13134Y1211D01*
X13100Y1130D01*
X13066Y1211D01*
X12911Y1365D01*
X12709Y1449D01*
X12491Y1450D01*
X12288Y1366D01*
X12134Y1211D01*
X12100Y1130D01*
X12066Y1211D01*
X11911Y1365D01*
X11830Y1399D01*
X11911Y1433D01*
X12065Y1588D01*
X12149Y1790D01*
X12150Y2008D01*
X12066Y2211D01*
X11911Y2365D01*
X11709Y2449D01*
X11491Y2450D01*
X11420Y2420D01*
X11420Y2800D01*
X11395Y2922D01*
X11326Y3026D01*
X11326Y3026D01*
X10426Y3925D01*
X10460Y3958D01*
X10524Y4115D01*
X10525Y4284D01*
X10460Y4440D01*
X10361Y4540D01*
X12350Y4540D01*
X13445Y3445D01*
X13469Y3429D01*
X13469Y3429D01*
X13558Y3339D01*
X13715Y3275D01*
X13772Y3275D01*
X14597Y2450D01*
G54D10*
G36*
X17220Y279D02*
X17150Y279D01*
X17150Y1008D01*
X17066Y1211D01*
X16927Y1350D01*
X16949Y1350D01*
X17041Y1388D01*
X17111Y1458D01*
X17150Y1550D01*
X17150Y1649D01*
X17150Y2249D01*
X17111Y2341D01*
X17041Y2411D01*
X16949Y2450D01*
X16850Y2450D01*
X16250Y2450D01*
X16158Y2411D01*
X16088Y2341D01*
X16050Y2249D01*
X16050Y2227D01*
X15911Y2365D01*
X15709Y2449D01*
X15491Y2450D01*
X15416Y2419D01*
X15395Y2522D01*
X15326Y2626D01*
X15326Y2626D01*
X14230Y3721D01*
X16854Y6345D01*
X16854Y6345D01*
X16901Y6415D01*
X16932Y6462D01*
X16932Y6462D01*
X16959Y6600D01*
X16960Y6600D01*
X16960Y7358D01*
X16960Y7358D01*
X17024Y7515D01*
X17025Y7684D01*
X16960Y7840D01*
X16841Y7960D01*
X16684Y8024D01*
X16515Y8025D01*
X16359Y7960D01*
X16239Y7841D01*
X16175Y7684D01*
X16174Y7515D01*
X16239Y7359D01*
X16240Y7359D01*
X16240Y6749D01*
X15350Y5859D01*
X15350Y7308D01*
X15266Y7511D01*
X15111Y7665D01*
X15049Y7691D01*
X15111Y7717D01*
X15265Y7872D01*
X15349Y8074D01*
X15350Y8292D01*
X15266Y8495D01*
X15160Y8601D01*
X15160Y11000D01*
X15132Y11137D01*
X15132Y11137D01*
X15093Y11196D01*
X15054Y11254D01*
X15054Y11254D01*
X14660Y11649D01*
X14660Y13858D01*
X14660Y13858D01*
X14724Y14015D01*
X14725Y14184D01*
X14660Y14340D01*
X14541Y14460D01*
X14384Y14524D01*
X14215Y14525D01*
X14059Y14460D01*
X13939Y14341D01*
X13875Y14184D01*
X13874Y14015D01*
X13939Y13859D01*
X13940Y13859D01*
X13940Y11500D01*
X13967Y11362D01*
X14045Y11245D01*
X14440Y10850D01*
X14440Y8601D01*
X14334Y8495D01*
X14250Y8293D01*
X14249Y8075D01*
X14333Y7872D01*
X14488Y7718D01*
X14550Y7692D01*
X14488Y7666D01*
X14334Y7511D01*
X14250Y7309D01*
X14249Y7091D01*
X14333Y6888D01*
X14488Y6734D01*
X14690Y6650D01*
X14908Y6649D01*
X15111Y6733D01*
X15265Y6888D01*
X15349Y7090D01*
X15350Y7308D01*
X15350Y5859D01*
X13699Y4209D01*
X12754Y5154D01*
X12725Y5174D01*
X12725Y8503D01*
X12725Y8504D01*
X12725Y11075D01*
X12725Y11174D01*
X12725Y11724D01*
X12686Y11816D01*
X12616Y11886D01*
X12583Y11900D01*
X12583Y17984D01*
X12583Y18615D01*
X12526Y18899D01*
X12365Y19140D01*
X12124Y19301D01*
X11841Y19357D01*
X11557Y19301D01*
X11316Y19140D01*
X11155Y18899D01*
X11099Y18615D01*
X11099Y17984D01*
X11155Y17700D01*
X11316Y17459D01*
X11557Y17298D01*
X11841Y17242D01*
X12124Y17298D01*
X12365Y17459D01*
X12526Y17700D01*
X12583Y17984D01*
X12583Y11900D01*
X12524Y11925D01*
X12425Y11925D01*
X11875Y11925D01*
X11783Y11886D01*
X11713Y11816D01*
X11675Y11724D01*
X11675Y11625D01*
X11675Y11075D01*
X11713Y10983D01*
X11783Y10913D01*
X11875Y10875D01*
X11974Y10875D01*
X12524Y10875D01*
X12616Y10913D01*
X12686Y10983D01*
X12725Y11075D01*
X12725Y8504D01*
X12645Y8697D01*
X12497Y8844D01*
X12304Y8924D01*
X12096Y8925D01*
X11903Y8845D01*
X11755Y8697D01*
X11699Y8564D01*
X11645Y8697D01*
X11497Y8844D01*
X11304Y8924D01*
X11096Y8925D01*
X10903Y8845D01*
X10755Y8697D01*
X10725Y8625D01*
X10725Y11503D01*
X10645Y11697D01*
X10497Y11844D01*
X10304Y11924D01*
X10096Y11925D01*
X9903Y11845D01*
X9755Y11697D01*
X9675Y11504D01*
X9674Y11296D01*
X9754Y11103D01*
X9902Y10955D01*
X10095Y10875D01*
X10303Y10874D01*
X10497Y10954D01*
X10644Y11102D01*
X10724Y11295D01*
X10725Y11503D01*
X10725Y8625D01*
X10699Y8564D01*
X10645Y8697D01*
X10497Y8844D01*
X10304Y8924D01*
X10096Y8925D01*
X9903Y8845D01*
X9755Y8697D01*
X9675Y8504D01*
X9674Y8296D01*
X9754Y8103D01*
X9880Y7977D01*
X9880Y6600D01*
X9904Y6477D01*
X9973Y6373D01*
X10174Y6172D01*
X10174Y6115D01*
X10239Y5959D01*
X10358Y5839D01*
X10515Y5775D01*
X10684Y5774D01*
X10840Y5839D01*
X10960Y5958D01*
X11024Y6115D01*
X11025Y6284D01*
X10960Y6440D01*
X10841Y6560D01*
X10684Y6624D01*
X10627Y6624D01*
X10520Y6732D01*
X10520Y7977D01*
X10644Y8102D01*
X10700Y8235D01*
X10754Y8103D01*
X10902Y7955D01*
X11095Y7875D01*
X11303Y7874D01*
X11497Y7954D01*
X11644Y8102D01*
X11700Y8235D01*
X11754Y8103D01*
X11902Y7955D01*
X12095Y7875D01*
X12303Y7874D01*
X12497Y7954D01*
X12644Y8102D01*
X12724Y8295D01*
X12725Y8503D01*
X12725Y5174D01*
X12637Y5232D01*
X12500Y5260D01*
X8750Y5260D01*
X8750Y19608D01*
X8666Y19811D01*
X8511Y19965D01*
X8309Y20049D01*
X8091Y20050D01*
X7888Y19966D01*
X7750Y19827D01*
X7750Y19849D01*
X7711Y19941D01*
X7641Y20011D01*
X7549Y20050D01*
X7450Y20050D01*
X6850Y20050D01*
X6758Y20011D01*
X6688Y19941D01*
X6650Y19849D01*
X6650Y19750D01*
X6650Y19150D01*
X6688Y19058D01*
X6758Y18988D01*
X6850Y18950D01*
X6949Y18950D01*
X7549Y18950D01*
X7641Y18988D01*
X7711Y19058D01*
X7750Y19150D01*
X7750Y19172D01*
X7888Y19034D01*
X8090Y18950D01*
X8308Y18949D01*
X8511Y19033D01*
X8665Y19188D01*
X8749Y19390D01*
X8750Y19608D01*
X8750Y5260D01*
X8341Y5260D01*
X8341Y5260D01*
X8280Y5285D01*
X8280Y15174D01*
X8146Y15497D01*
X7899Y15745D01*
X7575Y15879D01*
X7225Y15880D01*
X6902Y15746D01*
X6654Y15499D01*
X6520Y15175D01*
X6519Y14825D01*
X6653Y14502D01*
X6900Y14254D01*
X7224Y14120D01*
X7574Y14119D01*
X7897Y14253D01*
X8145Y14500D01*
X8279Y14824D01*
X8280Y15174D01*
X8280Y5285D01*
X8184Y5324D01*
X8015Y5325D01*
X7859Y5260D01*
X7739Y5141D01*
X7675Y4984D01*
X7674Y4815D01*
X7739Y4659D01*
X7858Y4539D01*
X8015Y4475D01*
X8184Y4474D01*
X8340Y4539D01*
X8340Y4540D01*
X9839Y4540D01*
X9818Y4520D01*
X8900Y4520D01*
X8777Y4495D01*
X8673Y4426D01*
X6873Y2626D01*
X6804Y2522D01*
X6783Y2419D01*
X6709Y2449D01*
X6491Y2450D01*
X6288Y2366D01*
X6134Y2211D01*
X6100Y2130D01*
X6066Y2211D01*
X5911Y2365D01*
X5709Y2449D01*
X5550Y2450D01*
X5550Y18950D01*
X5550Y19049D01*
X5550Y19649D01*
X5511Y19741D01*
X5441Y19811D01*
X5349Y19850D01*
X5250Y19850D01*
X4650Y19850D01*
X4558Y19811D01*
X4488Y19741D01*
X4450Y19649D01*
X4450Y19627D01*
X4311Y19765D01*
X4109Y19849D01*
X3891Y19850D01*
X3688Y19766D01*
X3534Y19611D01*
X3450Y19409D01*
X3449Y19191D01*
X3533Y18988D01*
X3688Y18834D01*
X3890Y18750D01*
X4108Y18749D01*
X4311Y18833D01*
X4450Y18972D01*
X4450Y18950D01*
X4488Y18858D01*
X4558Y18788D01*
X4650Y18750D01*
X4749Y18750D01*
X5349Y18750D01*
X5441Y18788D01*
X5511Y18858D01*
X5550Y18950D01*
X5550Y2450D01*
X5491Y2450D01*
X5288Y2366D01*
X5134Y2211D01*
X5050Y2009D01*
X5049Y1791D01*
X5133Y1588D01*
X5288Y1434D01*
X5369Y1400D01*
X5288Y1366D01*
X5134Y1211D01*
X5100Y1130D01*
X5066Y1211D01*
X5015Y1262D01*
X5015Y12807D01*
X5015Y15413D01*
X4941Y15592D01*
X4804Y15729D01*
X4626Y15803D01*
X4432Y15803D01*
X4254Y15729D01*
X4117Y15593D01*
X4042Y15414D01*
X4042Y15221D01*
X4116Y15042D01*
X4253Y14905D01*
X4431Y14831D01*
X4625Y14831D01*
X4804Y14904D01*
X4941Y15041D01*
X5015Y15220D01*
X5015Y15413D01*
X5015Y12807D01*
X4941Y12986D01*
X4804Y13122D01*
X4626Y13197D01*
X4432Y13197D01*
X4254Y13123D01*
X4117Y12986D01*
X4042Y12808D01*
X4042Y12614D01*
X4116Y12435D01*
X4253Y12299D01*
X4431Y12224D01*
X4625Y12224D01*
X4804Y12298D01*
X4941Y12435D01*
X5015Y12613D01*
X5015Y12807D01*
X5015Y1262D01*
X4956Y1321D01*
X4956Y8803D01*
X4891Y8960D01*
X4771Y9080D01*
X4614Y9145D01*
X4444Y9146D01*
X4287Y9081D01*
X4167Y8961D01*
X4102Y8804D01*
X4101Y8634D01*
X4166Y8477D01*
X4286Y8356D01*
X4443Y8291D01*
X4613Y8291D01*
X4770Y8356D01*
X4891Y8476D01*
X4956Y8633D01*
X4956Y8803D01*
X4956Y1321D01*
X4911Y1365D01*
X4709Y1449D01*
X4525Y1450D01*
X4525Y2784D01*
X4460Y2940D01*
X4341Y3060D01*
X4184Y3124D01*
X4184Y3124D01*
X4160Y3149D01*
X4160Y6458D01*
X4160Y6458D01*
X4224Y6615D01*
X4225Y6784D01*
X4160Y6940D01*
X4041Y7060D01*
X3884Y7124D01*
X3715Y7125D01*
X3559Y7060D01*
X3439Y6941D01*
X3375Y6784D01*
X3374Y6615D01*
X3439Y6459D01*
X3440Y6459D01*
X3440Y3000D01*
X3467Y2862D01*
X3545Y2745D01*
X3674Y2615D01*
X3674Y2615D01*
X3739Y2459D01*
X3858Y2339D01*
X4015Y2275D01*
X4184Y2274D01*
X4340Y2339D01*
X4460Y2458D01*
X4524Y2615D01*
X4525Y2784D01*
X4525Y1450D01*
X4491Y1450D01*
X4288Y1366D01*
X4134Y1211D01*
X4050Y1009D01*
X4049Y791D01*
X4133Y588D01*
X4288Y434D01*
X4490Y350D01*
X4708Y349D01*
X4911Y433D01*
X5065Y588D01*
X5099Y669D01*
X5133Y588D01*
X5288Y434D01*
X5490Y350D01*
X5708Y349D01*
X5911Y433D01*
X6065Y588D01*
X6099Y669D01*
X6133Y588D01*
X6288Y434D01*
X6490Y350D01*
X6708Y349D01*
X6911Y433D01*
X7065Y588D01*
X7149Y790D01*
X7150Y997D01*
X7326Y1173D01*
X7326Y1173D01*
X7395Y1277D01*
X7416Y1380D01*
X7490Y1350D01*
X7708Y1349D01*
X7911Y1433D01*
X8065Y1588D01*
X8099Y1669D01*
X8133Y1588D01*
X8288Y1434D01*
X8369Y1400D01*
X8288Y1366D01*
X8134Y1211D01*
X8050Y1009D01*
X8049Y791D01*
X8133Y588D01*
X8288Y434D01*
X8490Y350D01*
X8708Y349D01*
X8911Y433D01*
X9065Y588D01*
X9099Y669D01*
X9133Y588D01*
X9288Y434D01*
X9490Y350D01*
X9708Y349D01*
X9911Y433D01*
X10065Y588D01*
X10149Y790D01*
X10150Y1008D01*
X10066Y1211D01*
X9911Y1365D01*
X9830Y1399D01*
X9911Y1433D01*
X10065Y1588D01*
X10099Y1669D01*
X10133Y1588D01*
X10288Y1434D01*
X10490Y1350D01*
X10708Y1349D01*
X10783Y1380D01*
X10804Y1277D01*
X10873Y1173D01*
X11050Y997D01*
X11049Y791D01*
X11133Y588D01*
X11288Y434D01*
X11490Y350D01*
X11708Y349D01*
X11911Y433D01*
X12065Y588D01*
X12099Y669D01*
X12133Y588D01*
X12288Y434D01*
X12490Y350D01*
X12708Y349D01*
X12911Y433D01*
X13065Y588D01*
X13099Y669D01*
X13133Y588D01*
X13288Y434D01*
X13490Y350D01*
X13708Y349D01*
X13911Y433D01*
X14065Y588D01*
X14149Y790D01*
X14150Y1008D01*
X14066Y1211D01*
X13911Y1365D01*
X13830Y1399D01*
X13911Y1433D01*
X14065Y1588D01*
X14099Y1669D01*
X14133Y1588D01*
X14288Y1434D01*
X14490Y1350D01*
X14708Y1349D01*
X14783Y1380D01*
X14804Y1277D01*
X14873Y1173D01*
X15050Y997D01*
X15049Y791D01*
X15133Y588D01*
X15288Y434D01*
X15490Y350D01*
X15708Y349D01*
X15911Y433D01*
X16065Y588D01*
X16099Y669D01*
X16133Y588D01*
X16288Y434D01*
X16490Y350D01*
X16708Y349D01*
X16911Y433D01*
X17065Y588D01*
X17149Y790D01*
X17150Y1008D01*
X17150Y279D01*
X3279Y279D01*
X3279Y5000D01*
X3258Y5106D01*
X3250Y5119D01*
X3250Y5150D01*
X3229Y5150D01*
X3197Y5197D01*
X3106Y5258D01*
X3000Y5279D01*
X2450Y5279D01*
X2450Y18950D01*
X2450Y19049D01*
X2450Y19649D01*
X2411Y19741D01*
X2341Y19811D01*
X2249Y19850D01*
X2150Y19850D01*
X1550Y19850D01*
X1458Y19811D01*
X1388Y19741D01*
X1350Y19649D01*
X1350Y19627D01*
X1211Y19765D01*
X1009Y19849D01*
X791Y19850D01*
X588Y19766D01*
X434Y19611D01*
X350Y19409D01*
X349Y19191D01*
X433Y18988D01*
X588Y18834D01*
X790Y18750D01*
X1008Y18749D01*
X1211Y18833D01*
X1350Y18972D01*
X1350Y18950D01*
X1388Y18858D01*
X1458Y18788D01*
X1550Y18750D01*
X1649Y18750D01*
X2249Y18750D01*
X2341Y18788D01*
X2411Y18858D01*
X2450Y18950D01*
X2450Y5279D01*
X1265Y5279D01*
X1265Y12807D01*
X1265Y15413D01*
X1191Y15592D01*
X1054Y15729D01*
X876Y15803D01*
X682Y15803D01*
X504Y15729D01*
X367Y15593D01*
X292Y15414D01*
X292Y15221D01*
X366Y15042D01*
X503Y14905D01*
X681Y14831D01*
X875Y14831D01*
X1054Y14904D01*
X1191Y15041D01*
X1265Y15220D01*
X1265Y15413D01*
X1265Y12807D01*
X1191Y12986D01*
X1054Y13122D01*
X876Y13197D01*
X682Y13197D01*
X504Y13123D01*
X367Y12986D01*
X292Y12808D01*
X292Y12614D01*
X366Y12435D01*
X503Y12299D01*
X681Y12224D01*
X875Y12224D01*
X1054Y12298D01*
X1191Y12435D01*
X1265Y12613D01*
X1265Y12807D01*
X1265Y5279D01*
X1206Y5279D01*
X1206Y8803D01*
X1141Y8960D01*
X1021Y9080D01*
X864Y9145D01*
X694Y9146D01*
X537Y9081D01*
X417Y8961D01*
X352Y8804D01*
X351Y8634D01*
X416Y8477D01*
X536Y8356D01*
X693Y8291D01*
X863Y8291D01*
X1020Y8356D01*
X1141Y8476D01*
X1206Y8633D01*
X1206Y8803D01*
X1206Y5279D01*
X279Y5279D01*
X279Y20720D01*
X17220Y20720D01*
X17220Y279D01*
X17220Y279D01*
G37*
G54D24*
X17220Y279D02*
X17150Y279D01*
X17150Y1008D01*
X17066Y1211D01*
X16927Y1350D01*
X16949Y1350D01*
X17041Y1388D01*
X17111Y1458D01*
X17150Y1550D01*
X17150Y1649D01*
X17150Y2249D01*
X17111Y2341D01*
X17041Y2411D01*
X16949Y2450D01*
X16850Y2450D01*
X16250Y2450D01*
X16158Y2411D01*
X16088Y2341D01*
X16050Y2249D01*
X16050Y2227D01*
X15911Y2365D01*
X15709Y2449D01*
X15491Y2450D01*
X15416Y2419D01*
X15395Y2522D01*
X15326Y2626D01*
X15326Y2626D01*
X14230Y3721D01*
X16854Y6345D01*
X16854Y6345D01*
X16901Y6415D01*
X16932Y6462D01*
X16932Y6462D01*
X16959Y6600D01*
X16960Y6600D01*
X16960Y7358D01*
X16960Y7358D01*
X17024Y7515D01*
X17025Y7684D01*
X16960Y7840D01*
X16841Y7960D01*
X16684Y8024D01*
X16515Y8025D01*
X16359Y7960D01*
X16239Y7841D01*
X16175Y7684D01*
X16174Y7515D01*
X16239Y7359D01*
X16240Y7359D01*
X16240Y6749D01*
X15350Y5859D01*
X15350Y7308D01*
X15266Y7511D01*
X15111Y7665D01*
X15049Y7691D01*
X15111Y7717D01*
X15265Y7872D01*
X15349Y8074D01*
X15350Y8292D01*
X15266Y8495D01*
X15160Y8601D01*
X15160Y11000D01*
X15132Y11137D01*
X15132Y11137D01*
X15093Y11196D01*
X15054Y11254D01*
X15054Y11254D01*
X14660Y11649D01*
X14660Y13858D01*
X14660Y13858D01*
X14724Y14015D01*
X14725Y14184D01*
X14660Y14340D01*
X14541Y14460D01*
X14384Y14524D01*
X14215Y14525D01*
X14059Y14460D01*
X13939Y14341D01*
X13875Y14184D01*
X13874Y14015D01*
X13939Y13859D01*
X13940Y13859D01*
X13940Y11500D01*
X13967Y11362D01*
X14045Y11245D01*
X14440Y10850D01*
X14440Y8601D01*
X14334Y8495D01*
X14250Y8293D01*
X14249Y8075D01*
X14333Y7872D01*
X14488Y7718D01*
X14550Y7692D01*
X14488Y7666D01*
X14334Y7511D01*
X14250Y7309D01*
X14249Y7091D01*
X14333Y6888D01*
X14488Y6734D01*
X14690Y6650D01*
X14908Y6649D01*
X15111Y6733D01*
X15265Y6888D01*
X15349Y7090D01*
X15350Y7308D01*
X15350Y5859D01*
X13699Y4209D01*
X12754Y5154D01*
X12725Y5174D01*
X12725Y8503D01*
X12725Y8504D01*
X12725Y11075D01*
X12725Y11174D01*
X12725Y11724D01*
X12686Y11816D01*
X12616Y11886D01*
X12583Y11900D01*
X12583Y17984D01*
X12583Y18615D01*
X12526Y18899D01*
X12365Y19140D01*
X12124Y19301D01*
X11841Y19357D01*
X11557Y19301D01*
X11316Y19140D01*
X11155Y18899D01*
X11099Y18615D01*
X11099Y17984D01*
X11155Y17700D01*
X11316Y17459D01*
X11557Y17298D01*
X11841Y17242D01*
X12124Y17298D01*
X12365Y17459D01*
X12526Y17700D01*
X12583Y17984D01*
X12583Y11900D01*
X12524Y11925D01*
X12425Y11925D01*
X11875Y11925D01*
X11783Y11886D01*
X11713Y11816D01*
X11675Y11724D01*
X11675Y11625D01*
X11675Y11075D01*
X11713Y10983D01*
X11783Y10913D01*
X11875Y10875D01*
X11974Y10875D01*
X12524Y10875D01*
X12616Y10913D01*
X12686Y10983D01*
X12725Y11075D01*
X12725Y8504D01*
X12645Y8697D01*
X12497Y8844D01*
X12304Y8924D01*
X12096Y8925D01*
X11903Y8845D01*
X11755Y8697D01*
X11699Y8564D01*
X11645Y8697D01*
X11497Y8844D01*
X11304Y8924D01*
X11096Y8925D01*
X10903Y8845D01*
X10755Y8697D01*
X10725Y8625D01*
X10725Y11503D01*
X10645Y11697D01*
X10497Y11844D01*
X10304Y11924D01*
X10096Y11925D01*
X9903Y11845D01*
X9755Y11697D01*
X9675Y11504D01*
X9674Y11296D01*
X9754Y11103D01*
X9902Y10955D01*
X10095Y10875D01*
X10303Y10874D01*
X10497Y10954D01*
X10644Y11102D01*
X10724Y11295D01*
X10725Y11503D01*
X10725Y8625D01*
X10699Y8564D01*
X10645Y8697D01*
X10497Y8844D01*
X10304Y8924D01*
X10096Y8925D01*
X9903Y8845D01*
X9755Y8697D01*
X9675Y8504D01*
X9674Y8296D01*
X9754Y8103D01*
X9880Y7977D01*
X9880Y6600D01*
X9904Y6477D01*
X9973Y6373D01*
X10174Y6172D01*
X10174Y6115D01*
X10239Y5959D01*
X10358Y5839D01*
X10515Y5775D01*
X10684Y5774D01*
X10840Y5839D01*
X10960Y5958D01*
X11024Y6115D01*
X11025Y6284D01*
X10960Y6440D01*
X10841Y6560D01*
X10684Y6624D01*
X10627Y6624D01*
X10520Y6732D01*
X10520Y7977D01*
X10644Y8102D01*
X10700Y8235D01*
X10754Y8103D01*
X10902Y7955D01*
X11095Y7875D01*
X11303Y7874D01*
X11497Y7954D01*
X11644Y8102D01*
X11700Y8235D01*
X11754Y8103D01*
X11902Y7955D01*
X12095Y7875D01*
X12303Y7874D01*
X12497Y7954D01*
X12644Y8102D01*
X12724Y8295D01*
X12725Y8503D01*
X12725Y5174D01*
X12637Y5232D01*
X12500Y5260D01*
X8750Y5260D01*
X8750Y19608D01*
X8666Y19811D01*
X8511Y19965D01*
X8309Y20049D01*
X8091Y20050D01*
X7888Y19966D01*
X7750Y19827D01*
X7750Y19849D01*
X7711Y19941D01*
X7641Y20011D01*
X7549Y20050D01*
X7450Y20050D01*
X6850Y20050D01*
X6758Y20011D01*
X6688Y19941D01*
X6650Y19849D01*
X6650Y19750D01*
X6650Y19150D01*
X6688Y19058D01*
X6758Y18988D01*
X6850Y18950D01*
X6949Y18950D01*
X7549Y18950D01*
X7641Y18988D01*
X7711Y19058D01*
X7750Y19150D01*
X7750Y19172D01*
X7888Y19034D01*
X8090Y18950D01*
X8308Y18949D01*
X8511Y19033D01*
X8665Y19188D01*
X8749Y19390D01*
X8750Y19608D01*
X8750Y5260D01*
X8341Y5260D01*
X8341Y5260D01*
X8280Y5285D01*
X8280Y15174D01*
X8146Y15497D01*
X7899Y15745D01*
X7575Y15879D01*
X7225Y15880D01*
X6902Y15746D01*
X6654Y15499D01*
X6520Y15175D01*
X6519Y14825D01*
X6653Y14502D01*
X6900Y14254D01*
X7224Y14120D01*
X7574Y14119D01*
X7897Y14253D01*
X8145Y14500D01*
X8279Y14824D01*
X8280Y15174D01*
X8280Y5285D01*
X8184Y5324D01*
X8015Y5325D01*
X7859Y5260D01*
X7739Y5141D01*
X7675Y4984D01*
X7674Y4815D01*
X7739Y4659D01*
X7858Y4539D01*
X8015Y4475D01*
X8184Y4474D01*
X8340Y4539D01*
X8340Y4540D01*
X9839Y4540D01*
X9818Y4520D01*
X8900Y4520D01*
X8777Y4495D01*
X8673Y4426D01*
X6873Y2626D01*
X6804Y2522D01*
X6783Y2419D01*
X6709Y2449D01*
X6491Y2450D01*
X6288Y2366D01*
X6134Y2211D01*
X6100Y2130D01*
X6066Y2211D01*
X5911Y2365D01*
X5709Y2449D01*
X5550Y2450D01*
X5550Y18950D01*
X5550Y19049D01*
X5550Y19649D01*
X5511Y19741D01*
X5441Y19811D01*
X5349Y19850D01*
X5250Y19850D01*
X4650Y19850D01*
X4558Y19811D01*
X4488Y19741D01*
X4450Y19649D01*
X4450Y19627D01*
X4311Y19765D01*
X4109Y19849D01*
X3891Y19850D01*
X3688Y19766D01*
X3534Y19611D01*
X3450Y19409D01*
X3449Y19191D01*
X3533Y18988D01*
X3688Y18834D01*
X3890Y18750D01*
X4108Y18749D01*
X4311Y18833D01*
X4450Y18972D01*
X4450Y18950D01*
X4488Y18858D01*
X4558Y18788D01*
X4650Y18750D01*
X4749Y18750D01*
X5349Y18750D01*
X5441Y18788D01*
X5511Y18858D01*
X5550Y18950D01*
X5550Y2450D01*
X5491Y2450D01*
X5288Y2366D01*
X5134Y2211D01*
X5050Y2009D01*
X5049Y1791D01*
X5133Y1588D01*
X5288Y1434D01*
X5369Y1400D01*
X5288Y1366D01*
X5134Y1211D01*
X5100Y1130D01*
X5066Y1211D01*
X5015Y1262D01*
X5015Y12807D01*
X5015Y15413D01*
X4941Y15592D01*
X4804Y15729D01*
X4626Y15803D01*
X4432Y15803D01*
X4254Y15729D01*
X4117Y15593D01*
X4042Y15414D01*
X4042Y15221D01*
X4116Y15042D01*
X4253Y14905D01*
X4431Y14831D01*
X4625Y14831D01*
X4804Y14904D01*
X4941Y15041D01*
X5015Y15220D01*
X5015Y15413D01*
X5015Y12807D01*
X4941Y12986D01*
X4804Y13122D01*
X4626Y13197D01*
X4432Y13197D01*
X4254Y13123D01*
X4117Y12986D01*
X4042Y12808D01*
X4042Y12614D01*
X4116Y12435D01*
X4253Y12299D01*
X4431Y12224D01*
X4625Y12224D01*
X4804Y12298D01*
X4941Y12435D01*
X5015Y12613D01*
X5015Y12807D01*
X5015Y1262D01*
X4956Y1321D01*
X4956Y8803D01*
X4891Y8960D01*
X4771Y9080D01*
X4614Y9145D01*
X4444Y9146D01*
X4287Y9081D01*
X4167Y8961D01*
X4102Y8804D01*
X4101Y8634D01*
X4166Y8477D01*
X4286Y8356D01*
X4443Y8291D01*
X4613Y8291D01*
X4770Y8356D01*
X4891Y8476D01*
X4956Y8633D01*
X4956Y8803D01*
X4956Y1321D01*
X4911Y1365D01*
X4709Y1449D01*
X4525Y1450D01*
X4525Y2784D01*
X4460Y2940D01*
X4341Y3060D01*
X4184Y3124D01*
X4184Y3124D01*
X4160Y3149D01*
X4160Y6458D01*
X4160Y6458D01*
X4224Y6615D01*
X4225Y6784D01*
X4160Y6940D01*
X4041Y7060D01*
X3884Y7124D01*
X3715Y7125D01*
X3559Y7060D01*
X3439Y6941D01*
X3375Y6784D01*
X3374Y6615D01*
X3439Y6459D01*
X3440Y6459D01*
X3440Y3000D01*
X3467Y2862D01*
X3545Y2745D01*
X3674Y2615D01*
X3674Y2615D01*
X3739Y2459D01*
X3858Y2339D01*
X4015Y2275D01*
X4184Y2274D01*
X4340Y2339D01*
X4460Y2458D01*
X4524Y2615D01*
X4525Y2784D01*
X4525Y1450D01*
X4491Y1450D01*
X4288Y1366D01*
X4134Y1211D01*
X4050Y1009D01*
X4049Y791D01*
X4133Y588D01*
X4288Y434D01*
X4490Y350D01*
X4708Y349D01*
X4911Y433D01*
X5065Y588D01*
X5099Y669D01*
X5133Y588D01*
X5288Y434D01*
X5490Y350D01*
X5708Y349D01*
X5911Y433D01*
X6065Y588D01*
X6099Y669D01*
X6133Y588D01*
X6288Y434D01*
X6490Y350D01*
X6708Y349D01*
X6911Y433D01*
X7065Y588D01*
X7149Y790D01*
X7150Y997D01*
X7326Y1173D01*
X7326Y1173D01*
X7395Y1277D01*
X7416Y1380D01*
X7490Y1350D01*
X7708Y1349D01*
X7911Y1433D01*
X8065Y1588D01*
X8099Y1669D01*
X8133Y1588D01*
X8288Y1434D01*
X8369Y1400D01*
X8288Y1366D01*
X8134Y1211D01*
X8050Y1009D01*
X8049Y791D01*
X8133Y588D01*
X8288Y434D01*
X8490Y350D01*
X8708Y349D01*
X8911Y433D01*
X9065Y588D01*
X9099Y669D01*
X9133Y588D01*
X9288Y434D01*
X9490Y350D01*
X9708Y349D01*
X9911Y433D01*
X10065Y588D01*
X10149Y790D01*
X10150Y1008D01*
X10066Y1211D01*
X9911Y1365D01*
X9830Y1399D01*
X9911Y1433D01*
X10065Y1588D01*
X10099Y1669D01*
X10133Y1588D01*
X10288Y1434D01*
X10490Y1350D01*
X10708Y1349D01*
X10783Y1380D01*
X10804Y1277D01*
X10873Y1173D01*
X11050Y997D01*
X11049Y791D01*
X11133Y588D01*
X11288Y434D01*
X11490Y350D01*
X11708Y349D01*
X11911Y433D01*
X12065Y588D01*
X12099Y669D01*
X12133Y588D01*
X12288Y434D01*
X12490Y350D01*
X12708Y349D01*
X12911Y433D01*
X13065Y588D01*
X13099Y669D01*
X13133Y588D01*
X13288Y434D01*
X13490Y350D01*
X13708Y349D01*
X13911Y433D01*
X14065Y588D01*
X14149Y790D01*
X14150Y1008D01*
X14066Y1211D01*
X13911Y1365D01*
X13830Y1399D01*
X13911Y1433D01*
X14065Y1588D01*
X14099Y1669D01*
X14133Y1588D01*
X14288Y1434D01*
X14490Y1350D01*
X14708Y1349D01*
X14783Y1380D01*
X14804Y1277D01*
X14873Y1173D01*
X15050Y997D01*
X15049Y791D01*
X15133Y588D01*
X15288Y434D01*
X15490Y350D01*
X15708Y349D01*
X15911Y433D01*
X16065Y588D01*
X16099Y669D01*
X16133Y588D01*
X16288Y434D01*
X16490Y350D01*
X16708Y349D01*
X16911Y433D01*
X17065Y588D01*
X17149Y790D01*
X17150Y1008D01*
X17150Y279D01*
X3279Y279D01*
X3279Y5000D01*
X3258Y5106D01*
X3250Y5119D01*
X3250Y5150D01*
X3229Y5150D01*
X3197Y5197D01*
X3106Y5258D01*
X3000Y5279D01*
X2450Y5279D01*
X2450Y18950D01*
X2450Y19049D01*
X2450Y19649D01*
X2411Y19741D01*
X2341Y19811D01*
X2249Y19850D01*
X2150Y19850D01*
X1550Y19850D01*
X1458Y19811D01*
X1388Y19741D01*
X1350Y19649D01*
X1350Y19627D01*
X1211Y19765D01*
X1009Y19849D01*
X791Y19850D01*
X588Y19766D01*
X434Y19611D01*
X350Y19409D01*
X349Y19191D01*
X433Y18988D01*
X588Y18834D01*
X790Y18750D01*
X1008Y18749D01*
X1211Y18833D01*
X1350Y18972D01*
X1350Y18950D01*
X1388Y18858D01*
X1458Y18788D01*
X1550Y18750D01*
X1649Y18750D01*
X2249Y18750D01*
X2341Y18788D01*
X2411Y18858D01*
X2450Y18950D01*
X2450Y5279D01*
X1265Y5279D01*
X1265Y12807D01*
X1265Y15413D01*
X1191Y15592D01*
X1054Y15729D01*
X876Y15803D01*
X682Y15803D01*
X504Y15729D01*
X367Y15593D01*
X292Y15414D01*
X292Y15221D01*
X366Y15042D01*
X503Y14905D01*
X681Y14831D01*
X875Y14831D01*
X1054Y14904D01*
X1191Y15041D01*
X1265Y15220D01*
X1265Y15413D01*
X1265Y12807D01*
X1191Y12986D01*
X1054Y13122D01*
X876Y13197D01*
X682Y13197D01*
X504Y13123D01*
X367Y12986D01*
X292Y12808D01*
X292Y12614D01*
X366Y12435D01*
X503Y12299D01*
X681Y12224D01*
X875Y12224D01*
X1054Y12298D01*
X1191Y12435D01*
X1265Y12613D01*
X1265Y12807D01*
X1265Y5279D01*
X1206Y5279D01*
X1206Y8803D01*
X1141Y8960D01*
X1021Y9080D01*
X864Y9145D01*
X694Y9146D01*
X537Y9081D01*
X417Y8961D01*
X352Y8804D01*
X351Y8634D01*
X416Y8477D01*
X536Y8356D01*
X693Y8291D01*
X863Y8291D01*
X1020Y8356D01*
X1141Y8476D01*
X1206Y8633D01*
X1206Y8803D01*
X1206Y5279D01*
X279Y5279D01*
X279Y20720D01*
X17220Y20720D01*
X17220Y279D01*
M02*
