G04 (created by PCBNEW (2013-mar-13)-testing) date Thu 20 Jun 2013 06:48:32 PM EDT*
%MOIN*%
G04 Gerber Fmt 3.4, Leading zero omitted, Abs format*
%FSLAX34Y34*%
G01*
G70*
G90*
G04 APERTURE LIST*
%ADD10C,0.006000*%
%ADD11C,0.005906*%
%ADD12R,0.060000X0.060000*%
%ADD13C,0.060000*%
%ADD14R,0.080000X0.060000*%
%ADD15R,0.055000X0.035000*%
%ADD16R,0.030000X0.020000*%
%ADD17R,0.035000X0.055000*%
%ADD18C,0.047244*%
%ADD19C,0.035433*%
%ADD20R,0.012000X0.020000*%
%ADD21O,0.236200X0.098400*%
%ADD22O,0.098400X0.157500*%
%ADD23R,0.047200X0.047200*%
%ADD24R,0.066900X0.015700*%
%ADD25R,0.090600X0.051200*%
%ADD26R,0.086700X0.051200*%
%ADD27R,0.059100X0.051200*%
%ADD28R,0.098400X0.070900*%
%ADD29R,0.039300X0.098400*%
%ADD30R,0.060000X0.080000*%
%ADD31R,0.055000X0.055000*%
%ADD32C,0.055000*%
%ADD33C,0.126000*%
G04 APERTURE END LIST*
G54D10*
G54D11*
X0Y21000D02*
X0Y0D01*
X17500Y21000D02*
X0Y21000D01*
X17500Y0D02*
X17500Y21000D01*
X0Y0D02*
X17500Y0D01*
G54D12*
X16600Y1900D03*
G54D13*
X16600Y900D03*
X15600Y1900D03*
X15600Y900D03*
X14600Y1900D03*
X14600Y900D03*
X13600Y1900D03*
X13600Y900D03*
X12600Y1900D03*
X12600Y900D03*
X11600Y1900D03*
X11600Y900D03*
X10600Y1900D03*
X10600Y900D03*
X9600Y1900D03*
X9600Y900D03*
X8600Y1900D03*
X8600Y900D03*
X7600Y1900D03*
X7600Y900D03*
X6600Y1900D03*
X6600Y900D03*
X5600Y1900D03*
X5600Y900D03*
X4600Y1900D03*
X4600Y900D03*
G54D14*
X7000Y8850D03*
X7000Y7550D03*
X3100Y8850D03*
X3100Y7550D03*
G54D15*
X4600Y6175D03*
X4600Y5425D03*
G54D12*
X14800Y6216D03*
G54D13*
X14800Y7200D03*
X14800Y8184D03*
G54D16*
X7200Y3825D03*
X7200Y4575D03*
X6200Y3825D03*
X7200Y4200D03*
X6200Y4575D03*
X2700Y3925D03*
X2700Y4675D03*
X1700Y3925D03*
X2700Y4300D03*
X1700Y4675D03*
G54D15*
X700Y6175D03*
X700Y5425D03*
G54D17*
X7825Y3000D03*
X8575Y3000D03*
X10375Y3000D03*
X9625Y3000D03*
G54D18*
X629Y14017D03*
X629Y11411D03*
G54D19*
X629Y7418D03*
X629Y8418D03*
G54D18*
X4629Y14017D03*
X4629Y11411D03*
G54D19*
X4629Y7418D03*
X4629Y8418D03*
G54D20*
X11350Y5000D03*
X10850Y5000D03*
X11350Y4200D03*
X11100Y5000D03*
X10850Y4200D03*
G54D12*
X1900Y19300D03*
G54D13*
X900Y19300D03*
G54D21*
X13022Y20150D03*
G54D22*
X14203Y18300D03*
X11841Y18300D03*
G54D23*
X700Y3887D03*
X700Y4713D03*
X4600Y3887D03*
X4600Y4713D03*
G54D24*
X15358Y13900D03*
X15358Y13644D03*
X15358Y14412D03*
G54D25*
X16500Y12286D03*
G54D26*
X15319Y12955D03*
G54D25*
X16500Y15514D03*
G54D27*
X15319Y14845D03*
G54D24*
X15358Y14156D03*
G54D28*
X16579Y13349D03*
X16579Y14451D03*
G54D24*
X15358Y13388D03*
G54D15*
X10400Y14675D03*
X10400Y13925D03*
X9500Y14675D03*
X9500Y13925D03*
G54D17*
X15925Y10800D03*
X16675Y10800D03*
G54D29*
X12800Y15179D03*
X12800Y12820D03*
G54D23*
X16600Y9187D03*
X16600Y10013D03*
G54D30*
X16450Y3700D03*
X15150Y3700D03*
G54D12*
X7200Y19500D03*
G54D13*
X8200Y19500D03*
G54D17*
X11325Y7200D03*
X12075Y7200D03*
X11325Y6300D03*
X12075Y6300D03*
G54D31*
X12200Y11400D03*
G54D32*
X11200Y11400D03*
X10200Y11400D03*
X9200Y11400D03*
X9200Y8400D03*
X10200Y8400D03*
X11200Y8400D03*
X12200Y8400D03*
G54D20*
X9650Y6300D03*
X9150Y6300D03*
X9650Y5500D03*
X9400Y6300D03*
X9150Y5500D03*
G54D12*
X5000Y19300D03*
G54D13*
X4000Y19300D03*
G54D33*
X7400Y15000D03*
M02*
