G04 (created by PCBNEW (2013-mar-13)-testing) date Mon 24 Jun 2013 03:26:25 PM EDT*
%MOIN*%
G04 Gerber Fmt 3.4, Leading zero omitted, Abs format*
%FSLAX34Y34*%
G01*
G70*
G90*
G04 APERTURE LIST*
%ADD10C,0.000787*%
%ADD11C,0.008000*%
%ADD12C,0.007500*%
%ADD13C,0.011000*%
%ADD14C,0.010900*%
%ADD15C,0.015000*%
%ADD16C,0.010000*%
%ADD17C,0.006000*%
%ADD18C,0.003900*%
%ADD19C,0.007900*%
%ADD20C,0.005000*%
%ADD21C,0.012000*%
G04 APERTURE END LIST*
G54D10*
G54D11*
X16708Y11833D02*
X16358Y11833D01*
X16358Y11966D01*
X16375Y12000D01*
X16391Y12016D01*
X16425Y12033D01*
X16475Y12033D01*
X16508Y12016D01*
X16525Y12000D01*
X16541Y11966D01*
X16541Y11833D01*
X16358Y12150D02*
X16708Y12233D01*
X16458Y12300D01*
X16708Y12366D01*
X16358Y12450D01*
X16708Y12783D02*
X16541Y12666D01*
X16708Y12583D02*
X16358Y12583D01*
X16358Y12716D01*
X16375Y12750D01*
X16391Y12766D01*
X16425Y12783D01*
X16475Y12783D01*
X16508Y12766D01*
X16525Y12750D01*
X16541Y12716D01*
X16541Y12583D01*
G54D12*
X10328Y17628D02*
X10195Y17628D01*
X10195Y17419D02*
X10195Y17819D01*
X10385Y17819D01*
X10595Y17419D02*
X10557Y17438D01*
X10538Y17476D01*
X10538Y17819D01*
X10919Y17419D02*
X10919Y17628D01*
X10899Y17666D01*
X10861Y17685D01*
X10785Y17685D01*
X10747Y17666D01*
X10919Y17438D02*
X10880Y17419D01*
X10785Y17419D01*
X10747Y17438D01*
X10728Y17476D01*
X10728Y17514D01*
X10747Y17552D01*
X10785Y17571D01*
X10880Y17571D01*
X10919Y17590D01*
X11090Y17438D02*
X11128Y17419D01*
X11204Y17419D01*
X11242Y17438D01*
X11261Y17476D01*
X11261Y17495D01*
X11242Y17533D01*
X11204Y17552D01*
X11147Y17552D01*
X11109Y17571D01*
X11090Y17609D01*
X11090Y17628D01*
X11109Y17666D01*
X11147Y17685D01*
X11204Y17685D01*
X11242Y17666D01*
X11433Y17419D02*
X11433Y17819D01*
X11604Y17419D02*
X11604Y17628D01*
X11585Y17666D01*
X11547Y17685D01*
X11490Y17685D01*
X11452Y17666D01*
X11433Y17647D01*
X12119Y17419D02*
X12099Y17419D01*
X12061Y17438D01*
X12004Y17495D01*
X11909Y17609D01*
X11871Y17666D01*
X11852Y17723D01*
X11852Y17761D01*
X11871Y17800D01*
X11909Y17819D01*
X11928Y17819D01*
X11966Y17800D01*
X11985Y17761D01*
X11985Y17742D01*
X11966Y17704D01*
X11947Y17685D01*
X11833Y17609D01*
X11814Y17590D01*
X11795Y17552D01*
X11795Y17495D01*
X11814Y17457D01*
X11833Y17438D01*
X11871Y17419D01*
X11928Y17419D01*
X11966Y17438D01*
X11985Y17457D01*
X12042Y17533D01*
X12061Y17590D01*
X12061Y17628D01*
X12271Y17438D02*
X12328Y17419D01*
X12423Y17419D01*
X12461Y17438D01*
X12480Y17457D01*
X12499Y17495D01*
X12499Y17533D01*
X12480Y17571D01*
X12461Y17590D01*
X12423Y17609D01*
X12347Y17628D01*
X12309Y17647D01*
X12290Y17666D01*
X12271Y17704D01*
X12271Y17742D01*
X12290Y17780D01*
X12309Y17800D01*
X12347Y17819D01*
X12442Y17819D01*
X12499Y17800D01*
X12614Y17685D02*
X12766Y17685D01*
X12671Y17819D02*
X12671Y17476D01*
X12690Y17438D01*
X12728Y17419D01*
X12766Y17419D01*
X12899Y17419D02*
X12899Y17685D01*
X12899Y17609D02*
X12919Y17647D01*
X12938Y17666D01*
X12976Y17685D01*
X13014Y17685D01*
X13147Y17419D02*
X13147Y17685D01*
X13147Y17819D02*
X13128Y17800D01*
X13147Y17780D01*
X13166Y17800D01*
X13147Y17819D01*
X13147Y17780D01*
X13338Y17685D02*
X13338Y17285D01*
X13338Y17666D02*
X13376Y17685D01*
X13452Y17685D01*
X13490Y17666D01*
X13509Y17647D01*
X13528Y17609D01*
X13528Y17495D01*
X13509Y17457D01*
X13490Y17438D01*
X13452Y17419D01*
X13376Y17419D01*
X13338Y17438D01*
X10195Y16784D02*
X10195Y17184D01*
X10385Y16784D02*
X10385Y17184D01*
X10385Y16993D02*
X10614Y16993D01*
X10614Y16784D02*
X10614Y17184D01*
X10804Y16993D02*
X10938Y16993D01*
X10995Y16784D02*
X10804Y16784D01*
X10804Y17184D01*
X10995Y17184D01*
X11776Y16784D02*
X11776Y17050D01*
X11776Y17184D02*
X11757Y17165D01*
X11776Y17145D01*
X11795Y17165D01*
X11776Y17184D01*
X11776Y17145D01*
X12023Y16784D02*
X11985Y16803D01*
X11966Y16841D01*
X11966Y17184D01*
X12119Y17050D02*
X12271Y17050D01*
X12176Y17184D02*
X12176Y16841D01*
X12195Y16803D01*
X12233Y16784D01*
X12271Y16784D01*
X12366Y17184D02*
X12614Y17184D01*
X12480Y17031D01*
X12538Y17031D01*
X12576Y17012D01*
X12595Y16993D01*
X12614Y16955D01*
X12614Y16860D01*
X12595Y16822D01*
X12576Y16803D01*
X12538Y16784D01*
X12423Y16784D01*
X12385Y16803D01*
X12366Y16822D01*
X12785Y16822D02*
X12804Y16803D01*
X12785Y16784D01*
X12766Y16803D01*
X12785Y16822D01*
X12785Y16784D01*
X13147Y16803D02*
X13109Y16784D01*
X13033Y16784D01*
X12995Y16803D01*
X12976Y16822D01*
X12957Y16860D01*
X12957Y16974D01*
X12976Y17012D01*
X12995Y17031D01*
X13033Y17050D01*
X13109Y17050D01*
X13147Y17031D01*
X13376Y16784D02*
X13338Y16803D01*
X13319Y16822D01*
X13300Y16860D01*
X13300Y16974D01*
X13319Y17012D01*
X13338Y17031D01*
X13376Y17050D01*
X13433Y17050D01*
X13471Y17031D01*
X13490Y17012D01*
X13509Y16974D01*
X13509Y16860D01*
X13490Y16822D01*
X13471Y16803D01*
X13433Y16784D01*
X13376Y16784D01*
X13680Y16784D02*
X13680Y17050D01*
X13680Y17012D02*
X13700Y17031D01*
X13738Y17050D01*
X13795Y17050D01*
X13833Y17031D01*
X13852Y16993D01*
X13852Y16784D01*
X13852Y16993D02*
X13871Y17031D01*
X13909Y17050D01*
X13966Y17050D01*
X14004Y17031D01*
X14023Y16993D01*
X14023Y16784D01*
X10271Y16549D02*
X10309Y16549D01*
X10347Y16530D01*
X10366Y16510D01*
X10385Y16472D01*
X10404Y16396D01*
X10404Y16301D01*
X10385Y16225D01*
X10366Y16187D01*
X10347Y16168D01*
X10309Y16149D01*
X10271Y16149D01*
X10233Y16168D01*
X10214Y16187D01*
X10195Y16225D01*
X10176Y16301D01*
X10176Y16396D01*
X10195Y16472D01*
X10214Y16510D01*
X10233Y16530D01*
X10271Y16549D01*
X10557Y16510D02*
X10576Y16530D01*
X10614Y16549D01*
X10709Y16549D01*
X10747Y16530D01*
X10766Y16510D01*
X10785Y16472D01*
X10785Y16434D01*
X10766Y16377D01*
X10538Y16149D01*
X10785Y16149D01*
X11033Y16549D02*
X11071Y16549D01*
X11109Y16530D01*
X11128Y16510D01*
X11147Y16472D01*
X11166Y16396D01*
X11166Y16301D01*
X11147Y16225D01*
X11128Y16187D01*
X11109Y16168D01*
X11071Y16149D01*
X11033Y16149D01*
X10995Y16168D01*
X10976Y16187D01*
X10957Y16225D01*
X10938Y16301D01*
X10938Y16396D01*
X10957Y16472D01*
X10976Y16510D01*
X10995Y16530D01*
X11033Y16549D01*
X11414Y16549D02*
X11452Y16549D01*
X11490Y16530D01*
X11509Y16510D01*
X11528Y16472D01*
X11547Y16396D01*
X11547Y16301D01*
X11528Y16225D01*
X11509Y16187D01*
X11490Y16168D01*
X11452Y16149D01*
X11414Y16149D01*
X11376Y16168D01*
X11357Y16187D01*
X11338Y16225D01*
X11319Y16301D01*
X11319Y16396D01*
X11338Y16472D01*
X11357Y16510D01*
X11376Y16530D01*
X11414Y16549D01*
X11719Y16301D02*
X12023Y16301D01*
X12290Y16549D02*
X12328Y16549D01*
X12366Y16530D01*
X12385Y16510D01*
X12404Y16472D01*
X12423Y16396D01*
X12423Y16301D01*
X12404Y16225D01*
X12385Y16187D01*
X12366Y16168D01*
X12328Y16149D01*
X12290Y16149D01*
X12252Y16168D01*
X12233Y16187D01*
X12214Y16225D01*
X12195Y16301D01*
X12195Y16396D01*
X12214Y16472D01*
X12233Y16510D01*
X12252Y16530D01*
X12290Y16549D01*
X12671Y16549D02*
X12709Y16549D01*
X12747Y16530D01*
X12766Y16510D01*
X12785Y16472D01*
X12804Y16396D01*
X12804Y16301D01*
X12785Y16225D01*
X12766Y16187D01*
X12747Y16168D01*
X12709Y16149D01*
X12671Y16149D01*
X12633Y16168D01*
X12614Y16187D01*
X12595Y16225D01*
X12576Y16301D01*
X12576Y16396D01*
X12595Y16472D01*
X12614Y16510D01*
X12633Y16530D01*
X12671Y16549D01*
X13052Y16549D02*
X13090Y16549D01*
X13128Y16530D01*
X13147Y16510D01*
X13166Y16472D01*
X13185Y16396D01*
X13185Y16301D01*
X13166Y16225D01*
X13147Y16187D01*
X13128Y16168D01*
X13090Y16149D01*
X13052Y16149D01*
X13014Y16168D01*
X12995Y16187D01*
X12976Y16225D01*
X12957Y16301D01*
X12957Y16396D01*
X12976Y16472D01*
X12995Y16510D01*
X13014Y16530D01*
X13052Y16549D01*
X13319Y16549D02*
X13585Y16549D01*
X13414Y16149D01*
X13738Y16301D02*
X14042Y16301D01*
X14309Y16549D02*
X14347Y16549D01*
X14385Y16530D01*
X14404Y16510D01*
X14423Y16472D01*
X14442Y16396D01*
X14442Y16301D01*
X14423Y16225D01*
X14404Y16187D01*
X14385Y16168D01*
X14347Y16149D01*
X14309Y16149D01*
X14271Y16168D01*
X14252Y16187D01*
X14233Y16225D01*
X14214Y16301D01*
X14214Y16396D01*
X14233Y16472D01*
X14252Y16510D01*
X14271Y16530D01*
X14309Y16549D01*
X14690Y16549D02*
X14728Y16549D01*
X14766Y16530D01*
X14785Y16510D01*
X14804Y16472D01*
X14823Y16396D01*
X14823Y16301D01*
X14804Y16225D01*
X14785Y16187D01*
X14766Y16168D01*
X14728Y16149D01*
X14690Y16149D01*
X14652Y16168D01*
X14633Y16187D01*
X14614Y16225D01*
X14595Y16301D01*
X14595Y16396D01*
X14614Y16472D01*
X14633Y16510D01*
X14652Y16530D01*
X14690Y16549D01*
X15071Y16549D02*
X15109Y16549D01*
X15147Y16530D01*
X15166Y16510D01*
X15185Y16472D01*
X15204Y16396D01*
X15204Y16301D01*
X15185Y16225D01*
X15166Y16187D01*
X15147Y16168D01*
X15109Y16149D01*
X15071Y16149D01*
X15033Y16168D01*
X15014Y16187D01*
X14995Y16225D01*
X14976Y16301D01*
X14976Y16396D01*
X14995Y16472D01*
X15014Y16510D01*
X15033Y16530D01*
X15071Y16549D01*
X15585Y16149D02*
X15357Y16149D01*
X15471Y16149D02*
X15471Y16549D01*
X15433Y16491D01*
X15395Y16453D01*
X15357Y16434D01*
X10695Y18590D02*
X10838Y18590D01*
X10667Y18504D02*
X10767Y18804D01*
X10867Y18504D01*
X11110Y18804D02*
X10967Y18804D01*
X10952Y18661D01*
X10967Y18675D01*
X10995Y18690D01*
X11067Y18690D01*
X11095Y18675D01*
X11110Y18661D01*
X11124Y18632D01*
X11124Y18561D01*
X11110Y18532D01*
X11095Y18518D01*
X11067Y18504D01*
X10995Y18504D01*
X10967Y18518D01*
X10952Y18532D01*
X11695Y18590D02*
X11838Y18590D01*
X11667Y18504D02*
X11767Y18804D01*
X11867Y18504D01*
X12095Y18704D02*
X12095Y18504D01*
X12024Y18818D02*
X11952Y18604D01*
X12138Y18604D01*
X12695Y18590D02*
X12838Y18590D01*
X12667Y18504D02*
X12767Y18804D01*
X12867Y18504D01*
X12938Y18804D02*
X13124Y18804D01*
X13024Y18690D01*
X13067Y18690D01*
X13095Y18675D01*
X13110Y18661D01*
X13124Y18632D01*
X13124Y18561D01*
X13110Y18532D01*
X13095Y18518D01*
X13067Y18504D01*
X12981Y18504D01*
X12952Y18518D01*
X12938Y18532D01*
X13695Y18590D02*
X13838Y18590D01*
X13667Y18504D02*
X13767Y18804D01*
X13867Y18504D01*
X13952Y18775D02*
X13967Y18790D01*
X13995Y18804D01*
X14067Y18804D01*
X14095Y18790D01*
X14109Y18775D01*
X14124Y18747D01*
X14124Y18718D01*
X14109Y18675D01*
X13938Y18504D01*
X14124Y18504D01*
X11680Y257D02*
X11980Y457D01*
X11680Y457D02*
X11980Y257D01*
X11980Y615D02*
X11966Y586D01*
X11937Y572D01*
X11680Y572D01*
X11980Y857D02*
X11823Y857D01*
X11795Y843D01*
X11780Y815D01*
X11780Y757D01*
X11795Y729D01*
X11966Y857D02*
X11980Y829D01*
X11980Y757D01*
X11966Y729D01*
X11937Y715D01*
X11909Y715D01*
X11880Y729D01*
X11866Y757D01*
X11866Y829D01*
X11852Y857D01*
X11780Y957D02*
X11780Y1072D01*
X11680Y1000D02*
X11937Y1000D01*
X11966Y1015D01*
X11980Y1043D01*
X11980Y1072D01*
X11966Y1386D02*
X11980Y1429D01*
X11980Y1500D01*
X11966Y1529D01*
X11952Y1543D01*
X11923Y1557D01*
X11895Y1557D01*
X11866Y1543D01*
X11852Y1529D01*
X11837Y1500D01*
X11823Y1443D01*
X11809Y1415D01*
X11795Y1400D01*
X11766Y1386D01*
X11737Y1386D01*
X11709Y1400D01*
X11695Y1415D01*
X11680Y1443D01*
X11680Y1515D01*
X11695Y1557D01*
X11980Y1729D02*
X11966Y1700D01*
X11952Y1686D01*
X11923Y1672D01*
X11837Y1672D01*
X11809Y1686D01*
X11795Y1700D01*
X11780Y1729D01*
X11780Y1772D01*
X11795Y1800D01*
X11809Y1815D01*
X11837Y1829D01*
X11923Y1829D01*
X11952Y1815D01*
X11966Y1800D01*
X11980Y1772D01*
X11980Y1729D01*
X11780Y2086D02*
X11980Y2086D01*
X11780Y1957D02*
X11937Y1957D01*
X11966Y1972D01*
X11980Y2000D01*
X11980Y2043D01*
X11966Y2072D01*
X11952Y2086D01*
X11780Y2186D02*
X11780Y2300D01*
X11680Y2229D02*
X11937Y2229D01*
X11966Y2243D01*
X11980Y2272D01*
X11980Y2300D01*
X12318Y386D02*
X12332Y429D01*
X12347Y443D01*
X12375Y457D01*
X12418Y457D01*
X12447Y443D01*
X12461Y429D01*
X12475Y400D01*
X12475Y286D01*
X12175Y286D01*
X12175Y386D01*
X12190Y415D01*
X12204Y429D01*
X12232Y443D01*
X12261Y443D01*
X12290Y429D01*
X12304Y415D01*
X12318Y386D01*
X12318Y286D01*
X12475Y729D02*
X12475Y586D01*
X12175Y586D01*
X12475Y829D02*
X12175Y829D01*
X12475Y1000D01*
X12175Y1000D01*
X12475Y1143D02*
X12175Y1143D01*
X12475Y1315D02*
X12304Y1186D01*
X12175Y1315D02*
X12347Y1143D01*
X12175Y1629D02*
X12475Y1729D01*
X12175Y1829D01*
X12475Y1972D02*
X12461Y1943D01*
X12432Y1929D01*
X12175Y1929D01*
X12461Y2200D02*
X12475Y2172D01*
X12475Y2115D01*
X12461Y2086D01*
X12432Y2072D01*
X12318Y2072D01*
X12290Y2086D01*
X12275Y2115D01*
X12275Y2172D01*
X12290Y2200D01*
X12318Y2215D01*
X12347Y2215D01*
X12375Y2072D01*
X12475Y2472D02*
X12175Y2472D01*
X12461Y2472D02*
X12475Y2443D01*
X12475Y2386D01*
X12461Y2357D01*
X12447Y2343D01*
X12418Y2329D01*
X12332Y2329D01*
X12304Y2343D01*
X12290Y2357D01*
X12275Y2386D01*
X12275Y2443D01*
X12290Y2472D01*
X16900Y278D02*
X16885Y250D01*
X16885Y207D01*
X16900Y164D01*
X16928Y135D01*
X16957Y121D01*
X17014Y107D01*
X17057Y107D01*
X17114Y121D01*
X17142Y135D01*
X17171Y164D01*
X17185Y207D01*
X17185Y235D01*
X17171Y278D01*
X17157Y292D01*
X17057Y292D01*
X17057Y235D01*
X17171Y407D02*
X17185Y450D01*
X17185Y521D01*
X17171Y550D01*
X17157Y564D01*
X17128Y578D01*
X17100Y578D01*
X17071Y564D01*
X17057Y550D01*
X17042Y521D01*
X17028Y464D01*
X17014Y435D01*
X17000Y421D01*
X16971Y407D01*
X16942Y407D01*
X16914Y421D01*
X16900Y435D01*
X16885Y464D01*
X16885Y535D01*
X16900Y578D01*
X17157Y878D02*
X17171Y864D01*
X17185Y821D01*
X17185Y792D01*
X17171Y750D01*
X17142Y721D01*
X17114Y707D01*
X17057Y692D01*
X17014Y692D01*
X16957Y707D01*
X16928Y721D01*
X16900Y750D01*
X16885Y792D01*
X16885Y821D01*
X16900Y864D01*
X16914Y878D01*
X17185Y1150D02*
X17185Y1007D01*
X16885Y1007D01*
X17185Y1250D02*
X16885Y1250D01*
X17185Y1421D02*
X17014Y1292D01*
X16885Y1421D02*
X17057Y1250D01*
X16885Y1735D02*
X17185Y1835D01*
X16885Y1935D01*
X17157Y2207D02*
X17171Y2192D01*
X17185Y2149D01*
X17185Y2121D01*
X17171Y2078D01*
X17142Y2049D01*
X17114Y2035D01*
X17057Y2021D01*
X17014Y2021D01*
X16957Y2035D01*
X16928Y2049D01*
X16900Y2078D01*
X16885Y2121D01*
X16885Y2149D01*
X16900Y2192D01*
X16914Y2207D01*
X17157Y2507D02*
X17171Y2492D01*
X17185Y2449D01*
X17185Y2421D01*
X17171Y2378D01*
X17142Y2349D01*
X17114Y2335D01*
X17057Y2321D01*
X17014Y2321D01*
X16957Y2335D01*
X16928Y2349D01*
X16900Y2378D01*
X16885Y2421D01*
X16885Y2449D01*
X16900Y2492D01*
X16914Y2507D01*
X17666Y107D02*
X17680Y150D01*
X17680Y221D01*
X17666Y250D01*
X17652Y264D01*
X17623Y278D01*
X17595Y278D01*
X17566Y264D01*
X17552Y250D01*
X17537Y221D01*
X17523Y164D01*
X17509Y135D01*
X17495Y121D01*
X17466Y107D01*
X17437Y107D01*
X17409Y121D01*
X17395Y135D01*
X17380Y164D01*
X17380Y235D01*
X17395Y278D01*
X17652Y578D02*
X17666Y564D01*
X17680Y521D01*
X17680Y492D01*
X17666Y450D01*
X17637Y421D01*
X17609Y407D01*
X17552Y392D01*
X17509Y392D01*
X17452Y407D01*
X17423Y421D01*
X17395Y450D01*
X17380Y492D01*
X17380Y521D01*
X17395Y564D01*
X17409Y578D01*
X17680Y850D02*
X17680Y707D01*
X17380Y707D01*
X17680Y950D02*
X17380Y950D01*
X17680Y1121D02*
X17509Y992D01*
X17380Y1121D02*
X17552Y950D01*
X17395Y1635D02*
X17380Y1607D01*
X17380Y1564D01*
X17395Y1521D01*
X17423Y1492D01*
X17452Y1478D01*
X17509Y1464D01*
X17552Y1464D01*
X17609Y1478D01*
X17637Y1492D01*
X17666Y1521D01*
X17680Y1564D01*
X17680Y1592D01*
X17666Y1635D01*
X17652Y1649D01*
X17552Y1649D01*
X17552Y1592D01*
X17680Y1778D02*
X17380Y1778D01*
X17680Y1949D01*
X17380Y1949D01*
X17680Y2092D02*
X17380Y2092D01*
X17380Y2164D01*
X17395Y2207D01*
X17423Y2235D01*
X17452Y2249D01*
X17509Y2264D01*
X17552Y2264D01*
X17609Y2249D01*
X17637Y2235D01*
X17666Y2207D01*
X17680Y2164D01*
X17680Y2092D01*
G54D13*
X12803Y12928D02*
X12803Y13912D01*
G54D14*
X12803Y13912D02*
X5718Y13912D01*
G54D13*
X5717Y13912D02*
X5717Y12928D01*
G54D14*
X5718Y12928D02*
X12803Y12928D01*
G54D15*
X18895Y3235D02*
X18895Y2235D01*
X18895Y2235D02*
X17895Y2235D01*
X17795Y3435D02*
G75*
G03X17795Y3435I-100J0D01*
G74*
G01*
G54D11*
X17895Y235D02*
X17895Y3235D01*
X19895Y3235D02*
X19895Y235D01*
X19895Y235D02*
X17895Y235D01*
X17895Y3235D02*
X19895Y3235D01*
G54D16*
X11500Y250D02*
X7500Y250D01*
X11500Y1250D02*
X7500Y1250D01*
X7500Y1250D02*
X7500Y250D01*
X11500Y250D02*
X11500Y1250D01*
G54D17*
X6100Y200D02*
X5100Y200D01*
X5100Y200D02*
X5100Y3200D01*
X5100Y3200D02*
X6100Y3200D01*
X6100Y3200D02*
X6100Y200D01*
X5100Y1200D02*
X6100Y1200D01*
X14680Y4210D02*
X14230Y4210D01*
X14680Y6390D02*
X14240Y6390D01*
X14680Y4210D02*
X14680Y6390D01*
X13800Y3740D02*
X13800Y3310D01*
X11590Y3730D02*
X11590Y3310D01*
X11580Y3310D02*
X13800Y3300D01*
X11600Y7280D02*
X13770Y7290D01*
X11170Y6590D02*
X11170Y3760D01*
X13780Y7280D02*
X13780Y6870D01*
X11420Y6830D02*
X14200Y6830D01*
X14220Y3750D02*
X14220Y6790D01*
X11170Y3750D02*
X14170Y3750D01*
X10720Y6420D02*
X10720Y4200D01*
X10720Y4200D02*
X11170Y4200D01*
X11174Y6600D02*
X11404Y6830D01*
X10722Y6420D02*
X11174Y6420D01*
X11600Y6830D02*
X11600Y7282D01*
X11170Y7026D02*
G75*
G03X11170Y7026I-188J0D01*
G74*
G01*
X100Y200D02*
X100Y1200D01*
X100Y1200D02*
X3100Y1200D01*
X3100Y1200D02*
X3100Y200D01*
X3100Y200D02*
X100Y200D01*
X1100Y1200D02*
X1100Y200D01*
X100Y1500D02*
X100Y2500D01*
X100Y2500D02*
X3100Y2500D01*
X3100Y2500D02*
X3100Y1500D01*
X3100Y1500D02*
X100Y1500D01*
X1100Y2500D02*
X1100Y1500D01*
G54D18*
X9820Y5031D02*
X9820Y5109D01*
X9230Y5031D02*
X9230Y5109D01*
X9230Y3849D02*
X9230Y3771D01*
X9820Y3849D02*
X9820Y3771D01*
X9230Y5109D02*
X9820Y5109D01*
X9820Y3771D02*
X9230Y3771D01*
G54D19*
X19669Y7531D02*
X19669Y11429D01*
X19669Y11429D02*
X18331Y11429D01*
X18331Y11429D02*
X18331Y10957D01*
X18331Y10957D02*
X17346Y10957D01*
X17346Y10957D02*
X17346Y8043D01*
X17346Y8043D02*
X18291Y8043D01*
X18291Y8043D02*
X18291Y7531D01*
X18291Y7531D02*
X19669Y7531D01*
G54D15*
X15800Y14650D02*
X15800Y13500D01*
X15800Y13500D02*
X16400Y13500D01*
X16400Y13500D02*
X16400Y13700D01*
X16400Y13700D02*
X17150Y13700D01*
X16400Y16500D02*
X17150Y16500D01*
X16400Y16500D02*
X16400Y16700D01*
X16400Y16700D02*
X15800Y16700D01*
X15800Y16700D02*
X15800Y15700D01*
X18350Y16550D02*
X19650Y16550D01*
X19650Y16550D02*
X19650Y13700D01*
X19650Y13700D02*
X18350Y13700D01*
G54D20*
X9740Y7370D02*
X9340Y7370D01*
X9340Y7370D02*
X9340Y7970D01*
X9340Y7970D02*
X9740Y7970D01*
X10140Y7970D02*
X10540Y7970D01*
X10540Y7970D02*
X10540Y7370D01*
X10540Y7370D02*
X10140Y7370D01*
X9500Y16650D02*
X9500Y16250D01*
X9500Y16250D02*
X8900Y16250D01*
X8900Y16250D02*
X8900Y16650D01*
X8900Y17050D02*
X8900Y17450D01*
X8900Y17450D02*
X9500Y17450D01*
X9500Y17450D02*
X9500Y17050D01*
X15790Y4200D02*
X15390Y4200D01*
X15390Y4200D02*
X15390Y4800D01*
X15390Y4800D02*
X15790Y4800D01*
X16190Y4800D02*
X16590Y4800D01*
X16590Y4800D02*
X16590Y4200D01*
X16590Y4200D02*
X16190Y4200D01*
X8400Y16700D02*
X8400Y16300D01*
X8400Y16300D02*
X7800Y16300D01*
X7800Y16300D02*
X7800Y16700D01*
X7800Y17100D02*
X7800Y17500D01*
X7800Y17500D02*
X8400Y17500D01*
X8400Y17500D02*
X8400Y17100D01*
X18100Y4600D02*
X18500Y4600D01*
X18500Y4600D02*
X18500Y4000D01*
X18500Y4000D02*
X18100Y4000D01*
X17700Y4000D02*
X17300Y4000D01*
X17300Y4000D02*
X17300Y4600D01*
X17300Y4600D02*
X17700Y4600D01*
X10900Y9100D02*
X10900Y9500D01*
X10900Y9500D02*
X11500Y9500D01*
X11500Y9500D02*
X11500Y9100D01*
X11500Y8700D02*
X11500Y8300D01*
X11500Y8300D02*
X10900Y8300D01*
X10900Y8300D02*
X10900Y8700D01*
X15790Y5000D02*
X15390Y5000D01*
X15390Y5000D02*
X15390Y5600D01*
X15390Y5600D02*
X15790Y5600D01*
X16190Y5600D02*
X16590Y5600D01*
X16590Y5600D02*
X16590Y5000D01*
X16590Y5000D02*
X16190Y5000D01*
X9825Y5840D02*
X9825Y5440D01*
X9825Y5440D02*
X9225Y5440D01*
X9225Y5440D02*
X9225Y5840D01*
X9225Y6240D02*
X9225Y6640D01*
X9225Y6640D02*
X9825Y6640D01*
X9825Y6640D02*
X9825Y6240D01*
X17000Y10150D02*
X17000Y9750D01*
X17000Y9750D02*
X16400Y9750D01*
X16400Y9750D02*
X16400Y10150D01*
X16400Y10550D02*
X16400Y10950D01*
X16400Y10950D02*
X17000Y10950D01*
X17000Y10950D02*
X17000Y10550D01*
X8725Y5840D02*
X8725Y5440D01*
X8725Y5440D02*
X8125Y5440D01*
X8125Y5440D02*
X8125Y5840D01*
X8125Y6240D02*
X8125Y6640D01*
X8125Y6640D02*
X8725Y6640D01*
X8725Y6640D02*
X8725Y6240D01*
X10620Y8700D02*
X10620Y8300D01*
X10620Y8300D02*
X10020Y8300D01*
X10020Y8300D02*
X10020Y8700D01*
X10020Y9100D02*
X10020Y9500D01*
X10020Y9500D02*
X10620Y9500D01*
X10620Y9500D02*
X10620Y9100D01*
X17700Y12450D02*
X18100Y12450D01*
X18100Y12450D02*
X18100Y11850D01*
X18100Y11850D02*
X17700Y11850D01*
X17300Y11850D02*
X16900Y11850D01*
X16900Y11850D02*
X16900Y12450D01*
X16900Y12450D02*
X17300Y12450D01*
G54D14*
X18850Y12850D02*
X19250Y12650D01*
X19250Y12650D02*
X18850Y12450D01*
X18850Y12450D02*
X18850Y12850D01*
G54D17*
X100Y2700D02*
X100Y3700D01*
X100Y3700D02*
X3100Y3700D01*
X3100Y3700D02*
X3100Y2700D01*
X3100Y2700D02*
X100Y2700D01*
X1100Y3700D02*
X1100Y2700D01*
G54D16*
X10500Y20000D02*
X14500Y20000D01*
X10500Y19000D02*
X14500Y19000D01*
X14500Y19000D02*
X14500Y20000D01*
X10500Y20000D02*
X10500Y19000D01*
G54D17*
X19822Y19787D02*
X19822Y18213D01*
X19822Y18213D02*
X15178Y18213D01*
X15178Y18213D02*
X15178Y19787D01*
X15178Y19787D02*
X19822Y19787D01*
G54D20*
X13691Y11700D02*
G75*
G03X13691Y11700I-141J0D01*
G74*
G01*
X14650Y11900D02*
X14650Y11600D01*
X14650Y11600D02*
X14150Y11600D01*
X14150Y11600D02*
X14150Y11900D01*
X13350Y7850D02*
X13350Y11900D01*
X15450Y11900D02*
X15450Y7850D01*
X15450Y11900D02*
X13350Y11900D01*
X15450Y7850D02*
X13350Y7850D01*
G54D16*
X100Y3900D02*
X100Y7900D01*
X1100Y3900D02*
X1100Y7900D01*
X1100Y7900D02*
X100Y7900D01*
X100Y3900D02*
X1100Y3900D01*
G54D14*
X18700Y4000D02*
X18900Y4400D01*
X18900Y4400D02*
X19100Y4000D01*
X19100Y4000D02*
X18700Y4000D01*
G54D17*
X20000Y5300D02*
X19000Y5300D01*
X19000Y5300D02*
X19000Y7300D01*
X19000Y7300D02*
X20000Y7300D01*
X20000Y7300D02*
X20000Y5300D01*
G54D19*
X14364Y12960D02*
G75*
G03X14364Y12960I-984J0D01*
G74*
G01*
G54D20*
X8115Y4640D02*
X8115Y5040D01*
X8115Y5040D02*
X8715Y5040D01*
X8715Y5040D02*
X8715Y4640D01*
X8715Y4240D02*
X8715Y3840D01*
X8715Y3840D02*
X8115Y3840D01*
X8115Y3840D02*
X8115Y4240D01*
G54D21*
X12750Y2150D02*
X16750Y2150D01*
X16750Y2150D02*
X16750Y150D01*
X16750Y150D02*
X12750Y150D01*
X12750Y150D02*
X12750Y2150D01*
G54D15*
X7450Y6990D02*
G75*
G03X7450Y6990I-900J0D01*
G74*
G01*
G54D11*
X10304Y12419D02*
X10304Y12819D01*
X10457Y12819D01*
X10495Y12800D01*
X10514Y12780D01*
X10533Y12742D01*
X10533Y12685D01*
X10514Y12647D01*
X10495Y12628D01*
X10457Y12609D01*
X10304Y12609D01*
X10761Y12647D02*
X10723Y12666D01*
X10704Y12685D01*
X10685Y12723D01*
X10685Y12742D01*
X10704Y12780D01*
X10723Y12800D01*
X10761Y12819D01*
X10838Y12819D01*
X10876Y12800D01*
X10895Y12780D01*
X10914Y12742D01*
X10914Y12723D01*
X10895Y12685D01*
X10876Y12666D01*
X10838Y12647D01*
X10761Y12647D01*
X10723Y12628D01*
X10704Y12609D01*
X10685Y12571D01*
X10685Y12495D01*
X10704Y12457D01*
X10723Y12438D01*
X10761Y12419D01*
X10838Y12419D01*
X10876Y12438D01*
X10895Y12457D01*
X10914Y12495D01*
X10914Y12571D01*
X10895Y12609D01*
X10876Y12628D01*
X10838Y12647D01*
X7071Y12398D02*
X7129Y12379D01*
X7224Y12379D01*
X7262Y12398D01*
X7281Y12417D01*
X7300Y12455D01*
X7300Y12493D01*
X7281Y12531D01*
X7262Y12550D01*
X7224Y12569D01*
X7148Y12588D01*
X7110Y12607D01*
X7090Y12626D01*
X7071Y12664D01*
X7071Y12702D01*
X7090Y12740D01*
X7110Y12760D01*
X7148Y12779D01*
X7243Y12779D01*
X7300Y12760D01*
X7529Y12379D02*
X7490Y12398D01*
X7471Y12417D01*
X7452Y12455D01*
X7452Y12569D01*
X7471Y12607D01*
X7490Y12626D01*
X7529Y12645D01*
X7586Y12645D01*
X7624Y12626D01*
X7643Y12607D01*
X7662Y12569D01*
X7662Y12455D01*
X7643Y12417D01*
X7624Y12398D01*
X7586Y12379D01*
X7529Y12379D01*
X7833Y12645D02*
X7833Y12379D01*
X7833Y12607D02*
X7852Y12626D01*
X7890Y12645D01*
X7948Y12645D01*
X7986Y12626D01*
X8005Y12588D01*
X8005Y12379D01*
X8367Y12379D02*
X8367Y12588D01*
X8348Y12626D01*
X8310Y12645D01*
X8233Y12645D01*
X8195Y12626D01*
X8367Y12398D02*
X8329Y12379D01*
X8233Y12379D01*
X8195Y12398D01*
X8176Y12436D01*
X8176Y12474D01*
X8195Y12512D01*
X8233Y12531D01*
X8329Y12531D01*
X8367Y12550D01*
X8557Y12379D02*
X8557Y12645D01*
X8557Y12569D02*
X8576Y12607D01*
X8595Y12626D01*
X8633Y12645D01*
X8671Y12645D01*
X9186Y12779D02*
X9262Y12779D01*
X9300Y12760D01*
X9338Y12721D01*
X9357Y12645D01*
X9357Y12512D01*
X9338Y12436D01*
X9300Y12398D01*
X9262Y12379D01*
X9186Y12379D01*
X9148Y12398D01*
X9110Y12436D01*
X9090Y12512D01*
X9090Y12645D01*
X9110Y12721D01*
X9148Y12760D01*
X9186Y12779D01*
X9700Y12645D02*
X9700Y12379D01*
X9529Y12645D02*
X9529Y12436D01*
X9548Y12398D01*
X9586Y12379D01*
X9643Y12379D01*
X9681Y12398D01*
X9700Y12417D01*
X9833Y12645D02*
X9986Y12645D01*
X9890Y12779D02*
X9890Y12436D01*
X9910Y12398D01*
X9948Y12379D01*
X9986Y12379D01*
G54D12*
X8010Y14161D02*
X8176Y14161D01*
X7976Y14061D02*
X8093Y14411D01*
X8210Y14061D01*
X8493Y14411D02*
X8326Y14411D01*
X8310Y14245D01*
X8326Y14261D01*
X8360Y14278D01*
X8443Y14278D01*
X8476Y14261D01*
X8493Y14245D01*
X8510Y14211D01*
X8510Y14128D01*
X8493Y14095D01*
X8476Y14078D01*
X8443Y14061D01*
X8360Y14061D01*
X8326Y14078D01*
X8310Y14095D01*
X10860Y14395D02*
X10826Y14411D01*
X10776Y14411D01*
X10726Y14395D01*
X10693Y14361D01*
X10676Y14328D01*
X10660Y14261D01*
X10660Y14211D01*
X10676Y14145D01*
X10693Y14111D01*
X10726Y14078D01*
X10776Y14061D01*
X10810Y14061D01*
X10860Y14078D01*
X10876Y14095D01*
X10876Y14211D01*
X10810Y14211D01*
X11026Y14061D02*
X11026Y14411D01*
X11226Y14061D01*
X11226Y14411D01*
X11393Y14061D02*
X11393Y14411D01*
X11476Y14411D01*
X11526Y14395D01*
X11560Y14361D01*
X11576Y14328D01*
X11593Y14261D01*
X11593Y14211D01*
X11576Y14145D01*
X11560Y14111D01*
X11526Y14078D01*
X11476Y14061D01*
X11393Y14061D01*
X11960Y14411D02*
X12076Y14061D01*
X12193Y14411D01*
X12510Y14095D02*
X12493Y14078D01*
X12443Y14061D01*
X12410Y14061D01*
X12360Y14078D01*
X12326Y14111D01*
X12310Y14145D01*
X12293Y14211D01*
X12293Y14261D01*
X12310Y14328D01*
X12326Y14361D01*
X12360Y14395D01*
X12410Y14411D01*
X12443Y14411D01*
X12493Y14395D01*
X12510Y14378D01*
X12860Y14095D02*
X12843Y14078D01*
X12793Y14061D01*
X12760Y14061D01*
X12710Y14078D01*
X12676Y14111D01*
X12660Y14145D01*
X12643Y14211D01*
X12643Y14261D01*
X12660Y14328D01*
X12676Y14361D01*
X12710Y14395D01*
X12760Y14411D01*
X12793Y14411D01*
X12843Y14395D01*
X12860Y14378D01*
G54D11*
X19105Y1179D02*
X18705Y1179D01*
X18705Y1332D01*
X18725Y1370D01*
X18744Y1389D01*
X18782Y1408D01*
X18839Y1408D01*
X18877Y1389D01*
X18896Y1370D01*
X18915Y1332D01*
X18915Y1179D01*
X18705Y1541D02*
X18705Y1808D01*
X19105Y1636D01*
X16733Y2641D02*
X16733Y2991D01*
X17100Y2675D02*
X17083Y2658D01*
X17033Y2641D01*
X17000Y2641D01*
X16950Y2658D01*
X16916Y2691D01*
X16900Y2725D01*
X16883Y2791D01*
X16883Y2841D01*
X16900Y2908D01*
X16916Y2941D01*
X16950Y2975D01*
X17000Y2991D01*
X17033Y2991D01*
X17083Y2975D01*
X17100Y2958D01*
X17233Y2658D02*
X17283Y2641D01*
X17366Y2641D01*
X17400Y2658D01*
X17416Y2675D01*
X17433Y2708D01*
X17433Y2741D01*
X17416Y2775D01*
X17400Y2791D01*
X17366Y2808D01*
X17300Y2825D01*
X17266Y2841D01*
X17250Y2858D01*
X17233Y2891D01*
X17233Y2925D01*
X17250Y2958D01*
X17266Y2975D01*
X17300Y2991D01*
X17383Y2991D01*
X17433Y2975D01*
X17583Y2641D02*
X17583Y2991D01*
X17716Y2991D01*
X17750Y2975D01*
X17766Y2958D01*
X17783Y2925D01*
X17783Y2875D01*
X17766Y2841D01*
X17750Y2825D01*
X17716Y2808D01*
X17583Y2808D01*
X7380Y454D02*
X6980Y454D01*
X6980Y607D01*
X7000Y645D01*
X7019Y664D01*
X7057Y683D01*
X7114Y683D01*
X7152Y664D01*
X7171Y645D01*
X7190Y607D01*
X7190Y454D01*
X7114Y1026D02*
X7380Y1026D01*
X6961Y930D02*
X7247Y835D01*
X7247Y1083D01*
X7816Y1491D02*
X7816Y1841D01*
X7900Y1841D01*
X7950Y1825D01*
X7983Y1791D01*
X8000Y1758D01*
X8016Y1691D01*
X8016Y1641D01*
X8000Y1575D01*
X7983Y1541D01*
X7950Y1508D01*
X7900Y1491D01*
X7816Y1491D01*
X8333Y1841D02*
X8166Y1841D01*
X8150Y1675D01*
X8166Y1691D01*
X8200Y1708D01*
X8283Y1708D01*
X8316Y1691D01*
X8333Y1675D01*
X8350Y1641D01*
X8350Y1558D01*
X8333Y1525D01*
X8316Y1508D01*
X8283Y1491D01*
X8200Y1491D01*
X8166Y1508D01*
X8150Y1525D01*
X8766Y1491D02*
X8766Y1841D01*
X8850Y1841D01*
X8900Y1825D01*
X8933Y1791D01*
X8950Y1758D01*
X8966Y1691D01*
X8966Y1641D01*
X8950Y1575D01*
X8933Y1541D01*
X8900Y1508D01*
X8850Y1491D01*
X8766Y1491D01*
X9266Y1841D02*
X9200Y1841D01*
X9166Y1825D01*
X9150Y1808D01*
X9116Y1758D01*
X9100Y1691D01*
X9100Y1558D01*
X9116Y1525D01*
X9133Y1508D01*
X9166Y1491D01*
X9233Y1491D01*
X9266Y1508D01*
X9283Y1525D01*
X9300Y1558D01*
X9300Y1641D01*
X9283Y1675D01*
X9266Y1691D01*
X9233Y1708D01*
X9166Y1708D01*
X9133Y1691D01*
X9116Y1675D01*
X9100Y1641D01*
X9716Y1491D02*
X9716Y1841D01*
X9800Y1841D01*
X9850Y1825D01*
X9883Y1791D01*
X9900Y1758D01*
X9916Y1691D01*
X9916Y1641D01*
X9900Y1575D01*
X9883Y1541D01*
X9850Y1508D01*
X9800Y1491D01*
X9716Y1491D01*
X10033Y1841D02*
X10266Y1841D01*
X10116Y1491D01*
X10666Y1491D02*
X10666Y1841D01*
X10750Y1841D01*
X10800Y1825D01*
X10833Y1791D01*
X10850Y1758D01*
X10866Y1691D01*
X10866Y1641D01*
X10850Y1575D01*
X10833Y1541D01*
X10800Y1508D01*
X10750Y1491D01*
X10666Y1491D01*
X11066Y1691D02*
X11033Y1708D01*
X11016Y1725D01*
X11000Y1758D01*
X11000Y1775D01*
X11016Y1808D01*
X11033Y1825D01*
X11066Y1841D01*
X11133Y1841D01*
X11166Y1825D01*
X11183Y1808D01*
X11200Y1775D01*
X11200Y1758D01*
X11183Y1725D01*
X11166Y1708D01*
X11133Y1691D01*
X11066Y1691D01*
X11033Y1675D01*
X11016Y1658D01*
X11000Y1625D01*
X11000Y1558D01*
X11016Y1525D01*
X11033Y1508D01*
X11066Y1491D01*
X11133Y1491D01*
X11166Y1508D01*
X11183Y1525D01*
X11200Y1558D01*
X11200Y1625D01*
X11183Y1658D01*
X11166Y1675D01*
X11133Y1691D01*
G54D17*
X5780Y3304D02*
X5380Y3304D01*
X5780Y3533D02*
X5552Y3361D01*
X5380Y3533D02*
X5609Y3304D01*
X5780Y3914D02*
X5780Y3685D01*
X5780Y3800D02*
X5380Y3800D01*
X5438Y3761D01*
X5476Y3723D01*
X5495Y3685D01*
X4530Y252D02*
X4930Y385D01*
X4530Y519D01*
X4969Y557D02*
X4969Y861D01*
X4930Y1147D02*
X4930Y957D01*
X4530Y957D01*
X4721Y1280D02*
X4721Y1414D01*
X4930Y1471D02*
X4930Y1280D01*
X4530Y1280D01*
X4530Y1471D01*
X4930Y1642D02*
X4530Y1642D01*
X4530Y1738D01*
X4550Y1795D01*
X4588Y1833D01*
X4626Y1852D01*
X4702Y1871D01*
X4759Y1871D01*
X4835Y1852D01*
X4873Y1833D01*
X4911Y1795D01*
X4930Y1738D01*
X4930Y1642D01*
X4911Y2328D02*
X4930Y2385D01*
X4930Y2480D01*
X4911Y2519D01*
X4892Y2538D01*
X4854Y2557D01*
X4816Y2557D01*
X4778Y2538D01*
X4759Y2519D01*
X4740Y2480D01*
X4721Y2404D01*
X4702Y2366D01*
X4683Y2347D01*
X4645Y2328D01*
X4607Y2328D01*
X4569Y2347D01*
X4550Y2366D01*
X4530Y2404D01*
X4530Y2500D01*
X4550Y2557D01*
X4911Y2880D02*
X4930Y2842D01*
X4930Y2766D01*
X4911Y2728D01*
X4873Y2709D01*
X4721Y2709D01*
X4683Y2728D01*
X4664Y2766D01*
X4664Y2842D01*
X4683Y2880D01*
X4721Y2900D01*
X4759Y2900D01*
X4797Y2709D01*
X4930Y3128D02*
X4911Y3090D01*
X4873Y3071D01*
X4530Y3071D01*
G54D11*
X6558Y350D02*
X6558Y150D01*
X6558Y250D02*
X6208Y250D01*
X6258Y216D01*
X6291Y183D01*
X6308Y150D01*
X6241Y483D02*
X6225Y500D01*
X6208Y533D01*
X6208Y616D01*
X6225Y650D01*
X6241Y666D01*
X6275Y683D01*
X6308Y683D01*
X6358Y666D01*
X6558Y466D01*
X6558Y683D01*
X6208Y783D02*
X6558Y900D01*
X6208Y1016D01*
X6208Y1350D02*
X6558Y1466D01*
X6208Y1583D01*
X6558Y1750D02*
X6541Y1716D01*
X6508Y1700D01*
X6208Y1700D01*
X6541Y2016D02*
X6558Y1983D01*
X6558Y1916D01*
X6541Y1883D01*
X6508Y1866D01*
X6375Y1866D01*
X6341Y1883D01*
X6325Y1916D01*
X6325Y1983D01*
X6341Y2016D01*
X6375Y2033D01*
X6408Y2033D01*
X6441Y1866D01*
X6558Y2333D02*
X6208Y2333D01*
X6541Y2333D02*
X6558Y2300D01*
X6558Y2233D01*
X6541Y2200D01*
X6525Y2183D01*
X6491Y2166D01*
X6391Y2166D01*
X6358Y2183D01*
X6341Y2200D01*
X6325Y2233D01*
X6325Y2300D01*
X6341Y2333D01*
X6208Y2933D02*
X6208Y2766D01*
X6375Y2750D01*
X6358Y2766D01*
X6341Y2800D01*
X6341Y2883D01*
X6358Y2916D01*
X6375Y2933D01*
X6408Y2950D01*
X6491Y2950D01*
X6525Y2933D01*
X6541Y2916D01*
X6558Y2883D01*
X6558Y2800D01*
X6541Y2766D01*
X6525Y2750D01*
X6208Y3050D02*
X6558Y3166D01*
X6208Y3283D01*
G54D21*
X5939Y19678D02*
X6139Y19078D01*
X6339Y19678D01*
X6882Y19078D02*
X6682Y19364D01*
X6539Y19078D02*
X6539Y19678D01*
X6767Y19678D01*
X6825Y19650D01*
X6853Y19621D01*
X6882Y19564D01*
X6882Y19478D01*
X6853Y19421D01*
X6825Y19392D01*
X6767Y19364D01*
X6539Y19364D01*
X7453Y19078D02*
X7110Y19078D01*
X7282Y19078D02*
X7282Y19678D01*
X7225Y19592D01*
X7167Y19535D01*
X7110Y19507D01*
G54D11*
X10399Y2993D02*
X10399Y3493D01*
X10818Y3041D02*
X10799Y3017D01*
X10742Y2993D01*
X10704Y2993D01*
X10647Y3017D01*
X10609Y3065D01*
X10590Y3112D01*
X10570Y3208D01*
X10570Y3279D01*
X10590Y3374D01*
X10609Y3422D01*
X10647Y3470D01*
X10704Y3493D01*
X10742Y3493D01*
X10799Y3470D01*
X10818Y3446D01*
X11199Y2993D02*
X10970Y2993D01*
X11085Y2993D02*
X11085Y3493D01*
X11047Y3422D01*
X11009Y3374D01*
X10970Y3350D01*
G54D17*
X3204Y719D02*
X3204Y1119D01*
X3433Y719D02*
X3261Y947D01*
X3433Y1119D02*
X3204Y890D01*
X3585Y1080D02*
X3604Y1100D01*
X3642Y1119D01*
X3738Y1119D01*
X3776Y1100D01*
X3795Y1080D01*
X3814Y1042D01*
X3814Y1004D01*
X3795Y947D01*
X3566Y719D01*
X3814Y719D01*
X3352Y219D02*
X3123Y219D01*
X3238Y219D02*
X3238Y619D01*
X3200Y561D01*
X3161Y523D01*
X3123Y504D01*
X3504Y580D02*
X3523Y600D01*
X3561Y619D01*
X3657Y619D01*
X3695Y600D01*
X3714Y580D01*
X3733Y542D01*
X3733Y504D01*
X3714Y447D01*
X3485Y219D01*
X3733Y219D01*
X3847Y619D02*
X3980Y219D01*
X4114Y619D01*
X3204Y2119D02*
X3204Y2519D01*
X3433Y2119D02*
X3261Y2347D01*
X3433Y2519D02*
X3204Y2290D01*
X3566Y2519D02*
X3814Y2519D01*
X3680Y2366D01*
X3738Y2366D01*
X3776Y2347D01*
X3795Y2328D01*
X3814Y2290D01*
X3814Y2195D01*
X3795Y2157D01*
X3776Y2138D01*
X3738Y2119D01*
X3623Y2119D01*
X3585Y2138D01*
X3566Y2157D01*
X3423Y1919D02*
X3233Y1919D01*
X3214Y1728D01*
X3233Y1747D01*
X3271Y1766D01*
X3366Y1766D01*
X3404Y1747D01*
X3423Y1728D01*
X3442Y1690D01*
X3442Y1595D01*
X3423Y1557D01*
X3404Y1538D01*
X3366Y1519D01*
X3271Y1519D01*
X3233Y1538D01*
X3214Y1557D01*
X3557Y1919D02*
X3690Y1519D01*
X3823Y1919D01*
G54D12*
X9325Y3217D02*
X9625Y3417D01*
X9325Y3417D02*
X9625Y3217D01*
X9625Y3688D02*
X9625Y3517D01*
X9625Y3602D02*
X9325Y3602D01*
X9368Y3574D01*
X9397Y3545D01*
X9411Y3517D01*
G54D20*
X15640Y13644D02*
X15240Y13644D01*
X15240Y13797D01*
X15260Y13835D01*
X15279Y13854D01*
X15317Y13873D01*
X15374Y13873D01*
X15412Y13854D01*
X15431Y13835D01*
X15450Y13797D01*
X15450Y13644D01*
X15640Y14254D02*
X15640Y14025D01*
X15640Y14140D02*
X15240Y14140D01*
X15298Y14101D01*
X15336Y14063D01*
X15355Y14025D01*
G54D21*
G54D20*
X9308Y8086D02*
X9225Y8205D01*
X9165Y8086D02*
X9165Y8336D01*
X9260Y8336D01*
X9284Y8325D01*
X9296Y8313D01*
X9308Y8289D01*
X9308Y8253D01*
X9296Y8229D01*
X9284Y8217D01*
X9260Y8205D01*
X9165Y8205D01*
X9403Y8313D02*
X9415Y8325D01*
X9439Y8336D01*
X9498Y8336D01*
X9522Y8325D01*
X9534Y8313D01*
X9546Y8289D01*
X9546Y8265D01*
X9534Y8229D01*
X9391Y8086D01*
X9546Y8086D01*
X9289Y17808D02*
X9301Y17796D01*
X9313Y17760D01*
X9313Y17736D01*
X9301Y17701D01*
X9277Y17677D01*
X9253Y17665D01*
X9205Y17653D01*
X9170Y17653D01*
X9122Y17665D01*
X9098Y17677D01*
X9075Y17701D01*
X9063Y17736D01*
X9063Y17760D01*
X9075Y17796D01*
X9086Y17808D01*
X9086Y17903D02*
X9075Y17915D01*
X9063Y17939D01*
X9063Y17998D01*
X9075Y18022D01*
X9086Y18034D01*
X9110Y18046D01*
X9134Y18046D01*
X9170Y18034D01*
X9313Y17891D01*
X9313Y18046D01*
X15908Y3760D02*
X15896Y3748D01*
X15860Y3736D01*
X15836Y3736D01*
X15801Y3748D01*
X15777Y3772D01*
X15765Y3796D01*
X15753Y3844D01*
X15753Y3879D01*
X15765Y3927D01*
X15777Y3951D01*
X15801Y3975D01*
X15836Y3986D01*
X15860Y3986D01*
X15896Y3975D01*
X15908Y3963D01*
X15991Y3986D02*
X16146Y3986D01*
X16063Y3891D01*
X16098Y3891D01*
X16122Y3879D01*
X16134Y3867D01*
X16146Y3844D01*
X16146Y3784D01*
X16134Y3760D01*
X16122Y3748D01*
X16098Y3736D01*
X16027Y3736D01*
X16003Y3748D01*
X15991Y3760D01*
X8239Y17858D02*
X8251Y17846D01*
X8263Y17810D01*
X8263Y17786D01*
X8251Y17751D01*
X8227Y17727D01*
X8203Y17715D01*
X8155Y17703D01*
X8120Y17703D01*
X8072Y17715D01*
X8048Y17727D01*
X8025Y17751D01*
X8013Y17786D01*
X8013Y17810D01*
X8025Y17846D01*
X8036Y17858D01*
X8263Y18096D02*
X8263Y17953D01*
X8263Y18025D02*
X8013Y18025D01*
X8048Y18001D01*
X8072Y17977D01*
X8084Y17953D01*
X17908Y4786D02*
X17825Y4905D01*
X17765Y4786D02*
X17765Y5036D01*
X17860Y5036D01*
X17884Y5025D01*
X17896Y5013D01*
X17908Y4989D01*
X17908Y4953D01*
X17896Y4929D01*
X17884Y4917D01*
X17860Y4905D01*
X17765Y4905D01*
X18134Y5036D02*
X18015Y5036D01*
X18003Y4917D01*
X18015Y4929D01*
X18039Y4941D01*
X18098Y4941D01*
X18122Y4929D01*
X18134Y4917D01*
X18146Y4894D01*
X18146Y4834D01*
X18134Y4810D01*
X18122Y4798D01*
X18098Y4786D01*
X18039Y4786D01*
X18015Y4798D01*
X18003Y4810D01*
X11323Y9833D02*
X11204Y9750D01*
X11323Y9690D02*
X11073Y9690D01*
X11073Y9785D01*
X11085Y9809D01*
X11096Y9821D01*
X11120Y9833D01*
X11156Y9833D01*
X11180Y9821D01*
X11192Y9809D01*
X11204Y9785D01*
X11204Y9690D01*
X11073Y9916D02*
X11073Y10071D01*
X11168Y9988D01*
X11168Y10023D01*
X11180Y10047D01*
X11192Y10059D01*
X11215Y10071D01*
X11275Y10071D01*
X11299Y10059D01*
X11311Y10047D01*
X11323Y10023D01*
X11323Y9952D01*
X11311Y9928D01*
X11299Y9916D01*
X15918Y5780D02*
X15906Y5768D01*
X15870Y5756D01*
X15846Y5756D01*
X15811Y5768D01*
X15787Y5792D01*
X15775Y5816D01*
X15763Y5864D01*
X15763Y5899D01*
X15775Y5947D01*
X15787Y5971D01*
X15811Y5995D01*
X15846Y6006D01*
X15870Y6006D01*
X15906Y5995D01*
X15918Y5983D01*
X16061Y5899D02*
X16037Y5911D01*
X16025Y5923D01*
X16013Y5947D01*
X16013Y5959D01*
X16025Y5983D01*
X16037Y5995D01*
X16061Y6006D01*
X16108Y6006D01*
X16132Y5995D01*
X16144Y5983D01*
X16156Y5959D01*
X16156Y5947D01*
X16144Y5923D01*
X16132Y5911D01*
X16108Y5899D01*
X16061Y5899D01*
X16037Y5887D01*
X16025Y5875D01*
X16013Y5852D01*
X16013Y5804D01*
X16025Y5780D01*
X16037Y5768D01*
X16061Y5756D01*
X16108Y5756D01*
X16132Y5768D01*
X16144Y5780D01*
X16156Y5804D01*
X16156Y5852D01*
X16144Y5875D01*
X16132Y5887D01*
X16108Y5899D01*
X9139Y6278D02*
X9151Y6266D01*
X9163Y6230D01*
X9163Y6206D01*
X9151Y6171D01*
X9127Y6147D01*
X9103Y6135D01*
X9055Y6123D01*
X9020Y6123D01*
X8972Y6135D01*
X8948Y6147D01*
X8925Y6171D01*
X8913Y6206D01*
X8913Y6230D01*
X8925Y6266D01*
X8936Y6278D01*
X8913Y6504D02*
X8913Y6385D01*
X9032Y6373D01*
X9020Y6385D01*
X9008Y6409D01*
X9008Y6468D01*
X9020Y6492D01*
X9032Y6504D01*
X9055Y6516D01*
X9115Y6516D01*
X9139Y6504D01*
X9151Y6492D01*
X9163Y6468D01*
X9163Y6409D01*
X9151Y6385D01*
X9139Y6373D01*
X16789Y9363D02*
X16801Y9351D01*
X16813Y9315D01*
X16813Y9291D01*
X16801Y9256D01*
X16777Y9232D01*
X16753Y9220D01*
X16705Y9208D01*
X16670Y9208D01*
X16622Y9220D01*
X16598Y9232D01*
X16575Y9256D01*
X16563Y9291D01*
X16563Y9315D01*
X16575Y9351D01*
X16586Y9363D01*
X16563Y9446D02*
X16563Y9613D01*
X16813Y9506D01*
X7969Y6218D02*
X7981Y6206D01*
X7993Y6170D01*
X7993Y6146D01*
X7981Y6111D01*
X7957Y6087D01*
X7933Y6075D01*
X7885Y6063D01*
X7850Y6063D01*
X7802Y6075D01*
X7778Y6087D01*
X7755Y6111D01*
X7743Y6146D01*
X7743Y6170D01*
X7755Y6206D01*
X7766Y6218D01*
X7743Y6432D02*
X7743Y6385D01*
X7755Y6361D01*
X7766Y6349D01*
X7802Y6325D01*
X7850Y6313D01*
X7945Y6313D01*
X7969Y6325D01*
X7981Y6337D01*
X7993Y6361D01*
X7993Y6408D01*
X7981Y6432D01*
X7969Y6444D01*
X7945Y6456D01*
X7885Y6456D01*
X7862Y6444D01*
X7850Y6432D01*
X7838Y6408D01*
X7838Y6361D01*
X7850Y6337D01*
X7862Y6325D01*
X7885Y6313D01*
X10429Y9828D02*
X10441Y9816D01*
X10453Y9780D01*
X10453Y9756D01*
X10441Y9721D01*
X10417Y9697D01*
X10393Y9685D01*
X10345Y9673D01*
X10310Y9673D01*
X10262Y9685D01*
X10238Y9697D01*
X10215Y9721D01*
X10203Y9756D01*
X10203Y9780D01*
X10215Y9816D01*
X10226Y9828D01*
X10286Y10042D02*
X10453Y10042D01*
X10191Y9983D02*
X10369Y9923D01*
X10369Y10078D01*
X17433Y11411D02*
X17350Y11530D01*
X17290Y11411D02*
X17290Y11661D01*
X17385Y11661D01*
X17409Y11650D01*
X17421Y11638D01*
X17433Y11614D01*
X17433Y11578D01*
X17421Y11554D01*
X17409Y11542D01*
X17385Y11530D01*
X17290Y11530D01*
X17647Y11578D02*
X17647Y11411D01*
X17588Y11673D02*
X17528Y11495D01*
X17683Y11495D01*
X19288Y12794D02*
X19288Y13094D01*
X19360Y13094D01*
X19402Y13080D01*
X19431Y13051D01*
X19445Y13022D01*
X19460Y12965D01*
X19460Y12922D01*
X19445Y12865D01*
X19431Y12837D01*
X19402Y12808D01*
X19360Y12794D01*
X19288Y12794D01*
X19745Y12794D02*
X19574Y12794D01*
X19660Y12794D02*
X19660Y13094D01*
X19631Y13051D01*
X19602Y13022D01*
X19574Y13008D01*
G54D17*
X3204Y3319D02*
X3204Y3719D01*
X3433Y3319D02*
X3261Y3547D01*
X3433Y3719D02*
X3204Y3490D01*
X3776Y3585D02*
X3776Y3319D01*
X3680Y3738D02*
X3585Y3452D01*
X3833Y3452D01*
X3395Y3100D02*
X3357Y3119D01*
X3300Y3119D01*
X3242Y3100D01*
X3204Y3061D01*
X3185Y3023D01*
X3166Y2947D01*
X3166Y2890D01*
X3185Y2814D01*
X3204Y2776D01*
X3242Y2738D01*
X3300Y2719D01*
X3338Y2719D01*
X3395Y2738D01*
X3414Y2757D01*
X3414Y2890D01*
X3338Y2890D01*
X3585Y2719D02*
X3585Y3119D01*
X3814Y2719D01*
X3814Y3119D01*
X4004Y2719D02*
X4004Y3119D01*
X4100Y3119D01*
X4157Y3100D01*
X4195Y3061D01*
X4214Y3023D01*
X4233Y2947D01*
X4233Y2890D01*
X4214Y2814D01*
X4195Y2776D01*
X4157Y2738D01*
X4100Y2719D01*
X4004Y2719D01*
G54D11*
X9604Y19194D02*
X9604Y19594D01*
X9757Y19594D01*
X9795Y19575D01*
X9814Y19555D01*
X9833Y19517D01*
X9833Y19460D01*
X9814Y19422D01*
X9795Y19403D01*
X9757Y19384D01*
X9604Y19384D01*
X10176Y19594D02*
X10100Y19594D01*
X10061Y19575D01*
X10042Y19555D01*
X10004Y19498D01*
X9985Y19422D01*
X9985Y19270D01*
X10004Y19232D01*
X10023Y19213D01*
X10061Y19194D01*
X10138Y19194D01*
X10176Y19213D01*
X10195Y19232D01*
X10214Y19270D01*
X10214Y19365D01*
X10195Y19403D01*
X10176Y19422D01*
X10138Y19441D01*
X10061Y19441D01*
X10023Y19422D01*
X10004Y19403D01*
X9985Y19365D01*
G54D17*
X15071Y18566D02*
X15090Y18623D01*
X15090Y18719D01*
X15071Y18757D01*
X15052Y18776D01*
X15014Y18795D01*
X14976Y18795D01*
X14938Y18776D01*
X14919Y18757D01*
X14900Y18719D01*
X14881Y18642D01*
X14862Y18604D01*
X14843Y18585D01*
X14805Y18566D01*
X14767Y18566D01*
X14729Y18585D01*
X14710Y18604D01*
X14690Y18642D01*
X14690Y18738D01*
X14710Y18795D01*
X14690Y18928D02*
X15090Y19023D01*
X14805Y19100D01*
X15090Y19176D01*
X14690Y19271D01*
X15090Y19633D02*
X15090Y19404D01*
X15090Y19519D02*
X14690Y19519D01*
X14748Y19480D01*
X14786Y19442D01*
X14805Y19404D01*
X16395Y17644D02*
X16395Y18044D01*
X16547Y18044D01*
X16585Y18025D01*
X16604Y18005D01*
X16623Y17967D01*
X16623Y17910D01*
X16604Y17872D01*
X16585Y17853D01*
X16547Y17834D01*
X16395Y17834D01*
X16757Y18044D02*
X16852Y17644D01*
X16928Y17929D01*
X17004Y17644D01*
X17100Y18044D01*
X17480Y17644D02*
X17347Y17834D01*
X17252Y17644D02*
X17252Y18044D01*
X17404Y18044D01*
X17442Y18025D01*
X17461Y18005D01*
X17480Y17967D01*
X17480Y17910D01*
X17461Y17872D01*
X17442Y17853D01*
X17404Y17834D01*
X17252Y17834D01*
X17938Y17663D02*
X17995Y17644D01*
X18090Y17644D01*
X18128Y17663D01*
X18147Y17682D01*
X18166Y17720D01*
X18166Y17758D01*
X18147Y17796D01*
X18128Y17815D01*
X18090Y17834D01*
X18014Y17853D01*
X17976Y17872D01*
X17957Y17891D01*
X17938Y17929D01*
X17938Y17967D01*
X17957Y18005D01*
X17976Y18025D01*
X18014Y18044D01*
X18109Y18044D01*
X18166Y18025D01*
X18300Y18044D02*
X18395Y17644D01*
X18471Y17929D01*
X18547Y17644D01*
X18642Y18044D01*
G54D20*
X14171Y7714D02*
X14171Y7471D01*
X14185Y7442D01*
X14200Y7428D01*
X14228Y7414D01*
X14285Y7414D01*
X14314Y7428D01*
X14328Y7442D01*
X14342Y7471D01*
X14342Y7714D01*
X14642Y7414D02*
X14471Y7414D01*
X14557Y7414D02*
X14557Y7714D01*
X14528Y7671D01*
X14500Y7642D01*
X14471Y7628D01*
G54D11*
X304Y8019D02*
X304Y8419D01*
X457Y8419D01*
X495Y8400D01*
X514Y8380D01*
X533Y8342D01*
X533Y8285D01*
X514Y8247D01*
X495Y8228D01*
X457Y8209D01*
X304Y8209D01*
X666Y8419D02*
X914Y8419D01*
X780Y8266D01*
X838Y8266D01*
X876Y8247D01*
X895Y8228D01*
X914Y8190D01*
X914Y8095D01*
X895Y8057D01*
X876Y8038D01*
X838Y8019D01*
X723Y8019D01*
X685Y8038D01*
X666Y8057D01*
X1380Y3866D02*
X1380Y4095D01*
X1780Y3980D02*
X1380Y3980D01*
X1380Y4190D02*
X1780Y4457D01*
X1380Y4457D02*
X1780Y4190D01*
X1780Y5142D02*
X1590Y5009D01*
X1780Y4914D02*
X1380Y4914D01*
X1380Y5066D01*
X1400Y5104D01*
X1419Y5123D01*
X1457Y5142D01*
X1514Y5142D01*
X1552Y5123D01*
X1571Y5104D01*
X1590Y5066D01*
X1590Y4914D01*
X1380Y5276D02*
X1780Y5542D01*
X1380Y5542D02*
X1780Y5276D01*
X1780Y6000D02*
X1380Y6000D01*
X1380Y6095D01*
X1400Y6152D01*
X1438Y6190D01*
X1476Y6209D01*
X1552Y6228D01*
X1609Y6228D01*
X1685Y6209D01*
X1723Y6190D01*
X1761Y6152D01*
X1780Y6095D01*
X1780Y6000D01*
X1419Y6380D02*
X1400Y6400D01*
X1380Y6438D01*
X1380Y6533D01*
X1400Y6571D01*
X1419Y6590D01*
X1457Y6609D01*
X1495Y6609D01*
X1552Y6590D01*
X1780Y6361D01*
X1780Y6609D01*
X1780Y7085D02*
X1380Y7085D01*
X1380Y7180D01*
X1400Y7238D01*
X1438Y7276D01*
X1476Y7295D01*
X1552Y7314D01*
X1609Y7314D01*
X1685Y7295D01*
X1723Y7276D01*
X1761Y7238D01*
X1780Y7180D01*
X1780Y7085D01*
X1514Y7657D02*
X1780Y7657D01*
X1361Y7561D02*
X1647Y7466D01*
X1647Y7714D01*
G54D20*
X18985Y3428D02*
X18685Y3428D01*
X18685Y3500D01*
X18700Y3542D01*
X18728Y3571D01*
X18757Y3585D01*
X18814Y3600D01*
X18857Y3600D01*
X18914Y3585D01*
X18942Y3571D01*
X18971Y3542D01*
X18985Y3500D01*
X18985Y3428D01*
X18714Y3714D02*
X18700Y3728D01*
X18685Y3757D01*
X18685Y3828D01*
X18700Y3857D01*
X18714Y3871D01*
X18742Y3885D01*
X18771Y3885D01*
X18814Y3871D01*
X18985Y3700D01*
X18985Y3885D01*
G54D17*
X18335Y6178D02*
X18035Y6178D01*
X18035Y6292D01*
X18050Y6321D01*
X18064Y6335D01*
X18092Y6350D01*
X18135Y6350D01*
X18164Y6335D01*
X18178Y6321D01*
X18192Y6292D01*
X18192Y6178D01*
X18035Y6621D02*
X18035Y6478D01*
X18178Y6464D01*
X18164Y6478D01*
X18150Y6507D01*
X18150Y6578D01*
X18164Y6607D01*
X18178Y6621D01*
X18207Y6635D01*
X18278Y6635D01*
X18307Y6621D01*
X18321Y6607D01*
X18335Y6578D01*
X18335Y6507D01*
X18321Y6478D01*
X18307Y6464D01*
X18800Y5628D02*
X18800Y5771D01*
X18885Y5600D02*
X18585Y5700D01*
X18885Y5800D01*
X18585Y5957D02*
X18585Y5985D01*
X18600Y6014D01*
X18614Y6028D01*
X18642Y6042D01*
X18700Y6057D01*
X18771Y6057D01*
X18828Y6042D01*
X18857Y6028D01*
X18871Y6014D01*
X18885Y5985D01*
X18885Y5957D01*
X18871Y5928D01*
X18857Y5914D01*
X18828Y5900D01*
X18771Y5885D01*
X18700Y5885D01*
X18642Y5900D01*
X18614Y5914D01*
X18600Y5928D01*
X18585Y5957D01*
X18771Y6185D02*
X18771Y6414D01*
X18800Y6542D02*
X18800Y6685D01*
X18885Y6514D02*
X18585Y6614D01*
X18885Y6714D01*
X18885Y6971D02*
X18885Y6800D01*
X18885Y6885D02*
X18585Y6885D01*
X18628Y6857D01*
X18657Y6828D01*
X18671Y6800D01*
G54D11*
X2266Y9008D02*
X2323Y8989D01*
X2419Y8989D01*
X2457Y9008D01*
X2476Y9027D01*
X2495Y9065D01*
X2495Y9103D01*
X2476Y9141D01*
X2457Y9160D01*
X2419Y9179D01*
X2342Y9198D01*
X2304Y9217D01*
X2285Y9236D01*
X2266Y9274D01*
X2266Y9312D01*
X2285Y9350D01*
X2304Y9370D01*
X2342Y9389D01*
X2438Y9389D01*
X2495Y9370D01*
X2628Y9389D02*
X2723Y8989D01*
X2800Y9274D01*
X2876Y8989D01*
X2971Y9389D01*
X3104Y9350D02*
X3123Y9370D01*
X3161Y9389D01*
X3257Y9389D01*
X3295Y9370D01*
X3314Y9350D01*
X3333Y9312D01*
X3333Y9274D01*
X3314Y9217D01*
X3085Y8989D01*
X3333Y8989D01*
G54D21*
X896Y12428D02*
X696Y12714D01*
X553Y12428D02*
X553Y13028D01*
X782Y13028D01*
X839Y13000D01*
X867Y12971D01*
X896Y12914D01*
X896Y12828D01*
X867Y12771D01*
X839Y12742D01*
X782Y12714D01*
X553Y12714D01*
X1125Y12457D02*
X1210Y12428D01*
X1353Y12428D01*
X1410Y12457D01*
X1439Y12485D01*
X1467Y12542D01*
X1467Y12600D01*
X1439Y12657D01*
X1410Y12685D01*
X1353Y12714D01*
X1239Y12742D01*
X1182Y12771D01*
X1153Y12800D01*
X1125Y12857D01*
X1125Y12914D01*
X1153Y12971D01*
X1182Y13000D01*
X1239Y13028D01*
X1382Y13028D01*
X1467Y13000D01*
X1639Y13028D02*
X1982Y13028D01*
X1810Y12428D02*
X1810Y13028D01*
G54D20*
X8528Y3443D02*
X8409Y3360D01*
X8528Y3300D02*
X8278Y3300D01*
X8278Y3395D01*
X8290Y3419D01*
X8301Y3431D01*
X8325Y3443D01*
X8361Y3443D01*
X8385Y3431D01*
X8397Y3419D01*
X8409Y3395D01*
X8409Y3300D01*
X8528Y3681D02*
X8528Y3538D01*
X8528Y3610D02*
X8278Y3610D01*
X8313Y3586D01*
X8337Y3562D01*
X8349Y3538D01*
G54D11*
X12989Y2259D02*
X12989Y2659D01*
X13142Y2659D01*
X13180Y2640D01*
X13199Y2620D01*
X13218Y2582D01*
X13218Y2525D01*
X13199Y2487D01*
X13180Y2468D01*
X13142Y2449D01*
X12989Y2449D01*
X13370Y2620D02*
X13389Y2640D01*
X13427Y2659D01*
X13523Y2659D01*
X13561Y2640D01*
X13580Y2620D01*
X13599Y2582D01*
X13599Y2544D01*
X13580Y2487D01*
X13351Y2259D01*
X13599Y2259D01*
X14346Y2616D02*
X14413Y2616D01*
X14446Y2600D01*
X14480Y2566D01*
X14496Y2500D01*
X14496Y2383D01*
X14480Y2316D01*
X14446Y2283D01*
X14413Y2266D01*
X14346Y2266D01*
X14313Y2283D01*
X14280Y2316D01*
X14263Y2383D01*
X14263Y2500D01*
X14280Y2566D01*
X14313Y2600D01*
X14346Y2616D01*
X14646Y2616D02*
X14646Y2333D01*
X14663Y2300D01*
X14680Y2283D01*
X14713Y2266D01*
X14780Y2266D01*
X14813Y2283D01*
X14830Y2300D01*
X14846Y2333D01*
X14846Y2616D01*
X14963Y2616D02*
X15163Y2616D01*
X15063Y2266D02*
X15063Y2616D01*
X15196Y2233D02*
X15463Y2233D01*
X15663Y2450D02*
X15713Y2433D01*
X15729Y2416D01*
X15746Y2383D01*
X15746Y2333D01*
X15729Y2300D01*
X15713Y2283D01*
X15679Y2266D01*
X15546Y2266D01*
X15546Y2616D01*
X15663Y2616D01*
X15696Y2600D01*
X15713Y2583D01*
X15729Y2550D01*
X15729Y2516D01*
X15713Y2483D01*
X15696Y2466D01*
X15663Y2450D01*
X15546Y2450D01*
X15896Y2616D02*
X15896Y2333D01*
X15913Y2300D01*
X15929Y2283D01*
X15963Y2266D01*
X16029Y2266D01*
X16063Y2283D01*
X16079Y2300D01*
X16096Y2333D01*
X16096Y2616D01*
X16246Y2283D02*
X16296Y2266D01*
X16379Y2266D01*
X16413Y2283D01*
X16429Y2300D01*
X16446Y2333D01*
X16446Y2366D01*
X16429Y2400D01*
X16413Y2416D01*
X16379Y2433D01*
X16313Y2450D01*
X16279Y2466D01*
X16263Y2483D01*
X16246Y2516D01*
X16246Y2550D01*
X16263Y2583D01*
X16279Y2600D01*
X16313Y2616D01*
X16396Y2616D01*
X16446Y2600D01*
M02*
