G04 (created by PCBNEW (2013-mar-13)-testing) date Mon 24 Jun 2013 03:26:25 PM EDT*
%MOIN*%
G04 Gerber Fmt 3.4, Leading zero omitted, Abs format*
%FSLAX34Y34*%
G01*
G70*
G90*
G04 APERTURE LIST*
%ADD10C,0.000787*%
%ADD11C,0.080000*%
%ADD12R,0.080000X0.080000*%
%ADD13R,0.110600X0.071200*%
%ADD14R,0.106700X0.071200*%
%ADD15R,0.079100X0.071200*%
%ADD16C,0.090900*%
%ADD17C,0.145000*%
G04 APERTURE END LIST*
G54D10*
G54D11*
X12269Y13427D03*
X11268Y13428D03*
X10268Y13428D03*
X9268Y13428D03*
X8268Y13428D03*
X7268Y13428D03*
X6268Y13428D03*
G54D12*
X18395Y2735D03*
G54D11*
X19395Y2735D03*
X18395Y1735D03*
X19395Y1735D03*
X18395Y735D03*
X19395Y735D03*
G54D12*
X8000Y750D03*
G54D11*
X9000Y750D03*
X10000Y750D03*
X11000Y750D03*
G54D12*
X5600Y700D03*
G54D11*
X5600Y1700D03*
X5600Y2700D03*
G54D12*
X600Y700D03*
G54D11*
X1600Y700D03*
X2600Y700D03*
G54D12*
X600Y2000D03*
G54D11*
X1600Y2000D03*
X2600Y2000D03*
G54D13*
X19000Y7886D03*
G54D14*
X17819Y8555D03*
G54D13*
X19000Y11114D03*
G54D15*
X17819Y10445D03*
G54D12*
X600Y3200D03*
G54D11*
X1600Y3200D03*
X2600Y3200D03*
G54D12*
X14000Y19500D03*
G54D11*
X13000Y19500D03*
X12000Y19500D03*
X11000Y19500D03*
G54D12*
X18484Y19000D03*
G54D11*
X17500Y19000D03*
X16516Y19000D03*
G54D12*
X600Y7400D03*
G54D11*
X600Y6400D03*
X600Y5400D03*
X600Y4400D03*
G54D12*
X19500Y5800D03*
G54D11*
X19500Y6800D03*
G54D16*
X4075Y10065D03*
X1515Y10065D03*
X4075Y11837D03*
X1515Y11837D03*
X2795Y12565D03*
G54D17*
X13380Y12960D03*
G54D12*
X13250Y650D03*
G54D11*
X13250Y1650D03*
X14250Y650D03*
X14250Y1650D03*
X15250Y650D03*
X15250Y1650D03*
X16250Y650D03*
X16250Y1650D03*
G54D17*
X6550Y6990D03*
M02*
