G04 (created by PCBNEW (2013-mar-13)-testing) date Mon 24 Jun 2013 03:26:25 PM EDT*
%MOIN*%
G04 Gerber Fmt 3.4, Leading zero omitted, Abs format*
%FSLAX34Y34*%
G01*
G70*
G90*
G04 APERTURE LIST*
%ADD10C,0.000787*%
%ADD11R,0.149500X0.039400*%
%ADD12R,0.149600X0.039400*%
%ADD13R,0.508400X0.500000*%
%ADD14R,0.078700X0.017700*%
%ADD15R,0.017700X0.078700*%
%ADD16R,0.063000X0.011800*%
%ADD17R,0.066900X0.015700*%
%ADD18R,0.098400X0.070900*%
%ADD19R,0.115000X0.050000*%
%ADD20R,0.065000X0.135000*%
%ADD21R,0.035000X0.055000*%
%ADD22R,0.055000X0.035000*%
%ADD23R,0.047200X0.047200*%
%ADD24R,0.050000X0.016000*%
%ADD25R,0.122000X0.051200*%
G04 APERTURE END LIST*
G54D10*
G54D11*
X6707Y15926D03*
X6707Y16596D03*
G54D12*
X6707Y17265D03*
G54D11*
X6707Y17934D03*
X6707Y18604D03*
G54D13*
X2785Y17265D03*
G54D14*
X10804Y4207D03*
X10804Y4522D03*
X10804Y4837D03*
X10804Y5152D03*
X10804Y5467D03*
X10804Y5782D03*
X10804Y6097D03*
X10804Y6412D03*
X14570Y6410D03*
X14570Y4200D03*
X14570Y4520D03*
X14570Y4840D03*
X14570Y5150D03*
X14570Y5470D03*
X14570Y5780D03*
X14570Y6100D03*
G54D15*
X11588Y7200D03*
X11902Y7200D03*
X12218Y7200D03*
X12532Y7200D03*
X12848Y7200D03*
X13162Y7200D03*
X13478Y7200D03*
X13792Y7200D03*
X11590Y3420D03*
X11900Y3420D03*
X12220Y3420D03*
X12530Y3420D03*
X12840Y3420D03*
X13160Y3420D03*
X13480Y3420D03*
X13800Y3420D03*
G54D16*
X9525Y4440D03*
X9525Y4066D03*
X9525Y4814D03*
G54D17*
X17858Y9500D03*
X17858Y9244D03*
X17858Y10012D03*
X17858Y9756D03*
G54D18*
X19079Y8949D03*
X19079Y10051D03*
G54D17*
X17858Y8988D03*
G54D19*
X15600Y15150D03*
X13800Y15150D03*
G54D20*
X17750Y16600D03*
X17750Y13700D03*
G54D21*
X9565Y7670D03*
X10315Y7670D03*
G54D22*
X9200Y16475D03*
X9200Y17225D03*
G54D21*
X15615Y4500D03*
X16365Y4500D03*
G54D22*
X8100Y16525D03*
X8100Y17275D03*
G54D21*
X18275Y4300D03*
X17525Y4300D03*
G54D22*
X11200Y9275D03*
X11200Y8525D03*
G54D21*
X15615Y5300D03*
X16365Y5300D03*
G54D22*
X9525Y5665D03*
X9525Y6415D03*
X16700Y9975D03*
X16700Y10725D03*
X8425Y5665D03*
X8425Y6415D03*
X10320Y8525D03*
X10320Y9275D03*
G54D21*
X17875Y12150D03*
X17125Y12150D03*
G54D23*
X18637Y12150D03*
X19463Y12150D03*
G54D24*
X13000Y11550D03*
X13000Y11300D03*
X13000Y11040D03*
X13000Y10780D03*
X13000Y10530D03*
X13000Y10270D03*
X13000Y10010D03*
X13000Y9760D03*
X13000Y9500D03*
X13000Y9250D03*
X13000Y8990D03*
X13000Y8730D03*
X13000Y8480D03*
X13000Y8220D03*
X15800Y8220D03*
X15800Y8480D03*
X15800Y8720D03*
X15800Y8990D03*
X15800Y9250D03*
X15800Y9500D03*
X15800Y9760D03*
X15800Y10010D03*
X15800Y10270D03*
X15800Y10530D03*
X15800Y10780D03*
X15800Y11040D03*
X15800Y11300D03*
X15800Y11550D03*
G54D23*
X19400Y3787D03*
X19400Y4613D03*
G54D25*
X1230Y9179D03*
X4360Y9179D03*
X4360Y10951D03*
X1230Y10951D03*
G54D22*
X8415Y4815D03*
X8415Y4065D03*
M02*
