G04 (created by PCBNEW (2012-nov-02)-testing) date Fri 28 Dec 2012 04:30:59 PM EST*
%MOIN*%
G04 Gerber Fmt 3.4, Leading zero omitted, Abs format*
%FSLAX34Y34*%
G01*
G70*
G90*
G04 APERTURE LIST*
%ADD10C,2.3622e-06*%
%ADD11C,0.08*%
%ADD12R,0.08X0.08*%
%ADD13R,0.1106X0.0712*%
%ADD14R,0.1067X0.0712*%
%ADD15R,0.0791X0.0712*%
%ADD16C,0.0909*%
%ADD17C,0.18*%
G04 APERTURE END LIST*
G54D10*
G54D11*
X6491Y13993D03*
X7492Y13992D03*
X8492Y13992D03*
X9492Y13992D03*
X10492Y13992D03*
X11492Y13992D03*
X12492Y13992D03*
G54D12*
X18395Y2735D03*
G54D11*
X19395Y2735D03*
X18395Y1735D03*
X19395Y1735D03*
X18395Y735D03*
X19395Y735D03*
G54D12*
X8000Y750D03*
G54D11*
X9000Y750D03*
X10000Y750D03*
X11000Y750D03*
G54D12*
X5600Y700D03*
G54D11*
X5600Y1700D03*
X5600Y2700D03*
G54D12*
X600Y700D03*
G54D11*
X1600Y700D03*
X2600Y700D03*
G54D12*
X600Y2000D03*
G54D11*
X1600Y2000D03*
X2600Y2000D03*
G54D13*
X19000Y7886D03*
G54D14*
X17819Y8555D03*
G54D13*
X19000Y11114D03*
G54D15*
X17819Y10445D03*
G54D12*
X600Y3200D03*
G54D11*
X1600Y3200D03*
X2600Y3200D03*
G54D12*
X14000Y19500D03*
G54D11*
X13000Y19500D03*
X12000Y19500D03*
X11000Y19500D03*
G54D12*
X18484Y19000D03*
G54D11*
X17500Y19000D03*
X16516Y19000D03*
G54D12*
X600Y7400D03*
G54D11*
X600Y6400D03*
X600Y5400D03*
X600Y4400D03*
G54D12*
X19500Y5800D03*
G54D11*
X19500Y6800D03*
G54D16*
X4075Y10065D03*
X1515Y10065D03*
X4075Y11837D03*
X1515Y11837D03*
X2795Y12565D03*
G54D17*
X15000Y16500D03*
G54D12*
X13250Y750D03*
G54D11*
X13250Y1750D03*
X14250Y750D03*
X14250Y1750D03*
X15250Y750D03*
X15250Y1750D03*
X16250Y750D03*
X16250Y1750D03*
G54D17*
X5000Y5000D03*
M02*
