G04 This is an RS-274x file exported by *
G04 gerbv version 2.5.0 *
G04 More information is available about gerbv at *
G04 http://gerbv.gpleda.org/ *
G04 --End of header info--*
%MOIN*%
%FSLAX23Y23*%
%IPPOS*%
G04 --Define apertures--*
%ADD10C,0.0000*%
%ADD11C,0.0120*%
%ADD12C,0.0075*%
%ADD13C,0.0110*%
%ADD14C,0.0109*%
%ADD15C,0.0150*%
%ADD16C,0.0080*%
%ADD17C,0.0100*%
%ADD18C,0.0060*%
%ADD19C,0.0039*%
%ADD20C,0.0079*%
%ADD21C,0.0050*%
G04 --Start main section--*
G54D11*
G01X00995Y01783D02*
G01X00978Y01783D01*
G01X00978Y01757D02*
G01X00978Y01807D01*
G01X00978Y01807D02*
G01X01002Y01807D01*
G01X01028Y01757D02*
G01X01023Y01760D01*
G01X01023Y01760D02*
G01X01021Y01764D01*
G01X01021Y01764D02*
G01X01021Y01807D01*
G01X01068Y01757D02*
G01X01068Y01783D01*
G01X01068Y01783D02*
G01X01066Y01788D01*
G01X01066Y01788D02*
G01X01061Y01791D01*
G01X01061Y01791D02*
G01X01052Y01791D01*
G01X01052Y01791D02*
G01X01047Y01788D01*
G01X01068Y01760D02*
G01X01064Y01757D01*
G01X01064Y01757D02*
G01X01052Y01757D01*
G01X01052Y01757D02*
G01X01047Y01760D01*
G01X01047Y01760D02*
G01X01045Y01764D01*
G01X01045Y01764D02*
G01X01045Y01769D01*
G01X01045Y01769D02*
G01X01047Y01774D01*
G01X01047Y01774D02*
G01X01052Y01776D01*
G01X01052Y01776D02*
G01X01064Y01776D01*
G01X01064Y01776D02*
G01X01068Y01779D01*
G01X01090Y01760D02*
G01X01095Y01757D01*
G01X01095Y01757D02*
G01X01104Y01757D01*
G01X01104Y01757D02*
G01X01109Y01760D01*
G01X01109Y01760D02*
G01X01111Y01764D01*
G01X01111Y01764D02*
G01X01111Y01767D01*
G01X01111Y01767D02*
G01X01109Y01772D01*
G01X01109Y01772D02*
G01X01104Y01774D01*
G01X01104Y01774D02*
G01X01097Y01774D01*
G01X01097Y01774D02*
G01X01092Y01776D01*
G01X01092Y01776D02*
G01X01090Y01781D01*
G01X01090Y01781D02*
G01X01090Y01783D01*
G01X01090Y01783D02*
G01X01092Y01788D01*
G01X01092Y01788D02*
G01X01097Y01791D01*
G01X01097Y01791D02*
G01X01104Y01791D01*
G01X01104Y01791D02*
G01X01109Y01788D01*
G01X01133Y01757D02*
G01X01133Y01807D01*
G01X01154Y01757D02*
G01X01154Y01783D01*
G01X01154Y01783D02*
G01X01152Y01788D01*
G01X01152Y01788D02*
G01X01147Y01791D01*
G01X01147Y01791D02*
G01X01140Y01791D01*
G01X01140Y01791D02*
G01X01135Y01788D01*
G01X01135Y01788D02*
G01X01133Y01786D01*
G01X01218Y01757D02*
G01X01216Y01757D01*
G01X01216Y01757D02*
G01X01211Y01760D01*
G01X01211Y01760D02*
G01X01204Y01767D01*
G01X01204Y01767D02*
G01X01192Y01781D01*
G01X01192Y01781D02*
G01X01187Y01788D01*
G01X01187Y01788D02*
G01X01185Y01795D01*
G01X01185Y01795D02*
G01X01185Y01800D01*
G01X01185Y01800D02*
G01X01187Y01805D01*
G01X01187Y01805D02*
G01X01192Y01807D01*
G01X01192Y01807D02*
G01X01195Y01807D01*
G01X01195Y01807D02*
G01X01199Y01805D01*
G01X01199Y01805D02*
G01X01202Y01800D01*
G01X01202Y01800D02*
G01X01202Y01798D01*
G01X01202Y01798D02*
G01X01199Y01793D01*
G01X01199Y01793D02*
G01X01197Y01791D01*
G01X01197Y01791D02*
G01X01183Y01781D01*
G01X01183Y01781D02*
G01X01180Y01779D01*
G01X01180Y01779D02*
G01X01178Y01774D01*
G01X01178Y01774D02*
G01X01178Y01767D01*
G01X01178Y01767D02*
G01X01180Y01762D01*
G01X01180Y01762D02*
G01X01183Y01760D01*
G01X01183Y01760D02*
G01X01187Y01757D01*
G01X01187Y01757D02*
G01X01195Y01757D01*
G01X01195Y01757D02*
G01X01199Y01760D01*
G01X01199Y01760D02*
G01X01202Y01762D01*
G01X01202Y01762D02*
G01X01209Y01772D01*
G01X01209Y01772D02*
G01X01211Y01779D01*
G01X01211Y01779D02*
G01X01211Y01783D01*
G01X01237Y01760D02*
G01X01245Y01757D01*
G01X01245Y01757D02*
G01X01256Y01757D01*
G01X01256Y01757D02*
G01X01261Y01760D01*
G01X01261Y01760D02*
G01X01264Y01762D01*
G01X01264Y01762D02*
G01X01266Y01767D01*
G01X01266Y01767D02*
G01X01266Y01772D01*
G01X01266Y01772D02*
G01X01264Y01776D01*
G01X01264Y01776D02*
G01X01261Y01779D01*
G01X01261Y01779D02*
G01X01256Y01781D01*
G01X01256Y01781D02*
G01X01247Y01783D01*
G01X01247Y01783D02*
G01X01242Y01786D01*
G01X01242Y01786D02*
G01X01240Y01788D01*
G01X01240Y01788D02*
G01X01237Y01793D01*
G01X01237Y01793D02*
G01X01237Y01798D01*
G01X01237Y01798D02*
G01X01240Y01803D01*
G01X01240Y01803D02*
G01X01242Y01805D01*
G01X01242Y01805D02*
G01X01247Y01807D01*
G01X01247Y01807D02*
G01X01259Y01807D01*
G01X01259Y01807D02*
G01X01266Y01805D01*
G01X01280Y01791D02*
G01X01299Y01791D01*
G01X01287Y01807D02*
G01X01287Y01764D01*
G01X01287Y01764D02*
G01X01290Y01760D01*
G01X01290Y01760D02*
G01X01295Y01757D01*
G01X01295Y01757D02*
G01X01299Y01757D01*
G01X01316Y01757D02*
G01X01316Y01791D01*
G01X01316Y01781D02*
G01X01318Y01786D01*
G01X01318Y01786D02*
G01X01321Y01788D01*
G01X01321Y01788D02*
G01X01325Y01791D01*
G01X01325Y01791D02*
G01X01330Y01791D01*
G01X01347Y01757D02*
G01X01347Y01791D01*
G01X01347Y01807D02*
G01X01345Y01805D01*
G01X01345Y01805D02*
G01X01347Y01803D01*
G01X01347Y01803D02*
G01X01349Y01805D01*
G01X01349Y01805D02*
G01X01347Y01807D01*
G01X01347Y01807D02*
G01X01347Y01803D01*
G01X01371Y01791D02*
G01X01371Y01741D01*
G01X01371Y01788D02*
G01X01375Y01791D01*
G01X01375Y01791D02*
G01X01385Y01791D01*
G01X01385Y01791D02*
G01X01390Y01788D01*
G01X01390Y01788D02*
G01X01392Y01786D01*
G01X01392Y01786D02*
G01X01395Y01781D01*
G01X01395Y01781D02*
G01X01395Y01767D01*
G01X01395Y01767D02*
G01X01392Y01762D01*
G01X01392Y01762D02*
G01X01390Y01760D01*
G01X01390Y01760D02*
G01X01385Y01757D01*
G01X01385Y01757D02*
G01X01375Y01757D01*
G01X01375Y01757D02*
G01X01371Y01760D01*
G01X01045Y01675D02*
G01X01045Y01709D01*
G01X01045Y01725D02*
G01X01042Y01723D01*
G01X01042Y01723D02*
G01X01045Y01721D01*
G01X01045Y01721D02*
G01X01047Y01723D01*
G01X01047Y01723D02*
G01X01045Y01725D01*
G01X01045Y01725D02*
G01X01045Y01721D01*
G01X01075Y01675D02*
G01X01071Y01678D01*
G01X01071Y01678D02*
G01X01068Y01682D01*
G01X01068Y01682D02*
G01X01068Y01725D01*
G01X01087Y01709D02*
G01X01106Y01709D01*
G01X01095Y01725D02*
G01X01095Y01682D01*
G01X01095Y01682D02*
G01X01097Y01678D01*
G01X01097Y01678D02*
G01X01102Y01675D01*
G01X01102Y01675D02*
G01X01106Y01675D01*
G01X01118Y01725D02*
G01X01149Y01725D01*
G01X01149Y01725D02*
G01X01133Y01706D01*
G01X01133Y01706D02*
G01X01140Y01706D01*
G01X01140Y01706D02*
G01X01145Y01704D01*
G01X01145Y01704D02*
G01X01147Y01701D01*
G01X01147Y01701D02*
G01X01149Y01697D01*
G01X01149Y01697D02*
G01X01149Y01685D01*
G01X01149Y01685D02*
G01X01147Y01680D01*
G01X01147Y01680D02*
G01X01145Y01678D01*
G01X01145Y01678D02*
G01X01140Y01675D01*
G01X01140Y01675D02*
G01X01125Y01675D01*
G01X01125Y01675D02*
G01X01121Y01678D01*
G01X01121Y01678D02*
G01X01118Y01680D01*
G01X01171Y01680D02*
G01X01173Y01678D01*
G01X01173Y01678D02*
G01X01171Y01675D01*
G01X01171Y01675D02*
G01X01168Y01678D01*
G01X01168Y01678D02*
G01X01171Y01680D01*
G01X01171Y01680D02*
G01X01171Y01675D01*
G01X01216Y01678D02*
G01X01211Y01675D01*
G01X01211Y01675D02*
G01X01202Y01675D01*
G01X01202Y01675D02*
G01X01197Y01678D01*
G01X01197Y01678D02*
G01X01195Y01680D01*
G01X01195Y01680D02*
G01X01192Y01685D01*
G01X01192Y01685D02*
G01X01192Y01699D01*
G01X01192Y01699D02*
G01X01195Y01704D01*
G01X01195Y01704D02*
G01X01197Y01706D01*
G01X01197Y01706D02*
G01X01202Y01709D01*
G01X01202Y01709D02*
G01X01211Y01709D01*
G01X01211Y01709D02*
G01X01216Y01706D01*
G01X01245Y01675D02*
G01X01240Y01678D01*
G01X01240Y01678D02*
G01X01237Y01680D01*
G01X01237Y01680D02*
G01X01235Y01685D01*
G01X01235Y01685D02*
G01X01235Y01699D01*
G01X01235Y01699D02*
G01X01237Y01704D01*
G01X01237Y01704D02*
G01X01240Y01706D01*
G01X01240Y01706D02*
G01X01245Y01709D01*
G01X01245Y01709D02*
G01X01252Y01709D01*
G01X01252Y01709D02*
G01X01256Y01706D01*
G01X01256Y01706D02*
G01X01259Y01704D01*
G01X01259Y01704D02*
G01X01261Y01699D01*
G01X01261Y01699D02*
G01X01261Y01685D01*
G01X01261Y01685D02*
G01X01259Y01680D01*
G01X01259Y01680D02*
G01X01256Y01678D01*
G01X01256Y01678D02*
G01X01252Y01675D01*
G01X01252Y01675D02*
G01X01245Y01675D01*
G01X01283Y01675D02*
G01X01283Y01709D01*
G01X01283Y01704D02*
G01X01285Y01706D01*
G01X01285Y01706D02*
G01X01290Y01709D01*
G01X01290Y01709D02*
G01X01297Y01709D01*
G01X01297Y01709D02*
G01X01302Y01706D01*
G01X01302Y01706D02*
G01X01304Y01701D01*
G01X01304Y01701D02*
G01X01304Y01675D01*
G01X01304Y01701D02*
G01X01306Y01706D01*
G01X01306Y01706D02*
G01X01311Y01709D01*
G01X01311Y01709D02*
G01X01318Y01709D01*
G01X01318Y01709D02*
G01X01323Y01706D01*
G01X01323Y01706D02*
G01X01325Y01701D01*
G01X01325Y01701D02*
G01X01325Y01675D01*
G54D12*
G01X01070Y01860D02*
G01X01084Y01860D01*
G01X01067Y01852D02*
G01X01077Y01882D01*
G01X01077Y01882D02*
G01X01087Y01852D01*
G01X01111Y01882D02*
G01X01097Y01882D01*
G01X01097Y01882D02*
G01X01095Y01868D01*
G01X01095Y01868D02*
G01X01097Y01869D01*
G01X01097Y01869D02*
G01X01100Y01870D01*
G01X01100Y01870D02*
G01X01107Y01870D01*
G01X01107Y01870D02*
G01X01110Y01869D01*
G01X01110Y01869D02*
G01X01111Y01868D01*
G01X01111Y01868D02*
G01X01112Y01865D01*
G01X01112Y01865D02*
G01X01112Y01858D01*
G01X01112Y01858D02*
G01X01111Y01855D01*
G01X01111Y01855D02*
G01X01110Y01853D01*
G01X01110Y01853D02*
G01X01107Y01852D01*
G01X01107Y01852D02*
G01X01100Y01852D01*
G01X01100Y01852D02*
G01X01097Y01853D01*
G01X01097Y01853D02*
G01X01095Y01855D01*
G01X01170Y01860D02*
G01X01184Y01860D01*
G01X01167Y01852D02*
G01X01177Y01882D01*
G01X01177Y01882D02*
G01X01187Y01852D01*
G01X01210Y01872D02*
G01X01210Y01852D01*
G01X01202Y01883D02*
G01X01195Y01862D01*
G01X01195Y01862D02*
G01X01214Y01862D01*
G01X01270Y01860D02*
G01X01284Y01860D01*
G01X01267Y01852D02*
G01X01277Y01882D01*
G01X01277Y01882D02*
G01X01287Y01852D01*
G01X01294Y01882D02*
G01X01312Y01882D01*
G01X01312Y01882D02*
G01X01302Y01870D01*
G01X01302Y01870D02*
G01X01307Y01870D01*
G01X01307Y01870D02*
G01X01310Y01869D01*
G01X01310Y01869D02*
G01X01311Y01868D01*
G01X01311Y01868D02*
G01X01312Y01865D01*
G01X01312Y01865D02*
G01X01312Y01858D01*
G01X01312Y01858D02*
G01X01311Y01855D01*
G01X01311Y01855D02*
G01X01310Y01853D01*
G01X01310Y01853D02*
G01X01307Y01852D01*
G01X01307Y01852D02*
G01X01298Y01852D01*
G01X01298Y01852D02*
G01X01295Y01853D01*
G01X01295Y01853D02*
G01X01294Y01855D01*
G01X01370Y01860D02*
G01X01384Y01860D01*
G01X01367Y01852D02*
G01X01377Y01882D01*
G01X01377Y01882D02*
G01X01387Y01852D01*
G01X01395Y01879D02*
G01X01397Y01880D01*
G01X01397Y01880D02*
G01X01400Y01882D01*
G01X01400Y01882D02*
G01X01407Y01882D01*
G01X01407Y01882D02*
G01X01410Y01880D01*
G01X01410Y01880D02*
G01X01411Y01879D01*
G01X01411Y01879D02*
G01X01412Y01876D01*
G01X01412Y01876D02*
G01X01412Y01873D01*
G01X01412Y01873D02*
G01X01411Y01869D01*
G01X01411Y01869D02*
G01X01394Y01852D01*
G01X01394Y01852D02*
G01X01412Y01852D01*
G01X01167Y00026D02*
G01X01197Y00046D01*
G01X01167Y00046D02*
G01X01197Y00026D01*
G01X01197Y00062D02*
G01X01195Y00059D01*
G01X01195Y00059D02*
G01X01192Y00057D01*
G01X01192Y00057D02*
G01X01167Y00057D01*
G01X01197Y00086D02*
G01X01181Y00086D01*
G01X01181Y00086D02*
G01X01178Y00084D01*
G01X01178Y00084D02*
G01X01177Y00082D01*
G01X01177Y00082D02*
G01X01177Y00076D01*
G01X01177Y00076D02*
G01X01178Y00073D01*
G01X01195Y00086D02*
G01X01197Y00083D01*
G01X01197Y00083D02*
G01X01197Y00076D01*
G01X01197Y00076D02*
G01X01195Y00073D01*
G01X01195Y00073D02*
G01X01192Y00072D01*
G01X01192Y00072D02*
G01X01190Y00072D01*
G01X01190Y00072D02*
G01X01187Y00073D01*
G01X01187Y00073D02*
G01X01185Y00076D01*
G01X01185Y00076D02*
G01X01185Y00083D01*
G01X01185Y00083D02*
G01X01184Y00086D01*
G01X01177Y00096D02*
G01X01177Y00107D01*
G01X01167Y00100D02*
G01X01192Y00100D01*
G01X01192Y00100D02*
G01X01195Y00102D01*
G01X01195Y00102D02*
G01X01197Y00104D01*
G01X01197Y00104D02*
G01X01197Y00107D01*
G01X01195Y00139D02*
G01X01197Y00143D01*
G01X01197Y00143D02*
G01X01197Y00150D01*
G01X01197Y00150D02*
G01X01195Y00153D01*
G01X01195Y00153D02*
G01X01194Y00154D01*
G01X01194Y00154D02*
G01X01191Y00156D01*
G01X01191Y00156D02*
G01X01188Y00156D01*
G01X01188Y00156D02*
G01X01185Y00154D01*
G01X01185Y00154D02*
G01X01184Y00153D01*
G01X01184Y00153D02*
G01X01182Y00150D01*
G01X01182Y00150D02*
G01X01181Y00144D01*
G01X01181Y00144D02*
G01X01180Y00142D01*
G01X01180Y00142D02*
G01X01178Y00140D01*
G01X01178Y00140D02*
G01X01175Y00139D01*
G01X01175Y00139D02*
G01X01172Y00139D01*
G01X01172Y00139D02*
G01X01170Y00140D01*
G01X01170Y00140D02*
G01X01168Y00142D01*
G01X01168Y00142D02*
G01X01167Y00144D01*
G01X01167Y00144D02*
G01X01167Y00152D01*
G01X01167Y00152D02*
G01X01168Y00156D01*
G01X01197Y00173D02*
G01X01195Y00170D01*
G01X01195Y00170D02*
G01X01194Y00169D01*
G01X01194Y00169D02*
G01X01191Y00167D01*
G01X01191Y00167D02*
G01X01182Y00167D01*
G01X01182Y00167D02*
G01X01180Y00169D01*
G01X01180Y00169D02*
G01X01178Y00170D01*
G01X01178Y00170D02*
G01X01177Y00173D01*
G01X01177Y00173D02*
G01X01177Y00177D01*
G01X01177Y00177D02*
G01X01178Y00180D01*
G01X01178Y00180D02*
G01X01180Y00182D01*
G01X01180Y00182D02*
G01X01182Y00183D01*
G01X01182Y00183D02*
G01X01191Y00183D01*
G01X01191Y00183D02*
G01X01194Y00182D01*
G01X01194Y00182D02*
G01X01195Y00180D01*
G01X01195Y00180D02*
G01X01197Y00177D01*
G01X01197Y00177D02*
G01X01197Y00173D01*
G01X01177Y00209D02*
G01X01197Y00209D01*
G01X01177Y00196D02*
G01X01192Y00196D01*
G01X01192Y00196D02*
G01X01195Y00197D01*
G01X01195Y00197D02*
G01X01197Y00200D01*
G01X01197Y00200D02*
G01X01197Y00204D01*
G01X01197Y00204D02*
G01X01195Y00207D01*
G01X01195Y00207D02*
G01X01194Y00209D01*
G01X01177Y00219D02*
G01X01177Y00230D01*
G01X01167Y00223D02*
G01X01192Y00223D01*
G01X01192Y00223D02*
G01X01195Y00224D01*
G01X01195Y00224D02*
G01X01197Y00227D01*
G01X01197Y00227D02*
G01X01197Y00230D01*
G01X01230Y00039D02*
G01X01232Y00043D01*
G01X01232Y00043D02*
G01X01233Y00044D01*
G01X01233Y00044D02*
G01X01236Y00046D01*
G01X01236Y00046D02*
G01X01240Y00046D01*
G01X01240Y00046D02*
G01X01243Y00044D01*
G01X01243Y00044D02*
G01X01245Y00043D01*
G01X01245Y00043D02*
G01X01246Y00040D01*
G01X01246Y00040D02*
G01X01246Y00029D01*
G01X01246Y00029D02*
G01X01216Y00029D01*
G01X01216Y00029D02*
G01X01216Y00039D01*
G01X01216Y00039D02*
G01X01218Y00042D01*
G01X01218Y00042D02*
G01X01219Y00043D01*
G01X01219Y00043D02*
G01X01222Y00044D01*
G01X01222Y00044D02*
G01X01225Y00044D01*
G01X01225Y00044D02*
G01X01228Y00043D01*
G01X01228Y00043D02*
G01X01229Y00042D01*
G01X01229Y00042D02*
G01X01230Y00039D01*
G01X01230Y00039D02*
G01X01230Y00029D01*
G01X01246Y00073D02*
G01X01246Y00059D01*
G01X01246Y00059D02*
G01X01216Y00059D01*
G01X01246Y00083D02*
G01X01216Y00083D01*
G01X01216Y00083D02*
G01X01246Y00100D01*
G01X01246Y00100D02*
G01X01216Y00100D01*
G01X01246Y00114D02*
G01X01216Y00114D01*
G01X01246Y00132D02*
G01X01229Y00119D01*
G01X01216Y00132D02*
G01X01233Y00114D01*
G01X01216Y00163D02*
G01X01246Y00173D01*
G01X01246Y00173D02*
G01X01216Y00183D01*
G01X01246Y00197D02*
G01X01245Y00194D01*
G01X01245Y00194D02*
G01X01242Y00193D01*
G01X01242Y00193D02*
G01X01216Y00193D01*
G01X01245Y00220D02*
G01X01246Y00217D01*
G01X01246Y00217D02*
G01X01246Y00212D01*
G01X01246Y00212D02*
G01X01245Y00209D01*
G01X01245Y00209D02*
G01X01242Y00207D01*
G01X01242Y00207D02*
G01X01230Y00207D01*
G01X01230Y00207D02*
G01X01228Y00209D01*
G01X01228Y00209D02*
G01X01226Y00212D01*
G01X01226Y00212D02*
G01X01226Y00217D01*
G01X01226Y00217D02*
G01X01228Y00220D01*
G01X01228Y00220D02*
G01X01230Y00222D01*
G01X01230Y00222D02*
G01X01233Y00222D01*
G01X01233Y00222D02*
G01X01236Y00207D01*
G01X01246Y00247D02*
G01X01216Y00247D01*
G01X01245Y00247D02*
G01X01246Y00244D01*
G01X01246Y00244D02*
G01X01246Y00239D01*
G01X01246Y00239D02*
G01X01245Y00236D01*
G01X01245Y00236D02*
G01X01243Y00234D01*
G01X01243Y00234D02*
G01X01240Y00233D01*
G01X01240Y00233D02*
G01X01232Y00233D01*
G01X01232Y00233D02*
G01X01229Y00234D01*
G01X01229Y00234D02*
G01X01228Y00236D01*
G01X01228Y00236D02*
G01X01226Y00239D01*
G01X01226Y00239D02*
G01X01226Y00244D01*
G01X01226Y00244D02*
G01X01228Y00247D01*
G01X01692Y00040D02*
G01X01690Y00037D01*
G01X01690Y00037D02*
G01X01690Y00033D01*
G01X01690Y00033D02*
G01X01692Y00028D01*
G01X01692Y00028D02*
G01X01694Y00026D01*
G01X01694Y00026D02*
G01X01697Y00024D01*
G01X01697Y00024D02*
G01X01703Y00023D01*
G01X01703Y00023D02*
G01X01707Y00023D01*
G01X01707Y00023D02*
G01X01713Y00024D01*
G01X01713Y00024D02*
G01X01716Y00026D01*
G01X01716Y00026D02*
G01X01719Y00028D01*
G01X01719Y00028D02*
G01X01720Y00033D01*
G01X01720Y00033D02*
G01X01720Y00036D01*
G01X01720Y00036D02*
G01X01719Y00040D01*
G01X01719Y00040D02*
G01X01717Y00041D01*
G01X01717Y00041D02*
G01X01707Y00041D01*
G01X01707Y00041D02*
G01X01707Y00036D01*
G01X01719Y00053D02*
G01X01720Y00057D01*
G01X01720Y00057D02*
G01X01720Y00064D01*
G01X01720Y00064D02*
G01X01719Y00067D01*
G01X01719Y00067D02*
G01X01717Y00068D01*
G01X01717Y00068D02*
G01X01714Y00070D01*
G01X01714Y00070D02*
G01X01712Y00070D01*
G01X01712Y00070D02*
G01X01709Y00068D01*
G01X01709Y00068D02*
G01X01707Y00067D01*
G01X01707Y00067D02*
G01X01706Y00064D01*
G01X01706Y00064D02*
G01X01704Y00058D01*
G01X01704Y00058D02*
G01X01703Y00056D01*
G01X01703Y00056D02*
G01X01702Y00054D01*
G01X01702Y00054D02*
G01X01699Y00053D01*
G01X01699Y00053D02*
G01X01696Y00053D01*
G01X01696Y00053D02*
G01X01693Y00054D01*
G01X01693Y00054D02*
G01X01692Y00056D01*
G01X01692Y00056D02*
G01X01690Y00058D01*
G01X01690Y00058D02*
G01X01690Y00066D01*
G01X01690Y00066D02*
G01X01692Y00070D01*
G01X01717Y00100D02*
G01X01719Y00098D01*
G01X01719Y00098D02*
G01X01720Y00094D01*
G01X01720Y00094D02*
G01X01720Y00091D01*
G01X01720Y00091D02*
G01X01719Y00087D01*
G01X01719Y00087D02*
G01X01716Y00084D01*
G01X01716Y00084D02*
G01X01713Y00083D01*
G01X01713Y00083D02*
G01X01707Y00081D01*
G01X01707Y00081D02*
G01X01703Y00081D01*
G01X01703Y00081D02*
G01X01697Y00083D01*
G01X01697Y00083D02*
G01X01694Y00084D01*
G01X01694Y00084D02*
G01X01692Y00087D01*
G01X01692Y00087D02*
G01X01690Y00091D01*
G01X01690Y00091D02*
G01X01690Y00094D01*
G01X01690Y00094D02*
G01X01692Y00098D01*
G01X01692Y00098D02*
G01X01693Y00100D01*
G01X01720Y00127D02*
G01X01720Y00113D01*
G01X01720Y00113D02*
G01X01690Y00113D01*
G01X01720Y00137D02*
G01X01690Y00137D01*
G01X01720Y00154D02*
G01X01703Y00141D01*
G01X01690Y00154D02*
G01X01707Y00137D01*
G01X01690Y00186D02*
G01X01720Y00196D01*
G01X01720Y00196D02*
G01X01690Y00206D01*
G01X01717Y00233D02*
G01X01719Y00231D01*
G01X01719Y00231D02*
G01X01720Y00227D01*
G01X01720Y00227D02*
G01X01720Y00224D01*
G01X01720Y00224D02*
G01X01719Y00220D01*
G01X01719Y00220D02*
G01X01716Y00217D01*
G01X01716Y00217D02*
G01X01713Y00216D01*
G01X01713Y00216D02*
G01X01707Y00214D01*
G01X01707Y00214D02*
G01X01703Y00214D01*
G01X01703Y00214D02*
G01X01697Y00216D01*
G01X01697Y00216D02*
G01X01694Y00217D01*
G01X01694Y00217D02*
G01X01692Y00220D01*
G01X01692Y00220D02*
G01X01690Y00224D01*
G01X01690Y00224D02*
G01X01690Y00227D01*
G01X01690Y00227D02*
G01X01692Y00231D01*
G01X01692Y00231D02*
G01X01693Y00233D01*
G01X01717Y00263D02*
G01X01719Y00261D01*
G01X01719Y00261D02*
G01X01720Y00257D01*
G01X01720Y00257D02*
G01X01720Y00254D01*
G01X01720Y00254D02*
G01X01719Y00250D01*
G01X01719Y00250D02*
G01X01716Y00247D01*
G01X01716Y00247D02*
G01X01713Y00246D01*
G01X01713Y00246D02*
G01X01707Y00244D01*
G01X01707Y00244D02*
G01X01703Y00244D01*
G01X01703Y00244D02*
G01X01697Y00246D01*
G01X01697Y00246D02*
G01X01694Y00247D01*
G01X01694Y00247D02*
G01X01692Y00250D01*
G01X01692Y00250D02*
G01X01690Y00254D01*
G01X01690Y00254D02*
G01X01690Y00257D01*
G01X01690Y00257D02*
G01X01692Y00261D01*
G01X01692Y00261D02*
G01X01693Y00263D01*
G01X01768Y00023D02*
G01X01770Y00027D01*
G01X01770Y00027D02*
G01X01770Y00034D01*
G01X01770Y00034D02*
G01X01768Y00037D01*
G01X01768Y00037D02*
G01X01767Y00038D01*
G01X01767Y00038D02*
G01X01764Y00040D01*
G01X01764Y00040D02*
G01X01761Y00040D01*
G01X01761Y00040D02*
G01X01758Y00038D01*
G01X01758Y00038D02*
G01X01757Y00037D01*
G01X01757Y00037D02*
G01X01755Y00034D01*
G01X01755Y00034D02*
G01X01754Y00028D01*
G01X01754Y00028D02*
G01X01753Y00026D01*
G01X01753Y00026D02*
G01X01751Y00024D01*
G01X01751Y00024D02*
G01X01748Y00023D01*
G01X01748Y00023D02*
G01X01745Y00023D01*
G01X01745Y00023D02*
G01X01743Y00024D01*
G01X01743Y00024D02*
G01X01741Y00026D01*
G01X01741Y00026D02*
G01X01740Y00028D01*
G01X01740Y00028D02*
G01X01740Y00036D01*
G01X01740Y00036D02*
G01X01741Y00040D01*
G01X01767Y00070D02*
G01X01768Y00068D01*
G01X01768Y00068D02*
G01X01770Y00064D01*
G01X01770Y00064D02*
G01X01770Y00061D01*
G01X01770Y00061D02*
G01X01768Y00057D01*
G01X01768Y00057D02*
G01X01765Y00054D01*
G01X01765Y00054D02*
G01X01763Y00053D01*
G01X01763Y00053D02*
G01X01757Y00051D01*
G01X01757Y00051D02*
G01X01753Y00051D01*
G01X01753Y00051D02*
G01X01747Y00053D01*
G01X01747Y00053D02*
G01X01744Y00054D01*
G01X01744Y00054D02*
G01X01741Y00057D01*
G01X01741Y00057D02*
G01X01740Y00061D01*
G01X01740Y00061D02*
G01X01740Y00064D01*
G01X01740Y00064D02*
G01X01741Y00068D01*
G01X01741Y00068D02*
G01X01743Y00070D01*
G01X01770Y00097D02*
G01X01770Y00083D01*
G01X01770Y00083D02*
G01X01740Y00083D01*
G01X01770Y00107D02*
G01X01740Y00107D01*
G01X01770Y00124D02*
G01X01753Y00111D01*
G01X01740Y00124D02*
G01X01757Y00107D01*
G01X01741Y00176D02*
G01X01740Y00173D01*
G01X01740Y00173D02*
G01X01740Y00168D01*
G01X01740Y00168D02*
G01X01741Y00164D01*
G01X01741Y00164D02*
G01X01744Y00161D01*
G01X01744Y00161D02*
G01X01747Y00160D01*
G01X01747Y00160D02*
G01X01753Y00158D01*
G01X01753Y00158D02*
G01X01757Y00158D01*
G01X01757Y00158D02*
G01X01763Y00160D01*
G01X01763Y00160D02*
G01X01765Y00161D01*
G01X01765Y00161D02*
G01X01768Y00164D01*
G01X01768Y00164D02*
G01X01770Y00168D01*
G01X01770Y00168D02*
G01X01770Y00171D01*
G01X01770Y00171D02*
G01X01768Y00176D01*
G01X01768Y00176D02*
G01X01767Y00177D01*
G01X01767Y00177D02*
G01X01757Y00177D01*
G01X01757Y00177D02*
G01X01757Y00171D01*
G01X01770Y00190D02*
G01X01740Y00190D01*
G01X01740Y00190D02*
G01X01770Y00207D01*
G01X01770Y00207D02*
G01X01740Y00207D01*
G01X01770Y00221D02*
G01X01740Y00221D01*
G01X01740Y00221D02*
G01X01740Y00228D01*
G01X01740Y00228D02*
G01X01741Y00233D01*
G01X01741Y00233D02*
G01X01744Y00236D01*
G01X01744Y00236D02*
G01X01747Y00237D01*
G01X01747Y00237D02*
G01X01753Y00238D01*
G01X01753Y00238D02*
G01X01757Y00238D01*
G01X01757Y00238D02*
G01X01763Y00237D01*
G01X01763Y00237D02*
G01X01765Y00236D01*
G01X01765Y00236D02*
G01X01768Y00233D01*
G01X01768Y00233D02*
G01X01770Y00228D01*
G01X01770Y00228D02*
G01X01770Y00221D01*
G54D13*
G01X00596Y01449D02*
G01X00596Y01351D01*
G54D14*
G01X00596Y01351D02*
G01X01304Y01351D01*
G54D13*
G01X01304Y01351D02*
G01X01304Y01449D01*
G54D14*
G01X01304Y01449D02*
G01X00596Y01449D01*
G54D15*
G01X01890Y00324D02*
G01X01890Y00224D01*
G01X01890Y00224D02*
G01X01790Y00224D01*
G01X01780Y00344D02*
G75*
G03X01780Y00344I-0010J00000D01*
G54D16*
G01X01790Y00024D02*
G01X01790Y00324D01*
G01X01990Y00324D02*
G01X01990Y00024D01*
G01X01990Y00024D02*
G01X01790Y00024D01*
G01X01790Y00324D02*
G01X01990Y00324D01*
G54D17*
G01X01150Y00025D02*
G01X00750Y00025D01*
G01X01150Y00125D02*
G01X00750Y00125D01*
G01X00750Y00125D02*
G01X00750Y00025D01*
G01X01150Y00025D02*
G01X01150Y00125D01*
G54D18*
G01X00610Y00020D02*
G01X00510Y00020D01*
G01X00510Y00020D02*
G01X00510Y00320D01*
G01X00510Y00320D02*
G01X00610Y00320D01*
G01X00610Y00320D02*
G01X00610Y00020D01*
G01X00510Y00120D02*
G01X00610Y00120D01*
G01X01377Y00429D02*
G01X01332Y00429D01*
G01X01377Y00647D02*
G01X01333Y00647D01*
G01X01377Y00429D02*
G01X01377Y00647D01*
G01X01289Y00382D02*
G01X01289Y00339D01*
G01X01068Y00381D02*
G01X01068Y00339D01*
G01X01067Y00339D02*
G01X01289Y00338D01*
G01X01069Y00736D02*
G01X01286Y00737D01*
G01X01026Y00667D02*
G01X01026Y00384D01*
G01X01287Y00736D02*
G01X01287Y00695D01*
G01X01051Y00691D02*
G01X01329Y00691D01*
G01X01331Y00383D02*
G01X01331Y00687D01*
G01X01026Y00383D02*
G01X01326Y00383D01*
G01X00981Y00650D02*
G01X00981Y00428D01*
G01X00981Y00428D02*
G01X01026Y00428D01*
G01X01026Y00668D02*
G01X01049Y00691D01*
G01X00981Y00650D02*
G01X01026Y00650D01*
G01X01069Y00691D02*
G01X01069Y00736D01*
G01X01026Y00711D02*
G75*
G03X01026Y00711I-0019J00000D01*
G01X00010Y00020D02*
G01X00010Y00120D01*
G01X00010Y00120D02*
G01X00310Y00120D01*
G01X00310Y00120D02*
G01X00310Y00020D01*
G01X00310Y00020D02*
G01X00010Y00020D01*
G01X00110Y00120D02*
G01X00110Y00020D01*
G01X00010Y00150D02*
G01X00010Y00250D01*
G01X00010Y00250D02*
G01X00310Y00250D01*
G01X00310Y00250D02*
G01X00310Y00150D01*
G01X00310Y00150D02*
G01X00010Y00150D01*
G01X00110Y00250D02*
G01X00110Y00150D01*
G54D19*
G01X00898Y00507D02*
G01X00898Y00515D01*
G01X00839Y00507D02*
G01X00839Y00515D01*
G01X00839Y00389D02*
G01X00839Y00381D01*
G01X00898Y00389D02*
G01X00898Y00381D01*
G01X00839Y00515D02*
G01X00898Y00515D01*
G01X00898Y00381D02*
G01X00839Y00381D01*
G54D20*
G01X01967Y00753D02*
G01X01967Y01143D01*
G01X01967Y01143D02*
G01X01833Y01143D01*
G01X01833Y01143D02*
G01X01833Y01096D01*
G01X01833Y01096D02*
G01X01735Y01096D01*
G01X01735Y01096D02*
G01X01735Y00804D01*
G01X01735Y00804D02*
G01X01829Y00804D01*
G01X01829Y00804D02*
G01X01829Y00753D01*
G01X01829Y00753D02*
G01X01967Y00753D01*
G54D15*
G01X01605Y01350D02*
G01X01605Y01235D01*
G01X01605Y01235D02*
G01X01665Y01235D01*
G01X01665Y01235D02*
G01X01665Y01255D01*
G01X01665Y01255D02*
G01X01740Y01255D01*
G01X01665Y01535D02*
G01X01740Y01535D01*
G01X01665Y01535D02*
G01X01665Y01555D01*
G01X01665Y01555D02*
G01X01605Y01555D01*
G01X01605Y01555D02*
G01X01605Y01455D01*
G01X01860Y01540D02*
G01X01990Y01540D01*
G01X01990Y01540D02*
G01X01990Y01255D01*
G01X01990Y01255D02*
G01X01860Y01255D01*
G54D21*
G01X00809Y00798D02*
G01X00849Y00798D01*
G01X00849Y00798D02*
G01X00849Y00738D01*
G01X00849Y00738D02*
G01X00809Y00738D01*
G01X00769Y00738D02*
G01X00729Y00738D01*
G01X00729Y00738D02*
G01X00729Y00798D01*
G01X00729Y00798D02*
G01X00769Y00798D01*
G01X00918Y01652D02*
G01X00918Y01612D01*
G01X00918Y01612D02*
G01X00858Y01612D01*
G01X00858Y01612D02*
G01X00858Y01652D01*
G01X00858Y01692D02*
G01X00858Y01732D01*
G01X00858Y01732D02*
G01X00918Y01732D01*
G01X00918Y01732D02*
G01X00918Y01692D01*
G01X01490Y00430D02*
G01X01450Y00430D01*
G01X01450Y00430D02*
G01X01450Y00490D01*
G01X01450Y00490D02*
G01X01490Y00490D01*
G01X01530Y00490D02*
G01X01570Y00490D01*
G01X01570Y00490D02*
G01X01570Y00430D01*
G01X01570Y00430D02*
G01X01530Y00430D01*
G01X01430Y01230D02*
G01X01390Y01230D01*
G01X01390Y01230D02*
G01X01390Y01290D01*
G01X01390Y01290D02*
G01X01430Y01290D01*
G01X01470Y01290D02*
G01X01510Y01290D01*
G01X01510Y01290D02*
G01X01510Y01230D01*
G01X01510Y01230D02*
G01X01470Y01230D01*
G01X01810Y00460D02*
G01X01850Y00460D01*
G01X01850Y00460D02*
G01X01850Y00400D01*
G01X01850Y00400D02*
G01X01810Y00400D01*
G01X01770Y00400D02*
G01X01730Y00400D01*
G01X01730Y00400D02*
G01X01730Y00460D01*
G01X01730Y00460D02*
G01X01770Y00460D01*
G01X00920Y00900D02*
G01X00920Y00940D01*
G01X00920Y00940D02*
G01X00980Y00940D01*
G01X00980Y00940D02*
G01X00980Y00900D01*
G01X00980Y00860D02*
G01X00980Y00820D01*
G01X00980Y00820D02*
G01X00920Y00820D01*
G01X00920Y00820D02*
G01X00920Y00860D01*
G01X01490Y00510D02*
G01X01450Y00510D01*
G01X01450Y00510D02*
G01X01450Y00570D01*
G01X01450Y00570D02*
G01X01490Y00570D01*
G01X01530Y00570D02*
G01X01570Y00570D01*
G01X01570Y00570D02*
G01X01570Y00510D01*
G01X01570Y00510D02*
G01X01530Y00510D01*
G01X00839Y00628D02*
G01X00839Y00668D01*
G01X00839Y00668D02*
G01X00899Y00668D01*
G01X00899Y00668D02*
G01X00899Y00628D01*
G01X00899Y00588D02*
G01X00899Y00548D01*
G01X00899Y00548D02*
G01X00839Y00548D01*
G01X00839Y00548D02*
G01X00839Y00588D01*
G01X01700Y01015D02*
G01X01700Y00975D01*
G01X01700Y00975D02*
G01X01640Y00975D01*
G01X01640Y00975D02*
G01X01640Y01015D01*
G01X01640Y01055D02*
G01X01640Y01095D01*
G01X01640Y01095D02*
G01X01700Y01095D01*
G01X01700Y01095D02*
G01X01700Y01055D01*
G01X00729Y00628D02*
G01X00729Y00668D01*
G01X00729Y00668D02*
G01X00789Y00668D01*
G01X00789Y00668D02*
G01X00789Y00628D01*
G01X00789Y00588D02*
G01X00789Y00548D01*
G01X00789Y00548D02*
G01X00729Y00548D01*
G01X00729Y00548D02*
G01X00729Y00588D01*
G01X01080Y00860D02*
G01X01080Y00820D01*
G01X01080Y00820D02*
G01X01020Y00820D01*
G01X01020Y00820D02*
G01X01020Y00860D01*
G01X01020Y00900D02*
G01X01020Y00940D01*
G01X01020Y00940D02*
G01X01080Y00940D01*
G01X01080Y00940D02*
G01X01080Y00900D01*
G01X01720Y01730D02*
G01X01760Y01730D01*
G01X01760Y01730D02*
G01X01760Y01670D01*
G01X01760Y01670D02*
G01X01720Y01670D01*
G01X01680Y01670D02*
G01X01640Y01670D01*
G01X01640Y01670D02*
G01X01640Y01730D01*
G01X01640Y01730D02*
G01X01680Y01730D01*
G54D14*
G01X01880Y01770D02*
G01X01920Y01750D01*
G01X01920Y01750D02*
G01X01880Y01730D01*
G01X01880Y01730D02*
G01X01880Y01770D01*
G54D18*
G01X00010Y00270D02*
G01X00010Y00370D01*
G01X00010Y00370D02*
G01X00310Y00370D01*
G01X00310Y00370D02*
G01X00310Y00270D01*
G01X00310Y00270D02*
G01X00010Y00270D01*
G01X00110Y00370D02*
G01X00110Y00270D01*
G54D17*
G01X01050Y02000D02*
G01X01450Y02000D01*
G01X01050Y01900D02*
G01X01450Y01900D01*
G01X01450Y01900D02*
G01X01450Y02000D01*
G01X01050Y02000D02*
G01X01050Y01900D01*
G54D18*
G01X01982Y01979D02*
G01X01982Y01821D01*
G01X01982Y01821D02*
G01X01518Y01821D01*
G01X01518Y01821D02*
G01X01518Y01979D01*
G01X01518Y01979D02*
G01X01982Y01979D01*
G54D21*
G01X01369Y01190D02*
G75*
G03X01369Y01190I-0014J00000D01*
G01X01465Y01210D02*
G01X01465Y01180D01*
G01X01465Y01180D02*
G01X01415Y01180D01*
G01X01415Y01180D02*
G01X01415Y01210D01*
G01X01335Y00805D02*
G01X01335Y01210D01*
G01X01545Y01210D02*
G01X01545Y00805D01*
G01X01545Y01210D02*
G01X01335Y01210D01*
G01X01545Y00805D02*
G01X01335Y00805D01*
G54D17*
G01X00010Y00390D02*
G01X00010Y00790D01*
G01X00110Y00390D02*
G01X00110Y00790D01*
G01X00110Y00790D02*
G01X00010Y00790D01*
G01X00010Y00390D02*
G01X00110Y00390D01*
G54D14*
G01X01870Y00400D02*
G01X01890Y00440D01*
G01X01890Y00440D02*
G01X01910Y00400D01*
G01X01910Y00400D02*
G01X01870Y00400D01*
G54D18*
G01X02000Y00530D02*
G01X01900Y00530D01*
G01X01900Y00530D02*
G01X01900Y00730D01*
G01X01900Y00730D02*
G01X02000Y00730D01*
G01X02000Y00730D02*
G01X02000Y00530D01*
G54D20*
G01X01598Y01650D02*
G75*
G03X01598Y01650I-0098J00000D01*
G54D21*
G01X00728Y00468D02*
G01X00728Y00508D01*
G01X00728Y00508D02*
G01X00788Y00508D01*
G01X00788Y00508D02*
G01X00788Y00468D01*
G01X00788Y00428D02*
G01X00788Y00388D01*
G01X00788Y00388D02*
G01X00728Y00388D01*
G01X00728Y00388D02*
G01X00728Y00428D01*
G54D11*
G01X01275Y00225D02*
G01X01675Y00225D01*
G01X01675Y00225D02*
G01X01675Y00025D01*
G01X01675Y00025D02*
G01X01275Y00025D01*
G01X01275Y00025D02*
G01X01275Y00225D01*
G54D15*
G01X00590Y00500D02*
G75*
G03X00590Y00500I-0090J00000D01*
G54D16*
G01X00786Y01466D02*
G01X00786Y01506D01*
G01X00786Y01506D02*
G01X00802Y01506D01*
G01X00802Y01506D02*
G01X00806Y01504D01*
G01X00806Y01504D02*
G01X00807Y01502D01*
G01X00807Y01502D02*
G01X00809Y01498D01*
G01X00809Y01498D02*
G01X00809Y01492D01*
G01X00809Y01492D02*
G01X00807Y01489D01*
G01X00807Y01489D02*
G01X00806Y01487D01*
G01X00806Y01487D02*
G01X00802Y01485D01*
G01X00802Y01485D02*
G01X00786Y01485D01*
G01X00832Y01489D02*
G01X00828Y01491D01*
G01X00828Y01491D02*
G01X00826Y01492D01*
G01X00826Y01492D02*
G01X00825Y01496D01*
G01X00825Y01496D02*
G01X00825Y01498D01*
G01X00825Y01498D02*
G01X00826Y01502D01*
G01X00826Y01502D02*
G01X00828Y01504D01*
G01X00828Y01504D02*
G01X00832Y01506D01*
G01X00832Y01506D02*
G01X00840Y01506D01*
G01X00840Y01506D02*
G01X00844Y01504D01*
G01X00844Y01504D02*
G01X00846Y01502D01*
G01X00846Y01502D02*
G01X00847Y01498D01*
G01X00847Y01498D02*
G01X00847Y01496D01*
G01X00847Y01496D02*
G01X00846Y01492D01*
G01X00846Y01492D02*
G01X00844Y01491D01*
G01X00844Y01491D02*
G01X00840Y01489D01*
G01X00840Y01489D02*
G01X00832Y01489D01*
G01X00832Y01489D02*
G01X00828Y01487D01*
G01X00828Y01487D02*
G01X00826Y01485D01*
G01X00826Y01485D02*
G01X00825Y01481D01*
G01X00825Y01481D02*
G01X00825Y01473D01*
G01X00825Y01473D02*
G01X00826Y01470D01*
G01X00826Y01470D02*
G01X00828Y01468D01*
G01X00828Y01468D02*
G01X00832Y01466D01*
G01X00832Y01466D02*
G01X00840Y01466D01*
G01X00840Y01466D02*
G01X00844Y01468D01*
G01X00844Y01468D02*
G01X00846Y01470D01*
G01X00846Y01470D02*
G01X00847Y01473D01*
G01X00847Y01473D02*
G01X00847Y01481D01*
G01X00847Y01481D02*
G01X00846Y01485D01*
G01X00846Y01485D02*
G01X00844Y01487D01*
G01X00844Y01487D02*
G01X00840Y01489D01*
G01X00881Y01472D02*
G01X00887Y01470D01*
G01X00887Y01470D02*
G01X00896Y01470D01*
G01X00896Y01470D02*
G01X00900Y01472D01*
G01X00900Y01472D02*
G01X00902Y01474D01*
G01X00902Y01474D02*
G01X00904Y01477D01*
G01X00904Y01477D02*
G01X00904Y01481D01*
G01X00904Y01481D02*
G01X00902Y01485D01*
G01X00902Y01485D02*
G01X00900Y01487D01*
G01X00900Y01487D02*
G01X00896Y01489D01*
G01X00896Y01489D02*
G01X00889Y01491D01*
G01X00889Y01491D02*
G01X00885Y01493D01*
G01X00885Y01493D02*
G01X00883Y01495D01*
G01X00883Y01495D02*
G01X00881Y01498D01*
G01X00881Y01498D02*
G01X00881Y01502D01*
G01X00881Y01502D02*
G01X00883Y01506D01*
G01X00883Y01506D02*
G01X00885Y01508D01*
G01X00885Y01508D02*
G01X00889Y01510D01*
G01X00889Y01510D02*
G01X00898Y01510D01*
G01X00898Y01510D02*
G01X00904Y01508D01*
G01X00927Y01470D02*
G01X00923Y01472D01*
G01X00923Y01472D02*
G01X00921Y01474D01*
G01X00921Y01474D02*
G01X00919Y01477D01*
G01X00919Y01477D02*
G01X00919Y01489D01*
G01X00919Y01489D02*
G01X00921Y01493D01*
G01X00921Y01493D02*
G01X00923Y01495D01*
G01X00923Y01495D02*
G01X00927Y01496D01*
G01X00927Y01496D02*
G01X00933Y01496D01*
G01X00933Y01496D02*
G01X00936Y01495D01*
G01X00936Y01495D02*
G01X00938Y01493D01*
G01X00938Y01493D02*
G01X00940Y01489D01*
G01X00940Y01489D02*
G01X00940Y01477D01*
G01X00940Y01477D02*
G01X00938Y01474D01*
G01X00938Y01474D02*
G01X00936Y01472D01*
G01X00936Y01472D02*
G01X00933Y01470D01*
G01X00933Y01470D02*
G01X00927Y01470D01*
G01X00957Y01496D02*
G01X00957Y01470D01*
G01X00957Y01493D02*
G01X00959Y01495D01*
G01X00959Y01495D02*
G01X00963Y01496D01*
G01X00963Y01496D02*
G01X00969Y01496D01*
G01X00969Y01496D02*
G01X00973Y01495D01*
G01X00973Y01495D02*
G01X00975Y01491D01*
G01X00975Y01491D02*
G01X00975Y01470D01*
G01X01011Y01470D02*
G01X01011Y01491D01*
G01X01011Y01491D02*
G01X01009Y01495D01*
G01X01009Y01495D02*
G01X01005Y01496D01*
G01X01005Y01496D02*
G01X00997Y01496D01*
G01X00997Y01496D02*
G01X00994Y01495D01*
G01X01011Y01472D02*
G01X01007Y01470D01*
G01X01007Y01470D02*
G01X00997Y01470D01*
G01X00997Y01470D02*
G01X00994Y01472D01*
G01X00994Y01472D02*
G01X00992Y01476D01*
G01X00992Y01476D02*
G01X00992Y01479D01*
G01X00992Y01479D02*
G01X00994Y01483D01*
G01X00994Y01483D02*
G01X00997Y01485D01*
G01X00997Y01485D02*
G01X01007Y01485D01*
G01X01007Y01485D02*
G01X01011Y01487D01*
G01X01030Y01470D02*
G01X01030Y01496D01*
G01X01030Y01489D02*
G01X01032Y01493D01*
G01X01032Y01493D02*
G01X01034Y01495D01*
G01X01034Y01495D02*
G01X01037Y01496D01*
G01X01037Y01496D02*
G01X01041Y01496D01*
G01X01093Y01510D02*
G01X01100Y01510D01*
G01X01100Y01510D02*
G01X01104Y01508D01*
G01X01104Y01508D02*
G01X01108Y01504D01*
G01X01108Y01504D02*
G01X01110Y01496D01*
G01X01110Y01496D02*
G01X01110Y01483D01*
G01X01110Y01483D02*
G01X01108Y01476D01*
G01X01108Y01476D02*
G01X01104Y01472D01*
G01X01104Y01472D02*
G01X01100Y01470D01*
G01X01100Y01470D02*
G01X01093Y01470D01*
G01X01093Y01470D02*
G01X01089Y01472D01*
G01X01089Y01472D02*
G01X01085Y01476D01*
G01X01085Y01476D02*
G01X01083Y01483D01*
G01X01083Y01483D02*
G01X01083Y01496D01*
G01X01083Y01496D02*
G01X01085Y01504D01*
G01X01085Y01504D02*
G01X01089Y01508D01*
G01X01089Y01508D02*
G01X01093Y01510D01*
G01X01144Y01496D02*
G01X01144Y01470D01*
G01X01127Y01496D02*
G01X01127Y01476D01*
G01X01127Y01476D02*
G01X01129Y01472D01*
G01X01129Y01472D02*
G01X01133Y01470D01*
G01X01133Y01470D02*
G01X01138Y01470D01*
G01X01138Y01470D02*
G01X01142Y01472D01*
G01X01142Y01472D02*
G01X01144Y01474D01*
G01X01157Y01496D02*
G01X01173Y01496D01*
G01X01163Y01510D02*
G01X01163Y01476D01*
G01X01163Y01476D02*
G01X01165Y01472D01*
G01X01165Y01472D02*
G01X01169Y01470D01*
G01X01169Y01470D02*
G01X01173Y01470D01*
G54D12*
G01X01025Y01316D02*
G01X01042Y01316D01*
G01X01022Y01306D02*
G01X01033Y01341D01*
G01X01033Y01341D02*
G01X01045Y01306D01*
G01X01073Y01341D02*
G01X01057Y01341D01*
G01X01057Y01341D02*
G01X01055Y01324D01*
G01X01055Y01324D02*
G01X01057Y01326D01*
G01X01057Y01326D02*
G01X01060Y01328D01*
G01X01060Y01328D02*
G01X01068Y01328D01*
G01X01068Y01328D02*
G01X01072Y01326D01*
G01X01072Y01326D02*
G01X01073Y01324D01*
G01X01073Y01324D02*
G01X01075Y01321D01*
G01X01075Y01321D02*
G01X01075Y01313D01*
G01X01075Y01313D02*
G01X01073Y01309D01*
G01X01073Y01309D02*
G01X01072Y01308D01*
G01X01072Y01308D02*
G01X01068Y01306D01*
G01X01068Y01306D02*
G01X01060Y01306D01*
G01X01060Y01306D02*
G01X01057Y01308D01*
G01X01057Y01308D02*
G01X01055Y01309D01*
G01X00610Y01339D02*
G01X00607Y01341D01*
G01X00607Y01341D02*
G01X00602Y01341D01*
G01X00602Y01341D02*
G01X00597Y01339D01*
G01X00597Y01339D02*
G01X00593Y01336D01*
G01X00593Y01336D02*
G01X00592Y01333D01*
G01X00592Y01333D02*
G01X00590Y01326D01*
G01X00590Y01326D02*
G01X00590Y01321D01*
G01X00590Y01321D02*
G01X00592Y01314D01*
G01X00592Y01314D02*
G01X00593Y01311D01*
G01X00593Y01311D02*
G01X00597Y01308D01*
G01X00597Y01308D02*
G01X00602Y01306D01*
G01X00602Y01306D02*
G01X00605Y01306D01*
G01X00605Y01306D02*
G01X00610Y01308D01*
G01X00610Y01308D02*
G01X00612Y01309D01*
G01X00612Y01309D02*
G01X00612Y01321D01*
G01X00612Y01321D02*
G01X00605Y01321D01*
G01X00627Y01306D02*
G01X00627Y01341D01*
G01X00627Y01341D02*
G01X00647Y01306D01*
G01X00647Y01306D02*
G01X00647Y01341D01*
G01X00663Y01306D02*
G01X00663Y01341D01*
G01X00663Y01341D02*
G01X00672Y01341D01*
G01X00672Y01341D02*
G01X00677Y01339D01*
G01X00677Y01339D02*
G01X00680Y01336D01*
G01X00680Y01336D02*
G01X00682Y01333D01*
G01X00682Y01333D02*
G01X00683Y01326D01*
G01X00683Y01326D02*
G01X00683Y01321D01*
G01X00683Y01321D02*
G01X00682Y01314D01*
G01X00682Y01314D02*
G01X00680Y01311D01*
G01X00680Y01311D02*
G01X00677Y01308D01*
G01X00677Y01308D02*
G01X00672Y01306D01*
G01X00672Y01306D02*
G01X00663Y01306D01*
G01X00720Y01341D02*
G01X00732Y01306D01*
G01X00732Y01306D02*
G01X00743Y01341D01*
G01X00775Y01309D02*
G01X00773Y01308D01*
G01X00773Y01308D02*
G01X00768Y01306D01*
G01X00768Y01306D02*
G01X00765Y01306D01*
G01X00765Y01306D02*
G01X00760Y01308D01*
G01X00760Y01308D02*
G01X00757Y01311D01*
G01X00757Y01311D02*
G01X00755Y01314D01*
G01X00755Y01314D02*
G01X00753Y01321D01*
G01X00753Y01321D02*
G01X00753Y01326D01*
G01X00753Y01326D02*
G01X00755Y01333D01*
G01X00755Y01333D02*
G01X00757Y01336D01*
G01X00757Y01336D02*
G01X00760Y01339D01*
G01X00760Y01339D02*
G01X00765Y01341D01*
G01X00765Y01341D02*
G01X00768Y01341D01*
G01X00768Y01341D02*
G01X00773Y01339D01*
G01X00773Y01339D02*
G01X00775Y01338D01*
G01X00810Y01309D02*
G01X00808Y01308D01*
G01X00808Y01308D02*
G01X00803Y01306D01*
G01X00803Y01306D02*
G01X00800Y01306D01*
G01X00800Y01306D02*
G01X00795Y01308D01*
G01X00795Y01308D02*
G01X00792Y01311D01*
G01X00792Y01311D02*
G01X00790Y01314D01*
G01X00790Y01314D02*
G01X00788Y01321D01*
G01X00788Y01321D02*
G01X00788Y01326D01*
G01X00788Y01326D02*
G01X00790Y01333D01*
G01X00790Y01333D02*
G01X00792Y01336D01*
G01X00792Y01336D02*
G01X00795Y01339D01*
G01X00795Y01339D02*
G01X00800Y01341D01*
G01X00800Y01341D02*
G01X00803Y01341D01*
G01X00803Y01341D02*
G01X00808Y01339D01*
G01X00808Y01339D02*
G01X00810Y01338D01*
G54D16*
G01X01909Y00118D02*
G01X01869Y00118D01*
G01X01869Y00118D02*
G01X01869Y00133D01*
G01X01869Y00133D02*
G01X01871Y00137D01*
G01X01871Y00137D02*
G01X01873Y00139D01*
G01X01873Y00139D02*
G01X01876Y00141D01*
G01X01876Y00141D02*
G01X01882Y00141D01*
G01X01882Y00141D02*
G01X01886Y00139D01*
G01X01886Y00139D02*
G01X01888Y00137D01*
G01X01888Y00137D02*
G01X01890Y00133D01*
G01X01890Y00133D02*
G01X01890Y00118D01*
G01X01869Y00154D02*
G01X01869Y00181D01*
G01X01869Y00181D02*
G01X01909Y00164D01*
G01X01673Y00279D02*
G01X01673Y00314D01*
G01X01710Y00282D02*
G01X01708Y00281D01*
G01X01708Y00281D02*
G01X01703Y00279D01*
G01X01703Y00279D02*
G01X01700Y00279D01*
G01X01700Y00279D02*
G01X01695Y00281D01*
G01X01695Y00281D02*
G01X01691Y00284D01*
G01X01691Y00284D02*
G01X01690Y00287D01*
G01X01690Y00287D02*
G01X01688Y00294D01*
G01X01688Y00294D02*
G01X01688Y00299D01*
G01X01688Y00299D02*
G01X01690Y00306D01*
G01X01690Y00306D02*
G01X01691Y00309D01*
G01X01691Y00309D02*
G01X01695Y00312D01*
G01X01695Y00312D02*
G01X01700Y00314D01*
G01X01700Y00314D02*
G01X01703Y00314D01*
G01X01703Y00314D02*
G01X01708Y00312D01*
G01X01708Y00312D02*
G01X01710Y00311D01*
G01X01723Y00281D02*
G01X01728Y00279D01*
G01X01728Y00279D02*
G01X01736Y00279D01*
G01X01736Y00279D02*
G01X01740Y00281D01*
G01X01740Y00281D02*
G01X01741Y00282D01*
G01X01741Y00282D02*
G01X01743Y00286D01*
G01X01743Y00286D02*
G01X01743Y00289D01*
G01X01743Y00289D02*
G01X01741Y00292D01*
G01X01741Y00292D02*
G01X01740Y00294D01*
G01X01740Y00294D02*
G01X01736Y00296D01*
G01X01736Y00296D02*
G01X01730Y00297D01*
G01X01730Y00297D02*
G01X01726Y00299D01*
G01X01726Y00299D02*
G01X01725Y00301D01*
G01X01725Y00301D02*
G01X01723Y00304D01*
G01X01723Y00304D02*
G01X01723Y00307D01*
G01X01723Y00307D02*
G01X01725Y00311D01*
G01X01725Y00311D02*
G01X01726Y00312D01*
G01X01726Y00312D02*
G01X01730Y00314D01*
G01X01730Y00314D02*
G01X01738Y00314D01*
G01X01738Y00314D02*
G01X01743Y00312D01*
G01X01758Y00279D02*
G01X01758Y00314D01*
G01X01758Y00314D02*
G01X01771Y00314D01*
G01X01771Y00314D02*
G01X01775Y00312D01*
G01X01775Y00312D02*
G01X01776Y00311D01*
G01X01776Y00311D02*
G01X01778Y00307D01*
G01X01778Y00307D02*
G01X01778Y00302D01*
G01X01778Y00302D02*
G01X01776Y00299D01*
G01X01776Y00299D02*
G01X01775Y00297D01*
G01X01775Y00297D02*
G01X01771Y00296D01*
G01X01771Y00296D02*
G01X01758Y00296D01*
G01X00736Y00045D02*
G01X00696Y00045D01*
G01X00696Y00045D02*
G01X00696Y00061D01*
G01X00696Y00061D02*
G01X00698Y00065D01*
G01X00698Y00065D02*
G01X00700Y00066D01*
G01X00700Y00066D02*
G01X00704Y00068D01*
G01X00704Y00068D02*
G01X00710Y00068D01*
G01X00710Y00068D02*
G01X00713Y00066D01*
G01X00713Y00066D02*
G01X00715Y00065D01*
G01X00715Y00065D02*
G01X00717Y00061D01*
G01X00717Y00061D02*
G01X00717Y00045D01*
G01X00710Y00103D02*
G01X00736Y00103D01*
G01X00694Y00093D02*
G01X00723Y00084D01*
G01X00723Y00084D02*
G01X00723Y00108D01*
G01X00782Y00151D02*
G01X00782Y00186D01*
G01X00782Y00186D02*
G01X00790Y00186D01*
G01X00790Y00186D02*
G01X00795Y00184D01*
G01X00795Y00184D02*
G01X00798Y00181D01*
G01X00798Y00181D02*
G01X00800Y00178D01*
G01X00800Y00178D02*
G01X00802Y00171D01*
G01X00802Y00171D02*
G01X00802Y00166D01*
G01X00802Y00166D02*
G01X00800Y00159D01*
G01X00800Y00159D02*
G01X00798Y00156D01*
G01X00798Y00156D02*
G01X00795Y00153D01*
G01X00795Y00153D02*
G01X00790Y00151D01*
G01X00790Y00151D02*
G01X00782Y00151D01*
G01X00833Y00186D02*
G01X00817Y00186D01*
G01X00817Y00186D02*
G01X00815Y00169D01*
G01X00815Y00169D02*
G01X00817Y00171D01*
G01X00817Y00171D02*
G01X00820Y00173D01*
G01X00820Y00173D02*
G01X00828Y00173D01*
G01X00828Y00173D02*
G01X00832Y00171D01*
G01X00832Y00171D02*
G01X00833Y00169D01*
G01X00833Y00169D02*
G01X00835Y00166D01*
G01X00835Y00166D02*
G01X00835Y00158D01*
G01X00835Y00158D02*
G01X00833Y00154D01*
G01X00833Y00154D02*
G01X00832Y00153D01*
G01X00832Y00153D02*
G01X00828Y00151D01*
G01X00828Y00151D02*
G01X00820Y00151D01*
G01X00820Y00151D02*
G01X00817Y00153D01*
G01X00817Y00153D02*
G01X00815Y00154D01*
G01X00877Y00151D02*
G01X00877Y00186D01*
G01X00877Y00186D02*
G01X00885Y00186D01*
G01X00885Y00186D02*
G01X00890Y00184D01*
G01X00890Y00184D02*
G01X00893Y00181D01*
G01X00893Y00181D02*
G01X00895Y00178D01*
G01X00895Y00178D02*
G01X00897Y00171D01*
G01X00897Y00171D02*
G01X00897Y00166D01*
G01X00897Y00166D02*
G01X00895Y00159D01*
G01X00895Y00159D02*
G01X00893Y00156D01*
G01X00893Y00156D02*
G01X00890Y00153D01*
G01X00890Y00153D02*
G01X00885Y00151D01*
G01X00885Y00151D02*
G01X00877Y00151D01*
G01X00927Y00186D02*
G01X00920Y00186D01*
G01X00920Y00186D02*
G01X00917Y00184D01*
G01X00917Y00184D02*
G01X00915Y00183D01*
G01X00915Y00183D02*
G01X00912Y00178D01*
G01X00912Y00178D02*
G01X00910Y00171D01*
G01X00910Y00171D02*
G01X00910Y00158D01*
G01X00910Y00158D02*
G01X00912Y00154D01*
G01X00912Y00154D02*
G01X00913Y00153D01*
G01X00913Y00153D02*
G01X00917Y00151D01*
G01X00917Y00151D02*
G01X00923Y00151D01*
G01X00923Y00151D02*
G01X00927Y00153D01*
G01X00927Y00153D02*
G01X00928Y00154D01*
G01X00928Y00154D02*
G01X00930Y00158D01*
G01X00930Y00158D02*
G01X00930Y00166D01*
G01X00930Y00166D02*
G01X00928Y00169D01*
G01X00928Y00169D02*
G01X00927Y00171D01*
G01X00927Y00171D02*
G01X00923Y00173D01*
G01X00923Y00173D02*
G01X00917Y00173D01*
G01X00917Y00173D02*
G01X00913Y00171D01*
G01X00913Y00171D02*
G01X00912Y00169D01*
G01X00912Y00169D02*
G01X00910Y00166D01*
G01X00972Y00151D02*
G01X00972Y00186D01*
G01X00972Y00186D02*
G01X00980Y00186D01*
G01X00980Y00186D02*
G01X00985Y00184D01*
G01X00985Y00184D02*
G01X00988Y00181D01*
G01X00988Y00181D02*
G01X00990Y00178D01*
G01X00990Y00178D02*
G01X00992Y00171D01*
G01X00992Y00171D02*
G01X00992Y00166D01*
G01X00992Y00166D02*
G01X00990Y00159D01*
G01X00990Y00159D02*
G01X00988Y00156D01*
G01X00988Y00156D02*
G01X00985Y00153D01*
G01X00985Y00153D02*
G01X00980Y00151D01*
G01X00980Y00151D02*
G01X00972Y00151D01*
G01X01003Y00186D02*
G01X01027Y00186D01*
G01X01027Y00186D02*
G01X01012Y00151D01*
G01X01067Y00151D02*
G01X01067Y00186D01*
G01X01067Y00186D02*
G01X01075Y00186D01*
G01X01075Y00186D02*
G01X01080Y00184D01*
G01X01080Y00184D02*
G01X01083Y00181D01*
G01X01083Y00181D02*
G01X01085Y00178D01*
G01X01085Y00178D02*
G01X01087Y00171D01*
G01X01087Y00171D02*
G01X01087Y00166D01*
G01X01087Y00166D02*
G01X01085Y00159D01*
G01X01085Y00159D02*
G01X01083Y00156D01*
G01X01083Y00156D02*
G01X01080Y00153D01*
G01X01080Y00153D02*
G01X01075Y00151D01*
G01X01075Y00151D02*
G01X01067Y00151D01*
G01X01107Y00171D02*
G01X01103Y00173D01*
G01X01103Y00173D02*
G01X01102Y00174D01*
G01X01102Y00174D02*
G01X01100Y00178D01*
G01X01100Y00178D02*
G01X01100Y00179D01*
G01X01100Y00179D02*
G01X01102Y00183D01*
G01X01102Y00183D02*
G01X01103Y00184D01*
G01X01103Y00184D02*
G01X01107Y00186D01*
G01X01107Y00186D02*
G01X01113Y00186D01*
G01X01113Y00186D02*
G01X01117Y00184D01*
G01X01117Y00184D02*
G01X01118Y00183D01*
G01X01118Y00183D02*
G01X01120Y00179D01*
G01X01120Y00179D02*
G01X01120Y00178D01*
G01X01120Y00178D02*
G01X01118Y00174D01*
G01X01118Y00174D02*
G01X01117Y00173D01*
G01X01117Y00173D02*
G01X01113Y00171D01*
G01X01113Y00171D02*
G01X01107Y00171D01*
G01X01107Y00171D02*
G01X01103Y00169D01*
G01X01103Y00169D02*
G01X01102Y00168D01*
G01X01102Y00168D02*
G01X01100Y00164D01*
G01X01100Y00164D02*
G01X01100Y00158D01*
G01X01100Y00158D02*
G01X01102Y00154D01*
G01X01102Y00154D02*
G01X01103Y00153D01*
G01X01103Y00153D02*
G01X01107Y00151D01*
G01X01107Y00151D02*
G01X01113Y00151D01*
G01X01113Y00151D02*
G01X01117Y00153D01*
G01X01117Y00153D02*
G01X01118Y00154D01*
G01X01118Y00154D02*
G01X01120Y00158D01*
G01X01120Y00158D02*
G01X01120Y00164D01*
G01X01120Y00164D02*
G01X01118Y00168D01*
G01X01118Y00168D02*
G01X01117Y00169D01*
G01X01117Y00169D02*
G01X01113Y00171D01*
G54D18*
G01X00576Y00330D02*
G01X00536Y00330D01*
G01X00576Y00353D02*
G01X00553Y00336D01*
G01X00536Y00353D02*
G01X00559Y00330D01*
G01X00576Y00391D02*
G01X00576Y00369D01*
G01X00576Y00380D02*
G01X00536Y00380D01*
G01X00536Y00380D02*
G01X00542Y00376D01*
G01X00542Y00376D02*
G01X00546Y00372D01*
G01X00546Y00372D02*
G01X00548Y00369D01*
G01X00451Y00025D02*
G01X00491Y00039D01*
G01X00491Y00039D02*
G01X00451Y00052D01*
G01X00495Y00056D02*
G01X00495Y00086D01*
G01X00491Y00115D02*
G01X00491Y00096D01*
G01X00491Y00096D02*
G01X00451Y00096D01*
G01X00470Y00128D02*
G01X00470Y00141D01*
G01X00491Y00147D02*
G01X00491Y00128D01*
G01X00491Y00128D02*
G01X00451Y00128D01*
G01X00451Y00128D02*
G01X00451Y00147D01*
G01X00491Y00164D02*
G01X00451Y00164D01*
G01X00451Y00164D02*
G01X00451Y00174D01*
G01X00451Y00174D02*
G01X00453Y00180D01*
G01X00453Y00180D02*
G01X00457Y00183D01*
G01X00457Y00183D02*
G01X00461Y00185D01*
G01X00461Y00185D02*
G01X00468Y00187D01*
G01X00468Y00187D02*
G01X00474Y00187D01*
G01X00474Y00187D02*
G01X00482Y00185D01*
G01X00482Y00185D02*
G01X00485Y00183D01*
G01X00485Y00183D02*
G01X00489Y00180D01*
G01X00489Y00180D02*
G01X00491Y00174D01*
G01X00491Y00174D02*
G01X00491Y00164D01*
G01X00489Y00233D02*
G01X00491Y00239D01*
G01X00491Y00239D02*
G01X00491Y00248D01*
G01X00491Y00248D02*
G01X00489Y00252D01*
G01X00489Y00252D02*
G01X00487Y00254D01*
G01X00487Y00254D02*
G01X00484Y00256D01*
G01X00484Y00256D02*
G01X00480Y00256D01*
G01X00480Y00256D02*
G01X00476Y00254D01*
G01X00476Y00254D02*
G01X00474Y00252D01*
G01X00474Y00252D02*
G01X00472Y00248D01*
G01X00472Y00248D02*
G01X00470Y00240D01*
G01X00470Y00240D02*
G01X00468Y00237D01*
G01X00468Y00237D02*
G01X00466Y00235D01*
G01X00466Y00235D02*
G01X00463Y00233D01*
G01X00463Y00233D02*
G01X00459Y00233D01*
G01X00459Y00233D02*
G01X00455Y00235D01*
G01X00455Y00235D02*
G01X00453Y00237D01*
G01X00453Y00237D02*
G01X00451Y00240D01*
G01X00451Y00240D02*
G01X00451Y00250D01*
G01X00451Y00250D02*
G01X00453Y00256D01*
G01X00489Y00288D02*
G01X00491Y00284D01*
G01X00491Y00284D02*
G01X00491Y00277D01*
G01X00491Y00277D02*
G01X00489Y00273D01*
G01X00489Y00273D02*
G01X00485Y00271D01*
G01X00485Y00271D02*
G01X00470Y00271D01*
G01X00470Y00271D02*
G01X00466Y00273D01*
G01X00466Y00273D02*
G01X00465Y00277D01*
G01X00465Y00277D02*
G01X00465Y00284D01*
G01X00465Y00284D02*
G01X00466Y00288D01*
G01X00466Y00288D02*
G01X00470Y00290D01*
G01X00470Y00290D02*
G01X00474Y00290D01*
G01X00474Y00290D02*
G01X00478Y00271D01*
G01X00491Y00313D02*
G01X00489Y00309D01*
G01X00489Y00309D02*
G01X00485Y00307D01*
G01X00485Y00307D02*
G01X00451Y00307D01*
G54D16*
G01X00654Y00035D02*
G01X00654Y00015D01*
G01X00654Y00025D02*
G01X00619Y00025D01*
G01X00619Y00025D02*
G01X00624Y00022D01*
G01X00624Y00022D02*
G01X00628Y00018D01*
G01X00628Y00018D02*
G01X00629Y00015D01*
G01X00623Y00048D02*
G01X00621Y00050D01*
G01X00621Y00050D02*
G01X00619Y00053D01*
G01X00619Y00053D02*
G01X00619Y00062D01*
G01X00619Y00062D02*
G01X00621Y00065D01*
G01X00621Y00065D02*
G01X00623Y00067D01*
G01X00623Y00067D02*
G01X00626Y00068D01*
G01X00626Y00068D02*
G01X00629Y00068D01*
G01X00629Y00068D02*
G01X00634Y00067D01*
G01X00634Y00067D02*
G01X00654Y00047D01*
G01X00654Y00047D02*
G01X00654Y00068D01*
G01X00619Y00078D02*
G01X00654Y00090D01*
G01X00654Y00090D02*
G01X00619Y00102D01*
G01X00619Y00135D02*
G01X00654Y00147D01*
G01X00654Y00147D02*
G01X00619Y00158D01*
G01X00654Y00175D02*
G01X00653Y00172D01*
G01X00653Y00172D02*
G01X00649Y00170D01*
G01X00649Y00170D02*
G01X00619Y00170D01*
G01X00653Y00202D02*
G01X00654Y00198D01*
G01X00654Y00198D02*
G01X00654Y00192D01*
G01X00654Y00192D02*
G01X00653Y00188D01*
G01X00653Y00188D02*
G01X00649Y00187D01*
G01X00649Y00187D02*
G01X00636Y00187D01*
G01X00636Y00187D02*
G01X00633Y00188D01*
G01X00633Y00188D02*
G01X00631Y00192D01*
G01X00631Y00192D02*
G01X00631Y00198D01*
G01X00631Y00198D02*
G01X00633Y00202D01*
G01X00633Y00202D02*
G01X00636Y00203D01*
G01X00636Y00203D02*
G01X00639Y00203D01*
G01X00639Y00203D02*
G01X00643Y00187D01*
G01X00654Y00233D02*
G01X00619Y00233D01*
G01X00653Y00233D02*
G01X00654Y00230D01*
G01X00654Y00230D02*
G01X00654Y00223D01*
G01X00654Y00223D02*
G01X00653Y00220D01*
G01X00653Y00220D02*
G01X00651Y00218D01*
G01X00651Y00218D02*
G01X00648Y00217D01*
G01X00648Y00217D02*
G01X00638Y00217D01*
G01X00638Y00217D02*
G01X00634Y00218D01*
G01X00634Y00218D02*
G01X00633Y00220D01*
G01X00633Y00220D02*
G01X00631Y00223D01*
G01X00631Y00223D02*
G01X00631Y00230D01*
G01X00631Y00230D02*
G01X00633Y00233D01*
G01X00619Y00293D02*
G01X00619Y00277D01*
G01X00619Y00277D02*
G01X00636Y00275D01*
G01X00636Y00275D02*
G01X00634Y00277D01*
G01X00634Y00277D02*
G01X00633Y00280D01*
G01X00633Y00280D02*
G01X00633Y00288D01*
G01X00633Y00288D02*
G01X00634Y00292D01*
G01X00634Y00292D02*
G01X00636Y00293D01*
G01X00636Y00293D02*
G01X00639Y00295D01*
G01X00639Y00295D02*
G01X00648Y00295D01*
G01X00648Y00295D02*
G01X00651Y00293D01*
G01X00651Y00293D02*
G01X00653Y00292D01*
G01X00653Y00292D02*
G01X00654Y00288D01*
G01X00654Y00288D02*
G01X00654Y00280D01*
G01X00654Y00280D02*
G01X00653Y00277D01*
G01X00653Y00277D02*
G01X00651Y00275D01*
G01X00619Y00305D02*
G01X00654Y00317D01*
G01X00654Y00317D02*
G01X00619Y00328D01*
G54D11*
G01X00594Y01971D02*
G01X00614Y01911D01*
G01X00614Y01911D02*
G01X00634Y01971D01*
G01X00688Y01911D02*
G01X00668Y01939D01*
G01X00654Y01911D02*
G01X00654Y01971D01*
G01X00654Y01971D02*
G01X00677Y01971D01*
G01X00677Y01971D02*
G01X00683Y01968D01*
G01X00683Y01968D02*
G01X00685Y01965D01*
G01X00685Y01965D02*
G01X00688Y01959D01*
G01X00688Y01959D02*
G01X00688Y01951D01*
G01X00688Y01951D02*
G01X00685Y01945D01*
G01X00685Y01945D02*
G01X00683Y01942D01*
G01X00683Y01942D02*
G01X00677Y01939D01*
G01X00677Y01939D02*
G01X00654Y01939D01*
G01X00745Y01911D02*
G01X00711Y01911D01*
G01X00728Y01911D02*
G01X00728Y01971D01*
G01X00728Y01971D02*
G01X00723Y01962D01*
G01X00723Y01962D02*
G01X00717Y01956D01*
G01X00717Y01956D02*
G01X00711Y01954D01*
G54D16*
G01X00948Y00310D02*
G01X00948Y00360D01*
G01X00990Y00315D02*
G01X00988Y00312D01*
G01X00988Y00312D02*
G01X00983Y00310D01*
G01X00983Y00310D02*
G01X00979Y00310D01*
G01X00979Y00310D02*
G01X00973Y00312D01*
G01X00973Y00312D02*
G01X00969Y00317D01*
G01X00969Y00317D02*
G01X00968Y00322D01*
G01X00968Y00322D02*
G01X00966Y00331D01*
G01X00966Y00331D02*
G01X00966Y00338D01*
G01X00966Y00338D02*
G01X00968Y00348D01*
G01X00968Y00348D02*
G01X00969Y00353D01*
G01X00969Y00353D02*
G01X00973Y00357D01*
G01X00973Y00357D02*
G01X00979Y00360D01*
G01X00979Y00360D02*
G01X00983Y00360D01*
G01X00983Y00360D02*
G01X00988Y00357D01*
G01X00988Y00357D02*
G01X00990Y00355D01*
G01X01028Y00310D02*
G01X01006Y00310D01*
G01X01017Y00310D02*
G01X01017Y00360D01*
G01X01017Y00360D02*
G01X01013Y00353D01*
G01X01013Y00353D02*
G01X01009Y00348D01*
G01X01009Y00348D02*
G01X01006Y00345D01*
G54D18*
G01X00320Y00074D02*
G01X00320Y00114D01*
G01X00343Y00074D02*
G01X00326Y00097D01*
G01X00343Y00114D02*
G01X00320Y00091D01*
G01X00359Y00110D02*
G01X00360Y00112D01*
G01X00360Y00112D02*
G01X00364Y00114D01*
G01X00364Y00114D02*
G01X00374Y00114D01*
G01X00374Y00114D02*
G01X00378Y00112D01*
G01X00378Y00112D02*
G01X00380Y00110D01*
G01X00380Y00110D02*
G01X00381Y00106D01*
G01X00381Y00106D02*
G01X00381Y00102D01*
G01X00381Y00102D02*
G01X00380Y00097D01*
G01X00380Y00097D02*
G01X00357Y00074D01*
G01X00357Y00074D02*
G01X00381Y00074D01*
G01X00335Y00024D02*
G01X00312Y00024D01*
G01X00324Y00024D02*
G01X00324Y00064D01*
G01X00324Y00064D02*
G01X00320Y00058D01*
G01X00320Y00058D02*
G01X00316Y00054D01*
G01X00316Y00054D02*
G01X00312Y00052D01*
G01X00350Y00060D02*
G01X00352Y00062D01*
G01X00352Y00062D02*
G01X00356Y00064D01*
G01X00356Y00064D02*
G01X00366Y00064D01*
G01X00366Y00064D02*
G01X00370Y00062D01*
G01X00370Y00062D02*
G01X00371Y00060D01*
G01X00371Y00060D02*
G01X00373Y00056D01*
G01X00373Y00056D02*
G01X00373Y00052D01*
G01X00373Y00052D02*
G01X00371Y00047D01*
G01X00371Y00047D02*
G01X00349Y00024D01*
G01X00349Y00024D02*
G01X00373Y00024D01*
G01X00385Y00064D02*
G01X00398Y00024D01*
G01X00398Y00024D02*
G01X00411Y00064D01*
G01X00320Y00214D02*
G01X00320Y00254D01*
G01X00343Y00214D02*
G01X00326Y00237D01*
G01X00343Y00254D02*
G01X00320Y00231D01*
G01X00357Y00254D02*
G01X00381Y00254D01*
G01X00381Y00254D02*
G01X00368Y00239D01*
G01X00368Y00239D02*
G01X00374Y00239D01*
G01X00374Y00239D02*
G01X00378Y00237D01*
G01X00378Y00237D02*
G01X00380Y00235D01*
G01X00380Y00235D02*
G01X00381Y00231D01*
G01X00381Y00231D02*
G01X00381Y00221D01*
G01X00381Y00221D02*
G01X00380Y00218D01*
G01X00380Y00218D02*
G01X00378Y00216D01*
G01X00378Y00216D02*
G01X00374Y00214D01*
G01X00374Y00214D02*
G01X00362Y00214D01*
G01X00362Y00214D02*
G01X00359Y00216D01*
G01X00359Y00216D02*
G01X00357Y00218D01*
G01X00342Y00194D02*
G01X00323Y00194D01*
G01X00323Y00194D02*
G01X00321Y00175D01*
G01X00321Y00175D02*
G01X00323Y00177D01*
G01X00323Y00177D02*
G01X00327Y00179D01*
G01X00327Y00179D02*
G01X00337Y00179D01*
G01X00337Y00179D02*
G01X00340Y00177D01*
G01X00340Y00177D02*
G01X00342Y00175D01*
G01X00342Y00175D02*
G01X00344Y00171D01*
G01X00344Y00171D02*
G01X00344Y00161D01*
G01X00344Y00161D02*
G01X00342Y00158D01*
G01X00342Y00158D02*
G01X00340Y00156D01*
G01X00340Y00156D02*
G01X00337Y00154D01*
G01X00337Y00154D02*
G01X00327Y00154D01*
G01X00327Y00154D02*
G01X00323Y00156D01*
G01X00323Y00156D02*
G01X00321Y00158D01*
G01X00356Y00194D02*
G01X00369Y00154D01*
G01X00369Y00154D02*
G01X00382Y00194D01*
G54D12*
G01X00847Y00326D02*
G01X00877Y00346D01*
G01X00847Y00346D02*
G01X00877Y00326D01*
G01X00877Y00373D02*
G01X00877Y00356D01*
G01X00877Y00364D02*
G01X00847Y00364D01*
G01X00847Y00364D02*
G01X00851Y00361D01*
G01X00851Y00361D02*
G01X00854Y00359D01*
G01X00854Y00359D02*
G01X00856Y00356D01*
G54D21*
G01X01856Y01370D02*
G01X01816Y01370D01*
G01X01816Y01370D02*
G01X01816Y01386D01*
G01X01816Y01386D02*
G01X01818Y01390D01*
G01X01818Y01390D02*
G01X01820Y01391D01*
G01X01820Y01391D02*
G01X01824Y01393D01*
G01X01824Y01393D02*
G01X01830Y01393D01*
G01X01830Y01393D02*
G01X01833Y01391D01*
G01X01833Y01391D02*
G01X01835Y01390D01*
G01X01835Y01390D02*
G01X01837Y01386D01*
G01X01837Y01386D02*
G01X01837Y01370D01*
G01X01856Y01431D02*
G01X01856Y01409D01*
G01X01856Y01420D02*
G01X01816Y01420D01*
G01X01816Y01420D02*
G01X01822Y01416D01*
G01X01822Y01416D02*
G01X01826Y01412D01*
G01X01826Y01412D02*
G01X01828Y01409D01*
G01X00691Y00760D02*
G01X00683Y00772D01*
G01X00677Y00760D02*
G01X00677Y00785D01*
G01X00677Y00785D02*
G01X00686Y00785D01*
G01X00686Y00785D02*
G01X00688Y00784D01*
G01X00688Y00784D02*
G01X00690Y00783D01*
G01X00690Y00783D02*
G01X00691Y00780D01*
G01X00691Y00780D02*
G01X00691Y00777D01*
G01X00691Y00777D02*
G01X00690Y00774D01*
G01X00690Y00774D02*
G01X00688Y00773D01*
G01X00688Y00773D02*
G01X00686Y00772D01*
G01X00686Y00772D02*
G01X00677Y00772D01*
G01X00700Y00783D02*
G01X00702Y00784D01*
G01X00702Y00784D02*
G01X00704Y00785D01*
G01X00704Y00785D02*
G01X00710Y00785D01*
G01X00710Y00785D02*
G01X00712Y00784D01*
G01X00712Y00784D02*
G01X00713Y00783D01*
G01X00713Y00783D02*
G01X00715Y00780D01*
G01X00715Y00780D02*
G01X00715Y00778D01*
G01X00715Y00778D02*
G01X00713Y00774D01*
G01X00713Y00774D02*
G01X00699Y00760D01*
G01X00699Y00760D02*
G01X00715Y00760D01*
G01X00895Y01767D02*
G01X00896Y01766D01*
G01X00896Y01766D02*
G01X00898Y01763D01*
G01X00898Y01763D02*
G01X00898Y01760D01*
G01X00898Y01760D02*
G01X00896Y01757D01*
G01X00896Y01757D02*
G01X00894Y01754D01*
G01X00894Y01754D02*
G01X00892Y01753D01*
G01X00892Y01753D02*
G01X00887Y01752D01*
G01X00887Y01752D02*
G01X00883Y01752D01*
G01X00883Y01752D02*
G01X00879Y01753D01*
G01X00879Y01753D02*
G01X00876Y01754D01*
G01X00876Y01754D02*
G01X00874Y01757D01*
G01X00874Y01757D02*
G01X00873Y01760D01*
G01X00873Y01760D02*
G01X00873Y01763D01*
G01X00873Y01763D02*
G01X00874Y01766D01*
G01X00874Y01766D02*
G01X00875Y01767D01*
G01X00875Y01777D02*
G01X00874Y01778D01*
G01X00874Y01778D02*
G01X00873Y01780D01*
G01X00873Y01780D02*
G01X00873Y01786D01*
G01X00873Y01786D02*
G01X00874Y01789D01*
G01X00874Y01789D02*
G01X00875Y01790D01*
G01X00875Y01790D02*
G01X00877Y01791D01*
G01X00877Y01791D02*
G01X00880Y01791D01*
G01X00880Y01791D02*
G01X00883Y01790D01*
G01X00883Y01790D02*
G01X00898Y01776D01*
G01X00898Y01776D02*
G01X00898Y01791D01*
G01X01591Y00445D02*
G01X01590Y00444D01*
G01X01590Y00444D02*
G01X01586Y00442D01*
G01X01586Y00442D02*
G01X01584Y00442D01*
G01X01584Y00442D02*
G01X01580Y00444D01*
G01X01580Y00444D02*
G01X01578Y00446D01*
G01X01578Y00446D02*
G01X01577Y00448D01*
G01X01577Y00448D02*
G01X01575Y00453D01*
G01X01575Y00453D02*
G01X01575Y00457D01*
G01X01575Y00457D02*
G01X01577Y00461D01*
G01X01577Y00461D02*
G01X01578Y00464D01*
G01X01578Y00464D02*
G01X01580Y00466D01*
G01X01580Y00466D02*
G01X01584Y00467D01*
G01X01584Y00467D02*
G01X01586Y00467D01*
G01X01586Y00467D02*
G01X01590Y00466D01*
G01X01590Y00466D02*
G01X01591Y00465D01*
G01X01599Y00467D02*
G01X01615Y00467D01*
G01X01615Y00467D02*
G01X01606Y00458D01*
G01X01606Y00458D02*
G01X01610Y00458D01*
G01X01610Y00458D02*
G01X01612Y00457D01*
G01X01612Y00457D02*
G01X01613Y00455D01*
G01X01613Y00455D02*
G01X01615Y00453D01*
G01X01615Y00453D02*
G01X01615Y00447D01*
G01X01615Y00447D02*
G01X01613Y00445D01*
G01X01613Y00445D02*
G01X01612Y00444D01*
G01X01612Y00444D02*
G01X01610Y00442D01*
G01X01610Y00442D02*
G01X01603Y00442D01*
G01X01603Y00442D02*
G01X01600Y00444D01*
G01X01600Y00444D02*
G01X01599Y00445D01*
G01X01353Y01255D02*
G01X01352Y01254D01*
G01X01352Y01254D02*
G01X01349Y01252D01*
G01X01349Y01252D02*
G01X01346Y01252D01*
G01X01346Y01252D02*
G01X01343Y01254D01*
G01X01343Y01254D02*
G01X01340Y01256D01*
G01X01340Y01256D02*
G01X01339Y01258D01*
G01X01339Y01258D02*
G01X01338Y01263D01*
G01X01338Y01263D02*
G01X01338Y01267D01*
G01X01338Y01267D02*
G01X01339Y01271D01*
G01X01339Y01271D02*
G01X01340Y01274D01*
G01X01340Y01274D02*
G01X01343Y01276D01*
G01X01343Y01276D02*
G01X01346Y01277D01*
G01X01346Y01277D02*
G01X01349Y01277D01*
G01X01349Y01277D02*
G01X01352Y01276D01*
G01X01352Y01276D02*
G01X01353Y01275D01*
G01X01377Y01252D02*
G01X01363Y01252D01*
G01X01370Y01252D02*
G01X01370Y01277D01*
G01X01370Y01277D02*
G01X01368Y01274D01*
G01X01368Y01274D02*
G01X01365Y01271D01*
G01X01365Y01271D02*
G01X01363Y01270D01*
G01X01791Y00480D02*
G01X01783Y00492D01*
G01X01777Y00480D02*
G01X01777Y00505D01*
G01X01777Y00505D02*
G01X01786Y00505D01*
G01X01786Y00505D02*
G01X01788Y00504D01*
G01X01788Y00504D02*
G01X01790Y00502D01*
G01X01790Y00502D02*
G01X01791Y00500D01*
G01X01791Y00500D02*
G01X01791Y00497D01*
G01X01791Y00497D02*
G01X01790Y00494D01*
G01X01790Y00494D02*
G01X01788Y00493D01*
G01X01788Y00493D02*
G01X01786Y00492D01*
G01X01786Y00492D02*
G01X01777Y00492D01*
G01X01813Y00505D02*
G01X01802Y00505D01*
G01X01802Y00505D02*
G01X01800Y00493D01*
G01X01800Y00493D02*
G01X01802Y00494D01*
G01X01802Y00494D02*
G01X01804Y00495D01*
G01X01804Y00495D02*
G01X01810Y00495D01*
G01X01810Y00495D02*
G01X01812Y00494D01*
G01X01812Y00494D02*
G01X01813Y00493D01*
G01X01813Y00493D02*
G01X01815Y00491D01*
G01X01815Y00491D02*
G01X01815Y00485D01*
G01X01815Y00485D02*
G01X01813Y00482D01*
G01X01813Y00482D02*
G01X01812Y00481D01*
G01X01812Y00481D02*
G01X01810Y00480D01*
G01X01810Y00480D02*
G01X01804Y00480D01*
G01X01804Y00480D02*
G01X01802Y00481D01*
G01X01802Y00481D02*
G01X01800Y00482D01*
G01X00961Y00973D02*
G01X00949Y00965D01*
G01X00961Y00959D02*
G01X00936Y00959D01*
G01X00936Y00959D02*
G01X00936Y00969D01*
G01X00936Y00969D02*
G01X00937Y00971D01*
G01X00937Y00971D02*
G01X00939Y00972D01*
G01X00939Y00972D02*
G01X00941Y00973D01*
G01X00941Y00973D02*
G01X00944Y00973D01*
G01X00944Y00973D02*
G01X00947Y00972D01*
G01X00947Y00972D02*
G01X00948Y00971D01*
G01X00948Y00971D02*
G01X00949Y00969D01*
G01X00949Y00969D02*
G01X00949Y00959D01*
G01X00936Y00982D02*
G01X00936Y00997D01*
G01X00936Y00997D02*
G01X00946Y00989D01*
G01X00946Y00989D02*
G01X00946Y00992D01*
G01X00946Y00992D02*
G01X00947Y00995D01*
G01X00947Y00995D02*
G01X00948Y00996D01*
G01X00948Y00996D02*
G01X00950Y00997D01*
G01X00950Y00997D02*
G01X00956Y00997D01*
G01X00956Y00997D02*
G01X00959Y00996D01*
G01X00959Y00996D02*
G01X00960Y00995D01*
G01X00960Y00995D02*
G01X00961Y00992D01*
G01X00961Y00992D02*
G01X00961Y00985D01*
G01X00961Y00985D02*
G01X00960Y00983D01*
G01X00960Y00983D02*
G01X00959Y00982D01*
G01X01593Y00545D02*
G01X01592Y00544D01*
G01X01592Y00544D02*
G01X01589Y00542D01*
G01X01589Y00542D02*
G01X01586Y00542D01*
G01X01586Y00542D02*
G01X01583Y00544D01*
G01X01583Y00544D02*
G01X01580Y00546D01*
G01X01580Y00546D02*
G01X01579Y00548D01*
G01X01579Y00548D02*
G01X01578Y00553D01*
G01X01578Y00553D02*
G01X01578Y00557D01*
G01X01578Y00557D02*
G01X01579Y00561D01*
G01X01579Y00561D02*
G01X01580Y00564D01*
G01X01580Y00564D02*
G01X01583Y00566D01*
G01X01583Y00566D02*
G01X01586Y00567D01*
G01X01586Y00567D02*
G01X01589Y00567D01*
G01X01589Y00567D02*
G01X01592Y00566D01*
G01X01592Y00566D02*
G01X01593Y00565D01*
G01X01608Y00557D02*
G01X01605Y00558D01*
G01X01605Y00558D02*
G01X01604Y00559D01*
G01X01604Y00559D02*
G01X01603Y00561D01*
G01X01603Y00561D02*
G01X01603Y00563D01*
G01X01603Y00563D02*
G01X01604Y00565D01*
G01X01604Y00565D02*
G01X01605Y00566D01*
G01X01605Y00566D02*
G01X01608Y00567D01*
G01X01608Y00567D02*
G01X01612Y00567D01*
G01X01612Y00567D02*
G01X01615Y00566D01*
G01X01615Y00566D02*
G01X01616Y00565D01*
G01X01616Y00565D02*
G01X01617Y00563D01*
G01X01617Y00563D02*
G01X01617Y00561D01*
G01X01617Y00561D02*
G01X01616Y00559D01*
G01X01616Y00559D02*
G01X01615Y00558D01*
G01X01615Y00558D02*
G01X01612Y00557D01*
G01X01612Y00557D02*
G01X01608Y00557D01*
G01X01608Y00557D02*
G01X01605Y00555D01*
G01X01605Y00555D02*
G01X01604Y00554D01*
G01X01604Y00554D02*
G01X01603Y00552D01*
G01X01603Y00552D02*
G01X01603Y00547D01*
G01X01603Y00547D02*
G01X01604Y00545D01*
G01X01604Y00545D02*
G01X01605Y00544D01*
G01X01605Y00544D02*
G01X01608Y00542D01*
G01X01608Y00542D02*
G01X01612Y00542D01*
G01X01612Y00542D02*
G01X01615Y00544D01*
G01X01615Y00544D02*
G01X01616Y00545D01*
G01X01616Y00545D02*
G01X01617Y00547D01*
G01X01617Y00547D02*
G01X01617Y00552D01*
G01X01617Y00552D02*
G01X01616Y00554D01*
G01X01616Y00554D02*
G01X01615Y00555D01*
G01X01615Y00555D02*
G01X01612Y00557D01*
G01X00905Y00698D02*
G01X00906Y00697D01*
G01X00906Y00697D02*
G01X00908Y00694D01*
G01X00908Y00694D02*
G01X00908Y00691D01*
G01X00908Y00691D02*
G01X00906Y00688D01*
G01X00906Y00688D02*
G01X00904Y00685D01*
G01X00904Y00685D02*
G01X00902Y00684D01*
G01X00902Y00684D02*
G01X00897Y00683D01*
G01X00897Y00683D02*
G01X00893Y00683D01*
G01X00893Y00683D02*
G01X00889Y00684D01*
G01X00889Y00684D02*
G01X00886Y00685D01*
G01X00886Y00685D02*
G01X00884Y00688D01*
G01X00884Y00688D02*
G01X00883Y00691D01*
G01X00883Y00691D02*
G01X00883Y00694D01*
G01X00883Y00694D02*
G01X00884Y00697D01*
G01X00884Y00697D02*
G01X00885Y00698D01*
G01X00883Y00721D02*
G01X00883Y00709D01*
G01X00883Y00709D02*
G01X00895Y00708D01*
G01X00895Y00708D02*
G01X00893Y00709D01*
G01X00893Y00709D02*
G01X00892Y00711D01*
G01X00892Y00711D02*
G01X00892Y00717D01*
G01X00892Y00717D02*
G01X00893Y00720D01*
G01X00893Y00720D02*
G01X00895Y00721D01*
G01X00895Y00721D02*
G01X00897Y00722D01*
G01X00897Y00722D02*
G01X00903Y00722D01*
G01X00903Y00722D02*
G01X00905Y00721D01*
G01X00905Y00721D02*
G01X00906Y00720D01*
G01X00906Y00720D02*
G01X00908Y00717D01*
G01X00908Y00717D02*
G01X00908Y00711D01*
G01X00908Y00711D02*
G01X00906Y00709D01*
G01X00906Y00709D02*
G01X00905Y00708D01*
G01X01678Y00936D02*
G01X01679Y00935D01*
G01X01679Y00935D02*
G01X01680Y00932D01*
G01X01680Y00932D02*
G01X01680Y00929D01*
G01X01680Y00929D02*
G01X01679Y00926D01*
G01X01679Y00926D02*
G01X01677Y00923D01*
G01X01677Y00923D02*
G01X01674Y00922D01*
G01X01674Y00922D02*
G01X01669Y00921D01*
G01X01669Y00921D02*
G01X01666Y00921D01*
G01X01666Y00921D02*
G01X01661Y00922D01*
G01X01661Y00922D02*
G01X01659Y00923D01*
G01X01659Y00923D02*
G01X01656Y00926D01*
G01X01656Y00926D02*
G01X01655Y00929D01*
G01X01655Y00929D02*
G01X01655Y00932D01*
G01X01655Y00932D02*
G01X01656Y00935D01*
G01X01656Y00935D02*
G01X01658Y00936D01*
G01X01655Y00945D02*
G01X01655Y00961D01*
G01X01655Y00961D02*
G01X01680Y00951D01*
G01X00696Y00604D02*
G01X00697Y00603D01*
G01X00697Y00603D02*
G01X00699Y00599D01*
G01X00699Y00599D02*
G01X00699Y00597D01*
G01X00699Y00597D02*
G01X00697Y00593D01*
G01X00697Y00593D02*
G01X00695Y00591D01*
G01X00695Y00591D02*
G01X00693Y00590D01*
G01X00693Y00590D02*
G01X00688Y00588D01*
G01X00688Y00588D02*
G01X00684Y00588D01*
G01X00684Y00588D02*
G01X00680Y00590D01*
G01X00680Y00590D02*
G01X00677Y00591D01*
G01X00677Y00591D02*
G01X00675Y00593D01*
G01X00675Y00593D02*
G01X00674Y00597D01*
G01X00674Y00597D02*
G01X00674Y00599D01*
G01X00674Y00599D02*
G01X00675Y00603D01*
G01X00675Y00603D02*
G01X00676Y00604D01*
G01X00674Y00625D02*
G01X00674Y00621D01*
G01X00674Y00621D02*
G01X00675Y00618D01*
G01X00675Y00618D02*
G01X00676Y00617D01*
G01X00676Y00617D02*
G01X00680Y00615D01*
G01X00680Y00615D02*
G01X00684Y00613D01*
G01X00684Y00613D02*
G01X00694Y00613D01*
G01X00694Y00613D02*
G01X00696Y00615D01*
G01X00696Y00615D02*
G01X00697Y00616D01*
G01X00697Y00616D02*
G01X00699Y00618D01*
G01X00699Y00618D02*
G01X00699Y00623D01*
G01X00699Y00623D02*
G01X00697Y00625D01*
G01X00697Y00625D02*
G01X00696Y00626D01*
G01X00696Y00626D02*
G01X00694Y00628D01*
G01X00694Y00628D02*
G01X00688Y00628D01*
G01X00688Y00628D02*
G01X00686Y00626D01*
G01X00686Y00626D02*
G01X00684Y00625D01*
G01X00684Y00625D02*
G01X00683Y00623D01*
G01X00683Y00623D02*
G01X00683Y00618D01*
G01X00683Y00618D02*
G01X00684Y00616D01*
G01X00684Y00616D02*
G01X00686Y00615D01*
G01X00686Y00615D02*
G01X00688Y00613D01*
G01X01060Y00973D02*
G01X01061Y00972D01*
G01X01061Y00972D02*
G01X01062Y00968D01*
G01X01062Y00968D02*
G01X01062Y00966D01*
G01X01062Y00966D02*
G01X01061Y00962D01*
G01X01061Y00962D02*
G01X01059Y00960D01*
G01X01059Y00960D02*
G01X01056Y00959D01*
G01X01056Y00959D02*
G01X01051Y00957D01*
G01X01051Y00957D02*
G01X01048Y00957D01*
G01X01048Y00957D02*
G01X01043Y00959D01*
G01X01043Y00959D02*
G01X01041Y00960D01*
G01X01041Y00960D02*
G01X01038Y00962D01*
G01X01038Y00962D02*
G01X01037Y00966D01*
G01X01037Y00966D02*
G01X01037Y00968D01*
G01X01037Y00968D02*
G01X01038Y00972D01*
G01X01038Y00972D02*
G01X01040Y00973D01*
G01X01045Y00994D02*
G01X01062Y00994D01*
G01X01036Y00988D02*
G01X01054Y00982D01*
G01X01054Y00982D02*
G01X01054Y00998D01*
G01X01693Y01627D02*
G01X01685Y01639D01*
G01X01679Y01627D02*
G01X01679Y01652D01*
G01X01679Y01652D02*
G01X01689Y01652D01*
G01X01689Y01652D02*
G01X01691Y01651D01*
G01X01691Y01651D02*
G01X01692Y01650D01*
G01X01692Y01650D02*
G01X01693Y01648D01*
G01X01693Y01648D02*
G01X01693Y01644D01*
G01X01693Y01644D02*
G01X01692Y01642D01*
G01X01692Y01642D02*
G01X01691Y01640D01*
G01X01691Y01640D02*
G01X01689Y01639D01*
G01X01689Y01639D02*
G01X01679Y01639D01*
G01X01715Y01644D02*
G01X01715Y01627D01*
G01X01709Y01654D02*
G01X01703Y01636D01*
G01X01703Y01636D02*
G01X01718Y01636D01*
G01X01908Y01630D02*
G01X01908Y01660D01*
G01X01908Y01660D02*
G01X01915Y01660D01*
G01X01915Y01660D02*
G01X01919Y01659D01*
G01X01919Y01659D02*
G01X01922Y01656D01*
G01X01922Y01656D02*
G01X01924Y01653D01*
G01X01924Y01653D02*
G01X01925Y01648D01*
G01X01925Y01648D02*
G01X01925Y01643D01*
G01X01925Y01643D02*
G01X01924Y01638D01*
G01X01924Y01638D02*
G01X01922Y01635D01*
G01X01922Y01635D02*
G01X01919Y01632D01*
G01X01919Y01632D02*
G01X01915Y01630D01*
G01X01915Y01630D02*
G01X01908Y01630D01*
G01X01954Y01630D02*
G01X01936Y01630D01*
G01X01945Y01630D02*
G01X01945Y01660D01*
G01X01945Y01660D02*
G01X01942Y01656D01*
G01X01942Y01656D02*
G01X01939Y01653D01*
G01X01939Y01653D02*
G01X01936Y01652D01*
G54D18*
G01X00320Y00334D02*
G01X00320Y00374D01*
G01X00343Y00334D02*
G01X00326Y00357D01*
G01X00343Y00374D02*
G01X00320Y00351D01*
G01X00378Y00360D02*
G01X00378Y00334D01*
G01X00368Y00376D02*
G01X00359Y00347D01*
G01X00359Y00347D02*
G01X00383Y00347D01*
G01X00340Y00312D02*
G01X00336Y00314D01*
G01X00336Y00314D02*
G01X00330Y00314D01*
G01X00330Y00314D02*
G01X00324Y00312D01*
G01X00324Y00312D02*
G01X00320Y00308D01*
G01X00320Y00308D02*
G01X00319Y00304D01*
G01X00319Y00304D02*
G01X00317Y00297D01*
G01X00317Y00297D02*
G01X00317Y00291D01*
G01X00317Y00291D02*
G01X00319Y00283D01*
G01X00319Y00283D02*
G01X00320Y00280D01*
G01X00320Y00280D02*
G01X00324Y00276D01*
G01X00324Y00276D02*
G01X00330Y00274D01*
G01X00330Y00274D02*
G01X00334Y00274D01*
G01X00334Y00274D02*
G01X00340Y00276D01*
G01X00340Y00276D02*
G01X00341Y00278D01*
G01X00341Y00278D02*
G01X00341Y00291D01*
G01X00341Y00291D02*
G01X00334Y00291D01*
G01X00359Y00274D02*
G01X00359Y00314D01*
G01X00359Y00314D02*
G01X00381Y00274D01*
G01X00381Y00274D02*
G01X00381Y00314D01*
G01X00400Y00274D02*
G01X00400Y00314D01*
G01X00400Y00314D02*
G01X00410Y00314D01*
G01X00410Y00314D02*
G01X00416Y00312D01*
G01X00416Y00312D02*
G01X00420Y00308D01*
G01X00420Y00308D02*
G01X00421Y00304D01*
G01X00421Y00304D02*
G01X00423Y00297D01*
G01X00423Y00297D02*
G01X00423Y00291D01*
G01X00423Y00291D02*
G01X00421Y00283D01*
G01X00421Y00283D02*
G01X00420Y00280D01*
G01X00420Y00280D02*
G01X00416Y00276D01*
G01X00416Y00276D02*
G01X00410Y00274D01*
G01X00410Y00274D02*
G01X00400Y00274D01*
G54D16*
G01X00960Y01921D02*
G01X00960Y01961D01*
G01X00960Y01961D02*
G01X00976Y01961D01*
G01X00976Y01961D02*
G01X00980Y01959D01*
G01X00980Y01959D02*
G01X00981Y01958D01*
G01X00981Y01958D02*
G01X00983Y01954D01*
G01X00983Y01954D02*
G01X00983Y01948D01*
G01X00983Y01948D02*
G01X00981Y01944D01*
G01X00981Y01944D02*
G01X00980Y01942D01*
G01X00980Y01942D02*
G01X00976Y01940D01*
G01X00976Y01940D02*
G01X00960Y01940D01*
G01X01018Y01961D02*
G01X01010Y01961D01*
G01X01010Y01961D02*
G01X01006Y01959D01*
G01X01006Y01959D02*
G01X01004Y01958D01*
G01X01004Y01958D02*
G01X01000Y01952D01*
G01X01000Y01952D02*
G01X00999Y01944D01*
G01X00999Y01944D02*
G01X00999Y01929D01*
G01X00999Y01929D02*
G01X01000Y01925D01*
G01X01000Y01925D02*
G01X01002Y01923D01*
G01X01002Y01923D02*
G01X01006Y01921D01*
G01X01006Y01921D02*
G01X01014Y01921D01*
G01X01014Y01921D02*
G01X01018Y01923D01*
G01X01018Y01923D02*
G01X01020Y01925D01*
G01X01020Y01925D02*
G01X01021Y01929D01*
G01X01021Y01929D02*
G01X01021Y01938D01*
G01X01021Y01938D02*
G01X01020Y01942D01*
G01X01020Y01942D02*
G01X01018Y01944D01*
G01X01018Y01944D02*
G01X01014Y01946D01*
G01X01014Y01946D02*
G01X01006Y01946D01*
G01X01006Y01946D02*
G01X01002Y01944D01*
G01X01002Y01944D02*
G01X01000Y01942D01*
G01X01000Y01942D02*
G01X00999Y01938D01*
G54D18*
G01X01864Y01841D02*
G01X01870Y01839D01*
G01X01870Y01839D02*
G01X01879Y01839D01*
G01X01879Y01839D02*
G01X01883Y01841D01*
G01X01883Y01841D02*
G01X01885Y01843D01*
G01X01885Y01843D02*
G01X01887Y01846D01*
G01X01887Y01846D02*
G01X01887Y01850D01*
G01X01887Y01850D02*
G01X01885Y01854D01*
G01X01885Y01854D02*
G01X01883Y01856D01*
G01X01883Y01856D02*
G01X01879Y01858D01*
G01X01879Y01858D02*
G01X01872Y01860D01*
G01X01872Y01860D02*
G01X01868Y01862D01*
G01X01868Y01862D02*
G01X01866Y01864D01*
G01X01866Y01864D02*
G01X01864Y01867D01*
G01X01864Y01867D02*
G01X01864Y01871D01*
G01X01864Y01871D02*
G01X01866Y01875D01*
G01X01866Y01875D02*
G01X01868Y01877D01*
G01X01868Y01877D02*
G01X01872Y01879D01*
G01X01872Y01879D02*
G01X01881Y01879D01*
G01X01881Y01879D02*
G01X01887Y01877D01*
G01X01900Y01879D02*
G01X01910Y01839D01*
G01X01910Y01839D02*
G01X01918Y01867D01*
G01X01918Y01867D02*
G01X01925Y01839D01*
G01X01925Y01839D02*
G01X01935Y01879D01*
G01X01971Y01839D02*
G01X01948Y01839D01*
G01X01959Y01839D02*
G01X01959Y01879D01*
G01X01959Y01879D02*
G01X01956Y01873D01*
G01X01956Y01873D02*
G01X01952Y01869D01*
G01X01952Y01869D02*
G01X01948Y01867D01*
G01X01640Y01766D02*
G01X01640Y01806D01*
G01X01640Y01806D02*
G01X01655Y01806D01*
G01X01655Y01806D02*
G01X01659Y01804D01*
G01X01659Y01804D02*
G01X01660Y01803D01*
G01X01660Y01803D02*
G01X01662Y01799D01*
G01X01662Y01799D02*
G01X01662Y01793D01*
G01X01662Y01793D02*
G01X01660Y01789D01*
G01X01660Y01789D02*
G01X01659Y01787D01*
G01X01659Y01787D02*
G01X01655Y01785D01*
G01X01655Y01785D02*
G01X01640Y01785D01*
G01X01676Y01806D02*
G01X01685Y01766D01*
G01X01685Y01766D02*
G01X01693Y01795D01*
G01X01693Y01795D02*
G01X01700Y01766D01*
G01X01700Y01766D02*
G01X01710Y01806D01*
G01X01748Y01766D02*
G01X01735Y01785D01*
G01X01725Y01766D02*
G01X01725Y01806D01*
G01X01725Y01806D02*
G01X01740Y01806D01*
G01X01740Y01806D02*
G01X01744Y01804D01*
G01X01744Y01804D02*
G01X01746Y01803D01*
G01X01746Y01803D02*
G01X01748Y01799D01*
G01X01748Y01799D02*
G01X01748Y01793D01*
G01X01748Y01793D02*
G01X01746Y01789D01*
G01X01746Y01789D02*
G01X01744Y01787D01*
G01X01744Y01787D02*
G01X01740Y01785D01*
G01X01740Y01785D02*
G01X01725Y01785D01*
G01X01794Y01768D02*
G01X01800Y01766D01*
G01X01800Y01766D02*
G01X01809Y01766D01*
G01X01809Y01766D02*
G01X01813Y01768D01*
G01X01813Y01768D02*
G01X01815Y01770D01*
G01X01815Y01770D02*
G01X01817Y01774D01*
G01X01817Y01774D02*
G01X01817Y01778D01*
G01X01817Y01778D02*
G01X01815Y01782D01*
G01X01815Y01782D02*
G01X01813Y01783D01*
G01X01813Y01783D02*
G01X01809Y01785D01*
G01X01809Y01785D02*
G01X01801Y01787D01*
G01X01801Y01787D02*
G01X01798Y01789D01*
G01X01798Y01789D02*
G01X01796Y01791D01*
G01X01796Y01791D02*
G01X01794Y01795D01*
G01X01794Y01795D02*
G01X01794Y01799D01*
G01X01794Y01799D02*
G01X01796Y01803D01*
G01X01796Y01803D02*
G01X01798Y01804D01*
G01X01798Y01804D02*
G01X01801Y01806D01*
G01X01801Y01806D02*
G01X01811Y01806D01*
G01X01811Y01806D02*
G01X01817Y01804D01*
G01X01830Y01806D02*
G01X01840Y01766D01*
G01X01840Y01766D02*
G01X01847Y01795D01*
G01X01847Y01795D02*
G01X01855Y01766D01*
G01X01855Y01766D02*
G01X01864Y01806D01*
G54D21*
G01X01417Y00793D02*
G01X01417Y00769D01*
G01X01417Y00769D02*
G01X01419Y00766D01*
G01X01419Y00766D02*
G01X01420Y00764D01*
G01X01420Y00764D02*
G01X01423Y00763D01*
G01X01423Y00763D02*
G01X01429Y00763D01*
G01X01429Y00763D02*
G01X01431Y00764D01*
G01X01431Y00764D02*
G01X01433Y00766D01*
G01X01433Y00766D02*
G01X01434Y00769D01*
G01X01434Y00769D02*
G01X01434Y00793D01*
G01X01464Y00763D02*
G01X01447Y00763D01*
G01X01456Y00763D02*
G01X01456Y00793D01*
G01X01456Y00793D02*
G01X01453Y00789D01*
G01X01453Y00789D02*
G01X01450Y00786D01*
G01X01450Y00786D02*
G01X01447Y00784D01*
G54D16*
G01X00030Y00804D02*
G01X00030Y00844D01*
G01X00030Y00844D02*
G01X00046Y00844D01*
G01X00046Y00844D02*
G01X00050Y00842D01*
G01X00050Y00842D02*
G01X00051Y00840D01*
G01X00051Y00840D02*
G01X00053Y00836D01*
G01X00053Y00836D02*
G01X00053Y00830D01*
G01X00053Y00830D02*
G01X00051Y00827D01*
G01X00051Y00827D02*
G01X00050Y00825D01*
G01X00050Y00825D02*
G01X00046Y00823D01*
G01X00046Y00823D02*
G01X00030Y00823D01*
G01X00067Y00844D02*
G01X00091Y00844D01*
G01X00091Y00844D02*
G01X00078Y00829D01*
G01X00078Y00829D02*
G01X00084Y00829D01*
G01X00084Y00829D02*
G01X00088Y00827D01*
G01X00088Y00827D02*
G01X00090Y00825D01*
G01X00090Y00825D02*
G01X00091Y00821D01*
G01X00091Y00821D02*
G01X00091Y00811D01*
G01X00091Y00811D02*
G01X00090Y00808D01*
G01X00090Y00808D02*
G01X00088Y00806D01*
G01X00088Y00806D02*
G01X00084Y00804D01*
G01X00084Y00804D02*
G01X00072Y00804D01*
G01X00072Y00804D02*
G01X00069Y00806D01*
G01X00069Y00806D02*
G01X00067Y00808D01*
G01X00136Y00387D02*
G01X00136Y00410D01*
G01X00176Y00398D02*
G01X00136Y00398D01*
G01X00136Y00419D02*
G01X00176Y00446D01*
G01X00136Y00446D02*
G01X00176Y00419D01*
G01X00176Y00514D02*
G01X00157Y00501D01*
G01X00176Y00491D02*
G01X00136Y00491D01*
G01X00136Y00491D02*
G01X00136Y00507D01*
G01X00136Y00507D02*
G01X00138Y00510D01*
G01X00138Y00510D02*
G01X00140Y00512D01*
G01X00140Y00512D02*
G01X00144Y00514D01*
G01X00144Y00514D02*
G01X00150Y00514D01*
G01X00150Y00514D02*
G01X00153Y00512D01*
G01X00153Y00512D02*
G01X00155Y00510D01*
G01X00155Y00510D02*
G01X00157Y00507D01*
G01X00157Y00507D02*
G01X00157Y00491D01*
G01X00136Y00528D02*
G01X00176Y00554D01*
G01X00136Y00554D02*
G01X00176Y00528D01*
G01X00176Y00600D02*
G01X00136Y00600D01*
G01X00136Y00600D02*
G01X00136Y00610D01*
G01X00136Y00610D02*
G01X00138Y00615D01*
G01X00138Y00615D02*
G01X00142Y00619D01*
G01X00142Y00619D02*
G01X00146Y00621D01*
G01X00146Y00621D02*
G01X00153Y00623D01*
G01X00153Y00623D02*
G01X00159Y00623D01*
G01X00159Y00623D02*
G01X00167Y00621D01*
G01X00167Y00621D02*
G01X00170Y00619D01*
G01X00170Y00619D02*
G01X00174Y00615D01*
G01X00174Y00615D02*
G01X00176Y00610D01*
G01X00176Y00610D02*
G01X00176Y00600D01*
G01X00140Y00638D02*
G01X00138Y00640D01*
G01X00138Y00640D02*
G01X00136Y00644D01*
G01X00136Y00644D02*
G01X00136Y00653D01*
G01X00136Y00653D02*
G01X00138Y00657D01*
G01X00138Y00657D02*
G01X00140Y00659D01*
G01X00140Y00659D02*
G01X00144Y00661D01*
G01X00144Y00661D02*
G01X00148Y00661D01*
G01X00148Y00661D02*
G01X00153Y00659D01*
G01X00153Y00659D02*
G01X00176Y00636D01*
G01X00176Y00636D02*
G01X00176Y00661D01*
G01X00176Y00709D02*
G01X00136Y00709D01*
G01X00136Y00709D02*
G01X00136Y00718D01*
G01X00136Y00718D02*
G01X00138Y00724D01*
G01X00138Y00724D02*
G01X00142Y00728D01*
G01X00142Y00728D02*
G01X00146Y00730D01*
G01X00146Y00730D02*
G01X00153Y00731D01*
G01X00153Y00731D02*
G01X00159Y00731D01*
G01X00159Y00731D02*
G01X00167Y00730D01*
G01X00167Y00730D02*
G01X00170Y00728D01*
G01X00170Y00728D02*
G01X00174Y00724D01*
G01X00174Y00724D02*
G01X00176Y00718D01*
G01X00176Y00718D02*
G01X00176Y00709D01*
G01X00150Y00766D02*
G01X00176Y00766D01*
G01X00134Y00756D02*
G01X00163Y00747D01*
G01X00163Y00747D02*
G01X00163Y00771D01*
G54D21*
G01X01897Y00343D02*
G01X01867Y00343D01*
G01X01867Y00343D02*
G01X01867Y00350D01*
G01X01867Y00350D02*
G01X01869Y00354D01*
G01X01869Y00354D02*
G01X01871Y00357D01*
G01X01871Y00357D02*
G01X01874Y00359D01*
G01X01874Y00359D02*
G01X01880Y00360D01*
G01X01880Y00360D02*
G01X01884Y00360D01*
G01X01884Y00360D02*
G01X01890Y00359D01*
G01X01890Y00359D02*
G01X01893Y00357D01*
G01X01893Y00357D02*
G01X01896Y00354D01*
G01X01896Y00354D02*
G01X01897Y00350D01*
G01X01897Y00350D02*
G01X01897Y00343D01*
G01X01870Y00371D02*
G01X01869Y00373D01*
G01X01869Y00373D02*
G01X01867Y00376D01*
G01X01867Y00376D02*
G01X01867Y00383D01*
G01X01867Y00383D02*
G01X01869Y00386D01*
G01X01869Y00386D02*
G01X01870Y00387D01*
G01X01870Y00387D02*
G01X01873Y00389D01*
G01X01873Y00389D02*
G01X01876Y00389D01*
G01X01876Y00389D02*
G01X01880Y00387D01*
G01X01880Y00387D02*
G01X01897Y00370D01*
G01X01897Y00370D02*
G01X01897Y00389D01*
G54D18*
G01X01832Y00618D02*
G01X01802Y00618D01*
G01X01802Y00618D02*
G01X01802Y00629D01*
G01X01802Y00629D02*
G01X01804Y00632D01*
G01X01804Y00632D02*
G01X01805Y00634D01*
G01X01805Y00634D02*
G01X01808Y00635D01*
G01X01808Y00635D02*
G01X01812Y00635D01*
G01X01812Y00635D02*
G01X01815Y00634D01*
G01X01815Y00634D02*
G01X01816Y00632D01*
G01X01816Y00632D02*
G01X01818Y00629D01*
G01X01818Y00629D02*
G01X01818Y00618D01*
G01X01802Y00662D02*
G01X01802Y00648D01*
G01X01802Y00648D02*
G01X01816Y00646D01*
G01X01816Y00646D02*
G01X01815Y00648D01*
G01X01815Y00648D02*
G01X01814Y00651D01*
G01X01814Y00651D02*
G01X01814Y00658D01*
G01X01814Y00658D02*
G01X01815Y00661D01*
G01X01815Y00661D02*
G01X01816Y00662D01*
G01X01816Y00662D02*
G01X01819Y00664D01*
G01X01819Y00664D02*
G01X01826Y00664D01*
G01X01826Y00664D02*
G01X01829Y00662D01*
G01X01829Y00662D02*
G01X01831Y00661D01*
G01X01831Y00661D02*
G01X01832Y00658D01*
G01X01832Y00658D02*
G01X01832Y00651D01*
G01X01832Y00651D02*
G01X01831Y00648D01*
G01X01831Y00648D02*
G01X01829Y00646D01*
G01X01879Y00563D02*
G01X01879Y00577D01*
G01X01887Y00560D02*
G01X01857Y00570D01*
G01X01857Y00570D02*
G01X01887Y00580D01*
G01X01857Y00596D02*
G01X01857Y00599D01*
G01X01857Y00599D02*
G01X01859Y00601D01*
G01X01859Y00601D02*
G01X01860Y00603D01*
G01X01860Y00603D02*
G01X01863Y00604D01*
G01X01863Y00604D02*
G01X01869Y00606D01*
G01X01869Y00606D02*
G01X01876Y00606D01*
G01X01876Y00606D02*
G01X01881Y00604D01*
G01X01881Y00604D02*
G01X01884Y00603D01*
G01X01884Y00603D02*
G01X01886Y00601D01*
G01X01886Y00601D02*
G01X01887Y00599D01*
G01X01887Y00599D02*
G01X01887Y00596D01*
G01X01887Y00596D02*
G01X01886Y00593D01*
G01X01886Y00593D02*
G01X01884Y00591D01*
G01X01884Y00591D02*
G01X01881Y00590D01*
G01X01881Y00590D02*
G01X01876Y00589D01*
G01X01876Y00589D02*
G01X01869Y00589D01*
G01X01869Y00589D02*
G01X01863Y00590D01*
G01X01863Y00590D02*
G01X01860Y00591D01*
G01X01860Y00591D02*
G01X01859Y00593D01*
G01X01859Y00593D02*
G01X01857Y00596D01*
G01X01876Y00619D02*
G01X01876Y00641D01*
G01X01879Y00654D02*
G01X01879Y00669D01*
G01X01887Y00651D02*
G01X01857Y00661D01*
G01X01857Y00661D02*
G01X01887Y00671D01*
G01X01887Y00697D02*
G01X01887Y00680D01*
G01X01887Y00689D02*
G01X01857Y00689D01*
G01X01857Y00689D02*
G01X01861Y00686D01*
G01X01861Y00686D02*
G01X01864Y00683D01*
G01X01864Y00683D02*
G01X01866Y00680D01*
G54D11*
G01X00195Y01051D02*
G01X00204Y01048D01*
G01X00204Y01048D02*
G01X00218Y01048D01*
G01X00218Y01048D02*
G01X00224Y01051D01*
G01X00224Y01051D02*
G01X00226Y01054D01*
G01X00226Y01054D02*
G01X00229Y01060D01*
G01X00229Y01060D02*
G01X00229Y01065D01*
G01X00229Y01065D02*
G01X00226Y01071D01*
G01X00226Y01071D02*
G01X00224Y01074D01*
G01X00224Y01074D02*
G01X00218Y01077D01*
G01X00218Y01077D02*
G01X00206Y01080D01*
G01X00206Y01080D02*
G01X00201Y01083D01*
G01X00201Y01083D02*
G01X00198Y01085D01*
G01X00198Y01085D02*
G01X00195Y01091D01*
G01X00195Y01091D02*
G01X00195Y01097D01*
G01X00195Y01097D02*
G01X00198Y01103D01*
G01X00198Y01103D02*
G01X00201Y01105D01*
G01X00201Y01105D02*
G01X00206Y01108D01*
G01X00206Y01108D02*
G01X00221Y01108D01*
G01X00221Y01108D02*
G01X00229Y01105D01*
G01X00249Y01108D02*
G01X00264Y01048D01*
G01X00264Y01048D02*
G01X00275Y01091D01*
G01X00275Y01091D02*
G01X00286Y01048D01*
G01X00286Y01048D02*
G01X00301Y01108D01*
G01X00321Y01103D02*
G01X00324Y01105D01*
G01X00324Y01105D02*
G01X00329Y01108D01*
G01X00329Y01108D02*
G01X00344Y01108D01*
G01X00344Y01108D02*
G01X00349Y01105D01*
G01X00349Y01105D02*
G01X00352Y01103D01*
G01X00352Y01103D02*
G01X00355Y01097D01*
G01X00355Y01097D02*
G01X00355Y01091D01*
G01X00355Y01091D02*
G01X00352Y01083D01*
G01X00352Y01083D02*
G01X00318Y01048D01*
G01X00318Y01048D02*
G01X00355Y01048D01*
G01X00090Y01246D02*
G01X00070Y01274D01*
G01X00055Y01246D02*
G01X00055Y01306D01*
G01X00055Y01306D02*
G01X00078Y01306D01*
G01X00078Y01306D02*
G01X00084Y01303D01*
G01X00084Y01303D02*
G01X00087Y01300D01*
G01X00087Y01300D02*
G01X00090Y01294D01*
G01X00090Y01294D02*
G01X00090Y01286D01*
G01X00090Y01286D02*
G01X00087Y01280D01*
G01X00087Y01280D02*
G01X00084Y01277D01*
G01X00084Y01277D02*
G01X00078Y01274D01*
G01X00078Y01274D02*
G01X00055Y01274D01*
G01X00113Y01249D02*
G01X00121Y01246D01*
G01X00121Y01246D02*
G01X00135Y01246D01*
G01X00135Y01246D02*
G01X00141Y01249D01*
G01X00141Y01249D02*
G01X00144Y01251D01*
G01X00144Y01251D02*
G01X00147Y01257D01*
G01X00147Y01257D02*
G01X00147Y01263D01*
G01X00147Y01263D02*
G01X00144Y01269D01*
G01X00144Y01269D02*
G01X00141Y01271D01*
G01X00141Y01271D02*
G01X00135Y01274D01*
G01X00135Y01274D02*
G01X00124Y01277D01*
G01X00124Y01277D02*
G01X00118Y01280D01*
G01X00118Y01280D02*
G01X00115Y01283D01*
G01X00115Y01283D02*
G01X00113Y01289D01*
G01X00113Y01289D02*
G01X00113Y01294D01*
G01X00113Y01294D02*
G01X00115Y01300D01*
G01X00115Y01300D02*
G01X00118Y01303D01*
G01X00118Y01303D02*
G01X00124Y01306D01*
G01X00124Y01306D02*
G01X00138Y01306D01*
G01X00138Y01306D02*
G01X00147Y01303D01*
G01X00164Y01306D02*
G01X00198Y01306D01*
G01X00181Y01246D02*
G01X00181Y01306D01*
G54D21*
G01X00768Y00348D02*
G01X00756Y00340D01*
G01X00768Y00334D02*
G01X00743Y00334D01*
G01X00743Y00334D02*
G01X00743Y00344D01*
G01X00743Y00344D02*
G01X00744Y00346D01*
G01X00744Y00346D02*
G01X00745Y00347D01*
G01X00745Y00347D02*
G01X00747Y00348D01*
G01X00747Y00348D02*
G01X00751Y00348D01*
G01X00751Y00348D02*
G01X00753Y00347D01*
G01X00753Y00347D02*
G01X00755Y00346D01*
G01X00755Y00346D02*
G01X00756Y00344D01*
G01X00756Y00344D02*
G01X00756Y00334D01*
G01X00768Y00372D02*
G01X00768Y00358D01*
G01X00768Y00365D02*
G01X00743Y00365D01*
G01X00743Y00365D02*
G01X00746Y00363D01*
G01X00746Y00363D02*
G01X00749Y00360D01*
G01X00749Y00360D02*
G01X00750Y00358D01*
G54D16*
G01X01299Y00238D02*
G01X01299Y00278D01*
G01X01299Y00278D02*
G01X01314Y00278D01*
G01X01314Y00278D02*
G01X01318Y00276D01*
G01X01318Y00276D02*
G01X01320Y00274D01*
G01X01320Y00274D02*
G01X01322Y00270D01*
G01X01322Y00270D02*
G01X01322Y00264D01*
G01X01322Y00264D02*
G01X01320Y00261D01*
G01X01320Y00261D02*
G01X01318Y00259D01*
G01X01318Y00259D02*
G01X01314Y00257D01*
G01X01314Y00257D02*
G01X01299Y00257D01*
G01X01337Y00274D02*
G01X01339Y00276D01*
G01X01339Y00276D02*
G01X01343Y00278D01*
G01X01343Y00278D02*
G01X01352Y00278D01*
G01X01352Y00278D02*
G01X01356Y00276D01*
G01X01356Y00276D02*
G01X01358Y00274D01*
G01X01358Y00274D02*
G01X01360Y00270D01*
G01X01360Y00270D02*
G01X01360Y00266D01*
G01X01360Y00266D02*
G01X01358Y00261D01*
G01X01358Y00261D02*
G01X01335Y00238D01*
G01X01335Y00238D02*
G01X01360Y00238D01*
G01X01435Y00273D02*
G01X01441Y00273D01*
G01X01441Y00273D02*
G01X01445Y00272D01*
G01X01445Y00272D02*
G01X01448Y00268D01*
G01X01448Y00268D02*
G01X01450Y00262D01*
G01X01450Y00262D02*
G01X01450Y00250D01*
G01X01450Y00250D02*
G01X01448Y00243D01*
G01X01448Y00243D02*
G01X01445Y00240D01*
G01X01445Y00240D02*
G01X01441Y00238D01*
G01X01441Y00238D02*
G01X01435Y00238D01*
G01X01435Y00238D02*
G01X01431Y00240D01*
G01X01431Y00240D02*
G01X01428Y00243D01*
G01X01428Y00243D02*
G01X01426Y00250D01*
G01X01426Y00250D02*
G01X01426Y00262D01*
G01X01426Y00262D02*
G01X01428Y00268D01*
G01X01428Y00268D02*
G01X01431Y00272D01*
G01X01431Y00272D02*
G01X01435Y00273D01*
G01X01465Y00273D02*
G01X01465Y00245D01*
G01X01465Y00245D02*
G01X01466Y00242D01*
G01X01466Y00242D02*
G01X01468Y00240D01*
G01X01468Y00240D02*
G01X01471Y00238D01*
G01X01471Y00238D02*
G01X01478Y00238D01*
G01X01478Y00238D02*
G01X01481Y00240D01*
G01X01481Y00240D02*
G01X01483Y00242D01*
G01X01483Y00242D02*
G01X01485Y00245D01*
G01X01485Y00245D02*
G01X01485Y00273D01*
G01X01496Y00273D02*
G01X01516Y00273D01*
G01X01506Y00238D02*
G01X01506Y00273D01*
G01X01520Y00235D02*
G01X01546Y00235D01*
G01X01566Y00257D02*
G01X01571Y00255D01*
G01X01571Y00255D02*
G01X01573Y00253D01*
G01X01573Y00253D02*
G01X01575Y00250D01*
G01X01575Y00250D02*
G01X01575Y00245D01*
G01X01575Y00245D02*
G01X01573Y00242D01*
G01X01573Y00242D02*
G01X01571Y00240D01*
G01X01571Y00240D02*
G01X01568Y00238D01*
G01X01568Y00238D02*
G01X01555Y00238D01*
G01X01555Y00238D02*
G01X01555Y00273D01*
G01X01555Y00273D02*
G01X01566Y00273D01*
G01X01566Y00273D02*
G01X01570Y00272D01*
G01X01570Y00272D02*
G01X01571Y00270D01*
G01X01571Y00270D02*
G01X01573Y00267D01*
G01X01573Y00267D02*
G01X01573Y00263D01*
G01X01573Y00263D02*
G01X01571Y00260D01*
G01X01571Y00260D02*
G01X01570Y00258D01*
G01X01570Y00258D02*
G01X01566Y00257D01*
G01X01566Y00257D02*
G01X01555Y00257D01*
G01X01590Y00273D02*
G01X01590Y00245D01*
G01X01590Y00245D02*
G01X01591Y00242D01*
G01X01591Y00242D02*
G01X01593Y00240D01*
G01X01593Y00240D02*
G01X01596Y00238D01*
G01X01596Y00238D02*
G01X01603Y00238D01*
G01X01603Y00238D02*
G01X01606Y00240D01*
G01X01606Y00240D02*
G01X01608Y00242D01*
G01X01608Y00242D02*
G01X01610Y00245D01*
G01X01610Y00245D02*
G01X01610Y00273D01*
G01X01625Y00240D02*
G01X01630Y00238D01*
G01X01630Y00238D02*
G01X01638Y00238D01*
G01X01638Y00238D02*
G01X01641Y00240D01*
G01X01641Y00240D02*
G01X01643Y00242D01*
G01X01643Y00242D02*
G01X01645Y00245D01*
G01X01645Y00245D02*
G01X01645Y00248D01*
G01X01645Y00248D02*
G01X01643Y00252D01*
G01X01643Y00252D02*
G01X01641Y00253D01*
G01X01641Y00253D02*
G01X01638Y00255D01*
G01X01638Y00255D02*
G01X01631Y00257D01*
G01X01631Y00257D02*
G01X01628Y00258D01*
G01X01628Y00258D02*
G01X01626Y00260D01*
G01X01626Y00260D02*
G01X01625Y00263D01*
G01X01625Y00263D02*
G01X01625Y00267D01*
G01X01625Y00267D02*
G01X01626Y00270D01*
G01X01626Y00270D02*
G01X01628Y00272D01*
G01X01628Y00272D02*
G01X01631Y00273D01*
G01X01631Y00273D02*
G01X01640Y00273D01*
G01X01640Y00273D02*
G01X01645Y00272D01*
M02*
