M48
;DRILL file {Pcbnew (2012-nov-02)-testing} date Fri 28 Dec 2012 04:31:02 PM EST
;FORMAT={-:-/ absolute / inch / decimal}
FMAT,2
INCH,TZ
T1C0.025
T2C0.039
T3C0.039
T4C0.040
T5C0.043
%
G90
G05
M72
T1
X0.2375Y0.855
X0.3Y0.78
X0.495Y1.035
X0.5Y0.855
X0.63Y0.465
X0.6625Y0.41
X0.6825Y0.5625
X0.69Y0.83
X0.725Y1.54
X0.7325Y1.4875
X0.81Y0.835
X0.8175Y1.215
X0.83Y1.575
X0.88Y0.905
X0.93Y0.78
X0.935Y0.695
X0.955Y1.695
X0.99Y0.78
X1.065Y0.5625
X1.065Y0.465
X1.08Y0.655
X1.1Y0.425
X1.105Y0.515
X1.15Y0.425
X1.165Y0.575
X1.1675Y0.81
X1.195Y0.8825
X1.2Y1.48
X1.2Y0.21
X1.22Y1.22
X1.22Y1.005
X1.225Y0.425
X1.235Y0.065
X1.29Y0.465
X1.33Y0.3
X1.335Y0.35
X1.359Y1.098
X1.375Y0.91
X1.4Y1.46
X1.41Y0.695
X1.41Y0.385
X1.41Y0.265
X1.44Y0.625
X1.455Y1.34
X1.46Y1.505
X1.5015Y0.954
X1.61Y0.52
X1.63Y0.585
X1.64Y0.91
X1.665Y0.315
X1.67Y1.1275
X1.69Y0.385
X1.735Y0.13
X1.86Y0.55
X1.875Y0.5
T2
X1.6516Y1.9
X1.8484Y1.9
T3
X0.1515Y1.1837
X0.1515Y1.0065
X0.2795Y1.2565
X0.4075Y1.1837
X0.4075Y1.0065
T4
X0.06Y0.74
X0.06Y0.64
X0.06Y0.54
X0.06Y0.44
X0.06Y0.32
X0.06Y0.2
X0.06Y0.07
X0.16Y0.32
X0.16Y0.2
X0.16Y0.07
X0.26Y0.32
X0.26Y0.2
X0.26Y0.07
X0.56Y0.27
X0.56Y0.17
X0.56Y0.07
X0.6491Y1.3993
X0.7492Y1.3992
X0.8Y0.075
X0.8492Y1.3992
X0.9Y0.075
X0.9492Y1.3992
X1.Y0.075
X1.0492Y1.3992
X1.1Y1.95
X1.1Y0.075
X1.1492Y1.3992
X1.2Y1.95
X1.2492Y1.3992
X1.3Y1.95
X1.325Y0.175
X1.325Y0.075
X1.4Y1.95
X1.425Y0.175
X1.425Y0.075
X1.525Y0.175
X1.525Y0.075
X1.625Y0.175
X1.625Y0.075
X1.75Y1.9
X1.8395Y0.2735
X1.8395Y0.1735
X1.8395Y0.0735
X1.9395Y0.2735
X1.9395Y0.1735
X1.9395Y0.0735
X1.95Y0.68
X1.95Y0.58
T5
X1.7819Y1.0445
X1.7819Y0.8555
T3
X1.9196Y1.1114G85X1.8803Y1.1114
G05
X1.9196Y0.7886G85X1.8803Y0.7886
G05
T0
M30
