G04 (created by PCBNEW (2012-nov-02)-testing) date Fri 28 Dec 2012 04:30:59 PM EST*
%MOIN*%
G04 Gerber Fmt 3.4, Leading zero omitted, Abs format*
%FSLAX34Y34*%
G01*
G70*
G90*
G04 APERTURE LIST*
%ADD10C,2.3622e-06*%
%ADD11C,0.08*%
%ADD12R,0.08X0.08*%
%ADD13R,0.1695X0.0594*%
%ADD14R,0.1696X0.0594*%
%ADD15R,0.5284X0.52*%
%ADD16R,0.0987X0.0377*%
%ADD17R,0.0377X0.0987*%
%ADD18R,0.083X0.0318*%
%ADD19R,0.0869X0.0357*%
%ADD20R,0.1106X0.0712*%
%ADD21R,0.1067X0.0712*%
%ADD22R,0.0791X0.0712*%
%ADD23R,0.1184X0.0909*%
%ADD24R,0.135X0.07*%
%ADD25R,0.085X0.155*%
%ADD26R,0.055X0.075*%
%ADD27R,0.075X0.055*%
%ADD28R,0.0672X0.0672*%
%ADD29R,0.07X0.036*%
%ADD30R,0.142X0.0712*%
%ADD31C,0.0909*%
%ADD32C,0.18*%
G04 APERTURE END LIST*
G54D10*
G54D11*
X6491Y13993D03*
X7492Y13992D03*
X8492Y13992D03*
X9492Y13992D03*
X10492Y13992D03*
X11492Y13992D03*
X12492Y13992D03*
G54D12*
X18395Y2735D03*
G54D11*
X19395Y2735D03*
X18395Y1735D03*
X19395Y1735D03*
X18395Y735D03*
X19395Y735D03*
G54D12*
X8000Y750D03*
G54D11*
X9000Y750D03*
X10000Y750D03*
X11000Y750D03*
G54D12*
X5600Y700D03*
G54D11*
X5600Y1700D03*
X5600Y2700D03*
G54D13*
X6707Y15926D03*
X6707Y16596D03*
G54D14*
X6707Y17265D03*
G54D13*
X6707Y17934D03*
X6707Y18604D03*
G54D15*
X2785Y17265D03*
G54D16*
X9889Y4287D03*
X9889Y4602D03*
X9889Y4917D03*
X9889Y5232D03*
X9889Y5547D03*
X9889Y5862D03*
X9889Y6177D03*
X9889Y6492D03*
X13655Y6490D03*
X13655Y4280D03*
X13655Y4600D03*
X13655Y4920D03*
X13655Y5230D03*
X13655Y5550D03*
X13655Y5860D03*
X13655Y6180D03*
G54D17*
X10673Y7280D03*
X10987Y7280D03*
X11303Y7280D03*
X11617Y7280D03*
X11933Y7280D03*
X12247Y7280D03*
X12563Y7280D03*
X12877Y7280D03*
X10675Y3500D03*
X10985Y3500D03*
X11305Y3500D03*
X11615Y3500D03*
X11925Y3500D03*
X12245Y3500D03*
X12565Y3500D03*
X12885Y3500D03*
G54D12*
X600Y700D03*
G54D11*
X1600Y700D03*
X2600Y700D03*
G54D12*
X600Y2000D03*
G54D11*
X1600Y2000D03*
X2600Y2000D03*
G54D18*
X8685Y4480D03*
X8685Y4106D03*
X8685Y4854D03*
G54D19*
X17858Y9500D03*
X17858Y9244D03*
X17858Y10012D03*
G54D20*
X19000Y7886D03*
G54D21*
X17819Y8555D03*
G54D20*
X19000Y11114D03*
G54D22*
X17819Y10445D03*
G54D19*
X17858Y9756D03*
G54D23*
X19079Y8949D03*
X19079Y10051D03*
G54D19*
X17858Y8988D03*
G54D24*
X15850Y14000D03*
X14050Y14000D03*
G54D25*
X18000Y15450D03*
X18000Y12550D03*
G54D26*
X8260Y7680D03*
X7510Y7680D03*
G54D27*
X8875Y16340D03*
X8875Y17090D03*
G54D26*
X14725Y4600D03*
X15475Y4600D03*
X14125Y12600D03*
X14875Y12600D03*
X18275Y4300D03*
X17525Y4300D03*
G54D27*
X9500Y9175D03*
X9500Y8425D03*
G54D26*
X14725Y5400D03*
X15475Y5400D03*
G54D27*
X8685Y6455D03*
X8685Y5705D03*
X16700Y9975D03*
X16700Y10725D03*
X7585Y6455D03*
X7585Y5705D03*
X10500Y8425D03*
X10500Y9175D03*
G54D26*
X17375Y17000D03*
X16625Y17000D03*
G54D28*
X18587Y17000D03*
X19413Y17000D03*
G54D12*
X600Y3200D03*
G54D11*
X1600Y3200D03*
X2600Y3200D03*
G54D12*
X14000Y19500D03*
G54D11*
X13000Y19500D03*
X12000Y19500D03*
X11000Y19500D03*
G54D12*
X18484Y19000D03*
G54D11*
X17500Y19000D03*
X16516Y19000D03*
G54D29*
X13000Y11750D03*
X13000Y11500D03*
X13000Y11240D03*
X13000Y10980D03*
X13000Y10730D03*
X13000Y10470D03*
X13000Y10210D03*
X13000Y9960D03*
X13000Y9700D03*
X13000Y9450D03*
X13000Y9190D03*
X13000Y8930D03*
X13000Y8680D03*
X13000Y8420D03*
X15800Y8420D03*
X15800Y8680D03*
X15800Y8920D03*
X15800Y9190D03*
X15800Y9450D03*
X15800Y9700D03*
X15800Y9960D03*
X15800Y10210D03*
X15800Y10470D03*
X15800Y10730D03*
X15800Y10980D03*
X15800Y11240D03*
X15800Y11500D03*
X15800Y11750D03*
G54D12*
X600Y7400D03*
G54D11*
X600Y6400D03*
X600Y5400D03*
X600Y4400D03*
G54D28*
X19400Y3787D03*
X19400Y4613D03*
G54D12*
X19500Y5800D03*
G54D11*
X19500Y6800D03*
G54D30*
X1230Y9179D03*
X4360Y9179D03*
X4360Y10951D03*
X1230Y10951D03*
G54D31*
X4075Y10065D03*
X1515Y10065D03*
X4075Y11837D03*
X1515Y11837D03*
X2795Y12565D03*
G54D32*
X15000Y16500D03*
G54D27*
X7575Y4855D03*
X7575Y4105D03*
G54D12*
X13250Y750D03*
G54D11*
X13250Y1750D03*
X14250Y750D03*
X14250Y1750D03*
X15250Y750D03*
X15250Y1750D03*
X16250Y750D03*
X16250Y1750D03*
G54D32*
X5000Y5000D03*
M02*
