G04 (created by PCBNEW (2013-mar-13)-testing) date Mon 24 Jun 2013 03:26:25 PM EDT*
%MOIN*%
G04 Gerber Fmt 3.4, Leading zero omitted, Abs format*
%FSLAX34Y34*%
G01*
G70*
G90*
G04 APERTURE LIST*
%ADD10C,0.000787*%
%ADD11C,0.080000*%
%ADD12R,0.080000X0.080000*%
%ADD13R,0.169500X0.059400*%
%ADD14R,0.169600X0.059400*%
%ADD15R,0.528400X0.520000*%
%ADD16R,0.098700X0.037700*%
%ADD17R,0.037700X0.098700*%
%ADD18R,0.083000X0.031800*%
%ADD19R,0.086900X0.035700*%
%ADD20R,0.110600X0.071200*%
%ADD21R,0.106700X0.071200*%
%ADD22R,0.079100X0.071200*%
%ADD23R,0.118400X0.090900*%
%ADD24R,0.135000X0.070000*%
%ADD25R,0.085000X0.155000*%
%ADD26R,0.055000X0.075000*%
%ADD27R,0.075000X0.055000*%
%ADD28R,0.067200X0.067200*%
%ADD29R,0.070000X0.036000*%
%ADD30R,0.142000X0.071200*%
%ADD31C,0.090900*%
%ADD32C,0.145000*%
G04 APERTURE END LIST*
G54D10*
G54D11*
X12269Y13427D03*
X11268Y13428D03*
X10268Y13428D03*
X9268Y13428D03*
X8268Y13428D03*
X7268Y13428D03*
X6268Y13428D03*
G54D12*
X18395Y2735D03*
G54D11*
X19395Y2735D03*
X18395Y1735D03*
X19395Y1735D03*
X18395Y735D03*
X19395Y735D03*
G54D12*
X8000Y750D03*
G54D11*
X9000Y750D03*
X10000Y750D03*
X11000Y750D03*
G54D12*
X5600Y700D03*
G54D11*
X5600Y1700D03*
X5600Y2700D03*
G54D13*
X6707Y15926D03*
X6707Y16596D03*
G54D14*
X6707Y17265D03*
G54D13*
X6707Y17934D03*
X6707Y18604D03*
G54D15*
X2785Y17265D03*
G54D16*
X10804Y4207D03*
X10804Y4522D03*
X10804Y4837D03*
X10804Y5152D03*
X10804Y5467D03*
X10804Y5782D03*
X10804Y6097D03*
X10804Y6412D03*
X14570Y6410D03*
X14570Y4200D03*
X14570Y4520D03*
X14570Y4840D03*
X14570Y5150D03*
X14570Y5470D03*
X14570Y5780D03*
X14570Y6100D03*
G54D17*
X11588Y7200D03*
X11902Y7200D03*
X12218Y7200D03*
X12532Y7200D03*
X12848Y7200D03*
X13162Y7200D03*
X13478Y7200D03*
X13792Y7200D03*
X11590Y3420D03*
X11900Y3420D03*
X12220Y3420D03*
X12530Y3420D03*
X12840Y3420D03*
X13160Y3420D03*
X13480Y3420D03*
X13800Y3420D03*
G54D12*
X600Y700D03*
G54D11*
X1600Y700D03*
X2600Y700D03*
G54D12*
X600Y2000D03*
G54D11*
X1600Y2000D03*
X2600Y2000D03*
G54D18*
X9525Y4440D03*
X9525Y4066D03*
X9525Y4814D03*
G54D19*
X17858Y9500D03*
X17858Y9244D03*
X17858Y10012D03*
G54D20*
X19000Y7886D03*
G54D21*
X17819Y8555D03*
G54D20*
X19000Y11114D03*
G54D22*
X17819Y10445D03*
G54D19*
X17858Y9756D03*
G54D23*
X19079Y8949D03*
X19079Y10051D03*
G54D19*
X17858Y8988D03*
G54D24*
X15600Y15150D03*
X13800Y15150D03*
G54D25*
X17750Y16600D03*
X17750Y13700D03*
G54D26*
X9565Y7670D03*
X10315Y7670D03*
G54D27*
X9200Y16475D03*
X9200Y17225D03*
G54D26*
X15615Y4500D03*
X16365Y4500D03*
G54D27*
X8100Y16525D03*
X8100Y17275D03*
G54D26*
X18275Y4300D03*
X17525Y4300D03*
G54D27*
X11200Y9275D03*
X11200Y8525D03*
G54D26*
X15615Y5300D03*
X16365Y5300D03*
G54D27*
X9525Y5665D03*
X9525Y6415D03*
X16700Y9975D03*
X16700Y10725D03*
X8425Y5665D03*
X8425Y6415D03*
X10320Y8525D03*
X10320Y9275D03*
G54D26*
X17875Y12150D03*
X17125Y12150D03*
G54D28*
X18637Y12150D03*
X19463Y12150D03*
G54D12*
X600Y3200D03*
G54D11*
X1600Y3200D03*
X2600Y3200D03*
G54D12*
X14000Y19500D03*
G54D11*
X13000Y19500D03*
X12000Y19500D03*
X11000Y19500D03*
G54D12*
X18484Y19000D03*
G54D11*
X17500Y19000D03*
X16516Y19000D03*
G54D29*
X13000Y11550D03*
X13000Y11300D03*
X13000Y11040D03*
X13000Y10780D03*
X13000Y10530D03*
X13000Y10270D03*
X13000Y10010D03*
X13000Y9760D03*
X13000Y9500D03*
X13000Y9250D03*
X13000Y8990D03*
X13000Y8730D03*
X13000Y8480D03*
X13000Y8220D03*
X15800Y8220D03*
X15800Y8480D03*
X15800Y8720D03*
X15800Y8990D03*
X15800Y9250D03*
X15800Y9500D03*
X15800Y9760D03*
X15800Y10010D03*
X15800Y10270D03*
X15800Y10530D03*
X15800Y10780D03*
X15800Y11040D03*
X15800Y11300D03*
X15800Y11550D03*
G54D12*
X600Y7400D03*
G54D11*
X600Y6400D03*
X600Y5400D03*
X600Y4400D03*
G54D28*
X19400Y3787D03*
X19400Y4613D03*
G54D12*
X19500Y5800D03*
G54D11*
X19500Y6800D03*
G54D30*
X1230Y9179D03*
X4360Y9179D03*
X4360Y10951D03*
X1230Y10951D03*
G54D31*
X4075Y10065D03*
X1515Y10065D03*
X4075Y11837D03*
X1515Y11837D03*
X2795Y12565D03*
G54D32*
X13380Y12960D03*
G54D27*
X8415Y4815D03*
X8415Y4065D03*
G54D12*
X13250Y650D03*
G54D11*
X13250Y1650D03*
X14250Y650D03*
X14250Y1650D03*
X15250Y650D03*
X15250Y1650D03*
X16250Y650D03*
X16250Y1650D03*
G54D32*
X6550Y6990D03*
M02*
