M48
;DRILL file {Pcbnew (2012-nov-02)-testing} date Thu 03 Jan 2013 06:56:06 PM EST
;FORMAT={-:-/ absolute / inch / decimal}
FMAT,2
INCH,TZ
T1C0.025
T2C0.039
T3C0.039
T4C0.040
T5C0.043
%
G90
G05
M72
T1
X0.05Y1.425
X0.25Y1.425
X0.42Y0.12
X0.425Y0.735
X0.45Y1.425
X0.485Y0.445
X0.57Y0.955
X0.6Y0.445
X0.625Y1.525
X0.625Y1.425
X0.625Y0.88
X0.74Y1.525
X0.78Y0.565
X0.78Y0.45
X0.8Y0.9925
X0.815Y1.515
X0.835Y0.88
X0.905Y0.77
X0.92Y1.565
X0.965Y0.915
X1.02Y0.68
X1.105Y0.77
X1.135Y1.7
X1.145Y1.08
X1.18Y0.8
X1.185Y0.54
X1.225Y1.
X1.255Y0.79
X1.255Y0.65
X1.27Y0.5
X1.32Y0.45
X1.395Y0.885
X1.405Y0.84
X1.455Y0.835
X1.5Y0.925
X1.525Y0.315
X1.635Y0.92
X1.665Y1.125
X1.685Y0.445
X1.685Y0.33
X1.725Y0.68
X1.82Y0.355
T2
X1.6516Y1.9
X1.8484Y1.9
T3
X0.1515Y1.1837
X0.1515Y1.0065
X0.2795Y1.2565
X0.4075Y1.1837
X0.4075Y1.0065
T4
X0.06Y0.74
X0.06Y0.64
X0.06Y0.54
X0.06Y0.44
X0.06Y0.32
X0.06Y0.2
X0.06Y0.07
X0.16Y0.32
X0.16Y0.2
X0.16Y0.07
X0.26Y0.32
X0.26Y0.2
X0.26Y0.07
X0.56Y0.27
X0.56Y0.17
X0.56Y0.07
X0.6268Y1.3428
X0.7268Y1.3428
X0.8Y0.075
X0.8268Y1.3428
X0.9Y0.075
X0.9268Y1.3428
X1.Y0.075
X1.0268Y1.3428
X1.1Y1.95
X1.1Y0.075
X1.1268Y1.3428
X1.2Y1.95
X1.2269Y1.3427
X1.3Y1.95
X1.325Y0.165
X1.325Y0.065
X1.4Y1.95
X1.425Y0.165
X1.425Y0.065
X1.525Y0.165
X1.525Y0.065
X1.625Y0.165
X1.625Y0.065
X1.75Y1.9
X1.8395Y0.2735
X1.8395Y0.1735
X1.8395Y0.0735
X1.9395Y0.2735
X1.9395Y0.1735
X1.9395Y0.0735
X1.95Y0.68
X1.95Y0.58
T5
X1.7819Y1.0445
X1.7819Y0.8555
T3
X1.9196Y1.1114G85X1.8803Y1.1114
G05
X1.9196Y0.7886G85X1.8803Y0.7886
G05
T0
M30
