M48
;DRILL file {Pcbnew (2013-mar-13)-testing} date Fri 26 Jul 2013 11:24:15 PM EDT
;FORMAT={-:-/ absolute / inch / decimal}
FMAT,2
INCH,TZ
T1C0.025
T2C0.030
T3C0.030
T4C0.032
T5C0.039
T6C0.039
T7C0.040
T8C0.043
T9C0.075
%
G90
G05
M72
T1
X0.0375Y0.58
X0.21Y0.475
X0.28Y0.5925
X0.4075Y0.435
X0.55Y0.5925
X0.58Y0.2075
X0.6675Y0.3925
X0.68Y0.255
X0.78Y0.3075
X0.815Y0.5925
X0.9125Y0.2
X0.9375Y0.3525
X1.1825Y0.57
X1.4975Y0.5775
X1.53Y0.8775
X1.585Y0.77
X1.59Y0.6725
X1.61Y0.5675
X1.675Y0.5025
X1.685Y0.4275
X1.69Y1.605
X1.7225Y0.745
X1.7625Y0.8325
X1.8725Y0.6275
X1.93Y0.5525
X1.985Y0.645
X2.01Y0.7625
X2.025Y1.485
X2.1625Y0.255
X2.185Y1.54
X2.255Y0.655
T2
X1.284Y1.3843
X1.284Y1.3056
X1.284Y1.2269
X1.284Y1.1481
X1.284Y1.0694
X1.284Y0.9906
X1.284Y0.9119
X1.284Y0.8331
X1.284Y0.7544
X1.284Y0.6757
X2.15Y1.3843
X2.15Y1.3056
X2.15Y1.2269
X2.15Y1.1481
X2.15Y1.0694
X2.15Y0.9906
X2.15Y0.9119
X2.15Y0.8331
X2.15Y0.7544
X2.15Y0.6757
T3
X0.0729Y1.1219
X0.0729Y1.0219
X0.3229Y1.1219
X0.3229Y1.0219
X0.5829Y1.1219
X0.5829Y1.0219
X0.8429Y1.1219
X0.8429Y1.0219
T4
X1.62Y1.37
X1.62Y1.07
X1.72Y1.37
X1.72Y1.07
X1.82Y1.37
X1.82Y1.07
X1.92Y1.37
X1.92Y1.07
T5
X2.385Y1.0184
X2.385Y0.8216
T7
X0.0729Y1.7211
X0.0729Y1.4211
X0.1Y2.05
X0.2Y2.05
X0.3229Y1.7211
X0.3229Y1.4211
X0.375Y2.05
X0.3791Y0.0743
X0.475Y2.05
X0.4792Y0.0742
X0.5792Y0.0742
X0.5829Y1.7211
X0.5829Y1.4211
X0.65Y2.05
X0.6792Y0.0742
X0.75Y2.05
X0.7792Y0.0742
X0.8429Y1.7211
X0.8429Y1.4211
X0.8792Y0.0742
X0.925Y2.05
X0.9792Y0.0742
X1.025Y2.05
X1.21Y0.19
X1.21Y0.09
X1.25Y2.05
X1.31Y0.19
X1.31Y0.09
X1.35Y2.05
X1.41Y0.19
X1.41Y0.09
X1.51Y0.19
X1.51Y0.09
X1.525Y2.05
X1.61Y0.19
X1.61Y0.09
X1.625Y2.05
X1.71Y0.19
X1.71Y0.09
X1.81Y0.19
X1.81Y0.09
X1.91Y0.19
X1.91Y0.09
X2.01Y0.19
X2.01Y0.09
X2.11Y0.19
X2.11Y0.09
X2.21Y0.19
X2.21Y0.09
X2.31Y0.19
X2.31Y0.09
X2.385Y0.92
X2.405Y0.615
X2.405Y0.515
X2.405Y0.415
X2.405Y0.315
X2.41Y0.19
X2.41Y0.09
T8
X2.3069Y1.6195
X2.3069Y1.4305
T9
X1.9341Y1.93
X2.0522Y2.115
X2.1703Y1.93
T6
X2.4303Y1.6864G85X2.4197Y1.6864
G05
X2.4303Y1.3636G85X2.4197Y1.3636
G05
T0
M30
