G04 (created by PCBNEW (2013-mar-13)-testing) date Fri 26 Jul 2013 11:26:15 PM EDT*
%MOIN*%
G04 Gerber Fmt 3.4, Leading zero omitted, Abs format*
%FSLAX34Y34*%
G01*
G70*
G90*
G04 APERTURE LIST*
%ADD10C,0.006000*%
%ADD11R,0.047200X0.047200*%
%ADD12C,0.060000*%
%ADD13R,0.060000X0.060000*%
%ADD14R,0.060000X0.080000*%
%ADD15R,0.039370X0.039370*%
%ADD16C,0.039370*%
%ADD17C,0.043307*%
%ADD18R,0.035000X0.055000*%
%ADD19R,0.020000X0.030000*%
%ADD20R,0.012000X0.020000*%
%ADD21O,0.236200X0.098400*%
%ADD22O,0.098400X0.157500*%
%ADD23R,0.055000X0.035000*%
%ADD24R,0.039300X0.098400*%
%ADD25R,0.055000X0.055000*%
%ADD26C,0.055000*%
%ADD27C,0.090000*%
%ADD28C,0.070000*%
%ADD29R,0.066900X0.015700*%
%ADD30R,0.090600X0.051200*%
%ADD31R,0.086700X0.051200*%
%ADD32R,0.098400X0.070900*%
%ADD33R,0.080000X0.060000*%
%ADD34C,0.035000*%
%ADD35C,0.014000*%
%ADD36C,0.018000*%
%ADD37C,0.022000*%
%ADD38C,0.010000*%
G04 APERTURE END LIST*
G54D10*
G54D11*
X11987Y3950D03*
X12813Y3950D03*
X11937Y5050D03*
X12763Y5050D03*
G54D12*
X3791Y743D03*
X4792Y742D03*
X5792Y742D03*
X6792Y742D03*
X7792Y742D03*
X8792Y742D03*
X9792Y742D03*
G54D13*
X24050Y3150D03*
G54D12*
X24050Y4150D03*
X24050Y5150D03*
X24050Y6150D03*
G54D13*
X24100Y1900D03*
G54D12*
X24100Y900D03*
X23100Y1900D03*
X23100Y900D03*
X22100Y1900D03*
X22100Y900D03*
X21100Y1900D03*
X21100Y900D03*
X20100Y1900D03*
X20100Y900D03*
X19100Y1900D03*
X19100Y900D03*
X18100Y1900D03*
X18100Y900D03*
X17100Y1900D03*
X17100Y900D03*
X16100Y1900D03*
X16100Y900D03*
X15100Y1900D03*
X15100Y900D03*
X14100Y1900D03*
X14100Y900D03*
X13100Y1900D03*
X13100Y900D03*
X12100Y1900D03*
X12100Y900D03*
G54D14*
X12450Y15400D03*
X11150Y15400D03*
G54D15*
X12840Y6756D03*
G54D16*
X12840Y7544D03*
X12840Y8331D03*
X12840Y9118D03*
X12840Y9906D03*
X12840Y10693D03*
G54D17*
X12840Y11481D03*
G54D16*
X12840Y12268D03*
X12840Y13055D03*
X12840Y13843D03*
G54D13*
X16250Y20500D03*
G54D12*
X15250Y20500D03*
G54D18*
X5925Y7850D03*
X6675Y7850D03*
G54D13*
X23850Y8216D03*
G54D12*
X23850Y9200D03*
X23850Y10184D03*
G54D19*
X5925Y6050D03*
X6675Y6050D03*
X5925Y7050D03*
X6300Y6050D03*
X6675Y7050D03*
X8625Y6050D03*
X9375Y6050D03*
X8625Y7050D03*
X9000Y6050D03*
X9375Y7050D03*
G54D18*
X8625Y7850D03*
X9375Y7850D03*
X8625Y5100D03*
X9375Y5100D03*
X5925Y5150D03*
X6675Y5150D03*
G54D20*
X17850Y7100D03*
X17350Y7100D03*
X17850Y6300D03*
X17600Y7100D03*
X17350Y6300D03*
G54D13*
X10250Y20500D03*
G54D12*
X9250Y20500D03*
G54D21*
X20522Y21150D03*
G54D22*
X21703Y19300D03*
X19341Y19300D03*
G54D23*
X15300Y18275D03*
X15300Y17525D03*
X14400Y18275D03*
X14400Y17525D03*
X22900Y13125D03*
X22900Y12375D03*
G54D24*
X17500Y18679D03*
X17500Y16320D03*
G54D18*
X18225Y9000D03*
X18975Y9000D03*
X18225Y8000D03*
X18975Y8000D03*
G54D25*
X19200Y13700D03*
G54D26*
X18200Y13700D03*
X17200Y13700D03*
X16200Y13700D03*
X16200Y10700D03*
X17200Y10700D03*
X18200Y10700D03*
X19200Y10700D03*
G54D20*
X16850Y8800D03*
X16350Y8800D03*
X16850Y8000D03*
X16600Y8800D03*
X16350Y8000D03*
G54D13*
X7500Y20500D03*
G54D12*
X6500Y20500D03*
G54D23*
X20300Y11325D03*
X20300Y12075D03*
G54D18*
X19325Y4750D03*
X20075Y4750D03*
X19325Y3900D03*
X20075Y3900D03*
X21875Y16250D03*
X21125Y16250D03*
G54D15*
X21500Y6756D03*
G54D16*
X21500Y7544D03*
X21500Y8331D03*
X21500Y9118D03*
X21500Y9906D03*
X21500Y10693D03*
G54D17*
X21500Y11481D03*
G54D16*
X21500Y12268D03*
X21500Y13055D03*
X21500Y13843D03*
G54D11*
X19587Y16250D03*
X20413Y16250D03*
X21763Y3500D03*
X20937Y3500D03*
X21763Y4750D03*
X20937Y4750D03*
X5887Y8750D03*
X6713Y8750D03*
X8587Y8750D03*
X9413Y8750D03*
X24563Y12400D03*
X23737Y12400D03*
G54D27*
X8429Y17211D03*
X8429Y14211D03*
G54D28*
X8429Y10218D03*
X8429Y11218D03*
G54D27*
X5829Y17211D03*
X5829Y14211D03*
G54D28*
X5829Y10218D03*
X5829Y11218D03*
G54D29*
X23108Y15250D03*
X23108Y14994D03*
X23108Y15762D03*
G54D30*
X24250Y13636D03*
G54D31*
X23069Y14305D03*
G54D30*
X24250Y16864D03*
G54D31*
X23069Y16195D03*
G54D29*
X23108Y15506D03*
G54D32*
X24329Y14699D03*
X24329Y15801D03*
G54D29*
X23108Y14738D03*
G54D11*
X3237Y8750D03*
X4063Y8750D03*
X787Y8750D03*
X1613Y8750D03*
G54D27*
X3229Y17211D03*
X3229Y14211D03*
G54D28*
X3229Y10218D03*
X3229Y11218D03*
G54D27*
X729Y17211D03*
X729Y14211D03*
G54D28*
X729Y10218D03*
X729Y11218D03*
G54D13*
X13500Y20500D03*
G54D12*
X12500Y20500D03*
G54D13*
X4750Y20500D03*
G54D12*
X3750Y20500D03*
G54D13*
X2000Y20500D03*
G54D12*
X1000Y20500D03*
G54D18*
X3275Y5150D03*
X4025Y5150D03*
X825Y5150D03*
X1575Y5150D03*
X3275Y7850D03*
X4025Y7850D03*
X825Y7850D03*
X1575Y7850D03*
X15275Y8050D03*
X14525Y8050D03*
X15275Y7100D03*
X14525Y7100D03*
G54D14*
X12450Y17600D03*
X11150Y17600D03*
X12450Y16500D03*
X11150Y16500D03*
G54D33*
X11300Y14150D03*
X11300Y12850D03*
X20300Y9900D03*
X20300Y8600D03*
G54D19*
X3275Y6000D03*
X4025Y6000D03*
X3275Y7000D03*
X3650Y6000D03*
X4025Y7000D03*
X775Y6000D03*
X1525Y6000D03*
X775Y7000D03*
X1150Y6000D03*
X1525Y7000D03*
G54D34*
X9125Y2000D03*
X16850Y4275D03*
X18725Y6275D03*
X11825Y5700D03*
X14975Y5775D03*
X15900Y6725D03*
X20100Y7625D03*
X22550Y6550D03*
X21625Y2550D03*
X8150Y5925D03*
X5500Y5925D03*
X2800Y5925D03*
X375Y5800D03*
X21850Y15400D03*
X19850Y6450D03*
X19300Y5525D03*
X4075Y4350D03*
X16100Y5675D03*
X16750Y5025D03*
X6675Y3925D03*
X9375Y3525D03*
X2100Y4750D03*
X6800Y2550D03*
X7800Y3075D03*
X20250Y14850D03*
X5800Y2075D03*
X15300Y8775D03*
X17225Y7450D03*
X16900Y16050D03*
X15850Y7700D03*
X17625Y8325D03*
G54D35*
X17850Y6300D02*
X17850Y6550D01*
X16850Y7050D02*
X16850Y8000D01*
X17175Y6725D02*
X16850Y7050D01*
X17675Y6725D02*
X17175Y6725D01*
X17850Y6550D02*
X17675Y6725D01*
G54D36*
X11987Y3950D02*
X11075Y3950D01*
X11075Y3950D02*
X9125Y2000D01*
X16100Y1900D02*
X16100Y3525D01*
X16100Y3525D02*
X16850Y4275D01*
G54D37*
X11937Y5050D02*
X11937Y5588D01*
X18725Y6275D02*
X18700Y6300D01*
X11937Y5588D02*
X11825Y5700D01*
X21763Y4750D02*
X22950Y4750D01*
X23550Y4150D02*
X24050Y4150D01*
X22950Y4750D02*
X23550Y4150D01*
X24100Y1900D02*
X24200Y1900D01*
X24200Y1900D02*
X24750Y2450D01*
X24750Y2450D02*
X24750Y3450D01*
X24750Y3450D02*
X24050Y4150D01*
X17850Y6300D02*
X18700Y6300D01*
X18700Y6300D02*
X19687Y7287D01*
X21763Y3500D02*
X21763Y4750D01*
X21763Y4750D02*
X21500Y5013D01*
X21500Y5013D02*
X21500Y6756D01*
X11987Y3950D02*
X11987Y5000D01*
X11987Y5000D02*
X11937Y5050D01*
X21500Y6756D02*
X20218Y6756D01*
X20218Y6756D02*
X19687Y7287D01*
X19687Y7287D02*
X18975Y8000D01*
X18975Y8000D02*
X18975Y9000D01*
X18975Y9000D02*
X18975Y10475D01*
X18975Y10475D02*
X19200Y10700D01*
X19200Y10700D02*
X19675Y10700D01*
X19675Y10700D02*
X20300Y11325D01*
G54D35*
X24563Y12400D02*
X24563Y8838D01*
X22575Y8700D02*
X22150Y8275D01*
X24425Y8700D02*
X22575Y8700D01*
X24563Y8838D02*
X24425Y8700D01*
G54D36*
X20300Y8600D02*
X20300Y7825D01*
X14975Y5800D02*
X14975Y5775D01*
X15900Y6725D02*
X14975Y5800D01*
X20300Y7825D02*
X20100Y7625D01*
X23100Y900D02*
X23100Y1025D01*
X20425Y8725D02*
X20300Y8600D01*
X21700Y8725D02*
X20425Y8725D01*
X22450Y7975D02*
X22150Y8275D01*
X22150Y8275D02*
X21700Y8725D01*
X22450Y6650D02*
X22450Y7975D01*
X22550Y6550D02*
X22450Y6650D01*
X22350Y2550D02*
X21625Y2550D01*
X22600Y2300D02*
X22350Y2550D01*
X22600Y1525D02*
X22600Y2300D01*
X23100Y1025D02*
X22600Y1525D01*
G54D37*
X8275Y6050D02*
X8625Y6050D01*
X8150Y5925D02*
X8275Y6050D01*
X5625Y6050D02*
X5925Y6050D01*
X5500Y5925D02*
X5625Y6050D01*
X775Y6000D02*
X575Y6000D01*
X2875Y6000D02*
X3275Y6000D01*
X2800Y5925D02*
X2875Y6000D01*
X575Y6000D02*
X375Y5800D01*
X24100Y900D02*
X23100Y900D01*
X8625Y7050D02*
X8500Y7050D01*
X8050Y8213D02*
X8587Y8750D01*
X8050Y7500D02*
X8050Y8213D01*
X8500Y7050D02*
X8050Y7500D01*
X8587Y8750D02*
X8587Y10061D01*
X8587Y10061D02*
X8429Y10218D01*
X8429Y10218D02*
X8668Y10218D01*
X8668Y10218D02*
X11300Y12850D01*
X5887Y8750D02*
X5887Y10161D01*
X5887Y10161D02*
X5829Y10218D01*
X5925Y7050D02*
X5700Y7050D01*
X5300Y8163D02*
X5887Y8750D01*
X5300Y7450D02*
X5300Y8163D01*
X5700Y7050D02*
X5300Y7450D01*
X5829Y10218D02*
X5968Y10218D01*
X5968Y10218D02*
X11150Y15400D01*
X3275Y7000D02*
X3050Y7000D01*
X2650Y8163D02*
X3237Y8750D01*
X2650Y7400D02*
X2650Y8163D01*
X3050Y7000D02*
X2650Y7400D01*
X3229Y10218D02*
X3618Y10218D01*
X8800Y16500D02*
X11150Y16500D01*
X7350Y15050D02*
X8800Y16500D01*
X7350Y13950D02*
X7350Y15050D01*
X3618Y10218D02*
X7350Y13950D01*
X3237Y8750D02*
X3237Y10211D01*
X3237Y10211D02*
X3229Y10218D01*
X775Y7000D02*
X550Y7000D01*
X350Y8313D02*
X787Y8750D01*
X350Y7200D02*
X350Y8313D01*
X550Y7000D02*
X350Y7200D01*
X729Y10218D02*
X868Y10218D01*
X10550Y18200D02*
X11150Y17600D01*
X7550Y18200D02*
X10550Y18200D01*
X7250Y17900D02*
X7550Y18200D01*
X7250Y17200D02*
X7250Y17900D01*
X4650Y14600D02*
X7250Y17200D01*
X4650Y14000D02*
X4650Y14600D01*
X868Y10218D02*
X4650Y14000D01*
X787Y8750D02*
X787Y10161D01*
X787Y10161D02*
X729Y10218D01*
G54D35*
X23108Y15762D02*
X22462Y15762D01*
X22100Y15400D02*
X21850Y15400D01*
X22462Y15762D02*
X22100Y15400D01*
G54D37*
X17500Y18679D02*
X18720Y18679D01*
X18720Y18679D02*
X19341Y19300D01*
X12100Y900D02*
X12050Y900D01*
X9309Y225D02*
X8792Y742D01*
X11375Y225D02*
X9309Y225D01*
X12050Y900D02*
X11375Y225D01*
G54D36*
X21100Y900D02*
X21100Y1075D01*
X20600Y2625D02*
X19325Y3900D01*
X20600Y1575D02*
X20600Y2625D01*
X21100Y1075D02*
X20600Y1575D01*
X19325Y3900D02*
X19400Y3900D01*
X19700Y6300D02*
X19850Y6450D01*
X19700Y4200D02*
X19700Y6300D01*
X19400Y3900D02*
X19700Y4200D01*
X19325Y5500D02*
X19325Y4750D01*
X19300Y5525D02*
X19325Y5500D01*
X19600Y3100D02*
X19250Y3100D01*
X18750Y4175D02*
X19325Y4750D01*
X18750Y3600D02*
X18750Y4175D01*
X19250Y3100D02*
X18750Y3600D01*
X20100Y900D02*
X20100Y925D01*
X19600Y1425D02*
X19600Y3100D01*
X20100Y925D02*
X19600Y1425D01*
X4025Y4400D02*
X4025Y5150D01*
X4075Y4350D02*
X4025Y4400D01*
G54D37*
X4025Y5150D02*
X4025Y6000D01*
G54D36*
X19100Y900D02*
X19100Y1025D01*
X16350Y5925D02*
X16350Y8000D01*
X16100Y5675D02*
X16350Y5925D01*
X18600Y3175D02*
X16750Y5025D01*
X18600Y1525D02*
X18600Y3175D01*
X19100Y1025D02*
X18600Y1525D01*
X6675Y3925D02*
X6675Y5150D01*
G54D37*
X6675Y5150D02*
X6675Y6050D01*
G54D36*
X9375Y3525D02*
X9375Y5100D01*
G54D37*
X9375Y5100D02*
X9375Y5900D01*
G54D36*
X14100Y900D02*
X14100Y950D01*
X14600Y3550D02*
X17350Y6300D01*
X14600Y1450D02*
X14600Y3550D01*
X14100Y950D02*
X14600Y1450D01*
X1700Y5150D02*
X1575Y5150D01*
X2100Y4750D02*
X1700Y5150D01*
G54D37*
X1525Y6000D02*
X1525Y5200D01*
X1525Y5200D02*
X1575Y5150D01*
X15300Y18275D02*
X15300Y20450D01*
X15300Y20450D02*
X15250Y20500D01*
X14400Y18275D02*
X14025Y18275D01*
X12500Y19800D02*
X12500Y20500D01*
X14025Y18275D02*
X12500Y19800D01*
G54D36*
X6792Y2542D02*
X6792Y742D01*
X6800Y2550D02*
X6792Y2542D01*
X7792Y3067D02*
X7792Y742D01*
X7800Y3075D02*
X7792Y3067D01*
G54D37*
X19587Y15513D02*
X19587Y16250D01*
X20250Y14850D02*
X19587Y15513D01*
G54D36*
X5792Y2067D02*
X5792Y742D01*
X5800Y2075D02*
X5792Y2067D01*
G54D35*
X17350Y7100D02*
X17350Y7325D01*
X15325Y8800D02*
X16350Y8800D01*
X15300Y8775D02*
X15325Y8800D01*
X17350Y7325D02*
X17225Y7450D01*
X16350Y8800D02*
X16350Y10550D01*
X16350Y10550D02*
X16200Y10700D01*
X24329Y14699D02*
X24329Y15801D01*
X23108Y14994D02*
X23108Y14738D01*
G54D36*
X15100Y900D02*
X15100Y825D01*
X12600Y1400D02*
X12100Y1900D01*
X12600Y700D02*
X12600Y1400D01*
X13000Y300D02*
X12600Y700D01*
X14575Y300D02*
X13000Y300D01*
X15100Y825D02*
X14575Y300D01*
X23108Y14738D02*
X23108Y14344D01*
X23108Y14344D02*
X23069Y14305D01*
G54D37*
X2325Y6525D02*
X2325Y10314D01*
X2325Y10314D02*
X3229Y11218D01*
X3791Y743D02*
X3307Y743D01*
X825Y3225D02*
X825Y5150D01*
X3307Y743D02*
X825Y3225D01*
X6250Y6525D02*
X8975Y6525D01*
X8975Y6525D02*
X9000Y6550D01*
X3600Y6525D02*
X6300Y6525D01*
X6300Y6525D02*
X6250Y6525D01*
X6250Y6525D02*
X6300Y6525D01*
X1150Y6525D02*
X2325Y6525D01*
X2325Y6525D02*
X3600Y6525D01*
X3600Y6525D02*
X3650Y6575D01*
X18100Y900D02*
X18100Y875D01*
X21475Y275D02*
X22100Y900D01*
X18700Y275D02*
X21475Y275D01*
X18100Y875D02*
X18700Y275D01*
X15100Y900D02*
X15100Y700D01*
X17450Y250D02*
X18100Y900D01*
X15550Y250D02*
X17450Y250D01*
X15100Y700D02*
X15550Y250D01*
X8625Y5100D02*
X8625Y5125D01*
X9000Y5500D02*
X9000Y5900D01*
X8625Y5125D02*
X9000Y5500D01*
X9000Y5900D02*
X9000Y6550D01*
X9000Y6550D02*
X9000Y7475D01*
X9000Y7475D02*
X8625Y7850D01*
X1150Y6000D02*
X1150Y6525D01*
X1150Y6525D02*
X1150Y7200D01*
X825Y7525D02*
X825Y7850D01*
X1150Y7200D02*
X825Y7525D01*
X3650Y6000D02*
X3650Y6575D01*
X3650Y6575D02*
X3650Y7250D01*
X3650Y7250D02*
X3275Y7625D01*
X3275Y7625D02*
X3275Y7850D01*
X5925Y7850D02*
X5925Y7775D01*
X5925Y7775D02*
X6300Y7400D01*
X6300Y7400D02*
X6300Y6525D01*
X6300Y6525D02*
X6300Y6050D01*
X5925Y5150D02*
X5925Y5325D01*
X6300Y5700D02*
X6300Y6050D01*
X5925Y5325D02*
X6300Y5700D01*
X3275Y5150D02*
X3275Y5275D01*
X3650Y5650D02*
X3650Y6000D01*
X3275Y5275D02*
X3650Y5650D01*
X825Y5150D02*
X825Y5275D01*
X1150Y5600D02*
X1150Y6000D01*
X825Y5275D02*
X1150Y5600D01*
X12450Y17600D02*
X12450Y18550D01*
X12600Y21400D02*
X13500Y20500D01*
X12250Y21400D02*
X12600Y21400D01*
X11650Y20800D02*
X12250Y21400D01*
X11650Y19350D02*
X11650Y20800D01*
X12450Y18550D02*
X11650Y19350D01*
X24250Y16864D02*
X24250Y18450D01*
X23400Y19300D02*
X21703Y19300D01*
X24250Y18450D02*
X23400Y19300D01*
X12450Y16500D02*
X12450Y17600D01*
X11300Y14150D02*
X11300Y14250D01*
X11300Y14250D02*
X12450Y15400D01*
X12450Y15400D02*
X12450Y17600D01*
X8429Y11218D02*
X8429Y11279D01*
X8429Y11279D02*
X11300Y14150D01*
X20300Y12075D02*
X20300Y12643D01*
X20300Y12643D02*
X21500Y13843D01*
X22900Y13125D02*
X22900Y14136D01*
X22900Y14136D02*
X23069Y14305D01*
X21500Y13843D02*
X22607Y13843D01*
X22607Y13843D02*
X23069Y14305D01*
X20300Y12075D02*
X18425Y12075D01*
X18425Y12075D02*
X17500Y13000D01*
X16200Y13700D02*
X16200Y13400D01*
X17400Y12900D02*
X17500Y13000D01*
X17500Y13000D02*
X18200Y13700D01*
X16700Y12900D02*
X17400Y12900D01*
X16200Y13400D02*
X16700Y12900D01*
X16200Y13700D02*
X16200Y10700D01*
X16900Y16050D02*
X17170Y16320D01*
X17170Y16320D02*
X17500Y16320D01*
X23069Y16195D02*
X21930Y16195D01*
X21930Y16195D02*
X21875Y16250D01*
X24250Y13636D02*
X24250Y14620D01*
X24250Y14620D02*
X24329Y14699D01*
X23069Y14305D02*
X23935Y14305D01*
X23935Y14305D02*
X24250Y13990D01*
X24250Y13990D02*
X24250Y13636D01*
X23069Y16195D02*
X23581Y16195D01*
X23581Y16195D02*
X24250Y16864D01*
X24250Y16864D02*
X24250Y15880D01*
X24250Y15880D02*
X24329Y15801D01*
X12813Y3950D02*
X13050Y3950D01*
X14525Y6725D02*
X14525Y7100D01*
X13400Y5600D02*
X14525Y6725D01*
X13400Y4300D02*
X13400Y5600D01*
X13050Y3950D02*
X13400Y4300D01*
X12763Y5050D02*
X12763Y5513D01*
X13600Y7125D02*
X14525Y8050D01*
X13600Y6350D02*
X13600Y7125D01*
X12763Y5513D02*
X13600Y6350D01*
X21125Y16250D02*
X20413Y16250D01*
X20937Y3500D02*
X20475Y3500D01*
X20475Y3500D02*
X20075Y3900D01*
X20937Y4750D02*
X20075Y4750D01*
X1575Y7850D02*
X1575Y8712D01*
X1575Y8712D02*
X1613Y8750D01*
X4025Y7850D02*
X4025Y8712D01*
X4025Y8712D02*
X4063Y8750D01*
G54D35*
X15275Y7100D02*
X15275Y7125D01*
X15275Y7125D02*
X15850Y7700D01*
X17600Y7100D02*
X17600Y8300D01*
X17600Y8300D02*
X17625Y8325D01*
G54D36*
X18225Y8000D02*
X17975Y8000D01*
X17650Y8325D02*
X17625Y8325D01*
X17975Y8000D02*
X17650Y8325D01*
G54D35*
X16600Y8800D02*
X16600Y9125D01*
X18000Y9225D02*
X18225Y9000D01*
X16700Y9225D02*
X18000Y9225D01*
X16600Y9125D02*
X16700Y9225D01*
X15275Y8050D02*
X15850Y8050D01*
X16600Y8550D02*
X16600Y8800D01*
X16450Y8400D02*
X16600Y8550D01*
X16200Y8400D02*
X16450Y8400D01*
X15850Y8050D02*
X16200Y8400D01*
G54D37*
X18225Y9000D02*
X18225Y10675D01*
X18225Y10675D02*
X18200Y10700D01*
X17200Y13700D02*
X17200Y14250D01*
X14400Y17050D02*
X14400Y17525D01*
X17200Y14250D02*
X14400Y17050D01*
X15300Y17525D02*
X15300Y16950D01*
X18000Y14900D02*
X19200Y13700D01*
X17350Y14900D02*
X18000Y14900D01*
X15300Y16950D02*
X17350Y14900D01*
G54D36*
X23850Y9200D02*
X23525Y9200D01*
X20700Y10300D02*
X20300Y9900D01*
X22425Y10300D02*
X20700Y10300D01*
X23525Y9200D02*
X22425Y10300D01*
G54D37*
X22900Y12375D02*
X23712Y12375D01*
X23712Y12375D02*
X23737Y12400D01*
X6675Y7850D02*
X6675Y8712D01*
X6675Y8712D02*
X6713Y8750D01*
X9375Y7850D02*
X9375Y8712D01*
X9375Y8712D02*
X9413Y8750D01*
G54D10*
G36*
X882Y7800D02*
X875Y7800D01*
X875Y7792D01*
X775Y7792D01*
X775Y7800D01*
X767Y7800D01*
X767Y7900D01*
X775Y7900D01*
X775Y7907D01*
X875Y7907D01*
X875Y7900D01*
X882Y7900D01*
X882Y7800D01*
X882Y7800D01*
G37*
G54D38*
X882Y7800D02*
X875Y7800D01*
X875Y7792D01*
X775Y7792D01*
X775Y7800D01*
X767Y7800D01*
X767Y7900D01*
X775Y7900D01*
X775Y7907D01*
X875Y7907D01*
X875Y7900D01*
X882Y7900D01*
X882Y7800D01*
G54D10*
G36*
X3332Y7800D02*
X3325Y7800D01*
X3325Y7792D01*
X3225Y7792D01*
X3225Y7800D01*
X3217Y7800D01*
X3217Y7900D01*
X3225Y7900D01*
X3225Y7907D01*
X3325Y7907D01*
X3325Y7900D01*
X3332Y7900D01*
X3332Y7800D01*
X3332Y7800D01*
G37*
G54D38*
X3332Y7800D02*
X3325Y7800D01*
X3325Y7792D01*
X3225Y7792D01*
X3225Y7800D01*
X3217Y7800D01*
X3217Y7900D01*
X3225Y7900D01*
X3225Y7907D01*
X3325Y7907D01*
X3325Y7900D01*
X3332Y7900D01*
X3332Y7800D01*
G54D10*
G36*
X5982Y7800D02*
X5975Y7800D01*
X5975Y7792D01*
X5875Y7792D01*
X5875Y7800D01*
X5867Y7800D01*
X5867Y7900D01*
X5875Y7900D01*
X5875Y7907D01*
X5975Y7907D01*
X5975Y7900D01*
X5982Y7900D01*
X5982Y7800D01*
X5982Y7800D01*
G37*
G54D38*
X5982Y7800D02*
X5975Y7800D01*
X5975Y7792D01*
X5875Y7792D01*
X5875Y7800D01*
X5867Y7800D01*
X5867Y7900D01*
X5875Y7900D01*
X5875Y7907D01*
X5975Y7907D01*
X5975Y7900D01*
X5982Y7900D01*
X5982Y7800D01*
G54D10*
G36*
X8682Y7800D02*
X8675Y7800D01*
X8675Y7792D01*
X8575Y7792D01*
X8575Y7800D01*
X8567Y7800D01*
X8567Y7900D01*
X8575Y7900D01*
X8575Y7907D01*
X8675Y7907D01*
X8675Y7900D01*
X8682Y7900D01*
X8682Y7800D01*
X8682Y7800D01*
G37*
G54D38*
X8682Y7800D02*
X8675Y7800D01*
X8675Y7792D01*
X8575Y7792D01*
X8575Y7800D01*
X8567Y7800D01*
X8567Y7900D01*
X8575Y7900D01*
X8575Y7907D01*
X8675Y7907D01*
X8675Y7900D01*
X8682Y7900D01*
X8682Y7800D01*
G54D10*
G36*
X17800Y8712D02*
X17709Y8749D01*
X17540Y8750D01*
X17384Y8685D01*
X17264Y8566D01*
X17200Y8409D01*
X17199Y8240D01*
X17264Y8084D01*
X17280Y8069D01*
X17280Y7450D01*
X17280Y7427D01*
X17257Y7450D01*
X17240Y7450D01*
X17170Y7420D01*
X17170Y8000D01*
X17160Y8050D01*
X17160Y8149D01*
X17121Y8241D01*
X17051Y8311D01*
X16959Y8350D01*
X16860Y8350D01*
X16843Y8350D01*
X16895Y8427D01*
X16900Y8450D01*
X16900Y8450D01*
X16959Y8450D01*
X17051Y8488D01*
X17121Y8558D01*
X17160Y8650D01*
X17160Y8749D01*
X17160Y8905D01*
X17800Y8905D01*
X17800Y8712D01*
X17800Y8712D01*
G37*
G54D38*
X17800Y8712D02*
X17709Y8749D01*
X17540Y8750D01*
X17384Y8685D01*
X17264Y8566D01*
X17200Y8409D01*
X17199Y8240D01*
X17264Y8084D01*
X17280Y8069D01*
X17280Y7450D01*
X17280Y7427D01*
X17257Y7450D01*
X17240Y7450D01*
X17170Y7420D01*
X17170Y8000D01*
X17160Y8050D01*
X17160Y8149D01*
X17121Y8241D01*
X17051Y8311D01*
X16959Y8350D01*
X16860Y8350D01*
X16843Y8350D01*
X16895Y8427D01*
X16900Y8450D01*
X16900Y8450D01*
X16959Y8450D01*
X17051Y8488D01*
X17121Y8558D01*
X17160Y8650D01*
X17160Y8749D01*
X17160Y8905D01*
X17800Y8905D01*
X17800Y8712D01*
G54D10*
G36*
X20176Y1894D02*
X20105Y1823D01*
X20100Y1829D01*
X20094Y1823D01*
X20023Y1894D01*
X20029Y1900D01*
X20023Y1905D01*
X20094Y1976D01*
X20100Y1970D01*
X20105Y1976D01*
X20176Y1905D01*
X20170Y1900D01*
X20176Y1894D01*
X20176Y1894D01*
G37*
G54D38*
X20176Y1894D02*
X20105Y1823D01*
X20100Y1829D01*
X20094Y1823D01*
X20023Y1894D01*
X20029Y1900D01*
X20023Y1905D01*
X20094Y1976D01*
X20100Y1970D01*
X20105Y1976D01*
X20176Y1905D01*
X20170Y1900D01*
X20176Y1894D01*
G54D10*
G36*
X24388Y15250D02*
X24379Y15241D01*
X24379Y14749D01*
X24386Y14749D01*
X24386Y14649D01*
X24379Y14649D01*
X24379Y14641D01*
X24279Y14641D01*
X24279Y14649D01*
X24271Y14649D01*
X24271Y14749D01*
X24279Y14749D01*
X24279Y15241D01*
X24270Y15250D01*
X24279Y15259D01*
X24279Y15751D01*
X24271Y15751D01*
X24271Y15851D01*
X24279Y15851D01*
X24279Y15858D01*
X24379Y15858D01*
X24379Y15851D01*
X24386Y15851D01*
X24386Y15751D01*
X24379Y15751D01*
X24379Y15259D01*
X24388Y15250D01*
X24388Y15250D01*
G37*
G54D38*
X24388Y15250D02*
X24379Y15241D01*
X24379Y14749D01*
X24386Y14749D01*
X24386Y14649D01*
X24379Y14649D01*
X24379Y14641D01*
X24279Y14641D01*
X24279Y14649D01*
X24271Y14649D01*
X24271Y14749D01*
X24279Y14749D01*
X24279Y15241D01*
X24270Y15250D01*
X24279Y15259D01*
X24279Y15751D01*
X24271Y15751D01*
X24271Y15851D01*
X24279Y15851D01*
X24279Y15858D01*
X24379Y15858D01*
X24379Y15851D01*
X24386Y15851D01*
X24386Y15751D01*
X24379Y15751D01*
X24379Y15259D01*
X24388Y15250D01*
G54D10*
G36*
X24390Y2599D02*
X24240Y2450D01*
X24000Y2450D01*
X24000Y2662D01*
X24000Y3100D01*
X23562Y3100D01*
X23500Y3037D01*
X23500Y2800D01*
X23538Y2708D01*
X23608Y2638D01*
X23700Y2600D01*
X23799Y2600D01*
X23937Y2600D01*
X24000Y2662D01*
X24000Y2450D01*
X23750Y2450D01*
X23658Y2411D01*
X23588Y2341D01*
X23550Y2249D01*
X23550Y2227D01*
X23411Y2365D01*
X23209Y2449D01*
X22991Y2450D01*
X22916Y2419D01*
X22914Y2430D01*
X22840Y2540D01*
X22590Y2790D01*
X22480Y2864D01*
X22350Y2890D01*
X21886Y2890D01*
X21866Y2910D01*
X21709Y2974D01*
X21540Y2975D01*
X21384Y2910D01*
X21264Y2791D01*
X21200Y2634D01*
X21199Y2465D01*
X21206Y2449D01*
X20991Y2450D01*
X20940Y2428D01*
X20940Y2625D01*
X20914Y2755D01*
X20840Y2865D01*
X20691Y3014D01*
X20750Y3014D01*
X21222Y3014D01*
X21314Y3052D01*
X21350Y3087D01*
X21385Y3052D01*
X21477Y3014D01*
X21576Y3014D01*
X22048Y3014D01*
X22140Y3052D01*
X22210Y3122D01*
X22249Y3214D01*
X22249Y3313D01*
X22249Y3785D01*
X22210Y3877D01*
X22140Y3947D01*
X22123Y3955D01*
X22123Y4294D01*
X22140Y4302D01*
X22210Y4372D01*
X22218Y4390D01*
X22800Y4390D01*
X23295Y3895D01*
X23295Y3895D01*
X23412Y3817D01*
X23550Y3790D01*
X23632Y3790D01*
X23722Y3700D01*
X23700Y3700D01*
X23608Y3661D01*
X23538Y3591D01*
X23500Y3499D01*
X23500Y3262D01*
X23562Y3200D01*
X24000Y3200D01*
X24000Y3207D01*
X24100Y3207D01*
X24100Y3200D01*
X24107Y3200D01*
X24107Y3100D01*
X24100Y3100D01*
X24100Y2662D01*
X24162Y2600D01*
X24300Y2600D01*
X24390Y2600D01*
X24390Y2599D01*
X24390Y2599D01*
G37*
G54D38*
X24390Y2599D02*
X24240Y2450D01*
X24000Y2450D01*
X24000Y2662D01*
X24000Y3100D01*
X23562Y3100D01*
X23500Y3037D01*
X23500Y2800D01*
X23538Y2708D01*
X23608Y2638D01*
X23700Y2600D01*
X23799Y2600D01*
X23937Y2600D01*
X24000Y2662D01*
X24000Y2450D01*
X23750Y2450D01*
X23658Y2411D01*
X23588Y2341D01*
X23550Y2249D01*
X23550Y2227D01*
X23411Y2365D01*
X23209Y2449D01*
X22991Y2450D01*
X22916Y2419D01*
X22914Y2430D01*
X22840Y2540D01*
X22590Y2790D01*
X22480Y2864D01*
X22350Y2890D01*
X21886Y2890D01*
X21866Y2910D01*
X21709Y2974D01*
X21540Y2975D01*
X21384Y2910D01*
X21264Y2791D01*
X21200Y2634D01*
X21199Y2465D01*
X21206Y2449D01*
X20991Y2450D01*
X20940Y2428D01*
X20940Y2625D01*
X20914Y2755D01*
X20840Y2865D01*
X20691Y3014D01*
X20750Y3014D01*
X21222Y3014D01*
X21314Y3052D01*
X21350Y3087D01*
X21385Y3052D01*
X21477Y3014D01*
X21576Y3014D01*
X22048Y3014D01*
X22140Y3052D01*
X22210Y3122D01*
X22249Y3214D01*
X22249Y3313D01*
X22249Y3785D01*
X22210Y3877D01*
X22140Y3947D01*
X22123Y3955D01*
X22123Y4294D01*
X22140Y4302D01*
X22210Y4372D01*
X22218Y4390D01*
X22800Y4390D01*
X23295Y3895D01*
X23295Y3895D01*
X23412Y3817D01*
X23550Y3790D01*
X23632Y3790D01*
X23722Y3700D01*
X23700Y3700D01*
X23608Y3661D01*
X23538Y3591D01*
X23500Y3499D01*
X23500Y3262D01*
X23562Y3200D01*
X24000Y3200D01*
X24000Y3207D01*
X24100Y3207D01*
X24100Y3200D01*
X24107Y3200D01*
X24107Y3100D01*
X24100Y3100D01*
X24100Y2662D01*
X24162Y2600D01*
X24300Y2600D01*
X24390Y2600D01*
X24390Y2599D01*
G54D10*
G36*
X24720Y12886D02*
X24279Y12886D01*
X24277Y12886D01*
X24200Y12853D01*
X24200Y13192D01*
X24200Y13586D01*
X23609Y13586D01*
X23547Y13523D01*
X23547Y13330D01*
X23585Y13238D01*
X23655Y13168D01*
X23747Y13130D01*
X23846Y13130D01*
X24137Y13130D01*
X24200Y13192D01*
X24200Y12853D01*
X24185Y12847D01*
X24149Y12812D01*
X24114Y12847D01*
X24022Y12886D01*
X23923Y12886D01*
X23451Y12886D01*
X23412Y12869D01*
X23425Y12900D01*
X23425Y13012D01*
X23425Y13237D01*
X23425Y13349D01*
X23386Y13441D01*
X23316Y13511D01*
X23224Y13550D01*
X23125Y13550D01*
X23019Y13550D01*
X23019Y13861D01*
X23019Y14255D01*
X22448Y14255D01*
X22385Y14192D01*
X22385Y13999D01*
X22423Y13907D01*
X22493Y13837D01*
X22585Y13799D01*
X22685Y13799D01*
X22956Y13799D01*
X23019Y13861D01*
X23019Y13550D01*
X23012Y13550D01*
X22950Y13487D01*
X22950Y13175D01*
X23362Y13175D01*
X23425Y13237D01*
X23425Y13012D01*
X23362Y13075D01*
X22950Y13075D01*
X22950Y13067D01*
X22850Y13067D01*
X22850Y13075D01*
X22850Y13175D01*
X22850Y13487D01*
X22787Y13550D01*
X22674Y13550D01*
X22575Y13550D01*
X22483Y13511D01*
X22413Y13441D01*
X22375Y13349D01*
X22375Y13237D01*
X22437Y13175D01*
X22850Y13175D01*
X22850Y13075D01*
X22437Y13075D01*
X22375Y13012D01*
X22375Y12900D01*
X22413Y12808D01*
X22471Y12750D01*
X22413Y12691D01*
X22375Y12599D01*
X22375Y12500D01*
X22375Y12150D01*
X22413Y12058D01*
X22483Y11988D01*
X22575Y11950D01*
X22674Y11950D01*
X23224Y11950D01*
X23316Y11988D01*
X23319Y11991D01*
X23359Y11952D01*
X23451Y11914D01*
X23550Y11914D01*
X24022Y11914D01*
X24114Y11952D01*
X24150Y11987D01*
X24185Y11952D01*
X24243Y11928D01*
X24243Y10568D01*
X24161Y10649D01*
X23959Y10733D01*
X23741Y10734D01*
X23538Y10650D01*
X23384Y10495D01*
X23300Y10293D01*
X23299Y10075D01*
X23383Y9872D01*
X23538Y9718D01*
X23600Y9692D01*
X23539Y9666D01*
X22665Y10540D01*
X22555Y10614D01*
X22425Y10640D01*
X21946Y10640D01*
X21946Y10782D01*
X21879Y10946D01*
X21753Y11072D01*
X21742Y11076D01*
X21763Y11085D01*
X21895Y11216D01*
X21966Y11387D01*
X21966Y11573D01*
X21952Y11608D01*
X21952Y13786D01*
X21939Y13963D01*
X21895Y14069D01*
X21811Y14083D01*
X21740Y14012D01*
X21740Y14154D01*
X21725Y14239D01*
X21557Y14295D01*
X21379Y14282D01*
X21274Y14239D01*
X21259Y14154D01*
X21500Y13914D01*
X21740Y14154D01*
X21740Y14012D01*
X21570Y13843D01*
X21811Y13602D01*
X21895Y13617D01*
X21952Y13786D01*
X21952Y11608D01*
X21895Y11745D01*
X21764Y11876D01*
X21742Y11885D01*
X21752Y11889D01*
X21878Y12015D01*
X21946Y12179D01*
X21946Y12356D01*
X21879Y12521D01*
X21753Y12647D01*
X21717Y12662D01*
X21752Y12676D01*
X21878Y12802D01*
X21946Y12966D01*
X21946Y13144D01*
X21879Y13308D01*
X21753Y13434D01*
X21723Y13446D01*
X21725Y13447D01*
X21740Y13532D01*
X21500Y13772D01*
X21429Y13701D01*
X21429Y13843D01*
X21188Y14083D01*
X21104Y14069D01*
X21047Y13900D01*
X21060Y13723D01*
X21104Y13617D01*
X21188Y13602D01*
X21429Y13843D01*
X21429Y13701D01*
X21259Y13532D01*
X21274Y13447D01*
X21276Y13446D01*
X21247Y13434D01*
X21121Y13309D01*
X21053Y13145D01*
X21053Y12967D01*
X21120Y12803D01*
X21246Y12677D01*
X21282Y12662D01*
X21247Y12647D01*
X21121Y12521D01*
X21053Y12357D01*
X21053Y12180D01*
X21120Y12015D01*
X21246Y11889D01*
X21257Y11885D01*
X21236Y11876D01*
X21104Y11745D01*
X21033Y11574D01*
X21033Y11388D01*
X21104Y11217D01*
X21235Y11085D01*
X21257Y11076D01*
X21247Y11072D01*
X21121Y10947D01*
X21053Y10782D01*
X21053Y10640D01*
X20700Y10640D01*
X20569Y10614D01*
X20459Y10540D01*
X20369Y10450D01*
X19934Y10450D01*
X20384Y10900D01*
X20624Y10900D01*
X20716Y10938D01*
X20786Y11008D01*
X20825Y11100D01*
X20825Y11199D01*
X20825Y11549D01*
X20786Y11641D01*
X20728Y11700D01*
X20786Y11758D01*
X20825Y11850D01*
X20825Y11962D01*
X20825Y12187D01*
X20825Y12299D01*
X20786Y12391D01*
X20716Y12461D01*
X20624Y12500D01*
X20525Y12500D01*
X20412Y12500D01*
X20350Y12437D01*
X20350Y12125D01*
X20762Y12125D01*
X20825Y12187D01*
X20825Y11962D01*
X20762Y12025D01*
X20350Y12025D01*
X20350Y12017D01*
X20250Y12017D01*
X20250Y12025D01*
X20250Y12125D01*
X20250Y12437D01*
X20187Y12500D01*
X20074Y12500D01*
X19975Y12500D01*
X19883Y12461D01*
X19813Y12391D01*
X19775Y12299D01*
X19775Y12187D01*
X19837Y12125D01*
X20250Y12125D01*
X20250Y12025D01*
X19837Y12025D01*
X19775Y11962D01*
X19775Y11850D01*
X19813Y11758D01*
X19871Y11700D01*
X19813Y11641D01*
X19775Y11549D01*
X19775Y11450D01*
X19775Y11309D01*
X19725Y11259D01*
X19725Y13375D01*
X19725Y13474D01*
X19725Y14024D01*
X19686Y14116D01*
X19616Y14186D01*
X19524Y14225D01*
X19425Y14225D01*
X19184Y14225D01*
X18254Y15154D01*
X18137Y15232D01*
X18000Y15260D01*
X17946Y15260D01*
X17946Y15778D01*
X17946Y16207D01*
X17946Y16432D01*
X17946Y16861D01*
X17908Y16953D01*
X17838Y17023D01*
X17746Y17062D01*
X17646Y17062D01*
X17612Y17062D01*
X17550Y16999D01*
X17550Y16370D01*
X17884Y16370D01*
X17946Y16432D01*
X17946Y16207D01*
X17884Y16270D01*
X17550Y16270D01*
X17550Y15640D01*
X17612Y15578D01*
X17646Y15578D01*
X17746Y15578D01*
X17838Y15616D01*
X17908Y15686D01*
X17946Y15778D01*
X17946Y15260D01*
X17499Y15260D01*
X17450Y15309D01*
X17450Y15640D01*
X17450Y16270D01*
X17450Y16370D01*
X17450Y16999D01*
X17387Y17062D01*
X17353Y17062D01*
X17253Y17062D01*
X17161Y17023D01*
X17091Y16953D01*
X17053Y16861D01*
X17053Y16432D01*
X17116Y16370D01*
X17450Y16370D01*
X17450Y16270D01*
X17116Y16270D01*
X17053Y16207D01*
X17053Y15778D01*
X17091Y15686D01*
X17161Y15616D01*
X17253Y15578D01*
X17353Y15578D01*
X17387Y15578D01*
X17450Y15640D01*
X17450Y15309D01*
X16800Y15959D01*
X16800Y20150D01*
X16800Y20249D01*
X16800Y20387D01*
X16800Y20612D01*
X16800Y20750D01*
X16800Y20849D01*
X16761Y20941D01*
X16691Y21011D01*
X16599Y21050D01*
X16362Y21050D01*
X16300Y20987D01*
X16300Y20550D01*
X16737Y20550D01*
X16800Y20612D01*
X16800Y20387D01*
X16737Y20450D01*
X16300Y20450D01*
X16300Y20012D01*
X16362Y19950D01*
X16599Y19950D01*
X16691Y19988D01*
X16761Y20058D01*
X16800Y20150D01*
X16800Y15959D01*
X15660Y17099D01*
X15660Y17114D01*
X15716Y17138D01*
X15786Y17208D01*
X15825Y17300D01*
X15825Y17399D01*
X15825Y17749D01*
X15786Y17841D01*
X15728Y17900D01*
X15786Y17958D01*
X15825Y18050D01*
X15825Y18149D01*
X15825Y18499D01*
X15786Y18591D01*
X15716Y18661D01*
X15660Y18685D01*
X15660Y20132D01*
X15700Y20172D01*
X15700Y20150D01*
X15738Y20058D01*
X15808Y19988D01*
X15900Y19950D01*
X16137Y19950D01*
X16200Y20012D01*
X16200Y20450D01*
X16192Y20450D01*
X16192Y20550D01*
X16200Y20550D01*
X16200Y20987D01*
X16137Y21050D01*
X15900Y21050D01*
X15808Y21011D01*
X15738Y20941D01*
X15700Y20849D01*
X15700Y20827D01*
X15561Y20965D01*
X15359Y21049D01*
X15141Y21050D01*
X14938Y20966D01*
X14784Y20811D01*
X14700Y20609D01*
X14699Y20391D01*
X14783Y20188D01*
X14938Y20034D01*
X14940Y20033D01*
X14940Y18685D01*
X14883Y18661D01*
X14850Y18628D01*
X14816Y18661D01*
X14724Y18700D01*
X14625Y18700D01*
X14109Y18700D01*
X14050Y18759D01*
X14050Y20150D01*
X14050Y20249D01*
X14050Y20387D01*
X14050Y20612D01*
X14050Y20750D01*
X14050Y20849D01*
X14011Y20941D01*
X13941Y21011D01*
X13849Y21050D01*
X13612Y21050D01*
X13550Y20987D01*
X13550Y20550D01*
X13987Y20550D01*
X14050Y20612D01*
X14050Y20387D01*
X13987Y20450D01*
X13550Y20450D01*
X13550Y20012D01*
X13612Y19950D01*
X13849Y19950D01*
X13941Y19988D01*
X14011Y20058D01*
X14050Y20150D01*
X14050Y18759D01*
X12860Y19949D01*
X12860Y20082D01*
X12950Y20172D01*
X12950Y20150D01*
X12988Y20058D01*
X13058Y19988D01*
X13150Y19950D01*
X13387Y19950D01*
X13450Y20012D01*
X13450Y20450D01*
X13442Y20450D01*
X13442Y20550D01*
X13450Y20550D01*
X13450Y20987D01*
X13387Y21050D01*
X13150Y21050D01*
X13058Y21011D01*
X12988Y20941D01*
X12950Y20849D01*
X12950Y20827D01*
X12811Y20965D01*
X12609Y21049D01*
X12391Y21050D01*
X12188Y20966D01*
X12034Y20811D01*
X11950Y20609D01*
X11949Y20391D01*
X12033Y20188D01*
X12140Y20082D01*
X12140Y19800D01*
X12167Y19662D01*
X12245Y19545D01*
X13770Y18020D01*
X13770Y18020D01*
X13828Y17981D01*
X13887Y17942D01*
X13887Y17942D01*
X13939Y17932D01*
X13939Y17932D01*
X13971Y17900D01*
X13913Y17841D01*
X13875Y17749D01*
X13875Y17650D01*
X13875Y17300D01*
X13913Y17208D01*
X13983Y17138D01*
X14040Y17114D01*
X14040Y17050D01*
X14067Y16912D01*
X14145Y16795D01*
X15061Y15879D01*
X14725Y15880D01*
X14402Y15746D01*
X14154Y15499D01*
X14020Y15175D01*
X14019Y14825D01*
X14153Y14502D01*
X14400Y14254D01*
X14724Y14120D01*
X15074Y14119D01*
X15397Y14253D01*
X15645Y14500D01*
X15779Y14824D01*
X15780Y15160D01*
X16840Y14100D01*
X16840Y14082D01*
X16755Y13997D01*
X16702Y13871D01*
X16660Y13972D01*
X16567Y13997D01*
X16497Y13926D01*
X16497Y14067D01*
X16472Y14160D01*
X16275Y14229D01*
X16067Y14218D01*
X15927Y14160D01*
X15902Y14067D01*
X16200Y13770D01*
X16497Y14067D01*
X16497Y13926D01*
X16270Y13700D01*
X16567Y13402D01*
X16660Y13427D01*
X16699Y13537D01*
X16754Y13403D01*
X16902Y13255D01*
X17095Y13175D01*
X17303Y13174D01*
X17497Y13254D01*
X17644Y13402D01*
X17697Y13528D01*
X17739Y13427D01*
X17832Y13402D01*
X18129Y13700D01*
X17832Y13997D01*
X17739Y13972D01*
X17700Y13862D01*
X17645Y13997D01*
X17560Y14082D01*
X17560Y14250D01*
X17532Y14387D01*
X17532Y14387D01*
X17501Y14434D01*
X17454Y14504D01*
X17419Y14540D01*
X17850Y14540D01*
X18166Y14223D01*
X18067Y14218D01*
X17927Y14160D01*
X17902Y14067D01*
X18200Y13770D01*
X18205Y13776D01*
X18276Y13705D01*
X18270Y13700D01*
X18567Y13402D01*
X18660Y13427D01*
X18675Y13468D01*
X18675Y13375D01*
X18713Y13283D01*
X18783Y13213D01*
X18875Y13175D01*
X18974Y13175D01*
X19524Y13175D01*
X19616Y13213D01*
X19686Y13283D01*
X19725Y13375D01*
X19725Y11259D01*
X19554Y11088D01*
X19497Y11144D01*
X19304Y11224D01*
X19096Y11225D01*
X18903Y11145D01*
X18755Y10997D01*
X18699Y10864D01*
X18645Y10997D01*
X18497Y11144D01*
X18497Y11145D01*
X18497Y13332D01*
X18200Y13629D01*
X17902Y13332D01*
X17927Y13239D01*
X18124Y13170D01*
X18332Y13181D01*
X18472Y13239D01*
X18497Y13332D01*
X18497Y11145D01*
X18304Y11224D01*
X18096Y11225D01*
X17903Y11145D01*
X17755Y10997D01*
X17699Y10864D01*
X17645Y10997D01*
X17497Y11144D01*
X17304Y11224D01*
X17096Y11225D01*
X16903Y11145D01*
X16755Y10997D01*
X16702Y10871D01*
X16660Y10972D01*
X16567Y10997D01*
X16497Y10926D01*
X16497Y11067D01*
X16497Y13332D01*
X16200Y13629D01*
X16129Y13558D01*
X16129Y13700D01*
X15832Y13997D01*
X15739Y13972D01*
X15670Y13775D01*
X15681Y13567D01*
X15739Y13427D01*
X15832Y13402D01*
X16129Y13700D01*
X16129Y13558D01*
X15902Y13332D01*
X15927Y13239D01*
X16124Y13170D01*
X16332Y13181D01*
X16472Y13239D01*
X16497Y13332D01*
X16497Y11067D01*
X16472Y11160D01*
X16275Y11229D01*
X16067Y11218D01*
X15927Y11160D01*
X15902Y11067D01*
X16200Y10770D01*
X16497Y11067D01*
X16497Y10926D01*
X16270Y10700D01*
X16567Y10402D01*
X16660Y10427D01*
X16699Y10537D01*
X16754Y10403D01*
X16902Y10255D01*
X17095Y10175D01*
X17303Y10174D01*
X17497Y10254D01*
X17644Y10402D01*
X17700Y10535D01*
X17754Y10403D01*
X17865Y10292D01*
X17865Y9545D01*
X16700Y9545D01*
X16577Y9520D01*
X16497Y9466D01*
X16497Y10332D01*
X16200Y10629D01*
X16129Y10558D01*
X16129Y10700D01*
X15832Y10997D01*
X15739Y10972D01*
X15670Y10775D01*
X15681Y10567D01*
X15739Y10427D01*
X15832Y10402D01*
X16129Y10700D01*
X16129Y10558D01*
X15902Y10332D01*
X15927Y10239D01*
X16124Y10170D01*
X16332Y10181D01*
X16472Y10239D01*
X16497Y10332D01*
X16497Y9466D01*
X16473Y9451D01*
X16373Y9351D01*
X16304Y9247D01*
X16284Y9150D01*
X16280Y9127D01*
X16257Y9150D01*
X16240Y9150D01*
X16148Y9111D01*
X16078Y9041D01*
X16040Y8949D01*
X16040Y8912D01*
X16102Y8850D01*
X16280Y8850D01*
X16280Y8800D01*
X16280Y8750D01*
X16102Y8750D01*
X16040Y8687D01*
X16040Y8670D01*
X15973Y8626D01*
X15717Y8370D01*
X15700Y8370D01*
X15700Y8374D01*
X15661Y8466D01*
X15591Y8536D01*
X15499Y8575D01*
X15400Y8575D01*
X15050Y8575D01*
X14958Y8536D01*
X14899Y8478D01*
X14841Y8536D01*
X14749Y8575D01*
X14650Y8575D01*
X14300Y8575D01*
X14208Y8536D01*
X14138Y8466D01*
X14100Y8374D01*
X14100Y8275D01*
X14100Y8134D01*
X13345Y7379D01*
X13267Y7262D01*
X13240Y7125D01*
X13240Y7103D01*
X13178Y7165D01*
X13118Y7190D01*
X13218Y7290D01*
X13286Y7454D01*
X13286Y7632D01*
X13219Y7796D01*
X13093Y7922D01*
X13057Y7937D01*
X13092Y7952D01*
X13218Y8078D01*
X13286Y8242D01*
X13286Y8419D01*
X13219Y8584D01*
X13093Y8710D01*
X13057Y8725D01*
X13092Y8739D01*
X13218Y8865D01*
X13286Y9029D01*
X13286Y9207D01*
X13219Y9371D01*
X13093Y9497D01*
X13057Y9512D01*
X13092Y9527D01*
X13218Y9652D01*
X13286Y9817D01*
X13286Y9994D01*
X13219Y10159D01*
X13093Y10284D01*
X13057Y10299D01*
X13092Y10314D01*
X13218Y10440D01*
X13286Y10604D01*
X13286Y10782D01*
X13219Y10946D01*
X13093Y11072D01*
X13082Y11076D01*
X13103Y11085D01*
X13235Y11216D01*
X13306Y11387D01*
X13306Y11573D01*
X13235Y11745D01*
X13104Y11876D01*
X13082Y11885D01*
X13092Y11889D01*
X13218Y12015D01*
X13286Y12179D01*
X13286Y12356D01*
X13219Y12521D01*
X13093Y12647D01*
X13057Y12662D01*
X13092Y12676D01*
X13218Y12802D01*
X13286Y12966D01*
X13286Y13144D01*
X13219Y13308D01*
X13093Y13434D01*
X13057Y13449D01*
X13092Y13464D01*
X13218Y13589D01*
X13286Y13754D01*
X13286Y13931D01*
X13219Y14096D01*
X13093Y14221D01*
X13000Y14260D01*
X13000Y14950D01*
X13000Y15049D01*
X13000Y15287D01*
X13000Y15512D01*
X13000Y15750D01*
X13000Y15849D01*
X12961Y15941D01*
X12953Y15950D01*
X12961Y15958D01*
X13000Y16050D01*
X13000Y16149D01*
X13000Y16387D01*
X13000Y16612D01*
X13000Y16850D01*
X13000Y16949D01*
X12961Y17041D01*
X12953Y17050D01*
X12961Y17058D01*
X13000Y17150D01*
X13000Y17249D01*
X13000Y17487D01*
X13000Y17712D01*
X13000Y17950D01*
X13000Y18049D01*
X12961Y18141D01*
X12891Y18211D01*
X12799Y18250D01*
X12562Y18250D01*
X12500Y18187D01*
X12500Y17650D01*
X12937Y17650D01*
X13000Y17712D01*
X13000Y17487D01*
X12937Y17550D01*
X12500Y17550D01*
X12500Y17087D01*
X12500Y17012D01*
X12500Y16550D01*
X12937Y16550D01*
X13000Y16612D01*
X13000Y16387D01*
X12937Y16450D01*
X12500Y16450D01*
X12500Y15987D01*
X12500Y15912D01*
X12500Y15450D01*
X12937Y15450D01*
X13000Y15512D01*
X13000Y15287D01*
X12937Y15350D01*
X12500Y15350D01*
X12500Y14812D01*
X12562Y14750D01*
X12799Y14750D01*
X12891Y14788D01*
X12961Y14858D01*
X13000Y14950D01*
X13000Y14260D01*
X12929Y14290D01*
X12751Y14290D01*
X12587Y14222D01*
X12461Y14096D01*
X12400Y13948D01*
X12400Y14812D01*
X12400Y15350D01*
X12400Y15450D01*
X12400Y15912D01*
X12400Y15987D01*
X12400Y16450D01*
X12400Y16550D01*
X12400Y17012D01*
X12400Y17087D01*
X12400Y17550D01*
X12400Y17650D01*
X12400Y18187D01*
X12337Y18250D01*
X12100Y18250D01*
X12008Y18211D01*
X11938Y18141D01*
X11900Y18049D01*
X11900Y17950D01*
X11900Y17712D01*
X11962Y17650D01*
X12400Y17650D01*
X12400Y17550D01*
X11962Y17550D01*
X11900Y17487D01*
X11900Y17249D01*
X11900Y17150D01*
X11938Y17058D01*
X11946Y17050D01*
X11938Y17041D01*
X11900Y16949D01*
X11900Y16850D01*
X11900Y16612D01*
X11962Y16550D01*
X12400Y16550D01*
X12400Y16450D01*
X11962Y16450D01*
X11900Y16387D01*
X11900Y16149D01*
X11900Y16050D01*
X11938Y15958D01*
X11946Y15950D01*
X11938Y15941D01*
X11900Y15849D01*
X11900Y15750D01*
X11900Y15512D01*
X11962Y15450D01*
X12400Y15450D01*
X12400Y15350D01*
X11962Y15350D01*
X11900Y15287D01*
X11900Y15049D01*
X11900Y14950D01*
X11938Y14858D01*
X12008Y14788D01*
X12100Y14750D01*
X12337Y14750D01*
X12400Y14812D01*
X12400Y13948D01*
X12393Y13932D01*
X12393Y13754D01*
X12460Y13590D01*
X12586Y13464D01*
X12622Y13449D01*
X12587Y13434D01*
X12461Y13309D01*
X12393Y13145D01*
X12393Y12967D01*
X12460Y12803D01*
X12586Y12677D01*
X12622Y12662D01*
X12587Y12647D01*
X12461Y12521D01*
X12393Y12357D01*
X12393Y12180D01*
X12460Y12015D01*
X12586Y11889D01*
X12597Y11885D01*
X12576Y11876D01*
X12444Y11745D01*
X12373Y11574D01*
X12373Y11388D01*
X12444Y11217D01*
X12575Y11085D01*
X12597Y11076D01*
X12587Y11072D01*
X12461Y10947D01*
X12393Y10782D01*
X12393Y10605D01*
X12460Y10440D01*
X12586Y10315D01*
X12622Y10300D01*
X12587Y10285D01*
X12461Y10159D01*
X12393Y9995D01*
X12393Y9817D01*
X12460Y9653D01*
X12586Y9527D01*
X12622Y9512D01*
X12587Y9497D01*
X12461Y9372D01*
X12393Y9208D01*
X12393Y9030D01*
X12460Y8866D01*
X12586Y8740D01*
X12622Y8725D01*
X12587Y8710D01*
X12461Y8584D01*
X12393Y8420D01*
X12393Y8243D01*
X12460Y8078D01*
X12586Y7952D01*
X12622Y7937D01*
X12587Y7923D01*
X12461Y7797D01*
X12393Y7633D01*
X12393Y7455D01*
X12460Y7291D01*
X12561Y7190D01*
X12501Y7165D01*
X12431Y7095D01*
X12393Y7003D01*
X12393Y6903D01*
X12393Y6510D01*
X12431Y6418D01*
X12501Y6347D01*
X12593Y6309D01*
X12692Y6309D01*
X13050Y6309D01*
X12508Y5767D01*
X12430Y5650D01*
X12403Y5513D01*
X12403Y5505D01*
X12385Y5497D01*
X12349Y5462D01*
X12314Y5497D01*
X12297Y5505D01*
X12297Y5588D01*
X12269Y5725D01*
X12250Y5755D01*
X12250Y5755D01*
X12250Y5784D01*
X12185Y5940D01*
X12066Y6060D01*
X11950Y6108D01*
X11950Y12500D01*
X11950Y12599D01*
X11950Y13199D01*
X11950Y13800D01*
X11950Y14037D01*
X11950Y14262D01*
X11950Y14499D01*
X11911Y14591D01*
X11841Y14661D01*
X11749Y14700D01*
X11650Y14700D01*
X11412Y14700D01*
X11350Y14637D01*
X11350Y14200D01*
X11887Y14200D01*
X11950Y14262D01*
X11950Y14037D01*
X11887Y14100D01*
X11350Y14100D01*
X11350Y13662D01*
X11412Y13600D01*
X11650Y13600D01*
X11749Y13600D01*
X11841Y13638D01*
X11911Y13708D01*
X11950Y13800D01*
X11950Y13199D01*
X11911Y13291D01*
X11841Y13361D01*
X11749Y13400D01*
X11650Y13400D01*
X11250Y13400D01*
X11250Y13662D01*
X11250Y14100D01*
X10712Y14100D01*
X10650Y14037D01*
X10650Y13800D01*
X10688Y13708D01*
X10758Y13638D01*
X10850Y13600D01*
X10949Y13600D01*
X11187Y13600D01*
X11250Y13662D01*
X11250Y13400D01*
X10850Y13400D01*
X10758Y13361D01*
X10688Y13291D01*
X10650Y13199D01*
X10650Y13100D01*
X10650Y12709D01*
X9015Y11074D01*
X9033Y11125D01*
X9023Y11363D01*
X8951Y11536D01*
X8851Y11570D01*
X8780Y11499D01*
X8780Y11641D01*
X8747Y11741D01*
X8522Y11823D01*
X8284Y11813D01*
X8111Y11741D01*
X8077Y11641D01*
X8429Y11289D01*
X8780Y11641D01*
X8780Y11499D01*
X8499Y11218D01*
X8505Y11213D01*
X8434Y11142D01*
X8429Y11148D01*
X8358Y11077D01*
X8358Y11218D01*
X8007Y11570D01*
X7906Y11536D01*
X7824Y11312D01*
X7834Y11074D01*
X7906Y10900D01*
X8007Y10867D01*
X8358Y11218D01*
X8358Y11077D01*
X8077Y10796D01*
X8099Y10731D01*
X8089Y10727D01*
X7920Y10559D01*
X7829Y10338D01*
X7829Y10100D01*
X7920Y9879D01*
X8088Y9710D01*
X8227Y9653D01*
X8227Y9205D01*
X8209Y9197D01*
X8139Y9127D01*
X8101Y9035D01*
X8101Y8936D01*
X8101Y8773D01*
X7795Y8467D01*
X7717Y8350D01*
X7690Y8213D01*
X7690Y7500D01*
X7717Y7362D01*
X7795Y7245D01*
X8245Y6795D01*
X8245Y6795D01*
X8303Y6756D01*
X8337Y6733D01*
X8337Y6733D01*
X8383Y6688D01*
X8475Y6650D01*
X8574Y6650D01*
X8774Y6650D01*
X8866Y6688D01*
X8936Y6758D01*
X8975Y6850D01*
X8975Y6949D01*
X8975Y6999D01*
X8985Y7050D01*
X8975Y7100D01*
X8975Y7249D01*
X8936Y7341D01*
X8923Y7355D01*
X8941Y7363D01*
X9000Y7421D01*
X9058Y7363D01*
X9076Y7355D01*
X9063Y7341D01*
X9025Y7249D01*
X9025Y7150D01*
X9025Y6850D01*
X9063Y6758D01*
X9133Y6688D01*
X9225Y6650D01*
X9324Y6650D01*
X9524Y6650D01*
X9616Y6688D01*
X9686Y6758D01*
X9725Y6850D01*
X9725Y6949D01*
X9725Y7249D01*
X9686Y7341D01*
X9673Y7355D01*
X9691Y7363D01*
X9761Y7433D01*
X9800Y7525D01*
X9800Y7624D01*
X9800Y8174D01*
X9761Y8266D01*
X9745Y8283D01*
X9790Y8302D01*
X9860Y8372D01*
X9899Y8464D01*
X9899Y8563D01*
X9899Y9035D01*
X9860Y9127D01*
X9790Y9197D01*
X9698Y9236D01*
X9599Y9236D01*
X9127Y9236D01*
X9035Y9197D01*
X8999Y9162D01*
X8964Y9197D01*
X8947Y9205D01*
X8947Y9901D01*
X9008Y10049D01*
X11259Y12300D01*
X11749Y12300D01*
X11841Y12338D01*
X11911Y12408D01*
X11950Y12500D01*
X11950Y6108D01*
X11909Y6124D01*
X11740Y6125D01*
X11584Y6060D01*
X11464Y5941D01*
X11400Y5784D01*
X11399Y5615D01*
X11464Y5459D01*
X11492Y5431D01*
X11489Y5427D01*
X11451Y5335D01*
X11451Y5236D01*
X11451Y4764D01*
X11489Y4672D01*
X11559Y4602D01*
X11627Y4574D01*
X11627Y4405D01*
X11609Y4397D01*
X11539Y4327D01*
X11523Y4290D01*
X11075Y4290D01*
X10944Y4264D01*
X10834Y4190D01*
X9800Y3155D01*
X9800Y3609D01*
X9735Y3765D01*
X9715Y3785D01*
X9715Y4636D01*
X9761Y4683D01*
X9800Y4775D01*
X9800Y4874D01*
X9800Y5424D01*
X9761Y5516D01*
X9735Y5543D01*
X9735Y5900D01*
X9725Y5950D01*
X9725Y6249D01*
X9686Y6341D01*
X9616Y6411D01*
X9524Y6450D01*
X9425Y6450D01*
X9225Y6450D01*
X9187Y6434D01*
X9149Y6450D01*
X9112Y6450D01*
X9050Y6387D01*
X9050Y6310D01*
X9025Y6249D01*
X9025Y6150D01*
X9025Y5950D01*
X9015Y5900D01*
X9015Y5543D01*
X9000Y5528D01*
X8985Y5543D01*
X8985Y6050D01*
X8975Y6100D01*
X8975Y6249D01*
X8950Y6310D01*
X8950Y6387D01*
X8887Y6450D01*
X8850Y6450D01*
X8812Y6434D01*
X8774Y6450D01*
X8675Y6450D01*
X8475Y6450D01*
X8383Y6411D01*
X8381Y6410D01*
X8275Y6410D01*
X8137Y6382D01*
X8090Y6351D01*
X8088Y6350D01*
X8065Y6350D01*
X7909Y6285D01*
X7789Y6166D01*
X7725Y6009D01*
X7724Y5840D01*
X7789Y5684D01*
X7908Y5564D01*
X8065Y5500D01*
X8231Y5499D01*
X8200Y5424D01*
X8200Y5325D01*
X8200Y5212D01*
X8262Y5150D01*
X8575Y5150D01*
X8575Y5562D01*
X8512Y5625D01*
X8451Y5625D01*
X8476Y5650D01*
X8574Y5650D01*
X8774Y5650D01*
X8812Y5665D01*
X8850Y5650D01*
X8887Y5650D01*
X8950Y5712D01*
X8950Y5789D01*
X8975Y5850D01*
X8975Y5949D01*
X8975Y5999D01*
X8985Y6050D01*
X8985Y5543D01*
X8941Y5586D01*
X8849Y5625D01*
X8737Y5625D01*
X8675Y5562D01*
X8675Y5150D01*
X8682Y5150D01*
X8682Y5050D01*
X8675Y5050D01*
X8675Y4637D01*
X8737Y4575D01*
X8849Y4575D01*
X8941Y4613D01*
X9000Y4671D01*
X9035Y4636D01*
X9035Y3786D01*
X9014Y3766D01*
X8950Y3609D01*
X8949Y3440D01*
X9014Y3284D01*
X9133Y3164D01*
X9290Y3100D01*
X9459Y3099D01*
X9615Y3164D01*
X9735Y3283D01*
X9799Y3440D01*
X9800Y3609D01*
X9800Y3155D01*
X9069Y2425D01*
X9040Y2425D01*
X8884Y2360D01*
X8764Y2241D01*
X8700Y2084D01*
X8699Y1915D01*
X8764Y1759D01*
X8883Y1639D01*
X9040Y1575D01*
X9209Y1574D01*
X9365Y1639D01*
X9485Y1758D01*
X9549Y1915D01*
X9549Y1944D01*
X11215Y3610D01*
X11523Y3610D01*
X11539Y3572D01*
X11609Y3502D01*
X11701Y3464D01*
X11800Y3464D01*
X12272Y3464D01*
X12364Y3502D01*
X12400Y3537D01*
X12435Y3502D01*
X12527Y3464D01*
X12626Y3464D01*
X13098Y3464D01*
X13190Y3502D01*
X13260Y3572D01*
X13299Y3664D01*
X13299Y3691D01*
X13304Y3695D01*
X13654Y4045D01*
X13654Y4045D01*
X13701Y4115D01*
X13732Y4162D01*
X13732Y4162D01*
X13759Y4300D01*
X13760Y4300D01*
X13760Y5450D01*
X14779Y6470D01*
X14779Y6470D01*
X14818Y6528D01*
X14857Y6587D01*
X14857Y6587D01*
X14867Y6639D01*
X14867Y6639D01*
X14900Y6671D01*
X14958Y6613D01*
X15050Y6575D01*
X15149Y6575D01*
X15269Y6575D01*
X14894Y6200D01*
X14890Y6200D01*
X14734Y6135D01*
X14614Y6016D01*
X14550Y5859D01*
X14549Y5690D01*
X14614Y5534D01*
X14733Y5414D01*
X14890Y5350D01*
X15059Y5349D01*
X15215Y5414D01*
X15335Y5533D01*
X15399Y5690D01*
X15399Y5744D01*
X15955Y6299D01*
X15984Y6299D01*
X16010Y6310D01*
X16010Y6097D01*
X15859Y6035D01*
X15739Y5916D01*
X15675Y5759D01*
X15674Y5590D01*
X15739Y5434D01*
X15858Y5314D01*
X15876Y5307D01*
X14359Y3790D01*
X14285Y3680D01*
X14260Y3550D01*
X14260Y2429D01*
X14209Y2449D01*
X13991Y2450D01*
X13788Y2366D01*
X13634Y2211D01*
X13600Y2130D01*
X13566Y2211D01*
X13411Y2365D01*
X13209Y2449D01*
X12991Y2450D01*
X12788Y2366D01*
X12634Y2211D01*
X12602Y2136D01*
X12581Y2187D01*
X12485Y2215D01*
X12415Y2144D01*
X12415Y2285D01*
X12387Y2381D01*
X12181Y2454D01*
X11963Y2443D01*
X11812Y2381D01*
X11784Y2285D01*
X12100Y1970D01*
X12415Y2285D01*
X12415Y2144D01*
X12170Y1900D01*
X12485Y1584D01*
X12581Y1612D01*
X12600Y1667D01*
X12633Y1588D01*
X12788Y1434D01*
X12869Y1400D01*
X12788Y1366D01*
X12634Y1211D01*
X12600Y1130D01*
X12566Y1211D01*
X12411Y1365D01*
X12336Y1397D01*
X12387Y1418D01*
X12415Y1514D01*
X12100Y1829D01*
X12029Y1758D01*
X12029Y1900D01*
X11714Y2215D01*
X11618Y2187D01*
X11545Y1981D01*
X11556Y1763D01*
X11618Y1612D01*
X11714Y1584D01*
X12029Y1900D01*
X12029Y1758D01*
X11784Y1514D01*
X11812Y1418D01*
X11867Y1399D01*
X11788Y1366D01*
X11634Y1211D01*
X11550Y1009D01*
X11550Y909D01*
X11225Y585D01*
X10322Y585D01*
X10341Y632D01*
X10342Y850D01*
X10258Y1053D01*
X10103Y1207D01*
X9901Y1291D01*
X9683Y1292D01*
X9480Y1208D01*
X9326Y1053D01*
X9292Y972D01*
X9258Y1053D01*
X9103Y1207D01*
X8901Y1291D01*
X8683Y1292D01*
X8575Y1247D01*
X8575Y4637D01*
X8575Y5050D01*
X8262Y5050D01*
X8200Y4987D01*
X8200Y4874D01*
X8200Y4775D01*
X8238Y4683D01*
X8308Y4613D01*
X8400Y4575D01*
X8512Y4575D01*
X8575Y4637D01*
X8575Y1247D01*
X8480Y1208D01*
X8326Y1053D01*
X8292Y972D01*
X8258Y1053D01*
X8132Y1179D01*
X8132Y2805D01*
X8160Y2833D01*
X8224Y2990D01*
X8225Y3159D01*
X8160Y3315D01*
X8041Y3435D01*
X7884Y3499D01*
X7715Y3500D01*
X7559Y3435D01*
X7439Y3316D01*
X7375Y3159D01*
X7374Y2990D01*
X7439Y2834D01*
X7452Y2822D01*
X7452Y1179D01*
X7326Y1053D01*
X7292Y972D01*
X7258Y1053D01*
X7132Y1179D01*
X7132Y2280D01*
X7160Y2308D01*
X7224Y2465D01*
X7225Y2634D01*
X7160Y2790D01*
X7100Y2850D01*
X7100Y4009D01*
X7035Y4165D01*
X7015Y4185D01*
X7015Y4686D01*
X7061Y4733D01*
X7100Y4825D01*
X7100Y4924D01*
X7100Y5474D01*
X7061Y5566D01*
X7035Y5593D01*
X7035Y6050D01*
X7025Y6100D01*
X7025Y6249D01*
X6986Y6341D01*
X6916Y6411D01*
X6824Y6450D01*
X6725Y6450D01*
X6525Y6450D01*
X6487Y6434D01*
X6449Y6450D01*
X6412Y6450D01*
X6350Y6387D01*
X6350Y6310D01*
X6325Y6249D01*
X6325Y6150D01*
X6325Y6100D01*
X6315Y6050D01*
X6315Y5593D01*
X6300Y5578D01*
X6241Y5636D01*
X6194Y5656D01*
X6250Y5712D01*
X6250Y5789D01*
X6275Y5850D01*
X6275Y5949D01*
X6275Y5999D01*
X6285Y6050D01*
X6275Y6100D01*
X6275Y6249D01*
X6250Y6310D01*
X6250Y6387D01*
X6187Y6450D01*
X6150Y6450D01*
X6112Y6434D01*
X6074Y6450D01*
X5975Y6450D01*
X5775Y6450D01*
X5683Y6411D01*
X5681Y6410D01*
X5625Y6410D01*
X5487Y6382D01*
X5440Y6351D01*
X5438Y6350D01*
X5415Y6350D01*
X5259Y6285D01*
X5139Y6166D01*
X5075Y6009D01*
X5074Y5840D01*
X5139Y5684D01*
X5258Y5564D01*
X5415Y5500D01*
X5510Y5499D01*
X5500Y5474D01*
X5500Y5375D01*
X5500Y5262D01*
X5562Y5200D01*
X5875Y5200D01*
X5875Y5207D01*
X5975Y5207D01*
X5975Y5200D01*
X5982Y5200D01*
X5982Y5100D01*
X5975Y5100D01*
X5975Y4687D01*
X6037Y4625D01*
X6149Y4625D01*
X6241Y4663D01*
X6300Y4721D01*
X6335Y4686D01*
X6335Y4186D01*
X6314Y4166D01*
X6250Y4009D01*
X6249Y3840D01*
X6314Y3684D01*
X6433Y3564D01*
X6590Y3500D01*
X6759Y3499D01*
X6915Y3564D01*
X7035Y3683D01*
X7099Y3840D01*
X7100Y4009D01*
X7100Y2850D01*
X7041Y2910D01*
X6884Y2974D01*
X6715Y2975D01*
X6559Y2910D01*
X6439Y2791D01*
X6375Y2634D01*
X6374Y2465D01*
X6439Y2309D01*
X6452Y2297D01*
X6452Y1179D01*
X6326Y1053D01*
X6292Y972D01*
X6258Y1053D01*
X6132Y1179D01*
X6132Y1805D01*
X6160Y1833D01*
X6224Y1990D01*
X6225Y2159D01*
X6160Y2315D01*
X6041Y2435D01*
X5884Y2499D01*
X5875Y2499D01*
X5875Y4687D01*
X5875Y5100D01*
X5562Y5100D01*
X5500Y5037D01*
X5500Y4924D01*
X5500Y4825D01*
X5538Y4733D01*
X5608Y4663D01*
X5700Y4625D01*
X5812Y4625D01*
X5875Y4687D01*
X5875Y2499D01*
X5715Y2500D01*
X5559Y2435D01*
X5439Y2316D01*
X5375Y2159D01*
X5374Y1990D01*
X5439Y1834D01*
X5452Y1822D01*
X5452Y1179D01*
X5326Y1053D01*
X5292Y972D01*
X5258Y1053D01*
X5103Y1207D01*
X4901Y1291D01*
X4683Y1292D01*
X4500Y1216D01*
X4500Y4434D01*
X4435Y4590D01*
X4365Y4661D01*
X4365Y4686D01*
X4411Y4733D01*
X4450Y4825D01*
X4450Y4924D01*
X4450Y5474D01*
X4411Y5566D01*
X4385Y5593D01*
X4385Y6000D01*
X4375Y6050D01*
X4375Y6199D01*
X4336Y6291D01*
X4266Y6361D01*
X4174Y6400D01*
X4075Y6400D01*
X3875Y6400D01*
X3837Y6384D01*
X3799Y6400D01*
X3762Y6400D01*
X3700Y6337D01*
X3700Y6260D01*
X3675Y6199D01*
X3675Y6100D01*
X3675Y6050D01*
X3665Y6000D01*
X3665Y5593D01*
X3650Y5578D01*
X3591Y5636D01*
X3579Y5641D01*
X3600Y5662D01*
X3600Y5739D01*
X3625Y5800D01*
X3625Y5899D01*
X3625Y5949D01*
X3635Y6000D01*
X3625Y6050D01*
X3625Y6199D01*
X3600Y6260D01*
X3600Y6337D01*
X3537Y6400D01*
X3500Y6400D01*
X3462Y6384D01*
X3424Y6400D01*
X3325Y6400D01*
X3125Y6400D01*
X3033Y6361D01*
X3031Y6360D01*
X2875Y6360D01*
X2824Y6349D01*
X2824Y6349D01*
X2715Y6350D01*
X2559Y6285D01*
X2439Y6166D01*
X2375Y6009D01*
X2374Y5840D01*
X2439Y5684D01*
X2558Y5564D01*
X2715Y5500D01*
X2860Y5499D01*
X2850Y5474D01*
X2850Y5375D01*
X2850Y5262D01*
X2912Y5200D01*
X3225Y5200D01*
X3225Y5207D01*
X3325Y5207D01*
X3325Y5200D01*
X3332Y5200D01*
X3332Y5100D01*
X3325Y5100D01*
X3325Y4687D01*
X3387Y4625D01*
X3499Y4625D01*
X3591Y4663D01*
X3650Y4721D01*
X3685Y4686D01*
X3685Y4519D01*
X3650Y4434D01*
X3649Y4265D01*
X3714Y4109D01*
X3833Y3989D01*
X3990Y3925D01*
X4159Y3924D01*
X4315Y3989D01*
X4435Y4108D01*
X4499Y4265D01*
X4500Y4434D01*
X4500Y1216D01*
X4480Y1208D01*
X4326Y1053D01*
X4294Y977D01*
X4272Y1030D01*
X4176Y1058D01*
X4106Y987D01*
X4106Y1128D01*
X4078Y1224D01*
X3872Y1297D01*
X3654Y1286D01*
X3503Y1224D01*
X3475Y1128D01*
X3791Y813D01*
X4106Y1128D01*
X4106Y987D01*
X3861Y743D01*
X4176Y427D01*
X4272Y455D01*
X4292Y511D01*
X4325Y430D01*
X4476Y279D01*
X4083Y279D01*
X4106Y357D01*
X3791Y672D01*
X3720Y601D01*
X3720Y743D01*
X3405Y1058D01*
X3309Y1030D01*
X3236Y824D01*
X3247Y606D01*
X3309Y455D01*
X3405Y427D01*
X3720Y743D01*
X3720Y601D01*
X3475Y357D01*
X3498Y279D01*
X3225Y279D01*
X3225Y4687D01*
X3225Y5100D01*
X2912Y5100D01*
X2850Y5037D01*
X2850Y4924D01*
X2850Y4825D01*
X2888Y4733D01*
X2958Y4663D01*
X3050Y4625D01*
X3162Y4625D01*
X3225Y4687D01*
X3225Y279D01*
X775Y279D01*
X775Y4687D01*
X775Y5100D01*
X462Y5100D01*
X400Y5037D01*
X400Y4924D01*
X400Y4825D01*
X438Y4733D01*
X508Y4663D01*
X600Y4625D01*
X712Y4625D01*
X775Y4687D01*
X775Y279D01*
X279Y279D01*
X279Y5379D01*
X290Y5375D01*
X400Y5374D01*
X400Y5262D01*
X462Y5200D01*
X775Y5200D01*
X775Y5207D01*
X875Y5207D01*
X875Y5200D01*
X882Y5200D01*
X882Y5100D01*
X875Y5100D01*
X875Y4687D01*
X937Y4625D01*
X1049Y4625D01*
X1141Y4663D01*
X1200Y4721D01*
X1258Y4663D01*
X1350Y4625D01*
X1449Y4625D01*
X1691Y4625D01*
X1739Y4509D01*
X1858Y4389D01*
X2015Y4325D01*
X2184Y4324D01*
X2340Y4389D01*
X2460Y4508D01*
X2524Y4665D01*
X2525Y4834D01*
X2460Y4990D01*
X2341Y5110D01*
X2184Y5174D01*
X2155Y5174D01*
X2000Y5330D01*
X2000Y5474D01*
X1961Y5566D01*
X1891Y5636D01*
X1885Y5639D01*
X1885Y6000D01*
X1875Y6050D01*
X1875Y6199D01*
X1836Y6291D01*
X1766Y6361D01*
X1674Y6400D01*
X1575Y6400D01*
X1375Y6400D01*
X1337Y6384D01*
X1299Y6400D01*
X1262Y6400D01*
X1200Y6337D01*
X1200Y6260D01*
X1175Y6199D01*
X1175Y6100D01*
X1175Y6050D01*
X1165Y6000D01*
X1165Y5942D01*
X1125Y5942D01*
X1125Y5949D01*
X1135Y6000D01*
X1125Y6050D01*
X1125Y6199D01*
X1100Y6260D01*
X1100Y6337D01*
X1037Y6400D01*
X1000Y6400D01*
X962Y6384D01*
X924Y6400D01*
X825Y6400D01*
X625Y6400D01*
X533Y6361D01*
X520Y6349D01*
X437Y6332D01*
X320Y6254D01*
X290Y6225D01*
X290Y6225D01*
X279Y6220D01*
X279Y6761D01*
X295Y6745D01*
X295Y6745D01*
X412Y6667D01*
X526Y6644D01*
X533Y6638D01*
X625Y6600D01*
X724Y6600D01*
X924Y6600D01*
X1016Y6638D01*
X1086Y6708D01*
X1125Y6800D01*
X1125Y6899D01*
X1125Y6949D01*
X1135Y7000D01*
X1125Y7050D01*
X1125Y7199D01*
X1086Y7291D01*
X1052Y7326D01*
X1141Y7363D01*
X1200Y7421D01*
X1258Y7363D01*
X1276Y7355D01*
X1213Y7291D01*
X1175Y7199D01*
X1175Y7100D01*
X1175Y6800D01*
X1213Y6708D01*
X1283Y6638D01*
X1375Y6600D01*
X1474Y6600D01*
X1674Y6600D01*
X1766Y6638D01*
X1836Y6708D01*
X1875Y6800D01*
X1875Y6899D01*
X1875Y7199D01*
X1836Y7291D01*
X1802Y7326D01*
X1891Y7363D01*
X1961Y7433D01*
X2000Y7525D01*
X2000Y7624D01*
X2000Y8174D01*
X1961Y8266D01*
X1945Y8283D01*
X1990Y8302D01*
X2060Y8372D01*
X2099Y8464D01*
X2099Y8563D01*
X2099Y9035D01*
X2060Y9127D01*
X1990Y9197D01*
X1898Y9236D01*
X1799Y9236D01*
X1327Y9236D01*
X1235Y9197D01*
X1199Y9162D01*
X1164Y9197D01*
X1147Y9205D01*
X1147Y9788D01*
X1237Y9878D01*
X1329Y10099D01*
X1329Y10169D01*
X2768Y11609D01*
X2807Y11570D01*
X2706Y11536D01*
X2624Y11312D01*
X2634Y11074D01*
X2706Y10900D01*
X2807Y10867D01*
X3158Y11218D01*
X3152Y11224D01*
X3223Y11295D01*
X3229Y11289D01*
X3580Y11641D01*
X3547Y11741D01*
X3322Y11823D01*
X3084Y11813D01*
X2911Y11741D01*
X2877Y11641D01*
X2838Y11679D01*
X4904Y13745D01*
X4982Y13862D01*
X4982Y13862D01*
X5009Y14000D01*
X5010Y14000D01*
X5010Y14450D01*
X7504Y16945D01*
X7504Y16945D01*
X7543Y17003D01*
X7582Y17062D01*
X7582Y17062D01*
X7609Y17200D01*
X7610Y17200D01*
X7610Y17750D01*
X7699Y17840D01*
X8118Y17840D01*
X8033Y17804D01*
X7836Y17608D01*
X7729Y17350D01*
X7729Y17072D01*
X7835Y16815D01*
X8032Y16617D01*
X8289Y16511D01*
X8302Y16511D01*
X7095Y15304D01*
X7017Y15187D01*
X6990Y15050D01*
X6990Y14099D01*
X6529Y13638D01*
X6529Y14349D01*
X6422Y14607D01*
X6226Y14804D01*
X5968Y14910D01*
X5690Y14911D01*
X5433Y14804D01*
X5236Y14608D01*
X5129Y14350D01*
X5129Y14072D01*
X5235Y13815D01*
X5432Y13617D01*
X5689Y13511D01*
X5967Y13510D01*
X6225Y13617D01*
X6422Y13813D01*
X6529Y14071D01*
X6529Y14349D01*
X6529Y13638D01*
X3833Y10942D01*
X3833Y11125D01*
X3823Y11363D01*
X3751Y11536D01*
X3651Y11570D01*
X3580Y11499D01*
X3299Y11218D01*
X3651Y10867D01*
X3751Y10900D01*
X3833Y11125D01*
X3833Y10942D01*
X3593Y10702D01*
X3569Y10727D01*
X3558Y10731D01*
X3580Y10796D01*
X3229Y11148D01*
X3158Y11077D01*
X2877Y10796D01*
X2899Y10731D01*
X2889Y10727D01*
X2720Y10559D01*
X2629Y10338D01*
X2629Y10100D01*
X2720Y9879D01*
X2877Y9722D01*
X2877Y9205D01*
X2859Y9197D01*
X2789Y9127D01*
X2751Y9035D01*
X2751Y8936D01*
X2751Y8773D01*
X2395Y8417D01*
X2317Y8300D01*
X2290Y8163D01*
X2290Y7400D01*
X2317Y7262D01*
X2395Y7145D01*
X2795Y6745D01*
X2912Y6667D01*
X2912Y6667D01*
X3026Y6644D01*
X3033Y6638D01*
X3125Y6600D01*
X3224Y6600D01*
X3424Y6600D01*
X3516Y6638D01*
X3586Y6708D01*
X3625Y6800D01*
X3625Y6899D01*
X3625Y6949D01*
X3635Y7000D01*
X3625Y7050D01*
X3625Y7199D01*
X3586Y7291D01*
X3537Y7340D01*
X3591Y7363D01*
X3650Y7421D01*
X3708Y7363D01*
X3762Y7340D01*
X3713Y7291D01*
X3675Y7199D01*
X3675Y7100D01*
X3675Y6800D01*
X3713Y6708D01*
X3783Y6638D01*
X3875Y6600D01*
X3974Y6600D01*
X4174Y6600D01*
X4266Y6638D01*
X4336Y6708D01*
X4375Y6800D01*
X4375Y6899D01*
X4375Y7199D01*
X4336Y7291D01*
X4287Y7340D01*
X4341Y7363D01*
X4411Y7433D01*
X4450Y7525D01*
X4450Y7624D01*
X4450Y8174D01*
X4411Y8266D01*
X4395Y8283D01*
X4440Y8302D01*
X4510Y8372D01*
X4549Y8464D01*
X4549Y8563D01*
X4549Y9035D01*
X4510Y9127D01*
X4440Y9197D01*
X4348Y9236D01*
X4249Y9236D01*
X3777Y9236D01*
X3685Y9197D01*
X3649Y9162D01*
X3614Y9197D01*
X3597Y9205D01*
X3597Y9738D01*
X3737Y9878D01*
X3739Y9882D01*
X3756Y9886D01*
X3756Y9886D01*
X3873Y9964D01*
X5226Y11317D01*
X5224Y11312D01*
X5234Y11074D01*
X5306Y10900D01*
X5407Y10867D01*
X5758Y11218D01*
X5752Y11224D01*
X5823Y11295D01*
X5829Y11289D01*
X6180Y11641D01*
X6147Y11741D01*
X5922Y11823D01*
X5724Y11814D01*
X7604Y13695D01*
X7682Y13812D01*
X7682Y13812D01*
X7709Y13950D01*
X7710Y13950D01*
X7710Y14900D01*
X8949Y16140D01*
X10600Y16140D01*
X10600Y16050D01*
X10638Y15958D01*
X10646Y15950D01*
X10638Y15941D01*
X10600Y15849D01*
X10600Y15750D01*
X10600Y15359D01*
X9129Y13888D01*
X9129Y14349D01*
X9022Y14607D01*
X8826Y14804D01*
X8568Y14910D01*
X8290Y14911D01*
X8033Y14804D01*
X7836Y14608D01*
X7729Y14350D01*
X7729Y14072D01*
X7835Y13815D01*
X8032Y13617D01*
X8289Y13511D01*
X8567Y13510D01*
X8825Y13617D01*
X9022Y13813D01*
X9129Y14071D01*
X9129Y14349D01*
X9129Y13888D01*
X6430Y11190D01*
X6423Y11363D01*
X6351Y11536D01*
X6251Y11570D01*
X5899Y11218D01*
X5905Y11213D01*
X5834Y11142D01*
X5829Y11148D01*
X5477Y10796D01*
X5499Y10731D01*
X5489Y10727D01*
X5320Y10559D01*
X5229Y10338D01*
X5229Y10100D01*
X5320Y9879D01*
X5488Y9710D01*
X5527Y9694D01*
X5527Y9205D01*
X5509Y9197D01*
X5439Y9127D01*
X5401Y9035D01*
X5401Y8936D01*
X5401Y8773D01*
X5045Y8417D01*
X4967Y8300D01*
X4940Y8163D01*
X4940Y7450D01*
X4967Y7312D01*
X5045Y7195D01*
X5445Y6795D01*
X5562Y6717D01*
X5562Y6717D01*
X5676Y6694D01*
X5683Y6688D01*
X5775Y6650D01*
X5874Y6650D01*
X6074Y6650D01*
X6166Y6688D01*
X6236Y6758D01*
X6275Y6850D01*
X6275Y6949D01*
X6275Y6999D01*
X6285Y7050D01*
X6275Y7100D01*
X6275Y7249D01*
X6236Y7341D01*
X6223Y7355D01*
X6241Y7363D01*
X6300Y7421D01*
X6358Y7363D01*
X6376Y7355D01*
X6363Y7341D01*
X6325Y7249D01*
X6325Y7150D01*
X6325Y6850D01*
X6363Y6758D01*
X6433Y6688D01*
X6525Y6650D01*
X6624Y6650D01*
X6824Y6650D01*
X6916Y6688D01*
X6986Y6758D01*
X7025Y6850D01*
X7025Y6949D01*
X7025Y7249D01*
X6986Y7341D01*
X6973Y7355D01*
X6991Y7363D01*
X7061Y7433D01*
X7100Y7525D01*
X7100Y7624D01*
X7100Y8174D01*
X7061Y8266D01*
X7045Y8283D01*
X7090Y8302D01*
X7160Y8372D01*
X7199Y8464D01*
X7199Y8563D01*
X7199Y9035D01*
X7160Y9127D01*
X7090Y9197D01*
X6998Y9236D01*
X6899Y9236D01*
X6427Y9236D01*
X6335Y9197D01*
X6299Y9162D01*
X6264Y9197D01*
X6247Y9205D01*
X6247Y9788D01*
X6337Y9878D01*
X6429Y10099D01*
X6429Y10169D01*
X10650Y14390D01*
X10650Y14262D01*
X10712Y14200D01*
X11250Y14200D01*
X11250Y14637D01*
X11187Y14700D01*
X10959Y14700D01*
X11009Y14750D01*
X11499Y14750D01*
X11591Y14788D01*
X11661Y14858D01*
X11700Y14950D01*
X11700Y15049D01*
X11700Y15849D01*
X11661Y15941D01*
X11653Y15950D01*
X11661Y15958D01*
X11700Y16050D01*
X11700Y16149D01*
X11700Y16949D01*
X11661Y17041D01*
X11653Y17050D01*
X11661Y17058D01*
X11700Y17150D01*
X11700Y17249D01*
X11700Y18049D01*
X11661Y18141D01*
X11591Y18211D01*
X11499Y18250D01*
X11400Y18250D01*
X11009Y18250D01*
X10804Y18454D01*
X10800Y18457D01*
X10800Y20150D01*
X10800Y20249D01*
X10800Y20849D01*
X10761Y20941D01*
X10691Y21011D01*
X10599Y21050D01*
X10500Y21050D01*
X9900Y21050D01*
X9808Y21011D01*
X9738Y20941D01*
X9700Y20849D01*
X9700Y20827D01*
X9561Y20965D01*
X9359Y21049D01*
X9141Y21050D01*
X8938Y20966D01*
X8784Y20811D01*
X8700Y20609D01*
X8699Y20391D01*
X8783Y20188D01*
X8938Y20034D01*
X9140Y19950D01*
X9358Y19949D01*
X9561Y20033D01*
X9700Y20172D01*
X9700Y20150D01*
X9738Y20058D01*
X9808Y19988D01*
X9900Y19950D01*
X9999Y19950D01*
X10599Y19950D01*
X10691Y19988D01*
X10761Y20058D01*
X10800Y20150D01*
X10800Y18457D01*
X10687Y18532D01*
X10550Y18560D01*
X8050Y18560D01*
X8050Y20150D01*
X8050Y20249D01*
X8050Y20849D01*
X8011Y20941D01*
X7941Y21011D01*
X7849Y21050D01*
X7750Y21050D01*
X7150Y21050D01*
X7058Y21011D01*
X6988Y20941D01*
X6950Y20849D01*
X6950Y20827D01*
X6811Y20965D01*
X6609Y21049D01*
X6391Y21050D01*
X6188Y20966D01*
X6034Y20811D01*
X5950Y20609D01*
X5949Y20391D01*
X6033Y20188D01*
X6188Y20034D01*
X6390Y19950D01*
X6608Y19949D01*
X6811Y20033D01*
X6950Y20172D01*
X6950Y20150D01*
X6988Y20058D01*
X7058Y19988D01*
X7150Y19950D01*
X7249Y19950D01*
X7849Y19950D01*
X7941Y19988D01*
X8011Y20058D01*
X8050Y20150D01*
X8050Y18560D01*
X7550Y18560D01*
X7412Y18532D01*
X7295Y18454D01*
X6995Y18154D01*
X6917Y18037D01*
X6890Y17900D01*
X6890Y17349D01*
X6470Y16929D01*
X6529Y17071D01*
X6529Y17349D01*
X6422Y17607D01*
X6226Y17804D01*
X5968Y17910D01*
X5690Y17911D01*
X5433Y17804D01*
X5300Y17671D01*
X5300Y20150D01*
X5300Y20249D01*
X5300Y20849D01*
X5261Y20941D01*
X5191Y21011D01*
X5099Y21050D01*
X5000Y21050D01*
X4400Y21050D01*
X4308Y21011D01*
X4238Y20941D01*
X4200Y20849D01*
X4200Y20827D01*
X4061Y20965D01*
X3859Y21049D01*
X3641Y21050D01*
X3438Y20966D01*
X3284Y20811D01*
X3200Y20609D01*
X3199Y20391D01*
X3283Y20188D01*
X3438Y20034D01*
X3640Y19950D01*
X3858Y19949D01*
X4061Y20033D01*
X4200Y20172D01*
X4200Y20150D01*
X4238Y20058D01*
X4308Y19988D01*
X4400Y19950D01*
X4499Y19950D01*
X5099Y19950D01*
X5191Y19988D01*
X5261Y20058D01*
X5300Y20150D01*
X5300Y17671D01*
X5236Y17608D01*
X5129Y17350D01*
X5129Y17072D01*
X5235Y16815D01*
X5432Y16617D01*
X5689Y16511D01*
X5967Y16510D01*
X6110Y16570D01*
X4395Y14854D01*
X4317Y14737D01*
X4290Y14600D01*
X4290Y14149D01*
X3929Y13788D01*
X3929Y14349D01*
X3929Y17349D01*
X3822Y17607D01*
X3626Y17804D01*
X3368Y17910D01*
X3090Y17911D01*
X2833Y17804D01*
X2636Y17608D01*
X2550Y17400D01*
X2550Y20150D01*
X2550Y20249D01*
X2550Y20849D01*
X2511Y20941D01*
X2441Y21011D01*
X2349Y21050D01*
X2250Y21050D01*
X1650Y21050D01*
X1558Y21011D01*
X1488Y20941D01*
X1450Y20849D01*
X1450Y20827D01*
X1311Y20965D01*
X1109Y21049D01*
X891Y21050D01*
X688Y20966D01*
X534Y20811D01*
X450Y20609D01*
X449Y20391D01*
X533Y20188D01*
X688Y20034D01*
X890Y19950D01*
X1108Y19949D01*
X1311Y20033D01*
X1450Y20172D01*
X1450Y20150D01*
X1488Y20058D01*
X1558Y19988D01*
X1650Y19950D01*
X1749Y19950D01*
X2349Y19950D01*
X2441Y19988D01*
X2511Y20058D01*
X2550Y20150D01*
X2550Y17400D01*
X2529Y17350D01*
X2529Y17072D01*
X2635Y16815D01*
X2832Y16617D01*
X3089Y16511D01*
X3367Y16510D01*
X3625Y16617D01*
X3822Y16813D01*
X3929Y17071D01*
X3929Y17349D01*
X3929Y14349D01*
X3822Y14607D01*
X3626Y14804D01*
X3368Y14910D01*
X3090Y14911D01*
X2833Y14804D01*
X2636Y14608D01*
X2529Y14350D01*
X2529Y14072D01*
X2635Y13815D01*
X2832Y13617D01*
X3089Y13511D01*
X3367Y13510D01*
X3625Y13617D01*
X3822Y13813D01*
X3929Y14071D01*
X3929Y14349D01*
X3929Y13788D01*
X1330Y11190D01*
X1323Y11363D01*
X1251Y11536D01*
X1151Y11570D01*
X1080Y11499D01*
X1080Y11641D01*
X1047Y11741D01*
X822Y11823D01*
X584Y11813D01*
X411Y11741D01*
X377Y11641D01*
X729Y11289D01*
X1080Y11641D01*
X1080Y11499D01*
X799Y11218D01*
X805Y11213D01*
X734Y11142D01*
X729Y11148D01*
X377Y10796D01*
X399Y10731D01*
X389Y10727D01*
X279Y10617D01*
X279Y10876D01*
X307Y10867D01*
X658Y11218D01*
X307Y11570D01*
X279Y11561D01*
X279Y13670D01*
X332Y13617D01*
X589Y13511D01*
X867Y13510D01*
X1125Y13617D01*
X1322Y13813D01*
X1429Y14071D01*
X1429Y14349D01*
X1322Y14607D01*
X1126Y14804D01*
X868Y14910D01*
X590Y14911D01*
X333Y14804D01*
X279Y14751D01*
X279Y16670D01*
X332Y16617D01*
X589Y16511D01*
X867Y16510D01*
X1125Y16617D01*
X1322Y16813D01*
X1429Y17071D01*
X1429Y17349D01*
X1322Y17607D01*
X1126Y17804D01*
X868Y17910D01*
X590Y17911D01*
X333Y17804D01*
X279Y17751D01*
X279Y21720D01*
X19378Y21720D01*
X19272Y21639D01*
X19128Y21387D01*
X19109Y21315D01*
X19155Y21200D01*
X20472Y21200D01*
X20472Y21207D01*
X20572Y21207D01*
X20572Y21200D01*
X21888Y21200D01*
X21934Y21315D01*
X21915Y21387D01*
X21771Y21639D01*
X21665Y21720D01*
X24720Y21720D01*
X24720Y17370D01*
X24653Y17370D01*
X24362Y17370D01*
X24300Y17307D01*
X24300Y16914D01*
X24307Y16914D01*
X24307Y16814D01*
X24300Y16814D01*
X24300Y16806D01*
X24200Y16806D01*
X24200Y16814D01*
X24200Y16914D01*
X24200Y17307D01*
X24137Y17370D01*
X23846Y17370D01*
X23747Y17370D01*
X23655Y17331D01*
X23585Y17261D01*
X23547Y17169D01*
X23547Y16976D01*
X23609Y16914D01*
X24200Y16914D01*
X24200Y16814D01*
X23609Y16814D01*
X23547Y16751D01*
X23547Y16701D01*
X23452Y16701D01*
X23181Y16701D01*
X23119Y16638D01*
X23119Y16245D01*
X23126Y16245D01*
X23126Y16145D01*
X23119Y16145D01*
X23119Y16137D01*
X23019Y16137D01*
X23019Y16145D01*
X23019Y16245D01*
X23019Y16638D01*
X22956Y16701D01*
X22685Y16701D01*
X22585Y16701D01*
X22493Y16662D01*
X22445Y16614D01*
X22445Y18954D01*
X22445Y19250D01*
X22445Y19350D01*
X22445Y19645D01*
X22369Y19925D01*
X22192Y20155D01*
X21940Y20300D01*
X21934Y20301D01*
X21934Y20984D01*
X21888Y21100D01*
X20572Y21100D01*
X20572Y20408D01*
X21261Y20408D01*
X21541Y20483D01*
X21771Y20660D01*
X21915Y20912D01*
X21934Y20984D01*
X21934Y20301D01*
X21868Y20318D01*
X21753Y20273D01*
X21753Y19350D01*
X22445Y19350D01*
X22445Y19250D01*
X21753Y19250D01*
X21753Y18326D01*
X21868Y18281D01*
X21940Y18299D01*
X22192Y18444D01*
X22369Y18674D01*
X22445Y18954D01*
X22445Y16614D01*
X22423Y16592D01*
X22385Y16500D01*
X22385Y16307D01*
X22448Y16245D01*
X23019Y16245D01*
X23019Y16145D01*
X22448Y16145D01*
X22385Y16082D01*
X22385Y16066D01*
X22339Y16057D01*
X22300Y16031D01*
X22300Y16137D01*
X22300Y16362D01*
X22300Y16475D01*
X22300Y16574D01*
X22261Y16666D01*
X22191Y16736D01*
X22099Y16775D01*
X21987Y16775D01*
X21925Y16712D01*
X21925Y16300D01*
X22237Y16300D01*
X22300Y16362D01*
X22300Y16137D01*
X22237Y16200D01*
X21925Y16200D01*
X21925Y16192D01*
X21825Y16192D01*
X21825Y16200D01*
X21817Y16200D01*
X21817Y16300D01*
X21825Y16300D01*
X21825Y16712D01*
X21762Y16775D01*
X21653Y16775D01*
X21653Y18326D01*
X21653Y19250D01*
X21653Y19350D01*
X21653Y20273D01*
X21537Y20318D01*
X21465Y20300D01*
X21213Y20155D01*
X21036Y19925D01*
X20961Y19645D01*
X20961Y19350D01*
X21653Y19350D01*
X21653Y19250D01*
X20961Y19250D01*
X20961Y18954D01*
X21036Y18674D01*
X21213Y18444D01*
X21465Y18299D01*
X21537Y18281D01*
X21653Y18326D01*
X21653Y16775D01*
X21650Y16775D01*
X21558Y16736D01*
X21499Y16678D01*
X21441Y16736D01*
X21349Y16775D01*
X21250Y16775D01*
X20900Y16775D01*
X20808Y16736D01*
X20775Y16704D01*
X20698Y16736D01*
X20599Y16736D01*
X20472Y16736D01*
X20472Y20408D01*
X20472Y21100D01*
X19155Y21100D01*
X19109Y20984D01*
X19128Y20912D01*
X19272Y20660D01*
X19502Y20483D01*
X19783Y20408D01*
X20472Y20408D01*
X20472Y16736D01*
X20127Y16736D01*
X20083Y16717D01*
X20083Y18984D01*
X20083Y19615D01*
X20026Y19899D01*
X19865Y20140D01*
X19624Y20301D01*
X19341Y20357D01*
X19057Y20301D01*
X18816Y20140D01*
X18655Y19899D01*
X18599Y19615D01*
X18599Y19067D01*
X18570Y19039D01*
X17946Y19039D01*
X17946Y19220D01*
X17908Y19312D01*
X17838Y19382D01*
X17746Y19421D01*
X17646Y19421D01*
X17253Y19421D01*
X17161Y19382D01*
X17091Y19312D01*
X17053Y19220D01*
X17053Y19121D01*
X17053Y18137D01*
X17091Y18045D01*
X17161Y17975D01*
X17253Y17937D01*
X17353Y17937D01*
X17746Y17937D01*
X17838Y17975D01*
X17908Y18045D01*
X17946Y18137D01*
X17946Y18236D01*
X17946Y18319D01*
X18720Y18319D01*
X18720Y18319D01*
X18857Y18346D01*
X18857Y18346D01*
X18921Y18389D01*
X19057Y18298D01*
X19341Y18242D01*
X19624Y18298D01*
X19865Y18459D01*
X20026Y18700D01*
X20083Y18984D01*
X20083Y16717D01*
X20035Y16697D01*
X19999Y16662D01*
X19964Y16697D01*
X19872Y16736D01*
X19773Y16736D01*
X19301Y16736D01*
X19209Y16697D01*
X19139Y16627D01*
X19101Y16535D01*
X19101Y16436D01*
X19101Y15964D01*
X19139Y15872D01*
X19209Y15802D01*
X19227Y15794D01*
X19227Y15513D01*
X19254Y15375D01*
X19332Y15258D01*
X19824Y14765D01*
X19824Y14765D01*
X19889Y14609D01*
X20008Y14489D01*
X20165Y14425D01*
X20334Y14424D01*
X20490Y14489D01*
X20610Y14608D01*
X20674Y14765D01*
X20675Y14934D01*
X20610Y15090D01*
X20491Y15210D01*
X20334Y15274D01*
X20334Y15274D01*
X19947Y15662D01*
X19947Y15794D01*
X19964Y15802D01*
X20000Y15837D01*
X20035Y15802D01*
X20127Y15764D01*
X20226Y15764D01*
X20698Y15764D01*
X20775Y15795D01*
X20808Y15763D01*
X20900Y15725D01*
X20999Y15725D01*
X21349Y15725D01*
X21441Y15763D01*
X21500Y15821D01*
X21558Y15763D01*
X21596Y15747D01*
X21489Y15641D01*
X21425Y15484D01*
X21424Y15315D01*
X21489Y15159D01*
X21608Y15039D01*
X21765Y14975D01*
X21934Y14974D01*
X22090Y15039D01*
X22138Y15087D01*
X22222Y15104D01*
X22326Y15173D01*
X22523Y15370D01*
X22523Y15278D01*
X22523Y15122D01*
X22523Y15121D01*
X22523Y15095D01*
X22541Y15077D01*
X22561Y15029D01*
X22597Y14994D01*
X22561Y14958D01*
X22541Y14910D01*
X22523Y14892D01*
X22523Y14866D01*
X22523Y14865D01*
X22523Y14839D01*
X22541Y14821D01*
X22551Y14797D01*
X22530Y14788D01*
X22523Y14788D01*
X22523Y14785D01*
X22493Y14772D01*
X22423Y14702D01*
X22385Y14610D01*
X22385Y14417D01*
X22448Y14355D01*
X23019Y14355D01*
X23019Y14433D01*
X23058Y14472D01*
X23058Y14698D01*
X23050Y14698D01*
X23050Y14720D01*
X23058Y14728D01*
X23058Y14777D01*
X23058Y14795D01*
X23158Y14795D01*
X23158Y14787D01*
X23119Y14748D01*
X23119Y14355D01*
X23126Y14355D01*
X23126Y14255D01*
X23119Y14255D01*
X23119Y13861D01*
X23181Y13799D01*
X23452Y13799D01*
X23547Y13799D01*
X23547Y13748D01*
X23609Y13686D01*
X24200Y13686D01*
X24200Y13693D01*
X24279Y13693D01*
X24300Y13693D01*
X24300Y13686D01*
X24307Y13686D01*
X24307Y13586D01*
X24300Y13586D01*
X24300Y13192D01*
X24362Y13130D01*
X24653Y13130D01*
X24720Y13130D01*
X24720Y12886D01*
X24720Y12886D01*
G37*
G54D38*
X24720Y12886D02*
X24279Y12886D01*
X24277Y12886D01*
X24200Y12853D01*
X24200Y13192D01*
X24200Y13586D01*
X23609Y13586D01*
X23547Y13523D01*
X23547Y13330D01*
X23585Y13238D01*
X23655Y13168D01*
X23747Y13130D01*
X23846Y13130D01*
X24137Y13130D01*
X24200Y13192D01*
X24200Y12853D01*
X24185Y12847D01*
X24149Y12812D01*
X24114Y12847D01*
X24022Y12886D01*
X23923Y12886D01*
X23451Y12886D01*
X23412Y12869D01*
X23425Y12900D01*
X23425Y13012D01*
X23425Y13237D01*
X23425Y13349D01*
X23386Y13441D01*
X23316Y13511D01*
X23224Y13550D01*
X23125Y13550D01*
X23019Y13550D01*
X23019Y13861D01*
X23019Y14255D01*
X22448Y14255D01*
X22385Y14192D01*
X22385Y13999D01*
X22423Y13907D01*
X22493Y13837D01*
X22585Y13799D01*
X22685Y13799D01*
X22956Y13799D01*
X23019Y13861D01*
X23019Y13550D01*
X23012Y13550D01*
X22950Y13487D01*
X22950Y13175D01*
X23362Y13175D01*
X23425Y13237D01*
X23425Y13012D01*
X23362Y13075D01*
X22950Y13075D01*
X22950Y13067D01*
X22850Y13067D01*
X22850Y13075D01*
X22850Y13175D01*
X22850Y13487D01*
X22787Y13550D01*
X22674Y13550D01*
X22575Y13550D01*
X22483Y13511D01*
X22413Y13441D01*
X22375Y13349D01*
X22375Y13237D01*
X22437Y13175D01*
X22850Y13175D01*
X22850Y13075D01*
X22437Y13075D01*
X22375Y13012D01*
X22375Y12900D01*
X22413Y12808D01*
X22471Y12750D01*
X22413Y12691D01*
X22375Y12599D01*
X22375Y12500D01*
X22375Y12150D01*
X22413Y12058D01*
X22483Y11988D01*
X22575Y11950D01*
X22674Y11950D01*
X23224Y11950D01*
X23316Y11988D01*
X23319Y11991D01*
X23359Y11952D01*
X23451Y11914D01*
X23550Y11914D01*
X24022Y11914D01*
X24114Y11952D01*
X24150Y11987D01*
X24185Y11952D01*
X24243Y11928D01*
X24243Y10568D01*
X24161Y10649D01*
X23959Y10733D01*
X23741Y10734D01*
X23538Y10650D01*
X23384Y10495D01*
X23300Y10293D01*
X23299Y10075D01*
X23383Y9872D01*
X23538Y9718D01*
X23600Y9692D01*
X23539Y9666D01*
X22665Y10540D01*
X22555Y10614D01*
X22425Y10640D01*
X21946Y10640D01*
X21946Y10782D01*
X21879Y10946D01*
X21753Y11072D01*
X21742Y11076D01*
X21763Y11085D01*
X21895Y11216D01*
X21966Y11387D01*
X21966Y11573D01*
X21952Y11608D01*
X21952Y13786D01*
X21939Y13963D01*
X21895Y14069D01*
X21811Y14083D01*
X21740Y14012D01*
X21740Y14154D01*
X21725Y14239D01*
X21557Y14295D01*
X21379Y14282D01*
X21274Y14239D01*
X21259Y14154D01*
X21500Y13914D01*
X21740Y14154D01*
X21740Y14012D01*
X21570Y13843D01*
X21811Y13602D01*
X21895Y13617D01*
X21952Y13786D01*
X21952Y11608D01*
X21895Y11745D01*
X21764Y11876D01*
X21742Y11885D01*
X21752Y11889D01*
X21878Y12015D01*
X21946Y12179D01*
X21946Y12356D01*
X21879Y12521D01*
X21753Y12647D01*
X21717Y12662D01*
X21752Y12676D01*
X21878Y12802D01*
X21946Y12966D01*
X21946Y13144D01*
X21879Y13308D01*
X21753Y13434D01*
X21723Y13446D01*
X21725Y13447D01*
X21740Y13532D01*
X21500Y13772D01*
X21429Y13701D01*
X21429Y13843D01*
X21188Y14083D01*
X21104Y14069D01*
X21047Y13900D01*
X21060Y13723D01*
X21104Y13617D01*
X21188Y13602D01*
X21429Y13843D01*
X21429Y13701D01*
X21259Y13532D01*
X21274Y13447D01*
X21276Y13446D01*
X21247Y13434D01*
X21121Y13309D01*
X21053Y13145D01*
X21053Y12967D01*
X21120Y12803D01*
X21246Y12677D01*
X21282Y12662D01*
X21247Y12647D01*
X21121Y12521D01*
X21053Y12357D01*
X21053Y12180D01*
X21120Y12015D01*
X21246Y11889D01*
X21257Y11885D01*
X21236Y11876D01*
X21104Y11745D01*
X21033Y11574D01*
X21033Y11388D01*
X21104Y11217D01*
X21235Y11085D01*
X21257Y11076D01*
X21247Y11072D01*
X21121Y10947D01*
X21053Y10782D01*
X21053Y10640D01*
X20700Y10640D01*
X20569Y10614D01*
X20459Y10540D01*
X20369Y10450D01*
X19934Y10450D01*
X20384Y10900D01*
X20624Y10900D01*
X20716Y10938D01*
X20786Y11008D01*
X20825Y11100D01*
X20825Y11199D01*
X20825Y11549D01*
X20786Y11641D01*
X20728Y11700D01*
X20786Y11758D01*
X20825Y11850D01*
X20825Y11962D01*
X20825Y12187D01*
X20825Y12299D01*
X20786Y12391D01*
X20716Y12461D01*
X20624Y12500D01*
X20525Y12500D01*
X20412Y12500D01*
X20350Y12437D01*
X20350Y12125D01*
X20762Y12125D01*
X20825Y12187D01*
X20825Y11962D01*
X20762Y12025D01*
X20350Y12025D01*
X20350Y12017D01*
X20250Y12017D01*
X20250Y12025D01*
X20250Y12125D01*
X20250Y12437D01*
X20187Y12500D01*
X20074Y12500D01*
X19975Y12500D01*
X19883Y12461D01*
X19813Y12391D01*
X19775Y12299D01*
X19775Y12187D01*
X19837Y12125D01*
X20250Y12125D01*
X20250Y12025D01*
X19837Y12025D01*
X19775Y11962D01*
X19775Y11850D01*
X19813Y11758D01*
X19871Y11700D01*
X19813Y11641D01*
X19775Y11549D01*
X19775Y11450D01*
X19775Y11309D01*
X19725Y11259D01*
X19725Y13375D01*
X19725Y13474D01*
X19725Y14024D01*
X19686Y14116D01*
X19616Y14186D01*
X19524Y14225D01*
X19425Y14225D01*
X19184Y14225D01*
X18254Y15154D01*
X18137Y15232D01*
X18000Y15260D01*
X17946Y15260D01*
X17946Y15778D01*
X17946Y16207D01*
X17946Y16432D01*
X17946Y16861D01*
X17908Y16953D01*
X17838Y17023D01*
X17746Y17062D01*
X17646Y17062D01*
X17612Y17062D01*
X17550Y16999D01*
X17550Y16370D01*
X17884Y16370D01*
X17946Y16432D01*
X17946Y16207D01*
X17884Y16270D01*
X17550Y16270D01*
X17550Y15640D01*
X17612Y15578D01*
X17646Y15578D01*
X17746Y15578D01*
X17838Y15616D01*
X17908Y15686D01*
X17946Y15778D01*
X17946Y15260D01*
X17499Y15260D01*
X17450Y15309D01*
X17450Y15640D01*
X17450Y16270D01*
X17450Y16370D01*
X17450Y16999D01*
X17387Y17062D01*
X17353Y17062D01*
X17253Y17062D01*
X17161Y17023D01*
X17091Y16953D01*
X17053Y16861D01*
X17053Y16432D01*
X17116Y16370D01*
X17450Y16370D01*
X17450Y16270D01*
X17116Y16270D01*
X17053Y16207D01*
X17053Y15778D01*
X17091Y15686D01*
X17161Y15616D01*
X17253Y15578D01*
X17353Y15578D01*
X17387Y15578D01*
X17450Y15640D01*
X17450Y15309D01*
X16800Y15959D01*
X16800Y20150D01*
X16800Y20249D01*
X16800Y20387D01*
X16800Y20612D01*
X16800Y20750D01*
X16800Y20849D01*
X16761Y20941D01*
X16691Y21011D01*
X16599Y21050D01*
X16362Y21050D01*
X16300Y20987D01*
X16300Y20550D01*
X16737Y20550D01*
X16800Y20612D01*
X16800Y20387D01*
X16737Y20450D01*
X16300Y20450D01*
X16300Y20012D01*
X16362Y19950D01*
X16599Y19950D01*
X16691Y19988D01*
X16761Y20058D01*
X16800Y20150D01*
X16800Y15959D01*
X15660Y17099D01*
X15660Y17114D01*
X15716Y17138D01*
X15786Y17208D01*
X15825Y17300D01*
X15825Y17399D01*
X15825Y17749D01*
X15786Y17841D01*
X15728Y17900D01*
X15786Y17958D01*
X15825Y18050D01*
X15825Y18149D01*
X15825Y18499D01*
X15786Y18591D01*
X15716Y18661D01*
X15660Y18685D01*
X15660Y20132D01*
X15700Y20172D01*
X15700Y20150D01*
X15738Y20058D01*
X15808Y19988D01*
X15900Y19950D01*
X16137Y19950D01*
X16200Y20012D01*
X16200Y20450D01*
X16192Y20450D01*
X16192Y20550D01*
X16200Y20550D01*
X16200Y20987D01*
X16137Y21050D01*
X15900Y21050D01*
X15808Y21011D01*
X15738Y20941D01*
X15700Y20849D01*
X15700Y20827D01*
X15561Y20965D01*
X15359Y21049D01*
X15141Y21050D01*
X14938Y20966D01*
X14784Y20811D01*
X14700Y20609D01*
X14699Y20391D01*
X14783Y20188D01*
X14938Y20034D01*
X14940Y20033D01*
X14940Y18685D01*
X14883Y18661D01*
X14850Y18628D01*
X14816Y18661D01*
X14724Y18700D01*
X14625Y18700D01*
X14109Y18700D01*
X14050Y18759D01*
X14050Y20150D01*
X14050Y20249D01*
X14050Y20387D01*
X14050Y20612D01*
X14050Y20750D01*
X14050Y20849D01*
X14011Y20941D01*
X13941Y21011D01*
X13849Y21050D01*
X13612Y21050D01*
X13550Y20987D01*
X13550Y20550D01*
X13987Y20550D01*
X14050Y20612D01*
X14050Y20387D01*
X13987Y20450D01*
X13550Y20450D01*
X13550Y20012D01*
X13612Y19950D01*
X13849Y19950D01*
X13941Y19988D01*
X14011Y20058D01*
X14050Y20150D01*
X14050Y18759D01*
X12860Y19949D01*
X12860Y20082D01*
X12950Y20172D01*
X12950Y20150D01*
X12988Y20058D01*
X13058Y19988D01*
X13150Y19950D01*
X13387Y19950D01*
X13450Y20012D01*
X13450Y20450D01*
X13442Y20450D01*
X13442Y20550D01*
X13450Y20550D01*
X13450Y20987D01*
X13387Y21050D01*
X13150Y21050D01*
X13058Y21011D01*
X12988Y20941D01*
X12950Y20849D01*
X12950Y20827D01*
X12811Y20965D01*
X12609Y21049D01*
X12391Y21050D01*
X12188Y20966D01*
X12034Y20811D01*
X11950Y20609D01*
X11949Y20391D01*
X12033Y20188D01*
X12140Y20082D01*
X12140Y19800D01*
X12167Y19662D01*
X12245Y19545D01*
X13770Y18020D01*
X13770Y18020D01*
X13828Y17981D01*
X13887Y17942D01*
X13887Y17942D01*
X13939Y17932D01*
X13939Y17932D01*
X13971Y17900D01*
X13913Y17841D01*
X13875Y17749D01*
X13875Y17650D01*
X13875Y17300D01*
X13913Y17208D01*
X13983Y17138D01*
X14040Y17114D01*
X14040Y17050D01*
X14067Y16912D01*
X14145Y16795D01*
X15061Y15879D01*
X14725Y15880D01*
X14402Y15746D01*
X14154Y15499D01*
X14020Y15175D01*
X14019Y14825D01*
X14153Y14502D01*
X14400Y14254D01*
X14724Y14120D01*
X15074Y14119D01*
X15397Y14253D01*
X15645Y14500D01*
X15779Y14824D01*
X15780Y15160D01*
X16840Y14100D01*
X16840Y14082D01*
X16755Y13997D01*
X16702Y13871D01*
X16660Y13972D01*
X16567Y13997D01*
X16497Y13926D01*
X16497Y14067D01*
X16472Y14160D01*
X16275Y14229D01*
X16067Y14218D01*
X15927Y14160D01*
X15902Y14067D01*
X16200Y13770D01*
X16497Y14067D01*
X16497Y13926D01*
X16270Y13700D01*
X16567Y13402D01*
X16660Y13427D01*
X16699Y13537D01*
X16754Y13403D01*
X16902Y13255D01*
X17095Y13175D01*
X17303Y13174D01*
X17497Y13254D01*
X17644Y13402D01*
X17697Y13528D01*
X17739Y13427D01*
X17832Y13402D01*
X18129Y13700D01*
X17832Y13997D01*
X17739Y13972D01*
X17700Y13862D01*
X17645Y13997D01*
X17560Y14082D01*
X17560Y14250D01*
X17532Y14387D01*
X17532Y14387D01*
X17501Y14434D01*
X17454Y14504D01*
X17419Y14540D01*
X17850Y14540D01*
X18166Y14223D01*
X18067Y14218D01*
X17927Y14160D01*
X17902Y14067D01*
X18200Y13770D01*
X18205Y13776D01*
X18276Y13705D01*
X18270Y13700D01*
X18567Y13402D01*
X18660Y13427D01*
X18675Y13468D01*
X18675Y13375D01*
X18713Y13283D01*
X18783Y13213D01*
X18875Y13175D01*
X18974Y13175D01*
X19524Y13175D01*
X19616Y13213D01*
X19686Y13283D01*
X19725Y13375D01*
X19725Y11259D01*
X19554Y11088D01*
X19497Y11144D01*
X19304Y11224D01*
X19096Y11225D01*
X18903Y11145D01*
X18755Y10997D01*
X18699Y10864D01*
X18645Y10997D01*
X18497Y11144D01*
X18497Y11145D01*
X18497Y13332D01*
X18200Y13629D01*
X17902Y13332D01*
X17927Y13239D01*
X18124Y13170D01*
X18332Y13181D01*
X18472Y13239D01*
X18497Y13332D01*
X18497Y11145D01*
X18304Y11224D01*
X18096Y11225D01*
X17903Y11145D01*
X17755Y10997D01*
X17699Y10864D01*
X17645Y10997D01*
X17497Y11144D01*
X17304Y11224D01*
X17096Y11225D01*
X16903Y11145D01*
X16755Y10997D01*
X16702Y10871D01*
X16660Y10972D01*
X16567Y10997D01*
X16497Y10926D01*
X16497Y11067D01*
X16497Y13332D01*
X16200Y13629D01*
X16129Y13558D01*
X16129Y13700D01*
X15832Y13997D01*
X15739Y13972D01*
X15670Y13775D01*
X15681Y13567D01*
X15739Y13427D01*
X15832Y13402D01*
X16129Y13700D01*
X16129Y13558D01*
X15902Y13332D01*
X15927Y13239D01*
X16124Y13170D01*
X16332Y13181D01*
X16472Y13239D01*
X16497Y13332D01*
X16497Y11067D01*
X16472Y11160D01*
X16275Y11229D01*
X16067Y11218D01*
X15927Y11160D01*
X15902Y11067D01*
X16200Y10770D01*
X16497Y11067D01*
X16497Y10926D01*
X16270Y10700D01*
X16567Y10402D01*
X16660Y10427D01*
X16699Y10537D01*
X16754Y10403D01*
X16902Y10255D01*
X17095Y10175D01*
X17303Y10174D01*
X17497Y10254D01*
X17644Y10402D01*
X17700Y10535D01*
X17754Y10403D01*
X17865Y10292D01*
X17865Y9545D01*
X16700Y9545D01*
X16577Y9520D01*
X16497Y9466D01*
X16497Y10332D01*
X16200Y10629D01*
X16129Y10558D01*
X16129Y10700D01*
X15832Y10997D01*
X15739Y10972D01*
X15670Y10775D01*
X15681Y10567D01*
X15739Y10427D01*
X15832Y10402D01*
X16129Y10700D01*
X16129Y10558D01*
X15902Y10332D01*
X15927Y10239D01*
X16124Y10170D01*
X16332Y10181D01*
X16472Y10239D01*
X16497Y10332D01*
X16497Y9466D01*
X16473Y9451D01*
X16373Y9351D01*
X16304Y9247D01*
X16284Y9150D01*
X16280Y9127D01*
X16257Y9150D01*
X16240Y9150D01*
X16148Y9111D01*
X16078Y9041D01*
X16040Y8949D01*
X16040Y8912D01*
X16102Y8850D01*
X16280Y8850D01*
X16280Y8800D01*
X16280Y8750D01*
X16102Y8750D01*
X16040Y8687D01*
X16040Y8670D01*
X15973Y8626D01*
X15717Y8370D01*
X15700Y8370D01*
X15700Y8374D01*
X15661Y8466D01*
X15591Y8536D01*
X15499Y8575D01*
X15400Y8575D01*
X15050Y8575D01*
X14958Y8536D01*
X14899Y8478D01*
X14841Y8536D01*
X14749Y8575D01*
X14650Y8575D01*
X14300Y8575D01*
X14208Y8536D01*
X14138Y8466D01*
X14100Y8374D01*
X14100Y8275D01*
X14100Y8134D01*
X13345Y7379D01*
X13267Y7262D01*
X13240Y7125D01*
X13240Y7103D01*
X13178Y7165D01*
X13118Y7190D01*
X13218Y7290D01*
X13286Y7454D01*
X13286Y7632D01*
X13219Y7796D01*
X13093Y7922D01*
X13057Y7937D01*
X13092Y7952D01*
X13218Y8078D01*
X13286Y8242D01*
X13286Y8419D01*
X13219Y8584D01*
X13093Y8710D01*
X13057Y8725D01*
X13092Y8739D01*
X13218Y8865D01*
X13286Y9029D01*
X13286Y9207D01*
X13219Y9371D01*
X13093Y9497D01*
X13057Y9512D01*
X13092Y9527D01*
X13218Y9652D01*
X13286Y9817D01*
X13286Y9994D01*
X13219Y10159D01*
X13093Y10284D01*
X13057Y10299D01*
X13092Y10314D01*
X13218Y10440D01*
X13286Y10604D01*
X13286Y10782D01*
X13219Y10946D01*
X13093Y11072D01*
X13082Y11076D01*
X13103Y11085D01*
X13235Y11216D01*
X13306Y11387D01*
X13306Y11573D01*
X13235Y11745D01*
X13104Y11876D01*
X13082Y11885D01*
X13092Y11889D01*
X13218Y12015D01*
X13286Y12179D01*
X13286Y12356D01*
X13219Y12521D01*
X13093Y12647D01*
X13057Y12662D01*
X13092Y12676D01*
X13218Y12802D01*
X13286Y12966D01*
X13286Y13144D01*
X13219Y13308D01*
X13093Y13434D01*
X13057Y13449D01*
X13092Y13464D01*
X13218Y13589D01*
X13286Y13754D01*
X13286Y13931D01*
X13219Y14096D01*
X13093Y14221D01*
X13000Y14260D01*
X13000Y14950D01*
X13000Y15049D01*
X13000Y15287D01*
X13000Y15512D01*
X13000Y15750D01*
X13000Y15849D01*
X12961Y15941D01*
X12953Y15950D01*
X12961Y15958D01*
X13000Y16050D01*
X13000Y16149D01*
X13000Y16387D01*
X13000Y16612D01*
X13000Y16850D01*
X13000Y16949D01*
X12961Y17041D01*
X12953Y17050D01*
X12961Y17058D01*
X13000Y17150D01*
X13000Y17249D01*
X13000Y17487D01*
X13000Y17712D01*
X13000Y17950D01*
X13000Y18049D01*
X12961Y18141D01*
X12891Y18211D01*
X12799Y18250D01*
X12562Y18250D01*
X12500Y18187D01*
X12500Y17650D01*
X12937Y17650D01*
X13000Y17712D01*
X13000Y17487D01*
X12937Y17550D01*
X12500Y17550D01*
X12500Y17087D01*
X12500Y17012D01*
X12500Y16550D01*
X12937Y16550D01*
X13000Y16612D01*
X13000Y16387D01*
X12937Y16450D01*
X12500Y16450D01*
X12500Y15987D01*
X12500Y15912D01*
X12500Y15450D01*
X12937Y15450D01*
X13000Y15512D01*
X13000Y15287D01*
X12937Y15350D01*
X12500Y15350D01*
X12500Y14812D01*
X12562Y14750D01*
X12799Y14750D01*
X12891Y14788D01*
X12961Y14858D01*
X13000Y14950D01*
X13000Y14260D01*
X12929Y14290D01*
X12751Y14290D01*
X12587Y14222D01*
X12461Y14096D01*
X12400Y13948D01*
X12400Y14812D01*
X12400Y15350D01*
X12400Y15450D01*
X12400Y15912D01*
X12400Y15987D01*
X12400Y16450D01*
X12400Y16550D01*
X12400Y17012D01*
X12400Y17087D01*
X12400Y17550D01*
X12400Y17650D01*
X12400Y18187D01*
X12337Y18250D01*
X12100Y18250D01*
X12008Y18211D01*
X11938Y18141D01*
X11900Y18049D01*
X11900Y17950D01*
X11900Y17712D01*
X11962Y17650D01*
X12400Y17650D01*
X12400Y17550D01*
X11962Y17550D01*
X11900Y17487D01*
X11900Y17249D01*
X11900Y17150D01*
X11938Y17058D01*
X11946Y17050D01*
X11938Y17041D01*
X11900Y16949D01*
X11900Y16850D01*
X11900Y16612D01*
X11962Y16550D01*
X12400Y16550D01*
X12400Y16450D01*
X11962Y16450D01*
X11900Y16387D01*
X11900Y16149D01*
X11900Y16050D01*
X11938Y15958D01*
X11946Y15950D01*
X11938Y15941D01*
X11900Y15849D01*
X11900Y15750D01*
X11900Y15512D01*
X11962Y15450D01*
X12400Y15450D01*
X12400Y15350D01*
X11962Y15350D01*
X11900Y15287D01*
X11900Y15049D01*
X11900Y14950D01*
X11938Y14858D01*
X12008Y14788D01*
X12100Y14750D01*
X12337Y14750D01*
X12400Y14812D01*
X12400Y13948D01*
X12393Y13932D01*
X12393Y13754D01*
X12460Y13590D01*
X12586Y13464D01*
X12622Y13449D01*
X12587Y13434D01*
X12461Y13309D01*
X12393Y13145D01*
X12393Y12967D01*
X12460Y12803D01*
X12586Y12677D01*
X12622Y12662D01*
X12587Y12647D01*
X12461Y12521D01*
X12393Y12357D01*
X12393Y12180D01*
X12460Y12015D01*
X12586Y11889D01*
X12597Y11885D01*
X12576Y11876D01*
X12444Y11745D01*
X12373Y11574D01*
X12373Y11388D01*
X12444Y11217D01*
X12575Y11085D01*
X12597Y11076D01*
X12587Y11072D01*
X12461Y10947D01*
X12393Y10782D01*
X12393Y10605D01*
X12460Y10440D01*
X12586Y10315D01*
X12622Y10300D01*
X12587Y10285D01*
X12461Y10159D01*
X12393Y9995D01*
X12393Y9817D01*
X12460Y9653D01*
X12586Y9527D01*
X12622Y9512D01*
X12587Y9497D01*
X12461Y9372D01*
X12393Y9208D01*
X12393Y9030D01*
X12460Y8866D01*
X12586Y8740D01*
X12622Y8725D01*
X12587Y8710D01*
X12461Y8584D01*
X12393Y8420D01*
X12393Y8243D01*
X12460Y8078D01*
X12586Y7952D01*
X12622Y7937D01*
X12587Y7923D01*
X12461Y7797D01*
X12393Y7633D01*
X12393Y7455D01*
X12460Y7291D01*
X12561Y7190D01*
X12501Y7165D01*
X12431Y7095D01*
X12393Y7003D01*
X12393Y6903D01*
X12393Y6510D01*
X12431Y6418D01*
X12501Y6347D01*
X12593Y6309D01*
X12692Y6309D01*
X13050Y6309D01*
X12508Y5767D01*
X12430Y5650D01*
X12403Y5513D01*
X12403Y5505D01*
X12385Y5497D01*
X12349Y5462D01*
X12314Y5497D01*
X12297Y5505D01*
X12297Y5588D01*
X12269Y5725D01*
X12250Y5755D01*
X12250Y5755D01*
X12250Y5784D01*
X12185Y5940D01*
X12066Y6060D01*
X11950Y6108D01*
X11950Y12500D01*
X11950Y12599D01*
X11950Y13199D01*
X11950Y13800D01*
X11950Y14037D01*
X11950Y14262D01*
X11950Y14499D01*
X11911Y14591D01*
X11841Y14661D01*
X11749Y14700D01*
X11650Y14700D01*
X11412Y14700D01*
X11350Y14637D01*
X11350Y14200D01*
X11887Y14200D01*
X11950Y14262D01*
X11950Y14037D01*
X11887Y14100D01*
X11350Y14100D01*
X11350Y13662D01*
X11412Y13600D01*
X11650Y13600D01*
X11749Y13600D01*
X11841Y13638D01*
X11911Y13708D01*
X11950Y13800D01*
X11950Y13199D01*
X11911Y13291D01*
X11841Y13361D01*
X11749Y13400D01*
X11650Y13400D01*
X11250Y13400D01*
X11250Y13662D01*
X11250Y14100D01*
X10712Y14100D01*
X10650Y14037D01*
X10650Y13800D01*
X10688Y13708D01*
X10758Y13638D01*
X10850Y13600D01*
X10949Y13600D01*
X11187Y13600D01*
X11250Y13662D01*
X11250Y13400D01*
X10850Y13400D01*
X10758Y13361D01*
X10688Y13291D01*
X10650Y13199D01*
X10650Y13100D01*
X10650Y12709D01*
X9015Y11074D01*
X9033Y11125D01*
X9023Y11363D01*
X8951Y11536D01*
X8851Y11570D01*
X8780Y11499D01*
X8780Y11641D01*
X8747Y11741D01*
X8522Y11823D01*
X8284Y11813D01*
X8111Y11741D01*
X8077Y11641D01*
X8429Y11289D01*
X8780Y11641D01*
X8780Y11499D01*
X8499Y11218D01*
X8505Y11213D01*
X8434Y11142D01*
X8429Y11148D01*
X8358Y11077D01*
X8358Y11218D01*
X8007Y11570D01*
X7906Y11536D01*
X7824Y11312D01*
X7834Y11074D01*
X7906Y10900D01*
X8007Y10867D01*
X8358Y11218D01*
X8358Y11077D01*
X8077Y10796D01*
X8099Y10731D01*
X8089Y10727D01*
X7920Y10559D01*
X7829Y10338D01*
X7829Y10100D01*
X7920Y9879D01*
X8088Y9710D01*
X8227Y9653D01*
X8227Y9205D01*
X8209Y9197D01*
X8139Y9127D01*
X8101Y9035D01*
X8101Y8936D01*
X8101Y8773D01*
X7795Y8467D01*
X7717Y8350D01*
X7690Y8213D01*
X7690Y7500D01*
X7717Y7362D01*
X7795Y7245D01*
X8245Y6795D01*
X8245Y6795D01*
X8303Y6756D01*
X8337Y6733D01*
X8337Y6733D01*
X8383Y6688D01*
X8475Y6650D01*
X8574Y6650D01*
X8774Y6650D01*
X8866Y6688D01*
X8936Y6758D01*
X8975Y6850D01*
X8975Y6949D01*
X8975Y6999D01*
X8985Y7050D01*
X8975Y7100D01*
X8975Y7249D01*
X8936Y7341D01*
X8923Y7355D01*
X8941Y7363D01*
X9000Y7421D01*
X9058Y7363D01*
X9076Y7355D01*
X9063Y7341D01*
X9025Y7249D01*
X9025Y7150D01*
X9025Y6850D01*
X9063Y6758D01*
X9133Y6688D01*
X9225Y6650D01*
X9324Y6650D01*
X9524Y6650D01*
X9616Y6688D01*
X9686Y6758D01*
X9725Y6850D01*
X9725Y6949D01*
X9725Y7249D01*
X9686Y7341D01*
X9673Y7355D01*
X9691Y7363D01*
X9761Y7433D01*
X9800Y7525D01*
X9800Y7624D01*
X9800Y8174D01*
X9761Y8266D01*
X9745Y8283D01*
X9790Y8302D01*
X9860Y8372D01*
X9899Y8464D01*
X9899Y8563D01*
X9899Y9035D01*
X9860Y9127D01*
X9790Y9197D01*
X9698Y9236D01*
X9599Y9236D01*
X9127Y9236D01*
X9035Y9197D01*
X8999Y9162D01*
X8964Y9197D01*
X8947Y9205D01*
X8947Y9901D01*
X9008Y10049D01*
X11259Y12300D01*
X11749Y12300D01*
X11841Y12338D01*
X11911Y12408D01*
X11950Y12500D01*
X11950Y6108D01*
X11909Y6124D01*
X11740Y6125D01*
X11584Y6060D01*
X11464Y5941D01*
X11400Y5784D01*
X11399Y5615D01*
X11464Y5459D01*
X11492Y5431D01*
X11489Y5427D01*
X11451Y5335D01*
X11451Y5236D01*
X11451Y4764D01*
X11489Y4672D01*
X11559Y4602D01*
X11627Y4574D01*
X11627Y4405D01*
X11609Y4397D01*
X11539Y4327D01*
X11523Y4290D01*
X11075Y4290D01*
X10944Y4264D01*
X10834Y4190D01*
X9800Y3155D01*
X9800Y3609D01*
X9735Y3765D01*
X9715Y3785D01*
X9715Y4636D01*
X9761Y4683D01*
X9800Y4775D01*
X9800Y4874D01*
X9800Y5424D01*
X9761Y5516D01*
X9735Y5543D01*
X9735Y5900D01*
X9725Y5950D01*
X9725Y6249D01*
X9686Y6341D01*
X9616Y6411D01*
X9524Y6450D01*
X9425Y6450D01*
X9225Y6450D01*
X9187Y6434D01*
X9149Y6450D01*
X9112Y6450D01*
X9050Y6387D01*
X9050Y6310D01*
X9025Y6249D01*
X9025Y6150D01*
X9025Y5950D01*
X9015Y5900D01*
X9015Y5543D01*
X9000Y5528D01*
X8985Y5543D01*
X8985Y6050D01*
X8975Y6100D01*
X8975Y6249D01*
X8950Y6310D01*
X8950Y6387D01*
X8887Y6450D01*
X8850Y6450D01*
X8812Y6434D01*
X8774Y6450D01*
X8675Y6450D01*
X8475Y6450D01*
X8383Y6411D01*
X8381Y6410D01*
X8275Y6410D01*
X8137Y6382D01*
X8090Y6351D01*
X8088Y6350D01*
X8065Y6350D01*
X7909Y6285D01*
X7789Y6166D01*
X7725Y6009D01*
X7724Y5840D01*
X7789Y5684D01*
X7908Y5564D01*
X8065Y5500D01*
X8231Y5499D01*
X8200Y5424D01*
X8200Y5325D01*
X8200Y5212D01*
X8262Y5150D01*
X8575Y5150D01*
X8575Y5562D01*
X8512Y5625D01*
X8451Y5625D01*
X8476Y5650D01*
X8574Y5650D01*
X8774Y5650D01*
X8812Y5665D01*
X8850Y5650D01*
X8887Y5650D01*
X8950Y5712D01*
X8950Y5789D01*
X8975Y5850D01*
X8975Y5949D01*
X8975Y5999D01*
X8985Y6050D01*
X8985Y5543D01*
X8941Y5586D01*
X8849Y5625D01*
X8737Y5625D01*
X8675Y5562D01*
X8675Y5150D01*
X8682Y5150D01*
X8682Y5050D01*
X8675Y5050D01*
X8675Y4637D01*
X8737Y4575D01*
X8849Y4575D01*
X8941Y4613D01*
X9000Y4671D01*
X9035Y4636D01*
X9035Y3786D01*
X9014Y3766D01*
X8950Y3609D01*
X8949Y3440D01*
X9014Y3284D01*
X9133Y3164D01*
X9290Y3100D01*
X9459Y3099D01*
X9615Y3164D01*
X9735Y3283D01*
X9799Y3440D01*
X9800Y3609D01*
X9800Y3155D01*
X9069Y2425D01*
X9040Y2425D01*
X8884Y2360D01*
X8764Y2241D01*
X8700Y2084D01*
X8699Y1915D01*
X8764Y1759D01*
X8883Y1639D01*
X9040Y1575D01*
X9209Y1574D01*
X9365Y1639D01*
X9485Y1758D01*
X9549Y1915D01*
X9549Y1944D01*
X11215Y3610D01*
X11523Y3610D01*
X11539Y3572D01*
X11609Y3502D01*
X11701Y3464D01*
X11800Y3464D01*
X12272Y3464D01*
X12364Y3502D01*
X12400Y3537D01*
X12435Y3502D01*
X12527Y3464D01*
X12626Y3464D01*
X13098Y3464D01*
X13190Y3502D01*
X13260Y3572D01*
X13299Y3664D01*
X13299Y3691D01*
X13304Y3695D01*
X13654Y4045D01*
X13654Y4045D01*
X13701Y4115D01*
X13732Y4162D01*
X13732Y4162D01*
X13759Y4300D01*
X13760Y4300D01*
X13760Y5450D01*
X14779Y6470D01*
X14779Y6470D01*
X14818Y6528D01*
X14857Y6587D01*
X14857Y6587D01*
X14867Y6639D01*
X14867Y6639D01*
X14900Y6671D01*
X14958Y6613D01*
X15050Y6575D01*
X15149Y6575D01*
X15269Y6575D01*
X14894Y6200D01*
X14890Y6200D01*
X14734Y6135D01*
X14614Y6016D01*
X14550Y5859D01*
X14549Y5690D01*
X14614Y5534D01*
X14733Y5414D01*
X14890Y5350D01*
X15059Y5349D01*
X15215Y5414D01*
X15335Y5533D01*
X15399Y5690D01*
X15399Y5744D01*
X15955Y6299D01*
X15984Y6299D01*
X16010Y6310D01*
X16010Y6097D01*
X15859Y6035D01*
X15739Y5916D01*
X15675Y5759D01*
X15674Y5590D01*
X15739Y5434D01*
X15858Y5314D01*
X15876Y5307D01*
X14359Y3790D01*
X14285Y3680D01*
X14260Y3550D01*
X14260Y2429D01*
X14209Y2449D01*
X13991Y2450D01*
X13788Y2366D01*
X13634Y2211D01*
X13600Y2130D01*
X13566Y2211D01*
X13411Y2365D01*
X13209Y2449D01*
X12991Y2450D01*
X12788Y2366D01*
X12634Y2211D01*
X12602Y2136D01*
X12581Y2187D01*
X12485Y2215D01*
X12415Y2144D01*
X12415Y2285D01*
X12387Y2381D01*
X12181Y2454D01*
X11963Y2443D01*
X11812Y2381D01*
X11784Y2285D01*
X12100Y1970D01*
X12415Y2285D01*
X12415Y2144D01*
X12170Y1900D01*
X12485Y1584D01*
X12581Y1612D01*
X12600Y1667D01*
X12633Y1588D01*
X12788Y1434D01*
X12869Y1400D01*
X12788Y1366D01*
X12634Y1211D01*
X12600Y1130D01*
X12566Y1211D01*
X12411Y1365D01*
X12336Y1397D01*
X12387Y1418D01*
X12415Y1514D01*
X12100Y1829D01*
X12029Y1758D01*
X12029Y1900D01*
X11714Y2215D01*
X11618Y2187D01*
X11545Y1981D01*
X11556Y1763D01*
X11618Y1612D01*
X11714Y1584D01*
X12029Y1900D01*
X12029Y1758D01*
X11784Y1514D01*
X11812Y1418D01*
X11867Y1399D01*
X11788Y1366D01*
X11634Y1211D01*
X11550Y1009D01*
X11550Y909D01*
X11225Y585D01*
X10322Y585D01*
X10341Y632D01*
X10342Y850D01*
X10258Y1053D01*
X10103Y1207D01*
X9901Y1291D01*
X9683Y1292D01*
X9480Y1208D01*
X9326Y1053D01*
X9292Y972D01*
X9258Y1053D01*
X9103Y1207D01*
X8901Y1291D01*
X8683Y1292D01*
X8575Y1247D01*
X8575Y4637D01*
X8575Y5050D01*
X8262Y5050D01*
X8200Y4987D01*
X8200Y4874D01*
X8200Y4775D01*
X8238Y4683D01*
X8308Y4613D01*
X8400Y4575D01*
X8512Y4575D01*
X8575Y4637D01*
X8575Y1247D01*
X8480Y1208D01*
X8326Y1053D01*
X8292Y972D01*
X8258Y1053D01*
X8132Y1179D01*
X8132Y2805D01*
X8160Y2833D01*
X8224Y2990D01*
X8225Y3159D01*
X8160Y3315D01*
X8041Y3435D01*
X7884Y3499D01*
X7715Y3500D01*
X7559Y3435D01*
X7439Y3316D01*
X7375Y3159D01*
X7374Y2990D01*
X7439Y2834D01*
X7452Y2822D01*
X7452Y1179D01*
X7326Y1053D01*
X7292Y972D01*
X7258Y1053D01*
X7132Y1179D01*
X7132Y2280D01*
X7160Y2308D01*
X7224Y2465D01*
X7225Y2634D01*
X7160Y2790D01*
X7100Y2850D01*
X7100Y4009D01*
X7035Y4165D01*
X7015Y4185D01*
X7015Y4686D01*
X7061Y4733D01*
X7100Y4825D01*
X7100Y4924D01*
X7100Y5474D01*
X7061Y5566D01*
X7035Y5593D01*
X7035Y6050D01*
X7025Y6100D01*
X7025Y6249D01*
X6986Y6341D01*
X6916Y6411D01*
X6824Y6450D01*
X6725Y6450D01*
X6525Y6450D01*
X6487Y6434D01*
X6449Y6450D01*
X6412Y6450D01*
X6350Y6387D01*
X6350Y6310D01*
X6325Y6249D01*
X6325Y6150D01*
X6325Y6100D01*
X6315Y6050D01*
X6315Y5593D01*
X6300Y5578D01*
X6241Y5636D01*
X6194Y5656D01*
X6250Y5712D01*
X6250Y5789D01*
X6275Y5850D01*
X6275Y5949D01*
X6275Y5999D01*
X6285Y6050D01*
X6275Y6100D01*
X6275Y6249D01*
X6250Y6310D01*
X6250Y6387D01*
X6187Y6450D01*
X6150Y6450D01*
X6112Y6434D01*
X6074Y6450D01*
X5975Y6450D01*
X5775Y6450D01*
X5683Y6411D01*
X5681Y6410D01*
X5625Y6410D01*
X5487Y6382D01*
X5440Y6351D01*
X5438Y6350D01*
X5415Y6350D01*
X5259Y6285D01*
X5139Y6166D01*
X5075Y6009D01*
X5074Y5840D01*
X5139Y5684D01*
X5258Y5564D01*
X5415Y5500D01*
X5510Y5499D01*
X5500Y5474D01*
X5500Y5375D01*
X5500Y5262D01*
X5562Y5200D01*
X5875Y5200D01*
X5875Y5207D01*
X5975Y5207D01*
X5975Y5200D01*
X5982Y5200D01*
X5982Y5100D01*
X5975Y5100D01*
X5975Y4687D01*
X6037Y4625D01*
X6149Y4625D01*
X6241Y4663D01*
X6300Y4721D01*
X6335Y4686D01*
X6335Y4186D01*
X6314Y4166D01*
X6250Y4009D01*
X6249Y3840D01*
X6314Y3684D01*
X6433Y3564D01*
X6590Y3500D01*
X6759Y3499D01*
X6915Y3564D01*
X7035Y3683D01*
X7099Y3840D01*
X7100Y4009D01*
X7100Y2850D01*
X7041Y2910D01*
X6884Y2974D01*
X6715Y2975D01*
X6559Y2910D01*
X6439Y2791D01*
X6375Y2634D01*
X6374Y2465D01*
X6439Y2309D01*
X6452Y2297D01*
X6452Y1179D01*
X6326Y1053D01*
X6292Y972D01*
X6258Y1053D01*
X6132Y1179D01*
X6132Y1805D01*
X6160Y1833D01*
X6224Y1990D01*
X6225Y2159D01*
X6160Y2315D01*
X6041Y2435D01*
X5884Y2499D01*
X5875Y2499D01*
X5875Y4687D01*
X5875Y5100D01*
X5562Y5100D01*
X5500Y5037D01*
X5500Y4924D01*
X5500Y4825D01*
X5538Y4733D01*
X5608Y4663D01*
X5700Y4625D01*
X5812Y4625D01*
X5875Y4687D01*
X5875Y2499D01*
X5715Y2500D01*
X5559Y2435D01*
X5439Y2316D01*
X5375Y2159D01*
X5374Y1990D01*
X5439Y1834D01*
X5452Y1822D01*
X5452Y1179D01*
X5326Y1053D01*
X5292Y972D01*
X5258Y1053D01*
X5103Y1207D01*
X4901Y1291D01*
X4683Y1292D01*
X4500Y1216D01*
X4500Y4434D01*
X4435Y4590D01*
X4365Y4661D01*
X4365Y4686D01*
X4411Y4733D01*
X4450Y4825D01*
X4450Y4924D01*
X4450Y5474D01*
X4411Y5566D01*
X4385Y5593D01*
X4385Y6000D01*
X4375Y6050D01*
X4375Y6199D01*
X4336Y6291D01*
X4266Y6361D01*
X4174Y6400D01*
X4075Y6400D01*
X3875Y6400D01*
X3837Y6384D01*
X3799Y6400D01*
X3762Y6400D01*
X3700Y6337D01*
X3700Y6260D01*
X3675Y6199D01*
X3675Y6100D01*
X3675Y6050D01*
X3665Y6000D01*
X3665Y5593D01*
X3650Y5578D01*
X3591Y5636D01*
X3579Y5641D01*
X3600Y5662D01*
X3600Y5739D01*
X3625Y5800D01*
X3625Y5899D01*
X3625Y5949D01*
X3635Y6000D01*
X3625Y6050D01*
X3625Y6199D01*
X3600Y6260D01*
X3600Y6337D01*
X3537Y6400D01*
X3500Y6400D01*
X3462Y6384D01*
X3424Y6400D01*
X3325Y6400D01*
X3125Y6400D01*
X3033Y6361D01*
X3031Y6360D01*
X2875Y6360D01*
X2824Y6349D01*
X2824Y6349D01*
X2715Y6350D01*
X2559Y6285D01*
X2439Y6166D01*
X2375Y6009D01*
X2374Y5840D01*
X2439Y5684D01*
X2558Y5564D01*
X2715Y5500D01*
X2860Y5499D01*
X2850Y5474D01*
X2850Y5375D01*
X2850Y5262D01*
X2912Y5200D01*
X3225Y5200D01*
X3225Y5207D01*
X3325Y5207D01*
X3325Y5200D01*
X3332Y5200D01*
X3332Y5100D01*
X3325Y5100D01*
X3325Y4687D01*
X3387Y4625D01*
X3499Y4625D01*
X3591Y4663D01*
X3650Y4721D01*
X3685Y4686D01*
X3685Y4519D01*
X3650Y4434D01*
X3649Y4265D01*
X3714Y4109D01*
X3833Y3989D01*
X3990Y3925D01*
X4159Y3924D01*
X4315Y3989D01*
X4435Y4108D01*
X4499Y4265D01*
X4500Y4434D01*
X4500Y1216D01*
X4480Y1208D01*
X4326Y1053D01*
X4294Y977D01*
X4272Y1030D01*
X4176Y1058D01*
X4106Y987D01*
X4106Y1128D01*
X4078Y1224D01*
X3872Y1297D01*
X3654Y1286D01*
X3503Y1224D01*
X3475Y1128D01*
X3791Y813D01*
X4106Y1128D01*
X4106Y987D01*
X3861Y743D01*
X4176Y427D01*
X4272Y455D01*
X4292Y511D01*
X4325Y430D01*
X4476Y279D01*
X4083Y279D01*
X4106Y357D01*
X3791Y672D01*
X3720Y601D01*
X3720Y743D01*
X3405Y1058D01*
X3309Y1030D01*
X3236Y824D01*
X3247Y606D01*
X3309Y455D01*
X3405Y427D01*
X3720Y743D01*
X3720Y601D01*
X3475Y357D01*
X3498Y279D01*
X3225Y279D01*
X3225Y4687D01*
X3225Y5100D01*
X2912Y5100D01*
X2850Y5037D01*
X2850Y4924D01*
X2850Y4825D01*
X2888Y4733D01*
X2958Y4663D01*
X3050Y4625D01*
X3162Y4625D01*
X3225Y4687D01*
X3225Y279D01*
X775Y279D01*
X775Y4687D01*
X775Y5100D01*
X462Y5100D01*
X400Y5037D01*
X400Y4924D01*
X400Y4825D01*
X438Y4733D01*
X508Y4663D01*
X600Y4625D01*
X712Y4625D01*
X775Y4687D01*
X775Y279D01*
X279Y279D01*
X279Y5379D01*
X290Y5375D01*
X400Y5374D01*
X400Y5262D01*
X462Y5200D01*
X775Y5200D01*
X775Y5207D01*
X875Y5207D01*
X875Y5200D01*
X882Y5200D01*
X882Y5100D01*
X875Y5100D01*
X875Y4687D01*
X937Y4625D01*
X1049Y4625D01*
X1141Y4663D01*
X1200Y4721D01*
X1258Y4663D01*
X1350Y4625D01*
X1449Y4625D01*
X1691Y4625D01*
X1739Y4509D01*
X1858Y4389D01*
X2015Y4325D01*
X2184Y4324D01*
X2340Y4389D01*
X2460Y4508D01*
X2524Y4665D01*
X2525Y4834D01*
X2460Y4990D01*
X2341Y5110D01*
X2184Y5174D01*
X2155Y5174D01*
X2000Y5330D01*
X2000Y5474D01*
X1961Y5566D01*
X1891Y5636D01*
X1885Y5639D01*
X1885Y6000D01*
X1875Y6050D01*
X1875Y6199D01*
X1836Y6291D01*
X1766Y6361D01*
X1674Y6400D01*
X1575Y6400D01*
X1375Y6400D01*
X1337Y6384D01*
X1299Y6400D01*
X1262Y6400D01*
X1200Y6337D01*
X1200Y6260D01*
X1175Y6199D01*
X1175Y6100D01*
X1175Y6050D01*
X1165Y6000D01*
X1165Y5942D01*
X1125Y5942D01*
X1125Y5949D01*
X1135Y6000D01*
X1125Y6050D01*
X1125Y6199D01*
X1100Y6260D01*
X1100Y6337D01*
X1037Y6400D01*
X1000Y6400D01*
X962Y6384D01*
X924Y6400D01*
X825Y6400D01*
X625Y6400D01*
X533Y6361D01*
X520Y6349D01*
X437Y6332D01*
X320Y6254D01*
X290Y6225D01*
X290Y6225D01*
X279Y6220D01*
X279Y6761D01*
X295Y6745D01*
X295Y6745D01*
X412Y6667D01*
X526Y6644D01*
X533Y6638D01*
X625Y6600D01*
X724Y6600D01*
X924Y6600D01*
X1016Y6638D01*
X1086Y6708D01*
X1125Y6800D01*
X1125Y6899D01*
X1125Y6949D01*
X1135Y7000D01*
X1125Y7050D01*
X1125Y7199D01*
X1086Y7291D01*
X1052Y7326D01*
X1141Y7363D01*
X1200Y7421D01*
X1258Y7363D01*
X1276Y7355D01*
X1213Y7291D01*
X1175Y7199D01*
X1175Y7100D01*
X1175Y6800D01*
X1213Y6708D01*
X1283Y6638D01*
X1375Y6600D01*
X1474Y6600D01*
X1674Y6600D01*
X1766Y6638D01*
X1836Y6708D01*
X1875Y6800D01*
X1875Y6899D01*
X1875Y7199D01*
X1836Y7291D01*
X1802Y7326D01*
X1891Y7363D01*
X1961Y7433D01*
X2000Y7525D01*
X2000Y7624D01*
X2000Y8174D01*
X1961Y8266D01*
X1945Y8283D01*
X1990Y8302D01*
X2060Y8372D01*
X2099Y8464D01*
X2099Y8563D01*
X2099Y9035D01*
X2060Y9127D01*
X1990Y9197D01*
X1898Y9236D01*
X1799Y9236D01*
X1327Y9236D01*
X1235Y9197D01*
X1199Y9162D01*
X1164Y9197D01*
X1147Y9205D01*
X1147Y9788D01*
X1237Y9878D01*
X1329Y10099D01*
X1329Y10169D01*
X2768Y11609D01*
X2807Y11570D01*
X2706Y11536D01*
X2624Y11312D01*
X2634Y11074D01*
X2706Y10900D01*
X2807Y10867D01*
X3158Y11218D01*
X3152Y11224D01*
X3223Y11295D01*
X3229Y11289D01*
X3580Y11641D01*
X3547Y11741D01*
X3322Y11823D01*
X3084Y11813D01*
X2911Y11741D01*
X2877Y11641D01*
X2838Y11679D01*
X4904Y13745D01*
X4982Y13862D01*
X4982Y13862D01*
X5009Y14000D01*
X5010Y14000D01*
X5010Y14450D01*
X7504Y16945D01*
X7504Y16945D01*
X7543Y17003D01*
X7582Y17062D01*
X7582Y17062D01*
X7609Y17200D01*
X7610Y17200D01*
X7610Y17750D01*
X7699Y17840D01*
X8118Y17840D01*
X8033Y17804D01*
X7836Y17608D01*
X7729Y17350D01*
X7729Y17072D01*
X7835Y16815D01*
X8032Y16617D01*
X8289Y16511D01*
X8302Y16511D01*
X7095Y15304D01*
X7017Y15187D01*
X6990Y15050D01*
X6990Y14099D01*
X6529Y13638D01*
X6529Y14349D01*
X6422Y14607D01*
X6226Y14804D01*
X5968Y14910D01*
X5690Y14911D01*
X5433Y14804D01*
X5236Y14608D01*
X5129Y14350D01*
X5129Y14072D01*
X5235Y13815D01*
X5432Y13617D01*
X5689Y13511D01*
X5967Y13510D01*
X6225Y13617D01*
X6422Y13813D01*
X6529Y14071D01*
X6529Y14349D01*
X6529Y13638D01*
X3833Y10942D01*
X3833Y11125D01*
X3823Y11363D01*
X3751Y11536D01*
X3651Y11570D01*
X3580Y11499D01*
X3299Y11218D01*
X3651Y10867D01*
X3751Y10900D01*
X3833Y11125D01*
X3833Y10942D01*
X3593Y10702D01*
X3569Y10727D01*
X3558Y10731D01*
X3580Y10796D01*
X3229Y11148D01*
X3158Y11077D01*
X2877Y10796D01*
X2899Y10731D01*
X2889Y10727D01*
X2720Y10559D01*
X2629Y10338D01*
X2629Y10100D01*
X2720Y9879D01*
X2877Y9722D01*
X2877Y9205D01*
X2859Y9197D01*
X2789Y9127D01*
X2751Y9035D01*
X2751Y8936D01*
X2751Y8773D01*
X2395Y8417D01*
X2317Y8300D01*
X2290Y8163D01*
X2290Y7400D01*
X2317Y7262D01*
X2395Y7145D01*
X2795Y6745D01*
X2912Y6667D01*
X2912Y6667D01*
X3026Y6644D01*
X3033Y6638D01*
X3125Y6600D01*
X3224Y6600D01*
X3424Y6600D01*
X3516Y6638D01*
X3586Y6708D01*
X3625Y6800D01*
X3625Y6899D01*
X3625Y6949D01*
X3635Y7000D01*
X3625Y7050D01*
X3625Y7199D01*
X3586Y7291D01*
X3537Y7340D01*
X3591Y7363D01*
X3650Y7421D01*
X3708Y7363D01*
X3762Y7340D01*
X3713Y7291D01*
X3675Y7199D01*
X3675Y7100D01*
X3675Y6800D01*
X3713Y6708D01*
X3783Y6638D01*
X3875Y6600D01*
X3974Y6600D01*
X4174Y6600D01*
X4266Y6638D01*
X4336Y6708D01*
X4375Y6800D01*
X4375Y6899D01*
X4375Y7199D01*
X4336Y7291D01*
X4287Y7340D01*
X4341Y7363D01*
X4411Y7433D01*
X4450Y7525D01*
X4450Y7624D01*
X4450Y8174D01*
X4411Y8266D01*
X4395Y8283D01*
X4440Y8302D01*
X4510Y8372D01*
X4549Y8464D01*
X4549Y8563D01*
X4549Y9035D01*
X4510Y9127D01*
X4440Y9197D01*
X4348Y9236D01*
X4249Y9236D01*
X3777Y9236D01*
X3685Y9197D01*
X3649Y9162D01*
X3614Y9197D01*
X3597Y9205D01*
X3597Y9738D01*
X3737Y9878D01*
X3739Y9882D01*
X3756Y9886D01*
X3756Y9886D01*
X3873Y9964D01*
X5226Y11317D01*
X5224Y11312D01*
X5234Y11074D01*
X5306Y10900D01*
X5407Y10867D01*
X5758Y11218D01*
X5752Y11224D01*
X5823Y11295D01*
X5829Y11289D01*
X6180Y11641D01*
X6147Y11741D01*
X5922Y11823D01*
X5724Y11814D01*
X7604Y13695D01*
X7682Y13812D01*
X7682Y13812D01*
X7709Y13950D01*
X7710Y13950D01*
X7710Y14900D01*
X8949Y16140D01*
X10600Y16140D01*
X10600Y16050D01*
X10638Y15958D01*
X10646Y15950D01*
X10638Y15941D01*
X10600Y15849D01*
X10600Y15750D01*
X10600Y15359D01*
X9129Y13888D01*
X9129Y14349D01*
X9022Y14607D01*
X8826Y14804D01*
X8568Y14910D01*
X8290Y14911D01*
X8033Y14804D01*
X7836Y14608D01*
X7729Y14350D01*
X7729Y14072D01*
X7835Y13815D01*
X8032Y13617D01*
X8289Y13511D01*
X8567Y13510D01*
X8825Y13617D01*
X9022Y13813D01*
X9129Y14071D01*
X9129Y14349D01*
X9129Y13888D01*
X6430Y11190D01*
X6423Y11363D01*
X6351Y11536D01*
X6251Y11570D01*
X5899Y11218D01*
X5905Y11213D01*
X5834Y11142D01*
X5829Y11148D01*
X5477Y10796D01*
X5499Y10731D01*
X5489Y10727D01*
X5320Y10559D01*
X5229Y10338D01*
X5229Y10100D01*
X5320Y9879D01*
X5488Y9710D01*
X5527Y9694D01*
X5527Y9205D01*
X5509Y9197D01*
X5439Y9127D01*
X5401Y9035D01*
X5401Y8936D01*
X5401Y8773D01*
X5045Y8417D01*
X4967Y8300D01*
X4940Y8163D01*
X4940Y7450D01*
X4967Y7312D01*
X5045Y7195D01*
X5445Y6795D01*
X5562Y6717D01*
X5562Y6717D01*
X5676Y6694D01*
X5683Y6688D01*
X5775Y6650D01*
X5874Y6650D01*
X6074Y6650D01*
X6166Y6688D01*
X6236Y6758D01*
X6275Y6850D01*
X6275Y6949D01*
X6275Y6999D01*
X6285Y7050D01*
X6275Y7100D01*
X6275Y7249D01*
X6236Y7341D01*
X6223Y7355D01*
X6241Y7363D01*
X6300Y7421D01*
X6358Y7363D01*
X6376Y7355D01*
X6363Y7341D01*
X6325Y7249D01*
X6325Y7150D01*
X6325Y6850D01*
X6363Y6758D01*
X6433Y6688D01*
X6525Y6650D01*
X6624Y6650D01*
X6824Y6650D01*
X6916Y6688D01*
X6986Y6758D01*
X7025Y6850D01*
X7025Y6949D01*
X7025Y7249D01*
X6986Y7341D01*
X6973Y7355D01*
X6991Y7363D01*
X7061Y7433D01*
X7100Y7525D01*
X7100Y7624D01*
X7100Y8174D01*
X7061Y8266D01*
X7045Y8283D01*
X7090Y8302D01*
X7160Y8372D01*
X7199Y8464D01*
X7199Y8563D01*
X7199Y9035D01*
X7160Y9127D01*
X7090Y9197D01*
X6998Y9236D01*
X6899Y9236D01*
X6427Y9236D01*
X6335Y9197D01*
X6299Y9162D01*
X6264Y9197D01*
X6247Y9205D01*
X6247Y9788D01*
X6337Y9878D01*
X6429Y10099D01*
X6429Y10169D01*
X10650Y14390D01*
X10650Y14262D01*
X10712Y14200D01*
X11250Y14200D01*
X11250Y14637D01*
X11187Y14700D01*
X10959Y14700D01*
X11009Y14750D01*
X11499Y14750D01*
X11591Y14788D01*
X11661Y14858D01*
X11700Y14950D01*
X11700Y15049D01*
X11700Y15849D01*
X11661Y15941D01*
X11653Y15950D01*
X11661Y15958D01*
X11700Y16050D01*
X11700Y16149D01*
X11700Y16949D01*
X11661Y17041D01*
X11653Y17050D01*
X11661Y17058D01*
X11700Y17150D01*
X11700Y17249D01*
X11700Y18049D01*
X11661Y18141D01*
X11591Y18211D01*
X11499Y18250D01*
X11400Y18250D01*
X11009Y18250D01*
X10804Y18454D01*
X10800Y18457D01*
X10800Y20150D01*
X10800Y20249D01*
X10800Y20849D01*
X10761Y20941D01*
X10691Y21011D01*
X10599Y21050D01*
X10500Y21050D01*
X9900Y21050D01*
X9808Y21011D01*
X9738Y20941D01*
X9700Y20849D01*
X9700Y20827D01*
X9561Y20965D01*
X9359Y21049D01*
X9141Y21050D01*
X8938Y20966D01*
X8784Y20811D01*
X8700Y20609D01*
X8699Y20391D01*
X8783Y20188D01*
X8938Y20034D01*
X9140Y19950D01*
X9358Y19949D01*
X9561Y20033D01*
X9700Y20172D01*
X9700Y20150D01*
X9738Y20058D01*
X9808Y19988D01*
X9900Y19950D01*
X9999Y19950D01*
X10599Y19950D01*
X10691Y19988D01*
X10761Y20058D01*
X10800Y20150D01*
X10800Y18457D01*
X10687Y18532D01*
X10550Y18560D01*
X8050Y18560D01*
X8050Y20150D01*
X8050Y20249D01*
X8050Y20849D01*
X8011Y20941D01*
X7941Y21011D01*
X7849Y21050D01*
X7750Y21050D01*
X7150Y21050D01*
X7058Y21011D01*
X6988Y20941D01*
X6950Y20849D01*
X6950Y20827D01*
X6811Y20965D01*
X6609Y21049D01*
X6391Y21050D01*
X6188Y20966D01*
X6034Y20811D01*
X5950Y20609D01*
X5949Y20391D01*
X6033Y20188D01*
X6188Y20034D01*
X6390Y19950D01*
X6608Y19949D01*
X6811Y20033D01*
X6950Y20172D01*
X6950Y20150D01*
X6988Y20058D01*
X7058Y19988D01*
X7150Y19950D01*
X7249Y19950D01*
X7849Y19950D01*
X7941Y19988D01*
X8011Y20058D01*
X8050Y20150D01*
X8050Y18560D01*
X7550Y18560D01*
X7412Y18532D01*
X7295Y18454D01*
X6995Y18154D01*
X6917Y18037D01*
X6890Y17900D01*
X6890Y17349D01*
X6470Y16929D01*
X6529Y17071D01*
X6529Y17349D01*
X6422Y17607D01*
X6226Y17804D01*
X5968Y17910D01*
X5690Y17911D01*
X5433Y17804D01*
X5300Y17671D01*
X5300Y20150D01*
X5300Y20249D01*
X5300Y20849D01*
X5261Y20941D01*
X5191Y21011D01*
X5099Y21050D01*
X5000Y21050D01*
X4400Y21050D01*
X4308Y21011D01*
X4238Y20941D01*
X4200Y20849D01*
X4200Y20827D01*
X4061Y20965D01*
X3859Y21049D01*
X3641Y21050D01*
X3438Y20966D01*
X3284Y20811D01*
X3200Y20609D01*
X3199Y20391D01*
X3283Y20188D01*
X3438Y20034D01*
X3640Y19950D01*
X3858Y19949D01*
X4061Y20033D01*
X4200Y20172D01*
X4200Y20150D01*
X4238Y20058D01*
X4308Y19988D01*
X4400Y19950D01*
X4499Y19950D01*
X5099Y19950D01*
X5191Y19988D01*
X5261Y20058D01*
X5300Y20150D01*
X5300Y17671D01*
X5236Y17608D01*
X5129Y17350D01*
X5129Y17072D01*
X5235Y16815D01*
X5432Y16617D01*
X5689Y16511D01*
X5967Y16510D01*
X6110Y16570D01*
X4395Y14854D01*
X4317Y14737D01*
X4290Y14600D01*
X4290Y14149D01*
X3929Y13788D01*
X3929Y14349D01*
X3929Y17349D01*
X3822Y17607D01*
X3626Y17804D01*
X3368Y17910D01*
X3090Y17911D01*
X2833Y17804D01*
X2636Y17608D01*
X2550Y17400D01*
X2550Y20150D01*
X2550Y20249D01*
X2550Y20849D01*
X2511Y20941D01*
X2441Y21011D01*
X2349Y21050D01*
X2250Y21050D01*
X1650Y21050D01*
X1558Y21011D01*
X1488Y20941D01*
X1450Y20849D01*
X1450Y20827D01*
X1311Y20965D01*
X1109Y21049D01*
X891Y21050D01*
X688Y20966D01*
X534Y20811D01*
X450Y20609D01*
X449Y20391D01*
X533Y20188D01*
X688Y20034D01*
X890Y19950D01*
X1108Y19949D01*
X1311Y20033D01*
X1450Y20172D01*
X1450Y20150D01*
X1488Y20058D01*
X1558Y19988D01*
X1650Y19950D01*
X1749Y19950D01*
X2349Y19950D01*
X2441Y19988D01*
X2511Y20058D01*
X2550Y20150D01*
X2550Y17400D01*
X2529Y17350D01*
X2529Y17072D01*
X2635Y16815D01*
X2832Y16617D01*
X3089Y16511D01*
X3367Y16510D01*
X3625Y16617D01*
X3822Y16813D01*
X3929Y17071D01*
X3929Y17349D01*
X3929Y14349D01*
X3822Y14607D01*
X3626Y14804D01*
X3368Y14910D01*
X3090Y14911D01*
X2833Y14804D01*
X2636Y14608D01*
X2529Y14350D01*
X2529Y14072D01*
X2635Y13815D01*
X2832Y13617D01*
X3089Y13511D01*
X3367Y13510D01*
X3625Y13617D01*
X3822Y13813D01*
X3929Y14071D01*
X3929Y14349D01*
X3929Y13788D01*
X1330Y11190D01*
X1323Y11363D01*
X1251Y11536D01*
X1151Y11570D01*
X1080Y11499D01*
X1080Y11641D01*
X1047Y11741D01*
X822Y11823D01*
X584Y11813D01*
X411Y11741D01*
X377Y11641D01*
X729Y11289D01*
X1080Y11641D01*
X1080Y11499D01*
X799Y11218D01*
X805Y11213D01*
X734Y11142D01*
X729Y11148D01*
X377Y10796D01*
X399Y10731D01*
X389Y10727D01*
X279Y10617D01*
X279Y10876D01*
X307Y10867D01*
X658Y11218D01*
X307Y11570D01*
X279Y11561D01*
X279Y13670D01*
X332Y13617D01*
X589Y13511D01*
X867Y13510D01*
X1125Y13617D01*
X1322Y13813D01*
X1429Y14071D01*
X1429Y14349D01*
X1322Y14607D01*
X1126Y14804D01*
X868Y14910D01*
X590Y14911D01*
X333Y14804D01*
X279Y14751D01*
X279Y16670D01*
X332Y16617D01*
X589Y16511D01*
X867Y16510D01*
X1125Y16617D01*
X1322Y16813D01*
X1429Y17071D01*
X1429Y17349D01*
X1322Y17607D01*
X1126Y17804D01*
X868Y17910D01*
X590Y17911D01*
X333Y17804D01*
X279Y17751D01*
X279Y21720D01*
X19378Y21720D01*
X19272Y21639D01*
X19128Y21387D01*
X19109Y21315D01*
X19155Y21200D01*
X20472Y21200D01*
X20472Y21207D01*
X20572Y21207D01*
X20572Y21200D01*
X21888Y21200D01*
X21934Y21315D01*
X21915Y21387D01*
X21771Y21639D01*
X21665Y21720D01*
X24720Y21720D01*
X24720Y17370D01*
X24653Y17370D01*
X24362Y17370D01*
X24300Y17307D01*
X24300Y16914D01*
X24307Y16914D01*
X24307Y16814D01*
X24300Y16814D01*
X24300Y16806D01*
X24200Y16806D01*
X24200Y16814D01*
X24200Y16914D01*
X24200Y17307D01*
X24137Y17370D01*
X23846Y17370D01*
X23747Y17370D01*
X23655Y17331D01*
X23585Y17261D01*
X23547Y17169D01*
X23547Y16976D01*
X23609Y16914D01*
X24200Y16914D01*
X24200Y16814D01*
X23609Y16814D01*
X23547Y16751D01*
X23547Y16701D01*
X23452Y16701D01*
X23181Y16701D01*
X23119Y16638D01*
X23119Y16245D01*
X23126Y16245D01*
X23126Y16145D01*
X23119Y16145D01*
X23119Y16137D01*
X23019Y16137D01*
X23019Y16145D01*
X23019Y16245D01*
X23019Y16638D01*
X22956Y16701D01*
X22685Y16701D01*
X22585Y16701D01*
X22493Y16662D01*
X22445Y16614D01*
X22445Y18954D01*
X22445Y19250D01*
X22445Y19350D01*
X22445Y19645D01*
X22369Y19925D01*
X22192Y20155D01*
X21940Y20300D01*
X21934Y20301D01*
X21934Y20984D01*
X21888Y21100D01*
X20572Y21100D01*
X20572Y20408D01*
X21261Y20408D01*
X21541Y20483D01*
X21771Y20660D01*
X21915Y20912D01*
X21934Y20984D01*
X21934Y20301D01*
X21868Y20318D01*
X21753Y20273D01*
X21753Y19350D01*
X22445Y19350D01*
X22445Y19250D01*
X21753Y19250D01*
X21753Y18326D01*
X21868Y18281D01*
X21940Y18299D01*
X22192Y18444D01*
X22369Y18674D01*
X22445Y18954D01*
X22445Y16614D01*
X22423Y16592D01*
X22385Y16500D01*
X22385Y16307D01*
X22448Y16245D01*
X23019Y16245D01*
X23019Y16145D01*
X22448Y16145D01*
X22385Y16082D01*
X22385Y16066D01*
X22339Y16057D01*
X22300Y16031D01*
X22300Y16137D01*
X22300Y16362D01*
X22300Y16475D01*
X22300Y16574D01*
X22261Y16666D01*
X22191Y16736D01*
X22099Y16775D01*
X21987Y16775D01*
X21925Y16712D01*
X21925Y16300D01*
X22237Y16300D01*
X22300Y16362D01*
X22300Y16137D01*
X22237Y16200D01*
X21925Y16200D01*
X21925Y16192D01*
X21825Y16192D01*
X21825Y16200D01*
X21817Y16200D01*
X21817Y16300D01*
X21825Y16300D01*
X21825Y16712D01*
X21762Y16775D01*
X21653Y16775D01*
X21653Y18326D01*
X21653Y19250D01*
X21653Y19350D01*
X21653Y20273D01*
X21537Y20318D01*
X21465Y20300D01*
X21213Y20155D01*
X21036Y19925D01*
X20961Y19645D01*
X20961Y19350D01*
X21653Y19350D01*
X21653Y19250D01*
X20961Y19250D01*
X20961Y18954D01*
X21036Y18674D01*
X21213Y18444D01*
X21465Y18299D01*
X21537Y18281D01*
X21653Y18326D01*
X21653Y16775D01*
X21650Y16775D01*
X21558Y16736D01*
X21499Y16678D01*
X21441Y16736D01*
X21349Y16775D01*
X21250Y16775D01*
X20900Y16775D01*
X20808Y16736D01*
X20775Y16704D01*
X20698Y16736D01*
X20599Y16736D01*
X20472Y16736D01*
X20472Y20408D01*
X20472Y21100D01*
X19155Y21100D01*
X19109Y20984D01*
X19128Y20912D01*
X19272Y20660D01*
X19502Y20483D01*
X19783Y20408D01*
X20472Y20408D01*
X20472Y16736D01*
X20127Y16736D01*
X20083Y16717D01*
X20083Y18984D01*
X20083Y19615D01*
X20026Y19899D01*
X19865Y20140D01*
X19624Y20301D01*
X19341Y20357D01*
X19057Y20301D01*
X18816Y20140D01*
X18655Y19899D01*
X18599Y19615D01*
X18599Y19067D01*
X18570Y19039D01*
X17946Y19039D01*
X17946Y19220D01*
X17908Y19312D01*
X17838Y19382D01*
X17746Y19421D01*
X17646Y19421D01*
X17253Y19421D01*
X17161Y19382D01*
X17091Y19312D01*
X17053Y19220D01*
X17053Y19121D01*
X17053Y18137D01*
X17091Y18045D01*
X17161Y17975D01*
X17253Y17937D01*
X17353Y17937D01*
X17746Y17937D01*
X17838Y17975D01*
X17908Y18045D01*
X17946Y18137D01*
X17946Y18236D01*
X17946Y18319D01*
X18720Y18319D01*
X18720Y18319D01*
X18857Y18346D01*
X18857Y18346D01*
X18921Y18389D01*
X19057Y18298D01*
X19341Y18242D01*
X19624Y18298D01*
X19865Y18459D01*
X20026Y18700D01*
X20083Y18984D01*
X20083Y16717D01*
X20035Y16697D01*
X19999Y16662D01*
X19964Y16697D01*
X19872Y16736D01*
X19773Y16736D01*
X19301Y16736D01*
X19209Y16697D01*
X19139Y16627D01*
X19101Y16535D01*
X19101Y16436D01*
X19101Y15964D01*
X19139Y15872D01*
X19209Y15802D01*
X19227Y15794D01*
X19227Y15513D01*
X19254Y15375D01*
X19332Y15258D01*
X19824Y14765D01*
X19824Y14765D01*
X19889Y14609D01*
X20008Y14489D01*
X20165Y14425D01*
X20334Y14424D01*
X20490Y14489D01*
X20610Y14608D01*
X20674Y14765D01*
X20675Y14934D01*
X20610Y15090D01*
X20491Y15210D01*
X20334Y15274D01*
X20334Y15274D01*
X19947Y15662D01*
X19947Y15794D01*
X19964Y15802D01*
X20000Y15837D01*
X20035Y15802D01*
X20127Y15764D01*
X20226Y15764D01*
X20698Y15764D01*
X20775Y15795D01*
X20808Y15763D01*
X20900Y15725D01*
X20999Y15725D01*
X21349Y15725D01*
X21441Y15763D01*
X21500Y15821D01*
X21558Y15763D01*
X21596Y15747D01*
X21489Y15641D01*
X21425Y15484D01*
X21424Y15315D01*
X21489Y15159D01*
X21608Y15039D01*
X21765Y14975D01*
X21934Y14974D01*
X22090Y15039D01*
X22138Y15087D01*
X22222Y15104D01*
X22326Y15173D01*
X22523Y15370D01*
X22523Y15278D01*
X22523Y15122D01*
X22523Y15121D01*
X22523Y15095D01*
X22541Y15077D01*
X22561Y15029D01*
X22597Y14994D01*
X22561Y14958D01*
X22541Y14910D01*
X22523Y14892D01*
X22523Y14866D01*
X22523Y14865D01*
X22523Y14839D01*
X22541Y14821D01*
X22551Y14797D01*
X22530Y14788D01*
X22523Y14788D01*
X22523Y14785D01*
X22493Y14772D01*
X22423Y14702D01*
X22385Y14610D01*
X22385Y14417D01*
X22448Y14355D01*
X23019Y14355D01*
X23019Y14433D01*
X23058Y14472D01*
X23058Y14698D01*
X23050Y14698D01*
X23050Y14720D01*
X23058Y14728D01*
X23058Y14777D01*
X23058Y14795D01*
X23158Y14795D01*
X23158Y14787D01*
X23119Y14748D01*
X23119Y14355D01*
X23126Y14355D01*
X23126Y14255D01*
X23119Y14255D01*
X23119Y13861D01*
X23181Y13799D01*
X23452Y13799D01*
X23547Y13799D01*
X23547Y13748D01*
X23609Y13686D01*
X24200Y13686D01*
X24200Y13693D01*
X24279Y13693D01*
X24300Y13693D01*
X24300Y13686D01*
X24307Y13686D01*
X24307Y13586D01*
X24300Y13586D01*
X24300Y13192D01*
X24362Y13130D01*
X24653Y13130D01*
X24720Y13130D01*
X24720Y12886D01*
G54D10*
G36*
X24720Y3988D02*
X24599Y4109D01*
X24600Y4258D01*
X24516Y4461D01*
X24361Y4615D01*
X24280Y4649D01*
X24361Y4683D01*
X24515Y4838D01*
X24599Y5040D01*
X24600Y5258D01*
X24516Y5461D01*
X24361Y5615D01*
X24280Y5649D01*
X24361Y5683D01*
X24515Y5838D01*
X24599Y6040D01*
X24600Y6258D01*
X24516Y6461D01*
X24400Y6577D01*
X24400Y7866D01*
X24400Y8103D01*
X24337Y8166D01*
X23900Y8166D01*
X23900Y7728D01*
X23962Y7666D01*
X24100Y7666D01*
X24199Y7666D01*
X24291Y7704D01*
X24361Y7774D01*
X24400Y7866D01*
X24400Y6577D01*
X24361Y6615D01*
X24159Y6699D01*
X23941Y6700D01*
X23800Y6641D01*
X23800Y7728D01*
X23800Y8166D01*
X23362Y8166D01*
X23300Y8103D01*
X23300Y7866D01*
X23338Y7774D01*
X23408Y7704D01*
X23500Y7666D01*
X23599Y7666D01*
X23737Y7666D01*
X23800Y7728D01*
X23800Y6641D01*
X23738Y6616D01*
X23584Y6461D01*
X23500Y6259D01*
X23499Y6041D01*
X23583Y5838D01*
X23738Y5684D01*
X23819Y5650D01*
X23738Y5616D01*
X23584Y5461D01*
X23500Y5259D01*
X23499Y5041D01*
X23583Y4838D01*
X23738Y4684D01*
X23819Y4650D01*
X23738Y4616D01*
X23665Y4543D01*
X23204Y5004D01*
X23087Y5082D01*
X22950Y5110D01*
X22218Y5110D01*
X22210Y5127D01*
X22140Y5197D01*
X22048Y5236D01*
X21949Y5236D01*
X21860Y5236D01*
X21860Y6369D01*
X21908Y6418D01*
X21946Y6510D01*
X21946Y6609D01*
X21946Y7003D01*
X21908Y7095D01*
X21838Y7165D01*
X21778Y7190D01*
X21878Y7290D01*
X21946Y7454D01*
X21946Y7632D01*
X21879Y7796D01*
X21753Y7922D01*
X21717Y7937D01*
X21752Y7952D01*
X21872Y8071D01*
X21909Y8034D01*
X22110Y7834D01*
X22110Y6650D01*
X22125Y6574D01*
X22125Y6574D01*
X22124Y6465D01*
X22189Y6309D01*
X22308Y6189D01*
X22465Y6125D01*
X22634Y6124D01*
X22790Y6189D01*
X22910Y6308D01*
X22974Y6465D01*
X22975Y6634D01*
X22910Y6790D01*
X22791Y6910D01*
X22790Y6910D01*
X22790Y7975D01*
X22764Y8105D01*
X22690Y8215D01*
X22616Y8289D01*
X22707Y8380D01*
X23300Y8380D01*
X23300Y8328D01*
X23362Y8266D01*
X23800Y8266D01*
X23800Y8273D01*
X23900Y8273D01*
X23900Y8266D01*
X24337Y8266D01*
X24400Y8328D01*
X24400Y8380D01*
X24425Y8380D01*
X24425Y8380D01*
X24547Y8404D01*
X24651Y8473D01*
X24720Y8542D01*
X24720Y3988D01*
X24720Y3988D01*
G37*
G54D38*
X24720Y3988D02*
X24599Y4109D01*
X24600Y4258D01*
X24516Y4461D01*
X24361Y4615D01*
X24280Y4649D01*
X24361Y4683D01*
X24515Y4838D01*
X24599Y5040D01*
X24600Y5258D01*
X24516Y5461D01*
X24361Y5615D01*
X24280Y5649D01*
X24361Y5683D01*
X24515Y5838D01*
X24599Y6040D01*
X24600Y6258D01*
X24516Y6461D01*
X24400Y6577D01*
X24400Y7866D01*
X24400Y8103D01*
X24337Y8166D01*
X23900Y8166D01*
X23900Y7728D01*
X23962Y7666D01*
X24100Y7666D01*
X24199Y7666D01*
X24291Y7704D01*
X24361Y7774D01*
X24400Y7866D01*
X24400Y6577D01*
X24361Y6615D01*
X24159Y6699D01*
X23941Y6700D01*
X23800Y6641D01*
X23800Y7728D01*
X23800Y8166D01*
X23362Y8166D01*
X23300Y8103D01*
X23300Y7866D01*
X23338Y7774D01*
X23408Y7704D01*
X23500Y7666D01*
X23599Y7666D01*
X23737Y7666D01*
X23800Y7728D01*
X23800Y6641D01*
X23738Y6616D01*
X23584Y6461D01*
X23500Y6259D01*
X23499Y6041D01*
X23583Y5838D01*
X23738Y5684D01*
X23819Y5650D01*
X23738Y5616D01*
X23584Y5461D01*
X23500Y5259D01*
X23499Y5041D01*
X23583Y4838D01*
X23738Y4684D01*
X23819Y4650D01*
X23738Y4616D01*
X23665Y4543D01*
X23204Y5004D01*
X23087Y5082D01*
X22950Y5110D01*
X22218Y5110D01*
X22210Y5127D01*
X22140Y5197D01*
X22048Y5236D01*
X21949Y5236D01*
X21860Y5236D01*
X21860Y6369D01*
X21908Y6418D01*
X21946Y6510D01*
X21946Y6609D01*
X21946Y7003D01*
X21908Y7095D01*
X21838Y7165D01*
X21778Y7190D01*
X21878Y7290D01*
X21946Y7454D01*
X21946Y7632D01*
X21879Y7796D01*
X21753Y7922D01*
X21717Y7937D01*
X21752Y7952D01*
X21872Y8071D01*
X21909Y8034D01*
X22110Y7834D01*
X22110Y6650D01*
X22125Y6574D01*
X22125Y6574D01*
X22124Y6465D01*
X22189Y6309D01*
X22308Y6189D01*
X22465Y6125D01*
X22634Y6124D01*
X22790Y6189D01*
X22910Y6308D01*
X22974Y6465D01*
X22975Y6634D01*
X22910Y6790D01*
X22791Y6910D01*
X22790Y6910D01*
X22790Y7975D01*
X22764Y8105D01*
X22690Y8215D01*
X22616Y8289D01*
X22707Y8380D01*
X23300Y8380D01*
X23300Y8328D01*
X23362Y8266D01*
X23800Y8266D01*
X23800Y8273D01*
X23900Y8273D01*
X23900Y8266D01*
X24337Y8266D01*
X24400Y8328D01*
X24400Y8380D01*
X24425Y8380D01*
X24425Y8380D01*
X24547Y8404D01*
X24651Y8473D01*
X24720Y8542D01*
X24720Y3988D01*
G54D10*
G36*
X24720Y279D02*
X22415Y279D01*
X22415Y514D01*
X22100Y829D01*
X21784Y514D01*
X21812Y418D01*
X22018Y345D01*
X22236Y356D01*
X22387Y418D01*
X22415Y514D01*
X22415Y279D01*
X18415Y279D01*
X18415Y514D01*
X18100Y829D01*
X17784Y514D01*
X17812Y418D01*
X18018Y345D01*
X18236Y356D01*
X18387Y418D01*
X18415Y514D01*
X18415Y279D01*
X15415Y279D01*
X15415Y514D01*
X15100Y829D01*
X14784Y514D01*
X14812Y418D01*
X15018Y345D01*
X15236Y356D01*
X15387Y418D01*
X15415Y514D01*
X15415Y279D01*
X11938Y279D01*
X12009Y350D01*
X12208Y349D01*
X12411Y433D01*
X12565Y588D01*
X12599Y669D01*
X12633Y588D01*
X12788Y434D01*
X12990Y350D01*
X13208Y349D01*
X13411Y433D01*
X13565Y588D01*
X13599Y669D01*
X13633Y588D01*
X13788Y434D01*
X13990Y350D01*
X14208Y349D01*
X14411Y433D01*
X14565Y588D01*
X14597Y663D01*
X14618Y612D01*
X14714Y584D01*
X15029Y900D01*
X15023Y905D01*
X15094Y976D01*
X15100Y970D01*
X15415Y1285D01*
X15387Y1381D01*
X15332Y1400D01*
X15411Y1433D01*
X15565Y1588D01*
X15599Y1669D01*
X15633Y1588D01*
X15788Y1434D01*
X15869Y1400D01*
X15788Y1366D01*
X15634Y1211D01*
X15602Y1136D01*
X15581Y1187D01*
X15485Y1215D01*
X15170Y900D01*
X15485Y584D01*
X15581Y612D01*
X15600Y667D01*
X15633Y588D01*
X15788Y434D01*
X15990Y350D01*
X16208Y349D01*
X16411Y433D01*
X16565Y588D01*
X16599Y669D01*
X16633Y588D01*
X16788Y434D01*
X16990Y350D01*
X17208Y349D01*
X17411Y433D01*
X17565Y588D01*
X17597Y663D01*
X17618Y612D01*
X17714Y584D01*
X18029Y900D01*
X17714Y1215D01*
X17618Y1187D01*
X17599Y1132D01*
X17566Y1211D01*
X17411Y1365D01*
X17330Y1399D01*
X17411Y1433D01*
X17565Y1588D01*
X17599Y1669D01*
X17633Y1588D01*
X17788Y1434D01*
X17863Y1402D01*
X17812Y1381D01*
X17784Y1285D01*
X18100Y970D01*
X18105Y976D01*
X18176Y905D01*
X18170Y900D01*
X18485Y584D01*
X18581Y612D01*
X18600Y667D01*
X18633Y588D01*
X18788Y434D01*
X18990Y350D01*
X19208Y349D01*
X19411Y433D01*
X19565Y588D01*
X19599Y669D01*
X19633Y588D01*
X19788Y434D01*
X19990Y350D01*
X20208Y349D01*
X20411Y433D01*
X20565Y588D01*
X20599Y669D01*
X20633Y588D01*
X20788Y434D01*
X20990Y350D01*
X21208Y349D01*
X21411Y433D01*
X21565Y588D01*
X21597Y663D01*
X21618Y612D01*
X21714Y584D01*
X22029Y900D01*
X21714Y1215D01*
X21618Y1187D01*
X21599Y1132D01*
X21566Y1211D01*
X21411Y1365D01*
X21330Y1399D01*
X21411Y1433D01*
X21565Y1588D01*
X21599Y1669D01*
X21633Y1588D01*
X21788Y1434D01*
X21863Y1402D01*
X21812Y1381D01*
X21784Y1285D01*
X22100Y970D01*
X22105Y976D01*
X22176Y905D01*
X22170Y900D01*
X22485Y584D01*
X22581Y612D01*
X22600Y667D01*
X22633Y588D01*
X22788Y434D01*
X22990Y350D01*
X23208Y349D01*
X23411Y433D01*
X23517Y540D01*
X23682Y540D01*
X23788Y434D01*
X23990Y350D01*
X24208Y349D01*
X24411Y433D01*
X24565Y588D01*
X24649Y790D01*
X24650Y1008D01*
X24566Y1211D01*
X24427Y1350D01*
X24449Y1350D01*
X24541Y1388D01*
X24611Y1458D01*
X24650Y1550D01*
X24650Y1649D01*
X24650Y1840D01*
X24720Y1911D01*
X24720Y279D01*
X24720Y279D01*
G37*
G54D38*
X24720Y279D02*
X22415Y279D01*
X22415Y514D01*
X22100Y829D01*
X21784Y514D01*
X21812Y418D01*
X22018Y345D01*
X22236Y356D01*
X22387Y418D01*
X22415Y514D01*
X22415Y279D01*
X18415Y279D01*
X18415Y514D01*
X18100Y829D01*
X17784Y514D01*
X17812Y418D01*
X18018Y345D01*
X18236Y356D01*
X18387Y418D01*
X18415Y514D01*
X18415Y279D01*
X15415Y279D01*
X15415Y514D01*
X15100Y829D01*
X14784Y514D01*
X14812Y418D01*
X15018Y345D01*
X15236Y356D01*
X15387Y418D01*
X15415Y514D01*
X15415Y279D01*
X11938Y279D01*
X12009Y350D01*
X12208Y349D01*
X12411Y433D01*
X12565Y588D01*
X12599Y669D01*
X12633Y588D01*
X12788Y434D01*
X12990Y350D01*
X13208Y349D01*
X13411Y433D01*
X13565Y588D01*
X13599Y669D01*
X13633Y588D01*
X13788Y434D01*
X13990Y350D01*
X14208Y349D01*
X14411Y433D01*
X14565Y588D01*
X14597Y663D01*
X14618Y612D01*
X14714Y584D01*
X15029Y900D01*
X15023Y905D01*
X15094Y976D01*
X15100Y970D01*
X15415Y1285D01*
X15387Y1381D01*
X15332Y1400D01*
X15411Y1433D01*
X15565Y1588D01*
X15599Y1669D01*
X15633Y1588D01*
X15788Y1434D01*
X15869Y1400D01*
X15788Y1366D01*
X15634Y1211D01*
X15602Y1136D01*
X15581Y1187D01*
X15485Y1215D01*
X15170Y900D01*
X15485Y584D01*
X15581Y612D01*
X15600Y667D01*
X15633Y588D01*
X15788Y434D01*
X15990Y350D01*
X16208Y349D01*
X16411Y433D01*
X16565Y588D01*
X16599Y669D01*
X16633Y588D01*
X16788Y434D01*
X16990Y350D01*
X17208Y349D01*
X17411Y433D01*
X17565Y588D01*
X17597Y663D01*
X17618Y612D01*
X17714Y584D01*
X18029Y900D01*
X17714Y1215D01*
X17618Y1187D01*
X17599Y1132D01*
X17566Y1211D01*
X17411Y1365D01*
X17330Y1399D01*
X17411Y1433D01*
X17565Y1588D01*
X17599Y1669D01*
X17633Y1588D01*
X17788Y1434D01*
X17863Y1402D01*
X17812Y1381D01*
X17784Y1285D01*
X18100Y970D01*
X18105Y976D01*
X18176Y905D01*
X18170Y900D01*
X18485Y584D01*
X18581Y612D01*
X18600Y667D01*
X18633Y588D01*
X18788Y434D01*
X18990Y350D01*
X19208Y349D01*
X19411Y433D01*
X19565Y588D01*
X19599Y669D01*
X19633Y588D01*
X19788Y434D01*
X19990Y350D01*
X20208Y349D01*
X20411Y433D01*
X20565Y588D01*
X20599Y669D01*
X20633Y588D01*
X20788Y434D01*
X20990Y350D01*
X21208Y349D01*
X21411Y433D01*
X21565Y588D01*
X21597Y663D01*
X21618Y612D01*
X21714Y584D01*
X22029Y900D01*
X21714Y1215D01*
X21618Y1187D01*
X21599Y1132D01*
X21566Y1211D01*
X21411Y1365D01*
X21330Y1399D01*
X21411Y1433D01*
X21565Y1588D01*
X21599Y1669D01*
X21633Y1588D01*
X21788Y1434D01*
X21863Y1402D01*
X21812Y1381D01*
X21784Y1285D01*
X22100Y970D01*
X22105Y976D01*
X22176Y905D01*
X22170Y900D01*
X22485Y584D01*
X22581Y612D01*
X22600Y667D01*
X22633Y588D01*
X22788Y434D01*
X22990Y350D01*
X23208Y349D01*
X23411Y433D01*
X23517Y540D01*
X23682Y540D01*
X23788Y434D01*
X23990Y350D01*
X24208Y349D01*
X24411Y433D01*
X24565Y588D01*
X24649Y790D01*
X24650Y1008D01*
X24566Y1211D01*
X24427Y1350D01*
X24449Y1350D01*
X24541Y1388D01*
X24611Y1458D01*
X24650Y1550D01*
X24650Y1649D01*
X24650Y1840D01*
X24720Y1911D01*
X24720Y279D01*
M02*
