G04 (created by PCBNEW (2013-mar-13)-testing) date Fri 26 Jul 2013 11:26:15 PM EDT*
%MOIN*%
G04 Gerber Fmt 3.4, Leading zero omitted, Abs format*
%FSLAX34Y34*%
G01*
G70*
G90*
G04 APERTURE LIST*
%ADD10C,0.006000*%
%ADD11R,0.047200X0.047200*%
%ADD12C,0.060000*%
%ADD13R,0.060000X0.060000*%
%ADD14R,0.060000X0.080000*%
%ADD15R,0.039370X0.039370*%
%ADD16C,0.039370*%
%ADD17C,0.043307*%
%ADD18R,0.035000X0.055000*%
%ADD19R,0.020000X0.030000*%
%ADD20R,0.012000X0.020000*%
%ADD21O,0.236200X0.098400*%
%ADD22O,0.098400X0.157500*%
%ADD23R,0.055000X0.035000*%
%ADD24R,0.039300X0.098400*%
%ADD25R,0.055000X0.055000*%
%ADD26C,0.055000*%
%ADD27C,0.126000*%
%ADD28C,0.090000*%
%ADD29C,0.070000*%
%ADD30R,0.066900X0.015700*%
%ADD31R,0.090600X0.051200*%
%ADD32R,0.086700X0.051200*%
%ADD33R,0.098400X0.070900*%
%ADD34R,0.080000X0.060000*%
G04 APERTURE END LIST*
G54D10*
G54D11*
X11987Y3950D03*
X12813Y3950D03*
X11937Y5050D03*
X12763Y5050D03*
G54D12*
X3791Y743D03*
X4792Y742D03*
X5792Y742D03*
X6792Y742D03*
X7792Y742D03*
X8792Y742D03*
X9792Y742D03*
G54D13*
X24050Y3150D03*
G54D12*
X24050Y4150D03*
X24050Y5150D03*
X24050Y6150D03*
G54D13*
X24100Y1900D03*
G54D12*
X24100Y900D03*
X23100Y1900D03*
X23100Y900D03*
X22100Y1900D03*
X22100Y900D03*
X21100Y1900D03*
X21100Y900D03*
X20100Y1900D03*
X20100Y900D03*
X19100Y1900D03*
X19100Y900D03*
X18100Y1900D03*
X18100Y900D03*
X17100Y1900D03*
X17100Y900D03*
X16100Y1900D03*
X16100Y900D03*
X15100Y1900D03*
X15100Y900D03*
X14100Y1900D03*
X14100Y900D03*
X13100Y1900D03*
X13100Y900D03*
X12100Y1900D03*
X12100Y900D03*
G54D14*
X12450Y15400D03*
X11150Y15400D03*
G54D15*
X12840Y6756D03*
G54D16*
X12840Y7544D03*
X12840Y8331D03*
X12840Y9118D03*
X12840Y9906D03*
X12840Y10693D03*
G54D17*
X12840Y11481D03*
G54D16*
X12840Y12268D03*
X12840Y13055D03*
X12840Y13843D03*
G54D13*
X16250Y20500D03*
G54D12*
X15250Y20500D03*
G54D18*
X5925Y7850D03*
X6675Y7850D03*
G54D13*
X23850Y8216D03*
G54D12*
X23850Y9200D03*
X23850Y10184D03*
G54D19*
X5925Y6050D03*
X6675Y6050D03*
X5925Y7050D03*
X6300Y6050D03*
X6675Y7050D03*
X8625Y6050D03*
X9375Y6050D03*
X8625Y7050D03*
X9000Y6050D03*
X9375Y7050D03*
G54D18*
X8625Y7850D03*
X9375Y7850D03*
X8625Y5100D03*
X9375Y5100D03*
X5925Y5150D03*
X6675Y5150D03*
G54D20*
X17850Y7100D03*
X17350Y7100D03*
X17850Y6300D03*
X17600Y7100D03*
X17350Y6300D03*
G54D13*
X10250Y20500D03*
G54D12*
X9250Y20500D03*
G54D21*
X20522Y21150D03*
G54D22*
X21703Y19300D03*
X19341Y19300D03*
G54D23*
X15300Y18275D03*
X15300Y17525D03*
X14400Y18275D03*
X14400Y17525D03*
X22900Y13125D03*
X22900Y12375D03*
G54D24*
X17500Y18679D03*
X17500Y16320D03*
G54D18*
X18225Y9000D03*
X18975Y9000D03*
X18225Y8000D03*
X18975Y8000D03*
G54D25*
X19200Y13700D03*
G54D26*
X18200Y13700D03*
X17200Y13700D03*
X16200Y13700D03*
X16200Y10700D03*
X17200Y10700D03*
X18200Y10700D03*
X19200Y10700D03*
G54D20*
X16850Y8800D03*
X16350Y8800D03*
X16850Y8000D03*
X16600Y8800D03*
X16350Y8000D03*
G54D13*
X7500Y20500D03*
G54D12*
X6500Y20500D03*
G54D27*
X14900Y15000D03*
G54D23*
X20300Y11325D03*
X20300Y12075D03*
G54D18*
X19325Y4750D03*
X20075Y4750D03*
X19325Y3900D03*
X20075Y3900D03*
X21875Y16250D03*
X21125Y16250D03*
G54D15*
X21500Y6756D03*
G54D16*
X21500Y7544D03*
X21500Y8331D03*
X21500Y9118D03*
X21500Y9906D03*
X21500Y10693D03*
G54D17*
X21500Y11481D03*
G54D16*
X21500Y12268D03*
X21500Y13055D03*
X21500Y13843D03*
G54D11*
X19587Y16250D03*
X20413Y16250D03*
X21763Y3500D03*
X20937Y3500D03*
X21763Y4750D03*
X20937Y4750D03*
X5887Y8750D03*
X6713Y8750D03*
X8587Y8750D03*
X9413Y8750D03*
X24563Y12400D03*
X23737Y12400D03*
G54D28*
X8429Y17211D03*
X8429Y14211D03*
G54D29*
X8429Y10218D03*
X8429Y11218D03*
G54D28*
X5829Y17211D03*
X5829Y14211D03*
G54D29*
X5829Y10218D03*
X5829Y11218D03*
G54D30*
X23108Y15250D03*
X23108Y14994D03*
X23108Y15762D03*
G54D31*
X24250Y13636D03*
G54D32*
X23069Y14305D03*
G54D31*
X24250Y16864D03*
G54D32*
X23069Y16195D03*
G54D30*
X23108Y15506D03*
G54D33*
X24329Y14699D03*
X24329Y15801D03*
G54D30*
X23108Y14738D03*
G54D11*
X3237Y8750D03*
X4063Y8750D03*
X787Y8750D03*
X1613Y8750D03*
G54D28*
X3229Y17211D03*
X3229Y14211D03*
G54D29*
X3229Y10218D03*
X3229Y11218D03*
G54D28*
X729Y17211D03*
X729Y14211D03*
G54D29*
X729Y10218D03*
X729Y11218D03*
G54D13*
X13500Y20500D03*
G54D12*
X12500Y20500D03*
G54D13*
X4750Y20500D03*
G54D12*
X3750Y20500D03*
G54D13*
X2000Y20500D03*
G54D12*
X1000Y20500D03*
G54D18*
X3275Y5150D03*
X4025Y5150D03*
X825Y5150D03*
X1575Y5150D03*
X3275Y7850D03*
X4025Y7850D03*
X825Y7850D03*
X1575Y7850D03*
X15275Y8050D03*
X14525Y8050D03*
X15275Y7100D03*
X14525Y7100D03*
G54D14*
X12450Y17600D03*
X11150Y17600D03*
X12450Y16500D03*
X11150Y16500D03*
G54D34*
X11300Y14150D03*
X11300Y12850D03*
X20300Y9900D03*
X20300Y8600D03*
G54D19*
X3275Y6000D03*
X4025Y6000D03*
X3275Y7000D03*
X3650Y6000D03*
X4025Y7000D03*
X775Y6000D03*
X1525Y6000D03*
X775Y7000D03*
X1150Y6000D03*
X1525Y7000D03*
M02*
