M48
;DRILL file {Pcbnew (2011-nov-30)-testing} date Thu 04 Oct 2012 01:11:55 PM EDT
;FORMAT={-:-/ absolute / inch / decimal}
FMAT,2
INCH,TZ
T1C0.018
T2C0.032
T3C0.032
T4C0.039
T5C0.039
T6C0.040
T7C0.043
T8C0.083
%
G90
G05
M72
T1
X0.77Y0.335
X0.805Y1.41
X0.8462Y0.8132
X0.89Y1.325
X0.92Y1.465
X0.925Y1.115
X1.005Y1.195
X1.06Y0.17
X1.205Y0.195
X1.4489Y0.4433
X1.45Y0.618
X2.005Y1.465
X2.235Y1.465
X2.315Y0.57
X2.315Y0.33
X2.65Y0.995
X2.651Y0.899
X2.7Y1.245
X2.845Y1.254
X2.8755Y1.1294
X2.921Y0.965
X2.957Y1.256
X2.994Y0.902
X3.076Y1.38
X3.0787Y1.3193
X3.086Y0.527
X3.345Y0.99
X3.655Y1.438
X3.6923Y1.4015
T2
X2.1Y2.621
T3
X0.1Y2.4209
X0.1Y2.3209
X0.1Y2.2209
X0.1Y2.1209
X0.1Y2.0209
X0.1Y1.9209
X0.1Y1.8209
X0.1Y1.7209
X0.1Y1.6209
X0.1Y1.5209
X0.1Y1.4209
X0.1Y1.3209
X0.1Y1.2209
X0.1Y1.1209
X0.1Y1.0209
X0.1Y0.9209
X0.1Y0.8209
X0.1Y0.7209
X0.2Y2.4209
X0.2Y2.3209
X0.2Y2.2209
X0.2Y2.1209
X0.2Y2.0209
X0.2Y1.9209
X0.2Y1.8209
X0.2Y1.7209
X0.2Y1.6209
X0.2Y1.5209
X0.2Y1.4209
X0.2Y1.3209
X0.2Y1.2209
X0.2Y1.1209
X0.2Y1.0209
X0.2Y0.9209
X0.2Y0.8209
X0.2Y0.7209
X0.3Y2.6209
X0.4Y2.6209
X0.5Y2.6209
X0.5Y0.7209
X0.6Y2.6209
X0.6Y0.7209
X0.7Y2.6209
X0.7Y0.7209
X0.8Y2.6209
X0.8Y0.7209
X0.9Y2.6209
X0.9Y0.7209
X1.Y2.6209
X1.Y0.7209
X1.1Y0.7209
X1.2Y2.6209
X1.2Y0.7209
X1.3Y2.6209
X1.4Y2.6209
X1.4Y0.7209
X1.5Y2.6209
X1.5Y0.7209
X1.6Y2.6209
X1.6Y0.7209
X1.7Y2.6209
X1.7Y0.7209
X1.8Y2.6209
X1.8Y0.7209
X1.9Y2.6209
X1.9Y0.7209
X2.Y0.7209
X2.1Y0.7209
X2.2Y2.6209
X2.26Y0.7209
X2.3Y2.6209
X2.36Y0.7209
X2.4Y2.6209
X2.46Y0.7209
X2.5Y2.6209
X2.56Y0.7209
X2.6Y2.6209
X2.66Y0.7209
X2.76Y0.7209
X2.86Y0.7209
X2.96Y0.7209
T4
X3.6216Y2.63
X3.8184Y2.63
T6
X0.13Y0.15
X0.23Y0.15
X1.12Y0.55
X1.12Y0.29
X1.22Y0.55
X1.22Y0.29
X1.32Y0.55
X1.32Y0.29
X2.23Y0.15
X2.33Y0.15
X2.58Y0.48
X2.58Y0.17
X2.68Y0.48
X2.68Y0.17
X2.78Y0.48
X2.78Y0.17
X2.9Y2.598
X2.9Y2.342
X3.0772Y2.598
X3.0772Y2.342
X3.15Y2.47
X3.2607Y1.6291
X3.2608Y2.2292
X3.2608Y2.1292
X3.2608Y2.0292
X3.2608Y1.9292
X3.2608Y1.8292
X3.2608Y1.7292
X3.37Y2.03
X3.72Y2.63
T7
X3.8019Y1.4845
X3.8019Y1.2955
T5
X3.9396Y1.5514G85X3.9004Y1.5514
G05
X3.9396Y1.2286G85X3.9004Y1.2286
G05
T8
X1.8265Y0.3898G85X1.9249Y0.3898
G05
X1.8757Y0.1408G85X1.8757Y0.2392
G05
T0
M30
