G04 (created by PCBNEW (2011-nov-30)-testing) date Thu 04 Oct 2012 01:11:44 PM EDT*
%MOIN*%
G04 Gerber Fmt 3.4, Leading zero omitted, Abs format*
%FSLAX34Y34*%
G01*
G70*
G90*
G04 APERTURE LIST*
%ADD10C,0.006*%
%ADD11C,0.012*%
%ADD12R,0.06X0.06*%
%ADD13C,0.06*%
%ADD14R,0.1967X0.2165*%
%ADD15R,0.2165X0.1297*%
%ADD16R,0.115X0.05*%
%ADD17R,0.065X0.135*%
%ADD18R,0.0472X0.0472*%
%ADD19R,0.0512X0.122*%
%ADD20C,0.0709*%
%ADD21R,0.055X0.035*%
%ADD22R,0.05X0.1149*%
%ADD23R,0.135X0.065*%
%ADD24R,0.1349X0.065*%
%ADD25R,0.0394X0.1495*%
%ADD26R,0.0394X0.1496*%
%ADD27R,0.6692X0.7084*%
%ADD28R,0.1179X0.0787*%
%ADD29R,0.118X0.0787*%
%ADD30R,0.016X0.05*%
%ADD31R,0.035X0.055*%
%ADD32R,0.0984X0.0393*%
%ADD33R,0.0669X0.0157*%
%ADD34R,0.0906X0.0512*%
%ADD35R,0.0867X0.0512*%
%ADD36R,0.0591X0.0512*%
%ADD37R,0.0984X0.0709*%
%ADD38C,0.035*%
%ADD39C,0.014*%
%ADD40C,0.01*%
G04 APERTURE END LIST*
G54D10*
G54D11*
X5525Y10707D02*
X4925Y10482D01*
X5525Y10257D01*
X5824Y10969D02*
X6312Y10969D01*
X6049Y10669D01*
X6162Y10669D01*
X6237Y10632D01*
X6274Y10594D01*
X6312Y10519D01*
X6312Y10332D01*
X6274Y10257D01*
X6237Y10219D01*
X6162Y10182D01*
X5937Y10182D01*
X5862Y10219D01*
X5824Y10257D01*
G54D12*
X13200Y2900D03*
G54D13*
X12200Y2900D03*
X11200Y2900D03*
G54D12*
X13200Y5500D03*
G54D13*
X12200Y5500D03*
X11200Y5500D03*
G54D14*
X18757Y1900D03*
G54D15*
X18757Y3898D03*
G54D16*
X35850Y9300D03*
X34050Y9300D03*
G54D17*
X38000Y10750D03*
X38000Y7850D03*
G54D16*
X35850Y4100D03*
X34050Y4100D03*
G54D17*
X38000Y5550D03*
X38000Y2650D03*
G54D18*
X33987Y900D03*
X34813Y900D03*
X11187Y1100D03*
X12013Y1100D03*
X29400Y21013D03*
X29400Y20187D03*
X28200Y21013D03*
X28200Y20187D03*
G54D19*
X28114Y26265D03*
X28114Y23135D03*
X29886Y23135D03*
X29886Y26265D03*
G54D20*
X29000Y23420D03*
X29000Y25980D03*
X30772Y23420D03*
X30772Y25980D03*
X31500Y24700D03*
G54D12*
X36216Y26300D03*
G54D13*
X37200Y26300D03*
X38184Y26300D03*
G54D21*
X15400Y5475D03*
X15400Y4725D03*
X15400Y3475D03*
X15400Y2725D03*
G54D22*
X7789Y4627D03*
X6611Y4627D03*
G54D23*
X5508Y1900D03*
G54D24*
X8892Y1900D03*
G54D25*
X19861Y15763D03*
X20531Y15763D03*
G54D26*
X21200Y15763D03*
G54D25*
X21869Y15763D03*
X22539Y15763D03*
G54D27*
X21200Y20685D03*
G54D28*
X18445Y16748D03*
G54D29*
X23956Y16747D03*
G54D13*
X32607Y16291D03*
X32608Y17292D03*
X32608Y18292D03*
X32608Y19292D03*
X32608Y20292D03*
X32608Y21292D03*
X32608Y22292D03*
X12000Y7209D03*
X11000Y7209D03*
X10000Y7209D03*
X9000Y7209D03*
X8000Y7209D03*
X7000Y7209D03*
X6000Y7209D03*
X5000Y7209D03*
X3000Y26209D03*
X4000Y26209D03*
X5000Y26209D03*
X6000Y26209D03*
X10000Y26209D03*
X12000Y26209D03*
X13000Y26209D03*
X9000Y26209D03*
X8000Y26209D03*
X7000Y26209D03*
X14000Y26209D03*
X15000Y26209D03*
X16000Y26209D03*
X19000Y26209D03*
X18000Y26209D03*
X17000Y26209D03*
X21000Y26210D03*
X22000Y26209D03*
X23000Y26209D03*
X25000Y26209D03*
X26000Y26209D03*
X14000Y7209D03*
X15000Y7209D03*
X16000Y7209D03*
X17000Y7209D03*
X18000Y7209D03*
X19000Y7209D03*
X20000Y7209D03*
X21000Y7209D03*
X22600Y7209D03*
X23600Y7209D03*
X24600Y7209D03*
X25600Y7209D03*
X26600Y7209D03*
X27600Y7209D03*
X28600Y7209D03*
X29600Y7209D03*
X24000Y26209D03*
X2000Y8209D03*
X1000Y8209D03*
X2000Y9209D03*
X1000Y9209D03*
X2000Y10209D03*
X1000Y10209D03*
X2000Y11209D03*
X1000Y11209D03*
X2000Y7209D03*
X1000Y7209D03*
X1000Y12209D03*
X2000Y12209D03*
X2000Y13209D03*
X1000Y13209D03*
X2000Y14209D03*
X1000Y14209D03*
X2000Y15209D03*
X1000Y15209D03*
X2000Y16209D03*
X1000Y16209D03*
X2000Y17209D03*
X1000Y17209D03*
X2000Y18209D03*
X1000Y18209D03*
X2000Y19209D03*
X1000Y19209D03*
X2000Y20209D03*
X1000Y20209D03*
X2000Y21209D03*
X1000Y21209D03*
X2000Y22209D03*
X1000Y22209D03*
X2000Y23209D03*
X1000Y23209D03*
X2000Y24209D03*
X1000Y24209D03*
G54D12*
X22300Y1500D03*
G54D13*
X23300Y1500D03*
G54D30*
X26950Y10400D03*
X27200Y10400D03*
X27460Y10400D03*
X27720Y10400D03*
X27970Y10400D03*
X28230Y10400D03*
X28490Y10400D03*
X28740Y10400D03*
X29000Y10400D03*
X29250Y10400D03*
X29510Y10400D03*
X29770Y10400D03*
X30020Y10400D03*
X30280Y10400D03*
X30280Y13200D03*
X30020Y13200D03*
X29780Y13200D03*
X29510Y13200D03*
X29250Y13200D03*
X29000Y13200D03*
X28740Y13200D03*
X28490Y13200D03*
X28230Y13200D03*
X27970Y13200D03*
X27720Y13200D03*
X27460Y13200D03*
X27200Y13200D03*
X26950Y13200D03*
G54D12*
X1300Y1500D03*
G54D13*
X2300Y1500D03*
G54D12*
X25800Y4800D03*
G54D13*
X26800Y4800D03*
X27800Y4800D03*
G54D12*
X25800Y1700D03*
G54D13*
X26800Y1700D03*
X27800Y1700D03*
G54D31*
X5575Y5900D03*
X4825Y5900D03*
G54D21*
X30200Y15425D03*
X30200Y16175D03*
G54D31*
X27925Y9000D03*
X28675Y9000D03*
X34825Y6700D03*
X35575Y6700D03*
G54D25*
X8061Y15763D03*
X8731Y15763D03*
G54D26*
X9400Y15763D03*
G54D25*
X10069Y15763D03*
X10739Y15763D03*
G54D27*
X9400Y20685D03*
G54D28*
X6645Y16748D03*
G54D29*
X12156Y16747D03*
G54D32*
X32279Y2500D03*
X29920Y2500D03*
X8479Y12500D03*
X6120Y12500D03*
X21779Y12400D03*
X19420Y12400D03*
X3579Y4500D03*
X1220Y4500D03*
G54D12*
X33700Y20300D03*
G54D21*
X28200Y19275D03*
X28200Y18525D03*
X29400Y19275D03*
X29400Y18525D03*
G54D31*
X35725Y900D03*
X36475Y900D03*
G54D21*
X37000Y23325D03*
X37000Y24075D03*
G54D31*
X13425Y1100D03*
X14175Y1100D03*
G54D18*
X38200Y24213D03*
X38200Y23387D03*
G54D33*
X38058Y13900D03*
X38058Y13644D03*
X38058Y14412D03*
G54D34*
X39200Y12286D03*
G54D35*
X38019Y12955D03*
G54D34*
X39200Y15514D03*
G54D36*
X38019Y14845D03*
G54D33*
X38058Y14156D03*
G54D37*
X39279Y13349D03*
X39279Y14451D03*
G54D33*
X38058Y13388D03*
G54D38*
X29940Y9020D03*
X26510Y8990D03*
X23150Y3300D03*
X23150Y5700D03*
X33450Y9900D03*
X22350Y14650D03*
X12050Y1950D03*
X9250Y11150D03*
X10050Y11950D03*
X7700Y3350D03*
X10600Y1700D03*
X30860Y5270D03*
X36923Y14015D03*
X30787Y13193D03*
X36550Y14380D03*
X30760Y13800D03*
X8900Y13250D03*
X8050Y14100D03*
X28755Y11294D03*
X8462Y8132D03*
X27000Y12450D03*
X26500Y9950D03*
X9200Y14650D03*
X20050Y14650D03*
X14489Y4433D03*
X14500Y6180D03*
X29210Y9650D03*
X28450Y12540D03*
X29570Y12560D03*
G54D11*
X23150Y3300D02*
X23150Y5700D01*
X34050Y9300D02*
X33450Y9900D01*
X22350Y14650D02*
X21850Y15150D01*
X21850Y15150D02*
X21850Y15750D01*
X21850Y15750D02*
X21869Y15763D01*
X33987Y900D02*
X33900Y900D01*
X33900Y900D02*
X32300Y2500D01*
X32300Y2500D02*
X32279Y2500D01*
X34825Y6700D02*
X34850Y6700D01*
X34850Y6700D02*
X34050Y5900D01*
X34050Y5900D02*
X34050Y4100D01*
X34825Y6700D02*
X34850Y6700D01*
X34850Y6700D02*
X34050Y7500D01*
X34050Y7500D02*
X34050Y9300D01*
X34050Y4100D02*
X34000Y4050D01*
X34000Y4050D02*
X34000Y900D01*
X34000Y900D02*
X33987Y900D01*
X3579Y4500D02*
X6611Y4627D01*
X11187Y1100D02*
X11200Y1100D01*
X11200Y1100D02*
X12050Y1950D01*
X5575Y5900D02*
X5600Y5900D01*
X5600Y5900D02*
X6500Y6800D01*
X6500Y6800D02*
X6500Y7350D01*
X6500Y7350D02*
X6550Y7400D01*
X6550Y7400D02*
X6550Y7450D01*
X6550Y7450D02*
X6600Y7500D01*
X6600Y7500D02*
X6600Y7550D01*
X6600Y7550D02*
X9250Y10200D01*
X9250Y10200D02*
X9250Y11150D01*
X10050Y11950D02*
X10050Y15750D01*
X10050Y15750D02*
X10069Y15763D01*
X6611Y4627D02*
X6600Y4650D01*
X6600Y4650D02*
X7000Y4250D01*
X7000Y4250D02*
X7000Y4050D01*
X7000Y4050D02*
X7700Y3350D01*
X10600Y1700D02*
X11200Y1100D01*
X11200Y1100D02*
X11187Y1100D01*
X3579Y4500D02*
X3600Y4500D01*
X3600Y4500D02*
X2300Y3200D01*
X2300Y3200D02*
X2300Y1500D01*
X5575Y5900D02*
X5750Y5900D01*
X5750Y5900D02*
X6600Y5050D01*
X6600Y5050D02*
X6600Y4650D01*
X6600Y4650D02*
X6611Y4627D01*
X6611Y4627D02*
X6600Y4650D01*
X3600Y4500D02*
X3579Y4500D01*
X29000Y13200D02*
X29010Y13770D01*
X30110Y20680D02*
X29400Y21013D01*
X30110Y18185D02*
X30110Y20680D01*
X29780Y17870D02*
X30110Y18185D01*
X29010Y13770D02*
X29780Y17870D01*
X27720Y10400D02*
X27717Y10922D01*
X28970Y12539D02*
X29000Y13200D01*
X27717Y10922D02*
X28970Y12539D01*
X27720Y10400D02*
X27724Y9788D01*
X27724Y9788D02*
X27925Y9000D01*
X29400Y21000D02*
X29400Y21013D01*
X27925Y9000D02*
X27950Y9000D01*
X27950Y9000D02*
X27100Y8150D01*
X27100Y8150D02*
X27100Y7100D01*
X27100Y7100D02*
X27050Y7050D01*
X27050Y7050D02*
X27050Y6950D01*
X27050Y6950D02*
X26800Y6700D01*
X26800Y6700D02*
X26800Y4800D01*
X29400Y21013D02*
X29400Y21000D01*
X29400Y21000D02*
X28200Y21000D01*
X28200Y21000D02*
X28200Y21013D01*
X38058Y14412D02*
X37460Y14440D01*
X32330Y9650D02*
X30860Y5270D01*
X34680Y13430D02*
X32330Y9650D01*
X36430Y14900D02*
X34680Y13430D01*
X37270Y14680D02*
X36430Y14900D01*
X37460Y14440D02*
X37270Y14680D01*
X30280Y13200D02*
X30787Y13193D01*
X37325Y13919D02*
X38058Y13900D01*
X36923Y14015D02*
X37325Y13919D01*
X30020Y13200D02*
X30030Y13620D01*
X37380Y14170D02*
X38058Y14156D01*
X37140Y14350D02*
X37380Y14170D01*
X36550Y14380D02*
X37140Y14350D01*
X30260Y13800D02*
X30760Y13800D01*
X30030Y13620D02*
X30260Y13800D01*
X15400Y5475D02*
X18440Y6575D01*
X19265Y6665D02*
X20000Y7209D01*
X18440Y6575D02*
X19265Y6665D01*
X13200Y5500D02*
X15400Y5475D01*
X15400Y5450D02*
X15400Y5475D01*
X15400Y5475D02*
X15400Y5450D01*
X13200Y2900D02*
X15400Y3475D01*
X15400Y3475D02*
X17900Y6005D01*
X17900Y6005D02*
X20420Y6560D01*
X20420Y6560D02*
X21000Y7209D01*
X19861Y15763D02*
X19850Y15750D01*
X19850Y15750D02*
X12700Y8600D01*
X12700Y8600D02*
X12700Y5400D01*
X12700Y5400D02*
X12650Y5350D01*
X12650Y5350D02*
X12650Y5250D01*
X12650Y5250D02*
X12200Y4800D01*
X12200Y4800D02*
X12200Y2900D01*
X12200Y5500D02*
X11500Y6200D01*
X11500Y6200D02*
X11500Y7350D01*
X11500Y7350D02*
X11450Y7400D01*
X11450Y7400D02*
X11450Y7450D01*
X11450Y7450D02*
X11400Y7500D01*
X11400Y7500D02*
X11400Y7550D01*
X11400Y7550D02*
X10750Y8200D01*
X10750Y8200D02*
X10750Y10600D01*
X10750Y10600D02*
X10700Y10650D01*
X10700Y10650D02*
X10700Y10700D01*
X10700Y10700D02*
X9150Y12250D01*
X9150Y12250D02*
X9150Y12900D01*
X9150Y12900D02*
X8900Y13150D01*
X8900Y13150D02*
X8900Y13250D01*
X8050Y14100D02*
X8050Y15750D01*
X8050Y15750D02*
X8061Y15763D01*
X8000Y7209D02*
X8462Y8132D01*
X27970Y10400D02*
X27966Y10864D01*
X31820Y17705D02*
X32608Y18292D01*
X31413Y12742D02*
X31820Y17705D01*
X27966Y10864D02*
X28755Y11294D01*
X28755Y11294D02*
X31413Y12742D01*
X28490Y13200D02*
X28496Y13652D01*
X28496Y13652D02*
X29400Y18525D01*
X26950Y10400D02*
X26950Y10850D01*
X26950Y10850D02*
X27000Y10900D01*
X27000Y10900D02*
X27000Y12450D01*
X26950Y10400D02*
X26500Y9950D01*
X28230Y13200D02*
X28235Y13715D01*
X28235Y13715D02*
X28200Y18525D01*
G54D39*
X27800Y1700D02*
X30506Y6240D01*
X30506Y6240D02*
X32607Y16291D01*
G54D11*
X32607Y16291D02*
X32600Y16300D01*
X32607Y16291D02*
X32600Y16300D01*
X32600Y16300D02*
X32600Y17300D01*
X32600Y17300D02*
X32608Y17292D01*
X8479Y12500D02*
X8500Y12500D01*
X8500Y12500D02*
X10500Y10500D01*
X10500Y10500D02*
X10500Y7100D01*
X10500Y7100D02*
X10550Y7050D01*
X10550Y7050D02*
X10550Y6950D01*
X10550Y6950D02*
X11200Y6300D01*
X11200Y6300D02*
X11200Y5500D01*
X8731Y15763D02*
X8750Y15750D01*
X8750Y15750D02*
X9000Y15500D01*
X9000Y15500D02*
X9000Y14850D01*
X9000Y14850D02*
X9200Y14650D01*
X20050Y14650D02*
X20550Y15150D01*
X20550Y15150D02*
X20550Y15750D01*
X20550Y15750D02*
X20531Y15763D01*
X20531Y15763D02*
X20550Y15750D01*
X20550Y15750D02*
X20800Y15500D01*
X20800Y15500D02*
X20800Y14850D01*
X20800Y14850D02*
X21800Y13850D01*
X21800Y13850D02*
X21800Y12400D01*
X21800Y12400D02*
X21779Y12400D01*
X8731Y15763D02*
X8750Y15750D01*
X8750Y15750D02*
X8500Y15500D01*
X8500Y15500D02*
X8500Y12500D01*
X8500Y12500D02*
X8479Y12500D01*
X11200Y5500D02*
X11200Y2900D01*
X37200Y26300D02*
X38200Y25300D01*
X38200Y25300D02*
X38200Y24213D01*
X18757Y1900D02*
X16360Y1660D01*
X15400Y4725D02*
X14489Y4433D01*
X14489Y4433D02*
X14480Y4430D01*
X21200Y15763D02*
X21200Y16780D01*
X9400Y15763D02*
X9450Y16870D01*
X38058Y13644D02*
X38058Y13388D01*
X38058Y13388D02*
X38019Y12955D01*
X28675Y9000D02*
X29210Y9650D01*
X27720Y13200D02*
X27720Y12610D01*
X27720Y12610D02*
X28450Y12540D01*
X27460Y13200D02*
X27720Y13200D01*
X27460Y13200D02*
X27460Y14000D01*
X28740Y13200D02*
X28730Y12690D01*
X28730Y12690D02*
X28450Y12540D01*
X29570Y12560D02*
X29510Y13200D01*
X28490Y10400D02*
X28490Y9700D01*
X39200Y12286D02*
X39279Y13349D01*
X29780Y13200D02*
X29775Y13687D01*
X29775Y13687D02*
X30200Y15425D01*
X28200Y19275D02*
X28200Y20187D01*
X38200Y23387D02*
X38200Y23400D01*
X38200Y23400D02*
X37100Y23400D01*
X37100Y23400D02*
X37000Y23300D01*
X37000Y23300D02*
X37000Y23325D01*
X29400Y19275D02*
X29400Y20187D01*
X35725Y900D02*
X34813Y900D01*
X12013Y1100D02*
X13425Y1100D01*
X28114Y23135D02*
X28114Y26265D01*
X28114Y23135D02*
X28715Y23135D01*
X28715Y23135D02*
X29000Y23420D01*
X28114Y26265D02*
X26000Y26209D01*
X28114Y26265D02*
X28100Y26250D01*
X29000Y25980D02*
X29000Y26000D01*
X29000Y26000D02*
X28350Y26000D01*
X28350Y26000D02*
X28100Y26250D01*
X28100Y26250D02*
X28114Y26265D01*
G54D10*
G36*
X10742Y2310D02*
X10723Y2317D01*
X10478Y2317D01*
X10251Y2223D01*
X10077Y2050D01*
X10007Y1881D01*
X10007Y2312D01*
X9940Y2474D01*
X9816Y2598D01*
X9654Y2666D01*
X9479Y2666D01*
X8131Y2666D01*
X7969Y2599D01*
X7845Y2475D01*
X7777Y2313D01*
X7777Y2138D01*
X7777Y1488D01*
X7844Y1326D01*
X7968Y1202D01*
X8130Y1134D01*
X8305Y1134D01*
X9653Y1134D01*
X9815Y1201D01*
X9939Y1325D01*
X10007Y1487D01*
X10007Y1521D01*
X10077Y1351D01*
X10250Y1177D01*
X10477Y1083D01*
X10507Y1083D01*
X10510Y1080D01*
X10510Y777D01*
X10577Y615D01*
X10676Y516D01*
X6624Y516D01*
X6624Y1487D01*
X6624Y1662D01*
X6624Y2312D01*
X6557Y2474D01*
X6433Y2598D01*
X6271Y2666D01*
X6096Y2666D01*
X4746Y2666D01*
X4584Y2599D01*
X4460Y2475D01*
X4392Y2313D01*
X4392Y2138D01*
X4392Y1488D01*
X4459Y1326D01*
X4583Y1202D01*
X4745Y1134D01*
X4920Y1134D01*
X6270Y1134D01*
X6432Y1201D01*
X6556Y1325D01*
X6624Y1487D01*
X6624Y516D01*
X1250Y516D01*
X1250Y1012D01*
X1250Y1450D01*
X1250Y1550D01*
X1250Y1988D01*
X1188Y2050D01*
X951Y2049D01*
X859Y2011D01*
X789Y1941D01*
X751Y1850D01*
X751Y1751D01*
X750Y1612D01*
X812Y1550D01*
X1250Y1550D01*
X1250Y1450D01*
X812Y1450D01*
X750Y1388D01*
X751Y1249D01*
X751Y1150D01*
X789Y1059D01*
X859Y989D01*
X951Y951D01*
X1188Y950D01*
X1250Y1012D01*
X1250Y516D01*
X516Y516D01*
X516Y4166D01*
X517Y4163D01*
X587Y4093D01*
X679Y4055D01*
X1108Y4054D01*
X1170Y4116D01*
X1170Y4400D01*
X1170Y4450D01*
X1170Y4550D01*
X1170Y4600D01*
X1170Y4884D01*
X1108Y4946D01*
X679Y4945D01*
X587Y4907D01*
X517Y4837D01*
X516Y4835D01*
X516Y6645D01*
X579Y6581D01*
X852Y6468D01*
X1147Y6467D01*
X1419Y6580D01*
X1499Y6661D01*
X1579Y6581D01*
X1852Y6468D01*
X2147Y6467D01*
X2419Y6580D01*
X2553Y6715D01*
X2596Y6612D01*
X2895Y6312D01*
X3287Y6149D01*
X3711Y6149D01*
X4103Y6311D01*
X4403Y6610D01*
X4446Y6715D01*
X4579Y6581D01*
X4852Y6468D01*
X5069Y6468D01*
X5027Y6425D01*
X5026Y6425D01*
X4937Y6425D01*
X4875Y6363D01*
X4875Y6000D01*
X4875Y5950D01*
X4875Y5850D01*
X4875Y5800D01*
X4875Y5437D01*
X4937Y5375D01*
X5026Y5376D01*
X5150Y5252D01*
X5312Y5184D01*
X5487Y5184D01*
X5756Y5184D01*
X5842Y5098D01*
X4775Y5054D01*
X4775Y5437D01*
X4775Y5850D01*
X4775Y5950D01*
X4775Y6363D01*
X4713Y6425D01*
X4601Y6424D01*
X4509Y6386D01*
X4439Y6316D01*
X4401Y6225D01*
X4401Y6126D01*
X4400Y6012D01*
X4462Y5950D01*
X4775Y5950D01*
X4775Y5850D01*
X4462Y5850D01*
X4400Y5788D01*
X4401Y5674D01*
X4401Y5575D01*
X4439Y5484D01*
X4509Y5414D01*
X4601Y5376D01*
X4713Y5375D01*
X4775Y5437D01*
X4775Y5054D01*
X4354Y5036D01*
X4321Y5069D01*
X4159Y5137D01*
X3984Y5137D01*
X3000Y5137D01*
X2838Y5070D01*
X2714Y4946D01*
X2646Y4784D01*
X2646Y4609D01*
X2646Y4256D01*
X1962Y3572D01*
X1962Y4388D01*
X1962Y4612D01*
X1961Y4647D01*
X1961Y4746D01*
X1923Y4837D01*
X1853Y4907D01*
X1761Y4945D01*
X1332Y4946D01*
X1270Y4884D01*
X1270Y4550D01*
X1900Y4550D01*
X1962Y4612D01*
X1962Y4388D01*
X1900Y4450D01*
X1270Y4450D01*
X1270Y4116D01*
X1332Y4054D01*
X1761Y4055D01*
X1853Y4093D01*
X1923Y4163D01*
X1961Y4254D01*
X1961Y4353D01*
X1962Y4388D01*
X1962Y3572D01*
X1945Y3555D01*
X1836Y3392D01*
X1798Y3200D01*
X1798Y2047D01*
X1751Y2001D01*
X1741Y2011D01*
X1649Y2049D01*
X1412Y2050D01*
X1350Y1988D01*
X1350Y1600D01*
X1350Y1550D01*
X1350Y1450D01*
X1350Y1400D01*
X1350Y1012D01*
X1412Y950D01*
X1649Y951D01*
X1741Y989D01*
X1751Y1000D01*
X1879Y872D01*
X2152Y759D01*
X2447Y758D01*
X2719Y871D01*
X2928Y1079D01*
X3041Y1352D01*
X3042Y1647D01*
X2929Y1919D01*
X2802Y2047D01*
X2802Y2992D01*
X3673Y3863D01*
X4158Y3863D01*
X4320Y3930D01*
X4422Y4033D01*
X5920Y4096D01*
X5920Y3966D01*
X5987Y3804D01*
X6111Y3680D01*
X6273Y3612D01*
X6448Y3612D01*
X6728Y3612D01*
X7083Y3257D01*
X7083Y3228D01*
X7177Y3001D01*
X7350Y2827D01*
X7577Y2733D01*
X7822Y2733D01*
X8049Y2827D01*
X8223Y3000D01*
X8317Y3227D01*
X8317Y3472D01*
X8223Y3699D01*
X8109Y3813D01*
X8180Y3842D01*
X8250Y3912D01*
X8288Y4003D01*
X8288Y4102D01*
X8289Y4515D01*
X8289Y4739D01*
X8288Y5152D01*
X8288Y5251D01*
X8250Y5342D01*
X8180Y5412D01*
X8088Y5450D01*
X7901Y5451D01*
X7839Y5389D01*
X7839Y4677D01*
X8227Y4677D01*
X8289Y4739D01*
X8289Y4515D01*
X8227Y4577D01*
X7889Y4577D01*
X7839Y4577D01*
X7739Y4577D01*
X7739Y4677D01*
X7739Y4727D01*
X7739Y5389D01*
X7677Y5451D01*
X7490Y5450D01*
X7398Y5412D01*
X7328Y5342D01*
X7302Y5280D01*
X7302Y5288D01*
X7235Y5450D01*
X7111Y5574D01*
X6949Y5642D01*
X6774Y5642D01*
X6718Y5642D01*
X6385Y5975D01*
X6854Y6444D01*
X6854Y6445D01*
X6855Y6445D01*
X6870Y6468D01*
X7147Y6467D01*
X7419Y6580D01*
X7499Y6661D01*
X7579Y6581D01*
X7852Y6468D01*
X8147Y6467D01*
X8419Y6580D01*
X8499Y6661D01*
X8579Y6581D01*
X8852Y6468D01*
X9147Y6467D01*
X9419Y6580D01*
X9499Y6661D01*
X9579Y6581D01*
X9852Y6468D01*
X10147Y6467D01*
X10271Y6519D01*
X10698Y6092D01*
X10698Y6047D01*
X10572Y5921D01*
X10459Y5648D01*
X10458Y5353D01*
X10571Y5081D01*
X10698Y4954D01*
X10698Y3447D01*
X10572Y3321D01*
X10459Y3048D01*
X10458Y2753D01*
X10571Y2481D01*
X10742Y2310D01*
X10742Y2310D01*
G37*
G54D40*
X10742Y2310D02*
X10723Y2317D01*
X10478Y2317D01*
X10251Y2223D01*
X10077Y2050D01*
X10007Y1881D01*
X10007Y2312D01*
X9940Y2474D01*
X9816Y2598D01*
X9654Y2666D01*
X9479Y2666D01*
X8131Y2666D01*
X7969Y2599D01*
X7845Y2475D01*
X7777Y2313D01*
X7777Y2138D01*
X7777Y1488D01*
X7844Y1326D01*
X7968Y1202D01*
X8130Y1134D01*
X8305Y1134D01*
X9653Y1134D01*
X9815Y1201D01*
X9939Y1325D01*
X10007Y1487D01*
X10007Y1521D01*
X10077Y1351D01*
X10250Y1177D01*
X10477Y1083D01*
X10507Y1083D01*
X10510Y1080D01*
X10510Y777D01*
X10577Y615D01*
X10676Y516D01*
X6624Y516D01*
X6624Y1487D01*
X6624Y1662D01*
X6624Y2312D01*
X6557Y2474D01*
X6433Y2598D01*
X6271Y2666D01*
X6096Y2666D01*
X4746Y2666D01*
X4584Y2599D01*
X4460Y2475D01*
X4392Y2313D01*
X4392Y2138D01*
X4392Y1488D01*
X4459Y1326D01*
X4583Y1202D01*
X4745Y1134D01*
X4920Y1134D01*
X6270Y1134D01*
X6432Y1201D01*
X6556Y1325D01*
X6624Y1487D01*
X6624Y516D01*
X1250Y516D01*
X1250Y1012D01*
X1250Y1450D01*
X1250Y1550D01*
X1250Y1988D01*
X1188Y2050D01*
X951Y2049D01*
X859Y2011D01*
X789Y1941D01*
X751Y1850D01*
X751Y1751D01*
X750Y1612D01*
X812Y1550D01*
X1250Y1550D01*
X1250Y1450D01*
X812Y1450D01*
X750Y1388D01*
X751Y1249D01*
X751Y1150D01*
X789Y1059D01*
X859Y989D01*
X951Y951D01*
X1188Y950D01*
X1250Y1012D01*
X1250Y516D01*
X516Y516D01*
X516Y4166D01*
X517Y4163D01*
X587Y4093D01*
X679Y4055D01*
X1108Y4054D01*
X1170Y4116D01*
X1170Y4400D01*
X1170Y4450D01*
X1170Y4550D01*
X1170Y4600D01*
X1170Y4884D01*
X1108Y4946D01*
X679Y4945D01*
X587Y4907D01*
X517Y4837D01*
X516Y4835D01*
X516Y6645D01*
X579Y6581D01*
X852Y6468D01*
X1147Y6467D01*
X1419Y6580D01*
X1499Y6661D01*
X1579Y6581D01*
X1852Y6468D01*
X2147Y6467D01*
X2419Y6580D01*
X2553Y6715D01*
X2596Y6612D01*
X2895Y6312D01*
X3287Y6149D01*
X3711Y6149D01*
X4103Y6311D01*
X4403Y6610D01*
X4446Y6715D01*
X4579Y6581D01*
X4852Y6468D01*
X5069Y6468D01*
X5027Y6425D01*
X5026Y6425D01*
X4937Y6425D01*
X4875Y6363D01*
X4875Y6000D01*
X4875Y5950D01*
X4875Y5850D01*
X4875Y5800D01*
X4875Y5437D01*
X4937Y5375D01*
X5026Y5376D01*
X5150Y5252D01*
X5312Y5184D01*
X5487Y5184D01*
X5756Y5184D01*
X5842Y5098D01*
X4775Y5054D01*
X4775Y5437D01*
X4775Y5850D01*
X4775Y5950D01*
X4775Y6363D01*
X4713Y6425D01*
X4601Y6424D01*
X4509Y6386D01*
X4439Y6316D01*
X4401Y6225D01*
X4401Y6126D01*
X4400Y6012D01*
X4462Y5950D01*
X4775Y5950D01*
X4775Y5850D01*
X4462Y5850D01*
X4400Y5788D01*
X4401Y5674D01*
X4401Y5575D01*
X4439Y5484D01*
X4509Y5414D01*
X4601Y5376D01*
X4713Y5375D01*
X4775Y5437D01*
X4775Y5054D01*
X4354Y5036D01*
X4321Y5069D01*
X4159Y5137D01*
X3984Y5137D01*
X3000Y5137D01*
X2838Y5070D01*
X2714Y4946D01*
X2646Y4784D01*
X2646Y4609D01*
X2646Y4256D01*
X1962Y3572D01*
X1962Y4388D01*
X1962Y4612D01*
X1961Y4647D01*
X1961Y4746D01*
X1923Y4837D01*
X1853Y4907D01*
X1761Y4945D01*
X1332Y4946D01*
X1270Y4884D01*
X1270Y4550D01*
X1900Y4550D01*
X1962Y4612D01*
X1962Y4388D01*
X1900Y4450D01*
X1270Y4450D01*
X1270Y4116D01*
X1332Y4054D01*
X1761Y4055D01*
X1853Y4093D01*
X1923Y4163D01*
X1961Y4254D01*
X1961Y4353D01*
X1962Y4388D01*
X1962Y3572D01*
X1945Y3555D01*
X1836Y3392D01*
X1798Y3200D01*
X1798Y2047D01*
X1751Y2001D01*
X1741Y2011D01*
X1649Y2049D01*
X1412Y2050D01*
X1350Y1988D01*
X1350Y1600D01*
X1350Y1550D01*
X1350Y1450D01*
X1350Y1400D01*
X1350Y1012D01*
X1412Y950D01*
X1649Y951D01*
X1741Y989D01*
X1751Y1000D01*
X1879Y872D01*
X2152Y759D01*
X2447Y758D01*
X2719Y871D01*
X2928Y1079D01*
X3041Y1352D01*
X3042Y1647D01*
X2929Y1919D01*
X2802Y2047D01*
X2802Y2992D01*
X3673Y3863D01*
X4158Y3863D01*
X4320Y3930D01*
X4422Y4033D01*
X5920Y4096D01*
X5920Y3966D01*
X5987Y3804D01*
X6111Y3680D01*
X6273Y3612D01*
X6448Y3612D01*
X6728Y3612D01*
X7083Y3257D01*
X7083Y3228D01*
X7177Y3001D01*
X7350Y2827D01*
X7577Y2733D01*
X7822Y2733D01*
X8049Y2827D01*
X8223Y3000D01*
X8317Y3227D01*
X8317Y3472D01*
X8223Y3699D01*
X8109Y3813D01*
X8180Y3842D01*
X8250Y3912D01*
X8288Y4003D01*
X8288Y4102D01*
X8289Y4515D01*
X8289Y4739D01*
X8288Y5152D01*
X8288Y5251D01*
X8250Y5342D01*
X8180Y5412D01*
X8088Y5450D01*
X7901Y5451D01*
X7839Y5389D01*
X7839Y4677D01*
X8227Y4677D01*
X8289Y4739D01*
X8289Y4515D01*
X8227Y4577D01*
X7889Y4577D01*
X7839Y4577D01*
X7739Y4577D01*
X7739Y4677D01*
X7739Y4727D01*
X7739Y5389D01*
X7677Y5451D01*
X7490Y5450D01*
X7398Y5412D01*
X7328Y5342D01*
X7302Y5280D01*
X7302Y5288D01*
X7235Y5450D01*
X7111Y5574D01*
X6949Y5642D01*
X6774Y5642D01*
X6718Y5642D01*
X6385Y5975D01*
X6854Y6444D01*
X6854Y6445D01*
X6855Y6445D01*
X6870Y6468D01*
X7147Y6467D01*
X7419Y6580D01*
X7499Y6661D01*
X7579Y6581D01*
X7852Y6468D01*
X8147Y6467D01*
X8419Y6580D01*
X8499Y6661D01*
X8579Y6581D01*
X8852Y6468D01*
X9147Y6467D01*
X9419Y6580D01*
X9499Y6661D01*
X9579Y6581D01*
X9852Y6468D01*
X10147Y6467D01*
X10271Y6519D01*
X10698Y6092D01*
X10698Y6047D01*
X10572Y5921D01*
X10459Y5648D01*
X10458Y5353D01*
X10571Y5081D01*
X10698Y4954D01*
X10698Y3447D01*
X10572Y3321D01*
X10459Y3048D01*
X10458Y2753D01*
X10571Y2481D01*
X10742Y2310D01*
G54D10*
G36*
X16559Y5361D02*
X15872Y4666D01*
X15863Y4675D01*
X15450Y4675D01*
X15450Y4362D01*
X15510Y4302D01*
X15350Y4139D01*
X15350Y4362D01*
X15350Y4675D01*
X14937Y4675D01*
X14875Y4613D01*
X14876Y4501D01*
X14914Y4409D01*
X14984Y4339D01*
X15075Y4301D01*
X15174Y4301D01*
X15288Y4300D01*
X15350Y4362D01*
X15350Y4139D01*
X15303Y4091D01*
X15038Y4091D01*
X14876Y4024D01*
X14752Y3900D01*
X14715Y3814D01*
X13758Y3565D01*
X13750Y3573D01*
X13588Y3641D01*
X13413Y3641D01*
X12813Y3641D01*
X12702Y3596D01*
X12702Y4592D01*
X12869Y4759D01*
X12987Y4759D01*
X13587Y4759D01*
X13749Y4826D01*
X13873Y4950D01*
X13889Y4990D01*
X14824Y4978D01*
X14875Y4927D01*
X14875Y4837D01*
X14937Y4775D01*
X15300Y4775D01*
X15350Y4775D01*
X15450Y4775D01*
X15500Y4775D01*
X15863Y4775D01*
X15925Y4837D01*
X15924Y4926D01*
X15924Y4927D01*
X16048Y5050D01*
X16110Y5199D01*
X16559Y5361D01*
X16559Y5361D01*
G37*
G54D40*
X16559Y5361D02*
X15872Y4666D01*
X15863Y4675D01*
X15450Y4675D01*
X15450Y4362D01*
X15510Y4302D01*
X15350Y4139D01*
X15350Y4362D01*
X15350Y4675D01*
X14937Y4675D01*
X14875Y4613D01*
X14876Y4501D01*
X14914Y4409D01*
X14984Y4339D01*
X15075Y4301D01*
X15174Y4301D01*
X15288Y4300D01*
X15350Y4362D01*
X15350Y4139D01*
X15303Y4091D01*
X15038Y4091D01*
X14876Y4024D01*
X14752Y3900D01*
X14715Y3814D01*
X13758Y3565D01*
X13750Y3573D01*
X13588Y3641D01*
X13413Y3641D01*
X12813Y3641D01*
X12702Y3596D01*
X12702Y4592D01*
X12869Y4759D01*
X12987Y4759D01*
X13587Y4759D01*
X13749Y4826D01*
X13873Y4950D01*
X13889Y4990D01*
X14824Y4978D01*
X14875Y4927D01*
X14875Y4837D01*
X14937Y4775D01*
X15300Y4775D01*
X15350Y4775D01*
X15450Y4775D01*
X15500Y4775D01*
X15863Y4775D01*
X15925Y4837D01*
X15924Y4926D01*
X15924Y4927D01*
X16048Y5050D01*
X16110Y5199D01*
X16559Y5361D01*
G54D10*
G36*
X30762Y9971D02*
X30557Y8987D01*
X30557Y9142D01*
X30463Y9369D01*
X30290Y9543D01*
X30063Y9637D01*
X29818Y9637D01*
X29591Y9543D01*
X29417Y9370D01*
X29323Y9143D01*
X29323Y8898D01*
X29417Y8671D01*
X29590Y8497D01*
X29817Y8403D01*
X30062Y8403D01*
X30289Y8497D01*
X30463Y8670D01*
X30519Y8806D01*
X30258Y7558D01*
X30229Y7628D01*
X30021Y7837D01*
X29748Y7950D01*
X29453Y7951D01*
X29181Y7838D01*
X29100Y7758D01*
X29100Y8888D01*
X29100Y9112D01*
X29099Y9226D01*
X29099Y9325D01*
X29061Y9416D01*
X28991Y9486D01*
X28899Y9524D01*
X28787Y9525D01*
X28725Y9463D01*
X28725Y9050D01*
X29038Y9050D01*
X29100Y9112D01*
X29100Y8888D01*
X29038Y8950D01*
X28725Y8950D01*
X28725Y8537D01*
X28787Y8475D01*
X28899Y8476D01*
X28991Y8514D01*
X29061Y8584D01*
X29099Y8675D01*
X29099Y8774D01*
X29100Y8888D01*
X29100Y7758D01*
X29021Y7837D01*
X28748Y7950D01*
X28453Y7951D01*
X28181Y7838D01*
X28100Y7758D01*
X28021Y7837D01*
X27748Y7950D01*
X27610Y7951D01*
X27944Y8284D01*
X28187Y8284D01*
X28349Y8351D01*
X28473Y8475D01*
X28473Y8476D01*
X28563Y8475D01*
X28625Y8537D01*
X28625Y8900D01*
X28625Y8950D01*
X28625Y9050D01*
X28625Y9100D01*
X28625Y9463D01*
X28563Y9525D01*
X28473Y9525D01*
X28350Y9648D01*
X28268Y9683D01*
X28261Y9709D01*
X28397Y9709D01*
X28485Y9746D01*
X28572Y9709D01*
X28747Y9709D01*
X28832Y9709D01*
X28907Y9709D01*
X29007Y9709D01*
X29082Y9709D01*
X29167Y9709D01*
X29257Y9709D01*
X29342Y9709D01*
X29417Y9709D01*
X29517Y9709D01*
X29602Y9709D01*
X29677Y9709D01*
X29777Y9709D01*
X29852Y9709D01*
X29937Y9709D01*
X30027Y9709D01*
X30112Y9709D01*
X30187Y9709D01*
X30287Y9709D01*
X30447Y9709D01*
X30609Y9776D01*
X30733Y9900D01*
X30762Y9971D01*
X30762Y9971D01*
G37*
G54D40*
X30762Y9971D02*
X30557Y8987D01*
X30557Y9142D01*
X30463Y9369D01*
X30290Y9543D01*
X30063Y9637D01*
X29818Y9637D01*
X29591Y9543D01*
X29417Y9370D01*
X29323Y9143D01*
X29323Y8898D01*
X29417Y8671D01*
X29590Y8497D01*
X29817Y8403D01*
X30062Y8403D01*
X30289Y8497D01*
X30463Y8670D01*
X30519Y8806D01*
X30258Y7558D01*
X30229Y7628D01*
X30021Y7837D01*
X29748Y7950D01*
X29453Y7951D01*
X29181Y7838D01*
X29100Y7758D01*
X29100Y8888D01*
X29100Y9112D01*
X29099Y9226D01*
X29099Y9325D01*
X29061Y9416D01*
X28991Y9486D01*
X28899Y9524D01*
X28787Y9525D01*
X28725Y9463D01*
X28725Y9050D01*
X29038Y9050D01*
X29100Y9112D01*
X29100Y8888D01*
X29038Y8950D01*
X28725Y8950D01*
X28725Y8537D01*
X28787Y8475D01*
X28899Y8476D01*
X28991Y8514D01*
X29061Y8584D01*
X29099Y8675D01*
X29099Y8774D01*
X29100Y8888D01*
X29100Y7758D01*
X29021Y7837D01*
X28748Y7950D01*
X28453Y7951D01*
X28181Y7838D01*
X28100Y7758D01*
X28021Y7837D01*
X27748Y7950D01*
X27610Y7951D01*
X27944Y8284D01*
X28187Y8284D01*
X28349Y8351D01*
X28473Y8475D01*
X28473Y8476D01*
X28563Y8475D01*
X28625Y8537D01*
X28625Y8900D01*
X28625Y8950D01*
X28625Y9050D01*
X28625Y9100D01*
X28625Y9463D01*
X28563Y9525D01*
X28473Y9525D01*
X28350Y9648D01*
X28268Y9683D01*
X28261Y9709D01*
X28397Y9709D01*
X28485Y9746D01*
X28572Y9709D01*
X28747Y9709D01*
X28832Y9709D01*
X28907Y9709D01*
X29007Y9709D01*
X29082Y9709D01*
X29167Y9709D01*
X29257Y9709D01*
X29342Y9709D01*
X29417Y9709D01*
X29517Y9709D01*
X29602Y9709D01*
X29677Y9709D01*
X29777Y9709D01*
X29852Y9709D01*
X29937Y9709D01*
X30027Y9709D01*
X30112Y9709D01*
X30187Y9709D01*
X30287Y9709D01*
X30447Y9709D01*
X30609Y9776D01*
X30733Y9900D01*
X30762Y9971D01*
G54D10*
G36*
X39338Y13900D02*
X39329Y13891D01*
X39329Y13449D01*
X39329Y13399D01*
X39329Y13299D01*
X39229Y13299D01*
X39229Y13399D01*
X39229Y13449D01*
X39229Y13891D01*
X39220Y13900D01*
X39229Y13909D01*
X39229Y14351D01*
X39229Y14401D01*
X39229Y14501D01*
X39329Y14501D01*
X39329Y14401D01*
X39329Y14351D01*
X39329Y13909D01*
X39338Y13900D01*
X39338Y13900D01*
G37*
G54D40*
X39338Y13900D02*
X39329Y13891D01*
X39329Y13449D01*
X39329Y13399D01*
X39329Y13299D01*
X39229Y13299D01*
X39229Y13399D01*
X39229Y13449D01*
X39229Y13891D01*
X39220Y13900D01*
X39229Y13909D01*
X39229Y14351D01*
X39229Y14401D01*
X39229Y14501D01*
X39329Y14501D01*
X39329Y14401D01*
X39329Y14351D01*
X39329Y13909D01*
X39338Y13900D01*
G54D10*
G36*
X39484Y16020D02*
X39312Y16020D01*
X39250Y15958D01*
X39250Y15614D01*
X39250Y15564D01*
X39250Y15464D01*
X39150Y15464D01*
X39150Y15564D01*
X39150Y15958D01*
X39088Y16020D01*
X38796Y16019D01*
X38697Y16019D01*
X38606Y15981D01*
X38536Y15911D01*
X38498Y15819D01*
X38497Y15626D01*
X38559Y15564D01*
X39150Y15564D01*
X39150Y15464D01*
X39100Y15464D01*
X38559Y15464D01*
X38497Y15402D01*
X38497Y15270D01*
X38455Y15312D01*
X38364Y15350D01*
X38265Y15350D01*
X38131Y15351D01*
X38069Y15289D01*
X38069Y14945D01*
X38069Y14931D01*
X37969Y14931D01*
X37969Y14945D01*
X37969Y15289D01*
X37907Y15351D01*
X37773Y15350D01*
X37674Y15350D01*
X37583Y15312D01*
X37513Y15242D01*
X37475Y15150D01*
X37474Y15132D01*
X37448Y15141D01*
X37397Y15165D01*
X36557Y15386D01*
X36508Y15390D01*
X36474Y15399D01*
X36427Y15394D01*
X36362Y15398D01*
X36316Y15383D01*
X36279Y15378D01*
X36234Y15354D01*
X36177Y15333D01*
X36141Y15302D01*
X36108Y15283D01*
X34357Y13815D01*
X34286Y13727D01*
X34255Y13693D01*
X34238Y13667D01*
X34235Y13662D01*
X34234Y13660D01*
X31904Y9915D01*
X31875Y9841D01*
X31858Y9809D01*
X31638Y9156D01*
X32994Y15650D01*
X33026Y15662D01*
X33235Y15870D01*
X33348Y16143D01*
X33349Y16438D01*
X33236Y16710D01*
X33155Y16791D01*
X33236Y16871D01*
X33349Y17144D01*
X33350Y17439D01*
X33237Y17711D01*
X33156Y17792D01*
X33236Y17871D01*
X33349Y18144D01*
X33350Y18439D01*
X33237Y18711D01*
X33156Y18792D01*
X33236Y18871D01*
X33349Y19144D01*
X33350Y19439D01*
X33297Y19566D01*
X33312Y19559D01*
X33487Y19559D01*
X34087Y19559D01*
X34249Y19626D01*
X34373Y19750D01*
X34441Y19912D01*
X34441Y20087D01*
X34441Y20687D01*
X34374Y20849D01*
X34250Y20973D01*
X34088Y21041D01*
X33913Y21041D01*
X33313Y21041D01*
X33161Y20979D01*
X33151Y20974D01*
X33062Y20886D01*
X33029Y20920D01*
X33027Y20921D01*
X33074Y20967D01*
X33047Y20994D01*
X33088Y21006D01*
X33161Y21211D01*
X33161Y22211D01*
X33150Y22429D01*
X33088Y22578D01*
X32993Y22607D01*
X32923Y22537D01*
X32923Y22677D01*
X32894Y22772D01*
X32689Y22845D01*
X32471Y22834D01*
X32322Y22772D01*
X32296Y22687D01*
X32296Y24858D01*
X32175Y25150D01*
X31951Y25374D01*
X31659Y25495D01*
X31379Y25496D01*
X31379Y25885D01*
X31369Y26124D01*
X31297Y26300D01*
X31196Y26334D01*
X31126Y26264D01*
X30843Y25980D01*
X31196Y25626D01*
X31297Y25660D01*
X31379Y25885D01*
X31379Y25496D01*
X31342Y25496D01*
X31126Y25407D01*
X31050Y25375D01*
X30826Y25151D01*
X30705Y24859D01*
X30704Y24542D01*
X30825Y24250D01*
X31049Y24026D01*
X31341Y23905D01*
X31658Y23904D01*
X31950Y24025D01*
X32174Y24249D01*
X32295Y24541D01*
X32296Y24858D01*
X32296Y22687D01*
X32293Y22677D01*
X32608Y22363D01*
X32923Y22677D01*
X32923Y22537D01*
X32679Y22292D01*
X32993Y21977D01*
X33088Y22006D01*
X33161Y22211D01*
X33161Y21211D01*
X33150Y21429D01*
X33088Y21578D01*
X32993Y21607D01*
X32923Y21537D01*
X32923Y21677D01*
X32894Y21772D01*
X32842Y21791D01*
X32894Y21812D01*
X32923Y21907D01*
X32608Y22221D01*
X32537Y22151D01*
X32537Y22292D01*
X32223Y22607D01*
X32128Y22578D01*
X32055Y22373D01*
X32066Y22155D01*
X32128Y22006D01*
X32223Y21977D01*
X32537Y22292D01*
X32537Y22151D01*
X32293Y21907D01*
X32322Y21812D01*
X32373Y21794D01*
X32322Y21772D01*
X32293Y21677D01*
X32608Y21363D01*
X32923Y21677D01*
X32923Y21537D01*
X32679Y21292D01*
X32608Y21221D01*
X32537Y21292D01*
X32502Y21327D01*
X32223Y21607D01*
X32128Y21578D01*
X32055Y21373D01*
X32066Y21155D01*
X32128Y21006D01*
X32168Y20994D01*
X32142Y20967D01*
X32188Y20921D01*
X31980Y20713D01*
X31867Y20440D01*
X31866Y20145D01*
X31979Y19873D01*
X32059Y19793D01*
X31980Y19713D01*
X31867Y19440D01*
X31866Y19145D01*
X31979Y18873D01*
X32059Y18793D01*
X31980Y18713D01*
X31867Y18440D01*
X31866Y18366D01*
X31520Y18107D01*
X31507Y18094D01*
X31496Y18087D01*
X31451Y18032D01*
X31389Y17962D01*
X31383Y17946D01*
X31379Y17941D01*
X31379Y23325D01*
X31369Y23564D01*
X31297Y23740D01*
X31196Y23774D01*
X31126Y23704D01*
X30843Y23420D01*
X31196Y23066D01*
X31297Y23100D01*
X31379Y23325D01*
X31379Y17941D01*
X31374Y17934D01*
X31355Y17869D01*
X31323Y17777D01*
X31324Y17756D01*
X31321Y17745D01*
X31126Y15383D01*
X31126Y22996D01*
X30807Y23314D01*
X30772Y23349D01*
X30701Y23420D01*
X30772Y23491D01*
X30807Y23526D01*
X31126Y23844D01*
X31092Y23945D01*
X30867Y24027D01*
X30628Y24017D01*
X30452Y23945D01*
X30436Y23898D01*
X30409Y23925D01*
X30357Y23874D01*
X30353Y23886D01*
X30283Y23956D01*
X30192Y23994D01*
X30093Y23994D01*
X29998Y23995D01*
X29936Y23933D01*
X29936Y23235D01*
X29936Y23185D01*
X29936Y23085D01*
X29936Y23035D01*
X29936Y22337D01*
X29998Y22275D01*
X30093Y22276D01*
X30192Y22276D01*
X30283Y22314D01*
X30353Y22384D01*
X30391Y22476D01*
X30391Y22933D01*
X30409Y22915D01*
X30436Y22943D01*
X30452Y22895D01*
X30677Y22813D01*
X30916Y22823D01*
X31092Y22895D01*
X31126Y22996D01*
X31126Y15383D01*
X31041Y14352D01*
X30883Y14417D01*
X30638Y14417D01*
X30450Y14340D01*
X30565Y14811D01*
X30724Y14876D01*
X30848Y15000D01*
X30916Y15162D01*
X30916Y15337D01*
X30916Y15687D01*
X30849Y15849D01*
X30725Y15973D01*
X30724Y15974D01*
X30725Y16063D01*
X30725Y16287D01*
X30724Y16399D01*
X30686Y16491D01*
X30616Y16561D01*
X30525Y16599D01*
X30426Y16599D01*
X30312Y16600D01*
X30250Y16538D01*
X30250Y16225D01*
X30663Y16225D01*
X30725Y16287D01*
X30725Y16063D01*
X30663Y16125D01*
X30300Y16125D01*
X30250Y16125D01*
X30150Y16125D01*
X30150Y16225D01*
X30150Y16275D01*
X30150Y16538D01*
X30088Y16600D01*
X30050Y16600D01*
X30240Y17616D01*
X30456Y17822D01*
X30458Y17826D01*
X30465Y17830D01*
X30524Y17920D01*
X30569Y17982D01*
X30570Y17988D01*
X30574Y17993D01*
X30593Y18091D01*
X30612Y18174D01*
X30610Y18180D01*
X30612Y18185D01*
X30612Y20657D01*
X30612Y20680D01*
X30595Y20763D01*
X30582Y20851D01*
X30576Y20861D01*
X30574Y20872D01*
X30528Y20941D01*
X30481Y21019D01*
X30470Y21027D01*
X30465Y21035D01*
X30400Y21079D01*
X30323Y21135D01*
X30077Y21251D01*
X30077Y21336D01*
X30010Y21498D01*
X29886Y21622D01*
X29724Y21690D01*
X29549Y21690D01*
X29077Y21690D01*
X28915Y21623D01*
X28800Y21508D01*
X28686Y21622D01*
X28524Y21690D01*
X28349Y21690D01*
X27877Y21690D01*
X27715Y21623D01*
X27591Y21499D01*
X27523Y21337D01*
X27523Y21162D01*
X27523Y20690D01*
X27560Y20600D01*
X27523Y20511D01*
X27523Y20336D01*
X27523Y19864D01*
X27579Y19728D01*
X27552Y19700D01*
X27484Y19538D01*
X27484Y19363D01*
X27484Y19013D01*
X27530Y18900D01*
X27484Y18788D01*
X27484Y18613D01*
X27484Y18263D01*
X27551Y18101D01*
X27675Y17977D01*
X27701Y17966D01*
X27730Y13862D01*
X27641Y13824D01*
X27585Y13768D01*
X27530Y13823D01*
X27368Y13891D01*
X27193Y13891D01*
X27118Y13891D01*
X27033Y13891D01*
X26943Y13891D01*
X26783Y13891D01*
X26621Y13824D01*
X26497Y13700D01*
X26429Y13538D01*
X26429Y13363D01*
X26429Y12863D01*
X26466Y12774D01*
X26383Y12573D01*
X26383Y12328D01*
X26477Y12101D01*
X26498Y12080D01*
X26498Y11060D01*
X26486Y11042D01*
X26448Y10850D01*
X26448Y10784D01*
X26429Y10738D01*
X26429Y10589D01*
X26407Y10567D01*
X26378Y10567D01*
X26151Y10473D01*
X25977Y10300D01*
X25883Y10073D01*
X25883Y9828D01*
X25977Y9601D01*
X26112Y9465D01*
X25987Y9340D01*
X25893Y9113D01*
X25893Y8868D01*
X25987Y8641D01*
X26160Y8467D01*
X26387Y8373D01*
X26632Y8373D01*
X26666Y8388D01*
X26636Y8342D01*
X26598Y8150D01*
X26598Y7951D01*
X26453Y7951D01*
X26181Y7838D01*
X26100Y7758D01*
X26021Y7837D01*
X25748Y7950D01*
X25453Y7951D01*
X25181Y7838D01*
X25100Y7758D01*
X25021Y7837D01*
X24796Y7931D01*
X24796Y16635D01*
X24796Y16859D01*
X24795Y17189D01*
X24757Y17281D01*
X24687Y17351D01*
X24596Y17389D01*
X24497Y17389D01*
X24068Y17390D01*
X24006Y17328D01*
X24006Y16797D01*
X24734Y16797D01*
X24796Y16859D01*
X24796Y16635D01*
X24734Y16697D01*
X24006Y16697D01*
X24006Y16166D01*
X24068Y16104D01*
X24497Y16105D01*
X24596Y16105D01*
X24687Y16143D01*
X24757Y16213D01*
X24795Y16305D01*
X24796Y16635D01*
X24796Y7931D01*
X24748Y7950D01*
X24453Y7951D01*
X24181Y7838D01*
X24100Y7758D01*
X24021Y7837D01*
X23748Y7950D01*
X23453Y7951D01*
X23181Y7838D01*
X23100Y7758D01*
X23021Y7837D01*
X22748Y7950D01*
X22453Y7951D01*
X22181Y7838D01*
X21972Y7630D01*
X21859Y7357D01*
X21858Y7062D01*
X21971Y6790D01*
X22179Y6581D01*
X22452Y6468D01*
X22747Y6467D01*
X23019Y6580D01*
X23099Y6661D01*
X23179Y6581D01*
X23452Y6468D01*
X23747Y6467D01*
X24019Y6580D01*
X24099Y6661D01*
X24179Y6581D01*
X24452Y6468D01*
X24747Y6467D01*
X25019Y6580D01*
X25099Y6661D01*
X25179Y6581D01*
X25452Y6468D01*
X25747Y6467D01*
X26019Y6580D01*
X26099Y6661D01*
X26179Y6581D01*
X26298Y6532D01*
X26298Y5495D01*
X26188Y5541D01*
X26013Y5541D01*
X25413Y5541D01*
X25251Y5474D01*
X25127Y5350D01*
X25059Y5188D01*
X25059Y5013D01*
X25059Y4413D01*
X25126Y4251D01*
X25250Y4127D01*
X25412Y4059D01*
X25587Y4059D01*
X26187Y4059D01*
X26349Y4126D01*
X26390Y4168D01*
X26652Y4059D01*
X26947Y4058D01*
X27219Y4171D01*
X27299Y4252D01*
X27379Y4172D01*
X27652Y4059D01*
X27947Y4058D01*
X28219Y4171D01*
X28428Y4379D01*
X28541Y4652D01*
X28542Y4947D01*
X28429Y5219D01*
X28221Y5428D01*
X27948Y5541D01*
X27653Y5542D01*
X27381Y5429D01*
X27302Y5351D01*
X27302Y6492D01*
X27328Y6519D01*
X27452Y6468D01*
X27747Y6467D01*
X28019Y6580D01*
X28099Y6661D01*
X28179Y6581D01*
X28452Y6468D01*
X28747Y6467D01*
X29019Y6580D01*
X29099Y6661D01*
X29179Y6581D01*
X29452Y6468D01*
X29747Y6467D01*
X30019Y6580D01*
X30063Y6625D01*
X30022Y6430D01*
X27643Y2439D01*
X27381Y2329D01*
X27300Y2249D01*
X27221Y2328D01*
X26948Y2441D01*
X26653Y2442D01*
X26390Y2333D01*
X26350Y2373D01*
X26188Y2441D01*
X26013Y2441D01*
X25413Y2441D01*
X25251Y2374D01*
X25127Y2250D01*
X25059Y2088D01*
X25059Y1913D01*
X25059Y1313D01*
X25126Y1151D01*
X25250Y1027D01*
X25412Y959D01*
X25587Y959D01*
X26187Y959D01*
X26349Y1026D01*
X26390Y1068D01*
X26652Y959D01*
X26947Y958D01*
X27219Y1071D01*
X27299Y1152D01*
X27379Y1072D01*
X27652Y959D01*
X27947Y958D01*
X28219Y1071D01*
X28428Y1279D01*
X28541Y1552D01*
X28542Y1847D01*
X28518Y1905D01*
X30328Y4942D01*
X30337Y4921D01*
X30510Y4747D01*
X30737Y4653D01*
X30982Y4653D01*
X31209Y4747D01*
X31383Y4920D01*
X31477Y5147D01*
X31477Y5392D01*
X31451Y5454D01*
X31955Y6952D01*
X32108Y6582D01*
X32407Y6282D01*
X32799Y6119D01*
X33223Y6119D01*
X33615Y6281D01*
X33915Y6580D01*
X34016Y6824D01*
X34140Y6700D01*
X33695Y6255D01*
X33586Y6092D01*
X33548Y5900D01*
X33548Y4791D01*
X33388Y4791D01*
X33226Y4724D01*
X33102Y4600D01*
X33034Y4438D01*
X33034Y4263D01*
X33034Y3763D01*
X33101Y3601D01*
X33225Y3477D01*
X33387Y3409D01*
X33498Y3409D01*
X33498Y2012D01*
X33212Y2298D01*
X33212Y2391D01*
X33212Y2783D01*
X33145Y2945D01*
X33021Y3069D01*
X32859Y3137D01*
X32684Y3137D01*
X31700Y3137D01*
X31538Y3070D01*
X31414Y2946D01*
X31346Y2784D01*
X31346Y2609D01*
X31346Y2217D01*
X31413Y2055D01*
X31537Y1931D01*
X31699Y1863D01*
X31874Y1863D01*
X32227Y1863D01*
X33310Y781D01*
X33310Y577D01*
X33335Y516D01*
X30662Y516D01*
X30662Y2388D01*
X30662Y2612D01*
X30661Y2647D01*
X30661Y2746D01*
X30623Y2837D01*
X30553Y2907D01*
X30461Y2945D01*
X30032Y2946D01*
X29970Y2884D01*
X29970Y2550D01*
X30600Y2550D01*
X30662Y2612D01*
X30662Y2388D01*
X30600Y2450D01*
X29970Y2450D01*
X29970Y2116D01*
X30032Y2054D01*
X30461Y2055D01*
X30553Y2093D01*
X30623Y2163D01*
X30661Y2254D01*
X30661Y2353D01*
X30662Y2388D01*
X30662Y516D01*
X29870Y516D01*
X29870Y2116D01*
X29870Y2450D01*
X29870Y2550D01*
X29870Y2884D01*
X29808Y2946D01*
X29379Y2945D01*
X29287Y2907D01*
X29217Y2837D01*
X29179Y2746D01*
X29179Y2647D01*
X29178Y2612D01*
X29240Y2550D01*
X29870Y2550D01*
X29870Y2450D01*
X29240Y2450D01*
X29178Y2388D01*
X29179Y2353D01*
X29179Y2254D01*
X29217Y2163D01*
X29287Y2093D01*
X29379Y2055D01*
X29808Y2054D01*
X29870Y2116D01*
X29870Y516D01*
X24042Y516D01*
X24042Y1647D01*
X23929Y1919D01*
X23767Y2082D01*
X23767Y3177D01*
X23767Y3422D01*
X23673Y3649D01*
X23652Y3671D01*
X23652Y5330D01*
X23673Y5350D01*
X23767Y5577D01*
X23767Y5822D01*
X23673Y6049D01*
X23500Y6223D01*
X23273Y6317D01*
X23028Y6317D01*
X22801Y6223D01*
X22627Y6050D01*
X22533Y5823D01*
X22533Y5578D01*
X22627Y5351D01*
X22648Y5330D01*
X22648Y3671D01*
X22627Y3650D01*
X22533Y3423D01*
X22533Y3178D01*
X22627Y2951D01*
X22800Y2777D01*
X23027Y2683D01*
X23272Y2683D01*
X23499Y2777D01*
X23673Y2950D01*
X23767Y3177D01*
X23767Y2082D01*
X23721Y2128D01*
X23448Y2241D01*
X23153Y2242D01*
X22881Y2129D01*
X22751Y2001D01*
X22741Y2011D01*
X22649Y2049D01*
X22412Y2050D01*
X22350Y1988D01*
X22350Y1600D01*
X22350Y1550D01*
X22350Y1450D01*
X22350Y1400D01*
X22350Y1012D01*
X22412Y950D01*
X22649Y951D01*
X22741Y989D01*
X22751Y1000D01*
X22879Y872D01*
X23152Y759D01*
X23447Y758D01*
X23719Y871D01*
X23928Y1079D01*
X24041Y1352D01*
X24042Y1647D01*
X24042Y516D01*
X22250Y516D01*
X22250Y1012D01*
X22250Y1450D01*
X22250Y1550D01*
X22250Y1988D01*
X22188Y2050D01*
X21951Y2049D01*
X21859Y2011D01*
X21789Y1941D01*
X21751Y1850D01*
X21751Y1751D01*
X21750Y1612D01*
X21812Y1550D01*
X22250Y1550D01*
X22250Y1450D01*
X21812Y1450D01*
X21750Y1388D01*
X21751Y1249D01*
X21751Y1150D01*
X21789Y1059D01*
X21859Y989D01*
X21951Y951D01*
X22188Y950D01*
X22250Y1012D01*
X22250Y516D01*
X15925Y516D01*
X15925Y2613D01*
X15863Y2675D01*
X15450Y2675D01*
X15450Y2362D01*
X15512Y2300D01*
X15626Y2301D01*
X15725Y2301D01*
X15816Y2339D01*
X15886Y2409D01*
X15924Y2501D01*
X15925Y2613D01*
X15925Y516D01*
X15350Y516D01*
X15350Y2362D01*
X15350Y2675D01*
X14937Y2675D01*
X14875Y2613D01*
X14876Y2501D01*
X14914Y2409D01*
X14984Y2339D01*
X15075Y2301D01*
X15174Y2301D01*
X15288Y2300D01*
X15350Y2362D01*
X15350Y516D01*
X14600Y516D01*
X14600Y988D01*
X14600Y1212D01*
X14599Y1326D01*
X14599Y1425D01*
X14561Y1516D01*
X14491Y1586D01*
X14399Y1624D01*
X14287Y1625D01*
X14225Y1563D01*
X14225Y1150D01*
X14538Y1150D01*
X14600Y1212D01*
X14600Y988D01*
X14538Y1050D01*
X14225Y1050D01*
X14225Y637D01*
X14287Y575D01*
X14399Y576D01*
X14491Y614D01*
X14561Y684D01*
X14599Y775D01*
X14599Y874D01*
X14600Y988D01*
X14600Y516D01*
X13914Y516D01*
X13973Y575D01*
X13973Y576D01*
X14063Y575D01*
X14125Y637D01*
X14125Y1000D01*
X14125Y1050D01*
X14125Y1150D01*
X14125Y1200D01*
X14125Y1563D01*
X14063Y1625D01*
X13973Y1625D01*
X13850Y1748D01*
X13688Y1816D01*
X13513Y1816D01*
X13163Y1816D01*
X13001Y1749D01*
X12877Y1625D01*
X12867Y1602D01*
X12606Y1602D01*
X12583Y1625D01*
X12667Y1827D01*
X12667Y2072D01*
X12589Y2259D01*
X12609Y2268D01*
X12650Y2227D01*
X12812Y2159D01*
X12987Y2159D01*
X13587Y2159D01*
X13749Y2226D01*
X13873Y2350D01*
X13941Y2512D01*
X13941Y2574D01*
X14890Y2822D01*
X14937Y2775D01*
X15300Y2775D01*
X15350Y2775D01*
X15450Y2775D01*
X15500Y2775D01*
X15863Y2775D01*
X15925Y2837D01*
X15924Y2926D01*
X15924Y2927D01*
X16048Y3050D01*
X16116Y3212D01*
X16116Y3387D01*
X16116Y3485D01*
X17234Y4615D01*
X17234Y4459D01*
X17234Y3163D01*
X17301Y3001D01*
X17425Y2877D01*
X17524Y2836D01*
X17524Y2012D01*
X17586Y1950D01*
X17942Y1950D01*
X17942Y1850D01*
X17586Y1850D01*
X17524Y1788D01*
X17525Y769D01*
X17563Y677D01*
X17633Y607D01*
X17724Y569D01*
X17823Y569D01*
X18645Y568D01*
X18707Y630D01*
X18707Y642D01*
X18807Y642D01*
X18807Y630D01*
X18869Y568D01*
X19691Y569D01*
X19790Y569D01*
X19881Y607D01*
X19951Y677D01*
X19989Y769D01*
X19990Y1788D01*
X19928Y1850D01*
X19574Y1850D01*
X19574Y1950D01*
X19928Y1950D01*
X19990Y2012D01*
X19989Y2836D01*
X20088Y2876D01*
X20212Y3000D01*
X20280Y3162D01*
X20280Y3337D01*
X20280Y4633D01*
X20213Y4795D01*
X20089Y4919D01*
X19927Y4987D01*
X19752Y4987D01*
X17602Y4987D01*
X18158Y5548D01*
X20528Y6069D01*
X20587Y6096D01*
X20638Y6108D01*
X20666Y6130D01*
X20707Y6147D01*
X20750Y6193D01*
X20794Y6225D01*
X21010Y6468D01*
X21147Y6467D01*
X21419Y6580D01*
X21628Y6788D01*
X21741Y7061D01*
X21742Y7356D01*
X21629Y7628D01*
X21421Y7837D01*
X21148Y7950D01*
X20853Y7951D01*
X20581Y7838D01*
X20500Y7758D01*
X20421Y7837D01*
X20162Y7945D01*
X20162Y12288D01*
X20162Y12512D01*
X20161Y12547D01*
X20161Y12646D01*
X20123Y12737D01*
X20053Y12807D01*
X19961Y12845D01*
X19532Y12846D01*
X19470Y12784D01*
X19470Y12450D01*
X20100Y12450D01*
X20162Y12512D01*
X20162Y12288D01*
X20100Y12350D01*
X19470Y12350D01*
X19470Y12016D01*
X19532Y11954D01*
X19961Y11955D01*
X20053Y11993D01*
X20123Y12063D01*
X20161Y12154D01*
X20161Y12253D01*
X20162Y12288D01*
X20162Y7945D01*
X20148Y7950D01*
X19853Y7951D01*
X19581Y7838D01*
X19500Y7758D01*
X19421Y7837D01*
X19370Y7859D01*
X19370Y12016D01*
X19370Y12350D01*
X19370Y12450D01*
X19370Y12784D01*
X19308Y12846D01*
X18879Y12845D01*
X18787Y12807D01*
X18717Y12737D01*
X18679Y12646D01*
X18679Y12547D01*
X18678Y12512D01*
X18740Y12450D01*
X19370Y12450D01*
X19370Y12350D01*
X18740Y12350D01*
X18678Y12288D01*
X18679Y12253D01*
X18679Y12154D01*
X18717Y12063D01*
X18787Y11993D01*
X18879Y11955D01*
X19308Y11954D01*
X19370Y12016D01*
X19370Y7859D01*
X19148Y7950D01*
X18853Y7951D01*
X18581Y7838D01*
X18500Y7758D01*
X18421Y7837D01*
X18148Y7950D01*
X17853Y7951D01*
X17581Y7838D01*
X17500Y7758D01*
X17421Y7837D01*
X17148Y7950D01*
X16853Y7951D01*
X16581Y7838D01*
X16500Y7758D01*
X16421Y7837D01*
X16148Y7950D01*
X15853Y7951D01*
X15581Y7838D01*
X15500Y7758D01*
X15421Y7837D01*
X15148Y7950D01*
X14853Y7951D01*
X14581Y7838D01*
X14500Y7758D01*
X14421Y7837D01*
X14148Y7950D01*
X13853Y7951D01*
X13581Y7838D01*
X13372Y7630D01*
X13259Y7357D01*
X13258Y7062D01*
X13371Y6790D01*
X13579Y6581D01*
X13852Y6468D01*
X14147Y6467D01*
X14419Y6580D01*
X14499Y6661D01*
X14579Y6581D01*
X14852Y6468D01*
X15147Y6467D01*
X15419Y6580D01*
X15499Y6661D01*
X15579Y6581D01*
X15852Y6468D01*
X16147Y6467D01*
X16419Y6580D01*
X16499Y6661D01*
X16579Y6581D01*
X16766Y6504D01*
X15626Y6091D01*
X15588Y6091D01*
X15038Y6091D01*
X14876Y6024D01*
X14834Y5983D01*
X13896Y5994D01*
X13874Y6049D01*
X13750Y6173D01*
X13588Y6241D01*
X13413Y6241D01*
X13202Y6241D01*
X13202Y8392D01*
X19433Y14623D01*
X19433Y14528D01*
X19527Y14301D01*
X19700Y14127D01*
X19927Y14033D01*
X20172Y14033D01*
X20399Y14127D01*
X20573Y14300D01*
X20592Y14348D01*
X21298Y13642D01*
X21298Y13037D01*
X21200Y13037D01*
X21038Y12970D01*
X20914Y12846D01*
X20846Y12684D01*
X20846Y12509D01*
X20846Y12117D01*
X20913Y11955D01*
X21037Y11831D01*
X21199Y11763D01*
X21374Y11763D01*
X22358Y11763D01*
X22520Y11830D01*
X22644Y11954D01*
X22712Y12116D01*
X22712Y12291D01*
X22712Y12683D01*
X22645Y12845D01*
X22521Y12969D01*
X22359Y13037D01*
X22302Y13037D01*
X22302Y13850D01*
X22265Y14033D01*
X22472Y14033D01*
X22699Y14127D01*
X22873Y14300D01*
X22967Y14527D01*
X22967Y14635D01*
X22985Y14642D01*
X23109Y14766D01*
X23177Y14928D01*
X23177Y15103D01*
X23177Y16191D01*
X23225Y16143D01*
X23316Y16105D01*
X23415Y16105D01*
X23844Y16104D01*
X23906Y16166D01*
X23906Y16697D01*
X23906Y16797D01*
X23906Y17328D01*
X23844Y17390D01*
X23415Y17389D01*
X23316Y17389D01*
X23315Y17389D01*
X23225Y17351D01*
X23155Y17281D01*
X23117Y17189D01*
X23116Y16859D01*
X23178Y16797D01*
X23906Y16797D01*
X23906Y16697D01*
X23178Y16697D01*
X23148Y16668D01*
X23110Y16759D01*
X22986Y16883D01*
X22824Y16951D01*
X22649Y16951D01*
X22315Y16951D01*
X22315Y25824D01*
X22035Y26103D01*
X22000Y26138D01*
X21929Y26209D01*
X22000Y26280D01*
X22035Y26315D01*
X22315Y26594D01*
X22286Y26689D01*
X22081Y26762D01*
X21863Y26751D01*
X21714Y26689D01*
X21701Y26649D01*
X21675Y26675D01*
X21629Y26629D01*
X21421Y26838D01*
X21148Y26951D01*
X20853Y26952D01*
X20581Y26839D01*
X20372Y26631D01*
X20259Y26358D01*
X20258Y26063D01*
X20371Y25791D01*
X20579Y25582D01*
X20852Y25469D01*
X21147Y25468D01*
X21419Y25581D01*
X21628Y25789D01*
X21628Y25790D01*
X21675Y25743D01*
X21701Y25770D01*
X21714Y25729D01*
X21919Y25656D01*
X22137Y25667D01*
X22286Y25729D01*
X22315Y25824D01*
X22315Y16951D01*
X22255Y16951D01*
X22204Y16930D01*
X22154Y16951D01*
X21979Y16951D01*
X21585Y16951D01*
X21423Y16884D01*
X21299Y16760D01*
X21290Y16740D01*
X21250Y16699D01*
X21250Y16644D01*
X21231Y16598D01*
X21231Y16423D01*
X21231Y15742D01*
X21169Y15834D01*
X21169Y15835D01*
X21169Y16597D01*
X21150Y16643D01*
X21150Y16699D01*
X21110Y16739D01*
X21102Y16759D01*
X20978Y16883D01*
X20816Y16951D01*
X20641Y16951D01*
X20247Y16951D01*
X20196Y16930D01*
X20146Y16951D01*
X19971Y16951D01*
X19742Y16951D01*
X19742Y26356D01*
X19629Y26628D01*
X19421Y26837D01*
X19148Y26950D01*
X18853Y26951D01*
X18581Y26838D01*
X18500Y26758D01*
X18421Y26837D01*
X18148Y26950D01*
X17853Y26951D01*
X17581Y26838D01*
X17500Y26758D01*
X17421Y26837D01*
X17148Y26950D01*
X16853Y26951D01*
X16581Y26838D01*
X16500Y26758D01*
X16421Y26837D01*
X16148Y26950D01*
X15853Y26951D01*
X15581Y26838D01*
X15500Y26758D01*
X15421Y26837D01*
X15148Y26950D01*
X14853Y26951D01*
X14581Y26838D01*
X14500Y26758D01*
X14421Y26837D01*
X14148Y26950D01*
X13853Y26951D01*
X13581Y26838D01*
X13500Y26758D01*
X13421Y26837D01*
X13148Y26950D01*
X12853Y26951D01*
X12581Y26838D01*
X12500Y26758D01*
X12421Y26837D01*
X12148Y26950D01*
X11853Y26951D01*
X11581Y26838D01*
X11372Y26630D01*
X11259Y26357D01*
X11258Y26062D01*
X11371Y25790D01*
X11579Y25581D01*
X11852Y25468D01*
X12147Y25467D01*
X12419Y25580D01*
X12499Y25661D01*
X12579Y25581D01*
X12852Y25468D01*
X13147Y25467D01*
X13419Y25580D01*
X13499Y25661D01*
X13579Y25581D01*
X13852Y25468D01*
X14147Y25467D01*
X14419Y25580D01*
X14499Y25661D01*
X14579Y25581D01*
X14852Y25468D01*
X15147Y25467D01*
X15419Y25580D01*
X15499Y25661D01*
X15579Y25581D01*
X15852Y25468D01*
X16147Y25467D01*
X16419Y25580D01*
X16499Y25661D01*
X16579Y25581D01*
X16852Y25468D01*
X17147Y25467D01*
X17419Y25580D01*
X17499Y25661D01*
X17579Y25581D01*
X17852Y25468D01*
X18147Y25467D01*
X18419Y25580D01*
X18499Y25661D01*
X18579Y25581D01*
X18852Y25468D01*
X19147Y25467D01*
X19419Y25580D01*
X19628Y25788D01*
X19741Y26061D01*
X19742Y26356D01*
X19742Y16951D01*
X19577Y16951D01*
X19415Y16884D01*
X19291Y16760D01*
X19284Y16744D01*
X19284Y16860D01*
X19283Y17190D01*
X19245Y17282D01*
X19175Y17352D01*
X19084Y17390D01*
X18985Y17390D01*
X18557Y17391D01*
X18495Y17329D01*
X18495Y16798D01*
X19222Y16798D01*
X19284Y16860D01*
X19284Y16744D01*
X19252Y16668D01*
X19222Y16698D01*
X18495Y16698D01*
X18495Y16167D01*
X18557Y16105D01*
X18985Y16106D01*
X19084Y16106D01*
X19175Y16144D01*
X19223Y16192D01*
X19223Y15833D01*
X18395Y15005D01*
X18395Y16167D01*
X18395Y16698D01*
X18395Y16798D01*
X18395Y17329D01*
X18333Y17391D01*
X17905Y17390D01*
X17806Y17390D01*
X17715Y17352D01*
X17645Y17282D01*
X17607Y17190D01*
X17606Y16860D01*
X17668Y16798D01*
X18395Y16798D01*
X18395Y16698D01*
X17668Y16698D01*
X17606Y16636D01*
X17607Y16306D01*
X17645Y16214D01*
X17715Y16144D01*
X17806Y16106D01*
X17905Y16106D01*
X18333Y16105D01*
X18395Y16167D01*
X18395Y15005D01*
X12996Y9606D01*
X12996Y16635D01*
X12996Y16859D01*
X12995Y17189D01*
X12957Y17281D01*
X12887Y17351D01*
X12796Y17389D01*
X12697Y17389D01*
X12268Y17390D01*
X12206Y17328D01*
X12206Y16797D01*
X12934Y16797D01*
X12996Y16859D01*
X12996Y16635D01*
X12934Y16697D01*
X12206Y16697D01*
X12206Y16166D01*
X12268Y16104D01*
X12697Y16105D01*
X12796Y16105D01*
X12887Y16143D01*
X12957Y16213D01*
X12995Y16305D01*
X12996Y16635D01*
X12996Y9606D01*
X12345Y8955D01*
X12236Y8792D01*
X12198Y8600D01*
X12198Y7930D01*
X12148Y7950D01*
X11853Y7951D01*
X11751Y7909D01*
X11252Y8408D01*
X11252Y10600D01*
X11251Y10601D01*
X11252Y10601D01*
X11244Y10639D01*
X11214Y10792D01*
X11213Y10793D01*
X11171Y10855D01*
X11171Y10857D01*
X11164Y10892D01*
X11055Y11055D01*
X10541Y11569D01*
X10573Y11600D01*
X10667Y11827D01*
X10667Y12072D01*
X10573Y12299D01*
X10552Y12321D01*
X10552Y14575D01*
X10629Y14575D01*
X11023Y14575D01*
X11185Y14642D01*
X11309Y14766D01*
X11377Y14928D01*
X11377Y15103D01*
X11377Y16191D01*
X11425Y16143D01*
X11516Y16105D01*
X11615Y16105D01*
X12044Y16104D01*
X12106Y16166D01*
X12106Y16697D01*
X12106Y16797D01*
X12106Y17328D01*
X12044Y17390D01*
X11615Y17389D01*
X11516Y17389D01*
X11425Y17351D01*
X11355Y17281D01*
X11317Y17189D01*
X11316Y16859D01*
X11378Y16797D01*
X12106Y16797D01*
X12106Y16697D01*
X11378Y16697D01*
X11348Y16668D01*
X11310Y16759D01*
X11186Y16883D01*
X11024Y16951D01*
X10849Y16951D01*
X10742Y16951D01*
X10742Y26356D01*
X10629Y26628D01*
X10421Y26837D01*
X10148Y26950D01*
X9853Y26951D01*
X9581Y26838D01*
X9500Y26758D01*
X9421Y26837D01*
X9148Y26950D01*
X8853Y26951D01*
X8581Y26838D01*
X8500Y26758D01*
X8421Y26837D01*
X8148Y26950D01*
X7853Y26951D01*
X7581Y26838D01*
X7500Y26758D01*
X7421Y26837D01*
X7148Y26950D01*
X6853Y26951D01*
X6581Y26838D01*
X6500Y26758D01*
X6421Y26837D01*
X6148Y26950D01*
X5853Y26951D01*
X5581Y26838D01*
X5500Y26758D01*
X5421Y26837D01*
X5148Y26950D01*
X4853Y26951D01*
X4581Y26838D01*
X4500Y26758D01*
X4421Y26837D01*
X4148Y26950D01*
X3853Y26951D01*
X3581Y26838D01*
X3500Y26758D01*
X3421Y26837D01*
X3148Y26950D01*
X2853Y26951D01*
X2581Y26838D01*
X2372Y26630D01*
X2259Y26357D01*
X2258Y26062D01*
X2371Y25790D01*
X2579Y25581D01*
X2852Y25468D01*
X3147Y25467D01*
X3419Y25580D01*
X3499Y25661D01*
X3579Y25581D01*
X3852Y25468D01*
X4147Y25467D01*
X4419Y25580D01*
X4499Y25661D01*
X4579Y25581D01*
X4852Y25468D01*
X5147Y25467D01*
X5419Y25580D01*
X5499Y25661D01*
X5579Y25581D01*
X5852Y25468D01*
X6147Y25467D01*
X6419Y25580D01*
X6499Y25661D01*
X6579Y25581D01*
X6852Y25468D01*
X7147Y25467D01*
X7419Y25580D01*
X7499Y25661D01*
X7579Y25581D01*
X7852Y25468D01*
X8147Y25467D01*
X8419Y25580D01*
X8499Y25661D01*
X8579Y25581D01*
X8852Y25468D01*
X9147Y25467D01*
X9419Y25580D01*
X9499Y25661D01*
X9579Y25581D01*
X9852Y25468D01*
X10147Y25467D01*
X10419Y25580D01*
X10628Y25788D01*
X10741Y26061D01*
X10742Y26356D01*
X10742Y16951D01*
X10455Y16951D01*
X10404Y16930D01*
X10354Y16951D01*
X10179Y16951D01*
X9785Y16951D01*
X9623Y16884D01*
X9499Y16760D01*
X9490Y16740D01*
X9450Y16699D01*
X9450Y16644D01*
X9431Y16598D01*
X9431Y16423D01*
X9431Y15742D01*
X9369Y15834D01*
X9369Y15835D01*
X9369Y16597D01*
X9350Y16643D01*
X9350Y16699D01*
X9310Y16739D01*
X9302Y16759D01*
X9178Y16883D01*
X9016Y16951D01*
X8841Y16951D01*
X8447Y16951D01*
X8396Y16930D01*
X8346Y16951D01*
X8171Y16951D01*
X7777Y16951D01*
X7615Y16884D01*
X7491Y16760D01*
X7484Y16744D01*
X7484Y16860D01*
X7483Y17190D01*
X7445Y17282D01*
X7375Y17352D01*
X7284Y17390D01*
X7185Y17390D01*
X6757Y17391D01*
X6695Y17329D01*
X6695Y16798D01*
X7422Y16798D01*
X7484Y16860D01*
X7484Y16744D01*
X7452Y16668D01*
X7422Y16698D01*
X6695Y16698D01*
X6695Y16167D01*
X6757Y16105D01*
X7185Y16106D01*
X7284Y16106D01*
X7375Y16144D01*
X7423Y16192D01*
X7423Y14929D01*
X7490Y14767D01*
X7548Y14709D01*
X7548Y14471D01*
X7527Y14450D01*
X7433Y14223D01*
X7433Y13978D01*
X7527Y13751D01*
X7700Y13577D01*
X7927Y13483D01*
X7998Y13483D01*
X7998Y13137D01*
X7900Y13137D01*
X7738Y13070D01*
X7614Y12946D01*
X7546Y12784D01*
X7546Y12609D01*
X7546Y12217D01*
X7613Y12055D01*
X7737Y11931D01*
X7899Y11863D01*
X8074Y11863D01*
X8427Y11863D01*
X8758Y11532D01*
X8727Y11500D01*
X8633Y11273D01*
X8633Y11028D01*
X8727Y10801D01*
X8748Y10780D01*
X8748Y10408D01*
X6964Y8625D01*
X6964Y9447D01*
X6964Y11672D01*
X6862Y11672D01*
X6862Y12388D01*
X6862Y12612D01*
X6861Y12647D01*
X6861Y12746D01*
X6823Y12837D01*
X6753Y12907D01*
X6661Y12945D01*
X6595Y12946D01*
X6595Y16167D01*
X6595Y16698D01*
X6595Y16798D01*
X6595Y17329D01*
X6533Y17391D01*
X6105Y17390D01*
X6006Y17390D01*
X5915Y17352D01*
X5845Y17282D01*
X5807Y17190D01*
X5806Y16860D01*
X5868Y16798D01*
X6595Y16798D01*
X6595Y16698D01*
X5868Y16698D01*
X5806Y16636D01*
X5807Y16306D01*
X5845Y16214D01*
X5915Y16144D01*
X6006Y16106D01*
X6105Y16106D01*
X6533Y16105D01*
X6595Y16167D01*
X6595Y12946D01*
X6232Y12946D01*
X6170Y12884D01*
X6170Y12550D01*
X6800Y12550D01*
X6862Y12612D01*
X6862Y12388D01*
X6800Y12450D01*
X6170Y12450D01*
X6170Y12116D01*
X6232Y12054D01*
X6661Y12055D01*
X6753Y12093D01*
X6823Y12163D01*
X6861Y12254D01*
X6861Y12353D01*
X6862Y12388D01*
X6862Y11672D01*
X6070Y11672D01*
X6070Y12116D01*
X6070Y12450D01*
X6070Y12550D01*
X6070Y12884D01*
X6008Y12946D01*
X5579Y12945D01*
X5487Y12907D01*
X5417Y12837D01*
X5379Y12746D01*
X5379Y12647D01*
X5378Y12612D01*
X5440Y12550D01*
X6070Y12550D01*
X6070Y12450D01*
X5440Y12450D01*
X5378Y12388D01*
X5379Y12353D01*
X5379Y12254D01*
X5417Y12163D01*
X5487Y12093D01*
X5579Y12055D01*
X6008Y12054D01*
X6070Y12116D01*
X6070Y11672D01*
X4236Y11672D01*
X4236Y9447D01*
X6964Y9447D01*
X6964Y8625D01*
X6248Y7909D01*
X6148Y7950D01*
X5853Y7951D01*
X5581Y7838D01*
X5500Y7758D01*
X5421Y7837D01*
X5148Y7950D01*
X4853Y7951D01*
X4581Y7838D01*
X4449Y7708D01*
X4404Y7818D01*
X4105Y8118D01*
X3713Y8281D01*
X3289Y8281D01*
X2897Y8119D01*
X2672Y7896D01*
X2741Y8061D01*
X2742Y8356D01*
X2629Y8628D01*
X2548Y8709D01*
X2628Y8788D01*
X2741Y9061D01*
X2742Y9356D01*
X2629Y9628D01*
X2548Y9709D01*
X2628Y9788D01*
X2741Y10061D01*
X2742Y10356D01*
X2629Y10628D01*
X2548Y10709D01*
X2628Y10788D01*
X2741Y11061D01*
X2742Y11356D01*
X2629Y11628D01*
X2548Y11709D01*
X2628Y11788D01*
X2741Y12061D01*
X2742Y12356D01*
X2629Y12628D01*
X2548Y12709D01*
X2628Y12788D01*
X2741Y13061D01*
X2742Y13356D01*
X2629Y13628D01*
X2548Y13709D01*
X2628Y13788D01*
X2741Y14061D01*
X2742Y14356D01*
X2629Y14628D01*
X2548Y14709D01*
X2628Y14788D01*
X2741Y15061D01*
X2742Y15356D01*
X2629Y15628D01*
X2548Y15709D01*
X2628Y15788D01*
X2741Y16061D01*
X2742Y16356D01*
X2629Y16628D01*
X2548Y16709D01*
X2628Y16788D01*
X2741Y17061D01*
X2742Y17356D01*
X2629Y17628D01*
X2548Y17709D01*
X2628Y17788D01*
X2741Y18061D01*
X2742Y18356D01*
X2629Y18628D01*
X2548Y18709D01*
X2628Y18788D01*
X2741Y19061D01*
X2742Y19356D01*
X2629Y19628D01*
X2548Y19709D01*
X2628Y19788D01*
X2741Y20061D01*
X2742Y20356D01*
X2629Y20628D01*
X2548Y20709D01*
X2628Y20788D01*
X2741Y21061D01*
X2742Y21356D01*
X2629Y21628D01*
X2548Y21709D01*
X2628Y21788D01*
X2741Y22061D01*
X2742Y22356D01*
X2629Y22628D01*
X2548Y22709D01*
X2628Y22788D01*
X2741Y23061D01*
X2742Y23356D01*
X2629Y23628D01*
X2553Y23705D01*
X2421Y23837D01*
X2419Y23838D01*
X2466Y23884D01*
X2439Y23911D01*
X2480Y23923D01*
X2553Y24128D01*
X2542Y24346D01*
X2480Y24495D01*
X2385Y24524D01*
X2315Y24454D01*
X2315Y24594D01*
X2286Y24689D01*
X2081Y24762D01*
X1863Y24751D01*
X1714Y24689D01*
X1685Y24594D01*
X2000Y24280D01*
X2315Y24594D01*
X2315Y24454D01*
X2071Y24209D01*
X2000Y24138D01*
X1929Y24209D01*
X1894Y24244D01*
X1615Y24524D01*
X1520Y24495D01*
X1501Y24444D01*
X1480Y24495D01*
X1385Y24524D01*
X1315Y24454D01*
X1315Y24594D01*
X1286Y24689D01*
X1081Y24762D01*
X863Y24751D01*
X714Y24689D01*
X685Y24594D01*
X1000Y24280D01*
X1315Y24594D01*
X1315Y24454D01*
X1071Y24209D01*
X1000Y24138D01*
X929Y24209D01*
X894Y24244D01*
X615Y24524D01*
X520Y24495D01*
X516Y24484D01*
X516Y25248D01*
X787Y25135D01*
X1211Y25135D01*
X1603Y25297D01*
X1903Y25596D01*
X2066Y25988D01*
X2066Y26412D01*
X1904Y26804D01*
X1724Y26984D01*
X27425Y26984D01*
X27417Y26963D01*
X27417Y26788D01*
X27417Y26749D01*
X26532Y26726D01*
X26421Y26837D01*
X26148Y26950D01*
X25853Y26951D01*
X25581Y26838D01*
X25500Y26758D01*
X25421Y26837D01*
X25148Y26950D01*
X24853Y26951D01*
X24581Y26838D01*
X24500Y26758D01*
X24421Y26837D01*
X24148Y26950D01*
X23853Y26951D01*
X23581Y26838D01*
X23372Y26630D01*
X23371Y26629D01*
X23325Y26675D01*
X23298Y26649D01*
X23286Y26689D01*
X23081Y26762D01*
X22863Y26751D01*
X22714Y26689D01*
X22685Y26594D01*
X22965Y26315D01*
X23000Y26280D01*
X23071Y26209D01*
X23000Y26138D01*
X22929Y26068D01*
X22929Y26209D01*
X22615Y26524D01*
X22520Y26495D01*
X22501Y26444D01*
X22480Y26495D01*
X22385Y26524D01*
X22315Y26454D01*
X22071Y26209D01*
X22385Y25894D01*
X22480Y25923D01*
X22498Y25975D01*
X22520Y25923D01*
X22615Y25894D01*
X22929Y26209D01*
X22929Y26068D01*
X22685Y25824D01*
X22714Y25729D01*
X22919Y25656D01*
X23137Y25667D01*
X23286Y25729D01*
X23298Y25770D01*
X23315Y25753D01*
X23325Y25743D01*
X23371Y25790D01*
X23579Y25581D01*
X23852Y25468D01*
X24147Y25467D01*
X24419Y25580D01*
X24499Y25661D01*
X24579Y25581D01*
X24852Y25468D01*
X25147Y25467D01*
X25419Y25580D01*
X25499Y25661D01*
X25579Y25581D01*
X25852Y25468D01*
X26147Y25467D01*
X26419Y25580D01*
X26561Y25722D01*
X27417Y25745D01*
X27417Y25568D01*
X27484Y25406D01*
X27608Y25282D01*
X27612Y25281D01*
X27612Y24121D01*
X27609Y24119D01*
X27485Y23995D01*
X27417Y23833D01*
X27417Y23658D01*
X27417Y22438D01*
X27484Y22276D01*
X27608Y22152D01*
X27770Y22084D01*
X27945Y22084D01*
X28457Y22084D01*
X28619Y22151D01*
X28743Y22275D01*
X28811Y22437D01*
X28811Y22612D01*
X28811Y22638D01*
X28841Y22625D01*
X29158Y22624D01*
X29380Y22717D01*
X29381Y22476D01*
X29419Y22384D01*
X29489Y22314D01*
X29580Y22276D01*
X29679Y22276D01*
X29774Y22275D01*
X29836Y22337D01*
X29836Y23035D01*
X29836Y23085D01*
X29836Y23185D01*
X29836Y23235D01*
X29836Y23933D01*
X29774Y23995D01*
X29679Y23994D01*
X29580Y23994D01*
X29559Y23986D01*
X29451Y24094D01*
X29159Y24215D01*
X28842Y24216D01*
X28616Y24123D01*
X28616Y25279D01*
X28841Y25185D01*
X29158Y25184D01*
X29450Y25305D01*
X29559Y25415D01*
X29580Y25406D01*
X29679Y25406D01*
X29774Y25405D01*
X29836Y25467D01*
X29836Y26165D01*
X29836Y26215D01*
X29836Y26315D01*
X29936Y26315D01*
X29936Y26215D01*
X29936Y26165D01*
X29936Y25467D01*
X29998Y25405D01*
X30093Y25406D01*
X30192Y25406D01*
X30283Y25444D01*
X30353Y25514D01*
X30357Y25527D01*
X30409Y25475D01*
X30436Y25503D01*
X30452Y25455D01*
X30677Y25373D01*
X30916Y25383D01*
X31092Y25455D01*
X31126Y25556D01*
X30807Y25874D01*
X30772Y25909D01*
X30701Y25980D01*
X30772Y26051D01*
X30807Y26086D01*
X31126Y26404D01*
X31092Y26505D01*
X30867Y26587D01*
X30628Y26577D01*
X30452Y26505D01*
X30436Y26458D01*
X30409Y26485D01*
X30391Y26468D01*
X30391Y26924D01*
X30366Y26984D01*
X32763Y26984D01*
X32596Y26817D01*
X32433Y26425D01*
X32433Y26001D01*
X32595Y25609D01*
X32894Y25309D01*
X33286Y25146D01*
X33710Y25146D01*
X34102Y25308D01*
X34402Y25607D01*
X34565Y25999D01*
X34565Y26423D01*
X34403Y26815D01*
X34234Y26984D01*
X35691Y26984D01*
X35667Y26974D01*
X35543Y26850D01*
X35475Y26688D01*
X35475Y26513D01*
X35475Y25913D01*
X35542Y25751D01*
X35666Y25627D01*
X35828Y25559D01*
X36003Y25559D01*
X36603Y25559D01*
X36765Y25626D01*
X36801Y25663D01*
X37052Y25559D01*
X37231Y25559D01*
X37698Y25092D01*
X37698Y24806D01*
X37591Y24699D01*
X37523Y24537D01*
X37523Y24362D01*
X37523Y24302D01*
X37486Y24391D01*
X37416Y24461D01*
X37325Y24499D01*
X37226Y24499D01*
X37112Y24500D01*
X37050Y24438D01*
X37050Y24175D01*
X37050Y24125D01*
X37050Y24025D01*
X36950Y24025D01*
X36950Y24125D01*
X36950Y24438D01*
X36888Y24500D01*
X36774Y24499D01*
X36675Y24499D01*
X36584Y24461D01*
X36514Y24391D01*
X36476Y24299D01*
X36475Y24187D01*
X36537Y24125D01*
X36950Y24125D01*
X36950Y24025D01*
X36900Y24025D01*
X36537Y24025D01*
X36475Y23963D01*
X36475Y23874D01*
X36352Y23750D01*
X36284Y23588D01*
X36284Y23413D01*
X36284Y23063D01*
X36351Y22901D01*
X36475Y22777D01*
X36637Y22709D01*
X36812Y22709D01*
X37362Y22709D01*
X37524Y22776D01*
X37620Y22872D01*
X37714Y22778D01*
X37876Y22710D01*
X38051Y22710D01*
X38523Y22710D01*
X38685Y22777D01*
X38809Y22901D01*
X38877Y23063D01*
X38877Y23238D01*
X38877Y23710D01*
X38839Y23801D01*
X38877Y23889D01*
X38877Y24064D01*
X38877Y24536D01*
X38810Y24698D01*
X38702Y24806D01*
X38702Y25300D01*
X38664Y25492D01*
X38557Y25652D01*
X38603Y25671D01*
X38812Y25879D01*
X38925Y26152D01*
X38926Y26447D01*
X38813Y26719D01*
X38605Y26928D01*
X38469Y26984D01*
X39484Y26984D01*
X39484Y21765D01*
X39207Y22042D01*
X38756Y22230D01*
X38267Y22230D01*
X37815Y22043D01*
X37469Y21698D01*
X37281Y21247D01*
X37281Y20758D01*
X37468Y20306D01*
X37813Y19960D01*
X38264Y19772D01*
X38753Y19772D01*
X39205Y19959D01*
X39484Y20238D01*
X39484Y18624D01*
X39386Y18771D01*
X38987Y19037D01*
X38517Y19131D01*
X38469Y19131D01*
X37999Y19037D01*
X37600Y18771D01*
X37334Y18372D01*
X37240Y17902D01*
X37334Y17432D01*
X37600Y17033D01*
X37999Y16767D01*
X38469Y16673D01*
X38517Y16673D01*
X38987Y16767D01*
X39386Y17033D01*
X39484Y17180D01*
X39484Y16020D01*
X39484Y16020D01*
G37*
G54D40*
X39484Y16020D02*
X39312Y16020D01*
X39250Y15958D01*
X39250Y15614D01*
X39250Y15564D01*
X39250Y15464D01*
X39150Y15464D01*
X39150Y15564D01*
X39150Y15958D01*
X39088Y16020D01*
X38796Y16019D01*
X38697Y16019D01*
X38606Y15981D01*
X38536Y15911D01*
X38498Y15819D01*
X38497Y15626D01*
X38559Y15564D01*
X39150Y15564D01*
X39150Y15464D01*
X39100Y15464D01*
X38559Y15464D01*
X38497Y15402D01*
X38497Y15270D01*
X38455Y15312D01*
X38364Y15350D01*
X38265Y15350D01*
X38131Y15351D01*
X38069Y15289D01*
X38069Y14945D01*
X38069Y14931D01*
X37969Y14931D01*
X37969Y14945D01*
X37969Y15289D01*
X37907Y15351D01*
X37773Y15350D01*
X37674Y15350D01*
X37583Y15312D01*
X37513Y15242D01*
X37475Y15150D01*
X37474Y15132D01*
X37448Y15141D01*
X37397Y15165D01*
X36557Y15386D01*
X36508Y15390D01*
X36474Y15399D01*
X36427Y15394D01*
X36362Y15398D01*
X36316Y15383D01*
X36279Y15378D01*
X36234Y15354D01*
X36177Y15333D01*
X36141Y15302D01*
X36108Y15283D01*
X34357Y13815D01*
X34286Y13727D01*
X34255Y13693D01*
X34238Y13667D01*
X34235Y13662D01*
X34234Y13660D01*
X31904Y9915D01*
X31875Y9841D01*
X31858Y9809D01*
X31638Y9156D01*
X32994Y15650D01*
X33026Y15662D01*
X33235Y15870D01*
X33348Y16143D01*
X33349Y16438D01*
X33236Y16710D01*
X33155Y16791D01*
X33236Y16871D01*
X33349Y17144D01*
X33350Y17439D01*
X33237Y17711D01*
X33156Y17792D01*
X33236Y17871D01*
X33349Y18144D01*
X33350Y18439D01*
X33237Y18711D01*
X33156Y18792D01*
X33236Y18871D01*
X33349Y19144D01*
X33350Y19439D01*
X33297Y19566D01*
X33312Y19559D01*
X33487Y19559D01*
X34087Y19559D01*
X34249Y19626D01*
X34373Y19750D01*
X34441Y19912D01*
X34441Y20087D01*
X34441Y20687D01*
X34374Y20849D01*
X34250Y20973D01*
X34088Y21041D01*
X33913Y21041D01*
X33313Y21041D01*
X33161Y20979D01*
X33151Y20974D01*
X33062Y20886D01*
X33029Y20920D01*
X33027Y20921D01*
X33074Y20967D01*
X33047Y20994D01*
X33088Y21006D01*
X33161Y21211D01*
X33161Y22211D01*
X33150Y22429D01*
X33088Y22578D01*
X32993Y22607D01*
X32923Y22537D01*
X32923Y22677D01*
X32894Y22772D01*
X32689Y22845D01*
X32471Y22834D01*
X32322Y22772D01*
X32296Y22687D01*
X32296Y24858D01*
X32175Y25150D01*
X31951Y25374D01*
X31659Y25495D01*
X31379Y25496D01*
X31379Y25885D01*
X31369Y26124D01*
X31297Y26300D01*
X31196Y26334D01*
X31126Y26264D01*
X30843Y25980D01*
X31196Y25626D01*
X31297Y25660D01*
X31379Y25885D01*
X31379Y25496D01*
X31342Y25496D01*
X31126Y25407D01*
X31050Y25375D01*
X30826Y25151D01*
X30705Y24859D01*
X30704Y24542D01*
X30825Y24250D01*
X31049Y24026D01*
X31341Y23905D01*
X31658Y23904D01*
X31950Y24025D01*
X32174Y24249D01*
X32295Y24541D01*
X32296Y24858D01*
X32296Y22687D01*
X32293Y22677D01*
X32608Y22363D01*
X32923Y22677D01*
X32923Y22537D01*
X32679Y22292D01*
X32993Y21977D01*
X33088Y22006D01*
X33161Y22211D01*
X33161Y21211D01*
X33150Y21429D01*
X33088Y21578D01*
X32993Y21607D01*
X32923Y21537D01*
X32923Y21677D01*
X32894Y21772D01*
X32842Y21791D01*
X32894Y21812D01*
X32923Y21907D01*
X32608Y22221D01*
X32537Y22151D01*
X32537Y22292D01*
X32223Y22607D01*
X32128Y22578D01*
X32055Y22373D01*
X32066Y22155D01*
X32128Y22006D01*
X32223Y21977D01*
X32537Y22292D01*
X32537Y22151D01*
X32293Y21907D01*
X32322Y21812D01*
X32373Y21794D01*
X32322Y21772D01*
X32293Y21677D01*
X32608Y21363D01*
X32923Y21677D01*
X32923Y21537D01*
X32679Y21292D01*
X32608Y21221D01*
X32537Y21292D01*
X32502Y21327D01*
X32223Y21607D01*
X32128Y21578D01*
X32055Y21373D01*
X32066Y21155D01*
X32128Y21006D01*
X32168Y20994D01*
X32142Y20967D01*
X32188Y20921D01*
X31980Y20713D01*
X31867Y20440D01*
X31866Y20145D01*
X31979Y19873D01*
X32059Y19793D01*
X31980Y19713D01*
X31867Y19440D01*
X31866Y19145D01*
X31979Y18873D01*
X32059Y18793D01*
X31980Y18713D01*
X31867Y18440D01*
X31866Y18366D01*
X31520Y18107D01*
X31507Y18094D01*
X31496Y18087D01*
X31451Y18032D01*
X31389Y17962D01*
X31383Y17946D01*
X31379Y17941D01*
X31379Y23325D01*
X31369Y23564D01*
X31297Y23740D01*
X31196Y23774D01*
X31126Y23704D01*
X30843Y23420D01*
X31196Y23066D01*
X31297Y23100D01*
X31379Y23325D01*
X31379Y17941D01*
X31374Y17934D01*
X31355Y17869D01*
X31323Y17777D01*
X31324Y17756D01*
X31321Y17745D01*
X31126Y15383D01*
X31126Y22996D01*
X30807Y23314D01*
X30772Y23349D01*
X30701Y23420D01*
X30772Y23491D01*
X30807Y23526D01*
X31126Y23844D01*
X31092Y23945D01*
X30867Y24027D01*
X30628Y24017D01*
X30452Y23945D01*
X30436Y23898D01*
X30409Y23925D01*
X30357Y23874D01*
X30353Y23886D01*
X30283Y23956D01*
X30192Y23994D01*
X30093Y23994D01*
X29998Y23995D01*
X29936Y23933D01*
X29936Y23235D01*
X29936Y23185D01*
X29936Y23085D01*
X29936Y23035D01*
X29936Y22337D01*
X29998Y22275D01*
X30093Y22276D01*
X30192Y22276D01*
X30283Y22314D01*
X30353Y22384D01*
X30391Y22476D01*
X30391Y22933D01*
X30409Y22915D01*
X30436Y22943D01*
X30452Y22895D01*
X30677Y22813D01*
X30916Y22823D01*
X31092Y22895D01*
X31126Y22996D01*
X31126Y15383D01*
X31041Y14352D01*
X30883Y14417D01*
X30638Y14417D01*
X30450Y14340D01*
X30565Y14811D01*
X30724Y14876D01*
X30848Y15000D01*
X30916Y15162D01*
X30916Y15337D01*
X30916Y15687D01*
X30849Y15849D01*
X30725Y15973D01*
X30724Y15974D01*
X30725Y16063D01*
X30725Y16287D01*
X30724Y16399D01*
X30686Y16491D01*
X30616Y16561D01*
X30525Y16599D01*
X30426Y16599D01*
X30312Y16600D01*
X30250Y16538D01*
X30250Y16225D01*
X30663Y16225D01*
X30725Y16287D01*
X30725Y16063D01*
X30663Y16125D01*
X30300Y16125D01*
X30250Y16125D01*
X30150Y16125D01*
X30150Y16225D01*
X30150Y16275D01*
X30150Y16538D01*
X30088Y16600D01*
X30050Y16600D01*
X30240Y17616D01*
X30456Y17822D01*
X30458Y17826D01*
X30465Y17830D01*
X30524Y17920D01*
X30569Y17982D01*
X30570Y17988D01*
X30574Y17993D01*
X30593Y18091D01*
X30612Y18174D01*
X30610Y18180D01*
X30612Y18185D01*
X30612Y20657D01*
X30612Y20680D01*
X30595Y20763D01*
X30582Y20851D01*
X30576Y20861D01*
X30574Y20872D01*
X30528Y20941D01*
X30481Y21019D01*
X30470Y21027D01*
X30465Y21035D01*
X30400Y21079D01*
X30323Y21135D01*
X30077Y21251D01*
X30077Y21336D01*
X30010Y21498D01*
X29886Y21622D01*
X29724Y21690D01*
X29549Y21690D01*
X29077Y21690D01*
X28915Y21623D01*
X28800Y21508D01*
X28686Y21622D01*
X28524Y21690D01*
X28349Y21690D01*
X27877Y21690D01*
X27715Y21623D01*
X27591Y21499D01*
X27523Y21337D01*
X27523Y21162D01*
X27523Y20690D01*
X27560Y20600D01*
X27523Y20511D01*
X27523Y20336D01*
X27523Y19864D01*
X27579Y19728D01*
X27552Y19700D01*
X27484Y19538D01*
X27484Y19363D01*
X27484Y19013D01*
X27530Y18900D01*
X27484Y18788D01*
X27484Y18613D01*
X27484Y18263D01*
X27551Y18101D01*
X27675Y17977D01*
X27701Y17966D01*
X27730Y13862D01*
X27641Y13824D01*
X27585Y13768D01*
X27530Y13823D01*
X27368Y13891D01*
X27193Y13891D01*
X27118Y13891D01*
X27033Y13891D01*
X26943Y13891D01*
X26783Y13891D01*
X26621Y13824D01*
X26497Y13700D01*
X26429Y13538D01*
X26429Y13363D01*
X26429Y12863D01*
X26466Y12774D01*
X26383Y12573D01*
X26383Y12328D01*
X26477Y12101D01*
X26498Y12080D01*
X26498Y11060D01*
X26486Y11042D01*
X26448Y10850D01*
X26448Y10784D01*
X26429Y10738D01*
X26429Y10589D01*
X26407Y10567D01*
X26378Y10567D01*
X26151Y10473D01*
X25977Y10300D01*
X25883Y10073D01*
X25883Y9828D01*
X25977Y9601D01*
X26112Y9465D01*
X25987Y9340D01*
X25893Y9113D01*
X25893Y8868D01*
X25987Y8641D01*
X26160Y8467D01*
X26387Y8373D01*
X26632Y8373D01*
X26666Y8388D01*
X26636Y8342D01*
X26598Y8150D01*
X26598Y7951D01*
X26453Y7951D01*
X26181Y7838D01*
X26100Y7758D01*
X26021Y7837D01*
X25748Y7950D01*
X25453Y7951D01*
X25181Y7838D01*
X25100Y7758D01*
X25021Y7837D01*
X24796Y7931D01*
X24796Y16635D01*
X24796Y16859D01*
X24795Y17189D01*
X24757Y17281D01*
X24687Y17351D01*
X24596Y17389D01*
X24497Y17389D01*
X24068Y17390D01*
X24006Y17328D01*
X24006Y16797D01*
X24734Y16797D01*
X24796Y16859D01*
X24796Y16635D01*
X24734Y16697D01*
X24006Y16697D01*
X24006Y16166D01*
X24068Y16104D01*
X24497Y16105D01*
X24596Y16105D01*
X24687Y16143D01*
X24757Y16213D01*
X24795Y16305D01*
X24796Y16635D01*
X24796Y7931D01*
X24748Y7950D01*
X24453Y7951D01*
X24181Y7838D01*
X24100Y7758D01*
X24021Y7837D01*
X23748Y7950D01*
X23453Y7951D01*
X23181Y7838D01*
X23100Y7758D01*
X23021Y7837D01*
X22748Y7950D01*
X22453Y7951D01*
X22181Y7838D01*
X21972Y7630D01*
X21859Y7357D01*
X21858Y7062D01*
X21971Y6790D01*
X22179Y6581D01*
X22452Y6468D01*
X22747Y6467D01*
X23019Y6580D01*
X23099Y6661D01*
X23179Y6581D01*
X23452Y6468D01*
X23747Y6467D01*
X24019Y6580D01*
X24099Y6661D01*
X24179Y6581D01*
X24452Y6468D01*
X24747Y6467D01*
X25019Y6580D01*
X25099Y6661D01*
X25179Y6581D01*
X25452Y6468D01*
X25747Y6467D01*
X26019Y6580D01*
X26099Y6661D01*
X26179Y6581D01*
X26298Y6532D01*
X26298Y5495D01*
X26188Y5541D01*
X26013Y5541D01*
X25413Y5541D01*
X25251Y5474D01*
X25127Y5350D01*
X25059Y5188D01*
X25059Y5013D01*
X25059Y4413D01*
X25126Y4251D01*
X25250Y4127D01*
X25412Y4059D01*
X25587Y4059D01*
X26187Y4059D01*
X26349Y4126D01*
X26390Y4168D01*
X26652Y4059D01*
X26947Y4058D01*
X27219Y4171D01*
X27299Y4252D01*
X27379Y4172D01*
X27652Y4059D01*
X27947Y4058D01*
X28219Y4171D01*
X28428Y4379D01*
X28541Y4652D01*
X28542Y4947D01*
X28429Y5219D01*
X28221Y5428D01*
X27948Y5541D01*
X27653Y5542D01*
X27381Y5429D01*
X27302Y5351D01*
X27302Y6492D01*
X27328Y6519D01*
X27452Y6468D01*
X27747Y6467D01*
X28019Y6580D01*
X28099Y6661D01*
X28179Y6581D01*
X28452Y6468D01*
X28747Y6467D01*
X29019Y6580D01*
X29099Y6661D01*
X29179Y6581D01*
X29452Y6468D01*
X29747Y6467D01*
X30019Y6580D01*
X30063Y6625D01*
X30022Y6430D01*
X27643Y2439D01*
X27381Y2329D01*
X27300Y2249D01*
X27221Y2328D01*
X26948Y2441D01*
X26653Y2442D01*
X26390Y2333D01*
X26350Y2373D01*
X26188Y2441D01*
X26013Y2441D01*
X25413Y2441D01*
X25251Y2374D01*
X25127Y2250D01*
X25059Y2088D01*
X25059Y1913D01*
X25059Y1313D01*
X25126Y1151D01*
X25250Y1027D01*
X25412Y959D01*
X25587Y959D01*
X26187Y959D01*
X26349Y1026D01*
X26390Y1068D01*
X26652Y959D01*
X26947Y958D01*
X27219Y1071D01*
X27299Y1152D01*
X27379Y1072D01*
X27652Y959D01*
X27947Y958D01*
X28219Y1071D01*
X28428Y1279D01*
X28541Y1552D01*
X28542Y1847D01*
X28518Y1905D01*
X30328Y4942D01*
X30337Y4921D01*
X30510Y4747D01*
X30737Y4653D01*
X30982Y4653D01*
X31209Y4747D01*
X31383Y4920D01*
X31477Y5147D01*
X31477Y5392D01*
X31451Y5454D01*
X31955Y6952D01*
X32108Y6582D01*
X32407Y6282D01*
X32799Y6119D01*
X33223Y6119D01*
X33615Y6281D01*
X33915Y6580D01*
X34016Y6824D01*
X34140Y6700D01*
X33695Y6255D01*
X33586Y6092D01*
X33548Y5900D01*
X33548Y4791D01*
X33388Y4791D01*
X33226Y4724D01*
X33102Y4600D01*
X33034Y4438D01*
X33034Y4263D01*
X33034Y3763D01*
X33101Y3601D01*
X33225Y3477D01*
X33387Y3409D01*
X33498Y3409D01*
X33498Y2012D01*
X33212Y2298D01*
X33212Y2391D01*
X33212Y2783D01*
X33145Y2945D01*
X33021Y3069D01*
X32859Y3137D01*
X32684Y3137D01*
X31700Y3137D01*
X31538Y3070D01*
X31414Y2946D01*
X31346Y2784D01*
X31346Y2609D01*
X31346Y2217D01*
X31413Y2055D01*
X31537Y1931D01*
X31699Y1863D01*
X31874Y1863D01*
X32227Y1863D01*
X33310Y781D01*
X33310Y577D01*
X33335Y516D01*
X30662Y516D01*
X30662Y2388D01*
X30662Y2612D01*
X30661Y2647D01*
X30661Y2746D01*
X30623Y2837D01*
X30553Y2907D01*
X30461Y2945D01*
X30032Y2946D01*
X29970Y2884D01*
X29970Y2550D01*
X30600Y2550D01*
X30662Y2612D01*
X30662Y2388D01*
X30600Y2450D01*
X29970Y2450D01*
X29970Y2116D01*
X30032Y2054D01*
X30461Y2055D01*
X30553Y2093D01*
X30623Y2163D01*
X30661Y2254D01*
X30661Y2353D01*
X30662Y2388D01*
X30662Y516D01*
X29870Y516D01*
X29870Y2116D01*
X29870Y2450D01*
X29870Y2550D01*
X29870Y2884D01*
X29808Y2946D01*
X29379Y2945D01*
X29287Y2907D01*
X29217Y2837D01*
X29179Y2746D01*
X29179Y2647D01*
X29178Y2612D01*
X29240Y2550D01*
X29870Y2550D01*
X29870Y2450D01*
X29240Y2450D01*
X29178Y2388D01*
X29179Y2353D01*
X29179Y2254D01*
X29217Y2163D01*
X29287Y2093D01*
X29379Y2055D01*
X29808Y2054D01*
X29870Y2116D01*
X29870Y516D01*
X24042Y516D01*
X24042Y1647D01*
X23929Y1919D01*
X23767Y2082D01*
X23767Y3177D01*
X23767Y3422D01*
X23673Y3649D01*
X23652Y3671D01*
X23652Y5330D01*
X23673Y5350D01*
X23767Y5577D01*
X23767Y5822D01*
X23673Y6049D01*
X23500Y6223D01*
X23273Y6317D01*
X23028Y6317D01*
X22801Y6223D01*
X22627Y6050D01*
X22533Y5823D01*
X22533Y5578D01*
X22627Y5351D01*
X22648Y5330D01*
X22648Y3671D01*
X22627Y3650D01*
X22533Y3423D01*
X22533Y3178D01*
X22627Y2951D01*
X22800Y2777D01*
X23027Y2683D01*
X23272Y2683D01*
X23499Y2777D01*
X23673Y2950D01*
X23767Y3177D01*
X23767Y2082D01*
X23721Y2128D01*
X23448Y2241D01*
X23153Y2242D01*
X22881Y2129D01*
X22751Y2001D01*
X22741Y2011D01*
X22649Y2049D01*
X22412Y2050D01*
X22350Y1988D01*
X22350Y1600D01*
X22350Y1550D01*
X22350Y1450D01*
X22350Y1400D01*
X22350Y1012D01*
X22412Y950D01*
X22649Y951D01*
X22741Y989D01*
X22751Y1000D01*
X22879Y872D01*
X23152Y759D01*
X23447Y758D01*
X23719Y871D01*
X23928Y1079D01*
X24041Y1352D01*
X24042Y1647D01*
X24042Y516D01*
X22250Y516D01*
X22250Y1012D01*
X22250Y1450D01*
X22250Y1550D01*
X22250Y1988D01*
X22188Y2050D01*
X21951Y2049D01*
X21859Y2011D01*
X21789Y1941D01*
X21751Y1850D01*
X21751Y1751D01*
X21750Y1612D01*
X21812Y1550D01*
X22250Y1550D01*
X22250Y1450D01*
X21812Y1450D01*
X21750Y1388D01*
X21751Y1249D01*
X21751Y1150D01*
X21789Y1059D01*
X21859Y989D01*
X21951Y951D01*
X22188Y950D01*
X22250Y1012D01*
X22250Y516D01*
X15925Y516D01*
X15925Y2613D01*
X15863Y2675D01*
X15450Y2675D01*
X15450Y2362D01*
X15512Y2300D01*
X15626Y2301D01*
X15725Y2301D01*
X15816Y2339D01*
X15886Y2409D01*
X15924Y2501D01*
X15925Y2613D01*
X15925Y516D01*
X15350Y516D01*
X15350Y2362D01*
X15350Y2675D01*
X14937Y2675D01*
X14875Y2613D01*
X14876Y2501D01*
X14914Y2409D01*
X14984Y2339D01*
X15075Y2301D01*
X15174Y2301D01*
X15288Y2300D01*
X15350Y2362D01*
X15350Y516D01*
X14600Y516D01*
X14600Y988D01*
X14600Y1212D01*
X14599Y1326D01*
X14599Y1425D01*
X14561Y1516D01*
X14491Y1586D01*
X14399Y1624D01*
X14287Y1625D01*
X14225Y1563D01*
X14225Y1150D01*
X14538Y1150D01*
X14600Y1212D01*
X14600Y988D01*
X14538Y1050D01*
X14225Y1050D01*
X14225Y637D01*
X14287Y575D01*
X14399Y576D01*
X14491Y614D01*
X14561Y684D01*
X14599Y775D01*
X14599Y874D01*
X14600Y988D01*
X14600Y516D01*
X13914Y516D01*
X13973Y575D01*
X13973Y576D01*
X14063Y575D01*
X14125Y637D01*
X14125Y1000D01*
X14125Y1050D01*
X14125Y1150D01*
X14125Y1200D01*
X14125Y1563D01*
X14063Y1625D01*
X13973Y1625D01*
X13850Y1748D01*
X13688Y1816D01*
X13513Y1816D01*
X13163Y1816D01*
X13001Y1749D01*
X12877Y1625D01*
X12867Y1602D01*
X12606Y1602D01*
X12583Y1625D01*
X12667Y1827D01*
X12667Y2072D01*
X12589Y2259D01*
X12609Y2268D01*
X12650Y2227D01*
X12812Y2159D01*
X12987Y2159D01*
X13587Y2159D01*
X13749Y2226D01*
X13873Y2350D01*
X13941Y2512D01*
X13941Y2574D01*
X14890Y2822D01*
X14937Y2775D01*
X15300Y2775D01*
X15350Y2775D01*
X15450Y2775D01*
X15500Y2775D01*
X15863Y2775D01*
X15925Y2837D01*
X15924Y2926D01*
X15924Y2927D01*
X16048Y3050D01*
X16116Y3212D01*
X16116Y3387D01*
X16116Y3485D01*
X17234Y4615D01*
X17234Y4459D01*
X17234Y3163D01*
X17301Y3001D01*
X17425Y2877D01*
X17524Y2836D01*
X17524Y2012D01*
X17586Y1950D01*
X17942Y1950D01*
X17942Y1850D01*
X17586Y1850D01*
X17524Y1788D01*
X17525Y769D01*
X17563Y677D01*
X17633Y607D01*
X17724Y569D01*
X17823Y569D01*
X18645Y568D01*
X18707Y630D01*
X18707Y642D01*
X18807Y642D01*
X18807Y630D01*
X18869Y568D01*
X19691Y569D01*
X19790Y569D01*
X19881Y607D01*
X19951Y677D01*
X19989Y769D01*
X19990Y1788D01*
X19928Y1850D01*
X19574Y1850D01*
X19574Y1950D01*
X19928Y1950D01*
X19990Y2012D01*
X19989Y2836D01*
X20088Y2876D01*
X20212Y3000D01*
X20280Y3162D01*
X20280Y3337D01*
X20280Y4633D01*
X20213Y4795D01*
X20089Y4919D01*
X19927Y4987D01*
X19752Y4987D01*
X17602Y4987D01*
X18158Y5548D01*
X20528Y6069D01*
X20587Y6096D01*
X20638Y6108D01*
X20666Y6130D01*
X20707Y6147D01*
X20750Y6193D01*
X20794Y6225D01*
X21010Y6468D01*
X21147Y6467D01*
X21419Y6580D01*
X21628Y6788D01*
X21741Y7061D01*
X21742Y7356D01*
X21629Y7628D01*
X21421Y7837D01*
X21148Y7950D01*
X20853Y7951D01*
X20581Y7838D01*
X20500Y7758D01*
X20421Y7837D01*
X20162Y7945D01*
X20162Y12288D01*
X20162Y12512D01*
X20161Y12547D01*
X20161Y12646D01*
X20123Y12737D01*
X20053Y12807D01*
X19961Y12845D01*
X19532Y12846D01*
X19470Y12784D01*
X19470Y12450D01*
X20100Y12450D01*
X20162Y12512D01*
X20162Y12288D01*
X20100Y12350D01*
X19470Y12350D01*
X19470Y12016D01*
X19532Y11954D01*
X19961Y11955D01*
X20053Y11993D01*
X20123Y12063D01*
X20161Y12154D01*
X20161Y12253D01*
X20162Y12288D01*
X20162Y7945D01*
X20148Y7950D01*
X19853Y7951D01*
X19581Y7838D01*
X19500Y7758D01*
X19421Y7837D01*
X19370Y7859D01*
X19370Y12016D01*
X19370Y12350D01*
X19370Y12450D01*
X19370Y12784D01*
X19308Y12846D01*
X18879Y12845D01*
X18787Y12807D01*
X18717Y12737D01*
X18679Y12646D01*
X18679Y12547D01*
X18678Y12512D01*
X18740Y12450D01*
X19370Y12450D01*
X19370Y12350D01*
X18740Y12350D01*
X18678Y12288D01*
X18679Y12253D01*
X18679Y12154D01*
X18717Y12063D01*
X18787Y11993D01*
X18879Y11955D01*
X19308Y11954D01*
X19370Y12016D01*
X19370Y7859D01*
X19148Y7950D01*
X18853Y7951D01*
X18581Y7838D01*
X18500Y7758D01*
X18421Y7837D01*
X18148Y7950D01*
X17853Y7951D01*
X17581Y7838D01*
X17500Y7758D01*
X17421Y7837D01*
X17148Y7950D01*
X16853Y7951D01*
X16581Y7838D01*
X16500Y7758D01*
X16421Y7837D01*
X16148Y7950D01*
X15853Y7951D01*
X15581Y7838D01*
X15500Y7758D01*
X15421Y7837D01*
X15148Y7950D01*
X14853Y7951D01*
X14581Y7838D01*
X14500Y7758D01*
X14421Y7837D01*
X14148Y7950D01*
X13853Y7951D01*
X13581Y7838D01*
X13372Y7630D01*
X13259Y7357D01*
X13258Y7062D01*
X13371Y6790D01*
X13579Y6581D01*
X13852Y6468D01*
X14147Y6467D01*
X14419Y6580D01*
X14499Y6661D01*
X14579Y6581D01*
X14852Y6468D01*
X15147Y6467D01*
X15419Y6580D01*
X15499Y6661D01*
X15579Y6581D01*
X15852Y6468D01*
X16147Y6467D01*
X16419Y6580D01*
X16499Y6661D01*
X16579Y6581D01*
X16766Y6504D01*
X15626Y6091D01*
X15588Y6091D01*
X15038Y6091D01*
X14876Y6024D01*
X14834Y5983D01*
X13896Y5994D01*
X13874Y6049D01*
X13750Y6173D01*
X13588Y6241D01*
X13413Y6241D01*
X13202Y6241D01*
X13202Y8392D01*
X19433Y14623D01*
X19433Y14528D01*
X19527Y14301D01*
X19700Y14127D01*
X19927Y14033D01*
X20172Y14033D01*
X20399Y14127D01*
X20573Y14300D01*
X20592Y14348D01*
X21298Y13642D01*
X21298Y13037D01*
X21200Y13037D01*
X21038Y12970D01*
X20914Y12846D01*
X20846Y12684D01*
X20846Y12509D01*
X20846Y12117D01*
X20913Y11955D01*
X21037Y11831D01*
X21199Y11763D01*
X21374Y11763D01*
X22358Y11763D01*
X22520Y11830D01*
X22644Y11954D01*
X22712Y12116D01*
X22712Y12291D01*
X22712Y12683D01*
X22645Y12845D01*
X22521Y12969D01*
X22359Y13037D01*
X22302Y13037D01*
X22302Y13850D01*
X22265Y14033D01*
X22472Y14033D01*
X22699Y14127D01*
X22873Y14300D01*
X22967Y14527D01*
X22967Y14635D01*
X22985Y14642D01*
X23109Y14766D01*
X23177Y14928D01*
X23177Y15103D01*
X23177Y16191D01*
X23225Y16143D01*
X23316Y16105D01*
X23415Y16105D01*
X23844Y16104D01*
X23906Y16166D01*
X23906Y16697D01*
X23906Y16797D01*
X23906Y17328D01*
X23844Y17390D01*
X23415Y17389D01*
X23316Y17389D01*
X23315Y17389D01*
X23225Y17351D01*
X23155Y17281D01*
X23117Y17189D01*
X23116Y16859D01*
X23178Y16797D01*
X23906Y16797D01*
X23906Y16697D01*
X23178Y16697D01*
X23148Y16668D01*
X23110Y16759D01*
X22986Y16883D01*
X22824Y16951D01*
X22649Y16951D01*
X22315Y16951D01*
X22315Y25824D01*
X22035Y26103D01*
X22000Y26138D01*
X21929Y26209D01*
X22000Y26280D01*
X22035Y26315D01*
X22315Y26594D01*
X22286Y26689D01*
X22081Y26762D01*
X21863Y26751D01*
X21714Y26689D01*
X21701Y26649D01*
X21675Y26675D01*
X21629Y26629D01*
X21421Y26838D01*
X21148Y26951D01*
X20853Y26952D01*
X20581Y26839D01*
X20372Y26631D01*
X20259Y26358D01*
X20258Y26063D01*
X20371Y25791D01*
X20579Y25582D01*
X20852Y25469D01*
X21147Y25468D01*
X21419Y25581D01*
X21628Y25789D01*
X21628Y25790D01*
X21675Y25743D01*
X21701Y25770D01*
X21714Y25729D01*
X21919Y25656D01*
X22137Y25667D01*
X22286Y25729D01*
X22315Y25824D01*
X22315Y16951D01*
X22255Y16951D01*
X22204Y16930D01*
X22154Y16951D01*
X21979Y16951D01*
X21585Y16951D01*
X21423Y16884D01*
X21299Y16760D01*
X21290Y16740D01*
X21250Y16699D01*
X21250Y16644D01*
X21231Y16598D01*
X21231Y16423D01*
X21231Y15742D01*
X21169Y15834D01*
X21169Y15835D01*
X21169Y16597D01*
X21150Y16643D01*
X21150Y16699D01*
X21110Y16739D01*
X21102Y16759D01*
X20978Y16883D01*
X20816Y16951D01*
X20641Y16951D01*
X20247Y16951D01*
X20196Y16930D01*
X20146Y16951D01*
X19971Y16951D01*
X19742Y16951D01*
X19742Y26356D01*
X19629Y26628D01*
X19421Y26837D01*
X19148Y26950D01*
X18853Y26951D01*
X18581Y26838D01*
X18500Y26758D01*
X18421Y26837D01*
X18148Y26950D01*
X17853Y26951D01*
X17581Y26838D01*
X17500Y26758D01*
X17421Y26837D01*
X17148Y26950D01*
X16853Y26951D01*
X16581Y26838D01*
X16500Y26758D01*
X16421Y26837D01*
X16148Y26950D01*
X15853Y26951D01*
X15581Y26838D01*
X15500Y26758D01*
X15421Y26837D01*
X15148Y26950D01*
X14853Y26951D01*
X14581Y26838D01*
X14500Y26758D01*
X14421Y26837D01*
X14148Y26950D01*
X13853Y26951D01*
X13581Y26838D01*
X13500Y26758D01*
X13421Y26837D01*
X13148Y26950D01*
X12853Y26951D01*
X12581Y26838D01*
X12500Y26758D01*
X12421Y26837D01*
X12148Y26950D01*
X11853Y26951D01*
X11581Y26838D01*
X11372Y26630D01*
X11259Y26357D01*
X11258Y26062D01*
X11371Y25790D01*
X11579Y25581D01*
X11852Y25468D01*
X12147Y25467D01*
X12419Y25580D01*
X12499Y25661D01*
X12579Y25581D01*
X12852Y25468D01*
X13147Y25467D01*
X13419Y25580D01*
X13499Y25661D01*
X13579Y25581D01*
X13852Y25468D01*
X14147Y25467D01*
X14419Y25580D01*
X14499Y25661D01*
X14579Y25581D01*
X14852Y25468D01*
X15147Y25467D01*
X15419Y25580D01*
X15499Y25661D01*
X15579Y25581D01*
X15852Y25468D01*
X16147Y25467D01*
X16419Y25580D01*
X16499Y25661D01*
X16579Y25581D01*
X16852Y25468D01*
X17147Y25467D01*
X17419Y25580D01*
X17499Y25661D01*
X17579Y25581D01*
X17852Y25468D01*
X18147Y25467D01*
X18419Y25580D01*
X18499Y25661D01*
X18579Y25581D01*
X18852Y25468D01*
X19147Y25467D01*
X19419Y25580D01*
X19628Y25788D01*
X19741Y26061D01*
X19742Y26356D01*
X19742Y16951D01*
X19577Y16951D01*
X19415Y16884D01*
X19291Y16760D01*
X19284Y16744D01*
X19284Y16860D01*
X19283Y17190D01*
X19245Y17282D01*
X19175Y17352D01*
X19084Y17390D01*
X18985Y17390D01*
X18557Y17391D01*
X18495Y17329D01*
X18495Y16798D01*
X19222Y16798D01*
X19284Y16860D01*
X19284Y16744D01*
X19252Y16668D01*
X19222Y16698D01*
X18495Y16698D01*
X18495Y16167D01*
X18557Y16105D01*
X18985Y16106D01*
X19084Y16106D01*
X19175Y16144D01*
X19223Y16192D01*
X19223Y15833D01*
X18395Y15005D01*
X18395Y16167D01*
X18395Y16698D01*
X18395Y16798D01*
X18395Y17329D01*
X18333Y17391D01*
X17905Y17390D01*
X17806Y17390D01*
X17715Y17352D01*
X17645Y17282D01*
X17607Y17190D01*
X17606Y16860D01*
X17668Y16798D01*
X18395Y16798D01*
X18395Y16698D01*
X17668Y16698D01*
X17606Y16636D01*
X17607Y16306D01*
X17645Y16214D01*
X17715Y16144D01*
X17806Y16106D01*
X17905Y16106D01*
X18333Y16105D01*
X18395Y16167D01*
X18395Y15005D01*
X12996Y9606D01*
X12996Y16635D01*
X12996Y16859D01*
X12995Y17189D01*
X12957Y17281D01*
X12887Y17351D01*
X12796Y17389D01*
X12697Y17389D01*
X12268Y17390D01*
X12206Y17328D01*
X12206Y16797D01*
X12934Y16797D01*
X12996Y16859D01*
X12996Y16635D01*
X12934Y16697D01*
X12206Y16697D01*
X12206Y16166D01*
X12268Y16104D01*
X12697Y16105D01*
X12796Y16105D01*
X12887Y16143D01*
X12957Y16213D01*
X12995Y16305D01*
X12996Y16635D01*
X12996Y9606D01*
X12345Y8955D01*
X12236Y8792D01*
X12198Y8600D01*
X12198Y7930D01*
X12148Y7950D01*
X11853Y7951D01*
X11751Y7909D01*
X11252Y8408D01*
X11252Y10600D01*
X11251Y10601D01*
X11252Y10601D01*
X11244Y10639D01*
X11214Y10792D01*
X11213Y10793D01*
X11171Y10855D01*
X11171Y10857D01*
X11164Y10892D01*
X11055Y11055D01*
X10541Y11569D01*
X10573Y11600D01*
X10667Y11827D01*
X10667Y12072D01*
X10573Y12299D01*
X10552Y12321D01*
X10552Y14575D01*
X10629Y14575D01*
X11023Y14575D01*
X11185Y14642D01*
X11309Y14766D01*
X11377Y14928D01*
X11377Y15103D01*
X11377Y16191D01*
X11425Y16143D01*
X11516Y16105D01*
X11615Y16105D01*
X12044Y16104D01*
X12106Y16166D01*
X12106Y16697D01*
X12106Y16797D01*
X12106Y17328D01*
X12044Y17390D01*
X11615Y17389D01*
X11516Y17389D01*
X11425Y17351D01*
X11355Y17281D01*
X11317Y17189D01*
X11316Y16859D01*
X11378Y16797D01*
X12106Y16797D01*
X12106Y16697D01*
X11378Y16697D01*
X11348Y16668D01*
X11310Y16759D01*
X11186Y16883D01*
X11024Y16951D01*
X10849Y16951D01*
X10742Y16951D01*
X10742Y26356D01*
X10629Y26628D01*
X10421Y26837D01*
X10148Y26950D01*
X9853Y26951D01*
X9581Y26838D01*
X9500Y26758D01*
X9421Y26837D01*
X9148Y26950D01*
X8853Y26951D01*
X8581Y26838D01*
X8500Y26758D01*
X8421Y26837D01*
X8148Y26950D01*
X7853Y26951D01*
X7581Y26838D01*
X7500Y26758D01*
X7421Y26837D01*
X7148Y26950D01*
X6853Y26951D01*
X6581Y26838D01*
X6500Y26758D01*
X6421Y26837D01*
X6148Y26950D01*
X5853Y26951D01*
X5581Y26838D01*
X5500Y26758D01*
X5421Y26837D01*
X5148Y26950D01*
X4853Y26951D01*
X4581Y26838D01*
X4500Y26758D01*
X4421Y26837D01*
X4148Y26950D01*
X3853Y26951D01*
X3581Y26838D01*
X3500Y26758D01*
X3421Y26837D01*
X3148Y26950D01*
X2853Y26951D01*
X2581Y26838D01*
X2372Y26630D01*
X2259Y26357D01*
X2258Y26062D01*
X2371Y25790D01*
X2579Y25581D01*
X2852Y25468D01*
X3147Y25467D01*
X3419Y25580D01*
X3499Y25661D01*
X3579Y25581D01*
X3852Y25468D01*
X4147Y25467D01*
X4419Y25580D01*
X4499Y25661D01*
X4579Y25581D01*
X4852Y25468D01*
X5147Y25467D01*
X5419Y25580D01*
X5499Y25661D01*
X5579Y25581D01*
X5852Y25468D01*
X6147Y25467D01*
X6419Y25580D01*
X6499Y25661D01*
X6579Y25581D01*
X6852Y25468D01*
X7147Y25467D01*
X7419Y25580D01*
X7499Y25661D01*
X7579Y25581D01*
X7852Y25468D01*
X8147Y25467D01*
X8419Y25580D01*
X8499Y25661D01*
X8579Y25581D01*
X8852Y25468D01*
X9147Y25467D01*
X9419Y25580D01*
X9499Y25661D01*
X9579Y25581D01*
X9852Y25468D01*
X10147Y25467D01*
X10419Y25580D01*
X10628Y25788D01*
X10741Y26061D01*
X10742Y26356D01*
X10742Y16951D01*
X10455Y16951D01*
X10404Y16930D01*
X10354Y16951D01*
X10179Y16951D01*
X9785Y16951D01*
X9623Y16884D01*
X9499Y16760D01*
X9490Y16740D01*
X9450Y16699D01*
X9450Y16644D01*
X9431Y16598D01*
X9431Y16423D01*
X9431Y15742D01*
X9369Y15834D01*
X9369Y15835D01*
X9369Y16597D01*
X9350Y16643D01*
X9350Y16699D01*
X9310Y16739D01*
X9302Y16759D01*
X9178Y16883D01*
X9016Y16951D01*
X8841Y16951D01*
X8447Y16951D01*
X8396Y16930D01*
X8346Y16951D01*
X8171Y16951D01*
X7777Y16951D01*
X7615Y16884D01*
X7491Y16760D01*
X7484Y16744D01*
X7484Y16860D01*
X7483Y17190D01*
X7445Y17282D01*
X7375Y17352D01*
X7284Y17390D01*
X7185Y17390D01*
X6757Y17391D01*
X6695Y17329D01*
X6695Y16798D01*
X7422Y16798D01*
X7484Y16860D01*
X7484Y16744D01*
X7452Y16668D01*
X7422Y16698D01*
X6695Y16698D01*
X6695Y16167D01*
X6757Y16105D01*
X7185Y16106D01*
X7284Y16106D01*
X7375Y16144D01*
X7423Y16192D01*
X7423Y14929D01*
X7490Y14767D01*
X7548Y14709D01*
X7548Y14471D01*
X7527Y14450D01*
X7433Y14223D01*
X7433Y13978D01*
X7527Y13751D01*
X7700Y13577D01*
X7927Y13483D01*
X7998Y13483D01*
X7998Y13137D01*
X7900Y13137D01*
X7738Y13070D01*
X7614Y12946D01*
X7546Y12784D01*
X7546Y12609D01*
X7546Y12217D01*
X7613Y12055D01*
X7737Y11931D01*
X7899Y11863D01*
X8074Y11863D01*
X8427Y11863D01*
X8758Y11532D01*
X8727Y11500D01*
X8633Y11273D01*
X8633Y11028D01*
X8727Y10801D01*
X8748Y10780D01*
X8748Y10408D01*
X6964Y8625D01*
X6964Y9447D01*
X6964Y11672D01*
X6862Y11672D01*
X6862Y12388D01*
X6862Y12612D01*
X6861Y12647D01*
X6861Y12746D01*
X6823Y12837D01*
X6753Y12907D01*
X6661Y12945D01*
X6595Y12946D01*
X6595Y16167D01*
X6595Y16698D01*
X6595Y16798D01*
X6595Y17329D01*
X6533Y17391D01*
X6105Y17390D01*
X6006Y17390D01*
X5915Y17352D01*
X5845Y17282D01*
X5807Y17190D01*
X5806Y16860D01*
X5868Y16798D01*
X6595Y16798D01*
X6595Y16698D01*
X5868Y16698D01*
X5806Y16636D01*
X5807Y16306D01*
X5845Y16214D01*
X5915Y16144D01*
X6006Y16106D01*
X6105Y16106D01*
X6533Y16105D01*
X6595Y16167D01*
X6595Y12946D01*
X6232Y12946D01*
X6170Y12884D01*
X6170Y12550D01*
X6800Y12550D01*
X6862Y12612D01*
X6862Y12388D01*
X6800Y12450D01*
X6170Y12450D01*
X6170Y12116D01*
X6232Y12054D01*
X6661Y12055D01*
X6753Y12093D01*
X6823Y12163D01*
X6861Y12254D01*
X6861Y12353D01*
X6862Y12388D01*
X6862Y11672D01*
X6070Y11672D01*
X6070Y12116D01*
X6070Y12450D01*
X6070Y12550D01*
X6070Y12884D01*
X6008Y12946D01*
X5579Y12945D01*
X5487Y12907D01*
X5417Y12837D01*
X5379Y12746D01*
X5379Y12647D01*
X5378Y12612D01*
X5440Y12550D01*
X6070Y12550D01*
X6070Y12450D01*
X5440Y12450D01*
X5378Y12388D01*
X5379Y12353D01*
X5379Y12254D01*
X5417Y12163D01*
X5487Y12093D01*
X5579Y12055D01*
X6008Y12054D01*
X6070Y12116D01*
X6070Y11672D01*
X4236Y11672D01*
X4236Y9447D01*
X6964Y9447D01*
X6964Y8625D01*
X6248Y7909D01*
X6148Y7950D01*
X5853Y7951D01*
X5581Y7838D01*
X5500Y7758D01*
X5421Y7837D01*
X5148Y7950D01*
X4853Y7951D01*
X4581Y7838D01*
X4449Y7708D01*
X4404Y7818D01*
X4105Y8118D01*
X3713Y8281D01*
X3289Y8281D01*
X2897Y8119D01*
X2672Y7896D01*
X2741Y8061D01*
X2742Y8356D01*
X2629Y8628D01*
X2548Y8709D01*
X2628Y8788D01*
X2741Y9061D01*
X2742Y9356D01*
X2629Y9628D01*
X2548Y9709D01*
X2628Y9788D01*
X2741Y10061D01*
X2742Y10356D01*
X2629Y10628D01*
X2548Y10709D01*
X2628Y10788D01*
X2741Y11061D01*
X2742Y11356D01*
X2629Y11628D01*
X2548Y11709D01*
X2628Y11788D01*
X2741Y12061D01*
X2742Y12356D01*
X2629Y12628D01*
X2548Y12709D01*
X2628Y12788D01*
X2741Y13061D01*
X2742Y13356D01*
X2629Y13628D01*
X2548Y13709D01*
X2628Y13788D01*
X2741Y14061D01*
X2742Y14356D01*
X2629Y14628D01*
X2548Y14709D01*
X2628Y14788D01*
X2741Y15061D01*
X2742Y15356D01*
X2629Y15628D01*
X2548Y15709D01*
X2628Y15788D01*
X2741Y16061D01*
X2742Y16356D01*
X2629Y16628D01*
X2548Y16709D01*
X2628Y16788D01*
X2741Y17061D01*
X2742Y17356D01*
X2629Y17628D01*
X2548Y17709D01*
X2628Y17788D01*
X2741Y18061D01*
X2742Y18356D01*
X2629Y18628D01*
X2548Y18709D01*
X2628Y18788D01*
X2741Y19061D01*
X2742Y19356D01*
X2629Y19628D01*
X2548Y19709D01*
X2628Y19788D01*
X2741Y20061D01*
X2742Y20356D01*
X2629Y20628D01*
X2548Y20709D01*
X2628Y20788D01*
X2741Y21061D01*
X2742Y21356D01*
X2629Y21628D01*
X2548Y21709D01*
X2628Y21788D01*
X2741Y22061D01*
X2742Y22356D01*
X2629Y22628D01*
X2548Y22709D01*
X2628Y22788D01*
X2741Y23061D01*
X2742Y23356D01*
X2629Y23628D01*
X2553Y23705D01*
X2421Y23837D01*
X2419Y23838D01*
X2466Y23884D01*
X2439Y23911D01*
X2480Y23923D01*
X2553Y24128D01*
X2542Y24346D01*
X2480Y24495D01*
X2385Y24524D01*
X2315Y24454D01*
X2315Y24594D01*
X2286Y24689D01*
X2081Y24762D01*
X1863Y24751D01*
X1714Y24689D01*
X1685Y24594D01*
X2000Y24280D01*
X2315Y24594D01*
X2315Y24454D01*
X2071Y24209D01*
X2000Y24138D01*
X1929Y24209D01*
X1894Y24244D01*
X1615Y24524D01*
X1520Y24495D01*
X1501Y24444D01*
X1480Y24495D01*
X1385Y24524D01*
X1315Y24454D01*
X1315Y24594D01*
X1286Y24689D01*
X1081Y24762D01*
X863Y24751D01*
X714Y24689D01*
X685Y24594D01*
X1000Y24280D01*
X1315Y24594D01*
X1315Y24454D01*
X1071Y24209D01*
X1000Y24138D01*
X929Y24209D01*
X894Y24244D01*
X615Y24524D01*
X520Y24495D01*
X516Y24484D01*
X516Y25248D01*
X787Y25135D01*
X1211Y25135D01*
X1603Y25297D01*
X1903Y25596D01*
X2066Y25988D01*
X2066Y26412D01*
X1904Y26804D01*
X1724Y26984D01*
X27425Y26984D01*
X27417Y26963D01*
X27417Y26788D01*
X27417Y26749D01*
X26532Y26726D01*
X26421Y26837D01*
X26148Y26950D01*
X25853Y26951D01*
X25581Y26838D01*
X25500Y26758D01*
X25421Y26837D01*
X25148Y26950D01*
X24853Y26951D01*
X24581Y26838D01*
X24500Y26758D01*
X24421Y26837D01*
X24148Y26950D01*
X23853Y26951D01*
X23581Y26838D01*
X23372Y26630D01*
X23371Y26629D01*
X23325Y26675D01*
X23298Y26649D01*
X23286Y26689D01*
X23081Y26762D01*
X22863Y26751D01*
X22714Y26689D01*
X22685Y26594D01*
X22965Y26315D01*
X23000Y26280D01*
X23071Y26209D01*
X23000Y26138D01*
X22929Y26068D01*
X22929Y26209D01*
X22615Y26524D01*
X22520Y26495D01*
X22501Y26444D01*
X22480Y26495D01*
X22385Y26524D01*
X22315Y26454D01*
X22071Y26209D01*
X22385Y25894D01*
X22480Y25923D01*
X22498Y25975D01*
X22520Y25923D01*
X22615Y25894D01*
X22929Y26209D01*
X22929Y26068D01*
X22685Y25824D01*
X22714Y25729D01*
X22919Y25656D01*
X23137Y25667D01*
X23286Y25729D01*
X23298Y25770D01*
X23315Y25753D01*
X23325Y25743D01*
X23371Y25790D01*
X23579Y25581D01*
X23852Y25468D01*
X24147Y25467D01*
X24419Y25580D01*
X24499Y25661D01*
X24579Y25581D01*
X24852Y25468D01*
X25147Y25467D01*
X25419Y25580D01*
X25499Y25661D01*
X25579Y25581D01*
X25852Y25468D01*
X26147Y25467D01*
X26419Y25580D01*
X26561Y25722D01*
X27417Y25745D01*
X27417Y25568D01*
X27484Y25406D01*
X27608Y25282D01*
X27612Y25281D01*
X27612Y24121D01*
X27609Y24119D01*
X27485Y23995D01*
X27417Y23833D01*
X27417Y23658D01*
X27417Y22438D01*
X27484Y22276D01*
X27608Y22152D01*
X27770Y22084D01*
X27945Y22084D01*
X28457Y22084D01*
X28619Y22151D01*
X28743Y22275D01*
X28811Y22437D01*
X28811Y22612D01*
X28811Y22638D01*
X28841Y22625D01*
X29158Y22624D01*
X29380Y22717D01*
X29381Y22476D01*
X29419Y22384D01*
X29489Y22314D01*
X29580Y22276D01*
X29679Y22276D01*
X29774Y22275D01*
X29836Y22337D01*
X29836Y23035D01*
X29836Y23085D01*
X29836Y23185D01*
X29836Y23235D01*
X29836Y23933D01*
X29774Y23995D01*
X29679Y23994D01*
X29580Y23994D01*
X29559Y23986D01*
X29451Y24094D01*
X29159Y24215D01*
X28842Y24216D01*
X28616Y24123D01*
X28616Y25279D01*
X28841Y25185D01*
X29158Y25184D01*
X29450Y25305D01*
X29559Y25415D01*
X29580Y25406D01*
X29679Y25406D01*
X29774Y25405D01*
X29836Y25467D01*
X29836Y26165D01*
X29836Y26215D01*
X29836Y26315D01*
X29936Y26315D01*
X29936Y26215D01*
X29936Y26165D01*
X29936Y25467D01*
X29998Y25405D01*
X30093Y25406D01*
X30192Y25406D01*
X30283Y25444D01*
X30353Y25514D01*
X30357Y25527D01*
X30409Y25475D01*
X30436Y25503D01*
X30452Y25455D01*
X30677Y25373D01*
X30916Y25383D01*
X31092Y25455D01*
X31126Y25556D01*
X30807Y25874D01*
X30772Y25909D01*
X30701Y25980D01*
X30772Y26051D01*
X30807Y26086D01*
X31126Y26404D01*
X31092Y26505D01*
X30867Y26587D01*
X30628Y26577D01*
X30452Y26505D01*
X30436Y26458D01*
X30409Y26485D01*
X30391Y26468D01*
X30391Y26924D01*
X30366Y26984D01*
X32763Y26984D01*
X32596Y26817D01*
X32433Y26425D01*
X32433Y26001D01*
X32595Y25609D01*
X32894Y25309D01*
X33286Y25146D01*
X33710Y25146D01*
X34102Y25308D01*
X34402Y25607D01*
X34565Y25999D01*
X34565Y26423D01*
X34403Y26815D01*
X34234Y26984D01*
X35691Y26984D01*
X35667Y26974D01*
X35543Y26850D01*
X35475Y26688D01*
X35475Y26513D01*
X35475Y25913D01*
X35542Y25751D01*
X35666Y25627D01*
X35828Y25559D01*
X36003Y25559D01*
X36603Y25559D01*
X36765Y25626D01*
X36801Y25663D01*
X37052Y25559D01*
X37231Y25559D01*
X37698Y25092D01*
X37698Y24806D01*
X37591Y24699D01*
X37523Y24537D01*
X37523Y24362D01*
X37523Y24302D01*
X37486Y24391D01*
X37416Y24461D01*
X37325Y24499D01*
X37226Y24499D01*
X37112Y24500D01*
X37050Y24438D01*
X37050Y24175D01*
X37050Y24125D01*
X37050Y24025D01*
X36950Y24025D01*
X36950Y24125D01*
X36950Y24438D01*
X36888Y24500D01*
X36774Y24499D01*
X36675Y24499D01*
X36584Y24461D01*
X36514Y24391D01*
X36476Y24299D01*
X36475Y24187D01*
X36537Y24125D01*
X36950Y24125D01*
X36950Y24025D01*
X36900Y24025D01*
X36537Y24025D01*
X36475Y23963D01*
X36475Y23874D01*
X36352Y23750D01*
X36284Y23588D01*
X36284Y23413D01*
X36284Y23063D01*
X36351Y22901D01*
X36475Y22777D01*
X36637Y22709D01*
X36812Y22709D01*
X37362Y22709D01*
X37524Y22776D01*
X37620Y22872D01*
X37714Y22778D01*
X37876Y22710D01*
X38051Y22710D01*
X38523Y22710D01*
X38685Y22777D01*
X38809Y22901D01*
X38877Y23063D01*
X38877Y23238D01*
X38877Y23710D01*
X38839Y23801D01*
X38877Y23889D01*
X38877Y24064D01*
X38877Y24536D01*
X38810Y24698D01*
X38702Y24806D01*
X38702Y25300D01*
X38664Y25492D01*
X38557Y25652D01*
X38603Y25671D01*
X38812Y25879D01*
X38925Y26152D01*
X38926Y26447D01*
X38813Y26719D01*
X38605Y26928D01*
X38469Y26984D01*
X39484Y26984D01*
X39484Y21765D01*
X39207Y22042D01*
X38756Y22230D01*
X38267Y22230D01*
X37815Y22043D01*
X37469Y21698D01*
X37281Y21247D01*
X37281Y20758D01*
X37468Y20306D01*
X37813Y19960D01*
X38264Y19772D01*
X38753Y19772D01*
X39205Y19959D01*
X39484Y20238D01*
X39484Y18624D01*
X39386Y18771D01*
X38987Y19037D01*
X38517Y19131D01*
X38469Y19131D01*
X37999Y19037D01*
X37600Y18771D01*
X37334Y18372D01*
X37240Y17902D01*
X37334Y17432D01*
X37600Y17033D01*
X37999Y16767D01*
X38469Y16673D01*
X38517Y16673D01*
X38987Y16767D01*
X39386Y17033D01*
X39484Y17180D01*
X39484Y16020D01*
G54D10*
G36*
X39484Y516D02*
X39150Y516D01*
X39150Y11842D01*
X39150Y12236D01*
X38559Y12236D01*
X38497Y12174D01*
X38498Y11981D01*
X38536Y11889D01*
X38606Y11819D01*
X38697Y11781D01*
X38796Y11781D01*
X39088Y11780D01*
X39150Y11842D01*
X39150Y516D01*
X38766Y516D01*
X38766Y1887D01*
X38766Y2062D01*
X38766Y3412D01*
X38766Y4787D01*
X38766Y4962D01*
X38766Y6312D01*
X38766Y7087D01*
X38766Y7262D01*
X38766Y8612D01*
X38766Y9987D01*
X38766Y10162D01*
X38766Y11512D01*
X38699Y11674D01*
X38575Y11798D01*
X38413Y11866D01*
X38238Y11866D01*
X37969Y11866D01*
X37969Y12511D01*
X37969Y12905D01*
X37398Y12905D01*
X37336Y12843D01*
X37337Y12650D01*
X37375Y12558D01*
X37445Y12488D01*
X37536Y12450D01*
X37635Y12450D01*
X37907Y12449D01*
X37969Y12511D01*
X37969Y11866D01*
X37588Y11866D01*
X37426Y11799D01*
X37302Y11675D01*
X37234Y11513D01*
X37234Y11338D01*
X37234Y9988D01*
X37301Y9826D01*
X37425Y9702D01*
X37587Y9634D01*
X37762Y9634D01*
X38412Y9634D01*
X38574Y9701D01*
X38698Y9825D01*
X38766Y9987D01*
X38766Y8612D01*
X38699Y8774D01*
X38575Y8898D01*
X38413Y8966D01*
X38238Y8966D01*
X37588Y8966D01*
X37426Y8899D01*
X37302Y8775D01*
X37234Y8613D01*
X37234Y8438D01*
X37234Y7088D01*
X37301Y6926D01*
X37425Y6802D01*
X37587Y6734D01*
X37762Y6734D01*
X38412Y6734D01*
X38574Y6801D01*
X38698Y6925D01*
X38766Y7087D01*
X38766Y6312D01*
X38699Y6474D01*
X38575Y6598D01*
X38413Y6666D01*
X38238Y6666D01*
X37588Y6666D01*
X37426Y6599D01*
X37302Y6475D01*
X37234Y6313D01*
X37234Y6138D01*
X37234Y4788D01*
X37301Y4626D01*
X37425Y4502D01*
X37587Y4434D01*
X37762Y4434D01*
X38412Y4434D01*
X38574Y4501D01*
X38698Y4625D01*
X38766Y4787D01*
X38766Y3412D01*
X38699Y3574D01*
X38575Y3698D01*
X38413Y3766D01*
X38238Y3766D01*
X37588Y3766D01*
X37426Y3699D01*
X37302Y3575D01*
X37234Y3413D01*
X37234Y3238D01*
X37234Y1888D01*
X37301Y1726D01*
X37425Y1602D01*
X37587Y1534D01*
X37762Y1534D01*
X38412Y1534D01*
X38574Y1601D01*
X38698Y1725D01*
X38766Y1887D01*
X38766Y516D01*
X36874Y516D01*
X36899Y575D01*
X36899Y674D01*
X36900Y788D01*
X36900Y1012D01*
X36899Y1126D01*
X36899Y1225D01*
X36861Y1316D01*
X36791Y1386D01*
X36699Y1424D01*
X36675Y1425D01*
X36675Y3988D01*
X36675Y4212D01*
X36675Y9188D01*
X36675Y9412D01*
X36674Y9599D01*
X36636Y9691D01*
X36566Y9761D01*
X36475Y9799D01*
X36376Y9799D01*
X35962Y9800D01*
X35900Y9738D01*
X35900Y9350D01*
X36613Y9350D01*
X36675Y9412D01*
X36675Y9188D01*
X36613Y9250D01*
X35900Y9250D01*
X35900Y8862D01*
X35962Y8800D01*
X36376Y8801D01*
X36475Y8801D01*
X36566Y8839D01*
X36636Y8909D01*
X36674Y9001D01*
X36675Y9188D01*
X36675Y4212D01*
X36674Y4399D01*
X36636Y4491D01*
X36566Y4561D01*
X36475Y4599D01*
X36376Y4599D01*
X36000Y4600D01*
X36000Y6588D01*
X36000Y6812D01*
X35999Y6926D01*
X35999Y7025D01*
X35961Y7116D01*
X35891Y7186D01*
X35799Y7224D01*
X35687Y7225D01*
X35625Y7163D01*
X35625Y6750D01*
X35938Y6750D01*
X36000Y6812D01*
X36000Y6588D01*
X35938Y6650D01*
X35625Y6650D01*
X35625Y6237D01*
X35687Y6175D01*
X35799Y6176D01*
X35891Y6214D01*
X35961Y6284D01*
X35999Y6375D01*
X35999Y6474D01*
X36000Y6588D01*
X36000Y4600D01*
X35962Y4600D01*
X35900Y4538D01*
X35900Y4150D01*
X36613Y4150D01*
X36675Y4212D01*
X36675Y3988D01*
X36613Y4050D01*
X35900Y4050D01*
X35900Y3662D01*
X35962Y3600D01*
X36376Y3601D01*
X36475Y3601D01*
X36566Y3639D01*
X36636Y3709D01*
X36674Y3801D01*
X36675Y3988D01*
X36675Y1425D01*
X36587Y1425D01*
X36525Y1363D01*
X36525Y950D01*
X36838Y950D01*
X36900Y1012D01*
X36900Y788D01*
X36838Y850D01*
X36575Y850D01*
X36525Y850D01*
X36425Y850D01*
X36425Y950D01*
X36425Y1000D01*
X36425Y1363D01*
X36363Y1425D01*
X36273Y1425D01*
X36150Y1548D01*
X35988Y1616D01*
X35813Y1616D01*
X35463Y1616D01*
X35301Y1549D01*
X35272Y1521D01*
X35137Y1577D01*
X34962Y1577D01*
X34502Y1577D01*
X34502Y3409D01*
X34712Y3409D01*
X34874Y3476D01*
X34998Y3600D01*
X35053Y3734D01*
X35064Y3709D01*
X35134Y3639D01*
X35225Y3601D01*
X35324Y3601D01*
X35738Y3600D01*
X35800Y3662D01*
X35800Y4000D01*
X35800Y4050D01*
X35800Y4150D01*
X35800Y4200D01*
X35800Y4538D01*
X35738Y4600D01*
X35324Y4599D01*
X35225Y4599D01*
X35134Y4561D01*
X35064Y4491D01*
X35053Y4467D01*
X34999Y4599D01*
X34875Y4723D01*
X34713Y4791D01*
X34552Y4791D01*
X34552Y5692D01*
X34844Y5984D01*
X35087Y5984D01*
X35249Y6051D01*
X35373Y6175D01*
X35373Y6176D01*
X35463Y6175D01*
X35525Y6237D01*
X35525Y6600D01*
X35525Y6650D01*
X35525Y6750D01*
X35525Y6800D01*
X35525Y7163D01*
X35463Y7225D01*
X35373Y7225D01*
X35250Y7348D01*
X35088Y7416D01*
X34913Y7416D01*
X34844Y7416D01*
X34552Y7708D01*
X34552Y8609D01*
X34712Y8609D01*
X34874Y8676D01*
X34998Y8800D01*
X35053Y8934D01*
X35064Y8909D01*
X35134Y8839D01*
X35225Y8801D01*
X35324Y8801D01*
X35738Y8800D01*
X35800Y8862D01*
X35800Y9200D01*
X35800Y9250D01*
X35800Y9350D01*
X35800Y9400D01*
X35800Y9738D01*
X35738Y9800D01*
X35324Y9799D01*
X35225Y9799D01*
X35134Y9761D01*
X35064Y9691D01*
X35053Y9667D01*
X34999Y9799D01*
X34875Y9923D01*
X34713Y9991D01*
X34538Y9991D01*
X34069Y9991D01*
X34067Y9993D01*
X34067Y10022D01*
X33973Y10249D01*
X33800Y10423D01*
X33573Y10517D01*
X33460Y10517D01*
X35069Y13101D01*
X36095Y13963D01*
X36200Y13857D01*
X36345Y13797D01*
X36400Y13666D01*
X36573Y13492D01*
X36800Y13398D01*
X37045Y13398D01*
X37155Y13444D01*
X37208Y13431D01*
X37259Y13429D01*
X37312Y13417D01*
X37436Y13414D01*
X37375Y13352D01*
X37337Y13260D01*
X37336Y13067D01*
X37398Y13005D01*
X37919Y13005D01*
X37969Y13005D01*
X38069Y13005D01*
X38069Y12905D01*
X38069Y12855D01*
X38069Y12511D01*
X38131Y12449D01*
X38403Y12450D01*
X38497Y12450D01*
X38497Y12398D01*
X38559Y12336D01*
X39100Y12336D01*
X39150Y12336D01*
X39250Y12336D01*
X39250Y12236D01*
X39250Y12186D01*
X39250Y11842D01*
X39312Y11780D01*
X39484Y11781D01*
X39484Y516D01*
X39484Y516D01*
G37*
G54D40*
X39484Y516D02*
X39150Y516D01*
X39150Y11842D01*
X39150Y12236D01*
X38559Y12236D01*
X38497Y12174D01*
X38498Y11981D01*
X38536Y11889D01*
X38606Y11819D01*
X38697Y11781D01*
X38796Y11781D01*
X39088Y11780D01*
X39150Y11842D01*
X39150Y516D01*
X38766Y516D01*
X38766Y1887D01*
X38766Y2062D01*
X38766Y3412D01*
X38766Y4787D01*
X38766Y4962D01*
X38766Y6312D01*
X38766Y7087D01*
X38766Y7262D01*
X38766Y8612D01*
X38766Y9987D01*
X38766Y10162D01*
X38766Y11512D01*
X38699Y11674D01*
X38575Y11798D01*
X38413Y11866D01*
X38238Y11866D01*
X37969Y11866D01*
X37969Y12511D01*
X37969Y12905D01*
X37398Y12905D01*
X37336Y12843D01*
X37337Y12650D01*
X37375Y12558D01*
X37445Y12488D01*
X37536Y12450D01*
X37635Y12450D01*
X37907Y12449D01*
X37969Y12511D01*
X37969Y11866D01*
X37588Y11866D01*
X37426Y11799D01*
X37302Y11675D01*
X37234Y11513D01*
X37234Y11338D01*
X37234Y9988D01*
X37301Y9826D01*
X37425Y9702D01*
X37587Y9634D01*
X37762Y9634D01*
X38412Y9634D01*
X38574Y9701D01*
X38698Y9825D01*
X38766Y9987D01*
X38766Y8612D01*
X38699Y8774D01*
X38575Y8898D01*
X38413Y8966D01*
X38238Y8966D01*
X37588Y8966D01*
X37426Y8899D01*
X37302Y8775D01*
X37234Y8613D01*
X37234Y8438D01*
X37234Y7088D01*
X37301Y6926D01*
X37425Y6802D01*
X37587Y6734D01*
X37762Y6734D01*
X38412Y6734D01*
X38574Y6801D01*
X38698Y6925D01*
X38766Y7087D01*
X38766Y6312D01*
X38699Y6474D01*
X38575Y6598D01*
X38413Y6666D01*
X38238Y6666D01*
X37588Y6666D01*
X37426Y6599D01*
X37302Y6475D01*
X37234Y6313D01*
X37234Y6138D01*
X37234Y4788D01*
X37301Y4626D01*
X37425Y4502D01*
X37587Y4434D01*
X37762Y4434D01*
X38412Y4434D01*
X38574Y4501D01*
X38698Y4625D01*
X38766Y4787D01*
X38766Y3412D01*
X38699Y3574D01*
X38575Y3698D01*
X38413Y3766D01*
X38238Y3766D01*
X37588Y3766D01*
X37426Y3699D01*
X37302Y3575D01*
X37234Y3413D01*
X37234Y3238D01*
X37234Y1888D01*
X37301Y1726D01*
X37425Y1602D01*
X37587Y1534D01*
X37762Y1534D01*
X38412Y1534D01*
X38574Y1601D01*
X38698Y1725D01*
X38766Y1887D01*
X38766Y516D01*
X36874Y516D01*
X36899Y575D01*
X36899Y674D01*
X36900Y788D01*
X36900Y1012D01*
X36899Y1126D01*
X36899Y1225D01*
X36861Y1316D01*
X36791Y1386D01*
X36699Y1424D01*
X36675Y1425D01*
X36675Y3988D01*
X36675Y4212D01*
X36675Y9188D01*
X36675Y9412D01*
X36674Y9599D01*
X36636Y9691D01*
X36566Y9761D01*
X36475Y9799D01*
X36376Y9799D01*
X35962Y9800D01*
X35900Y9738D01*
X35900Y9350D01*
X36613Y9350D01*
X36675Y9412D01*
X36675Y9188D01*
X36613Y9250D01*
X35900Y9250D01*
X35900Y8862D01*
X35962Y8800D01*
X36376Y8801D01*
X36475Y8801D01*
X36566Y8839D01*
X36636Y8909D01*
X36674Y9001D01*
X36675Y9188D01*
X36675Y4212D01*
X36674Y4399D01*
X36636Y4491D01*
X36566Y4561D01*
X36475Y4599D01*
X36376Y4599D01*
X36000Y4600D01*
X36000Y6588D01*
X36000Y6812D01*
X35999Y6926D01*
X35999Y7025D01*
X35961Y7116D01*
X35891Y7186D01*
X35799Y7224D01*
X35687Y7225D01*
X35625Y7163D01*
X35625Y6750D01*
X35938Y6750D01*
X36000Y6812D01*
X36000Y6588D01*
X35938Y6650D01*
X35625Y6650D01*
X35625Y6237D01*
X35687Y6175D01*
X35799Y6176D01*
X35891Y6214D01*
X35961Y6284D01*
X35999Y6375D01*
X35999Y6474D01*
X36000Y6588D01*
X36000Y4600D01*
X35962Y4600D01*
X35900Y4538D01*
X35900Y4150D01*
X36613Y4150D01*
X36675Y4212D01*
X36675Y3988D01*
X36613Y4050D01*
X35900Y4050D01*
X35900Y3662D01*
X35962Y3600D01*
X36376Y3601D01*
X36475Y3601D01*
X36566Y3639D01*
X36636Y3709D01*
X36674Y3801D01*
X36675Y3988D01*
X36675Y1425D01*
X36587Y1425D01*
X36525Y1363D01*
X36525Y950D01*
X36838Y950D01*
X36900Y1012D01*
X36900Y788D01*
X36838Y850D01*
X36575Y850D01*
X36525Y850D01*
X36425Y850D01*
X36425Y950D01*
X36425Y1000D01*
X36425Y1363D01*
X36363Y1425D01*
X36273Y1425D01*
X36150Y1548D01*
X35988Y1616D01*
X35813Y1616D01*
X35463Y1616D01*
X35301Y1549D01*
X35272Y1521D01*
X35137Y1577D01*
X34962Y1577D01*
X34502Y1577D01*
X34502Y3409D01*
X34712Y3409D01*
X34874Y3476D01*
X34998Y3600D01*
X35053Y3734D01*
X35064Y3709D01*
X35134Y3639D01*
X35225Y3601D01*
X35324Y3601D01*
X35738Y3600D01*
X35800Y3662D01*
X35800Y4000D01*
X35800Y4050D01*
X35800Y4150D01*
X35800Y4200D01*
X35800Y4538D01*
X35738Y4600D01*
X35324Y4599D01*
X35225Y4599D01*
X35134Y4561D01*
X35064Y4491D01*
X35053Y4467D01*
X34999Y4599D01*
X34875Y4723D01*
X34713Y4791D01*
X34552Y4791D01*
X34552Y5692D01*
X34844Y5984D01*
X35087Y5984D01*
X35249Y6051D01*
X35373Y6175D01*
X35373Y6176D01*
X35463Y6175D01*
X35525Y6237D01*
X35525Y6600D01*
X35525Y6650D01*
X35525Y6750D01*
X35525Y6800D01*
X35525Y7163D01*
X35463Y7225D01*
X35373Y7225D01*
X35250Y7348D01*
X35088Y7416D01*
X34913Y7416D01*
X34844Y7416D01*
X34552Y7708D01*
X34552Y8609D01*
X34712Y8609D01*
X34874Y8676D01*
X34998Y8800D01*
X35053Y8934D01*
X35064Y8909D01*
X35134Y8839D01*
X35225Y8801D01*
X35324Y8801D01*
X35738Y8800D01*
X35800Y8862D01*
X35800Y9200D01*
X35800Y9250D01*
X35800Y9350D01*
X35800Y9400D01*
X35800Y9738D01*
X35738Y9800D01*
X35324Y9799D01*
X35225Y9799D01*
X35134Y9761D01*
X35064Y9691D01*
X35053Y9667D01*
X34999Y9799D01*
X34875Y9923D01*
X34713Y9991D01*
X34538Y9991D01*
X34069Y9991D01*
X34067Y9993D01*
X34067Y10022D01*
X33973Y10249D01*
X33800Y10423D01*
X33573Y10517D01*
X33460Y10517D01*
X35069Y13101D01*
X36095Y13963D01*
X36200Y13857D01*
X36345Y13797D01*
X36400Y13666D01*
X36573Y13492D01*
X36800Y13398D01*
X37045Y13398D01*
X37155Y13444D01*
X37208Y13431D01*
X37259Y13429D01*
X37312Y13417D01*
X37436Y13414D01*
X37375Y13352D01*
X37337Y13260D01*
X37336Y13067D01*
X37398Y13005D01*
X37919Y13005D01*
X37969Y13005D01*
X38069Y13005D01*
X38069Y12905D01*
X38069Y12855D01*
X38069Y12511D01*
X38131Y12449D01*
X38403Y12450D01*
X38497Y12450D01*
X38497Y12398D01*
X38559Y12336D01*
X39100Y12336D01*
X39150Y12336D01*
X39250Y12336D01*
X39250Y12236D01*
X39250Y12186D01*
X39250Y11842D01*
X39312Y11780D01*
X39484Y11781D01*
X39484Y516D01*
M02*
