G04 (created by PCBNEW-RS274X (2011-nov-30)-testing) date Tue 21 Aug 2012 06:29:20 PM EDT*
%MOIN*%
G04 Gerber Fmt 3.4, Leading zero omitted, Abs format*
%FSLAX34Y34*%
G01*
G70*
G90*
G04 APERTURE LIST*
%ADD10C,0.006*%
%ADD11R,0.06X0.06*%
%ADD12C,0.06*%
%ADD13R,0.1967X0.2165*%
%ADD14R,0.2165X0.1297*%
%ADD15C,0.0709*%
%ADD16R,0.0906X0.0512*%
%ADD17R,0.0867X0.0512*%
%ADD18R,0.0591X0.0512*%
%ADD19C,0.035*%
%ADD20C,0.012*%
%ADD21C,0.014*%
%ADD22C,0.01*%
G04 APERTURE END LIST*
G54D10*
G54D11*
X13200Y2900D03*
G54D12*
X12200Y2900D03*
X11200Y2900D03*
G54D11*
X13200Y5500D03*
G54D12*
X12200Y5500D03*
X11200Y5500D03*
G54D13*
X18757Y1900D03*
G54D14*
X18757Y3898D03*
G54D15*
X29000Y23420D03*
X29000Y25980D03*
X30772Y23420D03*
X30772Y25980D03*
X31500Y24700D03*
G54D11*
X36216Y26300D03*
G54D12*
X37200Y26300D03*
X38184Y26300D03*
X32607Y16291D03*
X32608Y17292D03*
X32608Y18292D03*
X32608Y19292D03*
X32608Y20292D03*
X32608Y21292D03*
X32608Y22292D03*
X12000Y7209D03*
X11000Y7209D03*
X10000Y7209D03*
X9000Y7209D03*
X8000Y7209D03*
X7000Y7209D03*
X6000Y7209D03*
X5000Y7209D03*
X3000Y26209D03*
X4000Y26209D03*
X5000Y26209D03*
X6000Y26209D03*
X10000Y26209D03*
X12000Y26209D03*
X13000Y26209D03*
X9000Y26209D03*
X8000Y26209D03*
X7000Y26209D03*
X14000Y26209D03*
X15000Y26209D03*
X16000Y26209D03*
X19000Y26209D03*
X18000Y26209D03*
X17000Y26209D03*
X21000Y26210D03*
X22000Y26209D03*
X23000Y26209D03*
X25000Y26209D03*
X26000Y26209D03*
X14000Y7209D03*
X15000Y7209D03*
X16000Y7209D03*
X17000Y7209D03*
X18000Y7209D03*
X19000Y7209D03*
X20000Y7209D03*
X21000Y7209D03*
X22600Y7209D03*
X23600Y7209D03*
X24600Y7209D03*
X25600Y7209D03*
X26600Y7209D03*
X27600Y7209D03*
X28600Y7209D03*
X29600Y7209D03*
X24000Y26209D03*
X2000Y8209D03*
X1000Y8209D03*
X2000Y9209D03*
X1000Y9209D03*
X2000Y10209D03*
X1000Y10209D03*
X2000Y11209D03*
X1000Y11209D03*
X2000Y7209D03*
X1000Y7209D03*
X1000Y12209D03*
X2000Y12209D03*
X2000Y13209D03*
X1000Y13209D03*
X2000Y14209D03*
X1000Y14209D03*
X2000Y15209D03*
X1000Y15209D03*
X2000Y16209D03*
X1000Y16209D03*
X2000Y17209D03*
X1000Y17209D03*
X2000Y18209D03*
X1000Y18209D03*
X2000Y19209D03*
X1000Y19209D03*
X2000Y20209D03*
X1000Y20209D03*
X2000Y21209D03*
X1000Y21209D03*
X2000Y22209D03*
X1000Y22209D03*
X2000Y23209D03*
X1000Y23209D03*
X2000Y24209D03*
X1000Y24209D03*
G54D11*
X22300Y1500D03*
G54D12*
X23300Y1500D03*
G54D11*
X1300Y1500D03*
G54D12*
X2300Y1500D03*
G54D11*
X25800Y4800D03*
G54D12*
X26800Y4800D03*
X27800Y4800D03*
G54D11*
X25800Y1700D03*
G54D12*
X26800Y1700D03*
X27800Y1700D03*
G54D11*
X33700Y20300D03*
G54D16*
X39200Y12286D03*
G54D17*
X38019Y12955D03*
G54D16*
X39200Y15514D03*
G54D18*
X38019Y14845D03*
G54D19*
X29940Y9020D03*
X26510Y8990D03*
X23150Y3300D03*
X23150Y5700D03*
X33450Y9900D03*
X22350Y14650D03*
X12050Y1950D03*
X9250Y11150D03*
X10050Y11950D03*
X7700Y3350D03*
X10600Y1700D03*
X30860Y5270D03*
X36923Y14015D03*
X30787Y13193D03*
X36550Y14380D03*
X30760Y13800D03*
X8900Y13250D03*
X8050Y14100D03*
X28755Y11294D03*
X8462Y8132D03*
X27000Y12450D03*
X26500Y9950D03*
X9200Y14650D03*
X20050Y14650D03*
X14489Y4433D03*
X14500Y6180D03*
X29210Y9650D03*
X28450Y12540D03*
X29570Y12560D03*
G54D20*
X26510Y8990D02*
X29910Y8990D01*
X29910Y8990D02*
X29940Y9020D01*
X33450Y9900D02*
X31250Y12100D01*
X31250Y12100D02*
X26850Y12100D01*
X26850Y12100D02*
X26800Y12150D01*
X26800Y12150D02*
X26750Y12150D01*
X26750Y12150D02*
X24250Y14650D01*
X24250Y14650D02*
X22350Y14650D01*
X12050Y1950D02*
X12500Y2400D01*
X12500Y2400D02*
X13700Y2400D01*
X13700Y2400D02*
X14950Y3650D01*
X14950Y3650D02*
X16100Y3650D01*
X16100Y3650D02*
X16150Y3700D01*
X16150Y3700D02*
X16200Y3700D01*
X16200Y3700D02*
X17300Y4800D01*
X17300Y4800D02*
X25800Y4800D01*
X9250Y11150D02*
X10050Y11950D01*
X7700Y3350D02*
X9350Y1700D01*
X9350Y1700D02*
X10600Y1700D01*
X30860Y5270D02*
X27800Y4800D01*
X30787Y13193D02*
X36923Y14015D01*
X30760Y13800D02*
X36550Y14380D01*
X8900Y13250D02*
X8050Y14100D01*
X23915Y8135D02*
X8462Y8132D01*
X26110Y10330D02*
X23915Y8135D01*
X26110Y10330D02*
X28755Y11294D01*
X27000Y12450D02*
X32608Y19292D01*
X26500Y9950D02*
X24250Y7700D01*
X24250Y7700D02*
X7850Y7700D01*
X7850Y7700D02*
X7800Y7650D01*
X7800Y7650D02*
X7750Y7650D01*
X7750Y7650D02*
X7700Y7600D01*
X7700Y7600D02*
X7650Y7600D01*
X7650Y7600D02*
X7250Y7200D01*
X7250Y7200D02*
X7000Y7200D01*
X7000Y7200D02*
X7000Y7209D01*
X23300Y1500D02*
X20900Y3900D01*
X20900Y3900D02*
X18750Y3900D01*
X18750Y3900D02*
X18757Y3898D01*
X25800Y1700D02*
X25600Y1500D01*
X25600Y1500D02*
X23300Y1500D01*
G54D21*
X20050Y14650D02*
X28328Y20716D01*
X33240Y24635D02*
X36216Y26300D01*
X31210Y22570D02*
X33240Y24635D01*
X28328Y20716D02*
X31210Y22570D01*
G54D20*
X9200Y14650D02*
X20050Y14650D01*
X37200Y26300D02*
X36500Y27000D01*
X36500Y27000D02*
X33200Y27000D01*
X33200Y27000D02*
X33150Y26950D01*
X33150Y26950D02*
X33100Y26950D01*
X33100Y26950D02*
X33050Y26900D01*
X33050Y26900D02*
X33000Y26900D01*
X33000Y26900D02*
X32800Y26700D01*
X32800Y26700D02*
X21850Y26700D01*
X21850Y26700D02*
X21800Y26650D01*
X21800Y26650D02*
X21750Y26650D01*
X21750Y26650D02*
X21700Y26600D01*
X21700Y26600D02*
X21650Y26600D01*
X21650Y26600D02*
X21250Y26200D01*
X21250Y26200D02*
X21000Y26200D01*
X21000Y26200D02*
X21000Y26210D01*
X14489Y4433D02*
X14500Y6180D01*
X28450Y12540D02*
X29570Y12560D01*
X33700Y20300D02*
X32600Y20300D01*
X32600Y20300D02*
X32608Y20292D01*
G54D10*
G36*
X39484Y516D02*
X39150Y516D01*
X39150Y11842D01*
X39150Y12236D01*
X39150Y12336D01*
X39150Y12730D01*
X39150Y15070D01*
X39150Y15464D01*
X39150Y15564D01*
X39150Y15958D01*
X39088Y16020D01*
X38796Y16019D01*
X38697Y16019D01*
X38606Y15981D01*
X38536Y15911D01*
X38498Y15819D01*
X38497Y15626D01*
X38559Y15564D01*
X39150Y15564D01*
X39150Y15464D01*
X38559Y15464D01*
X38497Y15402D01*
X38497Y15270D01*
X38455Y15312D01*
X38364Y15350D01*
X38265Y15350D01*
X38131Y15351D01*
X38069Y15289D01*
X38069Y14895D01*
X38502Y14895D01*
X38564Y14957D01*
X38563Y15090D01*
X38606Y15047D01*
X38697Y15009D01*
X38796Y15009D01*
X39088Y15008D01*
X39150Y15070D01*
X39150Y12730D01*
X39088Y12792D01*
X38796Y12791D01*
X38701Y12791D01*
X38702Y12843D01*
X38702Y13067D01*
X38701Y13260D01*
X38663Y13352D01*
X38593Y13422D01*
X38564Y13435D01*
X38564Y14733D01*
X38502Y14795D01*
X38069Y14795D01*
X38069Y14401D01*
X38131Y14339D01*
X38265Y14340D01*
X38364Y14340D01*
X38455Y14378D01*
X38525Y14448D01*
X38563Y14540D01*
X38564Y14733D01*
X38564Y13435D01*
X38502Y13460D01*
X38403Y13460D01*
X38131Y13461D01*
X38069Y13399D01*
X38069Y13005D01*
X38640Y13005D01*
X38702Y13067D01*
X38702Y12843D01*
X38640Y12905D01*
X38069Y12905D01*
X38069Y12511D01*
X38131Y12449D01*
X38403Y12450D01*
X38497Y12450D01*
X38497Y12398D01*
X38559Y12336D01*
X39150Y12336D01*
X39150Y12236D01*
X38559Y12236D01*
X38497Y12174D01*
X38498Y11981D01*
X38536Y11889D01*
X38606Y11819D01*
X38697Y11781D01*
X38796Y11781D01*
X39088Y11780D01*
X39150Y11842D01*
X39150Y516D01*
X37969Y516D01*
X37969Y12511D01*
X37969Y12905D01*
X37969Y13005D01*
X37969Y13399D01*
X37969Y14401D01*
X37969Y14795D01*
X37969Y14895D01*
X37969Y15289D01*
X37907Y15351D01*
X37773Y15350D01*
X37674Y15350D01*
X37583Y15312D01*
X37513Y15242D01*
X37475Y15150D01*
X37474Y14957D01*
X37536Y14895D01*
X37969Y14895D01*
X37969Y14795D01*
X37536Y14795D01*
X37474Y14733D01*
X37475Y14540D01*
X37513Y14448D01*
X37583Y14378D01*
X37674Y14340D01*
X37773Y14340D01*
X37907Y14339D01*
X37969Y14401D01*
X37969Y13399D01*
X37907Y13461D01*
X37635Y13460D01*
X37536Y13460D01*
X37445Y13422D01*
X37375Y13352D01*
X37337Y13260D01*
X37336Y13067D01*
X37398Y13005D01*
X37969Y13005D01*
X37969Y12905D01*
X37398Y12905D01*
X37336Y12843D01*
X37337Y12650D01*
X37375Y12558D01*
X37445Y12488D01*
X37536Y12450D01*
X37635Y12450D01*
X37907Y12449D01*
X37969Y12511D01*
X37969Y516D01*
X34078Y516D01*
X34078Y6972D01*
X34078Y7396D01*
X33916Y7788D01*
X33617Y8088D01*
X33225Y8251D01*
X32801Y8251D01*
X32409Y8089D01*
X32109Y7790D01*
X31946Y7398D01*
X31946Y6974D01*
X32108Y6582D01*
X32407Y6282D01*
X32799Y6119D01*
X33223Y6119D01*
X33615Y6281D01*
X33915Y6580D01*
X34078Y6972D01*
X34078Y516D01*
X31477Y516D01*
X31477Y5147D01*
X31477Y5392D01*
X31383Y5619D01*
X31210Y5793D01*
X30983Y5887D01*
X30738Y5887D01*
X30511Y5793D01*
X30427Y5710D01*
X28270Y5380D01*
X28221Y5429D01*
X27948Y5542D01*
X27653Y5542D01*
X27380Y5429D01*
X27300Y5350D01*
X27221Y5429D01*
X26948Y5542D01*
X26653Y5542D01*
X26389Y5434D01*
X26350Y5473D01*
X26188Y5541D01*
X26013Y5541D01*
X25413Y5541D01*
X25251Y5474D01*
X25127Y5350D01*
X25106Y5302D01*
X17300Y5302D01*
X17108Y5264D01*
X16945Y5155D01*
X15945Y4156D01*
X15944Y4155D01*
X15940Y4152D01*
X14950Y4152D01*
X14949Y4152D01*
X14911Y4145D01*
X14758Y4114D01*
X14595Y4005D01*
X14594Y4005D01*
X14594Y4004D01*
X13941Y3352D01*
X13941Y5112D01*
X13941Y5287D01*
X13941Y5887D01*
X13874Y6049D01*
X13750Y6173D01*
X13588Y6241D01*
X13413Y6241D01*
X12813Y6241D01*
X12651Y6174D01*
X12610Y6134D01*
X12348Y6242D01*
X12053Y6242D01*
X11780Y6129D01*
X11700Y6050D01*
X11621Y6129D01*
X11348Y6242D01*
X11053Y6242D01*
X10780Y6129D01*
X10571Y5921D01*
X10458Y5648D01*
X10458Y5353D01*
X10571Y5080D01*
X10779Y4871D01*
X11052Y4758D01*
X11347Y4758D01*
X11620Y4871D01*
X11699Y4951D01*
X11779Y4871D01*
X12052Y4758D01*
X12347Y4758D01*
X12610Y4867D01*
X12650Y4827D01*
X12812Y4759D01*
X12987Y4759D01*
X13587Y4759D01*
X13749Y4826D01*
X13873Y4950D01*
X13941Y5112D01*
X13941Y3352D01*
X13922Y3333D01*
X13874Y3449D01*
X13750Y3573D01*
X13588Y3641D01*
X13413Y3641D01*
X12813Y3641D01*
X12651Y3574D01*
X12610Y3534D01*
X12348Y3642D01*
X12053Y3642D01*
X11780Y3529D01*
X11700Y3450D01*
X11621Y3529D01*
X11348Y3642D01*
X11053Y3642D01*
X10780Y3529D01*
X10571Y3321D01*
X10458Y3048D01*
X10458Y2753D01*
X10571Y2480D01*
X10740Y2310D01*
X10723Y2317D01*
X10478Y2317D01*
X10251Y2223D01*
X10229Y2202D01*
X9558Y2202D01*
X8317Y3443D01*
X8317Y3472D01*
X8223Y3699D01*
X8050Y3873D01*
X7823Y3967D01*
X7578Y3967D01*
X7351Y3873D01*
X7177Y3700D01*
X7083Y3473D01*
X7083Y3228D01*
X7177Y3001D01*
X7350Y2827D01*
X7577Y2733D01*
X7607Y2733D01*
X8995Y1345D01*
X9157Y1236D01*
X9158Y1236D01*
X9350Y1198D01*
X10229Y1198D01*
X10250Y1177D01*
X10477Y1083D01*
X10722Y1083D01*
X10949Y1177D01*
X11123Y1350D01*
X11217Y1577D01*
X11217Y1822D01*
X11123Y2049D01*
X10988Y2185D01*
X11052Y2158D01*
X11347Y2158D01*
X11493Y2219D01*
X11433Y2073D01*
X11433Y1828D01*
X11527Y1601D01*
X11700Y1427D01*
X11927Y1333D01*
X12172Y1333D01*
X12399Y1427D01*
X12573Y1600D01*
X12667Y1827D01*
X12667Y1857D01*
X12708Y1898D01*
X13700Y1898D01*
X13892Y1936D01*
X14055Y2045D01*
X15158Y3148D01*
X16100Y3148D01*
X16292Y3186D01*
X16356Y3229D01*
X16392Y3236D01*
X16555Y3345D01*
X17234Y4024D01*
X17234Y3163D01*
X17301Y3001D01*
X17425Y2877D01*
X17524Y2836D01*
X17524Y2012D01*
X17586Y1950D01*
X17942Y1950D01*
X17942Y1850D01*
X17586Y1850D01*
X17524Y1788D01*
X17525Y769D01*
X17563Y677D01*
X17633Y607D01*
X17724Y569D01*
X17823Y569D01*
X18645Y568D01*
X18707Y630D01*
X18707Y642D01*
X18807Y642D01*
X18807Y630D01*
X18869Y568D01*
X19691Y569D01*
X19790Y569D01*
X19881Y607D01*
X19951Y677D01*
X19989Y769D01*
X19990Y1788D01*
X19928Y1850D01*
X19574Y1850D01*
X19574Y1950D01*
X19928Y1950D01*
X19990Y2012D01*
X19989Y2836D01*
X20088Y2876D01*
X20212Y3000D01*
X20280Y3162D01*
X20280Y3337D01*
X20280Y3398D01*
X20692Y3398D01*
X22040Y2050D01*
X21951Y2049D01*
X21859Y2011D01*
X21789Y1941D01*
X21751Y1850D01*
X21751Y1751D01*
X21750Y1612D01*
X21812Y1550D01*
X22200Y1550D01*
X22250Y1550D01*
X22350Y1550D01*
X22350Y1450D01*
X22350Y1400D01*
X22350Y1012D01*
X22412Y950D01*
X22649Y951D01*
X22741Y989D01*
X22751Y1000D01*
X22879Y871D01*
X23152Y758D01*
X23447Y758D01*
X23720Y871D01*
X23847Y998D01*
X25319Y998D01*
X25412Y959D01*
X25587Y959D01*
X26187Y959D01*
X26349Y1026D01*
X26389Y1067D01*
X26652Y958D01*
X26947Y958D01*
X27220Y1071D01*
X27299Y1151D01*
X27379Y1071D01*
X27652Y958D01*
X27947Y958D01*
X28220Y1071D01*
X28429Y1279D01*
X28542Y1552D01*
X28542Y1847D01*
X28429Y2120D01*
X28221Y2329D01*
X27948Y2442D01*
X27653Y2442D01*
X27380Y2329D01*
X27300Y2250D01*
X27221Y2329D01*
X26948Y2442D01*
X26653Y2442D01*
X26389Y2334D01*
X26350Y2373D01*
X26188Y2441D01*
X26013Y2441D01*
X25413Y2441D01*
X25251Y2374D01*
X25127Y2250D01*
X25059Y2088D01*
X25059Y2002D01*
X23847Y2002D01*
X23721Y2129D01*
X23448Y2242D01*
X23268Y2242D01*
X21255Y4255D01*
X21190Y4298D01*
X25106Y4298D01*
X25126Y4251D01*
X25250Y4127D01*
X25412Y4059D01*
X25587Y4059D01*
X26187Y4059D01*
X26349Y4126D01*
X26389Y4167D01*
X26652Y4058D01*
X26947Y4058D01*
X27220Y4171D01*
X27299Y4251D01*
X27379Y4171D01*
X27652Y4058D01*
X27947Y4058D01*
X28220Y4171D01*
X28429Y4379D01*
X28433Y4390D01*
X30580Y4718D01*
X30737Y4653D01*
X30982Y4653D01*
X31209Y4747D01*
X31383Y4920D01*
X31477Y5147D01*
X31477Y516D01*
X22250Y516D01*
X22250Y1012D01*
X22250Y1450D01*
X21812Y1450D01*
X21750Y1388D01*
X21751Y1249D01*
X21751Y1150D01*
X21789Y1059D01*
X21859Y989D01*
X21951Y951D01*
X22188Y950D01*
X22250Y1012D01*
X22250Y516D01*
X3042Y516D01*
X3042Y1352D01*
X3042Y1647D01*
X2929Y1920D01*
X2721Y2129D01*
X2448Y2242D01*
X2153Y2242D01*
X1880Y2129D01*
X1751Y2001D01*
X1741Y2011D01*
X1649Y2049D01*
X1412Y2050D01*
X1350Y1988D01*
X1350Y1600D01*
X1350Y1550D01*
X1350Y1450D01*
X1350Y1400D01*
X1350Y1012D01*
X1412Y950D01*
X1649Y951D01*
X1741Y989D01*
X1751Y1000D01*
X1879Y871D01*
X2152Y758D01*
X2447Y758D01*
X2720Y871D01*
X2929Y1079D01*
X3042Y1352D01*
X3042Y516D01*
X1250Y516D01*
X1250Y1012D01*
X1250Y1450D01*
X1250Y1550D01*
X1250Y1988D01*
X1188Y2050D01*
X951Y2049D01*
X859Y2011D01*
X789Y1941D01*
X751Y1850D01*
X751Y1751D01*
X750Y1612D01*
X812Y1550D01*
X1250Y1550D01*
X1250Y1450D01*
X812Y1450D01*
X750Y1388D01*
X751Y1249D01*
X751Y1150D01*
X789Y1059D01*
X859Y989D01*
X951Y951D01*
X1188Y950D01*
X1250Y1012D01*
X1250Y516D01*
X516Y516D01*
X516Y6644D01*
X579Y6580D01*
X852Y6467D01*
X1147Y6467D01*
X1420Y6580D01*
X1499Y6660D01*
X1579Y6580D01*
X1852Y6467D01*
X2147Y6467D01*
X2420Y6580D01*
X2554Y6714D01*
X2596Y6612D01*
X2895Y6312D01*
X3287Y6149D01*
X3711Y6149D01*
X4103Y6311D01*
X4403Y6610D01*
X4446Y6714D01*
X4579Y6580D01*
X4852Y6467D01*
X5147Y6467D01*
X5420Y6580D01*
X5499Y6660D01*
X5579Y6580D01*
X5852Y6467D01*
X6147Y6467D01*
X6420Y6580D01*
X6499Y6660D01*
X6579Y6580D01*
X6852Y6467D01*
X7147Y6467D01*
X7420Y6580D01*
X7499Y6660D01*
X7579Y6580D01*
X7852Y6467D01*
X8147Y6467D01*
X8420Y6580D01*
X8499Y6660D01*
X8579Y6580D01*
X8852Y6467D01*
X9147Y6467D01*
X9420Y6580D01*
X9499Y6660D01*
X9579Y6580D01*
X9852Y6467D01*
X10147Y6467D01*
X10420Y6580D01*
X10499Y6660D01*
X10579Y6580D01*
X10852Y6467D01*
X11147Y6467D01*
X11420Y6580D01*
X11499Y6660D01*
X11579Y6580D01*
X11852Y6467D01*
X12147Y6467D01*
X12420Y6580D01*
X12629Y6788D01*
X12742Y7061D01*
X12742Y7198D01*
X13258Y7198D01*
X13258Y7062D01*
X13371Y6789D01*
X13579Y6580D01*
X13852Y6467D01*
X14147Y6467D01*
X14420Y6580D01*
X14499Y6660D01*
X14579Y6580D01*
X14852Y6467D01*
X15147Y6467D01*
X15420Y6580D01*
X15499Y6660D01*
X15579Y6580D01*
X15852Y6467D01*
X16147Y6467D01*
X16420Y6580D01*
X16499Y6660D01*
X16579Y6580D01*
X16852Y6467D01*
X17147Y6467D01*
X17420Y6580D01*
X17499Y6660D01*
X17579Y6580D01*
X17852Y6467D01*
X18147Y6467D01*
X18420Y6580D01*
X18499Y6660D01*
X18579Y6580D01*
X18852Y6467D01*
X19147Y6467D01*
X19420Y6580D01*
X19499Y6660D01*
X19579Y6580D01*
X19852Y6467D01*
X20147Y6467D01*
X20420Y6580D01*
X20499Y6660D01*
X20579Y6580D01*
X20852Y6467D01*
X21147Y6467D01*
X21420Y6580D01*
X21629Y6788D01*
X21742Y7061D01*
X21742Y7198D01*
X21858Y7198D01*
X21858Y7062D01*
X21971Y6789D01*
X22179Y6580D01*
X22452Y6467D01*
X22747Y6467D01*
X23020Y6580D01*
X23099Y6660D01*
X23179Y6580D01*
X23452Y6467D01*
X23747Y6467D01*
X24020Y6580D01*
X24099Y6660D01*
X24179Y6580D01*
X24452Y6467D01*
X24747Y6467D01*
X25020Y6580D01*
X25099Y6660D01*
X25179Y6580D01*
X25452Y6467D01*
X25747Y6467D01*
X26020Y6580D01*
X26099Y6660D01*
X26179Y6580D01*
X26452Y6467D01*
X26747Y6467D01*
X27020Y6580D01*
X27099Y6660D01*
X27179Y6580D01*
X27452Y6467D01*
X27747Y6467D01*
X28020Y6580D01*
X28099Y6660D01*
X28179Y6580D01*
X28452Y6467D01*
X28747Y6467D01*
X29020Y6580D01*
X29099Y6660D01*
X29179Y6580D01*
X29452Y6467D01*
X29747Y6467D01*
X30020Y6580D01*
X30229Y6788D01*
X30342Y7061D01*
X30342Y7356D01*
X30229Y7629D01*
X30021Y7838D01*
X29748Y7951D01*
X29453Y7951D01*
X29180Y7838D01*
X29100Y7759D01*
X29021Y7838D01*
X28748Y7951D01*
X28453Y7951D01*
X28180Y7838D01*
X28100Y7759D01*
X28021Y7838D01*
X27748Y7951D01*
X27453Y7951D01*
X27180Y7838D01*
X27100Y7759D01*
X27021Y7838D01*
X26748Y7951D01*
X26453Y7951D01*
X26180Y7838D01*
X26100Y7759D01*
X26021Y7838D01*
X25748Y7951D01*
X25453Y7951D01*
X25180Y7838D01*
X25100Y7759D01*
X25059Y7800D01*
X25961Y8702D01*
X25987Y8641D01*
X26160Y8467D01*
X26387Y8373D01*
X26632Y8373D01*
X26859Y8467D01*
X26880Y8488D01*
X29611Y8488D01*
X29817Y8403D01*
X30062Y8403D01*
X30289Y8497D01*
X30463Y8670D01*
X30557Y8897D01*
X30557Y9142D01*
X30463Y9369D01*
X30290Y9543D01*
X30063Y9637D01*
X29818Y9637D01*
X29591Y9543D01*
X29539Y9492D01*
X26914Y9492D01*
X27023Y9600D01*
X27117Y9827D01*
X27117Y10072D01*
X27084Y10151D01*
X28584Y10697D01*
X28632Y10677D01*
X28877Y10677D01*
X29104Y10771D01*
X29278Y10944D01*
X29372Y11171D01*
X29372Y11416D01*
X29296Y11598D01*
X31042Y11598D01*
X32833Y9807D01*
X32833Y9778D01*
X32927Y9551D01*
X33100Y9377D01*
X33327Y9283D01*
X33572Y9283D01*
X33799Y9377D01*
X33973Y9550D01*
X34067Y9777D01*
X34067Y10022D01*
X33973Y10249D01*
X33800Y10423D01*
X33573Y10517D01*
X33543Y10517D01*
X31605Y12455D01*
X31442Y12564D01*
X31250Y12602D01*
X30971Y12602D01*
X31136Y12670D01*
X31208Y12743D01*
X36634Y13467D01*
X36800Y13398D01*
X37045Y13398D01*
X37272Y13492D01*
X37446Y13665D01*
X37540Y13892D01*
X37540Y14137D01*
X37446Y14364D01*
X37273Y14538D01*
X37127Y14599D01*
X37073Y14729D01*
X36900Y14903D01*
X36673Y14997D01*
X36428Y14997D01*
X36201Y14903D01*
X36138Y14842D01*
X31077Y14337D01*
X30883Y14417D01*
X30638Y14417D01*
X30411Y14323D01*
X30237Y14150D01*
X30143Y13923D01*
X30143Y13678D01*
X30231Y13465D01*
X30170Y13316D01*
X30170Y13071D01*
X30264Y12844D01*
X30437Y12670D01*
X30601Y12602D01*
X27772Y12602D01*
X32037Y17813D01*
X32058Y17793D01*
X31979Y17713D01*
X31866Y17440D01*
X31866Y17145D01*
X31979Y16872D01*
X32058Y16793D01*
X31978Y16712D01*
X31865Y16439D01*
X31865Y16144D01*
X31978Y15871D01*
X32186Y15662D01*
X32459Y15549D01*
X32754Y15549D01*
X33027Y15662D01*
X33236Y15870D01*
X33349Y16143D01*
X33349Y16438D01*
X33236Y16711D01*
X33156Y16791D01*
X33237Y16871D01*
X33350Y17144D01*
X33350Y17439D01*
X33237Y17712D01*
X33157Y17792D01*
X33237Y17871D01*
X33350Y18144D01*
X33350Y18439D01*
X33237Y18712D01*
X33157Y18792D01*
X33237Y18871D01*
X33350Y19144D01*
X33350Y19439D01*
X33297Y19565D01*
X33312Y19559D01*
X33487Y19559D01*
X34087Y19559D01*
X34249Y19626D01*
X34373Y19750D01*
X34441Y19912D01*
X34441Y20087D01*
X34441Y20687D01*
X34374Y20849D01*
X34250Y20973D01*
X34088Y21041D01*
X33913Y21041D01*
X33313Y21041D01*
X33161Y20979D01*
X33151Y20974D01*
X33063Y20887D01*
X33029Y20921D01*
X33028Y20922D01*
X33074Y20967D01*
X33047Y20994D01*
X33088Y21006D01*
X33161Y21211D01*
X33161Y22211D01*
X33150Y22429D01*
X33088Y22578D01*
X32993Y22607D01*
X32923Y22537D01*
X32923Y22677D01*
X32894Y22772D01*
X32689Y22845D01*
X32471Y22834D01*
X32322Y22772D01*
X32293Y22677D01*
X32608Y22363D01*
X32923Y22677D01*
X32923Y22537D01*
X32679Y22292D01*
X32993Y21977D01*
X33088Y22006D01*
X33161Y22211D01*
X33161Y21211D01*
X33150Y21429D01*
X33088Y21578D01*
X32993Y21607D01*
X32923Y21537D01*
X32923Y21677D01*
X32894Y21772D01*
X32842Y21791D01*
X32894Y21812D01*
X32923Y21907D01*
X32608Y22221D01*
X32537Y22151D01*
X32537Y22292D01*
X32223Y22607D01*
X32128Y22578D01*
X32055Y22373D01*
X32066Y22155D01*
X32128Y22006D01*
X32223Y21977D01*
X32537Y22292D01*
X32537Y22151D01*
X32293Y21907D01*
X32322Y21812D01*
X32373Y21794D01*
X32322Y21772D01*
X32293Y21677D01*
X32608Y21363D01*
X32923Y21677D01*
X32923Y21537D01*
X32679Y21292D01*
X32608Y21221D01*
X32537Y21292D01*
X32502Y21327D01*
X32223Y21607D01*
X32128Y21578D01*
X32055Y21373D01*
X32066Y21155D01*
X32128Y21006D01*
X32168Y20994D01*
X32142Y20967D01*
X32188Y20921D01*
X31979Y20713D01*
X31866Y20440D01*
X31866Y20145D01*
X31979Y19872D01*
X32058Y19793D01*
X31979Y19713D01*
X31866Y19440D01*
X31866Y19188D01*
X26845Y13054D01*
X26651Y12973D01*
X26643Y12967D01*
X24605Y15005D01*
X24442Y15114D01*
X24250Y15152D01*
X22720Y15152D01*
X22700Y15173D01*
X22473Y15267D01*
X22228Y15267D01*
X22001Y15173D01*
X21827Y15000D01*
X21733Y14773D01*
X21733Y14528D01*
X21827Y14301D01*
X22000Y14127D01*
X22227Y14033D01*
X22472Y14033D01*
X22699Y14127D01*
X22720Y14148D01*
X24042Y14148D01*
X26395Y11795D01*
X26557Y11687D01*
X26558Y11686D01*
X26592Y11680D01*
X26593Y11680D01*
X26593Y11679D01*
X26595Y11679D01*
X26657Y11637D01*
X26658Y11636D01*
X26811Y11606D01*
X26849Y11598D01*
X26849Y11599D01*
X26850Y11598D01*
X28125Y11598D01*
X25938Y10802D01*
X25928Y10797D01*
X25918Y10794D01*
X25845Y10746D01*
X25771Y10700D01*
X25764Y10692D01*
X25755Y10685D01*
X23704Y8634D01*
X10667Y8634D01*
X10667Y11827D01*
X10667Y12072D01*
X10573Y12299D01*
X10400Y12473D01*
X10173Y12567D01*
X9928Y12567D01*
X9701Y12473D01*
X9527Y12300D01*
X9517Y12276D01*
X9517Y13127D01*
X9517Y13372D01*
X9423Y13599D01*
X9250Y13773D01*
X9023Y13867D01*
X8993Y13867D01*
X8667Y14193D01*
X8667Y14222D01*
X8573Y14449D01*
X8400Y14623D01*
X8173Y14717D01*
X7928Y14717D01*
X7701Y14623D01*
X7527Y14450D01*
X7433Y14223D01*
X7433Y13978D01*
X7527Y13751D01*
X7700Y13577D01*
X7927Y13483D01*
X7957Y13483D01*
X8283Y13157D01*
X8283Y13128D01*
X8377Y12901D01*
X8550Y12727D01*
X8777Y12633D01*
X9022Y12633D01*
X9249Y12727D01*
X9423Y12900D01*
X9517Y13127D01*
X9517Y12276D01*
X9433Y12073D01*
X9433Y12043D01*
X9157Y11767D01*
X9128Y11767D01*
X8901Y11673D01*
X8727Y11500D01*
X8633Y11273D01*
X8633Y11028D01*
X8727Y10801D01*
X8900Y10627D01*
X9127Y10533D01*
X9372Y10533D01*
X9599Y10627D01*
X9773Y10800D01*
X9867Y11027D01*
X9867Y11057D01*
X10143Y11333D01*
X10172Y11333D01*
X10399Y11427D01*
X10573Y11600D01*
X10667Y11827D01*
X10667Y8634D01*
X8832Y8634D01*
X8812Y8655D01*
X8585Y8749D01*
X8340Y8749D01*
X8113Y8655D01*
X7939Y8482D01*
X7845Y8255D01*
X7845Y8202D01*
X7811Y8195D01*
X7658Y8164D01*
X7595Y8122D01*
X7593Y8122D01*
X7593Y8121D01*
X7592Y8121D01*
X7558Y8114D01*
X7495Y8072D01*
X7493Y8072D01*
X7493Y8071D01*
X7492Y8071D01*
X7458Y8064D01*
X7295Y7955D01*
X7292Y7952D01*
X7249Y7909D01*
X7148Y7951D01*
X6853Y7951D01*
X6580Y7838D01*
X6500Y7759D01*
X6421Y7838D01*
X6148Y7951D01*
X5853Y7951D01*
X5580Y7838D01*
X5500Y7759D01*
X5421Y7838D01*
X5148Y7951D01*
X4853Y7951D01*
X4580Y7838D01*
X4449Y7709D01*
X4404Y7818D01*
X4105Y8118D01*
X3713Y8281D01*
X3289Y8281D01*
X2897Y8119D01*
X2674Y7897D01*
X2742Y8061D01*
X2742Y8356D01*
X2629Y8629D01*
X2549Y8709D01*
X2629Y8788D01*
X2742Y9061D01*
X2742Y9356D01*
X2629Y9629D01*
X2549Y9709D01*
X2629Y9788D01*
X2742Y10061D01*
X2742Y10356D01*
X2629Y10629D01*
X2549Y10709D01*
X2629Y10788D01*
X2742Y11061D01*
X2742Y11356D01*
X2629Y11629D01*
X2549Y11709D01*
X2629Y11788D01*
X2742Y12061D01*
X2742Y12356D01*
X2629Y12629D01*
X2549Y12709D01*
X2629Y12788D01*
X2742Y13061D01*
X2742Y13356D01*
X2629Y13629D01*
X2549Y13709D01*
X2629Y13788D01*
X2742Y14061D01*
X2742Y14356D01*
X2629Y14629D01*
X2549Y14709D01*
X2629Y14788D01*
X2742Y15061D01*
X2742Y15356D01*
X2629Y15629D01*
X2549Y15709D01*
X2629Y15788D01*
X2742Y16061D01*
X2742Y16356D01*
X2629Y16629D01*
X2549Y16709D01*
X2629Y16788D01*
X2742Y17061D01*
X2742Y17356D01*
X2629Y17629D01*
X2549Y17709D01*
X2629Y17788D01*
X2742Y18061D01*
X2742Y18356D01*
X2629Y18629D01*
X2549Y18709D01*
X2629Y18788D01*
X2742Y19061D01*
X2742Y19356D01*
X2629Y19629D01*
X2549Y19709D01*
X2629Y19788D01*
X2742Y20061D01*
X2742Y20356D01*
X2629Y20629D01*
X2549Y20709D01*
X2629Y20788D01*
X2742Y21061D01*
X2742Y21356D01*
X2629Y21629D01*
X2549Y21709D01*
X2629Y21788D01*
X2742Y22061D01*
X2742Y22356D01*
X2629Y22629D01*
X2549Y22709D01*
X2629Y22788D01*
X2742Y23061D01*
X2742Y23356D01*
X2629Y23629D01*
X2553Y23706D01*
X2421Y23838D01*
X2420Y23839D01*
X2466Y23884D01*
X2439Y23911D01*
X2480Y23923D01*
X2553Y24128D01*
X2542Y24346D01*
X2480Y24495D01*
X2385Y24524D01*
X2315Y24454D01*
X2315Y24594D01*
X2286Y24689D01*
X2081Y24762D01*
X1863Y24751D01*
X1714Y24689D01*
X1685Y24594D01*
X2000Y24280D01*
X2315Y24594D01*
X2315Y24454D01*
X2071Y24209D01*
X2000Y24138D01*
X1929Y24209D01*
X1894Y24244D01*
X1615Y24524D01*
X1520Y24495D01*
X1501Y24444D01*
X1480Y24495D01*
X1385Y24524D01*
X1315Y24454D01*
X1315Y24594D01*
X1286Y24689D01*
X1081Y24762D01*
X863Y24751D01*
X714Y24689D01*
X685Y24594D01*
X1000Y24280D01*
X1315Y24594D01*
X1315Y24454D01*
X1071Y24209D01*
X1000Y24138D01*
X929Y24209D01*
X894Y24244D01*
X615Y24524D01*
X520Y24495D01*
X516Y24484D01*
X516Y25248D01*
X787Y25135D01*
X1211Y25135D01*
X1603Y25297D01*
X1903Y25596D01*
X2066Y25988D01*
X2066Y26412D01*
X1904Y26804D01*
X1724Y26984D01*
X21338Y26984D01*
X21295Y26955D01*
X21292Y26952D01*
X21250Y26910D01*
X21148Y26952D01*
X20853Y26952D01*
X20580Y26839D01*
X20371Y26631D01*
X20258Y26358D01*
X20258Y26063D01*
X20371Y25790D01*
X20579Y25581D01*
X20852Y25468D01*
X21147Y25468D01*
X21420Y25581D01*
X21629Y25789D01*
X21675Y25743D01*
X21701Y25770D01*
X21714Y25729D01*
X21919Y25656D01*
X22137Y25667D01*
X22286Y25729D01*
X22315Y25824D01*
X22035Y26103D01*
X22000Y26138D01*
X21958Y26180D01*
X21992Y26186D01*
X22009Y26198D01*
X22081Y26198D01*
X22385Y25894D01*
X22480Y25923D01*
X22498Y25975D01*
X22520Y25923D01*
X22615Y25894D01*
X22894Y26174D01*
X22918Y26198D01*
X23060Y26198D01*
X23000Y26138D01*
X22685Y25824D01*
X22714Y25729D01*
X22919Y25656D01*
X23137Y25667D01*
X23286Y25729D01*
X23298Y25770D01*
X23315Y25753D01*
X23325Y25743D01*
X23371Y25789D01*
X23579Y25580D01*
X23852Y25467D01*
X24147Y25467D01*
X24420Y25580D01*
X24499Y25660D01*
X24579Y25580D01*
X24852Y25467D01*
X25147Y25467D01*
X25420Y25580D01*
X25499Y25660D01*
X25579Y25580D01*
X25852Y25467D01*
X26147Y25467D01*
X26420Y25580D01*
X26629Y25788D01*
X26742Y26061D01*
X26742Y26198D01*
X28228Y26198D01*
X28204Y26139D01*
X28204Y25822D01*
X28325Y25529D01*
X28549Y25305D01*
X28841Y25184D01*
X29158Y25184D01*
X29451Y25305D01*
X29675Y25529D01*
X29796Y25821D01*
X29796Y26138D01*
X29771Y26198D01*
X30000Y26198D01*
X29976Y26139D01*
X29976Y25822D01*
X30097Y25529D01*
X30321Y25305D01*
X30613Y25184D01*
X30858Y25184D01*
X30825Y25151D01*
X30704Y24859D01*
X30704Y24542D01*
X30825Y24249D01*
X30858Y24216D01*
X30614Y24216D01*
X30321Y24095D01*
X30097Y23871D01*
X29976Y23579D01*
X29976Y23262D01*
X30097Y22969D01*
X30321Y22745D01*
X30449Y22692D01*
X29607Y22150D01*
X29607Y23325D01*
X29597Y23564D01*
X29525Y23740D01*
X29424Y23774D01*
X29354Y23704D01*
X29354Y23844D01*
X29320Y23945D01*
X29095Y24027D01*
X28856Y24017D01*
X28680Y23945D01*
X28646Y23844D01*
X29000Y23491D01*
X29354Y23844D01*
X29354Y23704D01*
X29071Y23420D01*
X29424Y23066D01*
X29525Y23100D01*
X29607Y23325D01*
X29607Y22150D01*
X29354Y21987D01*
X29354Y22996D01*
X29000Y23349D01*
X28929Y23279D01*
X28929Y23420D01*
X28576Y23774D01*
X28475Y23740D01*
X28393Y23515D01*
X28403Y23276D01*
X28475Y23100D01*
X28576Y23066D01*
X28929Y23420D01*
X28929Y23279D01*
X28646Y22996D01*
X28680Y22895D01*
X28905Y22813D01*
X29144Y22823D01*
X29320Y22895D01*
X29354Y22996D01*
X29354Y21987D01*
X28051Y21146D01*
X28025Y21122D01*
X23315Y17675D01*
X22315Y16943D01*
X20026Y15267D01*
X19928Y15267D01*
X19742Y15190D01*
X19742Y26061D01*
X19742Y26356D01*
X19629Y26629D01*
X19421Y26838D01*
X19148Y26951D01*
X18853Y26951D01*
X18580Y26838D01*
X18500Y26759D01*
X18421Y26838D01*
X18148Y26951D01*
X17853Y26951D01*
X17580Y26838D01*
X17500Y26759D01*
X17421Y26838D01*
X17148Y26951D01*
X16853Y26951D01*
X16580Y26838D01*
X16500Y26759D01*
X16421Y26838D01*
X16148Y26951D01*
X15853Y26951D01*
X15580Y26838D01*
X15500Y26759D01*
X15421Y26838D01*
X15148Y26951D01*
X14853Y26951D01*
X14580Y26838D01*
X14500Y26759D01*
X14421Y26838D01*
X14148Y26951D01*
X13853Y26951D01*
X13580Y26838D01*
X13500Y26759D01*
X13421Y26838D01*
X13148Y26951D01*
X12853Y26951D01*
X12580Y26838D01*
X12500Y26759D01*
X12421Y26838D01*
X12148Y26951D01*
X11853Y26951D01*
X11580Y26838D01*
X11371Y26630D01*
X11258Y26357D01*
X11258Y26062D01*
X11371Y25789D01*
X11579Y25580D01*
X11852Y25467D01*
X12147Y25467D01*
X12420Y25580D01*
X12499Y25660D01*
X12579Y25580D01*
X12852Y25467D01*
X13147Y25467D01*
X13420Y25580D01*
X13499Y25660D01*
X13579Y25580D01*
X13852Y25467D01*
X14147Y25467D01*
X14420Y25580D01*
X14499Y25660D01*
X14579Y25580D01*
X14852Y25467D01*
X15147Y25467D01*
X15420Y25580D01*
X15499Y25660D01*
X15579Y25580D01*
X15852Y25467D01*
X16147Y25467D01*
X16420Y25580D01*
X16499Y25660D01*
X16579Y25580D01*
X16852Y25467D01*
X17147Y25467D01*
X17420Y25580D01*
X17499Y25660D01*
X17579Y25580D01*
X17852Y25467D01*
X18147Y25467D01*
X18420Y25580D01*
X18499Y25660D01*
X18579Y25580D01*
X18852Y25467D01*
X19147Y25467D01*
X19420Y25580D01*
X19629Y25788D01*
X19742Y26061D01*
X19742Y15190D01*
X19701Y15173D01*
X19679Y15152D01*
X10742Y15152D01*
X10742Y26061D01*
X10742Y26356D01*
X10629Y26629D01*
X10421Y26838D01*
X10148Y26951D01*
X9853Y26951D01*
X9580Y26838D01*
X9500Y26759D01*
X9421Y26838D01*
X9148Y26951D01*
X8853Y26951D01*
X8580Y26838D01*
X8500Y26759D01*
X8421Y26838D01*
X8148Y26951D01*
X7853Y26951D01*
X7580Y26838D01*
X7500Y26759D01*
X7421Y26838D01*
X7148Y26951D01*
X6853Y26951D01*
X6580Y26838D01*
X6500Y26759D01*
X6421Y26838D01*
X6148Y26951D01*
X5853Y26951D01*
X5580Y26838D01*
X5500Y26759D01*
X5421Y26838D01*
X5148Y26951D01*
X4853Y26951D01*
X4580Y26838D01*
X4500Y26759D01*
X4421Y26838D01*
X4148Y26951D01*
X3853Y26951D01*
X3580Y26838D01*
X3500Y26759D01*
X3421Y26838D01*
X3148Y26951D01*
X2853Y26951D01*
X2580Y26838D01*
X2371Y26630D01*
X2258Y26357D01*
X2258Y26062D01*
X2371Y25789D01*
X2579Y25580D01*
X2852Y25467D01*
X3147Y25467D01*
X3420Y25580D01*
X3499Y25660D01*
X3579Y25580D01*
X3852Y25467D01*
X4147Y25467D01*
X4420Y25580D01*
X4499Y25660D01*
X4579Y25580D01*
X4852Y25467D01*
X5147Y25467D01*
X5420Y25580D01*
X5499Y25660D01*
X5579Y25580D01*
X5852Y25467D01*
X6147Y25467D01*
X6420Y25580D01*
X6499Y25660D01*
X6579Y25580D01*
X6852Y25467D01*
X7147Y25467D01*
X7420Y25580D01*
X7499Y25660D01*
X7579Y25580D01*
X7852Y25467D01*
X8147Y25467D01*
X8420Y25580D01*
X8499Y25660D01*
X8579Y25580D01*
X8852Y25467D01*
X9147Y25467D01*
X9420Y25580D01*
X9499Y25660D01*
X9579Y25580D01*
X9852Y25467D01*
X10147Y25467D01*
X10420Y25580D01*
X10629Y25788D01*
X10742Y26061D01*
X10742Y15152D01*
X9570Y15152D01*
X9550Y15173D01*
X9323Y15267D01*
X9078Y15267D01*
X8851Y15173D01*
X8677Y15000D01*
X8583Y14773D01*
X8583Y14528D01*
X8677Y14301D01*
X8850Y14127D01*
X9077Y14033D01*
X9322Y14033D01*
X9549Y14127D01*
X9570Y14148D01*
X19679Y14148D01*
X19700Y14127D01*
X19927Y14033D01*
X20172Y14033D01*
X20399Y14127D01*
X20573Y14300D01*
X20631Y14442D01*
X28633Y20298D01*
X28646Y20313D01*
X31485Y22142D01*
X31513Y22170D01*
X31575Y22211D01*
X33551Y24223D01*
X35941Y25559D01*
X36003Y25559D01*
X36603Y25559D01*
X36765Y25626D01*
X36800Y25662D01*
X37052Y25558D01*
X37347Y25558D01*
X37620Y25671D01*
X37691Y25743D01*
X37763Y25671D01*
X38036Y25558D01*
X38331Y25558D01*
X38604Y25671D01*
X38813Y25879D01*
X38926Y26152D01*
X38926Y26447D01*
X38813Y26720D01*
X38605Y26929D01*
X38472Y26984D01*
X39484Y26984D01*
X39484Y21765D01*
X39207Y22042D01*
X38756Y22229D01*
X38267Y22230D01*
X37815Y22043D01*
X37469Y21698D01*
X37282Y21247D01*
X37281Y20758D01*
X37468Y20306D01*
X37813Y19960D01*
X38264Y19773D01*
X38753Y19772D01*
X39205Y19959D01*
X39484Y20238D01*
X39484Y18641D01*
X39201Y18924D01*
X38758Y19108D01*
X38278Y19108D01*
X38230Y19108D01*
X37787Y18925D01*
X37447Y18586D01*
X37263Y18143D01*
X37263Y17663D01*
X37446Y17220D01*
X37785Y16880D01*
X38228Y16696D01*
X38708Y16696D01*
X38756Y16696D01*
X39199Y16879D01*
X39484Y17164D01*
X39484Y16020D01*
X39312Y16020D01*
X39250Y15958D01*
X39250Y15614D01*
X39250Y15564D01*
X39250Y15464D01*
X39250Y15414D01*
X39250Y15070D01*
X39312Y15008D01*
X39484Y15009D01*
X39484Y12792D01*
X39312Y12792D01*
X39250Y12730D01*
X39250Y12386D01*
X39250Y12336D01*
X39250Y12236D01*
X39250Y12186D01*
X39250Y11842D01*
X39312Y11780D01*
X39484Y11781D01*
X39484Y516D01*
X39484Y516D01*
G37*
G54D22*
X39484Y516D02*
X39150Y516D01*
X39150Y11842D01*
X39150Y12236D01*
X39150Y12336D01*
X39150Y12730D01*
X39150Y15070D01*
X39150Y15464D01*
X39150Y15564D01*
X39150Y15958D01*
X39088Y16020D01*
X38796Y16019D01*
X38697Y16019D01*
X38606Y15981D01*
X38536Y15911D01*
X38498Y15819D01*
X38497Y15626D01*
X38559Y15564D01*
X39150Y15564D01*
X39150Y15464D01*
X38559Y15464D01*
X38497Y15402D01*
X38497Y15270D01*
X38455Y15312D01*
X38364Y15350D01*
X38265Y15350D01*
X38131Y15351D01*
X38069Y15289D01*
X38069Y14895D01*
X38502Y14895D01*
X38564Y14957D01*
X38563Y15090D01*
X38606Y15047D01*
X38697Y15009D01*
X38796Y15009D01*
X39088Y15008D01*
X39150Y15070D01*
X39150Y12730D01*
X39088Y12792D01*
X38796Y12791D01*
X38701Y12791D01*
X38702Y12843D01*
X38702Y13067D01*
X38701Y13260D01*
X38663Y13352D01*
X38593Y13422D01*
X38564Y13435D01*
X38564Y14733D01*
X38502Y14795D01*
X38069Y14795D01*
X38069Y14401D01*
X38131Y14339D01*
X38265Y14340D01*
X38364Y14340D01*
X38455Y14378D01*
X38525Y14448D01*
X38563Y14540D01*
X38564Y14733D01*
X38564Y13435D01*
X38502Y13460D01*
X38403Y13460D01*
X38131Y13461D01*
X38069Y13399D01*
X38069Y13005D01*
X38640Y13005D01*
X38702Y13067D01*
X38702Y12843D01*
X38640Y12905D01*
X38069Y12905D01*
X38069Y12511D01*
X38131Y12449D01*
X38403Y12450D01*
X38497Y12450D01*
X38497Y12398D01*
X38559Y12336D01*
X39150Y12336D01*
X39150Y12236D01*
X38559Y12236D01*
X38497Y12174D01*
X38498Y11981D01*
X38536Y11889D01*
X38606Y11819D01*
X38697Y11781D01*
X38796Y11781D01*
X39088Y11780D01*
X39150Y11842D01*
X39150Y516D01*
X37969Y516D01*
X37969Y12511D01*
X37969Y12905D01*
X37969Y13005D01*
X37969Y13399D01*
X37969Y14401D01*
X37969Y14795D01*
X37969Y14895D01*
X37969Y15289D01*
X37907Y15351D01*
X37773Y15350D01*
X37674Y15350D01*
X37583Y15312D01*
X37513Y15242D01*
X37475Y15150D01*
X37474Y14957D01*
X37536Y14895D01*
X37969Y14895D01*
X37969Y14795D01*
X37536Y14795D01*
X37474Y14733D01*
X37475Y14540D01*
X37513Y14448D01*
X37583Y14378D01*
X37674Y14340D01*
X37773Y14340D01*
X37907Y14339D01*
X37969Y14401D01*
X37969Y13399D01*
X37907Y13461D01*
X37635Y13460D01*
X37536Y13460D01*
X37445Y13422D01*
X37375Y13352D01*
X37337Y13260D01*
X37336Y13067D01*
X37398Y13005D01*
X37969Y13005D01*
X37969Y12905D01*
X37398Y12905D01*
X37336Y12843D01*
X37337Y12650D01*
X37375Y12558D01*
X37445Y12488D01*
X37536Y12450D01*
X37635Y12450D01*
X37907Y12449D01*
X37969Y12511D01*
X37969Y516D01*
X34078Y516D01*
X34078Y6972D01*
X34078Y7396D01*
X33916Y7788D01*
X33617Y8088D01*
X33225Y8251D01*
X32801Y8251D01*
X32409Y8089D01*
X32109Y7790D01*
X31946Y7398D01*
X31946Y6974D01*
X32108Y6582D01*
X32407Y6282D01*
X32799Y6119D01*
X33223Y6119D01*
X33615Y6281D01*
X33915Y6580D01*
X34078Y6972D01*
X34078Y516D01*
X31477Y516D01*
X31477Y5147D01*
X31477Y5392D01*
X31383Y5619D01*
X31210Y5793D01*
X30983Y5887D01*
X30738Y5887D01*
X30511Y5793D01*
X30427Y5710D01*
X28270Y5380D01*
X28221Y5429D01*
X27948Y5542D01*
X27653Y5542D01*
X27380Y5429D01*
X27300Y5350D01*
X27221Y5429D01*
X26948Y5542D01*
X26653Y5542D01*
X26389Y5434D01*
X26350Y5473D01*
X26188Y5541D01*
X26013Y5541D01*
X25413Y5541D01*
X25251Y5474D01*
X25127Y5350D01*
X25106Y5302D01*
X17300Y5302D01*
X17108Y5264D01*
X16945Y5155D01*
X15945Y4156D01*
X15944Y4155D01*
X15940Y4152D01*
X14950Y4152D01*
X14949Y4152D01*
X14911Y4145D01*
X14758Y4114D01*
X14595Y4005D01*
X14594Y4005D01*
X14594Y4004D01*
X13941Y3352D01*
X13941Y5112D01*
X13941Y5287D01*
X13941Y5887D01*
X13874Y6049D01*
X13750Y6173D01*
X13588Y6241D01*
X13413Y6241D01*
X12813Y6241D01*
X12651Y6174D01*
X12610Y6134D01*
X12348Y6242D01*
X12053Y6242D01*
X11780Y6129D01*
X11700Y6050D01*
X11621Y6129D01*
X11348Y6242D01*
X11053Y6242D01*
X10780Y6129D01*
X10571Y5921D01*
X10458Y5648D01*
X10458Y5353D01*
X10571Y5080D01*
X10779Y4871D01*
X11052Y4758D01*
X11347Y4758D01*
X11620Y4871D01*
X11699Y4951D01*
X11779Y4871D01*
X12052Y4758D01*
X12347Y4758D01*
X12610Y4867D01*
X12650Y4827D01*
X12812Y4759D01*
X12987Y4759D01*
X13587Y4759D01*
X13749Y4826D01*
X13873Y4950D01*
X13941Y5112D01*
X13941Y3352D01*
X13922Y3333D01*
X13874Y3449D01*
X13750Y3573D01*
X13588Y3641D01*
X13413Y3641D01*
X12813Y3641D01*
X12651Y3574D01*
X12610Y3534D01*
X12348Y3642D01*
X12053Y3642D01*
X11780Y3529D01*
X11700Y3450D01*
X11621Y3529D01*
X11348Y3642D01*
X11053Y3642D01*
X10780Y3529D01*
X10571Y3321D01*
X10458Y3048D01*
X10458Y2753D01*
X10571Y2480D01*
X10740Y2310D01*
X10723Y2317D01*
X10478Y2317D01*
X10251Y2223D01*
X10229Y2202D01*
X9558Y2202D01*
X8317Y3443D01*
X8317Y3472D01*
X8223Y3699D01*
X8050Y3873D01*
X7823Y3967D01*
X7578Y3967D01*
X7351Y3873D01*
X7177Y3700D01*
X7083Y3473D01*
X7083Y3228D01*
X7177Y3001D01*
X7350Y2827D01*
X7577Y2733D01*
X7607Y2733D01*
X8995Y1345D01*
X9157Y1236D01*
X9158Y1236D01*
X9350Y1198D01*
X10229Y1198D01*
X10250Y1177D01*
X10477Y1083D01*
X10722Y1083D01*
X10949Y1177D01*
X11123Y1350D01*
X11217Y1577D01*
X11217Y1822D01*
X11123Y2049D01*
X10988Y2185D01*
X11052Y2158D01*
X11347Y2158D01*
X11493Y2219D01*
X11433Y2073D01*
X11433Y1828D01*
X11527Y1601D01*
X11700Y1427D01*
X11927Y1333D01*
X12172Y1333D01*
X12399Y1427D01*
X12573Y1600D01*
X12667Y1827D01*
X12667Y1857D01*
X12708Y1898D01*
X13700Y1898D01*
X13892Y1936D01*
X14055Y2045D01*
X15158Y3148D01*
X16100Y3148D01*
X16292Y3186D01*
X16356Y3229D01*
X16392Y3236D01*
X16555Y3345D01*
X17234Y4024D01*
X17234Y3163D01*
X17301Y3001D01*
X17425Y2877D01*
X17524Y2836D01*
X17524Y2012D01*
X17586Y1950D01*
X17942Y1950D01*
X17942Y1850D01*
X17586Y1850D01*
X17524Y1788D01*
X17525Y769D01*
X17563Y677D01*
X17633Y607D01*
X17724Y569D01*
X17823Y569D01*
X18645Y568D01*
X18707Y630D01*
X18707Y642D01*
X18807Y642D01*
X18807Y630D01*
X18869Y568D01*
X19691Y569D01*
X19790Y569D01*
X19881Y607D01*
X19951Y677D01*
X19989Y769D01*
X19990Y1788D01*
X19928Y1850D01*
X19574Y1850D01*
X19574Y1950D01*
X19928Y1950D01*
X19990Y2012D01*
X19989Y2836D01*
X20088Y2876D01*
X20212Y3000D01*
X20280Y3162D01*
X20280Y3337D01*
X20280Y3398D01*
X20692Y3398D01*
X22040Y2050D01*
X21951Y2049D01*
X21859Y2011D01*
X21789Y1941D01*
X21751Y1850D01*
X21751Y1751D01*
X21750Y1612D01*
X21812Y1550D01*
X22200Y1550D01*
X22250Y1550D01*
X22350Y1550D01*
X22350Y1450D01*
X22350Y1400D01*
X22350Y1012D01*
X22412Y950D01*
X22649Y951D01*
X22741Y989D01*
X22751Y1000D01*
X22879Y871D01*
X23152Y758D01*
X23447Y758D01*
X23720Y871D01*
X23847Y998D01*
X25319Y998D01*
X25412Y959D01*
X25587Y959D01*
X26187Y959D01*
X26349Y1026D01*
X26389Y1067D01*
X26652Y958D01*
X26947Y958D01*
X27220Y1071D01*
X27299Y1151D01*
X27379Y1071D01*
X27652Y958D01*
X27947Y958D01*
X28220Y1071D01*
X28429Y1279D01*
X28542Y1552D01*
X28542Y1847D01*
X28429Y2120D01*
X28221Y2329D01*
X27948Y2442D01*
X27653Y2442D01*
X27380Y2329D01*
X27300Y2250D01*
X27221Y2329D01*
X26948Y2442D01*
X26653Y2442D01*
X26389Y2334D01*
X26350Y2373D01*
X26188Y2441D01*
X26013Y2441D01*
X25413Y2441D01*
X25251Y2374D01*
X25127Y2250D01*
X25059Y2088D01*
X25059Y2002D01*
X23847Y2002D01*
X23721Y2129D01*
X23448Y2242D01*
X23268Y2242D01*
X21255Y4255D01*
X21190Y4298D01*
X25106Y4298D01*
X25126Y4251D01*
X25250Y4127D01*
X25412Y4059D01*
X25587Y4059D01*
X26187Y4059D01*
X26349Y4126D01*
X26389Y4167D01*
X26652Y4058D01*
X26947Y4058D01*
X27220Y4171D01*
X27299Y4251D01*
X27379Y4171D01*
X27652Y4058D01*
X27947Y4058D01*
X28220Y4171D01*
X28429Y4379D01*
X28433Y4390D01*
X30580Y4718D01*
X30737Y4653D01*
X30982Y4653D01*
X31209Y4747D01*
X31383Y4920D01*
X31477Y5147D01*
X31477Y516D01*
X22250Y516D01*
X22250Y1012D01*
X22250Y1450D01*
X21812Y1450D01*
X21750Y1388D01*
X21751Y1249D01*
X21751Y1150D01*
X21789Y1059D01*
X21859Y989D01*
X21951Y951D01*
X22188Y950D01*
X22250Y1012D01*
X22250Y516D01*
X3042Y516D01*
X3042Y1352D01*
X3042Y1647D01*
X2929Y1920D01*
X2721Y2129D01*
X2448Y2242D01*
X2153Y2242D01*
X1880Y2129D01*
X1751Y2001D01*
X1741Y2011D01*
X1649Y2049D01*
X1412Y2050D01*
X1350Y1988D01*
X1350Y1600D01*
X1350Y1550D01*
X1350Y1450D01*
X1350Y1400D01*
X1350Y1012D01*
X1412Y950D01*
X1649Y951D01*
X1741Y989D01*
X1751Y1000D01*
X1879Y871D01*
X2152Y758D01*
X2447Y758D01*
X2720Y871D01*
X2929Y1079D01*
X3042Y1352D01*
X3042Y516D01*
X1250Y516D01*
X1250Y1012D01*
X1250Y1450D01*
X1250Y1550D01*
X1250Y1988D01*
X1188Y2050D01*
X951Y2049D01*
X859Y2011D01*
X789Y1941D01*
X751Y1850D01*
X751Y1751D01*
X750Y1612D01*
X812Y1550D01*
X1250Y1550D01*
X1250Y1450D01*
X812Y1450D01*
X750Y1388D01*
X751Y1249D01*
X751Y1150D01*
X789Y1059D01*
X859Y989D01*
X951Y951D01*
X1188Y950D01*
X1250Y1012D01*
X1250Y516D01*
X516Y516D01*
X516Y6644D01*
X579Y6580D01*
X852Y6467D01*
X1147Y6467D01*
X1420Y6580D01*
X1499Y6660D01*
X1579Y6580D01*
X1852Y6467D01*
X2147Y6467D01*
X2420Y6580D01*
X2554Y6714D01*
X2596Y6612D01*
X2895Y6312D01*
X3287Y6149D01*
X3711Y6149D01*
X4103Y6311D01*
X4403Y6610D01*
X4446Y6714D01*
X4579Y6580D01*
X4852Y6467D01*
X5147Y6467D01*
X5420Y6580D01*
X5499Y6660D01*
X5579Y6580D01*
X5852Y6467D01*
X6147Y6467D01*
X6420Y6580D01*
X6499Y6660D01*
X6579Y6580D01*
X6852Y6467D01*
X7147Y6467D01*
X7420Y6580D01*
X7499Y6660D01*
X7579Y6580D01*
X7852Y6467D01*
X8147Y6467D01*
X8420Y6580D01*
X8499Y6660D01*
X8579Y6580D01*
X8852Y6467D01*
X9147Y6467D01*
X9420Y6580D01*
X9499Y6660D01*
X9579Y6580D01*
X9852Y6467D01*
X10147Y6467D01*
X10420Y6580D01*
X10499Y6660D01*
X10579Y6580D01*
X10852Y6467D01*
X11147Y6467D01*
X11420Y6580D01*
X11499Y6660D01*
X11579Y6580D01*
X11852Y6467D01*
X12147Y6467D01*
X12420Y6580D01*
X12629Y6788D01*
X12742Y7061D01*
X12742Y7198D01*
X13258Y7198D01*
X13258Y7062D01*
X13371Y6789D01*
X13579Y6580D01*
X13852Y6467D01*
X14147Y6467D01*
X14420Y6580D01*
X14499Y6660D01*
X14579Y6580D01*
X14852Y6467D01*
X15147Y6467D01*
X15420Y6580D01*
X15499Y6660D01*
X15579Y6580D01*
X15852Y6467D01*
X16147Y6467D01*
X16420Y6580D01*
X16499Y6660D01*
X16579Y6580D01*
X16852Y6467D01*
X17147Y6467D01*
X17420Y6580D01*
X17499Y6660D01*
X17579Y6580D01*
X17852Y6467D01*
X18147Y6467D01*
X18420Y6580D01*
X18499Y6660D01*
X18579Y6580D01*
X18852Y6467D01*
X19147Y6467D01*
X19420Y6580D01*
X19499Y6660D01*
X19579Y6580D01*
X19852Y6467D01*
X20147Y6467D01*
X20420Y6580D01*
X20499Y6660D01*
X20579Y6580D01*
X20852Y6467D01*
X21147Y6467D01*
X21420Y6580D01*
X21629Y6788D01*
X21742Y7061D01*
X21742Y7198D01*
X21858Y7198D01*
X21858Y7062D01*
X21971Y6789D01*
X22179Y6580D01*
X22452Y6467D01*
X22747Y6467D01*
X23020Y6580D01*
X23099Y6660D01*
X23179Y6580D01*
X23452Y6467D01*
X23747Y6467D01*
X24020Y6580D01*
X24099Y6660D01*
X24179Y6580D01*
X24452Y6467D01*
X24747Y6467D01*
X25020Y6580D01*
X25099Y6660D01*
X25179Y6580D01*
X25452Y6467D01*
X25747Y6467D01*
X26020Y6580D01*
X26099Y6660D01*
X26179Y6580D01*
X26452Y6467D01*
X26747Y6467D01*
X27020Y6580D01*
X27099Y6660D01*
X27179Y6580D01*
X27452Y6467D01*
X27747Y6467D01*
X28020Y6580D01*
X28099Y6660D01*
X28179Y6580D01*
X28452Y6467D01*
X28747Y6467D01*
X29020Y6580D01*
X29099Y6660D01*
X29179Y6580D01*
X29452Y6467D01*
X29747Y6467D01*
X30020Y6580D01*
X30229Y6788D01*
X30342Y7061D01*
X30342Y7356D01*
X30229Y7629D01*
X30021Y7838D01*
X29748Y7951D01*
X29453Y7951D01*
X29180Y7838D01*
X29100Y7759D01*
X29021Y7838D01*
X28748Y7951D01*
X28453Y7951D01*
X28180Y7838D01*
X28100Y7759D01*
X28021Y7838D01*
X27748Y7951D01*
X27453Y7951D01*
X27180Y7838D01*
X27100Y7759D01*
X27021Y7838D01*
X26748Y7951D01*
X26453Y7951D01*
X26180Y7838D01*
X26100Y7759D01*
X26021Y7838D01*
X25748Y7951D01*
X25453Y7951D01*
X25180Y7838D01*
X25100Y7759D01*
X25059Y7800D01*
X25961Y8702D01*
X25987Y8641D01*
X26160Y8467D01*
X26387Y8373D01*
X26632Y8373D01*
X26859Y8467D01*
X26880Y8488D01*
X29611Y8488D01*
X29817Y8403D01*
X30062Y8403D01*
X30289Y8497D01*
X30463Y8670D01*
X30557Y8897D01*
X30557Y9142D01*
X30463Y9369D01*
X30290Y9543D01*
X30063Y9637D01*
X29818Y9637D01*
X29591Y9543D01*
X29539Y9492D01*
X26914Y9492D01*
X27023Y9600D01*
X27117Y9827D01*
X27117Y10072D01*
X27084Y10151D01*
X28584Y10697D01*
X28632Y10677D01*
X28877Y10677D01*
X29104Y10771D01*
X29278Y10944D01*
X29372Y11171D01*
X29372Y11416D01*
X29296Y11598D01*
X31042Y11598D01*
X32833Y9807D01*
X32833Y9778D01*
X32927Y9551D01*
X33100Y9377D01*
X33327Y9283D01*
X33572Y9283D01*
X33799Y9377D01*
X33973Y9550D01*
X34067Y9777D01*
X34067Y10022D01*
X33973Y10249D01*
X33800Y10423D01*
X33573Y10517D01*
X33543Y10517D01*
X31605Y12455D01*
X31442Y12564D01*
X31250Y12602D01*
X30971Y12602D01*
X31136Y12670D01*
X31208Y12743D01*
X36634Y13467D01*
X36800Y13398D01*
X37045Y13398D01*
X37272Y13492D01*
X37446Y13665D01*
X37540Y13892D01*
X37540Y14137D01*
X37446Y14364D01*
X37273Y14538D01*
X37127Y14599D01*
X37073Y14729D01*
X36900Y14903D01*
X36673Y14997D01*
X36428Y14997D01*
X36201Y14903D01*
X36138Y14842D01*
X31077Y14337D01*
X30883Y14417D01*
X30638Y14417D01*
X30411Y14323D01*
X30237Y14150D01*
X30143Y13923D01*
X30143Y13678D01*
X30231Y13465D01*
X30170Y13316D01*
X30170Y13071D01*
X30264Y12844D01*
X30437Y12670D01*
X30601Y12602D01*
X27772Y12602D01*
X32037Y17813D01*
X32058Y17793D01*
X31979Y17713D01*
X31866Y17440D01*
X31866Y17145D01*
X31979Y16872D01*
X32058Y16793D01*
X31978Y16712D01*
X31865Y16439D01*
X31865Y16144D01*
X31978Y15871D01*
X32186Y15662D01*
X32459Y15549D01*
X32754Y15549D01*
X33027Y15662D01*
X33236Y15870D01*
X33349Y16143D01*
X33349Y16438D01*
X33236Y16711D01*
X33156Y16791D01*
X33237Y16871D01*
X33350Y17144D01*
X33350Y17439D01*
X33237Y17712D01*
X33157Y17792D01*
X33237Y17871D01*
X33350Y18144D01*
X33350Y18439D01*
X33237Y18712D01*
X33157Y18792D01*
X33237Y18871D01*
X33350Y19144D01*
X33350Y19439D01*
X33297Y19565D01*
X33312Y19559D01*
X33487Y19559D01*
X34087Y19559D01*
X34249Y19626D01*
X34373Y19750D01*
X34441Y19912D01*
X34441Y20087D01*
X34441Y20687D01*
X34374Y20849D01*
X34250Y20973D01*
X34088Y21041D01*
X33913Y21041D01*
X33313Y21041D01*
X33161Y20979D01*
X33151Y20974D01*
X33063Y20887D01*
X33029Y20921D01*
X33028Y20922D01*
X33074Y20967D01*
X33047Y20994D01*
X33088Y21006D01*
X33161Y21211D01*
X33161Y22211D01*
X33150Y22429D01*
X33088Y22578D01*
X32993Y22607D01*
X32923Y22537D01*
X32923Y22677D01*
X32894Y22772D01*
X32689Y22845D01*
X32471Y22834D01*
X32322Y22772D01*
X32293Y22677D01*
X32608Y22363D01*
X32923Y22677D01*
X32923Y22537D01*
X32679Y22292D01*
X32993Y21977D01*
X33088Y22006D01*
X33161Y22211D01*
X33161Y21211D01*
X33150Y21429D01*
X33088Y21578D01*
X32993Y21607D01*
X32923Y21537D01*
X32923Y21677D01*
X32894Y21772D01*
X32842Y21791D01*
X32894Y21812D01*
X32923Y21907D01*
X32608Y22221D01*
X32537Y22151D01*
X32537Y22292D01*
X32223Y22607D01*
X32128Y22578D01*
X32055Y22373D01*
X32066Y22155D01*
X32128Y22006D01*
X32223Y21977D01*
X32537Y22292D01*
X32537Y22151D01*
X32293Y21907D01*
X32322Y21812D01*
X32373Y21794D01*
X32322Y21772D01*
X32293Y21677D01*
X32608Y21363D01*
X32923Y21677D01*
X32923Y21537D01*
X32679Y21292D01*
X32608Y21221D01*
X32537Y21292D01*
X32502Y21327D01*
X32223Y21607D01*
X32128Y21578D01*
X32055Y21373D01*
X32066Y21155D01*
X32128Y21006D01*
X32168Y20994D01*
X32142Y20967D01*
X32188Y20921D01*
X31979Y20713D01*
X31866Y20440D01*
X31866Y20145D01*
X31979Y19872D01*
X32058Y19793D01*
X31979Y19713D01*
X31866Y19440D01*
X31866Y19188D01*
X26845Y13054D01*
X26651Y12973D01*
X26643Y12967D01*
X24605Y15005D01*
X24442Y15114D01*
X24250Y15152D01*
X22720Y15152D01*
X22700Y15173D01*
X22473Y15267D01*
X22228Y15267D01*
X22001Y15173D01*
X21827Y15000D01*
X21733Y14773D01*
X21733Y14528D01*
X21827Y14301D01*
X22000Y14127D01*
X22227Y14033D01*
X22472Y14033D01*
X22699Y14127D01*
X22720Y14148D01*
X24042Y14148D01*
X26395Y11795D01*
X26557Y11687D01*
X26558Y11686D01*
X26592Y11680D01*
X26593Y11680D01*
X26593Y11679D01*
X26595Y11679D01*
X26657Y11637D01*
X26658Y11636D01*
X26811Y11606D01*
X26849Y11598D01*
X26849Y11599D01*
X26850Y11598D01*
X28125Y11598D01*
X25938Y10802D01*
X25928Y10797D01*
X25918Y10794D01*
X25845Y10746D01*
X25771Y10700D01*
X25764Y10692D01*
X25755Y10685D01*
X23704Y8634D01*
X10667Y8634D01*
X10667Y11827D01*
X10667Y12072D01*
X10573Y12299D01*
X10400Y12473D01*
X10173Y12567D01*
X9928Y12567D01*
X9701Y12473D01*
X9527Y12300D01*
X9517Y12276D01*
X9517Y13127D01*
X9517Y13372D01*
X9423Y13599D01*
X9250Y13773D01*
X9023Y13867D01*
X8993Y13867D01*
X8667Y14193D01*
X8667Y14222D01*
X8573Y14449D01*
X8400Y14623D01*
X8173Y14717D01*
X7928Y14717D01*
X7701Y14623D01*
X7527Y14450D01*
X7433Y14223D01*
X7433Y13978D01*
X7527Y13751D01*
X7700Y13577D01*
X7927Y13483D01*
X7957Y13483D01*
X8283Y13157D01*
X8283Y13128D01*
X8377Y12901D01*
X8550Y12727D01*
X8777Y12633D01*
X9022Y12633D01*
X9249Y12727D01*
X9423Y12900D01*
X9517Y13127D01*
X9517Y12276D01*
X9433Y12073D01*
X9433Y12043D01*
X9157Y11767D01*
X9128Y11767D01*
X8901Y11673D01*
X8727Y11500D01*
X8633Y11273D01*
X8633Y11028D01*
X8727Y10801D01*
X8900Y10627D01*
X9127Y10533D01*
X9372Y10533D01*
X9599Y10627D01*
X9773Y10800D01*
X9867Y11027D01*
X9867Y11057D01*
X10143Y11333D01*
X10172Y11333D01*
X10399Y11427D01*
X10573Y11600D01*
X10667Y11827D01*
X10667Y8634D01*
X8832Y8634D01*
X8812Y8655D01*
X8585Y8749D01*
X8340Y8749D01*
X8113Y8655D01*
X7939Y8482D01*
X7845Y8255D01*
X7845Y8202D01*
X7811Y8195D01*
X7658Y8164D01*
X7595Y8122D01*
X7593Y8122D01*
X7593Y8121D01*
X7592Y8121D01*
X7558Y8114D01*
X7495Y8072D01*
X7493Y8072D01*
X7493Y8071D01*
X7492Y8071D01*
X7458Y8064D01*
X7295Y7955D01*
X7292Y7952D01*
X7249Y7909D01*
X7148Y7951D01*
X6853Y7951D01*
X6580Y7838D01*
X6500Y7759D01*
X6421Y7838D01*
X6148Y7951D01*
X5853Y7951D01*
X5580Y7838D01*
X5500Y7759D01*
X5421Y7838D01*
X5148Y7951D01*
X4853Y7951D01*
X4580Y7838D01*
X4449Y7709D01*
X4404Y7818D01*
X4105Y8118D01*
X3713Y8281D01*
X3289Y8281D01*
X2897Y8119D01*
X2674Y7897D01*
X2742Y8061D01*
X2742Y8356D01*
X2629Y8629D01*
X2549Y8709D01*
X2629Y8788D01*
X2742Y9061D01*
X2742Y9356D01*
X2629Y9629D01*
X2549Y9709D01*
X2629Y9788D01*
X2742Y10061D01*
X2742Y10356D01*
X2629Y10629D01*
X2549Y10709D01*
X2629Y10788D01*
X2742Y11061D01*
X2742Y11356D01*
X2629Y11629D01*
X2549Y11709D01*
X2629Y11788D01*
X2742Y12061D01*
X2742Y12356D01*
X2629Y12629D01*
X2549Y12709D01*
X2629Y12788D01*
X2742Y13061D01*
X2742Y13356D01*
X2629Y13629D01*
X2549Y13709D01*
X2629Y13788D01*
X2742Y14061D01*
X2742Y14356D01*
X2629Y14629D01*
X2549Y14709D01*
X2629Y14788D01*
X2742Y15061D01*
X2742Y15356D01*
X2629Y15629D01*
X2549Y15709D01*
X2629Y15788D01*
X2742Y16061D01*
X2742Y16356D01*
X2629Y16629D01*
X2549Y16709D01*
X2629Y16788D01*
X2742Y17061D01*
X2742Y17356D01*
X2629Y17629D01*
X2549Y17709D01*
X2629Y17788D01*
X2742Y18061D01*
X2742Y18356D01*
X2629Y18629D01*
X2549Y18709D01*
X2629Y18788D01*
X2742Y19061D01*
X2742Y19356D01*
X2629Y19629D01*
X2549Y19709D01*
X2629Y19788D01*
X2742Y20061D01*
X2742Y20356D01*
X2629Y20629D01*
X2549Y20709D01*
X2629Y20788D01*
X2742Y21061D01*
X2742Y21356D01*
X2629Y21629D01*
X2549Y21709D01*
X2629Y21788D01*
X2742Y22061D01*
X2742Y22356D01*
X2629Y22629D01*
X2549Y22709D01*
X2629Y22788D01*
X2742Y23061D01*
X2742Y23356D01*
X2629Y23629D01*
X2553Y23706D01*
X2421Y23838D01*
X2420Y23839D01*
X2466Y23884D01*
X2439Y23911D01*
X2480Y23923D01*
X2553Y24128D01*
X2542Y24346D01*
X2480Y24495D01*
X2385Y24524D01*
X2315Y24454D01*
X2315Y24594D01*
X2286Y24689D01*
X2081Y24762D01*
X1863Y24751D01*
X1714Y24689D01*
X1685Y24594D01*
X2000Y24280D01*
X2315Y24594D01*
X2315Y24454D01*
X2071Y24209D01*
X2000Y24138D01*
X1929Y24209D01*
X1894Y24244D01*
X1615Y24524D01*
X1520Y24495D01*
X1501Y24444D01*
X1480Y24495D01*
X1385Y24524D01*
X1315Y24454D01*
X1315Y24594D01*
X1286Y24689D01*
X1081Y24762D01*
X863Y24751D01*
X714Y24689D01*
X685Y24594D01*
X1000Y24280D01*
X1315Y24594D01*
X1315Y24454D01*
X1071Y24209D01*
X1000Y24138D01*
X929Y24209D01*
X894Y24244D01*
X615Y24524D01*
X520Y24495D01*
X516Y24484D01*
X516Y25248D01*
X787Y25135D01*
X1211Y25135D01*
X1603Y25297D01*
X1903Y25596D01*
X2066Y25988D01*
X2066Y26412D01*
X1904Y26804D01*
X1724Y26984D01*
X21338Y26984D01*
X21295Y26955D01*
X21292Y26952D01*
X21250Y26910D01*
X21148Y26952D01*
X20853Y26952D01*
X20580Y26839D01*
X20371Y26631D01*
X20258Y26358D01*
X20258Y26063D01*
X20371Y25790D01*
X20579Y25581D01*
X20852Y25468D01*
X21147Y25468D01*
X21420Y25581D01*
X21629Y25789D01*
X21675Y25743D01*
X21701Y25770D01*
X21714Y25729D01*
X21919Y25656D01*
X22137Y25667D01*
X22286Y25729D01*
X22315Y25824D01*
X22035Y26103D01*
X22000Y26138D01*
X21958Y26180D01*
X21992Y26186D01*
X22009Y26198D01*
X22081Y26198D01*
X22385Y25894D01*
X22480Y25923D01*
X22498Y25975D01*
X22520Y25923D01*
X22615Y25894D01*
X22894Y26174D01*
X22918Y26198D01*
X23060Y26198D01*
X23000Y26138D01*
X22685Y25824D01*
X22714Y25729D01*
X22919Y25656D01*
X23137Y25667D01*
X23286Y25729D01*
X23298Y25770D01*
X23315Y25753D01*
X23325Y25743D01*
X23371Y25789D01*
X23579Y25580D01*
X23852Y25467D01*
X24147Y25467D01*
X24420Y25580D01*
X24499Y25660D01*
X24579Y25580D01*
X24852Y25467D01*
X25147Y25467D01*
X25420Y25580D01*
X25499Y25660D01*
X25579Y25580D01*
X25852Y25467D01*
X26147Y25467D01*
X26420Y25580D01*
X26629Y25788D01*
X26742Y26061D01*
X26742Y26198D01*
X28228Y26198D01*
X28204Y26139D01*
X28204Y25822D01*
X28325Y25529D01*
X28549Y25305D01*
X28841Y25184D01*
X29158Y25184D01*
X29451Y25305D01*
X29675Y25529D01*
X29796Y25821D01*
X29796Y26138D01*
X29771Y26198D01*
X30000Y26198D01*
X29976Y26139D01*
X29976Y25822D01*
X30097Y25529D01*
X30321Y25305D01*
X30613Y25184D01*
X30858Y25184D01*
X30825Y25151D01*
X30704Y24859D01*
X30704Y24542D01*
X30825Y24249D01*
X30858Y24216D01*
X30614Y24216D01*
X30321Y24095D01*
X30097Y23871D01*
X29976Y23579D01*
X29976Y23262D01*
X30097Y22969D01*
X30321Y22745D01*
X30449Y22692D01*
X29607Y22150D01*
X29607Y23325D01*
X29597Y23564D01*
X29525Y23740D01*
X29424Y23774D01*
X29354Y23704D01*
X29354Y23844D01*
X29320Y23945D01*
X29095Y24027D01*
X28856Y24017D01*
X28680Y23945D01*
X28646Y23844D01*
X29000Y23491D01*
X29354Y23844D01*
X29354Y23704D01*
X29071Y23420D01*
X29424Y23066D01*
X29525Y23100D01*
X29607Y23325D01*
X29607Y22150D01*
X29354Y21987D01*
X29354Y22996D01*
X29000Y23349D01*
X28929Y23279D01*
X28929Y23420D01*
X28576Y23774D01*
X28475Y23740D01*
X28393Y23515D01*
X28403Y23276D01*
X28475Y23100D01*
X28576Y23066D01*
X28929Y23420D01*
X28929Y23279D01*
X28646Y22996D01*
X28680Y22895D01*
X28905Y22813D01*
X29144Y22823D01*
X29320Y22895D01*
X29354Y22996D01*
X29354Y21987D01*
X28051Y21146D01*
X28025Y21122D01*
X23315Y17675D01*
X22315Y16943D01*
X20026Y15267D01*
X19928Y15267D01*
X19742Y15190D01*
X19742Y26061D01*
X19742Y26356D01*
X19629Y26629D01*
X19421Y26838D01*
X19148Y26951D01*
X18853Y26951D01*
X18580Y26838D01*
X18500Y26759D01*
X18421Y26838D01*
X18148Y26951D01*
X17853Y26951D01*
X17580Y26838D01*
X17500Y26759D01*
X17421Y26838D01*
X17148Y26951D01*
X16853Y26951D01*
X16580Y26838D01*
X16500Y26759D01*
X16421Y26838D01*
X16148Y26951D01*
X15853Y26951D01*
X15580Y26838D01*
X15500Y26759D01*
X15421Y26838D01*
X15148Y26951D01*
X14853Y26951D01*
X14580Y26838D01*
X14500Y26759D01*
X14421Y26838D01*
X14148Y26951D01*
X13853Y26951D01*
X13580Y26838D01*
X13500Y26759D01*
X13421Y26838D01*
X13148Y26951D01*
X12853Y26951D01*
X12580Y26838D01*
X12500Y26759D01*
X12421Y26838D01*
X12148Y26951D01*
X11853Y26951D01*
X11580Y26838D01*
X11371Y26630D01*
X11258Y26357D01*
X11258Y26062D01*
X11371Y25789D01*
X11579Y25580D01*
X11852Y25467D01*
X12147Y25467D01*
X12420Y25580D01*
X12499Y25660D01*
X12579Y25580D01*
X12852Y25467D01*
X13147Y25467D01*
X13420Y25580D01*
X13499Y25660D01*
X13579Y25580D01*
X13852Y25467D01*
X14147Y25467D01*
X14420Y25580D01*
X14499Y25660D01*
X14579Y25580D01*
X14852Y25467D01*
X15147Y25467D01*
X15420Y25580D01*
X15499Y25660D01*
X15579Y25580D01*
X15852Y25467D01*
X16147Y25467D01*
X16420Y25580D01*
X16499Y25660D01*
X16579Y25580D01*
X16852Y25467D01*
X17147Y25467D01*
X17420Y25580D01*
X17499Y25660D01*
X17579Y25580D01*
X17852Y25467D01*
X18147Y25467D01*
X18420Y25580D01*
X18499Y25660D01*
X18579Y25580D01*
X18852Y25467D01*
X19147Y25467D01*
X19420Y25580D01*
X19629Y25788D01*
X19742Y26061D01*
X19742Y15190D01*
X19701Y15173D01*
X19679Y15152D01*
X10742Y15152D01*
X10742Y26061D01*
X10742Y26356D01*
X10629Y26629D01*
X10421Y26838D01*
X10148Y26951D01*
X9853Y26951D01*
X9580Y26838D01*
X9500Y26759D01*
X9421Y26838D01*
X9148Y26951D01*
X8853Y26951D01*
X8580Y26838D01*
X8500Y26759D01*
X8421Y26838D01*
X8148Y26951D01*
X7853Y26951D01*
X7580Y26838D01*
X7500Y26759D01*
X7421Y26838D01*
X7148Y26951D01*
X6853Y26951D01*
X6580Y26838D01*
X6500Y26759D01*
X6421Y26838D01*
X6148Y26951D01*
X5853Y26951D01*
X5580Y26838D01*
X5500Y26759D01*
X5421Y26838D01*
X5148Y26951D01*
X4853Y26951D01*
X4580Y26838D01*
X4500Y26759D01*
X4421Y26838D01*
X4148Y26951D01*
X3853Y26951D01*
X3580Y26838D01*
X3500Y26759D01*
X3421Y26838D01*
X3148Y26951D01*
X2853Y26951D01*
X2580Y26838D01*
X2371Y26630D01*
X2258Y26357D01*
X2258Y26062D01*
X2371Y25789D01*
X2579Y25580D01*
X2852Y25467D01*
X3147Y25467D01*
X3420Y25580D01*
X3499Y25660D01*
X3579Y25580D01*
X3852Y25467D01*
X4147Y25467D01*
X4420Y25580D01*
X4499Y25660D01*
X4579Y25580D01*
X4852Y25467D01*
X5147Y25467D01*
X5420Y25580D01*
X5499Y25660D01*
X5579Y25580D01*
X5852Y25467D01*
X6147Y25467D01*
X6420Y25580D01*
X6499Y25660D01*
X6579Y25580D01*
X6852Y25467D01*
X7147Y25467D01*
X7420Y25580D01*
X7499Y25660D01*
X7579Y25580D01*
X7852Y25467D01*
X8147Y25467D01*
X8420Y25580D01*
X8499Y25660D01*
X8579Y25580D01*
X8852Y25467D01*
X9147Y25467D01*
X9420Y25580D01*
X9499Y25660D01*
X9579Y25580D01*
X9852Y25467D01*
X10147Y25467D01*
X10420Y25580D01*
X10629Y25788D01*
X10742Y26061D01*
X10742Y15152D01*
X9570Y15152D01*
X9550Y15173D01*
X9323Y15267D01*
X9078Y15267D01*
X8851Y15173D01*
X8677Y15000D01*
X8583Y14773D01*
X8583Y14528D01*
X8677Y14301D01*
X8850Y14127D01*
X9077Y14033D01*
X9322Y14033D01*
X9549Y14127D01*
X9570Y14148D01*
X19679Y14148D01*
X19700Y14127D01*
X19927Y14033D01*
X20172Y14033D01*
X20399Y14127D01*
X20573Y14300D01*
X20631Y14442D01*
X28633Y20298D01*
X28646Y20313D01*
X31485Y22142D01*
X31513Y22170D01*
X31575Y22211D01*
X33551Y24223D01*
X35941Y25559D01*
X36003Y25559D01*
X36603Y25559D01*
X36765Y25626D01*
X36800Y25662D01*
X37052Y25558D01*
X37347Y25558D01*
X37620Y25671D01*
X37691Y25743D01*
X37763Y25671D01*
X38036Y25558D01*
X38331Y25558D01*
X38604Y25671D01*
X38813Y25879D01*
X38926Y26152D01*
X38926Y26447D01*
X38813Y26720D01*
X38605Y26929D01*
X38472Y26984D01*
X39484Y26984D01*
X39484Y21765D01*
X39207Y22042D01*
X38756Y22229D01*
X38267Y22230D01*
X37815Y22043D01*
X37469Y21698D01*
X37282Y21247D01*
X37281Y20758D01*
X37468Y20306D01*
X37813Y19960D01*
X38264Y19773D01*
X38753Y19772D01*
X39205Y19959D01*
X39484Y20238D01*
X39484Y18641D01*
X39201Y18924D01*
X38758Y19108D01*
X38278Y19108D01*
X38230Y19108D01*
X37787Y18925D01*
X37447Y18586D01*
X37263Y18143D01*
X37263Y17663D01*
X37446Y17220D01*
X37785Y16880D01*
X38228Y16696D01*
X38708Y16696D01*
X38756Y16696D01*
X39199Y16879D01*
X39484Y17164D01*
X39484Y16020D01*
X39312Y16020D01*
X39250Y15958D01*
X39250Y15614D01*
X39250Y15564D01*
X39250Y15464D01*
X39250Y15414D01*
X39250Y15070D01*
X39312Y15008D01*
X39484Y15009D01*
X39484Y12792D01*
X39312Y12792D01*
X39250Y12730D01*
X39250Y12386D01*
X39250Y12336D01*
X39250Y12236D01*
X39250Y12186D01*
X39250Y11842D01*
X39312Y11780D01*
X39484Y11781D01*
X39484Y516D01*
M02*
