G04 (created by PCBNEW-RS274X (2011-nov-30)-testing) date Tue 21 Aug 2012 06:29:20 PM EDT*
%MOIN*%
G04 Gerber Fmt 3.4, Leading zero omitted, Abs format*
%FSLAX34Y34*%
G01*
G70*
G90*
G04 APERTURE LIST*
%ADD10C,0.006*%
%ADD11R,0.08X0.08*%
%ADD12C,0.08*%
%ADD13R,0.2167X0.2365*%
%ADD14R,0.2365X0.1497*%
%ADD15R,0.135X0.07*%
%ADD16R,0.085X0.155*%
%ADD17R,0.0672X0.0672*%
%ADD18R,0.0712X0.142*%
%ADD19C,0.0909*%
%ADD20R,0.075X0.055*%
%ADD21R,0.07X0.1349*%
%ADD22R,0.155X0.085*%
%ADD23R,0.1549X0.085*%
%ADD24R,0.0594X0.1695*%
%ADD25R,0.0594X0.1696*%
%ADD26R,0.6892X0.7284*%
%ADD27R,0.1379X0.0987*%
%ADD28R,0.138X0.0987*%
%ADD29C,0.1774*%
%ADD30O,0.1774X0.1774*%
%ADD31C,0.145*%
%ADD32R,0.036X0.07*%
%ADD33R,0.055X0.075*%
%ADD34R,0.1184X0.0593*%
%ADD35R,0.0869X0.0357*%
%ADD36R,0.1106X0.0712*%
%ADD37R,0.1067X0.0712*%
%ADD38R,0.0791X0.0712*%
%ADD39R,0.1184X0.0909*%
G04 APERTURE END LIST*
G54D10*
G54D11*
X13200Y2900D03*
G54D12*
X12200Y2900D03*
X11200Y2900D03*
G54D11*
X13200Y5500D03*
G54D12*
X12200Y5500D03*
X11200Y5500D03*
G54D13*
X18757Y1900D03*
G54D14*
X18757Y3898D03*
G54D15*
X35850Y9300D03*
X34050Y9300D03*
G54D16*
X38000Y10750D03*
X38000Y7850D03*
G54D15*
X35850Y4100D03*
X34050Y4100D03*
G54D16*
X38000Y5550D03*
X38000Y2650D03*
G54D17*
X33987Y900D03*
X34813Y900D03*
X11187Y1100D03*
X12013Y1100D03*
X29400Y21013D03*
X29400Y20187D03*
X28200Y21013D03*
X28200Y20187D03*
G54D18*
X28114Y26265D03*
X28114Y23135D03*
X29886Y23135D03*
X29886Y26265D03*
G54D19*
X29000Y23420D03*
X29000Y25980D03*
X30772Y23420D03*
X30772Y25980D03*
X31500Y24700D03*
G54D11*
X36216Y26300D03*
G54D12*
X37200Y26300D03*
X38184Y26300D03*
G54D20*
X15400Y5475D03*
X15400Y4725D03*
X15400Y3475D03*
X15400Y2725D03*
G54D21*
X7789Y4627D03*
X6611Y4627D03*
G54D22*
X5508Y1900D03*
G54D23*
X8892Y1900D03*
G54D24*
X19861Y15763D03*
X20531Y15763D03*
G54D25*
X21200Y15763D03*
G54D24*
X21869Y15763D03*
X22539Y15763D03*
G54D26*
X21200Y20685D03*
G54D27*
X18445Y16748D03*
G54D28*
X23956Y16747D03*
G54D29*
X38510Y21001D03*
G54D30*
X38493Y17902D03*
G54D31*
X33012Y7185D03*
G54D12*
X32607Y16291D03*
X32608Y17292D03*
X32608Y18292D03*
X32608Y19292D03*
X32608Y20292D03*
X32608Y21292D03*
X32608Y22292D03*
G54D31*
X1000Y26201D03*
X33499Y26212D03*
X3500Y7215D03*
G54D12*
X12000Y7209D03*
X11000Y7209D03*
X10000Y7209D03*
X9000Y7209D03*
X8000Y7209D03*
X7000Y7209D03*
X6000Y7209D03*
X5000Y7209D03*
X3000Y26209D03*
X4000Y26209D03*
X5000Y26209D03*
X6000Y26209D03*
X10000Y26209D03*
X12000Y26209D03*
X13000Y26209D03*
X9000Y26209D03*
X8000Y26209D03*
X7000Y26209D03*
X14000Y26209D03*
X15000Y26209D03*
X16000Y26209D03*
X19000Y26209D03*
X18000Y26209D03*
X17000Y26209D03*
X21000Y26210D03*
X22000Y26209D03*
X23000Y26209D03*
X25000Y26209D03*
X26000Y26209D03*
X14000Y7209D03*
X15000Y7209D03*
X16000Y7209D03*
X17000Y7209D03*
X18000Y7209D03*
X19000Y7209D03*
X20000Y7209D03*
X21000Y7209D03*
X22600Y7209D03*
X23600Y7209D03*
X24600Y7209D03*
X25600Y7209D03*
X26600Y7209D03*
X27600Y7209D03*
X28600Y7209D03*
X29600Y7209D03*
X24000Y26209D03*
X2000Y8209D03*
X1000Y8209D03*
X2000Y9209D03*
X1000Y9209D03*
X2000Y10209D03*
X1000Y10209D03*
X2000Y11209D03*
X1000Y11209D03*
X2000Y7209D03*
X1000Y7209D03*
X1000Y12209D03*
X2000Y12209D03*
X2000Y13209D03*
X1000Y13209D03*
X2000Y14209D03*
X1000Y14209D03*
X2000Y15209D03*
X1000Y15209D03*
X2000Y16209D03*
X1000Y16209D03*
X2000Y17209D03*
X1000Y17209D03*
X2000Y18209D03*
X1000Y18209D03*
X2000Y19209D03*
X1000Y19209D03*
X2000Y20209D03*
X1000Y20209D03*
X2000Y21209D03*
X1000Y21209D03*
X2000Y22209D03*
X1000Y22209D03*
X2000Y23209D03*
X1000Y23209D03*
X2000Y24209D03*
X1000Y24209D03*
G54D11*
X22300Y1500D03*
G54D12*
X23300Y1500D03*
G54D32*
X26950Y10400D03*
X27200Y10400D03*
X27460Y10400D03*
X27720Y10400D03*
X27970Y10400D03*
X28230Y10400D03*
X28490Y10400D03*
X28740Y10400D03*
X29000Y10400D03*
X29250Y10400D03*
X29510Y10400D03*
X29770Y10400D03*
X30020Y10400D03*
X30280Y10400D03*
X30280Y13200D03*
X30020Y13200D03*
X29780Y13200D03*
X29510Y13200D03*
X29250Y13200D03*
X29000Y13200D03*
X28740Y13200D03*
X28490Y13200D03*
X28230Y13200D03*
X27970Y13200D03*
X27720Y13200D03*
X27460Y13200D03*
X27200Y13200D03*
X26950Y13200D03*
G54D11*
X1300Y1500D03*
G54D12*
X2300Y1500D03*
G54D11*
X25800Y4800D03*
G54D12*
X26800Y4800D03*
X27800Y4800D03*
G54D11*
X25800Y1700D03*
G54D12*
X26800Y1700D03*
X27800Y1700D03*
G54D33*
X5575Y5900D03*
X4825Y5900D03*
G54D20*
X30200Y15425D03*
X30200Y16175D03*
G54D33*
X27925Y9000D03*
X28675Y9000D03*
X34825Y6700D03*
X35575Y6700D03*
G54D24*
X8061Y15763D03*
X8731Y15763D03*
G54D25*
X9400Y15763D03*
G54D24*
X10069Y15763D03*
X10739Y15763D03*
G54D26*
X9400Y20685D03*
G54D27*
X6645Y16748D03*
G54D28*
X12156Y16747D03*
G54D34*
X32279Y2500D03*
X29920Y2500D03*
X8479Y12500D03*
X6120Y12500D03*
X21779Y12400D03*
X19420Y12400D03*
X3579Y4500D03*
X1220Y4500D03*
G54D11*
X33700Y20300D03*
G54D20*
X28200Y19275D03*
X28200Y18525D03*
X29400Y19275D03*
X29400Y18525D03*
G54D33*
X35725Y900D03*
X36475Y900D03*
G54D20*
X37000Y23325D03*
X37000Y24075D03*
G54D33*
X13425Y1100D03*
X14175Y1100D03*
G54D17*
X38200Y24213D03*
X38200Y23387D03*
G54D35*
X38058Y13900D03*
X38058Y13644D03*
X38058Y14412D03*
G54D36*
X39200Y12286D03*
G54D37*
X38019Y12955D03*
G54D36*
X39200Y15514D03*
G54D38*
X38019Y14845D03*
G54D35*
X38058Y14156D03*
G54D39*
X39279Y13349D03*
X39279Y14451D03*
G54D35*
X38058Y13388D03*
M02*
