G04 (created by PCBNEW (2011-nov-30)-testing) date Thu 04 Oct 2012 01:11:44 PM EDT*
%MOIN*%
G04 Gerber Fmt 3.4, Leading zero omitted, Abs format*
%FSLAX34Y34*%
G01*
G70*
G90*
G04 APERTURE LIST*
%ADD10C,0.006*%
%ADD11C,0.015*%
%ADD12C,0.0117*%
%ADD13C,0.0097*%
%ADD14C,0.0079*%
%ADD15C,0.012*%
%ADD16C,0.0109*%
%ADD17C,0.005*%
%ADD18C,0.011*%
%ADD19C,0.0078*%
%ADD20C,0.0075*%
%ADD21C,0.0069*%
%ADD22C,0.0098*%
%ADD23C,0.0062*%
%ADD24C,0.008*%
G04 APERTURE END LIST*
G54D10*
G54D11*
X16600Y9700D02*
X17800Y9700D01*
G54D12*
X10586Y13257D02*
X10929Y13257D01*
X10758Y12657D02*
X10758Y13257D01*
X11386Y13057D02*
X11386Y12657D01*
X11129Y13057D02*
X11129Y12743D01*
X11157Y12686D01*
X11215Y12657D01*
X11300Y12657D01*
X11357Y12686D01*
X11386Y12714D01*
X11672Y12657D02*
X11672Y13057D01*
X11672Y12943D02*
X11700Y13000D01*
X11729Y13029D01*
X11786Y13057D01*
X11843Y13057D01*
X11957Y13057D02*
X12186Y13057D01*
X12043Y13257D02*
X12043Y12743D01*
X12071Y12686D01*
X12129Y12657D01*
X12186Y12657D01*
X12472Y12657D02*
X12414Y12686D01*
X12386Y12743D01*
X12386Y13257D01*
X12928Y12686D02*
X12871Y12657D01*
X12757Y12657D01*
X12700Y12686D01*
X12671Y12743D01*
X12671Y12971D01*
X12700Y13029D01*
X12757Y13057D01*
X12871Y13057D01*
X12928Y13029D01*
X12957Y12971D01*
X12957Y12914D01*
X12671Y12857D01*
X13414Y12971D02*
X13500Y12943D01*
X13528Y12914D01*
X13557Y12857D01*
X13557Y12771D01*
X13528Y12714D01*
X13500Y12686D01*
X13442Y12657D01*
X13214Y12657D01*
X13214Y13257D01*
X13414Y13257D01*
X13471Y13229D01*
X13500Y13200D01*
X13528Y13143D01*
X13528Y13086D01*
X13500Y13029D01*
X13471Y13000D01*
X13414Y12971D01*
X13214Y12971D01*
X13900Y12657D02*
X13842Y12686D01*
X13814Y12714D01*
X13785Y12771D01*
X13785Y12943D01*
X13814Y13000D01*
X13842Y13029D01*
X13900Y13057D01*
X13985Y13057D01*
X14042Y13029D01*
X14071Y13000D01*
X14100Y12943D01*
X14100Y12771D01*
X14071Y12714D01*
X14042Y12686D01*
X13985Y12657D01*
X13900Y12657D01*
X14271Y13057D02*
X14500Y13057D01*
X14357Y13257D02*
X14357Y12743D01*
X14385Y12686D01*
X14443Y12657D01*
X14500Y12657D01*
X15157Y12657D02*
X15157Y13257D01*
X15385Y13257D01*
X15443Y13229D01*
X15471Y13200D01*
X15500Y13143D01*
X15500Y13057D01*
X15471Y13000D01*
X15443Y12971D01*
X15385Y12943D01*
X15157Y12943D01*
X15843Y12657D02*
X15785Y12686D01*
X15757Y12714D01*
X15728Y12771D01*
X15728Y12943D01*
X15757Y13000D01*
X15785Y13029D01*
X15843Y13057D01*
X15928Y13057D01*
X15985Y13029D01*
X16014Y13000D01*
X16043Y12943D01*
X16043Y12771D01*
X16014Y12714D01*
X15985Y12686D01*
X15928Y12657D01*
X15843Y12657D01*
X16243Y13057D02*
X16357Y12657D01*
X16471Y12943D01*
X16586Y12657D01*
X16700Y13057D01*
X17157Y12686D02*
X17100Y12657D01*
X16986Y12657D01*
X16929Y12686D01*
X16900Y12743D01*
X16900Y12971D01*
X16929Y13029D01*
X16986Y13057D01*
X17100Y13057D01*
X17157Y13029D01*
X17186Y12971D01*
X17186Y12914D01*
X16900Y12857D01*
X17443Y12657D02*
X17443Y13057D01*
X17443Y12943D02*
X17471Y13000D01*
X17500Y13029D01*
X17557Y13057D01*
X17614Y13057D01*
X10644Y11700D02*
X10644Y12300D01*
X10930Y12100D02*
X10930Y11700D01*
X10930Y12043D02*
X10958Y12072D01*
X11016Y12100D01*
X11101Y12100D01*
X11158Y12072D01*
X11187Y12014D01*
X11187Y11700D01*
X11387Y12100D02*
X11616Y12100D01*
X11473Y12300D02*
X11473Y11786D01*
X11501Y11729D01*
X11559Y11700D01*
X11616Y11700D01*
X12044Y11729D02*
X11987Y11700D01*
X11873Y11700D01*
X11816Y11729D01*
X11787Y11786D01*
X11787Y12014D01*
X11816Y12072D01*
X11873Y12100D01*
X11987Y12100D01*
X12044Y12072D01*
X12073Y12014D01*
X12073Y11957D01*
X11787Y11900D01*
X12330Y11700D02*
X12330Y12100D01*
X12330Y11986D02*
X12358Y12043D01*
X12387Y12072D01*
X12444Y12100D01*
X12501Y12100D01*
X12615Y12100D02*
X12844Y12100D01*
X12701Y11700D02*
X12701Y12214D01*
X12729Y12272D01*
X12787Y12300D01*
X12844Y12300D01*
X13301Y11700D02*
X13301Y12014D01*
X13272Y12072D01*
X13215Y12100D01*
X13101Y12100D01*
X13044Y12072D01*
X13301Y11729D02*
X13244Y11700D01*
X13101Y11700D01*
X13044Y11729D01*
X13015Y11786D01*
X13015Y11843D01*
X13044Y11900D01*
X13101Y11929D01*
X13244Y11929D01*
X13301Y11957D01*
X13844Y11729D02*
X13787Y11700D01*
X13673Y11700D01*
X13615Y11729D01*
X13587Y11757D01*
X13558Y11814D01*
X13558Y11986D01*
X13587Y12043D01*
X13615Y12072D01*
X13673Y12100D01*
X13787Y12100D01*
X13844Y12072D01*
X14329Y11729D02*
X14272Y11700D01*
X14158Y11700D01*
X14101Y11729D01*
X14072Y11786D01*
X14072Y12014D01*
X14101Y12072D01*
X14158Y12100D01*
X14272Y12100D01*
X14329Y12072D01*
X14358Y12014D01*
X14358Y11957D01*
X14072Y11900D01*
X15043Y11729D02*
X15129Y11700D01*
X15272Y11700D01*
X15329Y11729D01*
X15358Y11757D01*
X15386Y11814D01*
X15386Y11872D01*
X15358Y11929D01*
X15329Y11957D01*
X15272Y11986D01*
X15158Y12014D01*
X15100Y12043D01*
X15072Y12072D01*
X15043Y12129D01*
X15043Y12186D01*
X15072Y12243D01*
X15100Y12272D01*
X15158Y12300D01*
X15300Y12300D01*
X15386Y12272D01*
X15643Y11700D02*
X15643Y12300D01*
X15900Y11700D02*
X15900Y12014D01*
X15871Y12072D01*
X15814Y12100D01*
X15729Y12100D01*
X15671Y12072D01*
X15643Y12043D01*
X16186Y11700D02*
X16186Y12100D01*
X16186Y12300D02*
X16157Y12272D01*
X16186Y12243D01*
X16214Y12272D01*
X16186Y12300D01*
X16186Y12243D01*
X16700Y11729D02*
X16643Y11700D01*
X16529Y11700D01*
X16472Y11729D01*
X16443Y11786D01*
X16443Y12014D01*
X16472Y12072D01*
X16529Y12100D01*
X16643Y12100D01*
X16700Y12072D01*
X16729Y12014D01*
X16729Y11957D01*
X16443Y11900D01*
X17072Y11700D02*
X17014Y11729D01*
X16986Y11786D01*
X16986Y12300D01*
X17557Y11700D02*
X17557Y12300D01*
X17557Y11729D02*
X17500Y11700D01*
X17386Y11700D01*
X17328Y11729D01*
X17300Y11757D01*
X17271Y11814D01*
X17271Y11986D01*
X17300Y12043D01*
X17328Y12072D01*
X17386Y12100D01*
X17500Y12100D01*
X17557Y12072D01*
G54D13*
X5098Y8941D02*
X5098Y9203D01*
X5098Y9333D02*
X5080Y9315D01*
X5098Y9296D01*
X5117Y9315D01*
X5098Y9333D01*
X5098Y9296D01*
X5341Y8941D02*
X5304Y8960D01*
X5285Y8997D01*
X5285Y9333D01*
X5434Y9203D02*
X5584Y9203D01*
X5490Y9333D02*
X5490Y8997D01*
X5509Y8960D01*
X5546Y8941D01*
X5584Y8941D01*
X5677Y9333D02*
X5920Y9333D01*
X5789Y9184D01*
X5845Y9184D01*
X5882Y9165D01*
X5901Y9147D01*
X5920Y9109D01*
X5920Y9016D01*
X5901Y8979D01*
X5882Y8960D01*
X5845Y8941D01*
X5733Y8941D01*
X5696Y8960D01*
X5677Y8979D01*
X6087Y8979D02*
X6106Y8960D01*
X6087Y8941D01*
X6069Y8960D01*
X6087Y8979D01*
X6087Y8941D01*
X6442Y8960D02*
X6405Y8941D01*
X6330Y8941D01*
X6293Y8960D01*
X6274Y8979D01*
X6256Y9016D01*
X6256Y9128D01*
X6274Y9165D01*
X6293Y9184D01*
X6330Y9203D01*
X6405Y9203D01*
X6442Y9184D01*
X6666Y8941D02*
X6629Y8960D01*
X6610Y8979D01*
X6592Y9016D01*
X6592Y9128D01*
X6610Y9165D01*
X6629Y9184D01*
X6666Y9203D01*
X6722Y9203D01*
X6760Y9184D01*
X6778Y9165D01*
X6797Y9128D01*
X6797Y9016D01*
X6778Y8979D01*
X6760Y8960D01*
X6722Y8941D01*
X6666Y8941D01*
X6965Y8941D02*
X6965Y9203D01*
X6965Y9165D02*
X6984Y9184D01*
X7021Y9203D01*
X7077Y9203D01*
X7115Y9184D01*
X7133Y9147D01*
X7133Y8941D01*
X7133Y9147D02*
X7152Y9184D01*
X7189Y9203D01*
X7245Y9203D01*
X7283Y9184D01*
X7301Y9147D01*
X7301Y8941D01*
G54D14*
X17043Y9073D02*
X16939Y9222D01*
X16864Y9073D02*
X16864Y9387D01*
X16983Y9387D01*
X17013Y9372D01*
X17028Y9357D01*
X17043Y9327D01*
X17043Y9282D01*
X17028Y9252D01*
X17013Y9237D01*
X16983Y9222D01*
X16864Y9222D01*
X17297Y9088D02*
X17267Y9073D01*
X17208Y9073D01*
X17178Y9088D01*
X17163Y9118D01*
X17163Y9237D01*
X17178Y9267D01*
X17208Y9282D01*
X17267Y9282D01*
X17297Y9267D01*
X17312Y9237D01*
X17312Y9207D01*
X17163Y9178D01*
X17417Y9282D02*
X17492Y9073D01*
X17566Y9282D01*
G54D15*
X9688Y10776D02*
X9745Y10776D01*
X9802Y10738D01*
X9831Y10700D01*
X9860Y10624D01*
X9888Y10471D01*
X9888Y10281D01*
X9860Y10129D01*
X9831Y10052D01*
X9802Y10014D01*
X9745Y9976D01*
X9688Y9976D01*
X9631Y10014D01*
X9602Y10052D01*
X9574Y10129D01*
X9545Y10281D01*
X9545Y10471D01*
X9574Y10624D01*
X9602Y10700D01*
X9631Y10738D01*
X9688Y10776D01*
X10116Y10700D02*
X10145Y10738D01*
X10202Y10776D01*
X10345Y10776D01*
X10402Y10738D01*
X10431Y10700D01*
X10459Y10624D01*
X10459Y10548D01*
X10431Y10433D01*
X10088Y9976D01*
X10459Y9976D01*
X10830Y10776D02*
X10887Y10776D01*
X10944Y10738D01*
X10973Y10700D01*
X11002Y10624D01*
X11030Y10471D01*
X11030Y10281D01*
X11002Y10129D01*
X10973Y10052D01*
X10944Y10014D01*
X10887Y9976D01*
X10830Y9976D01*
X10773Y10014D01*
X10744Y10052D01*
X10716Y10129D01*
X10687Y10281D01*
X10687Y10471D01*
X10716Y10624D01*
X10744Y10700D01*
X10773Y10738D01*
X10830Y10776D01*
X11401Y10776D02*
X11458Y10776D01*
X11515Y10738D01*
X11544Y10700D01*
X11573Y10624D01*
X11601Y10471D01*
X11601Y10281D01*
X11573Y10129D01*
X11544Y10052D01*
X11515Y10014D01*
X11458Y9976D01*
X11401Y9976D01*
X11344Y10014D01*
X11315Y10052D01*
X11287Y10129D01*
X11258Y10281D01*
X11258Y10471D01*
X11287Y10624D01*
X11315Y10700D01*
X11344Y10738D01*
X11401Y10776D01*
X11858Y10281D02*
X12315Y10281D01*
X12715Y10776D02*
X12772Y10776D01*
X12829Y10738D01*
X12858Y10700D01*
X12887Y10624D01*
X12915Y10471D01*
X12915Y10281D01*
X12887Y10129D01*
X12858Y10052D01*
X12829Y10014D01*
X12772Y9976D01*
X12715Y9976D01*
X12658Y10014D01*
X12629Y10052D01*
X12601Y10129D01*
X12572Y10281D01*
X12572Y10471D01*
X12601Y10624D01*
X12629Y10700D01*
X12658Y10738D01*
X12715Y10776D01*
X13286Y10776D02*
X13343Y10776D01*
X13400Y10738D01*
X13429Y10700D01*
X13458Y10624D01*
X13486Y10471D01*
X13486Y10281D01*
X13458Y10129D01*
X13429Y10052D01*
X13400Y10014D01*
X13343Y9976D01*
X13286Y9976D01*
X13229Y10014D01*
X13200Y10052D01*
X13172Y10129D01*
X13143Y10281D01*
X13143Y10471D01*
X13172Y10624D01*
X13200Y10700D01*
X13229Y10738D01*
X13286Y10776D01*
X13857Y10776D02*
X13914Y10776D01*
X13971Y10738D01*
X14000Y10700D01*
X14029Y10624D01*
X14057Y10471D01*
X14057Y10281D01*
X14029Y10129D01*
X14000Y10052D01*
X13971Y10014D01*
X13914Y9976D01*
X13857Y9976D01*
X13800Y10014D01*
X13771Y10052D01*
X13743Y10129D01*
X13714Y10281D01*
X13714Y10471D01*
X13743Y10624D01*
X13771Y10700D01*
X13800Y10738D01*
X13857Y10776D01*
X14571Y10510D02*
X14571Y9976D01*
X14428Y10814D02*
X14285Y10243D01*
X14657Y10243D01*
X14885Y10281D02*
X15342Y10281D01*
X15742Y10776D02*
X15799Y10776D01*
X15856Y10738D01*
X15885Y10700D01*
X15914Y10624D01*
X15942Y10471D01*
X15942Y10281D01*
X15914Y10129D01*
X15885Y10052D01*
X15856Y10014D01*
X15799Y9976D01*
X15742Y9976D01*
X15685Y10014D01*
X15656Y10052D01*
X15628Y10129D01*
X15599Y10281D01*
X15599Y10471D01*
X15628Y10624D01*
X15656Y10700D01*
X15685Y10738D01*
X15742Y10776D01*
X16313Y10776D02*
X16370Y10776D01*
X16427Y10738D01*
X16456Y10700D01*
X16485Y10624D01*
X16513Y10471D01*
X16513Y10281D01*
X16485Y10129D01*
X16456Y10052D01*
X16427Y10014D01*
X16370Y9976D01*
X16313Y9976D01*
X16256Y10014D01*
X16227Y10052D01*
X16199Y10129D01*
X16170Y10281D01*
X16170Y10471D01*
X16199Y10624D01*
X16227Y10700D01*
X16256Y10738D01*
X16313Y10776D01*
X16884Y10776D02*
X16941Y10776D01*
X16998Y10738D01*
X17027Y10700D01*
X17056Y10624D01*
X17084Y10471D01*
X17084Y10281D01*
X17056Y10129D01*
X17027Y10052D01*
X16998Y10014D01*
X16941Y9976D01*
X16884Y9976D01*
X16827Y10014D01*
X16798Y10052D01*
X16770Y10129D01*
X16741Y10281D01*
X16741Y10471D01*
X16770Y10624D01*
X16798Y10700D01*
X16827Y10738D01*
X16884Y10776D01*
X17312Y10700D02*
X17341Y10738D01*
X17398Y10776D01*
X17541Y10776D01*
X17598Y10738D01*
X17627Y10700D01*
X17655Y10624D01*
X17655Y10548D01*
X17627Y10433D01*
X17284Y9976D01*
X17655Y9976D01*
G54D10*
X13700Y3400D02*
X13700Y2400D01*
X13700Y2400D02*
X10700Y2400D01*
X10700Y2400D02*
X10700Y3400D01*
X10700Y3400D02*
X13700Y3400D01*
X12700Y2400D02*
X12700Y3400D01*
X13700Y6000D02*
X13700Y5000D01*
X13700Y5000D02*
X10700Y5000D01*
X10700Y5000D02*
X10700Y6000D01*
X10700Y6000D02*
X13700Y6000D01*
X12700Y5000D02*
X12700Y6000D01*
G54D11*
X19958Y398D02*
X19958Y2898D01*
X19958Y2898D02*
X20258Y2898D01*
X20258Y2898D02*
X20258Y4898D01*
X20258Y4898D02*
X17258Y4898D01*
X17258Y4898D02*
X17258Y2898D01*
X17258Y2898D02*
X17558Y2898D01*
X17558Y2898D02*
X17558Y398D01*
X17558Y398D02*
X19958Y398D01*
X36050Y8800D02*
X36050Y7650D01*
X36050Y7650D02*
X36650Y7650D01*
X36650Y7650D02*
X36650Y7850D01*
X36650Y7850D02*
X37400Y7850D01*
X36650Y10650D02*
X37400Y10650D01*
X36650Y10650D02*
X36650Y10850D01*
X36650Y10850D02*
X36050Y10850D01*
X36050Y10850D02*
X36050Y9850D01*
X38600Y10700D02*
X39900Y10700D01*
X39900Y10700D02*
X39900Y7850D01*
X39900Y7850D02*
X38600Y7850D01*
X36050Y3600D02*
X36050Y2450D01*
X36050Y2450D02*
X36650Y2450D01*
X36650Y2450D02*
X36650Y2650D01*
X36650Y2650D02*
X37400Y2650D01*
X36650Y5450D02*
X37400Y5450D01*
X36650Y5450D02*
X36650Y5650D01*
X36650Y5650D02*
X36050Y5650D01*
X36050Y5650D02*
X36050Y4650D01*
X38600Y5500D02*
X39900Y5500D01*
X39900Y5500D02*
X39900Y2650D01*
X39900Y2650D02*
X38600Y2650D01*
G54D16*
X34200Y1600D02*
X34600Y1400D01*
X34600Y1400D02*
X34200Y1200D01*
X34200Y1200D02*
X34200Y1600D01*
X11400Y1800D02*
X11800Y1600D01*
X11800Y1600D02*
X11400Y1400D01*
X11400Y1400D02*
X11400Y1800D01*
X30100Y20800D02*
X29900Y20400D01*
X29900Y20400D02*
X29700Y20800D01*
X29700Y20800D02*
X30100Y20800D01*
X28900Y20800D02*
X28700Y20400D01*
X28700Y20400D02*
X28500Y20800D01*
X28500Y20800D02*
X28900Y20800D01*
G54D10*
X34878Y25513D02*
X34878Y27087D01*
X34878Y27087D02*
X39522Y27087D01*
X39522Y27087D02*
X39522Y25513D01*
X39522Y25513D02*
X34878Y25513D01*
G54D17*
X15100Y5300D02*
X15100Y5700D01*
X15100Y5700D02*
X15700Y5700D01*
X15700Y5700D02*
X15700Y5300D01*
X15700Y4900D02*
X15700Y4500D01*
X15700Y4500D02*
X15100Y4500D01*
X15100Y4500D02*
X15100Y4900D01*
X15100Y3300D02*
X15100Y3700D01*
X15100Y3700D02*
X15700Y3700D01*
X15700Y3700D02*
X15700Y3300D01*
X15700Y2900D02*
X15700Y2500D01*
X15700Y2500D02*
X15100Y2500D01*
X15100Y2500D02*
X15100Y2900D01*
G54D16*
X5389Y4735D02*
X5822Y4735D01*
X5625Y4931D02*
X5625Y4498D01*
X8480Y30D02*
X8775Y325D01*
X5921Y30D02*
X5626Y325D01*
X5626Y326D02*
X5626Y1211D01*
X5921Y89D02*
X8479Y89D01*
X8774Y326D02*
X8774Y1211D01*
X8775Y1211D02*
X8775Y1113D01*
G54D11*
X5626Y2500D02*
X5626Y3799D01*
X5626Y3799D02*
X8774Y3799D01*
X8774Y3799D02*
X8774Y2500D01*
X21200Y24228D02*
X26318Y24228D01*
X26318Y24228D02*
X26318Y14976D01*
X26318Y14976D02*
X24743Y14976D01*
X21200Y24228D02*
X16082Y24228D01*
X16082Y24228D02*
X16082Y14976D01*
X16082Y14976D02*
X17657Y14976D01*
X17657Y14976D02*
X17854Y14976D01*
G54D18*
X32108Y15757D02*
X33092Y15757D01*
G54D16*
X33092Y15758D02*
X33092Y22842D01*
G54D18*
X33092Y22842D02*
X32108Y22842D01*
G54D16*
X32108Y22842D02*
X32108Y15758D01*
X19413Y25733D02*
X11539Y25733D01*
X26500Y25733D02*
X20594Y25733D01*
X2484Y25733D02*
X10457Y25733D01*
X2484Y6737D02*
X2484Y24650D01*
X12425Y7721D02*
X4551Y7721D01*
X21480Y7721D02*
X13508Y7721D01*
X30043Y7721D02*
X22169Y7721D01*
G54D11*
X21619Y2681D02*
X21619Y122D01*
X21619Y122D02*
X23981Y122D01*
X23981Y122D02*
X23981Y2681D01*
X23981Y2681D02*
X21619Y2681D01*
G54D17*
X26941Y10950D02*
G75*
G03X26941Y10950I-141J0D01*
G74*
G01*
X26600Y12050D02*
X26900Y12050D01*
X26900Y12050D02*
X26900Y11550D01*
X26900Y11550D02*
X26600Y11550D01*
X30650Y10750D02*
X26600Y10750D01*
X26600Y12850D02*
X30650Y12850D01*
X26600Y12850D02*
X26600Y10750D01*
X30650Y12850D02*
X30650Y10750D01*
G54D11*
X619Y2681D02*
X619Y122D01*
X619Y122D02*
X2981Y122D01*
X2981Y122D02*
X2981Y2681D01*
X2981Y2681D02*
X619Y2681D01*
G54D10*
X25300Y4300D02*
X25300Y5300D01*
X25300Y5300D02*
X28300Y5300D01*
X28300Y5300D02*
X28300Y4300D01*
X28300Y4300D02*
X25300Y4300D01*
X26300Y5300D02*
X26300Y4300D01*
X25300Y1200D02*
X25300Y2200D01*
X25300Y2200D02*
X28300Y2200D01*
X28300Y2200D02*
X28300Y1200D01*
X28300Y1200D02*
X25300Y1200D01*
X26300Y2200D02*
X26300Y1200D01*
G54D17*
X5900Y6200D02*
G75*
G03X5900Y6200I-50J0D01*
G74*
G01*
X5400Y6200D02*
X5800Y6200D01*
X5800Y6200D02*
X5800Y5600D01*
X5800Y5600D02*
X5400Y5600D01*
X5000Y5600D02*
X4600Y5600D01*
X4600Y5600D02*
X4600Y6200D01*
X4600Y6200D02*
X5000Y6200D01*
X30550Y15150D02*
G75*
G03X30550Y15150I-50J0D01*
G74*
G01*
X30500Y15600D02*
X30500Y15200D01*
X30500Y15200D02*
X29900Y15200D01*
X29900Y15200D02*
X29900Y15600D01*
X29900Y16000D02*
X29900Y16400D01*
X29900Y16400D02*
X30500Y16400D01*
X30500Y16400D02*
X30500Y16000D01*
X27700Y8700D02*
G75*
G03X27700Y8700I-50J0D01*
G74*
G01*
X28100Y8700D02*
X27700Y8700D01*
X27700Y8700D02*
X27700Y9300D01*
X27700Y9300D02*
X28100Y9300D01*
X28500Y9300D02*
X28900Y9300D01*
X28900Y9300D02*
X28900Y8700D01*
X28900Y8700D02*
X28500Y8700D01*
X34600Y6400D02*
G75*
G03X34600Y6400I-50J0D01*
G74*
G01*
X35000Y6400D02*
X34600Y6400D01*
X34600Y6400D02*
X34600Y7000D01*
X34600Y7000D02*
X35000Y7000D01*
X35400Y7000D02*
X35800Y7000D01*
X35800Y7000D02*
X35800Y6400D01*
X35800Y6400D02*
X35400Y6400D01*
G54D11*
X9400Y24228D02*
X14518Y24228D01*
X14518Y24228D02*
X14518Y14976D01*
X14518Y14976D02*
X12943Y14976D01*
X9400Y24228D02*
X4282Y24228D01*
X4282Y24228D02*
X4282Y14976D01*
X4282Y14976D02*
X5857Y14976D01*
X5857Y14976D02*
X6054Y14976D01*
X32281Y2894D02*
X32281Y3287D01*
X32281Y3287D02*
X31887Y3681D01*
X31887Y3681D02*
X29919Y3681D01*
X29919Y3681D02*
X29919Y2894D01*
X29919Y2106D02*
X29919Y1319D01*
X29919Y1319D02*
X31887Y1319D01*
X31887Y1319D02*
X32281Y1713D01*
X32281Y1713D02*
X32281Y2106D01*
G54D19*
X32084Y2500D02*
G75*
G03X32084Y2500I-984J0D01*
G74*
G01*
G54D11*
X8481Y12894D02*
X8481Y13287D01*
X8481Y13287D02*
X8087Y13681D01*
X8087Y13681D02*
X6119Y13681D01*
X6119Y13681D02*
X6119Y12894D01*
X6119Y12106D02*
X6119Y11319D01*
X6119Y11319D02*
X8087Y11319D01*
X8087Y11319D02*
X8481Y11713D01*
X8481Y11713D02*
X8481Y12106D01*
G54D19*
X8284Y12500D02*
G75*
G03X8284Y12500I-984J0D01*
G74*
G01*
G54D11*
X21781Y12794D02*
X21781Y13187D01*
X21781Y13187D02*
X21387Y13581D01*
X21387Y13581D02*
X19419Y13581D01*
X19419Y13581D02*
X19419Y12794D01*
X19419Y12006D02*
X19419Y11219D01*
X19419Y11219D02*
X21387Y11219D01*
X21387Y11219D02*
X21781Y11613D01*
X21781Y11613D02*
X21781Y12006D01*
G54D19*
X21584Y12400D02*
G75*
G03X21584Y12400I-984J0D01*
G74*
G01*
G54D11*
X3581Y4894D02*
X3581Y5287D01*
X3581Y5287D02*
X3187Y5681D01*
X3187Y5681D02*
X1219Y5681D01*
X1219Y5681D02*
X1219Y4894D01*
X1219Y4106D02*
X1219Y3319D01*
X1219Y3319D02*
X3187Y3319D01*
X3187Y3319D02*
X3581Y3713D01*
X3581Y3713D02*
X3581Y4106D01*
G54D19*
X3384Y4500D02*
G75*
G03X3384Y4500I-984J0D01*
G74*
G01*
G54D10*
X34200Y19800D02*
X33200Y19800D01*
X33200Y20800D02*
X34200Y20800D01*
X33200Y19800D02*
X33200Y20800D01*
X34200Y20800D02*
X34200Y19800D01*
G54D17*
X27900Y19100D02*
X27900Y19500D01*
X27900Y19500D02*
X28500Y19500D01*
X28500Y19500D02*
X28500Y19100D01*
X28500Y18700D02*
X28500Y18300D01*
X28500Y18300D02*
X27900Y18300D01*
X27900Y18300D02*
X27900Y18700D01*
X29100Y19100D02*
X29100Y19500D01*
X29100Y19500D02*
X29700Y19500D01*
X29700Y19500D02*
X29700Y19100D01*
X29700Y18700D02*
X29700Y18300D01*
X29700Y18300D02*
X29100Y18300D01*
X29100Y18300D02*
X29100Y18700D01*
X35900Y600D02*
X35500Y600D01*
X35500Y600D02*
X35500Y1200D01*
X35500Y1200D02*
X35900Y1200D01*
X36300Y1200D02*
X36700Y1200D01*
X36700Y1200D02*
X36700Y600D01*
X36700Y600D02*
X36300Y600D01*
X37300Y23500D02*
X37300Y23100D01*
X37300Y23100D02*
X36700Y23100D01*
X36700Y23100D02*
X36700Y23500D01*
X36700Y23900D02*
X36700Y24300D01*
X36700Y24300D02*
X37300Y24300D01*
X37300Y24300D02*
X37300Y23900D01*
X13600Y800D02*
X13200Y800D01*
X13200Y800D02*
X13200Y1400D01*
X13200Y1400D02*
X13600Y1400D01*
X14000Y1400D02*
X14400Y1400D01*
X14400Y1400D02*
X14400Y800D01*
X14400Y800D02*
X14000Y800D01*
G54D16*
X38900Y24000D02*
X38700Y23600D01*
X38700Y23600D02*
X38500Y24000D01*
X38500Y24000D02*
X38900Y24000D01*
G54D14*
X39869Y11931D02*
X39869Y15829D01*
X39869Y15829D02*
X38531Y15829D01*
X38531Y15829D02*
X38531Y15357D01*
X38531Y15357D02*
X37546Y15357D01*
X37546Y15357D02*
X37546Y12443D01*
X37546Y12443D02*
X38491Y12443D01*
X38491Y12443D02*
X38491Y11931D01*
X38491Y11931D02*
X39869Y11931D01*
G54D10*
X9905Y2738D02*
X9905Y3138D01*
X10134Y2738D02*
X9962Y2967D01*
X10134Y3138D02*
X9905Y2910D01*
X10267Y3138D02*
X10515Y3138D01*
X10381Y2986D01*
X10439Y2986D01*
X10477Y2967D01*
X10496Y2948D01*
X10515Y2910D01*
X10515Y2814D01*
X10496Y2776D01*
X10477Y2757D01*
X10439Y2738D01*
X10324Y2738D01*
X10286Y2757D01*
X10267Y2776D01*
G54D20*
X11143Y2279D02*
X11243Y1979D01*
X11343Y2279D01*
X11442Y1979D02*
X11442Y2179D01*
X11442Y2279D02*
X11428Y2264D01*
X11442Y2250D01*
X11457Y2264D01*
X11442Y2279D01*
X11442Y2250D01*
X11585Y2179D02*
X11585Y1979D01*
X11585Y2150D02*
X11600Y2164D01*
X11628Y2179D01*
X11671Y2179D01*
X11700Y2164D01*
X11714Y2136D01*
X11714Y1979D01*
X12772Y1979D02*
X12772Y2279D01*
X12844Y2279D01*
X12887Y2264D01*
X12915Y2236D01*
X12930Y2207D01*
X12944Y2150D01*
X12944Y2107D01*
X12930Y2050D01*
X12915Y2021D01*
X12887Y1993D01*
X12844Y1979D01*
X12772Y1979D01*
X13044Y2279D02*
X13244Y2279D01*
X13115Y1979D01*
X11629Y3679D02*
X11457Y3679D01*
X11543Y3679D02*
X11543Y3979D01*
X11514Y3936D01*
X11486Y3907D01*
X11457Y3893D01*
X11743Y3950D02*
X11757Y3964D01*
X11786Y3979D01*
X11857Y3979D01*
X11886Y3964D01*
X11900Y3950D01*
X11915Y3921D01*
X11915Y3893D01*
X11900Y3850D01*
X11729Y3679D01*
X11915Y3679D01*
X12001Y3979D02*
X12101Y3679D01*
X12201Y3979D01*
X12529Y3836D02*
X12629Y3836D01*
X12672Y3679D02*
X12529Y3679D01*
X12529Y3979D01*
X12672Y3979D01*
X12800Y3879D02*
X12800Y3679D01*
X12800Y3850D02*
X12815Y3864D01*
X12843Y3879D01*
X12886Y3879D01*
X12915Y3864D01*
X12929Y3836D01*
X12929Y3679D01*
G54D10*
X9905Y5338D02*
X9905Y5738D01*
X10134Y5338D02*
X9962Y5567D01*
X10134Y5738D02*
X9905Y5510D01*
X10477Y5605D02*
X10477Y5338D01*
X10381Y5757D02*
X10286Y5471D01*
X10534Y5471D01*
G54D20*
X10928Y4779D02*
X11028Y4479D01*
X11128Y4779D01*
X11227Y4479D02*
X11227Y4679D01*
X11227Y4779D02*
X11213Y4764D01*
X11227Y4750D01*
X11242Y4764D01*
X11227Y4779D01*
X11227Y4750D01*
X11370Y4679D02*
X11370Y4479D01*
X11370Y4650D02*
X11385Y4664D01*
X11413Y4679D01*
X11456Y4679D01*
X11485Y4664D01*
X11499Y4636D01*
X11499Y4479D01*
X12786Y4479D02*
X12786Y4779D01*
X12858Y4779D01*
X12901Y4764D01*
X12929Y4736D01*
X12944Y4707D01*
X12958Y4650D01*
X12958Y4607D01*
X12944Y4550D01*
X12929Y4521D01*
X12901Y4493D01*
X12858Y4479D01*
X12786Y4479D01*
X13215Y4779D02*
X13158Y4779D01*
X13129Y4764D01*
X13115Y4750D01*
X13086Y4707D01*
X13072Y4650D01*
X13072Y4536D01*
X13086Y4507D01*
X13101Y4493D01*
X13129Y4479D01*
X13186Y4479D01*
X13215Y4493D01*
X13229Y4507D01*
X13244Y4536D01*
X13244Y4607D01*
X13229Y4636D01*
X13215Y4650D01*
X13186Y4664D01*
X13129Y4664D01*
X13101Y4650D01*
X13086Y4636D01*
X13072Y4607D01*
X11757Y6579D02*
X11614Y6579D01*
X11600Y6436D01*
X11614Y6450D01*
X11643Y6464D01*
X11714Y6464D01*
X11743Y6450D01*
X11757Y6436D01*
X11772Y6407D01*
X11772Y6336D01*
X11757Y6307D01*
X11743Y6293D01*
X11714Y6279D01*
X11643Y6279D01*
X11614Y6293D01*
X11600Y6307D01*
X11858Y6579D02*
X11958Y6279D01*
X12058Y6579D01*
X12386Y6436D02*
X12486Y6436D01*
X12529Y6279D02*
X12386Y6279D01*
X12386Y6579D01*
X12529Y6579D01*
X12657Y6479D02*
X12657Y6279D01*
X12657Y6450D02*
X12672Y6464D01*
X12700Y6479D01*
X12743Y6479D01*
X12772Y6464D01*
X12786Y6436D01*
X12786Y6279D01*
G54D10*
X16871Y1523D02*
X16871Y1654D01*
X17077Y1710D02*
X17077Y1523D01*
X16684Y1523D01*
X16684Y1710D01*
X17077Y1841D02*
X16815Y2047D01*
X16815Y1841D02*
X17077Y2047D01*
X16815Y2140D02*
X16815Y2290D01*
X16684Y2197D02*
X17020Y2197D01*
X17058Y2215D01*
X17077Y2253D01*
X17077Y2290D01*
X16871Y2852D02*
X16889Y2908D01*
X16908Y2926D01*
X16946Y2945D01*
X17002Y2945D01*
X17039Y2926D01*
X17058Y2908D01*
X17077Y2870D01*
X17077Y2721D01*
X16684Y2721D01*
X16684Y2852D01*
X16702Y2889D01*
X16721Y2908D01*
X16758Y2926D01*
X16796Y2926D01*
X16833Y2908D01*
X16852Y2889D01*
X16871Y2852D01*
X16871Y2721D01*
X17077Y3282D02*
X16871Y3282D01*
X16833Y3263D01*
X16815Y3226D01*
X16815Y3151D01*
X16833Y3114D01*
X17058Y3282D02*
X17077Y3245D01*
X17077Y3151D01*
X17058Y3114D01*
X17020Y3095D01*
X16983Y3095D01*
X16946Y3114D01*
X16927Y3151D01*
X16927Y3245D01*
X16908Y3282D01*
X16815Y3413D02*
X16815Y3563D01*
X16684Y3470D02*
X17020Y3470D01*
X17058Y3488D01*
X17077Y3526D01*
X17077Y3563D01*
G54D15*
X20699Y4259D02*
X20699Y4716D01*
X20928Y4487D02*
X20471Y4487D01*
G54D17*
X38562Y9005D02*
X38162Y9005D01*
X38162Y9158D01*
X38181Y9196D01*
X38200Y9215D01*
X38238Y9234D01*
X38295Y9234D01*
X38333Y9215D01*
X38352Y9196D01*
X38371Y9158D01*
X38371Y9005D01*
X38162Y9367D02*
X38162Y9615D01*
X38314Y9481D01*
X38314Y9539D01*
X38333Y9577D01*
X38352Y9596D01*
X38390Y9615D01*
X38486Y9615D01*
X38524Y9596D01*
X38543Y9577D01*
X38562Y9539D01*
X38562Y9424D01*
X38543Y9386D01*
X38524Y9367D01*
G54D20*
X39521Y6915D02*
X39521Y6743D01*
X39521Y6829D02*
X39221Y6829D01*
X39264Y6800D01*
X39293Y6772D01*
X39307Y6743D01*
X39250Y7029D02*
X39236Y7043D01*
X39221Y7072D01*
X39221Y7143D01*
X39236Y7172D01*
X39250Y7186D01*
X39279Y7201D01*
X39307Y7201D01*
X39350Y7186D01*
X39521Y7015D01*
X39521Y7201D01*
X39221Y7287D02*
X39521Y7387D01*
X39221Y7487D01*
X34007Y8386D02*
X34007Y8615D01*
X34121Y8501D02*
X33893Y8501D01*
G54D15*
G54D17*
X38562Y3805D02*
X38162Y3805D01*
X38162Y3958D01*
X38181Y3996D01*
X38200Y4015D01*
X38238Y4034D01*
X38295Y4034D01*
X38333Y4015D01*
X38352Y3996D01*
X38371Y3958D01*
X38371Y3805D01*
X38295Y4377D02*
X38562Y4377D01*
X38143Y4281D02*
X38429Y4186D01*
X38429Y4434D01*
G54D20*
X39521Y1815D02*
X39521Y1643D01*
X39521Y1729D02*
X39221Y1729D01*
X39264Y1700D01*
X39293Y1672D01*
X39307Y1643D01*
X39250Y1929D02*
X39236Y1943D01*
X39221Y1972D01*
X39221Y2043D01*
X39236Y2072D01*
X39250Y2086D01*
X39279Y2101D01*
X39307Y2101D01*
X39350Y2086D01*
X39521Y1915D01*
X39521Y2101D01*
X39221Y2187D02*
X39521Y2287D01*
X39221Y2387D01*
X34007Y3386D02*
X34007Y3615D01*
X34121Y3501D02*
X33893Y3501D01*
G54D15*
G54D17*
X32978Y779D02*
X32978Y1079D01*
X33050Y1079D01*
X33093Y1064D01*
X33121Y1036D01*
X33136Y1007D01*
X33150Y950D01*
X33150Y907D01*
X33136Y850D01*
X33121Y821D01*
X33093Y793D01*
X33050Y779D01*
X32978Y779D01*
X33250Y1079D02*
X33436Y1079D01*
X33336Y964D01*
X33378Y964D01*
X33407Y950D01*
X33421Y936D01*
X33436Y907D01*
X33436Y836D01*
X33421Y807D01*
X33407Y793D01*
X33378Y779D01*
X33293Y779D01*
X33264Y793D01*
X33250Y807D01*
G54D20*
X34215Y279D02*
X34043Y279D01*
X34129Y279D02*
X34129Y579D01*
X34100Y536D01*
X34072Y507D01*
X34043Y493D01*
X34329Y550D02*
X34343Y564D01*
X34372Y579D01*
X34443Y579D01*
X34472Y564D01*
X34486Y550D01*
X34501Y521D01*
X34501Y493D01*
X34486Y450D01*
X34315Y279D01*
X34501Y279D01*
X34587Y579D02*
X34687Y279D01*
X34787Y579D01*
G54D17*
X10178Y979D02*
X10178Y1279D01*
X10250Y1279D01*
X10293Y1264D01*
X10321Y1236D01*
X10336Y1207D01*
X10350Y1150D01*
X10350Y1107D01*
X10336Y1050D01*
X10321Y1021D01*
X10293Y993D01*
X10250Y979D01*
X10178Y979D01*
X10607Y1179D02*
X10607Y979D01*
X10536Y1293D02*
X10464Y1079D01*
X10650Y1079D01*
G54D20*
X11543Y779D02*
X11400Y779D01*
X11386Y636D01*
X11400Y650D01*
X11429Y664D01*
X11500Y664D01*
X11529Y650D01*
X11543Y636D01*
X11558Y607D01*
X11558Y536D01*
X11543Y507D01*
X11529Y493D01*
X11500Y479D01*
X11429Y479D01*
X11400Y493D01*
X11386Y507D01*
X11644Y779D02*
X11744Y479D01*
X11844Y779D01*
G54D17*
X30581Y20358D02*
X30281Y20358D01*
X30281Y20430D01*
X30296Y20473D01*
X30324Y20501D01*
X30353Y20516D01*
X30410Y20530D01*
X30453Y20530D01*
X30510Y20516D01*
X30539Y20501D01*
X30567Y20473D01*
X30581Y20430D01*
X30581Y20358D01*
X30310Y20644D02*
X30296Y20658D01*
X30281Y20687D01*
X30281Y20758D01*
X30296Y20787D01*
X30310Y20801D01*
X30339Y20816D01*
X30367Y20816D01*
X30410Y20801D01*
X30581Y20630D01*
X30581Y20816D01*
G54D20*
X29521Y21650D02*
X29379Y21550D01*
X29521Y21478D02*
X29221Y21478D01*
X29221Y21593D01*
X29236Y21621D01*
X29250Y21636D01*
X29279Y21650D01*
X29321Y21650D01*
X29350Y21636D01*
X29364Y21621D01*
X29379Y21593D01*
X29379Y21478D01*
X29221Y21750D02*
X29521Y21950D01*
X29221Y21950D02*
X29521Y21750D01*
G54D17*
X27821Y20378D02*
X27521Y20378D01*
X27521Y20450D01*
X27536Y20493D01*
X27564Y20521D01*
X27593Y20536D01*
X27650Y20550D01*
X27693Y20550D01*
X27750Y20536D01*
X27779Y20521D01*
X27807Y20493D01*
X27821Y20450D01*
X27821Y20378D01*
X27821Y20836D02*
X27821Y20664D01*
X27821Y20750D02*
X27521Y20750D01*
X27564Y20721D01*
X27593Y20693D01*
X27607Y20664D01*
G54D20*
X28021Y21472D02*
X28021Y21643D01*
X28321Y21557D02*
X28021Y21557D01*
X28021Y21715D02*
X28321Y21915D01*
X28021Y21915D02*
X28321Y21715D01*
G54D15*
X30514Y23900D02*
X30543Y23986D01*
X30543Y24129D01*
X30514Y24186D01*
X30486Y24215D01*
X30429Y24243D01*
X30371Y24243D01*
X30314Y24215D01*
X30286Y24186D01*
X30257Y24129D01*
X30229Y24015D01*
X30200Y23957D01*
X30171Y23929D01*
X30114Y23900D01*
X30057Y23900D01*
X30000Y23929D01*
X29971Y23957D01*
X29943Y24015D01*
X29943Y24157D01*
X29971Y24243D01*
X29943Y24443D02*
X30543Y24586D01*
X30114Y24700D01*
X30543Y24814D01*
X29943Y24957D01*
X30543Y25500D02*
X30543Y25157D01*
X30543Y25329D02*
X29943Y25329D01*
X30029Y25272D01*
X30086Y25214D01*
X30114Y25157D01*
X27443Y23958D02*
X27157Y23758D01*
X27443Y23615D02*
X26843Y23615D01*
X26843Y23843D01*
X26871Y23901D01*
X26900Y23929D01*
X26957Y23958D01*
X27043Y23958D01*
X27100Y23929D01*
X27129Y23901D01*
X27157Y23843D01*
X27157Y23615D01*
X27414Y24443D02*
X27443Y24386D01*
X27443Y24272D01*
X27414Y24215D01*
X27357Y24186D01*
X27129Y24186D01*
X27071Y24215D01*
X27043Y24272D01*
X27043Y24386D01*
X27071Y24443D01*
X27129Y24472D01*
X27186Y24472D01*
X27243Y24186D01*
X27414Y24700D02*
X27443Y24757D01*
X27443Y24872D01*
X27414Y24929D01*
X27357Y24957D01*
X27329Y24957D01*
X27271Y24929D01*
X27243Y24872D01*
X27243Y24786D01*
X27214Y24729D01*
X27157Y24700D01*
X27129Y24700D01*
X27071Y24729D01*
X27043Y24786D01*
X27043Y24872D01*
X27071Y24929D01*
X27414Y25443D02*
X27443Y25386D01*
X27443Y25272D01*
X27414Y25215D01*
X27357Y25186D01*
X27129Y25186D01*
X27071Y25215D01*
X27043Y25272D01*
X27043Y25386D01*
X27071Y25443D01*
X27129Y25472D01*
X27186Y25472D01*
X27243Y25186D01*
X27043Y25643D02*
X27043Y25872D01*
X26843Y25729D02*
X27357Y25729D01*
X27414Y25757D01*
X27443Y25815D01*
X27443Y25872D01*
G54D10*
X34877Y23997D02*
X34934Y23978D01*
X35030Y23978D01*
X35068Y23997D01*
X35087Y24016D01*
X35106Y24054D01*
X35106Y24092D01*
X35087Y24130D01*
X35068Y24150D01*
X35030Y24169D01*
X34953Y24188D01*
X34915Y24207D01*
X34896Y24226D01*
X34877Y24264D01*
X34877Y24302D01*
X34896Y24340D01*
X34915Y24359D01*
X34953Y24378D01*
X35049Y24378D01*
X35106Y24359D01*
X35239Y24378D02*
X35334Y23978D01*
X35411Y24264D01*
X35487Y23978D01*
X35582Y24378D01*
X35696Y24378D02*
X35944Y24378D01*
X35810Y24226D01*
X35868Y24226D01*
X35906Y24207D01*
X35925Y24188D01*
X35944Y24150D01*
X35944Y24054D01*
X35925Y24016D01*
X35906Y23997D01*
X35868Y23978D01*
X35753Y23978D01*
X35715Y23997D01*
X35696Y24016D01*
G54D20*
X39408Y22564D02*
X39408Y22707D01*
X39493Y22536D02*
X39193Y22636D01*
X39493Y22736D01*
X39493Y22835D02*
X39293Y22835D01*
X39351Y22835D02*
X39322Y22850D01*
X39308Y22864D01*
X39293Y22893D01*
X39293Y22921D01*
X39493Y23150D02*
X39193Y23150D01*
X39479Y23150D02*
X39493Y23121D01*
X39493Y23064D01*
X39479Y23036D01*
X39465Y23021D01*
X39436Y23007D01*
X39351Y23007D01*
X39322Y23021D01*
X39308Y23036D01*
X39293Y23064D01*
X39293Y23121D01*
X39308Y23150D01*
X39293Y23421D02*
X39493Y23421D01*
X39293Y23292D02*
X39451Y23292D01*
X39479Y23307D01*
X39493Y23335D01*
X39493Y23378D01*
X39479Y23407D01*
X39465Y23421D01*
X39493Y23563D02*
X39293Y23563D01*
X39193Y23563D02*
X39208Y23549D01*
X39222Y23563D01*
X39208Y23578D01*
X39193Y23563D01*
X39222Y23563D01*
X39293Y23706D02*
X39493Y23706D01*
X39322Y23706D02*
X39308Y23721D01*
X39293Y23749D01*
X39293Y23792D01*
X39308Y23821D01*
X39336Y23835D01*
X39493Y23835D01*
X39493Y24020D02*
X39479Y23992D01*
X39465Y23977D01*
X39436Y23963D01*
X39351Y23963D01*
X39322Y23977D01*
X39308Y23992D01*
X39293Y24020D01*
X39293Y24063D01*
X39308Y24092D01*
X39322Y24106D01*
X39351Y24120D01*
X39436Y24120D01*
X39465Y24106D01*
X39479Y24092D01*
X39493Y24063D01*
X39493Y24020D01*
X39493Y24477D02*
X39193Y24477D01*
X39193Y24592D01*
X39208Y24620D01*
X39222Y24635D01*
X39251Y24649D01*
X39293Y24649D01*
X39322Y24635D01*
X39336Y24620D01*
X39351Y24592D01*
X39351Y24477D01*
X39193Y24749D02*
X39493Y24820D01*
X39279Y24877D01*
X39493Y24935D01*
X39193Y25006D01*
X39493Y25292D02*
X39351Y25192D01*
X39493Y25120D02*
X39193Y25120D01*
X39193Y25235D01*
X39208Y25263D01*
X39222Y25278D01*
X39251Y25292D01*
X39293Y25292D01*
X39322Y25278D01*
X39336Y25263D01*
X39351Y25235D01*
X39351Y25120D01*
G54D15*
X35472Y24807D02*
X35414Y24836D01*
X35386Y24864D01*
X35357Y24921D01*
X35357Y25093D01*
X35386Y25150D01*
X35414Y25179D01*
X35472Y25207D01*
X35557Y25207D01*
X35614Y25179D01*
X35643Y25150D01*
X35672Y25093D01*
X35672Y24921D01*
X35643Y24864D01*
X35614Y24836D01*
X35557Y24807D01*
X35472Y24807D01*
X35929Y25207D02*
X35929Y24807D01*
X35929Y25150D02*
X35957Y25179D01*
X36015Y25207D01*
X36100Y25207D01*
X36157Y25179D01*
X36186Y25121D01*
X36186Y24807D01*
G54D17*
X16301Y5058D02*
X16182Y4975D01*
X16301Y4916D02*
X16051Y4916D01*
X16051Y5011D01*
X16063Y5035D01*
X16075Y5046D01*
X16099Y5058D01*
X16135Y5058D01*
X16158Y5046D01*
X16170Y5035D01*
X16182Y5011D01*
X16182Y4916D01*
X16301Y5296D02*
X16301Y5154D01*
X16301Y5225D02*
X16051Y5225D01*
X16087Y5201D01*
X16111Y5177D01*
X16123Y5154D01*
X16301Y3058D02*
X16182Y2975D01*
X16301Y2916D02*
X16051Y2916D01*
X16051Y3011D01*
X16063Y3035D01*
X16075Y3046D01*
X16099Y3058D01*
X16135Y3058D01*
X16158Y3046D01*
X16170Y3035D01*
X16182Y3011D01*
X16182Y2916D01*
X16075Y3154D02*
X16063Y3166D01*
X16051Y3189D01*
X16051Y3249D01*
X16063Y3273D01*
X16075Y3285D01*
X16099Y3296D01*
X16123Y3296D01*
X16158Y3285D01*
X16301Y3142D01*
X16301Y3296D01*
X9376Y560D02*
X9185Y560D01*
X9166Y370D01*
X9185Y389D01*
X9223Y408D01*
X9319Y408D01*
X9357Y389D01*
X9376Y370D01*
X9395Y332D01*
X9395Y236D01*
X9376Y198D01*
X9357Y179D01*
X9319Y160D01*
X9223Y160D01*
X9185Y179D01*
X9166Y198D01*
X9509Y560D02*
X9642Y160D01*
X9776Y560D01*
G54D15*
X17349Y15893D02*
X16749Y15893D01*
X17177Y16093D01*
X16749Y16293D01*
X17349Y16293D01*
X17349Y16579D02*
X16749Y16579D01*
X17292Y17208D02*
X17320Y17179D01*
X17349Y17093D01*
X17349Y17036D01*
X17320Y16951D01*
X17263Y16893D01*
X17206Y16865D01*
X17092Y16836D01*
X17006Y16836D01*
X16892Y16865D01*
X16835Y16893D01*
X16777Y16951D01*
X16749Y17036D01*
X16749Y17093D01*
X16777Y17179D01*
X16806Y17208D01*
X16806Y17436D02*
X16777Y17465D01*
X16749Y17522D01*
X16749Y17665D01*
X16777Y17722D01*
X16806Y17751D01*
X16863Y17779D01*
X16920Y17779D01*
X17006Y17751D01*
X17349Y17408D01*
X17349Y17779D01*
X17349Y18064D02*
X17349Y18179D01*
X17320Y18236D01*
X17292Y18264D01*
X17206Y18322D01*
X17092Y18350D01*
X16863Y18350D01*
X16806Y18322D01*
X16777Y18293D01*
X16749Y18236D01*
X16749Y18122D01*
X16777Y18064D01*
X16806Y18036D01*
X16863Y18007D01*
X17006Y18007D01*
X17063Y18036D01*
X17092Y18064D01*
X17120Y18122D01*
X17120Y18236D01*
X17092Y18293D01*
X17063Y18322D01*
X17006Y18350D01*
X17349Y18921D02*
X17349Y18578D01*
X17349Y18750D02*
X16749Y18750D01*
X16835Y18693D01*
X16892Y18635D01*
X16920Y18578D01*
X16749Y19464D02*
X16749Y19178D01*
X17035Y19149D01*
X17006Y19178D01*
X16977Y19235D01*
X16977Y19378D01*
X17006Y19435D01*
X17035Y19464D01*
X17092Y19492D01*
X17235Y19492D01*
X17292Y19464D01*
X17320Y19435D01*
X17349Y19378D01*
X17349Y19235D01*
X17320Y19178D01*
X17292Y19149D01*
X17349Y20063D02*
X17349Y19720D01*
X17349Y19892D02*
X16749Y19892D01*
X16835Y19835D01*
X16892Y19777D01*
X16920Y19720D01*
X17120Y20320D02*
X17120Y20777D01*
X17349Y21377D02*
X17349Y21034D01*
X17349Y21206D02*
X16749Y21206D01*
X16835Y21149D01*
X16892Y21091D01*
X16920Y21034D01*
X16806Y21605D02*
X16777Y21634D01*
X16749Y21691D01*
X16749Y21834D01*
X16777Y21891D01*
X16806Y21920D01*
X16863Y21948D01*
X16920Y21948D01*
X17006Y21920D01*
X17349Y21577D01*
X17349Y21948D01*
X16749Y22148D02*
X17349Y22291D01*
X16920Y22405D01*
X17349Y22519D01*
X16749Y22662D01*
X16749Y22891D02*
X17235Y22891D01*
X17292Y22919D01*
X17320Y22948D01*
X17349Y23005D01*
X17349Y23119D01*
X17320Y23177D01*
X17292Y23205D01*
X17235Y23234D01*
X16749Y23234D01*
G54D21*
X20621Y25567D02*
X20726Y25253D01*
X20830Y25567D01*
X20935Y25253D02*
X20935Y25462D01*
X20935Y25567D02*
X20920Y25552D01*
X20935Y25537D01*
X20950Y25552D01*
X20935Y25567D01*
X20935Y25537D01*
X21085Y25462D02*
X21085Y25253D01*
X21085Y25432D02*
X21100Y25447D01*
X21130Y25462D01*
X21174Y25462D01*
X21204Y25447D01*
X21219Y25417D01*
X21219Y25253D01*
X22250Y25552D02*
X22220Y25567D01*
X22175Y25567D01*
X22131Y25552D01*
X22101Y25522D01*
X22086Y25492D01*
X22071Y25432D01*
X22071Y25387D01*
X22086Y25328D01*
X22101Y25298D01*
X22131Y25268D01*
X22175Y25253D01*
X22205Y25253D01*
X22250Y25268D01*
X22265Y25283D01*
X22265Y25387D01*
X22205Y25387D01*
X22400Y25253D02*
X22400Y25567D01*
X22579Y25253D01*
X22579Y25567D01*
X22729Y25253D02*
X22729Y25567D01*
X22804Y25567D01*
X22848Y25552D01*
X22878Y25522D01*
X22893Y25492D01*
X22908Y25432D01*
X22908Y25387D01*
X22893Y25328D01*
X22878Y25298D01*
X22848Y25268D01*
X22804Y25253D01*
X22729Y25253D01*
X23909Y25567D02*
X23760Y25567D01*
X23745Y25417D01*
X23760Y25432D01*
X23790Y25447D01*
X23864Y25447D01*
X23894Y25432D01*
X23909Y25417D01*
X23924Y25387D01*
X23924Y25313D01*
X23909Y25283D01*
X23894Y25268D01*
X23864Y25253D01*
X23790Y25253D01*
X23760Y25268D01*
X23745Y25283D01*
X24014Y25567D02*
X24119Y25253D01*
X24223Y25567D01*
X24537Y25567D02*
X24731Y25567D01*
X24627Y25447D01*
X24671Y25447D01*
X24701Y25432D01*
X24716Y25417D01*
X24731Y25387D01*
X24731Y25313D01*
X24716Y25283D01*
X24701Y25268D01*
X24671Y25253D01*
X24582Y25253D01*
X24552Y25268D01*
X24537Y25283D01*
X24821Y25567D02*
X24926Y25253D01*
X25030Y25567D01*
X25105Y25567D02*
X25299Y25567D01*
X25195Y25447D01*
X25239Y25447D01*
X25269Y25432D01*
X25284Y25417D01*
X25299Y25387D01*
X25299Y25313D01*
X25284Y25283D01*
X25269Y25268D01*
X25239Y25253D01*
X25150Y25253D01*
X25120Y25268D01*
X25105Y25283D01*
X25852Y25253D02*
X25748Y25402D01*
X25673Y25253D02*
X25673Y25567D01*
X25792Y25567D01*
X25822Y25552D01*
X25837Y25537D01*
X25852Y25507D01*
X25852Y25462D01*
X25837Y25432D01*
X25822Y25417D01*
X25792Y25402D01*
X25673Y25402D01*
X25972Y25268D02*
X26017Y25253D01*
X26091Y25253D01*
X26121Y25268D01*
X26136Y25283D01*
X26151Y25313D01*
X26151Y25343D01*
X26136Y25373D01*
X26121Y25387D01*
X26091Y25402D01*
X26032Y25417D01*
X26002Y25432D01*
X25987Y25447D01*
X25972Y25477D01*
X25972Y25507D01*
X25987Y25537D01*
X26002Y25552D01*
X26032Y25567D01*
X26106Y25567D01*
X26151Y25552D01*
X26241Y25567D02*
X26420Y25567D01*
X26331Y25253D02*
X26331Y25567D01*
G54D14*
X2355Y25363D02*
X2504Y25363D01*
X2325Y25273D02*
X2430Y25587D01*
X2534Y25273D01*
X2803Y25273D02*
X2624Y25273D01*
X2714Y25273D02*
X2714Y25587D01*
X2684Y25542D01*
X2654Y25512D01*
X2624Y25497D01*
X3087Y25587D02*
X2938Y25587D01*
X2923Y25437D01*
X2938Y25452D01*
X2968Y25467D01*
X3042Y25467D01*
X3072Y25452D01*
X3087Y25437D01*
X3102Y25407D01*
X3102Y25333D01*
X3087Y25303D01*
X3072Y25288D01*
X3042Y25273D01*
X2968Y25273D01*
X2938Y25288D01*
X2923Y25303D01*
X3461Y25363D02*
X3610Y25363D01*
X3431Y25273D02*
X3536Y25587D01*
X3640Y25273D01*
X3909Y25273D02*
X3730Y25273D01*
X3820Y25273D02*
X3820Y25587D01*
X3790Y25542D01*
X3760Y25512D01*
X3730Y25497D01*
X4178Y25482D02*
X4178Y25273D01*
X4104Y25602D02*
X4029Y25378D01*
X4223Y25378D01*
X4567Y25363D02*
X4716Y25363D01*
X4537Y25273D02*
X4642Y25587D01*
X4746Y25273D01*
X5015Y25273D02*
X4836Y25273D01*
X4926Y25273D02*
X4926Y25587D01*
X4896Y25542D01*
X4866Y25512D01*
X4836Y25497D01*
X5120Y25587D02*
X5314Y25587D01*
X5210Y25467D01*
X5254Y25467D01*
X5284Y25452D01*
X5299Y25437D01*
X5314Y25407D01*
X5314Y25333D01*
X5299Y25303D01*
X5284Y25288D01*
X5254Y25273D01*
X5165Y25273D01*
X5135Y25288D01*
X5120Y25303D01*
X5673Y25363D02*
X5822Y25363D01*
X5643Y25273D02*
X5748Y25587D01*
X5852Y25273D01*
X6121Y25273D02*
X5942Y25273D01*
X6032Y25273D02*
X6032Y25587D01*
X6002Y25542D01*
X5972Y25512D01*
X5942Y25497D01*
X6241Y25557D02*
X6256Y25572D01*
X6286Y25587D01*
X6360Y25587D01*
X6390Y25572D01*
X6405Y25557D01*
X6420Y25527D01*
X6420Y25497D01*
X6405Y25452D01*
X6226Y25273D01*
X6420Y25273D01*
X6779Y25363D02*
X6928Y25363D01*
X6749Y25273D02*
X6854Y25587D01*
X6958Y25273D01*
X7227Y25273D02*
X7048Y25273D01*
X7138Y25273D02*
X7138Y25587D01*
X7108Y25542D01*
X7078Y25512D01*
X7048Y25497D01*
X7526Y25273D02*
X7347Y25273D01*
X7437Y25273D02*
X7437Y25587D01*
X7407Y25542D01*
X7377Y25512D01*
X7347Y25497D01*
X7885Y25363D02*
X8034Y25363D01*
X7855Y25273D02*
X7960Y25587D01*
X8064Y25273D01*
X8333Y25273D02*
X8154Y25273D01*
X8244Y25273D02*
X8244Y25587D01*
X8214Y25542D01*
X8184Y25512D01*
X8154Y25497D01*
X8528Y25587D02*
X8557Y25587D01*
X8587Y25572D01*
X8602Y25557D01*
X8617Y25527D01*
X8632Y25467D01*
X8632Y25393D01*
X8617Y25333D01*
X8602Y25303D01*
X8587Y25288D01*
X8557Y25273D01*
X8528Y25273D01*
X8498Y25288D01*
X8483Y25303D01*
X8468Y25333D01*
X8453Y25393D01*
X8453Y25467D01*
X8468Y25527D01*
X8483Y25557D01*
X8498Y25572D01*
X8528Y25587D01*
X8991Y25363D02*
X9140Y25363D01*
X8961Y25273D02*
X9066Y25587D01*
X9170Y25273D01*
X9290Y25273D02*
X9350Y25273D01*
X9379Y25288D01*
X9394Y25303D01*
X9424Y25348D01*
X9439Y25407D01*
X9439Y25527D01*
X9424Y25557D01*
X9409Y25572D01*
X9379Y25587D01*
X9320Y25587D01*
X9290Y25572D01*
X9275Y25557D01*
X9260Y25527D01*
X9260Y25452D01*
X9275Y25422D01*
X9290Y25407D01*
X9320Y25393D01*
X9379Y25393D01*
X9409Y25407D01*
X9424Y25422D01*
X9439Y25452D01*
X9798Y25363D02*
X9947Y25363D01*
X9768Y25273D02*
X9873Y25587D01*
X9977Y25273D01*
X10127Y25452D02*
X10097Y25467D01*
X10082Y25482D01*
X10067Y25512D01*
X10067Y25527D01*
X10082Y25557D01*
X10097Y25572D01*
X10127Y25587D01*
X10186Y25587D01*
X10216Y25572D01*
X10231Y25557D01*
X10246Y25527D01*
X10246Y25512D01*
X10231Y25482D01*
X10216Y25467D01*
X10186Y25452D01*
X10127Y25452D01*
X10097Y25437D01*
X10082Y25422D01*
X10067Y25393D01*
X10067Y25333D01*
X10082Y25303D01*
X10097Y25288D01*
X10127Y25273D01*
X10186Y25273D01*
X10216Y25288D01*
X10231Y25303D01*
X10246Y25333D01*
X10246Y25393D01*
X10231Y25422D01*
X10216Y25437D01*
X10186Y25452D01*
G54D22*
X11785Y25254D02*
X11972Y25254D01*
X11747Y25141D02*
X11878Y25534D01*
X12009Y25141D01*
X12103Y25534D02*
X12365Y25534D01*
X12197Y25141D01*
X12795Y25254D02*
X12982Y25254D01*
X12757Y25141D02*
X12888Y25534D01*
X13019Y25141D01*
X13319Y25534D02*
X13244Y25534D01*
X13207Y25516D01*
X13188Y25497D01*
X13151Y25441D01*
X13132Y25366D01*
X13132Y25216D01*
X13151Y25179D01*
X13169Y25160D01*
X13207Y25141D01*
X13282Y25141D01*
X13319Y25160D01*
X13338Y25179D01*
X13356Y25216D01*
X13356Y25310D01*
X13338Y25347D01*
X13319Y25366D01*
X13282Y25385D01*
X13207Y25385D01*
X13169Y25366D01*
X13151Y25347D01*
X13132Y25310D01*
X13805Y25254D02*
X13992Y25254D01*
X13767Y25141D02*
X13898Y25534D01*
X14029Y25141D01*
X14348Y25534D02*
X14161Y25534D01*
X14142Y25347D01*
X14161Y25366D01*
X14198Y25385D01*
X14292Y25385D01*
X14329Y25366D01*
X14348Y25347D01*
X14366Y25310D01*
X14366Y25216D01*
X14348Y25179D01*
X14329Y25160D01*
X14292Y25141D01*
X14198Y25141D01*
X14161Y25160D01*
X14142Y25179D01*
X14815Y25254D02*
X15002Y25254D01*
X14777Y25141D02*
X14908Y25534D01*
X15039Y25141D01*
X15339Y25403D02*
X15339Y25141D01*
X15245Y25553D02*
X15152Y25272D01*
X15395Y25272D01*
X15825Y25254D02*
X16012Y25254D01*
X15787Y25141D02*
X15918Y25534D01*
X16049Y25141D01*
X16143Y25534D02*
X16386Y25534D01*
X16255Y25385D01*
X16312Y25385D01*
X16349Y25366D01*
X16368Y25347D01*
X16386Y25310D01*
X16386Y25216D01*
X16368Y25179D01*
X16349Y25160D01*
X16312Y25141D01*
X16199Y25141D01*
X16162Y25160D01*
X16143Y25179D01*
X16835Y25254D02*
X17022Y25254D01*
X16797Y25141D02*
X16928Y25534D01*
X17059Y25141D01*
X17172Y25497D02*
X17191Y25516D01*
X17228Y25534D01*
X17322Y25534D01*
X17359Y25516D01*
X17378Y25497D01*
X17396Y25460D01*
X17396Y25422D01*
X17378Y25366D01*
X17153Y25141D01*
X17396Y25141D01*
X17845Y25254D02*
X18032Y25254D01*
X17807Y25141D02*
X17938Y25534D01*
X18069Y25141D01*
X18406Y25141D02*
X18182Y25141D01*
X18294Y25141D02*
X18294Y25534D01*
X18257Y25478D01*
X18219Y25441D01*
X18182Y25422D01*
X18855Y25254D02*
X19042Y25254D01*
X18817Y25141D02*
X18948Y25534D01*
X19079Y25141D01*
X19285Y25534D02*
X19323Y25534D01*
X19360Y25516D01*
X19379Y25497D01*
X19398Y25460D01*
X19416Y25385D01*
X19416Y25291D01*
X19398Y25216D01*
X19379Y25179D01*
X19360Y25160D01*
X19323Y25141D01*
X19285Y25141D01*
X19248Y25160D01*
X19229Y25179D01*
X19211Y25216D01*
X19192Y25291D01*
X19192Y25385D01*
X19211Y25460D01*
X19229Y25497D01*
X19248Y25516D01*
X19285Y25534D01*
G54D15*
X1023Y25269D02*
X966Y25297D01*
X880Y25297D01*
X795Y25269D01*
X737Y25211D01*
X709Y25154D01*
X680Y25040D01*
X680Y24954D01*
X709Y24840D01*
X737Y24783D01*
X795Y24726D01*
X880Y24697D01*
X937Y24697D01*
X1023Y24726D01*
X1052Y24754D01*
X1052Y24954D01*
X937Y24954D01*
X1309Y24697D02*
X1309Y25297D01*
X1652Y24697D01*
X1652Y25297D01*
X1938Y24697D02*
X1938Y25297D01*
X2081Y25297D01*
X2166Y25269D01*
X2224Y25211D01*
X2252Y25154D01*
X2281Y25040D01*
X2281Y24954D01*
X2252Y24840D01*
X2224Y24783D01*
X2166Y24726D01*
X2081Y24697D01*
X1938Y24697D01*
X1314Y6657D02*
X1028Y6657D01*
X999Y6371D01*
X1028Y6400D01*
X1085Y6429D01*
X1228Y6429D01*
X1285Y6400D01*
X1314Y6371D01*
X1342Y6314D01*
X1342Y6171D01*
X1314Y6114D01*
X1285Y6086D01*
X1228Y6057D01*
X1085Y6057D01*
X1028Y6086D01*
X999Y6114D01*
X1513Y6657D02*
X1713Y6057D01*
X1913Y6657D01*
G54D14*
X2707Y8037D02*
X2692Y8052D01*
X2677Y8082D01*
X2677Y8156D01*
X2692Y8186D01*
X2707Y8201D01*
X2737Y8216D01*
X2767Y8216D01*
X2812Y8201D01*
X2991Y8022D01*
X2991Y8216D01*
X2707Y8336D02*
X2692Y8351D01*
X2677Y8381D01*
X2677Y8455D01*
X2692Y8485D01*
X2707Y8500D01*
X2737Y8515D01*
X2767Y8515D01*
X2812Y8500D01*
X2991Y8321D01*
X2991Y8515D01*
X2707Y8874D02*
X2692Y8889D01*
X2677Y8919D01*
X2677Y8993D01*
X2692Y9023D01*
X2707Y9038D01*
X2737Y9053D01*
X2767Y9053D01*
X2812Y9038D01*
X2991Y8859D01*
X2991Y9053D01*
X2782Y9322D02*
X2991Y9322D01*
X2662Y9248D02*
X2886Y9173D01*
X2886Y9367D01*
X2707Y9950D02*
X2692Y9965D01*
X2677Y9995D01*
X2677Y10069D01*
X2692Y10099D01*
X2707Y10114D01*
X2737Y10129D01*
X2767Y10129D01*
X2812Y10114D01*
X2991Y9935D01*
X2991Y10129D01*
X2677Y10398D02*
X2677Y10339D01*
X2692Y10309D01*
X2707Y10294D01*
X2752Y10264D01*
X2812Y10249D01*
X2931Y10249D01*
X2961Y10264D01*
X2976Y10279D01*
X2991Y10309D01*
X2991Y10368D01*
X2976Y10398D01*
X2961Y10413D01*
X2931Y10428D01*
X2857Y10428D01*
X2827Y10413D01*
X2812Y10398D01*
X2797Y10368D01*
X2797Y10309D01*
X2812Y10279D01*
X2827Y10264D01*
X2857Y10249D01*
X2707Y11026D02*
X2692Y11041D01*
X2677Y11071D01*
X2677Y11145D01*
X2692Y11175D01*
X2707Y11190D01*
X2737Y11205D01*
X2767Y11205D01*
X2812Y11190D01*
X2991Y11011D01*
X2991Y11205D01*
X2812Y11385D02*
X2797Y11355D01*
X2782Y11340D01*
X2752Y11325D01*
X2737Y11325D01*
X2707Y11340D01*
X2692Y11355D01*
X2677Y11385D01*
X2677Y11444D01*
X2692Y11474D01*
X2707Y11489D01*
X2737Y11504D01*
X2752Y11504D01*
X2782Y11489D01*
X2797Y11474D01*
X2812Y11444D01*
X2812Y11385D01*
X2827Y11355D01*
X2842Y11340D01*
X2871Y11325D01*
X2931Y11325D01*
X2961Y11340D01*
X2976Y11355D01*
X2991Y11385D01*
X2991Y11444D01*
X2976Y11474D01*
X2961Y11489D01*
X2931Y11504D01*
X2871Y11504D01*
X2842Y11489D01*
X2827Y11474D01*
X2812Y11444D01*
X2677Y11848D02*
X2677Y12042D01*
X2797Y11938D01*
X2797Y11982D01*
X2812Y12012D01*
X2827Y12027D01*
X2857Y12042D01*
X2931Y12042D01*
X2961Y12027D01*
X2976Y12012D01*
X2991Y11982D01*
X2991Y11893D01*
X2976Y11863D01*
X2961Y11848D01*
X2677Y12237D02*
X2677Y12266D01*
X2692Y12296D01*
X2707Y12311D01*
X2737Y12326D01*
X2797Y12341D01*
X2871Y12341D01*
X2931Y12326D01*
X2961Y12311D01*
X2976Y12296D01*
X2991Y12266D01*
X2991Y12237D01*
X2976Y12207D01*
X2961Y12192D01*
X2931Y12177D01*
X2871Y12162D01*
X2797Y12162D01*
X2737Y12177D01*
X2707Y12192D01*
X2692Y12207D01*
X2677Y12237D01*
X2677Y12924D02*
X2677Y13118D01*
X2797Y13014D01*
X2797Y13058D01*
X2812Y13088D01*
X2827Y13103D01*
X2857Y13118D01*
X2931Y13118D01*
X2961Y13103D01*
X2976Y13088D01*
X2991Y13058D01*
X2991Y12969D01*
X2976Y12939D01*
X2961Y12924D01*
X2707Y13238D02*
X2692Y13253D01*
X2677Y13283D01*
X2677Y13357D01*
X2692Y13387D01*
X2707Y13402D01*
X2737Y13417D01*
X2767Y13417D01*
X2812Y13402D01*
X2991Y13223D01*
X2991Y13417D01*
X2677Y14000D02*
X2677Y14194D01*
X2797Y14090D01*
X2797Y14134D01*
X2812Y14164D01*
X2827Y14179D01*
X2857Y14194D01*
X2931Y14194D01*
X2961Y14179D01*
X2976Y14164D01*
X2991Y14134D01*
X2991Y14045D01*
X2976Y14015D01*
X2961Y14000D01*
X2782Y14463D02*
X2991Y14463D01*
X2662Y14389D02*
X2886Y14314D01*
X2886Y14508D01*
X2677Y14837D02*
X2677Y15031D01*
X2797Y14927D01*
X2797Y14971D01*
X2812Y15001D01*
X2827Y15016D01*
X2857Y15031D01*
X2931Y15031D01*
X2961Y15016D01*
X2976Y15001D01*
X2991Y14971D01*
X2991Y14882D01*
X2976Y14852D01*
X2961Y14837D01*
X2677Y15300D02*
X2677Y15241D01*
X2692Y15211D01*
X2707Y15196D01*
X2752Y15166D01*
X2812Y15151D01*
X2931Y15151D01*
X2961Y15166D01*
X2976Y15181D01*
X2991Y15211D01*
X2991Y15270D01*
X2976Y15300D01*
X2961Y15315D01*
X2931Y15330D01*
X2857Y15330D01*
X2827Y15315D01*
X2812Y15300D01*
X2797Y15270D01*
X2797Y15211D01*
X2812Y15181D01*
X2827Y15166D01*
X2857Y15151D01*
X2677Y15913D02*
X2677Y16107D01*
X2797Y16003D01*
X2797Y16047D01*
X2812Y16077D01*
X2827Y16092D01*
X2857Y16107D01*
X2931Y16107D01*
X2961Y16092D01*
X2976Y16077D01*
X2991Y16047D01*
X2991Y15958D01*
X2976Y15928D01*
X2961Y15913D01*
X2812Y16287D02*
X2797Y16257D01*
X2782Y16242D01*
X2752Y16227D01*
X2737Y16227D01*
X2707Y16242D01*
X2692Y16257D01*
X2677Y16287D01*
X2677Y16346D01*
X2692Y16376D01*
X2707Y16391D01*
X2737Y16406D01*
X2752Y16406D01*
X2782Y16391D01*
X2797Y16376D01*
X2812Y16346D01*
X2812Y16287D01*
X2827Y16257D01*
X2842Y16242D01*
X2871Y16227D01*
X2931Y16227D01*
X2961Y16242D01*
X2976Y16257D01*
X2991Y16287D01*
X2991Y16346D01*
X2976Y16376D01*
X2961Y16391D01*
X2931Y16406D01*
X2871Y16406D01*
X2842Y16391D01*
X2827Y16376D01*
X2812Y16346D01*
X2782Y17153D02*
X2991Y17153D01*
X2662Y17079D02*
X2886Y17004D01*
X2886Y17198D01*
X2677Y17378D02*
X2677Y17407D01*
X2692Y17437D01*
X2707Y17452D01*
X2737Y17467D01*
X2797Y17482D01*
X2871Y17482D01*
X2931Y17467D01*
X2961Y17452D01*
X2976Y17437D01*
X2991Y17407D01*
X2991Y17378D01*
X2976Y17348D01*
X2961Y17333D01*
X2931Y17318D01*
X2871Y17303D01*
X2797Y17303D01*
X2737Y17318D01*
X2707Y17333D01*
X2692Y17348D01*
X2677Y17378D01*
X2782Y17990D02*
X2991Y17990D01*
X2662Y17916D02*
X2886Y17841D01*
X2886Y18035D01*
X2707Y18140D02*
X2692Y18155D01*
X2677Y18185D01*
X2677Y18259D01*
X2692Y18289D01*
X2707Y18304D01*
X2737Y18319D01*
X2767Y18319D01*
X2812Y18304D01*
X2991Y18125D01*
X2991Y18319D01*
X2782Y19066D02*
X2991Y19066D01*
X2662Y18992D02*
X2886Y18917D01*
X2886Y19111D01*
X2782Y19365D02*
X2991Y19365D01*
X2662Y19291D02*
X2886Y19216D01*
X2886Y19410D01*
X2782Y20142D02*
X2991Y20142D01*
X2662Y20068D02*
X2886Y19993D01*
X2886Y20187D01*
X2677Y20441D02*
X2677Y20382D01*
X2692Y20352D01*
X2707Y20337D01*
X2752Y20307D01*
X2812Y20292D01*
X2931Y20292D01*
X2961Y20307D01*
X2976Y20322D01*
X2991Y20352D01*
X2991Y20411D01*
X2976Y20441D01*
X2961Y20456D01*
X2931Y20471D01*
X2857Y20471D01*
X2827Y20456D01*
X2812Y20441D01*
X2797Y20411D01*
X2797Y20352D01*
X2812Y20322D01*
X2827Y20307D01*
X2857Y20292D01*
X2782Y21218D02*
X2991Y21218D01*
X2662Y21144D02*
X2886Y21069D01*
X2886Y21263D01*
X2812Y21428D02*
X2797Y21398D01*
X2782Y21383D01*
X2752Y21368D01*
X2737Y21368D01*
X2707Y21383D01*
X2692Y21398D01*
X2677Y21428D01*
X2677Y21487D01*
X2692Y21517D01*
X2707Y21532D01*
X2737Y21547D01*
X2752Y21547D01*
X2782Y21532D01*
X2797Y21517D01*
X2812Y21487D01*
X2812Y21428D01*
X2827Y21398D01*
X2842Y21383D01*
X2871Y21368D01*
X2931Y21368D01*
X2961Y21383D01*
X2976Y21398D01*
X2991Y21428D01*
X2991Y21487D01*
X2976Y21517D01*
X2961Y21532D01*
X2931Y21547D01*
X2871Y21547D01*
X2842Y21532D01*
X2827Y21517D01*
X2812Y21487D01*
X2677Y22309D02*
X2677Y22160D01*
X2827Y22145D01*
X2812Y22160D01*
X2797Y22190D01*
X2797Y22264D01*
X2812Y22294D01*
X2827Y22309D01*
X2857Y22324D01*
X2931Y22324D01*
X2961Y22309D01*
X2976Y22294D01*
X2991Y22264D01*
X2991Y22190D01*
X2976Y22160D01*
X2961Y22145D01*
X2677Y22519D02*
X2677Y22548D01*
X2692Y22578D01*
X2707Y22593D01*
X2737Y22608D01*
X2797Y22623D01*
X2871Y22623D01*
X2931Y22608D01*
X2961Y22593D01*
X2976Y22578D01*
X2991Y22548D01*
X2991Y22519D01*
X2976Y22489D01*
X2961Y22474D01*
X2931Y22459D01*
X2871Y22444D01*
X2797Y22444D01*
X2737Y22459D01*
X2707Y22474D01*
X2692Y22489D01*
X2677Y22519D01*
X2677Y23146D02*
X2677Y22997D01*
X2827Y22982D01*
X2812Y22997D01*
X2797Y23027D01*
X2797Y23101D01*
X2812Y23131D01*
X2827Y23146D01*
X2857Y23161D01*
X2931Y23161D01*
X2961Y23146D01*
X2976Y23131D01*
X2991Y23101D01*
X2991Y23027D01*
X2976Y22997D01*
X2961Y22982D01*
X2707Y23281D02*
X2692Y23296D01*
X2677Y23326D01*
X2677Y23400D01*
X2692Y23430D01*
X2707Y23445D01*
X2737Y23460D01*
X2767Y23460D01*
X2812Y23445D01*
X2991Y23266D01*
X2991Y23460D01*
X4732Y8139D02*
X4747Y8154D01*
X4777Y8169D01*
X4851Y8169D01*
X4881Y8154D01*
X4896Y8139D01*
X4911Y8109D01*
X4911Y8079D01*
X4896Y8034D01*
X4717Y7855D01*
X4911Y7855D01*
X5210Y7855D02*
X5031Y7855D01*
X5121Y7855D02*
X5121Y8169D01*
X5091Y8124D01*
X5061Y8094D01*
X5031Y8079D01*
X5569Y8139D02*
X5584Y8154D01*
X5614Y8169D01*
X5688Y8169D01*
X5718Y8154D01*
X5733Y8139D01*
X5748Y8109D01*
X5748Y8079D01*
X5733Y8034D01*
X5554Y7855D01*
X5748Y7855D01*
X5943Y8169D02*
X5972Y8169D01*
X6002Y8154D01*
X6017Y8139D01*
X6032Y8109D01*
X6047Y8049D01*
X6047Y7975D01*
X6032Y7915D01*
X6017Y7885D01*
X6002Y7870D01*
X5972Y7855D01*
X5943Y7855D01*
X5913Y7870D01*
X5898Y7885D01*
X5883Y7915D01*
X5868Y7975D01*
X5868Y8049D01*
X5883Y8109D01*
X5898Y8139D01*
X5913Y8154D01*
X5943Y8169D01*
X6600Y7855D02*
X6496Y8004D01*
X6421Y7855D02*
X6421Y8169D01*
X6540Y8169D01*
X6570Y8154D01*
X6585Y8139D01*
X6600Y8109D01*
X6600Y8064D01*
X6585Y8034D01*
X6570Y8019D01*
X6540Y8004D01*
X6421Y8004D01*
X6705Y8169D02*
X6914Y7855D01*
X6914Y8169D02*
X6705Y7855D01*
X7198Y7855D02*
X7019Y7855D01*
X7109Y7855D02*
X7109Y8169D01*
X7079Y8124D01*
X7049Y8094D01*
X7019Y8079D01*
X7527Y8169D02*
X7706Y8169D01*
X7617Y7855D02*
X7617Y8169D01*
X7781Y8169D02*
X7990Y7855D01*
X7990Y8169D02*
X7781Y7855D01*
X8274Y7855D02*
X8095Y7855D01*
X8185Y7855D02*
X8185Y8169D01*
X8155Y8124D01*
X8125Y8094D01*
X8095Y8079D01*
X8827Y7855D02*
X8723Y8004D01*
X8648Y7855D02*
X8648Y8169D01*
X8767Y8169D01*
X8797Y8154D01*
X8812Y8139D01*
X8827Y8109D01*
X8827Y8064D01*
X8812Y8034D01*
X8797Y8019D01*
X8767Y8004D01*
X8648Y8004D01*
X8932Y8169D02*
X9141Y7855D01*
X9141Y8169D02*
X8932Y7855D01*
X9246Y8139D02*
X9261Y8154D01*
X9291Y8169D01*
X9365Y8169D01*
X9395Y8154D01*
X9410Y8139D01*
X9425Y8109D01*
X9425Y8079D01*
X9410Y8034D01*
X9231Y7855D01*
X9425Y7855D01*
X9754Y8169D02*
X9933Y8169D01*
X9844Y7855D02*
X9844Y8169D01*
X10008Y8169D02*
X10217Y7855D01*
X10217Y8169D02*
X10008Y7855D01*
X10322Y8139D02*
X10337Y8154D01*
X10367Y8169D01*
X10441Y8169D01*
X10471Y8154D01*
X10486Y8139D01*
X10501Y8109D01*
X10501Y8079D01*
X10486Y8034D01*
X10307Y7855D01*
X10501Y7855D01*
X11054Y7855D02*
X10950Y8004D01*
X10875Y7855D02*
X10875Y8169D01*
X10994Y8169D01*
X11024Y8154D01*
X11039Y8139D01*
X11054Y8109D01*
X11054Y8064D01*
X11039Y8034D01*
X11024Y8019D01*
X10994Y8004D01*
X10875Y8004D01*
X11159Y8169D02*
X11368Y7855D01*
X11368Y8169D02*
X11159Y7855D01*
X11458Y8169D02*
X11652Y8169D01*
X11548Y8049D01*
X11592Y8049D01*
X11622Y8034D01*
X11637Y8019D01*
X11652Y7989D01*
X11652Y7915D01*
X11637Y7885D01*
X11622Y7870D01*
X11592Y7855D01*
X11503Y7855D01*
X11473Y7870D01*
X11458Y7885D01*
X11981Y8169D02*
X12160Y8169D01*
X12071Y7855D02*
X12071Y8169D01*
X12235Y8169D02*
X12444Y7855D01*
X12444Y8169D02*
X12235Y7855D01*
X12534Y8169D02*
X12728Y8169D01*
X12624Y8049D01*
X12668Y8049D01*
X12698Y8034D01*
X12713Y8019D01*
X12728Y7989D01*
X12728Y7915D01*
X12713Y7885D01*
X12698Y7870D01*
X12668Y7855D01*
X12579Y7855D01*
X12549Y7870D01*
X12534Y7885D01*
X13429Y7843D02*
X13299Y8030D01*
X13205Y7843D02*
X13205Y8235D01*
X13355Y8235D01*
X13392Y8217D01*
X13411Y8198D01*
X13429Y8161D01*
X13429Y8105D01*
X13411Y8067D01*
X13392Y8049D01*
X13355Y8030D01*
X13205Y8030D01*
X13560Y8235D02*
X13821Y7843D01*
X13821Y8235D02*
X13560Y7843D01*
X14045Y8235D02*
X14082Y8235D01*
X14120Y8217D01*
X14138Y8198D01*
X14157Y8161D01*
X14176Y8086D01*
X14176Y7993D01*
X14157Y7918D01*
X14138Y7881D01*
X14120Y7862D01*
X14082Y7843D01*
X14045Y7843D01*
X14008Y7862D01*
X13989Y7881D01*
X13970Y7918D01*
X13952Y7993D01*
X13952Y8086D01*
X13970Y8161D01*
X13989Y8198D01*
X14008Y8217D01*
X14045Y8235D01*
X14586Y8235D02*
X14810Y8235D01*
X14698Y7843D02*
X14698Y8235D01*
X14904Y8235D02*
X15165Y7843D01*
X15165Y8235D02*
X14904Y7843D01*
X15389Y8235D02*
X15426Y8235D01*
X15464Y8217D01*
X15482Y8198D01*
X15501Y8161D01*
X15520Y8086D01*
X15520Y7993D01*
X15501Y7918D01*
X15482Y7881D01*
X15464Y7862D01*
X15426Y7843D01*
X15389Y7843D01*
X15352Y7862D01*
X15333Y7881D01*
X15314Y7918D01*
X15296Y7993D01*
X15296Y8086D01*
X15314Y8161D01*
X15333Y8198D01*
X15352Y8217D01*
X15389Y8235D01*
X15968Y8198D02*
X15986Y8217D01*
X16024Y8235D01*
X16117Y8235D01*
X16154Y8217D01*
X16173Y8198D01*
X16192Y8161D01*
X16192Y8123D01*
X16173Y8067D01*
X15949Y7843D01*
X16192Y7843D01*
X16920Y8235D02*
X17163Y8235D01*
X17032Y8086D01*
X17088Y8086D01*
X17125Y8067D01*
X17144Y8049D01*
X17163Y8011D01*
X17163Y7918D01*
X17144Y7881D01*
X17125Y7862D01*
X17088Y7843D01*
X16976Y7843D01*
X16939Y7862D01*
X16920Y7881D01*
X18096Y8105D02*
X18096Y7843D01*
X18003Y8254D02*
X17910Y7974D01*
X18152Y7974D01*
X19086Y8235D02*
X18899Y8235D01*
X18881Y8049D01*
X18899Y8067D01*
X18937Y8086D01*
X19030Y8086D01*
X19067Y8067D01*
X19086Y8049D01*
X19105Y8011D01*
X19105Y7918D01*
X19086Y7881D01*
X19067Y7862D01*
X19030Y7843D01*
X18937Y7843D01*
X18899Y7862D01*
X18881Y7881D01*
X20038Y8235D02*
X19964Y8235D01*
X19926Y8217D01*
X19908Y8198D01*
X19870Y8142D01*
X19852Y8067D01*
X19852Y7918D01*
X19870Y7881D01*
X19889Y7862D01*
X19926Y7843D01*
X20001Y7843D01*
X20038Y7862D01*
X20057Y7881D01*
X20076Y7918D01*
X20076Y8011D01*
X20057Y8049D01*
X20038Y8067D01*
X20001Y8086D01*
X19926Y8086D01*
X19889Y8067D01*
X19870Y8049D01*
X19852Y8011D01*
X20804Y8235D02*
X21065Y8235D01*
X20897Y7843D01*
X22432Y7999D02*
X22395Y8018D01*
X22376Y8037D01*
X22358Y8074D01*
X22358Y8093D01*
X22376Y8130D01*
X22395Y8149D01*
X22432Y8167D01*
X22507Y8167D01*
X22544Y8149D01*
X22563Y8130D01*
X22582Y8093D01*
X22582Y8074D01*
X22563Y8037D01*
X22544Y8018D01*
X22507Y7999D01*
X22432Y7999D01*
X22395Y7981D01*
X22376Y7962D01*
X22358Y7925D01*
X22358Y7850D01*
X22376Y7813D01*
X22395Y7794D01*
X22432Y7775D01*
X22507Y7775D01*
X22544Y7794D01*
X22563Y7813D01*
X22582Y7850D01*
X22582Y7925D01*
X22563Y7962D01*
X22544Y7981D01*
X22507Y7999D01*
X23366Y7775D02*
X23441Y7775D01*
X23478Y7794D01*
X23497Y7813D01*
X23534Y7869D01*
X23553Y7943D01*
X23553Y8093D01*
X23534Y8130D01*
X23515Y8149D01*
X23478Y8167D01*
X23403Y8167D01*
X23366Y8149D01*
X23347Y8130D01*
X23329Y8093D01*
X23329Y7999D01*
X23347Y7962D01*
X23366Y7943D01*
X23403Y7925D01*
X23478Y7925D01*
X23515Y7943D01*
X23534Y7962D01*
X23553Y7999D01*
X24524Y7775D02*
X24300Y7775D01*
X24412Y7775D02*
X24412Y8167D01*
X24374Y8111D01*
X24337Y8074D01*
X24300Y8055D01*
X24766Y8167D02*
X24803Y8167D01*
X24841Y8149D01*
X24859Y8130D01*
X24878Y8093D01*
X24897Y8018D01*
X24897Y7925D01*
X24878Y7850D01*
X24859Y7813D01*
X24841Y7794D01*
X24803Y7775D01*
X24766Y7775D01*
X24729Y7794D01*
X24710Y7813D01*
X24691Y7850D01*
X24673Y7925D01*
X24673Y8018D01*
X24691Y8093D01*
X24710Y8130D01*
X24729Y8149D01*
X24766Y8167D01*
X25569Y7775D02*
X25345Y7775D01*
X25457Y7775D02*
X25457Y8167D01*
X25419Y8111D01*
X25382Y8074D01*
X25345Y8055D01*
X25942Y7775D02*
X25718Y7775D01*
X25830Y7775D02*
X25830Y8167D01*
X25792Y8111D01*
X25755Y8074D01*
X25718Y8055D01*
X26614Y7775D02*
X26390Y7775D01*
X26502Y7775D02*
X26502Y8167D01*
X26464Y8111D01*
X26427Y8074D01*
X26390Y8055D01*
X26763Y8130D02*
X26781Y8149D01*
X26819Y8167D01*
X26912Y8167D01*
X26949Y8149D01*
X26968Y8130D01*
X26987Y8093D01*
X26987Y8055D01*
X26968Y7999D01*
X26744Y7775D01*
X26987Y7775D01*
X27659Y7775D02*
X27435Y7775D01*
X27547Y7775D02*
X27547Y8167D01*
X27509Y8111D01*
X27472Y8074D01*
X27435Y8055D01*
X27789Y8167D02*
X28032Y8167D01*
X27901Y8018D01*
X27957Y8018D01*
X27994Y7999D01*
X28013Y7981D01*
X28032Y7943D01*
X28032Y7850D01*
X28013Y7813D01*
X27994Y7794D01*
X27957Y7775D01*
X27845Y7775D01*
X27808Y7794D01*
X27789Y7813D01*
X28666Y8037D02*
X28666Y7719D01*
X28648Y7682D01*
X28629Y7663D01*
X28592Y7645D01*
X28536Y7645D01*
X28498Y7663D01*
X28666Y7794D02*
X28629Y7775D01*
X28554Y7775D01*
X28517Y7794D01*
X28498Y7813D01*
X28480Y7850D01*
X28480Y7962D01*
X28498Y7999D01*
X28517Y8018D01*
X28554Y8037D01*
X28629Y8037D01*
X28666Y8018D01*
X28853Y8037D02*
X28853Y7775D01*
X28853Y7999D02*
X28872Y8018D01*
X28909Y8037D01*
X28965Y8037D01*
X29003Y8018D01*
X29021Y7981D01*
X29021Y7775D01*
X29376Y7775D02*
X29376Y8167D01*
X29376Y7794D02*
X29339Y7775D01*
X29264Y7775D01*
X29227Y7794D01*
X29208Y7813D01*
X29190Y7850D01*
X29190Y7962D01*
X29208Y7999D01*
X29227Y8018D01*
X29264Y8037D01*
X29339Y8037D01*
X29376Y8018D01*
X29844Y7887D02*
X30030Y7887D01*
X29806Y7775D02*
X29937Y8167D01*
X30068Y7775D01*
X30198Y7775D02*
X30198Y8037D01*
X30198Y7962D02*
X30217Y7999D01*
X30236Y8018D01*
X30273Y8037D01*
X30310Y8037D01*
X30591Y7794D02*
X30553Y7775D01*
X30479Y7775D01*
X30441Y7794D01*
X30423Y7831D01*
X30423Y7981D01*
X30441Y8018D01*
X30479Y8037D01*
X30553Y8037D01*
X30591Y8018D01*
X30609Y7981D01*
X30609Y7943D01*
X30423Y7906D01*
X30721Y8037D02*
X30871Y8037D01*
X30777Y7775D02*
X30777Y8111D01*
X30796Y8149D01*
X30833Y8167D01*
X30871Y8167D01*
G54D10*
X21073Y168D02*
X21073Y299D01*
X21279Y355D02*
X21279Y168D01*
X20886Y168D01*
X20886Y355D01*
X21279Y486D02*
X21017Y692D01*
X21017Y486D02*
X21279Y692D01*
X21017Y785D02*
X21017Y935D01*
X20886Y842D02*
X21222Y842D01*
X21260Y860D01*
X21279Y898D01*
X21279Y935D01*
X21073Y1497D02*
X21091Y1553D01*
X21110Y1571D01*
X21148Y1590D01*
X21204Y1590D01*
X21241Y1571D01*
X21260Y1553D01*
X21279Y1515D01*
X21279Y1366D01*
X20886Y1366D01*
X20886Y1497D01*
X20904Y1534D01*
X20923Y1553D01*
X20960Y1571D01*
X20998Y1571D01*
X21035Y1553D01*
X21054Y1534D01*
X21073Y1497D01*
X21073Y1366D01*
X21279Y1927D02*
X21073Y1927D01*
X21035Y1908D01*
X21017Y1871D01*
X21017Y1796D01*
X21035Y1759D01*
X21260Y1927D02*
X21279Y1890D01*
X21279Y1796D01*
X21260Y1759D01*
X21222Y1740D01*
X21185Y1740D01*
X21148Y1759D01*
X21129Y1796D01*
X21129Y1890D01*
X21110Y1927D01*
X21017Y2058D02*
X21017Y2208D01*
X20886Y2115D02*
X21222Y2115D01*
X21260Y2133D01*
X21279Y2171D01*
X21279Y2208D01*
X24251Y391D02*
X24550Y391D01*
X24400Y241D02*
X24400Y541D01*
G54D17*
X28378Y12148D02*
X28378Y11905D01*
X28393Y11876D01*
X28407Y11862D01*
X28436Y11848D01*
X28493Y11848D01*
X28521Y11862D01*
X28536Y11876D01*
X28550Y11905D01*
X28550Y12148D01*
X28850Y11848D02*
X28678Y11848D01*
X28764Y11848D02*
X28764Y12148D01*
X28735Y12105D01*
X28707Y12076D01*
X28678Y12062D01*
G54D10*
X3526Y734D02*
X3339Y734D01*
X3320Y547D01*
X3339Y566D01*
X3376Y585D01*
X3470Y585D01*
X3507Y566D01*
X3526Y547D01*
X3544Y510D01*
X3544Y416D01*
X3526Y379D01*
X3507Y360D01*
X3470Y341D01*
X3376Y341D01*
X3339Y360D01*
X3320Y379D01*
X3656Y734D02*
X3787Y341D01*
X3918Y734D01*
X3065Y1492D02*
X3335Y1492D01*
X3200Y1357D02*
X3200Y1626D01*
X25178Y5573D02*
X25074Y5722D01*
X24999Y5573D02*
X24999Y5887D01*
X25118Y5887D01*
X25148Y5872D01*
X25163Y5857D01*
X25178Y5827D01*
X25178Y5782D01*
X25163Y5752D01*
X25148Y5737D01*
X25118Y5722D01*
X24999Y5722D01*
X25432Y5588D02*
X25402Y5573D01*
X25343Y5573D01*
X25313Y5588D01*
X25298Y5618D01*
X25298Y5737D01*
X25313Y5767D01*
X25343Y5782D01*
X25402Y5782D01*
X25432Y5767D01*
X25447Y5737D01*
X25447Y5707D01*
X25298Y5678D01*
X25716Y5782D02*
X25716Y5528D01*
X25701Y5498D01*
X25686Y5483D01*
X25657Y5468D01*
X25612Y5468D01*
X25582Y5483D01*
X25716Y5588D02*
X25686Y5573D01*
X25627Y5573D01*
X25597Y5588D01*
X25582Y5603D01*
X25567Y5633D01*
X25567Y5722D01*
X25582Y5752D01*
X25597Y5767D01*
X25627Y5782D01*
X25686Y5782D01*
X25716Y5767D01*
X26344Y5573D02*
X26344Y5887D01*
X26463Y5887D01*
X26493Y5872D01*
X26508Y5857D01*
X26523Y5827D01*
X26523Y5782D01*
X26508Y5752D01*
X26493Y5737D01*
X26463Y5722D01*
X26344Y5722D01*
X26628Y5887D02*
X26703Y5573D01*
X26762Y5797D01*
X26822Y5573D01*
X26897Y5887D01*
X27196Y5573D02*
X27092Y5722D01*
X27017Y5573D02*
X27017Y5887D01*
X27136Y5887D01*
X27166Y5872D01*
X27181Y5857D01*
X27196Y5827D01*
X27196Y5782D01*
X27181Y5752D01*
X27166Y5737D01*
X27136Y5722D01*
X27017Y5722D01*
X27809Y5887D02*
X27809Y5633D01*
X27824Y5603D01*
X27839Y5588D01*
X27869Y5573D01*
X27928Y5573D01*
X27958Y5588D01*
X27973Y5603D01*
X27988Y5633D01*
X27988Y5887D01*
X28123Y5588D02*
X28168Y5573D01*
X28242Y5573D01*
X28272Y5588D01*
X28287Y5603D01*
X28302Y5633D01*
X28302Y5663D01*
X28287Y5693D01*
X28272Y5707D01*
X28242Y5722D01*
X28183Y5737D01*
X28153Y5752D01*
X28138Y5767D01*
X28123Y5797D01*
X28123Y5827D01*
X28138Y5857D01*
X28153Y5872D01*
X28183Y5887D01*
X28257Y5887D01*
X28302Y5872D01*
X28541Y5737D02*
X28586Y5722D01*
X28601Y5707D01*
X28616Y5678D01*
X28616Y5633D01*
X28601Y5603D01*
X28586Y5588D01*
X28556Y5573D01*
X28437Y5573D01*
X28437Y5887D01*
X28541Y5887D01*
X28571Y5872D01*
X28586Y5857D01*
X28601Y5827D01*
X28601Y5797D01*
X28586Y5767D01*
X28571Y5752D01*
X28541Y5737D01*
X28437Y5737D01*
X25161Y4065D02*
X25043Y4065D01*
X25043Y3880D02*
X25043Y4234D01*
X25212Y4234D01*
X25296Y4234D02*
X25498Y4234D01*
X25397Y3880D02*
X25397Y4234D01*
X25616Y3880D02*
X25616Y4234D01*
X25701Y4234D01*
X25751Y4217D01*
X25785Y4183D01*
X25802Y4149D01*
X25819Y4082D01*
X25819Y4031D01*
X25802Y3964D01*
X25785Y3930D01*
X25751Y3897D01*
X25701Y3880D01*
X25616Y3880D01*
X25970Y3880D02*
X25970Y4234D01*
X26409Y3880D02*
X26409Y4234D01*
X26544Y4234D01*
X26578Y4217D01*
X26595Y4200D01*
X26612Y4166D01*
X26612Y4116D01*
X26595Y4082D01*
X26578Y4065D01*
X26544Y4048D01*
X26409Y4048D01*
X26730Y4234D02*
X26814Y3880D01*
X26881Y4133D01*
X26949Y3880D01*
X27033Y4234D01*
X27371Y3880D02*
X27253Y4048D01*
X27168Y3880D02*
X27168Y4234D01*
X27303Y4234D01*
X27337Y4217D01*
X27354Y4200D01*
X27371Y4166D01*
X27371Y4116D01*
X27354Y4082D01*
X27337Y4065D01*
X27303Y4048D01*
X27168Y4048D01*
X27775Y3897D02*
X27826Y3880D01*
X27910Y3880D01*
X27944Y3897D01*
X27961Y3913D01*
X27978Y3947D01*
X27978Y3981D01*
X27961Y4015D01*
X27944Y4031D01*
X27910Y4048D01*
X27843Y4065D01*
X27809Y4082D01*
X27792Y4099D01*
X27775Y4133D01*
X27775Y4166D01*
X27792Y4200D01*
X27809Y4217D01*
X27843Y4234D01*
X27927Y4234D01*
X27978Y4217D01*
X28264Y3897D02*
X28230Y3880D01*
X28163Y3880D01*
X28129Y3897D01*
X28112Y3930D01*
X28112Y4065D01*
X28129Y4099D01*
X28163Y4116D01*
X28230Y4116D01*
X28264Y4099D01*
X28281Y4065D01*
X28281Y4031D01*
X28112Y3998D01*
X28483Y3880D02*
X28449Y3897D01*
X28432Y3930D01*
X28432Y4234D01*
X28617Y3913D02*
X28634Y3897D01*
X28617Y3880D01*
X28600Y3897D01*
X28617Y3913D01*
X28617Y3880D01*
X25944Y843D02*
X26001Y824D01*
X26020Y805D01*
X26039Y766D01*
X26039Y709D01*
X26020Y671D01*
X26001Y652D01*
X25963Y633D01*
X25810Y633D01*
X25810Y1033D01*
X25944Y1033D01*
X25982Y1014D01*
X26001Y995D01*
X26020Y957D01*
X26020Y919D01*
X26001Y881D01*
X25982Y862D01*
X25944Y843D01*
X25810Y843D01*
X26382Y633D02*
X26382Y843D01*
X26363Y881D01*
X26325Y900D01*
X26248Y900D01*
X26210Y881D01*
X26382Y652D02*
X26344Y633D01*
X26248Y633D01*
X26210Y652D01*
X26191Y690D01*
X26191Y728D01*
X26210Y766D01*
X26248Y785D01*
X26344Y785D01*
X26382Y805D01*
X26515Y900D02*
X26667Y900D01*
X26572Y1033D02*
X26572Y690D01*
X26591Y652D01*
X26629Y633D01*
X26667Y633D01*
X27087Y652D02*
X27144Y633D01*
X27240Y633D01*
X27278Y652D01*
X27297Y671D01*
X27316Y709D01*
X27316Y747D01*
X27297Y785D01*
X27278Y805D01*
X27240Y824D01*
X27163Y843D01*
X27125Y862D01*
X27106Y881D01*
X27087Y919D01*
X27087Y957D01*
X27106Y995D01*
X27125Y1014D01*
X27163Y1033D01*
X27259Y1033D01*
X27316Y1014D01*
X27640Y652D02*
X27602Y633D01*
X27525Y633D01*
X27487Y652D01*
X27468Y690D01*
X27468Y843D01*
X27487Y881D01*
X27525Y900D01*
X27602Y900D01*
X27640Y881D01*
X27659Y843D01*
X27659Y805D01*
X27468Y766D01*
X27887Y633D02*
X27849Y652D01*
X27830Y690D01*
X27830Y1033D01*
X24583Y2591D02*
X24701Y2591D01*
X24752Y2406D02*
X24583Y2406D01*
X24583Y2760D01*
X24752Y2760D01*
X24870Y2406D02*
X25055Y2642D01*
X24870Y2642D02*
X25055Y2406D01*
X25140Y2642D02*
X25275Y2642D01*
X25190Y2760D02*
X25190Y2456D01*
X25207Y2423D01*
X25241Y2406D01*
X25275Y2406D01*
X25780Y2591D02*
X25831Y2574D01*
X25848Y2557D01*
X25865Y2524D01*
X25865Y2473D01*
X25848Y2439D01*
X25831Y2423D01*
X25797Y2406D01*
X25662Y2406D01*
X25662Y2760D01*
X25780Y2760D01*
X25814Y2743D01*
X25831Y2726D01*
X25848Y2692D01*
X25848Y2659D01*
X25831Y2625D01*
X25814Y2608D01*
X25780Y2591D01*
X25662Y2591D01*
X26168Y2406D02*
X26168Y2591D01*
X26151Y2625D01*
X26117Y2642D01*
X26050Y2642D01*
X26016Y2625D01*
X26168Y2423D02*
X26134Y2406D01*
X26050Y2406D01*
X26016Y2423D01*
X25999Y2456D01*
X25999Y2490D01*
X26016Y2524D01*
X26050Y2541D01*
X26134Y2541D01*
X26168Y2557D01*
X26286Y2642D02*
X26421Y2642D01*
X26336Y2760D02*
X26336Y2456D01*
X26353Y2423D01*
X26387Y2406D01*
X26421Y2406D01*
X27348Y2406D02*
X27348Y2760D01*
X27517Y2642D02*
X27517Y2406D01*
X27517Y2608D02*
X27534Y2625D01*
X27568Y2642D01*
X27618Y2642D01*
X27652Y2625D01*
X27669Y2591D01*
X27669Y2406D01*
X27787Y2642D02*
X27922Y2642D01*
X27837Y2760D02*
X27837Y2456D01*
X27854Y2423D01*
X27888Y2406D01*
X27922Y2406D01*
X28427Y2591D02*
X28478Y2574D01*
X28495Y2557D01*
X28512Y2524D01*
X28512Y2473D01*
X28495Y2439D01*
X28478Y2423D01*
X28444Y2406D01*
X28309Y2406D01*
X28309Y2760D01*
X28427Y2760D01*
X28461Y2743D01*
X28478Y2726D01*
X28495Y2692D01*
X28495Y2659D01*
X28478Y2625D01*
X28461Y2608D01*
X28427Y2591D01*
X28309Y2591D01*
X28815Y2406D02*
X28815Y2591D01*
X28798Y2625D01*
X28764Y2642D01*
X28697Y2642D01*
X28663Y2625D01*
X28815Y2423D02*
X28781Y2406D01*
X28697Y2406D01*
X28663Y2423D01*
X28646Y2456D01*
X28646Y2490D01*
X28663Y2524D01*
X28697Y2541D01*
X28781Y2541D01*
X28815Y2557D01*
X28933Y2642D02*
X29068Y2642D01*
X28983Y2760D02*
X28983Y2456D01*
X29000Y2423D01*
X29034Y2406D01*
X29068Y2406D01*
G54D17*
X5073Y6534D02*
X5061Y6522D01*
X5026Y6510D01*
X5002Y6510D01*
X4966Y6522D01*
X4942Y6546D01*
X4931Y6569D01*
X4919Y6617D01*
X4919Y6653D01*
X4931Y6700D01*
X4942Y6724D01*
X4966Y6748D01*
X5002Y6760D01*
X5026Y6760D01*
X5061Y6748D01*
X5073Y6736D01*
X5216Y6653D02*
X5192Y6665D01*
X5181Y6676D01*
X5169Y6700D01*
X5169Y6712D01*
X5181Y6736D01*
X5192Y6748D01*
X5216Y6760D01*
X5264Y6760D01*
X5288Y6748D01*
X5300Y6736D01*
X5311Y6712D01*
X5311Y6700D01*
X5300Y6676D01*
X5288Y6665D01*
X5264Y6653D01*
X5216Y6653D01*
X5192Y6641D01*
X5181Y6629D01*
X5169Y6605D01*
X5169Y6557D01*
X5181Y6534D01*
X5192Y6522D01*
X5216Y6510D01*
X5264Y6510D01*
X5288Y6522D01*
X5300Y6534D01*
X5311Y6557D01*
X5311Y6605D01*
X5300Y6629D01*
X5288Y6641D01*
X5264Y6653D01*
X30277Y14758D02*
X30289Y14746D01*
X30301Y14711D01*
X30301Y14687D01*
X30289Y14651D01*
X30265Y14627D01*
X30242Y14616D01*
X30194Y14604D01*
X30158Y14604D01*
X30111Y14616D01*
X30087Y14627D01*
X30063Y14651D01*
X30051Y14687D01*
X30051Y14711D01*
X30063Y14746D01*
X30075Y14758D01*
X30075Y14854D02*
X30063Y14866D01*
X30051Y14889D01*
X30051Y14949D01*
X30063Y14973D01*
X30075Y14985D01*
X30099Y14996D01*
X30123Y14996D01*
X30158Y14985D01*
X30301Y14842D01*
X30301Y14996D01*
X29258Y8863D02*
X29246Y8851D01*
X29211Y8839D01*
X29187Y8839D01*
X29151Y8851D01*
X29127Y8875D01*
X29116Y8898D01*
X29104Y8946D01*
X29104Y8982D01*
X29116Y9029D01*
X29127Y9053D01*
X29151Y9077D01*
X29187Y9089D01*
X29211Y9089D01*
X29246Y9077D01*
X29258Y9065D01*
X29496Y8839D02*
X29354Y8839D01*
X29425Y8839D02*
X29425Y9089D01*
X29401Y9053D01*
X29377Y9029D01*
X29354Y9017D01*
X36158Y6623D02*
X36146Y6611D01*
X36111Y6599D01*
X36087Y6599D01*
X36051Y6611D01*
X36027Y6635D01*
X36016Y6658D01*
X36004Y6706D01*
X36004Y6742D01*
X36016Y6789D01*
X36027Y6813D01*
X36051Y6837D01*
X36087Y6849D01*
X36111Y6849D01*
X36146Y6837D01*
X36158Y6825D01*
X36242Y6849D02*
X36408Y6849D01*
X36301Y6599D01*
G54D15*
X5549Y15750D02*
X4949Y15750D01*
X5377Y15950D01*
X4949Y16150D01*
X5549Y16150D01*
X5549Y16436D02*
X4949Y16436D01*
X5492Y17065D02*
X5520Y17036D01*
X5549Y16950D01*
X5549Y16893D01*
X5520Y16808D01*
X5463Y16750D01*
X5406Y16722D01*
X5292Y16693D01*
X5206Y16693D01*
X5092Y16722D01*
X5035Y16750D01*
X4977Y16808D01*
X4949Y16893D01*
X4949Y16950D01*
X4977Y17036D01*
X5006Y17065D01*
X5006Y17293D02*
X4977Y17322D01*
X4949Y17379D01*
X4949Y17522D01*
X4977Y17579D01*
X5006Y17608D01*
X5063Y17636D01*
X5120Y17636D01*
X5206Y17608D01*
X5549Y17265D01*
X5549Y17636D01*
X5549Y17921D02*
X5549Y18036D01*
X5520Y18093D01*
X5492Y18121D01*
X5406Y18179D01*
X5292Y18207D01*
X5063Y18207D01*
X5006Y18179D01*
X4977Y18150D01*
X4949Y18093D01*
X4949Y17979D01*
X4977Y17921D01*
X5006Y17893D01*
X5063Y17864D01*
X5206Y17864D01*
X5263Y17893D01*
X5292Y17921D01*
X5320Y17979D01*
X5320Y18093D01*
X5292Y18150D01*
X5263Y18179D01*
X5206Y18207D01*
X5549Y18778D02*
X5549Y18435D01*
X5549Y18607D02*
X4949Y18607D01*
X5035Y18550D01*
X5092Y18492D01*
X5120Y18435D01*
X4949Y19321D02*
X4949Y19035D01*
X5235Y19006D01*
X5206Y19035D01*
X5177Y19092D01*
X5177Y19235D01*
X5206Y19292D01*
X5235Y19321D01*
X5292Y19349D01*
X5435Y19349D01*
X5492Y19321D01*
X5520Y19292D01*
X5549Y19235D01*
X5549Y19092D01*
X5520Y19035D01*
X5492Y19006D01*
X5549Y19920D02*
X5549Y19577D01*
X5549Y19749D02*
X4949Y19749D01*
X5035Y19692D01*
X5092Y19634D01*
X5120Y19577D01*
X5320Y20177D02*
X5320Y20634D01*
X4949Y21206D02*
X4949Y20920D01*
X5235Y20891D01*
X5206Y20920D01*
X5177Y20977D01*
X5177Y21120D01*
X5206Y21177D01*
X5235Y21206D01*
X5292Y21234D01*
X5435Y21234D01*
X5492Y21206D01*
X5520Y21177D01*
X5549Y21120D01*
X5549Y20977D01*
X5520Y20920D01*
X5492Y20891D01*
X5492Y21491D02*
X5520Y21519D01*
X5549Y21491D01*
X5520Y21462D01*
X5492Y21491D01*
X5549Y21491D01*
X4949Y21891D02*
X4949Y21948D01*
X4977Y22005D01*
X5006Y22034D01*
X5063Y22063D01*
X5177Y22091D01*
X5320Y22091D01*
X5435Y22063D01*
X5492Y22034D01*
X5520Y22005D01*
X5549Y21948D01*
X5549Y21891D01*
X5520Y21834D01*
X5492Y21805D01*
X5435Y21777D01*
X5320Y21748D01*
X5177Y21748D01*
X5063Y21777D01*
X5006Y21805D01*
X4977Y21834D01*
X4949Y21891D01*
X4949Y22291D02*
X5549Y22434D01*
X5120Y22548D01*
X5549Y22662D01*
X4949Y22805D01*
X4949Y23034D02*
X5435Y23034D01*
X5492Y23062D01*
X5520Y23091D01*
X5549Y23148D01*
X5549Y23262D01*
X5520Y23320D01*
X5492Y23348D01*
X5435Y23377D01*
X4949Y23377D01*
G54D23*
X31709Y3977D02*
X31690Y3958D01*
X31633Y3939D01*
X31595Y3939D01*
X31537Y3958D01*
X31499Y3996D01*
X31480Y4034D01*
X31461Y4111D01*
X31461Y4168D01*
X31480Y4244D01*
X31499Y4282D01*
X31537Y4320D01*
X31595Y4339D01*
X31633Y4339D01*
X31690Y4320D01*
X31709Y4301D01*
X32071Y4339D02*
X31880Y4339D01*
X31861Y4149D01*
X31880Y4168D01*
X31918Y4187D01*
X32014Y4187D01*
X32052Y4168D01*
X32071Y4149D01*
X32090Y4111D01*
X32090Y4015D01*
X32071Y3977D01*
X32052Y3958D01*
X32014Y3939D01*
X31918Y3939D01*
X31880Y3958D01*
X31861Y3977D01*
G54D24*
X31972Y1836D02*
X32429Y1836D01*
X32200Y1607D02*
X32200Y2064D01*
G54D23*
X7184Y13966D02*
X7165Y13947D01*
X7108Y13928D01*
X7070Y13928D01*
X7012Y13947D01*
X6974Y13985D01*
X6955Y14023D01*
X6936Y14100D01*
X6936Y14157D01*
X6955Y14233D01*
X6974Y14271D01*
X7012Y14309D01*
X7070Y14328D01*
X7108Y14328D01*
X7165Y14309D01*
X7184Y14290D01*
X7527Y14195D02*
X7527Y13928D01*
X7431Y14347D02*
X7336Y14061D01*
X7584Y14061D01*
G54D24*
X8172Y11836D02*
X8629Y11836D01*
X8400Y11607D02*
X8400Y12064D01*
G54D23*
X21209Y13877D02*
X21190Y13858D01*
X21133Y13839D01*
X21095Y13839D01*
X21037Y13858D01*
X20999Y13896D01*
X20980Y13934D01*
X20961Y14011D01*
X20961Y14068D01*
X20980Y14144D01*
X20999Y14182D01*
X21037Y14220D01*
X21095Y14239D01*
X21133Y14239D01*
X21190Y14220D01*
X21209Y14201D01*
X21342Y14239D02*
X21590Y14239D01*
X21456Y14087D01*
X21514Y14087D01*
X21552Y14068D01*
X21571Y14049D01*
X21590Y14011D01*
X21590Y13915D01*
X21571Y13877D01*
X21552Y13858D01*
X21514Y13839D01*
X21399Y13839D01*
X21361Y13858D01*
X21342Y13877D01*
G54D24*
X21472Y11736D02*
X21929Y11736D01*
X21700Y11507D02*
X21700Y11964D01*
G54D23*
X3009Y5977D02*
X2990Y5958D01*
X2933Y5939D01*
X2895Y5939D01*
X2837Y5958D01*
X2799Y5996D01*
X2780Y6034D01*
X2761Y6111D01*
X2761Y6168D01*
X2780Y6244D01*
X2799Y6282D01*
X2837Y6320D01*
X2895Y6339D01*
X2933Y6339D01*
X2990Y6320D01*
X3009Y6301D01*
X3352Y6339D02*
X3275Y6339D01*
X3237Y6320D01*
X3218Y6301D01*
X3180Y6244D01*
X3161Y6168D01*
X3161Y6015D01*
X3180Y5977D01*
X3199Y5958D01*
X3237Y5939D01*
X3314Y5939D01*
X3352Y5958D01*
X3371Y5977D01*
X3390Y6015D01*
X3390Y6111D01*
X3371Y6149D01*
X3352Y6168D01*
X3314Y6187D01*
X3237Y6187D01*
X3199Y6168D01*
X3180Y6149D01*
X3161Y6111D01*
G54D24*
X3272Y3836D02*
X3729Y3836D01*
X3500Y3607D02*
X3500Y4064D01*
G54D10*
X33478Y20929D02*
X33478Y21229D01*
X33593Y21229D01*
X33621Y21214D01*
X33636Y21200D01*
X33650Y21171D01*
X33650Y21129D01*
X33636Y21100D01*
X33621Y21086D01*
X33593Y21071D01*
X33478Y21071D01*
X33750Y21229D02*
X33950Y21229D01*
X33821Y20929D01*
G54D17*
X28301Y17858D02*
X28182Y17775D01*
X28301Y17716D02*
X28051Y17716D01*
X28051Y17811D01*
X28063Y17835D01*
X28075Y17846D01*
X28099Y17858D01*
X28135Y17858D01*
X28158Y17846D01*
X28170Y17835D01*
X28182Y17811D01*
X28182Y17716D01*
X28051Y17942D02*
X28051Y18096D01*
X28146Y18013D01*
X28146Y18049D01*
X28158Y18073D01*
X28170Y18085D01*
X28194Y18096D01*
X28254Y18096D01*
X28277Y18085D01*
X28289Y18073D01*
X28301Y18049D01*
X28301Y17977D01*
X28289Y17954D01*
X28277Y17942D01*
X29501Y17858D02*
X29382Y17775D01*
X29501Y17716D02*
X29251Y17716D01*
X29251Y17811D01*
X29263Y17835D01*
X29275Y17846D01*
X29299Y17858D01*
X29335Y17858D01*
X29358Y17846D01*
X29370Y17835D01*
X29382Y17811D01*
X29382Y17716D01*
X29335Y18073D02*
X29501Y18073D01*
X29239Y18013D02*
X29418Y17954D01*
X29418Y18108D01*
X37058Y799D02*
X36975Y918D01*
X36916Y799D02*
X36916Y1049D01*
X37011Y1049D01*
X37035Y1037D01*
X37046Y1025D01*
X37058Y1001D01*
X37058Y965D01*
X37046Y942D01*
X37035Y930D01*
X37011Y918D01*
X36916Y918D01*
X37285Y1049D02*
X37166Y1049D01*
X37154Y930D01*
X37166Y942D01*
X37189Y954D01*
X37249Y954D01*
X37273Y942D01*
X37285Y930D01*
X37296Y906D01*
X37296Y846D01*
X37285Y823D01*
X37273Y811D01*
X37249Y799D01*
X37189Y799D01*
X37166Y811D01*
X37154Y823D01*
X37101Y22458D02*
X36982Y22375D01*
X37101Y22316D02*
X36851Y22316D01*
X36851Y22411D01*
X36863Y22435D01*
X36875Y22446D01*
X36899Y22458D01*
X36935Y22458D01*
X36958Y22446D01*
X36970Y22435D01*
X36982Y22411D01*
X36982Y22316D01*
X36851Y22542D02*
X36851Y22708D01*
X37101Y22601D01*
X14758Y999D02*
X14675Y1118D01*
X14616Y999D02*
X14616Y1249D01*
X14711Y1249D01*
X14735Y1237D01*
X14746Y1225D01*
X14758Y1201D01*
X14758Y1165D01*
X14746Y1142D01*
X14735Y1130D01*
X14711Y1118D01*
X14616Y1118D01*
X14973Y1249D02*
X14925Y1249D01*
X14901Y1237D01*
X14889Y1225D01*
X14866Y1189D01*
X14854Y1142D01*
X14854Y1046D01*
X14866Y1023D01*
X14877Y1011D01*
X14901Y999D01*
X14949Y999D01*
X14973Y1011D01*
X14985Y1023D01*
X14996Y1046D01*
X14996Y1106D01*
X14985Y1130D01*
X14973Y1142D01*
X14949Y1154D01*
X14901Y1154D01*
X14877Y1142D01*
X14866Y1130D01*
X14854Y1106D01*
X38321Y22278D02*
X38021Y22278D01*
X38021Y22350D01*
X38036Y22393D01*
X38064Y22421D01*
X38093Y22436D01*
X38150Y22450D01*
X38193Y22450D01*
X38250Y22436D01*
X38279Y22421D01*
X38307Y22393D01*
X38321Y22350D01*
X38321Y22278D01*
X38021Y22721D02*
X38021Y22578D01*
X38164Y22564D01*
X38150Y22578D01*
X38136Y22607D01*
X38136Y22678D01*
X38150Y22707D01*
X38164Y22721D01*
X38193Y22736D01*
X38264Y22736D01*
X38293Y22721D01*
X38307Y22707D01*
X38321Y22678D01*
X38321Y22607D01*
X38307Y22578D01*
X38293Y22564D01*
M02*
