G04 (created by PCBNEW-RS274X (2011-05-25)-stable) date Mon 27 Feb 2012 12:27:14 PM EST*
G01*
G70*
G90*
%MOIN*%
G04 Gerber Fmt 3.4, Leading zero omitted, Abs format*
%FSLAX34Y34*%
G04 APERTURE LIST*
%ADD10C,0.006000*%
%ADD11C,0.015000*%
%ADD12C,0.012000*%
%ADD13C,0.002600*%
%ADD14C,0.002000*%
%ADD15C,0.004000*%
%ADD16C,0.005000*%
%ADD17C,0.010000*%
%ADD18R,0.067200X0.067200*%
%ADD19R,0.080000X0.080000*%
%ADD20C,0.080000*%
%ADD21R,0.149900X0.193200*%
%ADD22R,0.173500X0.264100*%
%ADD23C,0.100000*%
%ADD24C,0.180000*%
%ADD25R,0.070000X0.135000*%
%ADD26R,0.155000X0.085000*%
G04 APERTURE END LIST*
G54D10*
G54D11*
X01500Y13000D02*
X01500Y14200D01*
G54D12*
X02524Y13201D02*
X02143Y13001D01*
X02524Y12858D02*
X01724Y12858D01*
X01724Y13086D01*
X01762Y13144D01*
X01800Y13172D01*
X01876Y13201D01*
X01990Y13201D01*
X02067Y13172D01*
X02105Y13144D01*
X02143Y13086D01*
X02143Y12858D01*
X02486Y13686D02*
X02524Y13629D01*
X02524Y13515D01*
X02486Y13458D01*
X02410Y13429D01*
X02105Y13429D01*
X02029Y13458D01*
X01990Y13515D01*
X01990Y13629D01*
X02029Y13686D01*
X02105Y13715D01*
X02181Y13715D01*
X02257Y13429D01*
X01990Y13915D02*
X02524Y14058D01*
X01990Y14200D01*
X00524Y06088D02*
X00524Y06145D01*
X00562Y06202D01*
X00600Y06231D01*
X00676Y06260D01*
X00829Y06288D01*
X01019Y06288D01*
X01171Y06260D01*
X01248Y06231D01*
X01286Y06202D01*
X01324Y06145D01*
X01324Y06088D01*
X01286Y06031D01*
X01248Y06002D01*
X01171Y05974D01*
X01019Y05945D01*
X00829Y05945D01*
X00676Y05974D01*
X00600Y06002D01*
X00562Y06031D01*
X00524Y06088D01*
X00600Y06516D02*
X00562Y06545D01*
X00524Y06602D01*
X00524Y06745D01*
X00562Y06802D01*
X00600Y06831D01*
X00676Y06859D01*
X00752Y06859D01*
X00867Y06831D01*
X01324Y06488D01*
X01324Y06859D01*
X00524Y07230D02*
X00524Y07287D01*
X00562Y07344D01*
X00600Y07373D01*
X00676Y07402D01*
X00829Y07430D01*
X01019Y07430D01*
X01171Y07402D01*
X01248Y07373D01*
X01286Y07344D01*
X01324Y07287D01*
X01324Y07230D01*
X01286Y07173D01*
X01248Y07144D01*
X01171Y07116D01*
X01019Y07087D01*
X00829Y07087D01*
X00676Y07116D01*
X00600Y07144D01*
X00562Y07173D01*
X00524Y07230D01*
X00524Y07801D02*
X00524Y07858D01*
X00562Y07915D01*
X00600Y07944D01*
X00676Y07973D01*
X00829Y08001D01*
X01019Y08001D01*
X01171Y07973D01*
X01248Y07944D01*
X01286Y07915D01*
X01324Y07858D01*
X01324Y07801D01*
X01286Y07744D01*
X01248Y07715D01*
X01171Y07687D01*
X01019Y07658D01*
X00829Y07658D01*
X00676Y07687D01*
X00600Y07715D01*
X00562Y07744D01*
X00524Y07801D01*
X01019Y08258D02*
X01019Y08715D01*
X00524Y09115D02*
X00524Y09172D01*
X00562Y09229D01*
X00600Y09258D01*
X00676Y09287D01*
X00829Y09315D01*
X01019Y09315D01*
X01171Y09287D01*
X01248Y09258D01*
X01286Y09229D01*
X01324Y09172D01*
X01324Y09115D01*
X01286Y09058D01*
X01248Y09029D01*
X01171Y09001D01*
X01019Y08972D01*
X00829Y08972D01*
X00676Y09001D01*
X00600Y09029D01*
X00562Y09058D01*
X00524Y09115D01*
X00524Y09686D02*
X00524Y09743D01*
X00562Y09800D01*
X00600Y09829D01*
X00676Y09858D01*
X00829Y09886D01*
X01019Y09886D01*
X01171Y09858D01*
X01248Y09829D01*
X01286Y09800D01*
X01324Y09743D01*
X01324Y09686D01*
X01286Y09629D01*
X01248Y09600D01*
X01171Y09572D01*
X01019Y09543D01*
X00829Y09543D01*
X00676Y09572D01*
X00600Y09600D01*
X00562Y09629D01*
X00524Y09686D01*
X00524Y10257D02*
X00524Y10314D01*
X00562Y10371D01*
X00600Y10400D01*
X00676Y10429D01*
X00829Y10457D01*
X01019Y10457D01*
X01171Y10429D01*
X01248Y10400D01*
X01286Y10371D01*
X01324Y10314D01*
X01324Y10257D01*
X01286Y10200D01*
X01248Y10171D01*
X01171Y10143D01*
X01019Y10114D01*
X00829Y10114D01*
X00676Y10143D01*
X00600Y10171D01*
X00562Y10200D01*
X00524Y10257D01*
X01324Y11028D02*
X01324Y10685D01*
X01324Y10857D02*
X00524Y10857D01*
X00638Y10800D01*
X00714Y10742D01*
X00752Y10685D01*
X01019Y11285D02*
X01019Y11742D01*
X00524Y12142D02*
X00524Y12199D01*
X00562Y12256D01*
X00600Y12285D01*
X00676Y12314D01*
X00829Y12342D01*
X01019Y12342D01*
X01171Y12314D01*
X01248Y12285D01*
X01286Y12256D01*
X01324Y12199D01*
X01324Y12142D01*
X01286Y12085D01*
X01248Y12056D01*
X01171Y12028D01*
X01019Y11999D01*
X00829Y11999D01*
X00676Y12028D01*
X00600Y12056D01*
X00562Y12085D01*
X00524Y12142D01*
X00524Y12713D02*
X00524Y12770D01*
X00562Y12827D01*
X00600Y12856D01*
X00676Y12885D01*
X00829Y12913D01*
X01019Y12913D01*
X01171Y12885D01*
X01248Y12856D01*
X01286Y12827D01*
X01324Y12770D01*
X01324Y12713D01*
X01286Y12656D01*
X01248Y12627D01*
X01171Y12599D01*
X01019Y12570D01*
X00829Y12570D01*
X00676Y12599D01*
X00600Y12627D01*
X00562Y12656D01*
X00524Y12713D01*
X00524Y13284D02*
X00524Y13341D01*
X00562Y13398D01*
X00600Y13427D01*
X00676Y13456D01*
X00829Y13484D01*
X01019Y13484D01*
X01171Y13456D01*
X01248Y13427D01*
X01286Y13398D01*
X01324Y13341D01*
X01324Y13284D01*
X01286Y13227D01*
X01248Y13198D01*
X01171Y13170D01*
X01019Y13141D01*
X00829Y13141D01*
X00676Y13170D01*
X00600Y13198D01*
X00562Y13227D01*
X00524Y13284D01*
X00600Y13712D02*
X00562Y13741D01*
X00524Y13798D01*
X00524Y13941D01*
X00562Y13998D01*
X00600Y14027D01*
X00676Y14055D01*
X00752Y14055D01*
X00867Y14027D01*
X01324Y13684D01*
X01324Y14055D01*
X15524Y03615D02*
X15524Y03958D01*
X16324Y03787D02*
X15524Y03787D01*
X15790Y04415D02*
X16324Y04415D01*
X15790Y04158D02*
X16210Y04158D01*
X16286Y04186D01*
X16324Y04244D01*
X16324Y04329D01*
X16286Y04386D01*
X16248Y04415D01*
X16324Y04701D02*
X15790Y04701D01*
X15943Y04701D02*
X15867Y04729D01*
X15829Y04758D01*
X15790Y04815D01*
X15790Y04872D01*
X15790Y04986D02*
X15790Y05215D01*
X15524Y05072D02*
X16210Y05072D01*
X16286Y05100D01*
X16324Y05158D01*
X16324Y05215D01*
X16324Y05501D02*
X16286Y05443D01*
X16210Y05415D01*
X15524Y05415D01*
X16286Y05957D02*
X16324Y05900D01*
X16324Y05786D01*
X16286Y05729D01*
X16210Y05700D01*
X15905Y05700D01*
X15829Y05729D01*
X15790Y05786D01*
X15790Y05900D01*
X15829Y05957D01*
X15905Y05986D01*
X15981Y05986D01*
X16057Y05700D01*
X15905Y06443D02*
X15943Y06529D01*
X15981Y06557D01*
X16057Y06586D01*
X16171Y06586D01*
X16248Y06557D01*
X16286Y06529D01*
X16324Y06471D01*
X16324Y06243D01*
X15524Y06243D01*
X15524Y06443D01*
X15562Y06500D01*
X15600Y06529D01*
X15676Y06557D01*
X15752Y06557D01*
X15829Y06529D01*
X15867Y06500D01*
X15905Y06443D01*
X15905Y06243D01*
X16324Y06929D02*
X16286Y06871D01*
X16248Y06843D01*
X16171Y06814D01*
X15943Y06814D01*
X15867Y06843D01*
X15829Y06871D01*
X15790Y06929D01*
X15790Y07014D01*
X15829Y07071D01*
X15867Y07100D01*
X15943Y07129D01*
X16171Y07129D01*
X16248Y07100D01*
X16286Y07071D01*
X16324Y07014D01*
X16324Y06929D01*
X15790Y07300D02*
X15790Y07529D01*
X15524Y07386D02*
X16210Y07386D01*
X16286Y07414D01*
X16324Y07472D01*
X16324Y07529D01*
X16324Y08186D02*
X15524Y08186D01*
X15524Y08414D01*
X15562Y08472D01*
X15600Y08500D01*
X15676Y08529D01*
X15790Y08529D01*
X15867Y08500D01*
X15905Y08472D01*
X15943Y08414D01*
X15943Y08186D01*
X16324Y08872D02*
X16286Y08814D01*
X16248Y08786D01*
X16171Y08757D01*
X15943Y08757D01*
X15867Y08786D01*
X15829Y08814D01*
X15790Y08872D01*
X15790Y08957D01*
X15829Y09014D01*
X15867Y09043D01*
X15943Y09072D01*
X16171Y09072D01*
X16248Y09043D01*
X16286Y09014D01*
X16324Y08957D01*
X16324Y08872D01*
X15790Y09272D02*
X16324Y09386D01*
X15943Y09500D01*
X16324Y09615D01*
X15790Y09729D01*
X16286Y10186D02*
X16324Y10129D01*
X16324Y10015D01*
X16286Y09958D01*
X16210Y09929D01*
X15905Y09929D01*
X15829Y09958D01*
X15790Y10015D01*
X15790Y10129D01*
X15829Y10186D01*
X15905Y10215D01*
X15981Y10215D01*
X16057Y09929D01*
X16324Y10472D02*
X15790Y10472D01*
X15943Y10472D02*
X15867Y10500D01*
X15829Y10529D01*
X15790Y10586D01*
X15790Y10643D01*
X16286Y11271D02*
X16324Y11357D01*
X16324Y11500D01*
X16286Y11557D01*
X16248Y11586D01*
X16171Y11614D01*
X16095Y11614D01*
X16019Y11586D01*
X15981Y11557D01*
X15943Y11500D01*
X15905Y11386D01*
X15867Y11328D01*
X15829Y11300D01*
X15752Y11271D01*
X15676Y11271D01*
X15600Y11300D01*
X15562Y11328D01*
X15524Y11386D01*
X15524Y11528D01*
X15562Y11614D01*
X15790Y11871D02*
X16590Y11871D01*
X15829Y11871D02*
X15790Y11928D01*
X15790Y12042D01*
X15829Y12099D01*
X15867Y12128D01*
X15943Y12157D01*
X16171Y12157D01*
X16248Y12128D01*
X16286Y12099D01*
X16324Y12042D01*
X16324Y11928D01*
X16286Y11871D01*
X16324Y12500D02*
X16286Y12442D01*
X16210Y12414D01*
X15524Y12414D01*
X16324Y12728D02*
X15790Y12728D01*
X15524Y12728D02*
X15562Y12699D01*
X15600Y12728D01*
X15562Y12756D01*
X15524Y12728D01*
X15600Y12728D01*
X15790Y12928D02*
X15790Y13157D01*
X15524Y13014D02*
X16210Y13014D01*
X16286Y13042D01*
X16324Y13100D01*
X16324Y13157D01*
X15790Y13271D02*
X15790Y13500D01*
X15524Y13357D02*
X16210Y13357D01*
X16286Y13385D01*
X16324Y13443D01*
X16324Y13500D01*
X16286Y13928D02*
X16324Y13871D01*
X16324Y13757D01*
X16286Y13700D01*
X16210Y13671D01*
X15905Y13671D01*
X15829Y13700D01*
X15790Y13757D01*
X15790Y13871D01*
X15829Y13928D01*
X15905Y13957D01*
X15981Y13957D01*
X16057Y13671D01*
X16324Y14214D02*
X15790Y14214D01*
X15943Y14214D02*
X15867Y14242D01*
X15829Y14271D01*
X15790Y14328D01*
X15790Y14385D01*
X14272Y02981D02*
X14729Y02981D01*
X14500Y02676D02*
X14500Y03286D01*
G54D11*
X07364Y08955D02*
X07764Y08655D01*
X07764Y08655D02*
X07364Y08355D01*
X07364Y08355D02*
X07364Y08955D01*
X07364Y08955D02*
X07464Y08555D01*
X07464Y08555D02*
X07564Y08655D01*
X07564Y08655D02*
X07464Y08755D01*
X07864Y09955D02*
X08064Y09955D01*
X08064Y09955D02*
X08064Y09755D01*
X06464Y09355D02*
X06464Y09155D01*
X06464Y09155D02*
X06664Y09155D01*
G54D13*
X07460Y09437D02*
X07460Y09309D01*
X07460Y09309D02*
X07657Y09309D01*
X07657Y09437D02*
X07657Y09309D01*
X07460Y09437D02*
X07657Y09437D01*
X07460Y09682D02*
X07460Y09623D01*
X07460Y09623D02*
X07559Y09623D01*
X07559Y09682D02*
X07559Y09623D01*
X07460Y09682D02*
X07559Y09682D01*
X07460Y09487D02*
X07460Y09428D01*
X07460Y09428D02*
X07559Y09428D01*
X07559Y09487D02*
X07559Y09428D01*
X07460Y09487D02*
X07559Y09487D01*
X07460Y09633D02*
X07460Y09477D01*
X07460Y09477D02*
X07529Y09477D01*
X07529Y09633D02*
X07529Y09477D01*
X07460Y09633D02*
X07529Y09633D01*
X06871Y09437D02*
X06871Y09309D01*
X06871Y09309D02*
X07068Y09309D01*
X06871Y09437D02*
X07068Y09437D01*
X06871Y09801D02*
X06871Y09673D01*
X06871Y09673D02*
X07068Y09673D01*
X07068Y09801D02*
X07068Y09673D01*
X06969Y09487D02*
X06969Y09428D01*
X06969Y09428D02*
X07068Y09428D01*
X07068Y09487D02*
X07068Y09428D01*
X06969Y09487D02*
X07068Y09487D01*
X06969Y09682D02*
X06969Y09623D01*
X06969Y09623D02*
X07068Y09623D01*
X07068Y09682D02*
X07068Y09623D01*
X06969Y09682D02*
X07068Y09682D01*
X06999Y09633D02*
X06999Y09477D01*
X06999Y09477D02*
X07068Y09477D01*
X07068Y09633D02*
X07068Y09477D01*
X06999Y09633D02*
X07068Y09633D01*
X07460Y09791D02*
X07460Y09673D01*
X07460Y09673D02*
X07578Y09673D01*
X07578Y09791D02*
X07578Y09673D01*
X07460Y09791D02*
X07578Y09791D01*
X07628Y09801D02*
X07628Y09712D01*
X07628Y09712D02*
X07657Y09712D01*
X07657Y09801D02*
X07657Y09712D01*
X07628Y09801D02*
X07657Y09801D01*
G54D14*
X07626Y09732D02*
X07625Y09727D01*
X07623Y09722D01*
X07621Y09717D01*
X07617Y09713D01*
X07613Y09709D01*
X07608Y09707D01*
X07603Y09705D01*
X07598Y09705D01*
X07593Y09705D01*
X07588Y09707D01*
X07583Y09709D01*
X07579Y09712D01*
X07575Y09717D01*
X07573Y09721D01*
X07571Y09727D01*
X07571Y09732D01*
X07571Y09737D01*
X07572Y09742D01*
X07575Y09747D01*
X07578Y09751D01*
X07583Y09754D01*
X07587Y09757D01*
X07592Y09759D01*
X07598Y09759D01*
X07602Y09759D01*
X07608Y09758D01*
X07613Y09755D01*
X07617Y09752D01*
X07620Y09748D01*
X07623Y09743D01*
X07625Y09738D01*
X07625Y09732D01*
X07626Y09732D01*
G54D15*
X07657Y09692D02*
X07646Y09691D01*
X07634Y09689D01*
X07622Y09687D01*
X07611Y09683D01*
X07600Y09679D01*
X07589Y09673D01*
X07579Y09667D01*
X07569Y09659D01*
X07561Y09651D01*
X07553Y09643D01*
X07545Y09633D01*
X07539Y09623D01*
X07533Y09612D01*
X07529Y09601D01*
X07525Y09590D01*
X07523Y09578D01*
X07521Y09566D01*
X07520Y09555D01*
X07521Y09544D01*
X07523Y09532D01*
X07525Y09520D01*
X07529Y09509D01*
X07533Y09498D01*
X07539Y09487D01*
X07545Y09477D01*
X07553Y09467D01*
X07561Y09459D01*
X07569Y09451D01*
X07579Y09443D01*
X07589Y09437D01*
X07600Y09431D01*
X07611Y09427D01*
X07622Y09423D01*
X07634Y09421D01*
X07646Y09419D01*
X07657Y09418D01*
X06871Y09418D02*
X06882Y09419D01*
X06894Y09421D01*
X06906Y09423D01*
X06917Y09427D01*
X06928Y09431D01*
X06939Y09437D01*
X06949Y09443D01*
X06959Y09451D01*
X06967Y09459D01*
X06975Y09467D01*
X06983Y09477D01*
X06989Y09487D01*
X06995Y09498D01*
X06999Y09509D01*
X07003Y09520D01*
X07005Y09532D01*
X07007Y09544D01*
X07008Y09555D01*
X07007Y09566D01*
X07005Y09578D01*
X07003Y09590D01*
X06999Y09601D01*
X06995Y09612D01*
X06989Y09623D01*
X06983Y09633D01*
X06975Y09643D01*
X06967Y09651D01*
X06959Y09659D01*
X06949Y09667D01*
X06939Y09673D01*
X06928Y09679D01*
X06917Y09683D01*
X06906Y09687D01*
X06894Y09689D01*
X06882Y09691D01*
X06871Y09692D01*
G54D11*
X10226Y09955D02*
X10426Y09955D01*
X10426Y09955D02*
X10426Y09755D01*
X08826Y09355D02*
X08826Y09155D01*
X08826Y09155D02*
X09026Y09155D01*
G54D13*
X09822Y09437D02*
X09822Y09309D01*
X09822Y09309D02*
X10019Y09309D01*
X10019Y09437D02*
X10019Y09309D01*
X09822Y09437D02*
X10019Y09437D01*
X09822Y09682D02*
X09822Y09623D01*
X09822Y09623D02*
X09921Y09623D01*
X09921Y09682D02*
X09921Y09623D01*
X09822Y09682D02*
X09921Y09682D01*
X09822Y09487D02*
X09822Y09428D01*
X09822Y09428D02*
X09921Y09428D01*
X09921Y09487D02*
X09921Y09428D01*
X09822Y09487D02*
X09921Y09487D01*
X09822Y09633D02*
X09822Y09477D01*
X09822Y09477D02*
X09891Y09477D01*
X09891Y09633D02*
X09891Y09477D01*
X09822Y09633D02*
X09891Y09633D01*
X09233Y09437D02*
X09233Y09309D01*
X09233Y09309D02*
X09430Y09309D01*
X09233Y09437D02*
X09430Y09437D01*
X09233Y09801D02*
X09233Y09673D01*
X09233Y09673D02*
X09430Y09673D01*
X09430Y09801D02*
X09430Y09673D01*
X09233Y09801D02*
X09430Y09801D01*
X09331Y09487D02*
X09331Y09428D01*
X09331Y09428D02*
X09430Y09428D01*
X09430Y09487D02*
X09430Y09428D01*
X09331Y09487D02*
X09430Y09487D01*
X09331Y09682D02*
X09331Y09623D01*
X09331Y09623D02*
X09430Y09623D01*
X09430Y09682D02*
X09430Y09623D01*
X09331Y09682D02*
X09430Y09682D01*
X09361Y09633D02*
X09361Y09477D01*
X09361Y09477D02*
X09430Y09477D01*
X09430Y09633D02*
X09430Y09477D01*
X09361Y09633D02*
X09430Y09633D01*
X09822Y09791D02*
X09822Y09673D01*
X09822Y09673D02*
X09940Y09673D01*
X09940Y09791D02*
X09940Y09673D01*
X09822Y09791D02*
X09940Y09791D01*
X09990Y09801D02*
X09990Y09712D01*
X09990Y09712D02*
X10019Y09712D01*
X10019Y09801D02*
X10019Y09712D01*
X09990Y09801D02*
X10019Y09801D01*
G54D14*
X09988Y09732D02*
X09987Y09727D01*
X09985Y09722D01*
X09983Y09717D01*
X09979Y09713D01*
X09975Y09709D01*
X09970Y09707D01*
X09965Y09705D01*
X09960Y09705D01*
X09955Y09705D01*
X09950Y09707D01*
X09945Y09709D01*
X09941Y09712D01*
X09937Y09717D01*
X09935Y09721D01*
X09933Y09727D01*
X09933Y09732D01*
X09933Y09737D01*
X09934Y09742D01*
X09937Y09747D01*
X09940Y09751D01*
X09945Y09754D01*
X09949Y09757D01*
X09954Y09759D01*
X09960Y09759D01*
X09964Y09759D01*
X09970Y09758D01*
X09975Y09755D01*
X09979Y09752D01*
X09982Y09748D01*
X09985Y09743D01*
X09987Y09738D01*
X09987Y09732D01*
X09988Y09732D01*
G54D15*
X10019Y09692D02*
X10008Y09691D01*
X09996Y09689D01*
X09984Y09687D01*
X09973Y09683D01*
X09962Y09679D01*
X09951Y09673D01*
X09941Y09667D01*
X09931Y09659D01*
X09923Y09651D01*
X09915Y09643D01*
X09907Y09633D01*
X09901Y09623D01*
X09895Y09612D01*
X09891Y09601D01*
X09887Y09590D01*
X09885Y09578D01*
X09883Y09566D01*
X09882Y09555D01*
X09883Y09544D01*
X09885Y09532D01*
X09887Y09520D01*
X09891Y09509D01*
X09895Y09498D01*
X09901Y09487D01*
X09907Y09477D01*
X09915Y09467D01*
X09923Y09459D01*
X09931Y09451D01*
X09941Y09443D01*
X09951Y09437D01*
X09962Y09431D01*
X09973Y09427D01*
X09984Y09423D01*
X09996Y09421D01*
X10008Y09419D01*
X10019Y09418D01*
X09233Y09418D02*
X09244Y09419D01*
X09256Y09421D01*
X09268Y09423D01*
X09279Y09427D01*
X09290Y09431D01*
X09301Y09437D01*
X09311Y09443D01*
X09321Y09451D01*
X09329Y09459D01*
X09337Y09467D01*
X09345Y09477D01*
X09351Y09487D01*
X09357Y09498D01*
X09361Y09509D01*
X09365Y09520D01*
X09367Y09532D01*
X09369Y09544D01*
X09370Y09555D01*
X09369Y09566D01*
X09367Y09578D01*
X09365Y09590D01*
X09361Y09601D01*
X09357Y09612D01*
X09351Y09623D01*
X09345Y09633D01*
X09337Y09643D01*
X09329Y09651D01*
X09321Y09659D01*
X09311Y09667D01*
X09301Y09673D01*
X09290Y09679D01*
X09279Y09683D01*
X09268Y09687D01*
X09256Y09689D01*
X09244Y09691D01*
X09233Y09692D01*
G54D11*
X12000Y00250D02*
X14000Y00250D01*
X14000Y00250D02*
X14000Y02750D01*
X14000Y02750D02*
X12000Y02750D01*
X12000Y02750D02*
X12000Y00250D01*
X12000Y00250D02*
X13250Y00250D01*
G54D10*
X12000Y01000D02*
X12000Y02000D01*
X14000Y02000D02*
X14000Y01000D01*
G54D11*
X07461Y04997D02*
X07855Y04997D01*
X07855Y04997D02*
X07855Y00272D01*
X04311Y00272D02*
X04311Y04997D01*
X04311Y04997D02*
X04705Y04997D01*
X05099Y05784D02*
X04705Y05784D01*
X04705Y05784D02*
X04705Y04997D01*
X07461Y04997D02*
X07461Y05784D01*
X07461Y05784D02*
X07067Y05784D01*
X04311Y00272D02*
X07855Y00272D01*
X12488Y13479D02*
X13638Y13479D01*
X13638Y13479D02*
X13638Y14079D01*
X13638Y14079D02*
X13438Y14079D01*
X13438Y14079D02*
X13438Y14829D01*
X10638Y14079D02*
X10638Y14829D01*
X10638Y14079D02*
X10438Y14079D01*
X10438Y14079D02*
X10438Y13479D01*
X10438Y13479D02*
X11438Y13479D01*
X10588Y16029D02*
X10588Y17329D01*
X10588Y17329D02*
X13438Y17329D01*
X13438Y17329D02*
X13438Y16029D01*
X06189Y13479D02*
X07339Y13479D01*
X07339Y13479D02*
X07339Y14079D01*
X07339Y14079D02*
X07139Y14079D01*
X07139Y14079D02*
X07139Y14829D01*
X04339Y14079D02*
X04339Y14829D01*
X04339Y14079D02*
X04139Y14079D01*
X04139Y14079D02*
X04139Y13479D01*
X04139Y13479D02*
X05139Y13479D01*
X04289Y16029D02*
X04289Y17329D01*
X04289Y17329D02*
X07139Y17329D01*
X07139Y17329D02*
X07139Y16029D01*
G54D10*
X12230Y01770D02*
X12230Y01230D01*
X12770Y01230D01*
X12770Y01770D01*
X12230Y01770D01*
X13770Y01500D02*
X13764Y01448D01*
X13749Y01398D01*
X13724Y01351D01*
X13691Y01310D01*
X13650Y01277D01*
X13604Y01252D01*
X13554Y01236D01*
X13501Y01231D01*
X13450Y01235D01*
X13399Y01250D01*
X13353Y01275D01*
X13312Y01308D01*
X13278Y01348D01*
X13252Y01394D01*
X13236Y01444D01*
X13231Y01497D01*
X13235Y01548D01*
X13249Y01599D01*
X13274Y01646D01*
X13306Y01687D01*
X13346Y01721D01*
X13392Y01747D01*
X13443Y01763D01*
X13495Y01769D01*
X13546Y01765D01*
X13597Y01751D01*
X13644Y01727D01*
X13686Y01695D01*
X13720Y01655D01*
X13746Y01609D01*
X13763Y01559D01*
X13769Y01507D01*
X13770Y01500D01*
X06453Y01453D02*
X06445Y01382D01*
X06425Y01313D01*
X06391Y01249D01*
X06345Y01193D01*
X06289Y01147D01*
X06226Y01112D01*
X06157Y01091D01*
X06085Y01084D01*
X06014Y01090D01*
X05945Y01110D01*
X05881Y01144D01*
X05825Y01189D01*
X05778Y01244D01*
X05743Y01308D01*
X05722Y01377D01*
X05714Y01448D01*
X05720Y01519D01*
X05739Y01589D01*
X05772Y01653D01*
X05817Y01710D01*
X05872Y01756D01*
X05935Y01792D01*
X06004Y01814D01*
X06076Y01822D01*
X06147Y01817D01*
X06216Y01797D01*
X06281Y01765D01*
X06338Y01720D01*
X06385Y01666D01*
X06421Y01603D01*
X06443Y01534D01*
X06452Y01463D01*
X06453Y01453D01*
X01932Y16020D02*
X01917Y15871D01*
X01873Y15727D01*
X01803Y15594D01*
X01708Y15478D01*
X01592Y15382D01*
X01460Y15311D01*
X01316Y15266D01*
X01167Y15251D01*
X01018Y15264D01*
X00874Y15307D01*
X00741Y15376D01*
X00624Y15470D01*
X00527Y15585D01*
X00455Y15717D01*
X00409Y15860D01*
X00393Y16010D01*
X00405Y16158D01*
X00447Y16303D01*
X00515Y16437D01*
X00609Y16554D01*
X00723Y16652D01*
X00854Y16725D01*
X00997Y16772D01*
X01146Y16789D01*
X01295Y16778D01*
X01440Y16737D01*
X01574Y16670D01*
X01693Y16577D01*
X01791Y16463D01*
X01865Y16333D01*
X01912Y16190D01*
X01931Y16041D01*
X01932Y16020D01*
X17089Y16020D02*
X17074Y15871D01*
X17030Y15727D01*
X16960Y15594D01*
X16865Y15478D01*
X16749Y15382D01*
X16617Y15311D01*
X16473Y15266D01*
X16324Y15251D01*
X16175Y15264D01*
X16031Y15307D01*
X15898Y15376D01*
X15781Y15470D01*
X15684Y15585D01*
X15612Y15717D01*
X15566Y15860D01*
X15550Y16010D01*
X15562Y16158D01*
X15604Y16303D01*
X15672Y16437D01*
X15766Y16554D01*
X15880Y16652D01*
X16011Y16725D01*
X16154Y16772D01*
X16303Y16789D01*
X16452Y16778D01*
X16597Y16737D01*
X16731Y16670D01*
X16850Y16577D01*
X16948Y16463D01*
X17022Y16333D01*
X17069Y16190D01*
X17088Y16041D01*
X17089Y16020D01*
X17050Y01274D02*
X17035Y01125D01*
X16991Y00981D01*
X16921Y00848D01*
X16826Y00732D01*
X16710Y00636D01*
X16578Y00565D01*
X16434Y00520D01*
X16285Y00505D01*
X16136Y00518D01*
X15992Y00561D01*
X15859Y00630D01*
X15742Y00724D01*
X15645Y00839D01*
X15573Y00971D01*
X15527Y01114D01*
X15511Y01264D01*
X15523Y01412D01*
X15565Y01557D01*
X15633Y01691D01*
X15727Y01808D01*
X15841Y01906D01*
X15972Y01979D01*
X16115Y02026D01*
X16264Y02043D01*
X16413Y02032D01*
X16558Y01991D01*
X16692Y01924D01*
X16811Y01831D01*
X16909Y01717D01*
X16983Y01587D01*
X17030Y01444D01*
X17049Y01295D01*
X17050Y01274D01*
X01932Y01256D02*
X01917Y01107D01*
X01873Y00963D01*
X01803Y00830D01*
X01708Y00714D01*
X01592Y00618D01*
X01460Y00547D01*
X01316Y00502D01*
X01167Y00487D01*
X01018Y00500D01*
X00874Y00543D01*
X00741Y00612D01*
X00624Y00706D01*
X00527Y00821D01*
X00455Y00953D01*
X00409Y01096D01*
X00393Y01246D01*
X00405Y01394D01*
X00447Y01539D01*
X00515Y01673D01*
X00609Y01790D01*
X00723Y01888D01*
X00854Y01961D01*
X00997Y02008D01*
X01146Y02025D01*
X01295Y02014D01*
X01440Y01973D01*
X01574Y01906D01*
X01693Y01813D01*
X01791Y01699D01*
X01865Y01569D01*
X01912Y01426D01*
X01931Y01277D01*
X01932Y01256D01*
G54D16*
G54D12*
G54D10*
G54D12*
G54D17*
G54D16*
G54D12*
G54D16*
G54D12*
%LPC*%
G54D18*
X06851Y09555D03*
X07677Y09555D03*
X09213Y09555D03*
X10039Y09555D03*
G54D19*
X12500Y01500D03*
G54D20*
X13500Y01500D03*
G54D21*
X06083Y06374D03*
G54D22*
X03406Y02674D03*
X08760Y02674D03*
G54D23*
X06083Y01453D03*
G54D24*
X01162Y16020D03*
X16319Y16020D03*
X16280Y01274D03*
X01162Y01256D03*
G54D25*
X11988Y13279D03*
X11988Y11479D03*
G54D26*
X10538Y15429D03*
X13438Y15429D03*
G54D25*
X05689Y13279D03*
X05689Y11479D03*
G54D26*
X04239Y15429D03*
X07139Y15429D03*
M02*
