G04 (created by PCBNEW-RS274X (2011-05-25)-stable) date Mon 06 Feb 2012 01:35:10 PM EST*
G01*
G70*
G90*
%MOIN*%
G04 Gerber Fmt 3.4, Leading zero omitted, Abs format*
%FSLAX34Y34*%
G04 APERTURE LIST*
%ADD10C,0.006000*%
%ADD11C,0.012000*%
%ADD12C,0.015000*%
%ADD13C,0.002600*%
%ADD14C,0.002000*%
%ADD15C,0.004000*%
%ADD16C,0.005000*%
%ADD17C,0.010000*%
%ADD18R,0.067200X0.067200*%
%ADD19R,0.080000X0.080000*%
%ADD20C,0.080000*%
%ADD21R,0.149900X0.193200*%
%ADD22R,0.173500X0.264100*%
%ADD23C,0.090900*%
%ADD24C,0.170000*%
%ADD25R,0.070000X0.135000*%
%ADD26R,0.155000X0.085000*%
G04 APERTURE END LIST*
G54D10*
G54D11*
X-01976Y03146D02*
X-01976Y03489D01*
X-01176Y03318D02*
X-01976Y03318D01*
X-01710Y03946D02*
X-01176Y03946D01*
X-01710Y03689D02*
X-01290Y03689D01*
X-01214Y03717D01*
X-01176Y03775D01*
X-01176Y03860D01*
X-01214Y03917D01*
X-01252Y03946D01*
X-01176Y04232D02*
X-01710Y04232D01*
X-01557Y04232D02*
X-01633Y04260D01*
X-01671Y04289D01*
X-01710Y04346D01*
X-01710Y04403D01*
X-01710Y04517D02*
X-01710Y04746D01*
X-01976Y04603D02*
X-01290Y04603D01*
X-01214Y04631D01*
X-01176Y04689D01*
X-01176Y04746D01*
X-01176Y05032D02*
X-01214Y04974D01*
X-01290Y04946D01*
X-01976Y04946D01*
X-01214Y05488D02*
X-01176Y05431D01*
X-01176Y05317D01*
X-01214Y05260D01*
X-01290Y05231D01*
X-01595Y05231D01*
X-01671Y05260D01*
X-01710Y05317D01*
X-01710Y05431D01*
X-01671Y05488D01*
X-01595Y05517D01*
X-01519Y05517D01*
X-01443Y05231D01*
X-01595Y05974D02*
X-01557Y06060D01*
X-01519Y06088D01*
X-01443Y06117D01*
X-01329Y06117D01*
X-01252Y06088D01*
X-01214Y06060D01*
X-01176Y06002D01*
X-01176Y05774D01*
X-01976Y05774D01*
X-01976Y05974D01*
X-01938Y06031D01*
X-01900Y06060D01*
X-01824Y06088D01*
X-01748Y06088D01*
X-01671Y06060D01*
X-01633Y06031D01*
X-01595Y05974D01*
X-01595Y05774D01*
X-01176Y06460D02*
X-01214Y06402D01*
X-01252Y06374D01*
X-01329Y06345D01*
X-01557Y06345D01*
X-01633Y06374D01*
X-01671Y06402D01*
X-01710Y06460D01*
X-01710Y06545D01*
X-01671Y06602D01*
X-01633Y06631D01*
X-01557Y06660D01*
X-01329Y06660D01*
X-01252Y06631D01*
X-01214Y06602D01*
X-01176Y06545D01*
X-01176Y06460D01*
X-01710Y06831D02*
X-01710Y07060D01*
X-01976Y06917D02*
X-01290Y06917D01*
X-01214Y06945D01*
X-01176Y07003D01*
X-01176Y07060D01*
X-01176Y07717D02*
X-01976Y07717D01*
X-01976Y07945D01*
X-01938Y08003D01*
X-01900Y08031D01*
X-01824Y08060D01*
X-01710Y08060D01*
X-01633Y08031D01*
X-01595Y08003D01*
X-01557Y07945D01*
X-01557Y07717D01*
X-01176Y08403D02*
X-01214Y08345D01*
X-01252Y08317D01*
X-01329Y08288D01*
X-01557Y08288D01*
X-01633Y08317D01*
X-01671Y08345D01*
X-01710Y08403D01*
X-01710Y08488D01*
X-01671Y08545D01*
X-01633Y08574D01*
X-01557Y08603D01*
X-01329Y08603D01*
X-01252Y08574D01*
X-01214Y08545D01*
X-01176Y08488D01*
X-01176Y08403D01*
X-01710Y08803D02*
X-01176Y08917D01*
X-01557Y09031D01*
X-01176Y09146D01*
X-01710Y09260D01*
X-01214Y09717D02*
X-01176Y09660D01*
X-01176Y09546D01*
X-01214Y09489D01*
X-01290Y09460D01*
X-01595Y09460D01*
X-01671Y09489D01*
X-01710Y09546D01*
X-01710Y09660D01*
X-01671Y09717D01*
X-01595Y09746D01*
X-01519Y09746D01*
X-01443Y09460D01*
X-01176Y10003D02*
X-01710Y10003D01*
X-01557Y10003D02*
X-01633Y10031D01*
X-01671Y10060D01*
X-01710Y10117D01*
X-01710Y10174D01*
X-01214Y10802D02*
X-01176Y10888D01*
X-01176Y11031D01*
X-01214Y11088D01*
X-01252Y11117D01*
X-01329Y11145D01*
X-01405Y11145D01*
X-01481Y11117D01*
X-01519Y11088D01*
X-01557Y11031D01*
X-01595Y10917D01*
X-01633Y10859D01*
X-01671Y10831D01*
X-01748Y10802D01*
X-01824Y10802D01*
X-01900Y10831D01*
X-01938Y10859D01*
X-01976Y10917D01*
X-01976Y11059D01*
X-01938Y11145D01*
X-01710Y11402D02*
X-00910Y11402D01*
X-01671Y11402D02*
X-01710Y11459D01*
X-01710Y11573D01*
X-01671Y11630D01*
X-01633Y11659D01*
X-01557Y11688D01*
X-01329Y11688D01*
X-01252Y11659D01*
X-01214Y11630D01*
X-01176Y11573D01*
X-01176Y11459D01*
X-01214Y11402D01*
X-01176Y12031D02*
X-01214Y11973D01*
X-01290Y11945D01*
X-01976Y11945D01*
X-01176Y12259D02*
X-01710Y12259D01*
X-01976Y12259D02*
X-01938Y12230D01*
X-01900Y12259D01*
X-01938Y12287D01*
X-01976Y12259D01*
X-01900Y12259D01*
X-01710Y12459D02*
X-01710Y12688D01*
X-01976Y12545D02*
X-01290Y12545D01*
X-01214Y12573D01*
X-01176Y12631D01*
X-01176Y12688D01*
X-01710Y12802D02*
X-01710Y13031D01*
X-01976Y12888D02*
X-01290Y12888D01*
X-01214Y12916D01*
X-01176Y12974D01*
X-01176Y13031D01*
X-01214Y13459D02*
X-01176Y13402D01*
X-01176Y13288D01*
X-01214Y13231D01*
X-01290Y13202D01*
X-01595Y13202D01*
X-01671Y13231D01*
X-01710Y13288D01*
X-01710Y13402D01*
X-01671Y13459D01*
X-01595Y13488D01*
X-01519Y13488D01*
X-01443Y13202D01*
X-01176Y13745D02*
X-01710Y13745D01*
X-01557Y13745D02*
X-01633Y13773D01*
X-01671Y13802D01*
X-01710Y13859D01*
X-01710Y13916D01*
X-03228Y02512D02*
X-02771Y02512D01*
X-03000Y02207D02*
X-03000Y02817D01*
G54D12*
X-09636Y09486D02*
X-09436Y09486D01*
X-09436Y09486D02*
X-09436Y09286D01*
X-11036Y08886D02*
X-11036Y08686D01*
X-11036Y08686D02*
X-10836Y08686D01*
G54D13*
X-10040Y08968D02*
X-10040Y08840D01*
X-10040Y08840D02*
X-09843Y08840D01*
X-09843Y08968D02*
X-09843Y08840D01*
X-10040Y08968D02*
X-09843Y08968D01*
X-10040Y09213D02*
X-10040Y09154D01*
X-10040Y09154D02*
X-09941Y09154D01*
X-09941Y09213D02*
X-09941Y09154D01*
X-10040Y09213D02*
X-09941Y09213D01*
X-10040Y09018D02*
X-10040Y08959D01*
X-10040Y08959D02*
X-09941Y08959D01*
X-09941Y09018D02*
X-09941Y08959D01*
X-10040Y09018D02*
X-09941Y09018D01*
X-10040Y09164D02*
X-10040Y09008D01*
X-10040Y09008D02*
X-09971Y09008D01*
X-09971Y09164D02*
X-09971Y09008D01*
X-10040Y09164D02*
X-09971Y09164D01*
X-10629Y08968D02*
X-10629Y08840D01*
X-10629Y08840D02*
X-10432Y08840D01*
X-10629Y08968D02*
X-10432Y08968D01*
X-10629Y09332D02*
X-10629Y09204D01*
X-10629Y09204D02*
X-10432Y09204D01*
X-10432Y09332D02*
X-10432Y09204D01*
X-10531Y09018D02*
X-10531Y08959D01*
X-10531Y08959D02*
X-10432Y08959D01*
X-10432Y09018D02*
X-10432Y08959D01*
X-10531Y09018D02*
X-10432Y09018D01*
X-10531Y09213D02*
X-10531Y09154D01*
X-10531Y09154D02*
X-10432Y09154D01*
X-10432Y09213D02*
X-10432Y09154D01*
X-10531Y09213D02*
X-10432Y09213D01*
X-10501Y09164D02*
X-10501Y09008D01*
X-10501Y09008D02*
X-10432Y09008D01*
X-10432Y09164D02*
X-10432Y09008D01*
X-10501Y09164D02*
X-10432Y09164D01*
X-10040Y09322D02*
X-10040Y09204D01*
X-10040Y09204D02*
X-09922Y09204D01*
X-09922Y09322D02*
X-09922Y09204D01*
X-10040Y09322D02*
X-09922Y09322D01*
X-09872Y09332D02*
X-09872Y09243D01*
X-09872Y09243D02*
X-09843Y09243D01*
X-09843Y09332D02*
X-09843Y09243D01*
X-09872Y09332D02*
X-09843Y09332D01*
G54D14*
X-09874Y09263D02*
X-09875Y09258D01*
X-09877Y09253D01*
X-09879Y09248D01*
X-09883Y09244D01*
X-09887Y09240D01*
X-09892Y09238D01*
X-09897Y09236D01*
X-09902Y09236D01*
X-09907Y09236D01*
X-09912Y09238D01*
X-09917Y09240D01*
X-09921Y09243D01*
X-09925Y09248D01*
X-09927Y09252D01*
X-09929Y09258D01*
X-09929Y09263D01*
X-09929Y09268D01*
X-09928Y09273D01*
X-09925Y09278D01*
X-09922Y09282D01*
X-09917Y09285D01*
X-09913Y09288D01*
X-09908Y09290D01*
X-09902Y09290D01*
X-09898Y09290D01*
X-09892Y09289D01*
X-09887Y09286D01*
X-09883Y09283D01*
X-09880Y09279D01*
X-09877Y09274D01*
X-09875Y09269D01*
X-09875Y09263D01*
X-09874Y09263D01*
G54D15*
X-09843Y09223D02*
X-09854Y09222D01*
X-09866Y09220D01*
X-09878Y09218D01*
X-09889Y09214D01*
X-09900Y09210D01*
X-09911Y09204D01*
X-09921Y09198D01*
X-09931Y09190D01*
X-09939Y09182D01*
X-09947Y09174D01*
X-09955Y09164D01*
X-09961Y09154D01*
X-09967Y09143D01*
X-09971Y09132D01*
X-09975Y09121D01*
X-09977Y09109D01*
X-09979Y09097D01*
X-09980Y09086D01*
X-09979Y09075D01*
X-09977Y09063D01*
X-09975Y09051D01*
X-09971Y09040D01*
X-09967Y09029D01*
X-09961Y09018D01*
X-09955Y09008D01*
X-09947Y08998D01*
X-09939Y08990D01*
X-09931Y08982D01*
X-09921Y08974D01*
X-09911Y08968D01*
X-09900Y08962D01*
X-09889Y08958D01*
X-09878Y08954D01*
X-09866Y08952D01*
X-09854Y08950D01*
X-09843Y08949D01*
X-10629Y08949D02*
X-10618Y08950D01*
X-10606Y08952D01*
X-10594Y08954D01*
X-10583Y08958D01*
X-10572Y08962D01*
X-10561Y08968D01*
X-10551Y08974D01*
X-10541Y08982D01*
X-10533Y08990D01*
X-10525Y08998D01*
X-10517Y09008D01*
X-10511Y09018D01*
X-10505Y09029D01*
X-10501Y09040D01*
X-10497Y09051D01*
X-10495Y09063D01*
X-10493Y09075D01*
X-10492Y09086D01*
X-10493Y09097D01*
X-10495Y09109D01*
X-10497Y09121D01*
X-10501Y09132D01*
X-10505Y09143D01*
X-10511Y09154D01*
X-10517Y09164D01*
X-10525Y09174D01*
X-10533Y09182D01*
X-10541Y09190D01*
X-10551Y09198D01*
X-10561Y09204D01*
X-10572Y09210D01*
X-10583Y09214D01*
X-10594Y09218D01*
X-10606Y09220D01*
X-10618Y09222D01*
X-10629Y09223D01*
G54D12*
X-07274Y09486D02*
X-07074Y09486D01*
X-07074Y09486D02*
X-07074Y09286D01*
X-08674Y08886D02*
X-08674Y08686D01*
X-08674Y08686D02*
X-08474Y08686D01*
G54D13*
X-07678Y08968D02*
X-07678Y08840D01*
X-07678Y08840D02*
X-07481Y08840D01*
X-07481Y08968D02*
X-07481Y08840D01*
X-07678Y08968D02*
X-07481Y08968D01*
X-07678Y09213D02*
X-07678Y09154D01*
X-07678Y09154D02*
X-07579Y09154D01*
X-07579Y09213D02*
X-07579Y09154D01*
X-07678Y09213D02*
X-07579Y09213D01*
X-07678Y09018D02*
X-07678Y08959D01*
X-07678Y08959D02*
X-07579Y08959D01*
X-07579Y09018D02*
X-07579Y08959D01*
X-07678Y09018D02*
X-07579Y09018D01*
X-07678Y09164D02*
X-07678Y09008D01*
X-07678Y09008D02*
X-07609Y09008D01*
X-07609Y09164D02*
X-07609Y09008D01*
X-07678Y09164D02*
X-07609Y09164D01*
X-08267Y08968D02*
X-08267Y08840D01*
X-08267Y08840D02*
X-08070Y08840D01*
X-08267Y08968D02*
X-08070Y08968D01*
X-08267Y09332D02*
X-08267Y09204D01*
X-08267Y09204D02*
X-08070Y09204D01*
X-08070Y09332D02*
X-08070Y09204D01*
X-08267Y09332D02*
X-08070Y09332D01*
X-08169Y09018D02*
X-08169Y08959D01*
X-08169Y08959D02*
X-08070Y08959D01*
X-08070Y09018D02*
X-08070Y08959D01*
X-08169Y09018D02*
X-08070Y09018D01*
X-08169Y09213D02*
X-08169Y09154D01*
X-08169Y09154D02*
X-08070Y09154D01*
X-08070Y09213D02*
X-08070Y09154D01*
X-08169Y09213D02*
X-08070Y09213D01*
X-08139Y09164D02*
X-08139Y09008D01*
X-08139Y09008D02*
X-08070Y09008D01*
X-08070Y09164D02*
X-08070Y09008D01*
X-08139Y09164D02*
X-08070Y09164D01*
X-07678Y09322D02*
X-07678Y09204D01*
X-07678Y09204D02*
X-07560Y09204D01*
X-07560Y09322D02*
X-07560Y09204D01*
X-07678Y09322D02*
X-07560Y09322D01*
X-07510Y09332D02*
X-07510Y09243D01*
X-07510Y09243D02*
X-07481Y09243D01*
X-07481Y09332D02*
X-07481Y09243D01*
X-07510Y09332D02*
X-07481Y09332D01*
G54D14*
X-07512Y09263D02*
X-07513Y09258D01*
X-07515Y09253D01*
X-07517Y09248D01*
X-07521Y09244D01*
X-07525Y09240D01*
X-07530Y09238D01*
X-07535Y09236D01*
X-07540Y09236D01*
X-07545Y09236D01*
X-07550Y09238D01*
X-07555Y09240D01*
X-07559Y09243D01*
X-07563Y09248D01*
X-07565Y09252D01*
X-07567Y09258D01*
X-07567Y09263D01*
X-07567Y09268D01*
X-07566Y09273D01*
X-07563Y09278D01*
X-07560Y09282D01*
X-07555Y09285D01*
X-07551Y09288D01*
X-07546Y09290D01*
X-07540Y09290D01*
X-07536Y09290D01*
X-07530Y09289D01*
X-07525Y09286D01*
X-07521Y09283D01*
X-07518Y09279D01*
X-07515Y09274D01*
X-07513Y09269D01*
X-07513Y09263D01*
X-07512Y09263D01*
G54D15*
X-07481Y09223D02*
X-07492Y09222D01*
X-07504Y09220D01*
X-07516Y09218D01*
X-07527Y09214D01*
X-07538Y09210D01*
X-07549Y09204D01*
X-07559Y09198D01*
X-07569Y09190D01*
X-07577Y09182D01*
X-07585Y09174D01*
X-07593Y09164D01*
X-07599Y09154D01*
X-07605Y09143D01*
X-07609Y09132D01*
X-07613Y09121D01*
X-07615Y09109D01*
X-07617Y09097D01*
X-07618Y09086D01*
X-07617Y09075D01*
X-07615Y09063D01*
X-07613Y09051D01*
X-07609Y09040D01*
X-07605Y09029D01*
X-07599Y09018D01*
X-07593Y09008D01*
X-07585Y08998D01*
X-07577Y08990D01*
X-07569Y08982D01*
X-07559Y08974D01*
X-07549Y08968D01*
X-07538Y08962D01*
X-07527Y08958D01*
X-07516Y08954D01*
X-07504Y08952D01*
X-07492Y08950D01*
X-07481Y08949D01*
X-08267Y08949D02*
X-08256Y08950D01*
X-08244Y08952D01*
X-08232Y08954D01*
X-08221Y08958D01*
X-08210Y08962D01*
X-08199Y08968D01*
X-08189Y08974D01*
X-08179Y08982D01*
X-08171Y08990D01*
X-08163Y08998D01*
X-08155Y09008D01*
X-08149Y09018D01*
X-08143Y09029D01*
X-08139Y09040D01*
X-08135Y09051D01*
X-08133Y09063D01*
X-08131Y09075D01*
X-08130Y09086D01*
X-08131Y09097D01*
X-08133Y09109D01*
X-08135Y09121D01*
X-08139Y09132D01*
X-08143Y09143D01*
X-08149Y09154D01*
X-08155Y09164D01*
X-08163Y09174D01*
X-08171Y09182D01*
X-08179Y09190D01*
X-08189Y09198D01*
X-08199Y09204D01*
X-08210Y09210D01*
X-08221Y09214D01*
X-08232Y09218D01*
X-08244Y09220D01*
X-08256Y09222D01*
X-08267Y09223D01*
G54D12*
X-05500Y-00219D02*
X-03500Y-00219D01*
X-03500Y-00219D02*
X-03500Y02281D01*
X-03500Y02281D02*
X-05500Y02281D01*
X-05500Y02281D02*
X-05500Y-00219D01*
X-05500Y-00219D02*
X-04250Y-00219D01*
G54D10*
X-05500Y00531D02*
X-05500Y01531D01*
X-03500Y01531D02*
X-03500Y00531D01*
G54D12*
X-10039Y04528D02*
X-09645Y04528D01*
X-09645Y04528D02*
X-09645Y-00197D01*
X-13189Y-00197D02*
X-13189Y04528D01*
X-13189Y04528D02*
X-12795Y04528D01*
X-12401Y05315D02*
X-12795Y05315D01*
X-12795Y05315D02*
X-12795Y04528D01*
X-10039Y04528D02*
X-10039Y05315D01*
X-10039Y05315D02*
X-10433Y05315D01*
X-13189Y-00197D02*
X-09645Y-00197D01*
X-05012Y13010D02*
X-03862Y13010D01*
X-03862Y13010D02*
X-03862Y13610D01*
X-03862Y13610D02*
X-04062Y13610D01*
X-04062Y13610D02*
X-04062Y14360D01*
X-06862Y13610D02*
X-06862Y14360D01*
X-06862Y13610D02*
X-07062Y13610D01*
X-07062Y13610D02*
X-07062Y13010D01*
X-07062Y13010D02*
X-06062Y13010D01*
X-06912Y15560D02*
X-06912Y16860D01*
X-06912Y16860D02*
X-04062Y16860D01*
X-04062Y16860D02*
X-04062Y15560D01*
X-11311Y13010D02*
X-10161Y13010D01*
X-10161Y13010D02*
X-10161Y13610D01*
X-10161Y13610D02*
X-10361Y13610D01*
X-10361Y13610D02*
X-10361Y14360D01*
X-13161Y13610D02*
X-13161Y14360D01*
X-13161Y13610D02*
X-13361Y13610D01*
X-13361Y13610D02*
X-13361Y13010D01*
X-13361Y13010D02*
X-12361Y13010D01*
X-13211Y15560D02*
X-13211Y16860D01*
X-13211Y16860D02*
X-10361Y16860D01*
X-10361Y16860D02*
X-10361Y15560D01*
G54D16*
G54D11*
X-09449Y08351D02*
X-09401Y08304D01*
X-09449Y08256D01*
X-09497Y08304D01*
X-09449Y08351D01*
X-09449Y08256D01*
G54D16*
G54D11*
G54D10*
G54D11*
G54D17*
G54D16*
G54D11*
G54D16*
G54D11*
%LPC*%
G54D18*
X-10649Y09086D03*
X-09823Y09086D03*
X-08287Y09086D03*
X-07461Y09086D03*
G54D19*
X-05000Y01031D03*
G54D20*
X-04000Y01031D03*
G54D21*
X-11417Y05905D03*
G54D22*
X-14094Y02205D03*
X-08740Y02205D03*
G54D23*
X-11417Y00984D03*
G54D24*
X-16338Y15551D03*
X-01181Y15551D03*
X-01220Y00805D03*
X-16338Y00787D03*
G54D25*
X-05512Y12810D03*
X-05512Y11010D03*
G54D26*
X-06962Y14960D03*
X-04062Y14960D03*
G54D25*
X-11811Y12810D03*
X-11811Y11010D03*
G54D26*
X-13261Y14960D03*
X-10361Y14960D03*
M02*
