G04 (created by PCBNEW-RS274X (2011-05-25)-stable) date Mon 06 Feb 2012 01:35:09 PM EST*
G01*
G70*
G90*
%MOIN*%
G04 Gerber Fmt 3.4, Leading zero omitted, Abs format*
%FSLAX34Y34*%
G04 APERTURE LIST*
%ADD10C,0.006000*%
%ADD11R,0.047200X0.047200*%
%ADD12R,0.060000X0.060000*%
%ADD13C,0.060000*%
%ADD14R,0.129900X0.173200*%
%ADD15R,0.153500X0.244100*%
%ADD16C,0.070900*%
%ADD17C,0.150000*%
%ADD18R,0.050000X0.115000*%
%ADD19R,0.135000X0.065000*%
%ADD20C,0.035000*%
%ADD21C,0.040000*%
%ADD22C,0.010000*%
G04 APERTURE END LIST*
G54D10*
G54D11*
X-10649Y09086D03*
X-09823Y09086D03*
X-08287Y09086D03*
X-07461Y09086D03*
G54D12*
X-05000Y01031D03*
G54D13*
X-04000Y01031D03*
G54D14*
X-11417Y05905D03*
G54D15*
X-14094Y02205D03*
X-08740Y02205D03*
G54D16*
X-11417Y00984D03*
G54D17*
X-16338Y15551D03*
X-01181Y15551D03*
X-01220Y00805D03*
X-16338Y00787D03*
G54D18*
X-05512Y12810D03*
X-05512Y11010D03*
G54D19*
X-06962Y14960D03*
X-04062Y14960D03*
G54D18*
X-11811Y12810D03*
X-11811Y11010D03*
G54D19*
X-13261Y14960D03*
X-10361Y14960D03*
G54D20*
X-14500Y11531D03*
X-14500Y10531D03*
X-14500Y09531D03*
X-03500Y08031D03*
X-03500Y09031D03*
X-03500Y10031D03*
G54D21*
X-08740Y02205D02*
X-08500Y02031D01*
X-08500Y02031D02*
X-06000Y02031D01*
X-06000Y02031D02*
X-05000Y01031D01*
X-11811Y12810D02*
X-12000Y13031D01*
X-12000Y13031D02*
X-12500Y13031D01*
X-12500Y13031D02*
X-13000Y12531D01*
X-13000Y12531D02*
X-12992Y09480D01*
X-12992Y09480D02*
X-13000Y08299D01*
X-13000Y08299D02*
X-13000Y03031D01*
X-13000Y03031D02*
X-14000Y02031D01*
X-14000Y02031D02*
X-14094Y02205D01*
X-08740Y02205D02*
X-08500Y02031D01*
X-11811Y12810D02*
X-12000Y13031D01*
X-12000Y13031D02*
X-05500Y13031D01*
X-05500Y13031D02*
X-05512Y12810D01*
X-14094Y02205D02*
X-14000Y02031D01*
X-14000Y02031D02*
X-08500Y02031D01*
X-08500Y02031D02*
X-08740Y02205D01*
X-10649Y09086D02*
X-10700Y09124D01*
X-11879Y11089D02*
X-11811Y11010D01*
X-11879Y10696D02*
X-11879Y11089D01*
X-11093Y09910D02*
X-11879Y10696D01*
X-11093Y09517D02*
X-11093Y09910D01*
X-10700Y09124D02*
X-11093Y09517D01*
X-05512Y11010D02*
X-05500Y11031D01*
X-05500Y11031D02*
X-05500Y03531D01*
X-05500Y03531D02*
X-04000Y02031D01*
X-04000Y02031D02*
X-04000Y01031D01*
X-05512Y11010D02*
X-05500Y11031D01*
X-11811Y11010D02*
X-12000Y11031D01*
X-12000Y11031D02*
X-05500Y11031D01*
X-05500Y11031D02*
X-05512Y11010D01*
X-11811Y11010D02*
X-12000Y11031D01*
X-12000Y11031D02*
X-12000Y06531D01*
X-12000Y06531D02*
X-11500Y06031D01*
X-11500Y06031D02*
X-11417Y05905D01*
X-09823Y09086D02*
X-09914Y09124D01*
X-09914Y09124D02*
X-08342Y09124D01*
X-08342Y09124D02*
X-08287Y09086D01*
G54D10*
G36*
X-00710Y02109D02*
X-00940Y02204D01*
X-01497Y02205D01*
X-02012Y01992D01*
X-02406Y01599D01*
X-02619Y01085D01*
X-02620Y00528D01*
X-02502Y00241D01*
X-02738Y00241D01*
X-02738Y14506D01*
X-02738Y14764D01*
X-02738Y15414D01*
X-02837Y15653D01*
X-03019Y15835D01*
X-03258Y15934D01*
X-03516Y15934D01*
X-04866Y15934D01*
X-05105Y15835D01*
X-05287Y15653D01*
X-05386Y15414D01*
X-05386Y15156D01*
X-05386Y14506D01*
X-05287Y14267D01*
X-05105Y14085D01*
X-04866Y13986D01*
X-04608Y13986D01*
X-03258Y13986D01*
X-03019Y14085D01*
X-02837Y14267D01*
X-02738Y14506D01*
X-02738Y00241D01*
X-03447Y00241D01*
X-03195Y00492D01*
X-03050Y00841D01*
X-03050Y01219D01*
X-03150Y01462D01*
X-03150Y02031D01*
X-03215Y02356D01*
X-03399Y02632D01*
X-04650Y03883D01*
X-04650Y10217D01*
X-04613Y10306D01*
X-04613Y10564D01*
X-04613Y11714D01*
X-04712Y11953D01*
X-04894Y12135D01*
X-05013Y12185D01*
X-05013Y12284D01*
X-05012Y12698D01*
X-05012Y12922D01*
X-05013Y13336D01*
X-05013Y13435D01*
X-05051Y13526D01*
X-05121Y13596D01*
X-05213Y13634D01*
X-05400Y13635D01*
X-05462Y13573D01*
X-05462Y12860D01*
X-05074Y12860D01*
X-05012Y12922D01*
X-05012Y12698D01*
X-05074Y12760D01*
X-05412Y12760D01*
X-05462Y12760D01*
X-05562Y12760D01*
X-05562Y12860D01*
X-05562Y13573D01*
X-05624Y13635D01*
X-05638Y13635D01*
X-05638Y14506D01*
X-05638Y14764D01*
X-05638Y15414D01*
X-05737Y15653D01*
X-05919Y15835D01*
X-06158Y15934D01*
X-06416Y15934D01*
X-07766Y15934D01*
X-08005Y15835D01*
X-08187Y15653D01*
X-08286Y15414D01*
X-08286Y15156D01*
X-08286Y14506D01*
X-08187Y14267D01*
X-08005Y14085D01*
X-07766Y13986D01*
X-07508Y13986D01*
X-06158Y13986D01*
X-05919Y14085D01*
X-05737Y14267D01*
X-05638Y14506D01*
X-05638Y13635D01*
X-05811Y13634D01*
X-05903Y13596D01*
X-05973Y13526D01*
X-06011Y13435D01*
X-06011Y13336D01*
X-06012Y12922D01*
X-05950Y12860D01*
X-05562Y12860D01*
X-05562Y12760D01*
X-05612Y12760D01*
X-05950Y12760D01*
X-06012Y12698D01*
X-06011Y12284D01*
X-06011Y12185D01*
X-06130Y12135D01*
X-06312Y11953D01*
X-06342Y11881D01*
X-09037Y11881D01*
X-09037Y14506D01*
X-09037Y14764D01*
X-09037Y15414D01*
X-09136Y15653D01*
X-09318Y15835D01*
X-09557Y15934D01*
X-09815Y15934D01*
X-11165Y15934D01*
X-11404Y15835D01*
X-11586Y15653D01*
X-11685Y15414D01*
X-11685Y15156D01*
X-11685Y14506D01*
X-11586Y14267D01*
X-11404Y14085D01*
X-11165Y13986D01*
X-10907Y13986D01*
X-09557Y13986D01*
X-09318Y14085D01*
X-09136Y14267D01*
X-09037Y14506D01*
X-09037Y11881D01*
X-10982Y11881D01*
X-11011Y11953D01*
X-11193Y12135D01*
X-11312Y12185D01*
X-11312Y12284D01*
X-11311Y12698D01*
X-11311Y12922D01*
X-11312Y13336D01*
X-11312Y13435D01*
X-11350Y13526D01*
X-11420Y13596D01*
X-11512Y13634D01*
X-11699Y13635D01*
X-11761Y13573D01*
X-11761Y12860D01*
X-11373Y12860D01*
X-11311Y12922D01*
X-11311Y12698D01*
X-11373Y12760D01*
X-11711Y12760D01*
X-11761Y12760D01*
X-11861Y12760D01*
X-11861Y12860D01*
X-11861Y13573D01*
X-11923Y13635D01*
X-11937Y13635D01*
X-11937Y14506D01*
X-11937Y14764D01*
X-11937Y15414D01*
X-12036Y15653D01*
X-12218Y15835D01*
X-12457Y15934D01*
X-12715Y15934D01*
X-14065Y15934D01*
X-14304Y15835D01*
X-14486Y15653D01*
X-14585Y15414D01*
X-14585Y15156D01*
X-14585Y14506D01*
X-14486Y14267D01*
X-14304Y14085D01*
X-14065Y13986D01*
X-13807Y13986D01*
X-12457Y13986D01*
X-12218Y14085D01*
X-12036Y14267D01*
X-11937Y14506D01*
X-11937Y13635D01*
X-12110Y13634D01*
X-12202Y13596D01*
X-12272Y13526D01*
X-12310Y13435D01*
X-12310Y13336D01*
X-12311Y12922D01*
X-12249Y12860D01*
X-11861Y12860D01*
X-11861Y12760D01*
X-11911Y12760D01*
X-12249Y12760D01*
X-12311Y12698D01*
X-12310Y12284D01*
X-12310Y12185D01*
X-12429Y12135D01*
X-12611Y11953D01*
X-12710Y11714D01*
X-12710Y11482D01*
X-12745Y11440D01*
X-12760Y11395D01*
X-12785Y11356D01*
X-12809Y11241D01*
X-12845Y11124D01*
X-12841Y11077D01*
X-12850Y11031D01*
X-12850Y06531D01*
X-12785Y06206D01*
X-12715Y06101D01*
X-12715Y04910D01*
X-12616Y04671D01*
X-12434Y04489D01*
X-12195Y04390D01*
X-11937Y04390D01*
X-10639Y04390D01*
X-10400Y04489D01*
X-10218Y04671D01*
X-10119Y04910D01*
X-10119Y05168D01*
X-10119Y06900D01*
X-10218Y07139D01*
X-10400Y07321D01*
X-10639Y07420D01*
X-10897Y07420D01*
X-11150Y07420D01*
X-11150Y08258D01*
X-11014Y08201D01*
X-10756Y08201D01*
X-10284Y08201D01*
X-10236Y08221D01*
X-10188Y08201D01*
X-09930Y08201D01*
X-09458Y08201D01*
X-09282Y08274D01*
X-08829Y08274D01*
X-08652Y08201D01*
X-08394Y08201D01*
X-07922Y08201D01*
X-07683Y08300D01*
X-07501Y08482D01*
X-07453Y08600D01*
X-07361Y08600D01*
X-07361Y08612D01*
X-07349Y08600D01*
X-07176Y08601D01*
X-07084Y08639D01*
X-07014Y08709D01*
X-06976Y08800D01*
X-06976Y08899D01*
X-06975Y08974D01*
X-07037Y09036D01*
X-07361Y09036D01*
X-07402Y09036D01*
X-07402Y09136D01*
X-07361Y09136D01*
X-07037Y09136D01*
X-06975Y09198D01*
X-06976Y09273D01*
X-06976Y09372D01*
X-07014Y09463D01*
X-07084Y09533D01*
X-07176Y09571D01*
X-07349Y09572D01*
X-07361Y09560D01*
X-07361Y09572D01*
X-07453Y09572D01*
X-07501Y09690D01*
X-07683Y09872D01*
X-07922Y09971D01*
X-08180Y09971D01*
X-08327Y09971D01*
X-08342Y09974D01*
X-09911Y09974D01*
X-09914Y09974D01*
X-09929Y09971D01*
X-10188Y09971D01*
X-10236Y09952D01*
X-10253Y09958D01*
X-10253Y09959D01*
X-10298Y10181D01*
X-06360Y10181D01*
X-06350Y10159D01*
X-06350Y03531D01*
X-06285Y03206D01*
X-06101Y02930D01*
X-04850Y01679D01*
X-04850Y01581D01*
X-04888Y01581D01*
X-04950Y01519D01*
X-04950Y01221D01*
X-04950Y01131D01*
X-04950Y01081D01*
X-04950Y00981D01*
X-04950Y00931D01*
X-04950Y00843D01*
X-04950Y00543D01*
X-04888Y00481D01*
X-04794Y00482D01*
X-04554Y00241D01*
X-05050Y00241D01*
X-05050Y00543D01*
X-05050Y00981D01*
X-05050Y01081D01*
X-05050Y01519D01*
X-05112Y01581D01*
X-05349Y01580D01*
X-05441Y01542D01*
X-05511Y01472D01*
X-05549Y01381D01*
X-05549Y01282D01*
X-05550Y01143D01*
X-05488Y01081D01*
X-05050Y01081D01*
X-05050Y00981D01*
X-05488Y00981D01*
X-05550Y00919D01*
X-05549Y00780D01*
X-05549Y00681D01*
X-05511Y00590D01*
X-05441Y00520D01*
X-05349Y00482D01*
X-05112Y00481D01*
X-05050Y00543D01*
X-05050Y00241D01*
X-07723Y00241D01*
X-07723Y02093D01*
X-07723Y02317D01*
X-07724Y03376D01*
X-07724Y03475D01*
X-07762Y03566D01*
X-07832Y03636D01*
X-07924Y03674D01*
X-08628Y03675D01*
X-08690Y03613D01*
X-08690Y02255D01*
X-07785Y02255D01*
X-07723Y02317D01*
X-07723Y02093D01*
X-07785Y02155D01*
X-08690Y02155D01*
X-08690Y00797D01*
X-08628Y00735D01*
X-07924Y00736D01*
X-07832Y00774D01*
X-07762Y00844D01*
X-07724Y00935D01*
X-07724Y01034D01*
X-07723Y02093D01*
X-07723Y00241D01*
X-08790Y00241D01*
X-08790Y00797D01*
X-08790Y02155D01*
X-08790Y02255D01*
X-08790Y03613D01*
X-08852Y03675D01*
X-09556Y03674D01*
X-09648Y03636D01*
X-09718Y03566D01*
X-09756Y03475D01*
X-09756Y03376D01*
X-09757Y02317D01*
X-09695Y02255D01*
X-08790Y02255D01*
X-08790Y02155D01*
X-09695Y02155D01*
X-09757Y02093D01*
X-09756Y01034D01*
X-09756Y00935D01*
X-09718Y00844D01*
X-09648Y00774D01*
X-09556Y00736D01*
X-08852Y00735D01*
X-08790Y00797D01*
X-08790Y00241D01*
X-10741Y00241D01*
X-10566Y00415D01*
X-10413Y00784D01*
X-10413Y01183D01*
X-10566Y01552D01*
X-10848Y01835D01*
X-11217Y01988D01*
X-11616Y01988D01*
X-11985Y01835D01*
X-12268Y01553D01*
X-12421Y01184D01*
X-12421Y00785D01*
X-12268Y00416D01*
X-12094Y00241D01*
X-13077Y00241D01*
X-13077Y02093D01*
X-13077Y02317D01*
X-13078Y03376D01*
X-13078Y03475D01*
X-13116Y03566D01*
X-13186Y03636D01*
X-13278Y03674D01*
X-13982Y03675D01*
X-14044Y03613D01*
X-14044Y02255D01*
X-13139Y02255D01*
X-13077Y02317D01*
X-13077Y02093D01*
X-13139Y02155D01*
X-14044Y02155D01*
X-14044Y00797D01*
X-13982Y00735D01*
X-13278Y00736D01*
X-13186Y00774D01*
X-13116Y00844D01*
X-13078Y00935D01*
X-13078Y01034D01*
X-13077Y02093D01*
X-13077Y00241D01*
X-15050Y00241D01*
X-14939Y00507D01*
X-14939Y00748D01*
X-14910Y00736D01*
X-14206Y00735D01*
X-14144Y00797D01*
X-14144Y02155D01*
X-14144Y02255D01*
X-14144Y03613D01*
X-14206Y03675D01*
X-14910Y03674D01*
X-15002Y03636D01*
X-15072Y03566D01*
X-15110Y03475D01*
X-15110Y03376D01*
X-15111Y02317D01*
X-15049Y02255D01*
X-14144Y02255D01*
X-14144Y02155D01*
X-15049Y02155D01*
X-15111Y02093D01*
X-15111Y01481D01*
X-15151Y01579D01*
X-15544Y01973D01*
X-16058Y02186D01*
X-16615Y02187D01*
X-16790Y02115D01*
X-16790Y14224D01*
X-16618Y14152D01*
X-16061Y14151D01*
X-15546Y14364D01*
X-15152Y14757D01*
X-14939Y15271D01*
X-14938Y15828D01*
X-15142Y16321D01*
X-02377Y16321D01*
X-02580Y15831D01*
X-02581Y15274D01*
X-02368Y14759D01*
X-01975Y14365D01*
X-01461Y14152D01*
X-00904Y14151D01*
X-00710Y14232D01*
X-00710Y02109D01*
X-00710Y02109D01*
G37*
G54D22*
X-00710Y02109D02*
X-00940Y02204D01*
X-01497Y02205D01*
X-02012Y01992D01*
X-02406Y01599D01*
X-02619Y01085D01*
X-02620Y00528D01*
X-02502Y00241D01*
X-02738Y00241D01*
X-02738Y14506D01*
X-02738Y14764D01*
X-02738Y15414D01*
X-02837Y15653D01*
X-03019Y15835D01*
X-03258Y15934D01*
X-03516Y15934D01*
X-04866Y15934D01*
X-05105Y15835D01*
X-05287Y15653D01*
X-05386Y15414D01*
X-05386Y15156D01*
X-05386Y14506D01*
X-05287Y14267D01*
X-05105Y14085D01*
X-04866Y13986D01*
X-04608Y13986D01*
X-03258Y13986D01*
X-03019Y14085D01*
X-02837Y14267D01*
X-02738Y14506D01*
X-02738Y00241D01*
X-03447Y00241D01*
X-03195Y00492D01*
X-03050Y00841D01*
X-03050Y01219D01*
X-03150Y01462D01*
X-03150Y02031D01*
X-03215Y02356D01*
X-03399Y02632D01*
X-04650Y03883D01*
X-04650Y10217D01*
X-04613Y10306D01*
X-04613Y10564D01*
X-04613Y11714D01*
X-04712Y11953D01*
X-04894Y12135D01*
X-05013Y12185D01*
X-05013Y12284D01*
X-05012Y12698D01*
X-05012Y12922D01*
X-05013Y13336D01*
X-05013Y13435D01*
X-05051Y13526D01*
X-05121Y13596D01*
X-05213Y13634D01*
X-05400Y13635D01*
X-05462Y13573D01*
X-05462Y12860D01*
X-05074Y12860D01*
X-05012Y12922D01*
X-05012Y12698D01*
X-05074Y12760D01*
X-05412Y12760D01*
X-05462Y12760D01*
X-05562Y12760D01*
X-05562Y12860D01*
X-05562Y13573D01*
X-05624Y13635D01*
X-05638Y13635D01*
X-05638Y14506D01*
X-05638Y14764D01*
X-05638Y15414D01*
X-05737Y15653D01*
X-05919Y15835D01*
X-06158Y15934D01*
X-06416Y15934D01*
X-07766Y15934D01*
X-08005Y15835D01*
X-08187Y15653D01*
X-08286Y15414D01*
X-08286Y15156D01*
X-08286Y14506D01*
X-08187Y14267D01*
X-08005Y14085D01*
X-07766Y13986D01*
X-07508Y13986D01*
X-06158Y13986D01*
X-05919Y14085D01*
X-05737Y14267D01*
X-05638Y14506D01*
X-05638Y13635D01*
X-05811Y13634D01*
X-05903Y13596D01*
X-05973Y13526D01*
X-06011Y13435D01*
X-06011Y13336D01*
X-06012Y12922D01*
X-05950Y12860D01*
X-05562Y12860D01*
X-05562Y12760D01*
X-05612Y12760D01*
X-05950Y12760D01*
X-06012Y12698D01*
X-06011Y12284D01*
X-06011Y12185D01*
X-06130Y12135D01*
X-06312Y11953D01*
X-06342Y11881D01*
X-09037Y11881D01*
X-09037Y14506D01*
X-09037Y14764D01*
X-09037Y15414D01*
X-09136Y15653D01*
X-09318Y15835D01*
X-09557Y15934D01*
X-09815Y15934D01*
X-11165Y15934D01*
X-11404Y15835D01*
X-11586Y15653D01*
X-11685Y15414D01*
X-11685Y15156D01*
X-11685Y14506D01*
X-11586Y14267D01*
X-11404Y14085D01*
X-11165Y13986D01*
X-10907Y13986D01*
X-09557Y13986D01*
X-09318Y14085D01*
X-09136Y14267D01*
X-09037Y14506D01*
X-09037Y11881D01*
X-10982Y11881D01*
X-11011Y11953D01*
X-11193Y12135D01*
X-11312Y12185D01*
X-11312Y12284D01*
X-11311Y12698D01*
X-11311Y12922D01*
X-11312Y13336D01*
X-11312Y13435D01*
X-11350Y13526D01*
X-11420Y13596D01*
X-11512Y13634D01*
X-11699Y13635D01*
X-11761Y13573D01*
X-11761Y12860D01*
X-11373Y12860D01*
X-11311Y12922D01*
X-11311Y12698D01*
X-11373Y12760D01*
X-11711Y12760D01*
X-11761Y12760D01*
X-11861Y12760D01*
X-11861Y12860D01*
X-11861Y13573D01*
X-11923Y13635D01*
X-11937Y13635D01*
X-11937Y14506D01*
X-11937Y14764D01*
X-11937Y15414D01*
X-12036Y15653D01*
X-12218Y15835D01*
X-12457Y15934D01*
X-12715Y15934D01*
X-14065Y15934D01*
X-14304Y15835D01*
X-14486Y15653D01*
X-14585Y15414D01*
X-14585Y15156D01*
X-14585Y14506D01*
X-14486Y14267D01*
X-14304Y14085D01*
X-14065Y13986D01*
X-13807Y13986D01*
X-12457Y13986D01*
X-12218Y14085D01*
X-12036Y14267D01*
X-11937Y14506D01*
X-11937Y13635D01*
X-12110Y13634D01*
X-12202Y13596D01*
X-12272Y13526D01*
X-12310Y13435D01*
X-12310Y13336D01*
X-12311Y12922D01*
X-12249Y12860D01*
X-11861Y12860D01*
X-11861Y12760D01*
X-11911Y12760D01*
X-12249Y12760D01*
X-12311Y12698D01*
X-12310Y12284D01*
X-12310Y12185D01*
X-12429Y12135D01*
X-12611Y11953D01*
X-12710Y11714D01*
X-12710Y11482D01*
X-12745Y11440D01*
X-12760Y11395D01*
X-12785Y11356D01*
X-12809Y11241D01*
X-12845Y11124D01*
X-12841Y11077D01*
X-12850Y11031D01*
X-12850Y06531D01*
X-12785Y06206D01*
X-12715Y06101D01*
X-12715Y04910D01*
X-12616Y04671D01*
X-12434Y04489D01*
X-12195Y04390D01*
X-11937Y04390D01*
X-10639Y04390D01*
X-10400Y04489D01*
X-10218Y04671D01*
X-10119Y04910D01*
X-10119Y05168D01*
X-10119Y06900D01*
X-10218Y07139D01*
X-10400Y07321D01*
X-10639Y07420D01*
X-10897Y07420D01*
X-11150Y07420D01*
X-11150Y08258D01*
X-11014Y08201D01*
X-10756Y08201D01*
X-10284Y08201D01*
X-10236Y08221D01*
X-10188Y08201D01*
X-09930Y08201D01*
X-09458Y08201D01*
X-09282Y08274D01*
X-08829Y08274D01*
X-08652Y08201D01*
X-08394Y08201D01*
X-07922Y08201D01*
X-07683Y08300D01*
X-07501Y08482D01*
X-07453Y08600D01*
X-07361Y08600D01*
X-07361Y08612D01*
X-07349Y08600D01*
X-07176Y08601D01*
X-07084Y08639D01*
X-07014Y08709D01*
X-06976Y08800D01*
X-06976Y08899D01*
X-06975Y08974D01*
X-07037Y09036D01*
X-07361Y09036D01*
X-07402Y09036D01*
X-07402Y09136D01*
X-07361Y09136D01*
X-07037Y09136D01*
X-06975Y09198D01*
X-06976Y09273D01*
X-06976Y09372D01*
X-07014Y09463D01*
X-07084Y09533D01*
X-07176Y09571D01*
X-07349Y09572D01*
X-07361Y09560D01*
X-07361Y09572D01*
X-07453Y09572D01*
X-07501Y09690D01*
X-07683Y09872D01*
X-07922Y09971D01*
X-08180Y09971D01*
X-08327Y09971D01*
X-08342Y09974D01*
X-09911Y09974D01*
X-09914Y09974D01*
X-09929Y09971D01*
X-10188Y09971D01*
X-10236Y09952D01*
X-10253Y09958D01*
X-10253Y09959D01*
X-10298Y10181D01*
X-06360Y10181D01*
X-06350Y10159D01*
X-06350Y03531D01*
X-06285Y03206D01*
X-06101Y02930D01*
X-04850Y01679D01*
X-04850Y01581D01*
X-04888Y01581D01*
X-04950Y01519D01*
X-04950Y01221D01*
X-04950Y01131D01*
X-04950Y01081D01*
X-04950Y00981D01*
X-04950Y00931D01*
X-04950Y00843D01*
X-04950Y00543D01*
X-04888Y00481D01*
X-04794Y00482D01*
X-04554Y00241D01*
X-05050Y00241D01*
X-05050Y00543D01*
X-05050Y00981D01*
X-05050Y01081D01*
X-05050Y01519D01*
X-05112Y01581D01*
X-05349Y01580D01*
X-05441Y01542D01*
X-05511Y01472D01*
X-05549Y01381D01*
X-05549Y01282D01*
X-05550Y01143D01*
X-05488Y01081D01*
X-05050Y01081D01*
X-05050Y00981D01*
X-05488Y00981D01*
X-05550Y00919D01*
X-05549Y00780D01*
X-05549Y00681D01*
X-05511Y00590D01*
X-05441Y00520D01*
X-05349Y00482D01*
X-05112Y00481D01*
X-05050Y00543D01*
X-05050Y00241D01*
X-07723Y00241D01*
X-07723Y02093D01*
X-07723Y02317D01*
X-07724Y03376D01*
X-07724Y03475D01*
X-07762Y03566D01*
X-07832Y03636D01*
X-07924Y03674D01*
X-08628Y03675D01*
X-08690Y03613D01*
X-08690Y02255D01*
X-07785Y02255D01*
X-07723Y02317D01*
X-07723Y02093D01*
X-07785Y02155D01*
X-08690Y02155D01*
X-08690Y00797D01*
X-08628Y00735D01*
X-07924Y00736D01*
X-07832Y00774D01*
X-07762Y00844D01*
X-07724Y00935D01*
X-07724Y01034D01*
X-07723Y02093D01*
X-07723Y00241D01*
X-08790Y00241D01*
X-08790Y00797D01*
X-08790Y02155D01*
X-08790Y02255D01*
X-08790Y03613D01*
X-08852Y03675D01*
X-09556Y03674D01*
X-09648Y03636D01*
X-09718Y03566D01*
X-09756Y03475D01*
X-09756Y03376D01*
X-09757Y02317D01*
X-09695Y02255D01*
X-08790Y02255D01*
X-08790Y02155D01*
X-09695Y02155D01*
X-09757Y02093D01*
X-09756Y01034D01*
X-09756Y00935D01*
X-09718Y00844D01*
X-09648Y00774D01*
X-09556Y00736D01*
X-08852Y00735D01*
X-08790Y00797D01*
X-08790Y00241D01*
X-10741Y00241D01*
X-10566Y00415D01*
X-10413Y00784D01*
X-10413Y01183D01*
X-10566Y01552D01*
X-10848Y01835D01*
X-11217Y01988D01*
X-11616Y01988D01*
X-11985Y01835D01*
X-12268Y01553D01*
X-12421Y01184D01*
X-12421Y00785D01*
X-12268Y00416D01*
X-12094Y00241D01*
X-13077Y00241D01*
X-13077Y02093D01*
X-13077Y02317D01*
X-13078Y03376D01*
X-13078Y03475D01*
X-13116Y03566D01*
X-13186Y03636D01*
X-13278Y03674D01*
X-13982Y03675D01*
X-14044Y03613D01*
X-14044Y02255D01*
X-13139Y02255D01*
X-13077Y02317D01*
X-13077Y02093D01*
X-13139Y02155D01*
X-14044Y02155D01*
X-14044Y00797D01*
X-13982Y00735D01*
X-13278Y00736D01*
X-13186Y00774D01*
X-13116Y00844D01*
X-13078Y00935D01*
X-13078Y01034D01*
X-13077Y02093D01*
X-13077Y00241D01*
X-15050Y00241D01*
X-14939Y00507D01*
X-14939Y00748D01*
X-14910Y00736D01*
X-14206Y00735D01*
X-14144Y00797D01*
X-14144Y02155D01*
X-14144Y02255D01*
X-14144Y03613D01*
X-14206Y03675D01*
X-14910Y03674D01*
X-15002Y03636D01*
X-15072Y03566D01*
X-15110Y03475D01*
X-15110Y03376D01*
X-15111Y02317D01*
X-15049Y02255D01*
X-14144Y02255D01*
X-14144Y02155D01*
X-15049Y02155D01*
X-15111Y02093D01*
X-15111Y01481D01*
X-15151Y01579D01*
X-15544Y01973D01*
X-16058Y02186D01*
X-16615Y02187D01*
X-16790Y02115D01*
X-16790Y14224D01*
X-16618Y14152D01*
X-16061Y14151D01*
X-15546Y14364D01*
X-15152Y14757D01*
X-14939Y15271D01*
X-14938Y15828D01*
X-15142Y16321D01*
X-02377Y16321D01*
X-02580Y15831D01*
X-02581Y15274D01*
X-02368Y14759D01*
X-01975Y14365D01*
X-01461Y14152D01*
X-00904Y14151D01*
X-00710Y14232D01*
X-00710Y02109D01*
M02*
