G04 (created by PCBNEW-RS274X (2011-nov-30)-testing) date Mon 30 Apr 2012 11:55:02 PM EDT*
G01*
G70*
G90*
%MOIN*%
G04 Gerber Fmt 3.4, Leading zero omitted, Abs format*
%FSLAX34Y34*%
G04 APERTURE LIST*
%ADD10C,0.006000*%
%ADD11R,0.067200X0.067200*%
%ADD12C,0.080000*%
%ADD13C,0.071200*%
%ADD14C,0.115300*%
%ADD15C,0.185400*%
%ADD16C,0.153900*%
%ADD17R,0.070000X0.036000*%
%ADD18R,0.118400X0.264100*%
%ADD19C,0.075000*%
%ADD20R,0.050000X0.040000*%
%ADD21R,0.169600X0.067200*%
%ADD22R,0.075000X0.055000*%
%ADD23R,0.055000X0.075000*%
%ADD24R,0.031800X0.083000*%
%ADD25C,0.086000*%
G04 APERTURE END LIST*
G54D10*
G54D11*
X00945Y53917D03*
X01771Y53917D03*
G54D10*
G36*
X-17184Y42203D02*
X-17414Y42835D01*
X-16782Y43065D01*
X-16552Y42433D01*
X-17184Y42203D01*
X-17184Y42203D01*
G37*
G36*
X-16408Y42485D02*
X-16638Y43117D01*
X-16006Y43347D01*
X-15776Y42715D01*
X-16408Y42485D01*
X-16408Y42485D01*
G37*
G36*
X-16711Y41101D02*
X-16941Y41733D01*
X-16309Y41963D01*
X-16079Y41331D01*
X-16711Y41101D01*
X-16711Y41101D01*
G37*
G36*
X-15935Y41383D02*
X-16165Y42015D01*
X-15533Y42245D01*
X-15303Y41613D01*
X-15935Y41383D01*
X-15935Y41383D01*
G37*
G54D11*
X08189Y49389D03*
X09015Y49389D03*
G54D12*
X-18224Y46972D03*
X-18988Y48803D03*
X-18615Y47892D03*
X-19535Y47502D03*
X-19162Y46591D03*
G54D10*
G36*
X-19402Y48210D02*
X-20138Y47898D01*
X-20450Y48634D01*
X-19714Y48946D01*
X-19402Y48210D01*
X-19402Y48210D01*
G37*
G54D12*
X-02764Y53917D03*
X-01764Y53917D03*
G54D13*
X-11067Y49872D03*
X-10652Y48766D03*
G54D14*
X-10832Y51747D03*
X-12422Y51168D03*
G54D15*
X-08760Y54547D03*
X08720Y54311D03*
G54D16*
X-16241Y44488D03*
X23621Y40945D03*
X21653Y37402D03*
X-14765Y40650D03*
G54D10*
G36*
X02421Y46672D02*
X02155Y46938D01*
X02781Y47564D01*
X03047Y47298D01*
X02421Y46672D01*
X02421Y46672D01*
G37*
G36*
X02198Y46895D02*
X01932Y47161D01*
X02558Y47787D01*
X02824Y47521D01*
X02198Y46895D01*
X02198Y46895D01*
G37*
G36*
X01976Y47118D02*
X01710Y47384D01*
X02336Y48010D01*
X02602Y47744D01*
X01976Y47118D01*
X01976Y47118D01*
G37*
G36*
X01753Y47341D02*
X01487Y47607D01*
X02113Y48233D01*
X02379Y47967D01*
X01753Y47341D01*
X01753Y47341D01*
G37*
G36*
X01530Y47563D02*
X01264Y47829D01*
X01890Y48455D01*
X02156Y48189D01*
X01530Y47563D01*
X01530Y47563D01*
G37*
G36*
X01308Y47786D02*
X01042Y48052D01*
X01668Y48678D01*
X01934Y48412D01*
X01308Y47786D01*
X01308Y47786D01*
G37*
G36*
X01085Y48009D02*
X00819Y48275D01*
X01445Y48901D01*
X01711Y48635D01*
X01085Y48009D01*
X01085Y48009D01*
G37*
G36*
X00862Y48232D02*
X00596Y48498D01*
X01222Y49124D01*
X01488Y48858D01*
X00862Y48232D01*
X00862Y48232D01*
G37*
G36*
X03526Y50893D02*
X03260Y51159D01*
X03886Y51785D01*
X04152Y51519D01*
X03526Y50893D01*
X03526Y50893D01*
G37*
G36*
X05089Y49330D02*
X04823Y49596D01*
X05449Y50222D01*
X05715Y49956D01*
X05089Y49330D01*
X05089Y49330D01*
G37*
G36*
X04863Y49557D02*
X04597Y49823D01*
X05223Y50449D01*
X05489Y50183D01*
X04863Y49557D01*
X04863Y49557D01*
G37*
G36*
X04637Y49783D02*
X04371Y50049D01*
X04997Y50675D01*
X05263Y50409D01*
X04637Y49783D01*
X04637Y49783D01*
G37*
G36*
X04417Y50002D02*
X04151Y50268D01*
X04777Y50894D01*
X05043Y50628D01*
X04417Y50002D01*
X04417Y50002D01*
G37*
G36*
X04191Y50228D02*
X03925Y50494D01*
X04551Y51120D01*
X04817Y50854D01*
X04191Y50228D01*
X04191Y50228D01*
G37*
G36*
X03972Y50448D02*
X03706Y50714D01*
X04332Y51340D01*
X04598Y51074D01*
X03972Y50448D01*
X03972Y50448D01*
G37*
G36*
X03746Y50674D02*
X03480Y50940D01*
X04106Y51566D01*
X04372Y51300D01*
X03746Y50674D01*
X03746Y50674D01*
G37*
G36*
X01263Y49316D02*
X00637Y49942D01*
X00903Y50208D01*
X01529Y49582D01*
X01263Y49316D01*
X01263Y49316D01*
G37*
G36*
X01475Y49528D02*
X00849Y50154D01*
X01115Y50420D01*
X01741Y49794D01*
X01475Y49528D01*
X01475Y49528D01*
G37*
G36*
X01705Y49758D02*
X01079Y50384D01*
X01345Y50650D01*
X01971Y50024D01*
X01705Y49758D01*
X01705Y49758D01*
G37*
G36*
X01917Y49970D02*
X01291Y50596D01*
X01557Y50862D01*
X02183Y50236D01*
X01917Y49970D01*
X01917Y49970D01*
G37*
G36*
X02146Y50199D02*
X01520Y50825D01*
X01786Y51091D01*
X02412Y50465D01*
X02146Y50199D01*
X02146Y50199D01*
G37*
G36*
X02368Y50421D02*
X01742Y51047D01*
X02008Y51313D01*
X02634Y50687D01*
X02368Y50421D01*
X02368Y50421D01*
G37*
G36*
X02591Y50644D02*
X01965Y51270D01*
X02231Y51536D01*
X02857Y50910D01*
X02591Y50644D01*
X02591Y50644D01*
G37*
G36*
X02813Y50866D02*
X02187Y51492D01*
X02453Y51758D01*
X03079Y51132D01*
X02813Y50866D01*
X02813Y50866D01*
G37*
G36*
X03893Y46672D02*
X03267Y47298D01*
X03533Y47564D01*
X04159Y46938D01*
X03893Y46672D01*
X03893Y46672D01*
G37*
G36*
X04113Y46891D02*
X03487Y47517D01*
X03753Y47783D01*
X04379Y47157D01*
X04113Y46891D01*
X04113Y46891D01*
G37*
G36*
X04339Y47117D02*
X03713Y47743D01*
X03979Y48009D01*
X04605Y47383D01*
X04339Y47117D01*
X04339Y47117D01*
G37*
G36*
X04558Y47336D02*
X03932Y47962D01*
X04198Y48228D01*
X04824Y47602D01*
X04558Y47336D01*
X04558Y47336D01*
G37*
G36*
X04777Y47556D02*
X04151Y48182D01*
X04417Y48448D01*
X05043Y47822D01*
X04777Y47556D01*
X04777Y47556D01*
G37*
G36*
X05004Y47782D02*
X04378Y48408D01*
X04644Y48674D01*
X05270Y48048D01*
X05004Y47782D01*
X05004Y47782D01*
G37*
G36*
X05230Y48008D02*
X04604Y48634D01*
X04870Y48900D01*
X05496Y48274D01*
X05230Y48008D01*
X05230Y48008D01*
G37*
G36*
X05456Y48234D02*
X04830Y48860D01*
X05096Y49126D01*
X05722Y48500D01*
X05456Y48234D01*
X05456Y48234D01*
G37*
G54D12*
X05690Y46240D03*
X04690Y46240D03*
X03690Y46240D03*
X02690Y46240D03*
X01690Y46240D03*
X00690Y46240D03*
X-00310Y46240D03*
X-01310Y46240D03*
X-02310Y46240D03*
X-03310Y46240D03*
X-04310Y46240D03*
X-05310Y46240D03*
X05690Y52190D03*
X04690Y52190D03*
X03690Y52190D03*
X02690Y52190D03*
X01690Y52190D03*
X00690Y52190D03*
X-00310Y52190D03*
X-01300Y52185D03*
X-02310Y52190D03*
X-03310Y52190D03*
X-04310Y52190D03*
X-05310Y52190D03*
G54D17*
X15548Y49543D03*
X15548Y49293D03*
X15548Y49033D03*
X15548Y48773D03*
X15548Y48523D03*
X15548Y48263D03*
X15548Y48003D03*
X15548Y47753D03*
X15548Y47493D03*
X15548Y47243D03*
X15548Y46983D03*
X15548Y46723D03*
X15548Y46473D03*
X15548Y46213D03*
X18348Y46213D03*
X18348Y46473D03*
X18348Y46713D03*
X18348Y46983D03*
X18348Y47243D03*
X18348Y47493D03*
X18348Y47753D03*
X18348Y48003D03*
X18348Y48263D03*
X18348Y48523D03*
X18348Y48773D03*
X18348Y49033D03*
X18348Y49293D03*
X18348Y49543D03*
G54D18*
X16973Y47893D03*
G54D12*
X14774Y43559D03*
X14948Y44544D03*
X15759Y43386D03*
X15933Y44370D03*
X16744Y43212D03*
G54D10*
G36*
X16455Y43873D02*
X16594Y44660D01*
X17381Y44521D01*
X17242Y43734D01*
X16455Y43873D01*
X16455Y43873D01*
G37*
G54D19*
X09858Y45082D03*
X09858Y47082D03*
X12858Y45082D03*
X12858Y47082D03*
G54D20*
X-03827Y50158D03*
X-03827Y49408D03*
X-02827Y50158D03*
X-03827Y49783D03*
X-02827Y49408D03*
G54D10*
G36*
X22216Y44232D02*
X21584Y44462D01*
X22164Y46056D01*
X22796Y45826D01*
X22216Y44232D01*
X22216Y44232D01*
G37*
G36*
X23072Y46582D02*
X22440Y46812D01*
X23020Y48406D01*
X23652Y48176D01*
X23072Y46582D01*
X23072Y46582D01*
G37*
G54D21*
X-05109Y49744D03*
X-07609Y49744D03*
G54D22*
X19862Y43308D03*
X19862Y42558D03*
X18602Y43308D03*
X18602Y42558D03*
G54D23*
X-00553Y53878D03*
X00197Y53878D03*
G54D22*
X-01792Y49528D03*
X-01792Y48778D03*
G54D23*
X07166Y49468D03*
X06416Y49468D03*
G54D24*
X08366Y47500D03*
X07992Y47500D03*
X08740Y47500D03*
G54D22*
X-01792Y48032D03*
X-01792Y47282D03*
G54D25*
X03693Y55420D03*
X02694Y55464D03*
G54D10*
G36*
X03952Y56521D02*
X03923Y55850D01*
X03252Y55879D01*
X03281Y56550D01*
X03952Y56521D01*
X03952Y56521D01*
G37*
G36*
X03128Y56557D02*
X03099Y55886D01*
X02428Y55915D01*
X02457Y56586D01*
X03128Y56557D01*
X03128Y56557D01*
G37*
G54D25*
X14296Y53767D03*
X13320Y53984D03*
G54D10*
G36*
X14743Y54806D02*
X14597Y54150D01*
X13941Y54296D01*
X14087Y54952D01*
X14743Y54806D01*
X14743Y54806D01*
G37*
G36*
X13937Y54985D02*
X13791Y54329D01*
X13135Y54475D01*
X13281Y55131D01*
X13937Y54985D01*
X13937Y54985D01*
G37*
G54D25*
X17938Y52687D03*
X16972Y52945D03*
G54D10*
G36*
X18430Y53706D02*
X18256Y53056D01*
X17606Y53230D01*
X17780Y53880D01*
X18430Y53706D01*
X18430Y53706D01*
G37*
G36*
X17633Y53919D02*
X17459Y53269D01*
X16809Y53443D01*
X16983Y54093D01*
X17633Y53919D01*
X17633Y53919D01*
G37*
G54D25*
X21363Y51394D03*
X20423Y51736D03*
G54D10*
G36*
X21941Y52366D02*
X21711Y51734D01*
X21079Y51964D01*
X21309Y52596D01*
X21941Y52366D01*
X21941Y52366D01*
G37*
G36*
X21166Y52648D02*
X20936Y52016D01*
X20304Y52246D01*
X20534Y52878D01*
X21166Y52648D01*
X21166Y52648D01*
G37*
G54D25*
X24570Y49921D03*
X23646Y50304D03*
G54D10*
G36*
X25190Y50867D02*
X24933Y50246D01*
X24312Y50503D01*
X24569Y51124D01*
X25190Y50867D01*
X25190Y50867D01*
G37*
G36*
X24427Y51183D02*
X24170Y50562D01*
X23549Y50819D01*
X23806Y51440D01*
X24427Y51183D01*
X24427Y51183D01*
G37*
G54D25*
X27737Y48214D03*
X26830Y48637D03*
G54D10*
G36*
X28398Y49132D02*
X28114Y48522D01*
X27504Y48806D01*
X27788Y49416D01*
X28398Y49132D01*
X28398Y49132D01*
G37*
G36*
X27650Y49481D02*
X27366Y48871D01*
X26756Y49155D01*
X27040Y49765D01*
X27650Y49481D01*
X27650Y49481D01*
G37*
G54D25*
X-20571Y51629D03*
X-21478Y51206D03*
G54D10*
G36*
X-20849Y52725D02*
X-20565Y52115D01*
X-21175Y51831D01*
X-21459Y52441D01*
X-20849Y52725D01*
X-20849Y52725D01*
G37*
G36*
X-21597Y52377D02*
X-21313Y51767D01*
X-21923Y51483D01*
X-22207Y52093D01*
X-21597Y52377D01*
X-21597Y52377D01*
G37*
G54D25*
X-17352Y52838D03*
X-18292Y52496D03*
G54D10*
G36*
X-17534Y53954D02*
X-17304Y53322D01*
X-17936Y53092D01*
X-18166Y53724D01*
X-17534Y53954D01*
X-17534Y53954D01*
G37*
G36*
X-18309Y53672D02*
X-18079Y53040D01*
X-18711Y52810D01*
X-18941Y53442D01*
X-18309Y53672D01*
X-18309Y53672D01*
G37*
G54D25*
X-14020Y53811D03*
X-14986Y53553D03*
G54D10*
G36*
X-14103Y54940D02*
X-13929Y54290D01*
X-14579Y54116D01*
X-14753Y54766D01*
X-14103Y54940D01*
X-14103Y54940D01*
G37*
G36*
X-14900Y54726D02*
X-14726Y54076D01*
X-15376Y53902D01*
X-15550Y54552D01*
X-14900Y54726D01*
X-14900Y54726D01*
G37*
G54D25*
X-10692Y54590D03*
X-11677Y54416D03*
G54D10*
G36*
X-10677Y55720D02*
X-10561Y55058D01*
X-11223Y54942D01*
X-11339Y55604D01*
X-10677Y55720D01*
X-10677Y55720D01*
G37*
G36*
X-11489Y55577D02*
X-11373Y54915D01*
X-12035Y54799D01*
X-12151Y55461D01*
X-11489Y55577D01*
X-11489Y55577D01*
G37*
G54D25*
X-06689Y55427D03*
X-07682Y55305D03*
G54D10*
G36*
X-06615Y56555D02*
X-06534Y55888D01*
X-07201Y55807D01*
X-07282Y56474D01*
X-06615Y56555D01*
X-06615Y56555D01*
G37*
G36*
X-07433Y56455D02*
X-07352Y55788D01*
X-08019Y55707D01*
X-08100Y56374D01*
X-07433Y56455D01*
X-07433Y56455D01*
G37*
G54D25*
X-03482Y55425D03*
X-04481Y55381D03*
G54D10*
G36*
X-03320Y56544D02*
X-03291Y55873D01*
X-03962Y55844D01*
X-03991Y56515D01*
X-03320Y56544D01*
X-03320Y56544D01*
G37*
G36*
X-04144Y56508D02*
X-04115Y55837D01*
X-04786Y55808D01*
X-04815Y56479D01*
X-04144Y56508D01*
X-04144Y56508D01*
G37*
G54D25*
X11125Y54494D03*
X10140Y54668D03*
G54D10*
G36*
X11525Y55552D02*
X11409Y54890D01*
X10747Y55006D01*
X10863Y55668D01*
X11525Y55552D01*
X11525Y55552D01*
G37*
G36*
X10713Y55695D02*
X10597Y55033D01*
X09935Y55149D01*
X10051Y55811D01*
X10713Y55695D01*
X10713Y55695D01*
G37*
G54D25*
X07047Y55105D03*
X06056Y55235D03*
G54D10*
G36*
X07402Y56178D02*
X07314Y55512D01*
X06648Y55600D01*
X06736Y56266D01*
X07402Y56178D01*
X07402Y56178D01*
G37*
G36*
X06584Y56286D02*
X06496Y55620D01*
X05830Y55708D01*
X05918Y56374D01*
X06584Y56286D01*
X06584Y56286D01*
G37*
G54D25*
X00086Y55521D03*
X-00914Y55521D03*
G54D11*
X-00039Y56296D03*
X-00864Y56296D03*
G54D25*
X30477Y46531D03*
X29620Y47046D03*
G54D10*
G36*
X31230Y47375D02*
X30884Y46799D01*
X30308Y47145D01*
X30654Y47721D01*
X31230Y47375D01*
X31230Y47375D01*
G37*
G36*
X30523Y47799D02*
X30177Y47223D01*
X29601Y47569D01*
X29947Y48145D01*
X30523Y47799D01*
X30523Y47799D01*
G37*
G36*
X-10044Y44809D02*
X-10723Y44640D01*
X-10810Y44989D01*
X-10131Y45158D01*
X-10044Y44809D01*
X-10044Y44809D01*
G37*
G36*
X-10105Y45051D02*
X-10784Y44882D01*
X-10871Y45231D01*
X-10192Y45400D01*
X-10105Y45051D01*
X-10105Y45051D01*
G37*
G36*
X-10168Y45304D02*
X-10847Y45135D01*
X-10934Y45484D01*
X-10255Y45653D01*
X-10168Y45304D01*
X-10168Y45304D01*
G37*
G36*
X-10231Y45556D02*
X-10910Y45387D01*
X-10997Y45736D01*
X-10318Y45905D01*
X-10231Y45556D01*
X-10231Y45556D01*
G37*
G36*
X-10291Y45798D02*
X-10970Y45629D01*
X-11057Y45978D01*
X-10378Y46147D01*
X-10291Y45798D01*
X-10291Y45798D01*
G37*
G36*
X-10354Y46051D02*
X-11033Y45882D01*
X-11120Y46231D01*
X-10441Y46400D01*
X-10354Y46051D01*
X-10354Y46051D01*
G37*
G36*
X-10417Y46303D02*
X-11096Y46134D01*
X-11183Y46483D01*
X-10504Y46652D01*
X-10417Y46303D01*
X-10417Y46303D01*
G37*
G36*
X-10477Y46546D02*
X-11156Y46377D01*
X-11243Y46726D01*
X-10564Y46895D01*
X-10477Y46546D01*
X-10477Y46546D01*
G37*
G36*
X-10540Y46798D02*
X-11219Y46629D01*
X-11306Y46978D01*
X-10627Y47147D01*
X-10540Y46798D01*
X-10540Y46798D01*
G37*
G36*
X-10601Y47040D02*
X-11280Y46871D01*
X-11367Y47220D01*
X-10688Y47389D01*
X-10601Y47040D01*
X-10601Y47040D01*
G37*
G36*
X-10664Y47293D02*
X-11343Y47124D01*
X-11430Y47473D01*
X-10751Y47642D01*
X-10664Y47293D01*
X-10664Y47293D01*
G37*
G36*
X-10727Y47545D02*
X-11406Y47376D01*
X-11493Y47725D01*
X-10814Y47894D01*
X-10727Y47545D01*
X-10727Y47545D01*
G37*
G36*
X-10787Y47788D02*
X-11466Y47619D01*
X-11553Y47968D01*
X-10874Y48137D01*
X-10787Y47788D01*
X-10787Y47788D01*
G37*
G36*
X-10850Y48040D02*
X-11529Y47871D01*
X-11616Y48220D01*
X-10937Y48389D01*
X-10850Y48040D01*
X-10850Y48040D01*
G37*
G36*
X-13567Y47362D02*
X-14246Y47193D01*
X-14333Y47542D01*
X-13654Y47711D01*
X-13567Y47362D01*
X-13567Y47362D01*
G37*
G36*
X-13504Y47110D02*
X-14183Y46941D01*
X-14270Y47290D01*
X-13591Y47459D01*
X-13504Y47110D01*
X-13504Y47110D01*
G37*
G36*
X-13446Y46877D02*
X-14125Y46708D01*
X-14212Y47057D01*
X-13533Y47226D01*
X-13446Y46877D01*
X-13446Y46877D01*
G37*
G36*
X-13381Y46615D02*
X-14060Y46446D01*
X-14147Y46795D01*
X-13468Y46964D01*
X-13381Y46615D01*
X-13381Y46615D01*
G37*
G36*
X-13318Y46363D02*
X-13997Y46194D01*
X-14084Y46543D01*
X-13405Y46712D01*
X-13318Y46363D01*
X-13318Y46363D01*
G37*
G36*
X-13257Y46120D02*
X-13936Y45951D01*
X-14023Y46300D01*
X-13344Y46469D01*
X-13257Y46120D01*
X-13257Y46120D01*
G37*
G36*
X-13194Y45868D02*
X-13873Y45699D01*
X-13960Y46048D01*
X-13281Y46217D01*
X-13194Y45868D01*
X-13194Y45868D01*
G37*
G36*
X-13134Y45626D02*
X-13813Y45457D01*
X-13900Y45806D01*
X-13221Y45975D01*
X-13134Y45626D01*
X-13134Y45626D01*
G37*
G36*
X-13071Y45373D02*
X-13750Y45204D01*
X-13837Y45553D01*
X-13158Y45722D01*
X-13071Y45373D01*
X-13071Y45373D01*
G37*
G36*
X-13008Y45121D02*
X-13687Y44952D01*
X-13774Y45301D01*
X-13095Y45470D01*
X-13008Y45121D01*
X-13008Y45121D01*
G37*
G36*
X-12948Y44878D02*
X-13627Y44709D01*
X-13714Y45058D01*
X-13035Y45227D01*
X-12948Y44878D01*
X-12948Y44878D01*
G37*
G36*
X-12885Y44626D02*
X-13564Y44457D01*
X-13651Y44806D01*
X-12972Y44975D01*
X-12885Y44626D01*
X-12885Y44626D01*
G37*
G36*
X-12822Y44374D02*
X-13501Y44205D01*
X-13588Y44554D01*
X-12909Y44723D01*
X-12822Y44374D01*
X-12822Y44374D01*
G37*
G36*
X-12761Y44131D02*
X-13440Y43962D01*
X-13527Y44311D01*
X-12848Y44480D01*
X-12761Y44131D01*
X-12761Y44131D01*
G37*
G36*
X-14144Y42798D02*
X-13887Y42094D01*
X-14404Y41906D01*
X-14661Y42610D01*
X-14144Y42798D01*
X-14144Y42798D01*
G37*
G36*
X-14848Y42542D02*
X-14591Y41838D01*
X-15108Y41650D01*
X-15365Y42354D01*
X-14848Y42542D01*
X-14848Y42542D01*
G37*
G36*
X-14617Y43901D02*
X-14360Y43197D01*
X-14877Y43009D01*
X-15134Y43713D01*
X-14617Y43901D01*
X-14617Y43901D01*
G37*
G36*
X-15321Y43645D02*
X-15064Y42941D01*
X-15581Y42753D01*
X-15838Y43457D01*
X-15321Y43645D01*
X-15321Y43645D01*
G37*
G54D22*
X-01832Y50313D03*
X-01832Y51063D03*
G54D23*
X07912Y51437D03*
X08662Y51437D03*
X-02952Y48326D03*
X-03702Y48326D03*
G54D10*
G36*
X-14774Y39727D02*
X-14517Y39023D01*
X-15034Y38835D01*
X-15291Y39539D01*
X-14774Y39727D01*
X-14774Y39727D01*
G37*
G36*
X-15478Y39471D02*
X-15221Y38767D01*
X-15738Y38579D01*
X-15995Y39283D01*
X-15478Y39471D01*
X-15478Y39471D01*
G37*
G36*
X-17373Y46026D02*
X-17116Y45322D01*
X-17633Y45134D01*
X-17890Y45838D01*
X-17373Y46026D01*
X-17373Y46026D01*
G37*
G36*
X-18077Y45770D02*
X-17820Y45066D01*
X-18337Y44878D01*
X-18594Y45582D01*
X-18077Y45770D01*
X-18077Y45770D01*
G37*
G54D12*
X26252Y43005D03*
X25423Y43565D03*
X26812Y43834D03*
X25982Y44394D03*
G54D10*
G36*
X27479Y44108D02*
X26816Y44555D01*
X27263Y45218D01*
X27926Y44771D01*
X27479Y44108D01*
X27479Y44108D01*
G37*
G54D12*
X26542Y45223D03*
G54D10*
G36*
X-14381Y38782D02*
X-14124Y38078D01*
X-14641Y37890D01*
X-14898Y38594D01*
X-14381Y38782D01*
X-14381Y38782D01*
G37*
G36*
X-15085Y38526D02*
X-14828Y37822D01*
X-15345Y37634D01*
X-15602Y38338D01*
X-15085Y38526D01*
X-15085Y38526D01*
G37*
G36*
X21869Y42770D02*
X22561Y42370D01*
X22161Y41678D01*
X21469Y42078D01*
X21869Y42770D01*
X21869Y42770D01*
G37*
G54D12*
X21515Y41358D03*
X21015Y40492D03*
M02*
