G04 (created by PCBNEW-RS274X (2011-nov-30)-testing) date Mon 30 Apr 2012 11:55:02 PM EDT*
G01*
G70*
G90*
%MOIN*%
G04 Gerber Fmt 3.4, Leading zero omitted, Abs format*
%FSLAX34Y34*%
G04 APERTURE LIST*
%ADD10C,0.006000*%
%ADD11R,0.047200X0.047200*%
%ADD12R,0.050000X0.016000*%
%ADD13R,0.098400X0.244100*%
%ADD14R,0.030000X0.020000*%
%ADD15R,0.149600X0.047200*%
%ADD16R,0.055000X0.035000*%
%ADD17R,0.035000X0.055000*%
%ADD18R,0.011800X0.063000*%
%ADD19C,0.066000*%
G04 APERTURE END LIST*
G54D10*
G54D11*
X00945Y53917D03*
X01771Y53917D03*
G54D10*
G36*
X-17124Y42332D02*
X-17285Y42775D01*
X-16842Y42936D01*
X-16681Y42493D01*
X-17124Y42332D01*
X-17124Y42332D01*
G37*
G36*
X-16348Y42614D02*
X-16509Y43057D01*
X-16066Y43218D01*
X-15905Y42775D01*
X-16348Y42614D01*
X-16348Y42614D01*
G37*
G36*
X-16651Y41230D02*
X-16812Y41673D01*
X-16369Y41834D01*
X-16208Y41391D01*
X-16651Y41230D01*
X-16651Y41230D01*
G37*
G36*
X-15875Y41512D02*
X-16036Y41955D01*
X-15593Y42116D01*
X-15432Y41673D01*
X-15875Y41512D01*
X-15875Y41512D01*
G37*
G54D11*
X08189Y49389D03*
X09015Y49389D03*
G54D10*
G36*
X02421Y46813D02*
X02296Y46938D01*
X02781Y47423D01*
X02906Y47298D01*
X02421Y46813D01*
X02421Y46813D01*
G37*
G36*
X02198Y47036D02*
X02073Y47161D01*
X02558Y47646D01*
X02683Y47521D01*
X02198Y47036D01*
X02198Y47036D01*
G37*
G36*
X01976Y47259D02*
X01851Y47384D01*
X02336Y47869D01*
X02461Y47744D01*
X01976Y47259D01*
X01976Y47259D01*
G37*
G36*
X01753Y47482D02*
X01628Y47607D01*
X02113Y48092D01*
X02238Y47967D01*
X01753Y47482D01*
X01753Y47482D01*
G37*
G36*
X01530Y47704D02*
X01405Y47829D01*
X01890Y48314D01*
X02015Y48189D01*
X01530Y47704D01*
X01530Y47704D01*
G37*
G36*
X01308Y47927D02*
X01183Y48052D01*
X01668Y48537D01*
X01793Y48412D01*
X01308Y47927D01*
X01308Y47927D01*
G37*
G36*
X01085Y48150D02*
X00960Y48275D01*
X01445Y48760D01*
X01570Y48635D01*
X01085Y48150D01*
X01085Y48150D01*
G37*
G36*
X00862Y48373D02*
X00737Y48498D01*
X01222Y48983D01*
X01347Y48858D01*
X00862Y48373D01*
X00862Y48373D01*
G37*
G36*
X03526Y51034D02*
X03401Y51159D01*
X03886Y51644D01*
X04011Y51519D01*
X03526Y51034D01*
X03526Y51034D01*
G37*
G36*
X05089Y49471D02*
X04964Y49596D01*
X05449Y50081D01*
X05574Y49956D01*
X05089Y49471D01*
X05089Y49471D01*
G37*
G36*
X04863Y49698D02*
X04738Y49823D01*
X05223Y50308D01*
X05348Y50183D01*
X04863Y49698D01*
X04863Y49698D01*
G37*
G36*
X04637Y49924D02*
X04512Y50049D01*
X04997Y50534D01*
X05122Y50409D01*
X04637Y49924D01*
X04637Y49924D01*
G37*
G36*
X04417Y50143D02*
X04292Y50268D01*
X04777Y50753D01*
X04902Y50628D01*
X04417Y50143D01*
X04417Y50143D01*
G37*
G36*
X04191Y50369D02*
X04066Y50494D01*
X04551Y50979D01*
X04676Y50854D01*
X04191Y50369D01*
X04191Y50369D01*
G37*
G36*
X03972Y50589D02*
X03847Y50714D01*
X04332Y51199D01*
X04457Y51074D01*
X03972Y50589D01*
X03972Y50589D01*
G37*
G36*
X03746Y50815D02*
X03621Y50940D01*
X04106Y51425D01*
X04231Y51300D01*
X03746Y50815D01*
X03746Y50815D01*
G37*
G36*
X01263Y49457D02*
X00778Y49942D01*
X00903Y50067D01*
X01388Y49582D01*
X01263Y49457D01*
X01263Y49457D01*
G37*
G36*
X01475Y49669D02*
X00990Y50154D01*
X01115Y50279D01*
X01600Y49794D01*
X01475Y49669D01*
X01475Y49669D01*
G37*
G36*
X01705Y49899D02*
X01220Y50384D01*
X01345Y50509D01*
X01830Y50024D01*
X01705Y49899D01*
X01705Y49899D01*
G37*
G36*
X01917Y50111D02*
X01432Y50596D01*
X01557Y50721D01*
X02042Y50236D01*
X01917Y50111D01*
X01917Y50111D01*
G37*
G36*
X02146Y50340D02*
X01661Y50825D01*
X01786Y50950D01*
X02271Y50465D01*
X02146Y50340D01*
X02146Y50340D01*
G37*
G36*
X02368Y50562D02*
X01883Y51047D01*
X02008Y51172D01*
X02493Y50687D01*
X02368Y50562D01*
X02368Y50562D01*
G37*
G36*
X02591Y50785D02*
X02106Y51270D01*
X02231Y51395D01*
X02716Y50910D01*
X02591Y50785D01*
X02591Y50785D01*
G37*
G36*
X02813Y51007D02*
X02328Y51492D01*
X02453Y51617D01*
X02938Y51132D01*
X02813Y51007D01*
X02813Y51007D01*
G37*
G36*
X03893Y46813D02*
X03408Y47298D01*
X03533Y47423D01*
X04018Y46938D01*
X03893Y46813D01*
X03893Y46813D01*
G37*
G36*
X04113Y47032D02*
X03628Y47517D01*
X03753Y47642D01*
X04238Y47157D01*
X04113Y47032D01*
X04113Y47032D01*
G37*
G36*
X04339Y47258D02*
X03854Y47743D01*
X03979Y47868D01*
X04464Y47383D01*
X04339Y47258D01*
X04339Y47258D01*
G37*
G36*
X04558Y47477D02*
X04073Y47962D01*
X04198Y48087D01*
X04683Y47602D01*
X04558Y47477D01*
X04558Y47477D01*
G37*
G36*
X04777Y47697D02*
X04292Y48182D01*
X04417Y48307D01*
X04902Y47822D01*
X04777Y47697D01*
X04777Y47697D01*
G37*
G36*
X05004Y47923D02*
X04519Y48408D01*
X04644Y48533D01*
X05129Y48048D01*
X05004Y47923D01*
X05004Y47923D01*
G37*
G36*
X05230Y48149D02*
X04745Y48634D01*
X04870Y48759D01*
X05355Y48274D01*
X05230Y48149D01*
X05230Y48149D01*
G37*
G36*
X05456Y48375D02*
X04971Y48860D01*
X05096Y48985D01*
X05581Y48500D01*
X05456Y48375D01*
X05456Y48375D01*
G37*
G54D12*
X15548Y49543D03*
X15548Y49293D03*
X15548Y49033D03*
X15548Y48773D03*
X15548Y48523D03*
X15548Y48263D03*
X15548Y48003D03*
X15548Y47753D03*
X15548Y47493D03*
X15548Y47243D03*
X15548Y46983D03*
X15548Y46723D03*
X15548Y46473D03*
X15548Y46213D03*
X18348Y46213D03*
X18348Y46473D03*
X18348Y46713D03*
X18348Y46983D03*
X18348Y47243D03*
X18348Y47493D03*
X18348Y47753D03*
X18348Y48003D03*
X18348Y48263D03*
X18348Y48523D03*
X18348Y48773D03*
X18348Y49033D03*
X18348Y49293D03*
X18348Y49543D03*
G54D13*
X16973Y47893D03*
G54D14*
X-03827Y50158D03*
X-03827Y49408D03*
X-02827Y50158D03*
X-03827Y49783D03*
X-02827Y49408D03*
G54D10*
G36*
X22156Y44360D02*
X21712Y44522D01*
X22224Y45928D01*
X22668Y45766D01*
X22156Y44360D01*
X22156Y44360D01*
G37*
G36*
X23012Y46710D02*
X22568Y46872D01*
X23080Y48278D01*
X23524Y48116D01*
X23012Y46710D01*
X23012Y46710D01*
G37*
G54D15*
X-05109Y49744D03*
X-07609Y49744D03*
G54D16*
X19862Y43308D03*
X19862Y42558D03*
X18602Y43308D03*
X18602Y42558D03*
G54D17*
X-00553Y53878D03*
X00197Y53878D03*
G54D16*
X-01792Y49528D03*
X-01792Y48778D03*
G54D17*
X07166Y49468D03*
X06416Y49468D03*
G54D18*
X08366Y47500D03*
X07992Y47500D03*
X08740Y47500D03*
G54D16*
X-01792Y48032D03*
X-01792Y47282D03*
G54D19*
X03693Y55420D03*
X02694Y55464D03*
G54D10*
G36*
X03848Y56425D02*
X03827Y55954D01*
X03356Y55975D01*
X03377Y56446D01*
X03848Y56425D01*
X03848Y56425D01*
G37*
G36*
X03024Y56461D02*
X03003Y55990D01*
X02532Y56011D01*
X02553Y56482D01*
X03024Y56461D01*
X03024Y56461D01*
G37*
G54D19*
X14296Y53767D03*
X13320Y53984D03*
G54D10*
G36*
X14623Y54730D02*
X14521Y54270D01*
X14061Y54372D01*
X14163Y54832D01*
X14623Y54730D01*
X14623Y54730D01*
G37*
G36*
X13817Y54909D02*
X13715Y54449D01*
X13255Y54551D01*
X13357Y55011D01*
X13817Y54909D01*
X13817Y54909D01*
G37*
G54D19*
X17938Y52687D03*
X16972Y52945D03*
G54D10*
G36*
X18307Y53635D02*
X18185Y53179D01*
X17729Y53301D01*
X17851Y53757D01*
X18307Y53635D01*
X18307Y53635D01*
G37*
G36*
X17510Y53848D02*
X17388Y53392D01*
X16932Y53514D01*
X17054Y53970D01*
X17510Y53848D01*
X17510Y53848D01*
G37*
G54D19*
X21363Y51394D03*
X20423Y51736D03*
G54D10*
G36*
X21812Y52306D02*
X21651Y51863D01*
X21208Y52024D01*
X21369Y52467D01*
X21812Y52306D01*
X21812Y52306D01*
G37*
G36*
X21037Y52588D02*
X20876Y52145D01*
X20433Y52306D01*
X20594Y52749D01*
X21037Y52588D01*
X21037Y52588D01*
G37*
G54D19*
X24570Y49921D03*
X23646Y50304D03*
G54D10*
G36*
X25059Y50813D02*
X24879Y50377D01*
X24443Y50557D01*
X24623Y50993D01*
X25059Y50813D01*
X25059Y50813D01*
G37*
G36*
X24296Y51129D02*
X24116Y50693D01*
X23680Y50873D01*
X23860Y51309D01*
X24296Y51129D01*
X24296Y51129D01*
G37*
G54D19*
X27737Y48214D03*
X26830Y48637D03*
G54D10*
G36*
X28265Y49083D02*
X28065Y48655D01*
X27637Y48855D01*
X27837Y49283D01*
X28265Y49083D01*
X28265Y49083D01*
G37*
G36*
X27517Y49432D02*
X27317Y49004D01*
X26889Y49204D01*
X27089Y49632D01*
X27517Y49432D01*
X27517Y49432D01*
G37*
G54D19*
X-20571Y51629D03*
X-21478Y51206D03*
G54D10*
G36*
X-20898Y52592D02*
X-20698Y52164D01*
X-21126Y51964D01*
X-21326Y52392D01*
X-20898Y52592D01*
X-20898Y52592D01*
G37*
G36*
X-21646Y52244D02*
X-21446Y51816D01*
X-21874Y51616D01*
X-22074Y52044D01*
X-21646Y52244D01*
X-21646Y52244D01*
G37*
G54D19*
X-17352Y52838D03*
X-18292Y52496D03*
G54D10*
G36*
X-17594Y53825D02*
X-17433Y53382D01*
X-17876Y53221D01*
X-18037Y53664D01*
X-17594Y53825D01*
X-17594Y53825D01*
G37*
G36*
X-18369Y53543D02*
X-18208Y53100D01*
X-18651Y52939D01*
X-18812Y53382D01*
X-18369Y53543D01*
X-18369Y53543D01*
G37*
G54D19*
X-14020Y53811D03*
X-14986Y53553D03*
G54D10*
G36*
X-14174Y54817D02*
X-14052Y54361D01*
X-14508Y54239D01*
X-14630Y54695D01*
X-14174Y54817D01*
X-14174Y54817D01*
G37*
G36*
X-14971Y54603D02*
X-14849Y54147D01*
X-15305Y54025D01*
X-15427Y54481D01*
X-14971Y54603D01*
X-14971Y54603D01*
G37*
G54D19*
X-10692Y54590D03*
X-11677Y54416D03*
G54D10*
G36*
X-10759Y55604D02*
X-10677Y55140D01*
X-11141Y55058D01*
X-11223Y55522D01*
X-10759Y55604D01*
X-10759Y55604D01*
G37*
G36*
X-11571Y55461D02*
X-11489Y54997D01*
X-11953Y54915D01*
X-12035Y55379D01*
X-11571Y55461D01*
X-11571Y55461D01*
G37*
G54D19*
X-06689Y55427D03*
X-07682Y55305D03*
G54D10*
G36*
X-06703Y56444D02*
X-06645Y55976D01*
X-07113Y55918D01*
X-07171Y56386D01*
X-06703Y56444D01*
X-06703Y56444D01*
G37*
G36*
X-07521Y56344D02*
X-07463Y55876D01*
X-07931Y55818D01*
X-07989Y56286D01*
X-07521Y56344D01*
X-07521Y56344D01*
G37*
G54D19*
X-03482Y55425D03*
X-04481Y55381D03*
G54D10*
G36*
X-03416Y56440D02*
X-03395Y55969D01*
X-03866Y55948D01*
X-03887Y56419D01*
X-03416Y56440D01*
X-03416Y56440D01*
G37*
G36*
X-04240Y56404D02*
X-04219Y55933D01*
X-04690Y55912D01*
X-04711Y56383D01*
X-04240Y56404D01*
X-04240Y56404D01*
G37*
G54D19*
X11125Y54494D03*
X10140Y54668D03*
G54D10*
G36*
X11409Y55470D02*
X11327Y55006D01*
X10863Y55088D01*
X10945Y55552D01*
X11409Y55470D01*
X11409Y55470D01*
G37*
G36*
X10597Y55613D02*
X10515Y55149D01*
X10051Y55231D01*
X10133Y55695D01*
X10597Y55613D01*
X10597Y55613D01*
G37*
G54D19*
X07047Y55105D03*
X06056Y55235D03*
G54D10*
G36*
X07290Y56092D02*
X07228Y55624D01*
X06760Y55686D01*
X06822Y56154D01*
X07290Y56092D01*
X07290Y56092D01*
G37*
G36*
X06472Y56200D02*
X06410Y55732D01*
X05942Y55794D01*
X06004Y56262D01*
X06472Y56200D01*
X06472Y56200D01*
G37*
G54D19*
X00086Y55521D03*
X-00914Y55521D03*
G54D11*
X-00039Y56296D03*
X-00864Y56296D03*
G54D19*
X30477Y46531D03*
X29620Y47046D03*
G54D10*
G36*
X31093Y47341D02*
X30850Y46936D01*
X30445Y47179D01*
X30688Y47584D01*
X31093Y47341D01*
X31093Y47341D01*
G37*
G36*
X30386Y47765D02*
X30143Y47360D01*
X29738Y47603D01*
X29981Y48008D01*
X30386Y47765D01*
X30386Y47765D01*
G37*
G36*
X-10165Y44882D02*
X-10650Y44761D01*
X-10689Y44916D01*
X-10204Y45037D01*
X-10165Y44882D01*
X-10165Y44882D01*
G37*
G36*
X-10226Y45124D02*
X-10711Y45003D01*
X-10750Y45158D01*
X-10265Y45279D01*
X-10226Y45124D01*
X-10226Y45124D01*
G37*
G36*
X-10289Y45377D02*
X-10774Y45256D01*
X-10813Y45411D01*
X-10328Y45532D01*
X-10289Y45377D01*
X-10289Y45377D01*
G37*
G36*
X-10352Y45629D02*
X-10837Y45508D01*
X-10876Y45663D01*
X-10391Y45784D01*
X-10352Y45629D01*
X-10352Y45629D01*
G37*
G36*
X-10412Y45871D02*
X-10897Y45750D01*
X-10936Y45905D01*
X-10451Y46026D01*
X-10412Y45871D01*
X-10412Y45871D01*
G37*
G36*
X-10475Y46124D02*
X-10960Y46003D01*
X-10999Y46158D01*
X-10514Y46279D01*
X-10475Y46124D01*
X-10475Y46124D01*
G37*
G36*
X-10538Y46376D02*
X-11023Y46255D01*
X-11062Y46410D01*
X-10577Y46531D01*
X-10538Y46376D01*
X-10538Y46376D01*
G37*
G36*
X-10598Y46619D02*
X-11083Y46498D01*
X-11122Y46653D01*
X-10637Y46774D01*
X-10598Y46619D01*
X-10598Y46619D01*
G37*
G36*
X-10661Y46871D02*
X-11146Y46750D01*
X-11185Y46905D01*
X-10700Y47026D01*
X-10661Y46871D01*
X-10661Y46871D01*
G37*
G36*
X-10722Y47113D02*
X-11207Y46992D01*
X-11246Y47147D01*
X-10761Y47268D01*
X-10722Y47113D01*
X-10722Y47113D01*
G37*
G36*
X-10785Y47366D02*
X-11270Y47245D01*
X-11309Y47400D01*
X-10824Y47521D01*
X-10785Y47366D01*
X-10785Y47366D01*
G37*
G36*
X-10848Y47618D02*
X-11333Y47497D01*
X-11372Y47652D01*
X-10887Y47773D01*
X-10848Y47618D01*
X-10848Y47618D01*
G37*
G36*
X-10908Y47861D02*
X-11393Y47740D01*
X-11432Y47895D01*
X-10947Y48016D01*
X-10908Y47861D01*
X-10908Y47861D01*
G37*
G36*
X-10971Y48113D02*
X-11456Y47992D01*
X-11495Y48147D01*
X-11010Y48268D01*
X-10971Y48113D01*
X-10971Y48113D01*
G37*
G36*
X-13688Y47435D02*
X-14173Y47314D01*
X-14212Y47469D01*
X-13727Y47590D01*
X-13688Y47435D01*
X-13688Y47435D01*
G37*
G36*
X-13625Y47183D02*
X-14110Y47062D01*
X-14149Y47217D01*
X-13664Y47338D01*
X-13625Y47183D01*
X-13625Y47183D01*
G37*
G36*
X-13567Y46950D02*
X-14052Y46829D01*
X-14091Y46984D01*
X-13606Y47105D01*
X-13567Y46950D01*
X-13567Y46950D01*
G37*
G36*
X-13502Y46688D02*
X-13987Y46567D01*
X-14026Y46722D01*
X-13541Y46843D01*
X-13502Y46688D01*
X-13502Y46688D01*
G37*
G36*
X-13439Y46436D02*
X-13924Y46315D01*
X-13963Y46470D01*
X-13478Y46591D01*
X-13439Y46436D01*
X-13439Y46436D01*
G37*
G36*
X-13378Y46193D02*
X-13863Y46072D01*
X-13902Y46227D01*
X-13417Y46348D01*
X-13378Y46193D01*
X-13378Y46193D01*
G37*
G36*
X-13315Y45941D02*
X-13800Y45820D01*
X-13839Y45975D01*
X-13354Y46096D01*
X-13315Y45941D01*
X-13315Y45941D01*
G37*
G36*
X-13255Y45699D02*
X-13740Y45578D01*
X-13779Y45733D01*
X-13294Y45854D01*
X-13255Y45699D01*
X-13255Y45699D01*
G37*
G36*
X-13192Y45446D02*
X-13677Y45325D01*
X-13716Y45480D01*
X-13231Y45601D01*
X-13192Y45446D01*
X-13192Y45446D01*
G37*
G36*
X-13129Y45194D02*
X-13614Y45073D01*
X-13653Y45228D01*
X-13168Y45349D01*
X-13129Y45194D01*
X-13129Y45194D01*
G37*
G36*
X-13069Y44951D02*
X-13554Y44830D01*
X-13593Y44985D01*
X-13108Y45106D01*
X-13069Y44951D01*
X-13069Y44951D01*
G37*
G36*
X-13006Y44699D02*
X-13491Y44578D01*
X-13530Y44733D01*
X-13045Y44854D01*
X-13006Y44699D01*
X-13006Y44699D01*
G37*
G36*
X-12943Y44447D02*
X-13428Y44326D01*
X-13467Y44481D01*
X-12982Y44602D01*
X-12943Y44447D01*
X-12943Y44447D01*
G37*
G36*
X-12882Y44204D02*
X-13367Y44083D01*
X-13406Y44238D01*
X-12921Y44359D01*
X-12882Y44204D01*
X-12882Y44204D01*
G37*
G36*
X-14204Y42670D02*
X-14015Y42153D01*
X-14344Y42034D01*
X-14533Y42551D01*
X-14204Y42670D01*
X-14204Y42670D01*
G37*
G36*
X-14908Y42414D02*
X-14719Y41897D01*
X-15048Y41778D01*
X-15237Y42295D01*
X-14908Y42414D01*
X-14908Y42414D01*
G37*
G36*
X-14677Y43773D02*
X-14488Y43256D01*
X-14817Y43137D01*
X-15006Y43654D01*
X-14677Y43773D01*
X-14677Y43773D01*
G37*
G36*
X-15381Y43517D02*
X-15192Y43000D01*
X-15521Y42881D01*
X-15710Y43398D01*
X-15381Y43517D01*
X-15381Y43517D01*
G37*
G54D16*
X-01832Y50313D03*
X-01832Y51063D03*
G54D17*
X07912Y51437D03*
X08662Y51437D03*
X-02952Y48326D03*
X-03702Y48326D03*
G54D10*
G36*
X-14834Y39599D02*
X-14645Y39082D01*
X-14974Y38963D01*
X-15163Y39480D01*
X-14834Y39599D01*
X-14834Y39599D01*
G37*
G36*
X-15538Y39343D02*
X-15349Y38826D01*
X-15678Y38707D01*
X-15867Y39224D01*
X-15538Y39343D01*
X-15538Y39343D01*
G37*
G36*
X-17433Y45898D02*
X-17244Y45381D01*
X-17573Y45262D01*
X-17762Y45779D01*
X-17433Y45898D01*
X-17433Y45898D01*
G37*
G36*
X-18137Y45642D02*
X-17948Y45125D01*
X-18277Y45006D01*
X-18466Y45523D01*
X-18137Y45642D01*
X-18137Y45642D01*
G37*
G36*
X-14441Y38654D02*
X-14252Y38137D01*
X-14581Y38018D01*
X-14770Y38535D01*
X-14441Y38654D01*
X-14441Y38654D01*
G37*
G36*
X-15145Y38398D02*
X-14956Y37881D01*
X-15285Y37762D01*
X-15474Y38279D01*
X-15145Y38398D01*
X-15145Y38398D01*
G37*
M02*
