M48
;DRILL file {Pcbnew (2011-nov-30)-testing} date Mon 30 Apr 2012 11:53:55 PM EDT
;FORMAT={-:-/ absolute / inch / decimal}
FMAT,2
INCH,TZ
T1C0.025
T2C0.031
T3C0.032
T4C0.040
T5C0.043
T6C0.075
%
G90
G05
M72
T1
X-2.034Y5.295
X-1.732Y4.321
X-1.706Y5.420
X-1.706Y4.882
X-1.690Y4.616
X-1.636Y4.087
X-1.472Y5.552
X-1.456Y5.077
X-1.427Y3.959
X-1.425Y4.616
X-1.402Y4.835
X-1.388Y5.282
X-1.355Y5.506
X-1.261Y4.733
X-1.226Y4.596
X-1.152Y4.626
X-1.012Y4.616
X-1.010Y4.764
X-0.988Y5.412
X-0.973Y5.568
X-0.965Y4.913
X-0.904Y4.671
X-0.900Y4.526
X-0.778Y5.201
X-0.684Y5.194
X-0.459Y5.392
X-0.429Y5.679
X-0.289Y5.089
X-0.247Y4.765
X-0.197Y5.303
X-0.107Y4.897
X-0.093Y5.299
X-0.045Y4.986
X-0.013Y5.030
X0.006Y4.754
X0.016Y5.329
X0.057Y4.811
X0.061Y5.057
X0.065Y4.952
X0.065Y4.897
X0.071Y5.102
X0.080Y5.482
X0.104Y4.687
X0.120Y5.150
X0.150Y5.311
X0.157Y5.124
X0.205Y4.882
X0.220Y4.561
X0.244Y4.921
X0.256Y5.020
X0.275Y4.858
X0.283Y4.804
X0.299Y5.159
X0.319Y5.075
X0.319Y5.024
X0.344Y4.945
X0.353Y5.311
X0.354Y4.793
X0.368Y5.022
X0.392Y4.515
X0.439Y5.514
X0.447Y4.947
X0.455Y5.159
X0.474Y4.703
X0.494Y4.531
X0.504Y5.683
X0.514Y5.128
X0.518Y4.707
X0.522Y5.085
X0.556Y4.531
X0.561Y5.049
X0.581Y4.947
X0.593Y5.012
X0.595Y5.311
X0.636Y5.132
X0.654Y5.413
X0.673Y5.170
X0.681Y5.030
X0.719Y5.085
X0.728Y5.178
X0.735Y4.811
X0.748Y5.413
X0.759Y4.882
X0.785Y4.998
X0.864Y4.569
X0.874Y4.685
X0.923Y5.545
X0.938Y5.069
X0.951Y4.998
X1.008Y5.244
X1.051Y5.307
X1.055Y5.224
X1.061Y4.919
X1.071Y5.069
X1.089Y5.333
X1.112Y5.179
X1.120Y4.569
X1.148Y5.069
X1.165Y5.195
X1.187Y4.815
X1.199Y4.998
X1.228Y5.205
X1.235Y5.451
X1.242Y5.089
X1.250Y5.295
X1.289Y5.256
X1.327Y4.937
X1.328Y4.593
X1.367Y5.116
X1.374Y4.817
X1.384Y4.750
X1.431Y4.707
X1.461Y5.201
X1.461Y5.147
X1.478Y4.679
X1.526Y5.465
X1.632Y4.546
X1.770Y4.557
X1.807Y4.408
X1.821Y4.490
X1.825Y4.537
X1.843Y5.102
X1.892Y4.656
X1.907Y4.959
X1.955Y4.856
X1.982Y4.522
X1.986Y4.996
X2.018Y4.904
X2.018Y4.596
X2.054Y5.342
X2.057Y5.026
X2.061Y4.180
X2.077Y4.765
X2.120Y4.490
X2.293Y4.909
X2.305Y4.293
X2.373Y5.201
X2.387Y4.376
X2.400Y4.573
X2.498Y4.900
X2.498Y4.646
X2.701Y5.030
X2.982Y4.866
T2
X-1.556Y4.910
X-1.542Y4.965
X-1.496Y4.932
X-1.483Y4.987
X-1.437Y4.953
T3
X-2.148Y5.121
X-2.057Y5.163
X-1.829Y5.250
X-1.735Y5.284
X-1.499Y5.355
X-1.402Y5.381
X-1.168Y5.442
X-1.069Y5.459
X-0.768Y5.530
X-0.669Y5.543
X-0.448Y5.538
X-0.348Y5.543
X-0.091Y5.552
X0.009Y5.552
X0.269Y5.546
X0.369Y5.542
X0.569Y5.219
X0.569Y4.624
X0.606Y5.524
X0.705Y5.511
X0.986Y4.708
X0.986Y4.508
X1.014Y5.467
X1.113Y5.449
X1.286Y4.708
X1.286Y4.508
X1.332Y5.398
X1.430Y5.377
X1.697Y5.295
X1.794Y5.269
X2.042Y5.174
X2.136Y5.139
X2.365Y5.030
X2.457Y4.992
X2.683Y4.864
X2.774Y4.821
X2.962Y4.705
X3.048Y4.653
T4
X-1.993Y4.842
X-1.954Y4.750
X-1.916Y4.659
X-1.899Y4.880
X-1.862Y4.789
X-1.822Y4.697
X-0.531Y5.219
X-0.531Y4.624
X-0.431Y5.219
X-0.431Y4.624
X-0.331Y5.219
X-0.331Y4.624
X-0.276Y5.392
X-0.231Y5.219
X-0.231Y4.624
X-0.176Y5.392
X-0.131Y4.624
X-0.130Y5.219
X-0.031Y5.219
X-0.031Y4.624
X0.069Y5.219
X0.069Y4.624
X0.169Y5.219
X0.169Y4.624
X0.269Y5.219
X0.269Y4.624
X0.369Y5.219
X0.369Y4.624
X0.469Y5.219
X0.469Y4.624
X1.477Y4.356
X1.495Y4.454
X1.576Y4.339
X1.593Y4.437
X1.674Y4.321
X1.692Y4.420
X2.102Y4.049
X2.151Y4.136
X2.202Y4.222
X2.542Y4.357
X2.598Y4.439
X2.625Y4.301
X2.654Y4.522
X2.681Y4.383
X2.737Y4.466
T5
X-1.107Y4.987
X-1.065Y4.877
T6
X-1.700Y5.071
X-1.430Y5.169
T0
M30
