G04 (created by PCBNEW-RS274X (2011-nov-30)-testing) date Mon 23 Apr 2012 04:49:46 PM EDT*
G01*
G70*
G90*
%MOIN*%
G04 Gerber Fmt 3.4, Leading zero omitted, Abs format*
%FSLAX34Y34*%
G04 APERTURE LIST*
%ADD10C,0.006000*%
%ADD11R,0.067200X0.067200*%
%ADD12C,0.080000*%
%ADD13C,0.071200*%
%ADD14C,0.115300*%
%ADD15C,0.185400*%
%ADD16C,0.153900*%
%ADD17R,0.036000X0.070000*%
%ADD18R,0.264100X0.118400*%
%ADD19C,0.075000*%
%ADD20R,0.050000X0.040000*%
%ADD21R,0.169600X0.067200*%
%ADD22R,0.055000X0.075000*%
%ADD23R,0.075000X0.055000*%
%ADD24C,0.086000*%
G04 APERTURE END LIST*
G54D10*
G54D11*
X00945Y53917D03*
X01771Y53917D03*
G54D10*
G36*
X-15058Y43188D02*
X-15288Y43820D01*
X-14656Y44050D01*
X-14426Y43418D01*
X-15058Y43188D01*
X-15058Y43188D01*
G37*
G36*
X-14282Y43470D02*
X-14512Y44102D01*
X-13880Y44332D01*
X-13650Y43700D01*
X-14282Y43470D01*
X-14282Y43470D01*
G37*
G36*
X-14664Y42164D02*
X-14894Y42796D01*
X-14262Y43026D01*
X-14032Y42394D01*
X-14664Y42164D01*
X-14664Y42164D01*
G37*
G36*
X-13888Y42446D02*
X-14118Y43078D01*
X-13486Y43308D01*
X-13256Y42676D01*
X-13888Y42446D01*
X-13888Y42446D01*
G37*
G54D11*
X05767Y48228D03*
X05767Y47402D03*
G54D12*
X-18224Y46972D03*
X-18988Y48803D03*
X-18615Y47892D03*
X-19535Y47502D03*
X-19162Y46591D03*
G54D10*
G36*
X-19402Y48210D02*
X-20138Y47898D01*
X-20450Y48634D01*
X-19714Y48946D01*
X-19402Y48210D01*
X-19402Y48210D01*
G37*
G54D12*
X-02764Y53917D03*
X-01764Y53917D03*
G54D13*
X-11067Y49872D03*
X-10652Y48766D03*
G54D14*
X-10832Y51747D03*
X-12422Y51168D03*
G54D15*
X-08760Y54547D03*
X08720Y54311D03*
G54D16*
X-16241Y44488D03*
X23621Y40945D03*
X21653Y37402D03*
X-14765Y40650D03*
G54D10*
G36*
X00568Y46601D02*
X00302Y46867D01*
X00928Y47493D01*
X01194Y47227D01*
X00568Y46601D01*
X00568Y46601D01*
G37*
G36*
X00345Y46824D02*
X00079Y47090D01*
X00705Y47716D01*
X00971Y47450D01*
X00345Y46824D01*
X00345Y46824D01*
G37*
G36*
X00123Y47047D02*
X-00143Y47313D01*
X00483Y47939D01*
X00749Y47673D01*
X00123Y47047D01*
X00123Y47047D01*
G37*
G36*
X-00100Y47270D02*
X-00366Y47536D01*
X00260Y48162D01*
X00526Y47896D01*
X-00100Y47270D01*
X-00100Y47270D01*
G37*
G36*
X-00323Y47492D02*
X-00589Y47758D01*
X00037Y48384D01*
X00303Y48118D01*
X-00323Y47492D01*
X-00323Y47492D01*
G37*
G36*
X-00545Y47715D02*
X-00811Y47981D01*
X-00185Y48607D01*
X00081Y48341D01*
X-00545Y47715D01*
X-00545Y47715D01*
G37*
G36*
X-00768Y47938D02*
X-01034Y48204D01*
X-00408Y48830D01*
X-00142Y48564D01*
X-00768Y47938D01*
X-00768Y47938D01*
G37*
G36*
X-00991Y48161D02*
X-01257Y48427D01*
X-00631Y49053D01*
X-00365Y48787D01*
X-00991Y48161D01*
X-00991Y48161D01*
G37*
G36*
X01673Y50822D02*
X01407Y51088D01*
X02033Y51714D01*
X02299Y51448D01*
X01673Y50822D01*
X01673Y50822D01*
G37*
G36*
X03236Y49259D02*
X02970Y49525D01*
X03596Y50151D01*
X03862Y49885D01*
X03236Y49259D01*
X03236Y49259D01*
G37*
G36*
X03010Y49486D02*
X02744Y49752D01*
X03370Y50378D01*
X03636Y50112D01*
X03010Y49486D01*
X03010Y49486D01*
G37*
G36*
X02784Y49712D02*
X02518Y49978D01*
X03144Y50604D01*
X03410Y50338D01*
X02784Y49712D01*
X02784Y49712D01*
G37*
G36*
X02564Y49931D02*
X02298Y50197D01*
X02924Y50823D01*
X03190Y50557D01*
X02564Y49931D01*
X02564Y49931D01*
G37*
G36*
X02338Y50157D02*
X02072Y50423D01*
X02698Y51049D01*
X02964Y50783D01*
X02338Y50157D01*
X02338Y50157D01*
G37*
G36*
X02119Y50377D02*
X01853Y50643D01*
X02479Y51269D01*
X02745Y51003D01*
X02119Y50377D01*
X02119Y50377D01*
G37*
G36*
X01893Y50603D02*
X01627Y50869D01*
X02253Y51495D01*
X02519Y51229D01*
X01893Y50603D01*
X01893Y50603D01*
G37*
G36*
X-00590Y49245D02*
X-01216Y49871D01*
X-00950Y50137D01*
X-00324Y49511D01*
X-00590Y49245D01*
X-00590Y49245D01*
G37*
G36*
X-00378Y49457D02*
X-01004Y50083D01*
X-00738Y50349D01*
X-00112Y49723D01*
X-00378Y49457D01*
X-00378Y49457D01*
G37*
G36*
X-00148Y49687D02*
X-00774Y50313D01*
X-00508Y50579D01*
X00118Y49953D01*
X-00148Y49687D01*
X-00148Y49687D01*
G37*
G36*
X00064Y49899D02*
X-00562Y50525D01*
X-00296Y50791D01*
X00330Y50165D01*
X00064Y49899D01*
X00064Y49899D01*
G37*
G36*
X00293Y50128D02*
X-00333Y50754D01*
X-00067Y51020D01*
X00559Y50394D01*
X00293Y50128D01*
X00293Y50128D01*
G37*
G36*
X00515Y50350D02*
X-00111Y50976D01*
X00155Y51242D01*
X00781Y50616D01*
X00515Y50350D01*
X00515Y50350D01*
G37*
G36*
X00738Y50573D02*
X00112Y51199D01*
X00378Y51465D01*
X01004Y50839D01*
X00738Y50573D01*
X00738Y50573D01*
G37*
G36*
X00960Y50795D02*
X00334Y51421D01*
X00600Y51687D01*
X01226Y51061D01*
X00960Y50795D01*
X00960Y50795D01*
G37*
G36*
X02040Y46601D02*
X01414Y47227D01*
X01680Y47493D01*
X02306Y46867D01*
X02040Y46601D01*
X02040Y46601D01*
G37*
G36*
X02260Y46820D02*
X01634Y47446D01*
X01900Y47712D01*
X02526Y47086D01*
X02260Y46820D01*
X02260Y46820D01*
G37*
G36*
X02486Y47046D02*
X01860Y47672D01*
X02126Y47938D01*
X02752Y47312D01*
X02486Y47046D01*
X02486Y47046D01*
G37*
G36*
X02705Y47265D02*
X02079Y47891D01*
X02345Y48157D01*
X02971Y47531D01*
X02705Y47265D01*
X02705Y47265D01*
G37*
G36*
X02924Y47485D02*
X02298Y48111D01*
X02564Y48377D01*
X03190Y47751D01*
X02924Y47485D01*
X02924Y47485D01*
G37*
G36*
X03151Y47711D02*
X02525Y48337D01*
X02791Y48603D01*
X03417Y47977D01*
X03151Y47711D01*
X03151Y47711D01*
G37*
G36*
X03377Y47937D02*
X02751Y48563D01*
X03017Y48829D01*
X03643Y48203D01*
X03377Y47937D01*
X03377Y47937D01*
G37*
G36*
X03603Y48163D02*
X02977Y48789D01*
X03243Y49055D01*
X03869Y48429D01*
X03603Y48163D01*
X03603Y48163D01*
G37*
G54D12*
X05690Y46240D03*
X04690Y46240D03*
X03690Y46240D03*
X02690Y46240D03*
X01690Y46240D03*
X00690Y46240D03*
X-00310Y46240D03*
X-01310Y46240D03*
X-02310Y46240D03*
X-03310Y46240D03*
X-04310Y46240D03*
X-05310Y46240D03*
X05690Y52190D03*
X04690Y52190D03*
X03690Y52190D03*
X02690Y52190D03*
X01690Y52190D03*
X00690Y52190D03*
X-00310Y52190D03*
X-01310Y52190D03*
X-02310Y52190D03*
X-03310Y52190D03*
X-04310Y52190D03*
X-05310Y52190D03*
G54D17*
X15921Y51774D03*
X15671Y51774D03*
X15411Y51774D03*
X15151Y51774D03*
X14901Y51774D03*
X14641Y51774D03*
X14381Y51774D03*
X14131Y51774D03*
X13871Y51774D03*
X13621Y51774D03*
X13361Y51774D03*
X13101Y51774D03*
X12851Y51774D03*
X12591Y51774D03*
X12591Y48974D03*
X12851Y48974D03*
X13091Y48974D03*
X13361Y48974D03*
X13621Y48974D03*
X13871Y48974D03*
X14131Y48974D03*
X14381Y48974D03*
X14641Y48974D03*
X14901Y48974D03*
X15151Y48974D03*
X15411Y48974D03*
X15671Y48974D03*
X15921Y48974D03*
G54D18*
X14271Y50349D03*
G54D12*
X10265Y46283D03*
X10091Y45298D03*
X09280Y46456D03*
X09106Y45472D03*
X08295Y46630D03*
G54D10*
G36*
X08584Y45969D02*
X08445Y45182D01*
X07658Y45321D01*
X07797Y46108D01*
X08584Y45969D01*
X08584Y45969D01*
G37*
G54D19*
X07023Y49098D03*
X07023Y51098D03*
X10023Y49098D03*
X10023Y51098D03*
G54D20*
X-03827Y50158D03*
X-03827Y49408D03*
X-02827Y50158D03*
X-03827Y49783D03*
X-02827Y49408D03*
G54D10*
G36*
X13287Y45067D02*
X13517Y45699D01*
X15111Y45119D01*
X14881Y44487D01*
X13287Y45067D01*
X13287Y45067D01*
G37*
G36*
X15637Y44211D02*
X15867Y44843D01*
X17461Y44263D01*
X17231Y43631D01*
X15637Y44211D01*
X15637Y44211D01*
G37*
G54D21*
X-05109Y49744D03*
X-07609Y49744D03*
G54D22*
X13937Y47657D03*
X13187Y47657D03*
X14762Y47657D03*
X15512Y47657D03*
X-00553Y53878D03*
X00197Y53878D03*
G54D23*
X-01832Y49527D03*
X-01832Y48777D03*
G54D22*
X05316Y49153D03*
X04566Y49153D03*
G54D10*
G36*
X04169Y48062D02*
X04756Y47475D01*
X04531Y47250D01*
X03944Y47837D01*
X04169Y48062D01*
X04169Y48062D01*
G37*
G36*
X04433Y48326D02*
X05020Y47739D01*
X04795Y47514D01*
X04208Y48101D01*
X04433Y48326D01*
X04433Y48326D01*
G37*
G36*
X03905Y47798D02*
X04492Y47211D01*
X04267Y46986D01*
X03680Y47573D01*
X03905Y47798D01*
X03905Y47798D01*
G37*
G54D23*
X-01832Y47952D03*
X-01832Y47202D03*
G54D24*
X03693Y55420D03*
X02694Y55464D03*
G54D10*
G36*
X03952Y56521D02*
X03923Y55850D01*
X03252Y55879D01*
X03281Y56550D01*
X03952Y56521D01*
X03952Y56521D01*
G37*
G36*
X03128Y56557D02*
X03099Y55886D01*
X02428Y55915D01*
X02457Y56586D01*
X03128Y56557D01*
X03128Y56557D01*
G37*
G54D24*
X14296Y53767D03*
X13320Y53984D03*
G54D10*
G36*
X14743Y54806D02*
X14597Y54150D01*
X13941Y54296D01*
X14087Y54952D01*
X14743Y54806D01*
X14743Y54806D01*
G37*
G36*
X13937Y54985D02*
X13791Y54329D01*
X13135Y54475D01*
X13281Y55131D01*
X13937Y54985D01*
X13937Y54985D01*
G37*
G54D24*
X17938Y52687D03*
X16972Y52945D03*
G54D10*
G36*
X18430Y53706D02*
X18256Y53056D01*
X17606Y53230D01*
X17780Y53880D01*
X18430Y53706D01*
X18430Y53706D01*
G37*
G36*
X17633Y53919D02*
X17459Y53269D01*
X16809Y53443D01*
X16983Y54093D01*
X17633Y53919D01*
X17633Y53919D01*
G37*
G54D24*
X21363Y51394D03*
X20423Y51736D03*
G54D10*
G36*
X21941Y52366D02*
X21711Y51734D01*
X21079Y51964D01*
X21309Y52596D01*
X21941Y52366D01*
X21941Y52366D01*
G37*
G36*
X21166Y52648D02*
X20936Y52016D01*
X20304Y52246D01*
X20534Y52878D01*
X21166Y52648D01*
X21166Y52648D01*
G37*
G54D24*
X24570Y49921D03*
X23646Y50304D03*
G54D10*
G36*
X25190Y50867D02*
X24933Y50246D01*
X24312Y50503D01*
X24569Y51124D01*
X25190Y50867D01*
X25190Y50867D01*
G37*
G36*
X24427Y51183D02*
X24170Y50562D01*
X23549Y50819D01*
X23806Y51440D01*
X24427Y51183D01*
X24427Y51183D01*
G37*
G54D24*
X27737Y48214D03*
X26830Y48637D03*
G54D10*
G36*
X28398Y49132D02*
X28114Y48522D01*
X27504Y48806D01*
X27788Y49416D01*
X28398Y49132D01*
X28398Y49132D01*
G37*
G36*
X27650Y49481D02*
X27366Y48871D01*
X26756Y49155D01*
X27040Y49765D01*
X27650Y49481D01*
X27650Y49481D01*
G37*
G54D24*
X-20571Y51629D03*
X-21478Y51206D03*
G54D10*
G36*
X-20849Y52725D02*
X-20565Y52115D01*
X-21175Y51831D01*
X-21459Y52441D01*
X-20849Y52725D01*
X-20849Y52725D01*
G37*
G36*
X-21597Y52377D02*
X-21313Y51767D01*
X-21923Y51483D01*
X-22207Y52093D01*
X-21597Y52377D01*
X-21597Y52377D01*
G37*
G54D24*
X-17352Y52838D03*
X-18292Y52496D03*
G54D10*
G36*
X-17534Y53954D02*
X-17304Y53322D01*
X-17936Y53092D01*
X-18166Y53724D01*
X-17534Y53954D01*
X-17534Y53954D01*
G37*
G36*
X-18309Y53672D02*
X-18079Y53040D01*
X-18711Y52810D01*
X-18941Y53442D01*
X-18309Y53672D01*
X-18309Y53672D01*
G37*
G54D24*
X-14020Y53811D03*
X-14986Y53553D03*
G54D10*
G36*
X-14103Y54940D02*
X-13929Y54290D01*
X-14579Y54116D01*
X-14753Y54766D01*
X-14103Y54940D01*
X-14103Y54940D01*
G37*
G36*
X-14900Y54726D02*
X-14726Y54076D01*
X-15376Y53902D01*
X-15550Y54552D01*
X-14900Y54726D01*
X-14900Y54726D01*
G37*
G54D24*
X-10692Y54590D03*
X-11677Y54416D03*
G54D10*
G36*
X-10677Y55720D02*
X-10561Y55058D01*
X-11223Y54942D01*
X-11339Y55604D01*
X-10677Y55720D01*
X-10677Y55720D01*
G37*
G36*
X-11489Y55577D02*
X-11373Y54915D01*
X-12035Y54799D01*
X-12151Y55461D01*
X-11489Y55577D01*
X-11489Y55577D01*
G37*
G54D24*
X-06689Y55427D03*
X-07682Y55305D03*
G54D10*
G36*
X-06615Y56555D02*
X-06534Y55888D01*
X-07201Y55807D01*
X-07282Y56474D01*
X-06615Y56555D01*
X-06615Y56555D01*
G37*
G36*
X-07433Y56455D02*
X-07352Y55788D01*
X-08019Y55707D01*
X-08100Y56374D01*
X-07433Y56455D01*
X-07433Y56455D01*
G37*
G54D24*
X-03482Y55425D03*
X-04481Y55381D03*
G54D10*
G36*
X-03320Y56544D02*
X-03291Y55873D01*
X-03962Y55844D01*
X-03991Y56515D01*
X-03320Y56544D01*
X-03320Y56544D01*
G37*
G36*
X-04144Y56508D02*
X-04115Y55837D01*
X-04786Y55808D01*
X-04815Y56479D01*
X-04144Y56508D01*
X-04144Y56508D01*
G37*
G54D24*
X11125Y54494D03*
X10140Y54668D03*
G54D10*
G36*
X11525Y55552D02*
X11409Y54890D01*
X10747Y55006D01*
X10863Y55668D01*
X11525Y55552D01*
X11525Y55552D01*
G37*
G36*
X10713Y55695D02*
X10597Y55033D01*
X09935Y55149D01*
X10051Y55811D01*
X10713Y55695D01*
X10713Y55695D01*
G37*
G54D24*
X07047Y55105D03*
X06056Y55235D03*
G54D10*
G36*
X07402Y56178D02*
X07314Y55512D01*
X06648Y55600D01*
X06736Y56266D01*
X07402Y56178D01*
X07402Y56178D01*
G37*
G36*
X06584Y56286D02*
X06496Y55620D01*
X05830Y55708D01*
X05918Y56374D01*
X06584Y56286D01*
X06584Y56286D01*
G37*
G54D24*
X00086Y55521D03*
X-00914Y55521D03*
G54D11*
X-00039Y56296D03*
X-00864Y56296D03*
G54D24*
X30477Y46531D03*
X29620Y47046D03*
G54D10*
G36*
X31230Y47375D02*
X30884Y46799D01*
X30308Y47145D01*
X30654Y47721D01*
X31230Y47375D01*
X31230Y47375D01*
G37*
G36*
X30523Y47799D02*
X30177Y47223D01*
X29601Y47569D01*
X29947Y48145D01*
X30523Y47799D01*
X30523Y47799D01*
G37*
G36*
X-08376Y48463D02*
X-08225Y47779D01*
X-08576Y47701D01*
X-08727Y48385D01*
X-08376Y48463D01*
X-08376Y48463D01*
G37*
G36*
X-08620Y48409D02*
X-08469Y47725D01*
X-08820Y47647D01*
X-08971Y48331D01*
X-08620Y48409D01*
X-08620Y48409D01*
G37*
G36*
X-08874Y48353D02*
X-08723Y47669D01*
X-09074Y47591D01*
X-09225Y48275D01*
X-08874Y48353D01*
X-08874Y48353D01*
G37*
G36*
X-09128Y48296D02*
X-08977Y47612D01*
X-09328Y47534D01*
X-09479Y48218D01*
X-09128Y48296D01*
X-09128Y48296D01*
G37*
G36*
X-09372Y48242D02*
X-09221Y47558D01*
X-09572Y47480D01*
X-09723Y48164D01*
X-09372Y48242D01*
X-09372Y48242D01*
G37*
G36*
X-09626Y48186D02*
X-09475Y47502D01*
X-09826Y47424D01*
X-09977Y48108D01*
X-09626Y48186D01*
X-09626Y48186D01*
G37*
G36*
X-09880Y48130D02*
X-09729Y47446D01*
X-10080Y47368D01*
X-10231Y48052D01*
X-09880Y48130D01*
X-09880Y48130D01*
G37*
G36*
X-10124Y48076D02*
X-09973Y47392D01*
X-10324Y47314D01*
X-10475Y47998D01*
X-10124Y48076D01*
X-10124Y48076D01*
G37*
G36*
X-10378Y48019D02*
X-10227Y47335D01*
X-10578Y47257D01*
X-10729Y47941D01*
X-10378Y48019D01*
X-10378Y48019D01*
G37*
G36*
X-10622Y47965D02*
X-10471Y47281D01*
X-10822Y47203D01*
X-10973Y47887D01*
X-10622Y47965D01*
X-10622Y47965D01*
G37*
G36*
X-10875Y47909D02*
X-10724Y47225D01*
X-11075Y47147D01*
X-11226Y47831D01*
X-10875Y47909D01*
X-10875Y47909D01*
G37*
G36*
X-11129Y47853D02*
X-10978Y47169D01*
X-11329Y47091D01*
X-11480Y47775D01*
X-11129Y47853D01*
X-11129Y47853D01*
G37*
G36*
X-11373Y47798D02*
X-11222Y47114D01*
X-11573Y47036D01*
X-11724Y47720D01*
X-11373Y47798D01*
X-11373Y47798D01*
G37*
G36*
X-11627Y47742D02*
X-11476Y47058D01*
X-11827Y46980D01*
X-11978Y47664D01*
X-11627Y47742D01*
X-11627Y47742D01*
G37*
G36*
X-11021Y45009D02*
X-10870Y44325D01*
X-11221Y44247D01*
X-11372Y44931D01*
X-11021Y45009D01*
X-11021Y45009D01*
G37*
G36*
X-10767Y45065D02*
X-10616Y44381D01*
X-10967Y44303D01*
X-11118Y44987D01*
X-10767Y45065D01*
X-10767Y45065D01*
G37*
G36*
X-10533Y45117D02*
X-10382Y44433D01*
X-10733Y44355D01*
X-10884Y45039D01*
X-10533Y45117D01*
X-10533Y45117D01*
G37*
G36*
X-10269Y45175D02*
X-10118Y44491D01*
X-10469Y44413D01*
X-10620Y45097D01*
X-10269Y45175D01*
X-10269Y45175D01*
G37*
G36*
X-10016Y45231D02*
X-09865Y44547D01*
X-10216Y44469D01*
X-10367Y45153D01*
X-10016Y45231D01*
X-10016Y45231D01*
G37*
G36*
X-09772Y45286D02*
X-09621Y44602D01*
X-09972Y44524D01*
X-10123Y45208D01*
X-09772Y45286D01*
X-09772Y45286D01*
G37*
G36*
X-09518Y45342D02*
X-09367Y44658D01*
X-09718Y44580D01*
X-09869Y45264D01*
X-09518Y45342D01*
X-09518Y45342D01*
G37*
G36*
X-09274Y45396D02*
X-09123Y44712D01*
X-09474Y44634D01*
X-09625Y45318D01*
X-09274Y45396D01*
X-09274Y45396D01*
G37*
G36*
X-09020Y45452D02*
X-08869Y44768D01*
X-09220Y44690D01*
X-09371Y45374D01*
X-09020Y45452D01*
X-09020Y45452D01*
G37*
G36*
X-08766Y45509D02*
X-08615Y44825D01*
X-08966Y44747D01*
X-09117Y45431D01*
X-08766Y45509D01*
X-08766Y45509D01*
G37*
G36*
X-08522Y45563D02*
X-08371Y44879D01*
X-08722Y44801D01*
X-08873Y45485D01*
X-08522Y45563D01*
X-08522Y45563D01*
G37*
G36*
X-08268Y45619D02*
X-08117Y44935D01*
X-08468Y44857D01*
X-08619Y45541D01*
X-08268Y45619D01*
X-08268Y45619D01*
G37*
G36*
X-08014Y45675D02*
X-07863Y44991D01*
X-08214Y44913D01*
X-08365Y45597D01*
X-08014Y45675D01*
X-08014Y45675D01*
G37*
G36*
X-07770Y45729D02*
X-07619Y45045D01*
X-07970Y44967D01*
X-08121Y45651D01*
X-07770Y45729D01*
X-07770Y45729D01*
G37*
G36*
X-12018Y43861D02*
X-11761Y43157D01*
X-12278Y42969D01*
X-12535Y43673D01*
X-12018Y43861D01*
X-12018Y43861D01*
G37*
G36*
X-12722Y43605D02*
X-12465Y42901D01*
X-12982Y42713D01*
X-13239Y43417D01*
X-12722Y43605D01*
X-12722Y43605D01*
G37*
G36*
X-12176Y44885D02*
X-11919Y44181D01*
X-12436Y43993D01*
X-12693Y44697D01*
X-12176Y44885D01*
X-12176Y44885D01*
G37*
G36*
X-12880Y44629D02*
X-12623Y43925D01*
X-13140Y43737D01*
X-13397Y44441D01*
X-12880Y44629D01*
X-12880Y44629D01*
G37*
G54D23*
X-01832Y50313D03*
X-01832Y51063D03*
G54D10*
G36*
X04563Y50494D02*
X04032Y49963D01*
X03643Y50352D01*
X04174Y50883D01*
X04563Y50494D01*
X04563Y50494D01*
G37*
G36*
X04033Y51024D02*
X03502Y50493D01*
X03113Y50882D01*
X03644Y51413D01*
X04033Y51024D01*
X04033Y51024D01*
G37*
G54D22*
X-02952Y48326D03*
X-03702Y48326D03*
G54D10*
G36*
X-12688Y46696D02*
X-12431Y45992D01*
X-12948Y45804D01*
X-13205Y46508D01*
X-12688Y46696D01*
X-12688Y46696D01*
G37*
G36*
X-13392Y46440D02*
X-13135Y45736D01*
X-13652Y45548D01*
X-13909Y46252D01*
X-13392Y46440D01*
X-13392Y46440D01*
G37*
G36*
X-12806Y47680D02*
X-12549Y46976D01*
X-13066Y46788D01*
X-13323Y47492D01*
X-12806Y47680D01*
X-12806Y47680D01*
G37*
G36*
X-13510Y47424D02*
X-13253Y46720D01*
X-13770Y46532D01*
X-14027Y47236D01*
X-13510Y47424D01*
X-13510Y47424D01*
G37*
G54D12*
X26252Y43005D03*
X25423Y43565D03*
X26812Y43834D03*
X25982Y44394D03*
G54D10*
G36*
X27479Y44108D02*
X26816Y44555D01*
X27263Y45218D01*
X27926Y44771D01*
X27479Y44108D01*
X27479Y44108D01*
G37*
G54D12*
X26542Y45223D03*
G54D10*
G36*
X-12570Y45790D02*
X-12313Y45086D01*
X-12830Y44898D01*
X-13087Y45602D01*
X-12570Y45790D01*
X-12570Y45790D01*
G37*
G36*
X-13274Y45534D02*
X-13017Y44830D01*
X-13534Y44642D01*
X-13791Y45346D01*
X-13274Y45534D01*
X-13274Y45534D01*
G37*
G36*
X22179Y43721D02*
X21779Y43029D01*
X21087Y43429D01*
X21487Y44121D01*
X22179Y43721D01*
X22179Y43721D01*
G37*
G54D12*
X20767Y44075D03*
X19901Y44575D03*
M02*
