G04 (created by PCBNEW-RS274X (2011-nov-30)-testing) date Mon 23 Apr 2012 04:49:45 PM EDT*
G01*
G70*
G90*
%MOIN*%
G04 Gerber Fmt 3.4, Leading zero omitted, Abs format*
%FSLAX34Y34*%
G04 APERTURE LIST*
%ADD10C,0.006000*%
%ADD11C,0.060000*%
%ADD12C,0.051200*%
%ADD13C,0.165400*%
%ADD14C,0.055000*%
%ADD15C,0.066000*%
%ADD16C,0.051400*%
%ADD17C,0.112200*%
%ADD18C,0.035000*%
%ADD19C,0.012000*%
%ADD20C,0.010000*%
G04 APERTURE END LIST*
G54D10*
G54D11*
X-18224Y46972D03*
X-18988Y48803D03*
X-18615Y47892D03*
X-19535Y47502D03*
X-19162Y46591D03*
G54D10*
G36*
X-19533Y48263D02*
X-20085Y48029D01*
X-20319Y48581D01*
X-19767Y48815D01*
X-19533Y48263D01*
X-19533Y48263D01*
G37*
G54D11*
X-02764Y53917D03*
X-01764Y53917D03*
G54D12*
X-11067Y49872D03*
X-10652Y48766D03*
G54D13*
X-08760Y54547D03*
X08720Y54311D03*
G54D11*
X05690Y46240D03*
X04690Y46240D03*
X03690Y46240D03*
X02690Y46240D03*
X01690Y46240D03*
X00690Y46240D03*
X-00310Y46240D03*
X-01310Y46240D03*
X-02310Y46240D03*
X-03310Y46240D03*
X-04310Y46240D03*
X-05310Y46240D03*
X05690Y52190D03*
X04690Y52190D03*
X03690Y52190D03*
X02690Y52190D03*
X01690Y52190D03*
X00690Y52190D03*
X-00310Y52190D03*
X-01310Y52190D03*
X-02310Y52190D03*
X-03310Y52190D03*
X-04310Y52190D03*
X-05310Y52190D03*
X10265Y46283D03*
X10091Y45298D03*
X09280Y46456D03*
X09106Y45472D03*
X08295Y46630D03*
G54D10*
G36*
X08469Y45888D02*
X08364Y45297D01*
X07773Y45402D01*
X07878Y45993D01*
X08469Y45888D01*
X08469Y45888D01*
G37*
G54D14*
X07023Y49098D03*
X07023Y51098D03*
X10023Y49098D03*
X10023Y51098D03*
G54D15*
X03693Y55420D03*
X02694Y55464D03*
X14296Y53767D03*
X13320Y53984D03*
X17938Y52687D03*
X16972Y52945D03*
X21363Y51394D03*
X20423Y51736D03*
X24570Y49921D03*
X23646Y50304D03*
X27737Y48214D03*
X26830Y48637D03*
X-20571Y51629D03*
X-21478Y51206D03*
X-17352Y52838D03*
X-18292Y52496D03*
X-14020Y53811D03*
X-14986Y53553D03*
X-10692Y54590D03*
X-11677Y54416D03*
X-06689Y55427D03*
X-07682Y55305D03*
X-03482Y55425D03*
X-04481Y55381D03*
X11125Y54494D03*
X10140Y54668D03*
X07047Y55105D03*
X06056Y55235D03*
X00086Y55521D03*
X-00914Y55521D03*
X30477Y46531D03*
X29620Y47046D03*
G54D16*
X-14807Y48330D03*
X-15263Y48666D03*
X-14215Y48545D03*
X-14673Y48881D03*
G54D17*
X-14143Y50707D03*
X-16843Y49725D03*
G54D16*
X-15398Y48115D03*
G54D11*
X26252Y43005D03*
X25423Y43565D03*
X26812Y43834D03*
X25982Y44394D03*
G54D10*
G36*
X27452Y44247D02*
X26955Y44582D01*
X27290Y45079D01*
X27787Y44744D01*
X27452Y44247D01*
X27452Y44247D01*
G37*
G54D11*
X26542Y45223D03*
G54D10*
G36*
X22043Y43685D02*
X21743Y43165D01*
X21223Y43465D01*
X21523Y43985D01*
X22043Y43685D01*
X22043Y43685D01*
G37*
G54D11*
X20767Y44075D03*
X19901Y44575D03*
G54D18*
X19444Y48018D03*
X19464Y46868D03*
X20614Y46868D03*
X21094Y47358D03*
X19024Y47338D03*
X-18226Y43428D03*
X-17836Y42548D03*
X20570Y48012D03*
X-13376Y54958D03*
X12374Y54508D03*
X27124Y50258D03*
X29874Y48658D03*
X23824Y51958D03*
X09224Y55408D03*
X-09926Y55458D03*
X-16826Y54108D03*
X20624Y53408D03*
X-20226Y53008D03*
X17124Y54658D03*
X00874Y50308D03*
X-00576Y50908D03*
X02424Y48658D03*
X04724Y49858D03*
X01924Y49758D03*
X05174Y48358D03*
X24224Y46158D03*
X-13026Y48108D03*
X04124Y45158D03*
X07274Y46608D03*
X-16876Y47858D03*
X00324Y49308D03*
X-02526Y47208D03*
X-07476Y47108D03*
X-02476Y45308D03*
X01524Y47758D03*
X03324Y47208D03*
X-00926Y47658D03*
X-04376Y47208D03*
X25124Y38658D03*
X24474Y37858D03*
X23824Y36908D03*
X-17486Y41568D03*
X01424Y53158D03*
X04374Y51108D03*
X03974Y48708D03*
X01474Y48308D03*
X01524Y50508D03*
X-08726Y49858D03*
X17524Y43558D03*
X22374Y44308D03*
X06624Y46558D03*
X00524Y45308D03*
X-13476Y47808D03*
X-12126Y45558D03*
X-14626Y47358D03*
X15874Y49708D03*
X12674Y50358D03*
X28924Y49108D03*
X12674Y51008D03*
X08274Y50558D03*
X11824Y49708D03*
X06874Y51958D03*
X13074Y45308D03*
X-01176Y49208D03*
X-15226Y44758D03*
X00774Y48108D03*
X15074Y44258D03*
G54D19*
X19464Y46898D02*
X19024Y47338D01*
X19464Y46898D02*
X19464Y46868D01*
X20614Y46868D02*
X21094Y47348D01*
X21094Y47358D02*
X21094Y47348D01*
X-03476Y55408D02*
X-03482Y55425D01*
X-04176Y55858D02*
X-03726Y55408D01*
X-03726Y55408D02*
X-03476Y55408D01*
X28174Y48658D02*
X29874Y48658D01*
X-04226Y55858D02*
X-04176Y55858D01*
X-04276Y55908D02*
X-04226Y55858D01*
X-06176Y55908D02*
X-04276Y55908D01*
X-06676Y55408D02*
X-06176Y55908D01*
X-06689Y55427D02*
X-06676Y55408D01*
X00074Y55508D02*
X00086Y55521D01*
X03674Y55408D02*
X03693Y55420D01*
X-10692Y54590D02*
X-10676Y54608D01*
X-10676Y54608D02*
X-11026Y54958D01*
X-11026Y54958D02*
X-13376Y54958D01*
X00086Y55521D02*
X00074Y55508D01*
X00074Y55508D02*
X00574Y56008D01*
X02874Y55958D02*
X02974Y55958D01*
X02974Y55958D02*
X03524Y55408D01*
X03524Y55408D02*
X03674Y55408D01*
X-03482Y55425D02*
X-03476Y55408D01*
X-03476Y55408D02*
X-03076Y55008D01*
X-03076Y55008D02*
X-00676Y55008D01*
X-00676Y55008D02*
X-00626Y55058D01*
X-00626Y55058D02*
X-00576Y55058D01*
X-00576Y55058D02*
X-00126Y55508D01*
X-00126Y55508D02*
X00074Y55508D01*
X11125Y54494D02*
X11124Y54508D01*
X11124Y54508D02*
X12374Y54508D01*
X07024Y55108D02*
X07047Y55105D01*
X24574Y49908D02*
X24924Y50258D01*
X27724Y48208D02*
X28174Y48658D01*
X27737Y48214D02*
X27724Y48208D01*
X24924Y50258D02*
X27124Y50258D01*
X24570Y49921D02*
X24574Y49908D01*
X21924Y51958D02*
X23824Y51958D01*
X18624Y53408D02*
X20624Y53408D01*
X04024Y55758D02*
X06274Y55758D01*
X21363Y51394D02*
X21374Y51408D01*
X-08026Y55758D02*
X-08226Y55558D01*
X-07976Y55758D02*
X-08026Y55758D01*
X-07926Y55808D02*
X-07976Y55758D01*
X-07826Y55808D02*
X-07926Y55808D01*
X-07776Y55858D02*
X-07826Y55808D01*
X-07126Y55858D02*
X-07776Y55858D01*
X-06676Y55408D02*
X-07126Y55858D01*
X-06689Y55427D02*
X-06676Y55408D01*
X-08226Y55558D02*
X-09076Y55558D01*
X07324Y55408D02*
X09224Y55408D01*
X07024Y55108D02*
X07324Y55408D01*
X-09076Y55558D02*
X-09126Y55508D01*
X-09126Y55508D02*
X-09226Y55508D01*
X-09226Y55508D02*
X-09276Y55458D01*
X-09276Y55458D02*
X-09926Y55458D01*
X03693Y55420D02*
X03674Y55408D01*
X00574Y56008D02*
X02824Y56008D01*
X02824Y56008D02*
X02874Y55958D01*
X06274Y55758D02*
X06324Y55708D01*
X06324Y55708D02*
X06374Y55708D01*
X06374Y55708D02*
X06974Y55108D01*
X06974Y55108D02*
X07024Y55108D01*
X-14326Y54108D02*
X-16826Y54108D01*
X03674Y55408D02*
X04024Y55758D01*
X17924Y52708D02*
X18624Y53408D01*
X17938Y52687D02*
X17924Y52708D01*
X-14026Y53808D02*
X-14326Y54108D01*
X-17526Y53008D02*
X-20226Y53008D01*
X-17376Y52858D02*
X-17526Y53008D01*
X-17352Y52838D02*
X-17376Y52858D01*
X-14020Y53811D02*
X-14026Y53808D01*
X14296Y53767D02*
X14274Y53758D01*
X14274Y53758D02*
X15174Y54658D01*
X21374Y51408D02*
X21924Y51958D01*
X15174Y54658D02*
X17124Y54658D01*
X07047Y55105D02*
X07024Y55108D01*
X-00826Y52058D02*
X-00826Y52958D01*
X00874Y50308D02*
X-00576Y51758D01*
X-00576Y51758D02*
X-00626Y51758D01*
X-00626Y51758D02*
X-00776Y51908D01*
X-00776Y51908D02*
X-00776Y52008D01*
X-00826Y52958D02*
X-01776Y53908D01*
X-01776Y53908D02*
X-01764Y53917D01*
X-00776Y52008D02*
X-00826Y52058D01*
X-01826Y52958D02*
X-02776Y53908D01*
X-01776Y51908D02*
X-01776Y52008D01*
X-01626Y51758D02*
X-01776Y51908D01*
X-02776Y53908D02*
X-02764Y53917D01*
X-01776Y52008D02*
X-01826Y52058D01*
X-01826Y52058D02*
X-01826Y52958D01*
X-01576Y51758D02*
X-01626Y51758D01*
X-01526Y51708D02*
X-01576Y51758D01*
X-01376Y51708D02*
X-01526Y51708D01*
X-00576Y50908D02*
X-01376Y51708D01*
X03690Y46240D02*
X03674Y46258D01*
X02474Y48658D02*
X02424Y48658D01*
X03724Y47108D02*
X03724Y47408D01*
X03724Y47408D02*
X02474Y48658D01*
X05624Y44958D02*
X05674Y44908D01*
X06374Y44858D02*
X06424Y44808D01*
X06724Y44758D02*
X07024Y44758D01*
X06674Y44808D02*
X06724Y44758D01*
X05224Y44958D02*
X05624Y44958D01*
X05674Y44908D02*
X05974Y44908D01*
X05974Y44908D02*
X06024Y44858D01*
X07024Y44758D02*
X07074Y44708D01*
X07324Y44708D02*
X07374Y44658D01*
X03674Y46258D02*
X04924Y45008D01*
X05174Y45008D02*
X05224Y44958D01*
X07374Y44658D02*
X15174Y44658D01*
X07074Y44708D02*
X07324Y44708D01*
X06424Y44808D02*
X06674Y44808D01*
X04924Y45008D02*
X05174Y45008D01*
X06024Y44858D02*
X06374Y44858D01*
X03690Y46240D02*
X03674Y46258D01*
X19924Y44558D02*
X19901Y44575D01*
X03674Y46258D02*
X03674Y47058D01*
X15174Y44658D02*
X15224Y44608D01*
X15324Y44558D02*
X19924Y44558D01*
X03674Y47058D02*
X03724Y47108D01*
X15224Y44608D02*
X15274Y44608D01*
X15274Y44608D02*
X15324Y44558D01*
X05690Y46240D02*
X05674Y46258D01*
X05674Y46258D02*
X05674Y47858D01*
X05674Y47858D02*
X05174Y48358D01*
X04624Y49758D02*
X01924Y49758D01*
X04724Y49858D02*
X04624Y49758D01*
X10424Y46758D02*
X10524Y46758D01*
X08424Y47108D02*
X08524Y47108D01*
X00574Y46758D02*
X00824Y46758D01*
X-00626Y47958D02*
X00574Y46758D01*
X08374Y47158D02*
X08424Y47108D01*
X02024Y45208D02*
X02924Y45208D01*
X-00826Y48058D02*
X-00776Y48008D01*
X00874Y46708D02*
X00974Y46708D01*
X-12976Y48058D02*
X-00826Y48058D01*
X00974Y46708D02*
X01124Y46558D01*
X01974Y45258D02*
X02024Y45208D01*
X-13026Y48108D02*
X-12976Y48058D01*
X08524Y47108D02*
X08574Y47058D01*
X01124Y46558D02*
X01124Y46508D01*
X11124Y46158D02*
X24224Y46158D01*
X-18615Y47892D02*
X-18626Y47908D01*
X00824Y46758D02*
X00874Y46708D01*
X01124Y46508D02*
X01174Y46458D01*
X-18576Y47858D02*
X-16876Y47858D01*
X08724Y46958D02*
X09474Y46958D01*
X-00676Y47958D02*
X-00626Y47958D01*
X01924Y45258D02*
X01974Y45258D01*
X09674Y46808D02*
X10374Y46808D01*
X09474Y46958D02*
X09524Y46908D01*
X09574Y46908D02*
X09674Y46808D01*
X10524Y46758D02*
X11124Y46158D01*
X10374Y46808D02*
X10424Y46758D01*
X09524Y46908D02*
X09574Y46908D01*
X08624Y47058D02*
X08724Y46958D01*
X01174Y46458D02*
X01174Y46008D01*
X07824Y47158D02*
X08374Y47158D01*
X-18626Y47908D02*
X-18576Y47858D01*
X08574Y47058D02*
X08624Y47058D01*
X02974Y45158D02*
X04124Y45158D01*
X02924Y45208D02*
X02974Y45158D01*
X01174Y46008D02*
X01924Y45258D01*
X07274Y46608D02*
X07824Y47158D01*
X-00776Y48008D02*
X-00726Y48008D01*
X-00726Y48008D02*
X-00676Y47958D01*
X07024Y49108D02*
X07023Y49098D01*
X02774Y49258D02*
X02824Y49208D01*
X-03326Y46258D02*
X-03310Y46240D01*
X02974Y49108D02*
X07024Y49108D01*
X-02526Y47208D02*
X-02526Y47058D01*
X07023Y49098D02*
X07024Y49108D01*
X-02526Y47058D02*
X-03326Y46258D01*
X07024Y49108D02*
X10024Y49108D01*
X10024Y49108D02*
X10023Y49098D01*
X00324Y49308D02*
X02674Y49308D01*
X02674Y49308D02*
X02724Y49258D01*
X02724Y49258D02*
X02774Y49258D01*
X02824Y49208D02*
X02874Y49208D01*
X02874Y49208D02*
X02974Y49108D01*
X-07126Y46758D02*
X-05176Y46758D01*
X-07476Y47108D02*
X-07126Y46758D01*
X-05176Y46758D02*
X-05126Y46708D01*
X-05126Y46708D02*
X-05026Y46708D01*
X-05026Y46708D02*
X-04576Y46258D01*
X-04576Y46258D02*
X-04326Y46258D01*
X-04326Y46258D02*
X-04310Y46240D01*
X-03376Y45308D02*
X-02476Y45308D01*
X-04326Y46258D02*
X-03376Y45308D01*
X-04310Y46240D02*
X-04326Y46258D01*
X02774Y47758D02*
X01524Y47758D01*
X03324Y47208D02*
X02774Y47758D01*
X-03926Y47658D02*
X-00926Y47658D01*
X-04376Y47208D02*
X-03926Y47658D01*
X01524Y51608D02*
X01224Y51908D01*
X01224Y52008D02*
X01174Y52058D01*
X01174Y52908D02*
X01424Y53158D01*
X01174Y52058D02*
X01174Y52908D01*
X01474Y48308D02*
X02224Y49058D01*
X01224Y51908D02*
X01224Y52008D01*
X04374Y51108D02*
X07024Y51108D01*
X07024Y51108D02*
X07023Y51098D01*
X02224Y49058D02*
X02524Y49058D01*
X02524Y49058D02*
X02574Y49008D01*
X02624Y49008D02*
X02674Y48958D01*
X02674Y48958D02*
X02724Y48958D01*
X02724Y48958D02*
X02974Y48708D01*
X02974Y48708D02*
X03974Y48708D01*
X10024Y51108D02*
X10023Y51098D01*
X-08726Y49858D02*
X-11076Y49858D01*
X-11076Y49858D02*
X-11067Y49872D01*
X07023Y51098D02*
X07024Y51108D01*
X07024Y51108D02*
X10024Y51108D01*
X02574Y49008D02*
X02624Y49008D01*
X01524Y50508D02*
X01524Y51608D01*
X17524Y43558D02*
X21624Y43558D01*
X21624Y43558D02*
X21633Y43575D01*
X23774Y45708D02*
X26774Y45708D01*
X-14215Y48545D02*
X-14226Y48558D01*
X-14226Y48558D02*
X-14226Y49108D01*
X-14226Y49108D02*
X-14476Y49358D01*
X-14476Y49358D02*
X-14776Y49358D01*
X-14776Y49358D02*
X-14826Y49308D01*
X-14826Y49308D02*
X-14926Y49308D01*
X-14926Y49308D02*
X-15126Y49108D01*
X08124Y45658D02*
X08121Y45645D01*
X22374Y44308D02*
X23774Y45708D01*
X07524Y45658D02*
X08124Y45658D01*
X06624Y46558D02*
X07524Y45658D01*
X27374Y44658D02*
X27371Y44663D01*
X26774Y45708D02*
X26824Y45658D01*
X26824Y45658D02*
X26874Y45658D01*
X26874Y45658D02*
X26974Y45558D01*
X26974Y45558D02*
X26974Y45508D01*
X26974Y45508D02*
X27024Y45458D01*
X27024Y45458D02*
X27024Y45008D01*
X27024Y45008D02*
X27374Y44658D01*
X-01626Y45808D02*
X-02076Y46258D01*
X-15476Y49108D02*
X-15526Y49058D01*
X00524Y45308D02*
X00074Y45758D01*
X00074Y45758D02*
X-01526Y45758D01*
X-01526Y45758D02*
X-01576Y45808D01*
X-01576Y45808D02*
X-01626Y45808D01*
X-15126Y49108D02*
X-15476Y49108D01*
X-02076Y46258D02*
X-02326Y46258D01*
X-02326Y46258D02*
X-02310Y46240D01*
X-19426Y49108D02*
X-19426Y49058D01*
X-19176Y49308D02*
X-19226Y49258D01*
X-15526Y49058D02*
X-15576Y49058D01*
X-15576Y49058D02*
X-15676Y48958D01*
X-15676Y48958D02*
X-17076Y48958D01*
X-17076Y48958D02*
X-17126Y49008D01*
X-17126Y49008D02*
X-17176Y49008D01*
X-17176Y49008D02*
X-17226Y49058D01*
X-17226Y49058D02*
X-17276Y49058D01*
X-17276Y49058D02*
X-17526Y49308D01*
X-17526Y49308D02*
X-19176Y49308D01*
X-19426Y49058D02*
X-19476Y49008D01*
X-19276Y49258D02*
X-19426Y49108D01*
X-19226Y49258D02*
X-19276Y49258D01*
X-19476Y49008D02*
X-19476Y48858D01*
X-19476Y48858D02*
X-19926Y48408D01*
X-19926Y48408D02*
X-19926Y48422D01*
X-15076Y47808D02*
X-13476Y47808D01*
X-15376Y48108D02*
X-15076Y47808D01*
X-15398Y48115D02*
X-15376Y48108D01*
X-13926Y47358D02*
X-14626Y47358D01*
X-12126Y45558D02*
X-13926Y47358D01*
X06074Y55258D02*
X06056Y55235D01*
X06674Y54708D02*
X06624Y54708D01*
X06624Y54708D02*
X06074Y55258D01*
X08324Y53358D02*
X08274Y53358D01*
X06774Y54608D02*
X06674Y54708D01*
X06874Y54608D02*
X06774Y54608D01*
X06924Y54558D02*
X06874Y54608D01*
X06974Y54558D02*
X06924Y54558D01*
X08074Y53458D02*
X06974Y54558D01*
X08124Y53458D02*
X08074Y53458D01*
X08174Y53408D02*
X08124Y53458D01*
X15874Y49708D02*
X12324Y53258D01*
X12324Y53258D02*
X08624Y53258D01*
X08624Y53258D02*
X08574Y53308D01*
X08574Y53308D02*
X08374Y53308D01*
X08374Y53308D02*
X08324Y53358D01*
X08274Y53358D02*
X08224Y53408D01*
X08224Y53408D02*
X08174Y53408D01*
X01274Y50108D02*
X01624Y50108D01*
X01824Y50208D02*
X03174Y51558D01*
X03174Y51558D02*
X10224Y51558D01*
X01624Y50108D02*
X01674Y50158D01*
X01774Y50208D02*
X01824Y50208D01*
X01724Y50158D02*
X01774Y50208D01*
X10224Y51558D02*
X10274Y51508D01*
X11474Y50358D02*
X12674Y50358D01*
X10274Y51508D02*
X10324Y51508D01*
X10324Y51508D02*
X11474Y50358D01*
X-08576Y50208D02*
X-08526Y50208D01*
X01674Y50158D02*
X01724Y50158D01*
X01174Y50008D02*
X01274Y50108D01*
X-13876Y51458D02*
X-13826Y51408D01*
X-13776Y51408D02*
X-13726Y51358D01*
X-13826Y51408D02*
X-13776Y51408D01*
X-12626Y50308D02*
X-10826Y50308D01*
X-13726Y51358D02*
X-13676Y51358D01*
X-13676Y51358D02*
X-12626Y50308D01*
X-21478Y51206D02*
X-21426Y51158D01*
X-19926Y51458D02*
X-13876Y51458D01*
X-20176Y51208D02*
X-19926Y51458D01*
X-20226Y51208D02*
X-20176Y51208D01*
X-20326Y51108D02*
X-20226Y51208D01*
X-21426Y51158D02*
X-21376Y51108D01*
X-21376Y51108D02*
X-20326Y51108D01*
X-08526Y50208D02*
X-08476Y50158D01*
X-08476Y50158D02*
X-08426Y50158D01*
X-08626Y50258D02*
X-08576Y50208D01*
X-10776Y50258D02*
X-08626Y50258D01*
X-08426Y50158D02*
X-08176Y49908D01*
X-08176Y49908D02*
X00974Y49908D01*
X-10826Y50308D02*
X-10776Y50258D01*
X01124Y50008D02*
X01174Y50008D01*
X01074Y49958D02*
X01124Y50008D01*
X00974Y49908D02*
X01024Y49958D01*
X01024Y49958D02*
X01074Y49958D01*
X27074Y49158D02*
X27124Y49108D01*
X14524Y49158D02*
X27074Y49158D01*
X27124Y49108D02*
X28924Y49108D01*
X12674Y51008D02*
X14524Y49158D01*
X09124Y49708D02*
X11824Y49708D01*
X06674Y51958D02*
X06874Y51958D01*
X05974Y52658D02*
X06674Y51958D01*
X05874Y52658D02*
X05974Y52658D01*
X05824Y52708D02*
X05874Y52658D01*
X05424Y52708D02*
X05824Y52708D01*
X02674Y55458D02*
X05424Y52708D01*
X02694Y55464D02*
X02674Y55458D01*
X08274Y50558D02*
X09124Y49708D01*
X23124Y43008D02*
X26274Y43008D01*
X10091Y45298D02*
X10074Y45308D01*
X22324Y43808D02*
X23124Y43008D01*
X22274Y43808D02*
X22324Y43808D01*
X22224Y43858D02*
X22274Y43808D01*
X22174Y43858D02*
X22224Y43858D01*
X22124Y43908D02*
X22174Y43858D01*
X22074Y43908D02*
X22124Y43908D01*
X21974Y44008D02*
X22074Y43908D01*
X21924Y44008D02*
X21974Y44008D01*
X21874Y44058D02*
X21924Y44008D01*
X21824Y44058D02*
X21874Y44058D01*
X21774Y44108D02*
X21824Y44058D01*
X-15676Y45208D02*
X-15226Y44758D01*
X26274Y43008D02*
X26252Y43005D01*
X10074Y45308D02*
X13074Y45308D01*
X-00076Y48108D02*
X00774Y48108D01*
X-01176Y49208D02*
X-00076Y48108D01*
X-17926Y45358D02*
X-15976Y45358D01*
X-15976Y45358D02*
X-15926Y45308D01*
X-15926Y45308D02*
X-15876Y45308D01*
X-15876Y45308D02*
X-15826Y45258D01*
X-19176Y46608D02*
X-17926Y45358D01*
X-15726Y45208D02*
X-15676Y45208D01*
X-15776Y45258D02*
X-15726Y45208D01*
X-15826Y45258D02*
X-15776Y45258D01*
X-19162Y46591D02*
X-19176Y46608D01*
X20774Y44058D02*
X20767Y44075D01*
X21574Y44208D02*
X21624Y44208D01*
X21524Y44258D02*
X21574Y44208D01*
X20974Y44258D02*
X21524Y44258D01*
X20774Y44058D02*
X20974Y44258D01*
X20767Y44075D02*
X20774Y44058D01*
X21724Y44108D02*
X21774Y44108D01*
X21624Y44208D02*
X21724Y44108D01*
X15274Y44058D02*
X20774Y44058D01*
X15074Y44258D02*
X15274Y44058D01*
G54D10*
G36*
X01483Y45260D02*
X01359Y45266D01*
X-01569Y45207D01*
X-02059Y45226D01*
X-02052Y45255D01*
X-02051Y45350D01*
X-02067Y45432D01*
X-02099Y45509D01*
X-02145Y45578D01*
X-02204Y45637D01*
X-02273Y45684D01*
X-02350Y45716D01*
X-02432Y45733D01*
X-02515Y45733D01*
X-02597Y45718D01*
X-02674Y45686D01*
X-02744Y45641D01*
X-02767Y45618D01*
X-03248Y45618D01*
X-03321Y45691D01*
X-03268Y45690D01*
X-03161Y45709D01*
X-03061Y45748D01*
X-02970Y45805D01*
X-02892Y45880D01*
X-02830Y45968D01*
X-02786Y46066D01*
X-02763Y46171D01*
X-02761Y46294D01*
X-02777Y46370D01*
X-02309Y46837D01*
X-02307Y46839D01*
X-02299Y46849D01*
X-02299Y46850D01*
X-02263Y46872D01*
X-02202Y46929D01*
X-02155Y46997D01*
X-02121Y47074D01*
X-02102Y47155D01*
X-02101Y47250D01*
X-02117Y47332D01*
X-02124Y47348D01*
X-01218Y47348D01*
X-01203Y47333D01*
X-01134Y47285D01*
X-01058Y47252D01*
X-00976Y47234D01*
X-00893Y47232D01*
X-00811Y47247D01*
X-00733Y47277D01*
X-00663Y47322D01*
X-00602Y47379D01*
X-00555Y47447D01*
X-00555Y47449D01*
X00283Y46611D01*
X00267Y46594D01*
X00207Y46506D01*
X00190Y46468D01*
X00177Y46499D01*
X00117Y46589D01*
X00042Y46665D01*
X-00048Y46725D01*
X-00147Y46767D01*
X-00253Y46789D01*
X-00360Y46789D01*
X-00466Y46769D01*
X-00566Y46729D01*
X-00656Y46670D01*
X-00733Y46594D01*
X-00793Y46506D01*
X-00810Y46468D01*
X-00823Y46499D01*
X-00883Y46589D01*
X-00958Y46665D01*
X-01048Y46725D01*
X-01147Y46767D01*
X-01253Y46789D01*
X-01360Y46789D01*
X-01466Y46769D01*
X-01566Y46729D01*
X-01656Y46670D01*
X-01733Y46594D01*
X-01793Y46506D01*
X-01836Y46407D01*
X-01858Y46301D01*
X-01860Y46194D01*
X-01840Y46088D01*
X-01801Y45988D01*
X-01742Y45897D01*
X-01667Y45820D01*
X-01579Y45758D01*
X-01480Y45715D01*
X-01375Y45692D01*
X-01268Y45690D01*
X-01161Y45709D01*
X-01061Y45748D01*
X-00970Y45805D01*
X-00892Y45880D01*
X-00830Y45968D01*
X-00811Y46012D01*
X-00801Y45988D01*
X-00742Y45897D01*
X-00667Y45820D01*
X-00579Y45758D01*
X-00480Y45715D01*
X-00375Y45692D01*
X-00268Y45690D01*
X-00161Y45709D01*
X-00061Y45748D01*
X00030Y45805D01*
X00108Y45880D01*
X00170Y45968D01*
X00189Y46012D01*
X00199Y45988D01*
X00258Y45897D01*
X00333Y45820D01*
X00421Y45758D01*
X00520Y45715D01*
X00625Y45692D01*
X00732Y45690D01*
X00839Y45709D01*
X00939Y45748D01*
X00974Y45770D01*
X01483Y45260D01*
X01483Y45260D01*
G37*
G54D20*
X01483Y45260D02*
X01359Y45266D01*
X-01569Y45207D01*
X-02059Y45226D01*
X-02052Y45255D01*
X-02051Y45350D01*
X-02067Y45432D01*
X-02099Y45509D01*
X-02145Y45578D01*
X-02204Y45637D01*
X-02273Y45684D01*
X-02350Y45716D01*
X-02432Y45733D01*
X-02515Y45733D01*
X-02597Y45718D01*
X-02674Y45686D01*
X-02744Y45641D01*
X-02767Y45618D01*
X-03248Y45618D01*
X-03321Y45691D01*
X-03268Y45690D01*
X-03161Y45709D01*
X-03061Y45748D01*
X-02970Y45805D01*
X-02892Y45880D01*
X-02830Y45968D01*
X-02786Y46066D01*
X-02763Y46171D01*
X-02761Y46294D01*
X-02777Y46370D01*
X-02309Y46837D01*
X-02307Y46839D01*
X-02299Y46849D01*
X-02299Y46850D01*
X-02263Y46872D01*
X-02202Y46929D01*
X-02155Y46997D01*
X-02121Y47074D01*
X-02102Y47155D01*
X-02101Y47250D01*
X-02117Y47332D01*
X-02124Y47348D01*
X-01218Y47348D01*
X-01203Y47333D01*
X-01134Y47285D01*
X-01058Y47252D01*
X-00976Y47234D01*
X-00893Y47232D01*
X-00811Y47247D01*
X-00733Y47277D01*
X-00663Y47322D01*
X-00602Y47379D01*
X-00555Y47447D01*
X-00555Y47449D01*
X00283Y46611D01*
X00267Y46594D01*
X00207Y46506D01*
X00190Y46468D01*
X00177Y46499D01*
X00117Y46589D01*
X00042Y46665D01*
X-00048Y46725D01*
X-00147Y46767D01*
X-00253Y46789D01*
X-00360Y46789D01*
X-00466Y46769D01*
X-00566Y46729D01*
X-00656Y46670D01*
X-00733Y46594D01*
X-00793Y46506D01*
X-00810Y46468D01*
X-00823Y46499D01*
X-00883Y46589D01*
X-00958Y46665D01*
X-01048Y46725D01*
X-01147Y46767D01*
X-01253Y46789D01*
X-01360Y46789D01*
X-01466Y46769D01*
X-01566Y46729D01*
X-01656Y46670D01*
X-01733Y46594D01*
X-01793Y46506D01*
X-01836Y46407D01*
X-01858Y46301D01*
X-01860Y46194D01*
X-01840Y46088D01*
X-01801Y45988D01*
X-01742Y45897D01*
X-01667Y45820D01*
X-01579Y45758D01*
X-01480Y45715D01*
X-01375Y45692D01*
X-01268Y45690D01*
X-01161Y45709D01*
X-01061Y45748D01*
X-00970Y45805D01*
X-00892Y45880D01*
X-00830Y45968D01*
X-00811Y46012D01*
X-00801Y45988D01*
X-00742Y45897D01*
X-00667Y45820D01*
X-00579Y45758D01*
X-00480Y45715D01*
X-00375Y45692D01*
X-00268Y45690D01*
X-00161Y45709D01*
X-00061Y45748D01*
X00030Y45805D01*
X00108Y45880D01*
X00170Y45968D01*
X00189Y46012D01*
X00199Y45988D01*
X00258Y45897D01*
X00333Y45820D01*
X00421Y45758D01*
X00520Y45715D01*
X00625Y45692D01*
X00732Y45690D01*
X00839Y45709D01*
X00939Y45748D01*
X00974Y45770D01*
X01483Y45260D01*
G54D10*
G36*
X02625Y48068D02*
X01815Y48068D01*
X01796Y48087D01*
X01727Y48134D01*
X01650Y48166D01*
X01568Y48183D01*
X01485Y48183D01*
X01403Y48168D01*
X01326Y48136D01*
X01256Y48091D01*
X01197Y48032D01*
X01190Y48023D01*
X01198Y48055D01*
X01199Y48150D01*
X01183Y48232D01*
X01151Y48309D01*
X01105Y48378D01*
X01046Y48437D01*
X00977Y48484D01*
X00900Y48516D01*
X00818Y48533D01*
X00735Y48533D01*
X00653Y48518D01*
X00576Y48486D01*
X00506Y48441D01*
X00483Y48418D01*
X00052Y48418D01*
X-00752Y49222D01*
X-00751Y49250D01*
X-00767Y49332D01*
X-00799Y49409D01*
X-00845Y49478D01*
X-00904Y49537D01*
X-00973Y49584D01*
X-01007Y49598D01*
X00013Y49598D01*
X-00003Y49582D01*
X-00050Y49513D01*
X-00083Y49437D01*
X-00100Y49355D01*
X-00102Y49272D01*
X-00086Y49190D01*
X-00056Y49112D01*
X-00010Y49042D01*
X00047Y48983D01*
X00116Y48935D01*
X00192Y48902D01*
X00274Y48884D01*
X00357Y48882D01*
X00439Y48897D01*
X00517Y48927D01*
X00587Y48972D01*
X00614Y48998D01*
X02166Y48998D01*
X02156Y48991D01*
X02097Y48932D01*
X02050Y48863D01*
X02017Y48787D01*
X02000Y48705D01*
X01998Y48622D01*
X02014Y48540D01*
X02044Y48462D01*
X02090Y48392D01*
X02147Y48333D01*
X02216Y48285D01*
X02292Y48252D01*
X02374Y48234D01*
X02457Y48232D01*
X02461Y48233D01*
X02625Y48068D01*
X02625Y48068D01*
G37*
G54D20*
X02625Y48068D02*
X01815Y48068D01*
X01796Y48087D01*
X01727Y48134D01*
X01650Y48166D01*
X01568Y48183D01*
X01485Y48183D01*
X01403Y48168D01*
X01326Y48136D01*
X01256Y48091D01*
X01197Y48032D01*
X01190Y48023D01*
X01198Y48055D01*
X01199Y48150D01*
X01183Y48232D01*
X01151Y48309D01*
X01105Y48378D01*
X01046Y48437D01*
X00977Y48484D01*
X00900Y48516D01*
X00818Y48533D01*
X00735Y48533D01*
X00653Y48518D01*
X00576Y48486D01*
X00506Y48441D01*
X00483Y48418D01*
X00052Y48418D01*
X-00752Y49222D01*
X-00751Y49250D01*
X-00767Y49332D01*
X-00799Y49409D01*
X-00845Y49478D01*
X-00904Y49537D01*
X-00973Y49584D01*
X-01007Y49598D01*
X00013Y49598D01*
X-00003Y49582D01*
X-00050Y49513D01*
X-00083Y49437D01*
X-00100Y49355D01*
X-00102Y49272D01*
X-00086Y49190D01*
X-00056Y49112D01*
X-00010Y49042D01*
X00047Y48983D01*
X00116Y48935D01*
X00192Y48902D01*
X00274Y48884D01*
X00357Y48882D01*
X00439Y48897D01*
X00517Y48927D01*
X00587Y48972D01*
X00614Y48998D01*
X02166Y48998D01*
X02156Y48991D01*
X02097Y48932D01*
X02050Y48863D01*
X02017Y48787D01*
X02000Y48705D01*
X01998Y48622D01*
X02014Y48540D01*
X02044Y48462D01*
X02090Y48392D01*
X02147Y48333D01*
X02216Y48285D01*
X02292Y48252D01*
X02374Y48234D01*
X02457Y48232D01*
X02461Y48233D01*
X02625Y48068D01*
G54D10*
G36*
X02836Y51659D02*
X01680Y50503D01*
X01679Y50502D01*
X01656Y50495D01*
X01602Y50466D01*
X01587Y50455D01*
X01586Y50454D01*
X01556Y50445D01*
X01505Y50418D01*
X01285Y50418D01*
X01283Y50432D01*
X01251Y50509D01*
X01205Y50578D01*
X01146Y50637D01*
X01077Y50684D01*
X01000Y50716D01*
X00918Y50733D01*
X00887Y50733D01*
X-00074Y51694D01*
X-00061Y51698D01*
X00030Y51755D01*
X00108Y51830D01*
X00170Y51918D01*
X00189Y51962D01*
X00199Y51938D01*
X00258Y51847D01*
X00333Y51770D01*
X00421Y51708D01*
X00520Y51665D01*
X00625Y51642D01*
X00732Y51640D01*
X00839Y51659D01*
X00939Y51698D01*
X01030Y51755D01*
X01108Y51830D01*
X01170Y51918D01*
X01189Y51962D01*
X01199Y51938D01*
X01258Y51847D01*
X01333Y51770D01*
X01421Y51708D01*
X01520Y51665D01*
X01625Y51642D01*
X01732Y51640D01*
X01839Y51659D01*
X01939Y51698D01*
X02030Y51755D01*
X02108Y51830D01*
X02170Y51918D01*
X02189Y51962D01*
X02199Y51938D01*
X02258Y51847D01*
X02333Y51770D01*
X02421Y51708D01*
X02520Y51665D01*
X02625Y51642D01*
X02732Y51640D01*
X02836Y51659D01*
X02836Y51659D01*
G37*
G54D20*
X02836Y51659D02*
X01680Y50503D01*
X01679Y50502D01*
X01656Y50495D01*
X01602Y50466D01*
X01587Y50455D01*
X01586Y50454D01*
X01556Y50445D01*
X01505Y50418D01*
X01285Y50418D01*
X01283Y50432D01*
X01251Y50509D01*
X01205Y50578D01*
X01146Y50637D01*
X01077Y50684D01*
X01000Y50716D01*
X00918Y50733D01*
X00887Y50733D01*
X-00074Y51694D01*
X-00061Y51698D01*
X00030Y51755D01*
X00108Y51830D01*
X00170Y51918D01*
X00189Y51962D01*
X00199Y51938D01*
X00258Y51847D01*
X00333Y51770D01*
X00421Y51708D01*
X00520Y51665D01*
X00625Y51642D01*
X00732Y51640D01*
X00839Y51659D01*
X00939Y51698D01*
X01030Y51755D01*
X01108Y51830D01*
X01170Y51918D01*
X01189Y51962D01*
X01199Y51938D01*
X01258Y51847D01*
X01333Y51770D01*
X01421Y51708D01*
X01520Y51665D01*
X01625Y51642D01*
X01732Y51640D01*
X01839Y51659D01*
X01939Y51698D01*
X02030Y51755D01*
X02108Y51830D01*
X02170Y51918D01*
X02189Y51962D01*
X02199Y51938D01*
X02258Y51847D01*
X02333Y51770D01*
X02421Y51708D01*
X02520Y51665D01*
X02625Y51642D01*
X02732Y51640D01*
X02836Y51659D01*
G54D10*
G36*
X11566Y50048D02*
X11556Y50041D01*
X11533Y50018D01*
X09252Y50018D01*
X08698Y50572D01*
X08699Y50600D01*
X08683Y50682D01*
X08651Y50759D01*
X08605Y50828D01*
X08546Y50887D01*
X08477Y50934D01*
X08400Y50966D01*
X08318Y50983D01*
X08235Y50983D01*
X08153Y50968D01*
X08076Y50936D01*
X08006Y50891D01*
X07947Y50832D01*
X07900Y50763D01*
X07867Y50687D01*
X07850Y50605D01*
X07848Y50522D01*
X07864Y50440D01*
X07894Y50362D01*
X07940Y50292D01*
X07997Y50233D01*
X08066Y50185D01*
X08142Y50152D01*
X08224Y50134D01*
X08260Y50134D01*
X08903Y49491D01*
X08905Y49489D01*
X08919Y49478D01*
X08949Y49452D01*
X08951Y49451D01*
X09002Y49423D01*
X09004Y49422D01*
X09017Y49418D01*
X07439Y49418D01*
X07431Y49430D01*
X07359Y49503D01*
X07274Y49561D01*
X07179Y49601D01*
X07078Y49622D01*
X06976Y49622D01*
X06875Y49603D01*
X06779Y49565D01*
X06693Y49509D01*
X06620Y49437D01*
X06607Y49418D01*
X03102Y49418D01*
X03095Y49425D01*
X03093Y49427D01*
X03079Y49439D01*
X03067Y49448D01*
X04610Y49448D01*
X04674Y49434D01*
X04757Y49432D01*
X04839Y49447D01*
X04917Y49477D01*
X04987Y49522D01*
X05048Y49579D01*
X05095Y49647D01*
X05129Y49724D01*
X05148Y49805D01*
X05149Y49900D01*
X05133Y49982D01*
X05101Y50059D01*
X05055Y50128D01*
X04996Y50187D01*
X04927Y50234D01*
X04850Y50266D01*
X04768Y50283D01*
X04685Y50283D01*
X04603Y50268D01*
X04526Y50236D01*
X04456Y50191D01*
X04397Y50132D01*
X04353Y50068D01*
X02215Y50068D01*
X02196Y50087D01*
X02163Y50110D01*
X03302Y51248D01*
X10106Y51248D01*
X10152Y51223D01*
X10154Y51222D01*
X10179Y51215D01*
X11253Y50141D01*
X11255Y50139D01*
X11269Y50128D01*
X11299Y50102D01*
X11301Y50101D01*
X11352Y50073D01*
X11354Y50072D01*
X11410Y50055D01*
X11413Y50054D01*
X11433Y50053D01*
X11470Y50048D01*
X11474Y50048D01*
X11566Y50048D01*
X11566Y50048D01*
G37*
G54D20*
X11566Y50048D02*
X11556Y50041D01*
X11533Y50018D01*
X09252Y50018D01*
X08698Y50572D01*
X08699Y50600D01*
X08683Y50682D01*
X08651Y50759D01*
X08605Y50828D01*
X08546Y50887D01*
X08477Y50934D01*
X08400Y50966D01*
X08318Y50983D01*
X08235Y50983D01*
X08153Y50968D01*
X08076Y50936D01*
X08006Y50891D01*
X07947Y50832D01*
X07900Y50763D01*
X07867Y50687D01*
X07850Y50605D01*
X07848Y50522D01*
X07864Y50440D01*
X07894Y50362D01*
X07940Y50292D01*
X07997Y50233D01*
X08066Y50185D01*
X08142Y50152D01*
X08224Y50134D01*
X08260Y50134D01*
X08903Y49491D01*
X08905Y49489D01*
X08919Y49478D01*
X08949Y49452D01*
X08951Y49451D01*
X09002Y49423D01*
X09004Y49422D01*
X09017Y49418D01*
X07439Y49418D01*
X07431Y49430D01*
X07359Y49503D01*
X07274Y49561D01*
X07179Y49601D01*
X07078Y49622D01*
X06976Y49622D01*
X06875Y49603D01*
X06779Y49565D01*
X06693Y49509D01*
X06620Y49437D01*
X06607Y49418D01*
X03102Y49418D01*
X03095Y49425D01*
X03093Y49427D01*
X03079Y49439D01*
X03067Y49448D01*
X04610Y49448D01*
X04674Y49434D01*
X04757Y49432D01*
X04839Y49447D01*
X04917Y49477D01*
X04987Y49522D01*
X05048Y49579D01*
X05095Y49647D01*
X05129Y49724D01*
X05148Y49805D01*
X05149Y49900D01*
X05133Y49982D01*
X05101Y50059D01*
X05055Y50128D01*
X04996Y50187D01*
X04927Y50234D01*
X04850Y50266D01*
X04768Y50283D01*
X04685Y50283D01*
X04603Y50268D01*
X04526Y50236D01*
X04456Y50191D01*
X04397Y50132D01*
X04353Y50068D01*
X02215Y50068D01*
X02196Y50087D01*
X02163Y50110D01*
X03302Y51248D01*
X10106Y51248D01*
X10152Y51223D01*
X10154Y51222D01*
X10179Y51215D01*
X11253Y50141D01*
X11255Y50139D01*
X11269Y50128D01*
X11299Y50102D01*
X11301Y50101D01*
X11352Y50073D01*
X11354Y50072D01*
X11410Y50055D01*
X11413Y50054D01*
X11433Y50053D01*
X11470Y50048D01*
X11474Y50048D01*
X11566Y50048D01*
G54D10*
G36*
X26901Y50621D02*
X26856Y50591D01*
X26833Y50568D01*
X24924Y50568D01*
X24864Y50562D01*
X24806Y50545D01*
X24752Y50516D01*
X24716Y50487D01*
X24712Y50484D01*
X24631Y50500D01*
X24517Y50500D01*
X24406Y50479D01*
X24300Y50436D01*
X24220Y50385D01*
X24203Y50472D01*
X24160Y50577D01*
X24097Y50672D01*
X24017Y50752D01*
X23923Y50816D01*
X23818Y50860D01*
X23707Y50883D01*
X23593Y50883D01*
X23482Y50862D01*
X23376Y50819D01*
X23281Y50757D01*
X23200Y50678D01*
X23136Y50584D01*
X23091Y50480D01*
X23068Y50369D01*
X23066Y50255D01*
X23087Y50143D01*
X23129Y50038D01*
X23190Y49942D01*
X23269Y49861D01*
X23362Y49796D01*
X23466Y49751D01*
X23577Y49726D01*
X23691Y49724D01*
X23803Y49744D01*
X23909Y49785D01*
X23995Y49841D01*
X24011Y49760D01*
X24053Y49655D01*
X24114Y49559D01*
X24193Y49478D01*
X24207Y49468D01*
X16224Y49468D01*
X16245Y49497D01*
X16279Y49574D01*
X16298Y49655D01*
X16299Y49750D01*
X16283Y49832D01*
X16251Y49909D01*
X16205Y49978D01*
X16146Y50037D01*
X16077Y50084D01*
X16000Y50116D01*
X15918Y50133D01*
X15887Y50133D01*
X12545Y53475D01*
X12543Y53477D01*
X12529Y53489D01*
X12499Y53514D01*
X12497Y53515D01*
X12446Y53543D01*
X12445Y53544D01*
X12444Y53544D01*
X12388Y53561D01*
X12385Y53562D01*
X12346Y53566D01*
X12328Y53568D01*
X12325Y53568D01*
X12324Y53568D01*
X09501Y53568D01*
X09539Y53604D01*
X09661Y53777D01*
X09747Y53970D01*
X09794Y54176D01*
X09794Y54204D01*
X09856Y54160D01*
X09960Y54115D01*
X10071Y54090D01*
X10185Y54088D01*
X10297Y54108D01*
X10403Y54149D01*
X10498Y54210D01*
X10581Y54288D01*
X10582Y54291D01*
X10608Y54228D01*
X10669Y54132D01*
X10748Y54051D01*
X10841Y53986D01*
X10945Y53941D01*
X11056Y53916D01*
X11170Y53914D01*
X11282Y53934D01*
X11388Y53975D01*
X11483Y54036D01*
X11566Y54114D01*
X11624Y54198D01*
X12082Y54198D01*
X12097Y54183D01*
X12166Y54135D01*
X12242Y54102D01*
X12324Y54084D01*
X12407Y54082D01*
X12489Y54097D01*
X12567Y54127D01*
X12637Y54172D01*
X12698Y54229D01*
X12745Y54297D01*
X12779Y54374D01*
X12798Y54455D01*
X12799Y54550D01*
X12783Y54632D01*
X12751Y54709D01*
X12705Y54778D01*
X12646Y54837D01*
X12577Y54884D01*
X12500Y54916D01*
X12418Y54933D01*
X12335Y54933D01*
X12253Y54918D01*
X12176Y54886D01*
X12106Y54841D01*
X12083Y54818D01*
X11605Y54818D01*
X11576Y54862D01*
X11496Y54942D01*
X11402Y55006D01*
X11297Y55050D01*
X11186Y55073D01*
X11072Y55073D01*
X10961Y55052D01*
X10855Y55009D01*
X10760Y54947D01*
X10682Y54872D01*
X10654Y54941D01*
X10591Y55036D01*
X10511Y55116D01*
X10417Y55180D01*
X10312Y55224D01*
X10201Y55247D01*
X10087Y55247D01*
X09976Y55226D01*
X09870Y55183D01*
X09775Y55121D01*
X09694Y55042D01*
X09630Y54948D01*
X09613Y54911D01*
X09558Y54995D01*
X09483Y55071D01*
X09487Y55072D01*
X09548Y55129D01*
X09595Y55197D01*
X09629Y55274D01*
X09648Y55355D01*
X09649Y55450D01*
X09633Y55532D01*
X09601Y55609D01*
X09555Y55678D01*
X09496Y55737D01*
X09427Y55784D01*
X09350Y55816D01*
X09268Y55833D01*
X09185Y55833D01*
X09103Y55818D01*
X09026Y55786D01*
X08956Y55741D01*
X08933Y55718D01*
X07327Y55718D01*
X07324Y55718D01*
X07309Y55717D01*
X07267Y55713D01*
X07209Y55696D01*
X07208Y55696D01*
X07206Y55695D01*
X07164Y55673D01*
X07163Y55673D01*
X07108Y55684D01*
X06994Y55684D01*
X06883Y55663D01*
X06864Y55656D01*
X06595Y55925D01*
X06593Y55927D01*
X06579Y55939D01*
X06549Y55964D01*
X06547Y55965D01*
X06496Y55993D01*
X06495Y55994D01*
X06494Y55994D01*
X06460Y56005D01*
X06459Y56005D01*
X06449Y56014D01*
X06447Y56015D01*
X06396Y56043D01*
X06395Y56044D01*
X06394Y56044D01*
X06338Y56061D01*
X06335Y56062D01*
X06296Y56066D01*
X06278Y56068D01*
X06275Y56068D01*
X06274Y56068D01*
X04024Y56068D01*
X03964Y56062D01*
X03906Y56045D01*
X03852Y56016D01*
X03816Y55987D01*
X03815Y55987D01*
X03754Y55999D01*
X03640Y55999D01*
X03529Y55978D01*
X03431Y55939D01*
X03195Y56175D01*
X03193Y56177D01*
X03179Y56189D01*
X03149Y56214D01*
X03147Y56215D01*
X03096Y56243D01*
X03095Y56244D01*
X03094Y56244D01*
X03038Y56261D01*
X03035Y56262D01*
X02996Y56266D01*
X02995Y56266D01*
X02946Y56293D01*
X02945Y56294D01*
X02944Y56294D01*
X02888Y56311D01*
X02885Y56312D01*
X02846Y56316D01*
X02828Y56318D01*
X02825Y56318D01*
X02824Y56318D01*
X00577Y56318D01*
X00574Y56318D01*
X00559Y56317D01*
X00517Y56313D01*
X00459Y56296D01*
X00458Y56296D01*
X00456Y56295D01*
X00402Y56266D01*
X00366Y56238D01*
X00358Y56230D01*
X00356Y56228D01*
X00355Y56227D01*
X00214Y56087D01*
X00147Y56100D01*
X00033Y56100D01*
X-00078Y56079D01*
X-00184Y56036D01*
X-00279Y55974D01*
X-00360Y55895D01*
X-00415Y55816D01*
X-00463Y55889D01*
X-00543Y55969D01*
X-00637Y56033D01*
X-00742Y56077D01*
X-00853Y56100D01*
X-00967Y56100D01*
X-01078Y56079D01*
X-01184Y56036D01*
X-01279Y55974D01*
X-01360Y55895D01*
X-01424Y55801D01*
X-01469Y55697D01*
X-01492Y55586D01*
X-01494Y55472D01*
X-01473Y55360D01*
X-01457Y55318D01*
X-02913Y55318D01*
X-02905Y55352D01*
X-02903Y55482D01*
X-02925Y55593D01*
X-02968Y55698D01*
X-03031Y55793D01*
X-03111Y55873D01*
X-03205Y55937D01*
X-03310Y55981D01*
X-03421Y56004D01*
X-03535Y56004D01*
X-03646Y55983D01*
X-03752Y55940D01*
X-03794Y55914D01*
X-03955Y56075D01*
X-03957Y56077D01*
X-03971Y56089D01*
X-04001Y56114D01*
X-04003Y56115D01*
X-04054Y56143D01*
X-04055Y56144D01*
X-04056Y56144D01*
X-04090Y56155D01*
X-04091Y56155D01*
X-04101Y56164D01*
X-04103Y56165D01*
X-04154Y56193D01*
X-04155Y56194D01*
X-04156Y56194D01*
X-04212Y56211D01*
X-04215Y56212D01*
X-04254Y56216D01*
X-04272Y56218D01*
X-04275Y56218D01*
X-04276Y56218D01*
X-06173Y56218D01*
X-06176Y56218D01*
X-06191Y56217D01*
X-06233Y56213D01*
X-06291Y56196D01*
X-06292Y56196D01*
X-06294Y56195D01*
X-06348Y56166D01*
X-06384Y56138D01*
X-06392Y56130D01*
X-06394Y56128D01*
X-06395Y56127D01*
X-06536Y55987D01*
X-06628Y56006D01*
X-06742Y56006D01*
X-06822Y55992D01*
X-06905Y56075D01*
X-06907Y56077D01*
X-06921Y56089D01*
X-06951Y56114D01*
X-06953Y56115D01*
X-07004Y56143D01*
X-07005Y56144D01*
X-07006Y56144D01*
X-07062Y56161D01*
X-07065Y56162D01*
X-07104Y56166D01*
X-07122Y56168D01*
X-07125Y56168D01*
X-07126Y56168D01*
X-07776Y56168D01*
X-07836Y56162D01*
X-07894Y56145D01*
X-07948Y56116D01*
X-07949Y56116D01*
X-07986Y56112D01*
X-08044Y56095D01*
X-08098Y56066D01*
X-08113Y56055D01*
X-08114Y56054D01*
X-08144Y56045D01*
X-08198Y56016D01*
X-08234Y55987D01*
X-08243Y55979D01*
X-08246Y55977D01*
X-08355Y55868D01*
X-09076Y55868D01*
X-09136Y55862D01*
X-09194Y55845D01*
X-09248Y55816D01*
X-09249Y55816D01*
X-09286Y55812D01*
X-09344Y55795D01*
X-09395Y55768D01*
X-09635Y55768D01*
X-09654Y55787D01*
X-09723Y55834D01*
X-09800Y55866D01*
X-09882Y55883D01*
X-09965Y55883D01*
X-10047Y55868D01*
X-10124Y55836D01*
X-10194Y55791D01*
X-10253Y55732D01*
X-10300Y55663D01*
X-10333Y55587D01*
X-10350Y55505D01*
X-10352Y55422D01*
X-10336Y55340D01*
X-10306Y55262D01*
X-10260Y55192D01*
X-10203Y55133D01*
X-10134Y55085D01*
X-10058Y55052D01*
X-09976Y55034D01*
X-09893Y55032D01*
X-09811Y55047D01*
X-09733Y55077D01*
X-09679Y55112D01*
X-09709Y55068D01*
X-09792Y54874D01*
X-09836Y54667D01*
X-09838Y54456D01*
X-09800Y54248D01*
X-09722Y54052D01*
X-09608Y53874D01*
X-09461Y53723D01*
X-09288Y53602D01*
X-09094Y53518D01*
X-08888Y53472D01*
X-08677Y53468D01*
X-08469Y53505D01*
X-08272Y53581D01*
X-08093Y53694D01*
X-07941Y53840D01*
X-07819Y54013D01*
X-07733Y54206D01*
X-07686Y54412D01*
X-07683Y54653D01*
X-07698Y54727D01*
X-07637Y54725D01*
X-07525Y54745D01*
X-07419Y54786D01*
X-07324Y54847D01*
X-07241Y54925D01*
X-07176Y55018D01*
X-07152Y55075D01*
X-07145Y55065D01*
X-07066Y54984D01*
X-06973Y54919D01*
X-06869Y54874D01*
X-06758Y54849D01*
X-06644Y54847D01*
X-06532Y54867D01*
X-06426Y54908D01*
X-06331Y54969D01*
X-06248Y55047D01*
X-06183Y55140D01*
X-06137Y55244D01*
X-06112Y55354D01*
X-06110Y55484D01*
X-06119Y55528D01*
X-06048Y55598D01*
X-05019Y55598D01*
X-05036Y55557D01*
X-05059Y55446D01*
X-05061Y55332D01*
X-05040Y55220D01*
X-04998Y55115D01*
X-04937Y55019D01*
X-04858Y54938D01*
X-04765Y54873D01*
X-04661Y54828D01*
X-04550Y54803D01*
X-04436Y54801D01*
X-04324Y54821D01*
X-04218Y54862D01*
X-04123Y54923D01*
X-04040Y55001D01*
X-03975Y55094D01*
X-03968Y55111D01*
X-03938Y55063D01*
X-03859Y54982D01*
X-03766Y54917D01*
X-03662Y54872D01*
X-03551Y54847D01*
X-03437Y54845D01*
X-03365Y54858D01*
X-03297Y54791D01*
X-03296Y54789D01*
X-03267Y54766D01*
X-03251Y54752D01*
X-03249Y54751D01*
X-03198Y54723D01*
X-03196Y54722D01*
X-03140Y54705D01*
X-03137Y54704D01*
X-03117Y54703D01*
X-03080Y54698D01*
X-03076Y54698D01*
X-00679Y54698D01*
X-00676Y54698D01*
X-00661Y54700D01*
X-00619Y54703D01*
X-00616Y54704D01*
X-00561Y54720D01*
X-00561Y54721D01*
X-00558Y54721D01*
X-00528Y54738D01*
X-00507Y54748D01*
X-00506Y54750D01*
X-00504Y54750D01*
X-00491Y54762D01*
X-00490Y54762D01*
X-00461Y54770D01*
X-00461Y54771D01*
X-00458Y54771D01*
X-00428Y54788D01*
X-00407Y54798D01*
X-00406Y54800D01*
X-00404Y54800D01*
X-00380Y54820D01*
X-00360Y54836D01*
X-00358Y54838D01*
X-00357Y54839D01*
X-00188Y55009D01*
X-00094Y54968D01*
X00017Y54943D01*
X00131Y54941D01*
X00243Y54961D01*
X00349Y55002D01*
X00444Y55063D01*
X00527Y55141D01*
X00592Y55234D01*
X00638Y55338D01*
X00663Y55448D01*
X00665Y55578D01*
X00651Y55648D01*
X00702Y55698D01*
X02164Y55698D01*
X02139Y55640D01*
X02116Y55529D01*
X02114Y55415D01*
X02135Y55303D01*
X02177Y55198D01*
X02238Y55102D01*
X02317Y55021D01*
X02410Y54956D01*
X02514Y54911D01*
X02625Y54886D01*
X02739Y54884D01*
X02799Y54895D01*
X05203Y52491D01*
X05205Y52489D01*
X05219Y52478D01*
X05220Y52477D01*
X05207Y52456D01*
X05190Y52418D01*
X05177Y52449D01*
X05117Y52539D01*
X05042Y52615D01*
X04952Y52675D01*
X04853Y52717D01*
X04747Y52739D01*
X04640Y52739D01*
X04534Y52719D01*
X04434Y52679D01*
X04344Y52620D01*
X04267Y52544D01*
X04207Y52456D01*
X04190Y52418D01*
X04177Y52449D01*
X04117Y52539D01*
X04042Y52615D01*
X03952Y52675D01*
X03853Y52717D01*
X03747Y52739D01*
X03640Y52739D01*
X03534Y52719D01*
X03434Y52679D01*
X03344Y52620D01*
X03267Y52544D01*
X03207Y52456D01*
X03190Y52418D01*
X03177Y52449D01*
X03117Y52539D01*
X03042Y52615D01*
X02952Y52675D01*
X02853Y52717D01*
X02747Y52739D01*
X02640Y52739D01*
X02534Y52719D01*
X02434Y52679D01*
X02344Y52620D01*
X02267Y52544D01*
X02207Y52456D01*
X02190Y52418D01*
X02177Y52449D01*
X02117Y52539D01*
X02042Y52615D01*
X01952Y52675D01*
X01853Y52717D01*
X01747Y52739D01*
X01640Y52739D01*
X01534Y52719D01*
X01434Y52679D01*
X01344Y52620D01*
X01267Y52544D01*
X01207Y52456D01*
X01190Y52418D01*
X01177Y52449D01*
X01117Y52539D01*
X01042Y52615D01*
X00952Y52675D01*
X00853Y52717D01*
X00747Y52739D01*
X00640Y52739D01*
X00534Y52719D01*
X00434Y52679D01*
X00344Y52620D01*
X00267Y52544D01*
X00207Y52456D01*
X00190Y52418D01*
X00177Y52449D01*
X00117Y52539D01*
X00042Y52615D01*
X-00048Y52675D01*
X-00147Y52717D01*
X-00253Y52739D01*
X-00360Y52739D01*
X-00466Y52719D01*
X-00516Y52699D01*
X-00516Y52958D01*
X-00522Y53016D01*
X-00522Y53018D01*
X-00539Y53074D01*
X-00539Y53076D01*
X-00567Y53127D01*
X-00568Y53130D01*
X-00588Y53154D01*
X-00604Y53175D01*
X-00607Y53178D01*
X-01228Y53799D01*
X-01217Y53848D01*
X-01215Y53971D01*
X-01236Y54077D01*
X-01277Y54176D01*
X-01337Y54266D01*
X-01412Y54342D01*
X-01502Y54402D01*
X-01601Y54444D01*
X-01707Y54466D01*
X-01814Y54466D01*
X-01920Y54446D01*
X-02020Y54406D01*
X-02110Y54347D01*
X-02187Y54271D01*
X-02247Y54183D01*
X-02264Y54145D01*
X-02277Y54176D01*
X-02337Y54266D01*
X-02412Y54342D01*
X-02502Y54402D01*
X-02601Y54444D01*
X-02707Y54466D01*
X-02814Y54466D01*
X-02920Y54446D01*
X-03020Y54406D01*
X-03110Y54347D01*
X-03187Y54271D01*
X-03247Y54183D01*
X-03290Y54084D01*
X-03312Y53978D01*
X-03314Y53871D01*
X-03294Y53765D01*
X-03255Y53665D01*
X-03196Y53574D01*
X-03121Y53497D01*
X-03033Y53435D01*
X-02934Y53392D01*
X-02829Y53369D01*
X-02722Y53367D01*
X-02681Y53375D01*
X-02136Y52830D01*
X-02136Y52713D01*
X-02147Y52717D01*
X-02253Y52739D01*
X-02360Y52739D01*
X-02466Y52719D01*
X-02566Y52679D01*
X-02656Y52620D01*
X-02733Y52544D01*
X-02793Y52456D01*
X-02810Y52418D01*
X-02823Y52449D01*
X-02883Y52539D01*
X-02958Y52615D01*
X-03048Y52675D01*
X-03147Y52717D01*
X-03253Y52739D01*
X-03360Y52739D01*
X-03466Y52719D01*
X-03566Y52679D01*
X-03656Y52620D01*
X-03733Y52544D01*
X-03793Y52456D01*
X-03836Y52357D01*
X-03858Y52251D01*
X-03860Y52144D01*
X-03840Y52038D01*
X-03801Y51938D01*
X-03742Y51847D01*
X-03667Y51770D01*
X-03579Y51708D01*
X-03480Y51665D01*
X-03375Y51642D01*
X-03268Y51640D01*
X-03161Y51659D01*
X-03061Y51698D01*
X-02970Y51755D01*
X-02892Y51830D01*
X-02830Y51918D01*
X-02811Y51962D01*
X-02801Y51938D01*
X-02742Y51847D01*
X-02667Y51770D01*
X-02579Y51708D01*
X-02480Y51665D01*
X-02375Y51642D01*
X-02268Y51640D01*
X-02161Y51659D01*
X-02061Y51698D01*
X-02023Y51723D01*
X-02014Y51712D01*
X-01998Y51692D01*
X-01996Y51690D01*
X-01995Y51689D01*
X-01847Y51541D01*
X-01845Y51539D01*
X-01831Y51528D01*
X-01801Y51502D01*
X-01799Y51501D01*
X-01748Y51473D01*
X-01746Y51472D01*
X-01713Y51462D01*
X-01701Y51452D01*
X-01699Y51451D01*
X-01648Y51423D01*
X-01646Y51422D01*
X-01590Y51405D01*
X-01587Y51404D01*
X-01567Y51403D01*
X-01530Y51398D01*
X-01526Y51398D01*
X-01504Y51398D01*
X-01002Y50896D01*
X-01002Y50872D01*
X-00986Y50790D01*
X-00956Y50712D01*
X-00910Y50642D01*
X-00853Y50583D01*
X-00784Y50535D01*
X-00708Y50502D01*
X-00626Y50484D01*
X-00543Y50482D01*
X-00461Y50497D01*
X-00383Y50527D01*
X-00313Y50572D01*
X-00252Y50629D01*
X-00205Y50697D01*
X-00171Y50774D01*
X-00152Y50855D01*
X-00152Y50896D01*
X00448Y50295D01*
X00448Y50272D01*
X00458Y50218D01*
X-04761Y50218D01*
X-04761Y52244D01*
X-04782Y52350D01*
X-04823Y52449D01*
X-04883Y52539D01*
X-04958Y52615D01*
X-05048Y52675D01*
X-05147Y52717D01*
X-05253Y52739D01*
X-05360Y52739D01*
X-05466Y52719D01*
X-05566Y52679D01*
X-05656Y52620D01*
X-05733Y52544D01*
X-05793Y52456D01*
X-05836Y52357D01*
X-05858Y52251D01*
X-05860Y52144D01*
X-05840Y52038D01*
X-05801Y51938D01*
X-05742Y51847D01*
X-05667Y51770D01*
X-05579Y51708D01*
X-05480Y51665D01*
X-05375Y51642D01*
X-05268Y51640D01*
X-05161Y51659D01*
X-05061Y51698D01*
X-04970Y51755D01*
X-04892Y51830D01*
X-04830Y51918D01*
X-04786Y52016D01*
X-04763Y52121D01*
X-04761Y52244D01*
X-04761Y50218D01*
X-08048Y50218D01*
X-08205Y50375D01*
X-08207Y50377D01*
X-08221Y50389D01*
X-08251Y50414D01*
X-08253Y50415D01*
X-08304Y50443D01*
X-08305Y50444D01*
X-08306Y50444D01*
X-08340Y50455D01*
X-08341Y50455D01*
X-08351Y50464D01*
X-08353Y50465D01*
X-08404Y50493D01*
X-08405Y50494D01*
X-08406Y50494D01*
X-08440Y50505D01*
X-08441Y50505D01*
X-08451Y50514D01*
X-08453Y50515D01*
X-08504Y50543D01*
X-08505Y50544D01*
X-08506Y50544D01*
X-08562Y50561D01*
X-08565Y50562D01*
X-08604Y50566D01*
X-08622Y50568D01*
X-08625Y50568D01*
X-08626Y50568D01*
X-10106Y50568D01*
X-10106Y51818D01*
X-10113Y51853D01*
X-10113Y54647D01*
X-10135Y54758D01*
X-10178Y54863D01*
X-10241Y54958D01*
X-10321Y55038D01*
X-10415Y55102D01*
X-10520Y55146D01*
X-10631Y55169D01*
X-10745Y55169D01*
X-10791Y55161D01*
X-10805Y55175D01*
X-10807Y55177D01*
X-10821Y55189D01*
X-10851Y55214D01*
X-10853Y55215D01*
X-10904Y55243D01*
X-10905Y55244D01*
X-10906Y55244D01*
X-10962Y55261D01*
X-10965Y55262D01*
X-11004Y55266D01*
X-11022Y55268D01*
X-11025Y55268D01*
X-11026Y55268D01*
X-13085Y55268D01*
X-13104Y55287D01*
X-13173Y55334D01*
X-13250Y55366D01*
X-13332Y55383D01*
X-13415Y55383D01*
X-13497Y55368D01*
X-13574Y55336D01*
X-13644Y55291D01*
X-13703Y55232D01*
X-13750Y55163D01*
X-13783Y55087D01*
X-13800Y55005D01*
X-13802Y54922D01*
X-13786Y54840D01*
X-13756Y54762D01*
X-13710Y54692D01*
X-13653Y54633D01*
X-13584Y54585D01*
X-13508Y54552D01*
X-13426Y54534D01*
X-13343Y54532D01*
X-13261Y54547D01*
X-13183Y54577D01*
X-13113Y54622D01*
X-13086Y54648D01*
X-12208Y54648D01*
X-12232Y54592D01*
X-12255Y54481D01*
X-12257Y54367D01*
X-12236Y54255D01*
X-12194Y54150D01*
X-12133Y54054D01*
X-12054Y53973D01*
X-11961Y53908D01*
X-11857Y53863D01*
X-11746Y53838D01*
X-11632Y53836D01*
X-11520Y53856D01*
X-11414Y53897D01*
X-11319Y53958D01*
X-11236Y54036D01*
X-11171Y54129D01*
X-11134Y54214D01*
X-11069Y54147D01*
X-10976Y54082D01*
X-10872Y54037D01*
X-10761Y54012D01*
X-10647Y54010D01*
X-10535Y54030D01*
X-10429Y54071D01*
X-10334Y54132D01*
X-10251Y54210D01*
X-10186Y54303D01*
X-10140Y54407D01*
X-10115Y54517D01*
X-10113Y54647D01*
X-10113Y51853D01*
X-10134Y51958D01*
X-10188Y52089D01*
X-10267Y52208D01*
X-10367Y52309D01*
X-10485Y52389D01*
X-10616Y52444D01*
X-10756Y52472D01*
X-10898Y52473D01*
X-11038Y52447D01*
X-11170Y52394D01*
X-11289Y52316D01*
X-11391Y52216D01*
X-11471Y52099D01*
X-11527Y51968D01*
X-11557Y51828D01*
X-11559Y51686D01*
X-11533Y51546D01*
X-11481Y51414D01*
X-11404Y51294D01*
X-11305Y51192D01*
X-11188Y51110D01*
X-11058Y51053D01*
X-10919Y51023D01*
X-10776Y51020D01*
X-10636Y51044D01*
X-10503Y51096D01*
X-10383Y51172D01*
X-10280Y51270D01*
X-10198Y51387D01*
X-10140Y51517D01*
X-10108Y51655D01*
X-10106Y51818D01*
X-10106Y50568D01*
X-10659Y50568D01*
X-10704Y50593D01*
X-10705Y50594D01*
X-10706Y50594D01*
X-10762Y50611D01*
X-10765Y50612D01*
X-10804Y50616D01*
X-10822Y50618D01*
X-10825Y50618D01*
X-10826Y50618D01*
X-11947Y50618D01*
X-11870Y50691D01*
X-11788Y50808D01*
X-11730Y50938D01*
X-11698Y51076D01*
X-11696Y51239D01*
X-11724Y51379D01*
X-11778Y51510D01*
X-11857Y51629D01*
X-11957Y51730D01*
X-12075Y51810D01*
X-12206Y51865D01*
X-12346Y51893D01*
X-12488Y51894D01*
X-12628Y51868D01*
X-12760Y51815D01*
X-12879Y51737D01*
X-12981Y51637D01*
X-13061Y51520D01*
X-13117Y51389D01*
X-13144Y51265D01*
X-13441Y51562D01*
X-13441Y53868D01*
X-13463Y53979D01*
X-13506Y54084D01*
X-13569Y54179D01*
X-13649Y54259D01*
X-13743Y54323D01*
X-13848Y54367D01*
X-13959Y54390D01*
X-14073Y54390D01*
X-14167Y54373D01*
X-14204Y54393D01*
X-14205Y54394D01*
X-14206Y54394D01*
X-14262Y54411D01*
X-14265Y54412D01*
X-14304Y54416D01*
X-14322Y54418D01*
X-14325Y54418D01*
X-14326Y54418D01*
X-16535Y54418D01*
X-16554Y54437D01*
X-16623Y54484D01*
X-16700Y54516D01*
X-16782Y54533D01*
X-16865Y54533D01*
X-16947Y54518D01*
X-17024Y54486D01*
X-17094Y54441D01*
X-17153Y54382D01*
X-17200Y54313D01*
X-17233Y54237D01*
X-17250Y54155D01*
X-17252Y54072D01*
X-17236Y53990D01*
X-17206Y53912D01*
X-17160Y53842D01*
X-17103Y53783D01*
X-17034Y53735D01*
X-16958Y53702D01*
X-16876Y53684D01*
X-16793Y53682D01*
X-16711Y53697D01*
X-16633Y53727D01*
X-16563Y53772D01*
X-16536Y53798D01*
X-15512Y53798D01*
X-15541Y53729D01*
X-15564Y53618D01*
X-15566Y53504D01*
X-15545Y53392D01*
X-15503Y53287D01*
X-15442Y53191D01*
X-15363Y53110D01*
X-15270Y53045D01*
X-15166Y53000D01*
X-15055Y52975D01*
X-14941Y52973D01*
X-14829Y52993D01*
X-14723Y53034D01*
X-14628Y53095D01*
X-14545Y53173D01*
X-14480Y53266D01*
X-14434Y53370D01*
X-14428Y53400D01*
X-14397Y53368D01*
X-14304Y53303D01*
X-14200Y53258D01*
X-14089Y53233D01*
X-13975Y53231D01*
X-13863Y53251D01*
X-13757Y53292D01*
X-13662Y53353D01*
X-13579Y53431D01*
X-13514Y53524D01*
X-13468Y53628D01*
X-13443Y53738D01*
X-13441Y53868D01*
X-13441Y51562D01*
X-13455Y51575D01*
X-13457Y51577D01*
X-13471Y51589D01*
X-13501Y51614D01*
X-13503Y51615D01*
X-13554Y51643D01*
X-13555Y51644D01*
X-13556Y51644D01*
X-13590Y51655D01*
X-13591Y51655D01*
X-13601Y51664D01*
X-13603Y51665D01*
X-13654Y51693D01*
X-13655Y51694D01*
X-13656Y51694D01*
X-13690Y51705D01*
X-13691Y51705D01*
X-13701Y51714D01*
X-13703Y51715D01*
X-13754Y51743D01*
X-13755Y51744D01*
X-13756Y51744D01*
X-13812Y51761D01*
X-13815Y51762D01*
X-13854Y51766D01*
X-13872Y51768D01*
X-13875Y51768D01*
X-13876Y51768D01*
X-16773Y51768D01*
X-16773Y52895D01*
X-16795Y53006D01*
X-16838Y53111D01*
X-16901Y53206D01*
X-16981Y53286D01*
X-17075Y53350D01*
X-17180Y53394D01*
X-17291Y53417D01*
X-17405Y53417D01*
X-17516Y53396D01*
X-17622Y53353D01*
X-17676Y53318D01*
X-19935Y53318D01*
X-19954Y53337D01*
X-20023Y53384D01*
X-20100Y53416D01*
X-20182Y53433D01*
X-20265Y53433D01*
X-20347Y53418D01*
X-20424Y53386D01*
X-20494Y53341D01*
X-20553Y53282D01*
X-20600Y53213D01*
X-20633Y53137D01*
X-20650Y53055D01*
X-20652Y52972D01*
X-20636Y52890D01*
X-20606Y52812D01*
X-20560Y52742D01*
X-20503Y52683D01*
X-20434Y52635D01*
X-20358Y52602D01*
X-20276Y52584D01*
X-20193Y52582D01*
X-20111Y52597D01*
X-20033Y52627D01*
X-19963Y52672D01*
X-19936Y52698D01*
X-18836Y52698D01*
X-18847Y52672D01*
X-18870Y52561D01*
X-18872Y52447D01*
X-18851Y52335D01*
X-18809Y52230D01*
X-18748Y52134D01*
X-18669Y52053D01*
X-18576Y51988D01*
X-18472Y51943D01*
X-18361Y51918D01*
X-18247Y51916D01*
X-18135Y51936D01*
X-18029Y51977D01*
X-17934Y52038D01*
X-17851Y52116D01*
X-17786Y52209D01*
X-17740Y52313D01*
X-17723Y52391D01*
X-17636Y52330D01*
X-17532Y52285D01*
X-17421Y52260D01*
X-17307Y52258D01*
X-17195Y52278D01*
X-17089Y52319D01*
X-16994Y52380D01*
X-16911Y52458D01*
X-16846Y52551D01*
X-16800Y52655D01*
X-16775Y52765D01*
X-16773Y52895D01*
X-16773Y51768D01*
X-19926Y51768D01*
X-19986Y51762D01*
X-20006Y51757D01*
X-20014Y51797D01*
X-20057Y51902D01*
X-20120Y51997D01*
X-20200Y52077D01*
X-20294Y52141D01*
X-20399Y52185D01*
X-20510Y52208D01*
X-20624Y52208D01*
X-20735Y52187D01*
X-20841Y52144D01*
X-20936Y52082D01*
X-21017Y52003D01*
X-21081Y51909D01*
X-21126Y51805D01*
X-21149Y51694D01*
X-21150Y51683D01*
X-21201Y51718D01*
X-21306Y51762D01*
X-21417Y51785D01*
X-21531Y51785D01*
X-21642Y51764D01*
X-21748Y51721D01*
X-21843Y51659D01*
X-21924Y51580D01*
X-21988Y51486D01*
X-22033Y51382D01*
X-22056Y51271D01*
X-22058Y51157D01*
X-22037Y51045D01*
X-21995Y50940D01*
X-21934Y50844D01*
X-21855Y50763D01*
X-21762Y50698D01*
X-21658Y50653D01*
X-21547Y50628D01*
X-21433Y50626D01*
X-21321Y50646D01*
X-21215Y50687D01*
X-21120Y50748D01*
X-21067Y50798D01*
X-20329Y50798D01*
X-20326Y50798D01*
X-20311Y50800D01*
X-20269Y50803D01*
X-20266Y50804D01*
X-20211Y50820D01*
X-20211Y50821D01*
X-20208Y50821D01*
X-20178Y50838D01*
X-20157Y50848D01*
X-20156Y50850D01*
X-20154Y50850D01*
X-20130Y50870D01*
X-20110Y50886D01*
X-20108Y50888D01*
X-20107Y50889D01*
X-20082Y50914D01*
X-20082Y50915D01*
X-20061Y50920D01*
X-20061Y50921D01*
X-20058Y50921D01*
X-20028Y50938D01*
X-20007Y50948D01*
X-20006Y50950D01*
X-20004Y50950D01*
X-19980Y50970D01*
X-19960Y50986D01*
X-19958Y50988D01*
X-19957Y50989D01*
X-19798Y51148D01*
X-14823Y51148D01*
X-14856Y51099D01*
X-14919Y50953D01*
X-14952Y50798D01*
X-14954Y50639D01*
X-14925Y50483D01*
X-14867Y50335D01*
X-14781Y50202D01*
X-14671Y50087D01*
X-14540Y49997D01*
X-14395Y49933D01*
X-14240Y49899D01*
X-14081Y49896D01*
X-13925Y49923D01*
X-13776Y49980D01*
X-13642Y50065D01*
X-13527Y50175D01*
X-13436Y50305D01*
X-13371Y50450D01*
X-13341Y50585D01*
X-12847Y50091D01*
X-12846Y50089D01*
X-12817Y50066D01*
X-12801Y50052D01*
X-12799Y50051D01*
X-12748Y50023D01*
X-12746Y50022D01*
X-12729Y50018D01*
X-12690Y50005D01*
X-12687Y50005D01*
X-12630Y49998D01*
X-12626Y49998D01*
X-10944Y49998D01*
X-10898Y49973D01*
X-10896Y49972D01*
X-10840Y49955D01*
X-10837Y49954D01*
X-10817Y49953D01*
X-10780Y49948D01*
X-10776Y49948D01*
X-08744Y49948D01*
X-08698Y49923D01*
X-08696Y49922D01*
X-08663Y49912D01*
X-08651Y49902D01*
X-08649Y49901D01*
X-08598Y49873D01*
X-08596Y49872D01*
X-08571Y49865D01*
X-08397Y49691D01*
X-08396Y49689D01*
X-08367Y49666D01*
X-08351Y49652D01*
X-08349Y49651D01*
X-08298Y49623D01*
X-08296Y49622D01*
X-08240Y49605D01*
X-08237Y49604D01*
X-08217Y49603D01*
X-08180Y49598D01*
X-08176Y49598D01*
X-01346Y49598D01*
X-01374Y49586D01*
X-01444Y49541D01*
X-01503Y49482D01*
X-01550Y49413D01*
X-01583Y49337D01*
X-01600Y49255D01*
X-01602Y49172D01*
X-01586Y49090D01*
X-01556Y49012D01*
X-01510Y48942D01*
X-01453Y48883D01*
X-01384Y48835D01*
X-01308Y48802D01*
X-01226Y48784D01*
X-01190Y48784D01*
X-00769Y48363D01*
X-00804Y48366D01*
X-00822Y48368D01*
X-00825Y48368D01*
X-00826Y48368D01*
X-10337Y48368D01*
X-10267Y48434D01*
X-10210Y48515D01*
X-10169Y48606D01*
X-10147Y48703D01*
X-10146Y48816D01*
X-10165Y48913D01*
X-10203Y49005D01*
X-10258Y49088D01*
X-10328Y49158D01*
X-10411Y49213D01*
X-10502Y49252D01*
X-10599Y49272D01*
X-10698Y49272D01*
X-10796Y49254D01*
X-10888Y49216D01*
X-10971Y49162D01*
X-11042Y49093D01*
X-11098Y49011D01*
X-11137Y48919D01*
X-11157Y48822D01*
X-11159Y48723D01*
X-11141Y48625D01*
X-11104Y48533D01*
X-11050Y48450D01*
X-10981Y48379D01*
X-10966Y48368D01*
X-12689Y48368D01*
X-12695Y48378D01*
X-12754Y48437D01*
X-12823Y48484D01*
X-12900Y48516D01*
X-12982Y48533D01*
X-13065Y48533D01*
X-13147Y48518D01*
X-13224Y48486D01*
X-13294Y48441D01*
X-13353Y48382D01*
X-13400Y48313D01*
X-13433Y48237D01*
X-13434Y48233D01*
X-13515Y48233D01*
X-13597Y48218D01*
X-13674Y48186D01*
X-13744Y48141D01*
X-13767Y48118D01*
X-14347Y48118D01*
X-14323Y48169D01*
X-14302Y48266D01*
X-14300Y48380D01*
X-14319Y48478D01*
X-14331Y48507D01*
X-14287Y48548D01*
X-14230Y48630D01*
X-14189Y48720D01*
X-14168Y48817D01*
X-14166Y48931D01*
X-14185Y49029D01*
X-14223Y49120D01*
X-14278Y49203D01*
X-14348Y49274D01*
X-14431Y49329D01*
X-14523Y49368D01*
X-14620Y49388D01*
X-14719Y49388D01*
X-14817Y49370D01*
X-14909Y49332D01*
X-14992Y49278D01*
X-15063Y49208D01*
X-15104Y49150D01*
X-15113Y49153D01*
X-15210Y49173D01*
X-15309Y49173D01*
X-15407Y49155D01*
X-15499Y49117D01*
X-15582Y49063D01*
X-15653Y48993D01*
X-15710Y48911D01*
X-15749Y48820D01*
X-15769Y48723D01*
X-15771Y48623D01*
X-15753Y48525D01*
X-15740Y48491D01*
X-15788Y48442D01*
X-15845Y48360D01*
X-15884Y48269D01*
X-15904Y48172D01*
X-15906Y48072D01*
X-15888Y47974D01*
X-15851Y47882D01*
X-15797Y47798D01*
X-15728Y47727D01*
X-15646Y47670D01*
X-15555Y47630D01*
X-15458Y47609D01*
X-15359Y47607D01*
X-15320Y47614D01*
X-15297Y47591D01*
X-15295Y47589D01*
X-15281Y47578D01*
X-15251Y47552D01*
X-15249Y47551D01*
X-15198Y47523D01*
X-15196Y47522D01*
X-15140Y47505D01*
X-15137Y47504D01*
X-15094Y47500D01*
X-15080Y47498D01*
X-15078Y47498D01*
X-15076Y47498D01*
X-15029Y47498D01*
X-15033Y47487D01*
X-15050Y47405D01*
X-15052Y47322D01*
X-15036Y47240D01*
X-15006Y47162D01*
X-14960Y47092D01*
X-14903Y47033D01*
X-14834Y46985D01*
X-14758Y46952D01*
X-14676Y46934D01*
X-14593Y46932D01*
X-14511Y46947D01*
X-14433Y46977D01*
X-14363Y47022D01*
X-14336Y47048D01*
X-14055Y47048D01*
X-12552Y45545D01*
X-12552Y45522D01*
X-12536Y45440D01*
X-12506Y45362D01*
X-12460Y45292D01*
X-12403Y45233D01*
X-12334Y45185D01*
X-12258Y45152D01*
X-12176Y45134D01*
X-12093Y45132D01*
X-12011Y45147D01*
X-11933Y45177D01*
X-11863Y45222D01*
X-11802Y45279D01*
X-11755Y45347D01*
X-11721Y45424D01*
X-11702Y45505D01*
X-11701Y45600D01*
X-11717Y45682D01*
X-11749Y45759D01*
X-11795Y45828D01*
X-11854Y45887D01*
X-11923Y45934D01*
X-12000Y45966D01*
X-12082Y45983D01*
X-12113Y45983D01*
X-13514Y47384D01*
X-13443Y47382D01*
X-13361Y47397D01*
X-13283Y47427D01*
X-13213Y47472D01*
X-13152Y47529D01*
X-13105Y47597D01*
X-13071Y47674D01*
X-13069Y47684D01*
X-12993Y47682D01*
X-12911Y47697D01*
X-12833Y47727D01*
X-12801Y47748D01*
X-04274Y47748D01*
X-04389Y47633D01*
X-04415Y47633D01*
X-04497Y47618D01*
X-04574Y47586D01*
X-04644Y47541D01*
X-04703Y47482D01*
X-04750Y47413D01*
X-04783Y47337D01*
X-04800Y47255D01*
X-04802Y47172D01*
X-04786Y47090D01*
X-04756Y47012D01*
X-04710Y46942D01*
X-04653Y46883D01*
X-04584Y46835D01*
X-04508Y46802D01*
X-04426Y46784D01*
X-04391Y46784D01*
X-04466Y46769D01*
X-04566Y46729D01*
X-04592Y46712D01*
X-04805Y46925D01*
X-04807Y46927D01*
X-04821Y46939D01*
X-04851Y46964D01*
X-04853Y46965D01*
X-04904Y46993D01*
X-04905Y46994D01*
X-04906Y46994D01*
X-04962Y47011D01*
X-04965Y47012D01*
X-05004Y47016D01*
X-05005Y47016D01*
X-05054Y47043D01*
X-05055Y47044D01*
X-05056Y47044D01*
X-05112Y47061D01*
X-05115Y47062D01*
X-05154Y47066D01*
X-05172Y47068D01*
X-05175Y47068D01*
X-05176Y47068D01*
X-06998Y47068D01*
X-07052Y47122D01*
X-07051Y47150D01*
X-07067Y47232D01*
X-07099Y47309D01*
X-07145Y47378D01*
X-07204Y47437D01*
X-07273Y47484D01*
X-07350Y47516D01*
X-07432Y47533D01*
X-07515Y47533D01*
X-07597Y47518D01*
X-07674Y47486D01*
X-07744Y47441D01*
X-07803Y47382D01*
X-07850Y47313D01*
X-07883Y47237D01*
X-07900Y47155D01*
X-07902Y47072D01*
X-07886Y46990D01*
X-07856Y46912D01*
X-07810Y46842D01*
X-07753Y46783D01*
X-07684Y46735D01*
X-07608Y46702D01*
X-07526Y46684D01*
X-07490Y46684D01*
X-07347Y46541D01*
X-07346Y46539D01*
X-07317Y46516D01*
X-07301Y46502D01*
X-07299Y46501D01*
X-07248Y46473D01*
X-07246Y46472D01*
X-07224Y46466D01*
X-07190Y46455D01*
X-07188Y46455D01*
X-07130Y46448D01*
X-07126Y46448D01*
X-05819Y46448D01*
X-05836Y46407D01*
X-05858Y46301D01*
X-05860Y46194D01*
X-05840Y46088D01*
X-05801Y45988D01*
X-05742Y45897D01*
X-05667Y45820D01*
X-05579Y45758D01*
X-05480Y45715D01*
X-05375Y45692D01*
X-05268Y45690D01*
X-05161Y45709D01*
X-05061Y45748D01*
X-04970Y45805D01*
X-04892Y45880D01*
X-04830Y45968D01*
X-04811Y46012D01*
X-04801Y45988D01*
X-04742Y45897D01*
X-04667Y45820D01*
X-04579Y45758D01*
X-04480Y45715D01*
X-04375Y45692D01*
X-04268Y45690D01*
X-04208Y45701D01*
X-03597Y45091D01*
X-03597Y45090D01*
X-03705Y45073D01*
X-05420Y44912D01*
X-08494Y44438D01*
X-10471Y44013D01*
X-11291Y43884D01*
X-11353Y43868D01*
X-11410Y43840D01*
X-11461Y43803D01*
X-11503Y43756D01*
X-11534Y43704D01*
X-11607Y43675D01*
X-11586Y43163D01*
X-11653Y42002D01*
X-12023Y40572D01*
X-12662Y39244D01*
X-13547Y38065D01*
X-13846Y37797D01*
X-13846Y40740D01*
X-13881Y40917D01*
X-13950Y41083D01*
X-14049Y41234D01*
X-14176Y41361D01*
X-14326Y41462D01*
X-14492Y41532D01*
X-14668Y41568D01*
X-14801Y41570D01*
X-14801Y44800D01*
X-14817Y44882D01*
X-14849Y44959D01*
X-14895Y45028D01*
X-14954Y45087D01*
X-15023Y45134D01*
X-15100Y45166D01*
X-15182Y45183D01*
X-15213Y45183D01*
X-15455Y45425D01*
X-15457Y45427D01*
X-15471Y45439D01*
X-15501Y45464D01*
X-15503Y45465D01*
X-15554Y45493D01*
X-15555Y45494D01*
X-15556Y45494D01*
X-15590Y45505D01*
X-15591Y45505D01*
X-15601Y45514D01*
X-15603Y45515D01*
X-15654Y45543D01*
X-15655Y45544D01*
X-15656Y45544D01*
X-15690Y45555D01*
X-15691Y45555D01*
X-15701Y45564D01*
X-15703Y45565D01*
X-15754Y45593D01*
X-15755Y45594D01*
X-15756Y45594D01*
X-15790Y45605D01*
X-15791Y45605D01*
X-15801Y45614D01*
X-15803Y45615D01*
X-15854Y45643D01*
X-15855Y45644D01*
X-15856Y45644D01*
X-15912Y45661D01*
X-15915Y45662D01*
X-15954Y45666D01*
X-15972Y45668D01*
X-15975Y45668D01*
X-15976Y45668D01*
X-16033Y45668D01*
X-16033Y49804D01*
X-16064Y49960D01*
X-16124Y50107D01*
X-16212Y50239D01*
X-16324Y50352D01*
X-16456Y50441D01*
X-16602Y50502D01*
X-16758Y50534D01*
X-16916Y50536D01*
X-17072Y50506D01*
X-17220Y50446D01*
X-17353Y50360D01*
X-17466Y50248D01*
X-17556Y50117D01*
X-17619Y49971D01*
X-17652Y49816D01*
X-17654Y49657D01*
X-17625Y49501D01*
X-17567Y49353D01*
X-17481Y49220D01*
X-17371Y49105D01*
X-17240Y49015D01*
X-17095Y48951D01*
X-16940Y48917D01*
X-16781Y48914D01*
X-16625Y48941D01*
X-16476Y48998D01*
X-16342Y49083D01*
X-16227Y49193D01*
X-16136Y49323D01*
X-16071Y49468D01*
X-16036Y49623D01*
X-16033Y49804D01*
X-16033Y45668D01*
X-17798Y45668D01*
X-18622Y46492D01*
X-18615Y46522D01*
X-18614Y46586D01*
X-18581Y46552D01*
X-18493Y46490D01*
X-18394Y46447D01*
X-18289Y46424D01*
X-18182Y46422D01*
X-18075Y46441D01*
X-17975Y46480D01*
X-17884Y46537D01*
X-17806Y46612D01*
X-17744Y46700D01*
X-17700Y46798D01*
X-17677Y46903D01*
X-17675Y47026D01*
X-17696Y47132D01*
X-17737Y47231D01*
X-17797Y47321D01*
X-17872Y47397D01*
X-17962Y47457D01*
X-18061Y47499D01*
X-18167Y47521D01*
X-18209Y47521D01*
X-18197Y47532D01*
X-18186Y47548D01*
X-17168Y47548D01*
X-17153Y47533D01*
X-17084Y47485D01*
X-17008Y47452D01*
X-16926Y47434D01*
X-16843Y47432D01*
X-16761Y47447D01*
X-16683Y47477D01*
X-16613Y47522D01*
X-16552Y47579D01*
X-16505Y47647D01*
X-16471Y47724D01*
X-16452Y47805D01*
X-16451Y47900D01*
X-16467Y47982D01*
X-16499Y48059D01*
X-16545Y48128D01*
X-16604Y48187D01*
X-16673Y48234D01*
X-16750Y48266D01*
X-16832Y48283D01*
X-16915Y48283D01*
X-16997Y48268D01*
X-17074Y48236D01*
X-17144Y48191D01*
X-17167Y48168D01*
X-18140Y48168D01*
X-18188Y48241D01*
X-18263Y48317D01*
X-18353Y48377D01*
X-18452Y48419D01*
X-18558Y48441D01*
X-18573Y48441D01*
X-18570Y48443D01*
X-18508Y48531D01*
X-18464Y48629D01*
X-18441Y48734D01*
X-18439Y48857D01*
X-18460Y48963D01*
X-18501Y49062D01*
X-18561Y49152D01*
X-18636Y49228D01*
X-18726Y49288D01*
X-18825Y49330D01*
X-18931Y49352D01*
X-19038Y49352D01*
X-19144Y49332D01*
X-19244Y49292D01*
X-19334Y49233D01*
X-19411Y49157D01*
X-19471Y49069D01*
X-19514Y48970D01*
X-19536Y48864D01*
X-19538Y48757D01*
X-19518Y48651D01*
X-19479Y48551D01*
X-19420Y48460D01*
X-19345Y48383D01*
X-19257Y48321D01*
X-19158Y48278D01*
X-19053Y48255D01*
X-19030Y48255D01*
X-19038Y48246D01*
X-19098Y48158D01*
X-19141Y48059D01*
X-19163Y47953D01*
X-19164Y47908D01*
X-19183Y47927D01*
X-19273Y47987D01*
X-19372Y48029D01*
X-19478Y48051D01*
X-19585Y48051D01*
X-19691Y48031D01*
X-19791Y47991D01*
X-19881Y47932D01*
X-19958Y47856D01*
X-20018Y47768D01*
X-20061Y47669D01*
X-20083Y47563D01*
X-20085Y47456D01*
X-20065Y47350D01*
X-20026Y47250D01*
X-19967Y47159D01*
X-19892Y47082D01*
X-19804Y47020D01*
X-19705Y46977D01*
X-19600Y46954D01*
X-19577Y46954D01*
X-19585Y46945D01*
X-19645Y46857D01*
X-19688Y46758D01*
X-19710Y46652D01*
X-19712Y46545D01*
X-19692Y46439D01*
X-19653Y46339D01*
X-19594Y46248D01*
X-19519Y46171D01*
X-19431Y46109D01*
X-19332Y46066D01*
X-19227Y46043D01*
X-19120Y46041D01*
X-19059Y46052D01*
X-18147Y45141D01*
X-18146Y45139D01*
X-18117Y45116D01*
X-18101Y45102D01*
X-18099Y45101D01*
X-18048Y45073D01*
X-18046Y45072D01*
X-17990Y45055D01*
X-17987Y45054D01*
X-17967Y45053D01*
X-17930Y45048D01*
X-17926Y45048D01*
X-16972Y45048D01*
X-17050Y44933D01*
X-17121Y44767D01*
X-17159Y44591D01*
X-17161Y44411D01*
X-17129Y44234D01*
X-17062Y44066D01*
X-16965Y43915D01*
X-16840Y43785D01*
X-16692Y43682D01*
X-16526Y43610D01*
X-16350Y43571D01*
X-16170Y43567D01*
X-15993Y43599D01*
X-15825Y43664D01*
X-15673Y43760D01*
X-15542Y43885D01*
X-15438Y44032D01*
X-15365Y44196D01*
X-15331Y44347D01*
X-15276Y44334D01*
X-15193Y44332D01*
X-15111Y44347D01*
X-15033Y44377D01*
X-14963Y44422D01*
X-14902Y44479D01*
X-14855Y44547D01*
X-14821Y44624D01*
X-14802Y44705D01*
X-14801Y44800D01*
X-14801Y41570D01*
X-14849Y41570D01*
X-15026Y41536D01*
X-15193Y41468D01*
X-15344Y41370D01*
X-15472Y41244D01*
X-15574Y41095D01*
X-15645Y40929D01*
X-15683Y40753D01*
X-15685Y40573D01*
X-15653Y40396D01*
X-15586Y40228D01*
X-15489Y40077D01*
X-15364Y39947D01*
X-15216Y39844D01*
X-15050Y39772D01*
X-14874Y39733D01*
X-14694Y39729D01*
X-14517Y39761D01*
X-14349Y39826D01*
X-14197Y39922D01*
X-14066Y40047D01*
X-13962Y40194D01*
X-13889Y40358D01*
X-13849Y40534D01*
X-13846Y40740D01*
X-13846Y37797D01*
X-14646Y37079D01*
X-15802Y36393D01*
X-22973Y52731D01*
X-22571Y52894D01*
X-13289Y55964D01*
X-12295Y56216D01*
X-01508Y57560D01*
X-01506Y57560D01*
X-01503Y57560D01*
X09643Y56762D01*
X09736Y56748D01*
X16241Y54968D01*
X15174Y54968D01*
X15114Y54962D01*
X15056Y54945D01*
X15002Y54916D01*
X14966Y54887D01*
X14957Y54879D01*
X14954Y54877D01*
X14412Y54335D01*
X14357Y54346D01*
X14243Y54346D01*
X14132Y54325D01*
X14026Y54282D01*
X13931Y54220D01*
X13872Y54163D01*
X13834Y54257D01*
X13771Y54352D01*
X13691Y54432D01*
X13597Y54496D01*
X13492Y54540D01*
X13381Y54563D01*
X13267Y54563D01*
X13156Y54542D01*
X13050Y54499D01*
X12955Y54437D01*
X12874Y54358D01*
X12810Y54264D01*
X12765Y54160D01*
X12742Y54049D01*
X12740Y53935D01*
X12761Y53823D01*
X12803Y53718D01*
X12864Y53622D01*
X12943Y53541D01*
X13036Y53476D01*
X13140Y53431D01*
X13251Y53406D01*
X13365Y53404D01*
X13477Y53424D01*
X13583Y53465D01*
X13678Y53526D01*
X13744Y53589D01*
X13779Y53501D01*
X13840Y53405D01*
X13919Y53324D01*
X14012Y53259D01*
X14116Y53214D01*
X14227Y53189D01*
X14341Y53187D01*
X14453Y53207D01*
X14559Y53248D01*
X14654Y53309D01*
X14737Y53387D01*
X14802Y53480D01*
X14848Y53584D01*
X14873Y53694D01*
X14875Y53824D01*
X14859Y53905D01*
X15302Y54348D01*
X16832Y54348D01*
X16847Y54333D01*
X16916Y54285D01*
X16992Y54252D01*
X17074Y54234D01*
X17157Y54232D01*
X17239Y54247D01*
X17317Y54277D01*
X17387Y54322D01*
X17448Y54379D01*
X17495Y54447D01*
X17529Y54524D01*
X17548Y54605D01*
X17548Y54611D01*
X19911Y53964D01*
X20407Y53774D01*
X20356Y53741D01*
X20333Y53718D01*
X18624Y53718D01*
X18564Y53712D01*
X18506Y53695D01*
X18452Y53666D01*
X18416Y53637D01*
X18407Y53629D01*
X18404Y53627D01*
X18035Y53259D01*
X17999Y53266D01*
X17885Y53266D01*
X17774Y53245D01*
X17668Y53202D01*
X17573Y53140D01*
X17531Y53100D01*
X17529Y53113D01*
X17486Y53218D01*
X17423Y53313D01*
X17343Y53393D01*
X17249Y53457D01*
X17144Y53501D01*
X17033Y53524D01*
X16919Y53524D01*
X16808Y53503D01*
X16702Y53460D01*
X16607Y53398D01*
X16526Y53319D01*
X16462Y53225D01*
X16417Y53121D01*
X16394Y53010D01*
X16392Y52896D01*
X16413Y52784D01*
X16455Y52679D01*
X16516Y52583D01*
X16595Y52502D01*
X16688Y52437D01*
X16792Y52392D01*
X16903Y52367D01*
X17017Y52365D01*
X17129Y52385D01*
X17235Y52426D01*
X17330Y52487D01*
X17377Y52532D01*
X17379Y52526D01*
X17421Y52421D01*
X17482Y52325D01*
X17561Y52244D01*
X17654Y52179D01*
X17758Y52134D01*
X17869Y52109D01*
X17983Y52107D01*
X18095Y52127D01*
X18201Y52168D01*
X18296Y52229D01*
X18379Y52307D01*
X18444Y52400D01*
X18490Y52504D01*
X18515Y52614D01*
X18517Y52744D01*
X18497Y52843D01*
X18752Y53098D01*
X20332Y53098D01*
X20347Y53083D01*
X20416Y53035D01*
X20492Y53002D01*
X20574Y52984D01*
X20657Y52982D01*
X20739Y52997D01*
X20817Y53027D01*
X20887Y53072D01*
X20948Y53129D01*
X20995Y53197D01*
X21029Y53274D01*
X21048Y53355D01*
X21049Y53450D01*
X21033Y53532D01*
X21032Y53534D01*
X21139Y53493D01*
X23553Y52289D01*
X23533Y52268D01*
X21924Y52268D01*
X21864Y52262D01*
X21806Y52245D01*
X21752Y52216D01*
X21716Y52187D01*
X21707Y52179D01*
X21704Y52177D01*
X21487Y51960D01*
X21424Y51973D01*
X21310Y51973D01*
X21199Y51952D01*
X21093Y51909D01*
X20998Y51847D01*
X20992Y51842D01*
X20980Y51904D01*
X20937Y52009D01*
X20874Y52104D01*
X20794Y52184D01*
X20700Y52248D01*
X20595Y52292D01*
X20484Y52315D01*
X20370Y52315D01*
X20259Y52294D01*
X20153Y52251D01*
X20058Y52189D01*
X19977Y52110D01*
X19913Y52016D01*
X19868Y51912D01*
X19845Y51801D01*
X19843Y51687D01*
X19864Y51575D01*
X19906Y51470D01*
X19967Y51374D01*
X20046Y51293D01*
X20139Y51228D01*
X20243Y51183D01*
X20354Y51158D01*
X20468Y51156D01*
X20580Y51176D01*
X20686Y51217D01*
X20781Y51278D01*
X20793Y51290D01*
X20804Y51233D01*
X20846Y51128D01*
X20907Y51032D01*
X20986Y50951D01*
X21079Y50886D01*
X21183Y50841D01*
X21294Y50816D01*
X21408Y50814D01*
X21520Y50834D01*
X21626Y50875D01*
X21721Y50936D01*
X21804Y51014D01*
X21869Y51107D01*
X21915Y51211D01*
X21940Y51321D01*
X21942Y51451D01*
X21927Y51524D01*
X22052Y51648D01*
X23532Y51648D01*
X23547Y51633D01*
X23616Y51585D01*
X23692Y51552D01*
X23774Y51534D01*
X23857Y51532D01*
X23939Y51547D01*
X24017Y51577D01*
X24087Y51622D01*
X24148Y51679D01*
X24195Y51747D01*
X24229Y51824D01*
X24248Y51905D01*
X24248Y51943D01*
X26901Y50621D01*
X26901Y50621D01*
G37*
G54D20*
X26901Y50621D02*
X26856Y50591D01*
X26833Y50568D01*
X24924Y50568D01*
X24864Y50562D01*
X24806Y50545D01*
X24752Y50516D01*
X24716Y50487D01*
X24712Y50484D01*
X24631Y50500D01*
X24517Y50500D01*
X24406Y50479D01*
X24300Y50436D01*
X24220Y50385D01*
X24203Y50472D01*
X24160Y50577D01*
X24097Y50672D01*
X24017Y50752D01*
X23923Y50816D01*
X23818Y50860D01*
X23707Y50883D01*
X23593Y50883D01*
X23482Y50862D01*
X23376Y50819D01*
X23281Y50757D01*
X23200Y50678D01*
X23136Y50584D01*
X23091Y50480D01*
X23068Y50369D01*
X23066Y50255D01*
X23087Y50143D01*
X23129Y50038D01*
X23190Y49942D01*
X23269Y49861D01*
X23362Y49796D01*
X23466Y49751D01*
X23577Y49726D01*
X23691Y49724D01*
X23803Y49744D01*
X23909Y49785D01*
X23995Y49841D01*
X24011Y49760D01*
X24053Y49655D01*
X24114Y49559D01*
X24193Y49478D01*
X24207Y49468D01*
X16224Y49468D01*
X16245Y49497D01*
X16279Y49574D01*
X16298Y49655D01*
X16299Y49750D01*
X16283Y49832D01*
X16251Y49909D01*
X16205Y49978D01*
X16146Y50037D01*
X16077Y50084D01*
X16000Y50116D01*
X15918Y50133D01*
X15887Y50133D01*
X12545Y53475D01*
X12543Y53477D01*
X12529Y53489D01*
X12499Y53514D01*
X12497Y53515D01*
X12446Y53543D01*
X12445Y53544D01*
X12444Y53544D01*
X12388Y53561D01*
X12385Y53562D01*
X12346Y53566D01*
X12328Y53568D01*
X12325Y53568D01*
X12324Y53568D01*
X09501Y53568D01*
X09539Y53604D01*
X09661Y53777D01*
X09747Y53970D01*
X09794Y54176D01*
X09794Y54204D01*
X09856Y54160D01*
X09960Y54115D01*
X10071Y54090D01*
X10185Y54088D01*
X10297Y54108D01*
X10403Y54149D01*
X10498Y54210D01*
X10581Y54288D01*
X10582Y54291D01*
X10608Y54228D01*
X10669Y54132D01*
X10748Y54051D01*
X10841Y53986D01*
X10945Y53941D01*
X11056Y53916D01*
X11170Y53914D01*
X11282Y53934D01*
X11388Y53975D01*
X11483Y54036D01*
X11566Y54114D01*
X11624Y54198D01*
X12082Y54198D01*
X12097Y54183D01*
X12166Y54135D01*
X12242Y54102D01*
X12324Y54084D01*
X12407Y54082D01*
X12489Y54097D01*
X12567Y54127D01*
X12637Y54172D01*
X12698Y54229D01*
X12745Y54297D01*
X12779Y54374D01*
X12798Y54455D01*
X12799Y54550D01*
X12783Y54632D01*
X12751Y54709D01*
X12705Y54778D01*
X12646Y54837D01*
X12577Y54884D01*
X12500Y54916D01*
X12418Y54933D01*
X12335Y54933D01*
X12253Y54918D01*
X12176Y54886D01*
X12106Y54841D01*
X12083Y54818D01*
X11605Y54818D01*
X11576Y54862D01*
X11496Y54942D01*
X11402Y55006D01*
X11297Y55050D01*
X11186Y55073D01*
X11072Y55073D01*
X10961Y55052D01*
X10855Y55009D01*
X10760Y54947D01*
X10682Y54872D01*
X10654Y54941D01*
X10591Y55036D01*
X10511Y55116D01*
X10417Y55180D01*
X10312Y55224D01*
X10201Y55247D01*
X10087Y55247D01*
X09976Y55226D01*
X09870Y55183D01*
X09775Y55121D01*
X09694Y55042D01*
X09630Y54948D01*
X09613Y54911D01*
X09558Y54995D01*
X09483Y55071D01*
X09487Y55072D01*
X09548Y55129D01*
X09595Y55197D01*
X09629Y55274D01*
X09648Y55355D01*
X09649Y55450D01*
X09633Y55532D01*
X09601Y55609D01*
X09555Y55678D01*
X09496Y55737D01*
X09427Y55784D01*
X09350Y55816D01*
X09268Y55833D01*
X09185Y55833D01*
X09103Y55818D01*
X09026Y55786D01*
X08956Y55741D01*
X08933Y55718D01*
X07327Y55718D01*
X07324Y55718D01*
X07309Y55717D01*
X07267Y55713D01*
X07209Y55696D01*
X07208Y55696D01*
X07206Y55695D01*
X07164Y55673D01*
X07163Y55673D01*
X07108Y55684D01*
X06994Y55684D01*
X06883Y55663D01*
X06864Y55656D01*
X06595Y55925D01*
X06593Y55927D01*
X06579Y55939D01*
X06549Y55964D01*
X06547Y55965D01*
X06496Y55993D01*
X06495Y55994D01*
X06494Y55994D01*
X06460Y56005D01*
X06459Y56005D01*
X06449Y56014D01*
X06447Y56015D01*
X06396Y56043D01*
X06395Y56044D01*
X06394Y56044D01*
X06338Y56061D01*
X06335Y56062D01*
X06296Y56066D01*
X06278Y56068D01*
X06275Y56068D01*
X06274Y56068D01*
X04024Y56068D01*
X03964Y56062D01*
X03906Y56045D01*
X03852Y56016D01*
X03816Y55987D01*
X03815Y55987D01*
X03754Y55999D01*
X03640Y55999D01*
X03529Y55978D01*
X03431Y55939D01*
X03195Y56175D01*
X03193Y56177D01*
X03179Y56189D01*
X03149Y56214D01*
X03147Y56215D01*
X03096Y56243D01*
X03095Y56244D01*
X03094Y56244D01*
X03038Y56261D01*
X03035Y56262D01*
X02996Y56266D01*
X02995Y56266D01*
X02946Y56293D01*
X02945Y56294D01*
X02944Y56294D01*
X02888Y56311D01*
X02885Y56312D01*
X02846Y56316D01*
X02828Y56318D01*
X02825Y56318D01*
X02824Y56318D01*
X00577Y56318D01*
X00574Y56318D01*
X00559Y56317D01*
X00517Y56313D01*
X00459Y56296D01*
X00458Y56296D01*
X00456Y56295D01*
X00402Y56266D01*
X00366Y56238D01*
X00358Y56230D01*
X00356Y56228D01*
X00355Y56227D01*
X00214Y56087D01*
X00147Y56100D01*
X00033Y56100D01*
X-00078Y56079D01*
X-00184Y56036D01*
X-00279Y55974D01*
X-00360Y55895D01*
X-00415Y55816D01*
X-00463Y55889D01*
X-00543Y55969D01*
X-00637Y56033D01*
X-00742Y56077D01*
X-00853Y56100D01*
X-00967Y56100D01*
X-01078Y56079D01*
X-01184Y56036D01*
X-01279Y55974D01*
X-01360Y55895D01*
X-01424Y55801D01*
X-01469Y55697D01*
X-01492Y55586D01*
X-01494Y55472D01*
X-01473Y55360D01*
X-01457Y55318D01*
X-02913Y55318D01*
X-02905Y55352D01*
X-02903Y55482D01*
X-02925Y55593D01*
X-02968Y55698D01*
X-03031Y55793D01*
X-03111Y55873D01*
X-03205Y55937D01*
X-03310Y55981D01*
X-03421Y56004D01*
X-03535Y56004D01*
X-03646Y55983D01*
X-03752Y55940D01*
X-03794Y55914D01*
X-03955Y56075D01*
X-03957Y56077D01*
X-03971Y56089D01*
X-04001Y56114D01*
X-04003Y56115D01*
X-04054Y56143D01*
X-04055Y56144D01*
X-04056Y56144D01*
X-04090Y56155D01*
X-04091Y56155D01*
X-04101Y56164D01*
X-04103Y56165D01*
X-04154Y56193D01*
X-04155Y56194D01*
X-04156Y56194D01*
X-04212Y56211D01*
X-04215Y56212D01*
X-04254Y56216D01*
X-04272Y56218D01*
X-04275Y56218D01*
X-04276Y56218D01*
X-06173Y56218D01*
X-06176Y56218D01*
X-06191Y56217D01*
X-06233Y56213D01*
X-06291Y56196D01*
X-06292Y56196D01*
X-06294Y56195D01*
X-06348Y56166D01*
X-06384Y56138D01*
X-06392Y56130D01*
X-06394Y56128D01*
X-06395Y56127D01*
X-06536Y55987D01*
X-06628Y56006D01*
X-06742Y56006D01*
X-06822Y55992D01*
X-06905Y56075D01*
X-06907Y56077D01*
X-06921Y56089D01*
X-06951Y56114D01*
X-06953Y56115D01*
X-07004Y56143D01*
X-07005Y56144D01*
X-07006Y56144D01*
X-07062Y56161D01*
X-07065Y56162D01*
X-07104Y56166D01*
X-07122Y56168D01*
X-07125Y56168D01*
X-07126Y56168D01*
X-07776Y56168D01*
X-07836Y56162D01*
X-07894Y56145D01*
X-07948Y56116D01*
X-07949Y56116D01*
X-07986Y56112D01*
X-08044Y56095D01*
X-08098Y56066D01*
X-08113Y56055D01*
X-08114Y56054D01*
X-08144Y56045D01*
X-08198Y56016D01*
X-08234Y55987D01*
X-08243Y55979D01*
X-08246Y55977D01*
X-08355Y55868D01*
X-09076Y55868D01*
X-09136Y55862D01*
X-09194Y55845D01*
X-09248Y55816D01*
X-09249Y55816D01*
X-09286Y55812D01*
X-09344Y55795D01*
X-09395Y55768D01*
X-09635Y55768D01*
X-09654Y55787D01*
X-09723Y55834D01*
X-09800Y55866D01*
X-09882Y55883D01*
X-09965Y55883D01*
X-10047Y55868D01*
X-10124Y55836D01*
X-10194Y55791D01*
X-10253Y55732D01*
X-10300Y55663D01*
X-10333Y55587D01*
X-10350Y55505D01*
X-10352Y55422D01*
X-10336Y55340D01*
X-10306Y55262D01*
X-10260Y55192D01*
X-10203Y55133D01*
X-10134Y55085D01*
X-10058Y55052D01*
X-09976Y55034D01*
X-09893Y55032D01*
X-09811Y55047D01*
X-09733Y55077D01*
X-09679Y55112D01*
X-09709Y55068D01*
X-09792Y54874D01*
X-09836Y54667D01*
X-09838Y54456D01*
X-09800Y54248D01*
X-09722Y54052D01*
X-09608Y53874D01*
X-09461Y53723D01*
X-09288Y53602D01*
X-09094Y53518D01*
X-08888Y53472D01*
X-08677Y53468D01*
X-08469Y53505D01*
X-08272Y53581D01*
X-08093Y53694D01*
X-07941Y53840D01*
X-07819Y54013D01*
X-07733Y54206D01*
X-07686Y54412D01*
X-07683Y54653D01*
X-07698Y54727D01*
X-07637Y54725D01*
X-07525Y54745D01*
X-07419Y54786D01*
X-07324Y54847D01*
X-07241Y54925D01*
X-07176Y55018D01*
X-07152Y55075D01*
X-07145Y55065D01*
X-07066Y54984D01*
X-06973Y54919D01*
X-06869Y54874D01*
X-06758Y54849D01*
X-06644Y54847D01*
X-06532Y54867D01*
X-06426Y54908D01*
X-06331Y54969D01*
X-06248Y55047D01*
X-06183Y55140D01*
X-06137Y55244D01*
X-06112Y55354D01*
X-06110Y55484D01*
X-06119Y55528D01*
X-06048Y55598D01*
X-05019Y55598D01*
X-05036Y55557D01*
X-05059Y55446D01*
X-05061Y55332D01*
X-05040Y55220D01*
X-04998Y55115D01*
X-04937Y55019D01*
X-04858Y54938D01*
X-04765Y54873D01*
X-04661Y54828D01*
X-04550Y54803D01*
X-04436Y54801D01*
X-04324Y54821D01*
X-04218Y54862D01*
X-04123Y54923D01*
X-04040Y55001D01*
X-03975Y55094D01*
X-03968Y55111D01*
X-03938Y55063D01*
X-03859Y54982D01*
X-03766Y54917D01*
X-03662Y54872D01*
X-03551Y54847D01*
X-03437Y54845D01*
X-03365Y54858D01*
X-03297Y54791D01*
X-03296Y54789D01*
X-03267Y54766D01*
X-03251Y54752D01*
X-03249Y54751D01*
X-03198Y54723D01*
X-03196Y54722D01*
X-03140Y54705D01*
X-03137Y54704D01*
X-03117Y54703D01*
X-03080Y54698D01*
X-03076Y54698D01*
X-00679Y54698D01*
X-00676Y54698D01*
X-00661Y54700D01*
X-00619Y54703D01*
X-00616Y54704D01*
X-00561Y54720D01*
X-00561Y54721D01*
X-00558Y54721D01*
X-00528Y54738D01*
X-00507Y54748D01*
X-00506Y54750D01*
X-00504Y54750D01*
X-00491Y54762D01*
X-00490Y54762D01*
X-00461Y54770D01*
X-00461Y54771D01*
X-00458Y54771D01*
X-00428Y54788D01*
X-00407Y54798D01*
X-00406Y54800D01*
X-00404Y54800D01*
X-00380Y54820D01*
X-00360Y54836D01*
X-00358Y54838D01*
X-00357Y54839D01*
X-00188Y55009D01*
X-00094Y54968D01*
X00017Y54943D01*
X00131Y54941D01*
X00243Y54961D01*
X00349Y55002D01*
X00444Y55063D01*
X00527Y55141D01*
X00592Y55234D01*
X00638Y55338D01*
X00663Y55448D01*
X00665Y55578D01*
X00651Y55648D01*
X00702Y55698D01*
X02164Y55698D01*
X02139Y55640D01*
X02116Y55529D01*
X02114Y55415D01*
X02135Y55303D01*
X02177Y55198D01*
X02238Y55102D01*
X02317Y55021D01*
X02410Y54956D01*
X02514Y54911D01*
X02625Y54886D01*
X02739Y54884D01*
X02799Y54895D01*
X05203Y52491D01*
X05205Y52489D01*
X05219Y52478D01*
X05220Y52477D01*
X05207Y52456D01*
X05190Y52418D01*
X05177Y52449D01*
X05117Y52539D01*
X05042Y52615D01*
X04952Y52675D01*
X04853Y52717D01*
X04747Y52739D01*
X04640Y52739D01*
X04534Y52719D01*
X04434Y52679D01*
X04344Y52620D01*
X04267Y52544D01*
X04207Y52456D01*
X04190Y52418D01*
X04177Y52449D01*
X04117Y52539D01*
X04042Y52615D01*
X03952Y52675D01*
X03853Y52717D01*
X03747Y52739D01*
X03640Y52739D01*
X03534Y52719D01*
X03434Y52679D01*
X03344Y52620D01*
X03267Y52544D01*
X03207Y52456D01*
X03190Y52418D01*
X03177Y52449D01*
X03117Y52539D01*
X03042Y52615D01*
X02952Y52675D01*
X02853Y52717D01*
X02747Y52739D01*
X02640Y52739D01*
X02534Y52719D01*
X02434Y52679D01*
X02344Y52620D01*
X02267Y52544D01*
X02207Y52456D01*
X02190Y52418D01*
X02177Y52449D01*
X02117Y52539D01*
X02042Y52615D01*
X01952Y52675D01*
X01853Y52717D01*
X01747Y52739D01*
X01640Y52739D01*
X01534Y52719D01*
X01434Y52679D01*
X01344Y52620D01*
X01267Y52544D01*
X01207Y52456D01*
X01190Y52418D01*
X01177Y52449D01*
X01117Y52539D01*
X01042Y52615D01*
X00952Y52675D01*
X00853Y52717D01*
X00747Y52739D01*
X00640Y52739D01*
X00534Y52719D01*
X00434Y52679D01*
X00344Y52620D01*
X00267Y52544D01*
X00207Y52456D01*
X00190Y52418D01*
X00177Y52449D01*
X00117Y52539D01*
X00042Y52615D01*
X-00048Y52675D01*
X-00147Y52717D01*
X-00253Y52739D01*
X-00360Y52739D01*
X-00466Y52719D01*
X-00516Y52699D01*
X-00516Y52958D01*
X-00522Y53016D01*
X-00522Y53018D01*
X-00539Y53074D01*
X-00539Y53076D01*
X-00567Y53127D01*
X-00568Y53130D01*
X-00588Y53154D01*
X-00604Y53175D01*
X-00607Y53178D01*
X-01228Y53799D01*
X-01217Y53848D01*
X-01215Y53971D01*
X-01236Y54077D01*
X-01277Y54176D01*
X-01337Y54266D01*
X-01412Y54342D01*
X-01502Y54402D01*
X-01601Y54444D01*
X-01707Y54466D01*
X-01814Y54466D01*
X-01920Y54446D01*
X-02020Y54406D01*
X-02110Y54347D01*
X-02187Y54271D01*
X-02247Y54183D01*
X-02264Y54145D01*
X-02277Y54176D01*
X-02337Y54266D01*
X-02412Y54342D01*
X-02502Y54402D01*
X-02601Y54444D01*
X-02707Y54466D01*
X-02814Y54466D01*
X-02920Y54446D01*
X-03020Y54406D01*
X-03110Y54347D01*
X-03187Y54271D01*
X-03247Y54183D01*
X-03290Y54084D01*
X-03312Y53978D01*
X-03314Y53871D01*
X-03294Y53765D01*
X-03255Y53665D01*
X-03196Y53574D01*
X-03121Y53497D01*
X-03033Y53435D01*
X-02934Y53392D01*
X-02829Y53369D01*
X-02722Y53367D01*
X-02681Y53375D01*
X-02136Y52830D01*
X-02136Y52713D01*
X-02147Y52717D01*
X-02253Y52739D01*
X-02360Y52739D01*
X-02466Y52719D01*
X-02566Y52679D01*
X-02656Y52620D01*
X-02733Y52544D01*
X-02793Y52456D01*
X-02810Y52418D01*
X-02823Y52449D01*
X-02883Y52539D01*
X-02958Y52615D01*
X-03048Y52675D01*
X-03147Y52717D01*
X-03253Y52739D01*
X-03360Y52739D01*
X-03466Y52719D01*
X-03566Y52679D01*
X-03656Y52620D01*
X-03733Y52544D01*
X-03793Y52456D01*
X-03836Y52357D01*
X-03858Y52251D01*
X-03860Y52144D01*
X-03840Y52038D01*
X-03801Y51938D01*
X-03742Y51847D01*
X-03667Y51770D01*
X-03579Y51708D01*
X-03480Y51665D01*
X-03375Y51642D01*
X-03268Y51640D01*
X-03161Y51659D01*
X-03061Y51698D01*
X-02970Y51755D01*
X-02892Y51830D01*
X-02830Y51918D01*
X-02811Y51962D01*
X-02801Y51938D01*
X-02742Y51847D01*
X-02667Y51770D01*
X-02579Y51708D01*
X-02480Y51665D01*
X-02375Y51642D01*
X-02268Y51640D01*
X-02161Y51659D01*
X-02061Y51698D01*
X-02023Y51723D01*
X-02014Y51712D01*
X-01998Y51692D01*
X-01996Y51690D01*
X-01995Y51689D01*
X-01847Y51541D01*
X-01845Y51539D01*
X-01831Y51528D01*
X-01801Y51502D01*
X-01799Y51501D01*
X-01748Y51473D01*
X-01746Y51472D01*
X-01713Y51462D01*
X-01701Y51452D01*
X-01699Y51451D01*
X-01648Y51423D01*
X-01646Y51422D01*
X-01590Y51405D01*
X-01587Y51404D01*
X-01567Y51403D01*
X-01530Y51398D01*
X-01526Y51398D01*
X-01504Y51398D01*
X-01002Y50896D01*
X-01002Y50872D01*
X-00986Y50790D01*
X-00956Y50712D01*
X-00910Y50642D01*
X-00853Y50583D01*
X-00784Y50535D01*
X-00708Y50502D01*
X-00626Y50484D01*
X-00543Y50482D01*
X-00461Y50497D01*
X-00383Y50527D01*
X-00313Y50572D01*
X-00252Y50629D01*
X-00205Y50697D01*
X-00171Y50774D01*
X-00152Y50855D01*
X-00152Y50896D01*
X00448Y50295D01*
X00448Y50272D01*
X00458Y50218D01*
X-04761Y50218D01*
X-04761Y52244D01*
X-04782Y52350D01*
X-04823Y52449D01*
X-04883Y52539D01*
X-04958Y52615D01*
X-05048Y52675D01*
X-05147Y52717D01*
X-05253Y52739D01*
X-05360Y52739D01*
X-05466Y52719D01*
X-05566Y52679D01*
X-05656Y52620D01*
X-05733Y52544D01*
X-05793Y52456D01*
X-05836Y52357D01*
X-05858Y52251D01*
X-05860Y52144D01*
X-05840Y52038D01*
X-05801Y51938D01*
X-05742Y51847D01*
X-05667Y51770D01*
X-05579Y51708D01*
X-05480Y51665D01*
X-05375Y51642D01*
X-05268Y51640D01*
X-05161Y51659D01*
X-05061Y51698D01*
X-04970Y51755D01*
X-04892Y51830D01*
X-04830Y51918D01*
X-04786Y52016D01*
X-04763Y52121D01*
X-04761Y52244D01*
X-04761Y50218D01*
X-08048Y50218D01*
X-08205Y50375D01*
X-08207Y50377D01*
X-08221Y50389D01*
X-08251Y50414D01*
X-08253Y50415D01*
X-08304Y50443D01*
X-08305Y50444D01*
X-08306Y50444D01*
X-08340Y50455D01*
X-08341Y50455D01*
X-08351Y50464D01*
X-08353Y50465D01*
X-08404Y50493D01*
X-08405Y50494D01*
X-08406Y50494D01*
X-08440Y50505D01*
X-08441Y50505D01*
X-08451Y50514D01*
X-08453Y50515D01*
X-08504Y50543D01*
X-08505Y50544D01*
X-08506Y50544D01*
X-08562Y50561D01*
X-08565Y50562D01*
X-08604Y50566D01*
X-08622Y50568D01*
X-08625Y50568D01*
X-08626Y50568D01*
X-10106Y50568D01*
X-10106Y51818D01*
X-10113Y51853D01*
X-10113Y54647D01*
X-10135Y54758D01*
X-10178Y54863D01*
X-10241Y54958D01*
X-10321Y55038D01*
X-10415Y55102D01*
X-10520Y55146D01*
X-10631Y55169D01*
X-10745Y55169D01*
X-10791Y55161D01*
X-10805Y55175D01*
X-10807Y55177D01*
X-10821Y55189D01*
X-10851Y55214D01*
X-10853Y55215D01*
X-10904Y55243D01*
X-10905Y55244D01*
X-10906Y55244D01*
X-10962Y55261D01*
X-10965Y55262D01*
X-11004Y55266D01*
X-11022Y55268D01*
X-11025Y55268D01*
X-11026Y55268D01*
X-13085Y55268D01*
X-13104Y55287D01*
X-13173Y55334D01*
X-13250Y55366D01*
X-13332Y55383D01*
X-13415Y55383D01*
X-13497Y55368D01*
X-13574Y55336D01*
X-13644Y55291D01*
X-13703Y55232D01*
X-13750Y55163D01*
X-13783Y55087D01*
X-13800Y55005D01*
X-13802Y54922D01*
X-13786Y54840D01*
X-13756Y54762D01*
X-13710Y54692D01*
X-13653Y54633D01*
X-13584Y54585D01*
X-13508Y54552D01*
X-13426Y54534D01*
X-13343Y54532D01*
X-13261Y54547D01*
X-13183Y54577D01*
X-13113Y54622D01*
X-13086Y54648D01*
X-12208Y54648D01*
X-12232Y54592D01*
X-12255Y54481D01*
X-12257Y54367D01*
X-12236Y54255D01*
X-12194Y54150D01*
X-12133Y54054D01*
X-12054Y53973D01*
X-11961Y53908D01*
X-11857Y53863D01*
X-11746Y53838D01*
X-11632Y53836D01*
X-11520Y53856D01*
X-11414Y53897D01*
X-11319Y53958D01*
X-11236Y54036D01*
X-11171Y54129D01*
X-11134Y54214D01*
X-11069Y54147D01*
X-10976Y54082D01*
X-10872Y54037D01*
X-10761Y54012D01*
X-10647Y54010D01*
X-10535Y54030D01*
X-10429Y54071D01*
X-10334Y54132D01*
X-10251Y54210D01*
X-10186Y54303D01*
X-10140Y54407D01*
X-10115Y54517D01*
X-10113Y54647D01*
X-10113Y51853D01*
X-10134Y51958D01*
X-10188Y52089D01*
X-10267Y52208D01*
X-10367Y52309D01*
X-10485Y52389D01*
X-10616Y52444D01*
X-10756Y52472D01*
X-10898Y52473D01*
X-11038Y52447D01*
X-11170Y52394D01*
X-11289Y52316D01*
X-11391Y52216D01*
X-11471Y52099D01*
X-11527Y51968D01*
X-11557Y51828D01*
X-11559Y51686D01*
X-11533Y51546D01*
X-11481Y51414D01*
X-11404Y51294D01*
X-11305Y51192D01*
X-11188Y51110D01*
X-11058Y51053D01*
X-10919Y51023D01*
X-10776Y51020D01*
X-10636Y51044D01*
X-10503Y51096D01*
X-10383Y51172D01*
X-10280Y51270D01*
X-10198Y51387D01*
X-10140Y51517D01*
X-10108Y51655D01*
X-10106Y51818D01*
X-10106Y50568D01*
X-10659Y50568D01*
X-10704Y50593D01*
X-10705Y50594D01*
X-10706Y50594D01*
X-10762Y50611D01*
X-10765Y50612D01*
X-10804Y50616D01*
X-10822Y50618D01*
X-10825Y50618D01*
X-10826Y50618D01*
X-11947Y50618D01*
X-11870Y50691D01*
X-11788Y50808D01*
X-11730Y50938D01*
X-11698Y51076D01*
X-11696Y51239D01*
X-11724Y51379D01*
X-11778Y51510D01*
X-11857Y51629D01*
X-11957Y51730D01*
X-12075Y51810D01*
X-12206Y51865D01*
X-12346Y51893D01*
X-12488Y51894D01*
X-12628Y51868D01*
X-12760Y51815D01*
X-12879Y51737D01*
X-12981Y51637D01*
X-13061Y51520D01*
X-13117Y51389D01*
X-13144Y51265D01*
X-13441Y51562D01*
X-13441Y53868D01*
X-13463Y53979D01*
X-13506Y54084D01*
X-13569Y54179D01*
X-13649Y54259D01*
X-13743Y54323D01*
X-13848Y54367D01*
X-13959Y54390D01*
X-14073Y54390D01*
X-14167Y54373D01*
X-14204Y54393D01*
X-14205Y54394D01*
X-14206Y54394D01*
X-14262Y54411D01*
X-14265Y54412D01*
X-14304Y54416D01*
X-14322Y54418D01*
X-14325Y54418D01*
X-14326Y54418D01*
X-16535Y54418D01*
X-16554Y54437D01*
X-16623Y54484D01*
X-16700Y54516D01*
X-16782Y54533D01*
X-16865Y54533D01*
X-16947Y54518D01*
X-17024Y54486D01*
X-17094Y54441D01*
X-17153Y54382D01*
X-17200Y54313D01*
X-17233Y54237D01*
X-17250Y54155D01*
X-17252Y54072D01*
X-17236Y53990D01*
X-17206Y53912D01*
X-17160Y53842D01*
X-17103Y53783D01*
X-17034Y53735D01*
X-16958Y53702D01*
X-16876Y53684D01*
X-16793Y53682D01*
X-16711Y53697D01*
X-16633Y53727D01*
X-16563Y53772D01*
X-16536Y53798D01*
X-15512Y53798D01*
X-15541Y53729D01*
X-15564Y53618D01*
X-15566Y53504D01*
X-15545Y53392D01*
X-15503Y53287D01*
X-15442Y53191D01*
X-15363Y53110D01*
X-15270Y53045D01*
X-15166Y53000D01*
X-15055Y52975D01*
X-14941Y52973D01*
X-14829Y52993D01*
X-14723Y53034D01*
X-14628Y53095D01*
X-14545Y53173D01*
X-14480Y53266D01*
X-14434Y53370D01*
X-14428Y53400D01*
X-14397Y53368D01*
X-14304Y53303D01*
X-14200Y53258D01*
X-14089Y53233D01*
X-13975Y53231D01*
X-13863Y53251D01*
X-13757Y53292D01*
X-13662Y53353D01*
X-13579Y53431D01*
X-13514Y53524D01*
X-13468Y53628D01*
X-13443Y53738D01*
X-13441Y53868D01*
X-13441Y51562D01*
X-13455Y51575D01*
X-13457Y51577D01*
X-13471Y51589D01*
X-13501Y51614D01*
X-13503Y51615D01*
X-13554Y51643D01*
X-13555Y51644D01*
X-13556Y51644D01*
X-13590Y51655D01*
X-13591Y51655D01*
X-13601Y51664D01*
X-13603Y51665D01*
X-13654Y51693D01*
X-13655Y51694D01*
X-13656Y51694D01*
X-13690Y51705D01*
X-13691Y51705D01*
X-13701Y51714D01*
X-13703Y51715D01*
X-13754Y51743D01*
X-13755Y51744D01*
X-13756Y51744D01*
X-13812Y51761D01*
X-13815Y51762D01*
X-13854Y51766D01*
X-13872Y51768D01*
X-13875Y51768D01*
X-13876Y51768D01*
X-16773Y51768D01*
X-16773Y52895D01*
X-16795Y53006D01*
X-16838Y53111D01*
X-16901Y53206D01*
X-16981Y53286D01*
X-17075Y53350D01*
X-17180Y53394D01*
X-17291Y53417D01*
X-17405Y53417D01*
X-17516Y53396D01*
X-17622Y53353D01*
X-17676Y53318D01*
X-19935Y53318D01*
X-19954Y53337D01*
X-20023Y53384D01*
X-20100Y53416D01*
X-20182Y53433D01*
X-20265Y53433D01*
X-20347Y53418D01*
X-20424Y53386D01*
X-20494Y53341D01*
X-20553Y53282D01*
X-20600Y53213D01*
X-20633Y53137D01*
X-20650Y53055D01*
X-20652Y52972D01*
X-20636Y52890D01*
X-20606Y52812D01*
X-20560Y52742D01*
X-20503Y52683D01*
X-20434Y52635D01*
X-20358Y52602D01*
X-20276Y52584D01*
X-20193Y52582D01*
X-20111Y52597D01*
X-20033Y52627D01*
X-19963Y52672D01*
X-19936Y52698D01*
X-18836Y52698D01*
X-18847Y52672D01*
X-18870Y52561D01*
X-18872Y52447D01*
X-18851Y52335D01*
X-18809Y52230D01*
X-18748Y52134D01*
X-18669Y52053D01*
X-18576Y51988D01*
X-18472Y51943D01*
X-18361Y51918D01*
X-18247Y51916D01*
X-18135Y51936D01*
X-18029Y51977D01*
X-17934Y52038D01*
X-17851Y52116D01*
X-17786Y52209D01*
X-17740Y52313D01*
X-17723Y52391D01*
X-17636Y52330D01*
X-17532Y52285D01*
X-17421Y52260D01*
X-17307Y52258D01*
X-17195Y52278D01*
X-17089Y52319D01*
X-16994Y52380D01*
X-16911Y52458D01*
X-16846Y52551D01*
X-16800Y52655D01*
X-16775Y52765D01*
X-16773Y52895D01*
X-16773Y51768D01*
X-19926Y51768D01*
X-19986Y51762D01*
X-20006Y51757D01*
X-20014Y51797D01*
X-20057Y51902D01*
X-20120Y51997D01*
X-20200Y52077D01*
X-20294Y52141D01*
X-20399Y52185D01*
X-20510Y52208D01*
X-20624Y52208D01*
X-20735Y52187D01*
X-20841Y52144D01*
X-20936Y52082D01*
X-21017Y52003D01*
X-21081Y51909D01*
X-21126Y51805D01*
X-21149Y51694D01*
X-21150Y51683D01*
X-21201Y51718D01*
X-21306Y51762D01*
X-21417Y51785D01*
X-21531Y51785D01*
X-21642Y51764D01*
X-21748Y51721D01*
X-21843Y51659D01*
X-21924Y51580D01*
X-21988Y51486D01*
X-22033Y51382D01*
X-22056Y51271D01*
X-22058Y51157D01*
X-22037Y51045D01*
X-21995Y50940D01*
X-21934Y50844D01*
X-21855Y50763D01*
X-21762Y50698D01*
X-21658Y50653D01*
X-21547Y50628D01*
X-21433Y50626D01*
X-21321Y50646D01*
X-21215Y50687D01*
X-21120Y50748D01*
X-21067Y50798D01*
X-20329Y50798D01*
X-20326Y50798D01*
X-20311Y50800D01*
X-20269Y50803D01*
X-20266Y50804D01*
X-20211Y50820D01*
X-20211Y50821D01*
X-20208Y50821D01*
X-20178Y50838D01*
X-20157Y50848D01*
X-20156Y50850D01*
X-20154Y50850D01*
X-20130Y50870D01*
X-20110Y50886D01*
X-20108Y50888D01*
X-20107Y50889D01*
X-20082Y50914D01*
X-20082Y50915D01*
X-20061Y50920D01*
X-20061Y50921D01*
X-20058Y50921D01*
X-20028Y50938D01*
X-20007Y50948D01*
X-20006Y50950D01*
X-20004Y50950D01*
X-19980Y50970D01*
X-19960Y50986D01*
X-19958Y50988D01*
X-19957Y50989D01*
X-19798Y51148D01*
X-14823Y51148D01*
X-14856Y51099D01*
X-14919Y50953D01*
X-14952Y50798D01*
X-14954Y50639D01*
X-14925Y50483D01*
X-14867Y50335D01*
X-14781Y50202D01*
X-14671Y50087D01*
X-14540Y49997D01*
X-14395Y49933D01*
X-14240Y49899D01*
X-14081Y49896D01*
X-13925Y49923D01*
X-13776Y49980D01*
X-13642Y50065D01*
X-13527Y50175D01*
X-13436Y50305D01*
X-13371Y50450D01*
X-13341Y50585D01*
X-12847Y50091D01*
X-12846Y50089D01*
X-12817Y50066D01*
X-12801Y50052D01*
X-12799Y50051D01*
X-12748Y50023D01*
X-12746Y50022D01*
X-12729Y50018D01*
X-12690Y50005D01*
X-12687Y50005D01*
X-12630Y49998D01*
X-12626Y49998D01*
X-10944Y49998D01*
X-10898Y49973D01*
X-10896Y49972D01*
X-10840Y49955D01*
X-10837Y49954D01*
X-10817Y49953D01*
X-10780Y49948D01*
X-10776Y49948D01*
X-08744Y49948D01*
X-08698Y49923D01*
X-08696Y49922D01*
X-08663Y49912D01*
X-08651Y49902D01*
X-08649Y49901D01*
X-08598Y49873D01*
X-08596Y49872D01*
X-08571Y49865D01*
X-08397Y49691D01*
X-08396Y49689D01*
X-08367Y49666D01*
X-08351Y49652D01*
X-08349Y49651D01*
X-08298Y49623D01*
X-08296Y49622D01*
X-08240Y49605D01*
X-08237Y49604D01*
X-08217Y49603D01*
X-08180Y49598D01*
X-08176Y49598D01*
X-01346Y49598D01*
X-01374Y49586D01*
X-01444Y49541D01*
X-01503Y49482D01*
X-01550Y49413D01*
X-01583Y49337D01*
X-01600Y49255D01*
X-01602Y49172D01*
X-01586Y49090D01*
X-01556Y49012D01*
X-01510Y48942D01*
X-01453Y48883D01*
X-01384Y48835D01*
X-01308Y48802D01*
X-01226Y48784D01*
X-01190Y48784D01*
X-00769Y48363D01*
X-00804Y48366D01*
X-00822Y48368D01*
X-00825Y48368D01*
X-00826Y48368D01*
X-10337Y48368D01*
X-10267Y48434D01*
X-10210Y48515D01*
X-10169Y48606D01*
X-10147Y48703D01*
X-10146Y48816D01*
X-10165Y48913D01*
X-10203Y49005D01*
X-10258Y49088D01*
X-10328Y49158D01*
X-10411Y49213D01*
X-10502Y49252D01*
X-10599Y49272D01*
X-10698Y49272D01*
X-10796Y49254D01*
X-10888Y49216D01*
X-10971Y49162D01*
X-11042Y49093D01*
X-11098Y49011D01*
X-11137Y48919D01*
X-11157Y48822D01*
X-11159Y48723D01*
X-11141Y48625D01*
X-11104Y48533D01*
X-11050Y48450D01*
X-10981Y48379D01*
X-10966Y48368D01*
X-12689Y48368D01*
X-12695Y48378D01*
X-12754Y48437D01*
X-12823Y48484D01*
X-12900Y48516D01*
X-12982Y48533D01*
X-13065Y48533D01*
X-13147Y48518D01*
X-13224Y48486D01*
X-13294Y48441D01*
X-13353Y48382D01*
X-13400Y48313D01*
X-13433Y48237D01*
X-13434Y48233D01*
X-13515Y48233D01*
X-13597Y48218D01*
X-13674Y48186D01*
X-13744Y48141D01*
X-13767Y48118D01*
X-14347Y48118D01*
X-14323Y48169D01*
X-14302Y48266D01*
X-14300Y48380D01*
X-14319Y48478D01*
X-14331Y48507D01*
X-14287Y48548D01*
X-14230Y48630D01*
X-14189Y48720D01*
X-14168Y48817D01*
X-14166Y48931D01*
X-14185Y49029D01*
X-14223Y49120D01*
X-14278Y49203D01*
X-14348Y49274D01*
X-14431Y49329D01*
X-14523Y49368D01*
X-14620Y49388D01*
X-14719Y49388D01*
X-14817Y49370D01*
X-14909Y49332D01*
X-14992Y49278D01*
X-15063Y49208D01*
X-15104Y49150D01*
X-15113Y49153D01*
X-15210Y49173D01*
X-15309Y49173D01*
X-15407Y49155D01*
X-15499Y49117D01*
X-15582Y49063D01*
X-15653Y48993D01*
X-15710Y48911D01*
X-15749Y48820D01*
X-15769Y48723D01*
X-15771Y48623D01*
X-15753Y48525D01*
X-15740Y48491D01*
X-15788Y48442D01*
X-15845Y48360D01*
X-15884Y48269D01*
X-15904Y48172D01*
X-15906Y48072D01*
X-15888Y47974D01*
X-15851Y47882D01*
X-15797Y47798D01*
X-15728Y47727D01*
X-15646Y47670D01*
X-15555Y47630D01*
X-15458Y47609D01*
X-15359Y47607D01*
X-15320Y47614D01*
X-15297Y47591D01*
X-15295Y47589D01*
X-15281Y47578D01*
X-15251Y47552D01*
X-15249Y47551D01*
X-15198Y47523D01*
X-15196Y47522D01*
X-15140Y47505D01*
X-15137Y47504D01*
X-15094Y47500D01*
X-15080Y47498D01*
X-15078Y47498D01*
X-15076Y47498D01*
X-15029Y47498D01*
X-15033Y47487D01*
X-15050Y47405D01*
X-15052Y47322D01*
X-15036Y47240D01*
X-15006Y47162D01*
X-14960Y47092D01*
X-14903Y47033D01*
X-14834Y46985D01*
X-14758Y46952D01*
X-14676Y46934D01*
X-14593Y46932D01*
X-14511Y46947D01*
X-14433Y46977D01*
X-14363Y47022D01*
X-14336Y47048D01*
X-14055Y47048D01*
X-12552Y45545D01*
X-12552Y45522D01*
X-12536Y45440D01*
X-12506Y45362D01*
X-12460Y45292D01*
X-12403Y45233D01*
X-12334Y45185D01*
X-12258Y45152D01*
X-12176Y45134D01*
X-12093Y45132D01*
X-12011Y45147D01*
X-11933Y45177D01*
X-11863Y45222D01*
X-11802Y45279D01*
X-11755Y45347D01*
X-11721Y45424D01*
X-11702Y45505D01*
X-11701Y45600D01*
X-11717Y45682D01*
X-11749Y45759D01*
X-11795Y45828D01*
X-11854Y45887D01*
X-11923Y45934D01*
X-12000Y45966D01*
X-12082Y45983D01*
X-12113Y45983D01*
X-13514Y47384D01*
X-13443Y47382D01*
X-13361Y47397D01*
X-13283Y47427D01*
X-13213Y47472D01*
X-13152Y47529D01*
X-13105Y47597D01*
X-13071Y47674D01*
X-13069Y47684D01*
X-12993Y47682D01*
X-12911Y47697D01*
X-12833Y47727D01*
X-12801Y47748D01*
X-04274Y47748D01*
X-04389Y47633D01*
X-04415Y47633D01*
X-04497Y47618D01*
X-04574Y47586D01*
X-04644Y47541D01*
X-04703Y47482D01*
X-04750Y47413D01*
X-04783Y47337D01*
X-04800Y47255D01*
X-04802Y47172D01*
X-04786Y47090D01*
X-04756Y47012D01*
X-04710Y46942D01*
X-04653Y46883D01*
X-04584Y46835D01*
X-04508Y46802D01*
X-04426Y46784D01*
X-04391Y46784D01*
X-04466Y46769D01*
X-04566Y46729D01*
X-04592Y46712D01*
X-04805Y46925D01*
X-04807Y46927D01*
X-04821Y46939D01*
X-04851Y46964D01*
X-04853Y46965D01*
X-04904Y46993D01*
X-04905Y46994D01*
X-04906Y46994D01*
X-04962Y47011D01*
X-04965Y47012D01*
X-05004Y47016D01*
X-05005Y47016D01*
X-05054Y47043D01*
X-05055Y47044D01*
X-05056Y47044D01*
X-05112Y47061D01*
X-05115Y47062D01*
X-05154Y47066D01*
X-05172Y47068D01*
X-05175Y47068D01*
X-05176Y47068D01*
X-06998Y47068D01*
X-07052Y47122D01*
X-07051Y47150D01*
X-07067Y47232D01*
X-07099Y47309D01*
X-07145Y47378D01*
X-07204Y47437D01*
X-07273Y47484D01*
X-07350Y47516D01*
X-07432Y47533D01*
X-07515Y47533D01*
X-07597Y47518D01*
X-07674Y47486D01*
X-07744Y47441D01*
X-07803Y47382D01*
X-07850Y47313D01*
X-07883Y47237D01*
X-07900Y47155D01*
X-07902Y47072D01*
X-07886Y46990D01*
X-07856Y46912D01*
X-07810Y46842D01*
X-07753Y46783D01*
X-07684Y46735D01*
X-07608Y46702D01*
X-07526Y46684D01*
X-07490Y46684D01*
X-07347Y46541D01*
X-07346Y46539D01*
X-07317Y46516D01*
X-07301Y46502D01*
X-07299Y46501D01*
X-07248Y46473D01*
X-07246Y46472D01*
X-07224Y46466D01*
X-07190Y46455D01*
X-07188Y46455D01*
X-07130Y46448D01*
X-07126Y46448D01*
X-05819Y46448D01*
X-05836Y46407D01*
X-05858Y46301D01*
X-05860Y46194D01*
X-05840Y46088D01*
X-05801Y45988D01*
X-05742Y45897D01*
X-05667Y45820D01*
X-05579Y45758D01*
X-05480Y45715D01*
X-05375Y45692D01*
X-05268Y45690D01*
X-05161Y45709D01*
X-05061Y45748D01*
X-04970Y45805D01*
X-04892Y45880D01*
X-04830Y45968D01*
X-04811Y46012D01*
X-04801Y45988D01*
X-04742Y45897D01*
X-04667Y45820D01*
X-04579Y45758D01*
X-04480Y45715D01*
X-04375Y45692D01*
X-04268Y45690D01*
X-04208Y45701D01*
X-03597Y45091D01*
X-03597Y45090D01*
X-03705Y45073D01*
X-05420Y44912D01*
X-08494Y44438D01*
X-10471Y44013D01*
X-11291Y43884D01*
X-11353Y43868D01*
X-11410Y43840D01*
X-11461Y43803D01*
X-11503Y43756D01*
X-11534Y43704D01*
X-11607Y43675D01*
X-11586Y43163D01*
X-11653Y42002D01*
X-12023Y40572D01*
X-12662Y39244D01*
X-13547Y38065D01*
X-13846Y37797D01*
X-13846Y40740D01*
X-13881Y40917D01*
X-13950Y41083D01*
X-14049Y41234D01*
X-14176Y41361D01*
X-14326Y41462D01*
X-14492Y41532D01*
X-14668Y41568D01*
X-14801Y41570D01*
X-14801Y44800D01*
X-14817Y44882D01*
X-14849Y44959D01*
X-14895Y45028D01*
X-14954Y45087D01*
X-15023Y45134D01*
X-15100Y45166D01*
X-15182Y45183D01*
X-15213Y45183D01*
X-15455Y45425D01*
X-15457Y45427D01*
X-15471Y45439D01*
X-15501Y45464D01*
X-15503Y45465D01*
X-15554Y45493D01*
X-15555Y45494D01*
X-15556Y45494D01*
X-15590Y45505D01*
X-15591Y45505D01*
X-15601Y45514D01*
X-15603Y45515D01*
X-15654Y45543D01*
X-15655Y45544D01*
X-15656Y45544D01*
X-15690Y45555D01*
X-15691Y45555D01*
X-15701Y45564D01*
X-15703Y45565D01*
X-15754Y45593D01*
X-15755Y45594D01*
X-15756Y45594D01*
X-15790Y45605D01*
X-15791Y45605D01*
X-15801Y45614D01*
X-15803Y45615D01*
X-15854Y45643D01*
X-15855Y45644D01*
X-15856Y45644D01*
X-15912Y45661D01*
X-15915Y45662D01*
X-15954Y45666D01*
X-15972Y45668D01*
X-15975Y45668D01*
X-15976Y45668D01*
X-16033Y45668D01*
X-16033Y49804D01*
X-16064Y49960D01*
X-16124Y50107D01*
X-16212Y50239D01*
X-16324Y50352D01*
X-16456Y50441D01*
X-16602Y50502D01*
X-16758Y50534D01*
X-16916Y50536D01*
X-17072Y50506D01*
X-17220Y50446D01*
X-17353Y50360D01*
X-17466Y50248D01*
X-17556Y50117D01*
X-17619Y49971D01*
X-17652Y49816D01*
X-17654Y49657D01*
X-17625Y49501D01*
X-17567Y49353D01*
X-17481Y49220D01*
X-17371Y49105D01*
X-17240Y49015D01*
X-17095Y48951D01*
X-16940Y48917D01*
X-16781Y48914D01*
X-16625Y48941D01*
X-16476Y48998D01*
X-16342Y49083D01*
X-16227Y49193D01*
X-16136Y49323D01*
X-16071Y49468D01*
X-16036Y49623D01*
X-16033Y49804D01*
X-16033Y45668D01*
X-17798Y45668D01*
X-18622Y46492D01*
X-18615Y46522D01*
X-18614Y46586D01*
X-18581Y46552D01*
X-18493Y46490D01*
X-18394Y46447D01*
X-18289Y46424D01*
X-18182Y46422D01*
X-18075Y46441D01*
X-17975Y46480D01*
X-17884Y46537D01*
X-17806Y46612D01*
X-17744Y46700D01*
X-17700Y46798D01*
X-17677Y46903D01*
X-17675Y47026D01*
X-17696Y47132D01*
X-17737Y47231D01*
X-17797Y47321D01*
X-17872Y47397D01*
X-17962Y47457D01*
X-18061Y47499D01*
X-18167Y47521D01*
X-18209Y47521D01*
X-18197Y47532D01*
X-18186Y47548D01*
X-17168Y47548D01*
X-17153Y47533D01*
X-17084Y47485D01*
X-17008Y47452D01*
X-16926Y47434D01*
X-16843Y47432D01*
X-16761Y47447D01*
X-16683Y47477D01*
X-16613Y47522D01*
X-16552Y47579D01*
X-16505Y47647D01*
X-16471Y47724D01*
X-16452Y47805D01*
X-16451Y47900D01*
X-16467Y47982D01*
X-16499Y48059D01*
X-16545Y48128D01*
X-16604Y48187D01*
X-16673Y48234D01*
X-16750Y48266D01*
X-16832Y48283D01*
X-16915Y48283D01*
X-16997Y48268D01*
X-17074Y48236D01*
X-17144Y48191D01*
X-17167Y48168D01*
X-18140Y48168D01*
X-18188Y48241D01*
X-18263Y48317D01*
X-18353Y48377D01*
X-18452Y48419D01*
X-18558Y48441D01*
X-18573Y48441D01*
X-18570Y48443D01*
X-18508Y48531D01*
X-18464Y48629D01*
X-18441Y48734D01*
X-18439Y48857D01*
X-18460Y48963D01*
X-18501Y49062D01*
X-18561Y49152D01*
X-18636Y49228D01*
X-18726Y49288D01*
X-18825Y49330D01*
X-18931Y49352D01*
X-19038Y49352D01*
X-19144Y49332D01*
X-19244Y49292D01*
X-19334Y49233D01*
X-19411Y49157D01*
X-19471Y49069D01*
X-19514Y48970D01*
X-19536Y48864D01*
X-19538Y48757D01*
X-19518Y48651D01*
X-19479Y48551D01*
X-19420Y48460D01*
X-19345Y48383D01*
X-19257Y48321D01*
X-19158Y48278D01*
X-19053Y48255D01*
X-19030Y48255D01*
X-19038Y48246D01*
X-19098Y48158D01*
X-19141Y48059D01*
X-19163Y47953D01*
X-19164Y47908D01*
X-19183Y47927D01*
X-19273Y47987D01*
X-19372Y48029D01*
X-19478Y48051D01*
X-19585Y48051D01*
X-19691Y48031D01*
X-19791Y47991D01*
X-19881Y47932D01*
X-19958Y47856D01*
X-20018Y47768D01*
X-20061Y47669D01*
X-20083Y47563D01*
X-20085Y47456D01*
X-20065Y47350D01*
X-20026Y47250D01*
X-19967Y47159D01*
X-19892Y47082D01*
X-19804Y47020D01*
X-19705Y46977D01*
X-19600Y46954D01*
X-19577Y46954D01*
X-19585Y46945D01*
X-19645Y46857D01*
X-19688Y46758D01*
X-19710Y46652D01*
X-19712Y46545D01*
X-19692Y46439D01*
X-19653Y46339D01*
X-19594Y46248D01*
X-19519Y46171D01*
X-19431Y46109D01*
X-19332Y46066D01*
X-19227Y46043D01*
X-19120Y46041D01*
X-19059Y46052D01*
X-18147Y45141D01*
X-18146Y45139D01*
X-18117Y45116D01*
X-18101Y45102D01*
X-18099Y45101D01*
X-18048Y45073D01*
X-18046Y45072D01*
X-17990Y45055D01*
X-17987Y45054D01*
X-17967Y45053D01*
X-17930Y45048D01*
X-17926Y45048D01*
X-16972Y45048D01*
X-17050Y44933D01*
X-17121Y44767D01*
X-17159Y44591D01*
X-17161Y44411D01*
X-17129Y44234D01*
X-17062Y44066D01*
X-16965Y43915D01*
X-16840Y43785D01*
X-16692Y43682D01*
X-16526Y43610D01*
X-16350Y43571D01*
X-16170Y43567D01*
X-15993Y43599D01*
X-15825Y43664D01*
X-15673Y43760D01*
X-15542Y43885D01*
X-15438Y44032D01*
X-15365Y44196D01*
X-15331Y44347D01*
X-15276Y44334D01*
X-15193Y44332D01*
X-15111Y44347D01*
X-15033Y44377D01*
X-14963Y44422D01*
X-14902Y44479D01*
X-14855Y44547D01*
X-14821Y44624D01*
X-14802Y44705D01*
X-14801Y44800D01*
X-14801Y41570D01*
X-14849Y41570D01*
X-15026Y41536D01*
X-15193Y41468D01*
X-15344Y41370D01*
X-15472Y41244D01*
X-15574Y41095D01*
X-15645Y40929D01*
X-15683Y40753D01*
X-15685Y40573D01*
X-15653Y40396D01*
X-15586Y40228D01*
X-15489Y40077D01*
X-15364Y39947D01*
X-15216Y39844D01*
X-15050Y39772D01*
X-14874Y39733D01*
X-14694Y39729D01*
X-14517Y39761D01*
X-14349Y39826D01*
X-14197Y39922D01*
X-14066Y40047D01*
X-13962Y40194D01*
X-13889Y40358D01*
X-13849Y40534D01*
X-13846Y40740D01*
X-13846Y37797D01*
X-14646Y37079D01*
X-15802Y36393D01*
X-22973Y52731D01*
X-22571Y52894D01*
X-13289Y55964D01*
X-12295Y56216D01*
X-01508Y57560D01*
X-01506Y57560D01*
X-01503Y57560D01*
X09643Y56762D01*
X09736Y56748D01*
X16241Y54968D01*
X15174Y54968D01*
X15114Y54962D01*
X15056Y54945D01*
X15002Y54916D01*
X14966Y54887D01*
X14957Y54879D01*
X14954Y54877D01*
X14412Y54335D01*
X14357Y54346D01*
X14243Y54346D01*
X14132Y54325D01*
X14026Y54282D01*
X13931Y54220D01*
X13872Y54163D01*
X13834Y54257D01*
X13771Y54352D01*
X13691Y54432D01*
X13597Y54496D01*
X13492Y54540D01*
X13381Y54563D01*
X13267Y54563D01*
X13156Y54542D01*
X13050Y54499D01*
X12955Y54437D01*
X12874Y54358D01*
X12810Y54264D01*
X12765Y54160D01*
X12742Y54049D01*
X12740Y53935D01*
X12761Y53823D01*
X12803Y53718D01*
X12864Y53622D01*
X12943Y53541D01*
X13036Y53476D01*
X13140Y53431D01*
X13251Y53406D01*
X13365Y53404D01*
X13477Y53424D01*
X13583Y53465D01*
X13678Y53526D01*
X13744Y53589D01*
X13779Y53501D01*
X13840Y53405D01*
X13919Y53324D01*
X14012Y53259D01*
X14116Y53214D01*
X14227Y53189D01*
X14341Y53187D01*
X14453Y53207D01*
X14559Y53248D01*
X14654Y53309D01*
X14737Y53387D01*
X14802Y53480D01*
X14848Y53584D01*
X14873Y53694D01*
X14875Y53824D01*
X14859Y53905D01*
X15302Y54348D01*
X16832Y54348D01*
X16847Y54333D01*
X16916Y54285D01*
X16992Y54252D01*
X17074Y54234D01*
X17157Y54232D01*
X17239Y54247D01*
X17317Y54277D01*
X17387Y54322D01*
X17448Y54379D01*
X17495Y54447D01*
X17529Y54524D01*
X17548Y54605D01*
X17548Y54611D01*
X19911Y53964D01*
X20407Y53774D01*
X20356Y53741D01*
X20333Y53718D01*
X18624Y53718D01*
X18564Y53712D01*
X18506Y53695D01*
X18452Y53666D01*
X18416Y53637D01*
X18407Y53629D01*
X18404Y53627D01*
X18035Y53259D01*
X17999Y53266D01*
X17885Y53266D01*
X17774Y53245D01*
X17668Y53202D01*
X17573Y53140D01*
X17531Y53100D01*
X17529Y53113D01*
X17486Y53218D01*
X17423Y53313D01*
X17343Y53393D01*
X17249Y53457D01*
X17144Y53501D01*
X17033Y53524D01*
X16919Y53524D01*
X16808Y53503D01*
X16702Y53460D01*
X16607Y53398D01*
X16526Y53319D01*
X16462Y53225D01*
X16417Y53121D01*
X16394Y53010D01*
X16392Y52896D01*
X16413Y52784D01*
X16455Y52679D01*
X16516Y52583D01*
X16595Y52502D01*
X16688Y52437D01*
X16792Y52392D01*
X16903Y52367D01*
X17017Y52365D01*
X17129Y52385D01*
X17235Y52426D01*
X17330Y52487D01*
X17377Y52532D01*
X17379Y52526D01*
X17421Y52421D01*
X17482Y52325D01*
X17561Y52244D01*
X17654Y52179D01*
X17758Y52134D01*
X17869Y52109D01*
X17983Y52107D01*
X18095Y52127D01*
X18201Y52168D01*
X18296Y52229D01*
X18379Y52307D01*
X18444Y52400D01*
X18490Y52504D01*
X18515Y52614D01*
X18517Y52744D01*
X18497Y52843D01*
X18752Y53098D01*
X20332Y53098D01*
X20347Y53083D01*
X20416Y53035D01*
X20492Y53002D01*
X20574Y52984D01*
X20657Y52982D01*
X20739Y52997D01*
X20817Y53027D01*
X20887Y53072D01*
X20948Y53129D01*
X20995Y53197D01*
X21029Y53274D01*
X21048Y53355D01*
X21049Y53450D01*
X21033Y53532D01*
X21032Y53534D01*
X21139Y53493D01*
X23553Y52289D01*
X23533Y52268D01*
X21924Y52268D01*
X21864Y52262D01*
X21806Y52245D01*
X21752Y52216D01*
X21716Y52187D01*
X21707Y52179D01*
X21704Y52177D01*
X21487Y51960D01*
X21424Y51973D01*
X21310Y51973D01*
X21199Y51952D01*
X21093Y51909D01*
X20998Y51847D01*
X20992Y51842D01*
X20980Y51904D01*
X20937Y52009D01*
X20874Y52104D01*
X20794Y52184D01*
X20700Y52248D01*
X20595Y52292D01*
X20484Y52315D01*
X20370Y52315D01*
X20259Y52294D01*
X20153Y52251D01*
X20058Y52189D01*
X19977Y52110D01*
X19913Y52016D01*
X19868Y51912D01*
X19845Y51801D01*
X19843Y51687D01*
X19864Y51575D01*
X19906Y51470D01*
X19967Y51374D01*
X20046Y51293D01*
X20139Y51228D01*
X20243Y51183D01*
X20354Y51158D01*
X20468Y51156D01*
X20580Y51176D01*
X20686Y51217D01*
X20781Y51278D01*
X20793Y51290D01*
X20804Y51233D01*
X20846Y51128D01*
X20907Y51032D01*
X20986Y50951D01*
X21079Y50886D01*
X21183Y50841D01*
X21294Y50816D01*
X21408Y50814D01*
X21520Y50834D01*
X21626Y50875D01*
X21721Y50936D01*
X21804Y51014D01*
X21869Y51107D01*
X21915Y51211D01*
X21940Y51321D01*
X21942Y51451D01*
X21927Y51524D01*
X22052Y51648D01*
X23532Y51648D01*
X23547Y51633D01*
X23616Y51585D01*
X23692Y51552D01*
X23774Y51534D01*
X23857Y51532D01*
X23939Y51547D01*
X24017Y51577D01*
X24087Y51622D01*
X24148Y51679D01*
X24195Y51747D01*
X24229Y51824D01*
X24248Y51905D01*
X24248Y51943D01*
X26901Y50621D01*
G54D10*
G36*
X31902Y47928D02*
X31043Y46650D01*
X31034Y46699D01*
X30991Y46804D01*
X30928Y46899D01*
X30848Y46979D01*
X30754Y47043D01*
X30649Y47087D01*
X30538Y47110D01*
X30424Y47110D01*
X30313Y47089D01*
X30207Y47046D01*
X30198Y47041D01*
X30199Y47103D01*
X30177Y47214D01*
X30134Y47319D01*
X30071Y47414D01*
X29991Y47494D01*
X29897Y47558D01*
X29792Y47602D01*
X29681Y47625D01*
X29567Y47625D01*
X29456Y47604D01*
X29350Y47561D01*
X29255Y47499D01*
X29174Y47420D01*
X29110Y47326D01*
X29065Y47222D01*
X29042Y47111D01*
X29040Y46997D01*
X29061Y46885D01*
X29103Y46780D01*
X29164Y46684D01*
X29243Y46603D01*
X29336Y46538D01*
X29440Y46493D01*
X29551Y46468D01*
X29665Y46466D01*
X29777Y46486D01*
X29883Y46527D01*
X29897Y46537D01*
X29897Y46482D01*
X29918Y46370D01*
X29960Y46265D01*
X30021Y46169D01*
X30100Y46088D01*
X30193Y46023D01*
X30297Y45978D01*
X30408Y45953D01*
X30522Y45951D01*
X30581Y45962D01*
X24540Y36973D01*
X24540Y41035D01*
X24505Y41212D01*
X24436Y41378D01*
X24337Y41529D01*
X24210Y41656D01*
X24060Y41757D01*
X23894Y41827D01*
X23718Y41863D01*
X23537Y41865D01*
X23360Y41831D01*
X23193Y41763D01*
X23042Y41665D01*
X22914Y41539D01*
X22812Y41390D01*
X22741Y41224D01*
X22703Y41048D01*
X22701Y40868D01*
X22733Y40691D01*
X22800Y40523D01*
X22897Y40372D01*
X23022Y40242D01*
X23170Y40139D01*
X23336Y40067D01*
X23512Y40028D01*
X23692Y40024D01*
X23869Y40056D01*
X24037Y40121D01*
X24189Y40217D01*
X24320Y40342D01*
X24424Y40489D01*
X24497Y40653D01*
X24537Y40829D01*
X24540Y41035D01*
X24540Y36973D01*
X22572Y34044D01*
X22572Y37492D01*
X22537Y37669D01*
X22468Y37835D01*
X22369Y37986D01*
X22242Y38113D01*
X22092Y38214D01*
X21926Y38284D01*
X21750Y38320D01*
X21569Y38322D01*
X21392Y38288D01*
X21225Y38220D01*
X21074Y38122D01*
X20946Y37996D01*
X20844Y37847D01*
X20773Y37681D01*
X20735Y37505D01*
X20733Y37325D01*
X20765Y37148D01*
X20832Y36980D01*
X20929Y36829D01*
X21054Y36699D01*
X21202Y36596D01*
X21368Y36524D01*
X21544Y36485D01*
X21724Y36481D01*
X21901Y36513D01*
X22069Y36578D01*
X22221Y36674D01*
X22352Y36799D01*
X22456Y36946D01*
X22529Y37110D01*
X22569Y37286D01*
X22572Y37492D01*
X22572Y34044D01*
X21967Y33143D01*
X21052Y33920D01*
X20140Y35072D01*
X19467Y36382D01*
X19063Y37791D01*
X18940Y39261D01*
X19106Y40738D01*
X19107Y40744D01*
X19115Y40757D01*
X19133Y40818D01*
X19139Y40881D01*
X19133Y40944D01*
X19129Y40955D01*
X19175Y41112D01*
X16455Y42192D01*
X16093Y42325D01*
X14858Y42821D01*
X14833Y42828D01*
X14817Y42834D01*
X14812Y42835D01*
X14481Y42915D01*
X13223Y43375D01*
X09833Y44202D01*
X09078Y44348D01*
X14658Y44348D01*
X14650Y44305D01*
X14648Y44222D01*
X14664Y44140D01*
X14694Y44062D01*
X14740Y43992D01*
X14797Y43933D01*
X14866Y43885D01*
X14942Y43852D01*
X15024Y43834D01*
X15061Y43834D01*
X15083Y43816D01*
X15099Y43802D01*
X15101Y43801D01*
X15152Y43773D01*
X15154Y43772D01*
X15171Y43768D01*
X15210Y43755D01*
X15213Y43755D01*
X15270Y43748D01*
X15274Y43748D01*
X20324Y43748D01*
X20335Y43732D01*
X20410Y43655D01*
X20498Y43593D01*
X20597Y43550D01*
X20702Y43527D01*
X20809Y43525D01*
X20916Y43544D01*
X21016Y43583D01*
X21107Y43640D01*
X21185Y43715D01*
X21247Y43803D01*
X21291Y43901D01*
X21301Y43948D01*
X21406Y43948D01*
X21452Y43923D01*
X21454Y43922D01*
X21478Y43915D01*
X21503Y43891D01*
X21504Y43889D01*
X21533Y43866D01*
X21549Y43852D01*
X21551Y43851D01*
X21602Y43823D01*
X21604Y43822D01*
X21637Y43812D01*
X21649Y43802D01*
X21651Y43801D01*
X21702Y43773D01*
X21704Y43772D01*
X21737Y43762D01*
X21749Y43752D01*
X21751Y43751D01*
X21802Y43723D01*
X21804Y43722D01*
X21828Y43715D01*
X21853Y43691D01*
X21854Y43689D01*
X21883Y43666D01*
X21899Y43652D01*
X21901Y43651D01*
X21952Y43623D01*
X21954Y43622D01*
X21987Y43612D01*
X21999Y43602D01*
X22001Y43601D01*
X22052Y43573D01*
X22054Y43572D01*
X22087Y43562D01*
X22099Y43552D01*
X22101Y43551D01*
X22152Y43523D01*
X22154Y43522D01*
X22179Y43515D01*
X22903Y42791D01*
X22905Y42789D01*
X22919Y42778D01*
X22949Y42752D01*
X22951Y42751D01*
X23002Y42723D01*
X23004Y42722D01*
X23060Y42705D01*
X23063Y42704D01*
X23083Y42703D01*
X23120Y42698D01*
X23124Y42698D01*
X25796Y42698D01*
X25820Y42662D01*
X25895Y42585D01*
X25983Y42523D01*
X26082Y42480D01*
X26187Y42457D01*
X26294Y42455D01*
X26401Y42474D01*
X26501Y42513D01*
X26592Y42570D01*
X26670Y42645D01*
X26732Y42733D01*
X26776Y42831D01*
X26799Y42936D01*
X26801Y43059D01*
X26780Y43165D01*
X26739Y43264D01*
X26720Y43292D01*
X26747Y43286D01*
X26854Y43284D01*
X26961Y43303D01*
X27061Y43342D01*
X27152Y43399D01*
X27230Y43474D01*
X27292Y43562D01*
X27336Y43660D01*
X27359Y43765D01*
X27361Y43888D01*
X27340Y43994D01*
X27299Y44093D01*
X27239Y44183D01*
X27164Y44259D01*
X27074Y44319D01*
X26975Y44361D01*
X26869Y44383D01*
X26762Y44383D01*
X26656Y44363D01*
X26556Y44323D01*
X26523Y44302D01*
X26529Y44325D01*
X26531Y44448D01*
X26510Y44554D01*
X26469Y44653D01*
X26450Y44681D01*
X26477Y44675D01*
X26584Y44673D01*
X26691Y44692D01*
X26791Y44731D01*
X26882Y44788D01*
X26960Y44863D01*
X27022Y44951D01*
X27066Y45049D01*
X27089Y45154D01*
X27091Y45277D01*
X27070Y45383D01*
X27029Y45482D01*
X26969Y45572D01*
X26894Y45648D01*
X26804Y45708D01*
X26705Y45750D01*
X26599Y45772D01*
X26492Y45772D01*
X26386Y45752D01*
X26286Y45712D01*
X26196Y45653D01*
X26119Y45577D01*
X26059Y45489D01*
X26016Y45390D01*
X25994Y45284D01*
X25992Y45177D01*
X26012Y45071D01*
X26051Y44971D01*
X26073Y44936D01*
X26039Y44943D01*
X25932Y44943D01*
X25826Y44923D01*
X25726Y44883D01*
X25636Y44824D01*
X25559Y44748D01*
X25499Y44660D01*
X25456Y44561D01*
X25434Y44455D01*
X25432Y44348D01*
X25452Y44242D01*
X25491Y44142D01*
X25513Y44108D01*
X25480Y44114D01*
X25373Y44114D01*
X25267Y44094D01*
X25167Y44054D01*
X25077Y43995D01*
X25000Y43919D01*
X24940Y43831D01*
X24897Y43732D01*
X24875Y43626D01*
X24873Y43519D01*
X24893Y43413D01*
X24930Y43318D01*
X23252Y43318D01*
X22545Y44025D01*
X22543Y44027D01*
X22529Y44039D01*
X22499Y44064D01*
X22497Y44065D01*
X22446Y44093D01*
X22445Y44094D01*
X22444Y44094D01*
X22410Y44105D01*
X22409Y44105D01*
X22399Y44114D01*
X22397Y44115D01*
X22346Y44143D01*
X22345Y44144D01*
X22344Y44144D01*
X22310Y44155D01*
X22309Y44155D01*
X22299Y44164D01*
X22297Y44165D01*
X22246Y44193D01*
X22245Y44194D01*
X22244Y44194D01*
X22218Y44202D01*
X22195Y44225D01*
X22193Y44227D01*
X22179Y44239D01*
X22149Y44264D01*
X22147Y44265D01*
X22096Y44293D01*
X22095Y44294D01*
X22094Y44294D01*
X22060Y44305D01*
X22059Y44305D01*
X22049Y44314D01*
X22047Y44315D01*
X21996Y44343D01*
X21995Y44344D01*
X21994Y44344D01*
X21960Y44355D01*
X21959Y44355D01*
X21949Y44364D01*
X21947Y44365D01*
X21896Y44393D01*
X21895Y44394D01*
X21894Y44394D01*
X21868Y44402D01*
X21845Y44425D01*
X21843Y44427D01*
X21829Y44439D01*
X21799Y44464D01*
X21797Y44465D01*
X21746Y44493D01*
X21745Y44494D01*
X21744Y44494D01*
X21710Y44505D01*
X21709Y44505D01*
X21699Y44514D01*
X21697Y44515D01*
X21646Y44543D01*
X21645Y44544D01*
X21644Y44544D01*
X21588Y44561D01*
X21585Y44562D01*
X21546Y44566D01*
X21528Y44568D01*
X21525Y44568D01*
X21524Y44568D01*
X21010Y44568D01*
X20930Y44602D01*
X20824Y44624D01*
X20717Y44624D01*
X20611Y44604D01*
X20511Y44564D01*
X20448Y44523D01*
X20450Y44629D01*
X20429Y44735D01*
X20388Y44834D01*
X20328Y44924D01*
X20253Y45000D01*
X20163Y45060D01*
X20064Y45102D01*
X19958Y45124D01*
X19851Y45124D01*
X19745Y45104D01*
X19645Y45064D01*
X19555Y45005D01*
X19478Y44929D01*
X19436Y44868D01*
X15441Y44868D01*
X15396Y44893D01*
X15395Y44894D01*
X15394Y44894D01*
X15360Y44905D01*
X15359Y44905D01*
X15349Y44914D01*
X15347Y44915D01*
X15296Y44943D01*
X15295Y44944D01*
X15294Y44944D01*
X15238Y44961D01*
X15235Y44962D01*
X15196Y44966D01*
X15178Y44968D01*
X15175Y44968D01*
X15174Y44968D01*
X13330Y44968D01*
X13337Y44972D01*
X13398Y45029D01*
X13445Y45097D01*
X13479Y45174D01*
X13498Y45255D01*
X13499Y45350D01*
X13483Y45432D01*
X13451Y45509D01*
X13405Y45578D01*
X13346Y45637D01*
X13277Y45684D01*
X13200Y45716D01*
X13118Y45733D01*
X13035Y45733D01*
X12953Y45718D01*
X12876Y45686D01*
X12806Y45641D01*
X12783Y45618D01*
X10537Y45618D01*
X10518Y45647D01*
X10443Y45723D01*
X10402Y45750D01*
X10414Y45752D01*
X10514Y45791D01*
X10605Y45848D01*
X10683Y45923D01*
X10745Y46011D01*
X10772Y46072D01*
X10903Y45941D01*
X10904Y45939D01*
X10933Y45916D01*
X10949Y45902D01*
X10951Y45901D01*
X11002Y45873D01*
X11004Y45872D01*
X11060Y45855D01*
X11063Y45854D01*
X11083Y45853D01*
X11120Y45848D01*
X11124Y45848D01*
X23932Y45848D01*
X23947Y45833D01*
X24016Y45785D01*
X24092Y45752D01*
X24174Y45734D01*
X24257Y45732D01*
X24339Y45747D01*
X24417Y45777D01*
X24487Y45822D01*
X24548Y45879D01*
X24595Y45947D01*
X24629Y46024D01*
X24648Y46105D01*
X24649Y46200D01*
X24633Y46282D01*
X24601Y46359D01*
X24555Y46428D01*
X24496Y46487D01*
X24427Y46534D01*
X24350Y46566D01*
X24268Y46583D01*
X24185Y46583D01*
X24103Y46568D01*
X24026Y46536D01*
X23956Y46491D01*
X23933Y46468D01*
X11252Y46468D01*
X10745Y46975D01*
X10743Y46977D01*
X10729Y46989D01*
X10699Y47014D01*
X10697Y47015D01*
X10646Y47043D01*
X10645Y47044D01*
X10644Y47044D01*
X10588Y47061D01*
X10585Y47062D01*
X10546Y47066D01*
X10545Y47066D01*
X10496Y47093D01*
X10495Y47094D01*
X10494Y47094D01*
X10438Y47111D01*
X10435Y47112D01*
X10396Y47116D01*
X10378Y47118D01*
X10375Y47118D01*
X10374Y47118D01*
X09802Y47118D01*
X09795Y47125D01*
X09793Y47127D01*
X09779Y47139D01*
X09749Y47164D01*
X09747Y47165D01*
X09696Y47193D01*
X09695Y47194D01*
X09694Y47194D01*
X09660Y47205D01*
X09659Y47205D01*
X09649Y47214D01*
X09647Y47215D01*
X09596Y47243D01*
X09595Y47244D01*
X09594Y47244D01*
X09538Y47261D01*
X09535Y47262D01*
X09496Y47266D01*
X09478Y47268D01*
X09475Y47268D01*
X09474Y47268D01*
X08852Y47268D01*
X08845Y47275D01*
X08843Y47277D01*
X08829Y47289D01*
X08799Y47314D01*
X08797Y47315D01*
X08746Y47343D01*
X08745Y47344D01*
X08744Y47344D01*
X08710Y47355D01*
X08709Y47355D01*
X08699Y47364D01*
X08697Y47365D01*
X08646Y47393D01*
X08645Y47394D01*
X08644Y47394D01*
X08588Y47411D01*
X08585Y47412D01*
X08546Y47416D01*
X08545Y47416D01*
X08496Y47443D01*
X08495Y47444D01*
X08494Y47444D01*
X08438Y47461D01*
X08435Y47462D01*
X08396Y47466D01*
X08378Y47468D01*
X08375Y47468D01*
X08374Y47468D01*
X07824Y47468D01*
X07764Y47462D01*
X07706Y47445D01*
X07652Y47416D01*
X07616Y47387D01*
X07607Y47379D01*
X07604Y47377D01*
X07260Y47033D01*
X07235Y47033D01*
X07153Y47018D01*
X07076Y46986D01*
X07006Y46941D01*
X06947Y46882D01*
X06900Y46813D01*
X06867Y46737D01*
X06850Y46655D01*
X06848Y46572D01*
X06864Y46490D01*
X06894Y46412D01*
X06940Y46342D01*
X06997Y46283D01*
X07066Y46235D01*
X07142Y46202D01*
X07224Y46184D01*
X07307Y46182D01*
X07389Y46197D01*
X07467Y46227D01*
X07537Y46272D01*
X07598Y46329D01*
X07645Y46397D01*
X07679Y46474D01*
X07698Y46555D01*
X07698Y46595D01*
X07746Y46642D01*
X07745Y46584D01*
X07765Y46478D01*
X07804Y46378D01*
X07863Y46287D01*
X07938Y46210D01*
X08026Y46148D01*
X08125Y46105D01*
X08230Y46082D01*
X08337Y46080D01*
X08444Y46099D01*
X08544Y46138D01*
X08635Y46195D01*
X08713Y46270D01*
X08747Y46319D01*
X08750Y46304D01*
X08789Y46204D01*
X08848Y46113D01*
X08923Y46036D01*
X08967Y46005D01*
X08950Y46001D01*
X08850Y45961D01*
X08760Y45902D01*
X08683Y45826D01*
X08623Y45738D01*
X08580Y45639D01*
X08558Y45533D01*
X08556Y45426D01*
X08576Y45320D01*
X08615Y45220D01*
X08674Y45129D01*
X08749Y45052D01*
X08837Y44990D01*
X08887Y44968D01*
X07491Y44968D01*
X07446Y44993D01*
X07445Y44994D01*
X07444Y44994D01*
X07388Y45011D01*
X07385Y45012D01*
X07346Y45016D01*
X07328Y45018D01*
X07325Y45018D01*
X07324Y45018D01*
X07191Y45018D01*
X07146Y45043D01*
X07145Y45044D01*
X07144Y45044D01*
X07088Y45061D01*
X07085Y45062D01*
X07046Y45066D01*
X07028Y45068D01*
X07025Y45068D01*
X07024Y45068D01*
X06841Y45068D01*
X06796Y45093D01*
X06795Y45094D01*
X06794Y45094D01*
X06738Y45111D01*
X06735Y45112D01*
X06696Y45116D01*
X06678Y45118D01*
X06675Y45118D01*
X06674Y45118D01*
X06541Y45118D01*
X06496Y45143D01*
X06495Y45144D01*
X06494Y45144D01*
X06438Y45161D01*
X06435Y45162D01*
X06396Y45166D01*
X06378Y45168D01*
X06375Y45168D01*
X06374Y45168D01*
X06141Y45168D01*
X06096Y45193D01*
X06095Y45194D01*
X06094Y45194D01*
X06038Y45211D01*
X06035Y45212D01*
X05996Y45216D01*
X05978Y45218D01*
X05975Y45218D01*
X05974Y45218D01*
X05791Y45218D01*
X05746Y45243D01*
X05745Y45244D01*
X05744Y45244D01*
X05688Y45261D01*
X05685Y45262D01*
X05646Y45266D01*
X05628Y45268D01*
X05625Y45268D01*
X05624Y45268D01*
X05341Y45268D01*
X05296Y45293D01*
X05295Y45294D01*
X05294Y45294D01*
X05238Y45311D01*
X05235Y45312D01*
X05196Y45316D01*
X05178Y45318D01*
X05175Y45318D01*
X05174Y45318D01*
X05052Y45318D01*
X04679Y45691D01*
X04732Y45690D01*
X04839Y45709D01*
X04939Y45748D01*
X05030Y45805D01*
X05108Y45880D01*
X05170Y45968D01*
X05189Y46012D01*
X05199Y45988D01*
X05258Y45897D01*
X05333Y45820D01*
X05421Y45758D01*
X05520Y45715D01*
X05625Y45692D01*
X05732Y45690D01*
X05839Y45709D01*
X05939Y45748D01*
X06030Y45805D01*
X06108Y45880D01*
X06170Y45968D01*
X06214Y46066D01*
X06237Y46171D01*
X06239Y46294D01*
X06218Y46400D01*
X06177Y46499D01*
X06117Y46589D01*
X06042Y46665D01*
X05984Y46704D01*
X05984Y47855D01*
X05984Y47858D01*
X05982Y47873D01*
X05979Y47915D01*
X05978Y47918D01*
X05962Y47973D01*
X05961Y47974D01*
X05961Y47976D01*
X05933Y48027D01*
X05932Y48030D01*
X05903Y48066D01*
X05896Y48074D01*
X05894Y48076D01*
X05893Y48077D01*
X05598Y48372D01*
X05599Y48400D01*
X05583Y48482D01*
X05551Y48559D01*
X05505Y48628D01*
X05446Y48687D01*
X05377Y48734D01*
X05300Y48766D01*
X05218Y48783D01*
X05135Y48783D01*
X05053Y48768D01*
X04976Y48736D01*
X04906Y48691D01*
X04847Y48632D01*
X04800Y48563D01*
X04767Y48487D01*
X04750Y48405D01*
X04748Y48322D01*
X04764Y48240D01*
X04794Y48162D01*
X04840Y48092D01*
X04897Y48033D01*
X04966Y47985D01*
X05042Y47952D01*
X05124Y47934D01*
X05160Y47934D01*
X05364Y47730D01*
X05364Y46684D01*
X05344Y46670D01*
X05267Y46594D01*
X05207Y46506D01*
X05190Y46468D01*
X05177Y46499D01*
X05117Y46589D01*
X05042Y46665D01*
X04952Y46725D01*
X04853Y46767D01*
X04747Y46789D01*
X04640Y46789D01*
X04534Y46769D01*
X04434Y46729D01*
X04344Y46670D01*
X04267Y46594D01*
X04207Y46506D01*
X04190Y46468D01*
X04177Y46499D01*
X04117Y46589D01*
X04042Y46665D01*
X03984Y46704D01*
X03984Y46941D01*
X04009Y46986D01*
X04009Y46987D01*
X04010Y46988D01*
X04027Y47044D01*
X04028Y47047D01*
X04029Y47068D01*
X04034Y47104D01*
X04034Y47108D01*
X04034Y47408D01*
X04028Y47466D01*
X04028Y47468D01*
X04011Y47524D01*
X04011Y47526D01*
X03983Y47578D01*
X03982Y47580D01*
X03953Y47616D01*
X03945Y47625D01*
X03944Y47626D01*
X03943Y47628D01*
X02843Y48727D01*
X02833Y48782D01*
X02805Y48849D01*
X02852Y48823D01*
X02854Y48822D01*
X02910Y48805D01*
X02913Y48804D01*
X02933Y48803D01*
X02970Y48798D01*
X02974Y48798D01*
X06592Y48798D01*
X06610Y48771D01*
X06681Y48697D01*
X06766Y48639D01*
X06860Y48597D01*
X06960Y48575D01*
X07063Y48573D01*
X07164Y48591D01*
X07260Y48628D01*
X07347Y48683D01*
X07421Y48754D01*
X07452Y48798D01*
X09592Y48798D01*
X09610Y48771D01*
X09681Y48697D01*
X09766Y48639D01*
X09860Y48597D01*
X09960Y48575D01*
X10063Y48573D01*
X10164Y48591D01*
X10260Y48628D01*
X10347Y48683D01*
X10421Y48754D01*
X10481Y48838D01*
X10522Y48931D01*
X10545Y49032D01*
X10547Y49149D01*
X10527Y49250D01*
X10488Y49345D01*
X10452Y49398D01*
X11532Y49398D01*
X11547Y49383D01*
X11616Y49335D01*
X11692Y49302D01*
X11774Y49284D01*
X11857Y49282D01*
X11939Y49297D01*
X12017Y49327D01*
X12087Y49372D01*
X12148Y49429D01*
X12195Y49497D01*
X12229Y49574D01*
X12248Y49655D01*
X12249Y49750D01*
X12233Y49832D01*
X12201Y49909D01*
X12155Y49978D01*
X12096Y50037D01*
X12079Y50048D01*
X12382Y50048D01*
X12397Y50033D01*
X12466Y49985D01*
X12542Y49952D01*
X12624Y49934D01*
X12707Y49932D01*
X12789Y49947D01*
X12867Y49977D01*
X12937Y50022D01*
X12998Y50079D01*
X13045Y50147D01*
X13060Y50184D01*
X14303Y48941D01*
X14305Y48939D01*
X14319Y48928D01*
X14349Y48902D01*
X14351Y48901D01*
X14402Y48873D01*
X14404Y48872D01*
X14460Y48855D01*
X14463Y48854D01*
X14506Y48850D01*
X14520Y48848D01*
X14522Y48848D01*
X14524Y48848D01*
X26290Y48848D01*
X26275Y48813D01*
X26252Y48702D01*
X26250Y48588D01*
X26271Y48476D01*
X26313Y48371D01*
X26374Y48275D01*
X26453Y48194D01*
X26546Y48129D01*
X26650Y48084D01*
X26761Y48059D01*
X26875Y48057D01*
X26987Y48077D01*
X27093Y48118D01*
X27157Y48160D01*
X27178Y48053D01*
X27220Y47948D01*
X27281Y47852D01*
X27360Y47771D01*
X27453Y47706D01*
X27557Y47661D01*
X27668Y47636D01*
X27782Y47634D01*
X27894Y47654D01*
X28000Y47695D01*
X28095Y47756D01*
X28178Y47834D01*
X28243Y47927D01*
X28289Y48031D01*
X28314Y48141D01*
X28316Y48271D01*
X28300Y48347D01*
X28302Y48348D01*
X29582Y48348D01*
X29597Y48333D01*
X29666Y48285D01*
X29742Y48252D01*
X29824Y48234D01*
X29907Y48232D01*
X29989Y48247D01*
X30067Y48277D01*
X30137Y48322D01*
X30198Y48379D01*
X30245Y48447D01*
X30279Y48524D01*
X30298Y48605D01*
X30299Y48700D01*
X30283Y48782D01*
X30251Y48859D01*
X30205Y48928D01*
X30146Y48987D01*
X30077Y49034D01*
X30000Y49066D01*
X29918Y49083D01*
X29835Y49083D01*
X29753Y49068D01*
X29676Y49036D01*
X29606Y48991D01*
X29583Y48968D01*
X29326Y48968D01*
X29329Y48974D01*
X29348Y49055D01*
X29349Y49150D01*
X29333Y49232D01*
X29301Y49309D01*
X29255Y49378D01*
X29196Y49437D01*
X29127Y49484D01*
X29050Y49516D01*
X28968Y49533D01*
X28885Y49533D01*
X28803Y49518D01*
X28726Y49486D01*
X28656Y49441D01*
X28633Y49418D01*
X27241Y49418D01*
X27196Y49443D01*
X27195Y49444D01*
X27194Y49444D01*
X27138Y49461D01*
X27135Y49462D01*
X27096Y49466D01*
X27078Y49468D01*
X27075Y49468D01*
X27074Y49468D01*
X24933Y49468D01*
X25011Y49541D01*
X25076Y49634D01*
X25122Y49738D01*
X25147Y49848D01*
X25148Y49948D01*
X26832Y49948D01*
X26847Y49933D01*
X26916Y49885D01*
X26992Y49852D01*
X27074Y49834D01*
X27157Y49832D01*
X27239Y49847D01*
X27317Y49877D01*
X27387Y49922D01*
X27448Y49979D01*
X27495Y50047D01*
X27529Y50124D01*
X27548Y50205D01*
X27548Y50298D01*
X30361Y48895D01*
X31269Y48339D01*
X31902Y47928D01*
X31902Y47928D01*
G37*
G54D20*
X31902Y47928D02*
X31043Y46650D01*
X31034Y46699D01*
X30991Y46804D01*
X30928Y46899D01*
X30848Y46979D01*
X30754Y47043D01*
X30649Y47087D01*
X30538Y47110D01*
X30424Y47110D01*
X30313Y47089D01*
X30207Y47046D01*
X30198Y47041D01*
X30199Y47103D01*
X30177Y47214D01*
X30134Y47319D01*
X30071Y47414D01*
X29991Y47494D01*
X29897Y47558D01*
X29792Y47602D01*
X29681Y47625D01*
X29567Y47625D01*
X29456Y47604D01*
X29350Y47561D01*
X29255Y47499D01*
X29174Y47420D01*
X29110Y47326D01*
X29065Y47222D01*
X29042Y47111D01*
X29040Y46997D01*
X29061Y46885D01*
X29103Y46780D01*
X29164Y46684D01*
X29243Y46603D01*
X29336Y46538D01*
X29440Y46493D01*
X29551Y46468D01*
X29665Y46466D01*
X29777Y46486D01*
X29883Y46527D01*
X29897Y46537D01*
X29897Y46482D01*
X29918Y46370D01*
X29960Y46265D01*
X30021Y46169D01*
X30100Y46088D01*
X30193Y46023D01*
X30297Y45978D01*
X30408Y45953D01*
X30522Y45951D01*
X30581Y45962D01*
X24540Y36973D01*
X24540Y41035D01*
X24505Y41212D01*
X24436Y41378D01*
X24337Y41529D01*
X24210Y41656D01*
X24060Y41757D01*
X23894Y41827D01*
X23718Y41863D01*
X23537Y41865D01*
X23360Y41831D01*
X23193Y41763D01*
X23042Y41665D01*
X22914Y41539D01*
X22812Y41390D01*
X22741Y41224D01*
X22703Y41048D01*
X22701Y40868D01*
X22733Y40691D01*
X22800Y40523D01*
X22897Y40372D01*
X23022Y40242D01*
X23170Y40139D01*
X23336Y40067D01*
X23512Y40028D01*
X23692Y40024D01*
X23869Y40056D01*
X24037Y40121D01*
X24189Y40217D01*
X24320Y40342D01*
X24424Y40489D01*
X24497Y40653D01*
X24537Y40829D01*
X24540Y41035D01*
X24540Y36973D01*
X22572Y34044D01*
X22572Y37492D01*
X22537Y37669D01*
X22468Y37835D01*
X22369Y37986D01*
X22242Y38113D01*
X22092Y38214D01*
X21926Y38284D01*
X21750Y38320D01*
X21569Y38322D01*
X21392Y38288D01*
X21225Y38220D01*
X21074Y38122D01*
X20946Y37996D01*
X20844Y37847D01*
X20773Y37681D01*
X20735Y37505D01*
X20733Y37325D01*
X20765Y37148D01*
X20832Y36980D01*
X20929Y36829D01*
X21054Y36699D01*
X21202Y36596D01*
X21368Y36524D01*
X21544Y36485D01*
X21724Y36481D01*
X21901Y36513D01*
X22069Y36578D01*
X22221Y36674D01*
X22352Y36799D01*
X22456Y36946D01*
X22529Y37110D01*
X22569Y37286D01*
X22572Y37492D01*
X22572Y34044D01*
X21967Y33143D01*
X21052Y33920D01*
X20140Y35072D01*
X19467Y36382D01*
X19063Y37791D01*
X18940Y39261D01*
X19106Y40738D01*
X19107Y40744D01*
X19115Y40757D01*
X19133Y40818D01*
X19139Y40881D01*
X19133Y40944D01*
X19129Y40955D01*
X19175Y41112D01*
X16455Y42192D01*
X16093Y42325D01*
X14858Y42821D01*
X14833Y42828D01*
X14817Y42834D01*
X14812Y42835D01*
X14481Y42915D01*
X13223Y43375D01*
X09833Y44202D01*
X09078Y44348D01*
X14658Y44348D01*
X14650Y44305D01*
X14648Y44222D01*
X14664Y44140D01*
X14694Y44062D01*
X14740Y43992D01*
X14797Y43933D01*
X14866Y43885D01*
X14942Y43852D01*
X15024Y43834D01*
X15061Y43834D01*
X15083Y43816D01*
X15099Y43802D01*
X15101Y43801D01*
X15152Y43773D01*
X15154Y43772D01*
X15171Y43768D01*
X15210Y43755D01*
X15213Y43755D01*
X15270Y43748D01*
X15274Y43748D01*
X20324Y43748D01*
X20335Y43732D01*
X20410Y43655D01*
X20498Y43593D01*
X20597Y43550D01*
X20702Y43527D01*
X20809Y43525D01*
X20916Y43544D01*
X21016Y43583D01*
X21107Y43640D01*
X21185Y43715D01*
X21247Y43803D01*
X21291Y43901D01*
X21301Y43948D01*
X21406Y43948D01*
X21452Y43923D01*
X21454Y43922D01*
X21478Y43915D01*
X21503Y43891D01*
X21504Y43889D01*
X21533Y43866D01*
X21549Y43852D01*
X21551Y43851D01*
X21602Y43823D01*
X21604Y43822D01*
X21637Y43812D01*
X21649Y43802D01*
X21651Y43801D01*
X21702Y43773D01*
X21704Y43772D01*
X21737Y43762D01*
X21749Y43752D01*
X21751Y43751D01*
X21802Y43723D01*
X21804Y43722D01*
X21828Y43715D01*
X21853Y43691D01*
X21854Y43689D01*
X21883Y43666D01*
X21899Y43652D01*
X21901Y43651D01*
X21952Y43623D01*
X21954Y43622D01*
X21987Y43612D01*
X21999Y43602D01*
X22001Y43601D01*
X22052Y43573D01*
X22054Y43572D01*
X22087Y43562D01*
X22099Y43552D01*
X22101Y43551D01*
X22152Y43523D01*
X22154Y43522D01*
X22179Y43515D01*
X22903Y42791D01*
X22905Y42789D01*
X22919Y42778D01*
X22949Y42752D01*
X22951Y42751D01*
X23002Y42723D01*
X23004Y42722D01*
X23060Y42705D01*
X23063Y42704D01*
X23083Y42703D01*
X23120Y42698D01*
X23124Y42698D01*
X25796Y42698D01*
X25820Y42662D01*
X25895Y42585D01*
X25983Y42523D01*
X26082Y42480D01*
X26187Y42457D01*
X26294Y42455D01*
X26401Y42474D01*
X26501Y42513D01*
X26592Y42570D01*
X26670Y42645D01*
X26732Y42733D01*
X26776Y42831D01*
X26799Y42936D01*
X26801Y43059D01*
X26780Y43165D01*
X26739Y43264D01*
X26720Y43292D01*
X26747Y43286D01*
X26854Y43284D01*
X26961Y43303D01*
X27061Y43342D01*
X27152Y43399D01*
X27230Y43474D01*
X27292Y43562D01*
X27336Y43660D01*
X27359Y43765D01*
X27361Y43888D01*
X27340Y43994D01*
X27299Y44093D01*
X27239Y44183D01*
X27164Y44259D01*
X27074Y44319D01*
X26975Y44361D01*
X26869Y44383D01*
X26762Y44383D01*
X26656Y44363D01*
X26556Y44323D01*
X26523Y44302D01*
X26529Y44325D01*
X26531Y44448D01*
X26510Y44554D01*
X26469Y44653D01*
X26450Y44681D01*
X26477Y44675D01*
X26584Y44673D01*
X26691Y44692D01*
X26791Y44731D01*
X26882Y44788D01*
X26960Y44863D01*
X27022Y44951D01*
X27066Y45049D01*
X27089Y45154D01*
X27091Y45277D01*
X27070Y45383D01*
X27029Y45482D01*
X26969Y45572D01*
X26894Y45648D01*
X26804Y45708D01*
X26705Y45750D01*
X26599Y45772D01*
X26492Y45772D01*
X26386Y45752D01*
X26286Y45712D01*
X26196Y45653D01*
X26119Y45577D01*
X26059Y45489D01*
X26016Y45390D01*
X25994Y45284D01*
X25992Y45177D01*
X26012Y45071D01*
X26051Y44971D01*
X26073Y44936D01*
X26039Y44943D01*
X25932Y44943D01*
X25826Y44923D01*
X25726Y44883D01*
X25636Y44824D01*
X25559Y44748D01*
X25499Y44660D01*
X25456Y44561D01*
X25434Y44455D01*
X25432Y44348D01*
X25452Y44242D01*
X25491Y44142D01*
X25513Y44108D01*
X25480Y44114D01*
X25373Y44114D01*
X25267Y44094D01*
X25167Y44054D01*
X25077Y43995D01*
X25000Y43919D01*
X24940Y43831D01*
X24897Y43732D01*
X24875Y43626D01*
X24873Y43519D01*
X24893Y43413D01*
X24930Y43318D01*
X23252Y43318D01*
X22545Y44025D01*
X22543Y44027D01*
X22529Y44039D01*
X22499Y44064D01*
X22497Y44065D01*
X22446Y44093D01*
X22445Y44094D01*
X22444Y44094D01*
X22410Y44105D01*
X22409Y44105D01*
X22399Y44114D01*
X22397Y44115D01*
X22346Y44143D01*
X22345Y44144D01*
X22344Y44144D01*
X22310Y44155D01*
X22309Y44155D01*
X22299Y44164D01*
X22297Y44165D01*
X22246Y44193D01*
X22245Y44194D01*
X22244Y44194D01*
X22218Y44202D01*
X22195Y44225D01*
X22193Y44227D01*
X22179Y44239D01*
X22149Y44264D01*
X22147Y44265D01*
X22096Y44293D01*
X22095Y44294D01*
X22094Y44294D01*
X22060Y44305D01*
X22059Y44305D01*
X22049Y44314D01*
X22047Y44315D01*
X21996Y44343D01*
X21995Y44344D01*
X21994Y44344D01*
X21960Y44355D01*
X21959Y44355D01*
X21949Y44364D01*
X21947Y44365D01*
X21896Y44393D01*
X21895Y44394D01*
X21894Y44394D01*
X21868Y44402D01*
X21845Y44425D01*
X21843Y44427D01*
X21829Y44439D01*
X21799Y44464D01*
X21797Y44465D01*
X21746Y44493D01*
X21745Y44494D01*
X21744Y44494D01*
X21710Y44505D01*
X21709Y44505D01*
X21699Y44514D01*
X21697Y44515D01*
X21646Y44543D01*
X21645Y44544D01*
X21644Y44544D01*
X21588Y44561D01*
X21585Y44562D01*
X21546Y44566D01*
X21528Y44568D01*
X21525Y44568D01*
X21524Y44568D01*
X21010Y44568D01*
X20930Y44602D01*
X20824Y44624D01*
X20717Y44624D01*
X20611Y44604D01*
X20511Y44564D01*
X20448Y44523D01*
X20450Y44629D01*
X20429Y44735D01*
X20388Y44834D01*
X20328Y44924D01*
X20253Y45000D01*
X20163Y45060D01*
X20064Y45102D01*
X19958Y45124D01*
X19851Y45124D01*
X19745Y45104D01*
X19645Y45064D01*
X19555Y45005D01*
X19478Y44929D01*
X19436Y44868D01*
X15441Y44868D01*
X15396Y44893D01*
X15395Y44894D01*
X15394Y44894D01*
X15360Y44905D01*
X15359Y44905D01*
X15349Y44914D01*
X15347Y44915D01*
X15296Y44943D01*
X15295Y44944D01*
X15294Y44944D01*
X15238Y44961D01*
X15235Y44962D01*
X15196Y44966D01*
X15178Y44968D01*
X15175Y44968D01*
X15174Y44968D01*
X13330Y44968D01*
X13337Y44972D01*
X13398Y45029D01*
X13445Y45097D01*
X13479Y45174D01*
X13498Y45255D01*
X13499Y45350D01*
X13483Y45432D01*
X13451Y45509D01*
X13405Y45578D01*
X13346Y45637D01*
X13277Y45684D01*
X13200Y45716D01*
X13118Y45733D01*
X13035Y45733D01*
X12953Y45718D01*
X12876Y45686D01*
X12806Y45641D01*
X12783Y45618D01*
X10537Y45618D01*
X10518Y45647D01*
X10443Y45723D01*
X10402Y45750D01*
X10414Y45752D01*
X10514Y45791D01*
X10605Y45848D01*
X10683Y45923D01*
X10745Y46011D01*
X10772Y46072D01*
X10903Y45941D01*
X10904Y45939D01*
X10933Y45916D01*
X10949Y45902D01*
X10951Y45901D01*
X11002Y45873D01*
X11004Y45872D01*
X11060Y45855D01*
X11063Y45854D01*
X11083Y45853D01*
X11120Y45848D01*
X11124Y45848D01*
X23932Y45848D01*
X23947Y45833D01*
X24016Y45785D01*
X24092Y45752D01*
X24174Y45734D01*
X24257Y45732D01*
X24339Y45747D01*
X24417Y45777D01*
X24487Y45822D01*
X24548Y45879D01*
X24595Y45947D01*
X24629Y46024D01*
X24648Y46105D01*
X24649Y46200D01*
X24633Y46282D01*
X24601Y46359D01*
X24555Y46428D01*
X24496Y46487D01*
X24427Y46534D01*
X24350Y46566D01*
X24268Y46583D01*
X24185Y46583D01*
X24103Y46568D01*
X24026Y46536D01*
X23956Y46491D01*
X23933Y46468D01*
X11252Y46468D01*
X10745Y46975D01*
X10743Y46977D01*
X10729Y46989D01*
X10699Y47014D01*
X10697Y47015D01*
X10646Y47043D01*
X10645Y47044D01*
X10644Y47044D01*
X10588Y47061D01*
X10585Y47062D01*
X10546Y47066D01*
X10545Y47066D01*
X10496Y47093D01*
X10495Y47094D01*
X10494Y47094D01*
X10438Y47111D01*
X10435Y47112D01*
X10396Y47116D01*
X10378Y47118D01*
X10375Y47118D01*
X10374Y47118D01*
X09802Y47118D01*
X09795Y47125D01*
X09793Y47127D01*
X09779Y47139D01*
X09749Y47164D01*
X09747Y47165D01*
X09696Y47193D01*
X09695Y47194D01*
X09694Y47194D01*
X09660Y47205D01*
X09659Y47205D01*
X09649Y47214D01*
X09647Y47215D01*
X09596Y47243D01*
X09595Y47244D01*
X09594Y47244D01*
X09538Y47261D01*
X09535Y47262D01*
X09496Y47266D01*
X09478Y47268D01*
X09475Y47268D01*
X09474Y47268D01*
X08852Y47268D01*
X08845Y47275D01*
X08843Y47277D01*
X08829Y47289D01*
X08799Y47314D01*
X08797Y47315D01*
X08746Y47343D01*
X08745Y47344D01*
X08744Y47344D01*
X08710Y47355D01*
X08709Y47355D01*
X08699Y47364D01*
X08697Y47365D01*
X08646Y47393D01*
X08645Y47394D01*
X08644Y47394D01*
X08588Y47411D01*
X08585Y47412D01*
X08546Y47416D01*
X08545Y47416D01*
X08496Y47443D01*
X08495Y47444D01*
X08494Y47444D01*
X08438Y47461D01*
X08435Y47462D01*
X08396Y47466D01*
X08378Y47468D01*
X08375Y47468D01*
X08374Y47468D01*
X07824Y47468D01*
X07764Y47462D01*
X07706Y47445D01*
X07652Y47416D01*
X07616Y47387D01*
X07607Y47379D01*
X07604Y47377D01*
X07260Y47033D01*
X07235Y47033D01*
X07153Y47018D01*
X07076Y46986D01*
X07006Y46941D01*
X06947Y46882D01*
X06900Y46813D01*
X06867Y46737D01*
X06850Y46655D01*
X06848Y46572D01*
X06864Y46490D01*
X06894Y46412D01*
X06940Y46342D01*
X06997Y46283D01*
X07066Y46235D01*
X07142Y46202D01*
X07224Y46184D01*
X07307Y46182D01*
X07389Y46197D01*
X07467Y46227D01*
X07537Y46272D01*
X07598Y46329D01*
X07645Y46397D01*
X07679Y46474D01*
X07698Y46555D01*
X07698Y46595D01*
X07746Y46642D01*
X07745Y46584D01*
X07765Y46478D01*
X07804Y46378D01*
X07863Y46287D01*
X07938Y46210D01*
X08026Y46148D01*
X08125Y46105D01*
X08230Y46082D01*
X08337Y46080D01*
X08444Y46099D01*
X08544Y46138D01*
X08635Y46195D01*
X08713Y46270D01*
X08747Y46319D01*
X08750Y46304D01*
X08789Y46204D01*
X08848Y46113D01*
X08923Y46036D01*
X08967Y46005D01*
X08950Y46001D01*
X08850Y45961D01*
X08760Y45902D01*
X08683Y45826D01*
X08623Y45738D01*
X08580Y45639D01*
X08558Y45533D01*
X08556Y45426D01*
X08576Y45320D01*
X08615Y45220D01*
X08674Y45129D01*
X08749Y45052D01*
X08837Y44990D01*
X08887Y44968D01*
X07491Y44968D01*
X07446Y44993D01*
X07445Y44994D01*
X07444Y44994D01*
X07388Y45011D01*
X07385Y45012D01*
X07346Y45016D01*
X07328Y45018D01*
X07325Y45018D01*
X07324Y45018D01*
X07191Y45018D01*
X07146Y45043D01*
X07145Y45044D01*
X07144Y45044D01*
X07088Y45061D01*
X07085Y45062D01*
X07046Y45066D01*
X07028Y45068D01*
X07025Y45068D01*
X07024Y45068D01*
X06841Y45068D01*
X06796Y45093D01*
X06795Y45094D01*
X06794Y45094D01*
X06738Y45111D01*
X06735Y45112D01*
X06696Y45116D01*
X06678Y45118D01*
X06675Y45118D01*
X06674Y45118D01*
X06541Y45118D01*
X06496Y45143D01*
X06495Y45144D01*
X06494Y45144D01*
X06438Y45161D01*
X06435Y45162D01*
X06396Y45166D01*
X06378Y45168D01*
X06375Y45168D01*
X06374Y45168D01*
X06141Y45168D01*
X06096Y45193D01*
X06095Y45194D01*
X06094Y45194D01*
X06038Y45211D01*
X06035Y45212D01*
X05996Y45216D01*
X05978Y45218D01*
X05975Y45218D01*
X05974Y45218D01*
X05791Y45218D01*
X05746Y45243D01*
X05745Y45244D01*
X05744Y45244D01*
X05688Y45261D01*
X05685Y45262D01*
X05646Y45266D01*
X05628Y45268D01*
X05625Y45268D01*
X05624Y45268D01*
X05341Y45268D01*
X05296Y45293D01*
X05295Y45294D01*
X05294Y45294D01*
X05238Y45311D01*
X05235Y45312D01*
X05196Y45316D01*
X05178Y45318D01*
X05175Y45318D01*
X05174Y45318D01*
X05052Y45318D01*
X04679Y45691D01*
X04732Y45690D01*
X04839Y45709D01*
X04939Y45748D01*
X05030Y45805D01*
X05108Y45880D01*
X05170Y45968D01*
X05189Y46012D01*
X05199Y45988D01*
X05258Y45897D01*
X05333Y45820D01*
X05421Y45758D01*
X05520Y45715D01*
X05625Y45692D01*
X05732Y45690D01*
X05839Y45709D01*
X05939Y45748D01*
X06030Y45805D01*
X06108Y45880D01*
X06170Y45968D01*
X06214Y46066D01*
X06237Y46171D01*
X06239Y46294D01*
X06218Y46400D01*
X06177Y46499D01*
X06117Y46589D01*
X06042Y46665D01*
X05984Y46704D01*
X05984Y47855D01*
X05984Y47858D01*
X05982Y47873D01*
X05979Y47915D01*
X05978Y47918D01*
X05962Y47973D01*
X05961Y47974D01*
X05961Y47976D01*
X05933Y48027D01*
X05932Y48030D01*
X05903Y48066D01*
X05896Y48074D01*
X05894Y48076D01*
X05893Y48077D01*
X05598Y48372D01*
X05599Y48400D01*
X05583Y48482D01*
X05551Y48559D01*
X05505Y48628D01*
X05446Y48687D01*
X05377Y48734D01*
X05300Y48766D01*
X05218Y48783D01*
X05135Y48783D01*
X05053Y48768D01*
X04976Y48736D01*
X04906Y48691D01*
X04847Y48632D01*
X04800Y48563D01*
X04767Y48487D01*
X04750Y48405D01*
X04748Y48322D01*
X04764Y48240D01*
X04794Y48162D01*
X04840Y48092D01*
X04897Y48033D01*
X04966Y47985D01*
X05042Y47952D01*
X05124Y47934D01*
X05160Y47934D01*
X05364Y47730D01*
X05364Y46684D01*
X05344Y46670D01*
X05267Y46594D01*
X05207Y46506D01*
X05190Y46468D01*
X05177Y46499D01*
X05117Y46589D01*
X05042Y46665D01*
X04952Y46725D01*
X04853Y46767D01*
X04747Y46789D01*
X04640Y46789D01*
X04534Y46769D01*
X04434Y46729D01*
X04344Y46670D01*
X04267Y46594D01*
X04207Y46506D01*
X04190Y46468D01*
X04177Y46499D01*
X04117Y46589D01*
X04042Y46665D01*
X03984Y46704D01*
X03984Y46941D01*
X04009Y46986D01*
X04009Y46987D01*
X04010Y46988D01*
X04027Y47044D01*
X04028Y47047D01*
X04029Y47068D01*
X04034Y47104D01*
X04034Y47108D01*
X04034Y47408D01*
X04028Y47466D01*
X04028Y47468D01*
X04011Y47524D01*
X04011Y47526D01*
X03983Y47578D01*
X03982Y47580D01*
X03953Y47616D01*
X03945Y47625D01*
X03944Y47626D01*
X03943Y47628D01*
X02843Y48727D01*
X02833Y48782D01*
X02805Y48849D01*
X02852Y48823D01*
X02854Y48822D01*
X02910Y48805D01*
X02913Y48804D01*
X02933Y48803D01*
X02970Y48798D01*
X02974Y48798D01*
X06592Y48798D01*
X06610Y48771D01*
X06681Y48697D01*
X06766Y48639D01*
X06860Y48597D01*
X06960Y48575D01*
X07063Y48573D01*
X07164Y48591D01*
X07260Y48628D01*
X07347Y48683D01*
X07421Y48754D01*
X07452Y48798D01*
X09592Y48798D01*
X09610Y48771D01*
X09681Y48697D01*
X09766Y48639D01*
X09860Y48597D01*
X09960Y48575D01*
X10063Y48573D01*
X10164Y48591D01*
X10260Y48628D01*
X10347Y48683D01*
X10421Y48754D01*
X10481Y48838D01*
X10522Y48931D01*
X10545Y49032D01*
X10547Y49149D01*
X10527Y49250D01*
X10488Y49345D01*
X10452Y49398D01*
X11532Y49398D01*
X11547Y49383D01*
X11616Y49335D01*
X11692Y49302D01*
X11774Y49284D01*
X11857Y49282D01*
X11939Y49297D01*
X12017Y49327D01*
X12087Y49372D01*
X12148Y49429D01*
X12195Y49497D01*
X12229Y49574D01*
X12248Y49655D01*
X12249Y49750D01*
X12233Y49832D01*
X12201Y49909D01*
X12155Y49978D01*
X12096Y50037D01*
X12079Y50048D01*
X12382Y50048D01*
X12397Y50033D01*
X12466Y49985D01*
X12542Y49952D01*
X12624Y49934D01*
X12707Y49932D01*
X12789Y49947D01*
X12867Y49977D01*
X12937Y50022D01*
X12998Y50079D01*
X13045Y50147D01*
X13060Y50184D01*
X14303Y48941D01*
X14305Y48939D01*
X14319Y48928D01*
X14349Y48902D01*
X14351Y48901D01*
X14402Y48873D01*
X14404Y48872D01*
X14460Y48855D01*
X14463Y48854D01*
X14506Y48850D01*
X14520Y48848D01*
X14522Y48848D01*
X14524Y48848D01*
X26290Y48848D01*
X26275Y48813D01*
X26252Y48702D01*
X26250Y48588D01*
X26271Y48476D01*
X26313Y48371D01*
X26374Y48275D01*
X26453Y48194D01*
X26546Y48129D01*
X26650Y48084D01*
X26761Y48059D01*
X26875Y48057D01*
X26987Y48077D01*
X27093Y48118D01*
X27157Y48160D01*
X27178Y48053D01*
X27220Y47948D01*
X27281Y47852D01*
X27360Y47771D01*
X27453Y47706D01*
X27557Y47661D01*
X27668Y47636D01*
X27782Y47634D01*
X27894Y47654D01*
X28000Y47695D01*
X28095Y47756D01*
X28178Y47834D01*
X28243Y47927D01*
X28289Y48031D01*
X28314Y48141D01*
X28316Y48271D01*
X28300Y48347D01*
X28302Y48348D01*
X29582Y48348D01*
X29597Y48333D01*
X29666Y48285D01*
X29742Y48252D01*
X29824Y48234D01*
X29907Y48232D01*
X29989Y48247D01*
X30067Y48277D01*
X30137Y48322D01*
X30198Y48379D01*
X30245Y48447D01*
X30279Y48524D01*
X30298Y48605D01*
X30299Y48700D01*
X30283Y48782D01*
X30251Y48859D01*
X30205Y48928D01*
X30146Y48987D01*
X30077Y49034D01*
X30000Y49066D01*
X29918Y49083D01*
X29835Y49083D01*
X29753Y49068D01*
X29676Y49036D01*
X29606Y48991D01*
X29583Y48968D01*
X29326Y48968D01*
X29329Y48974D01*
X29348Y49055D01*
X29349Y49150D01*
X29333Y49232D01*
X29301Y49309D01*
X29255Y49378D01*
X29196Y49437D01*
X29127Y49484D01*
X29050Y49516D01*
X28968Y49533D01*
X28885Y49533D01*
X28803Y49518D01*
X28726Y49486D01*
X28656Y49441D01*
X28633Y49418D01*
X27241Y49418D01*
X27196Y49443D01*
X27195Y49444D01*
X27194Y49444D01*
X27138Y49461D01*
X27135Y49462D01*
X27096Y49466D01*
X27078Y49468D01*
X27075Y49468D01*
X27074Y49468D01*
X24933Y49468D01*
X25011Y49541D01*
X25076Y49634D01*
X25122Y49738D01*
X25147Y49848D01*
X25148Y49948D01*
X26832Y49948D01*
X26847Y49933D01*
X26916Y49885D01*
X26992Y49852D01*
X27074Y49834D01*
X27157Y49832D01*
X27239Y49847D01*
X27317Y49877D01*
X27387Y49922D01*
X27448Y49979D01*
X27495Y50047D01*
X27529Y50124D01*
X27548Y50205D01*
X27548Y50298D01*
X30361Y48895D01*
X31269Y48339D01*
X31902Y47928D01*
M02*
