G04 (created by PCBNEW-RS274X (2011-nov-30)-testing) date Mon 09 Apr 2012 08:57:06 PM EDT*
G01*
G70*
G90*
%MOIN*%
G04 Gerber Fmt 3.4, Leading zero omitted, Abs format*
%FSLAX34Y34*%
G04 APERTURE LIST*
%ADD10C,0.006000*%
%ADD11C,0.015000*%
%ADD12C,0.002600*%
%ADD13C,0.005000*%
%ADD14C,0.012000*%
%ADD15C,0.003500*%
%ADD16C,0.010000*%
G04 APERTURE END LIST*
G54D10*
G54D11*
X-11437Y49473D02*
X-12518Y49079D01*
X-12518Y49079D02*
X-12723Y49643D01*
X-12723Y49643D02*
X-12535Y49711D01*
X-12535Y49711D02*
X-12791Y50416D01*
X-09904Y50669D02*
X-10160Y51374D01*
X-09904Y50669D02*
X-09716Y50738D01*
X-09716Y50738D02*
X-09511Y50174D01*
X-09511Y50174D02*
X-10450Y49832D01*
X-10524Y52519D02*
X-10968Y53740D01*
X-10968Y53740D02*
X-13646Y52765D01*
X-13646Y52765D02*
X-13202Y51544D01*
G54D12*
X-16165Y48610D02*
X-15829Y47686D01*
X-15829Y47686D02*
X-16347Y47497D01*
X-16683Y48422D02*
X-16347Y47497D01*
X-16165Y48610D02*
X-16683Y48422D01*
X-13428Y49607D02*
X-13091Y48682D01*
X-13091Y48682D02*
X-13609Y48493D01*
X-13946Y49418D02*
X-13609Y48493D01*
X-13428Y49607D02*
X-13946Y49418D01*
X-14851Y52020D02*
X-14538Y51160D01*
X-14538Y51160D02*
X-16831Y50326D01*
X-17144Y51186D02*
X-16831Y50326D01*
X-14851Y52020D02*
X-17144Y51186D01*
X-14825Y51056D02*
X-14720Y50769D01*
X-14720Y50769D02*
X-16440Y50143D01*
X-16545Y50430D02*
X-16440Y50143D01*
X-14825Y51056D02*
X-16545Y50430D01*
G54D13*
X-17440Y51078D02*
X-14555Y52128D01*
X-16229Y47750D02*
X-13344Y48800D01*
X-17440Y51078D02*
X-16229Y47750D01*
X-14555Y52128D02*
X-13344Y48800D01*
X-16686Y49468D02*
X-17040Y51014D01*
X-17040Y51014D02*
X-16670Y51149D01*
X-16670Y51149D02*
X-15947Y49737D01*
X-14031Y50225D02*
X-14821Y51822D01*
X-14821Y51822D02*
X-15191Y51687D01*
X-15191Y51687D02*
X-14770Y49955D01*
X-16393Y51250D02*
X-15535Y49469D01*
X-15535Y49469D02*
X-14980Y49670D01*
X-14980Y49670D02*
X-15468Y51586D01*
X-12156Y53774D02*
X-12293Y54150D01*
X-12437Y54097D01*
X-12466Y54066D01*
X-12478Y54042D01*
X-12482Y54000D01*
X-12463Y53946D01*
X-12432Y53917D01*
X-12408Y53906D01*
X-12365Y53901D01*
X-12222Y53953D01*
X-12633Y54026D02*
X-12866Y53941D01*
X-12688Y53844D01*
X-12743Y53824D01*
X-12772Y53793D01*
X-12784Y53769D01*
X-12788Y53727D01*
X-12756Y53636D01*
X-12725Y53607D01*
X-12700Y53596D01*
X-12658Y53591D01*
X-12550Y53630D01*
X-12521Y53661D01*
X-12510Y53686D01*
X-10693Y51367D02*
X-10668Y51356D01*
X-10608Y51357D01*
X-10573Y51370D01*
X-10525Y51408D01*
X-10502Y51457D01*
X-10497Y51499D01*
X-10505Y51578D01*
X-10525Y51631D01*
X-10569Y51696D01*
X-10600Y51726D01*
X-10648Y51748D01*
X-10709Y51746D01*
X-10745Y51733D01*
X-10792Y51696D01*
X-10803Y51672D01*
X-11049Y51623D02*
X-11121Y51597D01*
X-11150Y51566D01*
X-11173Y51517D01*
X-11165Y51439D01*
X-11119Y51313D01*
X-11075Y51248D01*
X-11026Y51226D01*
X-10984Y51221D01*
X-10912Y51247D01*
X-10883Y51278D01*
X-10860Y51327D01*
X-10868Y51404D01*
X-10914Y51530D01*
X-10958Y51595D01*
X-11006Y51618D01*
X-11049Y51623D01*
X-11234Y51130D02*
X-11371Y51506D01*
X-11449Y51051D01*
X-11586Y51427D01*
X-11628Y50986D02*
X-11765Y51362D01*
X-11843Y50908D01*
X-11980Y51284D01*
X-11919Y50840D02*
X-12206Y50736D01*
X-12414Y51085D02*
X-12438Y51097D01*
X-12481Y51102D01*
X-12571Y51069D01*
X-12600Y51038D01*
X-12611Y51014D01*
X-12616Y50971D01*
X-12603Y50936D01*
X-12566Y50889D01*
X-12272Y50752D01*
X-12505Y50667D01*
G54D14*
G54D15*
X-15994Y47086D02*
X-16331Y46963D01*
X-16389Y46917D01*
X-16418Y46855D01*
X-16415Y46781D01*
X-16399Y46735D01*
X-16635Y47385D02*
X-16537Y47116D01*
X-16586Y47250D02*
X-16116Y47421D01*
X-16168Y47352D01*
X-16196Y47291D01*
X-16202Y47238D01*
G54D16*
X-14385Y50218D02*
X-14274Y49913D01*
X-14279Y49871D01*
X-14290Y49847D01*
X-14319Y49816D01*
X-14392Y49789D01*
X-14434Y49794D01*
X-14458Y49806D01*
X-14489Y49835D01*
X-14600Y50139D01*
X-14630Y49723D02*
X-14677Y49685D01*
X-14767Y49653D01*
X-14810Y49658D01*
X-14834Y49669D01*
X-14865Y49698D01*
X-14878Y49734D01*
X-14873Y49776D01*
X-14862Y49801D01*
X-14833Y49832D01*
X-14767Y49876D01*
X-14738Y49907D01*
X-14726Y49932D01*
X-14721Y49974D01*
X-14734Y50009D01*
X-14765Y50039D01*
X-14790Y50050D01*
X-14832Y50055D01*
X-14922Y50022D01*
X-14969Y49985D01*
X-15197Y49720D02*
X-15244Y49682D01*
X-15256Y49658D01*
X-15260Y49615D01*
X-15241Y49561D01*
X-15210Y49532D01*
X-15185Y49521D01*
X-15143Y49516D01*
X-14999Y49568D01*
X-15136Y49944D01*
X-15262Y49898D01*
X-15291Y49867D01*
X-15303Y49843D01*
X-15308Y49801D01*
X-15295Y49765D01*
X-15264Y49736D01*
X-15239Y49725D01*
X-15197Y49720D01*
X-15071Y49766D01*
X-15273Y49428D02*
X-15560Y49324D01*
X-15768Y49674D02*
X-15792Y49685D01*
X-15834Y49690D01*
X-15925Y49657D01*
X-15954Y49626D01*
X-15965Y49602D01*
X-15970Y49560D01*
X-15957Y49524D01*
X-15920Y49477D01*
X-15626Y49340D01*
X-15859Y49255D01*
M02*
