G04 (created by PCBNEW-RS274X (2011-nov-30)-testing) date Mon 23 Apr 2012 04:49:46 PM EDT*
G01*
G70*
G90*
%MOIN*%
G04 Gerber Fmt 3.4, Leading zero omitted, Abs format*
%FSLAX34Y34*%
G04 APERTURE LIST*
%ADD10C,0.006000*%
%ADD11C,0.015000*%
G04 APERTURE END LIST*
G54D10*
G54D11*
X18810Y40894D02*
X18687Y40219D01*
X18624Y39537D01*
X18620Y38852D01*
X18676Y38168D01*
X18792Y37492D01*
X18966Y36829D01*
X19197Y36183D01*
X19484Y35560D01*
X19824Y34964D01*
X20214Y34400D01*
X20652Y33872D01*
X21135Y33385D01*
X21658Y32941D01*
X21990Y32698D01*
X18812Y40880D02*
X15180Y42362D01*
X11432Y43522D01*
X07596Y44351D01*
X03704Y44843D01*
X-00216Y44994D01*
X-04135Y44802D01*
X-08022Y44270D01*
X-11242Y43562D01*
X-15873Y35988D02*
X-15259Y36298D01*
X-14675Y36660D01*
X-14124Y37072D01*
X-13612Y37530D01*
X-13141Y38031D01*
X-12716Y38571D01*
X-12340Y39146D01*
X-12015Y39752D01*
X-11744Y40384D01*
X-11529Y41037D01*
X-11373Y41706D01*
X-11274Y42387D01*
X-11236Y43073D01*
X-11242Y43485D01*
X-15946Y35925D02*
X-23426Y52953D01*
X22046Y32677D02*
X32381Y48032D01*
X32293Y48059D02*
X27982Y50691D01*
X23457Y52937D01*
X18754Y54780D01*
X13908Y56206D01*
X08957Y57204D01*
X03937Y57767D01*
X-01112Y57891D01*
X-06153Y57574D01*
X-11148Y56818D01*
X-16058Y55631D01*
X-20845Y54019D01*
X-23459Y52937D01*
M02*
