G04 (created by PCBNEW-RS274X (2011-nov-30)-testing) date Mon 09 Apr 2012 08:57:06 PM EDT*
G01*
G70*
G90*
%MOIN*%
G04 Gerber Fmt 3.4, Leading zero omitted, Abs format*
%FSLAX34Y34*%
G04 APERTURE LIST*
%ADD10C,0.006000*%
%ADD11C,0.009900*%
%ADD12C,0.012000*%
%ADD13C,0.008000*%
%ADD14C,0.015000*%
%ADD15C,0.005000*%
%ADD16C,0.003900*%
%ADD17C,0.002600*%
%ADD18C,0.004000*%
%ADD19C,0.002000*%
%ADD20C,0.010000*%
%ADD21C,0.005200*%
%ADD22C,0.006200*%
%ADD23C,0.003500*%
G04 APERTURE END LIST*
G54D10*
G54D11*
X16124Y47459D02*
X15993Y47646D01*
X15899Y47459D02*
X15899Y47853D01*
X16049Y47853D01*
X16086Y47834D01*
X16105Y47815D01*
X16124Y47777D01*
X16124Y47721D01*
X16105Y47684D01*
X16086Y47665D01*
X16049Y47646D01*
X15899Y47646D01*
X16199Y47421D02*
X16499Y47421D01*
X16593Y47459D02*
X16593Y47721D01*
X16593Y47646D02*
X16612Y47684D01*
X16630Y47702D01*
X16668Y47721D01*
X16705Y47721D01*
X16987Y47477D02*
X16949Y47459D01*
X16874Y47459D01*
X16837Y47477D01*
X16818Y47515D01*
X16818Y47665D01*
X16837Y47702D01*
X16874Y47721D01*
X16949Y47721D01*
X16987Y47702D01*
X17006Y47665D01*
X17006Y47627D01*
X16818Y47590D01*
X17119Y47721D02*
X17269Y47721D01*
X17175Y47459D02*
X17175Y47796D01*
X17194Y47834D01*
X17231Y47853D01*
X17269Y47853D01*
X18887Y42806D02*
X18756Y43001D01*
X18662Y42806D02*
X18662Y43216D01*
X18812Y43216D01*
X18849Y43197D01*
X18868Y43177D01*
X18887Y43138D01*
X18887Y43079D01*
X18868Y43040D01*
X18849Y43021D01*
X18812Y43001D01*
X18662Y43001D01*
X19225Y42806D02*
X19225Y43021D01*
X19206Y43060D01*
X19168Y43079D01*
X19093Y43079D01*
X19056Y43060D01*
X19225Y42826D02*
X19187Y42806D01*
X19093Y42806D01*
X19056Y42826D01*
X19037Y42865D01*
X19037Y42904D01*
X19056Y42943D01*
X19093Y42962D01*
X19187Y42962D01*
X19225Y42982D01*
X19412Y43079D02*
X19412Y42806D01*
X19412Y43040D02*
X19431Y43060D01*
X19468Y43079D01*
X19524Y43079D01*
X19562Y43060D01*
X19581Y43021D01*
X19581Y42806D01*
X19937Y43079D02*
X19937Y42747D01*
X19918Y42708D01*
X19899Y42689D01*
X19862Y42669D01*
X19805Y42669D01*
X19768Y42689D01*
X19937Y42826D02*
X19899Y42806D01*
X19824Y42806D01*
X19787Y42826D01*
X19768Y42845D01*
X19749Y42884D01*
X19749Y43001D01*
X19768Y43040D01*
X19787Y43060D01*
X19824Y43079D01*
X19899Y43079D01*
X19937Y43060D01*
X20274Y42826D02*
X20236Y42806D01*
X20161Y42806D01*
X20124Y42826D01*
X20105Y42865D01*
X20105Y43021D01*
X20124Y43060D01*
X20161Y43079D01*
X20236Y43079D01*
X20274Y43060D01*
X20293Y43021D01*
X20293Y42982D01*
X20105Y42943D01*
X18549Y42153D02*
X18605Y42133D01*
X18699Y42133D01*
X18737Y42153D01*
X18755Y42172D01*
X18774Y42211D01*
X18774Y42250D01*
X18755Y42289D01*
X18737Y42309D01*
X18699Y42328D01*
X18624Y42348D01*
X18587Y42367D01*
X18568Y42387D01*
X18549Y42426D01*
X18549Y42465D01*
X18568Y42504D01*
X18587Y42524D01*
X18624Y42543D01*
X18718Y42543D01*
X18774Y42524D01*
X19093Y42153D02*
X19055Y42133D01*
X18980Y42133D01*
X18943Y42153D01*
X18924Y42192D01*
X18924Y42348D01*
X18943Y42387D01*
X18980Y42406D01*
X19055Y42406D01*
X19093Y42387D01*
X19112Y42348D01*
X19112Y42309D01*
X18924Y42270D01*
X19281Y42406D02*
X19281Y42133D01*
X19281Y42367D02*
X19300Y42387D01*
X19337Y42406D01*
X19393Y42406D01*
X19431Y42387D01*
X19450Y42348D01*
X19450Y42133D01*
X19618Y42153D02*
X19656Y42133D01*
X19731Y42133D01*
X19768Y42153D01*
X19787Y42192D01*
X19787Y42211D01*
X19768Y42250D01*
X19731Y42270D01*
X19674Y42270D01*
X19637Y42289D01*
X19618Y42328D01*
X19618Y42348D01*
X19637Y42387D01*
X19674Y42406D01*
X19731Y42406D01*
X19768Y42387D01*
X20012Y42133D02*
X19975Y42153D01*
X19956Y42172D01*
X19937Y42211D01*
X19937Y42328D01*
X19956Y42367D01*
X19975Y42387D01*
X20012Y42406D01*
X20068Y42406D01*
X20106Y42387D01*
X20125Y42367D01*
X20143Y42328D01*
X20143Y42211D01*
X20125Y42172D01*
X20106Y42153D01*
X20068Y42133D01*
X20012Y42133D01*
X20312Y42133D02*
X20312Y42406D01*
X20312Y42328D02*
X20331Y42367D01*
X20349Y42387D01*
X20387Y42406D01*
X20424Y42406D01*
G54D12*
X25543Y41913D02*
X25657Y41913D01*
X25715Y41875D01*
X25772Y41799D01*
X25800Y41647D01*
X25800Y41380D01*
X25772Y41227D01*
X25715Y41151D01*
X25657Y41113D01*
X25543Y41113D01*
X25486Y41151D01*
X25429Y41227D01*
X25400Y41380D01*
X25400Y41647D01*
X25429Y41799D01*
X25486Y41875D01*
X25543Y41913D01*
X26315Y41647D02*
X26315Y41113D01*
X26058Y41647D02*
X26058Y41227D01*
X26086Y41151D01*
X26144Y41113D01*
X26229Y41113D01*
X26286Y41151D01*
X26315Y41189D01*
X26515Y41647D02*
X26744Y41647D01*
X26601Y41913D02*
X26601Y41227D01*
X26629Y41151D01*
X26687Y41113D01*
X26744Y41113D01*
X-18480Y45286D02*
X-18480Y46086D01*
X-18194Y45820D02*
X-18194Y45286D01*
X-18194Y45743D02*
X-18166Y45781D01*
X-18108Y45820D01*
X-18023Y45820D01*
X-17966Y45781D01*
X-17937Y45705D01*
X-17937Y45286D01*
G54D13*
X-18741Y49468D02*
X-17568Y46707D01*
X-19409Y45926D02*
X-20582Y48687D01*
X-20582Y48687D02*
X-18741Y49468D01*
X-17568Y46707D02*
X-19409Y45926D01*
G54D10*
X-03264Y53417D02*
X-03264Y54417D01*
X-03264Y54417D02*
X-01264Y54417D01*
X-01264Y54417D02*
X-01264Y53417D01*
X-01264Y53417D02*
X-03264Y53417D01*
G54D14*
X-06791Y54547D02*
X-06829Y54165D01*
X-06940Y53797D01*
X-07120Y53458D01*
X-07363Y53160D01*
X-07659Y52915D01*
X-07997Y52732D01*
X-08365Y52619D01*
X-08747Y52579D01*
X-09128Y52613D01*
X-09497Y52722D01*
X-09838Y52900D01*
X-10137Y53141D01*
X-10384Y53435D01*
X-10569Y53772D01*
X-10685Y54138D01*
X-10728Y54520D01*
X-10696Y54902D01*
X-10590Y55271D01*
X-10415Y55613D01*
X-10176Y55914D01*
X-09883Y56163D01*
X-09548Y56351D01*
X-09182Y56470D01*
X-08801Y56515D01*
X-08419Y56486D01*
X-08048Y56382D01*
X-07705Y56209D01*
X-07403Y55972D01*
X-07152Y55681D01*
X-06962Y55347D01*
X-06840Y54983D01*
X-06792Y54601D01*
X-06791Y54547D01*
X10689Y54311D02*
X10651Y53929D01*
X10540Y53561D01*
X10360Y53222D01*
X10117Y52924D01*
X09821Y52679D01*
X09483Y52496D01*
X09115Y52383D01*
X08733Y52343D01*
X08352Y52377D01*
X07983Y52486D01*
X07642Y52664D01*
X07343Y52905D01*
X07096Y53199D01*
X06911Y53536D01*
X06795Y53902D01*
X06752Y54284D01*
X06784Y54666D01*
X06890Y55035D01*
X07065Y55377D01*
X07304Y55678D01*
X07597Y55927D01*
X07932Y56115D01*
X08298Y56234D01*
X08679Y56279D01*
X09061Y56250D01*
X09432Y56146D01*
X09775Y55973D01*
X10077Y55736D01*
X10328Y55445D01*
X10518Y55111D01*
X10640Y54747D01*
X10688Y54365D01*
X10689Y54311D01*
G54D10*
X03487Y49790D02*
X03169Y49472D01*
X01945Y51332D02*
X01634Y51021D01*
X03487Y49790D02*
X01945Y51332D01*
X03197Y48836D02*
X03501Y48532D01*
X01641Y47266D02*
X01938Y46969D01*
X01931Y46962D02*
X03508Y48525D01*
X-00827Y49748D02*
X00701Y51289D01*
X-00678Y48991D02*
X01323Y46990D01*
X00715Y51289D02*
X01005Y50999D01*
X-00671Y49338D02*
X01295Y51304D01*
X03487Y49140D02*
X01337Y51289D01*
X01330Y46983D02*
X03451Y49104D01*
X-00876Y48553D02*
X00694Y46983D01*
X00694Y46983D02*
X01012Y47301D01*
X-00682Y49001D02*
X-00682Y49326D01*
X-00875Y48554D02*
X-00555Y48874D01*
X-00544Y49465D02*
X-00863Y49785D01*
X-00083Y49167D02*
X-00087Y49131D01*
X-00098Y49096D01*
X-00115Y49063D01*
X-00138Y49035D01*
X-00166Y49012D01*
X-00199Y48994D01*
X-00234Y48983D01*
X-00270Y48980D01*
X-00306Y48983D01*
X-00341Y48993D01*
X-00373Y49010D01*
X-00402Y49033D01*
X-00426Y49061D01*
X-00443Y49093D01*
X-00454Y49128D01*
X-00458Y49165D01*
X-00455Y49200D01*
X-00445Y49236D01*
X-00429Y49268D01*
X-00406Y49297D01*
X-00378Y49321D01*
X-00346Y49339D01*
X-00311Y49350D01*
X-00274Y49354D01*
X-00239Y49352D01*
X-00204Y49342D01*
X-00171Y49325D01*
X-00142Y49303D01*
X-00118Y49275D01*
X-00100Y49243D01*
X-00088Y49208D01*
X-00084Y49172D01*
X-00083Y49167D01*
G54D14*
X-05835Y45740D02*
X-05835Y46740D01*
X06190Y45740D02*
X06190Y46740D01*
X06190Y46740D02*
X-05810Y46740D01*
X-05810Y45740D02*
X06190Y45740D01*
X-05835Y51690D02*
X-05835Y52690D01*
X06190Y51690D02*
X06190Y52690D01*
X06190Y52690D02*
X-05810Y52690D01*
X-05810Y51690D02*
X06190Y51690D01*
G54D15*
X16212Y51224D02*
X16209Y51197D01*
X16201Y51171D01*
X16188Y51146D01*
X16171Y51125D01*
X16149Y51108D01*
X16125Y51095D01*
X16099Y51086D01*
X16071Y51084D01*
X16045Y51086D01*
X16019Y51094D01*
X15994Y51107D01*
X15973Y51124D01*
X15955Y51145D01*
X15942Y51169D01*
X15934Y51195D01*
X15931Y51223D01*
X15933Y51249D01*
X15940Y51275D01*
X15953Y51300D01*
X15970Y51321D01*
X15991Y51339D01*
X16015Y51353D01*
X16041Y51361D01*
X16069Y51364D01*
X16095Y51362D01*
X16121Y51355D01*
X16146Y51343D01*
X16168Y51326D01*
X16186Y51305D01*
X16199Y51281D01*
X16208Y51255D01*
X16211Y51227D01*
X16212Y51224D01*
X16271Y50124D02*
X15971Y50124D01*
X15971Y50124D02*
X15971Y50624D01*
X15971Y50624D02*
X16271Y50624D01*
X12221Y51424D02*
X16271Y51424D01*
X16271Y49324D02*
X12221Y49324D01*
X16271Y49324D02*
X16271Y51424D01*
X12221Y49324D02*
X12221Y51424D01*
G54D13*
X07889Y47209D02*
X10844Y46688D01*
X10497Y44719D02*
X07542Y45240D01*
X07542Y45240D02*
X07889Y47209D01*
X10844Y46688D02*
X10497Y44719D01*
G54D15*
X09523Y50098D02*
X09503Y49904D01*
X09447Y49717D01*
X09355Y49545D01*
X09232Y49394D01*
X09082Y49269D01*
X08910Y49177D01*
X08724Y49119D01*
X08529Y49099D01*
X08336Y49116D01*
X08149Y49171D01*
X07976Y49262D01*
X07824Y49384D01*
X07698Y49534D01*
X07604Y49705D01*
X07545Y49891D01*
X07524Y50085D01*
X07540Y50278D01*
X07594Y50466D01*
X07683Y50639D01*
X07804Y50792D01*
X07953Y50919D01*
X08123Y51014D01*
X08309Y51074D01*
X08503Y51097D01*
X08696Y51082D01*
X08884Y51030D01*
X09058Y50942D01*
X09212Y50822D01*
X09340Y50674D01*
X09436Y50504D01*
X09498Y50319D01*
X09522Y50125D01*
X09523Y50098D01*
X10023Y48598D02*
X07023Y48598D01*
X07023Y48598D02*
X07023Y51598D01*
X07023Y51598D02*
X10023Y51598D01*
X10023Y48598D02*
X10023Y51598D01*
X-02977Y49183D02*
X-03677Y49183D01*
X-03677Y49183D02*
X-03677Y50383D01*
X-03677Y50383D02*
X-02977Y50383D01*
X-02977Y50383D02*
X-02977Y49183D01*
G54D13*
X14191Y46532D02*
X13866Y45639D01*
X13251Y43948D02*
X13593Y44888D01*
X16420Y42422D02*
X16882Y43691D01*
X17617Y45711D02*
X17155Y44442D01*
X15973Y46309D02*
X17617Y45711D01*
X16420Y42422D02*
X13460Y43499D01*
X13460Y43499D02*
X13251Y43948D01*
X14208Y46579D02*
X14657Y46788D01*
X14657Y46788D02*
X15973Y46309D01*
X16974Y44665D02*
X16943Y44355D01*
X16853Y44056D01*
X16706Y43780D01*
X16509Y43538D01*
X16268Y43339D01*
X15994Y43191D01*
X15695Y43098D01*
X15385Y43066D01*
X15075Y43094D01*
X14775Y43182D01*
X14498Y43327D01*
X14255Y43522D01*
X14054Y43762D01*
X13904Y44035D01*
X13809Y44333D01*
X13775Y44643D01*
X13801Y44953D01*
X13887Y45253D01*
X14030Y45531D01*
X14224Y45776D01*
X14461Y45978D01*
X14734Y46131D01*
X15031Y46227D01*
X15341Y46264D01*
X15651Y46240D01*
X15952Y46156D01*
X16231Y46015D01*
X16477Y45823D01*
X16681Y45587D01*
X16835Y45315D01*
X16934Y45019D01*
X16973Y44709D01*
X16974Y44665D01*
X-04609Y48394D02*
X-04609Y49344D01*
X-04609Y51144D02*
X-04609Y50144D01*
X-08109Y51494D02*
X-08109Y50144D01*
X-08109Y47994D02*
X-08109Y49344D01*
X-06359Y47994D02*
X-08109Y47994D01*
X-08109Y51494D02*
X-04959Y51494D01*
X-04959Y51494D02*
X-04609Y51144D01*
X-04609Y48344D02*
X-04959Y47994D01*
X-04959Y47994D02*
X-06359Y47994D01*
X-04759Y49744D02*
X-04790Y49434D01*
X-04880Y49135D01*
X-05027Y48859D01*
X-05224Y48617D01*
X-05465Y48418D01*
X-05739Y48270D01*
X-06038Y48177D01*
X-06348Y48145D01*
X-06658Y48173D01*
X-06958Y48261D01*
X-07235Y48406D01*
X-07478Y48601D01*
X-07679Y48841D01*
X-07829Y49114D01*
X-07924Y49412D01*
X-07958Y49722D01*
X-07932Y50032D01*
X-07846Y50332D01*
X-07703Y50610D01*
X-07509Y50855D01*
X-07272Y51057D01*
X-06999Y51210D01*
X-06702Y51306D01*
X-06392Y51343D01*
X-06082Y51319D01*
X-05781Y51235D01*
X-05502Y51094D01*
X-05256Y50902D01*
X-05052Y50666D01*
X-04898Y50394D01*
X-04799Y50098D01*
X-04760Y49788D01*
X-04759Y49744D01*
G54D15*
X14262Y47957D02*
X14261Y47948D01*
X14258Y47938D01*
X14253Y47930D01*
X14247Y47922D01*
X14239Y47916D01*
X14231Y47911D01*
X14222Y47909D01*
X14212Y47908D01*
X14203Y47908D01*
X14194Y47911D01*
X14185Y47916D01*
X14178Y47922D01*
X14171Y47929D01*
X14167Y47938D01*
X14164Y47947D01*
X14163Y47957D01*
X14163Y47966D01*
X14166Y47975D01*
X14170Y47984D01*
X14177Y47991D01*
X14184Y47998D01*
X14192Y48002D01*
X14202Y48005D01*
X14211Y48006D01*
X14220Y48006D01*
X14230Y48003D01*
X14238Y47999D01*
X14246Y47993D01*
X14252Y47985D01*
X14257Y47977D01*
X14260Y47968D01*
X14261Y47958D01*
X14262Y47957D01*
X13762Y47957D02*
X14162Y47957D01*
X14162Y47957D02*
X14162Y47357D01*
X14162Y47357D02*
X13762Y47357D01*
X13362Y47357D02*
X12962Y47357D01*
X12962Y47357D02*
X12962Y47957D01*
X12962Y47957D02*
X13362Y47957D01*
X14537Y47357D02*
X14536Y47348D01*
X14533Y47338D01*
X14528Y47330D01*
X14522Y47322D01*
X14514Y47316D01*
X14506Y47311D01*
X14497Y47309D01*
X14487Y47308D01*
X14478Y47308D01*
X14469Y47311D01*
X14460Y47316D01*
X14453Y47322D01*
X14446Y47329D01*
X14442Y47338D01*
X14439Y47347D01*
X14438Y47357D01*
X14438Y47366D01*
X14441Y47375D01*
X14445Y47384D01*
X14452Y47391D01*
X14459Y47398D01*
X14467Y47402D01*
X14477Y47405D01*
X14486Y47406D01*
X14495Y47406D01*
X14505Y47403D01*
X14513Y47399D01*
X14521Y47393D01*
X14527Y47385D01*
X14532Y47377D01*
X14535Y47368D01*
X14536Y47358D01*
X14537Y47357D01*
X14937Y47357D02*
X14537Y47357D01*
X14537Y47357D02*
X14537Y47957D01*
X14537Y47957D02*
X14937Y47957D01*
X15337Y47957D02*
X15737Y47957D01*
X15737Y47957D02*
X15737Y47357D01*
X15737Y47357D02*
X15337Y47357D01*
X-00778Y53578D02*
X-00779Y53569D01*
X-00782Y53559D01*
X-00787Y53551D01*
X-00793Y53543D01*
X-00801Y53537D01*
X-00809Y53532D01*
X-00818Y53530D01*
X-00828Y53529D01*
X-00837Y53529D01*
X-00846Y53532D01*
X-00855Y53537D01*
X-00862Y53543D01*
X-00869Y53550D01*
X-00873Y53559D01*
X-00876Y53568D01*
X-00877Y53578D01*
X-00877Y53587D01*
X-00874Y53596D01*
X-00870Y53605D01*
X-00863Y53612D01*
X-00856Y53619D01*
X-00848Y53623D01*
X-00838Y53626D01*
X-00829Y53627D01*
X-00820Y53627D01*
X-00810Y53624D01*
X-00802Y53620D01*
X-00794Y53614D01*
X-00788Y53606D01*
X-00783Y53598D01*
X-00780Y53589D01*
X-00779Y53579D01*
X-00778Y53578D01*
X-00378Y53578D02*
X-00778Y53578D01*
X-00778Y53578D02*
X-00778Y54178D01*
X-00778Y54178D02*
X-00378Y54178D01*
X00022Y54178D02*
X00422Y54178D01*
X00422Y54178D02*
X00422Y53578D01*
X00422Y53578D02*
X00022Y53578D01*
X-02082Y49802D02*
X-02083Y49793D01*
X-02086Y49783D01*
X-02091Y49775D01*
X-02097Y49767D01*
X-02105Y49761D01*
X-02113Y49756D01*
X-02122Y49754D01*
X-02132Y49753D01*
X-02141Y49753D01*
X-02150Y49756D01*
X-02159Y49761D01*
X-02166Y49767D01*
X-02173Y49774D01*
X-02177Y49783D01*
X-02180Y49792D01*
X-02181Y49802D01*
X-02181Y49811D01*
X-02178Y49820D01*
X-02174Y49829D01*
X-02167Y49836D01*
X-02160Y49843D01*
X-02152Y49847D01*
X-02142Y49850D01*
X-02133Y49851D01*
X-02124Y49851D01*
X-02114Y49848D01*
X-02106Y49844D01*
X-02098Y49838D01*
X-02092Y49830D01*
X-02087Y49822D01*
X-02084Y49813D01*
X-02083Y49803D01*
X-02082Y49802D01*
X-02132Y49352D02*
X-02132Y49752D01*
X-02132Y49752D02*
X-01532Y49752D01*
X-01532Y49752D02*
X-01532Y49352D01*
X-01532Y48952D02*
X-01532Y48552D01*
X-01532Y48552D02*
X-02132Y48552D01*
X-02132Y48552D02*
X-02132Y48952D01*
X05641Y49453D02*
X05640Y49444D01*
X05637Y49434D01*
X05632Y49426D01*
X05626Y49418D01*
X05618Y49412D01*
X05610Y49407D01*
X05601Y49405D01*
X05591Y49404D01*
X05582Y49404D01*
X05573Y49407D01*
X05564Y49412D01*
X05557Y49418D01*
X05550Y49425D01*
X05546Y49434D01*
X05543Y49443D01*
X05542Y49453D01*
X05542Y49462D01*
X05545Y49471D01*
X05549Y49480D01*
X05556Y49487D01*
X05563Y49494D01*
X05571Y49498D01*
X05581Y49501D01*
X05590Y49502D01*
X05599Y49502D01*
X05609Y49499D01*
X05617Y49495D01*
X05625Y49489D01*
X05631Y49481D01*
X05636Y49473D01*
X05639Y49464D01*
X05640Y49454D01*
X05641Y49453D01*
X05141Y49453D02*
X05541Y49453D01*
X05541Y49453D02*
X05541Y48853D01*
X05541Y48853D02*
X05141Y48853D01*
X04741Y48853D02*
X04341Y48853D01*
X04341Y48853D02*
X04341Y49453D01*
X04341Y49453D02*
X04741Y49453D01*
G54D16*
X03724Y47447D02*
X03668Y47392D01*
X04141Y47030D02*
X04086Y46974D01*
X04976Y47865D02*
X05032Y47920D01*
X04559Y48282D02*
X04614Y48338D01*
X04086Y46974D02*
X03668Y47392D01*
X04614Y48338D02*
X05032Y47920D01*
G54D17*
X05649Y47619D02*
X05521Y47619D01*
X05521Y47619D02*
X05521Y47422D01*
X05649Y47422D02*
X05521Y47422D01*
X05649Y47619D02*
X05649Y47422D01*
X05894Y47619D02*
X05835Y47619D01*
X05835Y47619D02*
X05835Y47520D01*
X05894Y47520D02*
X05835Y47520D01*
X05894Y47619D02*
X05894Y47520D01*
X05699Y47619D02*
X05640Y47619D01*
X05640Y47619D02*
X05640Y47520D01*
X05699Y47520D02*
X05640Y47520D01*
X05699Y47619D02*
X05699Y47520D01*
X05845Y47619D02*
X05689Y47619D01*
X05689Y47619D02*
X05689Y47550D01*
X05845Y47550D02*
X05689Y47550D01*
X05845Y47619D02*
X05845Y47550D01*
X05649Y48208D02*
X05521Y48208D01*
X05521Y48208D02*
X05521Y48011D01*
X05649Y48011D02*
X05521Y48011D01*
X05649Y48208D02*
X05649Y48011D01*
X06013Y48208D02*
X05885Y48208D01*
X05885Y48208D02*
X05885Y48011D01*
X06013Y48011D02*
X05885Y48011D01*
X06013Y48208D02*
X06013Y48011D01*
X05699Y48110D02*
X05640Y48110D01*
X05640Y48110D02*
X05640Y48011D01*
X05699Y48011D02*
X05640Y48011D01*
X05699Y48110D02*
X05699Y48011D01*
X05894Y48110D02*
X05835Y48110D01*
X05835Y48110D02*
X05835Y48011D01*
X05894Y48011D02*
X05835Y48011D01*
X05894Y48110D02*
X05894Y48011D01*
X05845Y48080D02*
X05689Y48080D01*
X05689Y48080D02*
X05689Y48011D01*
X05845Y48011D02*
X05689Y48011D01*
X05845Y48080D02*
X05845Y48011D01*
X05806Y47815D02*
X05728Y47815D01*
X05728Y47815D02*
X05728Y47737D01*
X05806Y47737D02*
X05728Y47737D01*
X05806Y47815D02*
X05806Y47737D01*
X06003Y47619D02*
X05885Y47619D01*
X05885Y47619D02*
X05885Y47501D01*
X06003Y47501D02*
X05885Y47501D01*
X06003Y47619D02*
X06003Y47501D01*
X06013Y47451D02*
X05924Y47451D01*
X05924Y47451D02*
X05924Y47422D01*
X06013Y47422D02*
X05924Y47422D01*
X06013Y47451D02*
X06013Y47422D01*
G54D18*
X05541Y47609D02*
X05541Y48021D01*
X05993Y48011D02*
X05993Y47451D01*
G54D19*
X05972Y47481D02*
X05971Y47476D01*
X05969Y47471D01*
X05967Y47466D01*
X05963Y47462D01*
X05959Y47458D01*
X05954Y47456D01*
X05949Y47454D01*
X05944Y47454D01*
X05939Y47454D01*
X05934Y47456D01*
X05929Y47458D01*
X05925Y47461D01*
X05921Y47466D01*
X05919Y47470D01*
X05917Y47476D01*
X05917Y47481D01*
X05917Y47486D01*
X05918Y47491D01*
X05921Y47496D01*
X05924Y47500D01*
X05929Y47503D01*
X05933Y47506D01*
X05938Y47508D01*
X05944Y47508D01*
X05948Y47508D01*
X05954Y47507D01*
X05959Y47504D01*
X05963Y47501D01*
X05966Y47497D01*
X05969Y47492D01*
X05971Y47487D01*
X05971Y47481D01*
X05972Y47481D01*
G54D18*
X05904Y47422D02*
X05903Y47433D01*
X05901Y47445D01*
X05899Y47457D01*
X05895Y47468D01*
X05891Y47479D01*
X05885Y47490D01*
X05879Y47500D01*
X05871Y47510D01*
X05863Y47518D01*
X05855Y47526D01*
X05845Y47534D01*
X05835Y47540D01*
X05824Y47546D01*
X05813Y47550D01*
X05802Y47554D01*
X05790Y47556D01*
X05778Y47558D01*
X05767Y47559D01*
X05756Y47558D01*
X05744Y47556D01*
X05732Y47554D01*
X05721Y47550D01*
X05710Y47546D01*
X05699Y47540D01*
X05689Y47534D01*
X05679Y47526D01*
X05671Y47518D01*
X05663Y47510D01*
X05655Y47500D01*
X05649Y47490D01*
X05643Y47479D01*
X05639Y47468D01*
X05635Y47457D01*
X05633Y47445D01*
X05631Y47433D01*
X05630Y47422D01*
X05630Y48208D02*
X05631Y48197D01*
X05633Y48185D01*
X05635Y48173D01*
X05639Y48162D01*
X05643Y48151D01*
X05649Y48140D01*
X05655Y48130D01*
X05663Y48120D01*
X05671Y48112D01*
X05679Y48104D01*
X05689Y48096D01*
X05699Y48090D01*
X05710Y48084D01*
X05721Y48080D01*
X05732Y48076D01*
X05744Y48074D01*
X05756Y48072D01*
X05767Y48071D01*
X05778Y48072D01*
X05790Y48074D01*
X05802Y48076D01*
X05813Y48080D01*
X05824Y48084D01*
X05835Y48090D01*
X05845Y48096D01*
X05855Y48104D01*
X05863Y48112D01*
X05871Y48120D01*
X05879Y48130D01*
X05885Y48140D01*
X05891Y48151D01*
X05895Y48162D01*
X05899Y48173D01*
X05901Y48185D01*
X05903Y48197D01*
X05904Y48208D01*
G54D15*
X-02082Y48227D02*
X-02083Y48218D01*
X-02086Y48208D01*
X-02091Y48200D01*
X-02097Y48192D01*
X-02105Y48186D01*
X-02113Y48181D01*
X-02122Y48179D01*
X-02132Y48178D01*
X-02141Y48178D01*
X-02150Y48181D01*
X-02159Y48186D01*
X-02166Y48192D01*
X-02173Y48199D01*
X-02177Y48208D01*
X-02180Y48217D01*
X-02181Y48227D01*
X-02181Y48236D01*
X-02178Y48245D01*
X-02174Y48254D01*
X-02167Y48261D01*
X-02160Y48268D01*
X-02152Y48272D01*
X-02142Y48275D01*
X-02133Y48276D01*
X-02124Y48276D01*
X-02114Y48273D01*
X-02106Y48269D01*
X-02098Y48263D01*
X-02092Y48255D01*
X-02087Y48247D01*
X-02084Y48238D01*
X-02083Y48228D01*
X-02082Y48227D01*
X-02132Y47777D02*
X-02132Y48177D01*
X-02132Y48177D02*
X-01532Y48177D01*
X-01532Y48177D02*
X-01532Y47777D01*
X-01532Y47377D02*
X-01532Y46977D01*
X-01532Y46977D02*
X-02132Y46977D01*
X-02132Y46977D02*
X-02132Y47377D01*
G54D13*
X02122Y56565D02*
X02056Y55067D01*
G54D20*
X02078Y55066D02*
X02143Y54979D01*
X02216Y54898D01*
X02296Y54823D01*
X02381Y54756D01*
X02473Y54696D01*
X02569Y54645D01*
X02669Y54602D01*
X02773Y54569D01*
X02879Y54544D01*
X02987Y54528D01*
X03095Y54523D01*
X03203Y54526D01*
X03311Y54539D01*
X03418Y54562D01*
X03522Y54593D01*
X03623Y54634D01*
X03721Y54683D01*
X03813Y54741D01*
X03900Y54806D01*
X03981Y54879D01*
X04056Y54959D01*
X04123Y55044D01*
X04183Y55136D01*
X04234Y55232D01*
X04277Y55332D01*
X04310Y55436D01*
X04335Y55542D01*
X04351Y55650D01*
X04356Y55758D01*
X04353Y55866D01*
X04340Y55974D01*
X04317Y56081D01*
X04286Y56185D01*
X04245Y56286D01*
X04196Y56384D01*
X04138Y56476D01*
X04073Y56563D01*
X04000Y56644D01*
X03920Y56719D01*
X03835Y56786D01*
X03743Y56846D01*
X03647Y56897D01*
X03547Y56940D01*
X03443Y56973D01*
X03337Y56998D01*
X03229Y57014D01*
X03121Y57019D01*
X03013Y57016D01*
X02905Y57003D01*
X02798Y56980D01*
X02694Y56949D01*
X02593Y56908D01*
X02495Y56859D01*
X02403Y56801D01*
X02316Y56736D01*
X02235Y56663D01*
X02160Y56583D01*
X02143Y56563D01*
G54D13*
X12947Y55168D02*
X12622Y53703D01*
G54D20*
X12644Y53698D02*
X12693Y53600D01*
X12751Y53508D01*
X12817Y53421D01*
X12890Y53340D01*
X12969Y53266D01*
X13055Y53199D01*
X13147Y53139D01*
X13243Y53088D01*
X13343Y53046D01*
X13447Y53012D01*
X13553Y52987D01*
X13661Y52972D01*
X13770Y52967D01*
X13877Y52970D01*
X13986Y52984D01*
X14092Y53006D01*
X14196Y53038D01*
X14297Y53079D01*
X14395Y53128D01*
X14487Y53186D01*
X14574Y53252D01*
X14655Y53325D01*
X14729Y53404D01*
X14796Y53490D01*
X14856Y53582D01*
X14907Y53678D01*
X14949Y53778D01*
X14983Y53882D01*
X15008Y53988D01*
X15023Y54096D01*
X15028Y54205D01*
X15025Y54312D01*
X15011Y54421D01*
X14989Y54527D01*
X14957Y54631D01*
X14916Y54732D01*
X14867Y54830D01*
X14809Y54922D01*
X14743Y55009D01*
X14670Y55090D01*
X14591Y55164D01*
X14505Y55231D01*
X14413Y55291D01*
X14317Y55342D01*
X14217Y55384D01*
X14113Y55418D01*
X14007Y55443D01*
X13899Y55458D01*
X13790Y55463D01*
X13683Y55460D01*
X13574Y55446D01*
X13468Y55424D01*
X13364Y55392D01*
X13263Y55351D01*
X13165Y55302D01*
X13073Y55244D01*
X12986Y55178D01*
X12966Y55161D01*
G54D13*
X16651Y54144D02*
X16263Y52695D01*
G54D20*
X16284Y52691D02*
X16329Y52591D01*
X16382Y52496D01*
X16444Y52407D01*
X16513Y52322D01*
X16589Y52245D01*
X16672Y52174D01*
X16760Y52110D01*
X16854Y52055D01*
X16952Y52008D01*
X17054Y51969D01*
X17159Y51940D01*
X17267Y51920D01*
X17375Y51909D01*
X17483Y51908D01*
X17592Y51917D01*
X17699Y51934D01*
X17805Y51961D01*
X17907Y51998D01*
X18007Y52043D01*
X18102Y52096D01*
X18191Y52158D01*
X18276Y52227D01*
X18353Y52303D01*
X18424Y52386D01*
X18488Y52474D01*
X18543Y52568D01*
X18590Y52666D01*
X18629Y52768D01*
X18658Y52873D01*
X18678Y52981D01*
X18689Y53089D01*
X18690Y53197D01*
X18681Y53306D01*
X18664Y53413D01*
X18637Y53519D01*
X18600Y53621D01*
X18555Y53721D01*
X18502Y53816D01*
X18440Y53905D01*
X18371Y53990D01*
X18295Y54067D01*
X18212Y54138D01*
X18124Y54202D01*
X18030Y54257D01*
X17932Y54304D01*
X17830Y54343D01*
X17725Y54372D01*
X17617Y54392D01*
X17509Y54403D01*
X17401Y54404D01*
X17292Y54395D01*
X17185Y54378D01*
X17079Y54351D01*
X16977Y54314D01*
X16877Y54269D01*
X16782Y54216D01*
X16693Y54154D01*
X16672Y54138D01*
G54D13*
X20208Y52958D02*
X19695Y51548D01*
G54D20*
X19714Y51541D02*
X19751Y51438D01*
X19796Y51339D01*
X19849Y51244D01*
X19911Y51154D01*
X19980Y51070D01*
X20056Y50992D01*
X20139Y50921D01*
X20228Y50857D01*
X20322Y50802D01*
X20420Y50755D01*
X20522Y50716D01*
X20627Y50687D01*
X20734Y50667D01*
X20843Y50656D01*
X20951Y50655D01*
X21060Y50664D01*
X21167Y50681D01*
X21273Y50708D01*
X21376Y50745D01*
X21475Y50790D01*
X21570Y50843D01*
X21660Y50905D01*
X21744Y50974D01*
X21822Y51050D01*
X21893Y51133D01*
X21957Y51222D01*
X22012Y51316D01*
X22059Y51414D01*
X22098Y51516D01*
X22127Y51621D01*
X22147Y51728D01*
X22158Y51837D01*
X22159Y51945D01*
X22150Y52054D01*
X22133Y52161D01*
X22106Y52267D01*
X22069Y52370D01*
X22024Y52469D01*
X21971Y52564D01*
X21909Y52654D01*
X21840Y52738D01*
X21764Y52816D01*
X21681Y52887D01*
X21592Y52951D01*
X21498Y53006D01*
X21400Y53053D01*
X21298Y53092D01*
X21193Y53121D01*
X21086Y53141D01*
X20977Y53152D01*
X20869Y53153D01*
X20760Y53144D01*
X20653Y53127D01*
X20547Y53100D01*
X20444Y53063D01*
X20345Y53018D01*
X20250Y52965D01*
X20228Y52951D01*
G54D13*
X23484Y51535D02*
X22910Y50149D01*
G54D20*
X22930Y50141D02*
X22961Y50036D01*
X23002Y49935D01*
X23051Y49838D01*
X23109Y49745D01*
X23175Y49658D01*
X23247Y49577D01*
X23327Y49502D01*
X23413Y49435D01*
X23504Y49376D01*
X23600Y49324D01*
X23701Y49281D01*
X23804Y49248D01*
X23911Y49223D01*
X24019Y49207D01*
X24127Y49202D01*
X24235Y49205D01*
X24344Y49218D01*
X24450Y49241D01*
X24555Y49272D01*
X24656Y49313D01*
X24753Y49362D01*
X24846Y49420D01*
X24933Y49486D01*
X25014Y49558D01*
X25089Y49638D01*
X25156Y49724D01*
X25215Y49815D01*
X25267Y49911D01*
X25310Y50012D01*
X25343Y50115D01*
X25368Y50222D01*
X25384Y50330D01*
X25389Y50438D01*
X25386Y50546D01*
X25373Y50655D01*
X25350Y50761D01*
X25319Y50866D01*
X25278Y50967D01*
X25229Y51064D01*
X25171Y51157D01*
X25105Y51244D01*
X25033Y51325D01*
X24953Y51400D01*
X24867Y51467D01*
X24776Y51526D01*
X24680Y51578D01*
X24579Y51621D01*
X24476Y51654D01*
X24369Y51679D01*
X24261Y51695D01*
X24153Y51700D01*
X24045Y51697D01*
X23936Y51684D01*
X23830Y51661D01*
X23725Y51630D01*
X23624Y51589D01*
X23527Y51540D01*
X23504Y51526D01*
G54D13*
X26723Y49873D02*
X26089Y48514D01*
G54D20*
X26107Y48505D02*
X26134Y48399D01*
X26171Y48296D01*
X26216Y48197D01*
X26269Y48102D01*
X26331Y48012D01*
X26400Y47928D01*
X26476Y47850D01*
X26559Y47779D01*
X26648Y47715D01*
X26742Y47660D01*
X26840Y47613D01*
X26942Y47574D01*
X27047Y47545D01*
X27154Y47525D01*
X27263Y47514D01*
X27371Y47513D01*
X27480Y47522D01*
X27587Y47539D01*
X27693Y47566D01*
X27796Y47603D01*
X27895Y47648D01*
X27990Y47701D01*
X28080Y47763D01*
X28164Y47832D01*
X28242Y47908D01*
X28313Y47991D01*
X28377Y48080D01*
X28432Y48174D01*
X28479Y48272D01*
X28518Y48374D01*
X28547Y48479D01*
X28567Y48586D01*
X28578Y48695D01*
X28579Y48803D01*
X28570Y48912D01*
X28553Y49019D01*
X28526Y49125D01*
X28489Y49228D01*
X28444Y49327D01*
X28391Y49422D01*
X28329Y49512D01*
X28260Y49596D01*
X28184Y49674D01*
X28101Y49745D01*
X28012Y49809D01*
X27918Y49864D01*
X27820Y49911D01*
X27718Y49950D01*
X27613Y49979D01*
X27506Y49999D01*
X27397Y50010D01*
X27289Y50011D01*
X27180Y50002D01*
X27073Y49985D01*
X26967Y49958D01*
X26864Y49921D01*
X26765Y49876D01*
X26742Y49864D01*
G54D13*
X-22494Y51918D02*
X-21860Y50559D01*
G54D20*
X-21841Y50569D02*
X-21743Y50522D01*
X-21641Y50483D01*
X-21536Y50454D01*
X-21428Y50434D01*
X-21320Y50423D01*
X-21212Y50422D01*
X-21103Y50431D01*
X-20996Y50448D01*
X-20890Y50475D01*
X-20788Y50512D01*
X-20688Y50557D01*
X-20593Y50610D01*
X-20504Y50672D01*
X-20419Y50741D01*
X-20342Y50817D01*
X-20271Y50900D01*
X-20207Y50988D01*
X-20152Y51082D01*
X-20105Y51180D01*
X-20066Y51282D01*
X-20037Y51387D01*
X-20017Y51495D01*
X-20006Y51603D01*
X-20005Y51711D01*
X-20014Y51820D01*
X-20031Y51927D01*
X-20058Y52033D01*
X-20095Y52135D01*
X-20140Y52235D01*
X-20193Y52330D01*
X-20255Y52419D01*
X-20324Y52504D01*
X-20400Y52581D01*
X-20483Y52652D01*
X-20571Y52716D01*
X-20665Y52771D01*
X-20763Y52818D01*
X-20865Y52857D01*
X-20970Y52886D01*
X-21078Y52906D01*
X-21186Y52917D01*
X-21294Y52918D01*
X-21403Y52909D01*
X-21510Y52892D01*
X-21616Y52865D01*
X-21718Y52828D01*
X-21818Y52783D01*
X-21913Y52730D01*
X-22002Y52668D01*
X-22087Y52599D01*
X-22164Y52523D01*
X-22235Y52440D01*
X-22299Y52352D01*
X-22354Y52258D01*
X-22401Y52160D01*
X-22440Y52058D01*
X-22469Y51953D01*
X-22475Y51927D01*
G54D13*
X-19242Y53294D02*
X-18729Y51884D01*
G54D20*
X-18709Y51892D02*
X-18615Y51837D01*
X-18517Y51790D01*
X-18415Y51751D01*
X-18310Y51722D01*
X-18202Y51702D01*
X-18094Y51691D01*
X-17986Y51690D01*
X-17877Y51699D01*
X-17770Y51716D01*
X-17664Y51743D01*
X-17562Y51780D01*
X-17462Y51825D01*
X-17367Y51878D01*
X-17278Y51940D01*
X-17193Y52009D01*
X-17116Y52085D01*
X-17045Y52168D01*
X-16981Y52256D01*
X-16926Y52350D01*
X-16879Y52448D01*
X-16840Y52550D01*
X-16811Y52655D01*
X-16791Y52763D01*
X-16780Y52871D01*
X-16779Y52979D01*
X-16788Y53088D01*
X-16805Y53195D01*
X-16832Y53301D01*
X-16869Y53403D01*
X-16914Y53503D01*
X-16967Y53598D01*
X-17029Y53687D01*
X-17098Y53772D01*
X-17174Y53849D01*
X-17257Y53920D01*
X-17345Y53984D01*
X-17439Y54039D01*
X-17537Y54086D01*
X-17639Y54125D01*
X-17744Y54154D01*
X-17852Y54174D01*
X-17960Y54185D01*
X-18068Y54186D01*
X-18177Y54177D01*
X-18284Y54160D01*
X-18390Y54133D01*
X-18492Y54096D01*
X-18592Y54051D01*
X-18687Y53998D01*
X-18776Y53936D01*
X-18861Y53867D01*
X-18938Y53791D01*
X-19009Y53708D01*
X-19073Y53620D01*
X-19128Y53526D01*
X-19175Y53428D01*
X-19214Y53326D01*
X-19222Y53301D01*
G54D13*
X-15863Y54431D02*
X-15475Y52982D01*
G54D20*
X-15455Y52987D02*
X-15366Y52923D01*
X-15272Y52868D01*
X-15174Y52821D01*
X-15072Y52782D01*
X-14967Y52753D01*
X-14860Y52733D01*
X-14751Y52722D01*
X-14643Y52721D01*
X-14534Y52730D01*
X-14427Y52747D01*
X-14321Y52774D01*
X-14218Y52811D01*
X-14119Y52856D01*
X-14024Y52909D01*
X-13934Y52971D01*
X-13850Y53040D01*
X-13772Y53116D01*
X-13701Y53199D01*
X-13637Y53288D01*
X-13582Y53382D01*
X-13535Y53480D01*
X-13496Y53582D01*
X-13467Y53687D01*
X-13447Y53794D01*
X-13436Y53903D01*
X-13435Y54011D01*
X-13444Y54120D01*
X-13461Y54227D01*
X-13488Y54333D01*
X-13525Y54436D01*
X-13570Y54535D01*
X-13623Y54630D01*
X-13685Y54720D01*
X-13754Y54804D01*
X-13830Y54882D01*
X-13913Y54953D01*
X-14002Y55017D01*
X-14096Y55072D01*
X-14194Y55119D01*
X-14296Y55158D01*
X-14401Y55187D01*
X-14508Y55207D01*
X-14617Y55218D01*
X-14725Y55219D01*
X-14834Y55210D01*
X-14941Y55193D01*
X-15047Y55166D01*
X-15150Y55129D01*
X-15249Y55084D01*
X-15344Y55031D01*
X-15434Y54969D01*
X-15518Y54900D01*
X-15596Y54824D01*
X-15667Y54741D01*
X-15731Y54652D01*
X-15786Y54558D01*
X-15833Y54460D01*
X-15843Y54436D01*
G54D13*
X-12474Y55367D02*
X-12214Y53890D01*
G54D20*
X-12193Y53894D02*
X-12110Y53823D01*
X-12021Y53759D01*
X-11927Y53704D01*
X-11829Y53657D01*
X-11727Y53618D01*
X-11622Y53589D01*
X-11515Y53569D01*
X-11406Y53558D01*
X-11298Y53557D01*
X-11189Y53566D01*
X-11082Y53583D01*
X-10976Y53610D01*
X-10873Y53647D01*
X-10774Y53692D01*
X-10679Y53745D01*
X-10589Y53807D01*
X-10505Y53876D01*
X-10427Y53952D01*
X-10356Y54035D01*
X-10292Y54124D01*
X-10237Y54218D01*
X-10190Y54316D01*
X-10151Y54418D01*
X-10122Y54523D01*
X-10102Y54630D01*
X-10091Y54739D01*
X-10090Y54847D01*
X-10099Y54956D01*
X-10116Y55063D01*
X-10143Y55169D01*
X-10180Y55272D01*
X-10225Y55371D01*
X-10278Y55466D01*
X-10340Y55556D01*
X-10409Y55640D01*
X-10485Y55718D01*
X-10568Y55789D01*
X-10657Y55853D01*
X-10751Y55908D01*
X-10849Y55955D01*
X-10951Y55994D01*
X-11056Y56023D01*
X-11163Y56043D01*
X-11272Y56054D01*
X-11380Y56055D01*
X-11489Y56046D01*
X-11596Y56029D01*
X-11702Y56002D01*
X-11805Y55965D01*
X-11904Y55920D01*
X-11999Y55867D01*
X-12089Y55805D01*
X-12173Y55736D01*
X-12251Y55660D01*
X-12322Y55577D01*
X-12386Y55488D01*
X-12441Y55394D01*
X-12453Y55371D01*
G54D13*
X-08428Y56297D02*
X-08245Y54808D01*
G54D20*
X-08222Y54810D02*
X-08143Y54735D01*
X-08058Y54667D01*
X-07967Y54607D01*
X-07871Y54555D01*
X-07771Y54511D01*
X-07668Y54477D01*
X-07562Y54451D01*
X-07454Y54435D01*
X-07345Y54429D01*
X-07237Y54432D01*
X-07129Y54444D01*
X-07022Y54466D01*
X-06918Y54497D01*
X-06816Y54536D01*
X-06719Y54585D01*
X-06626Y54642D01*
X-06538Y54707D01*
X-06457Y54779D01*
X-06382Y54858D01*
X-06314Y54943D01*
X-06254Y55034D01*
X-06202Y55130D01*
X-06158Y55230D01*
X-06124Y55333D01*
X-06098Y55439D01*
X-06082Y55547D01*
X-06076Y55656D01*
X-06079Y55764D01*
X-06091Y55872D01*
X-06113Y55979D01*
X-06144Y56083D01*
X-06183Y56185D01*
X-06232Y56282D01*
X-06289Y56375D01*
X-06354Y56463D01*
X-06426Y56544D01*
X-06505Y56619D01*
X-06590Y56687D01*
X-06681Y56747D01*
X-06777Y56799D01*
X-06877Y56843D01*
X-06980Y56877D01*
X-07086Y56903D01*
X-07194Y56919D01*
X-07303Y56925D01*
X-07411Y56922D01*
X-07519Y56910D01*
X-07626Y56888D01*
X-07730Y56857D01*
X-07832Y56818D01*
X-07929Y56769D01*
X-08022Y56712D01*
X-08110Y56647D01*
X-08191Y56575D01*
X-08266Y56496D01*
X-08334Y56411D01*
X-08394Y56320D01*
X-08407Y56297D01*
G54D13*
X-05148Y56428D02*
X-05082Y54930D01*
G54D20*
X-05059Y54930D02*
X-04986Y54849D01*
X-04907Y54775D01*
X-04821Y54708D01*
X-04729Y54648D01*
X-04633Y54597D01*
X-04533Y54555D01*
X-04429Y54521D01*
X-04323Y54496D01*
X-04215Y54481D01*
X-04106Y54476D01*
X-03999Y54479D01*
X-03890Y54493D01*
X-03784Y54515D01*
X-03680Y54547D01*
X-03579Y54588D01*
X-03481Y54637D01*
X-03389Y54695D01*
X-03302Y54761D01*
X-03221Y54834D01*
X-03147Y54913D01*
X-03080Y54999D01*
X-03020Y55091D01*
X-02969Y55187D01*
X-02927Y55287D01*
X-02893Y55391D01*
X-02868Y55497D01*
X-02853Y55605D01*
X-02848Y55714D01*
X-02851Y55821D01*
X-02865Y55930D01*
X-02887Y56036D01*
X-02919Y56140D01*
X-02960Y56241D01*
X-03009Y56339D01*
X-03067Y56431D01*
X-03133Y56518D01*
X-03206Y56599D01*
X-03285Y56673D01*
X-03371Y56740D01*
X-03463Y56800D01*
X-03559Y56851D01*
X-03659Y56893D01*
X-03763Y56927D01*
X-03869Y56952D01*
X-03977Y56967D01*
X-04086Y56972D01*
X-04193Y56969D01*
X-04302Y56955D01*
X-04408Y56933D01*
X-04512Y56901D01*
X-04613Y56860D01*
X-04711Y56811D01*
X-04803Y56753D01*
X-04890Y56687D01*
X-04971Y56614D01*
X-05045Y56535D01*
X-05112Y56449D01*
X-05127Y56427D01*
G54D13*
X09716Y55834D02*
X09456Y54357D01*
G54D20*
X09477Y54353D02*
X09530Y54258D01*
X09592Y54168D01*
X09661Y54084D01*
X09737Y54006D01*
X09820Y53935D01*
X09909Y53871D01*
X10003Y53816D01*
X10101Y53769D01*
X10203Y53730D01*
X10308Y53701D01*
X10415Y53681D01*
X10524Y53670D01*
X10632Y53669D01*
X10741Y53678D01*
X10848Y53695D01*
X10954Y53722D01*
X11057Y53759D01*
X11156Y53804D01*
X11251Y53857D01*
X11341Y53919D01*
X11425Y53988D01*
X11503Y54064D01*
X11574Y54147D01*
X11638Y54236D01*
X11693Y54330D01*
X11740Y54428D01*
X11779Y54530D01*
X11808Y54635D01*
X11828Y54742D01*
X11839Y54851D01*
X11840Y54959D01*
X11831Y55068D01*
X11814Y55175D01*
X11787Y55281D01*
X11750Y55384D01*
X11705Y55483D01*
X11652Y55578D01*
X11590Y55668D01*
X11521Y55752D01*
X11445Y55830D01*
X11362Y55901D01*
X11273Y55965D01*
X11179Y56020D01*
X11081Y56067D01*
X10979Y56106D01*
X10874Y56135D01*
X10767Y56155D01*
X10658Y56166D01*
X10550Y56167D01*
X10441Y56158D01*
X10334Y56141D01*
X10228Y56114D01*
X10125Y56077D01*
X10026Y56032D01*
X09931Y55979D01*
X09841Y55917D01*
X09757Y55848D01*
X09737Y55830D01*
G54D13*
X05581Y56382D02*
X05386Y54895D01*
G54D20*
X05406Y54892D02*
X05464Y54799D01*
X05530Y54712D01*
X05602Y54631D01*
X05682Y54556D01*
X05768Y54489D01*
X05859Y54430D01*
X05955Y54378D01*
X06056Y54335D01*
X06159Y54302D01*
X06266Y54277D01*
X06374Y54261D01*
X06482Y54256D01*
X06590Y54259D01*
X06699Y54272D01*
X06805Y54295D01*
X06910Y54326D01*
X07011Y54367D01*
X07108Y54416D01*
X07201Y54474D01*
X07288Y54540D01*
X07369Y54612D01*
X07444Y54692D01*
X07511Y54778D01*
X07570Y54869D01*
X07622Y54965D01*
X07665Y55066D01*
X07698Y55169D01*
X07723Y55276D01*
X07739Y55384D01*
X07744Y55492D01*
X07741Y55600D01*
X07728Y55709D01*
X07705Y55815D01*
X07674Y55920D01*
X07633Y56021D01*
X07584Y56118D01*
X07526Y56211D01*
X07460Y56298D01*
X07388Y56379D01*
X07308Y56454D01*
X07222Y56521D01*
X07131Y56580D01*
X07035Y56632D01*
X06934Y56675D01*
X06831Y56708D01*
X06724Y56733D01*
X06616Y56749D01*
X06508Y56754D01*
X06400Y56751D01*
X06291Y56738D01*
X06185Y56715D01*
X06080Y56684D01*
X05979Y56643D01*
X05882Y56594D01*
X05789Y56536D01*
X05702Y56470D01*
X05621Y56398D01*
X05602Y56379D01*
G54D13*
X-01534Y56596D02*
X-01534Y55096D01*
G54D20*
X-01513Y55096D02*
X-01444Y55012D01*
X-01368Y54934D01*
X-01285Y54863D01*
X-01196Y54799D01*
X-01102Y54744D01*
X-01004Y54697D01*
X-00902Y54658D01*
X-00797Y54629D01*
X-00690Y54609D01*
X-00581Y54598D01*
X-00473Y54597D01*
X-00364Y54606D01*
X-00257Y54623D01*
X-00151Y54650D01*
X-00048Y54687D01*
X00051Y54732D01*
X00146Y54785D01*
X00236Y54847D01*
X00320Y54916D01*
X00398Y54992D01*
X00469Y55075D01*
X00533Y55164D01*
X00588Y55258D01*
X00635Y55356D01*
X00674Y55458D01*
X00703Y55563D01*
X00723Y55670D01*
X00734Y55779D01*
X00735Y55887D01*
X00726Y55996D01*
X00709Y56103D01*
X00682Y56209D01*
X00645Y56312D01*
X00600Y56411D01*
X00547Y56506D01*
X00485Y56596D01*
X00416Y56680D01*
X00340Y56758D01*
X00257Y56829D01*
X00168Y56893D01*
X00074Y56948D01*
X-00024Y56995D01*
X-00126Y57034D01*
X-00231Y57063D01*
X-00338Y57083D01*
X-00447Y57094D01*
X-00555Y57095D01*
X-00664Y57086D01*
X-00771Y57069D01*
X-00877Y57042D01*
X-00980Y57005D01*
X-01079Y56960D01*
X-01174Y56907D01*
X-01264Y56845D01*
X-01348Y56776D01*
X-01426Y56700D01*
X-01497Y56617D01*
X-01513Y56596D01*
G54D13*
X29642Y48287D02*
X28870Y47001D01*
G54D20*
X28888Y46989D02*
X28904Y46881D01*
X28930Y46775D01*
X28964Y46672D01*
X29008Y46572D01*
X29060Y46476D01*
X29120Y46385D01*
X29188Y46300D01*
X29263Y46221D01*
X29344Y46149D01*
X29432Y46084D01*
X29525Y46027D01*
X29622Y45978D01*
X29724Y45939D01*
X29828Y45908D01*
X29935Y45886D01*
X30043Y45874D01*
X30151Y45871D01*
X30260Y45877D01*
X30368Y45893D01*
X30474Y45919D01*
X30577Y45953D01*
X30677Y45997D01*
X30773Y46049D01*
X30864Y46109D01*
X30949Y46177D01*
X31028Y46252D01*
X31100Y46333D01*
X31165Y46421D01*
X31222Y46514D01*
X31271Y46611D01*
X31310Y46713D01*
X31341Y46817D01*
X31363Y46924D01*
X31375Y47032D01*
X31378Y47140D01*
X31372Y47249D01*
X31356Y47357D01*
X31330Y47463D01*
X31296Y47566D01*
X31252Y47666D01*
X31200Y47762D01*
X31140Y47853D01*
X31072Y47938D01*
X30997Y48017D01*
X30916Y48089D01*
X30828Y48154D01*
X30735Y48211D01*
X30638Y48260D01*
X30536Y48299D01*
X30432Y48330D01*
X30325Y48352D01*
X30217Y48364D01*
X30109Y48367D01*
X30000Y48361D01*
X29892Y48345D01*
X29786Y48319D01*
X29683Y48285D01*
X29659Y48275D01*
G54D15*
X-08069Y47577D02*
X-08072Y47550D01*
X-08080Y47523D01*
X-08093Y47499D01*
X-08111Y47477D01*
X-08132Y47460D01*
X-08156Y47447D01*
X-08183Y47438D01*
X-08211Y47436D01*
X-08237Y47438D01*
X-08264Y47446D01*
X-08288Y47459D01*
X-08310Y47476D01*
X-08328Y47497D01*
X-08341Y47522D01*
X-08349Y47548D01*
X-08352Y47576D01*
X-08350Y47602D01*
X-08343Y47629D01*
X-08330Y47653D01*
X-08313Y47675D01*
X-08292Y47693D01*
X-08267Y47707D01*
X-08241Y47715D01*
X-08213Y47718D01*
X-08187Y47716D01*
X-08160Y47709D01*
X-08135Y47696D01*
X-08114Y47679D01*
X-08095Y47658D01*
X-08082Y47634D01*
X-08073Y47608D01*
X-08070Y47580D01*
X-08069Y47577D01*
X-07777Y46547D02*
X-08070Y46482D01*
X-08070Y46482D02*
X-08178Y46970D01*
X-08178Y46970D02*
X-07886Y47035D01*
X-12013Y46939D02*
X-08059Y47816D01*
X-07604Y45766D02*
X-11558Y44889D01*
X-07604Y45766D02*
X-08059Y47816D01*
X-11558Y44889D02*
X-12013Y46939D01*
X-11943Y43791D02*
X-11944Y43782D01*
X-11947Y43773D01*
X-11952Y43764D01*
X-11958Y43757D01*
X-11965Y43751D01*
X-11974Y43746D01*
X-11983Y43744D01*
X-11992Y43743D01*
X-12001Y43743D01*
X-12010Y43746D01*
X-12018Y43750D01*
X-12026Y43756D01*
X-12032Y43764D01*
X-12037Y43772D01*
X-12039Y43781D01*
X-12040Y43791D01*
X-12040Y43799D01*
X-12037Y43809D01*
X-12033Y43817D01*
X-12027Y43825D01*
X-12019Y43831D01*
X-12011Y43835D01*
X-12002Y43838D01*
X-11993Y43839D01*
X-11984Y43839D01*
X-11975Y43836D01*
X-11966Y43832D01*
X-11959Y43826D01*
X-11952Y43819D01*
X-11948Y43810D01*
X-11945Y43801D01*
X-11944Y43792D01*
X-11943Y43791D01*
X-12415Y43637D02*
X-12039Y43774D01*
X-12039Y43774D02*
X-11834Y43210D01*
X-11834Y43210D02*
X-12209Y43073D01*
X-12585Y42937D02*
X-12961Y42800D01*
X-12961Y42800D02*
X-13166Y43364D01*
X-13166Y43364D02*
X-12791Y43501D01*
X-12101Y44815D02*
X-12102Y44806D01*
X-12105Y44797D01*
X-12110Y44788D01*
X-12116Y44781D01*
X-12123Y44775D01*
X-12132Y44770D01*
X-12141Y44768D01*
X-12150Y44767D01*
X-12159Y44767D01*
X-12168Y44770D01*
X-12176Y44774D01*
X-12184Y44780D01*
X-12190Y44788D01*
X-12195Y44796D01*
X-12197Y44805D01*
X-12198Y44815D01*
X-12198Y44823D01*
X-12195Y44833D01*
X-12191Y44841D01*
X-12185Y44849D01*
X-12177Y44855D01*
X-12169Y44859D01*
X-12160Y44862D01*
X-12151Y44863D01*
X-12142Y44863D01*
X-12133Y44860D01*
X-12124Y44856D01*
X-12117Y44850D01*
X-12110Y44843D01*
X-12106Y44834D01*
X-12103Y44825D01*
X-12102Y44816D01*
X-12101Y44815D01*
X-12573Y44661D02*
X-12197Y44798D01*
X-12197Y44798D02*
X-11992Y44234D01*
X-11992Y44234D02*
X-12367Y44097D01*
X-12743Y43961D02*
X-13119Y43824D01*
X-13119Y43824D02*
X-13324Y44388D01*
X-13324Y44388D02*
X-12949Y44525D01*
G54D17*
X-13850Y42692D02*
X-13807Y42572D01*
X-13807Y42572D02*
X-13622Y42639D01*
X-13665Y42760D02*
X-13622Y42639D01*
X-13850Y42692D02*
X-13665Y42760D01*
X-13934Y42922D02*
X-13914Y42867D01*
X-13914Y42867D02*
X-13821Y42901D01*
X-13841Y42956D02*
X-13821Y42901D01*
X-13934Y42922D02*
X-13841Y42956D01*
X-13868Y42739D02*
X-13847Y42684D01*
X-13847Y42684D02*
X-13754Y42718D01*
X-13775Y42773D02*
X-13754Y42718D01*
X-13868Y42739D02*
X-13775Y42773D01*
X-13917Y42876D02*
X-13864Y42730D01*
X-13864Y42730D02*
X-13799Y42753D01*
X-13853Y42900D02*
X-13799Y42753D01*
X-13917Y42876D02*
X-13853Y42900D01*
X-14404Y42491D02*
X-14360Y42370D01*
X-14360Y42370D02*
X-14175Y42438D01*
X-14219Y42558D02*
X-14175Y42438D01*
X-14404Y42491D02*
X-14219Y42558D01*
X-14528Y42833D02*
X-14485Y42712D01*
X-14485Y42712D02*
X-14300Y42780D01*
X-14343Y42900D02*
X-14300Y42780D01*
X-14528Y42833D02*
X-14343Y42900D01*
X-14329Y42571D02*
X-14309Y42516D01*
X-14309Y42516D02*
X-14216Y42550D01*
X-14236Y42605D02*
X-14216Y42550D01*
X-14329Y42571D02*
X-14236Y42605D01*
X-14396Y42754D02*
X-14375Y42699D01*
X-14375Y42699D02*
X-14282Y42733D01*
X-14303Y42788D02*
X-14282Y42733D01*
X-14396Y42754D02*
X-14303Y42788D01*
X-14351Y42719D02*
X-14297Y42572D01*
X-14297Y42572D02*
X-14233Y42596D01*
X-14286Y42742D02*
X-14233Y42596D01*
X-14351Y42719D02*
X-14286Y42742D01*
X-14088Y42773D02*
X-14062Y42699D01*
X-14062Y42699D02*
X-13988Y42726D01*
X-14015Y42799D02*
X-13988Y42726D01*
X-14088Y42773D02*
X-14015Y42799D01*
X-13972Y43025D02*
X-13931Y42914D01*
X-13931Y42914D02*
X-13820Y42954D01*
X-13861Y43065D02*
X-13820Y42954D01*
X-13972Y43025D02*
X-13861Y43065D01*
X-13817Y43092D02*
X-13787Y43008D01*
X-13787Y43008D02*
X-13759Y43018D01*
X-13790Y43102D02*
X-13759Y43018D01*
X-13817Y43092D02*
X-13790Y43102D01*
G54D18*
X-13804Y42594D02*
X-14191Y42453D01*
X-14336Y42881D02*
X-13810Y43073D01*
G54D19*
X-13795Y43017D02*
X-13796Y43012D01*
X-13798Y43007D01*
X-13800Y43003D01*
X-13803Y42998D01*
X-13807Y42995D01*
X-13812Y42993D01*
X-13817Y42991D01*
X-13822Y42991D01*
X-13827Y42991D01*
X-13832Y42992D01*
X-13836Y42995D01*
X-13840Y42998D01*
X-13844Y43002D01*
X-13846Y43007D01*
X-13848Y43012D01*
X-13848Y43017D01*
X-13848Y43021D01*
X-13847Y43026D01*
X-13844Y43031D01*
X-13841Y43035D01*
X-13837Y43039D01*
X-13832Y43041D01*
X-13827Y43043D01*
X-13822Y43043D01*
X-13818Y43043D01*
X-13813Y43042D01*
X-13808Y43039D01*
X-13804Y43036D01*
X-13800Y43032D01*
X-13798Y43027D01*
X-13796Y43022D01*
X-13796Y43017D01*
X-13795Y43017D01*
G54D18*
X-13752Y42997D02*
X-13763Y42993D01*
X-13774Y42987D01*
X-13784Y42981D01*
X-13793Y42973D01*
X-13802Y42965D01*
X-13810Y42957D01*
X-13817Y42947D01*
X-13824Y42937D01*
X-13829Y42927D01*
X-13833Y42916D01*
X-13837Y42904D01*
X-13840Y42893D01*
X-13841Y42881D01*
X-13841Y42870D01*
X-13841Y42858D01*
X-13839Y42846D01*
X-13837Y42835D01*
X-13833Y42824D01*
X-13829Y42813D01*
X-13823Y42802D01*
X-13817Y42792D01*
X-13809Y42783D01*
X-13801Y42774D01*
X-13793Y42766D01*
X-13783Y42759D01*
X-13773Y42752D01*
X-13763Y42747D01*
X-13752Y42743D01*
X-13740Y42739D01*
X-13729Y42736D01*
X-13717Y42735D01*
X-13706Y42735D01*
X-13694Y42735D01*
X-13682Y42737D01*
X-13671Y42739D01*
X-13660Y42743D01*
X-14398Y42475D02*
X-14387Y42479D01*
X-14376Y42485D01*
X-14366Y42491D01*
X-14357Y42499D01*
X-14348Y42507D01*
X-14340Y42515D01*
X-14333Y42525D01*
X-14326Y42535D01*
X-14321Y42545D01*
X-14317Y42556D01*
X-14313Y42568D01*
X-14310Y42579D01*
X-14309Y42591D01*
X-14309Y42602D01*
X-14309Y42614D01*
X-14311Y42626D01*
X-14313Y42637D01*
X-14317Y42648D01*
X-14321Y42659D01*
X-14327Y42670D01*
X-14333Y42680D01*
X-14341Y42689D01*
X-14349Y42698D01*
X-14357Y42706D01*
X-14367Y42713D01*
X-14377Y42720D01*
X-14387Y42725D01*
X-14398Y42729D01*
X-14410Y42733D01*
X-14421Y42736D01*
X-14433Y42737D01*
X-14444Y42737D01*
X-14456Y42737D01*
X-14468Y42735D01*
X-14479Y42733D01*
X-14490Y42729D01*
G54D17*
X-14244Y43716D02*
X-14201Y43596D01*
X-14201Y43596D02*
X-14016Y43663D01*
X-14059Y43784D02*
X-14016Y43663D01*
X-14244Y43716D02*
X-14059Y43784D01*
X-14328Y43946D02*
X-14308Y43891D01*
X-14308Y43891D02*
X-14215Y43925D01*
X-14235Y43980D02*
X-14215Y43925D01*
X-14328Y43946D02*
X-14235Y43980D01*
X-14262Y43763D02*
X-14241Y43708D01*
X-14241Y43708D02*
X-14148Y43742D01*
X-14169Y43797D02*
X-14148Y43742D01*
X-14262Y43763D02*
X-14169Y43797D01*
X-14311Y43900D02*
X-14258Y43754D01*
X-14258Y43754D02*
X-14193Y43777D01*
X-14247Y43924D02*
X-14193Y43777D01*
X-14311Y43900D02*
X-14247Y43924D01*
X-14798Y43515D02*
X-14754Y43394D01*
X-14754Y43394D02*
X-14569Y43462D01*
X-14613Y43582D02*
X-14569Y43462D01*
X-14798Y43515D02*
X-14613Y43582D01*
X-14922Y43857D02*
X-14879Y43736D01*
X-14879Y43736D02*
X-14694Y43804D01*
X-14737Y43924D02*
X-14694Y43804D01*
X-14922Y43857D02*
X-14737Y43924D01*
X-14723Y43595D02*
X-14703Y43540D01*
X-14703Y43540D02*
X-14610Y43574D01*
X-14630Y43629D02*
X-14610Y43574D01*
X-14723Y43595D02*
X-14630Y43629D01*
X-14790Y43778D02*
X-14769Y43723D01*
X-14769Y43723D02*
X-14676Y43757D01*
X-14697Y43812D02*
X-14676Y43757D01*
X-14790Y43778D02*
X-14697Y43812D01*
X-14745Y43743D02*
X-14691Y43596D01*
X-14691Y43596D02*
X-14627Y43620D01*
X-14680Y43766D02*
X-14627Y43620D01*
X-14745Y43743D02*
X-14680Y43766D01*
X-14482Y43797D02*
X-14456Y43723D01*
X-14456Y43723D02*
X-14382Y43750D01*
X-14409Y43823D02*
X-14382Y43750D01*
X-14482Y43797D02*
X-14409Y43823D01*
X-14366Y44049D02*
X-14325Y43938D01*
X-14325Y43938D02*
X-14214Y43978D01*
X-14255Y44089D02*
X-14214Y43978D01*
X-14366Y44049D02*
X-14255Y44089D01*
X-14211Y44116D02*
X-14181Y44032D01*
X-14181Y44032D02*
X-14153Y44042D01*
X-14184Y44126D02*
X-14153Y44042D01*
X-14211Y44116D02*
X-14184Y44126D01*
G54D18*
X-14198Y43618D02*
X-14585Y43477D01*
X-14730Y43905D02*
X-14204Y44097D01*
G54D19*
X-14189Y44041D02*
X-14190Y44036D01*
X-14192Y44031D01*
X-14194Y44027D01*
X-14197Y44022D01*
X-14201Y44019D01*
X-14206Y44017D01*
X-14211Y44015D01*
X-14216Y44015D01*
X-14221Y44015D01*
X-14226Y44016D01*
X-14230Y44019D01*
X-14234Y44022D01*
X-14238Y44026D01*
X-14240Y44031D01*
X-14242Y44036D01*
X-14242Y44041D01*
X-14242Y44045D01*
X-14241Y44050D01*
X-14238Y44055D01*
X-14235Y44059D01*
X-14231Y44063D01*
X-14226Y44065D01*
X-14221Y44067D01*
X-14216Y44067D01*
X-14212Y44067D01*
X-14207Y44066D01*
X-14202Y44063D01*
X-14198Y44060D01*
X-14194Y44056D01*
X-14192Y44051D01*
X-14190Y44046D01*
X-14190Y44041D01*
X-14189Y44041D01*
G54D18*
X-14146Y44021D02*
X-14157Y44017D01*
X-14168Y44011D01*
X-14178Y44005D01*
X-14187Y43997D01*
X-14196Y43989D01*
X-14204Y43981D01*
X-14211Y43971D01*
X-14218Y43961D01*
X-14223Y43951D01*
X-14227Y43940D01*
X-14231Y43928D01*
X-14234Y43917D01*
X-14235Y43905D01*
X-14235Y43894D01*
X-14235Y43882D01*
X-14233Y43870D01*
X-14231Y43859D01*
X-14227Y43848D01*
X-14223Y43837D01*
X-14217Y43826D01*
X-14211Y43816D01*
X-14203Y43807D01*
X-14195Y43798D01*
X-14187Y43790D01*
X-14177Y43783D01*
X-14167Y43776D01*
X-14157Y43771D01*
X-14146Y43767D01*
X-14134Y43763D01*
X-14123Y43760D01*
X-14111Y43759D01*
X-14100Y43759D01*
X-14088Y43759D01*
X-14076Y43761D01*
X-14065Y43763D01*
X-14054Y43767D01*
X-14792Y43499D02*
X-14781Y43503D01*
X-14770Y43509D01*
X-14760Y43515D01*
X-14751Y43523D01*
X-14742Y43531D01*
X-14734Y43539D01*
X-14727Y43549D01*
X-14720Y43559D01*
X-14715Y43569D01*
X-14711Y43580D01*
X-14707Y43592D01*
X-14704Y43603D01*
X-14703Y43615D01*
X-14703Y43626D01*
X-14703Y43638D01*
X-14705Y43650D01*
X-14707Y43661D01*
X-14711Y43672D01*
X-14715Y43683D01*
X-14721Y43694D01*
X-14727Y43704D01*
X-14735Y43713D01*
X-14743Y43722D01*
X-14751Y43730D01*
X-14761Y43737D01*
X-14771Y43744D01*
X-14781Y43749D01*
X-14792Y43753D01*
X-14804Y43757D01*
X-14815Y43760D01*
X-14827Y43761D01*
X-14838Y43761D01*
X-14850Y43761D01*
X-14862Y43759D01*
X-14873Y43757D01*
X-14884Y43753D01*
G54D17*
X01554Y53799D02*
X01554Y53671D01*
X01554Y53671D02*
X01751Y53671D01*
X01751Y53799D02*
X01751Y53671D01*
X01554Y53799D02*
X01751Y53799D01*
X01554Y54044D02*
X01554Y53985D01*
X01554Y53985D02*
X01653Y53985D01*
X01653Y54044D02*
X01653Y53985D01*
X01554Y54044D02*
X01653Y54044D01*
X01554Y53849D02*
X01554Y53790D01*
X01554Y53790D02*
X01653Y53790D01*
X01653Y53849D02*
X01653Y53790D01*
X01554Y53849D02*
X01653Y53849D01*
X01554Y53995D02*
X01554Y53839D01*
X01554Y53839D02*
X01623Y53839D01*
X01623Y53995D02*
X01623Y53839D01*
X01554Y53995D02*
X01623Y53995D01*
X00965Y53799D02*
X00965Y53671D01*
X00965Y53671D02*
X01162Y53671D01*
X01162Y53799D02*
X01162Y53671D01*
X00965Y53799D02*
X01162Y53799D01*
X00965Y54163D02*
X00965Y54035D01*
X00965Y54035D02*
X01162Y54035D01*
X01162Y54163D02*
X01162Y54035D01*
X00965Y54163D02*
X01162Y54163D01*
X01063Y53849D02*
X01063Y53790D01*
X01063Y53790D02*
X01162Y53790D01*
X01162Y53849D02*
X01162Y53790D01*
X01063Y53849D02*
X01162Y53849D01*
X01063Y54044D02*
X01063Y53985D01*
X01063Y53985D02*
X01162Y53985D01*
X01162Y54044D02*
X01162Y53985D01*
X01063Y54044D02*
X01162Y54044D01*
X01093Y53995D02*
X01093Y53839D01*
X01093Y53839D02*
X01162Y53839D01*
X01162Y53995D02*
X01162Y53839D01*
X01093Y53995D02*
X01162Y53995D01*
X01358Y53956D02*
X01358Y53878D01*
X01358Y53878D02*
X01436Y53878D01*
X01436Y53956D02*
X01436Y53878D01*
X01358Y53956D02*
X01436Y53956D01*
X01554Y54153D02*
X01554Y54035D01*
X01554Y54035D02*
X01672Y54035D01*
X01672Y54153D02*
X01672Y54035D01*
X01554Y54153D02*
X01672Y54153D01*
X01722Y54163D02*
X01722Y54074D01*
X01722Y54074D02*
X01751Y54074D01*
X01751Y54163D02*
X01751Y54074D01*
X01722Y54163D02*
X01751Y54163D01*
G54D18*
X01564Y53691D02*
X01152Y53691D01*
X01162Y54143D02*
X01722Y54143D01*
G54D19*
X01720Y54094D02*
X01719Y54089D01*
X01717Y54084D01*
X01715Y54079D01*
X01711Y54075D01*
X01707Y54071D01*
X01702Y54069D01*
X01697Y54067D01*
X01692Y54067D01*
X01687Y54067D01*
X01682Y54069D01*
X01677Y54071D01*
X01673Y54074D01*
X01669Y54079D01*
X01667Y54083D01*
X01665Y54089D01*
X01665Y54094D01*
X01665Y54099D01*
X01666Y54104D01*
X01669Y54109D01*
X01672Y54113D01*
X01677Y54116D01*
X01681Y54119D01*
X01686Y54121D01*
X01692Y54121D01*
X01696Y54121D01*
X01702Y54120D01*
X01707Y54117D01*
X01711Y54114D01*
X01714Y54110D01*
X01717Y54105D01*
X01719Y54100D01*
X01719Y54094D01*
X01720Y54094D01*
G54D18*
X01751Y54054D02*
X01740Y54053D01*
X01728Y54051D01*
X01716Y54049D01*
X01705Y54045D01*
X01694Y54041D01*
X01683Y54035D01*
X01673Y54029D01*
X01663Y54021D01*
X01655Y54013D01*
X01647Y54005D01*
X01639Y53995D01*
X01633Y53985D01*
X01627Y53974D01*
X01623Y53963D01*
X01619Y53952D01*
X01617Y53940D01*
X01615Y53928D01*
X01614Y53917D01*
X01615Y53906D01*
X01617Y53894D01*
X01619Y53882D01*
X01623Y53871D01*
X01627Y53860D01*
X01633Y53849D01*
X01639Y53839D01*
X01647Y53829D01*
X01655Y53821D01*
X01663Y53813D01*
X01673Y53805D01*
X01683Y53799D01*
X01694Y53793D01*
X01705Y53789D01*
X01716Y53785D01*
X01728Y53783D01*
X01740Y53781D01*
X01751Y53780D01*
X00965Y53780D02*
X00976Y53781D01*
X00988Y53783D01*
X01000Y53785D01*
X01011Y53789D01*
X01022Y53793D01*
X01033Y53799D01*
X01043Y53805D01*
X01053Y53813D01*
X01061Y53821D01*
X01069Y53829D01*
X01077Y53839D01*
X01083Y53849D01*
X01089Y53860D01*
X01093Y53871D01*
X01097Y53882D01*
X01099Y53894D01*
X01101Y53906D01*
X01102Y53917D01*
X01101Y53928D01*
X01099Y53940D01*
X01097Y53952D01*
X01093Y53963D01*
X01089Y53974D01*
X01083Y53985D01*
X01077Y53995D01*
X01069Y54005D01*
X01061Y54013D01*
X01053Y54021D01*
X01043Y54029D01*
X01033Y54035D01*
X01022Y54041D01*
X01011Y54045D01*
X01000Y54049D01*
X00988Y54051D01*
X00976Y54053D01*
X00965Y54054D01*
G54D15*
X-01482Y50038D02*
X-01483Y50029D01*
X-01486Y50019D01*
X-01491Y50011D01*
X-01497Y50003D01*
X-01505Y49997D01*
X-01513Y49992D01*
X-01522Y49990D01*
X-01532Y49989D01*
X-01541Y49989D01*
X-01550Y49992D01*
X-01559Y49997D01*
X-01566Y50003D01*
X-01573Y50010D01*
X-01577Y50019D01*
X-01580Y50028D01*
X-01581Y50038D01*
X-01581Y50047D01*
X-01578Y50056D01*
X-01574Y50065D01*
X-01567Y50072D01*
X-01560Y50079D01*
X-01552Y50083D01*
X-01542Y50086D01*
X-01533Y50087D01*
X-01524Y50087D01*
X-01514Y50084D01*
X-01506Y50080D01*
X-01498Y50074D01*
X-01492Y50066D01*
X-01487Y50058D01*
X-01484Y50049D01*
X-01483Y50039D01*
X-01482Y50038D01*
X-01532Y50488D02*
X-01532Y50088D01*
X-01532Y50088D02*
X-02132Y50088D01*
X-02132Y50088D02*
X-02132Y50488D01*
X-02132Y50888D02*
X-02132Y51288D01*
X-02132Y51288D02*
X-01532Y51288D01*
X-01532Y51288D02*
X-01532Y50888D01*
X04560Y50441D02*
X04559Y50432D01*
X04556Y50422D01*
X04551Y50414D01*
X04545Y50406D01*
X04537Y50400D01*
X04529Y50395D01*
X04520Y50393D01*
X04510Y50392D01*
X04501Y50392D01*
X04492Y50395D01*
X04483Y50400D01*
X04476Y50406D01*
X04469Y50413D01*
X04465Y50422D01*
X04462Y50431D01*
X04461Y50441D01*
X04461Y50450D01*
X04464Y50459D01*
X04468Y50468D01*
X04475Y50475D01*
X04482Y50482D01*
X04490Y50486D01*
X04500Y50489D01*
X04509Y50490D01*
X04518Y50490D01*
X04528Y50487D01*
X04536Y50483D01*
X04544Y50477D01*
X04550Y50469D01*
X04555Y50461D01*
X04558Y50452D01*
X04559Y50442D01*
X04560Y50441D01*
X04192Y50759D02*
X04474Y50476D01*
X04474Y50476D02*
X04050Y50052D01*
X04050Y50052D02*
X03767Y50334D01*
X03484Y50617D02*
X03202Y50900D01*
X03202Y50900D02*
X03626Y51324D01*
X03626Y51324D02*
X03909Y51042D01*
X-02627Y48626D02*
X-02628Y48617D01*
X-02631Y48607D01*
X-02636Y48599D01*
X-02642Y48591D01*
X-02650Y48585D01*
X-02658Y48580D01*
X-02667Y48578D01*
X-02677Y48577D01*
X-02686Y48577D01*
X-02695Y48580D01*
X-02704Y48585D01*
X-02711Y48591D01*
X-02718Y48598D01*
X-02722Y48607D01*
X-02725Y48616D01*
X-02726Y48626D01*
X-02726Y48635D01*
X-02723Y48644D01*
X-02719Y48653D01*
X-02712Y48660D01*
X-02705Y48667D01*
X-02697Y48671D01*
X-02687Y48674D01*
X-02678Y48675D01*
X-02669Y48675D01*
X-02659Y48672D01*
X-02651Y48668D01*
X-02643Y48662D01*
X-02637Y48654D01*
X-02632Y48646D01*
X-02629Y48637D01*
X-02628Y48627D01*
X-02627Y48626D01*
X-03127Y48626D02*
X-02727Y48626D01*
X-02727Y48626D02*
X-02727Y48026D01*
X-02727Y48026D02*
X-03127Y48026D01*
X-03527Y48026D02*
X-03927Y48026D01*
X-03927Y48026D02*
X-03927Y48626D01*
X-03927Y48626D02*
X-03527Y48626D01*
X-12613Y46626D02*
X-12614Y46617D01*
X-12617Y46608D01*
X-12622Y46599D01*
X-12628Y46592D01*
X-12635Y46586D01*
X-12644Y46581D01*
X-12653Y46579D01*
X-12662Y46578D01*
X-12671Y46578D01*
X-12680Y46581D01*
X-12688Y46585D01*
X-12696Y46591D01*
X-12702Y46599D01*
X-12707Y46607D01*
X-12709Y46616D01*
X-12710Y46626D01*
X-12710Y46634D01*
X-12707Y46644D01*
X-12703Y46652D01*
X-12697Y46660D01*
X-12689Y46666D01*
X-12681Y46670D01*
X-12672Y46673D01*
X-12663Y46674D01*
X-12654Y46674D01*
X-12645Y46671D01*
X-12636Y46667D01*
X-12629Y46661D01*
X-12622Y46654D01*
X-12618Y46645D01*
X-12615Y46636D01*
X-12614Y46627D01*
X-12613Y46626D01*
X-13085Y46472D02*
X-12709Y46609D01*
X-12709Y46609D02*
X-12504Y46045D01*
X-12504Y46045D02*
X-12879Y45908D01*
X-13255Y45772D02*
X-13631Y45635D01*
X-13631Y45635D02*
X-13836Y46199D01*
X-13836Y46199D02*
X-13461Y46336D01*
X-12731Y47610D02*
X-12732Y47601D01*
X-12735Y47592D01*
X-12740Y47583D01*
X-12746Y47576D01*
X-12753Y47570D01*
X-12762Y47565D01*
X-12771Y47563D01*
X-12780Y47562D01*
X-12789Y47562D01*
X-12798Y47565D01*
X-12806Y47569D01*
X-12814Y47575D01*
X-12820Y47583D01*
X-12825Y47591D01*
X-12827Y47600D01*
X-12828Y47610D01*
X-12828Y47618D01*
X-12825Y47628D01*
X-12821Y47636D01*
X-12815Y47644D01*
X-12807Y47650D01*
X-12799Y47654D01*
X-12790Y47657D01*
X-12781Y47658D01*
X-12772Y47658D01*
X-12763Y47655D01*
X-12754Y47651D01*
X-12747Y47645D01*
X-12740Y47638D01*
X-12736Y47629D01*
X-12733Y47620D01*
X-12732Y47611D01*
X-12731Y47610D01*
X-13203Y47456D02*
X-12827Y47593D01*
X-12827Y47593D02*
X-12622Y47029D01*
X-12622Y47029D02*
X-12997Y46892D01*
X-13373Y46756D02*
X-13749Y46619D01*
X-13749Y46619D02*
X-13954Y47183D01*
X-13954Y47183D02*
X-13579Y47320D01*
G54D13*
X28065Y44798D02*
X26387Y42311D01*
X24729Y43430D02*
X26407Y45917D01*
X26407Y45917D02*
X28065Y44798D01*
X26387Y42311D02*
X24729Y43430D01*
G54D15*
X-12495Y45720D02*
X-12496Y45711D01*
X-12499Y45702D01*
X-12504Y45693D01*
X-12510Y45686D01*
X-12517Y45680D01*
X-12526Y45675D01*
X-12535Y45673D01*
X-12544Y45672D01*
X-12553Y45672D01*
X-12562Y45675D01*
X-12570Y45679D01*
X-12578Y45685D01*
X-12584Y45693D01*
X-12589Y45701D01*
X-12591Y45710D01*
X-12592Y45720D01*
X-12592Y45728D01*
X-12589Y45738D01*
X-12585Y45746D01*
X-12579Y45754D01*
X-12571Y45760D01*
X-12563Y45764D01*
X-12554Y45767D01*
X-12545Y45768D01*
X-12536Y45768D01*
X-12527Y45765D01*
X-12518Y45761D01*
X-12511Y45755D01*
X-12504Y45748D01*
X-12500Y45739D01*
X-12497Y45730D01*
X-12496Y45721D01*
X-12495Y45720D01*
X-12967Y45566D02*
X-12591Y45703D01*
X-12591Y45703D02*
X-12386Y45139D01*
X-12386Y45139D02*
X-12761Y45002D01*
X-13137Y44866D02*
X-13513Y44729D01*
X-13513Y44729D02*
X-13718Y45293D01*
X-13718Y45293D02*
X-13343Y45430D01*
G54D10*
X22316Y43758D02*
X21816Y42892D01*
X21816Y42892D02*
X19218Y44392D01*
X19218Y44392D02*
X19718Y45258D01*
X19718Y45258D02*
X22316Y43758D01*
X20950Y43392D02*
X21450Y44258D01*
G54D13*
X-20720Y47319D02*
X-20352Y47476D01*
X-20292Y47335D01*
X-20295Y47292D01*
X-20305Y47267D01*
X-20333Y47235D01*
X-20385Y47213D01*
X-20428Y47215D01*
X-20452Y47225D01*
X-20485Y47253D01*
X-20545Y47394D01*
X-20238Y47110D02*
X-20213Y47100D01*
X-20181Y47072D01*
X-20144Y46984D01*
X-20146Y46942D01*
X-20156Y46917D01*
X-20184Y46884D01*
X-20219Y46869D01*
X-20279Y46865D01*
X-20579Y46986D01*
X-20482Y46758D01*
X-18139Y49014D02*
X-18164Y49024D01*
X-18204Y49069D01*
X-18219Y49104D01*
X-18224Y49165D01*
X-18204Y49215D01*
X-18176Y49247D01*
X-18113Y49295D01*
X-18060Y49317D01*
X-17983Y49329D01*
X-17940Y49327D01*
X-17891Y49307D01*
X-17850Y49261D01*
X-17836Y49226D01*
X-17831Y49166D01*
X-17841Y49141D01*
X-17709Y48928D02*
X-17679Y48857D01*
X-17682Y48815D01*
X-17702Y48765D01*
X-17765Y48718D01*
X-17888Y48666D01*
X-17965Y48653D01*
X-18015Y48674D01*
X-18047Y48701D01*
X-18078Y48772D01*
X-18075Y48814D01*
X-18055Y48864D01*
X-17992Y48911D01*
X-17869Y48964D01*
X-17792Y48976D01*
X-17742Y48956D01*
X-17709Y48928D01*
X-17944Y48456D02*
X-17575Y48613D01*
X-17854Y48245D01*
X-17486Y48402D01*
X-17780Y48071D02*
X-17412Y48227D01*
X-17690Y47860D01*
X-17322Y48016D01*
X-17688Y47757D02*
X-17569Y47477D01*
X-17062Y47402D02*
X-17092Y47473D01*
X-17124Y47501D01*
X-17149Y47511D01*
X-17216Y47523D01*
X-17294Y47511D01*
X-17434Y47451D01*
X-17462Y47419D01*
X-17472Y47394D01*
X-17475Y47352D01*
X-17445Y47281D01*
X-17412Y47253D01*
X-17387Y47243D01*
X-17345Y47241D01*
X-17257Y47278D01*
X-17229Y47310D01*
X-17219Y47335D01*
X-17216Y47378D01*
X-17246Y47449D01*
X-17279Y47476D01*
X-17304Y47486D01*
X-17346Y47489D01*
G54D10*
X-02486Y54546D02*
X-02486Y54846D01*
X-02371Y54846D01*
X-02343Y54831D01*
X-02328Y54817D01*
X-02314Y54788D01*
X-02314Y54746D01*
X-02328Y54717D01*
X-02343Y54703D01*
X-02371Y54688D01*
X-02486Y54688D01*
X-02057Y54846D02*
X-02114Y54846D01*
X-02143Y54831D01*
X-02157Y54817D01*
X-02186Y54774D01*
X-02200Y54717D01*
X-02200Y54603D01*
X-02186Y54574D01*
X-02171Y54560D01*
X-02143Y54546D01*
X-02086Y54546D01*
X-02057Y54560D01*
X-02043Y54574D01*
X-02028Y54603D01*
X-02028Y54674D01*
X-02043Y54703D01*
X-02057Y54717D01*
X-02086Y54731D01*
X-02143Y54731D01*
X-02171Y54717D01*
X-02186Y54703D01*
X-02200Y54674D01*
X-02899Y54574D02*
X-02913Y54560D01*
X-02956Y54546D01*
X-02985Y54546D01*
X-03028Y54560D01*
X-03056Y54588D01*
X-03071Y54617D01*
X-03085Y54674D01*
X-03085Y54717D01*
X-03071Y54774D01*
X-03056Y54803D01*
X-03028Y54831D01*
X-02985Y54846D01*
X-02956Y54846D01*
X-02913Y54831D01*
X-02899Y54817D01*
X-02713Y54846D02*
X-02656Y54846D01*
X-02628Y54831D01*
X-02599Y54803D01*
X-02585Y54746D01*
X-02585Y54646D01*
X-02599Y54588D01*
X-02628Y54560D01*
X-02656Y54546D01*
X-02713Y54546D01*
X-02742Y54560D01*
X-02771Y54588D01*
X-02785Y54646D01*
X-02785Y54746D01*
X-02771Y54803D01*
X-02742Y54831D01*
X-02713Y54846D01*
X-02457Y54546D02*
X-02457Y54846D01*
X-02285Y54546D01*
X-02285Y54846D01*
X-02143Y54546D02*
X-02143Y54846D01*
X-01971Y54546D01*
X-01971Y54846D01*
X-01900Y54517D02*
X-01671Y54517D01*
X-01614Y54817D02*
X-01600Y54831D01*
X-01571Y54846D01*
X-01500Y54846D01*
X-01471Y54831D01*
X-01457Y54817D01*
X-01442Y54788D01*
X-01442Y54760D01*
X-01457Y54717D01*
X-01628Y54546D01*
X-01442Y54546D01*
G54D21*
X-01962Y54647D02*
X-01808Y54647D01*
X-01993Y54555D02*
X-01885Y54879D01*
X-01777Y54555D01*
X-01515Y54879D02*
X-01669Y54879D01*
X-01684Y54725D01*
X-01669Y54740D01*
X-01638Y54755D01*
X-01561Y54755D01*
X-01530Y54740D01*
X-01515Y54725D01*
X-01499Y54694D01*
X-01499Y54617D01*
X-01515Y54586D01*
X-01530Y54570D01*
X-01561Y54555D01*
X-01638Y54555D01*
X-01669Y54570D01*
X-01684Y54586D01*
X-02987Y54672D02*
X-02833Y54672D01*
X-03018Y54580D02*
X-02910Y54904D01*
X-02802Y54580D01*
X-02555Y54796D02*
X-02555Y54580D01*
X-02632Y54919D02*
X-02709Y54688D01*
X-02509Y54688D01*
G54D20*
X-09150Y55585D02*
X-09379Y55585D01*
X-09265Y55585D02*
X-09265Y55985D01*
X-09303Y55928D01*
X-09341Y55890D01*
X-09379Y55871D01*
X-08979Y55585D02*
X-08979Y55985D01*
X-08826Y55985D01*
X-08788Y55966D01*
X-08769Y55947D01*
X-08750Y55909D01*
X-08750Y55852D01*
X-08769Y55814D01*
X-08788Y55795D01*
X-08826Y55776D01*
X-08979Y55776D01*
X-08579Y55585D02*
X-08579Y55985D01*
X-08389Y55585D02*
X-08389Y55985D01*
X-08160Y55585D01*
X-08160Y55985D01*
X-09322Y53285D02*
X-09322Y53685D01*
X-09169Y53685D01*
X-09131Y53666D01*
X-09112Y53647D01*
X-09093Y53609D01*
X-09093Y53552D01*
X-09112Y53514D01*
X-09131Y53495D01*
X-09169Y53476D01*
X-09322Y53476D01*
X-08865Y53685D02*
X-08865Y53590D01*
X-08960Y53628D02*
X-08865Y53590D01*
X-08769Y53628D01*
X-08922Y53514D02*
X-08865Y53590D01*
X-08807Y53514D01*
X-08560Y53685D02*
X-08560Y53590D01*
X-08655Y53628D02*
X-08560Y53590D01*
X-08464Y53628D01*
X-08617Y53514D02*
X-08560Y53590D01*
X-08502Y53514D01*
X-08255Y53685D02*
X-08255Y53590D01*
X-08350Y53628D02*
X-08255Y53590D01*
X-08159Y53628D01*
X-08312Y53514D02*
X-08255Y53590D01*
X-08197Y53514D01*
X08330Y55349D02*
X08101Y55349D01*
X08215Y55349D02*
X08215Y55749D01*
X08177Y55692D01*
X08139Y55654D01*
X08101Y55635D01*
X08501Y55349D02*
X08501Y55749D01*
X08654Y55749D01*
X08692Y55730D01*
X08711Y55711D01*
X08730Y55673D01*
X08730Y55616D01*
X08711Y55578D01*
X08692Y55559D01*
X08654Y55540D01*
X08501Y55540D01*
X08901Y55349D02*
X08901Y55749D01*
X09091Y55349D02*
X09091Y55749D01*
X09320Y55349D01*
X09320Y55749D01*
X08158Y53049D02*
X08158Y53449D01*
X08311Y53449D01*
X08349Y53430D01*
X08368Y53411D01*
X08387Y53373D01*
X08387Y53316D01*
X08368Y53278D01*
X08349Y53259D01*
X08311Y53240D01*
X08158Y53240D01*
X08615Y53449D02*
X08615Y53354D01*
X08520Y53392D02*
X08615Y53354D01*
X08711Y53392D01*
X08558Y53278D02*
X08615Y53354D01*
X08673Y53278D01*
X08920Y53449D02*
X08920Y53354D01*
X08825Y53392D02*
X08920Y53354D01*
X09016Y53392D01*
X08863Y53278D02*
X08920Y53354D01*
X08978Y53278D01*
X09225Y53449D02*
X09225Y53354D01*
X09130Y53392D02*
X09225Y53354D01*
X09321Y53392D01*
X09168Y53278D02*
X09225Y53354D01*
X09283Y53278D01*
X-16631Y45526D02*
X-16860Y45526D01*
X-16746Y45526D02*
X-16746Y45926D01*
X-16784Y45869D01*
X-16822Y45831D01*
X-16860Y45812D01*
X-16460Y45526D02*
X-16460Y45926D01*
X-16307Y45926D01*
X-16269Y45907D01*
X-16250Y45888D01*
X-16231Y45850D01*
X-16231Y45793D01*
X-16250Y45755D01*
X-16269Y45736D01*
X-16307Y45717D01*
X-16460Y45717D01*
X-16060Y45526D02*
X-16060Y45926D01*
X-15870Y45526D02*
X-15870Y45926D01*
X-15641Y45526D01*
X-15641Y45926D01*
X-16803Y43226D02*
X-16803Y43626D01*
X-16650Y43626D01*
X-16612Y43607D01*
X-16593Y43588D01*
X-16574Y43550D01*
X-16574Y43493D01*
X-16593Y43455D01*
X-16612Y43436D01*
X-16650Y43417D01*
X-16803Y43417D01*
X-16346Y43626D02*
X-16346Y43531D01*
X-16441Y43569D02*
X-16346Y43531D01*
X-16250Y43569D01*
X-16403Y43455D02*
X-16346Y43531D01*
X-16288Y43455D01*
X-16041Y43626D02*
X-16041Y43531D01*
X-16136Y43569D02*
X-16041Y43531D01*
X-15945Y43569D01*
X-16098Y43455D02*
X-16041Y43531D01*
X-15983Y43455D01*
X-15736Y43626D02*
X-15736Y43531D01*
X-15831Y43569D02*
X-15736Y43531D01*
X-15640Y43569D01*
X-15793Y43455D02*
X-15736Y43531D01*
X-15678Y43455D01*
X23231Y41983D02*
X23002Y41983D01*
X23116Y41983D02*
X23116Y42383D01*
X23078Y42326D01*
X23040Y42288D01*
X23002Y42269D01*
X23402Y41983D02*
X23402Y42383D01*
X23555Y42383D01*
X23593Y42364D01*
X23612Y42345D01*
X23631Y42307D01*
X23631Y42250D01*
X23612Y42212D01*
X23593Y42193D01*
X23555Y42174D01*
X23402Y42174D01*
X23802Y41983D02*
X23802Y42383D01*
X23992Y41983D02*
X23992Y42383D01*
X24221Y41983D01*
X24221Y42383D01*
X23059Y39683D02*
X23059Y40083D01*
X23212Y40083D01*
X23250Y40064D01*
X23269Y40045D01*
X23288Y40007D01*
X23288Y39950D01*
X23269Y39912D01*
X23250Y39893D01*
X23212Y39874D01*
X23059Y39874D01*
X23516Y40083D02*
X23516Y39988D01*
X23421Y40026D02*
X23516Y39988D01*
X23612Y40026D01*
X23459Y39912D02*
X23516Y39988D01*
X23574Y39912D01*
X23821Y40083D02*
X23821Y39988D01*
X23726Y40026D02*
X23821Y39988D01*
X23917Y40026D01*
X23764Y39912D02*
X23821Y39988D01*
X23879Y39912D01*
X24126Y40083D02*
X24126Y39988D01*
X24031Y40026D02*
X24126Y39988D01*
X24222Y40026D01*
X24069Y39912D02*
X24126Y39988D01*
X24184Y39912D01*
X21263Y38440D02*
X21034Y38440D01*
X21148Y38440D02*
X21148Y38840D01*
X21110Y38783D01*
X21072Y38745D01*
X21034Y38726D01*
X21434Y38440D02*
X21434Y38840D01*
X21587Y38840D01*
X21625Y38821D01*
X21644Y38802D01*
X21663Y38764D01*
X21663Y38707D01*
X21644Y38669D01*
X21625Y38650D01*
X21587Y38631D01*
X21434Y38631D01*
X21834Y38440D02*
X21834Y38840D01*
X22024Y38440D02*
X22024Y38840D01*
X22253Y38440D01*
X22253Y38840D01*
X21091Y36140D02*
X21091Y36540D01*
X21244Y36540D01*
X21282Y36521D01*
X21301Y36502D01*
X21320Y36464D01*
X21320Y36407D01*
X21301Y36369D01*
X21282Y36350D01*
X21244Y36331D01*
X21091Y36331D01*
X21548Y36540D02*
X21548Y36445D01*
X21453Y36483D02*
X21548Y36445D01*
X21644Y36483D01*
X21491Y36369D02*
X21548Y36445D01*
X21606Y36369D01*
X21853Y36540D02*
X21853Y36445D01*
X21758Y36483D02*
X21853Y36445D01*
X21949Y36483D01*
X21796Y36369D02*
X21853Y36445D01*
X21911Y36369D01*
X22158Y36540D02*
X22158Y36445D01*
X22063Y36483D02*
X22158Y36445D01*
X22254Y36483D01*
X22101Y36369D02*
X22158Y36445D01*
X22216Y36369D01*
X-15155Y41688D02*
X-15384Y41688D01*
X-15270Y41688D02*
X-15270Y42088D01*
X-15308Y42031D01*
X-15346Y41993D01*
X-15384Y41974D01*
X-14984Y41688D02*
X-14984Y42088D01*
X-14831Y42088D01*
X-14793Y42069D01*
X-14774Y42050D01*
X-14755Y42012D01*
X-14755Y41955D01*
X-14774Y41917D01*
X-14793Y41898D01*
X-14831Y41879D01*
X-14984Y41879D01*
X-14584Y41688D02*
X-14584Y42088D01*
X-14394Y41688D02*
X-14394Y42088D01*
X-14165Y41688D01*
X-14165Y42088D01*
X-15327Y39388D02*
X-15327Y39788D01*
X-15174Y39788D01*
X-15136Y39769D01*
X-15117Y39750D01*
X-15098Y39712D01*
X-15098Y39655D01*
X-15117Y39617D01*
X-15136Y39598D01*
X-15174Y39579D01*
X-15327Y39579D01*
X-14870Y39788D02*
X-14870Y39693D01*
X-14965Y39731D02*
X-14870Y39693D01*
X-14774Y39731D01*
X-14927Y39617D02*
X-14870Y39693D01*
X-14812Y39617D01*
X-14565Y39788D02*
X-14565Y39693D01*
X-14660Y39731D02*
X-14565Y39693D01*
X-14469Y39731D01*
X-14622Y39617D02*
X-14565Y39693D01*
X-14507Y39617D01*
X-14260Y39788D02*
X-14260Y39693D01*
X-14355Y39731D02*
X-14260Y39693D01*
X-14164Y39731D01*
X-14317Y39617D02*
X-14260Y39693D01*
X-14202Y39617D01*
X00023Y56412D02*
X-00206Y56412D01*
X-00092Y56412D02*
X-00092Y56812D01*
X-00130Y56755D01*
X-00168Y56717D01*
X-00206Y56698D01*
X00194Y56412D02*
X00194Y56812D01*
X00347Y56812D01*
X00385Y56793D01*
X00404Y56774D01*
X00423Y56736D01*
X00423Y56679D01*
X00404Y56641D01*
X00385Y56622D01*
X00347Y56603D01*
X00194Y56603D01*
X00594Y56412D02*
X00594Y56812D01*
X00784Y56412D02*
X00784Y56812D01*
X01013Y56412D01*
X01013Y56812D01*
X-00149Y54112D02*
X-00149Y54512D01*
X00004Y54512D01*
X00042Y54493D01*
X00061Y54474D01*
X00080Y54436D01*
X00080Y54379D01*
X00061Y54341D01*
X00042Y54322D01*
X00004Y54303D01*
X-00149Y54303D01*
X00308Y54512D02*
X00308Y54417D01*
X00213Y54455D02*
X00308Y54417D01*
X00404Y54455D01*
X00251Y54341D02*
X00308Y54417D01*
X00366Y54341D01*
X00613Y54512D02*
X00613Y54417D01*
X00518Y54455D02*
X00613Y54417D01*
X00709Y54455D01*
X00556Y54341D02*
X00613Y54417D01*
X00671Y54341D01*
X00918Y54512D02*
X00918Y54417D01*
X00823Y54455D02*
X00918Y54417D01*
X01014Y54455D01*
X00861Y54341D02*
X00918Y54417D01*
X00976Y54341D01*
G54D13*
X00782Y48895D02*
X00429Y49249D01*
X01045Y49225D02*
X01049Y49194D01*
X01025Y49138D01*
X00998Y49111D01*
X00940Y49086D01*
X00880Y49093D01*
X00832Y49114D01*
X00752Y49168D01*
X00701Y49218D01*
X00647Y49299D01*
X00627Y49346D01*
X00620Y49407D01*
X00644Y49465D01*
X00671Y49491D01*
X00728Y49515D01*
X00759Y49511D01*
X01348Y49461D02*
X01186Y49299D01*
X01266Y49380D02*
X00913Y49733D01*
X00937Y49656D01*
X00943Y49595D01*
X00933Y49552D01*
X00598Y47276D02*
X00733Y47411D01*
X00672Y47149D02*
X00412Y47597D01*
X00861Y47338D01*
X00561Y47745D02*
X00723Y47907D01*
X00995Y47472D02*
X00641Y47826D01*
X01170Y47648D02*
X00817Y48001D01*
X01165Y47843D01*
X01006Y48190D01*
X01359Y47836D01*
X01308Y48156D02*
X01403Y48251D01*
X01629Y48106D02*
X01493Y47971D01*
X01140Y48324D01*
X01275Y48459D01*
X01561Y48712D02*
X01518Y48702D01*
X01477Y48662D01*
X01453Y48604D01*
X01460Y48543D01*
X01480Y48496D01*
X01534Y48415D01*
X01585Y48365D01*
X01665Y48311D01*
X01713Y48290D01*
X01773Y48283D01*
X01831Y48308D01*
X01858Y48335D01*
X01882Y48392D01*
X01878Y48422D01*
X01760Y48540D01*
X01706Y48486D01*
X01918Y48597D02*
X02053Y48732D01*
X01992Y48469D02*
X01732Y48917D01*
X02181Y48658D01*
X01894Y49079D02*
X02070Y49254D01*
X02110Y49024D01*
X02151Y49065D01*
X02195Y49075D01*
X02225Y49072D01*
X02272Y49052D01*
X02356Y48968D01*
X02377Y48920D01*
X02380Y48890D01*
X02370Y48847D01*
X02288Y48766D01*
X02245Y48755D01*
X02215Y48759D01*
X02211Y49328D02*
X02208Y49358D01*
X02218Y49402D01*
X02285Y49470D01*
X02329Y49480D01*
X02360Y49476D01*
X02407Y49456D01*
X02440Y49422D01*
X02478Y49358D01*
X02517Y48995D01*
X02693Y49170D01*
X02652Y49533D02*
X02609Y49523D01*
X02578Y49526D01*
X02531Y49547D01*
X02515Y49563D01*
X02494Y49611D01*
X02490Y49641D01*
X02500Y49685D01*
X02555Y49739D01*
X02599Y49749D01*
X02629Y49746D01*
X02676Y49725D01*
X02693Y49709D01*
X02713Y49661D01*
X02717Y49631D01*
X02707Y49587D01*
X02652Y49533D01*
X02642Y49490D01*
X02645Y49459D01*
X02666Y49412D01*
X02733Y49345D01*
X02780Y49324D01*
X02811Y49321D01*
X02854Y49331D01*
X02908Y49386D01*
X02919Y49429D01*
X02915Y49459D01*
X02895Y49507D01*
X02828Y49574D01*
X02780Y49594D01*
X02750Y49598D01*
X02707Y49587D01*
X02949Y49695D02*
X03164Y49910D01*
X03433Y49910D02*
X03080Y50264D01*
X03188Y50372D01*
X03232Y50382D01*
X03262Y50378D01*
X03309Y50358D01*
X03360Y50308D01*
X03380Y50260D01*
X03383Y50231D01*
X03373Y50187D01*
X03265Y50079D01*
G54D20*
X-00130Y44753D02*
X-00130Y45153D01*
X00023Y45153D01*
X00061Y45134D01*
X00080Y45115D01*
X00099Y45077D01*
X00099Y45020D01*
X00080Y44982D01*
X00061Y44963D01*
X00023Y44944D01*
X-00130Y44944D01*
X00442Y45020D02*
X00442Y44753D01*
X00346Y45172D02*
X00251Y44886D01*
X00499Y44886D01*
G54D13*
X-00873Y47091D02*
X-00892Y47072D01*
X-00949Y47053D01*
X-00987Y47053D01*
X-01045Y47072D01*
X-01083Y47110D01*
X-01102Y47148D01*
X-01121Y47225D01*
X-01121Y47282D01*
X-01102Y47358D01*
X-01083Y47396D01*
X-01045Y47434D01*
X-00987Y47453D01*
X-00949Y47453D01*
X-00892Y47434D01*
X-00873Y47415D01*
X-00626Y47453D02*
X-00549Y47453D01*
X-00511Y47434D01*
X-00473Y47396D01*
X-00454Y47320D01*
X-00454Y47186D01*
X-00473Y47110D01*
X-00511Y47072D01*
X-00549Y47053D01*
X-00626Y47053D01*
X-00664Y47072D01*
X-00702Y47110D01*
X-00721Y47186D01*
X-00721Y47320D01*
X-00702Y47396D01*
X-00664Y47434D01*
X-00626Y47453D01*
X-00283Y47053D02*
X-00283Y47453D01*
X-00054Y47053D01*
X-00054Y47453D01*
X00136Y47053D02*
X00136Y47453D01*
X00365Y47053D01*
X00365Y47453D01*
X00460Y47015D02*
X00765Y47015D01*
X01070Y47053D02*
X00841Y47053D01*
X00955Y47053D02*
X00955Y47453D01*
X00917Y47396D01*
X00879Y47358D01*
X00841Y47339D01*
X01222Y47415D02*
X01241Y47434D01*
X01279Y47453D01*
X01375Y47453D01*
X01413Y47434D01*
X01432Y47415D01*
X01451Y47377D01*
X01451Y47339D01*
X01432Y47282D01*
X01203Y47053D01*
X01451Y47053D01*
G54D21*
X-05801Y45558D02*
X-05616Y45558D01*
X-05709Y45234D02*
X-05709Y45558D01*
X-05539Y45558D02*
X-05323Y45234D01*
X-05323Y45558D02*
X-05539Y45234D01*
X-05137Y45558D02*
X-05075Y45558D01*
X-05045Y45542D01*
X-05014Y45512D01*
X-04998Y45450D01*
X-04998Y45342D01*
X-05014Y45280D01*
X-05045Y45249D01*
X-05075Y45234D01*
X-05137Y45234D01*
X-05168Y45249D01*
X-05199Y45280D01*
X-05214Y45342D01*
X-05214Y45450D01*
X-05199Y45512D01*
X-05168Y45542D01*
X-05137Y45558D01*
X-04466Y45234D02*
X-04574Y45388D01*
X-04651Y45234D02*
X-04651Y45558D01*
X-04527Y45558D01*
X-04497Y45542D01*
X-04481Y45527D01*
X-04466Y45496D01*
X-04466Y45450D01*
X-04481Y45419D01*
X-04497Y45404D01*
X-04527Y45388D01*
X-04651Y45388D01*
X-04358Y45558D02*
X-04142Y45234D01*
X-04142Y45558D02*
X-04358Y45234D01*
X-04018Y45234D02*
X-04018Y45558D01*
X-03563Y45209D02*
X-03671Y45363D01*
X-03748Y45209D02*
X-03748Y45533D01*
X-03624Y45533D01*
X-03594Y45517D01*
X-03578Y45502D01*
X-03563Y45471D01*
X-03563Y45425D01*
X-03578Y45394D01*
X-03594Y45379D01*
X-03624Y45363D01*
X-03748Y45363D01*
X-03439Y45224D02*
X-03393Y45209D01*
X-03316Y45209D01*
X-03285Y45224D01*
X-03270Y45240D01*
X-03254Y45271D01*
X-03254Y45301D01*
X-03270Y45332D01*
X-03285Y45348D01*
X-03316Y45363D01*
X-03378Y45379D01*
X-03408Y45394D01*
X-03424Y45409D01*
X-03439Y45440D01*
X-03439Y45471D01*
X-03424Y45502D01*
X-03408Y45517D01*
X-03378Y45533D01*
X-03300Y45533D01*
X-03254Y45517D01*
X-03161Y45533D02*
X-02976Y45533D01*
X-03069Y45209D02*
X-03069Y45533D01*
X-02531Y45517D02*
X-02562Y45533D01*
X-02608Y45533D01*
X-02655Y45517D01*
X-02685Y45487D01*
X-02701Y45456D01*
X-02716Y45394D01*
X-02716Y45348D01*
X-02701Y45286D01*
X-02685Y45255D01*
X-02655Y45224D01*
X-02608Y45209D01*
X-02577Y45209D01*
X-02531Y45224D01*
X-02516Y45240D01*
X-02516Y45348D01*
X-02577Y45348D01*
X-02377Y45209D02*
X-02377Y45533D01*
X-02192Y45209D01*
X-02192Y45533D01*
X-02038Y45209D02*
X-02038Y45533D01*
X-01961Y45533D01*
X-01914Y45517D01*
X-01884Y45487D01*
X-01868Y45456D01*
X-01853Y45394D01*
X-01853Y45348D01*
X-01868Y45286D01*
X-01884Y45255D01*
X-01914Y45224D01*
X-01961Y45209D01*
X-02038Y45209D01*
X-01377Y45602D02*
X-01362Y45617D01*
X-01331Y45633D01*
X-01254Y45633D01*
X-01223Y45617D01*
X-01208Y45602D01*
X-01192Y45571D01*
X-01192Y45540D01*
X-01208Y45494D01*
X-01393Y45309D01*
X-01192Y45309D01*
X-00393Y45608D02*
X-00192Y45608D01*
X-00300Y45484D01*
X-00254Y45484D01*
X-00223Y45469D01*
X-00208Y45454D01*
X-00192Y45423D01*
X-00192Y45346D01*
X-00208Y45315D01*
X-00223Y45299D01*
X-00254Y45284D01*
X-00346Y45284D01*
X-00377Y45299D01*
X-00393Y45315D01*
X00727Y45500D02*
X00727Y45284D01*
X00650Y45623D02*
X00573Y45392D01*
X00773Y45392D01*
X01792Y45608D02*
X01638Y45608D01*
X01623Y45454D01*
X01638Y45469D01*
X01669Y45484D01*
X01746Y45484D01*
X01777Y45469D01*
X01792Y45454D01*
X01808Y45423D01*
X01808Y45346D01*
X01792Y45315D01*
X01777Y45299D01*
X01746Y45284D01*
X01669Y45284D01*
X01638Y45299D01*
X01623Y45315D01*
X02752Y45608D02*
X02690Y45608D01*
X02659Y45592D01*
X02644Y45577D01*
X02613Y45531D01*
X02598Y45469D01*
X02598Y45346D01*
X02613Y45315D01*
X02629Y45299D01*
X02659Y45284D01*
X02721Y45284D01*
X02752Y45299D01*
X02767Y45315D01*
X02783Y45346D01*
X02783Y45423D01*
X02767Y45454D01*
X02752Y45469D01*
X02721Y45484D01*
X02659Y45484D01*
X02629Y45469D01*
X02613Y45454D01*
X02598Y45423D01*
X03557Y45608D02*
X03773Y45608D01*
X03634Y45284D01*
X04659Y45469D02*
X04629Y45484D01*
X04613Y45500D01*
X04598Y45531D01*
X04598Y45546D01*
X04613Y45577D01*
X04629Y45592D01*
X04659Y45608D01*
X04721Y45608D01*
X04752Y45592D01*
X04767Y45577D01*
X04783Y45546D01*
X04783Y45531D01*
X04767Y45500D01*
X04752Y45484D01*
X04721Y45469D01*
X04659Y45469D01*
X04629Y45454D01*
X04613Y45438D01*
X04598Y45407D01*
X04598Y45346D01*
X04613Y45315D01*
X04629Y45299D01*
X04659Y45284D01*
X04721Y45284D01*
X04752Y45299D01*
X04767Y45315D01*
X04783Y45346D01*
X04783Y45407D01*
X04767Y45438D01*
X04752Y45454D01*
X04721Y45469D01*
X05679Y45309D02*
X05740Y45309D01*
X05771Y45324D01*
X05787Y45340D01*
X05817Y45386D01*
X05833Y45448D01*
X05833Y45571D01*
X05817Y45602D01*
X05802Y45617D01*
X05771Y45633D01*
X05709Y45633D01*
X05679Y45617D01*
X05663Y45602D01*
X05648Y45571D01*
X05648Y45494D01*
X05663Y45463D01*
X05679Y45448D01*
X05709Y45432D01*
X05771Y45432D01*
X05802Y45448D01*
X05817Y45463D01*
X05833Y45494D01*
G54D20*
X-00105Y50778D02*
X-00105Y51178D01*
X00048Y51178D01*
X00086Y51159D01*
X00105Y51140D01*
X00124Y51102D01*
X00124Y51045D01*
X00105Y51007D01*
X00086Y50988D01*
X00048Y50969D01*
X-00105Y50969D01*
X00486Y51178D02*
X00295Y51178D01*
X00276Y50988D01*
X00295Y51007D01*
X00333Y51026D01*
X00429Y51026D01*
X00467Y51007D01*
X00486Y50988D01*
X00505Y50950D01*
X00505Y50854D01*
X00486Y50816D01*
X00467Y50797D01*
X00429Y50778D01*
X00333Y50778D01*
X00295Y50797D01*
X00276Y50816D01*
G54D13*
X-00748Y53516D02*
X-00767Y53497D01*
X-00824Y53478D01*
X-00862Y53478D01*
X-00920Y53497D01*
X-00958Y53535D01*
X-00977Y53573D01*
X-00996Y53650D01*
X-00996Y53707D01*
X-00977Y53783D01*
X-00958Y53821D01*
X-00920Y53859D01*
X-00862Y53878D01*
X-00824Y53878D01*
X-00767Y53859D01*
X-00748Y53840D01*
X-00501Y53878D02*
X-00424Y53878D01*
X-00386Y53859D01*
X-00348Y53821D01*
X-00329Y53745D01*
X-00329Y53611D01*
X-00348Y53535D01*
X-00386Y53497D01*
X-00424Y53478D01*
X-00501Y53478D01*
X-00539Y53497D01*
X-00577Y53535D01*
X-00596Y53611D01*
X-00596Y53745D01*
X-00577Y53821D01*
X-00539Y53859D01*
X-00501Y53878D01*
X-00158Y53478D02*
X-00158Y53878D01*
X00071Y53478D01*
X00071Y53878D01*
X00261Y53478D02*
X00261Y53878D01*
X00490Y53478D01*
X00490Y53878D01*
X00585Y53440D02*
X00890Y53440D01*
X01195Y53478D02*
X00966Y53478D01*
X01080Y53478D02*
X01080Y53878D01*
X01042Y53821D01*
X01004Y53783D01*
X00966Y53764D01*
X01347Y53840D02*
X01366Y53859D01*
X01404Y53878D01*
X01500Y53878D01*
X01538Y53859D01*
X01557Y53840D01*
X01576Y53802D01*
X01576Y53764D01*
X01557Y53707D01*
X01328Y53478D01*
X01576Y53478D01*
G54D21*
X-05609Y52959D02*
X-05717Y53113D01*
X-05794Y52959D02*
X-05794Y53283D01*
X-05670Y53283D01*
X-05640Y53267D01*
X-05624Y53252D01*
X-05609Y53221D01*
X-05609Y53175D01*
X-05624Y53144D01*
X-05640Y53129D01*
X-05670Y53113D01*
X-05794Y53113D01*
X-05485Y53051D02*
X-05331Y53051D01*
X-05516Y52959D02*
X-05408Y53283D01*
X-05300Y52959D01*
X-05223Y53283D02*
X-05146Y52959D01*
X-05084Y53190D01*
X-05022Y52959D01*
X-04945Y53283D01*
X-04606Y53267D02*
X-04637Y53283D01*
X-04683Y53283D01*
X-04730Y53267D01*
X-04760Y53237D01*
X-04776Y53206D01*
X-04791Y53144D01*
X-04791Y53098D01*
X-04776Y53036D01*
X-04760Y53005D01*
X-04730Y52974D01*
X-04683Y52959D01*
X-04652Y52959D01*
X-04606Y52974D01*
X-04591Y52990D01*
X-04591Y53098D01*
X-04652Y53098D01*
X-04452Y52959D02*
X-04452Y53283D01*
X-04267Y52959D01*
X-04267Y53283D01*
X-04113Y52959D02*
X-04113Y53283D01*
X-04036Y53283D01*
X-03989Y53267D01*
X-03959Y53237D01*
X-03943Y53206D01*
X-03928Y53144D01*
X-03928Y53098D01*
X-03943Y53036D01*
X-03959Y53005D01*
X-03989Y52974D01*
X-04036Y52959D01*
X-04113Y52959D01*
X-02767Y53283D02*
X-02659Y52959D01*
X-02551Y53283D01*
X-02258Y52990D02*
X-02273Y52974D01*
X-02319Y52959D01*
X-02350Y52959D01*
X-02397Y52974D01*
X-02427Y53005D01*
X-02443Y53036D01*
X-02458Y53098D01*
X-02458Y53144D01*
X-02443Y53206D01*
X-02427Y53237D01*
X-02397Y53267D01*
X-02350Y53283D01*
X-02319Y53283D01*
X-02273Y53267D01*
X-02258Y53252D01*
X-01934Y52990D02*
X-01949Y52974D01*
X-01995Y52959D01*
X-02026Y52959D01*
X-02073Y52974D01*
X-02103Y53005D01*
X-02119Y53036D01*
X-02134Y53098D01*
X-02134Y53144D01*
X-02119Y53206D01*
X-02103Y53237D01*
X-02073Y53267D01*
X-02026Y53283D01*
X-01995Y53283D01*
X-01949Y53267D01*
X-01934Y53252D01*
X-01541Y53051D02*
X-01387Y53051D01*
X-01572Y52959D02*
X-01464Y53283D01*
X-01356Y52959D01*
X-01279Y53283D02*
X-01078Y53283D01*
X-01186Y53159D01*
X-01140Y53159D01*
X-01109Y53144D01*
X-01094Y53129D01*
X-01078Y53098D01*
X-01078Y53021D01*
X-01094Y52990D01*
X-01109Y52974D01*
X-01140Y52959D01*
X-01232Y52959D01*
X-01263Y52974D01*
X-01279Y52990D01*
X-00591Y53051D02*
X-00437Y53051D01*
X-00622Y52959D02*
X-00514Y53283D01*
X-00406Y52959D01*
X-00313Y53252D02*
X-00298Y53267D01*
X-00267Y53283D01*
X-00190Y53283D01*
X-00159Y53267D01*
X-00144Y53252D01*
X-00128Y53221D01*
X-00128Y53190D01*
X-00144Y53144D01*
X-00329Y52959D01*
X-00128Y52959D01*
X00459Y53076D02*
X00613Y53076D01*
X00428Y52984D02*
X00536Y53308D01*
X00644Y52984D01*
X00922Y52984D02*
X00737Y52984D01*
X00829Y52984D02*
X00829Y53308D01*
X00798Y53262D01*
X00768Y53231D01*
X00737Y53215D01*
X01459Y53076D02*
X01613Y53076D01*
X01428Y52984D02*
X01536Y53308D01*
X01644Y52984D01*
X01814Y53308D02*
X01845Y53308D01*
X01876Y53292D01*
X01891Y53277D01*
X01906Y53246D01*
X01922Y53184D01*
X01922Y53107D01*
X01906Y53046D01*
X01891Y53015D01*
X01876Y52999D01*
X01845Y52984D01*
X01814Y52984D01*
X01783Y52999D01*
X01768Y53015D01*
X01752Y53046D01*
X01737Y53107D01*
X01737Y53184D01*
X01752Y53246D01*
X01768Y53277D01*
X01783Y53292D01*
X01814Y53308D01*
X02628Y52959D02*
X02443Y52959D01*
X02535Y52959D02*
X02535Y53283D01*
X02504Y53237D01*
X02474Y53206D01*
X02443Y53190D01*
X02736Y53283D02*
X02937Y53283D01*
X02829Y53159D01*
X02875Y53159D01*
X02906Y53144D01*
X02921Y53129D01*
X02937Y53098D01*
X02937Y53021D01*
X02921Y52990D01*
X02906Y52974D01*
X02875Y52959D01*
X02783Y52959D01*
X02752Y52974D01*
X02736Y52990D01*
X03628Y52984D02*
X03443Y52984D01*
X03535Y52984D02*
X03535Y53308D01*
X03504Y53262D01*
X03474Y53231D01*
X03443Y53215D01*
X03752Y53277D02*
X03767Y53292D01*
X03798Y53308D01*
X03875Y53308D01*
X03906Y53292D01*
X03921Y53277D01*
X03937Y53246D01*
X03937Y53215D01*
X03921Y53169D01*
X03736Y52984D01*
X03937Y52984D01*
X04578Y52984D02*
X04393Y52984D01*
X04485Y52984D02*
X04485Y53308D01*
X04454Y53262D01*
X04424Y53231D01*
X04393Y53215D01*
X04887Y52984D02*
X04702Y52984D01*
X04794Y52984D02*
X04794Y53308D01*
X04763Y53262D01*
X04733Y53231D01*
X04702Y53215D01*
X-03538Y52959D02*
X-03646Y53113D01*
X-03723Y52959D02*
X-03723Y53283D01*
X-03599Y53283D01*
X-03569Y53267D01*
X-03553Y53252D01*
X-03538Y53221D01*
X-03538Y53175D01*
X-03553Y53144D01*
X-03569Y53129D01*
X-03599Y53113D01*
X-03723Y53113D01*
X-03414Y52974D02*
X-03368Y52959D01*
X-03291Y52959D01*
X-03260Y52974D01*
X-03245Y52990D01*
X-03229Y53021D01*
X-03229Y53051D01*
X-03245Y53082D01*
X-03260Y53098D01*
X-03291Y53113D01*
X-03353Y53129D01*
X-03383Y53144D01*
X-03399Y53159D01*
X-03414Y53190D01*
X-03414Y53221D01*
X-03399Y53252D01*
X-03383Y53267D01*
X-03353Y53283D01*
X-03275Y53283D01*
X-03229Y53267D01*
X-03136Y53283D02*
X-02951Y53283D01*
X-03044Y52959D02*
X-03044Y53283D01*
X05455Y52959D02*
X05270Y52959D01*
X05362Y52959D02*
X05362Y53283D01*
X05331Y53237D01*
X05301Y53206D01*
X05270Y53190D01*
X05656Y53283D02*
X05687Y53283D01*
X05718Y53267D01*
X05733Y53252D01*
X05748Y53221D01*
X05764Y53159D01*
X05764Y53082D01*
X05748Y53021D01*
X05733Y52990D01*
X05718Y52974D01*
X05687Y52959D01*
X05656Y52959D01*
X05625Y52974D01*
X05610Y52990D01*
X05594Y53021D01*
X05579Y53082D01*
X05579Y53159D01*
X05594Y53221D01*
X05610Y53252D01*
X05625Y53267D01*
X05656Y53283D01*
G54D15*
X13721Y49953D02*
X13892Y49953D01*
X13806Y49653D02*
X13806Y49953D01*
X14135Y49653D02*
X13992Y49653D01*
X13992Y49953D01*
X14407Y49681D02*
X14393Y49667D01*
X14350Y49653D01*
X14321Y49653D01*
X14278Y49667D01*
X14250Y49695D01*
X14235Y49724D01*
X14221Y49781D01*
X14221Y49824D01*
X14235Y49881D01*
X14250Y49910D01*
X14278Y49938D01*
X14321Y49953D01*
X14350Y49953D01*
X14393Y49938D01*
X14407Y49924D01*
X14693Y49653D02*
X14521Y49653D01*
X14607Y49653D02*
X14607Y49953D01*
X14578Y49910D01*
X14550Y49881D01*
X14521Y49867D01*
X13342Y51003D02*
X13513Y51003D01*
X13427Y50703D02*
X13427Y51003D01*
X13756Y50703D02*
X13613Y50703D01*
X13613Y51003D01*
X14028Y50731D02*
X14014Y50717D01*
X13971Y50703D01*
X13942Y50703D01*
X13899Y50717D01*
X13871Y50745D01*
X13856Y50774D01*
X13842Y50831D01*
X13842Y50874D01*
X13856Y50931D01*
X13871Y50960D01*
X13899Y50988D01*
X13942Y51003D01*
X13971Y51003D01*
X14014Y50988D01*
X14028Y50974D01*
X14299Y51003D02*
X14156Y51003D01*
X14142Y50860D01*
X14156Y50874D01*
X14185Y50888D01*
X14256Y50888D01*
X14285Y50874D01*
X14299Y50860D01*
X14314Y50831D01*
X14314Y50760D01*
X14299Y50731D01*
X14285Y50717D01*
X14256Y50703D01*
X14185Y50703D01*
X14156Y50717D01*
X14142Y50731D01*
X14457Y50703D02*
X14514Y50703D01*
X14542Y50717D01*
X14557Y50731D01*
X14585Y50774D01*
X14600Y50831D01*
X14600Y50945D01*
X14585Y50974D01*
X14571Y50988D01*
X14542Y51003D01*
X14485Y51003D01*
X14457Y50988D01*
X14442Y50974D01*
X14428Y50945D01*
X14428Y50874D01*
X14442Y50845D01*
X14457Y50831D01*
X14485Y50817D01*
X14542Y50817D01*
X14571Y50831D01*
X14585Y50845D01*
X14600Y50874D01*
X14857Y50903D02*
X14857Y50703D01*
X14786Y51017D02*
X14714Y50803D01*
X14900Y50803D01*
X15072Y51003D02*
X15100Y51003D01*
X15129Y50988D01*
X15143Y50974D01*
X15157Y50945D01*
X15172Y50888D01*
X15172Y50817D01*
X15157Y50760D01*
X15143Y50731D01*
X15129Y50717D01*
X15100Y50703D01*
X15072Y50703D01*
X15043Y50717D01*
X15029Y50731D01*
X15014Y50760D01*
X15000Y50817D01*
X15000Y50888D01*
X15014Y50945D01*
X15029Y50974D01*
X15043Y50988D01*
X15072Y51003D01*
G54D13*
X08614Y44379D02*
X08684Y44773D01*
X08834Y44746D01*
X08869Y44721D01*
X08884Y44699D01*
X08896Y44658D01*
X08886Y44602D01*
X08861Y44568D01*
X08839Y44552D01*
X08798Y44540D01*
X08648Y44567D01*
X09104Y44525D02*
X09070Y44550D01*
X09055Y44572D01*
X09043Y44613D01*
X09046Y44632D01*
X09071Y44666D01*
X09093Y44681D01*
X09134Y44693D01*
X09210Y44680D01*
X09244Y44655D01*
X09259Y44633D01*
X09271Y44592D01*
X09268Y44573D01*
X09243Y44539D01*
X09221Y44524D01*
X09180Y44511D01*
X09104Y44525D01*
X09063Y44513D01*
X09041Y44497D01*
X09016Y44462D01*
X09003Y44387D01*
X09015Y44347D01*
X09030Y44325D01*
X09064Y44299D01*
X09140Y44286D01*
X09181Y44298D01*
X09203Y44313D01*
X09228Y44348D01*
X09241Y44422D01*
X09230Y44464D01*
X09214Y44486D01*
X09180Y44511D01*
X08222Y47532D02*
X08200Y47517D01*
X08141Y47508D01*
X08103Y47514D01*
X08049Y47543D01*
X08019Y47587D01*
X08007Y47628D01*
X08001Y47707D01*
X08011Y47763D01*
X08043Y47835D01*
X08068Y47869D01*
X08112Y47900D01*
X08173Y47908D01*
X08210Y47902D01*
X08263Y47873D01*
X08278Y47851D01*
X08528Y47846D02*
X08604Y47832D01*
X08638Y47807D01*
X08669Y47763D01*
X08675Y47685D01*
X08651Y47553D01*
X08619Y47481D01*
X08575Y47451D01*
X08535Y47438D01*
X08459Y47452D01*
X08425Y47477D01*
X08394Y47521D01*
X08388Y47599D01*
X08412Y47731D01*
X08443Y47803D01*
X08488Y47834D01*
X08528Y47846D01*
X08797Y47392D02*
X08866Y47786D01*
X09022Y47352D01*
X09092Y47746D01*
X09209Y47319D02*
X09279Y47713D01*
X09435Y47280D01*
X09504Y47674D01*
X09522Y47226D02*
X09822Y47173D01*
X09954Y47594D02*
X10198Y47551D01*
X10040Y47425D01*
X10097Y47415D01*
X10131Y47389D01*
X10147Y47367D01*
X10159Y47327D01*
X10142Y47232D01*
X10117Y47198D01*
X10095Y47183D01*
X10054Y47170D01*
X09941Y47190D01*
X09907Y47216D01*
X09891Y47238D01*
X10329Y47528D02*
X10523Y47088D01*
X10592Y47482D02*
X10260Y47134D01*
X10717Y47421D02*
X10739Y47437D01*
X10780Y47449D01*
X10874Y47432D01*
X10908Y47407D01*
X10924Y47385D01*
X10936Y47344D01*
X10929Y47307D01*
X10900Y47254D01*
X10635Y47068D01*
X10879Y47025D01*
X07990Y49562D02*
X08047Y49543D01*
X08143Y49543D01*
X08181Y49562D01*
X08200Y49581D01*
X08219Y49619D01*
X08219Y49657D01*
X08200Y49695D01*
X08181Y49715D01*
X08143Y49734D01*
X08066Y49753D01*
X08028Y49772D01*
X08009Y49791D01*
X07990Y49829D01*
X07990Y49867D01*
X08009Y49905D01*
X08028Y49924D01*
X08066Y49943D01*
X08162Y49943D01*
X08219Y49924D01*
X08352Y49943D02*
X08447Y49543D01*
X08524Y49829D01*
X08600Y49543D01*
X08695Y49943D01*
X09057Y49543D02*
X08828Y49543D01*
X08942Y49543D02*
X08942Y49943D01*
X08904Y49886D01*
X08866Y49848D01*
X08828Y49829D01*
X07458Y50549D02*
X07515Y50530D01*
X07611Y50530D01*
X07649Y50549D01*
X07668Y50568D01*
X07687Y50606D01*
X07687Y50644D01*
X07668Y50682D01*
X07649Y50702D01*
X07611Y50721D01*
X07534Y50740D01*
X07496Y50759D01*
X07477Y50778D01*
X07458Y50816D01*
X07458Y50854D01*
X07477Y50892D01*
X07496Y50911D01*
X07534Y50930D01*
X07630Y50930D01*
X07687Y50911D01*
X07820Y50930D02*
X07915Y50530D01*
X07992Y50816D01*
X08068Y50530D01*
X08163Y50930D01*
X08220Y50492D02*
X08525Y50492D01*
X08620Y50530D02*
X08620Y50930D01*
X08773Y50930D01*
X08811Y50911D01*
X08830Y50892D01*
X08849Y50854D01*
X08849Y50797D01*
X08830Y50759D01*
X08811Y50740D01*
X08773Y50721D01*
X08620Y50721D01*
X09020Y50930D02*
X09020Y50606D01*
X09039Y50568D01*
X09058Y50549D01*
X09096Y50530D01*
X09173Y50530D01*
X09211Y50549D01*
X09230Y50568D01*
X09249Y50606D01*
X09249Y50930D01*
X09420Y50549D02*
X09477Y50530D01*
X09573Y50530D01*
X09611Y50549D01*
X09630Y50568D01*
X09649Y50606D01*
X09649Y50644D01*
X09630Y50682D01*
X09611Y50702D01*
X09573Y50721D01*
X09496Y50740D01*
X09458Y50759D01*
X09439Y50778D01*
X09420Y50816D01*
X09420Y50854D01*
X09439Y50892D01*
X09458Y50911D01*
X09496Y50930D01*
X09592Y50930D01*
X09649Y50911D01*
X09820Y50530D02*
X09820Y50930D01*
X09820Y50740D02*
X10049Y50740D01*
X10049Y50530D02*
X10049Y50930D01*
G54D15*
X-03123Y49046D02*
X-03123Y48843D01*
X-03112Y48820D01*
X-03100Y48808D01*
X-03076Y48796D01*
X-03028Y48796D01*
X-03004Y48808D01*
X-02993Y48820D01*
X-02981Y48843D01*
X-02981Y49046D01*
X-02731Y48796D02*
X-02873Y48796D01*
X-02802Y48796D02*
X-02802Y49046D01*
X-02826Y49010D01*
X-02850Y48986D01*
X-02873Y48974D01*
X-03109Y48403D02*
X-03109Y48284D01*
X-03359Y48284D01*
X-03109Y48486D02*
X-03359Y48486D01*
X-03359Y48581D01*
X-03347Y48605D01*
X-03335Y48616D01*
X-03311Y48628D01*
X-03275Y48628D01*
X-03252Y48616D01*
X-03240Y48605D01*
X-03228Y48581D01*
X-03228Y48486D01*
X-03335Y48724D02*
X-03347Y48736D01*
X-03359Y48759D01*
X-03359Y48819D01*
X-03347Y48843D01*
X-03335Y48855D01*
X-03311Y48866D01*
X-03287Y48866D01*
X-03252Y48855D01*
X-03109Y48712D01*
X-03109Y48866D01*
X-03109Y48985D02*
X-03109Y49033D01*
X-03121Y49057D01*
X-03133Y49069D01*
X-03168Y49093D01*
X-03216Y49104D01*
X-03311Y49104D01*
X-03335Y49093D01*
X-03347Y49081D01*
X-03359Y49057D01*
X-03359Y49009D01*
X-03347Y48985D01*
X-03335Y48974D01*
X-03311Y48962D01*
X-03252Y48962D01*
X-03228Y48974D01*
X-03216Y48985D01*
X-03204Y49009D01*
X-03204Y49057D01*
X-03216Y49081D01*
X-03228Y49093D01*
X-03252Y49104D01*
X-03252Y49247D02*
X-03264Y49223D01*
X-03275Y49212D01*
X-03299Y49200D01*
X-03311Y49200D01*
X-03335Y49212D01*
X-03347Y49223D01*
X-03359Y49247D01*
X-03359Y49295D01*
X-03347Y49319D01*
X-03335Y49331D01*
X-03311Y49342D01*
X-03299Y49342D01*
X-03275Y49331D01*
X-03264Y49319D01*
X-03252Y49295D01*
X-03252Y49247D01*
X-03240Y49223D01*
X-03228Y49212D01*
X-03204Y49200D01*
X-03156Y49200D01*
X-03133Y49212D01*
X-03121Y49223D01*
X-03109Y49247D01*
X-03109Y49295D01*
X-03121Y49319D01*
X-03133Y49331D01*
X-03156Y49342D01*
X-03204Y49342D01*
X-03228Y49331D01*
X-03240Y49319D01*
X-03252Y49295D01*
X-03359Y49569D02*
X-03359Y49450D01*
X-03240Y49438D01*
X-03252Y49450D01*
X-03264Y49473D01*
X-03264Y49533D01*
X-03252Y49557D01*
X-03240Y49569D01*
X-03216Y49580D01*
X-03156Y49580D01*
X-03133Y49569D01*
X-03121Y49557D01*
X-03109Y49533D01*
X-03109Y49473D01*
X-03121Y49450D01*
X-03133Y49438D01*
X-03180Y49676D02*
X-03180Y49795D01*
X-03109Y49652D02*
X-03359Y49735D01*
X-03109Y49818D01*
X-03109Y49902D02*
X-03359Y49902D01*
X-03109Y50021D02*
X-03359Y50021D01*
X-03180Y50104D01*
X-03359Y50187D01*
X-03109Y50187D01*
X-03085Y50247D02*
X-03085Y50437D01*
X-03359Y50616D02*
X-03359Y50497D01*
X-03240Y50485D01*
X-03252Y50497D01*
X-03264Y50520D01*
X-03264Y50580D01*
X-03252Y50604D01*
X-03240Y50616D01*
X-03216Y50627D01*
X-03156Y50627D01*
X-03133Y50616D01*
X-03121Y50604D01*
X-03109Y50580D01*
X-03109Y50520D01*
X-03121Y50497D01*
X-03133Y50485D01*
X-03204Y50735D02*
X-03204Y50925D01*
X-03359Y51164D02*
X-03359Y51045D01*
X-03240Y51033D01*
X-03252Y51045D01*
X-03264Y51068D01*
X-03264Y51128D01*
X-03252Y51152D01*
X-03240Y51164D01*
X-03216Y51175D01*
X-03156Y51175D01*
X-03133Y51164D01*
X-03121Y51152D01*
X-03109Y51128D01*
X-03109Y51068D01*
X-03121Y51045D01*
X-03133Y51033D01*
X-03133Y51283D02*
X-03121Y51294D01*
X-03109Y51283D01*
X-03121Y51271D01*
X-03133Y51283D01*
X-03109Y51283D01*
X-03359Y51449D02*
X-03359Y51473D01*
X-03347Y51497D01*
X-03335Y51509D01*
X-03311Y51521D01*
X-03264Y51532D01*
X-03204Y51532D01*
X-03156Y51521D01*
X-03133Y51509D01*
X-03121Y51497D01*
X-03109Y51473D01*
X-03109Y51449D01*
X-03121Y51425D01*
X-03133Y51413D01*
X-03156Y51402D01*
X-03204Y51390D01*
X-03264Y51390D01*
X-03311Y51402D01*
X-03335Y51413D01*
X-03347Y51425D01*
X-03359Y51449D01*
G54D22*
X15194Y43809D02*
X15205Y43784D01*
X15204Y43724D01*
X15191Y43688D01*
X15153Y43640D01*
X15104Y43618D01*
X15062Y43613D01*
X14983Y43621D01*
X14930Y43641D01*
X14865Y43685D01*
X14836Y43716D01*
X14813Y43764D01*
X14815Y43825D01*
X14828Y43861D01*
X14865Y43908D01*
X14889Y43919D01*
X15096Y44209D02*
X15347Y44118D01*
X14920Y44171D02*
X15157Y43984D01*
X15241Y44217D01*
X15139Y43348D02*
X15060Y43133D01*
X15099Y43240D02*
X14724Y43377D01*
X14764Y43321D01*
X14787Y43273D01*
X14792Y43231D01*
X14847Y43717D02*
X14861Y43753D01*
X14892Y43783D01*
X14916Y43794D01*
X14958Y43799D01*
X15036Y43791D01*
X15126Y43758D01*
X15191Y43714D01*
X15220Y43683D01*
X15232Y43659D01*
X15237Y43617D01*
X15223Y43580D01*
X15192Y43551D01*
X15168Y43539D01*
X15126Y43535D01*
X15048Y43543D01*
X14958Y43576D01*
X14893Y43619D01*
X14864Y43650D01*
X14852Y43675D01*
X14847Y43717D01*
X15135Y44120D02*
X15386Y44028D01*
X15077Y43958D02*
X15274Y43886D01*
X15316Y43891D01*
X15347Y43920D01*
X15367Y43975D01*
X15362Y44017D01*
X15351Y44041D01*
X15300Y44405D02*
X15254Y44279D01*
X15451Y44207D02*
X15075Y44344D01*
X15141Y44523D01*
X15572Y44427D02*
X15676Y44713D01*
X15326Y44922D02*
X15315Y44946D01*
X15310Y44988D01*
X15343Y45078D01*
X15374Y45108D01*
X15398Y45119D01*
X15440Y45124D01*
X15476Y45111D01*
X15523Y45074D01*
X15660Y44780D01*
X15745Y45013D01*
X15493Y45490D02*
X15427Y45311D01*
X15599Y45228D01*
X15588Y45252D01*
X15583Y45294D01*
X15616Y45384D01*
X15647Y45414D01*
X15671Y45425D01*
X15713Y45430D01*
X15804Y45397D01*
X15833Y45366D01*
X15844Y45342D01*
X15849Y45300D01*
X15816Y45209D01*
X15785Y45180D01*
X15761Y45169D01*
X15538Y45615D02*
X15960Y45603D01*
X15630Y45866D01*
G54D13*
X14344Y45717D02*
X14773Y45561D01*
X14480Y45424D02*
X14636Y45853D01*
G54D22*
X-06235Y50478D02*
X-06216Y50459D01*
X-06197Y50402D01*
X-06197Y50364D01*
X-06216Y50306D01*
X-06254Y50268D01*
X-06292Y50249D01*
X-06369Y50230D01*
X-06426Y50230D01*
X-06502Y50249D01*
X-06540Y50268D01*
X-06578Y50306D01*
X-06597Y50364D01*
X-06597Y50402D01*
X-06578Y50459D01*
X-06559Y50478D01*
X-06197Y50859D02*
X-06197Y50630D01*
X-06197Y50744D02*
X-06597Y50744D01*
X-06540Y50706D01*
X-06502Y50668D01*
X-06483Y50630D01*
X-06827Y48138D02*
X-06827Y47909D01*
X-06827Y48023D02*
X-07227Y48023D01*
X-07170Y47985D01*
X-07132Y47947D01*
X-07113Y47909D01*
X-07227Y48385D02*
X-07227Y48424D01*
X-07208Y48462D01*
X-07189Y48481D01*
X-07151Y48500D01*
X-07075Y48519D01*
X-06979Y48519D01*
X-06903Y48500D01*
X-06865Y48481D01*
X-06846Y48462D01*
X-06827Y48424D01*
X-06827Y48385D01*
X-06846Y48347D01*
X-06865Y48328D01*
X-06903Y48309D01*
X-06979Y48290D01*
X-07075Y48290D01*
X-07151Y48309D01*
X-07189Y48328D01*
X-07208Y48347D01*
X-07227Y48385D01*
X-07094Y48862D02*
X-06827Y48862D01*
X-07094Y48690D02*
X-06884Y48690D01*
X-06846Y48709D01*
X-06827Y48747D01*
X-06827Y48805D01*
X-06846Y48843D01*
X-06865Y48862D01*
X-07037Y49186D02*
X-07037Y49052D01*
X-06827Y49052D02*
X-07227Y49052D01*
X-07227Y49243D01*
X-06789Y49300D02*
X-06789Y49605D01*
X-07189Y49681D02*
X-07208Y49700D01*
X-07227Y49738D01*
X-07227Y49834D01*
X-07208Y49872D01*
X-07189Y49891D01*
X-07151Y49910D01*
X-07113Y49910D01*
X-07056Y49891D01*
X-06827Y49662D01*
X-06827Y49910D01*
X-07227Y50272D02*
X-07227Y50081D01*
X-07037Y50062D01*
X-07056Y50081D01*
X-07075Y50119D01*
X-07075Y50215D01*
X-07056Y50253D01*
X-07037Y50272D01*
X-06999Y50291D01*
X-06903Y50291D01*
X-06865Y50272D01*
X-06846Y50253D01*
X-06827Y50215D01*
X-06827Y50119D01*
X-06846Y50081D01*
X-06865Y50062D01*
X-07227Y50405D02*
X-06827Y50538D01*
X-07227Y50672D01*
G54D13*
X-06666Y49611D02*
X-06209Y49611D01*
X-06438Y49382D02*
X-06438Y49839D01*
G54D15*
X13520Y47556D02*
X13437Y47675D01*
X13378Y47556D02*
X13378Y47806D01*
X13473Y47806D01*
X13497Y47794D01*
X13508Y47782D01*
X13520Y47758D01*
X13520Y47722D01*
X13508Y47699D01*
X13497Y47687D01*
X13473Y47675D01*
X13378Y47675D01*
X13758Y47556D02*
X13616Y47556D01*
X13687Y47556D02*
X13687Y47806D01*
X13663Y47770D01*
X13639Y47746D01*
X13616Y47734D01*
X13390Y47782D02*
X13402Y47794D01*
X13425Y47806D01*
X13485Y47806D01*
X13509Y47794D01*
X13521Y47782D01*
X13532Y47758D01*
X13532Y47734D01*
X13521Y47699D01*
X13378Y47556D01*
X13532Y47556D01*
X13640Y47556D02*
X13640Y47806D01*
X13663Y47651D02*
X13735Y47556D01*
X13735Y47722D02*
X13640Y47627D01*
X15180Y47571D02*
X15097Y47690D01*
X15038Y47571D02*
X15038Y47821D01*
X15133Y47821D01*
X15157Y47809D01*
X15168Y47797D01*
X15180Y47773D01*
X15180Y47737D01*
X15168Y47714D01*
X15157Y47702D01*
X15133Y47690D01*
X15038Y47690D01*
X15276Y47797D02*
X15288Y47809D01*
X15311Y47821D01*
X15371Y47821D01*
X15395Y47809D01*
X15407Y47797D01*
X15418Y47773D01*
X15418Y47749D01*
X15407Y47714D01*
X15264Y47571D01*
X15418Y47571D01*
X15214Y47556D02*
X15131Y47675D01*
X15072Y47556D02*
X15072Y47806D01*
X15167Y47806D01*
X15191Y47794D01*
X15202Y47782D01*
X15214Y47758D01*
X15214Y47722D01*
X15202Y47699D01*
X15191Y47687D01*
X15167Y47675D01*
X15072Y47675D01*
X-00077Y53836D02*
X-00196Y53753D01*
X-00077Y53694D02*
X-00327Y53694D01*
X-00327Y53789D01*
X-00315Y53813D01*
X-00303Y53824D01*
X-00279Y53836D01*
X-00243Y53836D01*
X-00220Y53824D01*
X-00208Y53813D01*
X-00196Y53789D01*
X-00196Y53694D01*
X-00243Y54051D02*
X-00077Y54051D01*
X-00339Y53991D02*
X-00160Y53932D01*
X-00160Y54086D01*
X-00327Y53777D02*
X-00469Y53777D01*
X-00398Y53777D02*
X-00398Y54027D01*
X-00422Y53991D01*
X-00446Y53967D01*
X-00469Y53955D01*
X-00172Y54027D02*
X-00148Y54027D01*
X-00124Y54015D01*
X-00112Y54003D01*
X-00100Y53979D01*
X-00089Y53932D01*
X-00089Y53872D01*
X-00100Y53824D01*
X-00112Y53801D01*
X-00124Y53789D01*
X-00148Y53777D01*
X-00172Y53777D01*
X-00196Y53789D01*
X-00208Y53801D01*
X-00219Y53824D01*
X-00231Y53872D01*
X-00231Y53932D01*
X-00219Y53979D01*
X-00208Y54003D01*
X-00196Y54015D01*
X-00172Y54027D01*
X00019Y53777D02*
X00019Y54027D01*
X00042Y53872D02*
X00114Y53777D01*
X00114Y53943D02*
X00019Y53848D01*
X-02287Y49109D02*
X-02406Y49026D01*
X-02287Y48967D02*
X-02537Y48967D01*
X-02537Y49062D01*
X-02525Y49086D01*
X-02513Y49097D01*
X-02489Y49109D01*
X-02453Y49109D01*
X-02430Y49097D01*
X-02418Y49086D01*
X-02406Y49062D01*
X-02406Y48967D01*
X-02537Y49336D02*
X-02537Y49217D01*
X-02418Y49205D01*
X-02430Y49217D01*
X-02442Y49240D01*
X-02442Y49300D01*
X-02430Y49324D01*
X-02418Y49336D01*
X-02394Y49347D01*
X-02334Y49347D01*
X-02311Y49336D01*
X-02299Y49324D01*
X-02287Y49300D01*
X-02287Y49240D01*
X-02299Y49217D01*
X-02311Y49205D01*
X-01731Y49003D02*
X-01731Y48861D01*
X-01731Y48932D02*
X-01981Y48932D01*
X-01945Y48908D01*
X-01921Y48884D01*
X-01909Y48861D01*
X-01981Y49158D02*
X-01981Y49182D01*
X-01969Y49206D01*
X-01957Y49218D01*
X-01933Y49230D01*
X-01886Y49241D01*
X-01826Y49241D01*
X-01778Y49230D01*
X-01755Y49218D01*
X-01743Y49206D01*
X-01731Y49182D01*
X-01731Y49158D01*
X-01743Y49134D01*
X-01755Y49122D01*
X-01778Y49111D01*
X-01826Y49099D01*
X-01886Y49099D01*
X-01933Y49111D01*
X-01957Y49122D01*
X-01969Y49134D01*
X-01981Y49158D01*
X-01731Y49349D02*
X-01981Y49349D01*
X-01826Y49372D02*
X-01731Y49444D01*
X-01897Y49444D02*
X-01802Y49349D01*
X04899Y49052D02*
X04816Y49171D01*
X04757Y49052D02*
X04757Y49302D01*
X04852Y49302D01*
X04876Y49290D01*
X04887Y49278D01*
X04899Y49254D01*
X04899Y49218D01*
X04887Y49195D01*
X04876Y49183D01*
X04852Y49171D01*
X04757Y49171D01*
X04983Y49302D02*
X05137Y49302D01*
X05054Y49207D01*
X05090Y49207D01*
X05114Y49195D01*
X05126Y49183D01*
X05137Y49159D01*
X05137Y49099D01*
X05126Y49076D01*
X05114Y49064D01*
X05090Y49052D01*
X05018Y49052D01*
X04995Y49064D01*
X04983Y49076D01*
X04620Y49302D02*
X04774Y49302D01*
X04691Y49207D01*
X04727Y49207D01*
X04751Y49195D01*
X04763Y49183D01*
X04774Y49159D01*
X04774Y49099D01*
X04763Y49076D01*
X04751Y49064D01*
X04727Y49052D01*
X04655Y49052D01*
X04632Y49064D01*
X04620Y49076D01*
X04858Y49302D02*
X05012Y49302D01*
X04929Y49207D01*
X04965Y49207D01*
X04989Y49195D01*
X05001Y49183D01*
X05012Y49159D01*
X05012Y49099D01*
X05001Y49076D01*
X04989Y49064D01*
X04965Y49052D01*
X04893Y49052D01*
X04870Y49064D01*
X04858Y49076D01*
X05167Y49302D02*
X05191Y49302D01*
X05215Y49290D01*
X05227Y49278D01*
X05239Y49254D01*
X05250Y49207D01*
X05250Y49147D01*
X05239Y49099D01*
X05227Y49076D01*
X05215Y49064D01*
X05191Y49052D01*
X05167Y49052D01*
X05143Y49064D01*
X05131Y49076D01*
X05120Y49099D01*
X05108Y49147D01*
X05108Y49207D01*
X05120Y49254D01*
X05131Y49278D01*
X05143Y49290D01*
X05167Y49302D01*
G54D12*
X03199Y48121D02*
X03906Y47980D01*
X03481Y48404D02*
X03623Y47697D01*
X04289Y48363D02*
X04046Y48121D01*
X04168Y48242D02*
X03744Y48667D01*
X03764Y48566D01*
X03764Y48484D01*
X03743Y48424D01*
X00617Y46097D02*
X01324Y45956D01*
X00899Y46380D02*
X01041Y45673D01*
X01000Y46481D02*
X01242Y46723D01*
X01546Y46178D02*
X01121Y46602D01*
X01666Y46542D02*
X01868Y46744D01*
X01747Y46380D02*
X01464Y46945D01*
X02030Y46662D01*
X02374Y47006D02*
X02171Y46804D01*
X01747Y47228D01*
X02454Y47006D02*
X02777Y47329D01*
X03081Y47713D02*
X02737Y47774D01*
X02838Y47471D02*
X02414Y47895D01*
X02575Y48056D01*
X02636Y48077D01*
X02676Y48077D01*
X02737Y48057D01*
X02798Y47996D01*
X02818Y47935D01*
X02818Y47895D01*
X02797Y47834D01*
X02636Y47673D01*
X03041Y48117D02*
X03182Y48258D01*
X03465Y48097D02*
X03263Y47895D01*
X02838Y48319D01*
X03041Y48521D01*
X03606Y48279D02*
X03687Y48319D01*
X03788Y48420D01*
X03808Y48481D01*
X03808Y48521D01*
X03788Y48582D01*
X03747Y48623D01*
X03687Y48643D01*
X03647Y48642D01*
X03586Y48623D01*
X03485Y48562D01*
X03424Y48541D01*
X03383Y48542D01*
X03323Y48562D01*
X03282Y48602D01*
X03263Y48663D01*
X03262Y48703D01*
X03283Y48764D01*
X03383Y48864D01*
X03464Y48905D01*
X03707Y49188D02*
X03787Y49268D01*
X03848Y49289D01*
X03929Y49289D01*
X04030Y49228D01*
X04171Y49086D01*
X04232Y48986D01*
X04232Y48905D01*
X04212Y48844D01*
X04131Y48763D01*
X04070Y48743D01*
X03989Y48743D01*
X03888Y48804D01*
X03747Y48945D01*
X03687Y49046D01*
X03686Y49127D01*
X03707Y49188D01*
X04495Y49127D02*
X04071Y49552D01*
X04738Y49370D01*
X04313Y49794D01*
X04798Y49673D02*
X05000Y49876D01*
X04879Y49511D02*
X04596Y50077D01*
X05162Y49794D01*
X04818Y50299D02*
X05061Y50542D01*
X05364Y49996D02*
X04940Y50421D01*
X05283Y50764D02*
X05363Y50844D01*
X05424Y50865D01*
X05506Y50865D01*
X05606Y50804D01*
X05747Y50663D01*
X05808Y50562D01*
X05808Y50482D01*
X05788Y50420D01*
X05707Y50339D01*
X05646Y50320D01*
X05566Y50320D01*
X05464Y50380D01*
X05323Y50521D01*
X05263Y50622D01*
X05262Y50704D01*
X05283Y50764D01*
X06314Y50946D02*
X05970Y51007D01*
X06071Y50704D02*
X05647Y51128D01*
X05808Y51289D01*
X05869Y51310D01*
X05909Y51310D01*
X05970Y51290D01*
X06031Y51229D01*
X06051Y51168D01*
X06051Y51128D01*
X06030Y51067D01*
X05869Y50906D01*
G54D15*
X06388Y47450D02*
X06088Y47450D01*
X06088Y47522D01*
X06103Y47565D01*
X06131Y47593D01*
X06160Y47608D01*
X06217Y47622D01*
X06260Y47622D01*
X06317Y47608D01*
X06346Y47593D01*
X06374Y47565D01*
X06388Y47522D01*
X06388Y47450D01*
X06388Y47908D02*
X06388Y47736D01*
X06388Y47822D02*
X06088Y47822D01*
X06131Y47793D01*
X06160Y47765D01*
X06174Y47736D01*
X06088Y48008D02*
X06088Y48208D01*
X06388Y48079D01*
X05388Y47622D02*
X05388Y47479D01*
X05088Y47479D01*
X05231Y47722D02*
X05231Y47822D01*
X05388Y47865D02*
X05388Y47722D01*
X05088Y47722D01*
X05088Y47865D01*
X05388Y47993D02*
X05088Y47993D01*
X05088Y48065D01*
X05103Y48108D01*
X05131Y48136D01*
X05160Y48151D01*
X05217Y48165D01*
X05260Y48165D01*
X05317Y48151D01*
X05346Y48136D01*
X05374Y48108D01*
X05388Y48065D01*
X05388Y47993D01*
X-01755Y47535D02*
X-01743Y47523D01*
X-01731Y47488D01*
X-01731Y47464D01*
X-01743Y47428D01*
X-01767Y47404D01*
X-01790Y47393D01*
X-01838Y47381D01*
X-01874Y47381D01*
X-01921Y47393D01*
X-01945Y47404D01*
X-01969Y47428D01*
X-01981Y47464D01*
X-01981Y47488D01*
X-01969Y47523D01*
X-01957Y47535D01*
X-01874Y47678D02*
X-01886Y47654D01*
X-01897Y47643D01*
X-01921Y47631D01*
X-01933Y47631D01*
X-01957Y47643D01*
X-01969Y47654D01*
X-01981Y47678D01*
X-01981Y47726D01*
X-01969Y47750D01*
X-01957Y47762D01*
X-01933Y47773D01*
X-01921Y47773D01*
X-01897Y47762D01*
X-01886Y47750D01*
X-01874Y47726D01*
X-01874Y47678D01*
X-01862Y47654D01*
X-01850Y47643D01*
X-01826Y47631D01*
X-01778Y47631D01*
X-01755Y47643D01*
X-01743Y47654D01*
X-01731Y47678D01*
X-01731Y47726D01*
X-01743Y47750D01*
X-01755Y47762D01*
X-01778Y47773D01*
X-01826Y47773D01*
X-01850Y47762D01*
X-01862Y47750D01*
X-01874Y47726D01*
X-01981Y47167D02*
X-01981Y47191D01*
X-01969Y47215D01*
X-01957Y47227D01*
X-01933Y47239D01*
X-01886Y47250D01*
X-01826Y47250D01*
X-01778Y47239D01*
X-01755Y47227D01*
X-01743Y47215D01*
X-01731Y47191D01*
X-01731Y47167D01*
X-01743Y47143D01*
X-01755Y47131D01*
X-01778Y47120D01*
X-01826Y47108D01*
X-01886Y47108D01*
X-01933Y47120D01*
X-01957Y47131D01*
X-01969Y47143D01*
X-01981Y47167D01*
X-01755Y47358D02*
X-01743Y47369D01*
X-01731Y47358D01*
X-01743Y47346D01*
X-01755Y47358D01*
X-01731Y47358D01*
X-01731Y47607D02*
X-01731Y47465D01*
X-01731Y47536D02*
X-01981Y47536D01*
X-01945Y47512D01*
X-01921Y47488D01*
X-01909Y47465D01*
X-01897Y47822D02*
X-01731Y47822D01*
X-01897Y47715D02*
X-01767Y47715D01*
X-01743Y47726D01*
X-01731Y47750D01*
X-01731Y47786D01*
X-01743Y47810D01*
X-01755Y47822D01*
X-01862Y48024D02*
X-01862Y47941D01*
X-01731Y47941D02*
X-01981Y47941D01*
X-01981Y48060D01*
G54D23*
X02916Y54157D02*
X02929Y54457D01*
X03001Y54453D01*
X03043Y54437D01*
X03070Y54407D01*
X03084Y54378D01*
X03095Y54320D01*
X03093Y54277D01*
X03077Y54221D01*
X03061Y54193D01*
X03031Y54166D01*
X02988Y54154D01*
X02916Y54157D01*
X03266Y54313D02*
X03239Y54328D01*
X03224Y54344D01*
X03212Y54372D01*
X03212Y54386D01*
X03227Y54414D01*
X03243Y54428D01*
X03272Y54442D01*
X03329Y54439D01*
X03357Y54423D01*
X03370Y54408D01*
X03384Y54379D01*
X03383Y54365D01*
X03367Y54337D01*
X03353Y54323D01*
X03323Y54310D01*
X03266Y54313D01*
X03237Y54300D01*
X03222Y54286D01*
X03207Y54258D01*
X03204Y54201D01*
X03217Y54172D01*
X03231Y54157D01*
X03259Y54142D01*
X03316Y54139D01*
X03345Y54152D01*
X03360Y54165D01*
X03376Y54194D01*
X03378Y54251D01*
X03365Y54279D01*
X03351Y54295D01*
X03323Y54310D01*
X03075Y57154D02*
X02932Y57160D01*
X02945Y57459D01*
X03182Y57306D02*
X03282Y57302D01*
X03318Y57143D02*
X03175Y57149D01*
X03188Y57449D01*
X03331Y57443D01*
X03446Y57137D02*
X03459Y57437D01*
X03531Y57434D01*
X03573Y57417D01*
X03600Y57388D01*
X03613Y57358D01*
X03625Y57301D01*
X03623Y57258D01*
X03606Y57201D01*
X03590Y57173D01*
X03561Y57146D01*
X03517Y57134D01*
X03446Y57137D01*
G54D12*
X02495Y56685D02*
X02951Y56665D01*
G54D23*
X13170Y52690D02*
X13235Y52983D01*
X13306Y52967D01*
X13344Y52943D01*
X13366Y52910D01*
X13374Y52878D01*
X13375Y52820D01*
X13366Y52778D01*
X13340Y52725D01*
X13319Y52700D01*
X13286Y52679D01*
X13241Y52674D01*
X13170Y52690D01*
X13618Y52591D02*
X13450Y52628D01*
X13534Y52609D02*
X13599Y52902D01*
X13561Y52867D01*
X13527Y52844D01*
X13496Y52837D01*
X13897Y52529D02*
X13729Y52566D01*
X13813Y52547D02*
X13878Y52840D01*
X13840Y52805D01*
X13807Y52782D01*
X13775Y52775D01*
X13988Y55581D02*
X13849Y55612D01*
X13914Y55904D01*
X14120Y55712D02*
X14218Y55691D01*
X14226Y55528D02*
X14086Y55559D01*
X14151Y55852D01*
X14291Y55821D01*
X14351Y55500D02*
X14416Y55793D01*
X14486Y55778D01*
X14525Y55754D01*
X14546Y55720D01*
X14554Y55689D01*
X14556Y55630D01*
X14546Y55588D01*
X14520Y55535D01*
X14499Y55510D01*
X14466Y55489D01*
X14421Y55485D01*
X14351Y55500D01*
G54D12*
X13334Y55221D02*
X13781Y55122D01*
G54D23*
X16767Y51659D02*
X16845Y51948D01*
X16914Y51930D01*
X16952Y51904D01*
X16972Y51870D01*
X16979Y51838D01*
X16978Y51779D01*
X16966Y51738D01*
X16938Y51686D01*
X16916Y51662D01*
X16882Y51642D01*
X16837Y51640D01*
X16767Y51659D01*
X17210Y51540D02*
X17043Y51585D01*
X17126Y51562D02*
X17204Y51852D01*
X17165Y51818D01*
X17130Y51797D01*
X17099Y51791D01*
X17390Y51772D02*
X17407Y51782D01*
X17439Y51789D01*
X17507Y51771D01*
X17532Y51749D01*
X17541Y51732D01*
X17548Y51700D01*
X17541Y51673D01*
X17516Y51635D01*
X17306Y51514D01*
X17486Y51466D01*
X17709Y54512D02*
X17571Y54549D01*
X17649Y54839D01*
X17846Y54638D02*
X17943Y54612D01*
X17944Y54449D02*
X17806Y54486D01*
X17883Y54776D01*
X18022Y54739D01*
X18068Y54416D02*
X18145Y54706D01*
X18215Y54687D01*
X18252Y54662D01*
X18272Y54627D01*
X18279Y54595D01*
X18278Y54537D01*
X18267Y54495D01*
X18239Y54444D01*
X18217Y54420D01*
X18182Y54400D01*
X18137Y54397D01*
X18068Y54416D01*
G54D12*
X17041Y54180D02*
X17483Y54062D01*
G54D23*
X20107Y50471D02*
X20209Y50753D01*
X20277Y50728D01*
X20312Y50700D01*
X20329Y50664D01*
X20333Y50631D01*
X20327Y50573D01*
X20312Y50533D01*
X20279Y50484D01*
X20255Y50462D01*
X20219Y50445D01*
X20174Y50447D01*
X20107Y50471D01*
X20537Y50314D02*
X20375Y50373D01*
X20456Y50344D02*
X20559Y50626D01*
X20517Y50595D01*
X20481Y50578D01*
X20449Y50574D01*
X20734Y50562D02*
X20908Y50499D01*
X20775Y50425D01*
X20815Y50410D01*
X20837Y50387D01*
X20845Y50369D01*
X20850Y50337D01*
X20825Y50270D01*
X20801Y50248D01*
X20783Y50240D01*
X20751Y50237D01*
X20671Y50266D01*
X20649Y50289D01*
X20641Y50307D01*
X21294Y53232D02*
X21160Y53281D01*
X21262Y53563D01*
X21442Y53346D02*
X21536Y53311D01*
X21523Y53149D02*
X21388Y53198D01*
X21491Y53480D01*
X21625Y53431D01*
X21643Y53105D02*
X21745Y53387D01*
X21813Y53363D01*
X21848Y53334D01*
X21865Y53298D01*
X21869Y53266D01*
X21863Y53207D01*
X21848Y53167D01*
X21816Y53118D01*
X21792Y53096D01*
X21756Y53079D01*
X21711Y53081D01*
X21643Y53105D01*
G54D12*
X20599Y52960D02*
X21028Y52804D01*
G54D23*
X23274Y49055D02*
X23389Y49332D01*
X23456Y49305D01*
X23490Y49274D01*
X23505Y49238D01*
X23508Y49205D01*
X23499Y49147D01*
X23482Y49107D01*
X23448Y49060D01*
X23423Y49039D01*
X23386Y49024D01*
X23341Y49027D01*
X23274Y49055D01*
X23698Y48880D02*
X23539Y48945D01*
X23618Y48913D02*
X23733Y49190D01*
X23690Y49161D01*
X23653Y49145D01*
X23621Y49143D01*
X24012Y48966D02*
X23935Y48781D01*
X23990Y49099D02*
X23841Y48928D01*
X24013Y48857D01*
X24581Y51761D02*
X24449Y51816D01*
X24564Y52093D01*
X24734Y51868D02*
X24826Y51830D01*
X24806Y51668D02*
X24674Y51723D01*
X24789Y52000D01*
X24921Y51945D01*
X24924Y51619D02*
X25039Y51896D01*
X25105Y51869D01*
X25139Y51838D01*
X25155Y51802D01*
X25157Y51769D01*
X25148Y51711D01*
X25132Y51672D01*
X25097Y51624D01*
X25072Y51603D01*
X25036Y51588D01*
X24991Y51592D01*
X24924Y51619D01*
G54D12*
X23875Y51519D02*
X24297Y51344D01*
G54D23*
X26405Y47406D02*
X26532Y47677D01*
X26597Y47647D01*
X26630Y47615D01*
X26643Y47578D01*
X26645Y47545D01*
X26633Y47488D01*
X26615Y47449D01*
X26578Y47403D01*
X26552Y47383D01*
X26515Y47370D01*
X26470Y47375D01*
X26405Y47406D01*
X26820Y47212D02*
X26664Y47285D01*
X26742Y47248D02*
X26869Y47520D01*
X26825Y47494D01*
X26787Y47479D01*
X26755Y47479D01*
X27193Y47369D02*
X27063Y47430D01*
X26990Y47306D01*
X27008Y47313D01*
X27041Y47313D01*
X27105Y47283D01*
X27125Y47258D01*
X27132Y47240D01*
X27133Y47207D01*
X27103Y47143D01*
X27078Y47123D01*
X27059Y47116D01*
X27027Y47116D01*
X26962Y47146D01*
X26942Y47171D01*
X26935Y47189D01*
X27829Y50051D02*
X27699Y50111D01*
X27826Y50383D01*
X27986Y50151D02*
X28077Y50109D01*
X28049Y49948D02*
X27920Y50009D01*
X28046Y50281D01*
X28176Y50220D01*
X28165Y49894D02*
X28292Y50166D01*
X28357Y50136D01*
X28390Y50104D01*
X28403Y50067D01*
X28405Y50034D01*
X28393Y49976D01*
X28375Y49937D01*
X28338Y49892D01*
X28313Y49872D01*
X28275Y49858D01*
X28230Y49864D01*
X28165Y49894D01*
G54D12*
X27113Y49842D02*
X27528Y49649D01*
G54D23*
X-20678Y50150D02*
X-20805Y50421D01*
X-20740Y50452D01*
X-20694Y50456D01*
X-20657Y50443D01*
X-20631Y50423D01*
X-20594Y50377D01*
X-20576Y50338D01*
X-20565Y50281D01*
X-20566Y50248D01*
X-20580Y50211D01*
X-20613Y50180D01*
X-20678Y50150D01*
X-20263Y50343D02*
X-20419Y50270D01*
X-20341Y50307D02*
X-20468Y50579D01*
X-20476Y50527D01*
X-20489Y50489D01*
X-20509Y50464D01*
X-21920Y52880D02*
X-22049Y52819D01*
X-22176Y53091D01*
X-21896Y53064D02*
X-21805Y53107D01*
X-21700Y52982D02*
X-21829Y52922D01*
X-21956Y53194D01*
X-21826Y53254D01*
X-21584Y53037D02*
X-21710Y53308D01*
X-21645Y53339D01*
X-21600Y53343D01*
X-21563Y53330D01*
X-21537Y53310D01*
X-21500Y53264D01*
X-21482Y53225D01*
X-21470Y53168D01*
X-21472Y53135D01*
X-21485Y53098D01*
X-21518Y53067D01*
X-21584Y53037D01*
G54D12*
X-22219Y52197D02*
X-21805Y52390D01*
G54D23*
X-17587Y51372D02*
X-17690Y51654D01*
X-17622Y51679D01*
X-17577Y51680D01*
X-17541Y51663D01*
X-17517Y51641D01*
X-17484Y51592D01*
X-17469Y51551D01*
X-17463Y51493D01*
X-17467Y51461D01*
X-17484Y51425D01*
X-17520Y51397D01*
X-17587Y51372D01*
X-17411Y51725D02*
X-17403Y51743D01*
X-17381Y51767D01*
X-17314Y51791D01*
X-17282Y51787D01*
X-17264Y51779D01*
X-17240Y51756D01*
X-17230Y51730D01*
X-17229Y51685D01*
X-17332Y51465D01*
X-17157Y51529D01*
X-18586Y54202D02*
X-18720Y54153D01*
X-18823Y54435D01*
X-18546Y54384D02*
X-18452Y54418D01*
X-18358Y54285D02*
X-18492Y54236D01*
X-18595Y54518D01*
X-18460Y54567D01*
X-18237Y54329D02*
X-18340Y54611D01*
X-18272Y54636D01*
X-18227Y54636D01*
X-18191Y54620D01*
X-18167Y54597D01*
X-18134Y54549D01*
X-18120Y54508D01*
X-18113Y54450D01*
X-18117Y54418D01*
X-18134Y54382D01*
X-18170Y54354D01*
X-18237Y54329D01*
G54D12*
X-18943Y53547D02*
X-18514Y53703D01*
G54D23*
X-14382Y52373D02*
X-14460Y52662D01*
X-14390Y52681D01*
X-14345Y52678D01*
X-14311Y52658D01*
X-14289Y52634D01*
X-14260Y52582D01*
X-14249Y52541D01*
X-14248Y52482D01*
X-14255Y52450D01*
X-14275Y52416D01*
X-14313Y52391D01*
X-14382Y52373D01*
X-14197Y52733D02*
X-14017Y52781D01*
X-14084Y52644D01*
X-14044Y52655D01*
X-14012Y52649D01*
X-13995Y52639D01*
X-13973Y52615D01*
X-13954Y52546D01*
X-13961Y52514D01*
X-13971Y52497D01*
X-13996Y52476D01*
X-14078Y52454D01*
X-14109Y52460D01*
X-14127Y52470D01*
X-15130Y55278D02*
X-15268Y55241D01*
X-15346Y55531D01*
X-15074Y55456D02*
X-14978Y55482D01*
X-14895Y55341D02*
X-15034Y55304D01*
X-15111Y55594D01*
X-14973Y55631D01*
X-14772Y55374D02*
X-14849Y55664D01*
X-14780Y55683D01*
X-14734Y55679D01*
X-14700Y55659D01*
X-14678Y55635D01*
X-14650Y55584D01*
X-14639Y55542D01*
X-14638Y55484D01*
X-14644Y55452D01*
X-14664Y55417D01*
X-14702Y55393D01*
X-14772Y55374D01*
G54D12*
X-15544Y54656D02*
X-15102Y54775D01*
G54D23*
X-11179Y53188D02*
X-11231Y53484D01*
X-11160Y53496D01*
X-11115Y53489D01*
X-11082Y53466D01*
X-11063Y53440D01*
X-11039Y53387D01*
X-11031Y53344D01*
X-11035Y53286D01*
X-11045Y53254D01*
X-11068Y53222D01*
X-11108Y53201D01*
X-11179Y53188D01*
X-10791Y53460D02*
X-10756Y53263D01*
X-10881Y53560D02*
X-10914Y53336D01*
X-10731Y53369D01*
X-11670Y56147D02*
X-11811Y56122D01*
X-11863Y56418D01*
X-11599Y56319D02*
X-11500Y56337D01*
X-11431Y56190D02*
X-11572Y56165D01*
X-11624Y56460D01*
X-11483Y56485D01*
X-11305Y56212D02*
X-11357Y56507D01*
X-11286Y56520D01*
X-11241Y56512D01*
X-11208Y56490D01*
X-11189Y56464D01*
X-11165Y56410D01*
X-11158Y56368D01*
X-11161Y56309D01*
X-11171Y56278D01*
X-11194Y56246D01*
X-11234Y56224D01*
X-11305Y56212D01*
G54D12*
X-12136Y55565D02*
X-11686Y55644D01*
G54D23*
X-07248Y54053D02*
X-07284Y54351D01*
X-07213Y54359D01*
X-07168Y54350D01*
X-07137Y54325D01*
X-07119Y54298D01*
X-07098Y54244D01*
X-07092Y54201D01*
X-07099Y54143D01*
X-07111Y54112D01*
X-07135Y54081D01*
X-07176Y54062D01*
X-07248Y54053D01*
X-06844Y54405D02*
X-06986Y54387D01*
X-06983Y54244D01*
X-06971Y54259D01*
X-06944Y54277D01*
X-06873Y54285D01*
X-06843Y54275D01*
X-06827Y54263D01*
X-06809Y54236D01*
X-06800Y54165D01*
X-06811Y54135D01*
X-06824Y54119D01*
X-06851Y54102D01*
X-06921Y54093D01*
X-06952Y54103D01*
X-06967Y54115D01*
X-07585Y57034D02*
X-07727Y57017D01*
X-07763Y57315D01*
X-07505Y57202D02*
X-07405Y57215D01*
X-07344Y57064D02*
X-07486Y57047D01*
X-07522Y57344D01*
X-07380Y57362D01*
X-07217Y57080D02*
X-07253Y57377D01*
X-07182Y57386D01*
X-07137Y57376D01*
X-07106Y57352D01*
X-07088Y57325D01*
X-07067Y57270D01*
X-07061Y57228D01*
X-07068Y57169D01*
X-07080Y57139D01*
X-07104Y57108D01*
X-07145Y57088D01*
X-07217Y57080D01*
G54D12*
X-08081Y56476D02*
X-07627Y56532D01*
G54D23*
X-04148Y54098D02*
X-04161Y54398D01*
X-04089Y54401D01*
X-04045Y54388D01*
X-04016Y54361D01*
X-04000Y54333D01*
X-03983Y54277D01*
X-03981Y54234D01*
X-03993Y54176D01*
X-04006Y54147D01*
X-04033Y54117D01*
X-04076Y54102D01*
X-04148Y54098D01*
X-03732Y54417D02*
X-03789Y54414D01*
X-03817Y54398D01*
X-03831Y54384D01*
X-03858Y54339D01*
X-03869Y54282D01*
X-03864Y54168D01*
X-03849Y54139D01*
X-03833Y54126D01*
X-03805Y54113D01*
X-03748Y54116D01*
X-03720Y54131D01*
X-03706Y54146D01*
X-03692Y54175D01*
X-03696Y54246D01*
X-03712Y54275D01*
X-03726Y54288D01*
X-03756Y54301D01*
X-03813Y54298D01*
X-03840Y54283D01*
X-03855Y54268D01*
X-03867Y54239D01*
X-04249Y57098D02*
X-04391Y57091D01*
X-04404Y57391D01*
X-04155Y57259D02*
X-04056Y57263D01*
X-04006Y57108D02*
X-04149Y57102D01*
X-04162Y57402D01*
X-04019Y57408D01*
X-03878Y57114D02*
X-03891Y57414D01*
X-03819Y57417D01*
X-03775Y57404D01*
X-03746Y57377D01*
X-03730Y57349D01*
X-03714Y57292D01*
X-03712Y57249D01*
X-03723Y57192D01*
X-03737Y57162D01*
X-03764Y57133D01*
X-03806Y57117D01*
X-03878Y57114D01*
G54D12*
X-04787Y56580D02*
X-04331Y56600D01*
G54D23*
X10049Y53368D02*
X10101Y53664D01*
X10172Y53651D01*
X10211Y53629D01*
X10234Y53596D01*
X10244Y53565D01*
X10248Y53507D01*
X10240Y53464D01*
X10216Y53411D01*
X10197Y53385D01*
X10164Y53362D01*
X10119Y53356D01*
X10049Y53368D01*
X10500Y53289D02*
X10330Y53319D01*
X10415Y53304D02*
X10467Y53599D01*
X10431Y53562D01*
X10398Y53538D01*
X10367Y53529D01*
X10735Y53552D02*
X10762Y53547D01*
X10788Y53527D01*
X10800Y53511D01*
X10808Y53480D01*
X10813Y53421D01*
X10801Y53351D01*
X10776Y53298D01*
X10758Y53272D01*
X10741Y53260D01*
X10710Y53252D01*
X10683Y53256D01*
X10657Y53275D01*
X10645Y53291D01*
X10636Y53323D01*
X10632Y53381D01*
X10644Y53451D01*
X10668Y53505D01*
X10687Y53531D01*
X10704Y53542D01*
X10735Y53552D01*
X10738Y56292D02*
X10597Y56317D01*
X10649Y56613D01*
X10864Y56430D02*
X10962Y56412D01*
X10977Y56250D02*
X10836Y56275D01*
X10888Y56570D01*
X11029Y56546D01*
X11103Y56228D02*
X11155Y56523D01*
X11226Y56511D01*
X11266Y56489D01*
X11289Y56456D01*
X11298Y56425D01*
X11302Y56366D01*
X11295Y56324D01*
X11271Y56270D01*
X11251Y56244D01*
X11219Y56222D01*
X11174Y56215D01*
X11103Y56228D01*
G54D12*
X10101Y55904D02*
X10551Y55824D01*
G54D23*
X06162Y53914D02*
X06201Y54211D01*
X06273Y54202D01*
X06313Y54182D01*
X06337Y54150D01*
X06349Y54119D01*
X06355Y54061D01*
X06349Y54018D01*
X06328Y53964D01*
X06309Y53937D01*
X06278Y53913D01*
X06233Y53905D01*
X06162Y53914D01*
X06474Y53873D02*
X06531Y53865D01*
X06561Y53876D01*
X06577Y53888D01*
X06611Y53927D01*
X06633Y53981D01*
X06648Y54094D01*
X06637Y54125D01*
X06625Y54141D01*
X06598Y54159D01*
X06541Y54167D01*
X06512Y54155D01*
X06495Y54144D01*
X06477Y54117D01*
X06468Y54046D01*
X06478Y54016D01*
X06491Y54000D01*
X06517Y53982D01*
X06574Y53975D01*
X06604Y53985D01*
X06620Y53997D01*
X06639Y54024D01*
X06583Y56884D02*
X06441Y56903D01*
X06480Y57200D01*
X06702Y57027D02*
X06802Y57014D01*
X06824Y56853D02*
X06682Y56871D01*
X06721Y57169D01*
X06863Y57150D01*
X06951Y56836D02*
X06990Y57133D01*
X07061Y57124D01*
X07102Y57103D01*
X07126Y57072D01*
X07137Y57041D01*
X07144Y56983D01*
X07138Y56940D01*
X07117Y56886D01*
X07098Y56859D01*
X07067Y56835D01*
X07022Y56826D01*
X06951Y56836D01*
G54D12*
X05963Y56469D02*
X06416Y56409D01*
G54D23*
X-00636Y54225D02*
X-00636Y54525D01*
X-00564Y54525D01*
X-00521Y54510D01*
X-00493Y54482D01*
X-00478Y54453D01*
X-00464Y54396D01*
X-00464Y54353D01*
X-00478Y54296D01*
X-00493Y54267D01*
X-00521Y54239D01*
X-00564Y54225D01*
X-00636Y54225D01*
X-00364Y54525D02*
X-00164Y54525D01*
X-00293Y54225D01*
X-00607Y57225D02*
X-00750Y57225D01*
X-00750Y57525D01*
X-00507Y57382D02*
X-00407Y57382D01*
X-00364Y57225D02*
X-00507Y57225D01*
X-00507Y57525D01*
X-00364Y57525D01*
X-00236Y57225D02*
X-00236Y57525D01*
X-00164Y57525D01*
X-00121Y57510D01*
X-00093Y57482D01*
X-00078Y57453D01*
X-00064Y57396D01*
X-00064Y57353D01*
X-00078Y57296D01*
X-00093Y57267D01*
X-00121Y57239D01*
X-00164Y57225D01*
X-00236Y57225D01*
G54D12*
X-01167Y56732D02*
X-00710Y56732D01*
G54D23*
X29068Y45865D02*
X29222Y46122D01*
X29284Y46085D01*
X29313Y46050D01*
X29323Y46012D01*
X29321Y45979D01*
X29303Y45923D01*
X29281Y45886D01*
X29240Y45845D01*
X29212Y45828D01*
X29174Y45818D01*
X29130Y45828D01*
X29068Y45865D01*
X29460Y45629D02*
X29313Y45718D01*
X29387Y45674D02*
X29541Y45931D01*
X29494Y45909D01*
X29455Y45898D01*
X29423Y45901D01*
X29835Y45754D02*
X29786Y45784D01*
X29754Y45786D01*
X29735Y45781D01*
X29688Y45759D01*
X29646Y45717D01*
X29587Y45620D01*
X29585Y45587D01*
X29590Y45568D01*
X29607Y45541D01*
X29656Y45512D01*
X29688Y45509D01*
X29707Y45514D01*
X29735Y45531D01*
X29771Y45592D01*
X29774Y45624D01*
X29769Y45644D01*
X29751Y45671D01*
X29702Y45700D01*
X29671Y45702D01*
X29651Y45698D01*
X29624Y45680D01*
X30761Y48349D02*
X30639Y48422D01*
X30793Y48679D01*
X30928Y48432D02*
X31014Y48380D01*
X30970Y48224D02*
X30847Y48297D01*
X31001Y48554D01*
X31124Y48481D01*
X31079Y48158D02*
X31234Y48415D01*
X31295Y48378D01*
X31325Y48343D01*
X31334Y48304D01*
X31332Y48272D01*
X31315Y48216D01*
X31293Y48179D01*
X31251Y48137D01*
X31223Y48120D01*
X31185Y48110D01*
X31141Y48121D01*
X31079Y48158D01*
G54D12*
X30027Y48214D02*
X30419Y47979D01*
G54D15*
X-09965Y45886D02*
X-09913Y45649D01*
X-09892Y45624D01*
X-09875Y45613D01*
X-09844Y45606D01*
X-09788Y45618D01*
X-09764Y45638D01*
X-09752Y45655D01*
X-09745Y45686D01*
X-09797Y45923D01*
X-09666Y45923D02*
X-09656Y45940D01*
X-09630Y45960D01*
X-09561Y45976D01*
X-09530Y45967D01*
X-09513Y45957D01*
X-09492Y45932D01*
X-09486Y45904D01*
X-09491Y45859D01*
X-09621Y45655D01*
X-09440Y45695D01*
X-10691Y46325D02*
X-10789Y46303D01*
X-10755Y46150D02*
X-10820Y46443D01*
X-10680Y46474D01*
X-10610Y46490D02*
X-10443Y46527D01*
X-10462Y46215D02*
X-10527Y46508D01*
X-10353Y46517D02*
X-10342Y46534D01*
X-10317Y46554D01*
X-10248Y46570D01*
X-10216Y46561D01*
X-10200Y46551D01*
X-10179Y46526D01*
X-10173Y46498D01*
X-10178Y46453D01*
X-10308Y46249D01*
X-10126Y46290D01*
X-10094Y46604D02*
X-09912Y46644D01*
X-09985Y46510D01*
X-09944Y46519D01*
X-09913Y46512D01*
X-09896Y46501D01*
X-09875Y46476D01*
X-09860Y46407D01*
X-09868Y46376D01*
X-09879Y46359D01*
X-09904Y46339D01*
X-09987Y46320D01*
X-10018Y46328D01*
X-10035Y46339D01*
X-09795Y46641D02*
X-09784Y46657D01*
X-09759Y46678D01*
X-09690Y46694D01*
X-09658Y46685D01*
X-09641Y46675D01*
X-09620Y46650D01*
X-09614Y46622D01*
X-09620Y46577D01*
X-09750Y46373D01*
X-09568Y46413D01*
X-09275Y46478D02*
X-09403Y46595D01*
X-09443Y46441D02*
X-09508Y46734D01*
X-09396Y46759D01*
X-09365Y46750D01*
X-09347Y46740D01*
X-09327Y46715D01*
X-09318Y46674D01*
X-09326Y46642D01*
X-09337Y46625D01*
X-09361Y46605D01*
X-09474Y46580D01*
X-09010Y46537D02*
X-09150Y46506D01*
X-09215Y46799D01*
X-12500Y43199D02*
X-12619Y43282D01*
X-12633Y43150D02*
X-12719Y43385D01*
X-12630Y43418D01*
X-12603Y43415D01*
X-12588Y43407D01*
X-12569Y43389D01*
X-12557Y43355D01*
X-12560Y43329D01*
X-12566Y43314D01*
X-12585Y43294D01*
X-12674Y43262D01*
X-12506Y43462D02*
X-12351Y43519D01*
X-12366Y43248D01*
X-12494Y43182D02*
X-12627Y43133D01*
X-12560Y43158D02*
X-12646Y43392D01*
X-12656Y43350D01*
X-12670Y43320D01*
X-12688Y43301D01*
X-12392Y43219D02*
X-12478Y43454D01*
X-12403Y43316D02*
X-12303Y43251D01*
X-12360Y43407D02*
X-12416Y43285D01*
X-12663Y44202D02*
X-12782Y44285D01*
X-12796Y44153D02*
X-12882Y44388D01*
X-12793Y44421D01*
X-12766Y44418D01*
X-12751Y44410D01*
X-12732Y44392D01*
X-12720Y44358D01*
X-12723Y44332D01*
X-12729Y44317D01*
X-12748Y44297D01*
X-12837Y44265D01*
X-12546Y44510D02*
X-12591Y44494D01*
X-12610Y44474D01*
X-12617Y44459D01*
X-12626Y44417D01*
X-12622Y44369D01*
X-12589Y44279D01*
X-12570Y44261D01*
X-12555Y44254D01*
X-12529Y44251D01*
X-12483Y44267D01*
X-12465Y44287D01*
X-12458Y44302D01*
X-12455Y44327D01*
X-12476Y44384D01*
X-12494Y44402D01*
X-12510Y44410D01*
X-12536Y44413D01*
X-12582Y44396D01*
X-12600Y44377D01*
X-12606Y44362D01*
X-12609Y44335D01*
X-12652Y44206D02*
X-12785Y44157D01*
X-12718Y44182D02*
X-12804Y44416D01*
X-12814Y44374D01*
X-12828Y44344D01*
X-12846Y44325D01*
X-12550Y44243D02*
X-12636Y44478D01*
X-12561Y44340D02*
X-12461Y44275D01*
X-12518Y44431D02*
X-12574Y44309D01*
X-14548Y42967D02*
X-14650Y43249D01*
X-14583Y43274D01*
X-14537Y43275D01*
X-14501Y43258D01*
X-14477Y43236D01*
X-14444Y43187D01*
X-14430Y43147D01*
X-14423Y43088D01*
X-14428Y43056D01*
X-14444Y43020D01*
X-14480Y42992D01*
X-14548Y42967D01*
X-14372Y43320D02*
X-14363Y43338D01*
X-14341Y43362D01*
X-14274Y43386D01*
X-14242Y43382D01*
X-14224Y43374D01*
X-14200Y43352D01*
X-14190Y43325D01*
X-14190Y43280D01*
X-14292Y43060D01*
X-14117Y43124D01*
X-14045Y43470D02*
X-14019Y43479D01*
X-13986Y43475D01*
X-13968Y43467D01*
X-13945Y43444D01*
X-13912Y43396D01*
X-13887Y43329D01*
X-13882Y43270D01*
X-13885Y43238D01*
X-13894Y43220D01*
X-13916Y43197D01*
X-13942Y43188D01*
X-13974Y43191D01*
X-13992Y43199D01*
X-14016Y43221D01*
X-14049Y43270D01*
X-14073Y43337D01*
X-14080Y43395D01*
X-14076Y43428D01*
X-14067Y43446D01*
X-14045Y43470D01*
X-14044Y42086D02*
X-14178Y42037D01*
X-14281Y42319D01*
X-14004Y42268D02*
X-13910Y42302D01*
X-13816Y42169D02*
X-13950Y42120D01*
X-14053Y42402D01*
X-13918Y42451D01*
X-13695Y42213D02*
X-13798Y42495D01*
X-13730Y42520D01*
X-13685Y42520D01*
X-13649Y42504D01*
X-13625Y42481D01*
X-13592Y42433D01*
X-13578Y42392D01*
X-13571Y42334D01*
X-13575Y42302D01*
X-13592Y42266D01*
X-13628Y42238D01*
X-13695Y42213D01*
X-14942Y43991D02*
X-15044Y44273D01*
X-14977Y44298D01*
X-14931Y44299D01*
X-14895Y44282D01*
X-14871Y44260D01*
X-14838Y44211D01*
X-14824Y44171D01*
X-14817Y44112D01*
X-14822Y44080D01*
X-14838Y44044D01*
X-14874Y44016D01*
X-14942Y43991D01*
X-14511Y44148D02*
X-14673Y44089D01*
X-14592Y44119D02*
X-14695Y44401D01*
X-14707Y44350D01*
X-14724Y44313D01*
X-14746Y44290D01*
X-14377Y44197D02*
X-14323Y44217D01*
X-14302Y44239D01*
X-14292Y44258D01*
X-14281Y44308D01*
X-14286Y44366D01*
X-14325Y44473D01*
X-14349Y44495D01*
X-14367Y44504D01*
X-14400Y44508D01*
X-14453Y44488D01*
X-14474Y44465D01*
X-14484Y44447D01*
X-14487Y44415D01*
X-14463Y44348D01*
X-14440Y44325D01*
X-14421Y44317D01*
X-14390Y44314D01*
X-14336Y44333D01*
X-14314Y44356D01*
X-14305Y44374D01*
X-14301Y44407D01*
X-14438Y43110D02*
X-14572Y43061D01*
X-14675Y43343D01*
X-14398Y43292D02*
X-14304Y43326D01*
X-14210Y43193D02*
X-14344Y43144D01*
X-14447Y43426D01*
X-14312Y43475D01*
X-14089Y43237D02*
X-14192Y43519D01*
X-14124Y43544D01*
X-14079Y43544D01*
X-14043Y43528D01*
X-14019Y43505D01*
X-13986Y43457D01*
X-13972Y43416D01*
X-13965Y43358D01*
X-13969Y43326D01*
X-13986Y43290D01*
X-14022Y43262D01*
X-14089Y43237D01*
X00993Y54296D02*
X00993Y54596D01*
X01065Y54596D01*
X01108Y54581D01*
X01136Y54553D01*
X01151Y54524D01*
X01165Y54467D01*
X01165Y54424D01*
X01151Y54367D01*
X01136Y54338D01*
X01108Y54310D01*
X01065Y54296D01*
X00993Y54296D01*
X01451Y54296D02*
X01279Y54296D01*
X01365Y54296D02*
X01365Y54596D01*
X01336Y54553D01*
X01308Y54524D01*
X01279Y54510D01*
X01622Y54467D02*
X01594Y54481D01*
X01579Y54496D01*
X01565Y54524D01*
X01565Y54538D01*
X01579Y54567D01*
X01594Y54581D01*
X01622Y54596D01*
X01679Y54596D01*
X01708Y54581D01*
X01722Y54567D01*
X01737Y54538D01*
X01737Y54524D01*
X01722Y54496D01*
X01708Y54481D01*
X01679Y54467D01*
X01622Y54467D01*
X01594Y54453D01*
X01579Y54438D01*
X01565Y54410D01*
X01565Y54353D01*
X01579Y54324D01*
X01594Y54310D01*
X01622Y54296D01*
X01679Y54296D01*
X01708Y54310D01*
X01722Y54324D01*
X01737Y54353D01*
X01737Y54410D01*
X01722Y54438D01*
X01708Y54453D01*
X01679Y54467D01*
X01165Y53296D02*
X01022Y53296D01*
X01022Y53596D01*
X01265Y53453D02*
X01365Y53453D01*
X01408Y53296D02*
X01265Y53296D01*
X01265Y53596D01*
X01408Y53596D01*
X01536Y53296D02*
X01536Y53596D01*
X01608Y53596D01*
X01651Y53581D01*
X01679Y53553D01*
X01694Y53524D01*
X01708Y53467D01*
X01708Y53424D01*
X01694Y53367D01*
X01679Y53338D01*
X01651Y53310D01*
X01608Y53296D01*
X01536Y53296D01*
X-01755Y50646D02*
X-01743Y50634D01*
X-01731Y50599D01*
X-01731Y50575D01*
X-01743Y50539D01*
X-01767Y50515D01*
X-01790Y50504D01*
X-01838Y50492D01*
X-01874Y50492D01*
X-01921Y50504D01*
X-01945Y50515D01*
X-01969Y50539D01*
X-01981Y50575D01*
X-01981Y50599D01*
X-01969Y50634D01*
X-01957Y50646D01*
X-01981Y50873D02*
X-01981Y50754D01*
X-01862Y50742D01*
X-01874Y50754D01*
X-01886Y50777D01*
X-01886Y50837D01*
X-01874Y50861D01*
X-01862Y50873D01*
X-01838Y50884D01*
X-01778Y50884D01*
X-01755Y50873D01*
X-01743Y50861D01*
X-01731Y50837D01*
X-01731Y50777D01*
X-01743Y50754D01*
X-01755Y50742D01*
X-01981Y50278D02*
X-01981Y50302D01*
X-01969Y50326D01*
X-01957Y50338D01*
X-01933Y50350D01*
X-01886Y50361D01*
X-01826Y50361D01*
X-01778Y50350D01*
X-01755Y50338D01*
X-01743Y50326D01*
X-01731Y50302D01*
X-01731Y50278D01*
X-01743Y50254D01*
X-01755Y50242D01*
X-01778Y50231D01*
X-01826Y50219D01*
X-01886Y50219D01*
X-01933Y50231D01*
X-01957Y50242D01*
X-01969Y50254D01*
X-01981Y50278D01*
X-01755Y50469D02*
X-01743Y50480D01*
X-01731Y50469D01*
X-01743Y50457D01*
X-01755Y50469D01*
X-01731Y50469D01*
X-01731Y50718D02*
X-01731Y50576D01*
X-01731Y50647D02*
X-01981Y50647D01*
X-01945Y50623D01*
X-01921Y50599D01*
X-01909Y50576D01*
X-01897Y50933D02*
X-01731Y50933D01*
X-01897Y50826D02*
X-01767Y50826D01*
X-01743Y50837D01*
X-01731Y50861D01*
X-01731Y50897D01*
X-01743Y50921D01*
X-01755Y50933D01*
X-01862Y51135D02*
X-01862Y51052D01*
X-01731Y51052D02*
X-01981Y51052D01*
X-01981Y51171D01*
X03754Y50663D02*
X03737Y50663D01*
X03704Y50680D01*
X03687Y50696D01*
X03670Y50730D01*
X03670Y50764D01*
X03678Y50788D01*
X03704Y50831D01*
X03729Y50856D01*
X03771Y50881D01*
X03796Y50890D01*
X03830Y50890D01*
X03863Y50873D01*
X03880Y50856D01*
X03897Y50823D01*
X03897Y50806D01*
X03965Y50738D02*
X03982Y50738D01*
X04006Y50730D01*
X04049Y50688D01*
X04057Y50663D01*
X04057Y50646D01*
X04048Y50621D01*
X04031Y50604D01*
X03999Y50587D01*
X03796Y50587D01*
X03905Y50478D01*
X03653Y51083D02*
X03670Y51066D01*
X03679Y51041D01*
X03679Y51024D01*
X03670Y50998D01*
X03645Y50957D01*
X03603Y50915D01*
X03561Y50889D01*
X03536Y50881D01*
X03519Y50881D01*
X03494Y50890D01*
X03477Y50906D01*
X03468Y50932D01*
X03468Y50949D01*
X03477Y50973D01*
X03502Y51015D01*
X03545Y51058D01*
X03586Y51083D01*
X03611Y51092D01*
X03628Y51092D01*
X03653Y51083D01*
X03629Y50788D02*
X03628Y50772D01*
X03612Y50771D01*
X03612Y50788D01*
X03629Y50788D01*
X03612Y50771D01*
X03788Y50595D02*
X03687Y50696D01*
X03738Y50646D02*
X03914Y50822D01*
X03872Y50814D01*
X03838Y50814D01*
X03813Y50822D01*
X04057Y50561D02*
X03940Y50443D01*
X03982Y50636D02*
X03890Y50544D01*
X03880Y50520D01*
X03889Y50494D01*
X03914Y50469D01*
X03940Y50460D01*
X03957Y50460D01*
X04175Y50393D02*
X04117Y50452D01*
X04024Y50359D02*
X04201Y50536D01*
X04285Y50452D01*
X-03369Y48249D02*
X-03381Y48237D01*
X-03416Y48225D01*
X-03440Y48225D01*
X-03476Y48237D01*
X-03500Y48261D01*
X-03511Y48284D01*
X-03523Y48332D01*
X-03523Y48368D01*
X-03511Y48415D01*
X-03500Y48439D01*
X-03476Y48463D01*
X-03440Y48475D01*
X-03416Y48475D01*
X-03381Y48463D01*
X-03369Y48451D01*
X-03285Y48475D02*
X-03131Y48475D01*
X-03214Y48380D01*
X-03178Y48380D01*
X-03154Y48368D01*
X-03142Y48356D01*
X-03131Y48332D01*
X-03131Y48272D01*
X-03142Y48249D01*
X-03154Y48237D01*
X-03178Y48225D01*
X-03250Y48225D01*
X-03273Y48237D01*
X-03285Y48249D01*
X-03595Y48225D02*
X-03737Y48225D01*
X-03666Y48225D02*
X-03666Y48475D01*
X-03690Y48439D01*
X-03714Y48415D01*
X-03737Y48403D01*
X-03440Y48475D02*
X-03416Y48475D01*
X-03392Y48463D01*
X-03380Y48451D01*
X-03368Y48427D01*
X-03357Y48380D01*
X-03357Y48320D01*
X-03368Y48272D01*
X-03380Y48249D01*
X-03392Y48237D01*
X-03416Y48225D01*
X-03440Y48225D01*
X-03464Y48237D01*
X-03476Y48249D01*
X-03487Y48272D01*
X-03499Y48320D01*
X-03499Y48380D01*
X-03487Y48427D01*
X-03476Y48451D01*
X-03464Y48463D01*
X-03440Y48475D01*
X-03249Y48391D02*
X-03249Y48225D01*
X-03249Y48368D02*
X-03238Y48380D01*
X-03214Y48391D01*
X-03178Y48391D01*
X-03154Y48380D01*
X-03142Y48356D01*
X-03142Y48225D01*
X-02940Y48356D02*
X-03023Y48356D01*
X-03023Y48225D02*
X-03023Y48475D01*
X-02904Y48475D01*
X-13257Y45977D02*
X-13272Y45984D01*
X-13295Y46013D01*
X-13304Y46036D01*
X-13305Y46074D01*
X-13290Y46104D01*
X-13272Y46123D01*
X-13231Y46150D01*
X-13198Y46163D01*
X-13149Y46167D01*
X-13123Y46165D01*
X-13092Y46151D01*
X-13069Y46121D01*
X-13060Y46099D01*
X-13060Y46062D01*
X-13067Y46046D01*
X-13016Y45975D02*
X-12959Y45820D01*
X-13230Y45835D01*
X-13801Y45785D02*
X-13934Y45736D01*
X-13867Y45761D02*
X-13953Y45996D01*
X-13963Y45954D01*
X-13978Y45923D01*
X-13995Y45904D01*
X-13741Y46073D02*
X-13718Y46081D01*
X-13691Y46078D01*
X-13676Y46071D01*
X-13657Y46052D01*
X-13630Y46012D01*
X-13610Y45956D01*
X-13604Y45907D01*
X-13607Y45881D01*
X-13614Y45866D01*
X-13633Y45846D01*
X-13655Y45838D01*
X-13682Y45841D01*
X-13697Y45848D01*
X-13715Y45866D01*
X-13743Y45907D01*
X-13764Y45963D01*
X-13768Y46012D01*
X-13766Y46038D01*
X-13759Y46053D01*
X-13741Y46073D01*
X-13432Y46096D02*
X-13375Y45940D01*
X-13532Y46059D02*
X-13488Y45937D01*
X-13469Y45918D01*
X-13443Y45915D01*
X-13409Y45928D01*
X-13390Y45947D01*
X-13383Y45962D01*
X-13230Y46132D02*
X-13308Y46104D01*
X-13263Y45981D02*
X-13349Y46215D01*
X-13237Y46256D01*
X-13110Y46011D02*
X-12932Y46076D01*
X-12972Y46327D02*
X-12965Y46342D01*
X-12948Y46362D01*
X-12891Y46382D01*
X-12864Y46379D01*
X-12849Y46372D01*
X-12831Y46353D01*
X-12822Y46330D01*
X-12821Y46294D01*
X-12906Y46111D01*
X-12761Y46163D01*
X-12634Y46476D02*
X-12745Y46435D01*
X-12716Y46319D01*
X-12709Y46335D01*
X-12691Y46354D01*
X-12635Y46374D01*
X-12608Y46371D01*
X-12593Y46364D01*
X-12574Y46345D01*
X-12554Y46289D01*
X-12556Y46263D01*
X-12564Y46248D01*
X-12582Y46229D01*
X-12638Y46208D01*
X-12664Y46211D01*
X-12679Y46219D01*
X-12556Y46504D02*
X-12392Y46298D01*
X-12400Y46561D01*
X-13419Y46980D02*
X-13426Y46965D01*
X-13455Y46942D01*
X-13478Y46933D01*
X-13516Y46932D01*
X-13546Y46947D01*
X-13565Y46965D01*
X-13592Y47006D01*
X-13605Y47039D01*
X-13609Y47088D01*
X-13607Y47114D01*
X-13593Y47145D01*
X-13563Y47168D01*
X-13541Y47177D01*
X-13504Y47177D01*
X-13488Y47170D01*
X-13294Y47266D02*
X-13339Y47250D01*
X-13358Y47230D01*
X-13365Y47215D01*
X-13374Y47173D01*
X-13370Y47125D01*
X-13337Y47035D01*
X-13318Y47017D01*
X-13303Y47010D01*
X-13277Y47007D01*
X-13231Y47023D01*
X-13213Y47043D01*
X-13206Y47058D01*
X-13203Y47083D01*
X-13224Y47140D01*
X-13242Y47158D01*
X-13258Y47166D01*
X-13284Y47169D01*
X-13330Y47152D01*
X-13348Y47133D01*
X-13354Y47118D01*
X-13357Y47091D01*
X-13724Y47106D02*
X-13702Y47114D01*
X-13675Y47111D01*
X-13660Y47104D01*
X-13640Y47085D01*
X-13614Y47045D01*
X-13593Y46989D01*
X-13587Y46940D01*
X-13591Y46914D01*
X-13598Y46899D01*
X-13616Y46879D01*
X-13639Y46871D01*
X-13665Y46874D01*
X-13681Y46881D01*
X-13699Y46899D01*
X-13727Y46940D01*
X-13747Y46996D01*
X-13752Y47045D01*
X-13750Y47071D01*
X-13743Y47086D01*
X-13724Y47106D01*
X-13467Y46959D02*
X-13453Y46951D01*
X-13459Y46936D01*
X-13475Y46943D01*
X-13467Y46959D01*
X-13459Y46936D01*
X-13225Y47021D02*
X-13359Y46973D01*
X-13292Y46997D02*
X-13377Y47232D01*
X-13388Y47190D01*
X-13402Y47159D01*
X-13420Y47140D01*
X-13080Y47251D02*
X-13023Y47095D01*
X-13181Y47214D02*
X-13136Y47092D01*
X-13118Y47073D01*
X-13091Y47070D01*
X-13057Y47083D01*
X-13039Y47102D01*
X-13031Y47117D01*
X-12878Y47287D02*
X-12956Y47259D01*
X-12911Y47136D02*
X-12997Y47371D01*
X-12885Y47411D01*
G54D13*
X25122Y44618D02*
X24791Y44842D01*
X24876Y44968D01*
X24913Y44989D01*
X24940Y44994D01*
X24982Y44989D01*
X25029Y44957D01*
X25050Y44920D01*
X25055Y44894D01*
X25050Y44851D01*
X24964Y44725D01*
X25463Y45124D02*
X25335Y44934D01*
X25399Y45028D02*
X25068Y45252D01*
X25094Y45189D01*
X25104Y45136D01*
X25098Y45094D01*
X27270Y42503D02*
X27275Y42477D01*
X27259Y42419D01*
X27238Y42388D01*
X27190Y42350D01*
X27137Y42340D01*
X27095Y42345D01*
X27020Y42373D01*
X26973Y42405D01*
X26921Y42463D01*
X26900Y42500D01*
X26890Y42553D01*
X26906Y42611D01*
X26928Y42643D01*
X26975Y42680D01*
X27002Y42685D01*
X27108Y42911D02*
X27151Y42975D01*
X27188Y42995D01*
X27241Y43006D01*
X27315Y42979D01*
X27426Y42904D01*
X27478Y42846D01*
X27488Y42793D01*
X27483Y42751D01*
X27440Y42687D01*
X27403Y42666D01*
X27350Y42656D01*
X27276Y42683D01*
X27165Y42758D01*
X27113Y42816D01*
X27103Y42869D01*
X27108Y42911D01*
X27632Y42971D02*
X27300Y43195D01*
X27760Y43161D01*
X27428Y43385D01*
X27866Y43319D02*
X27534Y43542D01*
X27994Y43509D01*
X27662Y43732D01*
X28079Y43566D02*
X28249Y43819D01*
X28035Y44285D02*
X27992Y44221D01*
X27987Y44179D01*
X27992Y44153D01*
X28018Y44089D01*
X28070Y44031D01*
X28197Y43946D01*
X28239Y43940D01*
X28266Y43945D01*
X28303Y43966D01*
X28346Y44030D01*
X28351Y44072D01*
X28346Y44099D01*
X28325Y44136D01*
X28246Y44189D01*
X28203Y44195D01*
X28177Y44190D01*
X28140Y44169D01*
X28097Y44105D01*
X28092Y44063D01*
X28097Y44036D01*
X28118Y43999D01*
G54D15*
X-13184Y44859D02*
X-13191Y44844D01*
X-13220Y44821D01*
X-13243Y44812D01*
X-13281Y44811D01*
X-13311Y44826D01*
X-13330Y44844D01*
X-13357Y44885D01*
X-13370Y44918D01*
X-13374Y44967D01*
X-13372Y44993D01*
X-13358Y45024D01*
X-13328Y45047D01*
X-13306Y45056D01*
X-13269Y45056D01*
X-13253Y45049D01*
X-13064Y44877D02*
X-13019Y44894D01*
X-13001Y44913D01*
X-12993Y44929D01*
X-12983Y44970D01*
X-12989Y45019D01*
X-13021Y45108D01*
X-13040Y45127D01*
X-13055Y45134D01*
X-13082Y45137D01*
X-13127Y45121D01*
X-13146Y45101D01*
X-13152Y45086D01*
X-13155Y45059D01*
X-13135Y45004D01*
X-13115Y44985D01*
X-13101Y44978D01*
X-13074Y44975D01*
X-13029Y44991D01*
X-13010Y45011D01*
X-13003Y45026D01*
X-13001Y45053D01*
X-13488Y45216D02*
X-13466Y45224D01*
X-13439Y45221D01*
X-13424Y45214D01*
X-13404Y45195D01*
X-13378Y45155D01*
X-13357Y45099D01*
X-13351Y45050D01*
X-13355Y45024D01*
X-13362Y45009D01*
X-13380Y44989D01*
X-13403Y44981D01*
X-13429Y44984D01*
X-13445Y44991D01*
X-13463Y45009D01*
X-13491Y45050D01*
X-13511Y45106D01*
X-13516Y45155D01*
X-13514Y45181D01*
X-13507Y45196D01*
X-13488Y45216D01*
X-13231Y45069D02*
X-13217Y45061D01*
X-13223Y45046D01*
X-13239Y45053D01*
X-13231Y45069D01*
X-13223Y45046D01*
X-12989Y45131D02*
X-13123Y45083D01*
X-13056Y45107D02*
X-13141Y45342D01*
X-13152Y45300D01*
X-13166Y45269D01*
X-13184Y45250D01*
X-12844Y45361D02*
X-12787Y45205D01*
X-12945Y45324D02*
X-12900Y45202D01*
X-12882Y45183D01*
X-12855Y45180D01*
X-12821Y45193D01*
X-12803Y45212D01*
X-12795Y45227D01*
X-12642Y45397D02*
X-12720Y45369D01*
X-12675Y45246D02*
X-12761Y45481D01*
X-12649Y45521D01*
G54D10*
X19919Y43396D02*
X20119Y43743D01*
X20117Y43282D02*
X20082Y43566D01*
X20317Y43628D02*
X20005Y43545D01*
X20447Y43091D02*
X20248Y43206D01*
X20347Y43149D02*
X20547Y43495D01*
X20486Y43465D01*
X20434Y43451D01*
X20391Y43453D01*
X19546Y43655D02*
X19521Y43648D01*
X19462Y43660D01*
X19429Y43679D01*
X19388Y43725D01*
X19374Y43777D01*
X19377Y43819D01*
X19399Y43895D01*
X19427Y43945D01*
X19482Y44001D01*
X19517Y44024D01*
X19569Y44038D01*
X19629Y44026D01*
X19662Y44007D01*
X19702Y43962D01*
X19708Y43936D01*
X19941Y43845D02*
X20008Y43807D01*
X20031Y43771D01*
X20045Y43719D01*
X20024Y43644D01*
X19957Y43528D01*
X19902Y43472D01*
X19850Y43458D01*
X19808Y43460D01*
X19741Y43499D01*
X19718Y43534D01*
X19704Y43586D01*
X19726Y43661D01*
X19793Y43777D01*
X19847Y43834D01*
X19899Y43848D01*
X19941Y43845D01*
X20038Y43327D02*
X20238Y43674D01*
X20237Y43213D01*
X20437Y43559D01*
X20401Y43118D02*
X20601Y43464D01*
X20600Y43003D01*
X20800Y43350D01*
X20663Y42923D02*
X20927Y42770D01*
X21195Y43121D02*
X21410Y42997D01*
X21218Y42932D01*
X21268Y42903D01*
X21292Y42868D01*
X21299Y42842D01*
X21296Y42800D01*
X21248Y42717D01*
X21213Y42693D01*
X21187Y42686D01*
X21144Y42689D01*
X21045Y42746D01*
X21021Y42782D01*
X21014Y42808D01*
M02*
