G04 (created by PCBNEW-RS274X (2011-nov-30)-testing) date Mon 23 Apr 2012 04:49:46 PM EDT*
G01*
G70*
G90*
%MOIN*%
G04 Gerber Fmt 3.4, Leading zero omitted, Abs format*
%FSLAX34Y34*%
G04 APERTURE LIST*
%ADD10C,0.006000*%
%ADD11C,0.015000*%
%ADD12C,0.002600*%
%ADD13C,0.005000*%
%ADD14C,0.012000*%
%ADD15C,0.010000*%
G04 APERTURE END LIST*
G54D10*
G54D11*
X-11437Y49473D02*
X-12518Y49079D01*
X-12518Y49079D02*
X-12723Y49643D01*
X-12723Y49643D02*
X-12535Y49711D01*
X-12535Y49711D02*
X-12791Y50416D01*
X-09904Y50669D02*
X-10160Y51374D01*
X-09904Y50669D02*
X-09716Y50738D01*
X-09716Y50738D02*
X-09511Y50174D01*
X-09511Y50174D02*
X-10450Y49832D01*
X-10524Y52519D02*
X-10968Y53740D01*
X-10968Y53740D02*
X-13646Y52765D01*
X-13646Y52765D02*
X-13202Y51544D01*
G54D12*
X-16165Y48610D02*
X-15829Y47686D01*
X-15829Y47686D02*
X-16347Y47497D01*
X-16683Y48422D02*
X-16347Y47497D01*
X-16165Y48610D02*
X-16683Y48422D01*
X-13428Y49607D02*
X-13091Y48682D01*
X-13091Y48682D02*
X-13609Y48493D01*
X-13946Y49418D02*
X-13609Y48493D01*
X-13428Y49607D02*
X-13946Y49418D01*
X-14851Y52020D02*
X-14538Y51160D01*
X-14538Y51160D02*
X-16831Y50326D01*
X-17144Y51186D02*
X-16831Y50326D01*
X-14851Y52020D02*
X-17144Y51186D01*
X-14825Y51056D02*
X-14720Y50769D01*
X-14720Y50769D02*
X-16440Y50143D01*
X-16545Y50430D02*
X-16440Y50143D01*
X-14825Y51056D02*
X-16545Y50430D01*
G54D13*
X-17440Y51078D02*
X-14555Y52128D01*
X-16229Y47750D02*
X-13344Y48800D01*
X-17440Y51078D02*
X-16229Y47750D01*
X-14555Y52128D02*
X-13344Y48800D01*
X-16686Y49468D02*
X-17040Y51014D01*
X-17040Y51014D02*
X-16670Y51149D01*
X-16670Y51149D02*
X-15947Y49737D01*
X-14031Y50225D02*
X-14821Y51822D01*
X-14821Y51822D02*
X-15191Y51687D01*
X-15191Y51687D02*
X-14770Y49955D01*
X-16393Y51250D02*
X-15535Y49469D01*
X-15535Y49469D02*
X-14980Y49670D01*
X-14980Y49670D02*
X-15468Y51586D01*
G54D14*
G54D15*
X-14707Y50100D02*
X-14596Y49796D01*
X-14601Y49754D01*
X-14612Y49729D01*
X-14641Y49698D01*
X-14714Y49672D01*
X-14756Y49677D01*
X-14780Y49688D01*
X-14811Y49718D01*
X-14922Y50022D01*
X-14952Y49606D02*
X-14999Y49568D01*
X-15090Y49535D01*
X-15132Y49540D01*
X-15156Y49552D01*
X-15187Y49581D01*
X-15200Y49616D01*
X-15195Y49659D01*
X-15184Y49684D01*
X-15155Y49715D01*
X-15089Y49759D01*
X-15060Y49790D01*
X-15049Y49814D01*
X-15044Y49856D01*
X-15057Y49892D01*
X-15088Y49921D01*
X-15112Y49933D01*
X-15154Y49938D01*
X-15244Y49905D01*
X-15291Y49867D01*
X-15520Y49602D02*
X-15567Y49565D01*
X-15578Y49541D01*
X-15582Y49498D01*
X-15563Y49444D01*
X-15532Y49415D01*
X-15508Y49403D01*
X-15466Y49399D01*
X-15322Y49451D01*
X-15459Y49827D01*
X-15585Y49781D01*
X-15614Y49750D01*
X-15625Y49726D01*
X-15630Y49684D01*
X-15617Y49648D01*
X-15586Y49619D01*
X-15562Y49607D01*
X-15520Y49602D01*
X-15394Y49648D01*
M02*
