G04 (created by PCBNEW-RS274X (2011-nov-30)-testing) date Mon 30 Apr 2012 11:55:02 PM EDT*
G01*
G70*
G90*
%MOIN*%
G04 Gerber Fmt 3.4, Leading zero omitted, Abs format*
%FSLAX34Y34*%
G04 APERTURE LIST*
%ADD10C,0.006000*%
%ADD11C,0.015000*%
%ADD12C,0.002600*%
%ADD13C,0.004000*%
%ADD14C,0.002000*%
%ADD15C,0.008000*%
%ADD16C,0.005000*%
%ADD17C,0.003900*%
%ADD18C,0.010000*%
%ADD19C,0.005200*%
%ADD20C,0.006200*%
%ADD21C,0.012000*%
%ADD22C,0.003500*%
G04 APERTURE END LIST*
G54D10*
G54D11*
X-26379Y-29921D02*
X-26379Y-29921D01*
X-26379Y-29921D01*
X-26379Y-29921D01*
X-26379Y-29921D01*
X-26379Y-29921D01*
X-26379Y-29921D01*
X-26379Y-29921D01*
X-26379Y-29921D01*
X-26379Y-29921D01*
X-26379Y-29921D01*
X-26379Y-29921D01*
X-26379Y-29921D01*
X-26379Y-29921D01*
X-26379Y-29921D01*
X-26379Y-29921D01*
X-26379Y-29921D01*
X-26379Y-29921D01*
X-26379Y-29921D01*
X-26379Y-29921D01*
X-26379Y-29921D01*
X-26379Y-29921D01*
X-26379Y-29921D01*
X-26379Y-29921D01*
X-26379Y-29921D01*
X-26379Y-29921D01*
X-26379Y-29921D01*
X-26379Y-29921D01*
X-26379Y-29921D01*
X-26379Y-29921D01*
X-26379Y-29921D01*
X-26379Y-29921D01*
X-26379Y-29921D01*
X-26379Y-29921D01*
X01893Y53445D02*
X01892Y53437D01*
X01889Y53429D01*
X01885Y53422D01*
X01880Y53415D01*
X01874Y53410D01*
X01866Y53406D01*
X01858Y53403D01*
X01850Y53403D01*
X01842Y53403D01*
X01834Y53406D01*
X01827Y53410D01*
X01820Y53415D01*
X01815Y53421D01*
X01811Y53429D01*
X01808Y53437D01*
X01808Y53445D01*
X01808Y53452D01*
X01811Y53460D01*
X01814Y53468D01*
X01820Y53474D01*
X01826Y53480D01*
X01833Y53484D01*
X01841Y53486D01*
X01850Y53487D01*
X01857Y53487D01*
X01865Y53485D01*
X01873Y53481D01*
X01879Y53476D01*
X01885Y53469D01*
X01889Y53462D01*
X01891Y53454D01*
X01892Y53446D01*
X01893Y53445D01*
G54D12*
X01554Y53799D02*
X01554Y53671D01*
X01554Y53671D02*
X01751Y53671D01*
X01751Y53799D02*
X01751Y53671D01*
X01554Y53799D02*
X01751Y53799D01*
X01554Y54044D02*
X01554Y53985D01*
X01554Y53985D02*
X01653Y53985D01*
X01653Y54044D02*
X01653Y53985D01*
X01554Y54044D02*
X01653Y54044D01*
X01554Y53849D02*
X01554Y53790D01*
X01554Y53790D02*
X01653Y53790D01*
X01653Y53849D02*
X01653Y53790D01*
X01554Y53849D02*
X01653Y53849D01*
X01554Y53995D02*
X01554Y53839D01*
X01554Y53839D02*
X01623Y53839D01*
X01623Y53995D02*
X01623Y53839D01*
X01554Y53995D02*
X01623Y53995D01*
X00965Y53799D02*
X00965Y53671D01*
X00965Y53671D02*
X01162Y53671D01*
X01162Y53799D02*
X01162Y53671D01*
X00965Y53799D02*
X01162Y53799D01*
X00965Y54163D02*
X00965Y54035D01*
X00965Y54035D02*
X01162Y54035D01*
X01162Y54163D02*
X01162Y54035D01*
X00965Y54163D02*
X01162Y54163D01*
X01063Y53849D02*
X01063Y53790D01*
X01063Y53790D02*
X01162Y53790D01*
X01162Y53849D02*
X01162Y53790D01*
X01063Y53849D02*
X01162Y53849D01*
X01063Y54044D02*
X01063Y53985D01*
X01063Y53985D02*
X01162Y53985D01*
X01162Y54044D02*
X01162Y53985D01*
X01063Y54044D02*
X01162Y54044D01*
X01093Y53995D02*
X01093Y53839D01*
X01093Y53839D02*
X01162Y53839D01*
X01162Y53995D02*
X01162Y53839D01*
X01093Y53995D02*
X01162Y53995D01*
X01358Y53956D02*
X01358Y53878D01*
X01358Y53878D02*
X01436Y53878D01*
X01436Y53956D02*
X01436Y53878D01*
X01358Y53956D02*
X01436Y53956D01*
X01554Y54153D02*
X01554Y54035D01*
X01554Y54035D02*
X01672Y54035D01*
X01672Y54153D02*
X01672Y54035D01*
X01554Y54153D02*
X01672Y54153D01*
X01722Y54163D02*
X01722Y54074D01*
X01722Y54074D02*
X01751Y54074D01*
X01751Y54163D02*
X01751Y54074D01*
X01722Y54163D02*
X01751Y54163D01*
G54D13*
X01564Y53691D02*
X01152Y53691D01*
X01162Y54143D02*
X01722Y54143D01*
G54D14*
X01720Y54094D02*
X01719Y54089D01*
X01717Y54084D01*
X01715Y54079D01*
X01711Y54075D01*
X01707Y54071D01*
X01702Y54069D01*
X01697Y54067D01*
X01692Y54067D01*
X01687Y54067D01*
X01682Y54069D01*
X01677Y54071D01*
X01673Y54074D01*
X01669Y54079D01*
X01667Y54083D01*
X01665Y54089D01*
X01665Y54094D01*
X01665Y54099D01*
X01666Y54104D01*
X01669Y54109D01*
X01672Y54113D01*
X01677Y54116D01*
X01681Y54119D01*
X01686Y54121D01*
X01692Y54121D01*
X01696Y54121D01*
X01702Y54120D01*
X01707Y54117D01*
X01711Y54114D01*
X01714Y54110D01*
X01717Y54105D01*
X01719Y54100D01*
X01719Y54094D01*
X01720Y54094D01*
G54D13*
X01751Y54054D02*
X01740Y54053D01*
X01728Y54051D01*
X01716Y54049D01*
X01705Y54045D01*
X01694Y54041D01*
X01683Y54035D01*
X01673Y54029D01*
X01663Y54021D01*
X01655Y54013D01*
X01647Y54005D01*
X01639Y53995D01*
X01633Y53985D01*
X01627Y53974D01*
X01623Y53963D01*
X01619Y53952D01*
X01617Y53940D01*
X01615Y53928D01*
X01614Y53917D01*
X01615Y53906D01*
X01617Y53894D01*
X01619Y53882D01*
X01623Y53871D01*
X01627Y53860D01*
X01633Y53849D01*
X01639Y53839D01*
X01647Y53829D01*
X01655Y53821D01*
X01663Y53813D01*
X01673Y53805D01*
X01683Y53799D01*
X01694Y53793D01*
X01705Y53789D01*
X01716Y53785D01*
X01728Y53783D01*
X01740Y53781D01*
X01751Y53780D01*
X00965Y53780D02*
X00976Y53781D01*
X00988Y53783D01*
X01000Y53785D01*
X01011Y53789D01*
X01022Y53793D01*
X01033Y53799D01*
X01043Y53805D01*
X01053Y53813D01*
X01061Y53821D01*
X01069Y53829D01*
X01077Y53839D01*
X01083Y53849D01*
X01089Y53860D01*
X01093Y53871D01*
X01097Y53882D01*
X01099Y53894D01*
X01101Y53906D01*
X01102Y53917D01*
X01101Y53928D01*
X01099Y53940D01*
X01097Y53952D01*
X01093Y53963D01*
X01089Y53974D01*
X01083Y53985D01*
X01077Y53995D01*
X01069Y54005D01*
X01061Y54013D01*
X01053Y54021D01*
X01043Y54029D01*
X01033Y54035D01*
X01022Y54041D01*
X01011Y54045D01*
X01000Y54049D01*
X00988Y54051D01*
X00976Y54053D01*
X00965Y54054D01*
G54D11*
X-15902Y42488D02*
X-15903Y42480D01*
X-15906Y42472D01*
X-15910Y42464D01*
X-15915Y42457D01*
X-15922Y42452D01*
X-15929Y42448D01*
X-15938Y42445D01*
X-15946Y42445D01*
X-15954Y42445D01*
X-15962Y42448D01*
X-15970Y42452D01*
X-15976Y42457D01*
X-15982Y42464D01*
X-15986Y42471D01*
X-15989Y42479D01*
X-15989Y42488D01*
X-15989Y42495D01*
X-15986Y42504D01*
X-15982Y42511D01*
X-15977Y42518D01*
X-15971Y42524D01*
X-15963Y42528D01*
X-15955Y42530D01*
X-15946Y42531D01*
X-15939Y42531D01*
X-15931Y42529D01*
X-15923Y42525D01*
X-15916Y42519D01*
X-15911Y42513D01*
X-15906Y42505D01*
X-15904Y42497D01*
X-15903Y42489D01*
X-15902Y42488D01*
G54D12*
X-16370Y42731D02*
X-16327Y42611D01*
X-16327Y42611D02*
X-16142Y42678D01*
X-16185Y42799D02*
X-16142Y42678D01*
X-16370Y42731D02*
X-16185Y42799D01*
X-16454Y42961D02*
X-16434Y42906D01*
X-16434Y42906D02*
X-16341Y42940D01*
X-16361Y42995D02*
X-16341Y42940D01*
X-16454Y42961D02*
X-16361Y42995D01*
X-16388Y42778D02*
X-16367Y42723D01*
X-16367Y42723D02*
X-16274Y42757D01*
X-16295Y42812D02*
X-16274Y42757D01*
X-16388Y42778D02*
X-16295Y42812D01*
X-16437Y42915D02*
X-16384Y42769D01*
X-16384Y42769D02*
X-16319Y42792D01*
X-16373Y42939D02*
X-16319Y42792D01*
X-16437Y42915D02*
X-16373Y42939D01*
X-16924Y42530D02*
X-16880Y42409D01*
X-16880Y42409D02*
X-16695Y42477D01*
X-16739Y42597D02*
X-16695Y42477D01*
X-16924Y42530D02*
X-16739Y42597D01*
X-17048Y42872D02*
X-17005Y42751D01*
X-17005Y42751D02*
X-16820Y42819D01*
X-16863Y42939D02*
X-16820Y42819D01*
X-17048Y42872D02*
X-16863Y42939D01*
X-16849Y42610D02*
X-16829Y42555D01*
X-16829Y42555D02*
X-16736Y42589D01*
X-16756Y42644D02*
X-16736Y42589D01*
X-16849Y42610D02*
X-16756Y42644D01*
X-16916Y42793D02*
X-16895Y42738D01*
X-16895Y42738D02*
X-16802Y42772D01*
X-16823Y42827D02*
X-16802Y42772D01*
X-16916Y42793D02*
X-16823Y42827D01*
X-16871Y42758D02*
X-16817Y42611D01*
X-16817Y42611D02*
X-16753Y42635D01*
X-16806Y42781D02*
X-16753Y42635D01*
X-16871Y42758D02*
X-16806Y42781D01*
X-16608Y42812D02*
X-16582Y42738D01*
X-16582Y42738D02*
X-16508Y42765D01*
X-16535Y42838D02*
X-16508Y42765D01*
X-16608Y42812D02*
X-16535Y42838D01*
X-16492Y43064D02*
X-16451Y42953D01*
X-16451Y42953D02*
X-16340Y42993D01*
X-16381Y43104D02*
X-16340Y42993D01*
X-16492Y43064D02*
X-16381Y43104D01*
X-16337Y43131D02*
X-16307Y43047D01*
X-16307Y43047D02*
X-16279Y43057D01*
X-16310Y43141D02*
X-16279Y43057D01*
X-16337Y43131D02*
X-16310Y43141D01*
G54D13*
X-16324Y42633D02*
X-16711Y42492D01*
X-16856Y42920D02*
X-16330Y43112D01*
G54D14*
X-16315Y43056D02*
X-16316Y43051D01*
X-16318Y43046D01*
X-16320Y43042D01*
X-16323Y43037D01*
X-16327Y43034D01*
X-16332Y43032D01*
X-16337Y43030D01*
X-16342Y43030D01*
X-16347Y43030D01*
X-16352Y43031D01*
X-16356Y43034D01*
X-16360Y43037D01*
X-16364Y43041D01*
X-16366Y43046D01*
X-16368Y43051D01*
X-16368Y43056D01*
X-16368Y43060D01*
X-16367Y43065D01*
X-16364Y43070D01*
X-16361Y43074D01*
X-16357Y43078D01*
X-16352Y43080D01*
X-16347Y43082D01*
X-16342Y43082D01*
X-16338Y43082D01*
X-16333Y43081D01*
X-16328Y43078D01*
X-16324Y43075D01*
X-16320Y43071D01*
X-16318Y43066D01*
X-16316Y43061D01*
X-16316Y43056D01*
X-16315Y43056D01*
G54D13*
X-16272Y43036D02*
X-16283Y43032D01*
X-16294Y43026D01*
X-16304Y43020D01*
X-16313Y43012D01*
X-16322Y43004D01*
X-16330Y42996D01*
X-16337Y42986D01*
X-16344Y42976D01*
X-16349Y42966D01*
X-16353Y42955D01*
X-16357Y42943D01*
X-16360Y42932D01*
X-16361Y42920D01*
X-16361Y42909D01*
X-16361Y42897D01*
X-16359Y42885D01*
X-16357Y42874D01*
X-16353Y42863D01*
X-16349Y42852D01*
X-16343Y42841D01*
X-16337Y42831D01*
X-16329Y42822D01*
X-16321Y42813D01*
X-16313Y42805D01*
X-16303Y42798D01*
X-16293Y42791D01*
X-16283Y42786D01*
X-16272Y42782D01*
X-16260Y42778D01*
X-16249Y42775D01*
X-16237Y42774D01*
X-16226Y42774D01*
X-16214Y42774D01*
X-16202Y42776D01*
X-16191Y42778D01*
X-16180Y42782D01*
X-16918Y42514D02*
X-16907Y42518D01*
X-16896Y42524D01*
X-16886Y42530D01*
X-16877Y42538D01*
X-16868Y42546D01*
X-16860Y42554D01*
X-16853Y42564D01*
X-16846Y42574D01*
X-16841Y42584D01*
X-16837Y42595D01*
X-16833Y42607D01*
X-16830Y42618D01*
X-16829Y42630D01*
X-16829Y42641D01*
X-16829Y42653D01*
X-16831Y42665D01*
X-16833Y42676D01*
X-16837Y42687D01*
X-16841Y42698D01*
X-16847Y42709D01*
X-16853Y42719D01*
X-16861Y42728D01*
X-16869Y42737D01*
X-16877Y42745D01*
X-16887Y42752D01*
X-16897Y42759D01*
X-16907Y42764D01*
X-16918Y42768D01*
X-16930Y42772D01*
X-16941Y42775D01*
X-16953Y42776D01*
X-16964Y42776D01*
X-16976Y42776D01*
X-16988Y42774D01*
X-16999Y42772D01*
X-17010Y42768D01*
G54D11*
X-15439Y41405D02*
X-15440Y41398D01*
X-15443Y41390D01*
X-15446Y41383D01*
X-15451Y41377D01*
X-15457Y41372D01*
X-15464Y41369D01*
X-15471Y41366D01*
X-15479Y41366D01*
X-15486Y41366D01*
X-15493Y41368D01*
X-15500Y41372D01*
X-15506Y41377D01*
X-15512Y41383D01*
X-15515Y41390D01*
X-15518Y41397D01*
X-15518Y41405D01*
X-15518Y41412D01*
X-15516Y41419D01*
X-15512Y41426D01*
X-15507Y41432D01*
X-15501Y41437D01*
X-15495Y41441D01*
X-15487Y41444D01*
X-15479Y41444D01*
X-15473Y41444D01*
X-15465Y41442D01*
X-15458Y41438D01*
X-15452Y41433D01*
X-15447Y41428D01*
X-15443Y41421D01*
X-15440Y41413D01*
X-15440Y41406D01*
X-15439Y41405D01*
G54D12*
X-15897Y41629D02*
X-15854Y41509D01*
X-15854Y41509D02*
X-15669Y41576D01*
X-15712Y41697D02*
X-15669Y41576D01*
X-15897Y41629D02*
X-15712Y41697D01*
X-15981Y41859D02*
X-15961Y41804D01*
X-15961Y41804D02*
X-15868Y41838D01*
X-15888Y41893D02*
X-15868Y41838D01*
X-15981Y41859D02*
X-15888Y41893D01*
X-15915Y41676D02*
X-15894Y41621D01*
X-15894Y41621D02*
X-15801Y41655D01*
X-15822Y41710D02*
X-15801Y41655D01*
X-15915Y41676D02*
X-15822Y41710D01*
X-15964Y41813D02*
X-15911Y41667D01*
X-15911Y41667D02*
X-15846Y41690D01*
X-15900Y41837D02*
X-15846Y41690D01*
X-15964Y41813D02*
X-15900Y41837D01*
X-16451Y41428D02*
X-16407Y41307D01*
X-16407Y41307D02*
X-16222Y41375D01*
X-16266Y41495D02*
X-16222Y41375D01*
X-16451Y41428D02*
X-16266Y41495D01*
X-16575Y41770D02*
X-16532Y41649D01*
X-16532Y41649D02*
X-16347Y41717D01*
X-16390Y41837D02*
X-16347Y41717D01*
X-16575Y41770D02*
X-16390Y41837D01*
X-16376Y41508D02*
X-16356Y41453D01*
X-16356Y41453D02*
X-16263Y41487D01*
X-16283Y41542D02*
X-16263Y41487D01*
X-16376Y41508D02*
X-16283Y41542D01*
X-16443Y41691D02*
X-16422Y41636D01*
X-16422Y41636D02*
X-16329Y41670D01*
X-16350Y41725D02*
X-16329Y41670D01*
X-16443Y41691D02*
X-16350Y41725D01*
X-16398Y41656D02*
X-16344Y41509D01*
X-16344Y41509D02*
X-16280Y41533D01*
X-16333Y41679D02*
X-16280Y41533D01*
X-16398Y41656D02*
X-16333Y41679D01*
X-16135Y41710D02*
X-16109Y41636D01*
X-16109Y41636D02*
X-16035Y41663D01*
X-16062Y41736D02*
X-16035Y41663D01*
X-16135Y41710D02*
X-16062Y41736D01*
X-16019Y41962D02*
X-15978Y41851D01*
X-15978Y41851D02*
X-15867Y41891D01*
X-15908Y42002D02*
X-15867Y41891D01*
X-16019Y41962D02*
X-15908Y42002D01*
X-15864Y42029D02*
X-15834Y41945D01*
X-15834Y41945D02*
X-15806Y41955D01*
X-15837Y42039D02*
X-15806Y41955D01*
X-15864Y42029D02*
X-15837Y42039D01*
G54D13*
X-15851Y41531D02*
X-16238Y41390D01*
X-16383Y41818D02*
X-15857Y42010D01*
G54D14*
X-15842Y41954D02*
X-15843Y41949D01*
X-15845Y41944D01*
X-15847Y41940D01*
X-15850Y41935D01*
X-15854Y41932D01*
X-15859Y41930D01*
X-15864Y41928D01*
X-15869Y41928D01*
X-15874Y41928D01*
X-15879Y41929D01*
X-15883Y41932D01*
X-15887Y41935D01*
X-15891Y41939D01*
X-15893Y41944D01*
X-15895Y41949D01*
X-15895Y41954D01*
X-15895Y41958D01*
X-15894Y41963D01*
X-15891Y41968D01*
X-15888Y41972D01*
X-15884Y41976D01*
X-15879Y41978D01*
X-15874Y41980D01*
X-15869Y41980D01*
X-15865Y41980D01*
X-15860Y41979D01*
X-15855Y41976D01*
X-15851Y41973D01*
X-15847Y41969D01*
X-15845Y41964D01*
X-15843Y41959D01*
X-15843Y41954D01*
X-15842Y41954D01*
G54D13*
X-15799Y41934D02*
X-15810Y41930D01*
X-15821Y41924D01*
X-15831Y41918D01*
X-15840Y41910D01*
X-15849Y41902D01*
X-15857Y41894D01*
X-15864Y41884D01*
X-15871Y41874D01*
X-15876Y41864D01*
X-15880Y41853D01*
X-15884Y41841D01*
X-15887Y41830D01*
X-15888Y41818D01*
X-15888Y41807D01*
X-15888Y41795D01*
X-15886Y41783D01*
X-15884Y41772D01*
X-15880Y41761D01*
X-15876Y41750D01*
X-15870Y41739D01*
X-15864Y41729D01*
X-15856Y41720D01*
X-15848Y41711D01*
X-15840Y41703D01*
X-15830Y41696D01*
X-15820Y41689D01*
X-15810Y41684D01*
X-15799Y41680D01*
X-15787Y41676D01*
X-15776Y41673D01*
X-15764Y41672D01*
X-15753Y41672D01*
X-15741Y41672D01*
X-15729Y41674D01*
X-15718Y41676D01*
X-15707Y41680D01*
X-16445Y41412D02*
X-16434Y41416D01*
X-16423Y41422D01*
X-16413Y41428D01*
X-16404Y41436D01*
X-16395Y41444D01*
X-16387Y41452D01*
X-16380Y41462D01*
X-16373Y41472D01*
X-16368Y41482D01*
X-16364Y41493D01*
X-16360Y41505D01*
X-16357Y41516D01*
X-16356Y41528D01*
X-16356Y41539D01*
X-16356Y41551D01*
X-16358Y41563D01*
X-16360Y41574D01*
X-16364Y41585D01*
X-16368Y41596D01*
X-16374Y41607D01*
X-16380Y41617D01*
X-16388Y41626D01*
X-16396Y41635D01*
X-16404Y41643D01*
X-16414Y41650D01*
X-16424Y41657D01*
X-16434Y41662D01*
X-16445Y41666D01*
X-16457Y41670D01*
X-16468Y41673D01*
X-16480Y41674D01*
X-16491Y41674D01*
X-16503Y41674D01*
X-16515Y41672D01*
X-16526Y41670D01*
X-16537Y41666D01*
G54D11*
X09180Y48917D02*
X09179Y48912D01*
X09177Y48907D01*
X09175Y48903D01*
X09172Y48898D01*
X09168Y48895D01*
X09163Y48893D01*
X09158Y48891D01*
X09153Y48891D01*
X09148Y48891D01*
X09143Y48892D01*
X09139Y48895D01*
X09135Y48898D01*
X09131Y48902D01*
X09129Y48907D01*
X09127Y48912D01*
X09127Y48917D01*
X09127Y48921D01*
X09128Y48926D01*
X09131Y48931D01*
X09134Y48935D01*
X09138Y48939D01*
X09143Y48941D01*
X09148Y48943D01*
X09153Y48943D01*
X09157Y48943D01*
X09162Y48942D01*
X09167Y48939D01*
X09171Y48936D01*
X09175Y48932D01*
X09177Y48927D01*
X09179Y48922D01*
X09179Y48917D01*
X09180Y48917D01*
G54D12*
X08798Y49271D02*
X08798Y49143D01*
X08798Y49143D02*
X08995Y49143D01*
X08995Y49271D02*
X08995Y49143D01*
X08798Y49271D02*
X08995Y49271D01*
X08798Y49516D02*
X08798Y49457D01*
X08798Y49457D02*
X08897Y49457D01*
X08897Y49516D02*
X08897Y49457D01*
X08798Y49516D02*
X08897Y49516D01*
X08798Y49321D02*
X08798Y49262D01*
X08798Y49262D02*
X08897Y49262D01*
X08897Y49321D02*
X08897Y49262D01*
X08798Y49321D02*
X08897Y49321D01*
X08798Y49467D02*
X08798Y49311D01*
X08798Y49311D02*
X08867Y49311D01*
X08867Y49467D02*
X08867Y49311D01*
X08798Y49467D02*
X08867Y49467D01*
X08209Y49271D02*
X08209Y49143D01*
X08209Y49143D02*
X08406Y49143D01*
X08406Y49271D02*
X08406Y49143D01*
X08209Y49271D02*
X08406Y49271D01*
X08209Y49635D02*
X08209Y49507D01*
X08209Y49507D02*
X08406Y49507D01*
X08406Y49635D02*
X08406Y49507D01*
X08209Y49635D02*
X08406Y49635D01*
X08307Y49321D02*
X08307Y49262D01*
X08307Y49262D02*
X08406Y49262D01*
X08406Y49321D02*
X08406Y49262D01*
X08307Y49321D02*
X08406Y49321D01*
X08307Y49516D02*
X08307Y49457D01*
X08307Y49457D02*
X08406Y49457D01*
X08406Y49516D02*
X08406Y49457D01*
X08307Y49516D02*
X08406Y49516D01*
X08337Y49467D02*
X08337Y49311D01*
X08337Y49311D02*
X08406Y49311D01*
X08406Y49467D02*
X08406Y49311D01*
X08337Y49467D02*
X08406Y49467D01*
X08602Y49428D02*
X08602Y49350D01*
X08602Y49350D02*
X08680Y49350D01*
X08680Y49428D02*
X08680Y49350D01*
X08602Y49428D02*
X08680Y49428D01*
X08798Y49625D02*
X08798Y49507D01*
X08798Y49507D02*
X08916Y49507D01*
X08916Y49625D02*
X08916Y49507D01*
X08798Y49625D02*
X08916Y49625D01*
X08966Y49635D02*
X08966Y49546D01*
X08966Y49546D02*
X08995Y49546D01*
X08995Y49635D02*
X08995Y49546D01*
X08966Y49635D02*
X08995Y49635D01*
G54D13*
X08808Y49163D02*
X08396Y49163D01*
X08406Y49615D02*
X08966Y49615D01*
G54D14*
X08964Y49566D02*
X08963Y49561D01*
X08961Y49556D01*
X08959Y49551D01*
X08955Y49547D01*
X08951Y49543D01*
X08946Y49541D01*
X08941Y49539D01*
X08936Y49539D01*
X08931Y49539D01*
X08926Y49541D01*
X08921Y49543D01*
X08917Y49546D01*
X08913Y49551D01*
X08911Y49555D01*
X08909Y49561D01*
X08909Y49566D01*
X08909Y49571D01*
X08910Y49576D01*
X08913Y49581D01*
X08916Y49585D01*
X08921Y49588D01*
X08925Y49591D01*
X08930Y49593D01*
X08936Y49593D01*
X08940Y49593D01*
X08946Y49592D01*
X08951Y49589D01*
X08955Y49586D01*
X08958Y49582D01*
X08961Y49577D01*
X08963Y49572D01*
X08963Y49566D01*
X08964Y49566D01*
G54D13*
X08995Y49526D02*
X08984Y49525D01*
X08972Y49523D01*
X08960Y49521D01*
X08949Y49517D01*
X08938Y49513D01*
X08927Y49507D01*
X08917Y49501D01*
X08907Y49493D01*
X08899Y49485D01*
X08891Y49477D01*
X08883Y49467D01*
X08877Y49457D01*
X08871Y49446D01*
X08867Y49435D01*
X08863Y49424D01*
X08861Y49412D01*
X08859Y49400D01*
X08858Y49389D01*
X08859Y49378D01*
X08861Y49366D01*
X08863Y49354D01*
X08867Y49343D01*
X08871Y49332D01*
X08877Y49321D01*
X08883Y49311D01*
X08891Y49301D01*
X08899Y49293D01*
X08907Y49285D01*
X08917Y49277D01*
X08927Y49271D01*
X08938Y49265D01*
X08949Y49261D01*
X08960Y49257D01*
X08972Y49255D01*
X08984Y49253D01*
X08995Y49252D01*
X08209Y49252D02*
X08220Y49253D01*
X08232Y49255D01*
X08244Y49257D01*
X08255Y49261D01*
X08266Y49265D01*
X08277Y49271D01*
X08287Y49277D01*
X08297Y49285D01*
X08305Y49293D01*
X08313Y49301D01*
X08321Y49311D01*
X08327Y49321D01*
X08333Y49332D01*
X08337Y49343D01*
X08341Y49354D01*
X08343Y49366D01*
X08345Y49378D01*
X08346Y49389D01*
X08345Y49400D01*
X08343Y49412D01*
X08341Y49424D01*
X08337Y49435D01*
X08333Y49446D01*
X08327Y49457D01*
X08321Y49467D01*
X08313Y49477D01*
X08305Y49485D01*
X08297Y49493D01*
X08287Y49501D01*
X08277Y49507D01*
X08266Y49513D01*
X08255Y49517D01*
X08244Y49521D01*
X08232Y49523D01*
X08220Y49525D01*
X08209Y49526D01*
G54D15*
X-18741Y49468D02*
X-17568Y46707D01*
X-19409Y45926D02*
X-20582Y48687D01*
X-20582Y48687D02*
X-18741Y49468D01*
X-17568Y46707D02*
X-19409Y45926D01*
G54D10*
X-03264Y53417D02*
X-03264Y54417D01*
X-03264Y54417D02*
X-01264Y54417D01*
X-01264Y54417D02*
X-01264Y53417D01*
X-01264Y53417D02*
X-03264Y53417D01*
G54D11*
X-06791Y54547D02*
X-06829Y54165D01*
X-06940Y53797D01*
X-07120Y53458D01*
X-07363Y53160D01*
X-07659Y52915D01*
X-07997Y52732D01*
X-08365Y52619D01*
X-08747Y52579D01*
X-09128Y52613D01*
X-09497Y52722D01*
X-09838Y52900D01*
X-10137Y53141D01*
X-10384Y53435D01*
X-10569Y53772D01*
X-10685Y54138D01*
X-10728Y54520D01*
X-10696Y54902D01*
X-10590Y55271D01*
X-10415Y55613D01*
X-10176Y55914D01*
X-09883Y56163D01*
X-09548Y56351D01*
X-09182Y56470D01*
X-08801Y56515D01*
X-08419Y56486D01*
X-08048Y56382D01*
X-07705Y56209D01*
X-07403Y55972D01*
X-07152Y55681D01*
X-06962Y55347D01*
X-06840Y54983D01*
X-06792Y54601D01*
X-06791Y54547D01*
X10689Y54311D02*
X10651Y53929D01*
X10540Y53561D01*
X10360Y53222D01*
X10117Y52924D01*
X09821Y52679D01*
X09483Y52496D01*
X09115Y52383D01*
X08733Y52343D01*
X08352Y52377D01*
X07983Y52486D01*
X07642Y52664D01*
X07343Y52905D01*
X07096Y53199D01*
X06911Y53536D01*
X06795Y53902D01*
X06752Y54284D01*
X06784Y54666D01*
X06890Y55035D01*
X07065Y55377D01*
X07304Y55678D01*
X07597Y55927D01*
X07932Y56115D01*
X08298Y56234D01*
X08679Y56279D01*
X09061Y56250D01*
X09432Y56146D01*
X09775Y55973D01*
X10077Y55736D01*
X10328Y55445D01*
X10518Y55111D01*
X10640Y54747D01*
X10688Y54365D01*
X10689Y54311D01*
G54D10*
X05340Y49861D02*
X05022Y49543D01*
X03798Y51403D02*
X03487Y51092D01*
X05340Y49861D02*
X03798Y51403D01*
X05050Y48907D02*
X05354Y48603D01*
X03494Y47337D02*
X03791Y47040D01*
X03784Y47033D02*
X05361Y48596D01*
X01026Y49819D02*
X02554Y51360D01*
X01175Y49062D02*
X03176Y47061D01*
X02568Y51360D02*
X02858Y51070D01*
X01182Y49409D02*
X03148Y51375D01*
X05340Y49211D02*
X03190Y51360D01*
X03183Y47054D02*
X05304Y49175D01*
X00977Y48624D02*
X02547Y47054D01*
X02547Y47054D02*
X02865Y47372D01*
X01171Y49072D02*
X01171Y49397D01*
X00978Y48625D02*
X01298Y48945D01*
X01309Y49536D02*
X00990Y49856D01*
X01770Y49238D02*
X01766Y49202D01*
X01755Y49167D01*
X01738Y49134D01*
X01715Y49106D01*
X01687Y49083D01*
X01654Y49065D01*
X01619Y49054D01*
X01583Y49051D01*
X01547Y49054D01*
X01512Y49064D01*
X01480Y49081D01*
X01451Y49104D01*
X01427Y49132D01*
X01410Y49164D01*
X01399Y49199D01*
X01395Y49236D01*
X01398Y49271D01*
X01408Y49307D01*
X01424Y49339D01*
X01447Y49368D01*
X01475Y49392D01*
X01507Y49410D01*
X01542Y49421D01*
X01579Y49425D01*
X01614Y49423D01*
X01649Y49413D01*
X01682Y49396D01*
X01711Y49374D01*
X01735Y49346D01*
X01753Y49314D01*
X01765Y49279D01*
X01769Y49243D01*
X01770Y49238D01*
G54D11*
X-05835Y45740D02*
X-05835Y46740D01*
X06190Y45740D02*
X06190Y46740D01*
X06190Y46740D02*
X-05810Y46740D01*
X-05810Y45740D02*
X06190Y45740D01*
X-05835Y51690D02*
X-05835Y52690D01*
X06190Y51690D02*
X06190Y52690D01*
X06190Y52690D02*
X-05810Y52690D01*
X-05810Y51690D02*
X06190Y51690D01*
G54D16*
X16239Y49693D02*
X16236Y49666D01*
X16228Y49640D01*
X16215Y49615D01*
X16198Y49594D01*
X16176Y49577D01*
X16152Y49564D01*
X16126Y49555D01*
X16098Y49553D01*
X16072Y49555D01*
X16046Y49563D01*
X16021Y49576D01*
X16000Y49593D01*
X15982Y49614D01*
X15969Y49638D01*
X15961Y49664D01*
X15958Y49692D01*
X15960Y49718D01*
X15967Y49744D01*
X15980Y49769D01*
X15997Y49790D01*
X16018Y49808D01*
X16042Y49822D01*
X16068Y49830D01*
X16096Y49833D01*
X16122Y49831D01*
X16148Y49824D01*
X16173Y49812D01*
X16195Y49795D01*
X16213Y49774D01*
X16226Y49750D01*
X16235Y49724D01*
X16238Y49696D01*
X16239Y49693D01*
X17198Y49893D02*
X17198Y49593D01*
X17198Y49593D02*
X16698Y49593D01*
X16698Y49593D02*
X16698Y49893D01*
X15898Y45843D02*
X15898Y49893D01*
X17998Y49893D02*
X17998Y45843D01*
X17998Y49893D02*
X15898Y49893D01*
X17998Y45843D02*
X15898Y45843D01*
G54D15*
X17150Y42633D02*
X14195Y43154D01*
X14542Y45123D02*
X17497Y44602D01*
X17497Y44602D02*
X17150Y42633D01*
X14195Y43154D02*
X14542Y45123D01*
G54D16*
X12358Y46082D02*
X12338Y45888D01*
X12282Y45701D01*
X12190Y45529D01*
X12067Y45378D01*
X11917Y45253D01*
X11745Y45161D01*
X11559Y45103D01*
X11364Y45083D01*
X11171Y45100D01*
X10984Y45155D01*
X10811Y45246D01*
X10659Y45368D01*
X10533Y45518D01*
X10439Y45689D01*
X10380Y45875D01*
X10359Y46069D01*
X10375Y46262D01*
X10429Y46450D01*
X10518Y46623D01*
X10639Y46776D01*
X10788Y46903D01*
X10958Y46998D01*
X11144Y47058D01*
X11338Y47081D01*
X11531Y47066D01*
X11719Y47014D01*
X11893Y46926D01*
X12047Y46806D01*
X12175Y46658D01*
X12271Y46488D01*
X12333Y46303D01*
X12357Y46109D01*
X12358Y46082D01*
X12858Y44582D02*
X09858Y44582D01*
X09858Y44582D02*
X09858Y47582D01*
X09858Y47582D02*
X12858Y47582D01*
X12858Y44582D02*
X12858Y47582D01*
X-02977Y49183D02*
X-03677Y49183D01*
X-03677Y49183D02*
X-03677Y50383D01*
X-03677Y50383D02*
X-02977Y50383D01*
X-02977Y50383D02*
X-02977Y49183D01*
G54D15*
X20751Y45136D02*
X21644Y44811D01*
X23335Y44196D02*
X22395Y44538D01*
X24861Y47365D02*
X23592Y47827D01*
X21572Y48562D02*
X22841Y48100D01*
X20974Y46918D02*
X21572Y48562D01*
X24861Y47365D02*
X23784Y44405D01*
X23784Y44405D02*
X23335Y44196D01*
X20704Y45153D02*
X20495Y45602D01*
X20495Y45602D02*
X20974Y46918D01*
X24218Y46319D02*
X24187Y46009D01*
X24097Y45710D01*
X23950Y45434D01*
X23753Y45192D01*
X23512Y44993D01*
X23238Y44845D01*
X22939Y44752D01*
X22629Y44720D01*
X22319Y44748D01*
X22019Y44836D01*
X21742Y44981D01*
X21499Y45176D01*
X21298Y45416D01*
X21148Y45689D01*
X21053Y45987D01*
X21019Y46297D01*
X21045Y46607D01*
X21131Y46907D01*
X21274Y47185D01*
X21468Y47430D01*
X21705Y47632D01*
X21978Y47785D01*
X22275Y47881D01*
X22585Y47918D01*
X22895Y47894D01*
X23196Y47810D01*
X23475Y47669D01*
X23721Y47477D01*
X23925Y47241D01*
X24079Y46969D01*
X24178Y46673D01*
X24217Y46363D01*
X24218Y46319D01*
X-04609Y48394D02*
X-04609Y49344D01*
X-04609Y51144D02*
X-04609Y50144D01*
X-08109Y51494D02*
X-08109Y50144D01*
X-08109Y47994D02*
X-08109Y49344D01*
X-06359Y47994D02*
X-08109Y47994D01*
X-08109Y51494D02*
X-04959Y51494D01*
X-04959Y51494D02*
X-04609Y51144D01*
X-04609Y48344D02*
X-04959Y47994D01*
X-04959Y47994D02*
X-06359Y47994D01*
X-04759Y49744D02*
X-04790Y49434D01*
X-04880Y49135D01*
X-05027Y48859D01*
X-05224Y48617D01*
X-05465Y48418D01*
X-05739Y48270D01*
X-06038Y48177D01*
X-06348Y48145D01*
X-06658Y48173D01*
X-06958Y48261D01*
X-07235Y48406D01*
X-07478Y48601D01*
X-07679Y48841D01*
X-07829Y49114D01*
X-07924Y49412D01*
X-07958Y49722D01*
X-07932Y50032D01*
X-07846Y50332D01*
X-07703Y50610D01*
X-07509Y50855D01*
X-07272Y51057D01*
X-06999Y51210D01*
X-06702Y51306D01*
X-06392Y51343D01*
X-06082Y51319D01*
X-05781Y51235D01*
X-05502Y51094D01*
X-05256Y50902D01*
X-05052Y50666D01*
X-04898Y50394D01*
X-04799Y50098D01*
X-04760Y49788D01*
X-04759Y49744D01*
G54D16*
X19612Y43583D02*
X19611Y43574D01*
X19608Y43564D01*
X19603Y43556D01*
X19597Y43548D01*
X19589Y43542D01*
X19581Y43537D01*
X19572Y43535D01*
X19562Y43534D01*
X19553Y43534D01*
X19544Y43537D01*
X19535Y43542D01*
X19528Y43548D01*
X19521Y43555D01*
X19517Y43564D01*
X19514Y43573D01*
X19513Y43583D01*
X19513Y43592D01*
X19516Y43601D01*
X19520Y43610D01*
X19527Y43617D01*
X19534Y43624D01*
X19542Y43628D01*
X19552Y43631D01*
X19561Y43632D01*
X19570Y43632D01*
X19580Y43629D01*
X19588Y43625D01*
X19596Y43619D01*
X19602Y43611D01*
X19607Y43603D01*
X19610Y43594D01*
X19611Y43584D01*
X19612Y43583D01*
X19562Y43133D02*
X19562Y43533D01*
X19562Y43533D02*
X20162Y43533D01*
X20162Y43533D02*
X20162Y43133D01*
X20162Y42733D02*
X20162Y42333D01*
X20162Y42333D02*
X19562Y42333D01*
X19562Y42333D02*
X19562Y42733D01*
X18352Y43583D02*
X18351Y43574D01*
X18348Y43564D01*
X18343Y43556D01*
X18337Y43548D01*
X18329Y43542D01*
X18321Y43537D01*
X18312Y43535D01*
X18302Y43534D01*
X18293Y43534D01*
X18284Y43537D01*
X18275Y43542D01*
X18268Y43548D01*
X18261Y43555D01*
X18257Y43564D01*
X18254Y43573D01*
X18253Y43583D01*
X18253Y43592D01*
X18256Y43601D01*
X18260Y43610D01*
X18267Y43617D01*
X18274Y43624D01*
X18282Y43628D01*
X18292Y43631D01*
X18301Y43632D01*
X18310Y43632D01*
X18320Y43629D01*
X18328Y43625D01*
X18336Y43619D01*
X18342Y43611D01*
X18347Y43603D01*
X18350Y43594D01*
X18351Y43584D01*
X18352Y43583D01*
X18302Y43133D02*
X18302Y43533D01*
X18302Y43533D02*
X18902Y43533D01*
X18902Y43533D02*
X18902Y43133D01*
X18902Y42733D02*
X18902Y42333D01*
X18902Y42333D02*
X18302Y42333D01*
X18302Y42333D02*
X18302Y42733D01*
X-00778Y53578D02*
X-00779Y53569D01*
X-00782Y53559D01*
X-00787Y53551D01*
X-00793Y53543D01*
X-00801Y53537D01*
X-00809Y53532D01*
X-00818Y53530D01*
X-00828Y53529D01*
X-00837Y53529D01*
X-00846Y53532D01*
X-00855Y53537D01*
X-00862Y53543D01*
X-00869Y53550D01*
X-00873Y53559D01*
X-00876Y53568D01*
X-00877Y53578D01*
X-00877Y53587D01*
X-00874Y53596D01*
X-00870Y53605D01*
X-00863Y53612D01*
X-00856Y53619D01*
X-00848Y53623D01*
X-00838Y53626D01*
X-00829Y53627D01*
X-00820Y53627D01*
X-00810Y53624D01*
X-00802Y53620D01*
X-00794Y53614D01*
X-00788Y53606D01*
X-00783Y53598D01*
X-00780Y53589D01*
X-00779Y53579D01*
X-00778Y53578D01*
X-00378Y53578D02*
X-00778Y53578D01*
X-00778Y53578D02*
X-00778Y54178D01*
X-00778Y54178D02*
X-00378Y54178D01*
X00022Y54178D02*
X00422Y54178D01*
X00422Y54178D02*
X00422Y53578D01*
X00422Y53578D02*
X00022Y53578D01*
X-02042Y49803D02*
X-02043Y49794D01*
X-02046Y49784D01*
X-02051Y49776D01*
X-02057Y49768D01*
X-02065Y49762D01*
X-02073Y49757D01*
X-02082Y49755D01*
X-02092Y49754D01*
X-02101Y49754D01*
X-02110Y49757D01*
X-02119Y49762D01*
X-02126Y49768D01*
X-02133Y49775D01*
X-02137Y49784D01*
X-02140Y49793D01*
X-02141Y49803D01*
X-02141Y49812D01*
X-02138Y49821D01*
X-02134Y49830D01*
X-02127Y49837D01*
X-02120Y49844D01*
X-02112Y49848D01*
X-02102Y49851D01*
X-02093Y49852D01*
X-02084Y49852D01*
X-02074Y49849D01*
X-02066Y49845D01*
X-02058Y49839D01*
X-02052Y49831D01*
X-02047Y49823D01*
X-02044Y49814D01*
X-02043Y49804D01*
X-02042Y49803D01*
X-02092Y49353D02*
X-02092Y49753D01*
X-02092Y49753D02*
X-01492Y49753D01*
X-01492Y49753D02*
X-01492Y49353D01*
X-01492Y48953D02*
X-01492Y48553D01*
X-01492Y48553D02*
X-02092Y48553D01*
X-02092Y48553D02*
X-02092Y48953D01*
X07491Y49768D02*
X07490Y49759D01*
X07487Y49749D01*
X07482Y49741D01*
X07476Y49733D01*
X07468Y49727D01*
X07460Y49722D01*
X07451Y49720D01*
X07441Y49719D01*
X07432Y49719D01*
X07423Y49722D01*
X07414Y49727D01*
X07407Y49733D01*
X07400Y49740D01*
X07396Y49749D01*
X07393Y49758D01*
X07392Y49768D01*
X07392Y49777D01*
X07395Y49786D01*
X07399Y49795D01*
X07406Y49802D01*
X07413Y49809D01*
X07421Y49813D01*
X07431Y49816D01*
X07440Y49817D01*
X07449Y49817D01*
X07459Y49814D01*
X07467Y49810D01*
X07475Y49804D01*
X07481Y49796D01*
X07486Y49788D01*
X07489Y49779D01*
X07490Y49769D01*
X07491Y49768D01*
X06991Y49768D02*
X07391Y49768D01*
X07391Y49768D02*
X07391Y49168D01*
X07391Y49168D02*
X06991Y49168D01*
X06591Y49168D02*
X06191Y49168D01*
X06191Y49168D02*
X06191Y49768D01*
X06191Y49768D02*
X06591Y49768D01*
G54D17*
X08957Y47205D02*
X09035Y47205D01*
X08957Y47795D02*
X09035Y47795D01*
X07775Y47795D02*
X07697Y47795D01*
X07775Y47205D02*
X07697Y47205D01*
X09035Y47795D02*
X09035Y47205D01*
X07697Y47205D02*
X07697Y47795D01*
G54D16*
X-02042Y48307D02*
X-02043Y48298D01*
X-02046Y48288D01*
X-02051Y48280D01*
X-02057Y48272D01*
X-02065Y48266D01*
X-02073Y48261D01*
X-02082Y48259D01*
X-02092Y48258D01*
X-02101Y48258D01*
X-02110Y48261D01*
X-02119Y48266D01*
X-02126Y48272D01*
X-02133Y48279D01*
X-02137Y48288D01*
X-02140Y48297D01*
X-02141Y48307D01*
X-02141Y48316D01*
X-02138Y48325D01*
X-02134Y48334D01*
X-02127Y48341D01*
X-02120Y48348D01*
X-02112Y48352D01*
X-02102Y48355D01*
X-02093Y48356D01*
X-02084Y48356D01*
X-02074Y48353D01*
X-02066Y48349D01*
X-02058Y48343D01*
X-02052Y48335D01*
X-02047Y48327D01*
X-02044Y48318D01*
X-02043Y48308D01*
X-02042Y48307D01*
X-02092Y47857D02*
X-02092Y48257D01*
X-02092Y48257D02*
X-01492Y48257D01*
X-01492Y48257D02*
X-01492Y47857D01*
X-01492Y47457D02*
X-01492Y47057D01*
X-01492Y47057D02*
X-02092Y47057D01*
X-02092Y47057D02*
X-02092Y47457D01*
G54D15*
X02122Y56565D02*
X02056Y55067D01*
G54D18*
X02078Y55066D02*
X02143Y54979D01*
X02216Y54898D01*
X02296Y54823D01*
X02381Y54756D01*
X02473Y54696D01*
X02569Y54645D01*
X02669Y54602D01*
X02773Y54569D01*
X02879Y54544D01*
X02987Y54528D01*
X03095Y54523D01*
X03203Y54526D01*
X03311Y54539D01*
X03418Y54562D01*
X03522Y54593D01*
X03623Y54634D01*
X03721Y54683D01*
X03813Y54741D01*
X03900Y54806D01*
X03981Y54879D01*
X04056Y54959D01*
X04123Y55044D01*
X04183Y55136D01*
X04234Y55232D01*
X04277Y55332D01*
X04310Y55436D01*
X04335Y55542D01*
X04351Y55650D01*
X04356Y55758D01*
X04353Y55866D01*
X04340Y55974D01*
X04317Y56081D01*
X04286Y56185D01*
X04245Y56286D01*
X04196Y56384D01*
X04138Y56476D01*
X04073Y56563D01*
X04000Y56644D01*
X03920Y56719D01*
X03835Y56786D01*
X03743Y56846D01*
X03647Y56897D01*
X03547Y56940D01*
X03443Y56973D01*
X03337Y56998D01*
X03229Y57014D01*
X03121Y57019D01*
X03013Y57016D01*
X02905Y57003D01*
X02798Y56980D01*
X02694Y56949D01*
X02593Y56908D01*
X02495Y56859D01*
X02403Y56801D01*
X02316Y56736D01*
X02235Y56663D01*
X02160Y56583D01*
X02143Y56563D01*
G54D15*
X12947Y55168D02*
X12622Y53703D01*
G54D18*
X12644Y53698D02*
X12693Y53600D01*
X12751Y53508D01*
X12817Y53421D01*
X12890Y53340D01*
X12969Y53266D01*
X13055Y53199D01*
X13147Y53139D01*
X13243Y53088D01*
X13343Y53046D01*
X13447Y53012D01*
X13553Y52987D01*
X13661Y52972D01*
X13770Y52967D01*
X13877Y52970D01*
X13986Y52984D01*
X14092Y53006D01*
X14196Y53038D01*
X14297Y53079D01*
X14395Y53128D01*
X14487Y53186D01*
X14574Y53252D01*
X14655Y53325D01*
X14729Y53404D01*
X14796Y53490D01*
X14856Y53582D01*
X14907Y53678D01*
X14949Y53778D01*
X14983Y53882D01*
X15008Y53988D01*
X15023Y54096D01*
X15028Y54205D01*
X15025Y54312D01*
X15011Y54421D01*
X14989Y54527D01*
X14957Y54631D01*
X14916Y54732D01*
X14867Y54830D01*
X14809Y54922D01*
X14743Y55009D01*
X14670Y55090D01*
X14591Y55164D01*
X14505Y55231D01*
X14413Y55291D01*
X14317Y55342D01*
X14217Y55384D01*
X14113Y55418D01*
X14007Y55443D01*
X13899Y55458D01*
X13790Y55463D01*
X13683Y55460D01*
X13574Y55446D01*
X13468Y55424D01*
X13364Y55392D01*
X13263Y55351D01*
X13165Y55302D01*
X13073Y55244D01*
X12986Y55178D01*
X12966Y55161D01*
G54D15*
X16651Y54144D02*
X16263Y52695D01*
G54D18*
X16284Y52691D02*
X16329Y52591D01*
X16382Y52496D01*
X16444Y52407D01*
X16513Y52322D01*
X16589Y52245D01*
X16672Y52174D01*
X16760Y52110D01*
X16854Y52055D01*
X16952Y52008D01*
X17054Y51969D01*
X17159Y51940D01*
X17267Y51920D01*
X17375Y51909D01*
X17483Y51908D01*
X17592Y51917D01*
X17699Y51934D01*
X17805Y51961D01*
X17907Y51998D01*
X18007Y52043D01*
X18102Y52096D01*
X18191Y52158D01*
X18276Y52227D01*
X18353Y52303D01*
X18424Y52386D01*
X18488Y52474D01*
X18543Y52568D01*
X18590Y52666D01*
X18629Y52768D01*
X18658Y52873D01*
X18678Y52981D01*
X18689Y53089D01*
X18690Y53197D01*
X18681Y53306D01*
X18664Y53413D01*
X18637Y53519D01*
X18600Y53621D01*
X18555Y53721D01*
X18502Y53816D01*
X18440Y53905D01*
X18371Y53990D01*
X18295Y54067D01*
X18212Y54138D01*
X18124Y54202D01*
X18030Y54257D01*
X17932Y54304D01*
X17830Y54343D01*
X17725Y54372D01*
X17617Y54392D01*
X17509Y54403D01*
X17401Y54404D01*
X17292Y54395D01*
X17185Y54378D01*
X17079Y54351D01*
X16977Y54314D01*
X16877Y54269D01*
X16782Y54216D01*
X16693Y54154D01*
X16672Y54138D01*
G54D15*
X20208Y52958D02*
X19695Y51548D01*
G54D18*
X19714Y51541D02*
X19751Y51438D01*
X19796Y51339D01*
X19849Y51244D01*
X19911Y51154D01*
X19980Y51070D01*
X20056Y50992D01*
X20139Y50921D01*
X20228Y50857D01*
X20322Y50802D01*
X20420Y50755D01*
X20522Y50716D01*
X20627Y50687D01*
X20734Y50667D01*
X20843Y50656D01*
X20951Y50655D01*
X21060Y50664D01*
X21167Y50681D01*
X21273Y50708D01*
X21376Y50745D01*
X21475Y50790D01*
X21570Y50843D01*
X21660Y50905D01*
X21744Y50974D01*
X21822Y51050D01*
X21893Y51133D01*
X21957Y51222D01*
X22012Y51316D01*
X22059Y51414D01*
X22098Y51516D01*
X22127Y51621D01*
X22147Y51728D01*
X22158Y51837D01*
X22159Y51945D01*
X22150Y52054D01*
X22133Y52161D01*
X22106Y52267D01*
X22069Y52370D01*
X22024Y52469D01*
X21971Y52564D01*
X21909Y52654D01*
X21840Y52738D01*
X21764Y52816D01*
X21681Y52887D01*
X21592Y52951D01*
X21498Y53006D01*
X21400Y53053D01*
X21298Y53092D01*
X21193Y53121D01*
X21086Y53141D01*
X20977Y53152D01*
X20869Y53153D01*
X20760Y53144D01*
X20653Y53127D01*
X20547Y53100D01*
X20444Y53063D01*
X20345Y53018D01*
X20250Y52965D01*
X20228Y52951D01*
G54D15*
X23484Y51535D02*
X22910Y50149D01*
G54D18*
X22930Y50141D02*
X22961Y50036D01*
X23002Y49935D01*
X23051Y49838D01*
X23109Y49745D01*
X23175Y49658D01*
X23247Y49577D01*
X23327Y49502D01*
X23413Y49435D01*
X23504Y49376D01*
X23600Y49324D01*
X23701Y49281D01*
X23804Y49248D01*
X23911Y49223D01*
X24019Y49207D01*
X24127Y49202D01*
X24235Y49205D01*
X24344Y49218D01*
X24450Y49241D01*
X24555Y49272D01*
X24656Y49313D01*
X24753Y49362D01*
X24846Y49420D01*
X24933Y49486D01*
X25014Y49558D01*
X25089Y49638D01*
X25156Y49724D01*
X25215Y49815D01*
X25267Y49911D01*
X25310Y50012D01*
X25343Y50115D01*
X25368Y50222D01*
X25384Y50330D01*
X25389Y50438D01*
X25386Y50546D01*
X25373Y50655D01*
X25350Y50761D01*
X25319Y50866D01*
X25278Y50967D01*
X25229Y51064D01*
X25171Y51157D01*
X25105Y51244D01*
X25033Y51325D01*
X24953Y51400D01*
X24867Y51467D01*
X24776Y51526D01*
X24680Y51578D01*
X24579Y51621D01*
X24476Y51654D01*
X24369Y51679D01*
X24261Y51695D01*
X24153Y51700D01*
X24045Y51697D01*
X23936Y51684D01*
X23830Y51661D01*
X23725Y51630D01*
X23624Y51589D01*
X23527Y51540D01*
X23504Y51526D01*
G54D15*
X26723Y49873D02*
X26089Y48514D01*
G54D18*
X26107Y48505D02*
X26134Y48399D01*
X26171Y48296D01*
X26216Y48197D01*
X26269Y48102D01*
X26331Y48012D01*
X26400Y47928D01*
X26476Y47850D01*
X26559Y47779D01*
X26648Y47715D01*
X26742Y47660D01*
X26840Y47613D01*
X26942Y47574D01*
X27047Y47545D01*
X27154Y47525D01*
X27263Y47514D01*
X27371Y47513D01*
X27480Y47522D01*
X27587Y47539D01*
X27693Y47566D01*
X27796Y47603D01*
X27895Y47648D01*
X27990Y47701D01*
X28080Y47763D01*
X28164Y47832D01*
X28242Y47908D01*
X28313Y47991D01*
X28377Y48080D01*
X28432Y48174D01*
X28479Y48272D01*
X28518Y48374D01*
X28547Y48479D01*
X28567Y48586D01*
X28578Y48695D01*
X28579Y48803D01*
X28570Y48912D01*
X28553Y49019D01*
X28526Y49125D01*
X28489Y49228D01*
X28444Y49327D01*
X28391Y49422D01*
X28329Y49512D01*
X28260Y49596D01*
X28184Y49674D01*
X28101Y49745D01*
X28012Y49809D01*
X27918Y49864D01*
X27820Y49911D01*
X27718Y49950D01*
X27613Y49979D01*
X27506Y49999D01*
X27397Y50010D01*
X27289Y50011D01*
X27180Y50002D01*
X27073Y49985D01*
X26967Y49958D01*
X26864Y49921D01*
X26765Y49876D01*
X26742Y49864D01*
G54D15*
X-22494Y51918D02*
X-21860Y50559D01*
G54D18*
X-21841Y50569D02*
X-21743Y50522D01*
X-21641Y50483D01*
X-21536Y50454D01*
X-21428Y50434D01*
X-21320Y50423D01*
X-21212Y50422D01*
X-21103Y50431D01*
X-20996Y50448D01*
X-20890Y50475D01*
X-20788Y50512D01*
X-20688Y50557D01*
X-20593Y50610D01*
X-20504Y50672D01*
X-20419Y50741D01*
X-20342Y50817D01*
X-20271Y50900D01*
X-20207Y50988D01*
X-20152Y51082D01*
X-20105Y51180D01*
X-20066Y51282D01*
X-20037Y51387D01*
X-20017Y51495D01*
X-20006Y51603D01*
X-20005Y51711D01*
X-20014Y51820D01*
X-20031Y51927D01*
X-20058Y52033D01*
X-20095Y52135D01*
X-20140Y52235D01*
X-20193Y52330D01*
X-20255Y52419D01*
X-20324Y52504D01*
X-20400Y52581D01*
X-20483Y52652D01*
X-20571Y52716D01*
X-20665Y52771D01*
X-20763Y52818D01*
X-20865Y52857D01*
X-20970Y52886D01*
X-21078Y52906D01*
X-21186Y52917D01*
X-21294Y52918D01*
X-21403Y52909D01*
X-21510Y52892D01*
X-21616Y52865D01*
X-21718Y52828D01*
X-21818Y52783D01*
X-21913Y52730D01*
X-22002Y52668D01*
X-22087Y52599D01*
X-22164Y52523D01*
X-22235Y52440D01*
X-22299Y52352D01*
X-22354Y52258D01*
X-22401Y52160D01*
X-22440Y52058D01*
X-22469Y51953D01*
X-22475Y51927D01*
G54D15*
X-19242Y53294D02*
X-18729Y51884D01*
G54D18*
X-18709Y51892D02*
X-18615Y51837D01*
X-18517Y51790D01*
X-18415Y51751D01*
X-18310Y51722D01*
X-18202Y51702D01*
X-18094Y51691D01*
X-17986Y51690D01*
X-17877Y51699D01*
X-17770Y51716D01*
X-17664Y51743D01*
X-17562Y51780D01*
X-17462Y51825D01*
X-17367Y51878D01*
X-17278Y51940D01*
X-17193Y52009D01*
X-17116Y52085D01*
X-17045Y52168D01*
X-16981Y52256D01*
X-16926Y52350D01*
X-16879Y52448D01*
X-16840Y52550D01*
X-16811Y52655D01*
X-16791Y52763D01*
X-16780Y52871D01*
X-16779Y52979D01*
X-16788Y53088D01*
X-16805Y53195D01*
X-16832Y53301D01*
X-16869Y53403D01*
X-16914Y53503D01*
X-16967Y53598D01*
X-17029Y53687D01*
X-17098Y53772D01*
X-17174Y53849D01*
X-17257Y53920D01*
X-17345Y53984D01*
X-17439Y54039D01*
X-17537Y54086D01*
X-17639Y54125D01*
X-17744Y54154D01*
X-17852Y54174D01*
X-17960Y54185D01*
X-18068Y54186D01*
X-18177Y54177D01*
X-18284Y54160D01*
X-18390Y54133D01*
X-18492Y54096D01*
X-18592Y54051D01*
X-18687Y53998D01*
X-18776Y53936D01*
X-18861Y53867D01*
X-18938Y53791D01*
X-19009Y53708D01*
X-19073Y53620D01*
X-19128Y53526D01*
X-19175Y53428D01*
X-19214Y53326D01*
X-19222Y53301D01*
G54D15*
X-15863Y54431D02*
X-15475Y52982D01*
G54D18*
X-15455Y52987D02*
X-15366Y52923D01*
X-15272Y52868D01*
X-15174Y52821D01*
X-15072Y52782D01*
X-14967Y52753D01*
X-14860Y52733D01*
X-14751Y52722D01*
X-14643Y52721D01*
X-14534Y52730D01*
X-14427Y52747D01*
X-14321Y52774D01*
X-14218Y52811D01*
X-14119Y52856D01*
X-14024Y52909D01*
X-13934Y52971D01*
X-13850Y53040D01*
X-13772Y53116D01*
X-13701Y53199D01*
X-13637Y53288D01*
X-13582Y53382D01*
X-13535Y53480D01*
X-13496Y53582D01*
X-13467Y53687D01*
X-13447Y53794D01*
X-13436Y53903D01*
X-13435Y54011D01*
X-13444Y54120D01*
X-13461Y54227D01*
X-13488Y54333D01*
X-13525Y54436D01*
X-13570Y54535D01*
X-13623Y54630D01*
X-13685Y54720D01*
X-13754Y54804D01*
X-13830Y54882D01*
X-13913Y54953D01*
X-14002Y55017D01*
X-14096Y55072D01*
X-14194Y55119D01*
X-14296Y55158D01*
X-14401Y55187D01*
X-14508Y55207D01*
X-14617Y55218D01*
X-14725Y55219D01*
X-14834Y55210D01*
X-14941Y55193D01*
X-15047Y55166D01*
X-15150Y55129D01*
X-15249Y55084D01*
X-15344Y55031D01*
X-15434Y54969D01*
X-15518Y54900D01*
X-15596Y54824D01*
X-15667Y54741D01*
X-15731Y54652D01*
X-15786Y54558D01*
X-15833Y54460D01*
X-15843Y54436D01*
G54D15*
X-12474Y55367D02*
X-12214Y53890D01*
G54D18*
X-12193Y53894D02*
X-12110Y53823D01*
X-12021Y53759D01*
X-11927Y53704D01*
X-11829Y53657D01*
X-11727Y53618D01*
X-11622Y53589D01*
X-11515Y53569D01*
X-11406Y53558D01*
X-11298Y53557D01*
X-11189Y53566D01*
X-11082Y53583D01*
X-10976Y53610D01*
X-10873Y53647D01*
X-10774Y53692D01*
X-10679Y53745D01*
X-10589Y53807D01*
X-10505Y53876D01*
X-10427Y53952D01*
X-10356Y54035D01*
X-10292Y54124D01*
X-10237Y54218D01*
X-10190Y54316D01*
X-10151Y54418D01*
X-10122Y54523D01*
X-10102Y54630D01*
X-10091Y54739D01*
X-10090Y54847D01*
X-10099Y54956D01*
X-10116Y55063D01*
X-10143Y55169D01*
X-10180Y55272D01*
X-10225Y55371D01*
X-10278Y55466D01*
X-10340Y55556D01*
X-10409Y55640D01*
X-10485Y55718D01*
X-10568Y55789D01*
X-10657Y55853D01*
X-10751Y55908D01*
X-10849Y55955D01*
X-10951Y55994D01*
X-11056Y56023D01*
X-11163Y56043D01*
X-11272Y56054D01*
X-11380Y56055D01*
X-11489Y56046D01*
X-11596Y56029D01*
X-11702Y56002D01*
X-11805Y55965D01*
X-11904Y55920D01*
X-11999Y55867D01*
X-12089Y55805D01*
X-12173Y55736D01*
X-12251Y55660D01*
X-12322Y55577D01*
X-12386Y55488D01*
X-12441Y55394D01*
X-12453Y55371D01*
G54D15*
X-08428Y56297D02*
X-08245Y54808D01*
G54D18*
X-08222Y54810D02*
X-08143Y54735D01*
X-08058Y54667D01*
X-07967Y54607D01*
X-07871Y54555D01*
X-07771Y54511D01*
X-07668Y54477D01*
X-07562Y54451D01*
X-07454Y54435D01*
X-07345Y54429D01*
X-07237Y54432D01*
X-07129Y54444D01*
X-07022Y54466D01*
X-06918Y54497D01*
X-06816Y54536D01*
X-06719Y54585D01*
X-06626Y54642D01*
X-06538Y54707D01*
X-06457Y54779D01*
X-06382Y54858D01*
X-06314Y54943D01*
X-06254Y55034D01*
X-06202Y55130D01*
X-06158Y55230D01*
X-06124Y55333D01*
X-06098Y55439D01*
X-06082Y55547D01*
X-06076Y55656D01*
X-06079Y55764D01*
X-06091Y55872D01*
X-06113Y55979D01*
X-06144Y56083D01*
X-06183Y56185D01*
X-06232Y56282D01*
X-06289Y56375D01*
X-06354Y56463D01*
X-06426Y56544D01*
X-06505Y56619D01*
X-06590Y56687D01*
X-06681Y56747D01*
X-06777Y56799D01*
X-06877Y56843D01*
X-06980Y56877D01*
X-07086Y56903D01*
X-07194Y56919D01*
X-07303Y56925D01*
X-07411Y56922D01*
X-07519Y56910D01*
X-07626Y56888D01*
X-07730Y56857D01*
X-07832Y56818D01*
X-07929Y56769D01*
X-08022Y56712D01*
X-08110Y56647D01*
X-08191Y56575D01*
X-08266Y56496D01*
X-08334Y56411D01*
X-08394Y56320D01*
X-08407Y56297D01*
G54D15*
X-05148Y56428D02*
X-05082Y54930D01*
G54D18*
X-05059Y54930D02*
X-04986Y54849D01*
X-04907Y54775D01*
X-04821Y54708D01*
X-04729Y54648D01*
X-04633Y54597D01*
X-04533Y54555D01*
X-04429Y54521D01*
X-04323Y54496D01*
X-04215Y54481D01*
X-04106Y54476D01*
X-03999Y54479D01*
X-03890Y54493D01*
X-03784Y54515D01*
X-03680Y54547D01*
X-03579Y54588D01*
X-03481Y54637D01*
X-03389Y54695D01*
X-03302Y54761D01*
X-03221Y54834D01*
X-03147Y54913D01*
X-03080Y54999D01*
X-03020Y55091D01*
X-02969Y55187D01*
X-02927Y55287D01*
X-02893Y55391D01*
X-02868Y55497D01*
X-02853Y55605D01*
X-02848Y55714D01*
X-02851Y55821D01*
X-02865Y55930D01*
X-02887Y56036D01*
X-02919Y56140D01*
X-02960Y56241D01*
X-03009Y56339D01*
X-03067Y56431D01*
X-03133Y56518D01*
X-03206Y56599D01*
X-03285Y56673D01*
X-03371Y56740D01*
X-03463Y56800D01*
X-03559Y56851D01*
X-03659Y56893D01*
X-03763Y56927D01*
X-03869Y56952D01*
X-03977Y56967D01*
X-04086Y56972D01*
X-04193Y56969D01*
X-04302Y56955D01*
X-04408Y56933D01*
X-04512Y56901D01*
X-04613Y56860D01*
X-04711Y56811D01*
X-04803Y56753D01*
X-04890Y56687D01*
X-04971Y56614D01*
X-05045Y56535D01*
X-05112Y56449D01*
X-05127Y56427D01*
G54D15*
X09716Y55834D02*
X09456Y54357D01*
G54D18*
X09477Y54353D02*
X09530Y54258D01*
X09592Y54168D01*
X09661Y54084D01*
X09737Y54006D01*
X09820Y53935D01*
X09909Y53871D01*
X10003Y53816D01*
X10101Y53769D01*
X10203Y53730D01*
X10308Y53701D01*
X10415Y53681D01*
X10524Y53670D01*
X10632Y53669D01*
X10741Y53678D01*
X10848Y53695D01*
X10954Y53722D01*
X11057Y53759D01*
X11156Y53804D01*
X11251Y53857D01*
X11341Y53919D01*
X11425Y53988D01*
X11503Y54064D01*
X11574Y54147D01*
X11638Y54236D01*
X11693Y54330D01*
X11740Y54428D01*
X11779Y54530D01*
X11808Y54635D01*
X11828Y54742D01*
X11839Y54851D01*
X11840Y54959D01*
X11831Y55068D01*
X11814Y55175D01*
X11787Y55281D01*
X11750Y55384D01*
X11705Y55483D01*
X11652Y55578D01*
X11590Y55668D01*
X11521Y55752D01*
X11445Y55830D01*
X11362Y55901D01*
X11273Y55965D01*
X11179Y56020D01*
X11081Y56067D01*
X10979Y56106D01*
X10874Y56135D01*
X10767Y56155D01*
X10658Y56166D01*
X10550Y56167D01*
X10441Y56158D01*
X10334Y56141D01*
X10228Y56114D01*
X10125Y56077D01*
X10026Y56032D01*
X09931Y55979D01*
X09841Y55917D01*
X09757Y55848D01*
X09737Y55830D01*
G54D15*
X05581Y56382D02*
X05386Y54895D01*
G54D18*
X05406Y54892D02*
X05464Y54799D01*
X05530Y54712D01*
X05602Y54631D01*
X05682Y54556D01*
X05768Y54489D01*
X05859Y54430D01*
X05955Y54378D01*
X06056Y54335D01*
X06159Y54302D01*
X06266Y54277D01*
X06374Y54261D01*
X06482Y54256D01*
X06590Y54259D01*
X06699Y54272D01*
X06805Y54295D01*
X06910Y54326D01*
X07011Y54367D01*
X07108Y54416D01*
X07201Y54474D01*
X07288Y54540D01*
X07369Y54612D01*
X07444Y54692D01*
X07511Y54778D01*
X07570Y54869D01*
X07622Y54965D01*
X07665Y55066D01*
X07698Y55169D01*
X07723Y55276D01*
X07739Y55384D01*
X07744Y55492D01*
X07741Y55600D01*
X07728Y55709D01*
X07705Y55815D01*
X07674Y55920D01*
X07633Y56021D01*
X07584Y56118D01*
X07526Y56211D01*
X07460Y56298D01*
X07388Y56379D01*
X07308Y56454D01*
X07222Y56521D01*
X07131Y56580D01*
X07035Y56632D01*
X06934Y56675D01*
X06831Y56708D01*
X06724Y56733D01*
X06616Y56749D01*
X06508Y56754D01*
X06400Y56751D01*
X06291Y56738D01*
X06185Y56715D01*
X06080Y56684D01*
X05979Y56643D01*
X05882Y56594D01*
X05789Y56536D01*
X05702Y56470D01*
X05621Y56398D01*
X05602Y56379D01*
G54D15*
X-01534Y56596D02*
X-01534Y55096D01*
G54D18*
X-01513Y55096D02*
X-01444Y55012D01*
X-01368Y54934D01*
X-01285Y54863D01*
X-01196Y54799D01*
X-01102Y54744D01*
X-01004Y54697D01*
X-00902Y54658D01*
X-00797Y54629D01*
X-00690Y54609D01*
X-00581Y54598D01*
X-00473Y54597D01*
X-00364Y54606D01*
X-00257Y54623D01*
X-00151Y54650D01*
X-00048Y54687D01*
X00051Y54732D01*
X00146Y54785D01*
X00236Y54847D01*
X00320Y54916D01*
X00398Y54992D01*
X00469Y55075D01*
X00533Y55164D01*
X00588Y55258D01*
X00635Y55356D01*
X00674Y55458D01*
X00703Y55563D01*
X00723Y55670D01*
X00734Y55779D01*
X00735Y55887D01*
X00726Y55996D01*
X00709Y56103D01*
X00682Y56209D01*
X00645Y56312D01*
X00600Y56411D01*
X00547Y56506D01*
X00485Y56596D01*
X00416Y56680D01*
X00340Y56758D01*
X00257Y56829D01*
X00168Y56893D01*
X00074Y56948D01*
X-00024Y56995D01*
X-00126Y57034D01*
X-00231Y57063D01*
X-00338Y57083D01*
X-00447Y57094D01*
X-00555Y57095D01*
X-00664Y57086D01*
X-00771Y57069D01*
X-00877Y57042D01*
X-00980Y57005D01*
X-01079Y56960D01*
X-01174Y56907D01*
X-01264Y56845D01*
X-01348Y56776D01*
X-01426Y56700D01*
X-01497Y56617D01*
X-01513Y56596D01*
G54D15*
X29642Y48287D02*
X28870Y47001D01*
G54D18*
X28888Y46989D02*
X28904Y46881D01*
X28930Y46775D01*
X28964Y46672D01*
X29008Y46572D01*
X29060Y46476D01*
X29120Y46385D01*
X29188Y46300D01*
X29263Y46221D01*
X29344Y46149D01*
X29432Y46084D01*
X29525Y46027D01*
X29622Y45978D01*
X29724Y45939D01*
X29828Y45908D01*
X29935Y45886D01*
X30043Y45874D01*
X30151Y45871D01*
X30260Y45877D01*
X30368Y45893D01*
X30474Y45919D01*
X30577Y45953D01*
X30677Y45997D01*
X30773Y46049D01*
X30864Y46109D01*
X30949Y46177D01*
X31028Y46252D01*
X31100Y46333D01*
X31165Y46421D01*
X31222Y46514D01*
X31271Y46611D01*
X31310Y46713D01*
X31341Y46817D01*
X31363Y46924D01*
X31375Y47032D01*
X31378Y47140D01*
X31372Y47249D01*
X31356Y47357D01*
X31330Y47463D01*
X31296Y47566D01*
X31252Y47666D01*
X31200Y47762D01*
X31140Y47853D01*
X31072Y47938D01*
X30997Y48017D01*
X30916Y48089D01*
X30828Y48154D01*
X30735Y48211D01*
X30638Y48260D01*
X30536Y48299D01*
X30432Y48330D01*
X30325Y48352D01*
X30217Y48364D01*
X30109Y48367D01*
X30000Y48361D01*
X29892Y48345D01*
X29786Y48319D01*
X29683Y48285D01*
X29659Y48275D01*
G54D16*
X-10784Y44620D02*
X-10787Y44593D01*
X-10795Y44567D01*
X-10808Y44542D01*
X-10825Y44521D01*
X-10847Y44504D01*
X-10871Y44491D01*
X-10897Y44482D01*
X-10925Y44480D01*
X-10951Y44482D01*
X-10977Y44490D01*
X-11002Y44503D01*
X-11023Y44520D01*
X-11041Y44541D01*
X-11054Y44565D01*
X-11062Y44591D01*
X-11065Y44619D01*
X-11063Y44645D01*
X-11056Y44671D01*
X-11043Y44696D01*
X-11026Y44717D01*
X-11005Y44735D01*
X-10981Y44749D01*
X-10955Y44757D01*
X-10927Y44760D01*
X-10901Y44758D01*
X-10875Y44751D01*
X-10850Y44739D01*
X-10828Y44722D01*
X-10810Y44701D01*
X-10797Y44677D01*
X-10788Y44651D01*
X-10785Y44623D01*
X-10784Y44620D01*
X-11944Y44160D02*
X-12016Y44451D01*
X-12016Y44451D02*
X-11531Y44572D01*
X-11531Y44572D02*
X-11459Y44281D01*
X-11662Y48404D02*
X-10682Y44474D01*
X-12720Y43966D02*
X-13700Y47896D01*
X-12720Y43966D02*
X-10682Y44474D01*
X-13700Y47896D02*
X-11662Y48404D01*
X-14069Y42728D02*
X-14070Y42719D01*
X-14073Y42710D01*
X-14078Y42701D01*
X-14084Y42694D01*
X-14091Y42688D01*
X-14100Y42683D01*
X-14109Y42681D01*
X-14118Y42680D01*
X-14127Y42680D01*
X-14136Y42683D01*
X-14144Y42687D01*
X-14152Y42693D01*
X-14158Y42701D01*
X-14163Y42709D01*
X-14165Y42718D01*
X-14166Y42728D01*
X-14166Y42736D01*
X-14163Y42746D01*
X-14159Y42754D01*
X-14153Y42762D01*
X-14145Y42768D01*
X-14137Y42772D01*
X-14128Y42775D01*
X-14119Y42776D01*
X-14110Y42776D01*
X-14101Y42773D01*
X-14092Y42769D01*
X-14085Y42763D01*
X-14078Y42756D01*
X-14074Y42747D01*
X-14071Y42738D01*
X-14070Y42729D01*
X-14069Y42728D01*
X-14541Y42574D02*
X-14165Y42711D01*
X-14165Y42711D02*
X-13960Y42147D01*
X-13960Y42147D02*
X-14335Y42010D01*
X-14711Y41874D02*
X-15087Y41737D01*
X-15087Y41737D02*
X-15292Y42301D01*
X-15292Y42301D02*
X-14917Y42438D01*
X-14542Y43831D02*
X-14543Y43822D01*
X-14546Y43813D01*
X-14551Y43804D01*
X-14557Y43797D01*
X-14564Y43791D01*
X-14573Y43786D01*
X-14582Y43784D01*
X-14591Y43783D01*
X-14600Y43783D01*
X-14609Y43786D01*
X-14617Y43790D01*
X-14625Y43796D01*
X-14631Y43804D01*
X-14636Y43812D01*
X-14638Y43821D01*
X-14639Y43831D01*
X-14639Y43839D01*
X-14636Y43849D01*
X-14632Y43857D01*
X-14626Y43865D01*
X-14618Y43871D01*
X-14610Y43875D01*
X-14601Y43878D01*
X-14592Y43879D01*
X-14583Y43879D01*
X-14574Y43876D01*
X-14565Y43872D01*
X-14558Y43866D01*
X-14551Y43859D01*
X-14547Y43850D01*
X-14544Y43841D01*
X-14543Y43832D01*
X-14542Y43831D01*
X-15014Y43677D02*
X-14638Y43814D01*
X-14638Y43814D02*
X-14433Y43250D01*
X-14433Y43250D02*
X-14808Y43113D01*
X-15184Y42977D02*
X-15560Y42840D01*
X-15560Y42840D02*
X-15765Y43404D01*
X-15765Y43404D02*
X-15390Y43541D01*
X-01482Y50038D02*
X-01483Y50029D01*
X-01486Y50019D01*
X-01491Y50011D01*
X-01497Y50003D01*
X-01505Y49997D01*
X-01513Y49992D01*
X-01522Y49990D01*
X-01532Y49989D01*
X-01541Y49989D01*
X-01550Y49992D01*
X-01559Y49997D01*
X-01566Y50003D01*
X-01573Y50010D01*
X-01577Y50019D01*
X-01580Y50028D01*
X-01581Y50038D01*
X-01581Y50047D01*
X-01578Y50056D01*
X-01574Y50065D01*
X-01567Y50072D01*
X-01560Y50079D01*
X-01552Y50083D01*
X-01542Y50086D01*
X-01533Y50087D01*
X-01524Y50087D01*
X-01514Y50084D01*
X-01506Y50080D01*
X-01498Y50074D01*
X-01492Y50066D01*
X-01487Y50058D01*
X-01484Y50049D01*
X-01483Y50039D01*
X-01482Y50038D01*
X-01532Y50488D02*
X-01532Y50088D01*
X-01532Y50088D02*
X-02132Y50088D01*
X-02132Y50088D02*
X-02132Y50488D01*
X-02132Y50888D02*
X-02132Y51288D01*
X-02132Y51288D02*
X-01532Y51288D01*
X-01532Y51288D02*
X-01532Y50888D01*
X07687Y51137D02*
X07686Y51128D01*
X07683Y51118D01*
X07678Y51110D01*
X07672Y51102D01*
X07664Y51096D01*
X07656Y51091D01*
X07647Y51089D01*
X07637Y51088D01*
X07628Y51088D01*
X07619Y51091D01*
X07610Y51096D01*
X07603Y51102D01*
X07596Y51109D01*
X07592Y51118D01*
X07589Y51127D01*
X07588Y51137D01*
X07588Y51146D01*
X07591Y51155D01*
X07595Y51164D01*
X07602Y51171D01*
X07609Y51178D01*
X07617Y51182D01*
X07627Y51185D01*
X07636Y51186D01*
X07645Y51186D01*
X07655Y51183D01*
X07663Y51179D01*
X07671Y51173D01*
X07677Y51165D01*
X07682Y51157D01*
X07685Y51148D01*
X07686Y51138D01*
X07687Y51137D01*
X08087Y51137D02*
X07687Y51137D01*
X07687Y51137D02*
X07687Y51737D01*
X07687Y51737D02*
X08087Y51737D01*
X08487Y51737D02*
X08887Y51737D01*
X08887Y51737D02*
X08887Y51137D01*
X08887Y51137D02*
X08487Y51137D01*
X-02627Y48626D02*
X-02628Y48617D01*
X-02631Y48607D01*
X-02636Y48599D01*
X-02642Y48591D01*
X-02650Y48585D01*
X-02658Y48580D01*
X-02667Y48578D01*
X-02677Y48577D01*
X-02686Y48577D01*
X-02695Y48580D01*
X-02704Y48585D01*
X-02711Y48591D01*
X-02718Y48598D01*
X-02722Y48607D01*
X-02725Y48616D01*
X-02726Y48626D01*
X-02726Y48635D01*
X-02723Y48644D01*
X-02719Y48653D01*
X-02712Y48660D01*
X-02705Y48667D01*
X-02697Y48671D01*
X-02687Y48674D01*
X-02678Y48675D01*
X-02669Y48675D01*
X-02659Y48672D01*
X-02651Y48668D01*
X-02643Y48662D01*
X-02637Y48654D01*
X-02632Y48646D01*
X-02629Y48637D01*
X-02628Y48627D01*
X-02627Y48626D01*
X-03127Y48626D02*
X-02727Y48626D01*
X-02727Y48626D02*
X-02727Y48026D01*
X-02727Y48026D02*
X-03127Y48026D01*
X-03527Y48026D02*
X-03927Y48026D01*
X-03927Y48026D02*
X-03927Y48626D01*
X-03927Y48626D02*
X-03527Y48626D01*
X-14699Y39657D02*
X-14700Y39648D01*
X-14703Y39639D01*
X-14708Y39630D01*
X-14714Y39623D01*
X-14721Y39617D01*
X-14730Y39612D01*
X-14739Y39610D01*
X-14748Y39609D01*
X-14757Y39609D01*
X-14766Y39612D01*
X-14774Y39616D01*
X-14782Y39622D01*
X-14788Y39630D01*
X-14793Y39638D01*
X-14795Y39647D01*
X-14796Y39657D01*
X-14796Y39665D01*
X-14793Y39675D01*
X-14789Y39683D01*
X-14783Y39691D01*
X-14775Y39697D01*
X-14767Y39701D01*
X-14758Y39704D01*
X-14749Y39705D01*
X-14740Y39705D01*
X-14731Y39702D01*
X-14722Y39698D01*
X-14715Y39692D01*
X-14708Y39685D01*
X-14704Y39676D01*
X-14701Y39667D01*
X-14700Y39658D01*
X-14699Y39657D01*
X-15171Y39503D02*
X-14795Y39640D01*
X-14795Y39640D02*
X-14590Y39076D01*
X-14590Y39076D02*
X-14965Y38939D01*
X-15341Y38803D02*
X-15717Y38666D01*
X-15717Y38666D02*
X-15922Y39230D01*
X-15922Y39230D02*
X-15547Y39367D01*
X-17298Y45956D02*
X-17299Y45947D01*
X-17302Y45938D01*
X-17307Y45929D01*
X-17313Y45922D01*
X-17320Y45916D01*
X-17329Y45911D01*
X-17338Y45909D01*
X-17347Y45908D01*
X-17356Y45908D01*
X-17365Y45911D01*
X-17373Y45915D01*
X-17381Y45921D01*
X-17387Y45929D01*
X-17392Y45937D01*
X-17394Y45946D01*
X-17395Y45956D01*
X-17395Y45964D01*
X-17392Y45974D01*
X-17388Y45982D01*
X-17382Y45990D01*
X-17374Y45996D01*
X-17366Y46000D01*
X-17357Y46003D01*
X-17348Y46004D01*
X-17339Y46004D01*
X-17330Y46001D01*
X-17321Y45997D01*
X-17314Y45991D01*
X-17307Y45984D01*
X-17303Y45975D01*
X-17300Y45966D01*
X-17299Y45957D01*
X-17298Y45956D01*
X-17770Y45802D02*
X-17394Y45939D01*
X-17394Y45939D02*
X-17189Y45375D01*
X-17189Y45375D02*
X-17564Y45238D01*
X-17940Y45102D02*
X-18316Y44965D01*
X-18316Y44965D02*
X-18521Y45529D01*
X-18521Y45529D02*
X-18146Y45666D01*
G54D15*
X28065Y44798D02*
X26387Y42311D01*
X24729Y43430D02*
X26407Y45917D01*
X26407Y45917D02*
X28065Y44798D01*
X26387Y42311D02*
X24729Y43430D01*
G54D16*
X-14306Y38712D02*
X-14307Y38703D01*
X-14310Y38694D01*
X-14315Y38685D01*
X-14321Y38678D01*
X-14328Y38672D01*
X-14337Y38667D01*
X-14346Y38665D01*
X-14355Y38664D01*
X-14364Y38664D01*
X-14373Y38667D01*
X-14381Y38671D01*
X-14389Y38677D01*
X-14395Y38685D01*
X-14400Y38693D01*
X-14402Y38702D01*
X-14403Y38712D01*
X-14403Y38720D01*
X-14400Y38730D01*
X-14396Y38738D01*
X-14390Y38746D01*
X-14382Y38752D01*
X-14374Y38756D01*
X-14365Y38759D01*
X-14356Y38760D01*
X-14347Y38760D01*
X-14338Y38757D01*
X-14329Y38753D01*
X-14322Y38747D01*
X-14315Y38740D01*
X-14311Y38731D01*
X-14308Y38722D01*
X-14307Y38713D01*
X-14306Y38712D01*
X-14778Y38558D02*
X-14402Y38695D01*
X-14402Y38695D02*
X-14197Y38131D01*
X-14197Y38131D02*
X-14572Y37994D01*
X-14948Y37858D02*
X-15324Y37721D01*
X-15324Y37721D02*
X-15529Y38285D01*
X-15529Y38285D02*
X-15154Y38422D01*
G54D10*
X21832Y42907D02*
X22698Y42407D01*
X22698Y42407D02*
X21198Y39809D01*
X21198Y39809D02*
X20332Y40309D01*
X20332Y40309D02*
X21832Y42907D01*
X22198Y41541D02*
X21332Y42041D01*
G54D16*
X00993Y54296D02*
X00993Y54596D01*
X01065Y54596D01*
X01108Y54581D01*
X01136Y54553D01*
X01151Y54524D01*
X01165Y54467D01*
X01165Y54424D01*
X01151Y54367D01*
X01136Y54338D01*
X01108Y54310D01*
X01065Y54296D01*
X00993Y54296D01*
X01451Y54296D02*
X01279Y54296D01*
X01365Y54296D02*
X01365Y54596D01*
X01336Y54553D01*
X01308Y54524D01*
X01279Y54510D01*
X01622Y54467D02*
X01594Y54481D01*
X01579Y54496D01*
X01565Y54524D01*
X01565Y54538D01*
X01579Y54567D01*
X01594Y54581D01*
X01622Y54596D01*
X01679Y54596D01*
X01708Y54581D01*
X01722Y54567D01*
X01737Y54538D01*
X01737Y54524D01*
X01722Y54496D01*
X01708Y54481D01*
X01679Y54467D01*
X01622Y54467D01*
X01594Y54453D01*
X01579Y54438D01*
X01565Y54410D01*
X01565Y54353D01*
X01579Y54324D01*
X01594Y54310D01*
X01622Y54296D01*
X01679Y54296D01*
X01708Y54310D01*
X01722Y54324D01*
X01737Y54353D01*
X01737Y54410D01*
X01722Y54438D01*
X01708Y54453D01*
X01679Y54467D01*
X-18117Y42024D02*
X-18219Y42306D01*
X-18152Y42331D01*
X-18106Y42332D01*
X-18070Y42315D01*
X-18046Y42293D01*
X-18013Y42244D01*
X-17999Y42204D01*
X-17992Y42145D01*
X-17997Y42113D01*
X-18013Y42077D01*
X-18049Y42049D01*
X-18117Y42024D01*
X-17686Y42181D02*
X-17848Y42122D01*
X-17767Y42152D02*
X-17870Y42434D01*
X-17882Y42383D01*
X-17899Y42346D01*
X-17921Y42323D01*
X-17552Y42230D02*
X-17498Y42250D01*
X-17477Y42272D01*
X-17467Y42291D01*
X-17456Y42341D01*
X-17461Y42399D01*
X-17500Y42506D01*
X-17524Y42528D01*
X-17542Y42537D01*
X-17575Y42541D01*
X-17628Y42521D01*
X-17649Y42498D01*
X-17659Y42480D01*
X-17662Y42448D01*
X-17638Y42381D01*
X-17615Y42358D01*
X-17596Y42350D01*
X-17565Y42347D01*
X-17511Y42366D01*
X-17489Y42389D01*
X-17480Y42407D01*
X-17476Y42440D01*
X-17566Y40922D02*
X-17668Y41204D01*
X-17601Y41229D01*
X-17555Y41230D01*
X-17519Y41213D01*
X-17495Y41191D01*
X-17462Y41142D01*
X-17448Y41102D01*
X-17441Y41043D01*
X-17446Y41011D01*
X-17462Y40975D01*
X-17498Y40947D01*
X-17566Y40922D01*
X-17390Y41275D02*
X-17381Y41293D01*
X-17359Y41317D01*
X-17292Y41341D01*
X-17260Y41337D01*
X-17242Y41329D01*
X-17218Y41307D01*
X-17208Y41280D01*
X-17208Y41235D01*
X-17310Y41015D01*
X-17135Y41079D01*
X-17063Y41425D02*
X-17037Y41434D01*
X-17004Y41430D01*
X-16986Y41422D01*
X-16963Y41399D01*
X-16930Y41351D01*
X-16905Y41284D01*
X-16900Y41225D01*
X-16903Y41193D01*
X-16912Y41175D01*
X-16934Y41152D01*
X-16960Y41143D01*
X-16992Y41146D01*
X-17010Y41154D01*
X-17034Y41176D01*
X-17067Y41225D01*
X-17091Y41292D01*
X-17098Y41350D01*
X-17094Y41383D01*
X-17085Y41401D01*
X-17063Y41425D01*
X08237Y49768D02*
X08237Y50068D01*
X08309Y50068D01*
X08352Y50053D01*
X08380Y50025D01*
X08395Y49996D01*
X08409Y49939D01*
X08409Y49896D01*
X08395Y49839D01*
X08380Y49810D01*
X08352Y49782D01*
X08309Y49768D01*
X08237Y49768D01*
X08695Y49768D02*
X08523Y49768D01*
X08609Y49768D02*
X08609Y50068D01*
X08580Y50025D01*
X08552Y49996D01*
X08523Y49982D01*
X08795Y50068D02*
X08995Y50068D01*
X08866Y49768D01*
G54D15*
X-18007Y48298D02*
X-17639Y48454D01*
X-17933Y48123D02*
X-17564Y48279D01*
X-17843Y47912D01*
X-17475Y48069D01*
G54D19*
X-01962Y54647D02*
X-01808Y54647D01*
X-01993Y54555D02*
X-01885Y54879D01*
X-01777Y54555D01*
X-01515Y54879D02*
X-01669Y54879D01*
X-01684Y54725D01*
X-01669Y54740D01*
X-01638Y54755D01*
X-01561Y54755D01*
X-01530Y54740D01*
X-01515Y54725D01*
X-01499Y54694D01*
X-01499Y54617D01*
X-01515Y54586D01*
X-01530Y54570D01*
X-01561Y54555D01*
X-01638Y54555D01*
X-01669Y54570D01*
X-01684Y54586D01*
X-02987Y54672D02*
X-02833Y54672D01*
X-03018Y54580D02*
X-02910Y54904D01*
X-02802Y54580D01*
X-02555Y54796D02*
X-02555Y54580D01*
X-02632Y54919D02*
X-02709Y54688D01*
X-02509Y54688D01*
G54D15*
X02635Y48966D02*
X02282Y49320D01*
X02898Y49296D02*
X02902Y49265D01*
X02878Y49209D01*
X02851Y49182D01*
X02793Y49157D01*
X02733Y49164D01*
X02685Y49185D01*
X02605Y49239D01*
X02554Y49289D01*
X02500Y49370D01*
X02480Y49417D01*
X02473Y49478D01*
X02497Y49536D01*
X02524Y49562D01*
X02581Y49586D01*
X02612Y49582D01*
X03201Y49532D02*
X03039Y49370D01*
X03119Y49451D02*
X02766Y49804D01*
X02790Y49727D01*
X02796Y49666D01*
X02786Y49623D01*
G54D19*
X-05801Y45558D02*
X-05616Y45558D01*
X-05709Y45234D02*
X-05709Y45558D01*
X-05539Y45558D02*
X-05323Y45234D01*
X-05323Y45558D02*
X-05539Y45234D01*
X-05137Y45558D02*
X-05075Y45558D01*
X-05045Y45542D01*
X-05014Y45512D01*
X-04998Y45450D01*
X-04998Y45342D01*
X-05014Y45280D01*
X-05045Y45249D01*
X-05075Y45234D01*
X-05137Y45234D01*
X-05168Y45249D01*
X-05199Y45280D01*
X-05214Y45342D01*
X-05214Y45450D01*
X-05199Y45512D01*
X-05168Y45542D01*
X-05137Y45558D01*
X-04466Y45234D02*
X-04574Y45388D01*
X-04651Y45234D02*
X-04651Y45558D01*
X-04527Y45558D01*
X-04497Y45542D01*
X-04481Y45527D01*
X-04466Y45496D01*
X-04466Y45450D01*
X-04481Y45419D01*
X-04497Y45404D01*
X-04527Y45388D01*
X-04651Y45388D01*
X-04358Y45558D02*
X-04142Y45234D01*
X-04142Y45558D02*
X-04358Y45234D01*
X-04018Y45234D02*
X-04018Y45558D01*
X-03563Y45209D02*
X-03671Y45363D01*
X-03748Y45209D02*
X-03748Y45533D01*
X-03624Y45533D01*
X-03594Y45517D01*
X-03578Y45502D01*
X-03563Y45471D01*
X-03563Y45425D01*
X-03578Y45394D01*
X-03594Y45379D01*
X-03624Y45363D01*
X-03748Y45363D01*
X-03439Y45224D02*
X-03393Y45209D01*
X-03316Y45209D01*
X-03285Y45224D01*
X-03270Y45240D01*
X-03254Y45271D01*
X-03254Y45301D01*
X-03270Y45332D01*
X-03285Y45348D01*
X-03316Y45363D01*
X-03378Y45379D01*
X-03408Y45394D01*
X-03424Y45409D01*
X-03439Y45440D01*
X-03439Y45471D01*
X-03424Y45502D01*
X-03408Y45517D01*
X-03378Y45533D01*
X-03300Y45533D01*
X-03254Y45517D01*
X-03161Y45533D02*
X-02976Y45533D01*
X-03069Y45209D02*
X-03069Y45533D01*
X-02531Y45517D02*
X-02562Y45533D01*
X-02608Y45533D01*
X-02655Y45517D01*
X-02685Y45487D01*
X-02701Y45456D01*
X-02716Y45394D01*
X-02716Y45348D01*
X-02701Y45286D01*
X-02685Y45255D01*
X-02655Y45224D01*
X-02608Y45209D01*
X-02577Y45209D01*
X-02531Y45224D01*
X-02516Y45240D01*
X-02516Y45348D01*
X-02577Y45348D01*
X-02377Y45209D02*
X-02377Y45533D01*
X-02192Y45209D01*
X-02192Y45533D01*
X-02038Y45209D02*
X-02038Y45533D01*
X-01961Y45533D01*
X-01914Y45517D01*
X-01884Y45487D01*
X-01868Y45456D01*
X-01853Y45394D01*
X-01853Y45348D01*
X-01868Y45286D01*
X-01884Y45255D01*
X-01914Y45224D01*
X-01961Y45209D01*
X-02038Y45209D01*
X-01377Y45602D02*
X-01362Y45617D01*
X-01331Y45633D01*
X-01254Y45633D01*
X-01223Y45617D01*
X-01208Y45602D01*
X-01192Y45571D01*
X-01192Y45540D01*
X-01208Y45494D01*
X-01393Y45309D01*
X-01192Y45309D01*
X-00393Y45608D02*
X-00192Y45608D01*
X-00300Y45484D01*
X-00254Y45484D01*
X-00223Y45469D01*
X-00208Y45454D01*
X-00192Y45423D01*
X-00192Y45346D01*
X-00208Y45315D01*
X-00223Y45299D01*
X-00254Y45284D01*
X-00346Y45284D01*
X-00377Y45299D01*
X-00393Y45315D01*
X00727Y45500D02*
X00727Y45284D01*
X00650Y45623D02*
X00573Y45392D01*
X00773Y45392D01*
X01792Y45608D02*
X01638Y45608D01*
X01623Y45454D01*
X01638Y45469D01*
X01669Y45484D01*
X01746Y45484D01*
X01777Y45469D01*
X01792Y45454D01*
X01808Y45423D01*
X01808Y45346D01*
X01792Y45315D01*
X01777Y45299D01*
X01746Y45284D01*
X01669Y45284D01*
X01638Y45299D01*
X01623Y45315D01*
X02752Y45608D02*
X02690Y45608D01*
X02659Y45592D01*
X02644Y45577D01*
X02613Y45531D01*
X02598Y45469D01*
X02598Y45346D01*
X02613Y45315D01*
X02629Y45299D01*
X02659Y45284D01*
X02721Y45284D01*
X02752Y45299D01*
X02767Y45315D01*
X02783Y45346D01*
X02783Y45423D01*
X02767Y45454D01*
X02752Y45469D01*
X02721Y45484D01*
X02659Y45484D01*
X02629Y45469D01*
X02613Y45454D01*
X02598Y45423D01*
X03557Y45608D02*
X03773Y45608D01*
X03634Y45284D01*
X04659Y45469D02*
X04629Y45484D01*
X04613Y45500D01*
X04598Y45531D01*
X04598Y45546D01*
X04613Y45577D01*
X04629Y45592D01*
X04659Y45608D01*
X04721Y45608D01*
X04752Y45592D01*
X04767Y45577D01*
X04783Y45546D01*
X04783Y45531D01*
X04767Y45500D01*
X04752Y45484D01*
X04721Y45469D01*
X04659Y45469D01*
X04629Y45454D01*
X04613Y45438D01*
X04598Y45407D01*
X04598Y45346D01*
X04613Y45315D01*
X04629Y45299D01*
X04659Y45284D01*
X04721Y45284D01*
X04752Y45299D01*
X04767Y45315D01*
X04783Y45346D01*
X04783Y45407D01*
X04767Y45438D01*
X04752Y45454D01*
X04721Y45469D01*
X05679Y45309D02*
X05740Y45309D01*
X05771Y45324D01*
X05787Y45340D01*
X05817Y45386D01*
X05833Y45448D01*
X05833Y45571D01*
X05817Y45602D01*
X05802Y45617D01*
X05771Y45633D01*
X05709Y45633D01*
X05679Y45617D01*
X05663Y45602D01*
X05648Y45571D01*
X05648Y45494D01*
X05663Y45463D01*
X05679Y45448D01*
X05709Y45432D01*
X05771Y45432D01*
X05802Y45448D01*
X05817Y45463D01*
X05833Y45494D01*
X-05609Y52959D02*
X-05717Y53113D01*
X-05794Y52959D02*
X-05794Y53283D01*
X-05670Y53283D01*
X-05640Y53267D01*
X-05624Y53252D01*
X-05609Y53221D01*
X-05609Y53175D01*
X-05624Y53144D01*
X-05640Y53129D01*
X-05670Y53113D01*
X-05794Y53113D01*
X-05485Y53051D02*
X-05331Y53051D01*
X-05516Y52959D02*
X-05408Y53283D01*
X-05300Y52959D01*
X-05223Y53283D02*
X-05146Y52959D01*
X-05084Y53190D01*
X-05022Y52959D01*
X-04945Y53283D01*
X-04606Y53267D02*
X-04637Y53283D01*
X-04683Y53283D01*
X-04730Y53267D01*
X-04760Y53237D01*
X-04776Y53206D01*
X-04791Y53144D01*
X-04791Y53098D01*
X-04776Y53036D01*
X-04760Y53005D01*
X-04730Y52974D01*
X-04683Y52959D01*
X-04652Y52959D01*
X-04606Y52974D01*
X-04591Y52990D01*
X-04591Y53098D01*
X-04652Y53098D01*
X-04452Y52959D02*
X-04452Y53283D01*
X-04267Y52959D01*
X-04267Y53283D01*
X-04113Y52959D02*
X-04113Y53283D01*
X-04036Y53283D01*
X-03989Y53267D01*
X-03959Y53237D01*
X-03943Y53206D01*
X-03928Y53144D01*
X-03928Y53098D01*
X-03943Y53036D01*
X-03959Y53005D01*
X-03989Y52974D01*
X-04036Y52959D01*
X-04113Y52959D01*
X-02767Y53283D02*
X-02659Y52959D01*
X-02551Y53283D01*
X-02258Y52990D02*
X-02273Y52974D01*
X-02319Y52959D01*
X-02350Y52959D01*
X-02397Y52974D01*
X-02427Y53005D01*
X-02443Y53036D01*
X-02458Y53098D01*
X-02458Y53144D01*
X-02443Y53206D01*
X-02427Y53237D01*
X-02397Y53267D01*
X-02350Y53283D01*
X-02319Y53283D01*
X-02273Y53267D01*
X-02258Y53252D01*
X-01934Y52990D02*
X-01949Y52974D01*
X-01995Y52959D01*
X-02026Y52959D01*
X-02073Y52974D01*
X-02103Y53005D01*
X-02119Y53036D01*
X-02134Y53098D01*
X-02134Y53144D01*
X-02119Y53206D01*
X-02103Y53237D01*
X-02073Y53267D01*
X-02026Y53283D01*
X-01995Y53283D01*
X-01949Y53267D01*
X-01934Y53252D01*
X-01541Y53051D02*
X-01387Y53051D01*
X-01572Y52959D02*
X-01464Y53283D01*
X-01356Y52959D01*
X-01279Y53283D02*
X-01078Y53283D01*
X-01186Y53159D01*
X-01140Y53159D01*
X-01109Y53144D01*
X-01094Y53129D01*
X-01078Y53098D01*
X-01078Y53021D01*
X-01094Y52990D01*
X-01109Y52974D01*
X-01140Y52959D01*
X-01232Y52959D01*
X-01263Y52974D01*
X-01279Y52990D01*
X-00591Y53051D02*
X-00437Y53051D01*
X-00622Y52959D02*
X-00514Y53283D01*
X-00406Y52959D01*
X-00313Y53252D02*
X-00298Y53267D01*
X-00267Y53283D01*
X-00190Y53283D01*
X-00159Y53267D01*
X-00144Y53252D01*
X-00128Y53221D01*
X-00128Y53190D01*
X-00144Y53144D01*
X-00329Y52959D01*
X-00128Y52959D01*
X00459Y53076D02*
X00613Y53076D01*
X00428Y52984D02*
X00536Y53308D01*
X00644Y52984D01*
X00922Y52984D02*
X00737Y52984D01*
X00829Y52984D02*
X00829Y53308D01*
X00798Y53262D01*
X00768Y53231D01*
X00737Y53215D01*
X01459Y53076D02*
X01613Y53076D01*
X01428Y52984D02*
X01536Y53308D01*
X01644Y52984D01*
X01814Y53308D02*
X01845Y53308D01*
X01876Y53292D01*
X01891Y53277D01*
X01906Y53246D01*
X01922Y53184D01*
X01922Y53107D01*
X01906Y53046D01*
X01891Y53015D01*
X01876Y52999D01*
X01845Y52984D01*
X01814Y52984D01*
X01783Y52999D01*
X01768Y53015D01*
X01752Y53046D01*
X01737Y53107D01*
X01737Y53184D01*
X01752Y53246D01*
X01768Y53277D01*
X01783Y53292D01*
X01814Y53308D01*
X02628Y52959D02*
X02443Y52959D01*
X02535Y52959D02*
X02535Y53283D01*
X02504Y53237D01*
X02474Y53206D01*
X02443Y53190D01*
X02736Y53283D02*
X02937Y53283D01*
X02829Y53159D01*
X02875Y53159D01*
X02906Y53144D01*
X02921Y53129D01*
X02937Y53098D01*
X02937Y53021D01*
X02921Y52990D01*
X02906Y52974D01*
X02875Y52959D01*
X02783Y52959D01*
X02752Y52974D01*
X02736Y52990D01*
X03628Y52984D02*
X03443Y52984D01*
X03535Y52984D02*
X03535Y53308D01*
X03504Y53262D01*
X03474Y53231D01*
X03443Y53215D01*
X03752Y53277D02*
X03767Y53292D01*
X03798Y53308D01*
X03875Y53308D01*
X03906Y53292D01*
X03921Y53277D01*
X03937Y53246D01*
X03937Y53215D01*
X03921Y53169D01*
X03736Y52984D01*
X03937Y52984D01*
X04578Y52984D02*
X04393Y52984D01*
X04485Y52984D02*
X04485Y53308D01*
X04454Y53262D01*
X04424Y53231D01*
X04393Y53215D01*
X04887Y52984D02*
X04702Y52984D01*
X04794Y52984D02*
X04794Y53308D01*
X04763Y53262D01*
X04733Y53231D01*
X04702Y53215D01*
X-03538Y52959D02*
X-03646Y53113D01*
X-03723Y52959D02*
X-03723Y53283D01*
X-03599Y53283D01*
X-03569Y53267D01*
X-03553Y53252D01*
X-03538Y53221D01*
X-03538Y53175D01*
X-03553Y53144D01*
X-03569Y53129D01*
X-03599Y53113D01*
X-03723Y53113D01*
X-03414Y52974D02*
X-03368Y52959D01*
X-03291Y52959D01*
X-03260Y52974D01*
X-03245Y52990D01*
X-03229Y53021D01*
X-03229Y53051D01*
X-03245Y53082D01*
X-03260Y53098D01*
X-03291Y53113D01*
X-03353Y53129D01*
X-03383Y53144D01*
X-03399Y53159D01*
X-03414Y53190D01*
X-03414Y53221D01*
X-03399Y53252D01*
X-03383Y53267D01*
X-03353Y53283D01*
X-03275Y53283D01*
X-03229Y53267D01*
X-03136Y53283D02*
X-02951Y53283D01*
X-03044Y52959D02*
X-03044Y53283D01*
X05455Y52959D02*
X05270Y52959D01*
X05362Y52959D02*
X05362Y53283D01*
X05331Y53237D01*
X05301Y53206D01*
X05270Y53190D01*
X05656Y53283D02*
X05687Y53283D01*
X05718Y53267D01*
X05733Y53252D01*
X05748Y53221D01*
X05764Y53159D01*
X05764Y53082D01*
X05748Y53021D01*
X05733Y52990D01*
X05718Y52974D01*
X05687Y52959D01*
X05656Y52959D01*
X05625Y52974D01*
X05610Y52990D01*
X05594Y53021D01*
X05579Y53082D01*
X05579Y53159D01*
X05594Y53221D01*
X05610Y53252D01*
X05625Y53267D01*
X05656Y53283D01*
G54D16*
X17635Y47515D02*
X17635Y47686D01*
X17935Y47600D02*
X17635Y47600D01*
X17935Y47929D02*
X17935Y47786D01*
X17635Y47786D01*
X17907Y48201D02*
X17921Y48187D01*
X17935Y48144D01*
X17935Y48115D01*
X17921Y48072D01*
X17893Y48044D01*
X17864Y48029D01*
X17807Y48015D01*
X17764Y48015D01*
X17707Y48029D01*
X17678Y48044D01*
X17650Y48072D01*
X17635Y48115D01*
X17635Y48144D01*
X17650Y48187D01*
X17664Y48201D01*
X17635Y48472D02*
X17635Y48329D01*
X17778Y48315D01*
X17764Y48329D01*
X17750Y48358D01*
X17750Y48429D01*
X17764Y48458D01*
X17778Y48472D01*
X17807Y48487D01*
X17878Y48487D01*
X17907Y48472D01*
X17921Y48458D01*
X17935Y48429D01*
X17935Y48358D01*
X17921Y48329D01*
X17907Y48315D01*
X17935Y48630D02*
X17935Y48687D01*
X17921Y48715D01*
X17907Y48730D01*
X17864Y48758D01*
X17807Y48773D01*
X17693Y48773D01*
X17664Y48758D01*
X17650Y48744D01*
X17635Y48715D01*
X17635Y48658D01*
X17650Y48630D01*
X17664Y48615D01*
X17693Y48601D01*
X17764Y48601D01*
X17793Y48615D01*
X17807Y48630D01*
X17821Y48658D01*
X17821Y48715D01*
X17807Y48744D01*
X17793Y48758D01*
X17764Y48773D01*
X17735Y49030D02*
X17935Y49030D01*
X17621Y48959D02*
X17835Y48887D01*
X17835Y49073D01*
X17635Y49245D02*
X17635Y49273D01*
X17650Y49302D01*
X17664Y49316D01*
X17693Y49330D01*
X17750Y49345D01*
X17821Y49345D01*
X17878Y49330D01*
X17907Y49316D01*
X17921Y49302D01*
X17935Y49273D01*
X17935Y49245D01*
X17921Y49216D01*
X17907Y49202D01*
X17878Y49187D01*
X17821Y49173D01*
X17750Y49173D01*
X17693Y49187D01*
X17664Y49202D01*
X17650Y49216D01*
X17635Y49245D01*
G54D15*
X14482Y42560D02*
X14551Y42954D01*
X14653Y42549D02*
X14706Y42520D01*
X14801Y42503D01*
X14841Y42516D01*
X14863Y42531D01*
X14889Y42565D01*
X14895Y42603D01*
X14883Y42643D01*
X14868Y42666D01*
X14834Y42692D01*
X14761Y42724D01*
X14727Y42749D01*
X14712Y42771D01*
X14700Y42812D01*
X14706Y42849D01*
X14732Y42883D01*
X14754Y42899D01*
X14794Y42911D01*
X14889Y42894D01*
X14942Y42865D01*
X15044Y42461D02*
X15113Y42854D01*
X15264Y42828D01*
X15298Y42803D01*
X15314Y42781D01*
X15326Y42740D01*
X15316Y42684D01*
X15291Y42650D01*
X15269Y42634D01*
X15228Y42622D01*
X15077Y42649D01*
X15677Y42755D02*
X15601Y42769D01*
X15560Y42756D01*
X15538Y42741D01*
X15491Y42691D01*
X15459Y42620D01*
X15432Y42469D01*
X15444Y42429D01*
X15460Y42407D01*
X15494Y42381D01*
X15570Y42368D01*
X15611Y42380D01*
X15633Y42395D01*
X15658Y42429D01*
X15675Y42524D01*
X15662Y42565D01*
X15647Y42587D01*
X15613Y42612D01*
X15537Y42625D01*
X15496Y42613D01*
X15474Y42598D01*
X15449Y42564D01*
X15859Y42588D02*
X15790Y42194D01*
X15856Y42569D02*
X15897Y42581D01*
X15973Y42568D01*
X16007Y42543D01*
X16022Y42521D01*
X16034Y42480D01*
X16014Y42367D01*
X15989Y42332D01*
X15967Y42317D01*
X15926Y42305D01*
X15851Y42318D01*
X15816Y42344D01*
X16170Y42262D02*
X16216Y42525D01*
X16239Y42656D02*
X16217Y42641D01*
X16232Y42619D01*
X16254Y42634D01*
X16239Y42656D01*
X16232Y42619D01*
X16403Y42492D02*
X16357Y42229D01*
X16396Y42455D02*
X16418Y42470D01*
X16459Y42482D01*
X16516Y42472D01*
X16550Y42447D01*
X16563Y42406D01*
X16526Y42199D01*
X10863Y45841D02*
X10729Y46032D01*
X10634Y45841D02*
X10634Y46241D01*
X10787Y46241D01*
X10825Y46222D01*
X10844Y46203D01*
X10863Y46165D01*
X10863Y46108D01*
X10844Y46070D01*
X10825Y46051D01*
X10787Y46032D01*
X10634Y46032D01*
X11187Y45860D02*
X11149Y45841D01*
X11072Y45841D01*
X11034Y45860D01*
X11015Y45898D01*
X11015Y46051D01*
X11034Y46089D01*
X11072Y46108D01*
X11149Y46108D01*
X11187Y46089D01*
X11206Y46051D01*
X11206Y46013D01*
X11015Y45974D01*
X11358Y45860D02*
X11396Y45841D01*
X11472Y45841D01*
X11511Y45860D01*
X11530Y45898D01*
X11530Y45917D01*
X11511Y45955D01*
X11472Y45974D01*
X11415Y45974D01*
X11377Y45993D01*
X11358Y46032D01*
X11358Y46051D01*
X11377Y46089D01*
X11415Y46108D01*
X11472Y46108D01*
X11511Y46089D01*
X11854Y45860D02*
X11816Y45841D01*
X11739Y45841D01*
X11701Y45860D01*
X11682Y45898D01*
X11682Y46051D01*
X11701Y46089D01*
X11739Y46108D01*
X11816Y46108D01*
X11854Y46089D01*
X11873Y46051D01*
X11873Y46013D01*
X11682Y45974D01*
X11987Y46108D02*
X12139Y46108D01*
X12044Y46241D02*
X12044Y45898D01*
X12063Y45860D01*
X12101Y45841D01*
X12139Y45841D01*
G54D16*
X-03109Y49379D02*
X-03109Y49260D01*
X-03359Y49260D01*
X-03109Y49462D02*
X-03359Y49462D01*
X-03359Y49557D01*
X-03347Y49581D01*
X-03335Y49592D01*
X-03311Y49604D01*
X-03275Y49604D01*
X-03252Y49592D01*
X-03240Y49581D01*
X-03228Y49557D01*
X-03228Y49462D01*
X-03335Y49700D02*
X-03347Y49712D01*
X-03359Y49735D01*
X-03359Y49795D01*
X-03347Y49819D01*
X-03335Y49831D01*
X-03311Y49842D01*
X-03287Y49842D01*
X-03252Y49831D01*
X-03109Y49688D01*
X-03109Y49842D01*
X-03109Y49961D02*
X-03109Y50009D01*
X-03121Y50033D01*
X-03133Y50045D01*
X-03168Y50069D01*
X-03216Y50080D01*
X-03311Y50080D01*
X-03335Y50069D01*
X-03347Y50057D01*
X-03359Y50033D01*
X-03359Y49985D01*
X-03347Y49961D01*
X-03335Y49950D01*
X-03311Y49938D01*
X-03252Y49938D01*
X-03228Y49950D01*
X-03216Y49961D01*
X-03204Y49985D01*
X-03204Y50033D01*
X-03216Y50057D01*
X-03228Y50069D01*
X-03252Y50080D01*
X-03252Y50223D02*
X-03264Y50199D01*
X-03275Y50188D01*
X-03299Y50176D01*
X-03311Y50176D01*
X-03335Y50188D01*
X-03347Y50199D01*
X-03359Y50223D01*
X-03359Y50271D01*
X-03347Y50295D01*
X-03335Y50307D01*
X-03311Y50318D01*
X-03299Y50318D01*
X-03275Y50307D01*
X-03264Y50295D01*
X-03252Y50271D01*
X-03252Y50223D01*
X-03240Y50199D01*
X-03228Y50188D01*
X-03204Y50176D01*
X-03156Y50176D01*
X-03133Y50188D01*
X-03121Y50199D01*
X-03109Y50223D01*
X-03109Y50271D01*
X-03121Y50295D01*
X-03133Y50307D01*
X-03156Y50318D01*
X-03204Y50318D01*
X-03228Y50307D01*
X-03240Y50295D01*
X-03252Y50271D01*
X-03359Y50545D02*
X-03359Y50426D01*
X-03240Y50414D01*
X-03252Y50426D01*
X-03264Y50449D01*
X-03264Y50509D01*
X-03252Y50533D01*
X-03240Y50545D01*
X-03216Y50556D01*
X-03156Y50556D01*
X-03133Y50545D01*
X-03121Y50533D01*
X-03109Y50509D01*
X-03109Y50449D01*
X-03121Y50426D01*
X-03133Y50414D01*
G54D20*
X22593Y43744D02*
X22568Y43733D01*
X22508Y43734D01*
X22472Y43747D01*
X22424Y43785D01*
X22402Y43834D01*
X22397Y43876D01*
X22405Y43955D01*
X22425Y44008D01*
X22469Y44073D01*
X22500Y44102D01*
X22548Y44125D01*
X22609Y44123D01*
X22645Y44110D01*
X22692Y44073D01*
X22703Y44049D01*
X22993Y43842D02*
X22902Y43591D01*
X22955Y44018D02*
X22768Y43781D01*
X23001Y43697D01*
G54D15*
X21566Y45289D02*
X21722Y45718D01*
X21859Y45425D02*
X21430Y45581D01*
G54D20*
X-06313Y47512D02*
X-06294Y47493D01*
X-06275Y47436D01*
X-06275Y47398D01*
X-06294Y47340D01*
X-06332Y47302D01*
X-06370Y47283D01*
X-06447Y47264D01*
X-06504Y47264D01*
X-06580Y47283D01*
X-06618Y47302D01*
X-06656Y47340D01*
X-06675Y47398D01*
X-06675Y47436D01*
X-06656Y47493D01*
X-06637Y47512D01*
X-06275Y47893D02*
X-06275Y47664D01*
X-06275Y47778D02*
X-06675Y47778D01*
X-06618Y47740D01*
X-06580Y47702D01*
X-06561Y47664D01*
G54D15*
X-06666Y49611D02*
X-06209Y49611D01*
X-06438Y49382D02*
X-06438Y49839D01*
G54D16*
X20553Y42892D02*
X20434Y42809D01*
X20553Y42750D02*
X20303Y42750D01*
X20303Y42845D01*
X20315Y42869D01*
X20327Y42880D01*
X20351Y42892D01*
X20387Y42892D01*
X20410Y42880D01*
X20422Y42869D01*
X20434Y42845D01*
X20434Y42750D01*
X20553Y43130D02*
X20553Y42988D01*
X20553Y43059D02*
X20303Y43059D01*
X20339Y43035D01*
X20363Y43011D01*
X20375Y42988D01*
X18073Y42891D02*
X17954Y42808D01*
X18073Y42749D02*
X17823Y42749D01*
X17823Y42844D01*
X17835Y42868D01*
X17847Y42879D01*
X17871Y42891D01*
X17907Y42891D01*
X17930Y42879D01*
X17942Y42868D01*
X17954Y42844D01*
X17954Y42749D01*
X17847Y42987D02*
X17835Y42999D01*
X17823Y43022D01*
X17823Y43082D01*
X17835Y43106D01*
X17847Y43118D01*
X17871Y43129D01*
X17895Y43129D01*
X17930Y43118D01*
X18073Y42975D01*
X18073Y43129D01*
X00253Y54328D02*
X00170Y54447D01*
X00111Y54328D02*
X00111Y54578D01*
X00206Y54578D01*
X00230Y54566D01*
X00241Y54554D01*
X00253Y54530D01*
X00253Y54494D01*
X00241Y54471D01*
X00230Y54459D01*
X00206Y54447D01*
X00111Y54447D01*
X00468Y54494D02*
X00468Y54328D01*
X00408Y54590D02*
X00349Y54411D01*
X00503Y54411D01*
X-02247Y49110D02*
X-02366Y49027D01*
X-02247Y48968D02*
X-02497Y48968D01*
X-02497Y49063D01*
X-02485Y49087D01*
X-02473Y49098D01*
X-02449Y49110D01*
X-02413Y49110D01*
X-02390Y49098D01*
X-02378Y49087D01*
X-02366Y49063D01*
X-02366Y48968D01*
X-02497Y49337D02*
X-02497Y49218D01*
X-02378Y49206D01*
X-02390Y49218D01*
X-02402Y49241D01*
X-02402Y49301D01*
X-02390Y49325D01*
X-02378Y49337D01*
X-02354Y49348D01*
X-02294Y49348D01*
X-02271Y49337D01*
X-02259Y49325D01*
X-02247Y49301D01*
X-02247Y49241D01*
X-02259Y49218D01*
X-02271Y49206D01*
X06945Y49918D02*
X06862Y50037D01*
X06803Y49918D02*
X06803Y50168D01*
X06898Y50168D01*
X06922Y50156D01*
X06933Y50144D01*
X06945Y50120D01*
X06945Y50084D01*
X06933Y50061D01*
X06922Y50049D01*
X06898Y50037D01*
X06803Y50037D01*
X07029Y50168D02*
X07183Y50168D01*
X07100Y50073D01*
X07136Y50073D01*
X07160Y50061D01*
X07172Y50049D01*
X07183Y50025D01*
X07183Y49965D01*
X07172Y49942D01*
X07160Y49930D01*
X07136Y49918D01*
X07064Y49918D01*
X07041Y49930D01*
X07029Y49942D01*
G54D21*
X07881Y47070D02*
X08281Y46470D01*
X08281Y47070D02*
X07881Y46470D01*
X08823Y46470D02*
X08480Y46470D01*
X08652Y46470D02*
X08652Y47070D01*
X08595Y46984D01*
X08537Y46927D01*
X08480Y46899D01*
G54D16*
X-02265Y47616D02*
X-02253Y47604D01*
X-02241Y47569D01*
X-02241Y47545D01*
X-02253Y47509D01*
X-02277Y47485D01*
X-02300Y47474D01*
X-02348Y47462D01*
X-02384Y47462D01*
X-02431Y47474D01*
X-02455Y47485D01*
X-02479Y47509D01*
X-02491Y47545D01*
X-02491Y47569D01*
X-02479Y47604D01*
X-02467Y47616D01*
X-02384Y47759D02*
X-02396Y47735D01*
X-02407Y47724D01*
X-02431Y47712D01*
X-02443Y47712D01*
X-02467Y47724D01*
X-02479Y47735D01*
X-02491Y47759D01*
X-02491Y47807D01*
X-02479Y47831D01*
X-02467Y47843D01*
X-02443Y47854D01*
X-02431Y47854D01*
X-02407Y47843D01*
X-02396Y47831D01*
X-02384Y47807D01*
X-02384Y47759D01*
X-02372Y47735D01*
X-02360Y47724D01*
X-02336Y47712D01*
X-02288Y47712D01*
X-02265Y47724D01*
X-02253Y47735D01*
X-02241Y47759D01*
X-02241Y47807D01*
X-02253Y47831D01*
X-02265Y47843D01*
X-02288Y47854D01*
X-02336Y47854D01*
X-02360Y47843D01*
X-02372Y47831D01*
X-02384Y47807D01*
G54D22*
X02916Y54157D02*
X02929Y54457D01*
X03001Y54453D01*
X03043Y54437D01*
X03070Y54407D01*
X03084Y54378D01*
X03095Y54320D01*
X03093Y54277D01*
X03077Y54221D01*
X03061Y54193D01*
X03031Y54166D01*
X02988Y54154D01*
X02916Y54157D01*
X03266Y54313D02*
X03239Y54328D01*
X03224Y54344D01*
X03212Y54372D01*
X03212Y54386D01*
X03227Y54414D01*
X03243Y54428D01*
X03272Y54442D01*
X03329Y54439D01*
X03357Y54423D01*
X03370Y54408D01*
X03384Y54379D01*
X03383Y54365D01*
X03367Y54337D01*
X03353Y54323D01*
X03323Y54310D01*
X03266Y54313D01*
X03237Y54300D01*
X03222Y54286D01*
X03207Y54258D01*
X03204Y54201D01*
X03217Y54172D01*
X03231Y54157D01*
X03259Y54142D01*
X03316Y54139D01*
X03345Y54152D01*
X03360Y54165D01*
X03376Y54194D01*
X03378Y54251D01*
X03365Y54279D01*
X03351Y54295D01*
X03323Y54310D01*
X03075Y57154D02*
X02932Y57160D01*
X02945Y57459D01*
X03182Y57306D02*
X03282Y57302D01*
X03318Y57143D02*
X03175Y57149D01*
X03188Y57449D01*
X03331Y57443D01*
X03446Y57137D02*
X03459Y57437D01*
X03531Y57434D01*
X03573Y57417D01*
X03600Y57388D01*
X03613Y57358D01*
X03625Y57301D01*
X03623Y57258D01*
X03606Y57201D01*
X03590Y57173D01*
X03561Y57146D01*
X03517Y57134D01*
X03446Y57137D01*
G54D21*
X02495Y56685D02*
X02951Y56665D01*
G54D22*
X13170Y52690D02*
X13235Y52983D01*
X13306Y52967D01*
X13344Y52943D01*
X13366Y52910D01*
X13374Y52878D01*
X13375Y52820D01*
X13366Y52778D01*
X13340Y52725D01*
X13319Y52700D01*
X13286Y52679D01*
X13241Y52674D01*
X13170Y52690D01*
X13618Y52591D02*
X13450Y52628D01*
X13534Y52609D02*
X13599Y52902D01*
X13561Y52867D01*
X13527Y52844D01*
X13496Y52837D01*
X13897Y52529D02*
X13729Y52566D01*
X13813Y52547D02*
X13878Y52840D01*
X13840Y52805D01*
X13807Y52782D01*
X13775Y52775D01*
X13988Y55581D02*
X13849Y55612D01*
X13914Y55904D01*
X14120Y55712D02*
X14218Y55691D01*
X14226Y55528D02*
X14086Y55559D01*
X14151Y55852D01*
X14291Y55821D01*
X14351Y55500D02*
X14416Y55793D01*
X14486Y55778D01*
X14525Y55754D01*
X14546Y55720D01*
X14554Y55689D01*
X14556Y55630D01*
X14546Y55588D01*
X14520Y55535D01*
X14499Y55510D01*
X14466Y55489D01*
X14421Y55485D01*
X14351Y55500D01*
G54D21*
X13334Y55221D02*
X13781Y55122D01*
G54D22*
X16767Y51659D02*
X16845Y51948D01*
X16914Y51930D01*
X16952Y51904D01*
X16972Y51870D01*
X16979Y51838D01*
X16978Y51779D01*
X16966Y51738D01*
X16938Y51686D01*
X16916Y51662D01*
X16882Y51642D01*
X16837Y51640D01*
X16767Y51659D01*
X17210Y51540D02*
X17043Y51585D01*
X17126Y51562D02*
X17204Y51852D01*
X17165Y51818D01*
X17130Y51797D01*
X17099Y51791D01*
X17390Y51772D02*
X17407Y51782D01*
X17439Y51789D01*
X17507Y51771D01*
X17532Y51749D01*
X17541Y51732D01*
X17548Y51700D01*
X17541Y51673D01*
X17516Y51635D01*
X17306Y51514D01*
X17486Y51466D01*
X17709Y54512D02*
X17571Y54549D01*
X17649Y54839D01*
X17846Y54638D02*
X17943Y54612D01*
X17944Y54449D02*
X17806Y54486D01*
X17883Y54776D01*
X18022Y54739D01*
X18068Y54416D02*
X18145Y54706D01*
X18215Y54687D01*
X18252Y54662D01*
X18272Y54627D01*
X18279Y54595D01*
X18278Y54537D01*
X18267Y54495D01*
X18239Y54444D01*
X18217Y54420D01*
X18182Y54400D01*
X18137Y54397D01*
X18068Y54416D01*
G54D21*
X17041Y54180D02*
X17483Y54062D01*
G54D22*
X20107Y50471D02*
X20209Y50753D01*
X20277Y50728D01*
X20312Y50700D01*
X20329Y50664D01*
X20333Y50631D01*
X20327Y50573D01*
X20312Y50533D01*
X20279Y50484D01*
X20255Y50462D01*
X20219Y50445D01*
X20174Y50447D01*
X20107Y50471D01*
X20537Y50314D02*
X20375Y50373D01*
X20456Y50344D02*
X20559Y50626D01*
X20517Y50595D01*
X20481Y50578D01*
X20449Y50574D01*
X20734Y50562D02*
X20908Y50499D01*
X20775Y50425D01*
X20815Y50410D01*
X20837Y50387D01*
X20845Y50369D01*
X20850Y50337D01*
X20825Y50270D01*
X20801Y50248D01*
X20783Y50240D01*
X20751Y50237D01*
X20671Y50266D01*
X20649Y50289D01*
X20641Y50307D01*
X21294Y53232D02*
X21160Y53281D01*
X21262Y53563D01*
X21442Y53346D02*
X21536Y53311D01*
X21523Y53149D02*
X21388Y53198D01*
X21491Y53480D01*
X21625Y53431D01*
X21643Y53105D02*
X21745Y53387D01*
X21813Y53363D01*
X21848Y53334D01*
X21865Y53298D01*
X21869Y53266D01*
X21863Y53207D01*
X21848Y53167D01*
X21816Y53118D01*
X21792Y53096D01*
X21756Y53079D01*
X21711Y53081D01*
X21643Y53105D01*
G54D21*
X20599Y52960D02*
X21028Y52804D01*
G54D22*
X23274Y49055D02*
X23389Y49332D01*
X23456Y49305D01*
X23490Y49274D01*
X23505Y49238D01*
X23508Y49205D01*
X23499Y49147D01*
X23482Y49107D01*
X23448Y49060D01*
X23423Y49039D01*
X23386Y49024D01*
X23341Y49027D01*
X23274Y49055D01*
X23698Y48880D02*
X23539Y48945D01*
X23618Y48913D02*
X23733Y49190D01*
X23690Y49161D01*
X23653Y49145D01*
X23621Y49143D01*
X24012Y48966D02*
X23935Y48781D01*
X23990Y49099D02*
X23841Y48928D01*
X24013Y48857D01*
X24581Y51761D02*
X24449Y51816D01*
X24564Y52093D01*
X24734Y51868D02*
X24826Y51830D01*
X24806Y51668D02*
X24674Y51723D01*
X24789Y52000D01*
X24921Y51945D01*
X24924Y51619D02*
X25039Y51896D01*
X25105Y51869D01*
X25139Y51838D01*
X25155Y51802D01*
X25157Y51769D01*
X25148Y51711D01*
X25132Y51672D01*
X25097Y51624D01*
X25072Y51603D01*
X25036Y51588D01*
X24991Y51592D01*
X24924Y51619D01*
G54D21*
X23875Y51519D02*
X24297Y51344D01*
G54D22*
X26405Y47406D02*
X26532Y47677D01*
X26597Y47647D01*
X26630Y47615D01*
X26643Y47578D01*
X26645Y47545D01*
X26633Y47488D01*
X26615Y47449D01*
X26578Y47403D01*
X26552Y47383D01*
X26515Y47370D01*
X26470Y47375D01*
X26405Y47406D01*
X26820Y47212D02*
X26664Y47285D01*
X26742Y47248D02*
X26869Y47520D01*
X26825Y47494D01*
X26787Y47479D01*
X26755Y47479D01*
X27193Y47369D02*
X27063Y47430D01*
X26990Y47306D01*
X27008Y47313D01*
X27041Y47313D01*
X27105Y47283D01*
X27125Y47258D01*
X27132Y47240D01*
X27133Y47207D01*
X27103Y47143D01*
X27078Y47123D01*
X27059Y47116D01*
X27027Y47116D01*
X26962Y47146D01*
X26942Y47171D01*
X26935Y47189D01*
X27829Y50051D02*
X27699Y50111D01*
X27826Y50383D01*
X27986Y50151D02*
X28077Y50109D01*
X28049Y49948D02*
X27920Y50009D01*
X28046Y50281D01*
X28176Y50220D01*
X28165Y49894D02*
X28292Y50166D01*
X28357Y50136D01*
X28390Y50104D01*
X28403Y50067D01*
X28405Y50034D01*
X28393Y49976D01*
X28375Y49937D01*
X28338Y49892D01*
X28313Y49872D01*
X28275Y49858D01*
X28230Y49864D01*
X28165Y49894D01*
G54D21*
X27113Y49842D02*
X27528Y49649D01*
G54D22*
X-20678Y50150D02*
X-20805Y50421D01*
X-20740Y50452D01*
X-20694Y50456D01*
X-20657Y50443D01*
X-20631Y50423D01*
X-20594Y50377D01*
X-20576Y50338D01*
X-20565Y50281D01*
X-20566Y50248D01*
X-20580Y50211D01*
X-20613Y50180D01*
X-20678Y50150D01*
X-20263Y50343D02*
X-20419Y50270D01*
X-20341Y50307D02*
X-20468Y50579D01*
X-20476Y50527D01*
X-20489Y50489D01*
X-20509Y50464D01*
X-21920Y52880D02*
X-22049Y52819D01*
X-22176Y53091D01*
X-21896Y53064D02*
X-21805Y53107D01*
X-21700Y52982D02*
X-21829Y52922D01*
X-21956Y53194D01*
X-21826Y53254D01*
X-21584Y53037D02*
X-21710Y53308D01*
X-21645Y53339D01*
X-21600Y53343D01*
X-21563Y53330D01*
X-21537Y53310D01*
X-21500Y53264D01*
X-21482Y53225D01*
X-21470Y53168D01*
X-21472Y53135D01*
X-21485Y53098D01*
X-21518Y53067D01*
X-21584Y53037D01*
G54D21*
X-22219Y52197D02*
X-21805Y52390D01*
G54D22*
X-17587Y51372D02*
X-17690Y51654D01*
X-17622Y51679D01*
X-17577Y51680D01*
X-17541Y51663D01*
X-17517Y51641D01*
X-17484Y51592D01*
X-17469Y51551D01*
X-17463Y51493D01*
X-17467Y51461D01*
X-17484Y51425D01*
X-17520Y51397D01*
X-17587Y51372D01*
X-17411Y51725D02*
X-17403Y51743D01*
X-17381Y51767D01*
X-17314Y51791D01*
X-17282Y51787D01*
X-17264Y51779D01*
X-17240Y51756D01*
X-17230Y51730D01*
X-17229Y51685D01*
X-17332Y51465D01*
X-17157Y51529D01*
X-18586Y54202D02*
X-18720Y54153D01*
X-18823Y54435D01*
X-18546Y54384D02*
X-18452Y54418D01*
X-18358Y54285D02*
X-18492Y54236D01*
X-18595Y54518D01*
X-18460Y54567D01*
X-18237Y54329D02*
X-18340Y54611D01*
X-18272Y54636D01*
X-18227Y54636D01*
X-18191Y54620D01*
X-18167Y54597D01*
X-18134Y54549D01*
X-18120Y54508D01*
X-18113Y54450D01*
X-18117Y54418D01*
X-18134Y54382D01*
X-18170Y54354D01*
X-18237Y54329D01*
G54D21*
X-18943Y53547D02*
X-18514Y53703D01*
G54D22*
X-14382Y52373D02*
X-14460Y52662D01*
X-14390Y52681D01*
X-14345Y52678D01*
X-14311Y52658D01*
X-14289Y52634D01*
X-14260Y52582D01*
X-14249Y52541D01*
X-14248Y52482D01*
X-14255Y52450D01*
X-14275Y52416D01*
X-14313Y52391D01*
X-14382Y52373D01*
X-14197Y52733D02*
X-14017Y52781D01*
X-14084Y52644D01*
X-14044Y52655D01*
X-14012Y52649D01*
X-13995Y52639D01*
X-13973Y52615D01*
X-13954Y52546D01*
X-13961Y52514D01*
X-13971Y52497D01*
X-13996Y52476D01*
X-14078Y52454D01*
X-14109Y52460D01*
X-14127Y52470D01*
X-15130Y55278D02*
X-15268Y55241D01*
X-15346Y55531D01*
X-15074Y55456D02*
X-14978Y55482D01*
X-14895Y55341D02*
X-15034Y55304D01*
X-15111Y55594D01*
X-14973Y55631D01*
X-14772Y55374D02*
X-14849Y55664D01*
X-14780Y55683D01*
X-14734Y55679D01*
X-14700Y55659D01*
X-14678Y55635D01*
X-14650Y55584D01*
X-14639Y55542D01*
X-14638Y55484D01*
X-14644Y55452D01*
X-14664Y55417D01*
X-14702Y55393D01*
X-14772Y55374D01*
G54D21*
X-15544Y54656D02*
X-15102Y54775D01*
G54D22*
X-11179Y53188D02*
X-11231Y53484D01*
X-11160Y53496D01*
X-11115Y53489D01*
X-11082Y53466D01*
X-11063Y53440D01*
X-11039Y53387D01*
X-11031Y53344D01*
X-11035Y53286D01*
X-11045Y53254D01*
X-11068Y53222D01*
X-11108Y53201D01*
X-11179Y53188D01*
X-10791Y53460D02*
X-10756Y53263D01*
X-10881Y53560D02*
X-10914Y53336D01*
X-10731Y53369D01*
X-11670Y56147D02*
X-11811Y56122D01*
X-11863Y56418D01*
X-11599Y56319D02*
X-11500Y56337D01*
X-11431Y56190D02*
X-11572Y56165D01*
X-11624Y56460D01*
X-11483Y56485D01*
X-11305Y56212D02*
X-11357Y56507D01*
X-11286Y56520D01*
X-11241Y56512D01*
X-11208Y56490D01*
X-11189Y56464D01*
X-11165Y56410D01*
X-11158Y56368D01*
X-11161Y56309D01*
X-11171Y56278D01*
X-11194Y56246D01*
X-11234Y56224D01*
X-11305Y56212D01*
G54D21*
X-12136Y55565D02*
X-11686Y55644D01*
G54D22*
X-07248Y54053D02*
X-07284Y54351D01*
X-07213Y54359D01*
X-07168Y54350D01*
X-07137Y54325D01*
X-07119Y54298D01*
X-07098Y54244D01*
X-07092Y54201D01*
X-07099Y54143D01*
X-07111Y54112D01*
X-07135Y54081D01*
X-07176Y54062D01*
X-07248Y54053D01*
X-06844Y54405D02*
X-06986Y54387D01*
X-06983Y54244D01*
X-06971Y54259D01*
X-06944Y54277D01*
X-06873Y54285D01*
X-06843Y54275D01*
X-06827Y54263D01*
X-06809Y54236D01*
X-06800Y54165D01*
X-06811Y54135D01*
X-06824Y54119D01*
X-06851Y54102D01*
X-06921Y54093D01*
X-06952Y54103D01*
X-06967Y54115D01*
X-07585Y57034D02*
X-07727Y57017D01*
X-07763Y57315D01*
X-07505Y57202D02*
X-07405Y57215D01*
X-07344Y57064D02*
X-07486Y57047D01*
X-07522Y57344D01*
X-07380Y57362D01*
X-07217Y57080D02*
X-07253Y57377D01*
X-07182Y57386D01*
X-07137Y57376D01*
X-07106Y57352D01*
X-07088Y57325D01*
X-07067Y57270D01*
X-07061Y57228D01*
X-07068Y57169D01*
X-07080Y57139D01*
X-07104Y57108D01*
X-07145Y57088D01*
X-07217Y57080D01*
G54D21*
X-08081Y56476D02*
X-07627Y56532D01*
G54D22*
X-04148Y54098D02*
X-04161Y54398D01*
X-04089Y54401D01*
X-04045Y54388D01*
X-04016Y54361D01*
X-04000Y54333D01*
X-03983Y54277D01*
X-03981Y54234D01*
X-03993Y54176D01*
X-04006Y54147D01*
X-04033Y54117D01*
X-04076Y54102D01*
X-04148Y54098D01*
X-03732Y54417D02*
X-03789Y54414D01*
X-03817Y54398D01*
X-03831Y54384D01*
X-03858Y54339D01*
X-03869Y54282D01*
X-03864Y54168D01*
X-03849Y54139D01*
X-03833Y54126D01*
X-03805Y54113D01*
X-03748Y54116D01*
X-03720Y54131D01*
X-03706Y54146D01*
X-03692Y54175D01*
X-03696Y54246D01*
X-03712Y54275D01*
X-03726Y54288D01*
X-03756Y54301D01*
X-03813Y54298D01*
X-03840Y54283D01*
X-03855Y54268D01*
X-03867Y54239D01*
X-04249Y57098D02*
X-04391Y57091D01*
X-04404Y57391D01*
X-04155Y57259D02*
X-04056Y57263D01*
X-04006Y57108D02*
X-04149Y57102D01*
X-04162Y57402D01*
X-04019Y57408D01*
X-03878Y57114D02*
X-03891Y57414D01*
X-03819Y57417D01*
X-03775Y57404D01*
X-03746Y57377D01*
X-03730Y57349D01*
X-03714Y57292D01*
X-03712Y57249D01*
X-03723Y57192D01*
X-03737Y57162D01*
X-03764Y57133D01*
X-03806Y57117D01*
X-03878Y57114D01*
G54D21*
X-04787Y56580D02*
X-04331Y56600D01*
G54D22*
X10049Y53368D02*
X10101Y53664D01*
X10172Y53651D01*
X10211Y53629D01*
X10234Y53596D01*
X10244Y53565D01*
X10248Y53507D01*
X10240Y53464D01*
X10216Y53411D01*
X10197Y53385D01*
X10164Y53362D01*
X10119Y53356D01*
X10049Y53368D01*
X10500Y53289D02*
X10330Y53319D01*
X10415Y53304D02*
X10467Y53599D01*
X10431Y53562D01*
X10398Y53538D01*
X10367Y53529D01*
X10735Y53552D02*
X10762Y53547D01*
X10788Y53527D01*
X10800Y53511D01*
X10808Y53480D01*
X10813Y53421D01*
X10801Y53351D01*
X10776Y53298D01*
X10758Y53272D01*
X10741Y53260D01*
X10710Y53252D01*
X10683Y53256D01*
X10657Y53275D01*
X10645Y53291D01*
X10636Y53323D01*
X10632Y53381D01*
X10644Y53451D01*
X10668Y53505D01*
X10687Y53531D01*
X10704Y53542D01*
X10735Y53552D01*
X10738Y56292D02*
X10597Y56317D01*
X10649Y56613D01*
X10864Y56430D02*
X10962Y56412D01*
X10977Y56250D02*
X10836Y56275D01*
X10888Y56570D01*
X11029Y56546D01*
X11103Y56228D02*
X11155Y56523D01*
X11226Y56511D01*
X11266Y56489D01*
X11289Y56456D01*
X11298Y56425D01*
X11302Y56366D01*
X11295Y56324D01*
X11271Y56270D01*
X11251Y56244D01*
X11219Y56222D01*
X11174Y56215D01*
X11103Y56228D01*
G54D21*
X10101Y55904D02*
X10551Y55824D01*
G54D22*
X06162Y53914D02*
X06201Y54211D01*
X06273Y54202D01*
X06313Y54182D01*
X06337Y54150D01*
X06349Y54119D01*
X06355Y54061D01*
X06349Y54018D01*
X06328Y53964D01*
X06309Y53937D01*
X06278Y53913D01*
X06233Y53905D01*
X06162Y53914D01*
X06474Y53873D02*
X06531Y53865D01*
X06561Y53876D01*
X06577Y53888D01*
X06611Y53927D01*
X06633Y53981D01*
X06648Y54094D01*
X06637Y54125D01*
X06625Y54141D01*
X06598Y54159D01*
X06541Y54167D01*
X06512Y54155D01*
X06495Y54144D01*
X06477Y54117D01*
X06468Y54046D01*
X06478Y54016D01*
X06491Y54000D01*
X06517Y53982D01*
X06574Y53975D01*
X06604Y53985D01*
X06620Y53997D01*
X06639Y54024D01*
X06583Y56884D02*
X06441Y56903D01*
X06480Y57200D01*
X06702Y57027D02*
X06802Y57014D01*
X06824Y56853D02*
X06682Y56871D01*
X06721Y57169D01*
X06863Y57150D01*
X06951Y56836D02*
X06990Y57133D01*
X07061Y57124D01*
X07102Y57103D01*
X07126Y57072D01*
X07137Y57041D01*
X07144Y56983D01*
X07138Y56940D01*
X07117Y56886D01*
X07098Y56859D01*
X07067Y56835D01*
X07022Y56826D01*
X06951Y56836D01*
G54D21*
X05963Y56469D02*
X06416Y56409D01*
G54D22*
X-00636Y54225D02*
X-00636Y54525D01*
X-00564Y54525D01*
X-00521Y54510D01*
X-00493Y54482D01*
X-00478Y54453D01*
X-00464Y54396D01*
X-00464Y54353D01*
X-00478Y54296D01*
X-00493Y54267D01*
X-00521Y54239D01*
X-00564Y54225D01*
X-00636Y54225D01*
X-00364Y54525D02*
X-00164Y54525D01*
X-00293Y54225D01*
X-00607Y57225D02*
X-00750Y57225D01*
X-00750Y57525D01*
X-00507Y57382D02*
X-00407Y57382D01*
X-00364Y57225D02*
X-00507Y57225D01*
X-00507Y57525D01*
X-00364Y57525D01*
X-00236Y57225D02*
X-00236Y57525D01*
X-00164Y57525D01*
X-00121Y57510D01*
X-00093Y57482D01*
X-00078Y57453D01*
X-00064Y57396D01*
X-00064Y57353D01*
X-00078Y57296D01*
X-00093Y57267D01*
X-00121Y57239D01*
X-00164Y57225D01*
X-00236Y57225D01*
G54D21*
X-01167Y56732D02*
X-00710Y56732D01*
G54D22*
X29068Y45865D02*
X29222Y46122D01*
X29284Y46085D01*
X29313Y46050D01*
X29323Y46012D01*
X29321Y45979D01*
X29303Y45923D01*
X29281Y45886D01*
X29240Y45845D01*
X29212Y45828D01*
X29174Y45818D01*
X29130Y45828D01*
X29068Y45865D01*
X29460Y45629D02*
X29313Y45718D01*
X29387Y45674D02*
X29541Y45931D01*
X29494Y45909D01*
X29455Y45898D01*
X29423Y45901D01*
X29835Y45754D02*
X29786Y45784D01*
X29754Y45786D01*
X29735Y45781D01*
X29688Y45759D01*
X29646Y45717D01*
X29587Y45620D01*
X29585Y45587D01*
X29590Y45568D01*
X29607Y45541D01*
X29656Y45512D01*
X29688Y45509D01*
X29707Y45514D01*
X29735Y45531D01*
X29771Y45592D01*
X29774Y45624D01*
X29769Y45644D01*
X29751Y45671D01*
X29702Y45700D01*
X29671Y45702D01*
X29651Y45698D01*
X29624Y45680D01*
X30761Y48349D02*
X30639Y48422D01*
X30793Y48679D01*
X30928Y48432D02*
X31014Y48380D01*
X30970Y48224D02*
X30847Y48297D01*
X31001Y48554D01*
X31124Y48481D01*
X31079Y48158D02*
X31234Y48415D01*
X31295Y48378D01*
X31325Y48343D01*
X31334Y48304D01*
X31332Y48272D01*
X31315Y48216D01*
X31293Y48179D01*
X31251Y48137D01*
X31223Y48120D01*
X31185Y48110D01*
X31141Y48121D01*
X31079Y48158D01*
G54D21*
X30027Y48214D02*
X30419Y47979D01*
G54D16*
X-12661Y46330D02*
X-12896Y46271D01*
X-12921Y46249D01*
X-12931Y46232D01*
X-12938Y46201D01*
X-12924Y46145D01*
X-12904Y46122D01*
X-12886Y46110D01*
X-12855Y46104D01*
X-12619Y46163D01*
X-12616Y46031D02*
X-12599Y46021D01*
X-12578Y45997D01*
X-12561Y45928D01*
X-12568Y45896D01*
X-12578Y45879D01*
X-12603Y45857D01*
X-12630Y45851D01*
X-12675Y45855D01*
X-12883Y45979D01*
X-12838Y45799D01*
X-12242Y47067D02*
X-12266Y47164D01*
X-12418Y47126D02*
X-12127Y47198D01*
X-12093Y47060D01*
X-12075Y46990D02*
X-12034Y46824D01*
X-12346Y46835D02*
X-12055Y46907D01*
X-12041Y46733D02*
X-12024Y46723D01*
X-12003Y46699D01*
X-11986Y46630D01*
X-11993Y46598D01*
X-12003Y46581D01*
X-12028Y46559D01*
X-12055Y46553D01*
X-12100Y46557D01*
X-12308Y46681D01*
X-12263Y46501D01*
X-11947Y46477D02*
X-11902Y46296D01*
X-12038Y46365D01*
X-12028Y46324D01*
X-12034Y46293D01*
X-12045Y46276D01*
X-12069Y46254D01*
X-12138Y46237D01*
X-12170Y46245D01*
X-12187Y46255D01*
X-12207Y46280D01*
X-12228Y46362D01*
X-12221Y46394D01*
X-12211Y46411D01*
X-11903Y46178D02*
X-11886Y46168D01*
X-11864Y46144D01*
X-11847Y46075D01*
X-11855Y46043D01*
X-11865Y46026D01*
X-11889Y46004D01*
X-11917Y45998D01*
X-11962Y46002D01*
X-12169Y46126D01*
X-12124Y45946D01*
X-12052Y45655D02*
X-11938Y45786D01*
X-12093Y45822D02*
X-11802Y45894D01*
X-11774Y45783D01*
X-11782Y45752D01*
X-11792Y45734D01*
X-11817Y45713D01*
X-11858Y45703D01*
X-11889Y45710D01*
X-11906Y45721D01*
X-11928Y45745D01*
X-11955Y45856D01*
X-11986Y45392D02*
X-12021Y45531D01*
X-11730Y45603D01*
X-14592Y41406D02*
X-14711Y41489D01*
X-14725Y41357D02*
X-14811Y41592D01*
X-14722Y41625D01*
X-14695Y41622D01*
X-14680Y41614D01*
X-14661Y41596D01*
X-14649Y41562D01*
X-14652Y41536D01*
X-14658Y41521D01*
X-14677Y41501D01*
X-14766Y41469D01*
X-14598Y41669D02*
X-14443Y41726D01*
X-14458Y41455D01*
X-14198Y43415D02*
X-14317Y43498D01*
X-14331Y43366D02*
X-14417Y43601D01*
X-14328Y43634D01*
X-14301Y43631D01*
X-14286Y43623D01*
X-14267Y43605D01*
X-14255Y43571D01*
X-14258Y43545D01*
X-14264Y43530D01*
X-14283Y43510D01*
X-14372Y43478D01*
X-14081Y43723D02*
X-14126Y43707D01*
X-14145Y43687D01*
X-14152Y43672D01*
X-14161Y43630D01*
X-14157Y43582D01*
X-14124Y43492D01*
X-14105Y43474D01*
X-14090Y43467D01*
X-14064Y43464D01*
X-14018Y43480D01*
X-14000Y43500D01*
X-13993Y43515D01*
X-13990Y43540D01*
X-14011Y43597D01*
X-14029Y43615D01*
X-14045Y43623D01*
X-14071Y43626D01*
X-14117Y43609D01*
X-14135Y43590D01*
X-14141Y43575D01*
X-14144Y43548D01*
X-02266Y50686D02*
X-02254Y50674D01*
X-02242Y50639D01*
X-02242Y50615D01*
X-02254Y50579D01*
X-02278Y50555D01*
X-02301Y50544D01*
X-02349Y50532D01*
X-02385Y50532D01*
X-02432Y50544D01*
X-02456Y50555D01*
X-02480Y50579D01*
X-02492Y50615D01*
X-02492Y50639D01*
X-02480Y50674D01*
X-02468Y50686D01*
X-02492Y50913D02*
X-02492Y50794D01*
X-02373Y50782D01*
X-02385Y50794D01*
X-02397Y50817D01*
X-02397Y50877D01*
X-02385Y50901D01*
X-02373Y50913D01*
X-02349Y50924D01*
X-02289Y50924D01*
X-02266Y50913D01*
X-02254Y50901D01*
X-02242Y50877D01*
X-02242Y50817D01*
X-02254Y50794D01*
X-02266Y50782D01*
X08273Y50775D02*
X08261Y50763D01*
X08226Y50751D01*
X08202Y50751D01*
X08166Y50763D01*
X08142Y50787D01*
X08131Y50810D01*
X08119Y50858D01*
X08119Y50894D01*
X08131Y50941D01*
X08142Y50965D01*
X08166Y50989D01*
X08202Y51001D01*
X08226Y51001D01*
X08261Y50989D01*
X08273Y50977D01*
X08369Y50977D02*
X08381Y50989D01*
X08404Y51001D01*
X08464Y51001D01*
X08488Y50989D01*
X08500Y50977D01*
X08511Y50953D01*
X08511Y50929D01*
X08500Y50894D01*
X08357Y50751D01*
X08511Y50751D01*
X-03645Y47620D02*
X-03657Y47608D01*
X-03692Y47596D01*
X-03716Y47596D01*
X-03752Y47608D01*
X-03776Y47632D01*
X-03787Y47655D01*
X-03799Y47703D01*
X-03799Y47739D01*
X-03787Y47786D01*
X-03776Y47810D01*
X-03752Y47834D01*
X-03716Y47846D01*
X-03692Y47846D01*
X-03657Y47834D01*
X-03645Y47822D01*
X-03561Y47846D02*
X-03407Y47846D01*
X-03490Y47751D01*
X-03454Y47751D01*
X-03430Y47739D01*
X-03418Y47727D01*
X-03407Y47703D01*
X-03407Y47643D01*
X-03418Y47620D01*
X-03430Y47608D01*
X-03454Y47596D01*
X-03526Y47596D01*
X-03549Y47608D01*
X-03561Y47620D01*
X-16174Y38711D02*
X-16181Y38696D01*
X-16210Y38673D01*
X-16233Y38664D01*
X-16271Y38663D01*
X-16301Y38678D01*
X-16320Y38696D01*
X-16347Y38737D01*
X-16360Y38770D01*
X-16364Y38819D01*
X-16362Y38845D01*
X-16348Y38876D01*
X-16318Y38899D01*
X-16296Y38908D01*
X-16259Y38908D01*
X-16243Y38901D01*
X-16172Y38952D02*
X-16017Y39009D01*
X-16032Y38738D01*
X-18734Y45011D02*
X-18741Y44996D01*
X-18770Y44973D01*
X-18793Y44964D01*
X-18831Y44963D01*
X-18861Y44978D01*
X-18880Y44996D01*
X-18907Y45037D01*
X-18920Y45070D01*
X-18924Y45119D01*
X-18922Y45145D01*
X-18908Y45176D01*
X-18878Y45199D01*
X-18856Y45208D01*
X-18819Y45208D01*
X-18803Y45201D01*
X-18609Y45297D02*
X-18654Y45281D01*
X-18673Y45261D01*
X-18680Y45246D01*
X-18689Y45204D01*
X-18685Y45156D01*
X-18652Y45066D01*
X-18633Y45048D01*
X-18618Y45041D01*
X-18592Y45038D01*
X-18546Y45054D01*
X-18528Y45074D01*
X-18521Y45089D01*
X-18518Y45114D01*
X-18539Y45171D01*
X-18557Y45189D01*
X-18573Y45197D01*
X-18599Y45200D01*
X-18645Y45183D01*
X-18663Y45164D01*
X-18669Y45149D01*
X-18672Y45122D01*
G54D15*
X24732Y44754D02*
X24775Y44818D01*
X24812Y44839D01*
X24865Y44849D01*
X24938Y44823D01*
X25050Y44748D01*
X25102Y44690D01*
X25112Y44637D01*
X25107Y44595D01*
X25064Y44531D01*
X25027Y44510D01*
X24974Y44500D01*
X24900Y44526D01*
X24789Y44601D01*
X24737Y44660D01*
X24727Y44712D01*
X24732Y44754D01*
X24924Y45039D02*
X25192Y44858D01*
X25235Y44852D01*
X25261Y44857D01*
X25298Y44878D01*
X25341Y44942D01*
X25346Y44984D01*
X25341Y45011D01*
X25320Y45048D01*
X25052Y45229D01*
X25126Y45339D02*
X25254Y45529D01*
X25522Y45210D02*
X25190Y45433D01*
G54D16*
X-15820Y37767D02*
X-15827Y37752D01*
X-15856Y37729D01*
X-15879Y37720D01*
X-15917Y37719D01*
X-15947Y37734D01*
X-15966Y37752D01*
X-15993Y37793D01*
X-16006Y37826D01*
X-16010Y37875D01*
X-16008Y37901D01*
X-15994Y37932D01*
X-15964Y37955D01*
X-15942Y37964D01*
X-15905Y37964D01*
X-15889Y37957D01*
X-15700Y37785D02*
X-15655Y37802D01*
X-15637Y37821D01*
X-15629Y37837D01*
X-15619Y37878D01*
X-15625Y37927D01*
X-15657Y38016D01*
X-15676Y38035D01*
X-15691Y38042D01*
X-15718Y38045D01*
X-15763Y38029D01*
X-15782Y38009D01*
X-15788Y37994D01*
X-15791Y37967D01*
X-15771Y37912D01*
X-15751Y37893D01*
X-15737Y37886D01*
X-15710Y37883D01*
X-15665Y37899D01*
X-15646Y37919D01*
X-15639Y37934D01*
X-15637Y37961D01*
G54D10*
X21465Y39247D02*
X21232Y39226D01*
X21350Y39049D02*
X21004Y39249D01*
X21080Y39381D01*
X21116Y39404D01*
X21142Y39411D01*
X21184Y39409D01*
X21234Y39380D01*
X21257Y39345D01*
X21264Y39319D01*
X21261Y39277D01*
X21185Y39144D01*
X21636Y39544D02*
X21454Y39649D01*
X21412Y39651D01*
X21377Y39628D01*
X21338Y39561D01*
X21336Y39519D01*
X21620Y39553D02*
X21617Y39511D01*
X21569Y39428D01*
X21534Y39404D01*
X21491Y39407D01*
X21459Y39426D01*
X21435Y39461D01*
X21438Y39504D01*
X21486Y39587D01*
X21487Y39630D01*
X21500Y39842D02*
X21731Y39708D01*
X21533Y39823D02*
X21526Y39849D01*
X21529Y39891D01*
X21558Y39942D01*
X21593Y39965D01*
X21635Y39962D01*
X21817Y39857D01*
X21767Y40304D02*
X22048Y40142D01*
X22071Y40107D01*
X22078Y40081D01*
X22075Y40038D01*
X22046Y39988D01*
X22011Y39965D01*
X21982Y40180D02*
X21979Y40138D01*
X21941Y40071D01*
X21905Y40048D01*
X21879Y40041D01*
X21837Y40043D01*
X21737Y40101D01*
X21714Y40136D01*
X21707Y40162D01*
X21710Y40205D01*
X21748Y40271D01*
X21784Y40295D01*
X22153Y40477D02*
X22151Y40435D01*
X22112Y40368D01*
X22077Y40345D01*
X22034Y40347D01*
X21902Y40424D01*
X21879Y40459D01*
X21881Y40502D01*
X21920Y40569D01*
X21955Y40592D01*
X21997Y40589D01*
X22030Y40570D01*
X21969Y40385D01*
X22391Y40890D02*
X22436Y40930D01*
X22484Y41013D01*
X22487Y41055D01*
X22480Y41081D01*
X22456Y41117D01*
X22424Y41136D01*
X22381Y41138D01*
X22354Y41132D01*
X22319Y41108D01*
X22264Y41051D01*
X22228Y41028D01*
X22203Y41021D01*
X22160Y41023D01*
X22127Y41042D01*
X22104Y41078D01*
X22097Y41104D01*
X22099Y41146D01*
X22147Y41229D01*
X22192Y41269D01*
X22668Y41369D02*
X22665Y41326D01*
X22627Y41260D01*
X22591Y41236D01*
X22549Y41239D01*
X22416Y41315D01*
X22393Y41351D01*
X22396Y41393D01*
X22434Y41460D01*
X22470Y41483D01*
X22512Y41481D01*
X22545Y41462D01*
X22483Y41277D01*
X22548Y41657D02*
X22779Y41524D01*
X22581Y41638D02*
X22574Y41664D01*
X22577Y41707D01*
X22606Y41757D01*
X22641Y41780D01*
X22683Y41778D01*
X22865Y41673D01*
X22934Y41830D02*
X22970Y41854D01*
X23008Y41919D01*
X23011Y41963D01*
X22987Y41998D01*
X22971Y42008D01*
X22929Y42010D01*
X22893Y41986D01*
X22864Y41937D01*
X22829Y41913D01*
X22785Y41916D01*
X22769Y41926D01*
X22746Y41961D01*
X22748Y42004D01*
X22777Y42053D01*
X22813Y42077D01*
X23151Y42167D02*
X23115Y42144D01*
X23089Y42137D01*
X23047Y42139D01*
X22947Y42197D01*
X22924Y42232D01*
X22917Y42258D01*
X22920Y42301D01*
X22949Y42351D01*
X22984Y42374D01*
X23010Y42381D01*
X23052Y42379D01*
X23152Y42321D01*
X23175Y42286D01*
X23182Y42260D01*
X23180Y42217D01*
X23151Y42167D01*
X23303Y42431D02*
X23072Y42565D01*
X23138Y42527D02*
X23114Y42562D01*
X23108Y42588D01*
X23110Y42631D01*
X23130Y42664D01*
M02*
