M48
;DRILL file {Pcbnew (2011-nov-30)-testing} date Mon 09 Apr 2012 08:57:22 PM EDT
;FORMAT={-:-/ absolute / inch / decimal}
FMAT,2
INCH,TZ
T1C0.025
T2C0.031
T3C0.032
T4C0.040
T5C0.043
T6C0.075
T7C0.165
%
G90
G05
M72
T1
X-2.028Y5.301
X-1.778Y4.876
X-1.698Y5.421
X-1.598Y4.546
X-1.463Y4.751
X-1.348Y4.771
X-1.338Y5.491
X-1.313Y4.811
X-1.213Y4.556
X-1.168Y4.446
X-1.138Y4.596
X-1.128Y4.671
X-1.023Y4.556
X-0.978Y5.566
X-0.918Y4.446
X-0.873Y4.986
X-0.753Y4.711
X-0.443Y4.716
X-0.273Y5.091
X-0.253Y4.716
X-0.118Y5.031
X-0.118Y4.936
X-0.098Y4.771
X-0.058Y5.091
X0.027Y5.456
X0.027Y4.931
X0.032Y4.871
X0.047Y4.531
X0.087Y5.031
X0.152Y4.831
X0.157Y4.781
X0.202Y4.971
X0.247Y4.871
X0.287Y5.311
X0.332Y4.751
X0.402Y4.866
X0.472Y4.981
X0.517Y4.831
X0.637Y4.761
X0.662Y5.196
X0.662Y4.656
X0.922Y5.541
X1.092Y5.276
X1.142Y4.441
X1.227Y5.401
X1.227Y5.341
X1.242Y5.456
X1.262Y5.236
X1.272Y5.096
X1.272Y5.031
X1.272Y4.981
X1.272Y4.571
X1.307Y4.531
X1.317Y5.236
X1.327Y4.836
X1.372Y5.236
X1.427Y5.236
X1.457Y4.836
X1.477Y5.296
X1.482Y5.241
X1.507Y4.426
X1.517Y4.701
X1.542Y4.836
X1.662Y4.931
X1.712Y5.461
X1.747Y4.356
X2.052Y5.336
X2.232Y4.426
X2.282Y5.096
X2.382Y5.196
X2.512Y4.526
X2.587Y5.066
X2.702Y5.026
X2.707Y5.076
X2.982Y4.866
T2
X-1.540Y4.812
X-1.526Y4.867
X-1.481Y4.833
X-1.467Y4.888
X-1.421Y4.854
T3
X-2.148Y5.121
X-2.057Y5.163
X-1.829Y5.250
X-1.735Y5.284
X-1.499Y5.355
X-1.402Y5.381
X-1.168Y5.442
X-1.069Y5.459
X-0.768Y5.530
X-0.669Y5.543
X-0.448Y5.538
X-0.348Y5.543
X-0.091Y5.552
X0.009Y5.552
X0.269Y5.546
X0.369Y5.542
X0.569Y5.219
X0.569Y4.624
X0.606Y5.524
X0.702Y5.110
X0.702Y4.910
X0.705Y5.511
X1.002Y5.110
X1.002Y4.910
X1.014Y5.467
X1.113Y5.449
X1.332Y5.398
X1.430Y5.377
X1.697Y5.295
X1.794Y5.269
X2.042Y5.174
X2.136Y5.139
X2.365Y5.030
X2.457Y4.992
X2.683Y4.864
X2.774Y4.821
X2.962Y4.705
X3.048Y4.653
T4
X-1.993Y4.842
X-1.954Y4.750
X-1.916Y4.659
X-1.899Y4.880
X-1.862Y4.789
X-1.822Y4.697
X-0.531Y5.219
X-0.531Y4.624
X-0.431Y5.219
X-0.431Y4.624
X-0.331Y5.219
X-0.331Y4.624
X-0.276Y5.392
X-0.231Y5.219
X-0.231Y4.624
X-0.176Y5.392
X-0.131Y5.219
X-0.131Y4.624
X-0.031Y5.219
X-0.031Y4.624
X0.069Y5.219
X0.069Y4.624
X0.169Y5.219
X0.169Y4.624
X0.269Y5.219
X0.269Y4.624
X0.369Y5.219
X0.369Y4.624
X0.469Y5.219
X0.469Y4.624
X0.812Y4.564
X0.830Y4.663
X0.911Y4.547
X0.928Y4.646
X1.009Y4.530
X1.026Y4.628
X1.990Y4.458
X2.077Y4.408
X2.163Y4.357
X2.542Y4.357
X2.598Y4.439
X2.625Y4.301
X2.654Y4.522
X2.681Y4.383
X2.737Y4.466
T5
X-1.107Y4.987
X-1.065Y4.877
T6
X-1.684Y4.973
X-1.414Y5.071
T7
X-0.876Y5.455
X0.872Y5.431
T0
M30
