G04 (created by PCBNEW-RS274X (2011-nov-30)-testing) date Mon 30 Apr 2012 11:55:02 PM EDT*
G01*
G70*
G90*
%MOIN*%
G04 Gerber Fmt 3.4, Leading zero omitted, Abs format*
%FSLAX34Y34*%
G04 APERTURE LIST*
%ADD10C,0.006000*%
%ADD11C,0.080000*%
%ADD12C,0.071200*%
%ADD13C,0.115300*%
%ADD14C,0.185400*%
%ADD15C,0.153900*%
%ADD16C,0.075000*%
%ADD17C,0.071400*%
%ADD18C,0.132200*%
G04 APERTURE END LIST*
G54D10*
G54D11*
X-18224Y46972D03*
X-18988Y48803D03*
X-18615Y47892D03*
X-19535Y47502D03*
X-19162Y46591D03*
G54D10*
G36*
X-19402Y48210D02*
X-20138Y47898D01*
X-20450Y48634D01*
X-19714Y48946D01*
X-19402Y48210D01*
X-19402Y48210D01*
G37*
G54D11*
X-02764Y53917D03*
X-01764Y53917D03*
G54D12*
X-11067Y49872D03*
X-10652Y48766D03*
G54D13*
X-10832Y51747D03*
X-12422Y51168D03*
G54D14*
X-08760Y54547D03*
X08720Y54311D03*
G54D15*
X-16241Y44488D03*
X23621Y40945D03*
X21653Y37402D03*
X-14765Y40650D03*
G54D11*
X05690Y46240D03*
X04690Y46240D03*
X03690Y46240D03*
X02690Y46240D03*
X01690Y46240D03*
X00690Y46240D03*
X-00310Y46240D03*
X-01310Y46240D03*
X-02310Y46240D03*
X-03310Y46240D03*
X-04310Y46240D03*
X-05310Y46240D03*
X05690Y52190D03*
X04690Y52190D03*
X03690Y52190D03*
X02690Y52190D03*
X01690Y52190D03*
X00690Y52190D03*
X-00310Y52190D03*
X-01300Y52185D03*
X-02310Y52190D03*
X-03310Y52190D03*
X-04310Y52190D03*
X-05310Y52190D03*
X14774Y43559D03*
X14948Y44544D03*
X15759Y43386D03*
X15933Y44370D03*
X16744Y43212D03*
G54D10*
G36*
X16455Y43873D02*
X16594Y44660D01*
X17381Y44521D01*
X17242Y43734D01*
X16455Y43873D01*
X16455Y43873D01*
G37*
G54D16*
X09858Y45082D03*
X09858Y47082D03*
X12858Y45082D03*
X12858Y47082D03*
G54D17*
X-14964Y49315D03*
X-15420Y49651D03*
X-14372Y49530D03*
X-14830Y49866D03*
G54D18*
X-14300Y51692D03*
X-17000Y50710D03*
G54D17*
X-15555Y49100D03*
G54D11*
X26252Y43005D03*
X25423Y43565D03*
X26812Y43834D03*
X25982Y44394D03*
G54D10*
G36*
X27479Y44108D02*
X26816Y44555D01*
X27263Y45218D01*
X27926Y44771D01*
X27479Y44108D01*
X27479Y44108D01*
G37*
G54D11*
X26542Y45223D03*
G54D10*
G36*
X21869Y42770D02*
X22561Y42370D01*
X22161Y41678D01*
X21469Y42078D01*
X21869Y42770D01*
X21869Y42770D01*
G37*
G54D11*
X21515Y41358D03*
X21015Y40492D03*
M02*
