M48
;DRILL file {Pcbnew (2011-nov-30)-testing} date Sat 05 May 2012 08:27:05 PM EDT
;FORMAT={-:-/ absolute / inch / decimal}
FMAT,2
INCH,TZ
T1C0.020
T2C0.025
T3C0.028
T4C0.032
T5C0.040
T6C0.071
T7C0.091
%
G90
G05
M72
T1
X1.844Y0.347
X1.844Y0.247
X1.929Y0.247
X1.969Y0.127
X2.014Y0.347
X2.014Y0.247
X2.094Y0.347
X2.094Y0.247
X2.244Y0.147
T2
X0.390Y1.083
X1.362Y1.193
X1.705Y1.083
X1.867Y0.434
X1.878Y1.024
X1.921Y0.756
X1.992Y1.024
X2.236Y0.480
X2.390Y1.193
X2.432Y0.559
T3
X1.694Y0.147
T4
X2.706Y0.579
X2.706Y0.500
X2.806Y0.579
X2.806Y0.500
T5
X0.147Y1.890
X0.247Y1.890
X0.580Y1.890
X0.680Y1.890
X1.121Y0.433
X1.171Y0.118
X1.221Y0.987
X1.221Y0.587
X1.221Y0.433
X1.270Y0.118
X1.321Y0.433
T6
X0.984Y1.445
X0.984Y1.228
T7
X2.520Y0.394
X2.992Y0.394
T0
M30
