G04 (created by PCBNEW-RS274X (2011-nov-30)-testing) date Mon 11 Jun 2012 06:12:24 PM EDT*
%MOIN*%
G04 Gerber Fmt 3.4, Leading zero omitted, Abs format*
%FSLAX34Y34*%
G01*
G70*
G90*
G04 APERTURE LIST*
%ADD10C,0.006*%
%ADD11R,0.05X0.1149*%
%ADD12R,0.135X0.065*%
%ADD13R,0.1349X0.065*%
%ADD14R,0.0394X0.1495*%
%ADD15R,0.0394X0.1496*%
%ADD16R,0.6692X0.7084*%
%ADD17R,0.1179X0.0787*%
%ADD18R,0.118X0.0787*%
%ADD19R,0.05X0.1*%
%ADD20R,0.016X0.05*%
%ADD21R,0.055X0.035*%
%ADD22R,0.0314X0.1417*%
%ADD23R,0.035X0.055*%
G04 APERTURE END LIST*
G54D10*
G54D11*
X7707Y5092D03*
X6529Y5092D03*
G54D12*
X5426Y2365D03*
G54D13*
X8810Y2365D03*
G54D14*
X21023Y15827D03*
X21693Y15827D03*
G54D15*
X22362Y15827D03*
G54D14*
X23031Y15827D03*
X23701Y15827D03*
G54D16*
X22362Y20749D03*
G54D17*
X19607Y16812D03*
G54D18*
X25118Y16811D03*
G54D19*
X28518Y1315D03*
X28518Y5014D03*
G54D13*
X26985Y3165D03*
X30051Y3165D03*
G54D20*
X32368Y20565D03*
X32118Y20565D03*
X31858Y20565D03*
X31598Y20565D03*
X31348Y20565D03*
X31088Y20565D03*
X30828Y20565D03*
X30578Y20565D03*
X30318Y20565D03*
X30068Y20565D03*
X29808Y20565D03*
X29548Y20565D03*
X29298Y20565D03*
X29038Y20565D03*
X29038Y17765D03*
X29298Y17765D03*
X29538Y17765D03*
X29808Y17765D03*
X30068Y17765D03*
X30318Y17765D03*
X30578Y17765D03*
X30828Y17765D03*
X31088Y17765D03*
X31348Y17765D03*
X31598Y17765D03*
X31858Y17765D03*
X32118Y17765D03*
X32368Y17765D03*
G54D21*
X13759Y5671D03*
X13759Y4921D03*
X12666Y5700D03*
X12666Y4950D03*
G54D22*
X20393Y11891D03*
X20393Y9529D03*
X8582Y11891D03*
X8582Y9529D03*
G54D21*
X15669Y11085D03*
X15669Y10335D03*
G54D23*
X29533Y16365D03*
X28783Y16365D03*
X30543Y16365D03*
X31293Y16365D03*
G54D22*
X12519Y11891D03*
X12519Y9529D03*
X24330Y11891D03*
X24330Y9529D03*
G54D21*
X27480Y11085D03*
X27480Y10335D03*
G54D19*
X33518Y1315D03*
X33518Y5014D03*
G54D13*
X31985Y3165D03*
X35051Y3165D03*
G54D14*
X9211Y15827D03*
X9881Y15827D03*
G54D15*
X10550Y15827D03*
G54D14*
X11219Y15827D03*
X11889Y15827D03*
G54D16*
X10550Y20749D03*
G54D17*
X7795Y16812D03*
G54D18*
X13306Y16811D03*
M02*
