G04 (created by PCBNEW-RS274X (2011-nov-30)-testing) date Mon 04 Jun 2012 02:34:58 PM EDT*
%MOIN*%
G04 Gerber Fmt 3.4, Leading zero omitted, Abs format*
%FSLAX34Y34*%
G01*
G70*
G90*
G04 APERTURE LIST*
%ADD10C,0.006*%
%ADD11C,0.06*%
%ADD12O,0.055X0.035*%
%ADD13R,0.0077X0.0472*%
%ADD14R,0.06X0.06*%
%ADD15R,0.1417X0.0314*%
%ADD16R,0.2165X0.1377*%
%ADD17R,0.1377X0.2165*%
%ADD18C,0.1063*%
%ADD19R,0.016X0.05*%
%ADD20R,0.035X0.055*%
%ADD21C,0.054*%
%ADD22R,0.0787X0.126*%
%ADD23R,0.126X0.0854*%
%ADD24C,0.07*%
%ADD25R,0.07X0.07*%
%ADD26C,0.055*%
%ADD27R,0.0314X0.1417*%
%ADD28R,0.05X0.115*%
%ADD29R,0.135X0.065*%
%ADD30R,0.1495X0.0394*%
%ADD31R,0.1496X0.0394*%
%ADD32R,0.7086X0.6692*%
%ADD33R,0.0787X0.118*%
%ADD34C,0.0787*%
%ADD35C,0.035*%
%ADD36C,0.012*%
%ADD37C,0.01*%
G04 APERTURE END LIST*
G54D10*
G54D11*
X11803Y889D03*
X10803Y889D03*
X9803Y889D03*
X8803Y889D03*
X7803Y889D03*
X6803Y889D03*
X5803Y889D03*
X4803Y889D03*
X2803Y19889D03*
X3803Y19889D03*
X4803Y19889D03*
X5803Y19889D03*
X9803Y19889D03*
X11803Y19889D03*
X12803Y19889D03*
X8803Y19889D03*
X7803Y19889D03*
X6803Y19889D03*
X13803Y19889D03*
X14803Y19889D03*
X15803Y19889D03*
X18803Y19889D03*
X17803Y19889D03*
X16803Y19889D03*
X20803Y19889D03*
X21803Y19889D03*
X22803Y19889D03*
X24803Y19889D03*
X25803Y19889D03*
X13803Y889D03*
X14803Y889D03*
X15803Y889D03*
X16803Y889D03*
X17803Y889D03*
X18803Y889D03*
X19803Y889D03*
X20803Y889D03*
X22403Y889D03*
X23403Y889D03*
X24403Y889D03*
X25403Y889D03*
X26403Y889D03*
X27403Y889D03*
X28403Y889D03*
X29403Y889D03*
X23803Y19889D03*
X1803Y1889D03*
X803Y1889D03*
X1803Y2889D03*
X803Y2889D03*
X1803Y3889D03*
X803Y3889D03*
X1803Y4889D03*
X803Y4889D03*
X1803Y889D03*
X803Y889D03*
X803Y5889D03*
X1803Y5889D03*
X1803Y6889D03*
X803Y6889D03*
X1803Y7889D03*
X803Y7889D03*
X1803Y8889D03*
X803Y8889D03*
X1803Y9889D03*
X803Y9889D03*
X1803Y10889D03*
X803Y10889D03*
X1803Y11889D03*
X803Y11889D03*
X1803Y12889D03*
X803Y12889D03*
X1803Y13889D03*
X803Y13889D03*
X1803Y14889D03*
X803Y14889D03*
X1803Y15889D03*
X803Y15889D03*
X1803Y16889D03*
X803Y16889D03*
X1803Y17889D03*
X803Y17889D03*
G54D12*
X16953Y5092D03*
X16954Y5841D03*
G54D13*
X16954Y5466D03*
G54D14*
X36811Y878D03*
G54D11*
X36811Y1878D03*
G54D15*
X27657Y4331D03*
X25295Y4331D03*
G54D16*
X33570Y1182D03*
G54D17*
X31570Y1182D03*
G54D11*
X32795Y6406D03*
X32795Y5406D03*
X33582Y5406D03*
X33582Y6406D03*
G54D18*
X34645Y8268D03*
X34645Y3544D03*
G54D19*
X33441Y13408D03*
X33191Y13408D03*
X32931Y13408D03*
X32671Y13408D03*
X32421Y13408D03*
X32161Y13408D03*
X31901Y13408D03*
X31651Y13408D03*
X31391Y13408D03*
X31141Y13408D03*
X30881Y13408D03*
X30621Y13408D03*
X30371Y13408D03*
X30111Y13408D03*
X30111Y10608D03*
X30371Y10608D03*
X30611Y10608D03*
X30881Y10608D03*
X31141Y10608D03*
X31391Y10608D03*
X31651Y10608D03*
X31901Y10608D03*
X32161Y10608D03*
X32421Y10608D03*
X32671Y10608D03*
X32931Y10608D03*
X33191Y10608D03*
X33441Y10608D03*
G54D20*
X31318Y15453D03*
X32068Y15453D03*
X5887Y7087D03*
X5137Y7087D03*
X31810Y9252D03*
X32560Y9252D03*
G54D14*
X29527Y2150D03*
G54D11*
X29527Y3150D03*
X29527Y4150D03*
G54D21*
X36113Y11805D03*
X36113Y12655D03*
X35113Y13455D03*
X35113Y10955D03*
X36113Y10955D03*
X36113Y13455D03*
G54D22*
X37313Y12205D03*
G54D23*
X37113Y14955D03*
X37113Y9455D03*
G54D21*
X35113Y12655D03*
G54D24*
X24083Y2264D03*
G54D25*
X28083Y2264D03*
G54D26*
X28756Y11000D03*
X26756Y11000D03*
X28756Y14000D03*
X26756Y14000D03*
G54D14*
X15847Y7088D03*
X16930Y7088D03*
G54D27*
X12106Y5807D03*
X12106Y3445D03*
G54D15*
X27657Y6988D03*
X25295Y6988D03*
X33465Y20079D03*
X35827Y20079D03*
G54D28*
X28937Y17535D03*
X28937Y15735D03*
G54D29*
X27487Y19685D03*
X30387Y19685D03*
G54D14*
X13753Y8879D03*
G54D11*
X12753Y8879D03*
X13753Y9879D03*
X12753Y9879D03*
X13753Y10879D03*
X12753Y10879D03*
G54D14*
X7768Y4724D03*
G54D11*
X8768Y4724D03*
G54D14*
X3831Y4724D03*
G54D11*
X4831Y4724D03*
G54D30*
X24015Y12834D03*
X24015Y13504D03*
G54D31*
X24015Y14173D03*
G54D30*
X24015Y14842D03*
X24015Y15512D03*
G54D32*
X19093Y14173D03*
G54D33*
X23030Y11417D03*
X23031Y16929D03*
G54D30*
X11220Y12637D03*
X11220Y13307D03*
G54D31*
X11220Y13976D03*
G54D30*
X11220Y14645D03*
X11220Y15315D03*
G54D32*
X6298Y13976D03*
G54D33*
X10235Y11221D03*
X10236Y16732D03*
G54D12*
X15780Y5052D03*
X15781Y5801D03*
G54D13*
X15781Y5426D03*
G54D34*
X33346Y16929D03*
X31181Y16929D03*
G54D11*
X2798Y20662D03*
X3799Y20661D03*
X4799Y20661D03*
X5799Y20661D03*
X6799Y20661D03*
X7799Y20661D03*
X8799Y20661D03*
X9799Y20661D03*
X11769Y204D03*
X10768Y205D03*
X9768Y205D03*
X8768Y205D03*
X7768Y205D03*
X6768Y205D03*
X5768Y205D03*
X4768Y205D03*
X20824Y204D03*
X19823Y205D03*
X18823Y205D03*
X17823Y205D03*
X16823Y205D03*
X15823Y205D03*
X14823Y205D03*
X13823Y205D03*
X29426Y204D03*
X28425Y205D03*
X27425Y205D03*
X26425Y205D03*
X25425Y205D03*
X24425Y205D03*
X23425Y205D03*
X22425Y205D03*
X11794Y20662D03*
X12795Y20661D03*
X13795Y20661D03*
X14795Y20661D03*
X15795Y20661D03*
X16795Y20661D03*
X17795Y20661D03*
X18795Y20661D03*
G54D35*
X29585Y15509D03*
X30663Y15509D03*
X25175Y15117D03*
X28997Y14725D03*
X12729Y6297D03*
X10475Y4729D03*
X15081Y5513D03*
X33386Y7992D03*
X24823Y5610D03*
X31545Y6885D03*
X23803Y11295D03*
X14689Y9727D03*
X11749Y11099D03*
X32819Y12569D03*
X32133Y14039D03*
X32721Y11883D03*
X9201Y1593D03*
X29585Y9825D03*
X24685Y12177D03*
X12337Y11981D03*
X30413Y11476D03*
G54D36*
X25175Y15117D02*
X24293Y15117D01*
X20803Y19889D02*
X20787Y18543D01*
X31181Y16929D02*
X31153Y16881D01*
X31153Y16881D02*
X31181Y16929D01*
X31153Y15607D02*
X31153Y16881D01*
X31349Y15411D02*
X31153Y15607D01*
X31318Y15453D02*
X31349Y15411D01*
X28899Y15705D02*
X28937Y15735D01*
X29095Y15509D02*
X28899Y15705D01*
X29585Y15509D02*
X29095Y15509D01*
X30761Y15411D02*
X30663Y15509D01*
X31349Y15411D02*
X30761Y15411D01*
X24293Y15117D02*
X23999Y14823D01*
X28997Y15607D02*
X28997Y14725D01*
X28899Y15705D02*
X28997Y15607D01*
X28937Y15735D02*
X28899Y15705D01*
X33505Y20115D02*
X33465Y20079D01*
X33505Y19233D02*
X33505Y20115D01*
X31153Y16881D02*
X33505Y19233D01*
X31318Y15453D02*
X31349Y15411D01*
X23999Y14823D02*
X24015Y14842D01*
X20787Y18543D02*
X25157Y18541D01*
X25157Y18541D02*
X25175Y15117D01*
X31391Y10608D02*
X31417Y11299D01*
X32657Y14409D02*
X32671Y13408D01*
X29606Y14409D02*
X32657Y14409D01*
X29606Y12756D02*
X29606Y14409D01*
X31417Y11299D02*
X29606Y12756D01*
X12631Y6297D02*
X12141Y5807D01*
X12141Y5807D02*
X12106Y5807D01*
X12729Y6297D02*
X12631Y6297D01*
X5869Y7081D02*
X5887Y7087D01*
X4831Y4724D02*
X4791Y4729D01*
X4791Y4729D02*
X5869Y5807D01*
X5869Y5807D02*
X5869Y7081D01*
X15571Y5023D02*
X15081Y5513D01*
X15780Y5052D02*
X15767Y5023D01*
X15767Y5023D02*
X15571Y5023D01*
X15767Y5023D02*
X15780Y5052D01*
X16943Y5023D02*
X15767Y5023D01*
X16943Y5121D02*
X16943Y5023D01*
X16953Y5092D02*
X16943Y5121D01*
X31839Y9237D02*
X32133Y8943D01*
X15081Y5513D02*
X15039Y4547D01*
X33386Y7992D02*
X32795Y6406D01*
X17382Y4547D02*
X24823Y5610D01*
X15039Y4547D02*
X17382Y4547D01*
X31810Y9252D02*
X31378Y10000D01*
X31378Y10000D02*
X31391Y10608D01*
X12827Y11785D02*
X12827Y14333D01*
X12827Y14333D02*
X12631Y14529D01*
X11259Y14627D02*
X11220Y14645D01*
X12631Y14529D02*
X11357Y14529D01*
X11357Y14529D02*
X11259Y14627D01*
X12106Y5807D02*
X12141Y5807D01*
X31810Y9252D02*
X31839Y9237D01*
X32819Y8061D02*
X32819Y6395D01*
X32133Y8747D02*
X32819Y8061D01*
X32819Y6395D02*
X32795Y6406D01*
X32133Y8943D02*
X32133Y8747D01*
X11553Y5807D02*
X10475Y4729D01*
X12106Y5807D02*
X11553Y5807D01*
X12337Y11295D02*
X12827Y11785D01*
X12337Y11197D02*
X12337Y11295D01*
X12239Y11099D02*
X12337Y11197D01*
X12239Y5905D02*
X12239Y11099D01*
X12141Y5807D02*
X12239Y5905D01*
X30111Y10608D02*
X30075Y10609D01*
X30075Y10609D02*
X30075Y9649D01*
X30075Y9649D02*
X31153Y8571D01*
X31153Y8571D02*
X31153Y8551D01*
X31153Y8551D02*
X31545Y8159D01*
X31545Y8159D02*
X31545Y6885D01*
X32329Y7865D02*
X32329Y6101D01*
X32819Y5611D02*
X32819Y5415D01*
X32329Y6101D02*
X32819Y5611D01*
X31447Y8747D02*
X32329Y7865D01*
X32819Y5415D02*
X32795Y5406D01*
X30369Y9710D02*
X31447Y8632D01*
X31447Y8632D02*
X31447Y8747D01*
X30369Y10609D02*
X30369Y9710D01*
X30371Y10608D02*
X30369Y10609D01*
X16943Y5807D02*
X16954Y5841D01*
X16943Y7081D02*
X16943Y5807D01*
X16930Y7088D02*
X16943Y7081D01*
X24195Y11981D02*
X23803Y11589D01*
X24195Y12667D02*
X24195Y11981D01*
X23999Y12863D02*
X24195Y12667D01*
X24015Y12834D02*
X23999Y12863D01*
X23803Y11589D02*
X23803Y11295D01*
X15767Y5807D02*
X15767Y5905D01*
X15767Y5905D02*
X15865Y6003D01*
X11749Y11099D02*
X11455Y11393D01*
X15865Y6003D02*
X15865Y7081D01*
X15865Y7081D02*
X15847Y7088D01*
X11455Y12177D02*
X11259Y12373D01*
X11455Y11393D02*
X11455Y12177D01*
X11259Y12373D02*
X11259Y12667D01*
X11259Y12667D02*
X11220Y12637D01*
X15847Y7088D02*
X15865Y7081D01*
X14689Y8257D02*
X14689Y9727D01*
X15865Y7081D02*
X14689Y8257D01*
X15781Y5801D02*
X15767Y5807D01*
X7768Y205D02*
X7731Y221D01*
X7731Y221D02*
X7829Y319D01*
X7829Y907D02*
X7803Y889D01*
X7829Y319D02*
X7829Y907D01*
X32427Y12961D02*
X32819Y12569D01*
X32427Y13451D02*
X32427Y12961D01*
X32421Y13408D02*
X32427Y13451D01*
X32427Y13451D02*
X32421Y13408D01*
X32427Y13843D02*
X32427Y13451D01*
X32329Y13843D02*
X32427Y13843D01*
X32133Y14039D02*
X32329Y13843D01*
X9201Y1593D02*
X7535Y1593D01*
X35857Y12667D02*
X35367Y12047D01*
X36151Y12667D02*
X35857Y12667D01*
X35367Y12047D02*
X34779Y12047D01*
X36113Y12655D02*
X36151Y12667D01*
X6849Y907D02*
X6803Y889D01*
X6849Y907D02*
X6751Y809D01*
X34779Y12047D02*
X33505Y13451D01*
X33407Y13451D02*
X33441Y13408D01*
X6803Y889D02*
X6849Y907D01*
X6751Y809D02*
X6751Y221D01*
X6751Y221D02*
X6768Y205D01*
X7535Y1593D02*
X6849Y907D01*
X33407Y13451D02*
X33505Y13451D01*
X33505Y13451D02*
X33505Y12961D01*
X33505Y12961D02*
X33211Y12667D01*
X33211Y12667D02*
X33211Y12373D01*
X33211Y12373D02*
X32721Y11883D01*
X33505Y13451D02*
X33407Y13451D01*
X33441Y13408D02*
X33407Y13451D01*
X29487Y4141D02*
X29527Y4150D01*
X29585Y9825D02*
X29291Y9531D01*
X29487Y7081D02*
X29487Y4141D01*
X29291Y9531D02*
X29291Y7277D01*
X29291Y7277D02*
X29487Y7081D01*
X11259Y13353D02*
X11220Y13307D01*
X24685Y12177D02*
X26870Y8464D01*
X11553Y13059D02*
X11259Y13353D01*
X26870Y8464D02*
X27657Y8464D01*
X27657Y8464D02*
X27657Y6988D01*
X27657Y6988D02*
X27625Y6983D01*
X28115Y2279D02*
X28083Y2264D01*
X28115Y3847D02*
X28115Y2279D01*
X27625Y4337D02*
X28115Y3847D01*
X27657Y4331D02*
X27625Y4337D01*
X27625Y6983D02*
X27625Y4337D01*
X24979Y13255D02*
X24979Y12471D01*
X24587Y13549D02*
X24881Y13255D01*
X24881Y13255D02*
X24979Y13255D01*
X27625Y4337D02*
X27657Y4331D01*
X23999Y13549D02*
X24587Y13549D01*
X24015Y13504D02*
X23999Y13549D01*
X12141Y13059D02*
X11553Y13059D01*
X12141Y12177D02*
X12141Y13059D01*
X12337Y11981D02*
X12141Y12177D01*
X24979Y12471D02*
X24685Y12177D01*
X30881Y10608D02*
X30886Y11201D01*
X30886Y11201D02*
X30413Y11476D01*
X31901Y13408D02*
X31985Y11161D01*
X32671Y10608D02*
X32638Y9665D01*
X32638Y9665D02*
X32560Y9252D01*
X31651Y10608D02*
X31653Y11161D01*
X32795Y10921D02*
X32795Y10608D01*
X32555Y11161D02*
X32795Y10921D01*
X31653Y11161D02*
X31985Y11161D01*
X31985Y11161D02*
X32555Y11161D01*
X32931Y10608D02*
X32795Y10608D01*
X32795Y10608D02*
X32671Y10608D01*
X35113Y12655D02*
X35610Y13031D01*
X35630Y13898D02*
X37113Y14955D01*
X35610Y13031D02*
X35630Y13898D01*
X13807Y19919D02*
X13807Y20703D01*
X13807Y20703D02*
X13795Y20661D01*
X13803Y19889D02*
X13807Y19919D01*
X14803Y19889D02*
X14787Y19919D01*
X14787Y19919D02*
X14787Y20703D01*
X14787Y20703D02*
X14795Y20661D01*
X15767Y20703D02*
X15795Y20661D01*
X15767Y19919D02*
X15767Y20703D01*
X15803Y19889D02*
X15767Y19919D01*
X16795Y20661D02*
X16747Y20703D01*
X16845Y19919D02*
X16803Y19889D01*
X16845Y20605D02*
X16845Y19919D01*
X16747Y20703D02*
X16845Y20605D01*
X17825Y19919D02*
X17825Y20703D01*
X17825Y20703D02*
X17795Y20661D01*
X17803Y19889D02*
X17825Y19919D01*
X18805Y20703D02*
X18795Y20661D01*
X18803Y19889D02*
X18805Y19919D01*
X18805Y19919D02*
X18805Y20703D01*
X12827Y19919D02*
X12803Y19889D01*
X12795Y20661D02*
X12827Y20703D01*
X12827Y20703D02*
X12827Y19919D01*
X4768Y205D02*
X4791Y221D01*
X4791Y221D02*
X4791Y907D01*
X4791Y907D02*
X4803Y889D01*
X5768Y205D02*
X5771Y221D01*
X5771Y221D02*
X5771Y907D01*
X5771Y907D02*
X5803Y889D01*
X8809Y907D02*
X8809Y221D01*
X8803Y889D02*
X8809Y907D01*
X8809Y221D02*
X8768Y205D01*
X9768Y205D02*
X9789Y221D01*
X9789Y221D02*
X9789Y907D01*
X9789Y907D02*
X9803Y889D01*
X10768Y205D02*
X10769Y221D01*
X10769Y221D02*
X10769Y907D01*
X10769Y907D02*
X10803Y889D01*
X11847Y907D02*
X11803Y889D01*
X11847Y319D02*
X11847Y907D01*
X11769Y204D02*
X11749Y221D01*
X11749Y221D02*
X11847Y319D01*
X29389Y907D02*
X29389Y221D01*
X29403Y889D02*
X29389Y907D01*
X29389Y221D02*
X29426Y204D01*
X2798Y20662D02*
X2831Y20703D01*
X2831Y20703D02*
X2831Y19919D01*
X2831Y19919D02*
X2803Y19889D01*
X3811Y20703D02*
X3799Y20661D01*
X3811Y19919D02*
X3811Y20703D01*
X3803Y19889D02*
X3811Y19919D01*
X28425Y205D02*
X28409Y221D01*
X28409Y221D02*
X28409Y907D01*
X28409Y907D02*
X28403Y889D01*
X4803Y19889D02*
X4791Y19919D01*
X4791Y19919D02*
X4791Y20703D01*
X4791Y20703D02*
X4799Y20661D01*
X5771Y19919D02*
X5771Y20703D01*
X5771Y20703D02*
X5799Y20661D01*
X5803Y19889D02*
X5771Y19919D01*
X6751Y20703D02*
X6799Y20661D01*
X6751Y20017D02*
X6751Y20703D01*
X6849Y19919D02*
X6751Y20017D01*
X6803Y19889D02*
X6849Y19919D01*
X7803Y19889D02*
X7829Y19919D01*
X7829Y19919D02*
X7829Y20703D01*
X7829Y20703D02*
X7799Y20661D01*
X25763Y19919D02*
X26743Y18939D01*
X26743Y11001D02*
X26756Y11000D01*
X26756Y14000D02*
X26743Y14039D01*
X26743Y14039D02*
X26743Y11001D01*
X26743Y18939D02*
X26743Y14039D01*
X25803Y19889D02*
X25763Y19919D01*
X26743Y14039D02*
X26756Y14000D01*
X8803Y19889D02*
X8809Y19919D01*
X8809Y19919D02*
X8809Y20703D01*
X8809Y20703D02*
X8799Y20661D01*
X9799Y20661D02*
X9789Y20703D01*
X9789Y20703D02*
X9789Y19919D01*
X9789Y19919D02*
X9803Y19889D01*
X11847Y19919D02*
X11803Y19889D01*
X11794Y20662D02*
X11749Y20703D01*
X11749Y20703D02*
X11847Y20605D01*
X11847Y20605D02*
X11847Y19919D01*
X25469Y221D02*
X25371Y319D01*
X25425Y205D02*
X25469Y221D01*
X25371Y907D02*
X25403Y889D01*
X25371Y319D02*
X25371Y907D01*
X27425Y205D02*
X27429Y221D01*
X27429Y221D02*
X27429Y907D01*
X27429Y907D02*
X27403Y889D01*
X26449Y221D02*
X26425Y205D01*
X26449Y907D02*
X26449Y221D01*
X26403Y889D02*
X26449Y907D01*
X24403Y889D02*
X24391Y907D01*
X24391Y907D02*
X24391Y221D01*
X24391Y221D02*
X24425Y205D01*
X23411Y221D02*
X23425Y205D01*
X23411Y907D02*
X23411Y221D01*
X23403Y889D02*
X23411Y907D01*
X22425Y205D02*
X22431Y221D01*
X22431Y221D02*
X22431Y907D01*
X22431Y907D02*
X22403Y889D01*
X20765Y319D02*
X20765Y907D01*
X20765Y907D02*
X20803Y889D01*
X20824Y204D02*
X20863Y221D01*
X20863Y221D02*
X20765Y319D01*
X19785Y221D02*
X19823Y205D01*
X19803Y889D02*
X19785Y907D01*
X19785Y907D02*
X19785Y221D01*
X18803Y889D02*
X18805Y907D01*
X18805Y907D02*
X18805Y221D01*
X18805Y221D02*
X18823Y205D01*
X17825Y221D02*
X17823Y205D01*
X17803Y889D02*
X17825Y907D01*
X17825Y907D02*
X17825Y221D01*
X14787Y221D02*
X14787Y907D01*
X14787Y907D02*
X14803Y889D01*
X14823Y205D02*
X14787Y221D01*
X13823Y205D02*
X13807Y221D01*
X13807Y907D02*
X13803Y889D01*
X13807Y221D02*
X13807Y907D01*
X15823Y205D02*
X15865Y221D01*
X15865Y221D02*
X15767Y319D01*
X15767Y319D02*
X15767Y907D01*
X15767Y907D02*
X15803Y889D01*
X16823Y205D02*
X16845Y221D01*
X16845Y221D02*
X16845Y907D01*
X16845Y907D02*
X16803Y889D01*
G54D10*
G36*
X35262Y12738D02*
X35120Y12557D01*
X35004Y12557D01*
X34766Y12820D01*
X34970Y12735D01*
X35256Y12735D01*
X35262Y12738D01*
X35262Y12738D01*
G37*
G54D37*
X35262Y12738D02*
X35120Y12557D01*
X35004Y12557D01*
X34766Y12820D01*
X34970Y12735D01*
X35256Y12735D01*
X35262Y12738D01*
G54D10*
G36*
X38451Y-263D02*
X37560Y-263D01*
X37560Y1728D01*
X37560Y2026D01*
X37446Y2301D01*
X37260Y2488D01*
X37260Y16721D01*
X37260Y17135D01*
X37102Y17517D01*
X36810Y17810D01*
X36428Y17969D01*
X36014Y17969D01*
X35632Y17811D01*
X35339Y17519D01*
X35180Y17137D01*
X35180Y16723D01*
X35338Y16341D01*
X35630Y16048D01*
X36012Y15889D01*
X36426Y15889D01*
X36808Y16047D01*
X37101Y16339D01*
X37260Y16721D01*
X37260Y2488D01*
X37236Y2512D01*
X36961Y2627D01*
X36663Y2627D01*
X36388Y2513D01*
X36177Y2303D01*
X36062Y2028D01*
X36062Y1730D01*
X36176Y1455D01*
X36386Y1244D01*
X36661Y1129D01*
X36959Y1129D01*
X37234Y1243D01*
X37445Y1453D01*
X37560Y1728D01*
X37560Y-263D01*
X32530Y-263D01*
X32638Y-155D01*
X32707Y10D01*
X32707Y189D01*
X32707Y2353D01*
X32639Y2518D01*
X32513Y2644D01*
X32348Y2713D01*
X32169Y2713D01*
X30793Y2713D01*
X30628Y2645D01*
X30502Y2519D01*
X30433Y2354D01*
X30433Y2175D01*
X30433Y11D01*
X30501Y-154D01*
X30610Y-263D01*
X30017Y-263D01*
X30060Y-221D01*
X30175Y54D01*
X30175Y352D01*
X30082Y574D01*
X30152Y739D01*
X30152Y1037D01*
X30038Y1312D01*
X29939Y1411D01*
X30081Y1469D01*
X30207Y1595D01*
X30276Y1760D01*
X30276Y1939D01*
X30276Y2539D01*
X30208Y2704D01*
X30168Y2744D01*
X30276Y3000D01*
X30276Y3298D01*
X30162Y3573D01*
X30085Y3650D01*
X30161Y3725D01*
X30276Y4000D01*
X30276Y4298D01*
X30162Y4573D01*
X29997Y4739D01*
X29997Y7081D01*
X29958Y7276D01*
X29848Y7442D01*
X29845Y7444D01*
X29801Y7489D01*
X29801Y9202D01*
X30750Y8253D01*
X30792Y8190D01*
X31035Y7948D01*
X31035Y7259D01*
X31015Y7239D01*
X30920Y7010D01*
X30920Y6761D01*
X31015Y6531D01*
X31191Y6355D01*
X31420Y6260D01*
X31669Y6260D01*
X31819Y6322D01*
X31819Y6106D01*
X31818Y6101D01*
X31858Y5906D01*
X31968Y5740D01*
X32077Y5631D01*
X32046Y5556D01*
X32046Y5258D01*
X32160Y4983D01*
X32370Y4772D01*
X32645Y4657D01*
X32943Y4657D01*
X33188Y4759D01*
X33432Y4657D01*
X33730Y4657D01*
X34005Y4771D01*
X34216Y4981D01*
X34331Y5256D01*
X34331Y5554D01*
X34217Y5829D01*
X34007Y6040D01*
X33732Y6155D01*
X33501Y6155D01*
X33544Y6256D01*
X33544Y6554D01*
X33465Y6745D01*
X33730Y7459D01*
X33740Y7462D01*
X33916Y7638D01*
X34011Y7867D01*
X34011Y8116D01*
X33916Y8346D01*
X33740Y8522D01*
X33511Y8617D01*
X33262Y8617D01*
X33065Y8537D01*
X32639Y8963D01*
X32635Y8983D01*
X32604Y9138D01*
X32603Y9139D01*
X32494Y9304D01*
X32491Y9306D01*
X32434Y9364D01*
X32434Y9616D01*
X32366Y9781D01*
X32240Y9907D01*
X32235Y9909D01*
X32251Y9909D01*
X32330Y9909D01*
X32430Y9909D01*
X32590Y9909D01*
X32755Y9977D01*
X32806Y10028D01*
X32856Y9978D01*
X33021Y9909D01*
X33200Y9909D01*
X33271Y9909D01*
X33360Y9909D01*
X33450Y9909D01*
X33610Y9909D01*
X33775Y9977D01*
X33901Y10103D01*
X33970Y10268D01*
X33970Y10447D01*
X33970Y10947D01*
X33902Y11112D01*
X33776Y11238D01*
X33611Y11307D01*
X33432Y11307D01*
X33361Y11307D01*
X33272Y11307D01*
X33182Y11307D01*
X33022Y11307D01*
X32857Y11239D01*
X32806Y11188D01*
X32756Y11238D01*
X32708Y11258D01*
X32845Y11258D01*
X33075Y11353D01*
X33251Y11529D01*
X33346Y11758D01*
X33346Y11787D01*
X33569Y12011D01*
X33571Y12012D01*
X33572Y12012D01*
X33681Y12177D01*
X33682Y12178D01*
X33713Y12333D01*
X33721Y12372D01*
X33720Y12373D01*
X33721Y12373D01*
X33721Y12454D01*
X34400Y11705D01*
X34410Y11698D01*
X34418Y11686D01*
X34487Y11641D01*
X34560Y11586D01*
X34574Y11583D01*
X34584Y11576D01*
X34656Y11562D01*
X34692Y11553D01*
X34503Y11363D01*
X34393Y11098D01*
X34393Y10812D01*
X34503Y10547D01*
X34705Y10345D01*
X34970Y10235D01*
X35256Y10235D01*
X35521Y10345D01*
X35613Y10437D01*
X35705Y10345D01*
X35970Y10235D01*
X36256Y10235D01*
X36521Y10345D01*
X36723Y10547D01*
X36833Y10812D01*
X36833Y11098D01*
X36723Y11363D01*
X36706Y11380D01*
X36723Y11397D01*
X36833Y11662D01*
X36833Y11948D01*
X36723Y12213D01*
X36706Y12230D01*
X36723Y12247D01*
X36833Y12512D01*
X36833Y12798D01*
X36726Y13055D01*
X36833Y13312D01*
X36833Y13598D01*
X36723Y13863D01*
X36521Y14065D01*
X36256Y14175D01*
X35970Y14175D01*
X35705Y14065D01*
X35613Y13973D01*
X35521Y14065D01*
X35256Y14175D01*
X34970Y14175D01*
X34705Y14065D01*
X34503Y13863D01*
X34393Y13598D01*
X34393Y13312D01*
X34454Y13164D01*
X33970Y13699D01*
X33970Y13747D01*
X33902Y13912D01*
X33776Y14038D01*
X33611Y14107D01*
X33432Y14107D01*
X33361Y14107D01*
X33272Y14107D01*
X33182Y14107D01*
X33171Y14107D01*
X33167Y14409D01*
X33167Y14416D01*
X33147Y14507D01*
X33128Y14604D01*
X33125Y14608D01*
X33125Y14611D01*
X33069Y14692D01*
X33018Y14770D01*
X33015Y14772D01*
X33013Y14775D01*
X32927Y14830D01*
X32852Y14880D01*
X32848Y14881D01*
X32845Y14883D01*
X32741Y14903D01*
X32657Y14919D01*
X32650Y14919D01*
X31869Y14919D01*
X31873Y14923D01*
X31942Y15088D01*
X31942Y15267D01*
X31942Y15817D01*
X31874Y15982D01*
X31748Y16108D01*
X31663Y16144D01*
X31663Y16219D01*
X31895Y16451D01*
X32024Y16761D01*
X32024Y17031D01*
X33863Y18871D01*
X33865Y18872D01*
X33866Y18872D01*
X33976Y19038D01*
X34015Y19233D01*
X34015Y19473D01*
X34262Y19473D01*
X34427Y19541D01*
X34553Y19667D01*
X34622Y19832D01*
X34622Y20011D01*
X34622Y20325D01*
X34554Y20490D01*
X34428Y20616D01*
X34263Y20685D01*
X34084Y20685D01*
X32668Y20685D01*
X32503Y20617D01*
X32377Y20491D01*
X32308Y20326D01*
X32308Y20147D01*
X32308Y19833D01*
X32376Y19668D01*
X32502Y19542D01*
X32667Y19473D01*
X32846Y19473D01*
X32995Y19473D01*
X32995Y19445D01*
X31511Y17961D01*
X31511Y19270D01*
X31511Y19449D01*
X31511Y20099D01*
X31443Y20264D01*
X31317Y20390D01*
X31152Y20459D01*
X30973Y20459D01*
X29623Y20459D01*
X29458Y20391D01*
X29332Y20265D01*
X29263Y20100D01*
X29263Y19921D01*
X29263Y19271D01*
X29331Y19106D01*
X29457Y18980D01*
X29622Y18911D01*
X29801Y18911D01*
X31151Y18911D01*
X31316Y18979D01*
X31442Y19105D01*
X31511Y19270D01*
X31511Y17961D01*
X31322Y17772D01*
X31014Y17772D01*
X30704Y17644D01*
X30467Y17407D01*
X30338Y17097D01*
X30338Y16762D01*
X30466Y16452D01*
X30643Y16275D01*
X30643Y16134D01*
X30539Y16134D01*
X30309Y16039D01*
X30133Y15863D01*
X30123Y15842D01*
X30115Y15863D01*
X29939Y16039D01*
X29710Y16134D01*
X29636Y16134D01*
X29636Y16399D01*
X29568Y16564D01*
X29442Y16690D01*
X29277Y16759D01*
X29098Y16759D01*
X28598Y16759D01*
X28433Y16691D01*
X28307Y16565D01*
X28238Y16400D01*
X28238Y16221D01*
X28238Y15071D01*
X28306Y14906D01*
X28372Y14840D01*
X28372Y14601D01*
X28467Y14371D01*
X28643Y14195D01*
X28872Y14100D01*
X29096Y14100D01*
X29096Y12756D01*
X29100Y12732D01*
X29098Y12701D01*
X29121Y12627D01*
X29135Y12561D01*
X29150Y12538D01*
X29159Y12511D01*
X29203Y12459D01*
X29245Y12395D01*
X29269Y12379D01*
X29286Y12359D01*
X30594Y11307D01*
X30541Y11307D01*
X30442Y11307D01*
X30362Y11307D01*
X30281Y11307D01*
X30202Y11307D01*
X30102Y11307D01*
X29942Y11307D01*
X29777Y11239D01*
X29651Y11113D01*
X29582Y10948D01*
X29582Y10769D01*
X29582Y10697D01*
X29565Y10623D01*
X29566Y10616D01*
X29565Y10609D01*
X29565Y10450D01*
X29461Y10450D01*
X29231Y10355D01*
X29055Y10179D01*
X28960Y9950D01*
X28960Y9922D01*
X28930Y9892D01*
X28820Y9726D01*
X28780Y9531D01*
X28781Y9527D01*
X28781Y7315D01*
X28746Y7399D01*
X28620Y7525D01*
X28455Y7594D01*
X28276Y7594D01*
X28167Y7594D01*
X28167Y8464D01*
X28128Y8659D01*
X28018Y8825D01*
X27852Y8935D01*
X27657Y8974D01*
X27163Y8974D01*
X26312Y10419D01*
X26345Y10386D01*
X26612Y10275D01*
X26900Y10275D01*
X27166Y10385D01*
X27370Y10589D01*
X27481Y10856D01*
X27481Y11144D01*
X27371Y11410D01*
X27253Y11528D01*
X27253Y13472D01*
X27370Y13589D01*
X27481Y13856D01*
X27481Y14144D01*
X27371Y14410D01*
X27253Y14528D01*
X27253Y18911D01*
X28251Y18911D01*
X28416Y18979D01*
X28542Y19105D01*
X28611Y19270D01*
X28611Y19449D01*
X28611Y20099D01*
X28543Y20264D01*
X28417Y20390D01*
X28252Y20459D01*
X28073Y20459D01*
X26723Y20459D01*
X26558Y20391D01*
X26450Y20284D01*
X26438Y20312D01*
X26228Y20523D01*
X25953Y20638D01*
X25655Y20638D01*
X25380Y20524D01*
X25303Y20448D01*
X25228Y20523D01*
X24953Y20638D01*
X24655Y20638D01*
X24380Y20524D01*
X24303Y20448D01*
X24228Y20523D01*
X23953Y20638D01*
X23655Y20638D01*
X23380Y20524D01*
X23169Y20314D01*
X23054Y20039D01*
X23054Y19741D01*
X23168Y19466D01*
X23378Y19255D01*
X23653Y19140D01*
X23951Y19140D01*
X24226Y19254D01*
X24302Y19331D01*
X24378Y19255D01*
X24653Y19140D01*
X24951Y19140D01*
X25226Y19254D01*
X25302Y19331D01*
X25378Y19255D01*
X25653Y19140D01*
X25820Y19140D01*
X26233Y18728D01*
X26233Y14502D01*
X26142Y14411D01*
X26031Y14144D01*
X26031Y13856D01*
X26141Y13590D01*
X26233Y13498D01*
X26233Y11502D01*
X26142Y11411D01*
X26031Y11144D01*
X26031Y10897D01*
X25800Y11289D01*
X25800Y14992D01*
X25800Y15241D01*
X25705Y15471D01*
X25683Y15493D01*
X25667Y18543D01*
X25667Y18544D01*
X25660Y18577D01*
X25628Y18738D01*
X25518Y18904D01*
X25352Y19014D01*
X25157Y19053D01*
X21303Y19053D01*
X21306Y19335D01*
X21437Y19464D01*
X21552Y19739D01*
X21552Y20037D01*
X21438Y20312D01*
X21228Y20523D01*
X20953Y20638D01*
X20655Y20638D01*
X20380Y20524D01*
X20169Y20314D01*
X20054Y20039D01*
X20054Y19741D01*
X20168Y19466D01*
X20286Y19347D01*
X20277Y18549D01*
X20277Y18546D01*
X20277Y18543D01*
X20299Y18432D01*
X20314Y18354D01*
X20315Y18353D01*
X20316Y18348D01*
X20378Y18255D01*
X20422Y18186D01*
X20424Y18185D01*
X20426Y18182D01*
X20488Y18141D01*
X20586Y18074D01*
X20590Y18074D01*
X20592Y18072D01*
X20664Y18058D01*
X20781Y18033D01*
X20784Y18034D01*
X20787Y18033D01*
X24649Y18033D01*
X24659Y16158D01*
X23179Y16158D01*
X23014Y16090D01*
X22888Y15964D01*
X22819Y15799D01*
X22819Y15620D01*
X22819Y15226D01*
X22839Y15178D01*
X22819Y15129D01*
X22819Y14950D01*
X22819Y14556D01*
X22887Y14391D01*
X23013Y14265D01*
X23178Y14196D01*
X23357Y14196D01*
X24851Y14196D01*
X25016Y14264D01*
X25142Y14390D01*
X25184Y14492D01*
X25299Y14492D01*
X25529Y14587D01*
X25705Y14763D01*
X25800Y14992D01*
X25800Y11289D01*
X25324Y12096D01*
X25337Y12109D01*
X25339Y12110D01*
X25340Y12110D01*
X25449Y12275D01*
X25450Y12276D01*
X25481Y12431D01*
X25489Y12470D01*
X25488Y12471D01*
X25489Y12471D01*
X25489Y13255D01*
X25450Y13450D01*
X25340Y13616D01*
X25211Y13702D01*
X25211Y13790D01*
X25143Y13955D01*
X25017Y14081D01*
X24852Y14150D01*
X24673Y14150D01*
X23179Y14150D01*
X23014Y14082D01*
X22888Y13956D01*
X22819Y13791D01*
X22819Y13612D01*
X22819Y13218D01*
X22839Y13170D01*
X22819Y13121D01*
X22819Y12942D01*
X22819Y12548D01*
X22887Y12383D01*
X23013Y12257D01*
X23178Y12188D01*
X23357Y12188D01*
X23680Y12188D01*
X23442Y11950D01*
X23332Y11784D01*
X23312Y11689D01*
X23273Y11649D01*
X23178Y11420D01*
X23178Y11171D01*
X23273Y10941D01*
X23449Y10765D01*
X23678Y10670D01*
X23927Y10670D01*
X24157Y10765D01*
X24333Y10941D01*
X24428Y11170D01*
X24428Y11419D01*
X24406Y11472D01*
X24471Y11536D01*
X26432Y8206D01*
X26465Y8169D01*
X26509Y8103D01*
X26547Y8078D01*
X26565Y8058D01*
X26609Y8037D01*
X26675Y7993D01*
X26715Y7985D01*
X26744Y7971D01*
X26800Y7968D01*
X26870Y7954D01*
X27147Y7954D01*
X27147Y7594D01*
X26860Y7594D01*
X26695Y7526D01*
X26569Y7400D01*
X26500Y7235D01*
X26500Y7056D01*
X26500Y6742D01*
X26568Y6577D01*
X26694Y6451D01*
X26859Y6382D01*
X27038Y6382D01*
X27115Y6382D01*
X27115Y4937D01*
X26860Y4937D01*
X26695Y4869D01*
X26569Y4743D01*
X26500Y4578D01*
X26500Y4399D01*
X26500Y4085D01*
X26568Y3920D01*
X26694Y3794D01*
X26859Y3725D01*
X27038Y3725D01*
X27515Y3725D01*
X27605Y3636D01*
X27605Y3047D01*
X27479Y2995D01*
X27353Y2869D01*
X27284Y2704D01*
X27284Y2525D01*
X27284Y1825D01*
X27352Y1660D01*
X27374Y1638D01*
X27255Y1638D01*
X26980Y1524D01*
X26903Y1448D01*
X26828Y1523D01*
X26553Y1638D01*
X26255Y1638D01*
X25980Y1524D01*
X25903Y1448D01*
X25828Y1523D01*
X25553Y1638D01*
X25448Y1638D01*
X25448Y5485D01*
X25448Y5734D01*
X25353Y5964D01*
X25177Y6140D01*
X24948Y6235D01*
X24699Y6235D01*
X24469Y6140D01*
X24388Y6060D01*
X17680Y5105D01*
X17680Y5213D01*
X17587Y5438D01*
X17559Y5466D01*
X17587Y5493D01*
X17681Y5718D01*
X17681Y5962D01*
X17588Y6187D01*
X17453Y6323D01*
X17453Y6395D01*
X17484Y6407D01*
X17610Y6533D01*
X17679Y6698D01*
X17679Y6877D01*
X17679Y7477D01*
X17611Y7642D01*
X17485Y7768D01*
X17320Y7837D01*
X17141Y7837D01*
X16541Y7837D01*
X16387Y7774D01*
X16237Y7837D01*
X16058Y7837D01*
X15831Y7837D01*
X15199Y8469D01*
X15199Y9353D01*
X15219Y9373D01*
X15314Y9602D01*
X15314Y9851D01*
X15219Y10081D01*
X15043Y10257D01*
X14814Y10352D01*
X14565Y10352D01*
X14396Y10283D01*
X14388Y10302D01*
X14311Y10379D01*
X14387Y10454D01*
X14502Y10729D01*
X14502Y11027D01*
X14388Y11302D01*
X14178Y11513D01*
X13903Y11628D01*
X13605Y11628D01*
X13330Y11514D01*
X13253Y11438D01*
X13219Y11472D01*
X13297Y11589D01*
X13298Y11590D01*
X13329Y11745D01*
X13337Y11784D01*
X13336Y11785D01*
X13337Y11785D01*
X13337Y14333D01*
X13298Y14528D01*
X13188Y14694D01*
X13185Y14696D01*
X12992Y14890D01*
X12826Y15000D01*
X12631Y15040D01*
X12626Y15039D01*
X12416Y15039D01*
X12416Y15207D01*
X12416Y15601D01*
X12348Y15766D01*
X12222Y15892D01*
X12057Y15961D01*
X11878Y15961D01*
X10384Y15961D01*
X10219Y15893D01*
X10093Y15767D01*
X10024Y15602D01*
X10024Y15423D01*
X10024Y15029D01*
X10044Y14981D01*
X10024Y14932D01*
X10024Y14753D01*
X10024Y14359D01*
X10092Y14194D01*
X10218Y14068D01*
X10383Y13999D01*
X10562Y13999D01*
X12056Y13999D01*
X12104Y14019D01*
X12317Y14019D01*
X12317Y13789D01*
X12222Y13884D01*
X12057Y13953D01*
X11878Y13953D01*
X10384Y13953D01*
X10219Y13885D01*
X10093Y13759D01*
X10024Y13594D01*
X10024Y13415D01*
X10024Y13021D01*
X10044Y12973D01*
X10024Y12924D01*
X10024Y12745D01*
X10024Y12351D01*
X10092Y12186D01*
X10218Y12060D01*
X10383Y11991D01*
X10562Y11991D01*
X10919Y11991D01*
X10945Y11966D01*
X10945Y11398D01*
X10944Y11393D01*
X10984Y11198D01*
X11094Y11032D01*
X11124Y11003D01*
X11124Y10975D01*
X11219Y10745D01*
X11395Y10569D01*
X11624Y10474D01*
X11729Y10474D01*
X11729Y6911D01*
X11695Y6896D01*
X11569Y6770D01*
X11500Y6605D01*
X11500Y6426D01*
X11500Y6307D01*
X11357Y6278D01*
X11291Y6234D01*
X11192Y6168D01*
X11190Y6166D01*
X10378Y5354D01*
X10351Y5354D01*
X10121Y5259D01*
X9945Y5083D01*
X9850Y4854D01*
X9850Y4605D01*
X9945Y4375D01*
X10121Y4199D01*
X10350Y4104D01*
X10599Y4104D01*
X10829Y4199D01*
X11005Y4375D01*
X11100Y4604D01*
X11100Y4633D01*
X11500Y5033D01*
X11500Y5010D01*
X11568Y4845D01*
X11694Y4719D01*
X11859Y4650D01*
X12038Y4650D01*
X12352Y4650D01*
X12517Y4718D01*
X12643Y4844D01*
X12712Y5009D01*
X12712Y5188D01*
X12712Y5657D01*
X12727Y5672D01*
X12853Y5672D01*
X13083Y5767D01*
X13259Y5943D01*
X13354Y6172D01*
X13354Y6421D01*
X13259Y6651D01*
X13083Y6827D01*
X12854Y6922D01*
X12749Y6922D01*
X12749Y8130D01*
X12901Y8130D01*
X13159Y8238D01*
X13198Y8199D01*
X13363Y8130D01*
X13542Y8130D01*
X14142Y8130D01*
X14199Y8154D01*
X14218Y8062D01*
X14328Y7896D01*
X15098Y7126D01*
X15098Y6699D01*
X15166Y6534D01*
X15292Y6408D01*
X15355Y6382D01*
X15355Y6336D01*
X15321Y6321D01*
X15148Y6149D01*
X15143Y6138D01*
X14957Y6138D01*
X14727Y6043D01*
X14551Y5867D01*
X14456Y5638D01*
X14456Y5389D01*
X14551Y5159D01*
X14555Y5155D01*
X14529Y4569D01*
X14530Y4557D01*
X14529Y4547D01*
X14545Y4464D01*
X14560Y4373D01*
X14565Y4364D01*
X14568Y4352D01*
X14619Y4275D01*
X14663Y4202D01*
X14671Y4196D01*
X14678Y4186D01*
X14757Y4134D01*
X14824Y4085D01*
X14834Y4083D01*
X14844Y4076D01*
X14926Y4060D01*
X15017Y4037D01*
X15029Y4039D01*
X15039Y4037D01*
X17382Y4037D01*
X17417Y4045D01*
X17454Y4042D01*
X24540Y5051D01*
X24698Y4985D01*
X24947Y4985D01*
X25177Y5080D01*
X25353Y5256D01*
X25448Y5485D01*
X25448Y1638D01*
X25255Y1638D01*
X24980Y1524D01*
X24903Y1448D01*
X24828Y1523D01*
X24553Y1638D01*
X24255Y1638D01*
X23980Y1524D01*
X23903Y1448D01*
X23828Y1523D01*
X23553Y1638D01*
X23255Y1638D01*
X22980Y1524D01*
X22903Y1448D01*
X22828Y1523D01*
X22553Y1638D01*
X22255Y1638D01*
X21980Y1524D01*
X21769Y1314D01*
X21654Y1039D01*
X21654Y741D01*
X21745Y521D01*
X21676Y355D01*
X21676Y57D01*
X21790Y-218D01*
X21834Y-263D01*
X21415Y-263D01*
X21458Y-221D01*
X21573Y54D01*
X21573Y352D01*
X21481Y572D01*
X21552Y739D01*
X21552Y1037D01*
X21438Y1312D01*
X21228Y1523D01*
X20953Y1638D01*
X20655Y1638D01*
X20380Y1524D01*
X20303Y1448D01*
X20228Y1523D01*
X19953Y1638D01*
X19655Y1638D01*
X19380Y1524D01*
X19303Y1448D01*
X19228Y1523D01*
X18953Y1638D01*
X18655Y1638D01*
X18380Y1524D01*
X18303Y1448D01*
X18228Y1523D01*
X17953Y1638D01*
X17655Y1638D01*
X17380Y1524D01*
X17303Y1448D01*
X17228Y1523D01*
X16953Y1638D01*
X16655Y1638D01*
X16380Y1524D01*
X16303Y1448D01*
X16228Y1523D01*
X15953Y1638D01*
X15655Y1638D01*
X15380Y1524D01*
X15303Y1448D01*
X15228Y1523D01*
X14953Y1638D01*
X14655Y1638D01*
X14380Y1524D01*
X14303Y1448D01*
X14228Y1523D01*
X13953Y1638D01*
X13655Y1638D01*
X13380Y1524D01*
X13169Y1314D01*
X13054Y1039D01*
X13054Y741D01*
X13144Y524D01*
X13074Y355D01*
X13074Y57D01*
X13188Y-218D01*
X13232Y-263D01*
X12360Y-263D01*
X12403Y-221D01*
X12518Y54D01*
X12518Y352D01*
X12454Y506D01*
X12552Y739D01*
X12552Y1037D01*
X12438Y1312D01*
X12228Y1523D01*
X11953Y1638D01*
X11655Y1638D01*
X11380Y1524D01*
X11303Y1448D01*
X11228Y1523D01*
X10953Y1638D01*
X10655Y1638D01*
X10380Y1524D01*
X10303Y1448D01*
X10228Y1523D01*
X9953Y1638D01*
X9826Y1638D01*
X9826Y1717D01*
X9731Y1947D01*
X9555Y2123D01*
X9517Y2139D01*
X9517Y4574D01*
X9517Y4872D01*
X9403Y5147D01*
X9193Y5358D01*
X8918Y5473D01*
X8620Y5473D01*
X8345Y5359D01*
X8134Y5149D01*
X8019Y4874D01*
X8019Y4576D01*
X8133Y4301D01*
X8343Y4090D01*
X8618Y3975D01*
X8916Y3975D01*
X9191Y4089D01*
X9402Y4299D01*
X9517Y4574D01*
X9517Y2139D01*
X9326Y2218D01*
X9077Y2218D01*
X8847Y2123D01*
X8827Y2103D01*
X7535Y2103D01*
X7340Y2064D01*
X7174Y1954D01*
X6858Y1638D01*
X6655Y1638D01*
X6511Y1579D01*
X6511Y6722D01*
X6511Y6901D01*
X6511Y7451D01*
X6443Y7616D01*
X6317Y7742D01*
X6152Y7811D01*
X5973Y7811D01*
X5623Y7811D01*
X5458Y7743D01*
X5332Y7617D01*
X5263Y7452D01*
X5263Y7273D01*
X5263Y6723D01*
X5331Y6558D01*
X5359Y6530D01*
X5359Y6019D01*
X4813Y5473D01*
X4683Y5473D01*
X4408Y5359D01*
X4197Y5149D01*
X4082Y4874D01*
X4082Y4576D01*
X4196Y4301D01*
X4406Y4090D01*
X4681Y3975D01*
X4979Y3975D01*
X5254Y4089D01*
X5465Y4299D01*
X5580Y4574D01*
X5580Y4797D01*
X6227Y5445D01*
X6229Y5446D01*
X6230Y5446D01*
X6295Y5546D01*
X6340Y5611D01*
X6340Y5612D01*
X6379Y5807D01*
X6379Y6494D01*
X6442Y6557D01*
X6511Y6722D01*
X6511Y1579D01*
X6380Y1524D01*
X6303Y1448D01*
X6228Y1523D01*
X5953Y1638D01*
X5655Y1638D01*
X5380Y1524D01*
X5303Y1448D01*
X5228Y1523D01*
X4953Y1638D01*
X4655Y1638D01*
X4380Y1524D01*
X4169Y1314D01*
X4054Y1039D01*
X4054Y741D01*
X4116Y590D01*
X4019Y355D01*
X4019Y57D01*
X4133Y-218D01*
X4177Y-263D01*
X131Y-263D01*
X131Y556D01*
X168Y466D01*
X378Y255D01*
X653Y140D01*
X951Y140D01*
X1226Y254D01*
X1302Y331D01*
X1378Y255D01*
X1653Y140D01*
X1951Y140D01*
X2226Y254D01*
X2437Y464D01*
X2552Y739D01*
X2552Y1037D01*
X2438Y1312D01*
X2361Y1389D01*
X2437Y1464D01*
X2552Y1739D01*
X2552Y2037D01*
X2438Y2312D01*
X2361Y2389D01*
X2437Y2464D01*
X2552Y2739D01*
X2552Y3037D01*
X2438Y3312D01*
X2361Y3389D01*
X2437Y3464D01*
X2552Y3739D01*
X2552Y4037D01*
X2438Y4312D01*
X2361Y4389D01*
X2437Y4464D01*
X2552Y4739D01*
X2552Y5037D01*
X2438Y5312D01*
X2361Y5389D01*
X2437Y5464D01*
X2552Y5739D01*
X2552Y6037D01*
X2438Y6312D01*
X2361Y6389D01*
X2437Y6464D01*
X2552Y6739D01*
X2552Y7037D01*
X2438Y7312D01*
X2361Y7389D01*
X2437Y7464D01*
X2552Y7739D01*
X2552Y8037D01*
X2438Y8312D01*
X2361Y8389D01*
X2437Y8464D01*
X2552Y8739D01*
X2552Y9037D01*
X2438Y9312D01*
X2361Y9389D01*
X2437Y9464D01*
X2552Y9739D01*
X2552Y10037D01*
X2438Y10312D01*
X2361Y10389D01*
X2437Y10464D01*
X2552Y10739D01*
X2552Y11037D01*
X2438Y11312D01*
X2361Y11389D01*
X2437Y11464D01*
X2552Y11739D01*
X2552Y12037D01*
X2438Y12312D01*
X2361Y12389D01*
X2437Y12464D01*
X2552Y12739D01*
X2552Y13037D01*
X2438Y13312D01*
X2361Y13389D01*
X2437Y13464D01*
X2552Y13739D01*
X2552Y14037D01*
X2438Y14312D01*
X2361Y14389D01*
X2437Y14464D01*
X2552Y14739D01*
X2552Y15037D01*
X2438Y15312D01*
X2361Y15389D01*
X2437Y15464D01*
X2552Y15739D01*
X2552Y16037D01*
X2438Y16312D01*
X2361Y16389D01*
X2437Y16464D01*
X2552Y16739D01*
X2552Y17037D01*
X2438Y17312D01*
X2228Y17523D01*
X1953Y17638D01*
X1655Y17638D01*
X1380Y17524D01*
X1303Y17448D01*
X1228Y17523D01*
X953Y17638D01*
X655Y17638D01*
X380Y17524D01*
X169Y17314D01*
X131Y17224D01*
X131Y21128D01*
X2205Y21128D01*
X2164Y21087D01*
X2049Y20812D01*
X2049Y20514D01*
X2150Y20270D01*
X2054Y20039D01*
X2054Y19741D01*
X2168Y19466D01*
X2378Y19255D01*
X2653Y19140D01*
X2951Y19140D01*
X3226Y19254D01*
X3302Y19331D01*
X3378Y19255D01*
X3653Y19140D01*
X3951Y19140D01*
X4226Y19254D01*
X4302Y19331D01*
X4378Y19255D01*
X4653Y19140D01*
X4951Y19140D01*
X5226Y19254D01*
X5302Y19331D01*
X5378Y19255D01*
X5653Y19140D01*
X5951Y19140D01*
X6226Y19254D01*
X6302Y19331D01*
X6378Y19255D01*
X6653Y19140D01*
X6951Y19140D01*
X7226Y19254D01*
X7302Y19331D01*
X7378Y19255D01*
X7653Y19140D01*
X7951Y19140D01*
X8226Y19254D01*
X8302Y19331D01*
X8378Y19255D01*
X8653Y19140D01*
X8951Y19140D01*
X9226Y19254D01*
X9302Y19331D01*
X9378Y19255D01*
X9653Y19140D01*
X9951Y19140D01*
X10226Y19254D01*
X10437Y19464D01*
X10552Y19739D01*
X10552Y20037D01*
X10451Y20280D01*
X10548Y20511D01*
X10548Y20809D01*
X10434Y21084D01*
X10390Y21128D01*
X11201Y21128D01*
X11160Y21087D01*
X11045Y20812D01*
X11045Y20514D01*
X11148Y20265D01*
X11054Y20039D01*
X11054Y19741D01*
X11168Y19466D01*
X11378Y19255D01*
X11653Y19140D01*
X11951Y19140D01*
X12226Y19254D01*
X12302Y19331D01*
X12378Y19255D01*
X12653Y19140D01*
X12951Y19140D01*
X13226Y19254D01*
X13302Y19331D01*
X13378Y19255D01*
X13653Y19140D01*
X13951Y19140D01*
X14226Y19254D01*
X14302Y19331D01*
X14378Y19255D01*
X14653Y19140D01*
X14951Y19140D01*
X15226Y19254D01*
X15302Y19331D01*
X15378Y19255D01*
X15653Y19140D01*
X15951Y19140D01*
X16226Y19254D01*
X16302Y19331D01*
X16378Y19255D01*
X16653Y19140D01*
X16951Y19140D01*
X17226Y19254D01*
X17302Y19331D01*
X17378Y19255D01*
X17653Y19140D01*
X17951Y19140D01*
X18226Y19254D01*
X18302Y19331D01*
X18378Y19255D01*
X18653Y19140D01*
X18951Y19140D01*
X19226Y19254D01*
X19437Y19464D01*
X19552Y19739D01*
X19552Y20037D01*
X19449Y20285D01*
X19544Y20511D01*
X19544Y20809D01*
X19430Y21084D01*
X19386Y21128D01*
X38451Y21128D01*
X38451Y-263D01*
X38451Y-263D01*
G37*
G54D37*
X38451Y-263D02*
X37560Y-263D01*
X37560Y1728D01*
X37560Y2026D01*
X37446Y2301D01*
X37260Y2488D01*
X37260Y16721D01*
X37260Y17135D01*
X37102Y17517D01*
X36810Y17810D01*
X36428Y17969D01*
X36014Y17969D01*
X35632Y17811D01*
X35339Y17519D01*
X35180Y17137D01*
X35180Y16723D01*
X35338Y16341D01*
X35630Y16048D01*
X36012Y15889D01*
X36426Y15889D01*
X36808Y16047D01*
X37101Y16339D01*
X37260Y16721D01*
X37260Y2488D01*
X37236Y2512D01*
X36961Y2627D01*
X36663Y2627D01*
X36388Y2513D01*
X36177Y2303D01*
X36062Y2028D01*
X36062Y1730D01*
X36176Y1455D01*
X36386Y1244D01*
X36661Y1129D01*
X36959Y1129D01*
X37234Y1243D01*
X37445Y1453D01*
X37560Y1728D01*
X37560Y-263D01*
X32530Y-263D01*
X32638Y-155D01*
X32707Y10D01*
X32707Y189D01*
X32707Y2353D01*
X32639Y2518D01*
X32513Y2644D01*
X32348Y2713D01*
X32169Y2713D01*
X30793Y2713D01*
X30628Y2645D01*
X30502Y2519D01*
X30433Y2354D01*
X30433Y2175D01*
X30433Y11D01*
X30501Y-154D01*
X30610Y-263D01*
X30017Y-263D01*
X30060Y-221D01*
X30175Y54D01*
X30175Y352D01*
X30082Y574D01*
X30152Y739D01*
X30152Y1037D01*
X30038Y1312D01*
X29939Y1411D01*
X30081Y1469D01*
X30207Y1595D01*
X30276Y1760D01*
X30276Y1939D01*
X30276Y2539D01*
X30208Y2704D01*
X30168Y2744D01*
X30276Y3000D01*
X30276Y3298D01*
X30162Y3573D01*
X30085Y3650D01*
X30161Y3725D01*
X30276Y4000D01*
X30276Y4298D01*
X30162Y4573D01*
X29997Y4739D01*
X29997Y7081D01*
X29958Y7276D01*
X29848Y7442D01*
X29845Y7444D01*
X29801Y7489D01*
X29801Y9202D01*
X30750Y8253D01*
X30792Y8190D01*
X31035Y7948D01*
X31035Y7259D01*
X31015Y7239D01*
X30920Y7010D01*
X30920Y6761D01*
X31015Y6531D01*
X31191Y6355D01*
X31420Y6260D01*
X31669Y6260D01*
X31819Y6322D01*
X31819Y6106D01*
X31818Y6101D01*
X31858Y5906D01*
X31968Y5740D01*
X32077Y5631D01*
X32046Y5556D01*
X32046Y5258D01*
X32160Y4983D01*
X32370Y4772D01*
X32645Y4657D01*
X32943Y4657D01*
X33188Y4759D01*
X33432Y4657D01*
X33730Y4657D01*
X34005Y4771D01*
X34216Y4981D01*
X34331Y5256D01*
X34331Y5554D01*
X34217Y5829D01*
X34007Y6040D01*
X33732Y6155D01*
X33501Y6155D01*
X33544Y6256D01*
X33544Y6554D01*
X33465Y6745D01*
X33730Y7459D01*
X33740Y7462D01*
X33916Y7638D01*
X34011Y7867D01*
X34011Y8116D01*
X33916Y8346D01*
X33740Y8522D01*
X33511Y8617D01*
X33262Y8617D01*
X33065Y8537D01*
X32639Y8963D01*
X32635Y8983D01*
X32604Y9138D01*
X32603Y9139D01*
X32494Y9304D01*
X32491Y9306D01*
X32434Y9364D01*
X32434Y9616D01*
X32366Y9781D01*
X32240Y9907D01*
X32235Y9909D01*
X32251Y9909D01*
X32330Y9909D01*
X32430Y9909D01*
X32590Y9909D01*
X32755Y9977D01*
X32806Y10028D01*
X32856Y9978D01*
X33021Y9909D01*
X33200Y9909D01*
X33271Y9909D01*
X33360Y9909D01*
X33450Y9909D01*
X33610Y9909D01*
X33775Y9977D01*
X33901Y10103D01*
X33970Y10268D01*
X33970Y10447D01*
X33970Y10947D01*
X33902Y11112D01*
X33776Y11238D01*
X33611Y11307D01*
X33432Y11307D01*
X33361Y11307D01*
X33272Y11307D01*
X33182Y11307D01*
X33022Y11307D01*
X32857Y11239D01*
X32806Y11188D01*
X32756Y11238D01*
X32708Y11258D01*
X32845Y11258D01*
X33075Y11353D01*
X33251Y11529D01*
X33346Y11758D01*
X33346Y11787D01*
X33569Y12011D01*
X33571Y12012D01*
X33572Y12012D01*
X33681Y12177D01*
X33682Y12178D01*
X33713Y12333D01*
X33721Y12372D01*
X33720Y12373D01*
X33721Y12373D01*
X33721Y12454D01*
X34400Y11705D01*
X34410Y11698D01*
X34418Y11686D01*
X34487Y11641D01*
X34560Y11586D01*
X34574Y11583D01*
X34584Y11576D01*
X34656Y11562D01*
X34692Y11553D01*
X34503Y11363D01*
X34393Y11098D01*
X34393Y10812D01*
X34503Y10547D01*
X34705Y10345D01*
X34970Y10235D01*
X35256Y10235D01*
X35521Y10345D01*
X35613Y10437D01*
X35705Y10345D01*
X35970Y10235D01*
X36256Y10235D01*
X36521Y10345D01*
X36723Y10547D01*
X36833Y10812D01*
X36833Y11098D01*
X36723Y11363D01*
X36706Y11380D01*
X36723Y11397D01*
X36833Y11662D01*
X36833Y11948D01*
X36723Y12213D01*
X36706Y12230D01*
X36723Y12247D01*
X36833Y12512D01*
X36833Y12798D01*
X36726Y13055D01*
X36833Y13312D01*
X36833Y13598D01*
X36723Y13863D01*
X36521Y14065D01*
X36256Y14175D01*
X35970Y14175D01*
X35705Y14065D01*
X35613Y13973D01*
X35521Y14065D01*
X35256Y14175D01*
X34970Y14175D01*
X34705Y14065D01*
X34503Y13863D01*
X34393Y13598D01*
X34393Y13312D01*
X34454Y13164D01*
X33970Y13699D01*
X33970Y13747D01*
X33902Y13912D01*
X33776Y14038D01*
X33611Y14107D01*
X33432Y14107D01*
X33361Y14107D01*
X33272Y14107D01*
X33182Y14107D01*
X33171Y14107D01*
X33167Y14409D01*
X33167Y14416D01*
X33147Y14507D01*
X33128Y14604D01*
X33125Y14608D01*
X33125Y14611D01*
X33069Y14692D01*
X33018Y14770D01*
X33015Y14772D01*
X33013Y14775D01*
X32927Y14830D01*
X32852Y14880D01*
X32848Y14881D01*
X32845Y14883D01*
X32741Y14903D01*
X32657Y14919D01*
X32650Y14919D01*
X31869Y14919D01*
X31873Y14923D01*
X31942Y15088D01*
X31942Y15267D01*
X31942Y15817D01*
X31874Y15982D01*
X31748Y16108D01*
X31663Y16144D01*
X31663Y16219D01*
X31895Y16451D01*
X32024Y16761D01*
X32024Y17031D01*
X33863Y18871D01*
X33865Y18872D01*
X33866Y18872D01*
X33976Y19038D01*
X34015Y19233D01*
X34015Y19473D01*
X34262Y19473D01*
X34427Y19541D01*
X34553Y19667D01*
X34622Y19832D01*
X34622Y20011D01*
X34622Y20325D01*
X34554Y20490D01*
X34428Y20616D01*
X34263Y20685D01*
X34084Y20685D01*
X32668Y20685D01*
X32503Y20617D01*
X32377Y20491D01*
X32308Y20326D01*
X32308Y20147D01*
X32308Y19833D01*
X32376Y19668D01*
X32502Y19542D01*
X32667Y19473D01*
X32846Y19473D01*
X32995Y19473D01*
X32995Y19445D01*
X31511Y17961D01*
X31511Y19270D01*
X31511Y19449D01*
X31511Y20099D01*
X31443Y20264D01*
X31317Y20390D01*
X31152Y20459D01*
X30973Y20459D01*
X29623Y20459D01*
X29458Y20391D01*
X29332Y20265D01*
X29263Y20100D01*
X29263Y19921D01*
X29263Y19271D01*
X29331Y19106D01*
X29457Y18980D01*
X29622Y18911D01*
X29801Y18911D01*
X31151Y18911D01*
X31316Y18979D01*
X31442Y19105D01*
X31511Y19270D01*
X31511Y17961D01*
X31322Y17772D01*
X31014Y17772D01*
X30704Y17644D01*
X30467Y17407D01*
X30338Y17097D01*
X30338Y16762D01*
X30466Y16452D01*
X30643Y16275D01*
X30643Y16134D01*
X30539Y16134D01*
X30309Y16039D01*
X30133Y15863D01*
X30123Y15842D01*
X30115Y15863D01*
X29939Y16039D01*
X29710Y16134D01*
X29636Y16134D01*
X29636Y16399D01*
X29568Y16564D01*
X29442Y16690D01*
X29277Y16759D01*
X29098Y16759D01*
X28598Y16759D01*
X28433Y16691D01*
X28307Y16565D01*
X28238Y16400D01*
X28238Y16221D01*
X28238Y15071D01*
X28306Y14906D01*
X28372Y14840D01*
X28372Y14601D01*
X28467Y14371D01*
X28643Y14195D01*
X28872Y14100D01*
X29096Y14100D01*
X29096Y12756D01*
X29100Y12732D01*
X29098Y12701D01*
X29121Y12627D01*
X29135Y12561D01*
X29150Y12538D01*
X29159Y12511D01*
X29203Y12459D01*
X29245Y12395D01*
X29269Y12379D01*
X29286Y12359D01*
X30594Y11307D01*
X30541Y11307D01*
X30442Y11307D01*
X30362Y11307D01*
X30281Y11307D01*
X30202Y11307D01*
X30102Y11307D01*
X29942Y11307D01*
X29777Y11239D01*
X29651Y11113D01*
X29582Y10948D01*
X29582Y10769D01*
X29582Y10697D01*
X29565Y10623D01*
X29566Y10616D01*
X29565Y10609D01*
X29565Y10450D01*
X29461Y10450D01*
X29231Y10355D01*
X29055Y10179D01*
X28960Y9950D01*
X28960Y9922D01*
X28930Y9892D01*
X28820Y9726D01*
X28780Y9531D01*
X28781Y9527D01*
X28781Y7315D01*
X28746Y7399D01*
X28620Y7525D01*
X28455Y7594D01*
X28276Y7594D01*
X28167Y7594D01*
X28167Y8464D01*
X28128Y8659D01*
X28018Y8825D01*
X27852Y8935D01*
X27657Y8974D01*
X27163Y8974D01*
X26312Y10419D01*
X26345Y10386D01*
X26612Y10275D01*
X26900Y10275D01*
X27166Y10385D01*
X27370Y10589D01*
X27481Y10856D01*
X27481Y11144D01*
X27371Y11410D01*
X27253Y11528D01*
X27253Y13472D01*
X27370Y13589D01*
X27481Y13856D01*
X27481Y14144D01*
X27371Y14410D01*
X27253Y14528D01*
X27253Y18911D01*
X28251Y18911D01*
X28416Y18979D01*
X28542Y19105D01*
X28611Y19270D01*
X28611Y19449D01*
X28611Y20099D01*
X28543Y20264D01*
X28417Y20390D01*
X28252Y20459D01*
X28073Y20459D01*
X26723Y20459D01*
X26558Y20391D01*
X26450Y20284D01*
X26438Y20312D01*
X26228Y20523D01*
X25953Y20638D01*
X25655Y20638D01*
X25380Y20524D01*
X25303Y20448D01*
X25228Y20523D01*
X24953Y20638D01*
X24655Y20638D01*
X24380Y20524D01*
X24303Y20448D01*
X24228Y20523D01*
X23953Y20638D01*
X23655Y20638D01*
X23380Y20524D01*
X23169Y20314D01*
X23054Y20039D01*
X23054Y19741D01*
X23168Y19466D01*
X23378Y19255D01*
X23653Y19140D01*
X23951Y19140D01*
X24226Y19254D01*
X24302Y19331D01*
X24378Y19255D01*
X24653Y19140D01*
X24951Y19140D01*
X25226Y19254D01*
X25302Y19331D01*
X25378Y19255D01*
X25653Y19140D01*
X25820Y19140D01*
X26233Y18728D01*
X26233Y14502D01*
X26142Y14411D01*
X26031Y14144D01*
X26031Y13856D01*
X26141Y13590D01*
X26233Y13498D01*
X26233Y11502D01*
X26142Y11411D01*
X26031Y11144D01*
X26031Y10897D01*
X25800Y11289D01*
X25800Y14992D01*
X25800Y15241D01*
X25705Y15471D01*
X25683Y15493D01*
X25667Y18543D01*
X25667Y18544D01*
X25660Y18577D01*
X25628Y18738D01*
X25518Y18904D01*
X25352Y19014D01*
X25157Y19053D01*
X21303Y19053D01*
X21306Y19335D01*
X21437Y19464D01*
X21552Y19739D01*
X21552Y20037D01*
X21438Y20312D01*
X21228Y20523D01*
X20953Y20638D01*
X20655Y20638D01*
X20380Y20524D01*
X20169Y20314D01*
X20054Y20039D01*
X20054Y19741D01*
X20168Y19466D01*
X20286Y19347D01*
X20277Y18549D01*
X20277Y18546D01*
X20277Y18543D01*
X20299Y18432D01*
X20314Y18354D01*
X20315Y18353D01*
X20316Y18348D01*
X20378Y18255D01*
X20422Y18186D01*
X20424Y18185D01*
X20426Y18182D01*
X20488Y18141D01*
X20586Y18074D01*
X20590Y18074D01*
X20592Y18072D01*
X20664Y18058D01*
X20781Y18033D01*
X20784Y18034D01*
X20787Y18033D01*
X24649Y18033D01*
X24659Y16158D01*
X23179Y16158D01*
X23014Y16090D01*
X22888Y15964D01*
X22819Y15799D01*
X22819Y15620D01*
X22819Y15226D01*
X22839Y15178D01*
X22819Y15129D01*
X22819Y14950D01*
X22819Y14556D01*
X22887Y14391D01*
X23013Y14265D01*
X23178Y14196D01*
X23357Y14196D01*
X24851Y14196D01*
X25016Y14264D01*
X25142Y14390D01*
X25184Y14492D01*
X25299Y14492D01*
X25529Y14587D01*
X25705Y14763D01*
X25800Y14992D01*
X25800Y11289D01*
X25324Y12096D01*
X25337Y12109D01*
X25339Y12110D01*
X25340Y12110D01*
X25449Y12275D01*
X25450Y12276D01*
X25481Y12431D01*
X25489Y12470D01*
X25488Y12471D01*
X25489Y12471D01*
X25489Y13255D01*
X25450Y13450D01*
X25340Y13616D01*
X25211Y13702D01*
X25211Y13790D01*
X25143Y13955D01*
X25017Y14081D01*
X24852Y14150D01*
X24673Y14150D01*
X23179Y14150D01*
X23014Y14082D01*
X22888Y13956D01*
X22819Y13791D01*
X22819Y13612D01*
X22819Y13218D01*
X22839Y13170D01*
X22819Y13121D01*
X22819Y12942D01*
X22819Y12548D01*
X22887Y12383D01*
X23013Y12257D01*
X23178Y12188D01*
X23357Y12188D01*
X23680Y12188D01*
X23442Y11950D01*
X23332Y11784D01*
X23312Y11689D01*
X23273Y11649D01*
X23178Y11420D01*
X23178Y11171D01*
X23273Y10941D01*
X23449Y10765D01*
X23678Y10670D01*
X23927Y10670D01*
X24157Y10765D01*
X24333Y10941D01*
X24428Y11170D01*
X24428Y11419D01*
X24406Y11472D01*
X24471Y11536D01*
X26432Y8206D01*
X26465Y8169D01*
X26509Y8103D01*
X26547Y8078D01*
X26565Y8058D01*
X26609Y8037D01*
X26675Y7993D01*
X26715Y7985D01*
X26744Y7971D01*
X26800Y7968D01*
X26870Y7954D01*
X27147Y7954D01*
X27147Y7594D01*
X26860Y7594D01*
X26695Y7526D01*
X26569Y7400D01*
X26500Y7235D01*
X26500Y7056D01*
X26500Y6742D01*
X26568Y6577D01*
X26694Y6451D01*
X26859Y6382D01*
X27038Y6382D01*
X27115Y6382D01*
X27115Y4937D01*
X26860Y4937D01*
X26695Y4869D01*
X26569Y4743D01*
X26500Y4578D01*
X26500Y4399D01*
X26500Y4085D01*
X26568Y3920D01*
X26694Y3794D01*
X26859Y3725D01*
X27038Y3725D01*
X27515Y3725D01*
X27605Y3636D01*
X27605Y3047D01*
X27479Y2995D01*
X27353Y2869D01*
X27284Y2704D01*
X27284Y2525D01*
X27284Y1825D01*
X27352Y1660D01*
X27374Y1638D01*
X27255Y1638D01*
X26980Y1524D01*
X26903Y1448D01*
X26828Y1523D01*
X26553Y1638D01*
X26255Y1638D01*
X25980Y1524D01*
X25903Y1448D01*
X25828Y1523D01*
X25553Y1638D01*
X25448Y1638D01*
X25448Y5485D01*
X25448Y5734D01*
X25353Y5964D01*
X25177Y6140D01*
X24948Y6235D01*
X24699Y6235D01*
X24469Y6140D01*
X24388Y6060D01*
X17680Y5105D01*
X17680Y5213D01*
X17587Y5438D01*
X17559Y5466D01*
X17587Y5493D01*
X17681Y5718D01*
X17681Y5962D01*
X17588Y6187D01*
X17453Y6323D01*
X17453Y6395D01*
X17484Y6407D01*
X17610Y6533D01*
X17679Y6698D01*
X17679Y6877D01*
X17679Y7477D01*
X17611Y7642D01*
X17485Y7768D01*
X17320Y7837D01*
X17141Y7837D01*
X16541Y7837D01*
X16387Y7774D01*
X16237Y7837D01*
X16058Y7837D01*
X15831Y7837D01*
X15199Y8469D01*
X15199Y9353D01*
X15219Y9373D01*
X15314Y9602D01*
X15314Y9851D01*
X15219Y10081D01*
X15043Y10257D01*
X14814Y10352D01*
X14565Y10352D01*
X14396Y10283D01*
X14388Y10302D01*
X14311Y10379D01*
X14387Y10454D01*
X14502Y10729D01*
X14502Y11027D01*
X14388Y11302D01*
X14178Y11513D01*
X13903Y11628D01*
X13605Y11628D01*
X13330Y11514D01*
X13253Y11438D01*
X13219Y11472D01*
X13297Y11589D01*
X13298Y11590D01*
X13329Y11745D01*
X13337Y11784D01*
X13336Y11785D01*
X13337Y11785D01*
X13337Y14333D01*
X13298Y14528D01*
X13188Y14694D01*
X13185Y14696D01*
X12992Y14890D01*
X12826Y15000D01*
X12631Y15040D01*
X12626Y15039D01*
X12416Y15039D01*
X12416Y15207D01*
X12416Y15601D01*
X12348Y15766D01*
X12222Y15892D01*
X12057Y15961D01*
X11878Y15961D01*
X10384Y15961D01*
X10219Y15893D01*
X10093Y15767D01*
X10024Y15602D01*
X10024Y15423D01*
X10024Y15029D01*
X10044Y14981D01*
X10024Y14932D01*
X10024Y14753D01*
X10024Y14359D01*
X10092Y14194D01*
X10218Y14068D01*
X10383Y13999D01*
X10562Y13999D01*
X12056Y13999D01*
X12104Y14019D01*
X12317Y14019D01*
X12317Y13789D01*
X12222Y13884D01*
X12057Y13953D01*
X11878Y13953D01*
X10384Y13953D01*
X10219Y13885D01*
X10093Y13759D01*
X10024Y13594D01*
X10024Y13415D01*
X10024Y13021D01*
X10044Y12973D01*
X10024Y12924D01*
X10024Y12745D01*
X10024Y12351D01*
X10092Y12186D01*
X10218Y12060D01*
X10383Y11991D01*
X10562Y11991D01*
X10919Y11991D01*
X10945Y11966D01*
X10945Y11398D01*
X10944Y11393D01*
X10984Y11198D01*
X11094Y11032D01*
X11124Y11003D01*
X11124Y10975D01*
X11219Y10745D01*
X11395Y10569D01*
X11624Y10474D01*
X11729Y10474D01*
X11729Y6911D01*
X11695Y6896D01*
X11569Y6770D01*
X11500Y6605D01*
X11500Y6426D01*
X11500Y6307D01*
X11357Y6278D01*
X11291Y6234D01*
X11192Y6168D01*
X11190Y6166D01*
X10378Y5354D01*
X10351Y5354D01*
X10121Y5259D01*
X9945Y5083D01*
X9850Y4854D01*
X9850Y4605D01*
X9945Y4375D01*
X10121Y4199D01*
X10350Y4104D01*
X10599Y4104D01*
X10829Y4199D01*
X11005Y4375D01*
X11100Y4604D01*
X11100Y4633D01*
X11500Y5033D01*
X11500Y5010D01*
X11568Y4845D01*
X11694Y4719D01*
X11859Y4650D01*
X12038Y4650D01*
X12352Y4650D01*
X12517Y4718D01*
X12643Y4844D01*
X12712Y5009D01*
X12712Y5188D01*
X12712Y5657D01*
X12727Y5672D01*
X12853Y5672D01*
X13083Y5767D01*
X13259Y5943D01*
X13354Y6172D01*
X13354Y6421D01*
X13259Y6651D01*
X13083Y6827D01*
X12854Y6922D01*
X12749Y6922D01*
X12749Y8130D01*
X12901Y8130D01*
X13159Y8238D01*
X13198Y8199D01*
X13363Y8130D01*
X13542Y8130D01*
X14142Y8130D01*
X14199Y8154D01*
X14218Y8062D01*
X14328Y7896D01*
X15098Y7126D01*
X15098Y6699D01*
X15166Y6534D01*
X15292Y6408D01*
X15355Y6382D01*
X15355Y6336D01*
X15321Y6321D01*
X15148Y6149D01*
X15143Y6138D01*
X14957Y6138D01*
X14727Y6043D01*
X14551Y5867D01*
X14456Y5638D01*
X14456Y5389D01*
X14551Y5159D01*
X14555Y5155D01*
X14529Y4569D01*
X14530Y4557D01*
X14529Y4547D01*
X14545Y4464D01*
X14560Y4373D01*
X14565Y4364D01*
X14568Y4352D01*
X14619Y4275D01*
X14663Y4202D01*
X14671Y4196D01*
X14678Y4186D01*
X14757Y4134D01*
X14824Y4085D01*
X14834Y4083D01*
X14844Y4076D01*
X14926Y4060D01*
X15017Y4037D01*
X15029Y4039D01*
X15039Y4037D01*
X17382Y4037D01*
X17417Y4045D01*
X17454Y4042D01*
X24540Y5051D01*
X24698Y4985D01*
X24947Y4985D01*
X25177Y5080D01*
X25353Y5256D01*
X25448Y5485D01*
X25448Y1638D01*
X25255Y1638D01*
X24980Y1524D01*
X24903Y1448D01*
X24828Y1523D01*
X24553Y1638D01*
X24255Y1638D01*
X23980Y1524D01*
X23903Y1448D01*
X23828Y1523D01*
X23553Y1638D01*
X23255Y1638D01*
X22980Y1524D01*
X22903Y1448D01*
X22828Y1523D01*
X22553Y1638D01*
X22255Y1638D01*
X21980Y1524D01*
X21769Y1314D01*
X21654Y1039D01*
X21654Y741D01*
X21745Y521D01*
X21676Y355D01*
X21676Y57D01*
X21790Y-218D01*
X21834Y-263D01*
X21415Y-263D01*
X21458Y-221D01*
X21573Y54D01*
X21573Y352D01*
X21481Y572D01*
X21552Y739D01*
X21552Y1037D01*
X21438Y1312D01*
X21228Y1523D01*
X20953Y1638D01*
X20655Y1638D01*
X20380Y1524D01*
X20303Y1448D01*
X20228Y1523D01*
X19953Y1638D01*
X19655Y1638D01*
X19380Y1524D01*
X19303Y1448D01*
X19228Y1523D01*
X18953Y1638D01*
X18655Y1638D01*
X18380Y1524D01*
X18303Y1448D01*
X18228Y1523D01*
X17953Y1638D01*
X17655Y1638D01*
X17380Y1524D01*
X17303Y1448D01*
X17228Y1523D01*
X16953Y1638D01*
X16655Y1638D01*
X16380Y1524D01*
X16303Y1448D01*
X16228Y1523D01*
X15953Y1638D01*
X15655Y1638D01*
X15380Y1524D01*
X15303Y1448D01*
X15228Y1523D01*
X14953Y1638D01*
X14655Y1638D01*
X14380Y1524D01*
X14303Y1448D01*
X14228Y1523D01*
X13953Y1638D01*
X13655Y1638D01*
X13380Y1524D01*
X13169Y1314D01*
X13054Y1039D01*
X13054Y741D01*
X13144Y524D01*
X13074Y355D01*
X13074Y57D01*
X13188Y-218D01*
X13232Y-263D01*
X12360Y-263D01*
X12403Y-221D01*
X12518Y54D01*
X12518Y352D01*
X12454Y506D01*
X12552Y739D01*
X12552Y1037D01*
X12438Y1312D01*
X12228Y1523D01*
X11953Y1638D01*
X11655Y1638D01*
X11380Y1524D01*
X11303Y1448D01*
X11228Y1523D01*
X10953Y1638D01*
X10655Y1638D01*
X10380Y1524D01*
X10303Y1448D01*
X10228Y1523D01*
X9953Y1638D01*
X9826Y1638D01*
X9826Y1717D01*
X9731Y1947D01*
X9555Y2123D01*
X9517Y2139D01*
X9517Y4574D01*
X9517Y4872D01*
X9403Y5147D01*
X9193Y5358D01*
X8918Y5473D01*
X8620Y5473D01*
X8345Y5359D01*
X8134Y5149D01*
X8019Y4874D01*
X8019Y4576D01*
X8133Y4301D01*
X8343Y4090D01*
X8618Y3975D01*
X8916Y3975D01*
X9191Y4089D01*
X9402Y4299D01*
X9517Y4574D01*
X9517Y2139D01*
X9326Y2218D01*
X9077Y2218D01*
X8847Y2123D01*
X8827Y2103D01*
X7535Y2103D01*
X7340Y2064D01*
X7174Y1954D01*
X6858Y1638D01*
X6655Y1638D01*
X6511Y1579D01*
X6511Y6722D01*
X6511Y6901D01*
X6511Y7451D01*
X6443Y7616D01*
X6317Y7742D01*
X6152Y7811D01*
X5973Y7811D01*
X5623Y7811D01*
X5458Y7743D01*
X5332Y7617D01*
X5263Y7452D01*
X5263Y7273D01*
X5263Y6723D01*
X5331Y6558D01*
X5359Y6530D01*
X5359Y6019D01*
X4813Y5473D01*
X4683Y5473D01*
X4408Y5359D01*
X4197Y5149D01*
X4082Y4874D01*
X4082Y4576D01*
X4196Y4301D01*
X4406Y4090D01*
X4681Y3975D01*
X4979Y3975D01*
X5254Y4089D01*
X5465Y4299D01*
X5580Y4574D01*
X5580Y4797D01*
X6227Y5445D01*
X6229Y5446D01*
X6230Y5446D01*
X6295Y5546D01*
X6340Y5611D01*
X6340Y5612D01*
X6379Y5807D01*
X6379Y6494D01*
X6442Y6557D01*
X6511Y6722D01*
X6511Y1579D01*
X6380Y1524D01*
X6303Y1448D01*
X6228Y1523D01*
X5953Y1638D01*
X5655Y1638D01*
X5380Y1524D01*
X5303Y1448D01*
X5228Y1523D01*
X4953Y1638D01*
X4655Y1638D01*
X4380Y1524D01*
X4169Y1314D01*
X4054Y1039D01*
X4054Y741D01*
X4116Y590D01*
X4019Y355D01*
X4019Y57D01*
X4133Y-218D01*
X4177Y-263D01*
X131Y-263D01*
X131Y556D01*
X168Y466D01*
X378Y255D01*
X653Y140D01*
X951Y140D01*
X1226Y254D01*
X1302Y331D01*
X1378Y255D01*
X1653Y140D01*
X1951Y140D01*
X2226Y254D01*
X2437Y464D01*
X2552Y739D01*
X2552Y1037D01*
X2438Y1312D01*
X2361Y1389D01*
X2437Y1464D01*
X2552Y1739D01*
X2552Y2037D01*
X2438Y2312D01*
X2361Y2389D01*
X2437Y2464D01*
X2552Y2739D01*
X2552Y3037D01*
X2438Y3312D01*
X2361Y3389D01*
X2437Y3464D01*
X2552Y3739D01*
X2552Y4037D01*
X2438Y4312D01*
X2361Y4389D01*
X2437Y4464D01*
X2552Y4739D01*
X2552Y5037D01*
X2438Y5312D01*
X2361Y5389D01*
X2437Y5464D01*
X2552Y5739D01*
X2552Y6037D01*
X2438Y6312D01*
X2361Y6389D01*
X2437Y6464D01*
X2552Y6739D01*
X2552Y7037D01*
X2438Y7312D01*
X2361Y7389D01*
X2437Y7464D01*
X2552Y7739D01*
X2552Y8037D01*
X2438Y8312D01*
X2361Y8389D01*
X2437Y8464D01*
X2552Y8739D01*
X2552Y9037D01*
X2438Y9312D01*
X2361Y9389D01*
X2437Y9464D01*
X2552Y9739D01*
X2552Y10037D01*
X2438Y10312D01*
X2361Y10389D01*
X2437Y10464D01*
X2552Y10739D01*
X2552Y11037D01*
X2438Y11312D01*
X2361Y11389D01*
X2437Y11464D01*
X2552Y11739D01*
X2552Y12037D01*
X2438Y12312D01*
X2361Y12389D01*
X2437Y12464D01*
X2552Y12739D01*
X2552Y13037D01*
X2438Y13312D01*
X2361Y13389D01*
X2437Y13464D01*
X2552Y13739D01*
X2552Y14037D01*
X2438Y14312D01*
X2361Y14389D01*
X2437Y14464D01*
X2552Y14739D01*
X2552Y15037D01*
X2438Y15312D01*
X2361Y15389D01*
X2437Y15464D01*
X2552Y15739D01*
X2552Y16037D01*
X2438Y16312D01*
X2361Y16389D01*
X2437Y16464D01*
X2552Y16739D01*
X2552Y17037D01*
X2438Y17312D01*
X2228Y17523D01*
X1953Y17638D01*
X1655Y17638D01*
X1380Y17524D01*
X1303Y17448D01*
X1228Y17523D01*
X953Y17638D01*
X655Y17638D01*
X380Y17524D01*
X169Y17314D01*
X131Y17224D01*
X131Y21128D01*
X2205Y21128D01*
X2164Y21087D01*
X2049Y20812D01*
X2049Y20514D01*
X2150Y20270D01*
X2054Y20039D01*
X2054Y19741D01*
X2168Y19466D01*
X2378Y19255D01*
X2653Y19140D01*
X2951Y19140D01*
X3226Y19254D01*
X3302Y19331D01*
X3378Y19255D01*
X3653Y19140D01*
X3951Y19140D01*
X4226Y19254D01*
X4302Y19331D01*
X4378Y19255D01*
X4653Y19140D01*
X4951Y19140D01*
X5226Y19254D01*
X5302Y19331D01*
X5378Y19255D01*
X5653Y19140D01*
X5951Y19140D01*
X6226Y19254D01*
X6302Y19331D01*
X6378Y19255D01*
X6653Y19140D01*
X6951Y19140D01*
X7226Y19254D01*
X7302Y19331D01*
X7378Y19255D01*
X7653Y19140D01*
X7951Y19140D01*
X8226Y19254D01*
X8302Y19331D01*
X8378Y19255D01*
X8653Y19140D01*
X8951Y19140D01*
X9226Y19254D01*
X9302Y19331D01*
X9378Y19255D01*
X9653Y19140D01*
X9951Y19140D01*
X10226Y19254D01*
X10437Y19464D01*
X10552Y19739D01*
X10552Y20037D01*
X10451Y20280D01*
X10548Y20511D01*
X10548Y20809D01*
X10434Y21084D01*
X10390Y21128D01*
X11201Y21128D01*
X11160Y21087D01*
X11045Y20812D01*
X11045Y20514D01*
X11148Y20265D01*
X11054Y20039D01*
X11054Y19741D01*
X11168Y19466D01*
X11378Y19255D01*
X11653Y19140D01*
X11951Y19140D01*
X12226Y19254D01*
X12302Y19331D01*
X12378Y19255D01*
X12653Y19140D01*
X12951Y19140D01*
X13226Y19254D01*
X13302Y19331D01*
X13378Y19255D01*
X13653Y19140D01*
X13951Y19140D01*
X14226Y19254D01*
X14302Y19331D01*
X14378Y19255D01*
X14653Y19140D01*
X14951Y19140D01*
X15226Y19254D01*
X15302Y19331D01*
X15378Y19255D01*
X15653Y19140D01*
X15951Y19140D01*
X16226Y19254D01*
X16302Y19331D01*
X16378Y19255D01*
X16653Y19140D01*
X16951Y19140D01*
X17226Y19254D01*
X17302Y19331D01*
X17378Y19255D01*
X17653Y19140D01*
X17951Y19140D01*
X18226Y19254D01*
X18302Y19331D01*
X18378Y19255D01*
X18653Y19140D01*
X18951Y19140D01*
X19226Y19254D01*
X19437Y19464D01*
X19552Y19739D01*
X19552Y20037D01*
X19449Y20285D01*
X19544Y20511D01*
X19544Y20809D01*
X19430Y21084D01*
X19386Y21128D01*
X38451Y21128D01*
X38451Y-263D01*
M02*
