G04 (created by PCBNEW-RS274X (2011-nov-30)-testing) date Mon 11 Jun 2012 06:12:24 PM EDT*
%MOIN*%
G04 Gerber Fmt 3.4, Leading zero omitted, Abs format*
%FSLAX34Y34*%
G01*
G70*
G90*
G04 APERTURE LIST*
%ADD10C,0.006*%
%ADD11R,0.06X0.06*%
%ADD12C,0.06*%
%ADD13C,0.0787*%
%ADD14R,0.1968X0.2165*%
%ADD15R,0.2165X0.1298*%
%ADD16C,0.1063*%
%ADD17C,0.055*%
%ADD18C,0.035*%
%ADD19C,0.012*%
%ADD20C,0.014*%
%ADD21C,0.01*%
G04 APERTURE END LIST*
G54D10*
G54D11*
X12238Y2173D03*
G54D12*
X13218Y2173D03*
X14198Y2173D03*
X13218Y3157D03*
X12238Y3157D03*
X14202Y3157D03*
G54D13*
X37218Y6140D03*
X37218Y8305D03*
G54D12*
X33825Y15756D03*
X33826Y16757D03*
X33826Y17757D03*
X33826Y18757D03*
X33826Y19757D03*
X33826Y20757D03*
X33826Y21757D03*
G54D11*
X37018Y22781D03*
G54D12*
X37018Y23765D03*
X37018Y24749D03*
X12118Y6874D03*
X11118Y6874D03*
X10118Y6874D03*
X9118Y6874D03*
X8118Y6874D03*
X7118Y6874D03*
X6118Y6874D03*
X5118Y6874D03*
X3118Y25874D03*
X4118Y25874D03*
X5118Y25874D03*
X6118Y25874D03*
X10118Y25874D03*
X12118Y25874D03*
X13118Y25874D03*
X9118Y25874D03*
X8118Y25874D03*
X7118Y25874D03*
X14118Y25874D03*
X15118Y25874D03*
X16118Y25874D03*
X19118Y25874D03*
X18118Y25874D03*
X17118Y25874D03*
X21118Y25875D03*
X22118Y25874D03*
X23118Y25874D03*
X25118Y25874D03*
X26118Y25874D03*
X14118Y6874D03*
X15118Y6874D03*
X16118Y6874D03*
X17118Y6874D03*
X18118Y6874D03*
X19118Y6874D03*
X20118Y6874D03*
X21118Y6874D03*
X22718Y6874D03*
X23718Y6874D03*
X24718Y6874D03*
X25718Y6874D03*
X26718Y6874D03*
X27718Y6874D03*
X28718Y6874D03*
X29718Y6874D03*
X24118Y25874D03*
X2118Y7874D03*
X1118Y7874D03*
X2118Y8874D03*
X1118Y8874D03*
X2118Y9874D03*
X1118Y9874D03*
X2118Y10874D03*
X1118Y10874D03*
X2118Y6874D03*
X1118Y6874D03*
X1118Y11874D03*
X2118Y11874D03*
X2118Y12874D03*
X1118Y12874D03*
X2118Y13874D03*
X1118Y13874D03*
X2118Y14874D03*
X1118Y14874D03*
X2118Y15874D03*
X1118Y15874D03*
X2118Y16874D03*
X1118Y16874D03*
X2118Y17874D03*
X1118Y17874D03*
X2118Y18874D03*
X1118Y18874D03*
X2118Y19874D03*
X1118Y19874D03*
X2118Y20874D03*
X1118Y20874D03*
X2118Y21874D03*
X1118Y21874D03*
X2118Y22874D03*
X1118Y22874D03*
X2118Y23874D03*
X1118Y23874D03*
G54D11*
X23418Y2665D03*
G54D12*
X24418Y2665D03*
G54D14*
X19018Y2766D03*
G54D15*
X19018Y4765D03*
G54D12*
X33110Y12390D03*
X33110Y11390D03*
X33897Y11390D03*
X33897Y12390D03*
G54D16*
X34960Y14252D03*
X34960Y9528D03*
G54D11*
X2118Y3265D03*
G54D12*
X3118Y3265D03*
G54D11*
X30118Y14665D03*
G54D12*
X30118Y13665D03*
X30118Y12665D03*
G54D11*
X24918Y5165D03*
G54D12*
X23918Y5165D03*
X22918Y5165D03*
G54D17*
X28868Y23415D03*
X28868Y25415D03*
X31868Y23415D03*
X31868Y25415D03*
G54D18*
X24902Y12379D03*
X29214Y4441D03*
X34212Y5715D03*
X26764Y11791D03*
X32840Y4441D03*
X8046Y8557D03*
X10888Y10223D03*
X17552Y12967D03*
X13142Y12379D03*
X15004Y11791D03*
X5008Y3559D03*
X30335Y18484D03*
X32008Y19862D03*
X14416Y6205D03*
X11966Y5519D03*
X12652Y6401D03*
X15200Y3363D03*
X10551Y5590D03*
X10398Y13261D03*
X9418Y14241D03*
X16866Y12967D03*
X15886Y11987D03*
X10888Y8557D03*
X14808Y12967D03*
X29900Y11693D03*
X9665Y5787D03*
X26960Y16495D03*
X22550Y14143D03*
X9712Y12379D03*
X24608Y14143D03*
X19806Y12477D03*
X20590Y1850D03*
X11732Y8937D03*
X8976Y8425D03*
X30827Y21437D03*
G54D19*
X37250Y8263D02*
X37218Y8305D01*
X26176Y12379D02*
X24902Y12379D01*
X36760Y8263D02*
X37250Y8263D01*
X34212Y5715D02*
X36760Y8263D01*
X29214Y4441D02*
X32840Y4441D01*
X26764Y11791D02*
X26176Y12379D01*
X3118Y3265D02*
X3146Y3265D01*
X3146Y3265D02*
X3440Y3559D01*
X9712Y10223D02*
X10888Y10223D01*
X30096Y14633D02*
X30118Y14665D01*
X19218Y14633D02*
X30096Y14633D01*
X17552Y12967D02*
X19218Y14633D01*
X3440Y3559D02*
X5008Y3559D01*
X8046Y8557D02*
X9712Y10223D01*
X13142Y12379D02*
X13730Y11791D01*
X13730Y11791D02*
X15004Y11791D01*
X32008Y19862D02*
X30335Y18484D01*
X32840Y12673D02*
X30096Y12673D01*
X33110Y12390D02*
X33134Y12379D01*
X30096Y12673D02*
X30118Y12665D01*
X33134Y12379D02*
X32840Y12673D01*
X20100Y6891D02*
X19414Y6205D01*
X19414Y6205D02*
X14416Y6205D01*
X20118Y6874D02*
X20100Y6891D01*
X12358Y5029D02*
X14220Y3167D01*
X20590Y7381D02*
X13828Y7381D01*
X11966Y5519D02*
X12358Y5127D01*
X12848Y6401D02*
X12652Y6401D01*
X21118Y6874D02*
X21080Y6891D01*
X12358Y5127D02*
X12358Y5029D01*
X14220Y3167D02*
X14202Y3157D01*
X13828Y7381D02*
X12848Y6401D01*
X21080Y6891D02*
X20590Y7381D01*
X13240Y3167D02*
X13218Y3157D01*
X14514Y2677D02*
X13926Y2677D01*
X15200Y3363D02*
X14514Y2677D01*
X13436Y3167D02*
X13240Y3167D01*
X13926Y2677D02*
X13436Y3167D01*
X13218Y2173D02*
X12716Y2736D01*
X12716Y3523D02*
X10551Y5590D01*
X12716Y2736D02*
X12716Y3523D01*
X10398Y13261D02*
X9418Y14241D01*
X19022Y14927D02*
X17454Y13359D01*
X33826Y17757D02*
X33820Y17769D01*
X8830Y7381D02*
X8340Y6891D01*
X29312Y14927D02*
X19022Y14927D01*
X33820Y17769D02*
X32154Y16103D01*
X32154Y16103D02*
X31762Y16103D01*
X29606Y15221D02*
X29312Y14927D01*
X15886Y11987D02*
X11280Y7381D01*
X8340Y6891D02*
X8144Y6891D01*
X17454Y13359D02*
X17356Y13359D01*
X16964Y12967D02*
X16866Y12967D01*
X31762Y16103D02*
X30880Y15221D01*
X8144Y6891D02*
X8118Y6874D01*
X30880Y15221D02*
X29606Y15221D01*
X11280Y7381D02*
X8830Y7381D01*
X17356Y13359D02*
X16964Y12967D01*
X17258Y13653D02*
X17160Y13653D01*
X16278Y12967D02*
X14808Y12967D01*
X29116Y15221D02*
X18826Y15221D01*
X16670Y13359D02*
X16278Y12967D01*
X30586Y15515D02*
X29410Y15515D01*
X29410Y15515D02*
X29116Y15221D01*
X33826Y18757D02*
X33820Y18749D01*
X33820Y18749D02*
X30586Y15515D01*
X17160Y13653D02*
X16866Y13359D01*
X18826Y15221D02*
X17258Y13653D01*
X10888Y8557D02*
X10006Y7675D01*
X7850Y7381D02*
X7360Y6891D01*
X8634Y7675D02*
X8340Y7381D01*
X7164Y6891D02*
X7118Y6874D01*
X10006Y7675D02*
X8634Y7675D01*
X16866Y13359D02*
X16670Y13359D01*
X7360Y6891D02*
X7164Y6891D01*
X8340Y7381D02*
X7850Y7381D01*
X25196Y7185D02*
X29704Y11693D01*
X24216Y6401D02*
X25000Y6401D01*
X22942Y5127D02*
X24216Y6401D01*
X22918Y5165D02*
X22942Y5127D01*
X29704Y11693D02*
X29900Y11693D01*
X25000Y6401D02*
X25196Y6597D01*
X25196Y6597D02*
X25196Y7185D01*
X24902Y5127D02*
X24412Y4637D01*
X24918Y5165D02*
X24902Y5127D01*
X22648Y4735D02*
X19022Y4735D01*
X24412Y4637D02*
X22746Y4637D01*
X19022Y4735D02*
X19018Y4765D01*
X22746Y4637D02*
X22648Y4735D01*
X37054Y22767D02*
X37018Y22781D01*
X31762Y21297D02*
X34114Y21297D01*
X26960Y16495D02*
X31762Y21297D01*
X13632Y12477D02*
X19806Y12477D01*
X13338Y12771D02*
X13632Y12477D01*
X10104Y12771D02*
X13338Y12771D01*
X35584Y22767D02*
X37054Y22767D01*
G54D20*
X12238Y3157D02*
X9665Y5787D01*
G54D19*
X22550Y14143D02*
X24608Y14143D01*
X9712Y12379D02*
X10104Y12771D01*
X34114Y21297D02*
X35584Y22767D01*
X23040Y23943D02*
X31958Y23943D01*
X32154Y23845D02*
X32252Y23747D01*
X21080Y25903D02*
X23040Y23943D01*
X32056Y23845D02*
X32154Y23845D01*
X32252Y23747D02*
X37054Y23747D01*
X37054Y23747D02*
X37018Y23765D01*
X21118Y25875D02*
X21080Y25903D01*
X31958Y23943D02*
X32056Y23845D01*
X28868Y25415D02*
X28822Y25413D01*
X28822Y25413D02*
X28332Y25903D01*
X28332Y25903D02*
X26078Y25903D01*
X26078Y25903D02*
X26118Y25874D01*
X31868Y25415D02*
X31860Y25413D01*
X31860Y25413D02*
X28822Y25413D01*
X28822Y25413D02*
X28868Y25415D01*
G54D10*
G36*
X33897Y20757D02*
X33826Y20686D01*
X33755Y20757D01*
X33793Y20795D01*
X33859Y20795D01*
X33897Y20757D01*
X33897Y20757D01*
G37*
G54D21*
X33897Y20757D02*
X33826Y20686D01*
X33755Y20757D01*
X33793Y20795D01*
X33859Y20795D01*
X33897Y20757D01*
G54D10*
G36*
X38970Y596D02*
X38727Y596D01*
X38727Y19660D01*
X38727Y20062D01*
X38573Y20434D01*
X38289Y20719D01*
X37917Y20874D01*
X37760Y20874D01*
X37515Y20874D01*
X36753Y20874D01*
X36381Y20720D01*
X36096Y20436D01*
X35941Y20064D01*
X35941Y19662D01*
X36095Y19290D01*
X36379Y19005D01*
X36751Y18850D01*
X37153Y18850D01*
X37915Y18850D01*
X38287Y19004D01*
X38572Y19288D01*
X38727Y19660D01*
X38727Y596D01*
X38715Y596D01*
X38715Y16708D01*
X38715Y17110D01*
X38562Y17482D01*
X38277Y17766D01*
X37906Y17921D01*
X37504Y17921D01*
X36740Y17921D01*
X36368Y17768D01*
X36084Y17483D01*
X35929Y17112D01*
X35929Y16710D01*
X36082Y16338D01*
X36367Y16054D01*
X36738Y15899D01*
X37140Y15899D01*
X37904Y15899D01*
X38276Y16052D01*
X38560Y16337D01*
X38715Y16708D01*
X38715Y596D01*
X38250Y596D01*
X38250Y3059D01*
X38250Y3469D01*
X38093Y3848D01*
X38053Y3889D01*
X38053Y8138D01*
X38053Y8470D01*
X37926Y8777D01*
X37692Y9012D01*
X37385Y9140D01*
X37053Y9140D01*
X36746Y9013D01*
X36511Y8779D01*
X36459Y8655D01*
X36458Y8655D01*
X36405Y8618D01*
X35743Y7956D01*
X35743Y9392D01*
X35743Y14116D01*
X35736Y14427D01*
X35632Y14678D01*
X35513Y14734D01*
X35442Y14663D01*
X35442Y14805D01*
X35386Y14924D01*
X35096Y15035D01*
X34785Y15028D01*
X34534Y14924D01*
X34478Y14805D01*
X34960Y14323D01*
X35442Y14805D01*
X35442Y14663D01*
X35031Y14252D01*
X35513Y13770D01*
X35632Y13826D01*
X35743Y14116D01*
X35743Y9392D01*
X35736Y9703D01*
X35632Y9954D01*
X35513Y10010D01*
X35442Y9939D01*
X35442Y10081D01*
X35442Y13699D01*
X34960Y14181D01*
X34889Y14110D01*
X34889Y14252D01*
X34407Y14734D01*
X34288Y14678D01*
X34177Y14388D01*
X34184Y14077D01*
X34288Y13826D01*
X34407Y13770D01*
X34889Y14252D01*
X34889Y14110D01*
X34478Y13699D01*
X34534Y13580D01*
X34824Y13469D01*
X35135Y13476D01*
X35386Y13580D01*
X35442Y13699D01*
X35442Y10081D01*
X35386Y10200D01*
X35096Y10311D01*
X34785Y10304D01*
X34534Y10200D01*
X34478Y10081D01*
X34960Y9599D01*
X35442Y10081D01*
X35442Y9939D01*
X35031Y9528D01*
X35513Y9046D01*
X35632Y9102D01*
X35743Y9392D01*
X35743Y7956D01*
X35442Y7655D01*
X35442Y8975D01*
X34960Y9457D01*
X34889Y9386D01*
X34889Y9528D01*
X34407Y10010D01*
X34288Y9954D01*
X34177Y9664D01*
X34184Y9353D01*
X34288Y9102D01*
X34407Y9046D01*
X34889Y9528D01*
X34889Y9386D01*
X34478Y8975D01*
X34534Y8856D01*
X34824Y8745D01*
X35135Y8752D01*
X35386Y8856D01*
X35442Y8975D01*
X35442Y7655D01*
X34119Y6332D01*
X34090Y6332D01*
X34064Y6322D01*
X34196Y6637D01*
X34196Y7061D01*
X34034Y7453D01*
X33735Y7753D01*
X33343Y7916D01*
X32919Y7916D01*
X32527Y7754D01*
X32227Y7455D01*
X32064Y7063D01*
X32064Y6639D01*
X32226Y6247D01*
X32525Y5947D01*
X32917Y5784D01*
X33341Y5784D01*
X33620Y5900D01*
X33595Y5838D01*
X33595Y5593D01*
X33689Y5366D01*
X33862Y5192D01*
X34089Y5098D01*
X34334Y5098D01*
X34561Y5192D01*
X34735Y5365D01*
X34829Y5592D01*
X34829Y5622D01*
X36787Y7581D01*
X37051Y7470D01*
X37383Y7470D01*
X37690Y7597D01*
X37925Y7831D01*
X38053Y8138D01*
X38053Y3889D01*
X37864Y4078D01*
X37864Y6037D01*
X37855Y6292D01*
X37776Y6483D01*
X37671Y6522D01*
X37600Y6451D01*
X37600Y6593D01*
X37561Y6698D01*
X37321Y6786D01*
X37066Y6777D01*
X36875Y6698D01*
X36836Y6593D01*
X37218Y6211D01*
X37600Y6593D01*
X37600Y6451D01*
X37289Y6140D01*
X37671Y5758D01*
X37776Y5797D01*
X37864Y6037D01*
X37864Y4078D01*
X37803Y4139D01*
X37600Y4224D01*
X37600Y5687D01*
X37218Y6069D01*
X37147Y5998D01*
X37147Y6140D01*
X36765Y6522D01*
X36660Y6483D01*
X36572Y6243D01*
X36581Y5988D01*
X36660Y5797D01*
X36765Y5758D01*
X37147Y6140D01*
X37147Y5998D01*
X36836Y5687D01*
X36875Y5582D01*
X37115Y5494D01*
X37370Y5503D01*
X37561Y5582D01*
X37600Y5687D01*
X37600Y4224D01*
X37424Y4297D01*
X37014Y4297D01*
X36635Y4140D01*
X36344Y3850D01*
X36186Y3471D01*
X36186Y3061D01*
X36343Y2682D01*
X36633Y2391D01*
X37012Y2233D01*
X37422Y2233D01*
X37801Y2390D01*
X38092Y2680D01*
X38250Y3059D01*
X38250Y596D01*
X33457Y596D01*
X33457Y4318D01*
X33457Y4563D01*
X33363Y4790D01*
X33190Y4964D01*
X32963Y5058D01*
X32718Y5058D01*
X32491Y4964D01*
X32469Y4943D01*
X29584Y4943D01*
X29564Y4964D01*
X29337Y5058D01*
X29092Y5058D01*
X28865Y4964D01*
X28691Y4791D01*
X28597Y4564D01*
X28597Y4319D01*
X28691Y4092D01*
X28864Y3918D01*
X29091Y3824D01*
X29336Y3824D01*
X29563Y3918D01*
X29584Y3939D01*
X32469Y3939D01*
X32490Y3918D01*
X32717Y3824D01*
X32962Y3824D01*
X33189Y3918D01*
X33363Y4091D01*
X33457Y4318D01*
X33457Y596D01*
X25160Y596D01*
X25160Y2517D01*
X25160Y2812D01*
X25047Y3085D01*
X24839Y3294D01*
X24566Y3407D01*
X24271Y3407D01*
X23998Y3294D01*
X23869Y3166D01*
X23859Y3176D01*
X23767Y3214D01*
X23530Y3215D01*
X23468Y3153D01*
X23468Y2765D01*
X23468Y2715D01*
X23468Y2615D01*
X23468Y2565D01*
X23468Y2177D01*
X23530Y2115D01*
X23767Y2116D01*
X23859Y2154D01*
X23869Y2165D01*
X23997Y2036D01*
X24270Y1923D01*
X24565Y1923D01*
X24838Y2036D01*
X25047Y2244D01*
X25160Y2517D01*
X25160Y596D01*
X23368Y596D01*
X23368Y2177D01*
X23368Y2615D01*
X23368Y2715D01*
X23368Y3153D01*
X23306Y3215D01*
X23069Y3214D01*
X22977Y3176D01*
X22907Y3106D01*
X22869Y3015D01*
X22869Y2916D01*
X22868Y2777D01*
X22930Y2715D01*
X23368Y2715D01*
X23368Y2615D01*
X22930Y2615D01*
X22868Y2553D01*
X22869Y2414D01*
X22869Y2315D01*
X22907Y2224D01*
X22977Y2154D01*
X23069Y2116D01*
X23306Y2115D01*
X23368Y2177D01*
X23368Y596D01*
X5625Y596D01*
X5625Y3436D01*
X5625Y3681D01*
X5531Y3908D01*
X5358Y4082D01*
X5131Y4176D01*
X4886Y4176D01*
X4659Y4082D01*
X4637Y4061D01*
X3440Y4061D01*
X3248Y4023D01*
X3224Y4007D01*
X2971Y4007D01*
X2698Y3894D01*
X2569Y3766D01*
X2559Y3776D01*
X2467Y3814D01*
X2230Y3815D01*
X2168Y3753D01*
X2168Y3365D01*
X2168Y3315D01*
X2168Y3215D01*
X2168Y3165D01*
X2168Y2777D01*
X2230Y2715D01*
X2467Y2716D01*
X2559Y2754D01*
X2569Y2765D01*
X2697Y2636D01*
X2970Y2523D01*
X3265Y2523D01*
X3538Y2636D01*
X3747Y2844D01*
X3835Y3057D01*
X4637Y3057D01*
X4658Y3036D01*
X4885Y2942D01*
X5130Y2942D01*
X5357Y3036D01*
X5531Y3209D01*
X5625Y3436D01*
X5625Y596D01*
X2068Y596D01*
X2068Y2777D01*
X2068Y3215D01*
X2068Y3315D01*
X2068Y3753D01*
X2006Y3815D01*
X1769Y3814D01*
X1677Y3776D01*
X1607Y3706D01*
X1569Y3615D01*
X1569Y3516D01*
X1568Y3377D01*
X1630Y3315D01*
X2068Y3315D01*
X2068Y3215D01*
X1630Y3215D01*
X1568Y3153D01*
X1569Y3014D01*
X1569Y2915D01*
X1607Y2824D01*
X1677Y2754D01*
X1769Y2716D01*
X2006Y2715D01*
X2068Y2777D01*
X2068Y596D01*
X635Y596D01*
X635Y6308D01*
X697Y6245D01*
X970Y6132D01*
X1265Y6132D01*
X1538Y6245D01*
X1617Y6325D01*
X1697Y6245D01*
X1970Y6132D01*
X2265Y6132D01*
X2538Y6245D01*
X2672Y6379D01*
X2714Y6277D01*
X3013Y5977D01*
X3405Y5814D01*
X3829Y5814D01*
X4221Y5976D01*
X4521Y6275D01*
X4564Y6379D01*
X4697Y6245D01*
X4970Y6132D01*
X5265Y6132D01*
X5538Y6245D01*
X5617Y6325D01*
X5697Y6245D01*
X5970Y6132D01*
X6265Y6132D01*
X6538Y6245D01*
X6617Y6325D01*
X6697Y6245D01*
X6970Y6132D01*
X7265Y6132D01*
X7538Y6245D01*
X7617Y6325D01*
X7697Y6245D01*
X7970Y6132D01*
X8265Y6132D01*
X8538Y6245D01*
X8617Y6325D01*
X8697Y6245D01*
X8970Y6132D01*
X9139Y6132D01*
X9048Y5910D01*
X9048Y5665D01*
X9142Y5438D01*
X9315Y5264D01*
X9542Y5170D01*
X9552Y5170D01*
X11496Y3186D01*
X11496Y3010D01*
X11600Y2759D01*
X11565Y2723D01*
X11497Y2561D01*
X11497Y2386D01*
X11497Y1786D01*
X11564Y1624D01*
X11688Y1500D01*
X11850Y1432D01*
X12025Y1432D01*
X12625Y1432D01*
X12787Y1499D01*
X12821Y1534D01*
X13070Y1431D01*
X13365Y1431D01*
X13638Y1544D01*
X13707Y1614D01*
X13777Y1544D01*
X14050Y1431D01*
X14345Y1431D01*
X14618Y1544D01*
X14827Y1752D01*
X14940Y2025D01*
X14940Y2320D01*
X14918Y2372D01*
X15293Y2746D01*
X15322Y2746D01*
X15549Y2840D01*
X15723Y3013D01*
X15817Y3240D01*
X15817Y3485D01*
X15723Y3712D01*
X15550Y3886D01*
X15323Y3980D01*
X15078Y3980D01*
X14851Y3886D01*
X14686Y3723D01*
X14623Y3786D01*
X14350Y3899D01*
X14198Y3899D01*
X12833Y5264D01*
X12832Y5265D01*
X12822Y5319D01*
X12822Y5320D01*
X12713Y5482D01*
X12583Y5612D01*
X12583Y5641D01*
X12522Y5787D01*
X12529Y5784D01*
X12774Y5784D01*
X13001Y5878D01*
X13102Y5979D01*
X13203Y6046D01*
X13549Y6393D01*
X13697Y6245D01*
X13799Y6203D01*
X13799Y6083D01*
X13893Y5856D01*
X14066Y5682D01*
X14293Y5588D01*
X14538Y5588D01*
X14765Y5682D01*
X14786Y5703D01*
X17602Y5703D01*
X17563Y5664D01*
X17495Y5502D01*
X17495Y5327D01*
X17495Y4029D01*
X17562Y3867D01*
X17686Y3743D01*
X17784Y3702D01*
X17784Y2878D01*
X17846Y2816D01*
X18202Y2816D01*
X18202Y2716D01*
X17846Y2716D01*
X17784Y2654D01*
X17785Y1635D01*
X17823Y1543D01*
X17893Y1473D01*
X17984Y1435D01*
X18083Y1435D01*
X18906Y1434D01*
X18968Y1496D01*
X18968Y1509D01*
X19068Y1509D01*
X19068Y1496D01*
X19130Y1434D01*
X19953Y1435D01*
X20052Y1435D01*
X20143Y1473D01*
X20213Y1543D01*
X20251Y1635D01*
X20252Y2654D01*
X20190Y2716D01*
X19834Y2716D01*
X19834Y2816D01*
X20190Y2816D01*
X20252Y2878D01*
X20251Y3702D01*
X20349Y3742D01*
X20473Y3866D01*
X20541Y4028D01*
X20541Y4203D01*
X20541Y4233D01*
X22464Y4233D01*
X22553Y4174D01*
X22554Y4173D01*
X22746Y4135D01*
X24412Y4135D01*
X24604Y4173D01*
X24767Y4282D01*
X24909Y4424D01*
X25305Y4424D01*
X25467Y4491D01*
X25591Y4615D01*
X25659Y4777D01*
X25659Y4952D01*
X25659Y5552D01*
X25592Y5714D01*
X25468Y5838D01*
X25306Y5906D01*
X25131Y5906D01*
X25035Y5906D01*
X25192Y5937D01*
X25355Y6046D01*
X25478Y6170D01*
X25570Y6132D01*
X25865Y6132D01*
X26138Y6245D01*
X26217Y6325D01*
X26297Y6245D01*
X26570Y6132D01*
X26865Y6132D01*
X27138Y6245D01*
X27217Y6325D01*
X27297Y6245D01*
X27570Y6132D01*
X27865Y6132D01*
X28138Y6245D01*
X28217Y6325D01*
X28297Y6245D01*
X28570Y6132D01*
X28865Y6132D01*
X29138Y6245D01*
X29217Y6325D01*
X29297Y6245D01*
X29570Y6132D01*
X29865Y6132D01*
X30138Y6245D01*
X30347Y6453D01*
X30460Y6726D01*
X30460Y7021D01*
X30347Y7294D01*
X30139Y7503D01*
X29866Y7616D01*
X29571Y7616D01*
X29298Y7503D01*
X29218Y7424D01*
X29139Y7503D01*
X28866Y7616D01*
X28571Y7616D01*
X28298Y7503D01*
X28218Y7424D01*
X28139Y7503D01*
X27866Y7616D01*
X27571Y7616D01*
X27298Y7503D01*
X27218Y7424D01*
X27139Y7503D01*
X26866Y7616D01*
X26571Y7616D01*
X26298Y7503D01*
X26218Y7424D01*
X26181Y7461D01*
X29797Y11076D01*
X30022Y11076D01*
X30249Y11170D01*
X30423Y11343D01*
X30517Y11570D01*
X30517Y11815D01*
X30441Y11997D01*
X30538Y12036D01*
X30673Y12171D01*
X32397Y12171D01*
X32481Y11970D01*
X32560Y11891D01*
X32481Y11811D01*
X32368Y11538D01*
X32368Y11243D01*
X32481Y10970D01*
X32689Y10761D01*
X32962Y10648D01*
X33257Y10648D01*
X33503Y10750D01*
X33749Y10648D01*
X34044Y10648D01*
X34317Y10761D01*
X34526Y10969D01*
X34639Y11242D01*
X34639Y11537D01*
X34526Y11810D01*
X34450Y11887D01*
X34318Y12019D01*
X34317Y12020D01*
X34363Y12065D01*
X34336Y12092D01*
X34377Y12104D01*
X34450Y12309D01*
X34439Y12527D01*
X34377Y12676D01*
X34282Y12705D01*
X33968Y12390D01*
X33897Y12319D01*
X33852Y12364D01*
X33852Y12416D01*
X33897Y12461D01*
X33932Y12496D01*
X34212Y12775D01*
X34183Y12870D01*
X33978Y12943D01*
X33760Y12932D01*
X33659Y12891D01*
X33531Y13019D01*
X33258Y13132D01*
X33039Y13132D01*
X33032Y13137D01*
X32840Y13175D01*
X30677Y13175D01*
X30747Y13244D01*
X30860Y13517D01*
X30860Y13812D01*
X30751Y14076D01*
X30791Y14115D01*
X30859Y14277D01*
X30859Y14452D01*
X30859Y14719D01*
X30880Y14719D01*
X31072Y14757D01*
X31235Y14866D01*
X31970Y15601D01*
X32154Y15601D01*
X32346Y15639D01*
X32509Y15748D01*
X33168Y16408D01*
X33197Y16337D01*
X33276Y16258D01*
X33196Y16177D01*
X33083Y15904D01*
X33083Y15609D01*
X33196Y15336D01*
X33404Y15127D01*
X33677Y15014D01*
X33972Y15014D01*
X34245Y15127D01*
X34454Y15335D01*
X34567Y15608D01*
X34567Y15903D01*
X34454Y16176D01*
X34374Y16256D01*
X34455Y16336D01*
X34568Y16609D01*
X34568Y16904D01*
X34455Y17177D01*
X34375Y17257D01*
X34455Y17336D01*
X34568Y17609D01*
X34568Y17904D01*
X34455Y18177D01*
X34375Y18257D01*
X34455Y18336D01*
X34568Y18609D01*
X34568Y18904D01*
X34455Y19177D01*
X34375Y19257D01*
X34455Y19336D01*
X34568Y19609D01*
X34568Y19904D01*
X34455Y20177D01*
X34247Y20386D01*
X34246Y20387D01*
X34292Y20432D01*
X34265Y20459D01*
X34306Y20471D01*
X34379Y20676D01*
X34368Y20876D01*
X34469Y20942D01*
X35792Y22265D01*
X36330Y22265D01*
X36344Y22232D01*
X36468Y22108D01*
X36630Y22040D01*
X36805Y22040D01*
X37405Y22040D01*
X37567Y22107D01*
X37691Y22231D01*
X37759Y22393D01*
X37759Y22568D01*
X37759Y23168D01*
X37692Y23330D01*
X37656Y23366D01*
X37760Y23617D01*
X37760Y23912D01*
X37647Y24185D01*
X37575Y24257D01*
X37647Y24328D01*
X37760Y24601D01*
X37760Y24896D01*
X37647Y25169D01*
X37439Y25378D01*
X37166Y25491D01*
X36871Y25491D01*
X36598Y25378D01*
X36389Y25170D01*
X36276Y24897D01*
X36276Y24602D01*
X36389Y24329D01*
X36460Y24258D01*
X36452Y24249D01*
X32585Y24249D01*
X32585Y25272D01*
X32585Y25557D01*
X32476Y25821D01*
X32275Y26022D01*
X32011Y26132D01*
X31726Y26132D01*
X31462Y26023D01*
X31354Y25915D01*
X29382Y25915D01*
X29275Y26022D01*
X29011Y26132D01*
X28813Y26132D01*
X28687Y26258D01*
X28524Y26367D01*
X28332Y26405D01*
X26636Y26405D01*
X26539Y26503D01*
X26266Y26616D01*
X25971Y26616D01*
X25698Y26503D01*
X25618Y26424D01*
X25539Y26503D01*
X25266Y26616D01*
X24971Y26616D01*
X24698Y26503D01*
X24618Y26424D01*
X24539Y26503D01*
X24266Y26616D01*
X23971Y26616D01*
X23698Y26503D01*
X23489Y26295D01*
X23488Y26295D01*
X23443Y26340D01*
X23416Y26314D01*
X23404Y26354D01*
X23199Y26427D01*
X22981Y26416D01*
X22832Y26354D01*
X22803Y26259D01*
X23083Y25980D01*
X23118Y25945D01*
X23189Y25874D01*
X23118Y25803D01*
X23047Y25733D01*
X23047Y25874D01*
X22733Y26189D01*
X22638Y26160D01*
X22619Y26109D01*
X22598Y26160D01*
X22503Y26189D01*
X22433Y26119D01*
X22189Y25874D01*
X22503Y25559D01*
X22598Y25588D01*
X22616Y25640D01*
X22638Y25588D01*
X22733Y25559D01*
X23047Y25874D01*
X23047Y25733D01*
X22803Y25489D01*
X22832Y25394D01*
X23037Y25321D01*
X23255Y25332D01*
X23404Y25394D01*
X23416Y25435D01*
X23433Y25418D01*
X23443Y25408D01*
X23489Y25454D01*
X23697Y25245D01*
X23970Y25132D01*
X24265Y25132D01*
X24538Y25245D01*
X24617Y25325D01*
X24697Y25245D01*
X24970Y25132D01*
X25265Y25132D01*
X25538Y25245D01*
X25617Y25325D01*
X25697Y25245D01*
X25970Y25132D01*
X26265Y25132D01*
X26538Y25245D01*
X26694Y25401D01*
X28124Y25401D01*
X28151Y25374D01*
X28151Y25273D01*
X28260Y25009D01*
X28461Y24808D01*
X28725Y24698D01*
X29010Y24698D01*
X29274Y24807D01*
X29378Y24911D01*
X31358Y24911D01*
X31461Y24808D01*
X31725Y24698D01*
X32010Y24698D01*
X32274Y24807D01*
X32475Y25008D01*
X32585Y25272D01*
X32585Y24249D01*
X32435Y24249D01*
X32346Y24309D01*
X32275Y24323D01*
X32150Y24407D01*
X31958Y24445D01*
X23433Y24445D01*
X23248Y24445D01*
X22329Y25364D01*
X22404Y25394D01*
X22433Y25489D01*
X22153Y25768D01*
X22118Y25803D01*
X22047Y25874D01*
X22118Y25945D01*
X22153Y25980D01*
X22433Y26259D01*
X22404Y26354D01*
X22199Y26427D01*
X21981Y26416D01*
X21832Y26354D01*
X21819Y26314D01*
X21793Y26340D01*
X21747Y26295D01*
X21539Y26504D01*
X21266Y26617D01*
X20971Y26617D01*
X20698Y26504D01*
X20489Y26296D01*
X20376Y26023D01*
X20376Y25728D01*
X20489Y25455D01*
X20697Y25246D01*
X20970Y25133D01*
X21140Y25133D01*
X22684Y23589D01*
X22685Y23588D01*
X22847Y23480D01*
X22848Y23479D01*
X23039Y23442D01*
X23040Y23441D01*
X28340Y23441D01*
X28350Y23283D01*
X28408Y23143D01*
X28500Y23118D01*
X28762Y23380D01*
X28797Y23415D01*
X28823Y23441D01*
X28913Y23441D01*
X28939Y23415D01*
X28974Y23380D01*
X29236Y23118D01*
X29328Y23143D01*
X29398Y23339D01*
X29392Y23441D01*
X31340Y23441D01*
X31350Y23283D01*
X31408Y23143D01*
X31500Y23118D01*
X31762Y23380D01*
X31797Y23415D01*
X31803Y23422D01*
X31863Y23382D01*
X31864Y23381D01*
X31933Y23368D01*
X31934Y23368D01*
X32059Y23284D01*
X32060Y23283D01*
X32073Y23281D01*
X32236Y23118D01*
X32328Y23143D01*
X32364Y23245D01*
X35462Y23245D01*
X35392Y23231D01*
X35229Y23122D01*
X35228Y23122D01*
X35228Y23121D01*
X34141Y22034D01*
X34141Y22142D01*
X34112Y22237D01*
X33907Y22310D01*
X33689Y22299D01*
X33540Y22237D01*
X33511Y22142D01*
X33826Y21828D01*
X34141Y22142D01*
X34141Y22034D01*
X33906Y21799D01*
X33713Y21799D01*
X33441Y22072D01*
X33346Y22043D01*
X33273Y21838D01*
X33274Y21799D01*
X32165Y21799D01*
X32165Y23047D01*
X31868Y23344D01*
X31571Y23047D01*
X31596Y22955D01*
X31792Y22885D01*
X32000Y22897D01*
X32140Y22955D01*
X32165Y23047D01*
X32165Y21799D01*
X31762Y21799D01*
X31570Y21761D01*
X31407Y21652D01*
X29165Y19410D01*
X29165Y23047D01*
X28868Y23344D01*
X28571Y23047D01*
X28596Y22955D01*
X28792Y22885D01*
X29000Y22897D01*
X29140Y22955D01*
X29165Y23047D01*
X29165Y19410D01*
X26867Y17112D01*
X26838Y17112D01*
X26611Y17018D01*
X26437Y16845D01*
X26343Y16618D01*
X26343Y16373D01*
X26437Y16146D01*
X26610Y15972D01*
X26837Y15878D01*
X27082Y15878D01*
X27309Y15972D01*
X27483Y16145D01*
X27577Y16372D01*
X27577Y16402D01*
X29718Y18543D01*
X29718Y18362D01*
X29812Y18135D01*
X29985Y17961D01*
X30212Y17867D01*
X30457Y17867D01*
X30684Y17961D01*
X30858Y18134D01*
X30940Y18334D01*
X32046Y19245D01*
X32130Y19245D01*
X32357Y19339D01*
X32531Y19512D01*
X32625Y19739D01*
X32625Y19984D01*
X32531Y20211D01*
X32358Y20385D01*
X32131Y20479D01*
X31886Y20479D01*
X31659Y20385D01*
X31485Y20212D01*
X31403Y20016D01*
X30294Y19101D01*
X30276Y19101D01*
X31970Y20795D01*
X33275Y20795D01*
X33284Y20620D01*
X33346Y20471D01*
X33386Y20459D01*
X33360Y20432D01*
X33406Y20386D01*
X33197Y20178D01*
X33084Y19905D01*
X33084Y19610D01*
X33197Y19337D01*
X33276Y19258D01*
X33197Y19178D01*
X33084Y18905D01*
X33084Y18723D01*
X30378Y16017D01*
X29410Y16017D01*
X29218Y15979D01*
X29055Y15870D01*
X29054Y15870D01*
X29054Y15869D01*
X28908Y15723D01*
X19860Y15723D01*
X19860Y25726D01*
X19860Y26021D01*
X19747Y26294D01*
X19539Y26503D01*
X19266Y26616D01*
X18971Y26616D01*
X18698Y26503D01*
X18618Y26424D01*
X18539Y26503D01*
X18266Y26616D01*
X17971Y26616D01*
X17698Y26503D01*
X17618Y26424D01*
X17539Y26503D01*
X17266Y26616D01*
X16971Y26616D01*
X16698Y26503D01*
X16618Y26424D01*
X16539Y26503D01*
X16266Y26616D01*
X15971Y26616D01*
X15698Y26503D01*
X15618Y26424D01*
X15539Y26503D01*
X15266Y26616D01*
X14971Y26616D01*
X14698Y26503D01*
X14618Y26424D01*
X14539Y26503D01*
X14266Y26616D01*
X13971Y26616D01*
X13698Y26503D01*
X13618Y26424D01*
X13539Y26503D01*
X13266Y26616D01*
X12971Y26616D01*
X12698Y26503D01*
X12618Y26424D01*
X12539Y26503D01*
X12266Y26616D01*
X11971Y26616D01*
X11698Y26503D01*
X11489Y26295D01*
X11376Y26022D01*
X11376Y25727D01*
X11489Y25454D01*
X11697Y25245D01*
X11970Y25132D01*
X12265Y25132D01*
X12538Y25245D01*
X12617Y25325D01*
X12697Y25245D01*
X12970Y25132D01*
X13265Y25132D01*
X13538Y25245D01*
X13617Y25325D01*
X13697Y25245D01*
X13970Y25132D01*
X14265Y25132D01*
X14538Y25245D01*
X14617Y25325D01*
X14697Y25245D01*
X14970Y25132D01*
X15265Y25132D01*
X15538Y25245D01*
X15617Y25325D01*
X15697Y25245D01*
X15970Y25132D01*
X16265Y25132D01*
X16538Y25245D01*
X16617Y25325D01*
X16697Y25245D01*
X16970Y25132D01*
X17265Y25132D01*
X17538Y25245D01*
X17617Y25325D01*
X17697Y25245D01*
X17970Y25132D01*
X18265Y25132D01*
X18538Y25245D01*
X18617Y25325D01*
X18697Y25245D01*
X18970Y25132D01*
X19265Y25132D01*
X19538Y25245D01*
X19747Y25453D01*
X19860Y25726D01*
X19860Y15723D01*
X18826Y15723D01*
X18633Y15685D01*
X18471Y15576D01*
X17022Y14128D01*
X16968Y14117D01*
X16805Y14008D01*
X16804Y14008D01*
X16804Y14007D01*
X16655Y13859D01*
X16477Y13823D01*
X16315Y13714D01*
X16070Y13469D01*
X15178Y13469D01*
X15158Y13490D01*
X14931Y13584D01*
X14686Y13584D01*
X14459Y13490D01*
X14285Y13317D01*
X14191Y13090D01*
X14191Y12979D01*
X13840Y12979D01*
X13693Y13126D01*
X13530Y13235D01*
X13338Y13273D01*
X11015Y13273D01*
X11015Y13383D01*
X10921Y13610D01*
X10860Y13672D01*
X10860Y25726D01*
X10860Y26021D01*
X10747Y26294D01*
X10539Y26503D01*
X10266Y26616D01*
X9971Y26616D01*
X9698Y26503D01*
X9618Y26424D01*
X9539Y26503D01*
X9266Y26616D01*
X8971Y26616D01*
X8698Y26503D01*
X8618Y26424D01*
X8539Y26503D01*
X8266Y26616D01*
X7971Y26616D01*
X7698Y26503D01*
X7618Y26424D01*
X7539Y26503D01*
X7266Y26616D01*
X6971Y26616D01*
X6698Y26503D01*
X6618Y26424D01*
X6539Y26503D01*
X6266Y26616D01*
X5971Y26616D01*
X5698Y26503D01*
X5618Y26424D01*
X5539Y26503D01*
X5266Y26616D01*
X4971Y26616D01*
X4698Y26503D01*
X4618Y26424D01*
X4539Y26503D01*
X4266Y26616D01*
X3971Y26616D01*
X3698Y26503D01*
X3618Y26424D01*
X3539Y26503D01*
X3266Y26616D01*
X2971Y26616D01*
X2698Y26503D01*
X2489Y26295D01*
X2376Y26022D01*
X2376Y25727D01*
X2489Y25454D01*
X2697Y25245D01*
X2970Y25132D01*
X3265Y25132D01*
X3538Y25245D01*
X3617Y25325D01*
X3697Y25245D01*
X3970Y25132D01*
X4265Y25132D01*
X4538Y25245D01*
X4617Y25325D01*
X4697Y25245D01*
X4970Y25132D01*
X5265Y25132D01*
X5538Y25245D01*
X5617Y25325D01*
X5697Y25245D01*
X5970Y25132D01*
X6265Y25132D01*
X6538Y25245D01*
X6617Y25325D01*
X6697Y25245D01*
X6970Y25132D01*
X7265Y25132D01*
X7538Y25245D01*
X7617Y25325D01*
X7697Y25245D01*
X7970Y25132D01*
X8265Y25132D01*
X8538Y25245D01*
X8617Y25325D01*
X8697Y25245D01*
X8970Y25132D01*
X9265Y25132D01*
X9538Y25245D01*
X9617Y25325D01*
X9697Y25245D01*
X9970Y25132D01*
X10265Y25132D01*
X10538Y25245D01*
X10747Y25453D01*
X10860Y25726D01*
X10860Y13672D01*
X10748Y13784D01*
X10521Y13878D01*
X10491Y13878D01*
X10035Y14334D01*
X10035Y14363D01*
X9941Y14590D01*
X9768Y14764D01*
X9541Y14858D01*
X9296Y14858D01*
X9069Y14764D01*
X8895Y14591D01*
X8801Y14364D01*
X8801Y14119D01*
X8895Y13892D01*
X9068Y13718D01*
X9295Y13624D01*
X9325Y13624D01*
X9781Y13168D01*
X9781Y13148D01*
X9749Y13126D01*
X9619Y12996D01*
X9590Y12996D01*
X9363Y12902D01*
X9189Y12729D01*
X9095Y12502D01*
X9095Y12257D01*
X9189Y12030D01*
X9362Y11856D01*
X9589Y11762D01*
X9834Y11762D01*
X10061Y11856D01*
X10235Y12029D01*
X10329Y12256D01*
X10329Y12269D01*
X12525Y12269D01*
X12525Y12257D01*
X12619Y12030D01*
X12792Y11856D01*
X13019Y11762D01*
X13049Y11762D01*
X13375Y11436D01*
X13537Y11328D01*
X13538Y11327D01*
X13730Y11289D01*
X14478Y11289D01*
X11421Y8233D01*
X11505Y8434D01*
X11505Y8679D01*
X11411Y8906D01*
X11238Y9080D01*
X11011Y9174D01*
X10766Y9174D01*
X10539Y9080D01*
X10365Y8907D01*
X10271Y8680D01*
X10271Y8650D01*
X9798Y8177D01*
X8634Y8177D01*
X8515Y8154D01*
X8569Y8207D01*
X8663Y8434D01*
X8663Y8464D01*
X9920Y9721D01*
X10517Y9721D01*
X10538Y9700D01*
X10765Y9606D01*
X11010Y9606D01*
X11237Y9700D01*
X11411Y9873D01*
X11505Y10100D01*
X11505Y10345D01*
X11411Y10572D01*
X11238Y10746D01*
X11011Y10840D01*
X10766Y10840D01*
X10539Y10746D01*
X10517Y10725D01*
X9712Y10725D01*
X9520Y10687D01*
X9357Y10578D01*
X7953Y9174D01*
X7924Y9174D01*
X7697Y9080D01*
X7523Y8907D01*
X7429Y8680D01*
X7429Y8435D01*
X7523Y8208D01*
X7696Y8034D01*
X7923Y7940D01*
X8168Y7940D01*
X8203Y7955D01*
X8132Y7883D01*
X7850Y7883D01*
X7658Y7845D01*
X7495Y7736D01*
X7494Y7736D01*
X7494Y7735D01*
X7343Y7585D01*
X7266Y7616D01*
X6971Y7616D01*
X6698Y7503D01*
X6618Y7424D01*
X6539Y7503D01*
X6266Y7616D01*
X5971Y7616D01*
X5698Y7503D01*
X5618Y7424D01*
X5539Y7503D01*
X5266Y7616D01*
X4971Y7616D01*
X4698Y7503D01*
X4567Y7374D01*
X4522Y7483D01*
X4223Y7783D01*
X3831Y7946D01*
X3407Y7946D01*
X3015Y7784D01*
X2792Y7562D01*
X2860Y7726D01*
X2860Y8021D01*
X2747Y8294D01*
X2667Y8374D01*
X2747Y8453D01*
X2860Y8726D01*
X2860Y9021D01*
X2747Y9294D01*
X2667Y9374D01*
X2747Y9453D01*
X2860Y9726D01*
X2860Y10021D01*
X2747Y10294D01*
X2667Y10374D01*
X2747Y10453D01*
X2860Y10726D01*
X2860Y11021D01*
X2747Y11294D01*
X2667Y11374D01*
X2747Y11453D01*
X2860Y11726D01*
X2860Y12021D01*
X2747Y12294D01*
X2667Y12374D01*
X2747Y12453D01*
X2860Y12726D01*
X2860Y13021D01*
X2747Y13294D01*
X2667Y13374D01*
X2747Y13453D01*
X2860Y13726D01*
X2860Y14021D01*
X2747Y14294D01*
X2667Y14374D01*
X2747Y14453D01*
X2860Y14726D01*
X2860Y15021D01*
X2747Y15294D01*
X2667Y15374D01*
X2747Y15453D01*
X2860Y15726D01*
X2860Y16021D01*
X2747Y16294D01*
X2667Y16374D01*
X2747Y16453D01*
X2860Y16726D01*
X2860Y17021D01*
X2747Y17294D01*
X2667Y17374D01*
X2747Y17453D01*
X2860Y17726D01*
X2860Y18021D01*
X2747Y18294D01*
X2667Y18374D01*
X2747Y18453D01*
X2860Y18726D01*
X2860Y19021D01*
X2747Y19294D01*
X2667Y19374D01*
X2747Y19453D01*
X2860Y19726D01*
X2860Y20021D01*
X2747Y20294D01*
X2667Y20374D01*
X2747Y20453D01*
X2860Y20726D01*
X2860Y21021D01*
X2747Y21294D01*
X2667Y21374D01*
X2747Y21453D01*
X2860Y21726D01*
X2860Y22021D01*
X2747Y22294D01*
X2667Y22374D01*
X2747Y22453D01*
X2860Y22726D01*
X2860Y23021D01*
X2747Y23294D01*
X2671Y23371D01*
X2539Y23503D01*
X2538Y23504D01*
X2584Y23549D01*
X2557Y23576D01*
X2598Y23588D01*
X2671Y23793D01*
X2660Y24011D01*
X2598Y24160D01*
X2503Y24189D01*
X2433Y24119D01*
X2433Y24259D01*
X2404Y24354D01*
X2199Y24427D01*
X1981Y24416D01*
X1832Y24354D01*
X1803Y24259D01*
X2118Y23945D01*
X2433Y24259D01*
X2433Y24119D01*
X2189Y23874D01*
X2118Y23803D01*
X2047Y23874D01*
X2012Y23909D01*
X1733Y24189D01*
X1638Y24160D01*
X1619Y24109D01*
X1598Y24160D01*
X1503Y24189D01*
X1433Y24119D01*
X1433Y24259D01*
X1404Y24354D01*
X1199Y24427D01*
X981Y24416D01*
X832Y24354D01*
X803Y24259D01*
X1118Y23945D01*
X1433Y24259D01*
X1433Y24119D01*
X1189Y23874D01*
X1118Y23803D01*
X1047Y23874D01*
X1012Y23909D01*
X733Y24189D01*
X638Y24160D01*
X635Y24152D01*
X635Y24913D01*
X905Y24800D01*
X1329Y24800D01*
X1721Y24962D01*
X2021Y25261D01*
X2184Y25653D01*
X2184Y26077D01*
X2022Y26469D01*
X1764Y26727D01*
X32959Y26727D01*
X32714Y26482D01*
X32551Y26090D01*
X32551Y25666D01*
X32713Y25274D01*
X33012Y24974D01*
X33404Y24811D01*
X33828Y24811D01*
X34220Y24973D01*
X34520Y25272D01*
X34683Y25664D01*
X34683Y26088D01*
X34521Y26480D01*
X34274Y26727D01*
X38970Y26727D01*
X38970Y596D01*
X38970Y596D01*
G37*
G54D21*
X38970Y596D02*
X38727Y596D01*
X38727Y19660D01*
X38727Y20062D01*
X38573Y20434D01*
X38289Y20719D01*
X37917Y20874D01*
X37760Y20874D01*
X37515Y20874D01*
X36753Y20874D01*
X36381Y20720D01*
X36096Y20436D01*
X35941Y20064D01*
X35941Y19662D01*
X36095Y19290D01*
X36379Y19005D01*
X36751Y18850D01*
X37153Y18850D01*
X37915Y18850D01*
X38287Y19004D01*
X38572Y19288D01*
X38727Y19660D01*
X38727Y596D01*
X38715Y596D01*
X38715Y16708D01*
X38715Y17110D01*
X38562Y17482D01*
X38277Y17766D01*
X37906Y17921D01*
X37504Y17921D01*
X36740Y17921D01*
X36368Y17768D01*
X36084Y17483D01*
X35929Y17112D01*
X35929Y16710D01*
X36082Y16338D01*
X36367Y16054D01*
X36738Y15899D01*
X37140Y15899D01*
X37904Y15899D01*
X38276Y16052D01*
X38560Y16337D01*
X38715Y16708D01*
X38715Y596D01*
X38250Y596D01*
X38250Y3059D01*
X38250Y3469D01*
X38093Y3848D01*
X38053Y3889D01*
X38053Y8138D01*
X38053Y8470D01*
X37926Y8777D01*
X37692Y9012D01*
X37385Y9140D01*
X37053Y9140D01*
X36746Y9013D01*
X36511Y8779D01*
X36459Y8655D01*
X36458Y8655D01*
X36405Y8618D01*
X35743Y7956D01*
X35743Y9392D01*
X35743Y14116D01*
X35736Y14427D01*
X35632Y14678D01*
X35513Y14734D01*
X35442Y14663D01*
X35442Y14805D01*
X35386Y14924D01*
X35096Y15035D01*
X34785Y15028D01*
X34534Y14924D01*
X34478Y14805D01*
X34960Y14323D01*
X35442Y14805D01*
X35442Y14663D01*
X35031Y14252D01*
X35513Y13770D01*
X35632Y13826D01*
X35743Y14116D01*
X35743Y9392D01*
X35736Y9703D01*
X35632Y9954D01*
X35513Y10010D01*
X35442Y9939D01*
X35442Y10081D01*
X35442Y13699D01*
X34960Y14181D01*
X34889Y14110D01*
X34889Y14252D01*
X34407Y14734D01*
X34288Y14678D01*
X34177Y14388D01*
X34184Y14077D01*
X34288Y13826D01*
X34407Y13770D01*
X34889Y14252D01*
X34889Y14110D01*
X34478Y13699D01*
X34534Y13580D01*
X34824Y13469D01*
X35135Y13476D01*
X35386Y13580D01*
X35442Y13699D01*
X35442Y10081D01*
X35386Y10200D01*
X35096Y10311D01*
X34785Y10304D01*
X34534Y10200D01*
X34478Y10081D01*
X34960Y9599D01*
X35442Y10081D01*
X35442Y9939D01*
X35031Y9528D01*
X35513Y9046D01*
X35632Y9102D01*
X35743Y9392D01*
X35743Y7956D01*
X35442Y7655D01*
X35442Y8975D01*
X34960Y9457D01*
X34889Y9386D01*
X34889Y9528D01*
X34407Y10010D01*
X34288Y9954D01*
X34177Y9664D01*
X34184Y9353D01*
X34288Y9102D01*
X34407Y9046D01*
X34889Y9528D01*
X34889Y9386D01*
X34478Y8975D01*
X34534Y8856D01*
X34824Y8745D01*
X35135Y8752D01*
X35386Y8856D01*
X35442Y8975D01*
X35442Y7655D01*
X34119Y6332D01*
X34090Y6332D01*
X34064Y6322D01*
X34196Y6637D01*
X34196Y7061D01*
X34034Y7453D01*
X33735Y7753D01*
X33343Y7916D01*
X32919Y7916D01*
X32527Y7754D01*
X32227Y7455D01*
X32064Y7063D01*
X32064Y6639D01*
X32226Y6247D01*
X32525Y5947D01*
X32917Y5784D01*
X33341Y5784D01*
X33620Y5900D01*
X33595Y5838D01*
X33595Y5593D01*
X33689Y5366D01*
X33862Y5192D01*
X34089Y5098D01*
X34334Y5098D01*
X34561Y5192D01*
X34735Y5365D01*
X34829Y5592D01*
X34829Y5622D01*
X36787Y7581D01*
X37051Y7470D01*
X37383Y7470D01*
X37690Y7597D01*
X37925Y7831D01*
X38053Y8138D01*
X38053Y3889D01*
X37864Y4078D01*
X37864Y6037D01*
X37855Y6292D01*
X37776Y6483D01*
X37671Y6522D01*
X37600Y6451D01*
X37600Y6593D01*
X37561Y6698D01*
X37321Y6786D01*
X37066Y6777D01*
X36875Y6698D01*
X36836Y6593D01*
X37218Y6211D01*
X37600Y6593D01*
X37600Y6451D01*
X37289Y6140D01*
X37671Y5758D01*
X37776Y5797D01*
X37864Y6037D01*
X37864Y4078D01*
X37803Y4139D01*
X37600Y4224D01*
X37600Y5687D01*
X37218Y6069D01*
X37147Y5998D01*
X37147Y6140D01*
X36765Y6522D01*
X36660Y6483D01*
X36572Y6243D01*
X36581Y5988D01*
X36660Y5797D01*
X36765Y5758D01*
X37147Y6140D01*
X37147Y5998D01*
X36836Y5687D01*
X36875Y5582D01*
X37115Y5494D01*
X37370Y5503D01*
X37561Y5582D01*
X37600Y5687D01*
X37600Y4224D01*
X37424Y4297D01*
X37014Y4297D01*
X36635Y4140D01*
X36344Y3850D01*
X36186Y3471D01*
X36186Y3061D01*
X36343Y2682D01*
X36633Y2391D01*
X37012Y2233D01*
X37422Y2233D01*
X37801Y2390D01*
X38092Y2680D01*
X38250Y3059D01*
X38250Y596D01*
X33457Y596D01*
X33457Y4318D01*
X33457Y4563D01*
X33363Y4790D01*
X33190Y4964D01*
X32963Y5058D01*
X32718Y5058D01*
X32491Y4964D01*
X32469Y4943D01*
X29584Y4943D01*
X29564Y4964D01*
X29337Y5058D01*
X29092Y5058D01*
X28865Y4964D01*
X28691Y4791D01*
X28597Y4564D01*
X28597Y4319D01*
X28691Y4092D01*
X28864Y3918D01*
X29091Y3824D01*
X29336Y3824D01*
X29563Y3918D01*
X29584Y3939D01*
X32469Y3939D01*
X32490Y3918D01*
X32717Y3824D01*
X32962Y3824D01*
X33189Y3918D01*
X33363Y4091D01*
X33457Y4318D01*
X33457Y596D01*
X25160Y596D01*
X25160Y2517D01*
X25160Y2812D01*
X25047Y3085D01*
X24839Y3294D01*
X24566Y3407D01*
X24271Y3407D01*
X23998Y3294D01*
X23869Y3166D01*
X23859Y3176D01*
X23767Y3214D01*
X23530Y3215D01*
X23468Y3153D01*
X23468Y2765D01*
X23468Y2715D01*
X23468Y2615D01*
X23468Y2565D01*
X23468Y2177D01*
X23530Y2115D01*
X23767Y2116D01*
X23859Y2154D01*
X23869Y2165D01*
X23997Y2036D01*
X24270Y1923D01*
X24565Y1923D01*
X24838Y2036D01*
X25047Y2244D01*
X25160Y2517D01*
X25160Y596D01*
X23368Y596D01*
X23368Y2177D01*
X23368Y2615D01*
X23368Y2715D01*
X23368Y3153D01*
X23306Y3215D01*
X23069Y3214D01*
X22977Y3176D01*
X22907Y3106D01*
X22869Y3015D01*
X22869Y2916D01*
X22868Y2777D01*
X22930Y2715D01*
X23368Y2715D01*
X23368Y2615D01*
X22930Y2615D01*
X22868Y2553D01*
X22869Y2414D01*
X22869Y2315D01*
X22907Y2224D01*
X22977Y2154D01*
X23069Y2116D01*
X23306Y2115D01*
X23368Y2177D01*
X23368Y596D01*
X5625Y596D01*
X5625Y3436D01*
X5625Y3681D01*
X5531Y3908D01*
X5358Y4082D01*
X5131Y4176D01*
X4886Y4176D01*
X4659Y4082D01*
X4637Y4061D01*
X3440Y4061D01*
X3248Y4023D01*
X3224Y4007D01*
X2971Y4007D01*
X2698Y3894D01*
X2569Y3766D01*
X2559Y3776D01*
X2467Y3814D01*
X2230Y3815D01*
X2168Y3753D01*
X2168Y3365D01*
X2168Y3315D01*
X2168Y3215D01*
X2168Y3165D01*
X2168Y2777D01*
X2230Y2715D01*
X2467Y2716D01*
X2559Y2754D01*
X2569Y2765D01*
X2697Y2636D01*
X2970Y2523D01*
X3265Y2523D01*
X3538Y2636D01*
X3747Y2844D01*
X3835Y3057D01*
X4637Y3057D01*
X4658Y3036D01*
X4885Y2942D01*
X5130Y2942D01*
X5357Y3036D01*
X5531Y3209D01*
X5625Y3436D01*
X5625Y596D01*
X2068Y596D01*
X2068Y2777D01*
X2068Y3215D01*
X2068Y3315D01*
X2068Y3753D01*
X2006Y3815D01*
X1769Y3814D01*
X1677Y3776D01*
X1607Y3706D01*
X1569Y3615D01*
X1569Y3516D01*
X1568Y3377D01*
X1630Y3315D01*
X2068Y3315D01*
X2068Y3215D01*
X1630Y3215D01*
X1568Y3153D01*
X1569Y3014D01*
X1569Y2915D01*
X1607Y2824D01*
X1677Y2754D01*
X1769Y2716D01*
X2006Y2715D01*
X2068Y2777D01*
X2068Y596D01*
X635Y596D01*
X635Y6308D01*
X697Y6245D01*
X970Y6132D01*
X1265Y6132D01*
X1538Y6245D01*
X1617Y6325D01*
X1697Y6245D01*
X1970Y6132D01*
X2265Y6132D01*
X2538Y6245D01*
X2672Y6379D01*
X2714Y6277D01*
X3013Y5977D01*
X3405Y5814D01*
X3829Y5814D01*
X4221Y5976D01*
X4521Y6275D01*
X4564Y6379D01*
X4697Y6245D01*
X4970Y6132D01*
X5265Y6132D01*
X5538Y6245D01*
X5617Y6325D01*
X5697Y6245D01*
X5970Y6132D01*
X6265Y6132D01*
X6538Y6245D01*
X6617Y6325D01*
X6697Y6245D01*
X6970Y6132D01*
X7265Y6132D01*
X7538Y6245D01*
X7617Y6325D01*
X7697Y6245D01*
X7970Y6132D01*
X8265Y6132D01*
X8538Y6245D01*
X8617Y6325D01*
X8697Y6245D01*
X8970Y6132D01*
X9139Y6132D01*
X9048Y5910D01*
X9048Y5665D01*
X9142Y5438D01*
X9315Y5264D01*
X9542Y5170D01*
X9552Y5170D01*
X11496Y3186D01*
X11496Y3010D01*
X11600Y2759D01*
X11565Y2723D01*
X11497Y2561D01*
X11497Y2386D01*
X11497Y1786D01*
X11564Y1624D01*
X11688Y1500D01*
X11850Y1432D01*
X12025Y1432D01*
X12625Y1432D01*
X12787Y1499D01*
X12821Y1534D01*
X13070Y1431D01*
X13365Y1431D01*
X13638Y1544D01*
X13707Y1614D01*
X13777Y1544D01*
X14050Y1431D01*
X14345Y1431D01*
X14618Y1544D01*
X14827Y1752D01*
X14940Y2025D01*
X14940Y2320D01*
X14918Y2372D01*
X15293Y2746D01*
X15322Y2746D01*
X15549Y2840D01*
X15723Y3013D01*
X15817Y3240D01*
X15817Y3485D01*
X15723Y3712D01*
X15550Y3886D01*
X15323Y3980D01*
X15078Y3980D01*
X14851Y3886D01*
X14686Y3723D01*
X14623Y3786D01*
X14350Y3899D01*
X14198Y3899D01*
X12833Y5264D01*
X12832Y5265D01*
X12822Y5319D01*
X12822Y5320D01*
X12713Y5482D01*
X12583Y5612D01*
X12583Y5641D01*
X12522Y5787D01*
X12529Y5784D01*
X12774Y5784D01*
X13001Y5878D01*
X13102Y5979D01*
X13203Y6046D01*
X13549Y6393D01*
X13697Y6245D01*
X13799Y6203D01*
X13799Y6083D01*
X13893Y5856D01*
X14066Y5682D01*
X14293Y5588D01*
X14538Y5588D01*
X14765Y5682D01*
X14786Y5703D01*
X17602Y5703D01*
X17563Y5664D01*
X17495Y5502D01*
X17495Y5327D01*
X17495Y4029D01*
X17562Y3867D01*
X17686Y3743D01*
X17784Y3702D01*
X17784Y2878D01*
X17846Y2816D01*
X18202Y2816D01*
X18202Y2716D01*
X17846Y2716D01*
X17784Y2654D01*
X17785Y1635D01*
X17823Y1543D01*
X17893Y1473D01*
X17984Y1435D01*
X18083Y1435D01*
X18906Y1434D01*
X18968Y1496D01*
X18968Y1509D01*
X19068Y1509D01*
X19068Y1496D01*
X19130Y1434D01*
X19953Y1435D01*
X20052Y1435D01*
X20143Y1473D01*
X20213Y1543D01*
X20251Y1635D01*
X20252Y2654D01*
X20190Y2716D01*
X19834Y2716D01*
X19834Y2816D01*
X20190Y2816D01*
X20252Y2878D01*
X20251Y3702D01*
X20349Y3742D01*
X20473Y3866D01*
X20541Y4028D01*
X20541Y4203D01*
X20541Y4233D01*
X22464Y4233D01*
X22553Y4174D01*
X22554Y4173D01*
X22746Y4135D01*
X24412Y4135D01*
X24604Y4173D01*
X24767Y4282D01*
X24909Y4424D01*
X25305Y4424D01*
X25467Y4491D01*
X25591Y4615D01*
X25659Y4777D01*
X25659Y4952D01*
X25659Y5552D01*
X25592Y5714D01*
X25468Y5838D01*
X25306Y5906D01*
X25131Y5906D01*
X25035Y5906D01*
X25192Y5937D01*
X25355Y6046D01*
X25478Y6170D01*
X25570Y6132D01*
X25865Y6132D01*
X26138Y6245D01*
X26217Y6325D01*
X26297Y6245D01*
X26570Y6132D01*
X26865Y6132D01*
X27138Y6245D01*
X27217Y6325D01*
X27297Y6245D01*
X27570Y6132D01*
X27865Y6132D01*
X28138Y6245D01*
X28217Y6325D01*
X28297Y6245D01*
X28570Y6132D01*
X28865Y6132D01*
X29138Y6245D01*
X29217Y6325D01*
X29297Y6245D01*
X29570Y6132D01*
X29865Y6132D01*
X30138Y6245D01*
X30347Y6453D01*
X30460Y6726D01*
X30460Y7021D01*
X30347Y7294D01*
X30139Y7503D01*
X29866Y7616D01*
X29571Y7616D01*
X29298Y7503D01*
X29218Y7424D01*
X29139Y7503D01*
X28866Y7616D01*
X28571Y7616D01*
X28298Y7503D01*
X28218Y7424D01*
X28139Y7503D01*
X27866Y7616D01*
X27571Y7616D01*
X27298Y7503D01*
X27218Y7424D01*
X27139Y7503D01*
X26866Y7616D01*
X26571Y7616D01*
X26298Y7503D01*
X26218Y7424D01*
X26181Y7461D01*
X29797Y11076D01*
X30022Y11076D01*
X30249Y11170D01*
X30423Y11343D01*
X30517Y11570D01*
X30517Y11815D01*
X30441Y11997D01*
X30538Y12036D01*
X30673Y12171D01*
X32397Y12171D01*
X32481Y11970D01*
X32560Y11891D01*
X32481Y11811D01*
X32368Y11538D01*
X32368Y11243D01*
X32481Y10970D01*
X32689Y10761D01*
X32962Y10648D01*
X33257Y10648D01*
X33503Y10750D01*
X33749Y10648D01*
X34044Y10648D01*
X34317Y10761D01*
X34526Y10969D01*
X34639Y11242D01*
X34639Y11537D01*
X34526Y11810D01*
X34450Y11887D01*
X34318Y12019D01*
X34317Y12020D01*
X34363Y12065D01*
X34336Y12092D01*
X34377Y12104D01*
X34450Y12309D01*
X34439Y12527D01*
X34377Y12676D01*
X34282Y12705D01*
X33968Y12390D01*
X33897Y12319D01*
X33852Y12364D01*
X33852Y12416D01*
X33897Y12461D01*
X33932Y12496D01*
X34212Y12775D01*
X34183Y12870D01*
X33978Y12943D01*
X33760Y12932D01*
X33659Y12891D01*
X33531Y13019D01*
X33258Y13132D01*
X33039Y13132D01*
X33032Y13137D01*
X32840Y13175D01*
X30677Y13175D01*
X30747Y13244D01*
X30860Y13517D01*
X30860Y13812D01*
X30751Y14076D01*
X30791Y14115D01*
X30859Y14277D01*
X30859Y14452D01*
X30859Y14719D01*
X30880Y14719D01*
X31072Y14757D01*
X31235Y14866D01*
X31970Y15601D01*
X32154Y15601D01*
X32346Y15639D01*
X32509Y15748D01*
X33168Y16408D01*
X33197Y16337D01*
X33276Y16258D01*
X33196Y16177D01*
X33083Y15904D01*
X33083Y15609D01*
X33196Y15336D01*
X33404Y15127D01*
X33677Y15014D01*
X33972Y15014D01*
X34245Y15127D01*
X34454Y15335D01*
X34567Y15608D01*
X34567Y15903D01*
X34454Y16176D01*
X34374Y16256D01*
X34455Y16336D01*
X34568Y16609D01*
X34568Y16904D01*
X34455Y17177D01*
X34375Y17257D01*
X34455Y17336D01*
X34568Y17609D01*
X34568Y17904D01*
X34455Y18177D01*
X34375Y18257D01*
X34455Y18336D01*
X34568Y18609D01*
X34568Y18904D01*
X34455Y19177D01*
X34375Y19257D01*
X34455Y19336D01*
X34568Y19609D01*
X34568Y19904D01*
X34455Y20177D01*
X34247Y20386D01*
X34246Y20387D01*
X34292Y20432D01*
X34265Y20459D01*
X34306Y20471D01*
X34379Y20676D01*
X34368Y20876D01*
X34469Y20942D01*
X35792Y22265D01*
X36330Y22265D01*
X36344Y22232D01*
X36468Y22108D01*
X36630Y22040D01*
X36805Y22040D01*
X37405Y22040D01*
X37567Y22107D01*
X37691Y22231D01*
X37759Y22393D01*
X37759Y22568D01*
X37759Y23168D01*
X37692Y23330D01*
X37656Y23366D01*
X37760Y23617D01*
X37760Y23912D01*
X37647Y24185D01*
X37575Y24257D01*
X37647Y24328D01*
X37760Y24601D01*
X37760Y24896D01*
X37647Y25169D01*
X37439Y25378D01*
X37166Y25491D01*
X36871Y25491D01*
X36598Y25378D01*
X36389Y25170D01*
X36276Y24897D01*
X36276Y24602D01*
X36389Y24329D01*
X36460Y24258D01*
X36452Y24249D01*
X32585Y24249D01*
X32585Y25272D01*
X32585Y25557D01*
X32476Y25821D01*
X32275Y26022D01*
X32011Y26132D01*
X31726Y26132D01*
X31462Y26023D01*
X31354Y25915D01*
X29382Y25915D01*
X29275Y26022D01*
X29011Y26132D01*
X28813Y26132D01*
X28687Y26258D01*
X28524Y26367D01*
X28332Y26405D01*
X26636Y26405D01*
X26539Y26503D01*
X26266Y26616D01*
X25971Y26616D01*
X25698Y26503D01*
X25618Y26424D01*
X25539Y26503D01*
X25266Y26616D01*
X24971Y26616D01*
X24698Y26503D01*
X24618Y26424D01*
X24539Y26503D01*
X24266Y26616D01*
X23971Y26616D01*
X23698Y26503D01*
X23489Y26295D01*
X23488Y26295D01*
X23443Y26340D01*
X23416Y26314D01*
X23404Y26354D01*
X23199Y26427D01*
X22981Y26416D01*
X22832Y26354D01*
X22803Y26259D01*
X23083Y25980D01*
X23118Y25945D01*
X23189Y25874D01*
X23118Y25803D01*
X23047Y25733D01*
X23047Y25874D01*
X22733Y26189D01*
X22638Y26160D01*
X22619Y26109D01*
X22598Y26160D01*
X22503Y26189D01*
X22433Y26119D01*
X22189Y25874D01*
X22503Y25559D01*
X22598Y25588D01*
X22616Y25640D01*
X22638Y25588D01*
X22733Y25559D01*
X23047Y25874D01*
X23047Y25733D01*
X22803Y25489D01*
X22832Y25394D01*
X23037Y25321D01*
X23255Y25332D01*
X23404Y25394D01*
X23416Y25435D01*
X23433Y25418D01*
X23443Y25408D01*
X23489Y25454D01*
X23697Y25245D01*
X23970Y25132D01*
X24265Y25132D01*
X24538Y25245D01*
X24617Y25325D01*
X24697Y25245D01*
X24970Y25132D01*
X25265Y25132D01*
X25538Y25245D01*
X25617Y25325D01*
X25697Y25245D01*
X25970Y25132D01*
X26265Y25132D01*
X26538Y25245D01*
X26694Y25401D01*
X28124Y25401D01*
X28151Y25374D01*
X28151Y25273D01*
X28260Y25009D01*
X28461Y24808D01*
X28725Y24698D01*
X29010Y24698D01*
X29274Y24807D01*
X29378Y24911D01*
X31358Y24911D01*
X31461Y24808D01*
X31725Y24698D01*
X32010Y24698D01*
X32274Y24807D01*
X32475Y25008D01*
X32585Y25272D01*
X32585Y24249D01*
X32435Y24249D01*
X32346Y24309D01*
X32275Y24323D01*
X32150Y24407D01*
X31958Y24445D01*
X23433Y24445D01*
X23248Y24445D01*
X22329Y25364D01*
X22404Y25394D01*
X22433Y25489D01*
X22153Y25768D01*
X22118Y25803D01*
X22047Y25874D01*
X22118Y25945D01*
X22153Y25980D01*
X22433Y26259D01*
X22404Y26354D01*
X22199Y26427D01*
X21981Y26416D01*
X21832Y26354D01*
X21819Y26314D01*
X21793Y26340D01*
X21747Y26295D01*
X21539Y26504D01*
X21266Y26617D01*
X20971Y26617D01*
X20698Y26504D01*
X20489Y26296D01*
X20376Y26023D01*
X20376Y25728D01*
X20489Y25455D01*
X20697Y25246D01*
X20970Y25133D01*
X21140Y25133D01*
X22684Y23589D01*
X22685Y23588D01*
X22847Y23480D01*
X22848Y23479D01*
X23039Y23442D01*
X23040Y23441D01*
X28340Y23441D01*
X28350Y23283D01*
X28408Y23143D01*
X28500Y23118D01*
X28762Y23380D01*
X28797Y23415D01*
X28823Y23441D01*
X28913Y23441D01*
X28939Y23415D01*
X28974Y23380D01*
X29236Y23118D01*
X29328Y23143D01*
X29398Y23339D01*
X29392Y23441D01*
X31340Y23441D01*
X31350Y23283D01*
X31408Y23143D01*
X31500Y23118D01*
X31762Y23380D01*
X31797Y23415D01*
X31803Y23422D01*
X31863Y23382D01*
X31864Y23381D01*
X31933Y23368D01*
X31934Y23368D01*
X32059Y23284D01*
X32060Y23283D01*
X32073Y23281D01*
X32236Y23118D01*
X32328Y23143D01*
X32364Y23245D01*
X35462Y23245D01*
X35392Y23231D01*
X35229Y23122D01*
X35228Y23122D01*
X35228Y23121D01*
X34141Y22034D01*
X34141Y22142D01*
X34112Y22237D01*
X33907Y22310D01*
X33689Y22299D01*
X33540Y22237D01*
X33511Y22142D01*
X33826Y21828D01*
X34141Y22142D01*
X34141Y22034D01*
X33906Y21799D01*
X33713Y21799D01*
X33441Y22072D01*
X33346Y22043D01*
X33273Y21838D01*
X33274Y21799D01*
X32165Y21799D01*
X32165Y23047D01*
X31868Y23344D01*
X31571Y23047D01*
X31596Y22955D01*
X31792Y22885D01*
X32000Y22897D01*
X32140Y22955D01*
X32165Y23047D01*
X32165Y21799D01*
X31762Y21799D01*
X31570Y21761D01*
X31407Y21652D01*
X29165Y19410D01*
X29165Y23047D01*
X28868Y23344D01*
X28571Y23047D01*
X28596Y22955D01*
X28792Y22885D01*
X29000Y22897D01*
X29140Y22955D01*
X29165Y23047D01*
X29165Y19410D01*
X26867Y17112D01*
X26838Y17112D01*
X26611Y17018D01*
X26437Y16845D01*
X26343Y16618D01*
X26343Y16373D01*
X26437Y16146D01*
X26610Y15972D01*
X26837Y15878D01*
X27082Y15878D01*
X27309Y15972D01*
X27483Y16145D01*
X27577Y16372D01*
X27577Y16402D01*
X29718Y18543D01*
X29718Y18362D01*
X29812Y18135D01*
X29985Y17961D01*
X30212Y17867D01*
X30457Y17867D01*
X30684Y17961D01*
X30858Y18134D01*
X30940Y18334D01*
X32046Y19245D01*
X32130Y19245D01*
X32357Y19339D01*
X32531Y19512D01*
X32625Y19739D01*
X32625Y19984D01*
X32531Y20211D01*
X32358Y20385D01*
X32131Y20479D01*
X31886Y20479D01*
X31659Y20385D01*
X31485Y20212D01*
X31403Y20016D01*
X30294Y19101D01*
X30276Y19101D01*
X31970Y20795D01*
X33275Y20795D01*
X33284Y20620D01*
X33346Y20471D01*
X33386Y20459D01*
X33360Y20432D01*
X33406Y20386D01*
X33197Y20178D01*
X33084Y19905D01*
X33084Y19610D01*
X33197Y19337D01*
X33276Y19258D01*
X33197Y19178D01*
X33084Y18905D01*
X33084Y18723D01*
X30378Y16017D01*
X29410Y16017D01*
X29218Y15979D01*
X29055Y15870D01*
X29054Y15870D01*
X29054Y15869D01*
X28908Y15723D01*
X19860Y15723D01*
X19860Y25726D01*
X19860Y26021D01*
X19747Y26294D01*
X19539Y26503D01*
X19266Y26616D01*
X18971Y26616D01*
X18698Y26503D01*
X18618Y26424D01*
X18539Y26503D01*
X18266Y26616D01*
X17971Y26616D01*
X17698Y26503D01*
X17618Y26424D01*
X17539Y26503D01*
X17266Y26616D01*
X16971Y26616D01*
X16698Y26503D01*
X16618Y26424D01*
X16539Y26503D01*
X16266Y26616D01*
X15971Y26616D01*
X15698Y26503D01*
X15618Y26424D01*
X15539Y26503D01*
X15266Y26616D01*
X14971Y26616D01*
X14698Y26503D01*
X14618Y26424D01*
X14539Y26503D01*
X14266Y26616D01*
X13971Y26616D01*
X13698Y26503D01*
X13618Y26424D01*
X13539Y26503D01*
X13266Y26616D01*
X12971Y26616D01*
X12698Y26503D01*
X12618Y26424D01*
X12539Y26503D01*
X12266Y26616D01*
X11971Y26616D01*
X11698Y26503D01*
X11489Y26295D01*
X11376Y26022D01*
X11376Y25727D01*
X11489Y25454D01*
X11697Y25245D01*
X11970Y25132D01*
X12265Y25132D01*
X12538Y25245D01*
X12617Y25325D01*
X12697Y25245D01*
X12970Y25132D01*
X13265Y25132D01*
X13538Y25245D01*
X13617Y25325D01*
X13697Y25245D01*
X13970Y25132D01*
X14265Y25132D01*
X14538Y25245D01*
X14617Y25325D01*
X14697Y25245D01*
X14970Y25132D01*
X15265Y25132D01*
X15538Y25245D01*
X15617Y25325D01*
X15697Y25245D01*
X15970Y25132D01*
X16265Y25132D01*
X16538Y25245D01*
X16617Y25325D01*
X16697Y25245D01*
X16970Y25132D01*
X17265Y25132D01*
X17538Y25245D01*
X17617Y25325D01*
X17697Y25245D01*
X17970Y25132D01*
X18265Y25132D01*
X18538Y25245D01*
X18617Y25325D01*
X18697Y25245D01*
X18970Y25132D01*
X19265Y25132D01*
X19538Y25245D01*
X19747Y25453D01*
X19860Y25726D01*
X19860Y15723D01*
X18826Y15723D01*
X18633Y15685D01*
X18471Y15576D01*
X17022Y14128D01*
X16968Y14117D01*
X16805Y14008D01*
X16804Y14008D01*
X16804Y14007D01*
X16655Y13859D01*
X16477Y13823D01*
X16315Y13714D01*
X16070Y13469D01*
X15178Y13469D01*
X15158Y13490D01*
X14931Y13584D01*
X14686Y13584D01*
X14459Y13490D01*
X14285Y13317D01*
X14191Y13090D01*
X14191Y12979D01*
X13840Y12979D01*
X13693Y13126D01*
X13530Y13235D01*
X13338Y13273D01*
X11015Y13273D01*
X11015Y13383D01*
X10921Y13610D01*
X10860Y13672D01*
X10860Y25726D01*
X10860Y26021D01*
X10747Y26294D01*
X10539Y26503D01*
X10266Y26616D01*
X9971Y26616D01*
X9698Y26503D01*
X9618Y26424D01*
X9539Y26503D01*
X9266Y26616D01*
X8971Y26616D01*
X8698Y26503D01*
X8618Y26424D01*
X8539Y26503D01*
X8266Y26616D01*
X7971Y26616D01*
X7698Y26503D01*
X7618Y26424D01*
X7539Y26503D01*
X7266Y26616D01*
X6971Y26616D01*
X6698Y26503D01*
X6618Y26424D01*
X6539Y26503D01*
X6266Y26616D01*
X5971Y26616D01*
X5698Y26503D01*
X5618Y26424D01*
X5539Y26503D01*
X5266Y26616D01*
X4971Y26616D01*
X4698Y26503D01*
X4618Y26424D01*
X4539Y26503D01*
X4266Y26616D01*
X3971Y26616D01*
X3698Y26503D01*
X3618Y26424D01*
X3539Y26503D01*
X3266Y26616D01*
X2971Y26616D01*
X2698Y26503D01*
X2489Y26295D01*
X2376Y26022D01*
X2376Y25727D01*
X2489Y25454D01*
X2697Y25245D01*
X2970Y25132D01*
X3265Y25132D01*
X3538Y25245D01*
X3617Y25325D01*
X3697Y25245D01*
X3970Y25132D01*
X4265Y25132D01*
X4538Y25245D01*
X4617Y25325D01*
X4697Y25245D01*
X4970Y25132D01*
X5265Y25132D01*
X5538Y25245D01*
X5617Y25325D01*
X5697Y25245D01*
X5970Y25132D01*
X6265Y25132D01*
X6538Y25245D01*
X6617Y25325D01*
X6697Y25245D01*
X6970Y25132D01*
X7265Y25132D01*
X7538Y25245D01*
X7617Y25325D01*
X7697Y25245D01*
X7970Y25132D01*
X8265Y25132D01*
X8538Y25245D01*
X8617Y25325D01*
X8697Y25245D01*
X8970Y25132D01*
X9265Y25132D01*
X9538Y25245D01*
X9617Y25325D01*
X9697Y25245D01*
X9970Y25132D01*
X10265Y25132D01*
X10538Y25245D01*
X10747Y25453D01*
X10860Y25726D01*
X10860Y13672D01*
X10748Y13784D01*
X10521Y13878D01*
X10491Y13878D01*
X10035Y14334D01*
X10035Y14363D01*
X9941Y14590D01*
X9768Y14764D01*
X9541Y14858D01*
X9296Y14858D01*
X9069Y14764D01*
X8895Y14591D01*
X8801Y14364D01*
X8801Y14119D01*
X8895Y13892D01*
X9068Y13718D01*
X9295Y13624D01*
X9325Y13624D01*
X9781Y13168D01*
X9781Y13148D01*
X9749Y13126D01*
X9619Y12996D01*
X9590Y12996D01*
X9363Y12902D01*
X9189Y12729D01*
X9095Y12502D01*
X9095Y12257D01*
X9189Y12030D01*
X9362Y11856D01*
X9589Y11762D01*
X9834Y11762D01*
X10061Y11856D01*
X10235Y12029D01*
X10329Y12256D01*
X10329Y12269D01*
X12525Y12269D01*
X12525Y12257D01*
X12619Y12030D01*
X12792Y11856D01*
X13019Y11762D01*
X13049Y11762D01*
X13375Y11436D01*
X13537Y11328D01*
X13538Y11327D01*
X13730Y11289D01*
X14478Y11289D01*
X11421Y8233D01*
X11505Y8434D01*
X11505Y8679D01*
X11411Y8906D01*
X11238Y9080D01*
X11011Y9174D01*
X10766Y9174D01*
X10539Y9080D01*
X10365Y8907D01*
X10271Y8680D01*
X10271Y8650D01*
X9798Y8177D01*
X8634Y8177D01*
X8515Y8154D01*
X8569Y8207D01*
X8663Y8434D01*
X8663Y8464D01*
X9920Y9721D01*
X10517Y9721D01*
X10538Y9700D01*
X10765Y9606D01*
X11010Y9606D01*
X11237Y9700D01*
X11411Y9873D01*
X11505Y10100D01*
X11505Y10345D01*
X11411Y10572D01*
X11238Y10746D01*
X11011Y10840D01*
X10766Y10840D01*
X10539Y10746D01*
X10517Y10725D01*
X9712Y10725D01*
X9520Y10687D01*
X9357Y10578D01*
X7953Y9174D01*
X7924Y9174D01*
X7697Y9080D01*
X7523Y8907D01*
X7429Y8680D01*
X7429Y8435D01*
X7523Y8208D01*
X7696Y8034D01*
X7923Y7940D01*
X8168Y7940D01*
X8203Y7955D01*
X8132Y7883D01*
X7850Y7883D01*
X7658Y7845D01*
X7495Y7736D01*
X7494Y7736D01*
X7494Y7735D01*
X7343Y7585D01*
X7266Y7616D01*
X6971Y7616D01*
X6698Y7503D01*
X6618Y7424D01*
X6539Y7503D01*
X6266Y7616D01*
X5971Y7616D01*
X5698Y7503D01*
X5618Y7424D01*
X5539Y7503D01*
X5266Y7616D01*
X4971Y7616D01*
X4698Y7503D01*
X4567Y7374D01*
X4522Y7483D01*
X4223Y7783D01*
X3831Y7946D01*
X3407Y7946D01*
X3015Y7784D01*
X2792Y7562D01*
X2860Y7726D01*
X2860Y8021D01*
X2747Y8294D01*
X2667Y8374D01*
X2747Y8453D01*
X2860Y8726D01*
X2860Y9021D01*
X2747Y9294D01*
X2667Y9374D01*
X2747Y9453D01*
X2860Y9726D01*
X2860Y10021D01*
X2747Y10294D01*
X2667Y10374D01*
X2747Y10453D01*
X2860Y10726D01*
X2860Y11021D01*
X2747Y11294D01*
X2667Y11374D01*
X2747Y11453D01*
X2860Y11726D01*
X2860Y12021D01*
X2747Y12294D01*
X2667Y12374D01*
X2747Y12453D01*
X2860Y12726D01*
X2860Y13021D01*
X2747Y13294D01*
X2667Y13374D01*
X2747Y13453D01*
X2860Y13726D01*
X2860Y14021D01*
X2747Y14294D01*
X2667Y14374D01*
X2747Y14453D01*
X2860Y14726D01*
X2860Y15021D01*
X2747Y15294D01*
X2667Y15374D01*
X2747Y15453D01*
X2860Y15726D01*
X2860Y16021D01*
X2747Y16294D01*
X2667Y16374D01*
X2747Y16453D01*
X2860Y16726D01*
X2860Y17021D01*
X2747Y17294D01*
X2667Y17374D01*
X2747Y17453D01*
X2860Y17726D01*
X2860Y18021D01*
X2747Y18294D01*
X2667Y18374D01*
X2747Y18453D01*
X2860Y18726D01*
X2860Y19021D01*
X2747Y19294D01*
X2667Y19374D01*
X2747Y19453D01*
X2860Y19726D01*
X2860Y20021D01*
X2747Y20294D01*
X2667Y20374D01*
X2747Y20453D01*
X2860Y20726D01*
X2860Y21021D01*
X2747Y21294D01*
X2667Y21374D01*
X2747Y21453D01*
X2860Y21726D01*
X2860Y22021D01*
X2747Y22294D01*
X2667Y22374D01*
X2747Y22453D01*
X2860Y22726D01*
X2860Y23021D01*
X2747Y23294D01*
X2671Y23371D01*
X2539Y23503D01*
X2538Y23504D01*
X2584Y23549D01*
X2557Y23576D01*
X2598Y23588D01*
X2671Y23793D01*
X2660Y24011D01*
X2598Y24160D01*
X2503Y24189D01*
X2433Y24119D01*
X2433Y24259D01*
X2404Y24354D01*
X2199Y24427D01*
X1981Y24416D01*
X1832Y24354D01*
X1803Y24259D01*
X2118Y23945D01*
X2433Y24259D01*
X2433Y24119D01*
X2189Y23874D01*
X2118Y23803D01*
X2047Y23874D01*
X2012Y23909D01*
X1733Y24189D01*
X1638Y24160D01*
X1619Y24109D01*
X1598Y24160D01*
X1503Y24189D01*
X1433Y24119D01*
X1433Y24259D01*
X1404Y24354D01*
X1199Y24427D01*
X981Y24416D01*
X832Y24354D01*
X803Y24259D01*
X1118Y23945D01*
X1433Y24259D01*
X1433Y24119D01*
X1189Y23874D01*
X1118Y23803D01*
X1047Y23874D01*
X1012Y23909D01*
X733Y24189D01*
X638Y24160D01*
X635Y24152D01*
X635Y24913D01*
X905Y24800D01*
X1329Y24800D01*
X1721Y24962D01*
X2021Y25261D01*
X2184Y25653D01*
X2184Y26077D01*
X2022Y26469D01*
X1764Y26727D01*
X32959Y26727D01*
X32714Y26482D01*
X32551Y26090D01*
X32551Y25666D01*
X32713Y25274D01*
X33012Y24974D01*
X33404Y24811D01*
X33828Y24811D01*
X34220Y24973D01*
X34520Y25272D01*
X34683Y25664D01*
X34683Y26088D01*
X34521Y26480D01*
X34274Y26727D01*
X38970Y26727D01*
X38970Y596D01*
M02*
