M48
;DRILL file {Pcbnew (2011-nov-30)-testing} date Mon 11 Jun 2012 06:12:30 PM EDT
;FORMAT={-:-/ absolute / inch / decimal}
FMAT,2
INCH,TZ
T1C0.018
T2C0.032
T3C0.032
T4C0.039
T5C0.040
T6C0.063
T7C0.067
T8C0.071
T9C0.091
%
G90
G05
M72
T1
X0.501Y0.356
X0.805Y0.856
X0.898Y0.843
X0.942Y1.424
X0.967Y0.579
X0.971Y1.238
X1.040Y1.326
X1.055Y0.559
X1.089Y1.022
X1.089Y0.856
X1.173Y0.894
X1.197Y0.552
X1.265Y0.640
X1.314Y1.238
X1.442Y0.621
X1.481Y1.297
X1.500Y1.179
X1.520Y0.336
X1.589Y1.199
X1.687Y1.297
X1.755Y1.297
X1.981Y1.248
X2.059Y0.185
X2.255Y1.414
X2.461Y1.414
X2.490Y1.238
X2.676Y1.179
X2.696Y1.650
X2.921Y0.444
X2.990Y1.169
X3.034Y1.848
X3.083Y2.144
X3.201Y1.986
X3.284Y0.444
X3.421Y0.572
T2
X2.112Y2.587
T3
X0.112Y2.387
X0.112Y2.287
X0.112Y2.187
X0.112Y2.087
X0.112Y1.987
X0.112Y1.887
X0.112Y1.787
X0.112Y1.687
X0.112Y1.587
X0.112Y1.487
X0.112Y1.387
X0.112Y1.287
X0.112Y1.187
X0.112Y1.087
X0.112Y0.987
X0.112Y0.887
X0.112Y0.787
X0.112Y0.687
X0.212Y2.387
X0.212Y2.287
X0.212Y2.187
X0.212Y2.087
X0.212Y1.987
X0.212Y1.887
X0.212Y1.787
X0.212Y1.687
X0.212Y1.587
X0.212Y1.487
X0.212Y1.387
X0.212Y1.287
X0.212Y1.187
X0.212Y1.087
X0.212Y0.987
X0.212Y0.887
X0.212Y0.787
X0.212Y0.687
X0.312Y2.587
X0.412Y2.587
X0.512Y2.587
X0.512Y0.687
X0.612Y2.587
X0.612Y0.687
X0.712Y2.587
X0.712Y0.687
X0.812Y2.587
X0.812Y0.687
X0.912Y2.587
X0.912Y0.687
X1.012Y2.587
X1.012Y0.687
X1.112Y0.687
X1.212Y2.587
X1.212Y0.687
X1.312Y2.587
X1.412Y2.587
X1.412Y0.687
X1.512Y2.587
X1.512Y0.687
X1.612Y2.587
X1.612Y0.687
X1.712Y2.587
X1.712Y0.687
X1.812Y2.587
X1.812Y0.687
X1.912Y2.587
X1.912Y0.687
X2.012Y0.687
X2.112Y0.687
X2.212Y2.587
X2.272Y0.687
X2.312Y2.587
X2.372Y0.687
X2.412Y2.587
X2.472Y0.687
X2.512Y2.587
X2.572Y0.687
X2.612Y2.587
X2.672Y0.687
X2.772Y0.687
X2.872Y0.687
X2.887Y2.542
X2.887Y2.341
X2.972Y0.687
X3.187Y2.542
X3.187Y2.341
X3.311Y1.239
X3.311Y1.139
X3.390Y1.239
X3.390Y1.139
T4
X3.702Y2.475
X3.702Y2.278
T5
X0.212Y0.327
X0.312Y0.327
X1.224Y0.316
X1.224Y0.217
X1.322Y0.316
X1.322Y0.217
X1.420Y0.217
X1.420Y0.316
X2.292Y0.517
X2.342Y0.267
X2.392Y0.517
X2.442Y0.267
X2.492Y0.517
X3.012Y1.467
X3.012Y1.367
X3.012Y1.266
X3.383Y1.576
X3.383Y2.176
X3.383Y2.076
X3.383Y1.976
X3.383Y1.876
X3.383Y1.776
X3.383Y1.676
X3.702Y2.377
T8
X3.722Y0.831
X3.722Y0.614
T9
X3.496Y1.425
X3.496Y0.953
T6
X1.902Y0.229G85X1.902Y0.324
G05
T7
X1.857Y0.477G85X1.947Y0.477
G05
T0
M30
