M48
;DRILL file {Pcbnew (2011-nov-30)-testing} date Wed 06 Jun 2012 06:20:09 PM EDT
;FORMAT={-:-/ absolute / inch / decimal}
FMAT,2
INCH,TZ
T1C0.025
T2C0.032
T3C0.039
T4C0.040
T5C0.063
T6C0.067
T7C0.071
T8C0.091
%
G90
G05
M72
T1
X0.470Y-0.242
X0.714Y0.316
X0.770Y0.258
X0.800Y0.188
X0.910Y0.868
X0.910Y0.808
X0.970Y0.258
X1.010Y0.708
X1.050Y0.358
X1.126Y-0.118
X1.140Y-0.032
X1.180Y0.478
X1.280Y0.638
X1.280Y0.038
X1.310Y0.098
X1.318Y0.280
X1.410Y0.018
X1.440Y-0.122
X1.470Y0.578
X1.500Y-0.122
X1.600Y0.568
X1.830Y1.738
X1.850Y0.998
X2.460Y0.638
X2.640Y0.428
X2.650Y0.578
X2.714Y0.340
X2.752Y1.048
X2.820Y1.128
X2.884Y1.114
X2.890Y-0.152
X2.918Y1.244
X3.022Y1.342
X3.050Y1.548
X3.080Y0.868
X3.150Y0.778
X3.154Y1.092
X3.192Y1.342
X3.250Y-0.152
X3.390Y-0.032
T2
X0.080Y1.789
X0.080Y1.689
X0.080Y1.589
X0.080Y1.489
X0.080Y1.389
X0.080Y1.289
X0.080Y1.189
X0.080Y1.089
X0.080Y0.989
X0.080Y0.889
X0.080Y0.789
X0.080Y0.689
X0.080Y0.589
X0.080Y0.489
X0.080Y0.389
X0.080Y0.289
X0.080Y0.189
X0.080Y0.089
X0.180Y1.789
X0.180Y1.689
X0.180Y1.589
X0.180Y1.489
X0.180Y1.389
X0.180Y1.289
X0.180Y1.189
X0.180Y1.089
X0.180Y0.989
X0.180Y0.889
X0.180Y0.789
X0.180Y0.689
X0.180Y0.589
X0.180Y0.489
X0.180Y0.389
X0.180Y0.289
X0.180Y0.189
X0.180Y0.089
X0.280Y1.989
X0.380Y1.989
X0.480Y1.989
X0.480Y0.089
X0.580Y1.989
X0.580Y0.089
X0.680Y1.989
X0.680Y0.089
X0.780Y1.989
X0.780Y0.089
X0.880Y1.989
X0.880Y0.089
X0.980Y1.989
X0.980Y0.089
X1.080Y0.089
X1.180Y1.989
X1.180Y0.089
X1.280Y1.989
X1.380Y1.989
X1.380Y0.089
X1.480Y1.989
X1.480Y0.089
X1.580Y1.989
X1.580Y0.089
X1.680Y1.989
X1.680Y0.089
X1.780Y1.989
X1.780Y0.089
X1.880Y1.989
X1.880Y0.089
X1.980Y0.089
X2.080Y1.989
X2.080Y0.089
X2.180Y1.989
X2.240Y0.089
X2.280Y1.989
X2.340Y0.089
X2.380Y1.989
X2.440Y0.089
X2.480Y1.989
X2.540Y0.089
X2.580Y1.989
X2.640Y0.089
X2.740Y0.089
X2.840Y0.089
X2.855Y1.943
X2.855Y1.743
X2.940Y0.089
X3.155Y1.943
X3.155Y1.743
X3.280Y0.641
X3.280Y0.541
X3.358Y0.641
X3.358Y0.541
T3
X3.670Y1.877
X3.670Y1.680
T4
X0.180Y-0.272
X0.280Y-0.272
X1.192Y-0.283
X1.192Y-0.381
X1.290Y-0.283
X1.290Y-0.381
X1.388Y-0.381
X1.389Y-0.283
X2.260Y-0.082
X2.310Y-0.332
X2.360Y-0.082
X2.410Y-0.332
X2.460Y-0.082
X2.980Y0.868
X2.980Y0.768
X2.980Y0.668
X3.351Y0.977
X3.351Y1.577
X3.351Y1.477
X3.351Y1.377
X3.351Y1.277
X3.351Y1.177
X3.351Y1.077
X3.670Y1.778
T7
X3.690Y0.232
X3.690Y0.016
T8
X3.465Y0.827
X3.465Y0.354
T5
X1.870Y-0.369G85X1.870Y-0.275
G05
T6
X1.825Y-0.122G85X1.916Y-0.122
G05
T0
M30
