G04 (created by PCBNEW-RS274X (2011-nov-30)-testing) date Mon 04 Jun 2012 02:34:58 PM EDT*
%MOIN*%
G04 Gerber Fmt 3.4, Leading zero omitted, Abs format*
%FSLAX34Y34*%
G01*
G70*
G90*
G04 APERTURE LIST*
%ADD10C,0.006*%
%ADD11R,0.1417X0.0314*%
%ADD12R,0.016X0.05*%
%ADD13R,0.035X0.055*%
%ADD14R,0.0314X0.1417*%
%ADD15R,0.05X0.115*%
%ADD16R,0.135X0.065*%
%ADD17R,0.1495X0.0394*%
%ADD18R,0.1496X0.0394*%
%ADD19R,0.7086X0.6692*%
%ADD20R,0.0787X0.118*%
G04 APERTURE END LIST*
G54D10*
G54D11*
X27657Y4331D03*
X25295Y4331D03*
G54D12*
X33441Y13408D03*
X33191Y13408D03*
X32931Y13408D03*
X32671Y13408D03*
X32421Y13408D03*
X32161Y13408D03*
X31901Y13408D03*
X31651Y13408D03*
X31391Y13408D03*
X31141Y13408D03*
X30881Y13408D03*
X30621Y13408D03*
X30371Y13408D03*
X30111Y13408D03*
X30111Y10608D03*
X30371Y10608D03*
X30611Y10608D03*
X30881Y10608D03*
X31141Y10608D03*
X31391Y10608D03*
X31651Y10608D03*
X31901Y10608D03*
X32161Y10608D03*
X32421Y10608D03*
X32671Y10608D03*
X32931Y10608D03*
X33191Y10608D03*
X33441Y10608D03*
G54D13*
X31318Y15453D03*
X32068Y15453D03*
X5887Y7087D03*
X5137Y7087D03*
X31810Y9252D03*
X32560Y9252D03*
G54D14*
X12106Y5807D03*
X12106Y3445D03*
G54D11*
X27657Y6988D03*
X25295Y6988D03*
X33465Y20079D03*
X35827Y20079D03*
G54D15*
X28937Y17535D03*
X28937Y15735D03*
G54D16*
X27487Y19685D03*
X30387Y19685D03*
G54D17*
X24015Y12834D03*
X24015Y13504D03*
G54D18*
X24015Y14173D03*
G54D17*
X24015Y14842D03*
X24015Y15512D03*
G54D19*
X19093Y14173D03*
G54D20*
X23030Y11417D03*
X23031Y16929D03*
G54D17*
X11220Y12637D03*
X11220Y13307D03*
G54D18*
X11220Y13976D03*
G54D17*
X11220Y14645D03*
X11220Y15315D03*
G54D19*
X6298Y13976D03*
G54D20*
X10235Y11221D03*
X10236Y16732D03*
M02*
