G04 (created by PCBNEW-RS274X (2011-nov-30)-testing) date Wed 06 Jun 2012 06:30:39 PM EDT*
%MOIN*%
G04 Gerber Fmt 3.4, Leading zero omitted, Abs format*
%FSLAX34Y34*%
G01*
G70*
G90*
G04 APERTURE LIST*
%ADD10C,0.006*%
%ADD11R,0.05X0.1*%
%ADD12R,0.1349X0.065*%
%ADD13R,0.05X0.1149*%
%ADD14R,0.135X0.065*%
%ADD15R,0.016X0.05*%
%ADD16R,0.0394X0.1495*%
%ADD17R,0.0394X0.1496*%
%ADD18R,0.6692X0.7086*%
%ADD19R,0.118X0.0787*%
%ADD20R,0.055X0.035*%
%ADD21R,0.0314X0.1417*%
%ADD22R,0.035X0.055*%
G04 APERTURE END LIST*
G54D10*
G54D11*
X28203Y-4669D03*
X28203Y-970D03*
G54D12*
X26670Y-2819D03*
X29736Y-2819D03*
G54D13*
X7392Y-892D03*
X6214Y-892D03*
G54D14*
X5111Y-3619D03*
G54D12*
X8495Y-3619D03*
G54D15*
X32053Y14581D03*
X31803Y14581D03*
X31543Y14581D03*
X31283Y14581D03*
X31033Y14581D03*
X30773Y14581D03*
X30513Y14581D03*
X30263Y14581D03*
X30003Y14581D03*
X29753Y14581D03*
X29493Y14581D03*
X29233Y14581D03*
X28983Y14581D03*
X28723Y14581D03*
X28723Y11781D03*
X28983Y11781D03*
X29223Y11781D03*
X29493Y11781D03*
X29753Y11781D03*
X30003Y11781D03*
X30263Y11781D03*
X30513Y11781D03*
X30773Y11781D03*
X31033Y11781D03*
X31283Y11781D03*
X31543Y11781D03*
X31803Y11781D03*
X32053Y11781D03*
G54D16*
X20708Y9843D03*
X21378Y9843D03*
G54D17*
X22047Y9843D03*
G54D16*
X22716Y9843D03*
X23386Y9843D03*
G54D18*
X22047Y14765D03*
G54D19*
X19291Y10828D03*
X24803Y10827D03*
G54D16*
X8896Y9843D03*
X9566Y9843D03*
G54D17*
X10235Y9843D03*
G54D16*
X10904Y9843D03*
X11574Y9843D03*
G54D18*
X10235Y14765D03*
G54D19*
X7480Y10828D03*
X12991Y10827D03*
G54D20*
X13444Y-313D03*
X13444Y-1063D03*
X12351Y-284D03*
X12351Y-1034D03*
G54D21*
X20078Y5907D03*
X20078Y3545D03*
X8267Y5907D03*
X8267Y3545D03*
G54D20*
X15354Y5101D03*
X15354Y4351D03*
G54D22*
X29078Y10481D03*
X28328Y10481D03*
X30228Y10381D03*
X30978Y10381D03*
G54D21*
X12204Y5907D03*
X12204Y3545D03*
X24015Y5907D03*
X24015Y3545D03*
G54D20*
X27165Y5101D03*
X27165Y4351D03*
G54D11*
X33203Y-4669D03*
X33203Y-970D03*
G54D12*
X31670Y-2819D03*
X34736Y-2819D03*
M02*
