M48
;DRILL file {Pcbnew (2011-nov-30)-testing} date Mon 04 Jun 2012 02:34:54 PM EDT
;FORMAT={-:-/ absolute / inch / decimal}
FMAT,2
INCH,TZ
T1C0.020
T2C0.025
T3C0.028
T4C0.032
T5C0.040
T6C0.063
T7C0.067
T8C0.071
T9C0.091
%
G90
G05
M72
T1
X3.511Y1.346
X3.511Y1.266
X3.511Y1.096
X3.611Y1.346
X3.611Y1.266
X3.611Y1.181
X3.611Y1.096
X3.711Y1.496
X3.731Y1.221
T2
X0.920Y0.159
X1.048Y0.473
X1.175Y1.110
X1.234Y1.198
X1.273Y0.630
X1.469Y0.973
X1.508Y0.551
X2.380Y1.129
X2.469Y1.218
X2.482Y0.561
X2.518Y1.512
X2.900Y1.473
X2.959Y1.551
X2.959Y0.983
X3.041Y1.148
X3.066Y1.551
X3.155Y0.689
X3.213Y1.404
X3.272Y1.188
X3.282Y1.257
X3.339Y0.799
T3
X3.711Y0.946
T4
X0.080Y1.789
X0.080Y1.689
X0.080Y1.589
X0.080Y1.489
X0.080Y1.389
X0.080Y1.289
X0.080Y1.189
X0.080Y1.089
X0.080Y0.989
X0.080Y0.889
X0.080Y0.789
X0.080Y0.689
X0.080Y0.589
X0.080Y0.489
X0.080Y0.389
X0.080Y0.289
X0.080Y0.189
X0.080Y0.089
X0.180Y1.789
X0.180Y1.689
X0.180Y1.589
X0.180Y1.489
X0.180Y1.389
X0.180Y1.289
X0.180Y1.189
X0.180Y1.089
X0.180Y0.989
X0.180Y0.889
X0.180Y0.789
X0.180Y0.689
X0.180Y0.589
X0.180Y0.489
X0.180Y0.389
X0.180Y0.289
X0.180Y0.189
X0.180Y0.089
X0.280Y1.989
X0.380Y1.989
X0.480Y1.989
X0.480Y0.089
X0.580Y1.989
X0.580Y0.089
X0.680Y1.989
X0.680Y0.089
X0.780Y1.989
X0.780Y0.089
X0.880Y1.989
X0.880Y0.089
X0.980Y1.989
X0.980Y0.089
X1.080Y0.089
X1.180Y1.989
X1.180Y0.089
X1.280Y1.989
X1.380Y1.989
X1.380Y0.089
X1.480Y1.989
X1.480Y0.089
X1.580Y1.989
X1.580Y0.089
X1.680Y1.989
X1.680Y0.089
X1.780Y1.989
X1.780Y0.089
X1.880Y1.989
X1.880Y0.089
X1.980Y0.089
X2.080Y1.989
X2.080Y0.089
X2.180Y1.989
X2.240Y0.089
X2.280Y1.989
X2.340Y0.089
X2.380Y1.989
X2.440Y0.089
X2.480Y1.989
X2.540Y0.089
X2.580Y1.989
X2.640Y0.089
X2.676Y1.400
X2.676Y1.100
X2.740Y0.089
X2.840Y0.089
X2.876Y1.400
X2.876Y1.100
X2.940Y0.089
X3.280Y0.641
X3.280Y0.541
X3.358Y0.641
X3.358Y0.541
T5
X0.280Y2.066
X0.380Y2.066
X0.383Y0.472
X0.477Y0.021
X0.480Y2.066
X0.483Y0.472
X0.577Y0.021
X0.580Y2.066
X0.677Y0.021
X0.680Y2.066
X0.777Y0.472
X0.777Y0.021
X0.780Y2.066
X0.877Y0.472
X0.877Y0.021
X0.880Y2.066
X0.977Y0.021
X0.980Y2.066
X1.077Y0.021
X1.177Y0.020
X1.179Y2.066
X1.275Y1.088
X1.275Y0.988
X1.275Y0.888
X1.280Y2.066
X1.375Y1.088
X1.375Y0.988
X1.375Y0.888
X1.380Y2.066
X1.382Y0.021
X1.480Y2.066
X1.482Y0.021
X1.580Y2.066
X1.582Y0.021
X1.585Y0.709
X1.679Y2.066
X1.682Y0.021
X1.693Y0.709
X1.780Y2.066
X1.782Y0.021
X1.880Y2.066
X1.882Y0.021
X1.982Y0.021
X2.082Y0.020
X2.243Y0.021
X2.343Y0.021
X2.408Y0.226
X2.443Y0.021
X2.542Y0.021
X2.643Y0.021
X2.743Y0.021
X2.808Y0.226
X2.843Y0.021
X2.943Y0.020
X2.953Y0.415
X2.953Y0.315
X2.953Y0.215
X3.681Y0.188
X3.681Y0.088
T8
X3.118Y1.693
X3.335Y1.693
T9
X3.465Y0.827
X3.465Y0.354
T6
X3.404Y0.118G85X3.310Y0.118
G05
T7
X3.157Y0.073G85X3.157Y0.163
G05
T0
M30
