G04 (created by PCBNEW-RS274X (2011-nov-30)-testing) date Sat 05 May 2012 08:26:57 PM EDT*
G01*
G70*
G90*
%MOIN*%
G04 Gerber Fmt 3.4, Leading zero omitted, Abs format*
%FSLAX34Y34*%
G04 APERTURE LIST*
%ADD10C,0.006000*%
%ADD11C,0.015000*%
%ADD12C,0.005000*%
%ADD13C,0.012000*%
%ADD14C,0.008000*%
%ADD15C,0.006200*%
G04 APERTURE END LIST*
G54D10*
G54D11*
X08661Y15158D02*
X10944Y15158D01*
X08661Y15197D02*
X08661Y19921D01*
X08661Y19921D02*
X10944Y19921D01*
X10944Y19921D02*
X10944Y15158D01*
X08661Y18937D02*
X08661Y15984D01*
X10944Y15158D02*
X10944Y19843D01*
X10945Y15945D02*
X10945Y19370D01*
G54D12*
X25159Y-00113D02*
X29959Y-00113D01*
X29959Y-00113D02*
X29959Y06587D01*
X29959Y06587D02*
X25159Y06587D01*
X25159Y06587D02*
X25159Y-00113D01*
X18027Y07024D02*
X18024Y06997D01*
X18016Y06971D01*
X18003Y06946D01*
X17986Y06925D01*
X17964Y06908D01*
X17940Y06895D01*
X17914Y06886D01*
X17886Y06884D01*
X17860Y06886D01*
X17834Y06894D01*
X17809Y06907D01*
X17788Y06924D01*
X17770Y06945D01*
X17757Y06969D01*
X17749Y06995D01*
X17746Y07023D01*
X17748Y07049D01*
X17755Y07075D01*
X17768Y07100D01*
X17785Y07121D01*
X17806Y07139D01*
X17830Y07153D01*
X17856Y07161D01*
X17884Y07164D01*
X17910Y07162D01*
X17936Y07155D01*
X17961Y07143D01*
X17983Y07126D01*
X18001Y07105D01*
X18014Y07081D01*
X18023Y07055D01*
X18026Y07027D01*
X18027Y07024D01*
X17686Y08124D02*
X17986Y08124D01*
X17986Y08124D02*
X17986Y07624D01*
X17986Y07624D02*
X17686Y07624D01*
X21736Y06824D02*
X17686Y06824D01*
X17686Y08924D02*
X21736Y08924D01*
X17686Y08924D02*
X17686Y06824D01*
X21736Y08924D02*
X21736Y06824D01*
X17122Y14231D02*
X17121Y14222D01*
X17118Y14212D01*
X17113Y14204D01*
X17107Y14196D01*
X17099Y14190D01*
X17091Y14185D01*
X17082Y14183D01*
X17072Y14182D01*
X17063Y14182D01*
X17054Y14185D01*
X17045Y14190D01*
X17038Y14196D01*
X17031Y14203D01*
X17027Y14212D01*
X17024Y14221D01*
X17023Y14231D01*
X17023Y14240D01*
X17026Y14249D01*
X17030Y14258D01*
X17037Y14265D01*
X17044Y14272D01*
X17052Y14276D01*
X17062Y14279D01*
X17071Y14280D01*
X17080Y14280D01*
X17090Y14277D01*
X17098Y14273D01*
X17106Y14267D01*
X17112Y14259D01*
X17117Y14251D01*
X17120Y14242D01*
X17121Y14232D01*
X17122Y14231D01*
X17072Y14681D02*
X17072Y14281D01*
X17072Y14281D02*
X16472Y14281D01*
X16472Y14281D02*
X16472Y14681D01*
X16472Y15081D02*
X16472Y15481D01*
X16472Y15481D02*
X17072Y15481D01*
X17072Y15481D02*
X17072Y15081D01*
X04518Y15842D02*
X04517Y15833D01*
X04514Y15823D01*
X04509Y15815D01*
X04503Y15807D01*
X04495Y15801D01*
X04487Y15796D01*
X04478Y15794D01*
X04468Y15793D01*
X04459Y15793D01*
X04450Y15796D01*
X04441Y15801D01*
X04434Y15807D01*
X04427Y15814D01*
X04423Y15823D01*
X04420Y15832D01*
X04419Y15842D01*
X04419Y15851D01*
X04422Y15860D01*
X04426Y15869D01*
X04433Y15876D01*
X04440Y15883D01*
X04448Y15887D01*
X04458Y15890D01*
X04467Y15891D01*
X04476Y15891D01*
X04486Y15888D01*
X04494Y15884D01*
X04502Y15878D01*
X04508Y15870D01*
X04513Y15862D01*
X04516Y15853D01*
X04517Y15843D01*
X04518Y15842D01*
X04918Y15842D02*
X04518Y15842D01*
X04518Y15842D02*
X04518Y16442D01*
X04518Y16442D02*
X04918Y16442D01*
X05318Y16442D02*
X05718Y16442D01*
X05718Y16442D02*
X05718Y15842D01*
X05718Y15842D02*
X05318Y15842D01*
X03062Y16442D02*
X03061Y16433D01*
X03058Y16423D01*
X03053Y16415D01*
X03047Y16407D01*
X03039Y16401D01*
X03031Y16396D01*
X03022Y16394D01*
X03012Y16393D01*
X03003Y16393D01*
X02994Y16396D01*
X02985Y16401D01*
X02978Y16407D01*
X02971Y16414D01*
X02967Y16423D01*
X02964Y16432D01*
X02963Y16442D01*
X02963Y16451D01*
X02966Y16460D01*
X02970Y16469D01*
X02977Y16476D01*
X02984Y16483D01*
X02992Y16487D01*
X03002Y16490D01*
X03011Y16491D01*
X03020Y16491D01*
X03030Y16488D01*
X03038Y16484D01*
X03046Y16478D01*
X03052Y16470D01*
X03057Y16462D01*
X03060Y16453D01*
X03061Y16443D01*
X03062Y16442D01*
X02562Y16442D02*
X02962Y16442D01*
X02962Y16442D02*
X02962Y15842D01*
X02962Y15842D02*
X02562Y15842D01*
X02162Y15842D02*
X01762Y15842D01*
X01762Y15842D02*
X01762Y16442D01*
X01762Y16442D02*
X02162Y16442D01*
X21172Y11324D02*
X21171Y11315D01*
X21168Y11305D01*
X21163Y11297D01*
X21157Y11289D01*
X21149Y11283D01*
X21141Y11278D01*
X21132Y11276D01*
X21122Y11275D01*
X21113Y11275D01*
X21104Y11278D01*
X21095Y11283D01*
X21088Y11289D01*
X21081Y11296D01*
X21077Y11305D01*
X21074Y11314D01*
X21073Y11324D01*
X21073Y11333D01*
X21076Y11342D01*
X21080Y11351D01*
X21087Y11358D01*
X21094Y11365D01*
X21102Y11369D01*
X21112Y11372D01*
X21121Y11373D01*
X21130Y11373D01*
X21140Y11370D01*
X21148Y11366D01*
X21156Y11360D01*
X21162Y11352D01*
X21167Y11344D01*
X21170Y11335D01*
X21171Y11325D01*
X21172Y11324D01*
X20672Y11324D02*
X21072Y11324D01*
X21072Y11324D02*
X21072Y10724D01*
X21072Y10724D02*
X20672Y10724D01*
X20272Y10724D02*
X19872Y10724D01*
X19872Y10724D02*
X19872Y11324D01*
X19872Y11324D02*
X20272Y11324D01*
G54D10*
X13705Y04830D02*
X13705Y03830D01*
X13705Y03830D02*
X10705Y03830D01*
X10705Y03830D02*
X10705Y04830D01*
X10705Y04830D02*
X13705Y04830D01*
X12705Y03830D02*
X12705Y04830D01*
X05299Y18398D02*
X05299Y19398D01*
X05299Y19398D02*
X07299Y19398D01*
X07299Y19398D02*
X07299Y18398D01*
X07299Y18398D02*
X05299Y18398D01*
X00968Y18398D02*
X00968Y19398D01*
X00968Y19398D02*
X02968Y19398D01*
X02968Y19398D02*
X02968Y18398D01*
X02968Y18398D02*
X00968Y18398D01*
X11205Y00681D02*
X11205Y01681D01*
X11205Y01681D02*
X13205Y01681D01*
X13205Y01681D02*
X13205Y00681D01*
X13205Y00681D02*
X11205Y00681D01*
G54D11*
X17185Y01468D02*
X17185Y03968D01*
X17185Y03968D02*
X22185Y03968D01*
X22185Y03968D02*
X22185Y-00032D01*
X22185Y-00032D02*
X17185Y-00032D01*
X17185Y-00032D02*
X17185Y01468D01*
G54D13*
X12705Y09374D02*
X12705Y06374D01*
X12705Y06374D02*
X11705Y06374D01*
X11705Y06374D02*
X11705Y09374D01*
X11705Y09374D02*
X12705Y09374D01*
X12705Y06624D02*
X11705Y06624D01*
X11705Y06874D02*
X12705Y06874D01*
X12205Y09374D02*
X12205Y09874D01*
X12205Y06374D02*
X12205Y05874D01*
G54D11*
X19004Y16160D02*
X20154Y16160D01*
X20154Y16160D02*
X20154Y16760D01*
X20154Y16760D02*
X19954Y16760D01*
X19954Y16760D02*
X19954Y17510D01*
X17154Y16760D02*
X17154Y17510D01*
X17154Y16760D02*
X16954Y16760D01*
X16954Y16760D02*
X16954Y16160D01*
X16954Y16160D02*
X17954Y16160D01*
X17104Y18710D02*
X17104Y20010D01*
X17104Y20010D02*
X19954Y20010D01*
X19954Y20010D02*
X19954Y18710D01*
G54D14*
X12429Y13998D02*
X13379Y13998D01*
X15179Y13998D02*
X14179Y13998D01*
X15529Y17498D02*
X14179Y17498D01*
X12029Y17498D02*
X13379Y17498D01*
X12029Y15748D02*
X12029Y17498D01*
X15529Y17498D02*
X15529Y14348D01*
X15529Y14348D02*
X15179Y13998D01*
X12379Y13998D02*
X12029Y14348D01*
X12029Y14348D02*
X12029Y15748D01*
X15379Y15748D02*
X15348Y15438D01*
X15258Y15139D01*
X15111Y14863D01*
X14914Y14621D01*
X14673Y14422D01*
X14399Y14274D01*
X14100Y14181D01*
X13790Y14149D01*
X13480Y14177D01*
X13180Y14265D01*
X12903Y14410D01*
X12660Y14605D01*
X12459Y14845D01*
X12309Y15118D01*
X12214Y15416D01*
X12180Y15726D01*
X12206Y16036D01*
X12292Y16336D01*
X12435Y16614D01*
X12629Y16859D01*
X12866Y17061D01*
X13139Y17214D01*
X13436Y17310D01*
X13746Y17347D01*
X14056Y17323D01*
X14357Y17239D01*
X14636Y17098D01*
X14882Y16906D01*
X15086Y16670D01*
X15240Y16398D01*
X15339Y16102D01*
X15378Y15792D01*
X15379Y15748D01*
X13847Y05809D02*
X14797Y05809D01*
X16597Y05809D02*
X15597Y05809D01*
X16947Y09309D02*
X15597Y09309D01*
X13447Y09309D02*
X14797Y09309D01*
X13447Y07559D02*
X13447Y09309D01*
X16947Y09309D02*
X16947Y06159D01*
X16947Y06159D02*
X16597Y05809D01*
X13797Y05809D02*
X13447Y06159D01*
X13447Y06159D02*
X13447Y07559D01*
X16797Y07559D02*
X16766Y07249D01*
X16676Y06950D01*
X16529Y06674D01*
X16332Y06432D01*
X16091Y06233D01*
X15817Y06085D01*
X15518Y05992D01*
X15208Y05960D01*
X14898Y05988D01*
X14598Y06076D01*
X14321Y06221D01*
X14078Y06416D01*
X13877Y06656D01*
X13727Y06929D01*
X13632Y07227D01*
X13598Y07537D01*
X13624Y07847D01*
X13710Y08147D01*
X13853Y08425D01*
X14047Y08670D01*
X14284Y08872D01*
X14557Y09025D01*
X14854Y09121D01*
X15164Y09158D01*
X15474Y09134D01*
X15775Y09050D01*
X16054Y08909D01*
X16300Y08717D01*
X16504Y08481D01*
X16658Y08209D01*
X16757Y07913D01*
X16796Y07603D01*
X16797Y07559D01*
X05303Y11321D02*
X06253Y11321D01*
X08053Y11321D02*
X07053Y11321D01*
X08403Y14821D02*
X07053Y14821D01*
X04903Y14821D02*
X06253Y14821D01*
X04903Y13071D02*
X04903Y14821D01*
X08403Y14821D02*
X08403Y11671D01*
X08403Y11671D02*
X08053Y11321D01*
X05253Y11321D02*
X04903Y11671D01*
X04903Y11671D02*
X04903Y13071D01*
X08253Y13071D02*
X08222Y12761D01*
X08132Y12462D01*
X07985Y12186D01*
X07788Y11944D01*
X07547Y11745D01*
X07273Y11597D01*
X06974Y11504D01*
X06664Y11472D01*
X06354Y11500D01*
X06054Y11588D01*
X05777Y11733D01*
X05534Y11928D01*
X05333Y12168D01*
X05183Y12441D01*
X05088Y12739D01*
X05054Y13049D01*
X05080Y13359D01*
X05166Y13659D01*
X05309Y13937D01*
X05503Y14182D01*
X05740Y14384D01*
X06013Y14537D01*
X06310Y14633D01*
X06620Y14670D01*
X06930Y14646D01*
X07231Y14562D01*
X07510Y14421D01*
X07756Y14229D01*
X07960Y13993D01*
X08114Y13721D01*
X08213Y13425D01*
X08252Y13115D01*
X08253Y13071D01*
X01209Y11281D02*
X02159Y11281D01*
X03959Y11281D02*
X02959Y11281D01*
X04309Y14781D02*
X02959Y14781D01*
X00809Y14781D02*
X02159Y14781D01*
X00809Y13031D02*
X00809Y14781D01*
X04309Y14781D02*
X04309Y11631D01*
X04309Y11631D02*
X03959Y11281D01*
X01159Y11281D02*
X00809Y11631D01*
X00809Y11631D02*
X00809Y13031D01*
X04159Y13031D02*
X04128Y12721D01*
X04038Y12422D01*
X03891Y12146D01*
X03694Y11904D01*
X03453Y11705D01*
X03179Y11557D01*
X02880Y11464D01*
X02570Y11432D01*
X02260Y11460D01*
X01960Y11548D01*
X01683Y11693D01*
X01440Y11888D01*
X01239Y12128D01*
X01089Y12401D01*
X00994Y12699D01*
X00960Y13009D01*
X00986Y13319D01*
X01072Y13619D01*
X01215Y13897D01*
X01409Y14142D01*
X01646Y14344D01*
X01919Y14497D01*
X02216Y14593D01*
X02526Y14630D01*
X02836Y14606D01*
X03137Y14522D01*
X03416Y14381D01*
X03662Y14189D01*
X03866Y13953D01*
X04020Y13681D01*
X04119Y13385D01*
X04158Y13075D01*
X04159Y13031D01*
G54D12*
X09547Y17561D02*
X09547Y17961D01*
X09700Y17961D01*
X09738Y17942D01*
X09757Y17923D01*
X09776Y17885D01*
X09776Y17828D01*
X09757Y17790D01*
X09738Y17771D01*
X09700Y17752D01*
X09547Y17752D01*
X10138Y17961D02*
X09947Y17961D01*
X09928Y17771D01*
X09947Y17790D01*
X09985Y17809D01*
X10081Y17809D01*
X10119Y17790D01*
X10138Y17771D01*
X10157Y17733D01*
X10157Y17637D01*
X10138Y17599D01*
X10119Y17580D01*
X10081Y17561D01*
X09985Y17561D01*
X09947Y17580D01*
X09928Y17599D01*
G54D13*
X23353Y12196D02*
X22753Y12196D01*
X23181Y12396D01*
X22753Y12596D01*
X23353Y12596D01*
X23353Y12882D02*
X22753Y12882D01*
X23296Y13511D02*
X23324Y13482D01*
X23353Y13396D01*
X23353Y13339D01*
X23324Y13254D01*
X23267Y13196D01*
X23210Y13168D01*
X23096Y13139D01*
X23010Y13139D01*
X22896Y13168D01*
X22839Y13196D01*
X22781Y13254D01*
X22753Y13339D01*
X22753Y13396D01*
X22781Y13482D01*
X22810Y13511D01*
X22810Y13739D02*
X22781Y13768D01*
X22753Y13825D01*
X22753Y13968D01*
X22781Y14025D01*
X22810Y14054D01*
X22867Y14082D01*
X22924Y14082D01*
X23010Y14054D01*
X23353Y13711D01*
X23353Y14082D01*
X23353Y14367D02*
X23353Y14482D01*
X23324Y14539D01*
X23296Y14567D01*
X23210Y14625D01*
X23096Y14653D01*
X22867Y14653D01*
X22810Y14625D01*
X22781Y14596D01*
X22753Y14539D01*
X22753Y14425D01*
X22781Y14367D01*
X22810Y14339D01*
X22867Y14310D01*
X23010Y14310D01*
X23067Y14339D01*
X23096Y14367D01*
X23124Y14425D01*
X23124Y14539D01*
X23096Y14596D01*
X23067Y14625D01*
X23010Y14653D01*
X23353Y15224D02*
X23353Y14881D01*
X23353Y15053D02*
X22753Y15053D01*
X22839Y14996D01*
X22896Y14938D01*
X22924Y14881D01*
X22753Y15767D02*
X22753Y15481D01*
X23039Y15452D01*
X23010Y15481D01*
X22981Y15538D01*
X22981Y15681D01*
X23010Y15738D01*
X23039Y15767D01*
X23096Y15795D01*
X23239Y15795D01*
X23296Y15767D01*
X23324Y15738D01*
X23353Y15681D01*
X23353Y15538D01*
X23324Y15481D01*
X23296Y15452D01*
X23353Y16366D02*
X23353Y16023D01*
X23353Y16195D02*
X22753Y16195D01*
X22839Y16138D01*
X22896Y16080D01*
X22924Y16023D01*
X23124Y16623D02*
X23124Y17080D01*
X23353Y17680D02*
X23353Y17337D01*
X23353Y17509D02*
X22753Y17509D01*
X22839Y17452D01*
X22896Y17394D01*
X22924Y17337D01*
X22810Y17908D02*
X22781Y17937D01*
X22753Y17994D01*
X22753Y18137D01*
X22781Y18194D01*
X22810Y18223D01*
X22867Y18251D01*
X22924Y18251D01*
X23010Y18223D01*
X23353Y17880D01*
X23353Y18251D01*
X22753Y18451D02*
X23353Y18594D01*
X22924Y18708D01*
X23353Y18822D01*
X22753Y18965D01*
X22753Y19194D02*
X23239Y19194D01*
X23296Y19222D01*
X23324Y19251D01*
X23353Y19308D01*
X23353Y19422D01*
X23324Y19480D01*
X23296Y19508D01*
X23239Y19537D01*
X22753Y19537D01*
X09692Y00911D02*
X09092Y00911D01*
X09520Y01111D01*
X09092Y01311D01*
X09692Y01311D01*
X09692Y01597D02*
X09092Y01597D01*
X09635Y02226D02*
X09663Y02197D01*
X09692Y02111D01*
X09692Y02054D01*
X09663Y01969D01*
X09606Y01911D01*
X09549Y01883D01*
X09435Y01854D01*
X09349Y01854D01*
X09235Y01883D01*
X09178Y01911D01*
X09120Y01969D01*
X09092Y02054D01*
X09092Y02111D01*
X09120Y02197D01*
X09149Y02226D01*
X09149Y02454D02*
X09120Y02483D01*
X09092Y02540D01*
X09092Y02683D01*
X09120Y02740D01*
X09149Y02769D01*
X09206Y02797D01*
X09263Y02797D01*
X09349Y02769D01*
X09692Y02426D01*
X09692Y02797D01*
X09692Y03082D02*
X09692Y03197D01*
X09663Y03254D01*
X09635Y03282D01*
X09549Y03340D01*
X09435Y03368D01*
X09206Y03368D01*
X09149Y03340D01*
X09120Y03311D01*
X09092Y03254D01*
X09092Y03140D01*
X09120Y03082D01*
X09149Y03054D01*
X09206Y03025D01*
X09349Y03025D01*
X09406Y03054D01*
X09435Y03082D01*
X09463Y03140D01*
X09463Y03254D01*
X09435Y03311D01*
X09406Y03340D01*
X09349Y03368D01*
X09692Y03939D02*
X09692Y03596D01*
X09692Y03768D02*
X09092Y03768D01*
X09178Y03711D01*
X09235Y03653D01*
X09263Y03596D01*
X09092Y04482D02*
X09092Y04196D01*
X09378Y04167D01*
X09349Y04196D01*
X09320Y04253D01*
X09320Y04396D01*
X09349Y04453D01*
X09378Y04482D01*
X09435Y04510D01*
X09578Y04510D01*
X09635Y04482D01*
X09663Y04453D01*
X09692Y04396D01*
X09692Y04253D01*
X09663Y04196D01*
X09635Y04167D01*
X09692Y05081D02*
X09692Y04738D01*
X09692Y04910D02*
X09092Y04910D01*
X09178Y04853D01*
X09235Y04795D01*
X09263Y04738D01*
X09463Y05338D02*
X09463Y05795D01*
X09092Y06367D02*
X09092Y06081D01*
X09378Y06052D01*
X09349Y06081D01*
X09320Y06138D01*
X09320Y06281D01*
X09349Y06338D01*
X09378Y06367D01*
X09435Y06395D01*
X09578Y06395D01*
X09635Y06367D01*
X09663Y06338D01*
X09692Y06281D01*
X09692Y06138D01*
X09663Y06081D01*
X09635Y06052D01*
X09635Y06652D02*
X09663Y06680D01*
X09692Y06652D01*
X09663Y06623D01*
X09635Y06652D01*
X09692Y06652D01*
X09092Y07052D02*
X09092Y07109D01*
X09120Y07166D01*
X09149Y07195D01*
X09206Y07224D01*
X09320Y07252D01*
X09463Y07252D01*
X09578Y07224D01*
X09635Y07195D01*
X09663Y07166D01*
X09692Y07109D01*
X09692Y07052D01*
X09663Y06995D01*
X09635Y06966D01*
X09578Y06938D01*
X09463Y06909D01*
X09320Y06909D01*
X09206Y06938D01*
X09149Y06966D01*
X09120Y06995D01*
X09092Y07052D01*
X09092Y07452D02*
X09692Y07595D01*
X09263Y07709D01*
X09692Y07823D01*
X09092Y07966D01*
X09092Y08195D02*
X09578Y08195D01*
X09635Y08223D01*
X09663Y08252D01*
X09692Y08309D01*
X09692Y08423D01*
X09663Y08481D01*
X09635Y08509D01*
X09578Y08538D01*
X09092Y08538D01*
X27280Y01814D02*
X27280Y01386D01*
X27252Y01300D01*
X27195Y01243D01*
X27109Y01214D01*
X27052Y01214D01*
X27880Y01214D02*
X27537Y01214D01*
X27709Y01214D02*
X27709Y01814D01*
X27652Y01728D01*
X27594Y01671D01*
X27537Y01643D01*
X26802Y03901D02*
X26802Y03415D01*
X26830Y03358D01*
X26859Y03330D01*
X26916Y03301D01*
X27030Y03301D01*
X27088Y03330D01*
X27116Y03358D01*
X27145Y03415D01*
X27145Y03901D01*
X27402Y03330D02*
X27488Y03301D01*
X27631Y03301D01*
X27688Y03330D01*
X27717Y03358D01*
X27745Y03415D01*
X27745Y03473D01*
X27717Y03530D01*
X27688Y03558D01*
X27631Y03587D01*
X27517Y03615D01*
X27459Y03644D01*
X27431Y03673D01*
X27402Y03730D01*
X27402Y03787D01*
X27431Y03844D01*
X27459Y03873D01*
X27517Y03901D01*
X27659Y03901D01*
X27745Y03873D01*
X28202Y03615D02*
X28288Y03587D01*
X28316Y03558D01*
X28345Y03501D01*
X28345Y03415D01*
X28316Y03358D01*
X28288Y03330D01*
X28230Y03301D01*
X28002Y03301D01*
X28002Y03901D01*
X28202Y03901D01*
X28259Y03873D01*
X28288Y03844D01*
X28316Y03787D01*
X28316Y03730D01*
X28288Y03673D01*
X28259Y03644D01*
X28202Y03615D01*
X28002Y03615D01*
G54D12*
X19464Y08222D02*
X19464Y07979D01*
X19479Y07950D01*
X19493Y07936D01*
X19522Y07922D01*
X19579Y07922D01*
X19607Y07936D01*
X19622Y07950D01*
X19636Y07979D01*
X19636Y08222D01*
X19936Y07922D02*
X19764Y07922D01*
X19850Y07922D02*
X19850Y08222D01*
X19821Y08179D01*
X19793Y08150D01*
X19764Y08136D01*
X18914Y07516D02*
X18814Y07516D01*
X18814Y07359D02*
X18814Y07659D01*
X18957Y07659D01*
X19029Y07659D02*
X19200Y07659D01*
X19114Y07359D02*
X19114Y07659D01*
X19286Y07630D02*
X19300Y07644D01*
X19329Y07659D01*
X19400Y07659D01*
X19429Y07644D01*
X19443Y07630D01*
X19458Y07601D01*
X19458Y07573D01*
X19443Y07530D01*
X19272Y07359D01*
X19458Y07359D01*
X19558Y07659D02*
X19744Y07659D01*
X19644Y07544D01*
X19686Y07544D01*
X19715Y07530D01*
X19729Y07516D01*
X19744Y07487D01*
X19744Y07416D01*
X19729Y07387D01*
X19715Y07373D01*
X19686Y07359D01*
X19601Y07359D01*
X19572Y07373D01*
X19558Y07387D01*
X19858Y07630D02*
X19872Y07644D01*
X19901Y07659D01*
X19972Y07659D01*
X20001Y07644D01*
X20015Y07630D01*
X20030Y07601D01*
X20030Y07573D01*
X20015Y07530D01*
X19844Y07359D01*
X20030Y07359D01*
X20330Y07359D02*
X20230Y07501D01*
X20158Y07359D02*
X20158Y07659D01*
X20273Y07659D01*
X20301Y07644D01*
X20316Y07630D01*
X20330Y07601D01*
X20330Y07559D01*
X20316Y07530D01*
X20301Y07516D01*
X20273Y07501D01*
X20158Y07501D01*
X20601Y07359D02*
X20458Y07359D01*
X20458Y07659D01*
X16881Y14875D02*
X16893Y14863D01*
X16905Y14828D01*
X16905Y14804D01*
X16893Y14768D01*
X16869Y14744D01*
X16846Y14733D01*
X16798Y14721D01*
X16762Y14721D01*
X16715Y14733D01*
X16691Y14744D01*
X16667Y14768D01*
X16655Y14804D01*
X16655Y14828D01*
X16667Y14863D01*
X16679Y14875D01*
X16655Y15102D02*
X16655Y14983D01*
X16774Y14971D01*
X16762Y14983D01*
X16750Y15006D01*
X16750Y15066D01*
X16762Y15090D01*
X16774Y15102D01*
X16798Y15113D01*
X16858Y15113D01*
X16881Y15102D01*
X16893Y15090D01*
X16905Y15066D01*
X16905Y15006D01*
X16893Y14983D01*
X16881Y14971D01*
X05076Y16065D02*
X05064Y16053D01*
X05029Y16041D01*
X05005Y16041D01*
X04969Y16053D01*
X04945Y16077D01*
X04934Y16100D01*
X04922Y16148D01*
X04922Y16184D01*
X04934Y16231D01*
X04945Y16255D01*
X04969Y16279D01*
X05005Y16291D01*
X05029Y16291D01*
X05064Y16279D01*
X05076Y16267D01*
X05291Y16291D02*
X05243Y16291D01*
X05219Y16279D01*
X05207Y16267D01*
X05184Y16231D01*
X05172Y16184D01*
X05172Y16088D01*
X05184Y16065D01*
X05195Y16053D01*
X05219Y16041D01*
X05267Y16041D01*
X05291Y16053D01*
X05303Y16065D01*
X05314Y16088D01*
X05314Y16148D01*
X05303Y16172D01*
X05291Y16184D01*
X05267Y16196D01*
X05219Y16196D01*
X05195Y16184D01*
X05184Y16172D01*
X05172Y16148D01*
X02439Y16100D02*
X02451Y16088D01*
X02463Y16053D01*
X02463Y16029D01*
X02451Y15993D01*
X02427Y15969D01*
X02404Y15958D01*
X02356Y15946D01*
X02320Y15946D01*
X02273Y15958D01*
X02249Y15969D01*
X02225Y15993D01*
X02213Y16029D01*
X02213Y16053D01*
X02225Y16088D01*
X02237Y16100D01*
X02213Y16184D02*
X02213Y16350D01*
X02463Y16243D01*
X20587Y10750D02*
X20575Y10738D01*
X20540Y10726D01*
X20516Y10726D01*
X20480Y10738D01*
X20456Y10762D01*
X20445Y10785D01*
X20433Y10833D01*
X20433Y10869D01*
X20445Y10916D01*
X20456Y10940D01*
X20480Y10964D01*
X20516Y10976D01*
X20540Y10976D01*
X20575Y10964D01*
X20587Y10952D01*
X20730Y10869D02*
X20706Y10881D01*
X20695Y10892D01*
X20683Y10916D01*
X20683Y10928D01*
X20695Y10952D01*
X20706Y10964D01*
X20730Y10976D01*
X20778Y10976D01*
X20802Y10964D01*
X20814Y10952D01*
X20825Y10928D01*
X20825Y10916D01*
X20814Y10892D01*
X20802Y10881D01*
X20778Y10869D01*
X20730Y10869D01*
X20706Y10857D01*
X20695Y10845D01*
X20683Y10821D01*
X20683Y10773D01*
X20695Y10750D01*
X20706Y10738D01*
X20730Y10726D01*
X20778Y10726D01*
X20802Y10738D01*
X20814Y10750D01*
X20825Y10773D01*
X20825Y10821D01*
X20814Y10845D01*
X20802Y10857D01*
X20778Y10869D01*
G54D10*
X06077Y19527D02*
X06077Y19827D01*
X06192Y19827D01*
X06220Y19812D01*
X06235Y19798D01*
X06249Y19769D01*
X06249Y19727D01*
X06235Y19698D01*
X06220Y19684D01*
X06192Y19669D01*
X06077Y19669D01*
X06349Y19827D02*
X06549Y19827D01*
X06420Y19527D01*
X01746Y19527D02*
X01746Y19827D01*
X01861Y19827D01*
X01889Y19812D01*
X01904Y19798D01*
X01918Y19769D01*
X01918Y19727D01*
X01904Y19698D01*
X01889Y19684D01*
X01861Y19669D01*
X01746Y19669D01*
X02175Y19827D02*
X02118Y19827D01*
X02089Y19812D01*
X02075Y19798D01*
X02046Y19755D01*
X02032Y19698D01*
X02032Y19584D01*
X02046Y19555D01*
X02061Y19541D01*
X02089Y19527D01*
X02146Y19527D01*
X02175Y19541D01*
X02189Y19555D01*
X02204Y19584D01*
X02204Y19655D01*
X02189Y19684D01*
X02175Y19698D01*
X02146Y19712D01*
X02089Y19712D01*
X02061Y19698D01*
X02046Y19684D01*
X02032Y19655D01*
X11983Y01810D02*
X11983Y02110D01*
X12098Y02110D01*
X12126Y02095D01*
X12141Y02081D01*
X12155Y02052D01*
X12155Y02010D01*
X12141Y01981D01*
X12126Y01967D01*
X12098Y01952D01*
X11983Y01952D01*
X12255Y02110D02*
X12441Y02110D01*
X12341Y01995D01*
X12383Y01995D01*
X12412Y01981D01*
X12426Y01967D01*
X12441Y01938D01*
X12441Y01867D01*
X12426Y01838D01*
X12412Y01824D01*
X12383Y01810D01*
X12298Y01810D01*
X12269Y01824D01*
X12255Y01838D01*
G54D13*
X17228Y05325D02*
X17571Y05325D01*
X17400Y04725D02*
X17400Y05325D01*
X17857Y04725D02*
X17799Y04754D01*
X17771Y04782D01*
X17742Y04839D01*
X17742Y05011D01*
X17771Y05068D01*
X17799Y05097D01*
X17857Y05125D01*
X17942Y05125D01*
X17999Y05097D01*
X18028Y05068D01*
X18057Y05011D01*
X18057Y04839D01*
X18028Y04782D01*
X17999Y04754D01*
X17942Y04725D01*
X17857Y04725D01*
X19114Y04725D02*
X18914Y05011D01*
X18771Y04725D02*
X18771Y05325D01*
X18999Y05325D01*
X19057Y05297D01*
X19085Y05268D01*
X19114Y05211D01*
X19114Y05125D01*
X19085Y05068D01*
X19057Y05039D01*
X18999Y05011D01*
X18771Y05011D01*
X19457Y04725D02*
X19399Y04754D01*
X19371Y04782D01*
X19342Y04839D01*
X19342Y05011D01*
X19371Y05068D01*
X19399Y05097D01*
X19457Y05125D01*
X19542Y05125D01*
X19599Y05097D01*
X19628Y05068D01*
X19657Y05011D01*
X19657Y04839D01*
X19628Y04782D01*
X19599Y04754D01*
X19542Y04725D01*
X19457Y04725D01*
X20000Y04725D02*
X19942Y04754D01*
X19914Y04782D01*
X19885Y04839D01*
X19885Y05011D01*
X19914Y05068D01*
X19942Y05097D01*
X20000Y05125D01*
X20085Y05125D01*
X20142Y05097D01*
X20171Y05068D01*
X20200Y05011D01*
X20200Y04839D01*
X20171Y04782D01*
X20142Y04754D01*
X20085Y04725D01*
X20000Y04725D01*
X20457Y04725D02*
X20457Y05125D01*
X20457Y05068D02*
X20485Y05097D01*
X20543Y05125D01*
X20628Y05125D01*
X20685Y05097D01*
X20714Y05039D01*
X20714Y04725D01*
X20714Y05039D02*
X20743Y05097D01*
X20800Y05125D01*
X20885Y05125D01*
X20943Y05097D01*
X20971Y05039D01*
X20971Y04725D01*
X21257Y04725D02*
X21257Y05325D01*
X21257Y05097D02*
X21314Y05125D01*
X21428Y05125D01*
X21485Y05097D01*
X21514Y05068D01*
X21543Y05011D01*
X21543Y04839D01*
X21514Y04782D01*
X21485Y04754D01*
X21428Y04725D01*
X21314Y04725D01*
X21257Y04754D01*
X22057Y04725D02*
X22057Y05039D01*
X22028Y05097D01*
X21971Y05125D01*
X21857Y05125D01*
X21800Y05097D01*
X22057Y04754D02*
X22000Y04725D01*
X21857Y04725D01*
X21800Y04754D01*
X21771Y04811D01*
X21771Y04868D01*
X21800Y04925D01*
X21857Y04954D01*
X22000Y04954D01*
X22057Y04982D01*
G54D14*
X12407Y07972D02*
X11907Y07972D01*
X11907Y08067D01*
X11931Y08125D01*
X11979Y08163D01*
X12026Y08182D01*
X12122Y08201D01*
X12193Y08201D01*
X12288Y08182D01*
X12336Y08163D01*
X12384Y08125D01*
X12407Y08067D01*
X12407Y07972D01*
X12407Y08582D02*
X12407Y08353D01*
X12407Y08467D02*
X11907Y08467D01*
X11979Y08429D01*
X12026Y08391D01*
X12050Y08353D01*
G54D12*
X18209Y18348D02*
X18209Y18748D01*
X18362Y18748D01*
X18400Y18729D01*
X18419Y18710D01*
X18438Y18672D01*
X18438Y18615D01*
X18419Y18577D01*
X18400Y18558D01*
X18362Y18539D01*
X18209Y18539D01*
X18781Y18615D02*
X18781Y18348D01*
X18685Y18767D02*
X18590Y18481D01*
X18838Y18481D01*
G54D13*
G54D15*
X14703Y15682D02*
X14722Y15663D01*
X14741Y15606D01*
X14741Y15568D01*
X14722Y15510D01*
X14684Y15472D01*
X14646Y15453D01*
X14569Y15434D01*
X14512Y15434D01*
X14436Y15453D01*
X14398Y15472D01*
X14360Y15510D01*
X14341Y15568D01*
X14341Y15606D01*
X14360Y15663D01*
X14379Y15682D01*
X14341Y15815D02*
X14341Y16063D01*
X14493Y15929D01*
X14493Y15987D01*
X14512Y16025D01*
X14531Y16044D01*
X14569Y16063D01*
X14665Y16063D01*
X14703Y16044D01*
X14722Y16025D01*
X14741Y15987D01*
X14741Y15872D01*
X14722Y15834D01*
X14703Y15815D01*
X13041Y15470D02*
X13041Y15241D01*
X13041Y15355D02*
X12641Y15355D01*
X12698Y15317D01*
X12736Y15279D01*
X12755Y15241D01*
X12641Y15717D02*
X12641Y15756D01*
X12660Y15794D01*
X12679Y15813D01*
X12717Y15832D01*
X12793Y15851D01*
X12889Y15851D01*
X12965Y15832D01*
X13003Y15813D01*
X13022Y15794D01*
X13041Y15756D01*
X13041Y15717D01*
X13022Y15679D01*
X13003Y15660D01*
X12965Y15641D01*
X12889Y15622D01*
X12793Y15622D01*
X12717Y15641D01*
X12679Y15660D01*
X12660Y15679D01*
X12641Y15717D01*
X12774Y16194D02*
X13041Y16194D01*
X12774Y16022D02*
X12984Y16022D01*
X13022Y16041D01*
X13041Y16079D01*
X13041Y16137D01*
X13022Y16175D01*
X13003Y16194D01*
X12831Y16518D02*
X12831Y16384D01*
X13041Y16384D02*
X12641Y16384D01*
X12641Y16575D01*
G54D14*
X13143Y14420D02*
X13143Y14877D01*
X13372Y14648D02*
X12915Y14648D01*
G54D15*
X16121Y07493D02*
X16140Y07474D01*
X16159Y07417D01*
X16159Y07379D01*
X16140Y07321D01*
X16102Y07283D01*
X16064Y07264D01*
X15987Y07245D01*
X15930Y07245D01*
X15854Y07264D01*
X15816Y07283D01*
X15778Y07321D01*
X15759Y07379D01*
X15759Y07417D01*
X15778Y07474D01*
X15797Y07493D01*
X15797Y07645D02*
X15778Y07664D01*
X15759Y07702D01*
X15759Y07798D01*
X15778Y07836D01*
X15797Y07855D01*
X15835Y07874D01*
X15873Y07874D01*
X15930Y07855D01*
X16159Y07626D01*
X16159Y07874D01*
X14459Y07281D02*
X14459Y07052D01*
X14459Y07166D02*
X14059Y07166D01*
X14116Y07128D01*
X14154Y07090D01*
X14173Y07052D01*
X14059Y07528D02*
X14059Y07567D01*
X14078Y07605D01*
X14097Y07624D01*
X14135Y07643D01*
X14211Y07662D01*
X14307Y07662D01*
X14383Y07643D01*
X14421Y07624D01*
X14440Y07605D01*
X14459Y07567D01*
X14459Y07528D01*
X14440Y07490D01*
X14421Y07471D01*
X14383Y07452D01*
X14307Y07433D01*
X14211Y07433D01*
X14135Y07452D01*
X14097Y07471D01*
X14078Y07490D01*
X14059Y07528D01*
X14192Y08005D02*
X14459Y08005D01*
X14192Y07833D02*
X14402Y07833D01*
X14440Y07852D01*
X14459Y07890D01*
X14459Y07948D01*
X14440Y07986D01*
X14421Y08005D01*
X14249Y08329D02*
X14249Y08195D01*
X14459Y08195D02*
X14059Y08195D01*
X14059Y08386D01*
G54D14*
X14561Y06231D02*
X14561Y06688D01*
X14790Y06459D02*
X14333Y06459D01*
G54D15*
X07577Y13005D02*
X07596Y12986D01*
X07615Y12929D01*
X07615Y12891D01*
X07596Y12833D01*
X07558Y12795D01*
X07520Y12776D01*
X07443Y12757D01*
X07386Y12757D01*
X07310Y12776D01*
X07272Y12795D01*
X07234Y12833D01*
X07215Y12891D01*
X07215Y12929D01*
X07234Y12986D01*
X07253Y13005D01*
X07615Y13386D02*
X07615Y13157D01*
X07615Y13271D02*
X07215Y13271D01*
X07272Y13233D01*
X07310Y13195D01*
X07329Y13157D01*
X05915Y12793D02*
X05915Y12564D01*
X05915Y12678D02*
X05515Y12678D01*
X05572Y12640D01*
X05610Y12602D01*
X05629Y12564D01*
X05515Y13040D02*
X05515Y13079D01*
X05534Y13117D01*
X05553Y13136D01*
X05591Y13155D01*
X05667Y13174D01*
X05763Y13174D01*
X05839Y13155D01*
X05877Y13136D01*
X05896Y13117D01*
X05915Y13079D01*
X05915Y13040D01*
X05896Y13002D01*
X05877Y12983D01*
X05839Y12964D01*
X05763Y12945D01*
X05667Y12945D01*
X05591Y12964D01*
X05553Y12983D01*
X05534Y13002D01*
X05515Y13040D01*
X05648Y13517D02*
X05915Y13517D01*
X05648Y13345D02*
X05858Y13345D01*
X05896Y13364D01*
X05915Y13402D01*
X05915Y13460D01*
X05896Y13498D01*
X05877Y13517D01*
X05705Y13841D02*
X05705Y13707D01*
X05915Y13707D02*
X05515Y13707D01*
X05515Y13898D01*
G54D14*
X06017Y11743D02*
X06017Y12200D01*
X06246Y11971D02*
X05789Y11971D01*
G54D15*
X03483Y12965D02*
X03502Y12946D01*
X03521Y12889D01*
X03521Y12851D01*
X03502Y12793D01*
X03464Y12755D01*
X03426Y12736D01*
X03349Y12717D01*
X03292Y12717D01*
X03216Y12736D01*
X03178Y12755D01*
X03140Y12793D01*
X03121Y12851D01*
X03121Y12889D01*
X03140Y12946D01*
X03159Y12965D01*
X03254Y13308D02*
X03521Y13308D01*
X03102Y13212D02*
X03388Y13117D01*
X03388Y13365D01*
X01815Y12564D02*
X01815Y12335D01*
X01815Y12449D02*
X01415Y12449D01*
X01472Y12411D01*
X01510Y12373D01*
X01529Y12335D01*
X01415Y12811D02*
X01415Y12850D01*
X01434Y12888D01*
X01453Y12907D01*
X01491Y12926D01*
X01567Y12945D01*
X01663Y12945D01*
X01739Y12926D01*
X01777Y12907D01*
X01796Y12888D01*
X01815Y12850D01*
X01815Y12811D01*
X01796Y12773D01*
X01777Y12754D01*
X01739Y12735D01*
X01663Y12716D01*
X01567Y12716D01*
X01491Y12735D01*
X01453Y12754D01*
X01434Y12773D01*
X01415Y12811D01*
X01548Y13288D02*
X01815Y13288D01*
X01548Y13116D02*
X01758Y13116D01*
X01796Y13135D01*
X01815Y13173D01*
X01815Y13231D01*
X01796Y13269D01*
X01777Y13288D01*
X01605Y13612D02*
X01605Y13478D01*
X01815Y13478D02*
X01415Y13478D01*
X01415Y13669D01*
G54D14*
X01923Y11703D02*
X01923Y12160D01*
X02152Y11931D02*
X01695Y11931D01*
M02*
