G04 (created by PCBNEW-RS274X (2011-nov-30)-testing) date Sat 05 May 2012 08:26:57 PM EDT*
G01*
G70*
G90*
%MOIN*%
G04 Gerber Fmt 3.4, Leading zero omitted, Abs format*
%FSLAX34Y34*%
G04 APERTURE LIST*
%ADD10C,0.006000*%
%ADD11C,0.098700*%
%ADD12C,0.138100*%
%ADD13R,0.059400X0.169600*%
%ADD14R,0.820000X0.598700*%
%ADD15R,0.098700X0.256200*%
%ADD16C,0.080000*%
%ADD17C,0.126300*%
%ADD18R,0.036000X0.070000*%
%ADD19R,0.075000X0.055000*%
%ADD20R,0.055000X0.075000*%
%ADD21R,0.080000X0.080000*%
%ADD22C,0.074000*%
%ADD23R,0.146000X0.098700*%
%ADD24R,0.105400X0.146000*%
%ADD25C,0.090000*%
%ADD26R,0.090000X0.090000*%
%ADD27R,0.070000X0.135000*%
%ADD28R,0.155000X0.085000*%
%ADD29R,0.067200X0.169600*%
G04 APERTURE END LIST*
G54D10*
G54D11*
X09842Y14449D03*
X09842Y12284D03*
G54D12*
X09842Y17323D03*
G54D13*
X25433Y12047D03*
X26103Y12047D03*
X26772Y12047D03*
X27441Y12047D03*
X28111Y12047D03*
G54D14*
X26772Y16929D03*
G54D13*
X06063Y08425D03*
X05393Y08425D03*
X04724Y08425D03*
X04055Y08425D03*
X03385Y08425D03*
G54D14*
X04724Y03543D03*
G54D15*
X08267Y07874D03*
X01181Y07874D03*
G54D16*
X28059Y05787D03*
X27059Y05787D03*
X27059Y05000D03*
X28059Y05000D03*
G54D17*
X29921Y03937D03*
X25197Y03937D03*
G54D18*
X18036Y06474D03*
X18286Y06474D03*
X18546Y06474D03*
X18806Y06474D03*
X19056Y06474D03*
X19316Y06474D03*
X19576Y06474D03*
X19826Y06474D03*
X20086Y06474D03*
X20336Y06474D03*
X20596Y06474D03*
X20856Y06474D03*
X21106Y06474D03*
X21366Y06474D03*
X21366Y09274D03*
X21106Y09274D03*
X20866Y09274D03*
X20596Y09274D03*
X20336Y09274D03*
X20086Y09274D03*
X19826Y09274D03*
X19576Y09274D03*
X19316Y09274D03*
X19056Y09274D03*
X18806Y09274D03*
X18546Y09274D03*
X18286Y09274D03*
X18036Y09274D03*
G54D19*
X16772Y14506D03*
X16772Y15256D03*
G54D20*
X04743Y16142D03*
X05493Y16142D03*
X02737Y16142D03*
X01987Y16142D03*
X20847Y11024D03*
X20097Y11024D03*
G54D21*
X13205Y04330D03*
G54D16*
X12205Y04330D03*
X11205Y04330D03*
G54D21*
X05799Y18898D03*
G54D16*
X06799Y18898D03*
G54D21*
X01468Y18898D03*
G54D16*
X02468Y18898D03*
G54D21*
X11705Y01181D03*
G54D16*
X12705Y01181D03*
G54D22*
X19285Y02468D03*
X20135Y02468D03*
X20935Y03468D03*
X18435Y03468D03*
X18435Y02468D03*
X20935Y02468D03*
G54D23*
X19685Y01268D03*
G54D24*
X22435Y01468D03*
X16935Y01468D03*
G54D22*
X20135Y03468D03*
G54D25*
X12205Y09874D03*
G54D26*
X12205Y05874D03*
G54D27*
X18504Y15960D03*
X18504Y14160D03*
G54D28*
X17054Y18110D03*
X19954Y18110D03*
G54D29*
X13779Y14498D03*
X13779Y16998D03*
X15197Y06309D03*
X15197Y08809D03*
X06653Y11821D03*
X06653Y14321D03*
X02559Y11781D03*
X02559Y14281D03*
M02*
