G04 (created by PCBNEW-RS274X (2011-nov-30)-testing) date Sat 05 May 2012 08:26:57 PM EDT*
G01*
G70*
G90*
%MOIN*%
G04 Gerber Fmt 3.4, Leading zero omitted, Abs format*
%FSLAX34Y34*%
G04 APERTURE LIST*
%ADD10C,0.006000*%
%ADD11R,0.039400X0.149600*%
%ADD12R,0.800000X0.578700*%
%ADD13R,0.078700X0.236200*%
%ADD14R,0.016000X0.050000*%
%ADD15R,0.055000X0.035000*%
%ADD16R,0.035000X0.055000*%
%ADD17R,0.050000X0.115000*%
%ADD18R,0.135000X0.065000*%
%ADD19R,0.047200X0.149600*%
G04 APERTURE END LIST*
G54D10*
G54D11*
X25433Y12047D03*
X26103Y12047D03*
X26772Y12047D03*
X27441Y12047D03*
X28111Y12047D03*
G54D12*
X26772Y16929D03*
G54D11*
X06063Y08425D03*
X05393Y08425D03*
X04724Y08425D03*
X04055Y08425D03*
X03385Y08425D03*
G54D12*
X04724Y03543D03*
G54D13*
X08267Y07874D03*
X01181Y07874D03*
G54D14*
X18036Y06474D03*
X18286Y06474D03*
X18546Y06474D03*
X18806Y06474D03*
X19056Y06474D03*
X19316Y06474D03*
X19576Y06474D03*
X19826Y06474D03*
X20086Y06474D03*
X20336Y06474D03*
X20596Y06474D03*
X20856Y06474D03*
X21106Y06474D03*
X21366Y06474D03*
X21366Y09274D03*
X21106Y09274D03*
X20866Y09274D03*
X20596Y09274D03*
X20336Y09274D03*
X20086Y09274D03*
X19826Y09274D03*
X19576Y09274D03*
X19316Y09274D03*
X19056Y09274D03*
X18806Y09274D03*
X18546Y09274D03*
X18286Y09274D03*
X18036Y09274D03*
G54D15*
X16772Y14506D03*
X16772Y15256D03*
G54D16*
X04743Y16142D03*
X05493Y16142D03*
X02737Y16142D03*
X01987Y16142D03*
X20847Y11024D03*
X20097Y11024D03*
G54D17*
X18504Y15960D03*
X18504Y14160D03*
G54D18*
X17054Y18110D03*
X19954Y18110D03*
G54D19*
X13779Y14498D03*
X13779Y16998D03*
X15197Y06309D03*
X15197Y08809D03*
X06653Y11821D03*
X06653Y14321D03*
X02559Y11781D03*
X02559Y14281D03*
M02*
