G04 (created by PCBNEW-RS274X (2011-nov-30)-testing) date Wed 06 Jun 2012 06:30:39 PM EDT*
%MOIN*%
G04 Gerber Fmt 3.4, Leading zero omitted, Abs format*
%FSLAX34Y34*%
G01*
G70*
G90*
G04 APERTURE LIST*
%ADD10C,0.006*%
%ADD11R,0.05X0.1*%
%ADD12R,0.1349X0.065*%
%ADD13R,0.06X0.06*%
%ADD14C,0.06*%
%ADD15R,0.05X0.1149*%
%ADD16R,0.135X0.065*%
%ADD17R,0.1377X0.2165*%
%ADD18R,0.2165X0.1377*%
%ADD19C,0.1063*%
%ADD20R,0.016X0.05*%
%ADD21R,0.0394X0.1495*%
%ADD22R,0.0394X0.1496*%
%ADD23R,0.6692X0.7086*%
%ADD24R,0.118X0.0787*%
%ADD25C,0.0787*%
%ADD26R,0.055X0.035*%
%ADD27R,0.0314X0.1417*%
%ADD28R,0.035X0.055*%
%ADD29C,0.055*%
%ADD30C,0.035*%
%ADD31C,0.012*%
%ADD32C,0.01*%
G04 APERTURE END LIST*
G54D10*
G54D11*
X28203Y-4669D03*
X28203Y-970D03*
G54D12*
X26670Y-2819D03*
X29736Y-2819D03*
G54D13*
X11923Y-3811D03*
G54D14*
X12903Y-3811D03*
X13883Y-3811D03*
X12903Y-2827D03*
X11923Y-2827D03*
X13887Y-2827D03*
G54D15*
X7392Y-892D03*
X6214Y-892D03*
G54D16*
X5111Y-3619D03*
G54D12*
X8495Y-3619D03*
G54D14*
X33510Y9772D03*
X33511Y10773D03*
X33511Y11773D03*
X33511Y12773D03*
X33511Y13773D03*
X33511Y14773D03*
X33511Y15773D03*
G54D13*
X36703Y16797D03*
G54D14*
X36703Y17781D03*
X36703Y18765D03*
X11803Y890D03*
X10803Y890D03*
X9803Y890D03*
X8803Y890D03*
X7803Y890D03*
X6803Y890D03*
X5803Y890D03*
X4803Y890D03*
X2803Y19890D03*
X3803Y19890D03*
X4803Y19890D03*
X5803Y19890D03*
X9803Y19890D03*
X11803Y19890D03*
X12803Y19890D03*
X8803Y19890D03*
X7803Y19890D03*
X6803Y19890D03*
X13803Y19890D03*
X14803Y19890D03*
X15803Y19890D03*
X18803Y19890D03*
X17803Y19890D03*
X16803Y19890D03*
X20803Y19890D03*
X21803Y19890D03*
X22803Y19890D03*
X24803Y19890D03*
X25803Y19890D03*
X13803Y890D03*
X14803Y890D03*
X15803Y890D03*
X16803Y890D03*
X17803Y890D03*
X18803Y890D03*
X19803Y890D03*
X20803Y890D03*
X22403Y890D03*
X23403Y890D03*
X24403Y890D03*
X25403Y890D03*
X26403Y890D03*
X27403Y890D03*
X28403Y890D03*
X29403Y890D03*
X23803Y19890D03*
X1803Y1890D03*
X803Y1890D03*
X1803Y2890D03*
X803Y2890D03*
X1803Y3890D03*
X803Y3890D03*
X1803Y4890D03*
X803Y4890D03*
X1803Y890D03*
X803Y890D03*
X803Y5890D03*
X1803Y5890D03*
X1803Y6890D03*
X803Y6890D03*
X1803Y7890D03*
X803Y7890D03*
X1803Y8890D03*
X803Y8890D03*
X1803Y9890D03*
X803Y9890D03*
X1803Y10890D03*
X803Y10890D03*
X1803Y11890D03*
X803Y11890D03*
X1803Y12890D03*
X803Y12890D03*
X1803Y13890D03*
X803Y13890D03*
X1803Y14890D03*
X803Y14890D03*
X1803Y15890D03*
X803Y15890D03*
X1803Y16890D03*
X803Y16890D03*
X1803Y17890D03*
X803Y17890D03*
G54D13*
X23103Y-3319D03*
G54D14*
X24103Y-3319D03*
G54D17*
X18703Y-3219D03*
G54D18*
X18703Y-1219D03*
G54D14*
X32795Y6406D03*
X32795Y5406D03*
X33582Y5406D03*
X33582Y6406D03*
G54D19*
X34645Y8268D03*
X34645Y3544D03*
G54D20*
X32053Y14581D03*
X31803Y14581D03*
X31543Y14581D03*
X31283Y14581D03*
X31033Y14581D03*
X30773Y14581D03*
X30513Y14581D03*
X30263Y14581D03*
X30003Y14581D03*
X29753Y14581D03*
X29493Y14581D03*
X29233Y14581D03*
X28983Y14581D03*
X28723Y14581D03*
X28723Y11781D03*
X28983Y11781D03*
X29223Y11781D03*
X29493Y11781D03*
X29753Y11781D03*
X30003Y11781D03*
X30263Y11781D03*
X30513Y11781D03*
X30773Y11781D03*
X31033Y11781D03*
X31283Y11781D03*
X31543Y11781D03*
X31803Y11781D03*
X32053Y11781D03*
G54D13*
X1803Y-2719D03*
G54D14*
X2803Y-2719D03*
G54D21*
X20708Y9843D03*
X21378Y9843D03*
G54D22*
X22047Y9843D03*
G54D21*
X22716Y9843D03*
X23386Y9843D03*
G54D23*
X22047Y14765D03*
G54D24*
X19291Y10828D03*
X24803Y10827D03*
G54D21*
X8896Y9843D03*
X9566Y9843D03*
G54D22*
X10235Y9843D03*
G54D21*
X10904Y9843D03*
X11574Y9843D03*
G54D23*
X10235Y14765D03*
G54D24*
X7480Y10828D03*
X12991Y10827D03*
G54D25*
X36903Y156D03*
X36903Y2321D03*
G54D13*
X29803Y8681D03*
G54D14*
X29803Y7681D03*
X29803Y6681D03*
G54D26*
X13444Y-313D03*
X13444Y-1063D03*
X12351Y-284D03*
X12351Y-1034D03*
G54D13*
X24603Y-819D03*
G54D14*
X23603Y-819D03*
X22603Y-819D03*
G54D27*
X20078Y5907D03*
X20078Y3545D03*
X8267Y5907D03*
X8267Y3545D03*
G54D26*
X15354Y5101D03*
X15354Y4351D03*
G54D28*
X29078Y10481D03*
X28328Y10481D03*
X30228Y10381D03*
X30978Y10381D03*
G54D27*
X12204Y5907D03*
X12204Y3545D03*
G54D29*
X28553Y17431D03*
X28553Y19431D03*
X31553Y17431D03*
X31553Y19431D03*
G54D27*
X24015Y5907D03*
X24015Y3545D03*
G54D26*
X27165Y5101D03*
X27165Y4351D03*
G54D11*
X33203Y-4669D03*
X33203Y-970D03*
G54D12*
X31670Y-2819D03*
X34736Y-2819D03*
G54D30*
X28903Y-1519D03*
X33903Y-319D03*
X24603Y6381D03*
X26503Y5781D03*
X32503Y-1519D03*
X9703Y2581D03*
X11803Y4781D03*
X16003Y5681D03*
X4703Y-2419D03*
X14703Y5781D03*
X8003Y1881D03*
X12803Y6381D03*
X10503Y3581D03*
X28203Y11281D03*
X30803Y8681D03*
X28843Y11141D03*
X14103Y181D03*
X14403Y-1219D03*
X12803Y381D03*
X13103Y981D03*
X15003Y-1219D03*
X11403Y-319D03*
X9103Y8081D03*
X10103Y7081D03*
X30223Y13421D03*
X31923Y13421D03*
X7703Y2581D03*
X26403Y4281D03*
X31503Y7781D03*
X9103Y8681D03*
X18303Y17381D03*
X18503Y9981D03*
X11263Y-1179D03*
X29183Y12441D03*
X27523Y10481D03*
X27143Y3401D03*
X31543Y10921D03*
X7143Y3161D03*
X13183Y2801D03*
X30503Y15481D03*
G54D31*
X32503Y-1519D02*
X32703Y-1519D01*
X27903Y4481D02*
X27903Y581D01*
X28203Y-970D02*
X28203Y-1019D01*
X33203Y-1019D02*
X33203Y-970D01*
X27165Y5101D02*
X27203Y5081D01*
X27203Y5081D02*
X27165Y5101D01*
X32703Y-1519D02*
X33203Y-1019D01*
X23003Y9581D02*
X23003Y8881D01*
X24003Y7881D02*
X24003Y5881D01*
X27303Y5081D02*
X27903Y4481D01*
X33203Y-970D02*
X33203Y-1019D01*
X22703Y9881D02*
X23003Y9581D01*
X24003Y5881D02*
X24015Y5907D01*
X27203Y5081D02*
X27303Y5081D01*
X28203Y-1019D02*
X28403Y-1019D01*
X28203Y281D02*
X28203Y-970D01*
X24015Y5907D02*
X24003Y5881D01*
X23003Y8881D02*
X24003Y7881D01*
X24003Y5881D02*
X24103Y5881D01*
X28403Y-1019D02*
X28903Y-1519D01*
X27903Y581D02*
X28203Y281D01*
X26503Y5781D02*
X27203Y5081D01*
X22716Y9843D02*
X22703Y9881D01*
X24103Y5881D02*
X24603Y6381D01*
X33203Y-1019D02*
X33903Y-319D01*
X12204Y5907D02*
X12203Y5881D01*
X12203Y5881D02*
X11803Y5481D01*
X11803Y5481D02*
X11803Y4781D01*
X15403Y5081D02*
X16003Y5681D01*
X6203Y-919D02*
X6214Y-892D01*
X8003Y1881D02*
X7303Y1181D01*
X7303Y1181D02*
X7303Y581D01*
X6203Y-519D02*
X6203Y-919D01*
X6203Y-919D02*
X4703Y-2419D01*
X10904Y9843D02*
X10903Y9881D01*
X6214Y-892D02*
X6203Y-919D01*
X11203Y8881D02*
X12203Y7881D01*
X11203Y9581D02*
X11203Y8881D01*
X9703Y2781D02*
X9703Y2581D01*
X10903Y9881D02*
X11203Y9581D01*
X12203Y7881D02*
X12203Y5881D01*
X12203Y5881D02*
X12204Y5907D01*
X15403Y5081D02*
X15354Y5101D01*
X14703Y5781D02*
X15403Y5081D01*
X15354Y5101D02*
X15403Y5081D01*
X12204Y5907D02*
X12203Y5881D01*
X12203Y5881D02*
X12303Y5881D01*
X12303Y5881D02*
X12803Y6381D01*
X7303Y581D02*
X6203Y-519D01*
X10503Y3581D02*
X9703Y2781D01*
X30228Y10381D02*
X30203Y10381D01*
X30203Y10381D02*
X30303Y10281D01*
X30003Y11781D02*
X30003Y12481D01*
X30303Y8181D02*
X29803Y7681D01*
X30003Y12481D02*
X31303Y13881D01*
X30303Y10281D02*
X30303Y8181D01*
X30003Y10581D02*
X30003Y11781D01*
X30203Y10381D02*
X30003Y10581D01*
X30228Y10381D02*
X30203Y10381D01*
X31303Y13881D02*
X31283Y14581D01*
X30803Y7581D02*
X30803Y8681D01*
X28703Y11781D02*
X28723Y11781D01*
X28203Y11281D02*
X28703Y11781D01*
X32503Y5881D02*
X30803Y7581D01*
X33103Y5881D02*
X32503Y5881D01*
X33582Y5406D02*
X33603Y5381D01*
X33603Y5381D02*
X33103Y5881D01*
X28983Y11781D02*
X28983Y11241D01*
X28983Y11241D02*
X28843Y11141D01*
X13903Y-2019D02*
X13903Y-719D01*
X13903Y-3819D02*
X13403Y-3319D01*
X13403Y-319D02*
X13603Y-319D01*
X13444Y-313D02*
X13403Y-319D01*
X13403Y-3319D02*
X13403Y-2519D01*
X13403Y-319D02*
X13444Y-313D01*
X13903Y-719D02*
X13803Y-719D01*
X13883Y-3811D02*
X13903Y-3819D01*
X13603Y-319D02*
X14103Y181D01*
X13403Y-2519D02*
X13903Y-2019D01*
X13803Y-719D02*
X13403Y-319D01*
X12303Y-119D02*
X12303Y-319D01*
X12803Y381D02*
X12303Y-119D01*
X13103Y81D02*
X13203Y181D01*
X12703Y-319D02*
X13003Y-19D01*
X13887Y-2827D02*
X13903Y-2819D01*
X13903Y-2819D02*
X14403Y-2319D01*
X13103Y681D02*
X13103Y981D01*
X13203Y581D02*
X13103Y681D01*
X13203Y181D02*
X13203Y581D01*
X14403Y-2319D02*
X14403Y-1219D01*
X12303Y-319D02*
X12703Y-319D01*
X13003Y-19D02*
X13003Y81D01*
X12351Y-284D02*
X12303Y-319D01*
X13003Y81D02*
X13103Y81D01*
X12303Y-319D02*
X12351Y-284D01*
X16303Y1181D02*
X19703Y4581D01*
X19703Y6781D02*
X19803Y6881D01*
X20703Y9881D02*
X20708Y9843D01*
X19703Y4581D02*
X19703Y6781D01*
X15003Y-1219D02*
X16303Y81D01*
X19803Y6881D02*
X19803Y7981D01*
X19903Y8181D02*
X20703Y8981D01*
X19803Y7981D02*
X19903Y8081D01*
X20703Y8981D02*
X20703Y9881D01*
X19903Y8081D02*
X19903Y8181D01*
X16303Y81D02*
X16303Y1181D01*
X8703Y9681D02*
X8703Y8481D01*
X11403Y481D02*
X11403Y-319D01*
X11303Y581D02*
X11403Y481D01*
X11303Y2781D02*
X11303Y581D01*
X8896Y9843D02*
X8903Y9881D01*
X8903Y9881D02*
X8703Y9681D01*
X8703Y8481D02*
X9103Y8081D01*
X10103Y7081D02*
X11203Y5981D01*
X11203Y5981D02*
X11203Y2881D01*
X11203Y2881D02*
X11303Y2781D01*
X33511Y11773D02*
X31923Y13421D01*
X31003Y14061D02*
X31033Y14581D01*
X30223Y13421D02*
X31003Y14061D01*
X6803Y890D02*
X6803Y881D01*
X32103Y14581D02*
X32053Y14581D01*
X7703Y2181D02*
X7703Y2581D01*
X7603Y2081D02*
X7703Y2181D01*
X7603Y1981D02*
X7603Y2081D01*
X7103Y1481D02*
X7603Y1981D01*
X7103Y1181D02*
X7103Y1481D01*
X6803Y881D02*
X7103Y1181D01*
X32103Y14181D02*
X32103Y14581D01*
X33511Y12773D02*
X32103Y14181D01*
X23903Y1181D02*
X26103Y3381D01*
X23903Y481D02*
X23903Y1181D01*
X26103Y3381D02*
X26103Y3881D01*
X26103Y3881D02*
X26403Y4181D01*
X26403Y4181D02*
X26403Y4281D01*
X33503Y9781D02*
X33503Y10781D01*
X31503Y7781D02*
X33503Y9781D01*
X33503Y9781D02*
X33510Y9772D01*
X33510Y9772D02*
X33503Y9781D01*
X22603Y-819D02*
X23903Y481D01*
X33503Y10781D02*
X33511Y10773D01*
X24603Y-819D02*
X24103Y-1319D01*
X24103Y-1319D02*
X24103Y-3319D01*
X9203Y3281D02*
X8603Y3881D01*
X21403Y9881D02*
X21378Y9843D01*
X9203Y1281D02*
X9203Y3281D01*
X8603Y3881D02*
X8603Y4481D01*
X11903Y-2819D02*
X9303Y-219D01*
X11923Y-2827D02*
X11903Y-2819D01*
X21378Y9843D02*
X21403Y9881D01*
X18303Y11181D02*
X18303Y17381D01*
X20103Y7881D02*
X20103Y5881D01*
X9303Y9581D02*
X9303Y8881D01*
X9303Y8881D02*
X9103Y8681D01*
X8303Y4781D02*
X8303Y5881D01*
X9603Y9881D02*
X9303Y9581D01*
X9566Y9843D02*
X9603Y9881D01*
X8303Y5881D02*
X8267Y5907D01*
X19291Y10828D02*
X19303Y10781D01*
X19303Y10781D02*
X18703Y10781D01*
X18703Y10781D02*
X18303Y11181D01*
X21403Y10481D02*
X21403Y9881D01*
X21103Y9581D02*
X21103Y8881D01*
X19303Y10781D02*
X19291Y10828D01*
X21403Y9881D02*
X21103Y9581D01*
X9303Y1181D02*
X9203Y1281D01*
X18503Y9981D02*
X19303Y10781D01*
X8603Y4481D02*
X8303Y4781D01*
X8303Y5881D02*
X9603Y7181D01*
X8267Y5907D02*
X8303Y5881D01*
X20103Y5881D02*
X20078Y5907D01*
X21103Y8881D02*
X20103Y7881D01*
X9603Y7181D02*
X9603Y9881D01*
X9303Y-219D02*
X9303Y1181D01*
X11923Y-3811D02*
X11903Y-3819D01*
X11903Y-2819D02*
X11923Y-2827D01*
X11903Y-3819D02*
X11903Y-2819D01*
X9603Y9881D02*
X9566Y9843D01*
X7503Y10781D02*
X7480Y10828D01*
X9303Y10781D02*
X7503Y10781D01*
X9303Y10181D02*
X9303Y10781D01*
X9603Y9881D02*
X9303Y10181D01*
X9566Y9843D02*
X9603Y9881D01*
X19291Y10828D02*
X19303Y10781D01*
X19303Y10781D02*
X21103Y10781D01*
X21103Y10781D02*
X21403Y10481D01*
X12351Y-1034D02*
X11263Y-1179D01*
X30263Y11781D02*
X30263Y12241D01*
X28328Y10481D02*
X27523Y10481D01*
X29493Y11781D02*
X29183Y12441D01*
X31383Y12241D02*
X31543Y11781D01*
X30263Y12241D02*
X31383Y12241D01*
X31283Y11781D02*
X31543Y11781D01*
X27165Y4351D02*
X27143Y3401D01*
X8267Y3545D02*
X7143Y3161D01*
X12204Y3545D02*
X13183Y2801D01*
X12351Y-1034D02*
X13444Y-1063D01*
X30513Y14581D02*
X30503Y15481D01*
X31543Y11781D02*
X31543Y10921D01*
X29223Y11781D02*
X29223Y10861D01*
X29223Y10861D02*
X29078Y10481D01*
G54D10*
G36*
X13393Y-1807D02*
X13101Y-2098D01*
X13053Y-2078D01*
X12755Y-2078D01*
X12480Y-2192D01*
X12413Y-2258D01*
X12348Y-2193D01*
X12073Y-2078D01*
X11883Y-2078D01*
X9813Y-7D01*
X9813Y141D01*
X9951Y141D01*
X10226Y255D01*
X10302Y332D01*
X10378Y256D01*
X10653Y141D01*
X10893Y141D01*
X10893Y55D01*
X10873Y35D01*
X10778Y-194D01*
X10778Y-443D01*
X10873Y-673D01*
X11049Y-849D01*
X11278Y-944D01*
X11527Y-944D01*
X11757Y-849D01*
X11794Y-812D01*
X11821Y-839D01*
X11986Y-908D01*
X12165Y-908D01*
X12715Y-908D01*
X12880Y-840D01*
X12883Y-837D01*
X12914Y-868D01*
X13079Y-937D01*
X13258Y-937D01*
X13299Y-937D01*
X13393Y-1030D01*
X13393Y-1807D01*
X13393Y-1807D01*
G37*
G54D32*
X13393Y-1807D02*
X13101Y-2098D01*
X13053Y-2078D01*
X12755Y-2078D01*
X12480Y-2192D01*
X12413Y-2258D01*
X12348Y-2193D01*
X12073Y-2078D01*
X11883Y-2078D01*
X9813Y-7D01*
X9813Y141D01*
X9951Y141D01*
X10226Y255D01*
X10302Y332D01*
X10378Y256D01*
X10653Y141D01*
X10893Y141D01*
X10893Y55D01*
X10873Y35D01*
X10778Y-194D01*
X10778Y-443D01*
X10873Y-673D01*
X11049Y-849D01*
X11278Y-944D01*
X11527Y-944D01*
X11757Y-849D01*
X11794Y-812D01*
X11821Y-839D01*
X11986Y-908D01*
X12165Y-908D01*
X12715Y-908D01*
X12880Y-840D01*
X12883Y-837D01*
X12914Y-868D01*
X13079Y-937D01*
X13258Y-937D01*
X13299Y-937D01*
X13393Y-1030D01*
X13393Y-1807D01*
G54D10*
G36*
X27393Y1639D02*
X27255Y1639D01*
X26980Y1525D01*
X26903Y1449D01*
X26828Y1524D01*
X26553Y1639D01*
X26255Y1639D01*
X25980Y1525D01*
X25903Y1449D01*
X25828Y1524D01*
X25553Y1639D01*
X25255Y1639D01*
X24980Y1525D01*
X24903Y1449D01*
X24897Y1454D01*
X26461Y3019D01*
X26463Y3020D01*
X26464Y3020D01*
X26574Y3186D01*
X26613Y3381D01*
X26613Y3670D01*
X26650Y3707D01*
X26757Y3751D01*
X26933Y3927D01*
X27028Y4156D01*
X27028Y4405D01*
X26998Y4477D01*
X27185Y4477D01*
X27393Y4270D01*
X27393Y1639D01*
X27393Y1639D01*
G37*
G54D32*
X27393Y1639D02*
X27255Y1639D01*
X26980Y1525D01*
X26903Y1449D01*
X26828Y1524D01*
X26553Y1639D01*
X26255Y1639D01*
X25980Y1525D01*
X25903Y1449D01*
X25828Y1524D01*
X25553Y1639D01*
X25255Y1639D01*
X24980Y1525D01*
X24903Y1449D01*
X24897Y1454D01*
X26461Y3019D01*
X26463Y3020D01*
X26464Y3020D01*
X26574Y3186D01*
X26613Y3381D01*
X26613Y3670D01*
X26650Y3707D01*
X26757Y3751D01*
X26933Y3927D01*
X27028Y4156D01*
X27028Y4405D01*
X26998Y4477D01*
X27185Y4477D01*
X27393Y4270D01*
X27393Y1639D01*
G54D10*
G36*
X32952Y10274D02*
X32876Y10197D01*
X32761Y9922D01*
X32761Y9761D01*
X31406Y8406D01*
X31379Y8406D01*
X31363Y8400D01*
X31428Y8556D01*
X31428Y8805D01*
X31333Y9035D01*
X31157Y9211D01*
X30928Y9306D01*
X30813Y9306D01*
X30813Y9923D01*
X30852Y10016D01*
X30852Y10195D01*
X30852Y10745D01*
X30784Y10910D01*
X30658Y11036D01*
X30548Y11082D01*
X30603Y11082D01*
X30682Y11082D01*
X30782Y11082D01*
X30863Y11082D01*
X30942Y11082D01*
X31042Y11082D01*
X31202Y11082D01*
X31367Y11150D01*
X31418Y11201D01*
X31468Y11151D01*
X31633Y11082D01*
X31812Y11082D01*
X31883Y11082D01*
X31972Y11082D01*
X32062Y11082D01*
X32222Y11082D01*
X32387Y11150D01*
X32513Y11276D01*
X32582Y11441D01*
X32582Y11620D01*
X32582Y12001D01*
X32762Y11814D01*
X32762Y11625D01*
X32876Y11350D01*
X32952Y11274D01*
X32877Y11198D01*
X32762Y10923D01*
X32762Y10625D01*
X32876Y10350D01*
X32952Y10274D01*
X32952Y10274D01*
G37*
G54D32*
X32952Y10274D02*
X32876Y10197D01*
X32761Y9922D01*
X32761Y9761D01*
X31406Y8406D01*
X31379Y8406D01*
X31363Y8400D01*
X31428Y8556D01*
X31428Y8805D01*
X31333Y9035D01*
X31157Y9211D01*
X30928Y9306D01*
X30813Y9306D01*
X30813Y9923D01*
X30852Y10016D01*
X30852Y10195D01*
X30852Y10745D01*
X30784Y10910D01*
X30658Y11036D01*
X30548Y11082D01*
X30603Y11082D01*
X30682Y11082D01*
X30782Y11082D01*
X30863Y11082D01*
X30942Y11082D01*
X31042Y11082D01*
X31202Y11082D01*
X31367Y11150D01*
X31418Y11201D01*
X31468Y11151D01*
X31633Y11082D01*
X31812Y11082D01*
X31883Y11082D01*
X31972Y11082D01*
X32062Y11082D01*
X32222Y11082D01*
X32387Y11150D01*
X32513Y11276D01*
X32582Y11441D01*
X32582Y11620D01*
X32582Y12001D01*
X32762Y11814D01*
X32762Y11625D01*
X32876Y11350D01*
X32952Y11274D01*
X32877Y11198D01*
X32762Y10923D01*
X32762Y10625D01*
X32876Y10350D01*
X32952Y10274D01*
G54D10*
G36*
X38278Y-5293D02*
X38015Y-5293D01*
X38015Y10178D01*
X38015Y10584D01*
X38015Y14277D01*
X38015Y14683D01*
X37860Y15058D01*
X37573Y15345D01*
X37452Y15396D01*
X37452Y16407D01*
X37452Y16586D01*
X37452Y17186D01*
X37384Y17351D01*
X37349Y17386D01*
X37452Y17631D01*
X37452Y17929D01*
X37338Y18204D01*
X37269Y18273D01*
X37337Y18340D01*
X37452Y18615D01*
X37452Y18913D01*
X37338Y19188D01*
X37128Y19399D01*
X36853Y19514D01*
X36555Y19514D01*
X36280Y19400D01*
X36069Y19190D01*
X35954Y18915D01*
X35954Y18617D01*
X36068Y18342D01*
X36136Y18274D01*
X36069Y18206D01*
X35954Y17931D01*
X35954Y17633D01*
X36056Y17386D01*
X36023Y17352D01*
X35954Y17187D01*
X35954Y17008D01*
X35954Y16408D01*
X36022Y16243D01*
X36148Y16117D01*
X36313Y16048D01*
X36492Y16048D01*
X37092Y16048D01*
X37257Y16116D01*
X37383Y16242D01*
X37452Y16407D01*
X37452Y15396D01*
X37199Y15501D01*
X36793Y15501D01*
X36031Y15501D01*
X35656Y15346D01*
X35369Y15059D01*
X35213Y14685D01*
X35213Y14279D01*
X35368Y13904D01*
X35655Y13617D01*
X36029Y13461D01*
X36435Y13461D01*
X37197Y13461D01*
X37572Y13616D01*
X37859Y13903D01*
X38015Y14277D01*
X38015Y10584D01*
X37860Y10959D01*
X37573Y11246D01*
X37199Y11402D01*
X36793Y11402D01*
X36031Y11402D01*
X35656Y11247D01*
X35369Y10960D01*
X35213Y10586D01*
X35213Y10180D01*
X35368Y9805D01*
X35655Y9518D01*
X36029Y9362D01*
X36435Y9362D01*
X37197Y9362D01*
X37572Y9517D01*
X37859Y9804D01*
X38015Y10178D01*
X38015Y-5293D01*
X37943Y-5293D01*
X37943Y-2927D01*
X37943Y-2513D01*
X37785Y-2131D01*
X37746Y-2091D01*
X37746Y2153D01*
X37746Y2488D01*
X37618Y2798D01*
X37381Y3035D01*
X37071Y3164D01*
X36736Y3164D01*
X36426Y3036D01*
X36189Y2799D01*
X36060Y2489D01*
X36060Y2154D01*
X36188Y1844D01*
X36425Y1607D01*
X36735Y1478D01*
X37070Y1478D01*
X37380Y1606D01*
X37617Y1843D01*
X37746Y2153D01*
X37746Y-2091D01*
X37493Y-1838D01*
X37111Y-1679D01*
X36697Y-1679D01*
X36315Y-1837D01*
X36022Y-2129D01*
X35863Y-2511D01*
X35863Y-2925D01*
X36021Y-3307D01*
X36313Y-3600D01*
X36695Y-3759D01*
X37109Y-3759D01*
X37491Y-3601D01*
X37784Y-3309D01*
X37943Y-2927D01*
X37943Y-5293D01*
X35859Y-5293D01*
X35859Y-3234D01*
X35859Y-3055D01*
X35859Y-2405D01*
X35791Y-2240D01*
X35665Y-2114D01*
X35500Y-2045D01*
X35321Y-2045D01*
X34528Y-2045D01*
X34528Y-444D01*
X34528Y-195D01*
X34433Y35D01*
X34331Y137D01*
X34331Y5256D01*
X34331Y5554D01*
X34217Y5829D01*
X34007Y6040D01*
X33732Y6155D01*
X33551Y6155D01*
X33516Y6190D01*
X33544Y6256D01*
X33544Y6554D01*
X33430Y6829D01*
X33220Y7040D01*
X32945Y7155D01*
X32647Y7155D01*
X32372Y7041D01*
X32218Y6888D01*
X31855Y7251D01*
X31857Y7251D01*
X32033Y7427D01*
X32128Y7656D01*
X32128Y7685D01*
X33466Y9023D01*
X33658Y9023D01*
X33933Y9137D01*
X34144Y9347D01*
X34259Y9622D01*
X34259Y9920D01*
X34145Y10195D01*
X34068Y10272D01*
X34145Y10348D01*
X34260Y10623D01*
X34260Y10921D01*
X34146Y11196D01*
X34069Y11273D01*
X34145Y11348D01*
X34260Y11623D01*
X34260Y11921D01*
X34146Y12196D01*
X34069Y12273D01*
X34145Y12348D01*
X34260Y12623D01*
X34260Y12921D01*
X34146Y13196D01*
X34069Y13273D01*
X34145Y13348D01*
X34260Y13623D01*
X34260Y13921D01*
X34146Y14196D01*
X33936Y14407D01*
X33661Y14522D01*
X33363Y14522D01*
X33088Y14408D01*
X32877Y14198D01*
X32856Y14150D01*
X32613Y14393D01*
X32613Y14581D01*
X32582Y14736D01*
X32582Y14920D01*
X32514Y15085D01*
X32388Y15211D01*
X32223Y15280D01*
X32044Y15280D01*
X31973Y15280D01*
X31884Y15280D01*
X31794Y15280D01*
X31713Y15280D01*
X31634Y15280D01*
X31534Y15280D01*
X31453Y15280D01*
X31374Y15280D01*
X31274Y15280D01*
X31203Y15280D01*
X31114Y15280D01*
X31024Y15280D01*
X30943Y15280D01*
X30864Y15280D01*
X30764Y15280D01*
X30604Y15280D01*
X30517Y15245D01*
X30433Y15280D01*
X30254Y15280D01*
X30173Y15280D01*
X30094Y15280D01*
X29994Y15280D01*
X29923Y15280D01*
X29834Y15280D01*
X29744Y15280D01*
X29663Y15280D01*
X29584Y15280D01*
X29484Y15280D01*
X29403Y15280D01*
X29324Y15280D01*
X29224Y15280D01*
X29153Y15280D01*
X29064Y15280D01*
X28974Y15280D01*
X28893Y15280D01*
X28814Y15280D01*
X28714Y15280D01*
X28554Y15280D01*
X28389Y15212D01*
X28263Y15086D01*
X28194Y14921D01*
X28194Y14742D01*
X28194Y14242D01*
X28262Y14077D01*
X28388Y13951D01*
X28553Y13882D01*
X28732Y13882D01*
X28813Y13882D01*
X28892Y13882D01*
X28992Y13882D01*
X29063Y13882D01*
X29152Y13882D01*
X29242Y13882D01*
X29323Y13882D01*
X29402Y13882D01*
X29502Y13882D01*
X29583Y13882D01*
X29662Y13882D01*
X29762Y13882D01*
X29800Y13882D01*
X29693Y13775D01*
X29598Y13546D01*
X29598Y13297D01*
X29693Y13067D01*
X29775Y12985D01*
X29642Y12843D01*
X29642Y12842D01*
X29641Y12842D01*
X29629Y12828D01*
X29580Y12750D01*
X29532Y12676D01*
X29530Y12668D01*
X29525Y12659D01*
X29509Y12564D01*
X29493Y12481D01*
X29493Y12462D01*
X29493Y12443D01*
X29487Y12441D01*
X29393Y12480D01*
X29214Y12480D01*
X29153Y12480D01*
X29054Y12480D01*
X28974Y12480D01*
X28893Y12480D01*
X28814Y12480D01*
X28714Y12480D01*
X28554Y12480D01*
X28389Y12412D01*
X28263Y12286D01*
X28194Y12121D01*
X28194Y11994D01*
X28106Y11906D01*
X28079Y11906D01*
X27849Y11811D01*
X27673Y11635D01*
X27578Y11406D01*
X27578Y11157D01*
X27673Y10927D01*
X27849Y10751D01*
X28078Y10656D01*
X28327Y10656D01*
X28409Y10691D01*
X28454Y10646D01*
X28454Y10117D01*
X28522Y9952D01*
X28648Y9826D01*
X28813Y9757D01*
X28992Y9757D01*
X29342Y9757D01*
X29507Y9825D01*
X29631Y9950D01*
X29672Y9852D01*
X29793Y9731D01*
X29793Y9430D01*
X29414Y9430D01*
X29249Y9362D01*
X29123Y9236D01*
X29054Y9071D01*
X29054Y8892D01*
X29054Y8292D01*
X29122Y8127D01*
X29161Y8088D01*
X29054Y7831D01*
X29054Y7533D01*
X29168Y7258D01*
X29244Y7182D01*
X29169Y7106D01*
X29054Y6831D01*
X29054Y6533D01*
X29168Y6258D01*
X29378Y6047D01*
X29653Y5932D01*
X29951Y5932D01*
X30226Y6046D01*
X30437Y6256D01*
X30552Y6531D01*
X30552Y6829D01*
X30438Y7104D01*
X30361Y7181D01*
X30425Y7245D01*
X30442Y7220D01*
X32063Y5599D01*
X32046Y5556D01*
X32046Y5258D01*
X32160Y4983D01*
X32370Y4772D01*
X32645Y4657D01*
X32943Y4657D01*
X33188Y4759D01*
X33432Y4657D01*
X33730Y4657D01*
X34005Y4771D01*
X34216Y4981D01*
X34331Y5256D01*
X34331Y137D01*
X34257Y211D01*
X34028Y306D01*
X33779Y306D01*
X33740Y290D01*
X33890Y651D01*
X33890Y1079D01*
X33727Y1474D01*
X33425Y1777D01*
X33030Y1941D01*
X32602Y1941D01*
X32207Y1778D01*
X31904Y1476D01*
X31740Y1081D01*
X31740Y653D01*
X31903Y258D01*
X32205Y-45D01*
X32585Y-202D01*
X32573Y-215D01*
X32504Y-380D01*
X32504Y-559D01*
X32504Y-894D01*
X32379Y-894D01*
X32149Y-989D01*
X31973Y-1165D01*
X31878Y-1394D01*
X31878Y-1643D01*
X31973Y-1873D01*
X32145Y-2045D01*
X30907Y-2045D01*
X30742Y-2113D01*
X30703Y-2152D01*
X30665Y-2114D01*
X30500Y-2045D01*
X30321Y-2045D01*
X29261Y-2045D01*
X29433Y-1873D01*
X29528Y-1644D01*
X29528Y-1395D01*
X29433Y-1165D01*
X29257Y-989D01*
X29028Y-894D01*
X29000Y-894D01*
X28902Y-796D01*
X28902Y-381D01*
X28834Y-216D01*
X28713Y-95D01*
X28713Y209D01*
X28826Y255D01*
X28902Y332D01*
X28978Y256D01*
X29253Y141D01*
X29551Y141D01*
X29826Y255D01*
X30037Y465D01*
X30152Y740D01*
X30152Y1038D01*
X30038Y1313D01*
X29828Y1524D01*
X29553Y1639D01*
X29255Y1639D01*
X28980Y1525D01*
X28903Y1449D01*
X28828Y1524D01*
X28553Y1639D01*
X28413Y1639D01*
X28413Y4481D01*
X28374Y4676D01*
X28374Y4677D01*
X28329Y4743D01*
X28264Y4842D01*
X28261Y4844D01*
X27889Y5217D01*
X27889Y5365D01*
X27821Y5530D01*
X27695Y5656D01*
X27530Y5725D01*
X27351Y5725D01*
X27280Y5725D01*
X27128Y5878D01*
X27128Y5905D01*
X27033Y6135D01*
X26857Y6311D01*
X26628Y6406D01*
X26379Y6406D01*
X26149Y6311D01*
X25973Y6135D01*
X25878Y5906D01*
X25878Y5657D01*
X25973Y5427D01*
X26149Y5251D01*
X26378Y5156D01*
X26406Y5156D01*
X26441Y5122D01*
X26441Y4906D01*
X26279Y4906D01*
X26049Y4811D01*
X25873Y4635D01*
X25778Y4406D01*
X25778Y4278D01*
X25742Y4242D01*
X25632Y4076D01*
X25592Y3881D01*
X25593Y3877D01*
X25593Y3593D01*
X25228Y3229D01*
X25228Y6256D01*
X25228Y6505D01*
X25133Y6735D01*
X24957Y6911D01*
X24728Y7006D01*
X24513Y7006D01*
X24513Y7881D01*
X24474Y8076D01*
X24364Y8242D01*
X24361Y8244D01*
X23863Y8742D01*
X23963Y8841D01*
X24032Y9006D01*
X24032Y9185D01*
X24032Y10679D01*
X23964Y10844D01*
X23838Y10970D01*
X23673Y11039D01*
X23494Y11039D01*
X23100Y11039D01*
X23051Y11019D01*
X23003Y11039D01*
X22824Y11039D01*
X22430Y11039D01*
X22265Y10971D01*
X22139Y10845D01*
X22070Y10680D01*
X22070Y10501D01*
X22070Y9007D01*
X22138Y8842D01*
X22264Y8716D01*
X22429Y8647D01*
X22557Y8647D01*
X22642Y8520D01*
X23493Y7670D01*
X23493Y6885D01*
X23478Y6870D01*
X23409Y6705D01*
X23409Y6526D01*
X23409Y5110D01*
X23477Y4945D01*
X23603Y4819D01*
X23768Y4750D01*
X23947Y4750D01*
X24261Y4750D01*
X24426Y4818D01*
X24552Y4944D01*
X24621Y5109D01*
X24621Y5288D01*
X24621Y5677D01*
X24700Y5756D01*
X24727Y5756D01*
X24957Y5851D01*
X25133Y6027D01*
X25228Y6256D01*
X25228Y3229D01*
X23613Y1614D01*
X23553Y1639D01*
X23255Y1639D01*
X22980Y1525D01*
X22903Y1449D01*
X22828Y1524D01*
X22553Y1639D01*
X22255Y1639D01*
X21980Y1525D01*
X21769Y1315D01*
X21654Y1040D01*
X21654Y742D01*
X21768Y467D01*
X21978Y256D01*
X22253Y141D01*
X22551Y141D01*
X22826Y255D01*
X22902Y332D01*
X22967Y267D01*
X22630Y-70D01*
X22455Y-70D01*
X22180Y-184D01*
X21969Y-394D01*
X21854Y-669D01*
X21854Y-967D01*
X21968Y-1242D01*
X22178Y-1453D01*
X22453Y-1568D01*
X22751Y-1568D01*
X23026Y-1454D01*
X23102Y-1377D01*
X23178Y-1453D01*
X23453Y-1568D01*
X23593Y-1568D01*
X23593Y-2770D01*
X23469Y-2894D01*
X23354Y-3169D01*
X23354Y-3467D01*
X23468Y-3742D01*
X23678Y-3953D01*
X23953Y-4068D01*
X24251Y-4068D01*
X24526Y-3954D01*
X24737Y-3744D01*
X24852Y-3469D01*
X24852Y-3171D01*
X24738Y-2896D01*
X24613Y-2770D01*
X24613Y-1568D01*
X24992Y-1568D01*
X25157Y-1500D01*
X25283Y-1374D01*
X25352Y-1209D01*
X25352Y-1030D01*
X25352Y-430D01*
X25284Y-265D01*
X25158Y-139D01*
X24993Y-70D01*
X24814Y-70D01*
X24214Y-70D01*
X24049Y-138D01*
X24009Y-177D01*
X23978Y-164D01*
X24261Y119D01*
X24263Y120D01*
X24264Y120D01*
X24277Y141D01*
X24551Y141D01*
X24826Y255D01*
X24902Y332D01*
X24978Y256D01*
X25253Y141D01*
X25551Y141D01*
X25826Y255D01*
X25902Y332D01*
X25978Y256D01*
X26253Y141D01*
X26551Y141D01*
X26826Y255D01*
X26902Y332D01*
X26978Y256D01*
X27253Y141D01*
X27551Y141D01*
X27600Y162D01*
X27693Y70D01*
X27693Y-95D01*
X27573Y-215D01*
X27504Y-380D01*
X27504Y-559D01*
X27504Y-1559D01*
X27572Y-1724D01*
X27698Y-1850D01*
X27863Y-1919D01*
X28042Y-1919D01*
X28419Y-1919D01*
X28549Y-2049D01*
X28777Y-2143D01*
X28682Y-2239D01*
X28613Y-2404D01*
X28613Y-2583D01*
X28613Y-3233D01*
X28681Y-3398D01*
X28807Y-3524D01*
X28972Y-3593D01*
X29151Y-3593D01*
X30499Y-3593D01*
X30664Y-3525D01*
X30703Y-3486D01*
X30741Y-3524D01*
X30906Y-3593D01*
X31085Y-3593D01*
X32433Y-3593D01*
X32598Y-3525D01*
X32724Y-3399D01*
X32793Y-3234D01*
X32793Y-3055D01*
X32793Y-2405D01*
X32725Y-2240D01*
X32628Y-2143D01*
X32857Y-2049D01*
X32951Y-1954D01*
X33005Y-1919D01*
X33042Y-1919D01*
X33542Y-1919D01*
X33707Y-1851D01*
X33833Y-1725D01*
X33902Y-1560D01*
X33902Y-1381D01*
X33902Y-1041D01*
X33999Y-944D01*
X34027Y-944D01*
X34257Y-849D01*
X34433Y-673D01*
X34528Y-444D01*
X34528Y-2045D01*
X33973Y-2045D01*
X33808Y-2113D01*
X33682Y-2239D01*
X33613Y-2404D01*
X33613Y-2583D01*
X33613Y-3233D01*
X33681Y-3398D01*
X33807Y-3524D01*
X33972Y-3593D01*
X34151Y-3593D01*
X35499Y-3593D01*
X35664Y-3525D01*
X35790Y-3399D01*
X35859Y-3234D01*
X35859Y-5293D01*
X27793Y-5293D01*
X27793Y-3234D01*
X27793Y-3055D01*
X27793Y-2405D01*
X27725Y-2240D01*
X27599Y-2114D01*
X27434Y-2045D01*
X27255Y-2045D01*
X25907Y-2045D01*
X25742Y-2113D01*
X25616Y-2239D01*
X25547Y-2404D01*
X25547Y-2583D01*
X25547Y-3233D01*
X25615Y-3398D01*
X25741Y-3524D01*
X25906Y-3593D01*
X26085Y-3593D01*
X27433Y-3593D01*
X27598Y-3525D01*
X27724Y-3399D01*
X27793Y-3234D01*
X27793Y-5293D01*
X20234Y-5293D01*
X20234Y-1997D01*
X20234Y-1818D01*
X20234Y-442D01*
X20166Y-277D01*
X20040Y-151D01*
X19875Y-82D01*
X19696Y-82D01*
X17532Y-82D01*
X17367Y-150D01*
X17241Y-276D01*
X17172Y-441D01*
X17172Y-620D01*
X17172Y-1996D01*
X17240Y-2161D01*
X17366Y-2287D01*
X17531Y-2356D01*
X17710Y-2356D01*
X19874Y-2356D01*
X20039Y-2288D01*
X20165Y-2162D01*
X20234Y-1997D01*
X20234Y-5293D01*
X9618Y-5293D01*
X9618Y-4034D01*
X9618Y-3855D01*
X9618Y-3205D01*
X9550Y-3040D01*
X9424Y-2914D01*
X9259Y-2845D01*
X9080Y-2845D01*
X7732Y-2845D01*
X7567Y-2913D01*
X7441Y-3039D01*
X7372Y-3204D01*
X7372Y-3383D01*
X7372Y-4033D01*
X7440Y-4198D01*
X7566Y-4324D01*
X7731Y-4393D01*
X7910Y-4393D01*
X9258Y-4393D01*
X9423Y-4325D01*
X9549Y-4199D01*
X9618Y-4034D01*
X9618Y-5293D01*
X3552Y-5293D01*
X3552Y-2869D01*
X3552Y-2571D01*
X3438Y-2296D01*
X3228Y-2085D01*
X2953Y-1970D01*
X2655Y-1970D01*
X2380Y-2084D01*
X2169Y-2294D01*
X2054Y-2569D01*
X2054Y-2867D01*
X2168Y-3142D01*
X2378Y-3353D01*
X2653Y-3468D01*
X2951Y-3468D01*
X3226Y-3354D01*
X3437Y-3144D01*
X3552Y-2869D01*
X3552Y-5293D01*
X328Y-5293D01*
X328Y307D01*
X378Y256D01*
X653Y141D01*
X951Y141D01*
X1226Y255D01*
X1302Y332D01*
X1378Y256D01*
X1653Y141D01*
X1951Y141D01*
X2226Y255D01*
X2352Y382D01*
X2391Y288D01*
X2693Y-15D01*
X3088Y-179D01*
X3516Y-179D01*
X3911Y-16D01*
X4214Y286D01*
X4253Y382D01*
X4378Y256D01*
X4653Y141D01*
X4951Y141D01*
X5226Y255D01*
X5302Y332D01*
X5378Y256D01*
X5653Y141D01*
X5951Y141D01*
X6226Y255D01*
X6302Y332D01*
X6317Y317D01*
X6131Y131D01*
X5875Y131D01*
X5710Y63D01*
X5584Y-63D01*
X5515Y-228D01*
X5515Y-407D01*
X5515Y-885D01*
X4606Y-1794D01*
X4579Y-1794D01*
X4349Y-1889D01*
X4173Y-2065D01*
X4078Y-2294D01*
X4078Y-2543D01*
X4173Y-2773D01*
X4274Y-2874D01*
X4182Y-2913D01*
X4056Y-3039D01*
X3987Y-3204D01*
X3987Y-3383D01*
X3987Y-4033D01*
X4055Y-4198D01*
X4181Y-4324D01*
X4346Y-4393D01*
X4525Y-4393D01*
X5875Y-4393D01*
X6040Y-4325D01*
X6166Y-4199D01*
X6235Y-4034D01*
X6235Y-3855D01*
X6235Y-3205D01*
X6167Y-3040D01*
X6041Y-2914D01*
X5876Y-2845D01*
X5697Y-2845D01*
X5161Y-2845D01*
X5233Y-2773D01*
X5328Y-2544D01*
X5328Y-2515D01*
X5928Y-1915D01*
X6053Y-1915D01*
X6553Y-1915D01*
X6718Y-1847D01*
X6844Y-1721D01*
X6913Y-1556D01*
X6913Y-1377D01*
X6913Y-530D01*
X7604Y162D01*
X7653Y141D01*
X7951Y141D01*
X8226Y255D01*
X8302Y332D01*
X8378Y256D01*
X8653Y141D01*
X8793Y141D01*
X8793Y-214D01*
X8792Y-219D01*
X8832Y-414D01*
X8942Y-580D01*
X11174Y-2811D01*
X11174Y-2975D01*
X11276Y-3222D01*
X11243Y-3256D01*
X11174Y-3421D01*
X11174Y-3600D01*
X11174Y-4200D01*
X11242Y-4365D01*
X11368Y-4491D01*
X11533Y-4560D01*
X11712Y-4560D01*
X12312Y-4560D01*
X12477Y-4492D01*
X12510Y-4458D01*
X12753Y-4560D01*
X13051Y-4560D01*
X13326Y-4446D01*
X13392Y-4379D01*
X13458Y-4445D01*
X13733Y-4560D01*
X14031Y-4560D01*
X14306Y-4446D01*
X14517Y-4236D01*
X14632Y-3961D01*
X14632Y-3663D01*
X14518Y-3388D01*
X14451Y-3321D01*
X14521Y-3252D01*
X14636Y-2977D01*
X14636Y-2808D01*
X14764Y-2680D01*
X14874Y-2514D01*
X14913Y-2319D01*
X14913Y-1844D01*
X15127Y-1844D01*
X15357Y-1749D01*
X15533Y-1573D01*
X15628Y-1344D01*
X15628Y-1315D01*
X16661Y-281D01*
X16663Y-280D01*
X16664Y-280D01*
X16774Y-114D01*
X16813Y81D01*
X16813Y141D01*
X16951Y141D01*
X17226Y255D01*
X17302Y332D01*
X17378Y256D01*
X17653Y141D01*
X17951Y141D01*
X18226Y255D01*
X18302Y332D01*
X18378Y256D01*
X18653Y141D01*
X18951Y141D01*
X19226Y255D01*
X19302Y332D01*
X19378Y256D01*
X19653Y141D01*
X19951Y141D01*
X20226Y255D01*
X20302Y332D01*
X20378Y256D01*
X20653Y141D01*
X20951Y141D01*
X21226Y255D01*
X21437Y465D01*
X21552Y740D01*
X21552Y1038D01*
X21438Y1313D01*
X21228Y1524D01*
X20953Y1639D01*
X20655Y1639D01*
X20380Y1525D01*
X20303Y1449D01*
X20228Y1524D01*
X19953Y1639D01*
X19655Y1639D01*
X19380Y1525D01*
X19303Y1449D01*
X19228Y1524D01*
X18953Y1639D01*
X18655Y1639D01*
X18380Y1525D01*
X18303Y1449D01*
X18228Y1524D01*
X17953Y1639D01*
X17655Y1639D01*
X17380Y1525D01*
X17303Y1449D01*
X17297Y1454D01*
X20061Y4219D01*
X20063Y4220D01*
X20064Y4220D01*
X20174Y4386D01*
X20213Y4581D01*
X20213Y4750D01*
X20324Y4750D01*
X20489Y4818D01*
X20615Y4944D01*
X20684Y5109D01*
X20684Y5288D01*
X20684Y6704D01*
X20616Y6869D01*
X20613Y6872D01*
X20613Y7670D01*
X21461Y8519D01*
X21463Y8520D01*
X21464Y8520D01*
X21547Y8647D01*
X21548Y8647D01*
X21664Y8647D01*
X21829Y8715D01*
X21955Y8841D01*
X22024Y9006D01*
X22024Y9185D01*
X22024Y10679D01*
X21956Y10844D01*
X21830Y10970D01*
X21665Y11039D01*
X21566Y11039D01*
X21464Y11142D01*
X21298Y11252D01*
X21103Y11292D01*
X21098Y11291D01*
X20330Y11291D01*
X20330Y11310D01*
X20262Y11475D01*
X20136Y11601D01*
X19971Y11670D01*
X19792Y11670D01*
X18813Y11670D01*
X18813Y17007D01*
X18833Y17027D01*
X18928Y17256D01*
X18928Y17505D01*
X18833Y17735D01*
X18657Y17911D01*
X18428Y18006D01*
X18179Y18006D01*
X17949Y17911D01*
X17773Y17735D01*
X17678Y17506D01*
X17678Y17257D01*
X17773Y17027D01*
X17793Y17007D01*
X17793Y11186D01*
X17792Y11181D01*
X17832Y10986D01*
X17942Y10820D01*
X18221Y10542D01*
X18149Y10511D01*
X17973Y10335D01*
X17878Y10106D01*
X17878Y9857D01*
X17973Y9627D01*
X18149Y9451D01*
X18378Y9356D01*
X18627Y9356D01*
X18857Y9451D01*
X19033Y9627D01*
X19128Y9856D01*
X19128Y9885D01*
X19229Y9986D01*
X19970Y9986D01*
X20062Y10024D01*
X20062Y9062D01*
X19542Y8542D01*
X19432Y8376D01*
X19417Y8306D01*
X19417Y8305D01*
X19332Y8176D01*
X19292Y7981D01*
X19293Y7977D01*
X19293Y7069D01*
X19232Y6976D01*
X19192Y6781D01*
X19193Y6777D01*
X19193Y4793D01*
X16628Y2229D01*
X16628Y5556D01*
X16628Y5805D01*
X16533Y6035D01*
X16357Y6211D01*
X16128Y6306D01*
X15879Y6306D01*
X15649Y6211D01*
X15473Y6035D01*
X15384Y5822D01*
X15328Y5878D01*
X15328Y5905D01*
X15233Y6135D01*
X15057Y6311D01*
X14828Y6406D01*
X14579Y6406D01*
X14349Y6311D01*
X14173Y6135D01*
X14078Y5906D01*
X14078Y5657D01*
X14173Y5427D01*
X14349Y5251D01*
X14578Y5156D01*
X14606Y5156D01*
X14630Y5133D01*
X14630Y4837D01*
X14698Y4672D01*
X14824Y4546D01*
X14989Y4477D01*
X15168Y4477D01*
X15718Y4477D01*
X15883Y4545D01*
X16009Y4671D01*
X16078Y4836D01*
X16078Y5015D01*
X16078Y5035D01*
X16099Y5056D01*
X16127Y5056D01*
X16357Y5151D01*
X16533Y5327D01*
X16628Y5556D01*
X16628Y2229D01*
X16013Y1614D01*
X15953Y1639D01*
X15655Y1639D01*
X15380Y1525D01*
X15303Y1449D01*
X15228Y1524D01*
X14953Y1639D01*
X14655Y1639D01*
X14380Y1525D01*
X14303Y1449D01*
X14228Y1524D01*
X13953Y1639D01*
X13655Y1639D01*
X13401Y1534D01*
X13228Y1606D01*
X12979Y1606D01*
X12749Y1511D01*
X12573Y1335D01*
X12500Y1162D01*
X12438Y1313D01*
X12228Y1524D01*
X11953Y1639D01*
X11813Y1639D01*
X11813Y2781D01*
X11774Y2976D01*
X11713Y3068D01*
X11713Y3069D01*
X11713Y4156D01*
X11927Y4156D01*
X12157Y4251D01*
X12333Y4427D01*
X12428Y4656D01*
X12428Y4750D01*
X12450Y4750D01*
X12615Y4818D01*
X12741Y4944D01*
X12810Y5109D01*
X12810Y5288D01*
X12810Y5666D01*
X12900Y5756D01*
X12927Y5756D01*
X13157Y5851D01*
X13333Y6027D01*
X13428Y6256D01*
X13428Y6505D01*
X13333Y6735D01*
X13157Y6911D01*
X12928Y7006D01*
X12713Y7006D01*
X12713Y7881D01*
X12674Y8076D01*
X12564Y8242D01*
X12561Y8244D01*
X12057Y8748D01*
X12151Y8841D01*
X12220Y9006D01*
X12220Y9185D01*
X12220Y10679D01*
X12152Y10844D01*
X12026Y10970D01*
X11861Y11039D01*
X11682Y11039D01*
X11288Y11039D01*
X11239Y11019D01*
X11191Y11039D01*
X11012Y11039D01*
X10618Y11039D01*
X10453Y10971D01*
X10327Y10845D01*
X10258Y10680D01*
X10258Y10501D01*
X10258Y9007D01*
X10326Y8842D01*
X10452Y8716D01*
X10617Y8647D01*
X10757Y8647D01*
X10842Y8520D01*
X11693Y7670D01*
X11693Y6896D01*
X11667Y6870D01*
X11598Y6705D01*
X11598Y6526D01*
X11598Y6291D01*
X11564Y6342D01*
X11561Y6344D01*
X10728Y7178D01*
X10728Y7205D01*
X10633Y7435D01*
X10457Y7611D01*
X10228Y7706D01*
X10113Y7706D01*
X10113Y8811D01*
X10143Y8841D01*
X10212Y9006D01*
X10212Y9185D01*
X10212Y10679D01*
X10144Y10844D01*
X10018Y10970D01*
X9853Y11039D01*
X9732Y11039D01*
X9664Y11142D01*
X9498Y11252D01*
X9303Y11291D01*
X8519Y11291D01*
X8519Y11310D01*
X8451Y11475D01*
X8325Y11601D01*
X8160Y11670D01*
X7981Y11670D01*
X6801Y11670D01*
X6636Y11602D01*
X6510Y11476D01*
X6441Y11311D01*
X6441Y11132D01*
X6441Y10346D01*
X6509Y10181D01*
X6635Y10055D01*
X6800Y9986D01*
X6979Y9986D01*
X8159Y9986D01*
X8250Y10024D01*
X8250Y9904D01*
X8232Y9876D01*
X8192Y9681D01*
X8193Y9677D01*
X8193Y8486D01*
X8192Y8481D01*
X8232Y8286D01*
X8342Y8120D01*
X8478Y7985D01*
X8478Y7957D01*
X8573Y7727D01*
X8749Y7551D01*
X8978Y7456D01*
X9093Y7456D01*
X9093Y7393D01*
X8687Y6987D01*
X8679Y6995D01*
X8514Y7064D01*
X8335Y7064D01*
X8021Y7064D01*
X7856Y6996D01*
X7730Y6870D01*
X7661Y6705D01*
X7661Y6526D01*
X7661Y5110D01*
X7729Y4945D01*
X7793Y4881D01*
X7793Y4786D01*
X7792Y4781D01*
X7832Y4586D01*
X7942Y4420D01*
X8093Y4270D01*
X8093Y3886D01*
X8092Y3881D01*
X8132Y3686D01*
X8242Y3520D01*
X8693Y3070D01*
X8693Y1639D01*
X8655Y1639D01*
X8563Y1602D01*
X8628Y1756D01*
X8628Y2005D01*
X8533Y2235D01*
X8357Y2411D01*
X8316Y2428D01*
X8328Y2456D01*
X8328Y2705D01*
X8233Y2935D01*
X8057Y3111D01*
X7828Y3206D01*
X7579Y3206D01*
X7349Y3111D01*
X7173Y2935D01*
X7078Y2706D01*
X7078Y2457D01*
X7144Y2296D01*
X7132Y2276D01*
X7120Y2221D01*
X6742Y1842D01*
X6632Y1676D01*
X6621Y1626D01*
X6380Y1525D01*
X6303Y1449D01*
X6228Y1524D01*
X5953Y1639D01*
X5655Y1639D01*
X5380Y1525D01*
X5303Y1449D01*
X5228Y1524D01*
X4953Y1639D01*
X4655Y1639D01*
X4380Y1525D01*
X4256Y1403D01*
X4215Y1504D01*
X3913Y1807D01*
X3518Y1971D01*
X3090Y1971D01*
X2695Y1808D01*
X2498Y1613D01*
X2552Y1740D01*
X2552Y2038D01*
X2438Y2313D01*
X2361Y2390D01*
X2437Y2465D01*
X2552Y2740D01*
X2552Y3038D01*
X2438Y3313D01*
X2361Y3390D01*
X2437Y3465D01*
X2552Y3740D01*
X2552Y4038D01*
X2438Y4313D01*
X2361Y4390D01*
X2437Y4465D01*
X2552Y4740D01*
X2552Y5038D01*
X2438Y5313D01*
X2361Y5390D01*
X2437Y5465D01*
X2552Y5740D01*
X2552Y6038D01*
X2438Y6313D01*
X2361Y6390D01*
X2437Y6465D01*
X2552Y6740D01*
X2552Y7038D01*
X2438Y7313D01*
X2361Y7390D01*
X2437Y7465D01*
X2552Y7740D01*
X2552Y8038D01*
X2438Y8313D01*
X2361Y8390D01*
X2437Y8465D01*
X2552Y8740D01*
X2552Y9038D01*
X2438Y9313D01*
X2361Y9390D01*
X2437Y9465D01*
X2552Y9740D01*
X2552Y10038D01*
X2438Y10313D01*
X2361Y10390D01*
X2437Y10465D01*
X2552Y10740D01*
X2552Y11038D01*
X2438Y11313D01*
X2361Y11390D01*
X2437Y11465D01*
X2552Y11740D01*
X2552Y12038D01*
X2438Y12313D01*
X2361Y12390D01*
X2437Y12465D01*
X2552Y12740D01*
X2552Y13038D01*
X2438Y13313D01*
X2361Y13390D01*
X2437Y13465D01*
X2552Y13740D01*
X2552Y14038D01*
X2438Y14313D01*
X2361Y14390D01*
X2437Y14465D01*
X2552Y14740D01*
X2552Y15038D01*
X2438Y15313D01*
X2361Y15390D01*
X2437Y15465D01*
X2552Y15740D01*
X2552Y16038D01*
X2438Y16313D01*
X2361Y16390D01*
X2437Y16465D01*
X2552Y16740D01*
X2552Y17038D01*
X2438Y17313D01*
X2228Y17524D01*
X1953Y17639D01*
X1655Y17639D01*
X1380Y17525D01*
X1303Y17449D01*
X1228Y17524D01*
X953Y17639D01*
X655Y17639D01*
X380Y17525D01*
X328Y17474D01*
X328Y18915D01*
X588Y18807D01*
X1016Y18807D01*
X1411Y18970D01*
X1714Y19272D01*
X1878Y19667D01*
X1878Y20095D01*
X1852Y20156D01*
X2102Y20156D01*
X2054Y20040D01*
X2054Y19742D01*
X2168Y19467D01*
X2378Y19256D01*
X2653Y19141D01*
X2951Y19141D01*
X3226Y19255D01*
X3302Y19332D01*
X3378Y19256D01*
X3653Y19141D01*
X3951Y19141D01*
X4226Y19255D01*
X4302Y19332D01*
X4378Y19256D01*
X4653Y19141D01*
X4951Y19141D01*
X5226Y19255D01*
X5302Y19332D01*
X5378Y19256D01*
X5653Y19141D01*
X5951Y19141D01*
X6226Y19255D01*
X6302Y19332D01*
X6378Y19256D01*
X6653Y19141D01*
X6951Y19141D01*
X7226Y19255D01*
X7302Y19332D01*
X7378Y19256D01*
X7653Y19141D01*
X7951Y19141D01*
X8226Y19255D01*
X8302Y19332D01*
X8378Y19256D01*
X8653Y19141D01*
X8951Y19141D01*
X9226Y19255D01*
X9302Y19332D01*
X9378Y19256D01*
X9653Y19141D01*
X9951Y19141D01*
X10226Y19255D01*
X10437Y19465D01*
X10552Y19740D01*
X10552Y20038D01*
X10503Y20156D01*
X11102Y20156D01*
X11054Y20040D01*
X11054Y19742D01*
X11168Y19467D01*
X11378Y19256D01*
X11653Y19141D01*
X11951Y19141D01*
X12226Y19255D01*
X12302Y19332D01*
X12378Y19256D01*
X12653Y19141D01*
X12951Y19141D01*
X13226Y19255D01*
X13302Y19332D01*
X13378Y19256D01*
X13653Y19141D01*
X13951Y19141D01*
X14226Y19255D01*
X14302Y19332D01*
X14378Y19256D01*
X14653Y19141D01*
X14951Y19141D01*
X15226Y19255D01*
X15302Y19332D01*
X15378Y19256D01*
X15653Y19141D01*
X15951Y19141D01*
X16226Y19255D01*
X16302Y19332D01*
X16378Y19256D01*
X16653Y19141D01*
X16951Y19141D01*
X17226Y19255D01*
X17302Y19332D01*
X17378Y19256D01*
X17653Y19141D01*
X17951Y19141D01*
X18226Y19255D01*
X18302Y19332D01*
X18378Y19256D01*
X18653Y19141D01*
X18951Y19141D01*
X19226Y19255D01*
X19437Y19465D01*
X19552Y19740D01*
X19552Y20038D01*
X19503Y20156D01*
X20102Y20156D01*
X20054Y20040D01*
X20054Y19742D01*
X20168Y19467D01*
X20378Y19256D01*
X20653Y19141D01*
X20951Y19141D01*
X21226Y19255D01*
X21437Y19465D01*
X21552Y19740D01*
X21552Y20038D01*
X21503Y20156D01*
X23102Y20156D01*
X23054Y20040D01*
X23054Y19742D01*
X23168Y19467D01*
X23378Y19256D01*
X23653Y19141D01*
X23951Y19141D01*
X24226Y19255D01*
X24302Y19332D01*
X24378Y19256D01*
X24653Y19141D01*
X24951Y19141D01*
X25226Y19255D01*
X25302Y19332D01*
X25378Y19256D01*
X25653Y19141D01*
X25951Y19141D01*
X26226Y19255D01*
X26437Y19465D01*
X26552Y19740D01*
X26552Y20038D01*
X26503Y20156D01*
X28409Y20156D01*
X28143Y20046D01*
X27939Y19842D01*
X27828Y19575D01*
X27828Y19287D01*
X27938Y19021D01*
X28142Y18817D01*
X28409Y18706D01*
X28697Y18706D01*
X28963Y18816D01*
X29167Y19020D01*
X29278Y19287D01*
X29278Y19575D01*
X29168Y19841D01*
X28964Y20045D01*
X28697Y20156D01*
X31409Y20156D01*
X31143Y20046D01*
X30939Y19842D01*
X30828Y19575D01*
X30828Y19287D01*
X30938Y19021D01*
X31142Y18817D01*
X31409Y18706D01*
X31697Y18706D01*
X31963Y18816D01*
X32167Y19020D01*
X32278Y19287D01*
X32278Y19557D01*
X32390Y19285D01*
X32692Y18982D01*
X33087Y18818D01*
X33515Y18818D01*
X33910Y18981D01*
X34213Y19283D01*
X34377Y19678D01*
X34377Y20106D01*
X34356Y20156D01*
X38278Y20156D01*
X38278Y-5293D01*
X38278Y-5293D01*
G37*
G54D32*
X38278Y-5293D02*
X38015Y-5293D01*
X38015Y10178D01*
X38015Y10584D01*
X38015Y14277D01*
X38015Y14683D01*
X37860Y15058D01*
X37573Y15345D01*
X37452Y15396D01*
X37452Y16407D01*
X37452Y16586D01*
X37452Y17186D01*
X37384Y17351D01*
X37349Y17386D01*
X37452Y17631D01*
X37452Y17929D01*
X37338Y18204D01*
X37269Y18273D01*
X37337Y18340D01*
X37452Y18615D01*
X37452Y18913D01*
X37338Y19188D01*
X37128Y19399D01*
X36853Y19514D01*
X36555Y19514D01*
X36280Y19400D01*
X36069Y19190D01*
X35954Y18915D01*
X35954Y18617D01*
X36068Y18342D01*
X36136Y18274D01*
X36069Y18206D01*
X35954Y17931D01*
X35954Y17633D01*
X36056Y17386D01*
X36023Y17352D01*
X35954Y17187D01*
X35954Y17008D01*
X35954Y16408D01*
X36022Y16243D01*
X36148Y16117D01*
X36313Y16048D01*
X36492Y16048D01*
X37092Y16048D01*
X37257Y16116D01*
X37383Y16242D01*
X37452Y16407D01*
X37452Y15396D01*
X37199Y15501D01*
X36793Y15501D01*
X36031Y15501D01*
X35656Y15346D01*
X35369Y15059D01*
X35213Y14685D01*
X35213Y14279D01*
X35368Y13904D01*
X35655Y13617D01*
X36029Y13461D01*
X36435Y13461D01*
X37197Y13461D01*
X37572Y13616D01*
X37859Y13903D01*
X38015Y14277D01*
X38015Y10584D01*
X37860Y10959D01*
X37573Y11246D01*
X37199Y11402D01*
X36793Y11402D01*
X36031Y11402D01*
X35656Y11247D01*
X35369Y10960D01*
X35213Y10586D01*
X35213Y10180D01*
X35368Y9805D01*
X35655Y9518D01*
X36029Y9362D01*
X36435Y9362D01*
X37197Y9362D01*
X37572Y9517D01*
X37859Y9804D01*
X38015Y10178D01*
X38015Y-5293D01*
X37943Y-5293D01*
X37943Y-2927D01*
X37943Y-2513D01*
X37785Y-2131D01*
X37746Y-2091D01*
X37746Y2153D01*
X37746Y2488D01*
X37618Y2798D01*
X37381Y3035D01*
X37071Y3164D01*
X36736Y3164D01*
X36426Y3036D01*
X36189Y2799D01*
X36060Y2489D01*
X36060Y2154D01*
X36188Y1844D01*
X36425Y1607D01*
X36735Y1478D01*
X37070Y1478D01*
X37380Y1606D01*
X37617Y1843D01*
X37746Y2153D01*
X37746Y-2091D01*
X37493Y-1838D01*
X37111Y-1679D01*
X36697Y-1679D01*
X36315Y-1837D01*
X36022Y-2129D01*
X35863Y-2511D01*
X35863Y-2925D01*
X36021Y-3307D01*
X36313Y-3600D01*
X36695Y-3759D01*
X37109Y-3759D01*
X37491Y-3601D01*
X37784Y-3309D01*
X37943Y-2927D01*
X37943Y-5293D01*
X35859Y-5293D01*
X35859Y-3234D01*
X35859Y-3055D01*
X35859Y-2405D01*
X35791Y-2240D01*
X35665Y-2114D01*
X35500Y-2045D01*
X35321Y-2045D01*
X34528Y-2045D01*
X34528Y-444D01*
X34528Y-195D01*
X34433Y35D01*
X34331Y137D01*
X34331Y5256D01*
X34331Y5554D01*
X34217Y5829D01*
X34007Y6040D01*
X33732Y6155D01*
X33551Y6155D01*
X33516Y6190D01*
X33544Y6256D01*
X33544Y6554D01*
X33430Y6829D01*
X33220Y7040D01*
X32945Y7155D01*
X32647Y7155D01*
X32372Y7041D01*
X32218Y6888D01*
X31855Y7251D01*
X31857Y7251D01*
X32033Y7427D01*
X32128Y7656D01*
X32128Y7685D01*
X33466Y9023D01*
X33658Y9023D01*
X33933Y9137D01*
X34144Y9347D01*
X34259Y9622D01*
X34259Y9920D01*
X34145Y10195D01*
X34068Y10272D01*
X34145Y10348D01*
X34260Y10623D01*
X34260Y10921D01*
X34146Y11196D01*
X34069Y11273D01*
X34145Y11348D01*
X34260Y11623D01*
X34260Y11921D01*
X34146Y12196D01*
X34069Y12273D01*
X34145Y12348D01*
X34260Y12623D01*
X34260Y12921D01*
X34146Y13196D01*
X34069Y13273D01*
X34145Y13348D01*
X34260Y13623D01*
X34260Y13921D01*
X34146Y14196D01*
X33936Y14407D01*
X33661Y14522D01*
X33363Y14522D01*
X33088Y14408D01*
X32877Y14198D01*
X32856Y14150D01*
X32613Y14393D01*
X32613Y14581D01*
X32582Y14736D01*
X32582Y14920D01*
X32514Y15085D01*
X32388Y15211D01*
X32223Y15280D01*
X32044Y15280D01*
X31973Y15280D01*
X31884Y15280D01*
X31794Y15280D01*
X31713Y15280D01*
X31634Y15280D01*
X31534Y15280D01*
X31453Y15280D01*
X31374Y15280D01*
X31274Y15280D01*
X31203Y15280D01*
X31114Y15280D01*
X31024Y15280D01*
X30943Y15280D01*
X30864Y15280D01*
X30764Y15280D01*
X30604Y15280D01*
X30517Y15245D01*
X30433Y15280D01*
X30254Y15280D01*
X30173Y15280D01*
X30094Y15280D01*
X29994Y15280D01*
X29923Y15280D01*
X29834Y15280D01*
X29744Y15280D01*
X29663Y15280D01*
X29584Y15280D01*
X29484Y15280D01*
X29403Y15280D01*
X29324Y15280D01*
X29224Y15280D01*
X29153Y15280D01*
X29064Y15280D01*
X28974Y15280D01*
X28893Y15280D01*
X28814Y15280D01*
X28714Y15280D01*
X28554Y15280D01*
X28389Y15212D01*
X28263Y15086D01*
X28194Y14921D01*
X28194Y14742D01*
X28194Y14242D01*
X28262Y14077D01*
X28388Y13951D01*
X28553Y13882D01*
X28732Y13882D01*
X28813Y13882D01*
X28892Y13882D01*
X28992Y13882D01*
X29063Y13882D01*
X29152Y13882D01*
X29242Y13882D01*
X29323Y13882D01*
X29402Y13882D01*
X29502Y13882D01*
X29583Y13882D01*
X29662Y13882D01*
X29762Y13882D01*
X29800Y13882D01*
X29693Y13775D01*
X29598Y13546D01*
X29598Y13297D01*
X29693Y13067D01*
X29775Y12985D01*
X29642Y12843D01*
X29642Y12842D01*
X29641Y12842D01*
X29629Y12828D01*
X29580Y12750D01*
X29532Y12676D01*
X29530Y12668D01*
X29525Y12659D01*
X29509Y12564D01*
X29493Y12481D01*
X29493Y12462D01*
X29493Y12443D01*
X29487Y12441D01*
X29393Y12480D01*
X29214Y12480D01*
X29153Y12480D01*
X29054Y12480D01*
X28974Y12480D01*
X28893Y12480D01*
X28814Y12480D01*
X28714Y12480D01*
X28554Y12480D01*
X28389Y12412D01*
X28263Y12286D01*
X28194Y12121D01*
X28194Y11994D01*
X28106Y11906D01*
X28079Y11906D01*
X27849Y11811D01*
X27673Y11635D01*
X27578Y11406D01*
X27578Y11157D01*
X27673Y10927D01*
X27849Y10751D01*
X28078Y10656D01*
X28327Y10656D01*
X28409Y10691D01*
X28454Y10646D01*
X28454Y10117D01*
X28522Y9952D01*
X28648Y9826D01*
X28813Y9757D01*
X28992Y9757D01*
X29342Y9757D01*
X29507Y9825D01*
X29631Y9950D01*
X29672Y9852D01*
X29793Y9731D01*
X29793Y9430D01*
X29414Y9430D01*
X29249Y9362D01*
X29123Y9236D01*
X29054Y9071D01*
X29054Y8892D01*
X29054Y8292D01*
X29122Y8127D01*
X29161Y8088D01*
X29054Y7831D01*
X29054Y7533D01*
X29168Y7258D01*
X29244Y7182D01*
X29169Y7106D01*
X29054Y6831D01*
X29054Y6533D01*
X29168Y6258D01*
X29378Y6047D01*
X29653Y5932D01*
X29951Y5932D01*
X30226Y6046D01*
X30437Y6256D01*
X30552Y6531D01*
X30552Y6829D01*
X30438Y7104D01*
X30361Y7181D01*
X30425Y7245D01*
X30442Y7220D01*
X32063Y5599D01*
X32046Y5556D01*
X32046Y5258D01*
X32160Y4983D01*
X32370Y4772D01*
X32645Y4657D01*
X32943Y4657D01*
X33188Y4759D01*
X33432Y4657D01*
X33730Y4657D01*
X34005Y4771D01*
X34216Y4981D01*
X34331Y5256D01*
X34331Y137D01*
X34257Y211D01*
X34028Y306D01*
X33779Y306D01*
X33740Y290D01*
X33890Y651D01*
X33890Y1079D01*
X33727Y1474D01*
X33425Y1777D01*
X33030Y1941D01*
X32602Y1941D01*
X32207Y1778D01*
X31904Y1476D01*
X31740Y1081D01*
X31740Y653D01*
X31903Y258D01*
X32205Y-45D01*
X32585Y-202D01*
X32573Y-215D01*
X32504Y-380D01*
X32504Y-559D01*
X32504Y-894D01*
X32379Y-894D01*
X32149Y-989D01*
X31973Y-1165D01*
X31878Y-1394D01*
X31878Y-1643D01*
X31973Y-1873D01*
X32145Y-2045D01*
X30907Y-2045D01*
X30742Y-2113D01*
X30703Y-2152D01*
X30665Y-2114D01*
X30500Y-2045D01*
X30321Y-2045D01*
X29261Y-2045D01*
X29433Y-1873D01*
X29528Y-1644D01*
X29528Y-1395D01*
X29433Y-1165D01*
X29257Y-989D01*
X29028Y-894D01*
X29000Y-894D01*
X28902Y-796D01*
X28902Y-381D01*
X28834Y-216D01*
X28713Y-95D01*
X28713Y209D01*
X28826Y255D01*
X28902Y332D01*
X28978Y256D01*
X29253Y141D01*
X29551Y141D01*
X29826Y255D01*
X30037Y465D01*
X30152Y740D01*
X30152Y1038D01*
X30038Y1313D01*
X29828Y1524D01*
X29553Y1639D01*
X29255Y1639D01*
X28980Y1525D01*
X28903Y1449D01*
X28828Y1524D01*
X28553Y1639D01*
X28413Y1639D01*
X28413Y4481D01*
X28374Y4676D01*
X28374Y4677D01*
X28329Y4743D01*
X28264Y4842D01*
X28261Y4844D01*
X27889Y5217D01*
X27889Y5365D01*
X27821Y5530D01*
X27695Y5656D01*
X27530Y5725D01*
X27351Y5725D01*
X27280Y5725D01*
X27128Y5878D01*
X27128Y5905D01*
X27033Y6135D01*
X26857Y6311D01*
X26628Y6406D01*
X26379Y6406D01*
X26149Y6311D01*
X25973Y6135D01*
X25878Y5906D01*
X25878Y5657D01*
X25973Y5427D01*
X26149Y5251D01*
X26378Y5156D01*
X26406Y5156D01*
X26441Y5122D01*
X26441Y4906D01*
X26279Y4906D01*
X26049Y4811D01*
X25873Y4635D01*
X25778Y4406D01*
X25778Y4278D01*
X25742Y4242D01*
X25632Y4076D01*
X25592Y3881D01*
X25593Y3877D01*
X25593Y3593D01*
X25228Y3229D01*
X25228Y6256D01*
X25228Y6505D01*
X25133Y6735D01*
X24957Y6911D01*
X24728Y7006D01*
X24513Y7006D01*
X24513Y7881D01*
X24474Y8076D01*
X24364Y8242D01*
X24361Y8244D01*
X23863Y8742D01*
X23963Y8841D01*
X24032Y9006D01*
X24032Y9185D01*
X24032Y10679D01*
X23964Y10844D01*
X23838Y10970D01*
X23673Y11039D01*
X23494Y11039D01*
X23100Y11039D01*
X23051Y11019D01*
X23003Y11039D01*
X22824Y11039D01*
X22430Y11039D01*
X22265Y10971D01*
X22139Y10845D01*
X22070Y10680D01*
X22070Y10501D01*
X22070Y9007D01*
X22138Y8842D01*
X22264Y8716D01*
X22429Y8647D01*
X22557Y8647D01*
X22642Y8520D01*
X23493Y7670D01*
X23493Y6885D01*
X23478Y6870D01*
X23409Y6705D01*
X23409Y6526D01*
X23409Y5110D01*
X23477Y4945D01*
X23603Y4819D01*
X23768Y4750D01*
X23947Y4750D01*
X24261Y4750D01*
X24426Y4818D01*
X24552Y4944D01*
X24621Y5109D01*
X24621Y5288D01*
X24621Y5677D01*
X24700Y5756D01*
X24727Y5756D01*
X24957Y5851D01*
X25133Y6027D01*
X25228Y6256D01*
X25228Y3229D01*
X23613Y1614D01*
X23553Y1639D01*
X23255Y1639D01*
X22980Y1525D01*
X22903Y1449D01*
X22828Y1524D01*
X22553Y1639D01*
X22255Y1639D01*
X21980Y1525D01*
X21769Y1315D01*
X21654Y1040D01*
X21654Y742D01*
X21768Y467D01*
X21978Y256D01*
X22253Y141D01*
X22551Y141D01*
X22826Y255D01*
X22902Y332D01*
X22967Y267D01*
X22630Y-70D01*
X22455Y-70D01*
X22180Y-184D01*
X21969Y-394D01*
X21854Y-669D01*
X21854Y-967D01*
X21968Y-1242D01*
X22178Y-1453D01*
X22453Y-1568D01*
X22751Y-1568D01*
X23026Y-1454D01*
X23102Y-1377D01*
X23178Y-1453D01*
X23453Y-1568D01*
X23593Y-1568D01*
X23593Y-2770D01*
X23469Y-2894D01*
X23354Y-3169D01*
X23354Y-3467D01*
X23468Y-3742D01*
X23678Y-3953D01*
X23953Y-4068D01*
X24251Y-4068D01*
X24526Y-3954D01*
X24737Y-3744D01*
X24852Y-3469D01*
X24852Y-3171D01*
X24738Y-2896D01*
X24613Y-2770D01*
X24613Y-1568D01*
X24992Y-1568D01*
X25157Y-1500D01*
X25283Y-1374D01*
X25352Y-1209D01*
X25352Y-1030D01*
X25352Y-430D01*
X25284Y-265D01*
X25158Y-139D01*
X24993Y-70D01*
X24814Y-70D01*
X24214Y-70D01*
X24049Y-138D01*
X24009Y-177D01*
X23978Y-164D01*
X24261Y119D01*
X24263Y120D01*
X24264Y120D01*
X24277Y141D01*
X24551Y141D01*
X24826Y255D01*
X24902Y332D01*
X24978Y256D01*
X25253Y141D01*
X25551Y141D01*
X25826Y255D01*
X25902Y332D01*
X25978Y256D01*
X26253Y141D01*
X26551Y141D01*
X26826Y255D01*
X26902Y332D01*
X26978Y256D01*
X27253Y141D01*
X27551Y141D01*
X27600Y162D01*
X27693Y70D01*
X27693Y-95D01*
X27573Y-215D01*
X27504Y-380D01*
X27504Y-559D01*
X27504Y-1559D01*
X27572Y-1724D01*
X27698Y-1850D01*
X27863Y-1919D01*
X28042Y-1919D01*
X28419Y-1919D01*
X28549Y-2049D01*
X28777Y-2143D01*
X28682Y-2239D01*
X28613Y-2404D01*
X28613Y-2583D01*
X28613Y-3233D01*
X28681Y-3398D01*
X28807Y-3524D01*
X28972Y-3593D01*
X29151Y-3593D01*
X30499Y-3593D01*
X30664Y-3525D01*
X30703Y-3486D01*
X30741Y-3524D01*
X30906Y-3593D01*
X31085Y-3593D01*
X32433Y-3593D01*
X32598Y-3525D01*
X32724Y-3399D01*
X32793Y-3234D01*
X32793Y-3055D01*
X32793Y-2405D01*
X32725Y-2240D01*
X32628Y-2143D01*
X32857Y-2049D01*
X32951Y-1954D01*
X33005Y-1919D01*
X33042Y-1919D01*
X33542Y-1919D01*
X33707Y-1851D01*
X33833Y-1725D01*
X33902Y-1560D01*
X33902Y-1381D01*
X33902Y-1041D01*
X33999Y-944D01*
X34027Y-944D01*
X34257Y-849D01*
X34433Y-673D01*
X34528Y-444D01*
X34528Y-2045D01*
X33973Y-2045D01*
X33808Y-2113D01*
X33682Y-2239D01*
X33613Y-2404D01*
X33613Y-2583D01*
X33613Y-3233D01*
X33681Y-3398D01*
X33807Y-3524D01*
X33972Y-3593D01*
X34151Y-3593D01*
X35499Y-3593D01*
X35664Y-3525D01*
X35790Y-3399D01*
X35859Y-3234D01*
X35859Y-5293D01*
X27793Y-5293D01*
X27793Y-3234D01*
X27793Y-3055D01*
X27793Y-2405D01*
X27725Y-2240D01*
X27599Y-2114D01*
X27434Y-2045D01*
X27255Y-2045D01*
X25907Y-2045D01*
X25742Y-2113D01*
X25616Y-2239D01*
X25547Y-2404D01*
X25547Y-2583D01*
X25547Y-3233D01*
X25615Y-3398D01*
X25741Y-3524D01*
X25906Y-3593D01*
X26085Y-3593D01*
X27433Y-3593D01*
X27598Y-3525D01*
X27724Y-3399D01*
X27793Y-3234D01*
X27793Y-5293D01*
X20234Y-5293D01*
X20234Y-1997D01*
X20234Y-1818D01*
X20234Y-442D01*
X20166Y-277D01*
X20040Y-151D01*
X19875Y-82D01*
X19696Y-82D01*
X17532Y-82D01*
X17367Y-150D01*
X17241Y-276D01*
X17172Y-441D01*
X17172Y-620D01*
X17172Y-1996D01*
X17240Y-2161D01*
X17366Y-2287D01*
X17531Y-2356D01*
X17710Y-2356D01*
X19874Y-2356D01*
X20039Y-2288D01*
X20165Y-2162D01*
X20234Y-1997D01*
X20234Y-5293D01*
X9618Y-5293D01*
X9618Y-4034D01*
X9618Y-3855D01*
X9618Y-3205D01*
X9550Y-3040D01*
X9424Y-2914D01*
X9259Y-2845D01*
X9080Y-2845D01*
X7732Y-2845D01*
X7567Y-2913D01*
X7441Y-3039D01*
X7372Y-3204D01*
X7372Y-3383D01*
X7372Y-4033D01*
X7440Y-4198D01*
X7566Y-4324D01*
X7731Y-4393D01*
X7910Y-4393D01*
X9258Y-4393D01*
X9423Y-4325D01*
X9549Y-4199D01*
X9618Y-4034D01*
X9618Y-5293D01*
X3552Y-5293D01*
X3552Y-2869D01*
X3552Y-2571D01*
X3438Y-2296D01*
X3228Y-2085D01*
X2953Y-1970D01*
X2655Y-1970D01*
X2380Y-2084D01*
X2169Y-2294D01*
X2054Y-2569D01*
X2054Y-2867D01*
X2168Y-3142D01*
X2378Y-3353D01*
X2653Y-3468D01*
X2951Y-3468D01*
X3226Y-3354D01*
X3437Y-3144D01*
X3552Y-2869D01*
X3552Y-5293D01*
X328Y-5293D01*
X328Y307D01*
X378Y256D01*
X653Y141D01*
X951Y141D01*
X1226Y255D01*
X1302Y332D01*
X1378Y256D01*
X1653Y141D01*
X1951Y141D01*
X2226Y255D01*
X2352Y382D01*
X2391Y288D01*
X2693Y-15D01*
X3088Y-179D01*
X3516Y-179D01*
X3911Y-16D01*
X4214Y286D01*
X4253Y382D01*
X4378Y256D01*
X4653Y141D01*
X4951Y141D01*
X5226Y255D01*
X5302Y332D01*
X5378Y256D01*
X5653Y141D01*
X5951Y141D01*
X6226Y255D01*
X6302Y332D01*
X6317Y317D01*
X6131Y131D01*
X5875Y131D01*
X5710Y63D01*
X5584Y-63D01*
X5515Y-228D01*
X5515Y-407D01*
X5515Y-885D01*
X4606Y-1794D01*
X4579Y-1794D01*
X4349Y-1889D01*
X4173Y-2065D01*
X4078Y-2294D01*
X4078Y-2543D01*
X4173Y-2773D01*
X4274Y-2874D01*
X4182Y-2913D01*
X4056Y-3039D01*
X3987Y-3204D01*
X3987Y-3383D01*
X3987Y-4033D01*
X4055Y-4198D01*
X4181Y-4324D01*
X4346Y-4393D01*
X4525Y-4393D01*
X5875Y-4393D01*
X6040Y-4325D01*
X6166Y-4199D01*
X6235Y-4034D01*
X6235Y-3855D01*
X6235Y-3205D01*
X6167Y-3040D01*
X6041Y-2914D01*
X5876Y-2845D01*
X5697Y-2845D01*
X5161Y-2845D01*
X5233Y-2773D01*
X5328Y-2544D01*
X5328Y-2515D01*
X5928Y-1915D01*
X6053Y-1915D01*
X6553Y-1915D01*
X6718Y-1847D01*
X6844Y-1721D01*
X6913Y-1556D01*
X6913Y-1377D01*
X6913Y-530D01*
X7604Y162D01*
X7653Y141D01*
X7951Y141D01*
X8226Y255D01*
X8302Y332D01*
X8378Y256D01*
X8653Y141D01*
X8793Y141D01*
X8793Y-214D01*
X8792Y-219D01*
X8832Y-414D01*
X8942Y-580D01*
X11174Y-2811D01*
X11174Y-2975D01*
X11276Y-3222D01*
X11243Y-3256D01*
X11174Y-3421D01*
X11174Y-3600D01*
X11174Y-4200D01*
X11242Y-4365D01*
X11368Y-4491D01*
X11533Y-4560D01*
X11712Y-4560D01*
X12312Y-4560D01*
X12477Y-4492D01*
X12510Y-4458D01*
X12753Y-4560D01*
X13051Y-4560D01*
X13326Y-4446D01*
X13392Y-4379D01*
X13458Y-4445D01*
X13733Y-4560D01*
X14031Y-4560D01*
X14306Y-4446D01*
X14517Y-4236D01*
X14632Y-3961D01*
X14632Y-3663D01*
X14518Y-3388D01*
X14451Y-3321D01*
X14521Y-3252D01*
X14636Y-2977D01*
X14636Y-2808D01*
X14764Y-2680D01*
X14874Y-2514D01*
X14913Y-2319D01*
X14913Y-1844D01*
X15127Y-1844D01*
X15357Y-1749D01*
X15533Y-1573D01*
X15628Y-1344D01*
X15628Y-1315D01*
X16661Y-281D01*
X16663Y-280D01*
X16664Y-280D01*
X16774Y-114D01*
X16813Y81D01*
X16813Y141D01*
X16951Y141D01*
X17226Y255D01*
X17302Y332D01*
X17378Y256D01*
X17653Y141D01*
X17951Y141D01*
X18226Y255D01*
X18302Y332D01*
X18378Y256D01*
X18653Y141D01*
X18951Y141D01*
X19226Y255D01*
X19302Y332D01*
X19378Y256D01*
X19653Y141D01*
X19951Y141D01*
X20226Y255D01*
X20302Y332D01*
X20378Y256D01*
X20653Y141D01*
X20951Y141D01*
X21226Y255D01*
X21437Y465D01*
X21552Y740D01*
X21552Y1038D01*
X21438Y1313D01*
X21228Y1524D01*
X20953Y1639D01*
X20655Y1639D01*
X20380Y1525D01*
X20303Y1449D01*
X20228Y1524D01*
X19953Y1639D01*
X19655Y1639D01*
X19380Y1525D01*
X19303Y1449D01*
X19228Y1524D01*
X18953Y1639D01*
X18655Y1639D01*
X18380Y1525D01*
X18303Y1449D01*
X18228Y1524D01*
X17953Y1639D01*
X17655Y1639D01*
X17380Y1525D01*
X17303Y1449D01*
X17297Y1454D01*
X20061Y4219D01*
X20063Y4220D01*
X20064Y4220D01*
X20174Y4386D01*
X20213Y4581D01*
X20213Y4750D01*
X20324Y4750D01*
X20489Y4818D01*
X20615Y4944D01*
X20684Y5109D01*
X20684Y5288D01*
X20684Y6704D01*
X20616Y6869D01*
X20613Y6872D01*
X20613Y7670D01*
X21461Y8519D01*
X21463Y8520D01*
X21464Y8520D01*
X21547Y8647D01*
X21548Y8647D01*
X21664Y8647D01*
X21829Y8715D01*
X21955Y8841D01*
X22024Y9006D01*
X22024Y9185D01*
X22024Y10679D01*
X21956Y10844D01*
X21830Y10970D01*
X21665Y11039D01*
X21566Y11039D01*
X21464Y11142D01*
X21298Y11252D01*
X21103Y11292D01*
X21098Y11291D01*
X20330Y11291D01*
X20330Y11310D01*
X20262Y11475D01*
X20136Y11601D01*
X19971Y11670D01*
X19792Y11670D01*
X18813Y11670D01*
X18813Y17007D01*
X18833Y17027D01*
X18928Y17256D01*
X18928Y17505D01*
X18833Y17735D01*
X18657Y17911D01*
X18428Y18006D01*
X18179Y18006D01*
X17949Y17911D01*
X17773Y17735D01*
X17678Y17506D01*
X17678Y17257D01*
X17773Y17027D01*
X17793Y17007D01*
X17793Y11186D01*
X17792Y11181D01*
X17832Y10986D01*
X17942Y10820D01*
X18221Y10542D01*
X18149Y10511D01*
X17973Y10335D01*
X17878Y10106D01*
X17878Y9857D01*
X17973Y9627D01*
X18149Y9451D01*
X18378Y9356D01*
X18627Y9356D01*
X18857Y9451D01*
X19033Y9627D01*
X19128Y9856D01*
X19128Y9885D01*
X19229Y9986D01*
X19970Y9986D01*
X20062Y10024D01*
X20062Y9062D01*
X19542Y8542D01*
X19432Y8376D01*
X19417Y8306D01*
X19417Y8305D01*
X19332Y8176D01*
X19292Y7981D01*
X19293Y7977D01*
X19293Y7069D01*
X19232Y6976D01*
X19192Y6781D01*
X19193Y6777D01*
X19193Y4793D01*
X16628Y2229D01*
X16628Y5556D01*
X16628Y5805D01*
X16533Y6035D01*
X16357Y6211D01*
X16128Y6306D01*
X15879Y6306D01*
X15649Y6211D01*
X15473Y6035D01*
X15384Y5822D01*
X15328Y5878D01*
X15328Y5905D01*
X15233Y6135D01*
X15057Y6311D01*
X14828Y6406D01*
X14579Y6406D01*
X14349Y6311D01*
X14173Y6135D01*
X14078Y5906D01*
X14078Y5657D01*
X14173Y5427D01*
X14349Y5251D01*
X14578Y5156D01*
X14606Y5156D01*
X14630Y5133D01*
X14630Y4837D01*
X14698Y4672D01*
X14824Y4546D01*
X14989Y4477D01*
X15168Y4477D01*
X15718Y4477D01*
X15883Y4545D01*
X16009Y4671D01*
X16078Y4836D01*
X16078Y5015D01*
X16078Y5035D01*
X16099Y5056D01*
X16127Y5056D01*
X16357Y5151D01*
X16533Y5327D01*
X16628Y5556D01*
X16628Y2229D01*
X16013Y1614D01*
X15953Y1639D01*
X15655Y1639D01*
X15380Y1525D01*
X15303Y1449D01*
X15228Y1524D01*
X14953Y1639D01*
X14655Y1639D01*
X14380Y1525D01*
X14303Y1449D01*
X14228Y1524D01*
X13953Y1639D01*
X13655Y1639D01*
X13401Y1534D01*
X13228Y1606D01*
X12979Y1606D01*
X12749Y1511D01*
X12573Y1335D01*
X12500Y1162D01*
X12438Y1313D01*
X12228Y1524D01*
X11953Y1639D01*
X11813Y1639D01*
X11813Y2781D01*
X11774Y2976D01*
X11713Y3068D01*
X11713Y3069D01*
X11713Y4156D01*
X11927Y4156D01*
X12157Y4251D01*
X12333Y4427D01*
X12428Y4656D01*
X12428Y4750D01*
X12450Y4750D01*
X12615Y4818D01*
X12741Y4944D01*
X12810Y5109D01*
X12810Y5288D01*
X12810Y5666D01*
X12900Y5756D01*
X12927Y5756D01*
X13157Y5851D01*
X13333Y6027D01*
X13428Y6256D01*
X13428Y6505D01*
X13333Y6735D01*
X13157Y6911D01*
X12928Y7006D01*
X12713Y7006D01*
X12713Y7881D01*
X12674Y8076D01*
X12564Y8242D01*
X12561Y8244D01*
X12057Y8748D01*
X12151Y8841D01*
X12220Y9006D01*
X12220Y9185D01*
X12220Y10679D01*
X12152Y10844D01*
X12026Y10970D01*
X11861Y11039D01*
X11682Y11039D01*
X11288Y11039D01*
X11239Y11019D01*
X11191Y11039D01*
X11012Y11039D01*
X10618Y11039D01*
X10453Y10971D01*
X10327Y10845D01*
X10258Y10680D01*
X10258Y10501D01*
X10258Y9007D01*
X10326Y8842D01*
X10452Y8716D01*
X10617Y8647D01*
X10757Y8647D01*
X10842Y8520D01*
X11693Y7670D01*
X11693Y6896D01*
X11667Y6870D01*
X11598Y6705D01*
X11598Y6526D01*
X11598Y6291D01*
X11564Y6342D01*
X11561Y6344D01*
X10728Y7178D01*
X10728Y7205D01*
X10633Y7435D01*
X10457Y7611D01*
X10228Y7706D01*
X10113Y7706D01*
X10113Y8811D01*
X10143Y8841D01*
X10212Y9006D01*
X10212Y9185D01*
X10212Y10679D01*
X10144Y10844D01*
X10018Y10970D01*
X9853Y11039D01*
X9732Y11039D01*
X9664Y11142D01*
X9498Y11252D01*
X9303Y11291D01*
X8519Y11291D01*
X8519Y11310D01*
X8451Y11475D01*
X8325Y11601D01*
X8160Y11670D01*
X7981Y11670D01*
X6801Y11670D01*
X6636Y11602D01*
X6510Y11476D01*
X6441Y11311D01*
X6441Y11132D01*
X6441Y10346D01*
X6509Y10181D01*
X6635Y10055D01*
X6800Y9986D01*
X6979Y9986D01*
X8159Y9986D01*
X8250Y10024D01*
X8250Y9904D01*
X8232Y9876D01*
X8192Y9681D01*
X8193Y9677D01*
X8193Y8486D01*
X8192Y8481D01*
X8232Y8286D01*
X8342Y8120D01*
X8478Y7985D01*
X8478Y7957D01*
X8573Y7727D01*
X8749Y7551D01*
X8978Y7456D01*
X9093Y7456D01*
X9093Y7393D01*
X8687Y6987D01*
X8679Y6995D01*
X8514Y7064D01*
X8335Y7064D01*
X8021Y7064D01*
X7856Y6996D01*
X7730Y6870D01*
X7661Y6705D01*
X7661Y6526D01*
X7661Y5110D01*
X7729Y4945D01*
X7793Y4881D01*
X7793Y4786D01*
X7792Y4781D01*
X7832Y4586D01*
X7942Y4420D01*
X8093Y4270D01*
X8093Y3886D01*
X8092Y3881D01*
X8132Y3686D01*
X8242Y3520D01*
X8693Y3070D01*
X8693Y1639D01*
X8655Y1639D01*
X8563Y1602D01*
X8628Y1756D01*
X8628Y2005D01*
X8533Y2235D01*
X8357Y2411D01*
X8316Y2428D01*
X8328Y2456D01*
X8328Y2705D01*
X8233Y2935D01*
X8057Y3111D01*
X7828Y3206D01*
X7579Y3206D01*
X7349Y3111D01*
X7173Y2935D01*
X7078Y2706D01*
X7078Y2457D01*
X7144Y2296D01*
X7132Y2276D01*
X7120Y2221D01*
X6742Y1842D01*
X6632Y1676D01*
X6621Y1626D01*
X6380Y1525D01*
X6303Y1449D01*
X6228Y1524D01*
X5953Y1639D01*
X5655Y1639D01*
X5380Y1525D01*
X5303Y1449D01*
X5228Y1524D01*
X4953Y1639D01*
X4655Y1639D01*
X4380Y1525D01*
X4256Y1403D01*
X4215Y1504D01*
X3913Y1807D01*
X3518Y1971D01*
X3090Y1971D01*
X2695Y1808D01*
X2498Y1613D01*
X2552Y1740D01*
X2552Y2038D01*
X2438Y2313D01*
X2361Y2390D01*
X2437Y2465D01*
X2552Y2740D01*
X2552Y3038D01*
X2438Y3313D01*
X2361Y3390D01*
X2437Y3465D01*
X2552Y3740D01*
X2552Y4038D01*
X2438Y4313D01*
X2361Y4390D01*
X2437Y4465D01*
X2552Y4740D01*
X2552Y5038D01*
X2438Y5313D01*
X2361Y5390D01*
X2437Y5465D01*
X2552Y5740D01*
X2552Y6038D01*
X2438Y6313D01*
X2361Y6390D01*
X2437Y6465D01*
X2552Y6740D01*
X2552Y7038D01*
X2438Y7313D01*
X2361Y7390D01*
X2437Y7465D01*
X2552Y7740D01*
X2552Y8038D01*
X2438Y8313D01*
X2361Y8390D01*
X2437Y8465D01*
X2552Y8740D01*
X2552Y9038D01*
X2438Y9313D01*
X2361Y9390D01*
X2437Y9465D01*
X2552Y9740D01*
X2552Y10038D01*
X2438Y10313D01*
X2361Y10390D01*
X2437Y10465D01*
X2552Y10740D01*
X2552Y11038D01*
X2438Y11313D01*
X2361Y11390D01*
X2437Y11465D01*
X2552Y11740D01*
X2552Y12038D01*
X2438Y12313D01*
X2361Y12390D01*
X2437Y12465D01*
X2552Y12740D01*
X2552Y13038D01*
X2438Y13313D01*
X2361Y13390D01*
X2437Y13465D01*
X2552Y13740D01*
X2552Y14038D01*
X2438Y14313D01*
X2361Y14390D01*
X2437Y14465D01*
X2552Y14740D01*
X2552Y15038D01*
X2438Y15313D01*
X2361Y15390D01*
X2437Y15465D01*
X2552Y15740D01*
X2552Y16038D01*
X2438Y16313D01*
X2361Y16390D01*
X2437Y16465D01*
X2552Y16740D01*
X2552Y17038D01*
X2438Y17313D01*
X2228Y17524D01*
X1953Y17639D01*
X1655Y17639D01*
X1380Y17525D01*
X1303Y17449D01*
X1228Y17524D01*
X953Y17639D01*
X655Y17639D01*
X380Y17525D01*
X328Y17474D01*
X328Y18915D01*
X588Y18807D01*
X1016Y18807D01*
X1411Y18970D01*
X1714Y19272D01*
X1878Y19667D01*
X1878Y20095D01*
X1852Y20156D01*
X2102Y20156D01*
X2054Y20040D01*
X2054Y19742D01*
X2168Y19467D01*
X2378Y19256D01*
X2653Y19141D01*
X2951Y19141D01*
X3226Y19255D01*
X3302Y19332D01*
X3378Y19256D01*
X3653Y19141D01*
X3951Y19141D01*
X4226Y19255D01*
X4302Y19332D01*
X4378Y19256D01*
X4653Y19141D01*
X4951Y19141D01*
X5226Y19255D01*
X5302Y19332D01*
X5378Y19256D01*
X5653Y19141D01*
X5951Y19141D01*
X6226Y19255D01*
X6302Y19332D01*
X6378Y19256D01*
X6653Y19141D01*
X6951Y19141D01*
X7226Y19255D01*
X7302Y19332D01*
X7378Y19256D01*
X7653Y19141D01*
X7951Y19141D01*
X8226Y19255D01*
X8302Y19332D01*
X8378Y19256D01*
X8653Y19141D01*
X8951Y19141D01*
X9226Y19255D01*
X9302Y19332D01*
X9378Y19256D01*
X9653Y19141D01*
X9951Y19141D01*
X10226Y19255D01*
X10437Y19465D01*
X10552Y19740D01*
X10552Y20038D01*
X10503Y20156D01*
X11102Y20156D01*
X11054Y20040D01*
X11054Y19742D01*
X11168Y19467D01*
X11378Y19256D01*
X11653Y19141D01*
X11951Y19141D01*
X12226Y19255D01*
X12302Y19332D01*
X12378Y19256D01*
X12653Y19141D01*
X12951Y19141D01*
X13226Y19255D01*
X13302Y19332D01*
X13378Y19256D01*
X13653Y19141D01*
X13951Y19141D01*
X14226Y19255D01*
X14302Y19332D01*
X14378Y19256D01*
X14653Y19141D01*
X14951Y19141D01*
X15226Y19255D01*
X15302Y19332D01*
X15378Y19256D01*
X15653Y19141D01*
X15951Y19141D01*
X16226Y19255D01*
X16302Y19332D01*
X16378Y19256D01*
X16653Y19141D01*
X16951Y19141D01*
X17226Y19255D01*
X17302Y19332D01*
X17378Y19256D01*
X17653Y19141D01*
X17951Y19141D01*
X18226Y19255D01*
X18302Y19332D01*
X18378Y19256D01*
X18653Y19141D01*
X18951Y19141D01*
X19226Y19255D01*
X19437Y19465D01*
X19552Y19740D01*
X19552Y20038D01*
X19503Y20156D01*
X20102Y20156D01*
X20054Y20040D01*
X20054Y19742D01*
X20168Y19467D01*
X20378Y19256D01*
X20653Y19141D01*
X20951Y19141D01*
X21226Y19255D01*
X21437Y19465D01*
X21552Y19740D01*
X21552Y20038D01*
X21503Y20156D01*
X23102Y20156D01*
X23054Y20040D01*
X23054Y19742D01*
X23168Y19467D01*
X23378Y19256D01*
X23653Y19141D01*
X23951Y19141D01*
X24226Y19255D01*
X24302Y19332D01*
X24378Y19256D01*
X24653Y19141D01*
X24951Y19141D01*
X25226Y19255D01*
X25302Y19332D01*
X25378Y19256D01*
X25653Y19141D01*
X25951Y19141D01*
X26226Y19255D01*
X26437Y19465D01*
X26552Y19740D01*
X26552Y20038D01*
X26503Y20156D01*
X28409Y20156D01*
X28143Y20046D01*
X27939Y19842D01*
X27828Y19575D01*
X27828Y19287D01*
X27938Y19021D01*
X28142Y18817D01*
X28409Y18706D01*
X28697Y18706D01*
X28963Y18816D01*
X29167Y19020D01*
X29278Y19287D01*
X29278Y19575D01*
X29168Y19841D01*
X28964Y20045D01*
X28697Y20156D01*
X31409Y20156D01*
X31143Y20046D01*
X30939Y19842D01*
X30828Y19575D01*
X30828Y19287D01*
X30938Y19021D01*
X31142Y18817D01*
X31409Y18706D01*
X31697Y18706D01*
X31963Y18816D01*
X32167Y19020D01*
X32278Y19287D01*
X32278Y19557D01*
X32390Y19285D01*
X32692Y18982D01*
X33087Y18818D01*
X33515Y18818D01*
X33910Y18981D01*
X34213Y19283D01*
X34377Y19678D01*
X34377Y20106D01*
X34356Y20156D01*
X38278Y20156D01*
X38278Y-5293D01*
M02*
