G04 (created by PCBNEW-RS274X (2011-nov-30)-testing) date Mon 04 Jun 2012 02:34:58 PM EDT*
%MOIN*%
G04 Gerber Fmt 3.4, Leading zero omitted, Abs format*
%FSLAX34Y34*%
G01*
G70*
G90*
G04 APERTURE LIST*
%ADD10C,0.006*%
%ADD11C,0.08*%
%ADD12O,0.075X0.055*%
%ADD13R,0.0277X0.0672*%
%ADD14R,0.08X0.08*%
%ADD15R,0.1617X0.0514*%
%ADD16R,0.2365X0.1577*%
%ADD17R,0.1577X0.2365*%
%ADD18C,0.1263*%
%ADD19R,0.036X0.07*%
%ADD20R,0.055X0.075*%
%ADD21C,0.074*%
%ADD22R,0.0987X0.146*%
%ADD23R,0.146X0.1054*%
%ADD24C,0.09*%
%ADD25R,0.09X0.09*%
%ADD26C,0.075*%
%ADD27R,0.0514X0.1617*%
%ADD28R,0.07X0.135*%
%ADD29R,0.155X0.085*%
%ADD30R,0.1695X0.0594*%
%ADD31R,0.1696X0.0594*%
%ADD32R,0.7286X0.6892*%
%ADD33R,0.0987X0.138*%
%ADD34C,0.0987*%
%ADD35C,0.1381*%
G04 APERTURE END LIST*
G54D10*
G54D11*
X11803Y889D03*
X10803Y889D03*
X9803Y889D03*
X8803Y889D03*
X7803Y889D03*
X6803Y889D03*
X5803Y889D03*
X4803Y889D03*
X2803Y19889D03*
X3803Y19889D03*
X4803Y19889D03*
X5803Y19889D03*
X9803Y19889D03*
X11803Y19889D03*
X12803Y19889D03*
X8803Y19889D03*
X7803Y19889D03*
X6803Y19889D03*
X13803Y19889D03*
X14803Y19889D03*
X15803Y19889D03*
X18803Y19889D03*
X17803Y19889D03*
X16803Y19889D03*
X20803Y19889D03*
X21803Y19889D03*
X22803Y19889D03*
X24803Y19889D03*
X25803Y19889D03*
X13803Y889D03*
X14803Y889D03*
X15803Y889D03*
X16803Y889D03*
X17803Y889D03*
X18803Y889D03*
X19803Y889D03*
X20803Y889D03*
X22403Y889D03*
X23403Y889D03*
X24403Y889D03*
X25403Y889D03*
X26403Y889D03*
X27403Y889D03*
X28403Y889D03*
X29403Y889D03*
X23803Y19889D03*
X1803Y1889D03*
X803Y1889D03*
X1803Y2889D03*
X803Y2889D03*
X1803Y3889D03*
X803Y3889D03*
X1803Y4889D03*
X803Y4889D03*
X1803Y889D03*
X803Y889D03*
X803Y5889D03*
X1803Y5889D03*
X1803Y6889D03*
X803Y6889D03*
X1803Y7889D03*
X803Y7889D03*
X1803Y8889D03*
X803Y8889D03*
X1803Y9889D03*
X803Y9889D03*
X1803Y10889D03*
X803Y10889D03*
X1803Y11889D03*
X803Y11889D03*
X1803Y12889D03*
X803Y12889D03*
X1803Y13889D03*
X803Y13889D03*
X1803Y14889D03*
X803Y14889D03*
X1803Y15889D03*
X803Y15889D03*
X1803Y16889D03*
X803Y16889D03*
X1803Y17889D03*
X803Y17889D03*
G54D12*
X16953Y5092D03*
X16954Y5841D03*
G54D13*
X16954Y5466D03*
G54D14*
X36811Y878D03*
G54D11*
X36811Y1878D03*
G54D15*
X27657Y4331D03*
X25295Y4331D03*
G54D16*
X33570Y1182D03*
G54D17*
X31570Y1182D03*
G54D11*
X32795Y6406D03*
X32795Y5406D03*
X33582Y5406D03*
X33582Y6406D03*
G54D18*
X34645Y8268D03*
X34645Y3544D03*
G54D19*
X33441Y13408D03*
X33191Y13408D03*
X32931Y13408D03*
X32671Y13408D03*
X32421Y13408D03*
X32161Y13408D03*
X31901Y13408D03*
X31651Y13408D03*
X31391Y13408D03*
X31141Y13408D03*
X30881Y13408D03*
X30621Y13408D03*
X30371Y13408D03*
X30111Y13408D03*
X30111Y10608D03*
X30371Y10608D03*
X30611Y10608D03*
X30881Y10608D03*
X31141Y10608D03*
X31391Y10608D03*
X31651Y10608D03*
X31901Y10608D03*
X32161Y10608D03*
X32421Y10608D03*
X32671Y10608D03*
X32931Y10608D03*
X33191Y10608D03*
X33441Y10608D03*
G54D20*
X31318Y15453D03*
X32068Y15453D03*
X5887Y7087D03*
X5137Y7087D03*
X31810Y9252D03*
X32560Y9252D03*
G54D14*
X29527Y2150D03*
G54D11*
X29527Y3150D03*
X29527Y4150D03*
G54D21*
X36113Y11805D03*
X36113Y12655D03*
X35113Y13455D03*
X35113Y10955D03*
X36113Y10955D03*
X36113Y13455D03*
G54D22*
X37313Y12205D03*
G54D23*
X37113Y14955D03*
X37113Y9455D03*
G54D21*
X35113Y12655D03*
G54D24*
X24083Y2264D03*
G54D25*
X28083Y2264D03*
G54D26*
X28756Y11000D03*
X26756Y11000D03*
X28756Y14000D03*
X26756Y14000D03*
G54D14*
X15847Y7088D03*
X16930Y7088D03*
G54D27*
X12106Y5807D03*
X12106Y3445D03*
G54D15*
X27657Y6988D03*
X25295Y6988D03*
X33465Y20079D03*
X35827Y20079D03*
G54D28*
X28937Y17535D03*
X28937Y15735D03*
G54D29*
X27487Y19685D03*
X30387Y19685D03*
G54D14*
X13753Y8879D03*
G54D11*
X12753Y8879D03*
X13753Y9879D03*
X12753Y9879D03*
X13753Y10879D03*
X12753Y10879D03*
G54D14*
X7768Y4724D03*
G54D11*
X8768Y4724D03*
G54D14*
X3831Y4724D03*
G54D11*
X4831Y4724D03*
G54D30*
X24015Y12834D03*
X24015Y13504D03*
G54D31*
X24015Y14173D03*
G54D30*
X24015Y14842D03*
X24015Y15512D03*
G54D32*
X19093Y14173D03*
G54D33*
X23030Y11417D03*
X23031Y16929D03*
G54D30*
X11220Y12637D03*
X11220Y13307D03*
G54D31*
X11220Y13976D03*
G54D30*
X11220Y14645D03*
X11220Y15315D03*
G54D32*
X6298Y13976D03*
G54D33*
X10235Y11221D03*
X10236Y16732D03*
G54D12*
X15780Y5052D03*
X15781Y5801D03*
G54D13*
X15781Y5426D03*
G54D34*
X33346Y16929D03*
X31181Y16929D03*
G54D35*
X36220Y16929D03*
G54D11*
X2798Y20662D03*
X3799Y20661D03*
X4799Y20661D03*
X5799Y20661D03*
X6799Y20661D03*
X7799Y20661D03*
X8799Y20661D03*
X9799Y20661D03*
X11769Y204D03*
X10768Y205D03*
X9768Y205D03*
X8768Y205D03*
X7768Y205D03*
X6768Y205D03*
X5768Y205D03*
X4768Y205D03*
X20824Y204D03*
X19823Y205D03*
X18823Y205D03*
X17823Y205D03*
X16823Y205D03*
X15823Y205D03*
X14823Y205D03*
X13823Y205D03*
X29426Y204D03*
X28425Y205D03*
X27425Y205D03*
X26425Y205D03*
X25425Y205D03*
X24425Y205D03*
X23425Y205D03*
X22425Y205D03*
X11794Y20662D03*
X12795Y20661D03*
X13795Y20661D03*
X14795Y20661D03*
X15795Y20661D03*
X16795Y20661D03*
X17795Y20661D03*
X18795Y20661D03*
M02*
