G04 (created by PCBNEW-RS274X (2011-nov-30)-testing) date Mon 11 Jun 2012 06:12:24 PM EDT*
%MOIN*%
G04 Gerber Fmt 3.4, Leading zero omitted, Abs format*
%FSLAX34Y34*%
G01*
G70*
G90*
G04 APERTURE LIST*
%ADD10C,0.006*%
%ADD11C,0.012*%
%ADD12C,0.0098*%
%ADD13C,0.0079*%
%ADD14C,0.015*%
%ADD15C,0.0109*%
%ADD16C,0.011*%
%ADD17C,0.005*%
%ADD18C,0.0078*%
%ADD19C,0.0097*%
%ADD20C,0.0069*%
%ADD21C,0.0062*%
%ADD22C,0.008*%
G04 APERTURE END LIST*
G54D10*
G54D11*
X5226Y9688D02*
X5451Y9088D01*
X5676Y9688D01*
X4964Y9987D02*
X4964Y10475D01*
X5264Y10212D01*
X5264Y10325D01*
X5301Y10400D01*
X5339Y10437D01*
X5414Y10475D01*
X5601Y10475D01*
X5676Y10437D01*
X5714Y10400D01*
X5751Y10325D01*
X5751Y10100D01*
X5714Y10025D01*
X5676Y9987D01*
G54D12*
X5513Y11130D02*
X5251Y11130D01*
X5120Y11130D02*
X5138Y11111D01*
X5157Y11130D01*
X5138Y11148D01*
X5120Y11130D01*
X5157Y11130D01*
X5513Y11373D02*
X5494Y11335D01*
X5456Y11317D01*
X5120Y11317D01*
X5251Y11466D02*
X5251Y11616D01*
X5120Y11523D02*
X5456Y11523D01*
X5494Y11541D01*
X5513Y11579D01*
X5513Y11616D01*
X5475Y11748D02*
X5494Y11766D01*
X5513Y11748D01*
X5494Y11729D01*
X5475Y11748D01*
X5513Y11748D01*
X5494Y12103D02*
X5513Y12066D01*
X5513Y11991D01*
X5494Y11953D01*
X5475Y11935D01*
X5438Y11916D01*
X5325Y11916D01*
X5288Y11935D01*
X5269Y11953D01*
X5251Y11991D01*
X5251Y12066D01*
X5269Y12103D01*
X5513Y12328D02*
X5494Y12290D01*
X5475Y12272D01*
X5438Y12253D01*
X5325Y12253D01*
X5288Y12272D01*
X5269Y12290D01*
X5251Y12328D01*
X5251Y12384D01*
X5269Y12421D01*
X5288Y12440D01*
X5325Y12459D01*
X5438Y12459D01*
X5475Y12440D01*
X5494Y12421D01*
X5513Y12384D01*
X5513Y12328D01*
X5513Y12628D02*
X5251Y12628D01*
X5288Y12628D02*
X5269Y12646D01*
X5251Y12684D01*
X5251Y12740D01*
X5269Y12777D01*
X5307Y12796D01*
X5513Y12796D01*
X5307Y12796D02*
X5269Y12815D01*
X5251Y12852D01*
X5251Y12908D01*
X5269Y12946D01*
X5307Y12964D01*
X5513Y12964D01*
G54D13*
X5088Y18032D02*
X4939Y17928D01*
X5088Y17853D02*
X4774Y17853D01*
X4774Y17972D01*
X4789Y18002D01*
X4804Y18017D01*
X4834Y18032D01*
X4879Y18032D01*
X4909Y18017D01*
X4924Y18002D01*
X4939Y17972D01*
X4939Y17853D01*
X5073Y18286D02*
X5088Y18256D01*
X5088Y18197D01*
X5073Y18167D01*
X5043Y18152D01*
X4924Y18152D01*
X4894Y18167D01*
X4879Y18197D01*
X4879Y18256D01*
X4894Y18286D01*
X4924Y18301D01*
X4954Y18301D01*
X4983Y18152D01*
X4879Y18406D02*
X5088Y18481D01*
X4879Y18555D01*
G54D14*
X4567Y18661D02*
X4567Y17716D01*
G54D11*
X3461Y10655D02*
X3461Y10712D01*
X3499Y10769D01*
X3537Y10798D01*
X3613Y10827D01*
X3766Y10855D01*
X3956Y10855D01*
X4108Y10827D01*
X4185Y10798D01*
X4223Y10769D01*
X4261Y10712D01*
X4261Y10655D01*
X4223Y10598D01*
X4185Y10569D01*
X4108Y10541D01*
X3956Y10512D01*
X3766Y10512D01*
X3613Y10541D01*
X3537Y10569D01*
X3499Y10598D01*
X3461Y10655D01*
X3537Y11083D02*
X3499Y11112D01*
X3461Y11169D01*
X3461Y11312D01*
X3499Y11369D01*
X3537Y11398D01*
X3613Y11426D01*
X3689Y11426D01*
X3804Y11398D01*
X4261Y11055D01*
X4261Y11426D01*
X3461Y11797D02*
X3461Y11854D01*
X3499Y11911D01*
X3537Y11940D01*
X3613Y11969D01*
X3766Y11997D01*
X3956Y11997D01*
X4108Y11969D01*
X4185Y11940D01*
X4223Y11911D01*
X4261Y11854D01*
X4261Y11797D01*
X4223Y11740D01*
X4185Y11711D01*
X4108Y11683D01*
X3956Y11654D01*
X3766Y11654D01*
X3613Y11683D01*
X3537Y11711D01*
X3499Y11740D01*
X3461Y11797D01*
X3461Y12368D02*
X3461Y12425D01*
X3499Y12482D01*
X3537Y12511D01*
X3613Y12540D01*
X3766Y12568D01*
X3956Y12568D01*
X4108Y12540D01*
X4185Y12511D01*
X4223Y12482D01*
X4261Y12425D01*
X4261Y12368D01*
X4223Y12311D01*
X4185Y12282D01*
X4108Y12254D01*
X3956Y12225D01*
X3766Y12225D01*
X3613Y12254D01*
X3537Y12282D01*
X3499Y12311D01*
X3461Y12368D01*
X3956Y12825D02*
X3956Y13282D01*
X3461Y13682D02*
X3461Y13739D01*
X3499Y13796D01*
X3537Y13825D01*
X3613Y13854D01*
X3766Y13882D01*
X3956Y13882D01*
X4108Y13854D01*
X4185Y13825D01*
X4223Y13796D01*
X4261Y13739D01*
X4261Y13682D01*
X4223Y13625D01*
X4185Y13596D01*
X4108Y13568D01*
X3956Y13539D01*
X3766Y13539D01*
X3613Y13568D01*
X3537Y13596D01*
X3499Y13625D01*
X3461Y13682D01*
X3461Y14253D02*
X3461Y14310D01*
X3499Y14367D01*
X3537Y14396D01*
X3613Y14425D01*
X3766Y14453D01*
X3956Y14453D01*
X4108Y14425D01*
X4185Y14396D01*
X4223Y14367D01*
X4261Y14310D01*
X4261Y14253D01*
X4223Y14196D01*
X4185Y14167D01*
X4108Y14139D01*
X3956Y14110D01*
X3766Y14110D01*
X3613Y14139D01*
X3537Y14167D01*
X3499Y14196D01*
X3461Y14253D01*
X3461Y14824D02*
X3461Y14881D01*
X3499Y14938D01*
X3537Y14967D01*
X3613Y14996D01*
X3766Y15024D01*
X3956Y15024D01*
X4108Y14996D01*
X4185Y14967D01*
X4223Y14938D01*
X4261Y14881D01*
X4261Y14824D01*
X4223Y14767D01*
X4185Y14738D01*
X4108Y14710D01*
X3956Y14681D01*
X3766Y14681D01*
X3613Y14710D01*
X3537Y14738D01*
X3499Y14767D01*
X3461Y14824D01*
X3727Y15538D02*
X4261Y15538D01*
X3423Y15395D02*
X3994Y15252D01*
X3994Y15624D01*
X3956Y15852D02*
X3956Y16309D01*
X3461Y16709D02*
X3461Y16766D01*
X3499Y16823D01*
X3537Y16852D01*
X3613Y16881D01*
X3766Y16909D01*
X3956Y16909D01*
X4108Y16881D01*
X4185Y16852D01*
X4223Y16823D01*
X4261Y16766D01*
X4261Y16709D01*
X4223Y16652D01*
X4185Y16623D01*
X4108Y16595D01*
X3956Y16566D01*
X3766Y16566D01*
X3613Y16595D01*
X3537Y16623D01*
X3499Y16652D01*
X3461Y16709D01*
X3461Y17280D02*
X3461Y17337D01*
X3499Y17394D01*
X3537Y17423D01*
X3613Y17452D01*
X3766Y17480D01*
X3956Y17480D01*
X4108Y17452D01*
X4185Y17423D01*
X4223Y17394D01*
X4261Y17337D01*
X4261Y17280D01*
X4223Y17223D01*
X4185Y17194D01*
X4108Y17166D01*
X3956Y17137D01*
X3766Y17137D01*
X3613Y17166D01*
X3537Y17194D01*
X3499Y17223D01*
X3461Y17280D01*
X3461Y17851D02*
X3461Y17908D01*
X3499Y17965D01*
X3537Y17994D01*
X3613Y18023D01*
X3766Y18051D01*
X3956Y18051D01*
X4108Y18023D01*
X4185Y17994D01*
X4223Y17965D01*
X4261Y17908D01*
X4261Y17851D01*
X4223Y17794D01*
X4185Y17765D01*
X4108Y17737D01*
X3956Y17708D01*
X3766Y17708D01*
X3613Y17737D01*
X3537Y17765D01*
X3499Y17794D01*
X3461Y17851D01*
X4261Y18622D02*
X4261Y18279D01*
X4261Y18451D02*
X3461Y18451D01*
X3575Y18394D01*
X3651Y18336D01*
X3689Y18279D01*
G54D15*
X15777Y1484D02*
X15777Y3846D01*
X10659Y3846D02*
X10659Y1484D01*
G54D13*
X15773Y1465D02*
X10663Y1465D01*
X10663Y3865D02*
X15773Y3865D01*
G54D15*
X38005Y5627D02*
X38005Y9171D01*
X38005Y9171D02*
X36431Y9171D01*
X36431Y9171D02*
X36431Y5627D01*
G54D14*
X38399Y5430D02*
X36116Y5430D01*
X38399Y5391D02*
X38399Y667D01*
X38399Y667D02*
X36116Y667D01*
X36116Y667D02*
X36116Y5430D01*
X38399Y1651D02*
X38399Y4604D01*
X36116Y5430D02*
X36116Y745D01*
X36115Y4643D02*
X36115Y1218D01*
G54D15*
X5307Y5200D02*
X5740Y5200D01*
X5543Y5396D02*
X5543Y4963D01*
X8398Y495D02*
X8693Y790D01*
X5839Y495D02*
X5544Y790D01*
X5544Y791D02*
X5544Y1676D01*
X5839Y554D02*
X8397Y554D01*
X8692Y791D02*
X8692Y1676D01*
X8693Y1676D02*
X8693Y1578D01*
G54D14*
X5544Y2965D02*
X5544Y4264D01*
X5544Y4264D02*
X8692Y4264D01*
X8692Y4264D02*
X8692Y2965D01*
X22362Y24292D02*
X27480Y24292D01*
X27480Y24292D02*
X27480Y15040D01*
X27480Y15040D02*
X25905Y15040D01*
X22362Y24292D02*
X17244Y24292D01*
X17244Y24292D02*
X17244Y15040D01*
X17244Y15040D02*
X18819Y15040D01*
X18819Y15040D02*
X19016Y15040D01*
G54D15*
X29010Y1492D02*
X30191Y1492D01*
X30191Y1492D02*
X30191Y2574D01*
X26845Y2574D02*
X26845Y1492D01*
X26845Y1492D02*
X28026Y1492D01*
X29010Y5232D02*
X29207Y5232D01*
X29207Y5232D02*
X29207Y4937D01*
X29207Y4937D02*
X30191Y4937D01*
X30191Y4937D02*
X30191Y3756D01*
X26845Y3756D02*
X26845Y4937D01*
X26845Y4937D02*
X27829Y4937D01*
X27829Y4937D02*
X27829Y5232D01*
X27829Y5232D02*
X28026Y5232D01*
G54D16*
X33326Y15222D02*
X34310Y15222D01*
G54D15*
X34310Y15223D02*
X34310Y22307D01*
G54D16*
X34310Y22307D02*
X33326Y22307D01*
G54D15*
X33326Y22307D02*
X33326Y15223D01*
G54D10*
X37805Y21443D02*
X36231Y21443D01*
X36231Y21443D02*
X36231Y26087D01*
X36231Y26087D02*
X37805Y26087D01*
X37805Y26087D02*
X37805Y21443D01*
G54D15*
X19531Y25398D02*
X11657Y25398D01*
X26618Y25398D02*
X20712Y25398D01*
X2602Y25398D02*
X10575Y25398D01*
X2602Y6402D02*
X2602Y24315D01*
X12543Y7386D02*
X4669Y7386D01*
X21598Y7386D02*
X13626Y7386D01*
X30161Y7386D02*
X22287Y7386D01*
G54D14*
X22737Y3846D02*
X22737Y1287D01*
X22737Y1287D02*
X25099Y1287D01*
X25099Y1287D02*
X25099Y3846D01*
X25099Y3846D02*
X22737Y3846D01*
X20018Y1265D02*
X20018Y3765D01*
X20018Y3765D02*
X20518Y3765D01*
X20518Y3765D02*
X20518Y5765D01*
X20518Y5765D02*
X17518Y5765D01*
X17518Y5765D02*
X17518Y3765D01*
X17518Y3765D02*
X18018Y3765D01*
X18018Y3765D02*
X18018Y1265D01*
X18018Y1265D02*
X20018Y1265D01*
G54D17*
X39010Y9490D02*
X39010Y14290D01*
X39010Y14290D02*
X32310Y14290D01*
X32310Y14290D02*
X32310Y9490D01*
X32310Y9490D02*
X39010Y9490D01*
X32659Y20015D02*
X32656Y19988D01*
X32648Y19962D01*
X32635Y19937D01*
X32618Y19916D01*
X32596Y19899D01*
X32572Y19886D01*
X32546Y19877D01*
X32518Y19875D01*
X32492Y19877D01*
X32466Y19885D01*
X32441Y19898D01*
X32420Y19915D01*
X32402Y19936D01*
X32389Y19960D01*
X32381Y19986D01*
X32378Y20014D01*
X32380Y20040D01*
X32387Y20066D01*
X32400Y20091D01*
X32417Y20112D01*
X32438Y20130D01*
X32462Y20144D01*
X32488Y20152D01*
X32516Y20155D01*
X32542Y20153D01*
X32568Y20146D01*
X32593Y20134D01*
X32615Y20117D01*
X32633Y20096D01*
X32646Y20072D01*
X32655Y20046D01*
X32658Y20018D01*
X32659Y20015D01*
X32718Y18915D02*
X32418Y18915D01*
X32418Y18915D02*
X32418Y19415D01*
X32418Y19415D02*
X32718Y19415D01*
X28668Y20215D02*
X32718Y20215D01*
X32718Y18115D02*
X28668Y18115D01*
X32718Y18115D02*
X32718Y20215D01*
X28668Y18115D02*
X28668Y20215D01*
G54D14*
X1437Y4446D02*
X1437Y1887D01*
X1437Y1887D02*
X3799Y1887D01*
X3799Y1887D02*
X3799Y4446D01*
X3799Y4446D02*
X1437Y4446D01*
G54D10*
X29618Y15165D02*
X30618Y15165D01*
X30618Y15165D02*
X30618Y12165D01*
X30618Y12165D02*
X29618Y12165D01*
X29618Y12165D02*
X29618Y15165D01*
X30618Y14165D02*
X29618Y14165D01*
G54D17*
X13509Y5946D02*
X13508Y5937D01*
X13505Y5927D01*
X13500Y5919D01*
X13494Y5911D01*
X13486Y5905D01*
X13478Y5900D01*
X13469Y5898D01*
X13459Y5897D01*
X13450Y5897D01*
X13441Y5900D01*
X13432Y5905D01*
X13425Y5911D01*
X13418Y5918D01*
X13414Y5927D01*
X13411Y5936D01*
X13410Y5946D01*
X13410Y5955D01*
X13413Y5964D01*
X13417Y5973D01*
X13424Y5980D01*
X13431Y5987D01*
X13439Y5991D01*
X13449Y5994D01*
X13458Y5995D01*
X13467Y5995D01*
X13477Y5992D01*
X13485Y5988D01*
X13493Y5982D01*
X13499Y5974D01*
X13504Y5966D01*
X13507Y5957D01*
X13508Y5947D01*
X13509Y5946D01*
X13459Y5496D02*
X13459Y5896D01*
X13459Y5896D02*
X14059Y5896D01*
X14059Y5896D02*
X14059Y5496D01*
X14059Y5096D02*
X14059Y4696D01*
X14059Y4696D02*
X13459Y4696D01*
X13459Y4696D02*
X13459Y5096D01*
X12416Y5975D02*
X12415Y5966D01*
X12412Y5956D01*
X12407Y5948D01*
X12401Y5940D01*
X12393Y5934D01*
X12385Y5929D01*
X12376Y5927D01*
X12366Y5926D01*
X12357Y5926D01*
X12348Y5929D01*
X12339Y5934D01*
X12332Y5940D01*
X12325Y5947D01*
X12321Y5956D01*
X12318Y5965D01*
X12317Y5975D01*
X12317Y5984D01*
X12320Y5993D01*
X12324Y6002D01*
X12331Y6009D01*
X12338Y6016D01*
X12346Y6020D01*
X12356Y6023D01*
X12365Y6024D01*
X12374Y6024D01*
X12384Y6021D01*
X12392Y6017D01*
X12400Y6011D01*
X12406Y6003D01*
X12411Y5995D01*
X12414Y5986D01*
X12415Y5976D01*
X12416Y5975D01*
X12366Y5525D02*
X12366Y5925D01*
X12366Y5925D02*
X12966Y5925D01*
X12966Y5925D02*
X12966Y5525D01*
X12966Y5125D02*
X12966Y4725D01*
X12966Y4725D02*
X12366Y4725D01*
X12366Y4725D02*
X12366Y5125D01*
G54D10*
X25418Y5665D02*
X25418Y4665D01*
X25418Y4665D02*
X22418Y4665D01*
X22418Y4665D02*
X22418Y5665D01*
X22418Y5665D02*
X25418Y5665D01*
X24418Y4665D02*
X24418Y5665D01*
G54D14*
X19999Y11891D02*
X19606Y11891D01*
X19606Y11891D02*
X19212Y11497D01*
X19212Y11497D02*
X19212Y9529D01*
X19212Y9529D02*
X19999Y9529D01*
X20787Y9529D02*
X21574Y9529D01*
X21574Y9529D02*
X21574Y11497D01*
X21574Y11497D02*
X21180Y11891D01*
X21180Y11891D02*
X20787Y11891D01*
G54D18*
X21377Y10710D02*
X21358Y10519D01*
X21302Y10336D01*
X21212Y10166D01*
X21091Y10017D01*
X20943Y9895D01*
X20774Y9803D01*
X20590Y9747D01*
X20399Y9727D01*
X20209Y9744D01*
X20025Y9798D01*
X19855Y9887D01*
X19705Y10007D01*
X19582Y10155D01*
X19489Y10323D01*
X19431Y10506D01*
X19410Y10697D01*
X19426Y10887D01*
X19479Y11072D01*
X19566Y11243D01*
X19686Y11393D01*
X19832Y11518D01*
X20000Y11611D01*
X20182Y11671D01*
X20373Y11693D01*
X20563Y11679D01*
X20748Y11627D01*
X20920Y11540D01*
X21071Y11422D01*
X21197Y11277D01*
X21291Y11110D01*
X21352Y10928D01*
X21376Y10737D01*
X21377Y10710D01*
G54D14*
X8188Y11891D02*
X7795Y11891D01*
X7795Y11891D02*
X7401Y11497D01*
X7401Y11497D02*
X7401Y9529D01*
X7401Y9529D02*
X8188Y9529D01*
X8976Y9529D02*
X9763Y9529D01*
X9763Y9529D02*
X9763Y11497D01*
X9763Y11497D02*
X9369Y11891D01*
X9369Y11891D02*
X8976Y11891D01*
G54D18*
X9566Y10710D02*
X9547Y10519D01*
X9491Y10336D01*
X9401Y10166D01*
X9280Y10017D01*
X9132Y9895D01*
X8963Y9803D01*
X8779Y9747D01*
X8588Y9727D01*
X8398Y9744D01*
X8214Y9798D01*
X8044Y9887D01*
X7894Y10007D01*
X7771Y10155D01*
X7678Y10323D01*
X7620Y10506D01*
X7599Y10697D01*
X7615Y10887D01*
X7668Y11072D01*
X7755Y11243D01*
X7875Y11393D01*
X8021Y11518D01*
X8189Y11611D01*
X8371Y11671D01*
X8562Y11693D01*
X8752Y11679D01*
X8937Y11627D01*
X9109Y11540D01*
X9260Y11422D01*
X9386Y11277D01*
X9480Y11110D01*
X9541Y10928D01*
X9565Y10737D01*
X9566Y10710D01*
G54D17*
X15419Y11360D02*
X15418Y11351D01*
X15415Y11341D01*
X15410Y11333D01*
X15404Y11325D01*
X15396Y11319D01*
X15388Y11314D01*
X15379Y11312D01*
X15369Y11311D01*
X15360Y11311D01*
X15351Y11314D01*
X15342Y11319D01*
X15335Y11325D01*
X15328Y11332D01*
X15324Y11341D01*
X15321Y11350D01*
X15320Y11360D01*
X15320Y11369D01*
X15323Y11378D01*
X15327Y11387D01*
X15334Y11394D01*
X15341Y11401D01*
X15349Y11405D01*
X15359Y11408D01*
X15368Y11409D01*
X15377Y11409D01*
X15387Y11406D01*
X15395Y11402D01*
X15403Y11396D01*
X15409Y11388D01*
X15414Y11380D01*
X15417Y11371D01*
X15418Y11361D01*
X15419Y11360D01*
X15369Y10910D02*
X15369Y11310D01*
X15369Y11310D02*
X15969Y11310D01*
X15969Y11310D02*
X15969Y10910D01*
X15969Y10510D02*
X15969Y10110D01*
X15969Y10110D02*
X15369Y10110D01*
X15369Y10110D02*
X15369Y10510D01*
X29858Y16665D02*
X29857Y16656D01*
X29854Y16646D01*
X29849Y16638D01*
X29843Y16630D01*
X29835Y16624D01*
X29827Y16619D01*
X29818Y16617D01*
X29808Y16616D01*
X29799Y16616D01*
X29790Y16619D01*
X29781Y16624D01*
X29774Y16630D01*
X29767Y16637D01*
X29763Y16646D01*
X29760Y16655D01*
X29759Y16665D01*
X29759Y16674D01*
X29762Y16683D01*
X29766Y16692D01*
X29773Y16699D01*
X29780Y16706D01*
X29788Y16710D01*
X29798Y16713D01*
X29807Y16714D01*
X29816Y16714D01*
X29826Y16711D01*
X29834Y16707D01*
X29842Y16701D01*
X29848Y16693D01*
X29853Y16685D01*
X29856Y16676D01*
X29857Y16666D01*
X29858Y16665D01*
X29358Y16665D02*
X29758Y16665D01*
X29758Y16665D02*
X29758Y16065D01*
X29758Y16065D02*
X29358Y16065D01*
X28958Y16065D02*
X28558Y16065D01*
X28558Y16065D02*
X28558Y16665D01*
X28558Y16665D02*
X28958Y16665D01*
X30318Y16065D02*
X30317Y16056D01*
X30314Y16046D01*
X30309Y16038D01*
X30303Y16030D01*
X30295Y16024D01*
X30287Y16019D01*
X30278Y16017D01*
X30268Y16016D01*
X30259Y16016D01*
X30250Y16019D01*
X30241Y16024D01*
X30234Y16030D01*
X30227Y16037D01*
X30223Y16046D01*
X30220Y16055D01*
X30219Y16065D01*
X30219Y16074D01*
X30222Y16083D01*
X30226Y16092D01*
X30233Y16099D01*
X30240Y16106D01*
X30248Y16110D01*
X30258Y16113D01*
X30267Y16114D01*
X30276Y16114D01*
X30286Y16111D01*
X30294Y16107D01*
X30302Y16101D01*
X30308Y16093D01*
X30313Y16085D01*
X30316Y16076D01*
X30317Y16066D01*
X30318Y16065D01*
X30718Y16065D02*
X30318Y16065D01*
X30318Y16065D02*
X30318Y16665D01*
X30318Y16665D02*
X30718Y16665D01*
X31118Y16665D02*
X31518Y16665D01*
X31518Y16665D02*
X31518Y16065D01*
X31518Y16065D02*
X31118Y16065D01*
G54D14*
X12125Y11891D02*
X11732Y11891D01*
X11732Y11891D02*
X11338Y11497D01*
X11338Y11497D02*
X11338Y9529D01*
X11338Y9529D02*
X12125Y9529D01*
X12913Y9529D02*
X13700Y9529D01*
X13700Y9529D02*
X13700Y11497D01*
X13700Y11497D02*
X13306Y11891D01*
X13306Y11891D02*
X12913Y11891D01*
G54D18*
X13503Y10710D02*
X13484Y10519D01*
X13428Y10336D01*
X13338Y10166D01*
X13217Y10017D01*
X13069Y9895D01*
X12900Y9803D01*
X12716Y9747D01*
X12525Y9727D01*
X12335Y9744D01*
X12151Y9798D01*
X11981Y9887D01*
X11831Y10007D01*
X11708Y10155D01*
X11615Y10323D01*
X11557Y10506D01*
X11536Y10697D01*
X11552Y10887D01*
X11605Y11072D01*
X11692Y11243D01*
X11812Y11393D01*
X11958Y11518D01*
X12126Y11611D01*
X12308Y11671D01*
X12499Y11693D01*
X12689Y11679D01*
X12874Y11627D01*
X13046Y11540D01*
X13197Y11422D01*
X13323Y11277D01*
X13417Y11110D01*
X13478Y10928D01*
X13502Y10737D01*
X13503Y10710D01*
G54D17*
X31368Y24415D02*
X31348Y24221D01*
X31292Y24034D01*
X31200Y23862D01*
X31077Y23711D01*
X30927Y23586D01*
X30755Y23494D01*
X30569Y23436D01*
X30374Y23416D01*
X30181Y23433D01*
X29994Y23488D01*
X29821Y23579D01*
X29669Y23701D01*
X29543Y23851D01*
X29449Y24022D01*
X29390Y24208D01*
X29369Y24402D01*
X29385Y24595D01*
X29439Y24783D01*
X29528Y24956D01*
X29649Y25109D01*
X29798Y25236D01*
X29968Y25331D01*
X30154Y25391D01*
X30348Y25414D01*
X30541Y25399D01*
X30729Y25347D01*
X30903Y25259D01*
X31057Y25139D01*
X31185Y24991D01*
X31281Y24821D01*
X31343Y24636D01*
X31367Y24442D01*
X31368Y24415D01*
X31868Y22915D02*
X28868Y22915D01*
X28868Y22915D02*
X28868Y25915D01*
X28868Y25915D02*
X31868Y25915D01*
X31868Y22915D02*
X31868Y25915D01*
G54D14*
X23936Y11891D02*
X23543Y11891D01*
X23543Y11891D02*
X23149Y11497D01*
X23149Y11497D02*
X23149Y9529D01*
X23149Y9529D02*
X23936Y9529D01*
X24724Y9529D02*
X25511Y9529D01*
X25511Y9529D02*
X25511Y11497D01*
X25511Y11497D02*
X25117Y11891D01*
X25117Y11891D02*
X24724Y11891D01*
G54D18*
X25314Y10710D02*
X25295Y10519D01*
X25239Y10336D01*
X25149Y10166D01*
X25028Y10017D01*
X24880Y9895D01*
X24711Y9803D01*
X24527Y9747D01*
X24336Y9727D01*
X24146Y9744D01*
X23962Y9798D01*
X23792Y9887D01*
X23642Y10007D01*
X23519Y10155D01*
X23426Y10323D01*
X23368Y10506D01*
X23347Y10697D01*
X23363Y10887D01*
X23416Y11072D01*
X23503Y11243D01*
X23623Y11393D01*
X23769Y11518D01*
X23937Y11611D01*
X24119Y11671D01*
X24310Y11693D01*
X24500Y11679D01*
X24685Y11627D01*
X24857Y11540D01*
X25008Y11422D01*
X25134Y11277D01*
X25228Y11110D01*
X25289Y10928D01*
X25313Y10737D01*
X25314Y10710D01*
G54D17*
X27230Y11360D02*
X27229Y11351D01*
X27226Y11341D01*
X27221Y11333D01*
X27215Y11325D01*
X27207Y11319D01*
X27199Y11314D01*
X27190Y11312D01*
X27180Y11311D01*
X27171Y11311D01*
X27162Y11314D01*
X27153Y11319D01*
X27146Y11325D01*
X27139Y11332D01*
X27135Y11341D01*
X27132Y11350D01*
X27131Y11360D01*
X27131Y11369D01*
X27134Y11378D01*
X27138Y11387D01*
X27145Y11394D01*
X27152Y11401D01*
X27160Y11405D01*
X27170Y11408D01*
X27179Y11409D01*
X27188Y11409D01*
X27198Y11406D01*
X27206Y11402D01*
X27214Y11396D01*
X27220Y11388D01*
X27225Y11380D01*
X27228Y11371D01*
X27229Y11361D01*
X27230Y11360D01*
X27180Y10910D02*
X27180Y11310D01*
X27180Y11310D02*
X27780Y11310D01*
X27780Y11310D02*
X27780Y10910D01*
X27780Y10510D02*
X27780Y10110D01*
X27780Y10110D02*
X27180Y10110D01*
X27180Y10110D02*
X27180Y10510D01*
G54D15*
X34010Y1492D02*
X35191Y1492D01*
X35191Y1492D02*
X35191Y2574D01*
X31845Y2574D02*
X31845Y1492D01*
X31845Y1492D02*
X33026Y1492D01*
X34010Y5232D02*
X34207Y5232D01*
X34207Y5232D02*
X34207Y4937D01*
X34207Y4937D02*
X35191Y4937D01*
X35191Y4937D02*
X35191Y3756D01*
X31845Y3756D02*
X31845Y4937D01*
X31845Y4937D02*
X32829Y4937D01*
X32829Y4937D02*
X32829Y5232D01*
X32829Y5232D02*
X33026Y5232D01*
G54D14*
X10550Y24292D02*
X15668Y24292D01*
X15668Y24292D02*
X15668Y15040D01*
X15668Y15040D02*
X14093Y15040D01*
X10550Y24292D02*
X5432Y24292D01*
X5432Y24292D02*
X5432Y15040D01*
X5432Y15040D02*
X7007Y15040D01*
X7007Y15040D02*
X7204Y15040D01*
G54D13*
X10717Y4403D02*
X10850Y4003D01*
X10984Y4403D01*
X11174Y4003D02*
X11136Y4022D01*
X11117Y4041D01*
X11098Y4079D01*
X11098Y4194D01*
X11117Y4232D01*
X11136Y4251D01*
X11174Y4270D01*
X11232Y4270D01*
X11270Y4251D01*
X11289Y4232D01*
X11308Y4194D01*
X11308Y4079D01*
X11289Y4041D01*
X11270Y4022D01*
X11232Y4003D01*
X11174Y4003D01*
X11536Y4003D02*
X11498Y4022D01*
X11479Y4060D01*
X11479Y4403D01*
X12223Y4003D02*
X12089Y4194D01*
X11994Y4003D02*
X11994Y4403D01*
X12147Y4403D01*
X12185Y4384D01*
X12204Y4365D01*
X12223Y4327D01*
X12223Y4270D01*
X12204Y4232D01*
X12185Y4213D01*
X12147Y4194D01*
X11994Y4194D01*
X12547Y4022D02*
X12509Y4003D01*
X12432Y4003D01*
X12394Y4022D01*
X12375Y4060D01*
X12375Y4213D01*
X12394Y4251D01*
X12432Y4270D01*
X12509Y4270D01*
X12547Y4251D01*
X12566Y4213D01*
X12566Y4175D01*
X12375Y4136D01*
X12909Y4270D02*
X12909Y3946D01*
X12890Y3908D01*
X12871Y3889D01*
X12832Y3870D01*
X12775Y3870D01*
X12737Y3889D01*
X12909Y4022D02*
X12871Y4003D01*
X12794Y4003D01*
X12756Y4022D01*
X12737Y4041D01*
X12718Y4079D01*
X12718Y4194D01*
X12737Y4232D01*
X12756Y4251D01*
X12794Y4270D01*
X12871Y4270D01*
X12909Y4251D01*
X13404Y4213D02*
X13538Y4213D01*
X13595Y4003D02*
X13404Y4003D01*
X13404Y4403D01*
X13595Y4403D01*
X13766Y4270D02*
X13766Y4003D01*
X13766Y4232D02*
X13785Y4251D01*
X13823Y4270D01*
X13881Y4270D01*
X13919Y4251D01*
X13938Y4213D01*
X13938Y4003D01*
X14300Y4003D02*
X14300Y4213D01*
X14281Y4251D01*
X14243Y4270D01*
X14166Y4270D01*
X14128Y4251D01*
X14300Y4022D02*
X14262Y4003D01*
X14166Y4003D01*
X14128Y4022D01*
X14109Y4060D01*
X14109Y4098D01*
X14128Y4136D01*
X14166Y4155D01*
X14262Y4155D01*
X14300Y4175D01*
X14490Y4003D02*
X14490Y4403D01*
X14490Y4251D02*
X14528Y4270D01*
X14605Y4270D01*
X14643Y4251D01*
X14662Y4232D01*
X14681Y4194D01*
X14681Y4079D01*
X14662Y4041D01*
X14643Y4022D01*
X14605Y4003D01*
X14528Y4003D01*
X14490Y4022D01*
X14909Y4003D02*
X14871Y4022D01*
X14852Y4060D01*
X14852Y4403D01*
X15215Y4022D02*
X15177Y4003D01*
X15100Y4003D01*
X15062Y4022D01*
X15043Y4060D01*
X15043Y4213D01*
X15062Y4251D01*
X15100Y4270D01*
X15177Y4270D01*
X15215Y4251D01*
X15234Y4213D01*
X15234Y4175D01*
X15043Y4136D01*
X15405Y4003D02*
X15405Y4270D01*
X15405Y4194D02*
X15424Y4232D01*
X15443Y4251D01*
X15481Y4270D01*
X15520Y4270D01*
X11279Y1303D02*
X11356Y1303D01*
X11394Y1284D01*
X11432Y1246D01*
X11451Y1170D01*
X11451Y1036D01*
X11432Y960D01*
X11394Y922D01*
X11356Y903D01*
X11279Y903D01*
X11241Y922D01*
X11203Y960D01*
X11184Y1036D01*
X11184Y1170D01*
X11203Y1246D01*
X11241Y1284D01*
X11279Y1303D01*
X11622Y903D02*
X11622Y1303D01*
X11851Y903D01*
X11851Y1303D01*
X13947Y1303D02*
X14024Y1303D01*
X14062Y1284D01*
X14100Y1246D01*
X14119Y1170D01*
X14119Y1036D01*
X14100Y960D01*
X14062Y922D01*
X14024Y903D01*
X13947Y903D01*
X13909Y922D01*
X13871Y960D01*
X13852Y1036D01*
X13852Y1170D01*
X13871Y1246D01*
X13909Y1284D01*
X13947Y1303D01*
X14424Y1113D02*
X14290Y1113D01*
X14290Y903D02*
X14290Y1303D01*
X14481Y1303D01*
X14767Y1113D02*
X14633Y1113D01*
X14633Y903D02*
X14633Y1303D01*
X14824Y1303D01*
X15262Y1322D02*
X14919Y808D01*
X15376Y1017D02*
X15567Y1017D01*
X15338Y903D02*
X15471Y1303D01*
X15605Y903D01*
X15738Y903D02*
X15738Y1170D01*
X15738Y1094D02*
X15757Y1132D01*
X15776Y1151D01*
X15814Y1170D01*
X15853Y1170D01*
X16158Y903D02*
X16158Y1303D01*
X16158Y922D02*
X16120Y903D01*
X16043Y903D01*
X16005Y922D01*
X15986Y941D01*
X15967Y979D01*
X15967Y1094D01*
X15986Y1132D01*
X16005Y1151D01*
X16043Y1170D01*
X16120Y1170D01*
X16158Y1151D01*
X16520Y1170D02*
X16520Y903D01*
X16348Y1170D02*
X16348Y960D01*
X16367Y922D01*
X16405Y903D01*
X16463Y903D01*
X16501Y922D01*
X16520Y941D01*
X16710Y903D02*
X16710Y1170D01*
X16710Y1303D02*
X16691Y1284D01*
X16710Y1265D01*
X16729Y1284D01*
X16710Y1303D01*
X16710Y1265D01*
X16900Y1170D02*
X16900Y903D01*
X16900Y1132D02*
X16919Y1151D01*
X16957Y1170D01*
X17015Y1170D01*
X17053Y1151D01*
X17072Y1113D01*
X17072Y903D01*
X17319Y903D02*
X17281Y922D01*
X17262Y941D01*
X17243Y979D01*
X17243Y1094D01*
X17262Y1132D01*
X17281Y1151D01*
X17319Y1170D01*
X17377Y1170D01*
X17415Y1151D01*
X17434Y1132D01*
X17453Y1094D01*
X17453Y979D01*
X17434Y941D01*
X17415Y922D01*
X17377Y903D01*
X17319Y903D01*
G54D11*
X16010Y1751D02*
X16610Y1951D01*
X16010Y2151D01*
X16610Y2351D02*
X16210Y2351D01*
X16324Y2351D02*
X16267Y2379D01*
X16238Y2408D01*
X16210Y2465D01*
X16210Y2522D01*
X16581Y2950D02*
X16610Y2893D01*
X16610Y2779D01*
X16581Y2722D01*
X16524Y2693D01*
X16296Y2693D01*
X16238Y2722D01*
X16210Y2779D01*
X16210Y2893D01*
X16238Y2950D01*
X16296Y2979D01*
X16353Y2979D01*
X16410Y2693D01*
X16210Y3493D02*
X16696Y3493D01*
X16753Y3464D01*
X16781Y3436D01*
X16810Y3379D01*
X16810Y3293D01*
X16781Y3236D01*
X16581Y3493D02*
X16610Y3436D01*
X16610Y3322D01*
X16581Y3264D01*
X16553Y3236D01*
X16496Y3207D01*
X16324Y3207D01*
X16267Y3236D01*
X16238Y3264D01*
X16210Y3322D01*
X16210Y3436D01*
X16238Y3493D01*
G54D17*
X36971Y1174D02*
X36742Y1174D01*
X36856Y1174D02*
X36856Y1574D01*
X36818Y1517D01*
X36780Y1479D01*
X36742Y1460D01*
X37123Y1536D02*
X37142Y1555D01*
X37180Y1574D01*
X37276Y1574D01*
X37314Y1555D01*
X37333Y1536D01*
X37352Y1498D01*
X37352Y1460D01*
X37333Y1403D01*
X37104Y1174D01*
X37352Y1174D01*
X37466Y1574D02*
X37599Y1174D01*
X37733Y1574D01*
G54D11*
G54D17*
X9294Y1025D02*
X9103Y1025D01*
X9084Y835D01*
X9103Y854D01*
X9141Y873D01*
X9237Y873D01*
X9275Y854D01*
X9294Y835D01*
X9313Y797D01*
X9313Y701D01*
X9294Y663D01*
X9275Y644D01*
X9237Y625D01*
X9141Y625D01*
X9103Y644D01*
X9084Y663D01*
X9427Y1025D02*
X9560Y625D01*
X9694Y1025D01*
G54D11*
X18511Y15956D02*
X17911Y15956D01*
X18339Y16156D01*
X17911Y16356D01*
X18511Y16356D01*
X18511Y16642D02*
X17911Y16642D01*
X18454Y17271D02*
X18482Y17242D01*
X18511Y17156D01*
X18511Y17099D01*
X18482Y17014D01*
X18425Y16956D01*
X18368Y16928D01*
X18254Y16899D01*
X18168Y16899D01*
X18054Y16928D01*
X17997Y16956D01*
X17939Y17014D01*
X17911Y17099D01*
X17911Y17156D01*
X17939Y17242D01*
X17968Y17271D01*
X17968Y17499D02*
X17939Y17528D01*
X17911Y17585D01*
X17911Y17728D01*
X17939Y17785D01*
X17968Y17814D01*
X18025Y17842D01*
X18082Y17842D01*
X18168Y17814D01*
X18511Y17471D01*
X18511Y17842D01*
X18511Y18127D02*
X18511Y18242D01*
X18482Y18299D01*
X18454Y18327D01*
X18368Y18385D01*
X18254Y18413D01*
X18025Y18413D01*
X17968Y18385D01*
X17939Y18356D01*
X17911Y18299D01*
X17911Y18185D01*
X17939Y18127D01*
X17968Y18099D01*
X18025Y18070D01*
X18168Y18070D01*
X18225Y18099D01*
X18254Y18127D01*
X18282Y18185D01*
X18282Y18299D01*
X18254Y18356D01*
X18225Y18385D01*
X18168Y18413D01*
X18511Y18984D02*
X18511Y18641D01*
X18511Y18813D02*
X17911Y18813D01*
X17997Y18756D01*
X18054Y18698D01*
X18082Y18641D01*
X17911Y19527D02*
X17911Y19241D01*
X18197Y19212D01*
X18168Y19241D01*
X18139Y19298D01*
X18139Y19441D01*
X18168Y19498D01*
X18197Y19527D01*
X18254Y19555D01*
X18397Y19555D01*
X18454Y19527D01*
X18482Y19498D01*
X18511Y19441D01*
X18511Y19298D01*
X18482Y19241D01*
X18454Y19212D01*
X18511Y20126D02*
X18511Y19783D01*
X18511Y19955D02*
X17911Y19955D01*
X17997Y19898D01*
X18054Y19840D01*
X18082Y19783D01*
X18282Y20383D02*
X18282Y20840D01*
X18511Y21440D02*
X18511Y21097D01*
X18511Y21269D02*
X17911Y21269D01*
X17997Y21212D01*
X18054Y21154D01*
X18082Y21097D01*
X17968Y21668D02*
X17939Y21697D01*
X17911Y21754D01*
X17911Y21897D01*
X17939Y21954D01*
X17968Y21983D01*
X18025Y22011D01*
X18082Y22011D01*
X18168Y21983D01*
X18511Y21640D01*
X18511Y22011D01*
X17911Y22211D02*
X18511Y22354D01*
X18082Y22468D01*
X18511Y22582D01*
X17911Y22725D01*
X17911Y22954D02*
X18397Y22954D01*
X18454Y22982D01*
X18482Y23011D01*
X18511Y23068D01*
X18511Y23182D01*
X18482Y23240D01*
X18454Y23268D01*
X18397Y23297D01*
X17911Y23297D01*
G54D17*
X29517Y783D02*
X29288Y783D01*
X29402Y783D02*
X29402Y1183D01*
X29364Y1126D01*
X29326Y1088D01*
X29288Y1069D01*
X29669Y1145D02*
X29688Y1164D01*
X29726Y1183D01*
X29822Y1183D01*
X29860Y1164D01*
X29879Y1145D01*
X29898Y1107D01*
X29898Y1069D01*
X29879Y1012D01*
X29650Y783D01*
X29898Y783D01*
X30012Y1183D02*
X30145Y783D01*
X30279Y1183D01*
G54D19*
X27331Y5424D02*
X27630Y5424D01*
X27480Y5274D02*
X27480Y5574D01*
G54D11*
G54D10*
X38473Y21803D02*
X38473Y21994D01*
X38587Y21765D02*
X38187Y21898D01*
X38587Y22032D01*
X38587Y22165D02*
X38320Y22165D01*
X38396Y22165D02*
X38358Y22184D01*
X38339Y22203D01*
X38320Y22241D01*
X38320Y22280D01*
X38587Y22585D02*
X38187Y22585D01*
X38568Y22585D02*
X38587Y22547D01*
X38587Y22470D01*
X38568Y22432D01*
X38549Y22413D01*
X38511Y22394D01*
X38396Y22394D01*
X38358Y22413D01*
X38339Y22432D01*
X38320Y22470D01*
X38320Y22547D01*
X38339Y22585D01*
X38320Y22947D02*
X38587Y22947D01*
X38320Y22775D02*
X38530Y22775D01*
X38568Y22794D01*
X38587Y22832D01*
X38587Y22890D01*
X38568Y22928D01*
X38549Y22947D01*
X38587Y23137D02*
X38320Y23137D01*
X38187Y23137D02*
X38206Y23118D01*
X38225Y23137D01*
X38206Y23156D01*
X38187Y23137D01*
X38225Y23137D01*
X38320Y23327D02*
X38587Y23327D01*
X38358Y23327D02*
X38339Y23346D01*
X38320Y23384D01*
X38320Y23442D01*
X38339Y23480D01*
X38377Y23499D01*
X38587Y23499D01*
X38587Y23746D02*
X38568Y23708D01*
X38549Y23689D01*
X38511Y23670D01*
X38396Y23670D01*
X38358Y23689D01*
X38339Y23708D01*
X38320Y23746D01*
X38320Y23804D01*
X38339Y23842D01*
X38358Y23861D01*
X38396Y23880D01*
X38511Y23880D01*
X38549Y23861D01*
X38568Y23842D01*
X38587Y23804D01*
X38587Y23746D01*
X38587Y24356D02*
X38187Y24356D01*
X38187Y24509D01*
X38206Y24547D01*
X38225Y24566D01*
X38263Y24585D01*
X38320Y24585D01*
X38358Y24566D01*
X38377Y24547D01*
X38396Y24509D01*
X38396Y24356D01*
X38187Y24718D02*
X38587Y24813D01*
X38301Y24890D01*
X38587Y24966D01*
X38187Y25061D01*
X38587Y25442D02*
X38396Y25308D01*
X38587Y25213D02*
X38187Y25213D01*
X38187Y25366D01*
X38206Y25404D01*
X38225Y25423D01*
X38263Y25442D01*
X38320Y25442D01*
X38358Y25423D01*
X38377Y25404D01*
X38396Y25366D01*
X38396Y25213D01*
X35431Y21720D02*
X35431Y21797D01*
X35450Y21835D01*
X35488Y21873D01*
X35564Y21892D01*
X35698Y21892D01*
X35774Y21873D01*
X35812Y21835D01*
X35831Y21797D01*
X35831Y21720D01*
X35812Y21682D01*
X35774Y21644D01*
X35698Y21625D01*
X35564Y21625D01*
X35488Y21644D01*
X35450Y21682D01*
X35431Y21720D01*
X35831Y22063D02*
X35431Y22063D01*
X35831Y22292D01*
X35431Y22292D01*
G54D20*
X20739Y25232D02*
X20844Y24918D01*
X20948Y25232D01*
X21053Y24918D02*
X21053Y25127D01*
X21053Y25232D02*
X21038Y25217D01*
X21053Y25202D01*
X21068Y25217D01*
X21053Y25232D01*
X21053Y25202D01*
X21203Y25127D02*
X21203Y24918D01*
X21203Y25097D02*
X21218Y25112D01*
X21248Y25127D01*
X21292Y25127D01*
X21322Y25112D01*
X21337Y25082D01*
X21337Y24918D01*
X22368Y25217D02*
X22338Y25232D01*
X22293Y25232D01*
X22249Y25217D01*
X22219Y25187D01*
X22204Y25157D01*
X22189Y25097D01*
X22189Y25052D01*
X22204Y24993D01*
X22219Y24963D01*
X22249Y24933D01*
X22293Y24918D01*
X22323Y24918D01*
X22368Y24933D01*
X22383Y24948D01*
X22383Y25052D01*
X22323Y25052D01*
X22518Y24918D02*
X22518Y25232D01*
X22697Y24918D01*
X22697Y25232D01*
X22847Y24918D02*
X22847Y25232D01*
X22922Y25232D01*
X22966Y25217D01*
X22996Y25187D01*
X23011Y25157D01*
X23026Y25097D01*
X23026Y25052D01*
X23011Y24993D01*
X22996Y24963D01*
X22966Y24933D01*
X22922Y24918D01*
X22847Y24918D01*
X24027Y25232D02*
X23878Y25232D01*
X23863Y25082D01*
X23878Y25097D01*
X23908Y25112D01*
X23982Y25112D01*
X24012Y25097D01*
X24027Y25082D01*
X24042Y25052D01*
X24042Y24978D01*
X24027Y24948D01*
X24012Y24933D01*
X23982Y24918D01*
X23908Y24918D01*
X23878Y24933D01*
X23863Y24948D01*
X24132Y25232D02*
X24237Y24918D01*
X24341Y25232D01*
X24655Y25232D02*
X24849Y25232D01*
X24745Y25112D01*
X24789Y25112D01*
X24819Y25097D01*
X24834Y25082D01*
X24849Y25052D01*
X24849Y24978D01*
X24834Y24948D01*
X24819Y24933D01*
X24789Y24918D01*
X24700Y24918D01*
X24670Y24933D01*
X24655Y24948D01*
X24939Y25232D02*
X25044Y24918D01*
X25148Y25232D01*
X25223Y25232D02*
X25417Y25232D01*
X25313Y25112D01*
X25357Y25112D01*
X25387Y25097D01*
X25402Y25082D01*
X25417Y25052D01*
X25417Y24978D01*
X25402Y24948D01*
X25387Y24933D01*
X25357Y24918D01*
X25268Y24918D01*
X25238Y24933D01*
X25223Y24948D01*
X25970Y24918D02*
X25866Y25067D01*
X25791Y24918D02*
X25791Y25232D01*
X25910Y25232D01*
X25940Y25217D01*
X25955Y25202D01*
X25970Y25172D01*
X25970Y25127D01*
X25955Y25097D01*
X25940Y25082D01*
X25910Y25067D01*
X25791Y25067D01*
X26090Y24933D02*
X26135Y24918D01*
X26209Y24918D01*
X26239Y24933D01*
X26254Y24948D01*
X26269Y24978D01*
X26269Y25008D01*
X26254Y25038D01*
X26239Y25052D01*
X26209Y25067D01*
X26150Y25082D01*
X26120Y25097D01*
X26105Y25112D01*
X26090Y25142D01*
X26090Y25172D01*
X26105Y25202D01*
X26120Y25217D01*
X26150Y25232D01*
X26224Y25232D01*
X26269Y25217D01*
X26359Y25232D02*
X26538Y25232D01*
X26449Y24918D02*
X26449Y25232D01*
G54D13*
X2473Y25028D02*
X2622Y25028D01*
X2443Y24938D02*
X2548Y25252D01*
X2652Y24938D01*
X2921Y24938D02*
X2742Y24938D01*
X2832Y24938D02*
X2832Y25252D01*
X2802Y25207D01*
X2772Y25177D01*
X2742Y25162D01*
X3205Y25252D02*
X3056Y25252D01*
X3041Y25102D01*
X3056Y25117D01*
X3086Y25132D01*
X3160Y25132D01*
X3190Y25117D01*
X3205Y25102D01*
X3220Y25072D01*
X3220Y24998D01*
X3205Y24968D01*
X3190Y24953D01*
X3160Y24938D01*
X3086Y24938D01*
X3056Y24953D01*
X3041Y24968D01*
X3579Y25028D02*
X3728Y25028D01*
X3549Y24938D02*
X3654Y25252D01*
X3758Y24938D01*
X4027Y24938D02*
X3848Y24938D01*
X3938Y24938D02*
X3938Y25252D01*
X3908Y25207D01*
X3878Y25177D01*
X3848Y25162D01*
X4296Y25147D02*
X4296Y24938D01*
X4222Y25267D02*
X4147Y25043D01*
X4341Y25043D01*
X4685Y25028D02*
X4834Y25028D01*
X4655Y24938D02*
X4760Y25252D01*
X4864Y24938D01*
X5133Y24938D02*
X4954Y24938D01*
X5044Y24938D02*
X5044Y25252D01*
X5014Y25207D01*
X4984Y25177D01*
X4954Y25162D01*
X5238Y25252D02*
X5432Y25252D01*
X5328Y25132D01*
X5372Y25132D01*
X5402Y25117D01*
X5417Y25102D01*
X5432Y25072D01*
X5432Y24998D01*
X5417Y24968D01*
X5402Y24953D01*
X5372Y24938D01*
X5283Y24938D01*
X5253Y24953D01*
X5238Y24968D01*
X5791Y25028D02*
X5940Y25028D01*
X5761Y24938D02*
X5866Y25252D01*
X5970Y24938D01*
X6239Y24938D02*
X6060Y24938D01*
X6150Y24938D02*
X6150Y25252D01*
X6120Y25207D01*
X6090Y25177D01*
X6060Y25162D01*
X6359Y25222D02*
X6374Y25237D01*
X6404Y25252D01*
X6478Y25252D01*
X6508Y25237D01*
X6523Y25222D01*
X6538Y25192D01*
X6538Y25162D01*
X6523Y25117D01*
X6344Y24938D01*
X6538Y24938D01*
X6897Y25028D02*
X7046Y25028D01*
X6867Y24938D02*
X6972Y25252D01*
X7076Y24938D01*
X7345Y24938D02*
X7166Y24938D01*
X7256Y24938D02*
X7256Y25252D01*
X7226Y25207D01*
X7196Y25177D01*
X7166Y25162D01*
X7644Y24938D02*
X7465Y24938D01*
X7555Y24938D02*
X7555Y25252D01*
X7525Y25207D01*
X7495Y25177D01*
X7465Y25162D01*
X8003Y25028D02*
X8152Y25028D01*
X7973Y24938D02*
X8078Y25252D01*
X8182Y24938D01*
X8451Y24938D02*
X8272Y24938D01*
X8362Y24938D02*
X8362Y25252D01*
X8332Y25207D01*
X8302Y25177D01*
X8272Y25162D01*
X8646Y25252D02*
X8675Y25252D01*
X8705Y25237D01*
X8720Y25222D01*
X8735Y25192D01*
X8750Y25132D01*
X8750Y25058D01*
X8735Y24998D01*
X8720Y24968D01*
X8705Y24953D01*
X8675Y24938D01*
X8646Y24938D01*
X8616Y24953D01*
X8601Y24968D01*
X8586Y24998D01*
X8571Y25058D01*
X8571Y25132D01*
X8586Y25192D01*
X8601Y25222D01*
X8616Y25237D01*
X8646Y25252D01*
X9109Y25028D02*
X9258Y25028D01*
X9079Y24938D02*
X9184Y25252D01*
X9288Y24938D01*
X9408Y24938D02*
X9468Y24938D01*
X9497Y24953D01*
X9512Y24968D01*
X9542Y25013D01*
X9557Y25072D01*
X9557Y25192D01*
X9542Y25222D01*
X9527Y25237D01*
X9497Y25252D01*
X9438Y25252D01*
X9408Y25237D01*
X9393Y25222D01*
X9378Y25192D01*
X9378Y25117D01*
X9393Y25087D01*
X9408Y25072D01*
X9438Y25058D01*
X9497Y25058D01*
X9527Y25072D01*
X9542Y25087D01*
X9557Y25117D01*
X9916Y25028D02*
X10065Y25028D01*
X9886Y24938D02*
X9991Y25252D01*
X10095Y24938D01*
X10245Y25117D02*
X10215Y25132D01*
X10200Y25147D01*
X10185Y25177D01*
X10185Y25192D01*
X10200Y25222D01*
X10215Y25237D01*
X10245Y25252D01*
X10304Y25252D01*
X10334Y25237D01*
X10349Y25222D01*
X10364Y25192D01*
X10364Y25177D01*
X10349Y25147D01*
X10334Y25132D01*
X10304Y25117D01*
X10245Y25117D01*
X10215Y25102D01*
X10200Y25087D01*
X10185Y25058D01*
X10185Y24998D01*
X10200Y24968D01*
X10215Y24953D01*
X10245Y24938D01*
X10304Y24938D01*
X10334Y24953D01*
X10349Y24968D01*
X10364Y24998D01*
X10364Y25058D01*
X10349Y25087D01*
X10334Y25102D01*
X10304Y25117D01*
G54D12*
X11903Y24919D02*
X12090Y24919D01*
X11865Y24806D02*
X11996Y25199D01*
X12127Y24806D01*
X12221Y25199D02*
X12483Y25199D01*
X12315Y24806D01*
X12913Y24919D02*
X13100Y24919D01*
X12875Y24806D02*
X13006Y25199D01*
X13137Y24806D01*
X13437Y25199D02*
X13362Y25199D01*
X13325Y25181D01*
X13306Y25162D01*
X13269Y25106D01*
X13250Y25031D01*
X13250Y24881D01*
X13269Y24844D01*
X13287Y24825D01*
X13325Y24806D01*
X13400Y24806D01*
X13437Y24825D01*
X13456Y24844D01*
X13474Y24881D01*
X13474Y24975D01*
X13456Y25012D01*
X13437Y25031D01*
X13400Y25050D01*
X13325Y25050D01*
X13287Y25031D01*
X13269Y25012D01*
X13250Y24975D01*
X13923Y24919D02*
X14110Y24919D01*
X13885Y24806D02*
X14016Y25199D01*
X14147Y24806D01*
X14466Y25199D02*
X14279Y25199D01*
X14260Y25012D01*
X14279Y25031D01*
X14316Y25050D01*
X14410Y25050D01*
X14447Y25031D01*
X14466Y25012D01*
X14484Y24975D01*
X14484Y24881D01*
X14466Y24844D01*
X14447Y24825D01*
X14410Y24806D01*
X14316Y24806D01*
X14279Y24825D01*
X14260Y24844D01*
X14933Y24919D02*
X15120Y24919D01*
X14895Y24806D02*
X15026Y25199D01*
X15157Y24806D01*
X15457Y25068D02*
X15457Y24806D01*
X15363Y25218D02*
X15270Y24937D01*
X15513Y24937D01*
X15943Y24919D02*
X16130Y24919D01*
X15905Y24806D02*
X16036Y25199D01*
X16167Y24806D01*
X16261Y25199D02*
X16504Y25199D01*
X16373Y25050D01*
X16430Y25050D01*
X16467Y25031D01*
X16486Y25012D01*
X16504Y24975D01*
X16504Y24881D01*
X16486Y24844D01*
X16467Y24825D01*
X16430Y24806D01*
X16317Y24806D01*
X16280Y24825D01*
X16261Y24844D01*
X16953Y24919D02*
X17140Y24919D01*
X16915Y24806D02*
X17046Y25199D01*
X17177Y24806D01*
X17290Y25162D02*
X17309Y25181D01*
X17346Y25199D01*
X17440Y25199D01*
X17477Y25181D01*
X17496Y25162D01*
X17514Y25125D01*
X17514Y25087D01*
X17496Y25031D01*
X17271Y24806D01*
X17514Y24806D01*
X17963Y24919D02*
X18150Y24919D01*
X17925Y24806D02*
X18056Y25199D01*
X18187Y24806D01*
X18524Y24806D02*
X18300Y24806D01*
X18412Y24806D02*
X18412Y25199D01*
X18375Y25143D01*
X18337Y25106D01*
X18300Y25087D01*
X18973Y24919D02*
X19160Y24919D01*
X18935Y24806D02*
X19066Y25199D01*
X19197Y24806D01*
X19403Y25199D02*
X19441Y25199D01*
X19478Y25181D01*
X19497Y25162D01*
X19516Y25125D01*
X19534Y25050D01*
X19534Y24956D01*
X19516Y24881D01*
X19497Y24844D01*
X19478Y24825D01*
X19441Y24806D01*
X19403Y24806D01*
X19366Y24825D01*
X19347Y24844D01*
X19329Y24881D01*
X19310Y24956D01*
X19310Y25050D01*
X19329Y25125D01*
X19347Y25162D01*
X19366Y25181D01*
X19403Y25199D01*
G54D11*
X1141Y24934D02*
X1084Y24962D01*
X998Y24962D01*
X913Y24934D01*
X855Y24876D01*
X827Y24819D01*
X798Y24705D01*
X798Y24619D01*
X827Y24505D01*
X855Y24448D01*
X913Y24391D01*
X998Y24362D01*
X1055Y24362D01*
X1141Y24391D01*
X1170Y24419D01*
X1170Y24619D01*
X1055Y24619D01*
X1427Y24362D02*
X1427Y24962D01*
X1770Y24362D01*
X1770Y24962D01*
X2056Y24362D02*
X2056Y24962D01*
X2199Y24962D01*
X2284Y24934D01*
X2342Y24876D01*
X2370Y24819D01*
X2399Y24705D01*
X2399Y24619D01*
X2370Y24505D01*
X2342Y24448D01*
X2284Y24391D01*
X2199Y24362D01*
X2056Y24362D01*
X1432Y6322D02*
X1146Y6322D01*
X1117Y6036D01*
X1146Y6065D01*
X1203Y6094D01*
X1346Y6094D01*
X1403Y6065D01*
X1432Y6036D01*
X1460Y5979D01*
X1460Y5836D01*
X1432Y5779D01*
X1403Y5751D01*
X1346Y5722D01*
X1203Y5722D01*
X1146Y5751D01*
X1117Y5779D01*
X1631Y6322D02*
X1831Y5722D01*
X2031Y6322D01*
G54D13*
X2825Y7702D02*
X2810Y7717D01*
X2795Y7747D01*
X2795Y7821D01*
X2810Y7851D01*
X2825Y7866D01*
X2855Y7881D01*
X2885Y7881D01*
X2930Y7866D01*
X3109Y7687D01*
X3109Y7881D01*
X2825Y8001D02*
X2810Y8016D01*
X2795Y8046D01*
X2795Y8120D01*
X2810Y8150D01*
X2825Y8165D01*
X2855Y8180D01*
X2885Y8180D01*
X2930Y8165D01*
X3109Y7986D01*
X3109Y8180D01*
X2825Y8539D02*
X2810Y8554D01*
X2795Y8584D01*
X2795Y8658D01*
X2810Y8688D01*
X2825Y8703D01*
X2855Y8718D01*
X2885Y8718D01*
X2930Y8703D01*
X3109Y8524D01*
X3109Y8718D01*
X2900Y8987D02*
X3109Y8987D01*
X2780Y8913D02*
X3004Y8838D01*
X3004Y9032D01*
X2825Y9615D02*
X2810Y9630D01*
X2795Y9660D01*
X2795Y9734D01*
X2810Y9764D01*
X2825Y9779D01*
X2855Y9794D01*
X2885Y9794D01*
X2930Y9779D01*
X3109Y9600D01*
X3109Y9794D01*
X2795Y10063D02*
X2795Y10004D01*
X2810Y9974D01*
X2825Y9959D01*
X2870Y9929D01*
X2930Y9914D01*
X3049Y9914D01*
X3079Y9929D01*
X3094Y9944D01*
X3109Y9974D01*
X3109Y10033D01*
X3094Y10063D01*
X3079Y10078D01*
X3049Y10093D01*
X2975Y10093D01*
X2945Y10078D01*
X2930Y10063D01*
X2915Y10033D01*
X2915Y9974D01*
X2930Y9944D01*
X2945Y9929D01*
X2975Y9914D01*
X2825Y10691D02*
X2810Y10706D01*
X2795Y10736D01*
X2795Y10810D01*
X2810Y10840D01*
X2825Y10855D01*
X2855Y10870D01*
X2885Y10870D01*
X2930Y10855D01*
X3109Y10676D01*
X3109Y10870D01*
X2930Y11050D02*
X2915Y11020D01*
X2900Y11005D01*
X2870Y10990D01*
X2855Y10990D01*
X2825Y11005D01*
X2810Y11020D01*
X2795Y11050D01*
X2795Y11109D01*
X2810Y11139D01*
X2825Y11154D01*
X2855Y11169D01*
X2870Y11169D01*
X2900Y11154D01*
X2915Y11139D01*
X2930Y11109D01*
X2930Y11050D01*
X2945Y11020D01*
X2960Y11005D01*
X2989Y10990D01*
X3049Y10990D01*
X3079Y11005D01*
X3094Y11020D01*
X3109Y11050D01*
X3109Y11109D01*
X3094Y11139D01*
X3079Y11154D01*
X3049Y11169D01*
X2989Y11169D01*
X2960Y11154D01*
X2945Y11139D01*
X2930Y11109D01*
X2795Y11513D02*
X2795Y11707D01*
X2915Y11603D01*
X2915Y11647D01*
X2930Y11677D01*
X2945Y11692D01*
X2975Y11707D01*
X3049Y11707D01*
X3079Y11692D01*
X3094Y11677D01*
X3109Y11647D01*
X3109Y11558D01*
X3094Y11528D01*
X3079Y11513D01*
X2795Y11902D02*
X2795Y11931D01*
X2810Y11961D01*
X2825Y11976D01*
X2855Y11991D01*
X2915Y12006D01*
X2989Y12006D01*
X3049Y11991D01*
X3079Y11976D01*
X3094Y11961D01*
X3109Y11931D01*
X3109Y11902D01*
X3094Y11872D01*
X3079Y11857D01*
X3049Y11842D01*
X2989Y11827D01*
X2915Y11827D01*
X2855Y11842D01*
X2825Y11857D01*
X2810Y11872D01*
X2795Y11902D01*
X2795Y12589D02*
X2795Y12783D01*
X2915Y12679D01*
X2915Y12723D01*
X2930Y12753D01*
X2945Y12768D01*
X2975Y12783D01*
X3049Y12783D01*
X3079Y12768D01*
X3094Y12753D01*
X3109Y12723D01*
X3109Y12634D01*
X3094Y12604D01*
X3079Y12589D01*
X2825Y12903D02*
X2810Y12918D01*
X2795Y12948D01*
X2795Y13022D01*
X2810Y13052D01*
X2825Y13067D01*
X2855Y13082D01*
X2885Y13082D01*
X2930Y13067D01*
X3109Y12888D01*
X3109Y13082D01*
X2795Y13665D02*
X2795Y13859D01*
X2915Y13755D01*
X2915Y13799D01*
X2930Y13829D01*
X2945Y13844D01*
X2975Y13859D01*
X3049Y13859D01*
X3079Y13844D01*
X3094Y13829D01*
X3109Y13799D01*
X3109Y13710D01*
X3094Y13680D01*
X3079Y13665D01*
X2900Y14128D02*
X3109Y14128D01*
X2780Y14054D02*
X3004Y13979D01*
X3004Y14173D01*
X2795Y14502D02*
X2795Y14696D01*
X2915Y14592D01*
X2915Y14636D01*
X2930Y14666D01*
X2945Y14681D01*
X2975Y14696D01*
X3049Y14696D01*
X3079Y14681D01*
X3094Y14666D01*
X3109Y14636D01*
X3109Y14547D01*
X3094Y14517D01*
X3079Y14502D01*
X2795Y14965D02*
X2795Y14906D01*
X2810Y14876D01*
X2825Y14861D01*
X2870Y14831D01*
X2930Y14816D01*
X3049Y14816D01*
X3079Y14831D01*
X3094Y14846D01*
X3109Y14876D01*
X3109Y14935D01*
X3094Y14965D01*
X3079Y14980D01*
X3049Y14995D01*
X2975Y14995D01*
X2945Y14980D01*
X2930Y14965D01*
X2915Y14935D01*
X2915Y14876D01*
X2930Y14846D01*
X2945Y14831D01*
X2975Y14816D01*
X2795Y15578D02*
X2795Y15772D01*
X2915Y15668D01*
X2915Y15712D01*
X2930Y15742D01*
X2945Y15757D01*
X2975Y15772D01*
X3049Y15772D01*
X3079Y15757D01*
X3094Y15742D01*
X3109Y15712D01*
X3109Y15623D01*
X3094Y15593D01*
X3079Y15578D01*
X2930Y15952D02*
X2915Y15922D01*
X2900Y15907D01*
X2870Y15892D01*
X2855Y15892D01*
X2825Y15907D01*
X2810Y15922D01*
X2795Y15952D01*
X2795Y16011D01*
X2810Y16041D01*
X2825Y16056D01*
X2855Y16071D01*
X2870Y16071D01*
X2900Y16056D01*
X2915Y16041D01*
X2930Y16011D01*
X2930Y15952D01*
X2945Y15922D01*
X2960Y15907D01*
X2989Y15892D01*
X3049Y15892D01*
X3079Y15907D01*
X3094Y15922D01*
X3109Y15952D01*
X3109Y16011D01*
X3094Y16041D01*
X3079Y16056D01*
X3049Y16071D01*
X2989Y16071D01*
X2960Y16056D01*
X2945Y16041D01*
X2930Y16011D01*
X2900Y16818D02*
X3109Y16818D01*
X2780Y16744D02*
X3004Y16669D01*
X3004Y16863D01*
X2795Y17043D02*
X2795Y17072D01*
X2810Y17102D01*
X2825Y17117D01*
X2855Y17132D01*
X2915Y17147D01*
X2989Y17147D01*
X3049Y17132D01*
X3079Y17117D01*
X3094Y17102D01*
X3109Y17072D01*
X3109Y17043D01*
X3094Y17013D01*
X3079Y16998D01*
X3049Y16983D01*
X2989Y16968D01*
X2915Y16968D01*
X2855Y16983D01*
X2825Y16998D01*
X2810Y17013D01*
X2795Y17043D01*
X2900Y17655D02*
X3109Y17655D01*
X2780Y17581D02*
X3004Y17506D01*
X3004Y17700D01*
X2825Y17805D02*
X2810Y17820D01*
X2795Y17850D01*
X2795Y17924D01*
X2810Y17954D01*
X2825Y17969D01*
X2855Y17984D01*
X2885Y17984D01*
X2930Y17969D01*
X3109Y17790D01*
X3109Y17984D01*
X2900Y18731D02*
X3109Y18731D01*
X2780Y18657D02*
X3004Y18582D01*
X3004Y18776D01*
X2900Y19030D02*
X3109Y19030D01*
X2780Y18956D02*
X3004Y18881D01*
X3004Y19075D01*
X2900Y19807D02*
X3109Y19807D01*
X2780Y19733D02*
X3004Y19658D01*
X3004Y19852D01*
X2795Y20106D02*
X2795Y20047D01*
X2810Y20017D01*
X2825Y20002D01*
X2870Y19972D01*
X2930Y19957D01*
X3049Y19957D01*
X3079Y19972D01*
X3094Y19987D01*
X3109Y20017D01*
X3109Y20076D01*
X3094Y20106D01*
X3079Y20121D01*
X3049Y20136D01*
X2975Y20136D01*
X2945Y20121D01*
X2930Y20106D01*
X2915Y20076D01*
X2915Y20017D01*
X2930Y19987D01*
X2945Y19972D01*
X2975Y19957D01*
X2900Y20883D02*
X3109Y20883D01*
X2780Y20809D02*
X3004Y20734D01*
X3004Y20928D01*
X2930Y21093D02*
X2915Y21063D01*
X2900Y21048D01*
X2870Y21033D01*
X2855Y21033D01*
X2825Y21048D01*
X2810Y21063D01*
X2795Y21093D01*
X2795Y21152D01*
X2810Y21182D01*
X2825Y21197D01*
X2855Y21212D01*
X2870Y21212D01*
X2900Y21197D01*
X2915Y21182D01*
X2930Y21152D01*
X2930Y21093D01*
X2945Y21063D01*
X2960Y21048D01*
X2989Y21033D01*
X3049Y21033D01*
X3079Y21048D01*
X3094Y21063D01*
X3109Y21093D01*
X3109Y21152D01*
X3094Y21182D01*
X3079Y21197D01*
X3049Y21212D01*
X2989Y21212D01*
X2960Y21197D01*
X2945Y21182D01*
X2930Y21152D01*
X2795Y21974D02*
X2795Y21825D01*
X2945Y21810D01*
X2930Y21825D01*
X2915Y21855D01*
X2915Y21929D01*
X2930Y21959D01*
X2945Y21974D01*
X2975Y21989D01*
X3049Y21989D01*
X3079Y21974D01*
X3094Y21959D01*
X3109Y21929D01*
X3109Y21855D01*
X3094Y21825D01*
X3079Y21810D01*
X2795Y22184D02*
X2795Y22213D01*
X2810Y22243D01*
X2825Y22258D01*
X2855Y22273D01*
X2915Y22288D01*
X2989Y22288D01*
X3049Y22273D01*
X3079Y22258D01*
X3094Y22243D01*
X3109Y22213D01*
X3109Y22184D01*
X3094Y22154D01*
X3079Y22139D01*
X3049Y22124D01*
X2989Y22109D01*
X2915Y22109D01*
X2855Y22124D01*
X2825Y22139D01*
X2810Y22154D01*
X2795Y22184D01*
X2795Y22811D02*
X2795Y22662D01*
X2945Y22647D01*
X2930Y22662D01*
X2915Y22692D01*
X2915Y22766D01*
X2930Y22796D01*
X2945Y22811D01*
X2975Y22826D01*
X3049Y22826D01*
X3079Y22811D01*
X3094Y22796D01*
X3109Y22766D01*
X3109Y22692D01*
X3094Y22662D01*
X3079Y22647D01*
X2825Y22946D02*
X2810Y22961D01*
X2795Y22991D01*
X2795Y23065D01*
X2810Y23095D01*
X2825Y23110D01*
X2855Y23125D01*
X2885Y23125D01*
X2930Y23110D01*
X3109Y22931D01*
X3109Y23125D01*
X4850Y7804D02*
X4865Y7819D01*
X4895Y7834D01*
X4969Y7834D01*
X4999Y7819D01*
X5014Y7804D01*
X5029Y7774D01*
X5029Y7744D01*
X5014Y7699D01*
X4835Y7520D01*
X5029Y7520D01*
X5328Y7520D02*
X5149Y7520D01*
X5239Y7520D02*
X5239Y7834D01*
X5209Y7789D01*
X5179Y7759D01*
X5149Y7744D01*
X5687Y7804D02*
X5702Y7819D01*
X5732Y7834D01*
X5806Y7834D01*
X5836Y7819D01*
X5851Y7804D01*
X5866Y7774D01*
X5866Y7744D01*
X5851Y7699D01*
X5672Y7520D01*
X5866Y7520D01*
X6061Y7834D02*
X6090Y7834D01*
X6120Y7819D01*
X6135Y7804D01*
X6150Y7774D01*
X6165Y7714D01*
X6165Y7640D01*
X6150Y7580D01*
X6135Y7550D01*
X6120Y7535D01*
X6090Y7520D01*
X6061Y7520D01*
X6031Y7535D01*
X6016Y7550D01*
X6001Y7580D01*
X5986Y7640D01*
X5986Y7714D01*
X6001Y7774D01*
X6016Y7804D01*
X6031Y7819D01*
X6061Y7834D01*
X6718Y7520D02*
X6614Y7669D01*
X6539Y7520D02*
X6539Y7834D01*
X6658Y7834D01*
X6688Y7819D01*
X6703Y7804D01*
X6718Y7774D01*
X6718Y7729D01*
X6703Y7699D01*
X6688Y7684D01*
X6658Y7669D01*
X6539Y7669D01*
X6823Y7834D02*
X7032Y7520D01*
X7032Y7834D02*
X6823Y7520D01*
X7316Y7520D02*
X7137Y7520D01*
X7227Y7520D02*
X7227Y7834D01*
X7197Y7789D01*
X7167Y7759D01*
X7137Y7744D01*
X7645Y7834D02*
X7824Y7834D01*
X7735Y7520D02*
X7735Y7834D01*
X7899Y7834D02*
X8108Y7520D01*
X8108Y7834D02*
X7899Y7520D01*
X8392Y7520D02*
X8213Y7520D01*
X8303Y7520D02*
X8303Y7834D01*
X8273Y7789D01*
X8243Y7759D01*
X8213Y7744D01*
X8945Y7520D02*
X8841Y7669D01*
X8766Y7520D02*
X8766Y7834D01*
X8885Y7834D01*
X8915Y7819D01*
X8930Y7804D01*
X8945Y7774D01*
X8945Y7729D01*
X8930Y7699D01*
X8915Y7684D01*
X8885Y7669D01*
X8766Y7669D01*
X9050Y7834D02*
X9259Y7520D01*
X9259Y7834D02*
X9050Y7520D01*
X9364Y7804D02*
X9379Y7819D01*
X9409Y7834D01*
X9483Y7834D01*
X9513Y7819D01*
X9528Y7804D01*
X9543Y7774D01*
X9543Y7744D01*
X9528Y7699D01*
X9349Y7520D01*
X9543Y7520D01*
X9872Y7834D02*
X10051Y7834D01*
X9962Y7520D02*
X9962Y7834D01*
X10126Y7834D02*
X10335Y7520D01*
X10335Y7834D02*
X10126Y7520D01*
X10440Y7804D02*
X10455Y7819D01*
X10485Y7834D01*
X10559Y7834D01*
X10589Y7819D01*
X10604Y7804D01*
X10619Y7774D01*
X10619Y7744D01*
X10604Y7699D01*
X10425Y7520D01*
X10619Y7520D01*
X11172Y7520D02*
X11068Y7669D01*
X10993Y7520D02*
X10993Y7834D01*
X11112Y7834D01*
X11142Y7819D01*
X11157Y7804D01*
X11172Y7774D01*
X11172Y7729D01*
X11157Y7699D01*
X11142Y7684D01*
X11112Y7669D01*
X10993Y7669D01*
X11277Y7834D02*
X11486Y7520D01*
X11486Y7834D02*
X11277Y7520D01*
X11576Y7834D02*
X11770Y7834D01*
X11666Y7714D01*
X11710Y7714D01*
X11740Y7699D01*
X11755Y7684D01*
X11770Y7654D01*
X11770Y7580D01*
X11755Y7550D01*
X11740Y7535D01*
X11710Y7520D01*
X11621Y7520D01*
X11591Y7535D01*
X11576Y7550D01*
X12099Y7834D02*
X12278Y7834D01*
X12189Y7520D02*
X12189Y7834D01*
X12353Y7834D02*
X12562Y7520D01*
X12562Y7834D02*
X12353Y7520D01*
X12652Y7834D02*
X12846Y7834D01*
X12742Y7714D01*
X12786Y7714D01*
X12816Y7699D01*
X12831Y7684D01*
X12846Y7654D01*
X12846Y7580D01*
X12831Y7550D01*
X12816Y7535D01*
X12786Y7520D01*
X12697Y7520D01*
X12667Y7535D01*
X12652Y7550D01*
X13547Y7508D02*
X13417Y7695D01*
X13323Y7508D02*
X13323Y7900D01*
X13473Y7900D01*
X13510Y7882D01*
X13529Y7863D01*
X13547Y7826D01*
X13547Y7770D01*
X13529Y7732D01*
X13510Y7714D01*
X13473Y7695D01*
X13323Y7695D01*
X13678Y7900D02*
X13939Y7508D01*
X13939Y7900D02*
X13678Y7508D01*
X14163Y7900D02*
X14200Y7900D01*
X14238Y7882D01*
X14256Y7863D01*
X14275Y7826D01*
X14294Y7751D01*
X14294Y7658D01*
X14275Y7583D01*
X14256Y7546D01*
X14238Y7527D01*
X14200Y7508D01*
X14163Y7508D01*
X14126Y7527D01*
X14107Y7546D01*
X14088Y7583D01*
X14070Y7658D01*
X14070Y7751D01*
X14088Y7826D01*
X14107Y7863D01*
X14126Y7882D01*
X14163Y7900D01*
X14704Y7900D02*
X14928Y7900D01*
X14816Y7508D02*
X14816Y7900D01*
X15022Y7900D02*
X15283Y7508D01*
X15283Y7900D02*
X15022Y7508D01*
X15507Y7900D02*
X15544Y7900D01*
X15582Y7882D01*
X15600Y7863D01*
X15619Y7826D01*
X15638Y7751D01*
X15638Y7658D01*
X15619Y7583D01*
X15600Y7546D01*
X15582Y7527D01*
X15544Y7508D01*
X15507Y7508D01*
X15470Y7527D01*
X15451Y7546D01*
X15432Y7583D01*
X15414Y7658D01*
X15414Y7751D01*
X15432Y7826D01*
X15451Y7863D01*
X15470Y7882D01*
X15507Y7900D01*
X16086Y7863D02*
X16104Y7882D01*
X16142Y7900D01*
X16235Y7900D01*
X16272Y7882D01*
X16291Y7863D01*
X16310Y7826D01*
X16310Y7788D01*
X16291Y7732D01*
X16067Y7508D01*
X16310Y7508D01*
X17038Y7900D02*
X17281Y7900D01*
X17150Y7751D01*
X17206Y7751D01*
X17243Y7732D01*
X17262Y7714D01*
X17281Y7676D01*
X17281Y7583D01*
X17262Y7546D01*
X17243Y7527D01*
X17206Y7508D01*
X17094Y7508D01*
X17057Y7527D01*
X17038Y7546D01*
X18214Y7770D02*
X18214Y7508D01*
X18121Y7919D02*
X18028Y7639D01*
X18270Y7639D01*
X19204Y7900D02*
X19017Y7900D01*
X18999Y7714D01*
X19017Y7732D01*
X19055Y7751D01*
X19148Y7751D01*
X19185Y7732D01*
X19204Y7714D01*
X19223Y7676D01*
X19223Y7583D01*
X19204Y7546D01*
X19185Y7527D01*
X19148Y7508D01*
X19055Y7508D01*
X19017Y7527D01*
X18999Y7546D01*
X20156Y7900D02*
X20082Y7900D01*
X20044Y7882D01*
X20026Y7863D01*
X19988Y7807D01*
X19970Y7732D01*
X19970Y7583D01*
X19988Y7546D01*
X20007Y7527D01*
X20044Y7508D01*
X20119Y7508D01*
X20156Y7527D01*
X20175Y7546D01*
X20194Y7583D01*
X20194Y7676D01*
X20175Y7714D01*
X20156Y7732D01*
X20119Y7751D01*
X20044Y7751D01*
X20007Y7732D01*
X19988Y7714D01*
X19970Y7676D01*
X20922Y7900D02*
X21183Y7900D01*
X21015Y7508D01*
X22550Y7664D02*
X22513Y7683D01*
X22494Y7702D01*
X22476Y7739D01*
X22476Y7758D01*
X22494Y7795D01*
X22513Y7814D01*
X22550Y7832D01*
X22625Y7832D01*
X22662Y7814D01*
X22681Y7795D01*
X22700Y7758D01*
X22700Y7739D01*
X22681Y7702D01*
X22662Y7683D01*
X22625Y7664D01*
X22550Y7664D01*
X22513Y7646D01*
X22494Y7627D01*
X22476Y7590D01*
X22476Y7515D01*
X22494Y7478D01*
X22513Y7459D01*
X22550Y7440D01*
X22625Y7440D01*
X22662Y7459D01*
X22681Y7478D01*
X22700Y7515D01*
X22700Y7590D01*
X22681Y7627D01*
X22662Y7646D01*
X22625Y7664D01*
X23484Y7440D02*
X23559Y7440D01*
X23596Y7459D01*
X23615Y7478D01*
X23652Y7534D01*
X23671Y7608D01*
X23671Y7758D01*
X23652Y7795D01*
X23633Y7814D01*
X23596Y7832D01*
X23521Y7832D01*
X23484Y7814D01*
X23465Y7795D01*
X23447Y7758D01*
X23447Y7664D01*
X23465Y7627D01*
X23484Y7608D01*
X23521Y7590D01*
X23596Y7590D01*
X23633Y7608D01*
X23652Y7627D01*
X23671Y7664D01*
X24642Y7440D02*
X24418Y7440D01*
X24530Y7440D02*
X24530Y7832D01*
X24492Y7776D01*
X24455Y7739D01*
X24418Y7720D01*
X24884Y7832D02*
X24921Y7832D01*
X24959Y7814D01*
X24977Y7795D01*
X24996Y7758D01*
X25015Y7683D01*
X25015Y7590D01*
X24996Y7515D01*
X24977Y7478D01*
X24959Y7459D01*
X24921Y7440D01*
X24884Y7440D01*
X24847Y7459D01*
X24828Y7478D01*
X24809Y7515D01*
X24791Y7590D01*
X24791Y7683D01*
X24809Y7758D01*
X24828Y7795D01*
X24847Y7814D01*
X24884Y7832D01*
X25687Y7440D02*
X25463Y7440D01*
X25575Y7440D02*
X25575Y7832D01*
X25537Y7776D01*
X25500Y7739D01*
X25463Y7720D01*
X26060Y7440D02*
X25836Y7440D01*
X25948Y7440D02*
X25948Y7832D01*
X25910Y7776D01*
X25873Y7739D01*
X25836Y7720D01*
X26732Y7440D02*
X26508Y7440D01*
X26620Y7440D02*
X26620Y7832D01*
X26582Y7776D01*
X26545Y7739D01*
X26508Y7720D01*
X26881Y7795D02*
X26899Y7814D01*
X26937Y7832D01*
X27030Y7832D01*
X27067Y7814D01*
X27086Y7795D01*
X27105Y7758D01*
X27105Y7720D01*
X27086Y7664D01*
X26862Y7440D01*
X27105Y7440D01*
X27777Y7440D02*
X27553Y7440D01*
X27665Y7440D02*
X27665Y7832D01*
X27627Y7776D01*
X27590Y7739D01*
X27553Y7720D01*
X27907Y7832D02*
X28150Y7832D01*
X28019Y7683D01*
X28075Y7683D01*
X28112Y7664D01*
X28131Y7646D01*
X28150Y7608D01*
X28150Y7515D01*
X28131Y7478D01*
X28112Y7459D01*
X28075Y7440D01*
X27963Y7440D01*
X27926Y7459D01*
X27907Y7478D01*
X28784Y7702D02*
X28784Y7384D01*
X28766Y7347D01*
X28747Y7328D01*
X28710Y7310D01*
X28654Y7310D01*
X28616Y7328D01*
X28784Y7459D02*
X28747Y7440D01*
X28672Y7440D01*
X28635Y7459D01*
X28616Y7478D01*
X28598Y7515D01*
X28598Y7627D01*
X28616Y7664D01*
X28635Y7683D01*
X28672Y7702D01*
X28747Y7702D01*
X28784Y7683D01*
X28971Y7702D02*
X28971Y7440D01*
X28971Y7664D02*
X28990Y7683D01*
X29027Y7702D01*
X29083Y7702D01*
X29121Y7683D01*
X29139Y7646D01*
X29139Y7440D01*
X29494Y7440D02*
X29494Y7832D01*
X29494Y7459D02*
X29457Y7440D01*
X29382Y7440D01*
X29345Y7459D01*
X29326Y7478D01*
X29308Y7515D01*
X29308Y7627D01*
X29326Y7664D01*
X29345Y7683D01*
X29382Y7702D01*
X29457Y7702D01*
X29494Y7683D01*
X29962Y7552D02*
X30148Y7552D01*
X29924Y7440D02*
X30055Y7832D01*
X30186Y7440D01*
X30316Y7440D02*
X30316Y7702D01*
X30316Y7627D02*
X30335Y7664D01*
X30354Y7683D01*
X30391Y7702D01*
X30428Y7702D01*
X30709Y7459D02*
X30671Y7440D01*
X30597Y7440D01*
X30559Y7459D01*
X30541Y7496D01*
X30541Y7646D01*
X30559Y7683D01*
X30597Y7702D01*
X30671Y7702D01*
X30709Y7683D01*
X30727Y7646D01*
X30727Y7608D01*
X30541Y7571D01*
X30839Y7702D02*
X30989Y7702D01*
X30895Y7440D02*
X30895Y7776D01*
X30914Y7814D01*
X30951Y7832D01*
X30989Y7832D01*
G54D10*
X22191Y1333D02*
X22191Y1464D01*
X22397Y1520D02*
X22397Y1333D01*
X22004Y1333D01*
X22004Y1520D01*
X22397Y1651D02*
X22135Y1857D01*
X22135Y1651D02*
X22397Y1857D01*
X22135Y1950D02*
X22135Y2100D01*
X22004Y2007D02*
X22340Y2007D01*
X22378Y2025D01*
X22397Y2063D01*
X22397Y2100D01*
X22191Y2662D02*
X22209Y2718D01*
X22228Y2736D01*
X22266Y2755D01*
X22322Y2755D01*
X22359Y2736D01*
X22378Y2718D01*
X22397Y2680D01*
X22397Y2531D01*
X22004Y2531D01*
X22004Y2662D01*
X22022Y2699D01*
X22041Y2718D01*
X22078Y2736D01*
X22116Y2736D01*
X22153Y2718D01*
X22172Y2699D01*
X22191Y2662D01*
X22191Y2531D01*
X22397Y3092D02*
X22191Y3092D01*
X22153Y3073D01*
X22135Y3036D01*
X22135Y2961D01*
X22153Y2924D01*
X22378Y3092D02*
X22397Y3055D01*
X22397Y2961D01*
X22378Y2924D01*
X22340Y2905D01*
X22303Y2905D01*
X22266Y2924D01*
X22247Y2961D01*
X22247Y3055D01*
X22228Y3092D01*
X22135Y3223D02*
X22135Y3373D01*
X22004Y3280D02*
X22340Y3280D01*
X22378Y3298D01*
X22397Y3336D01*
X22397Y3373D01*
X25284Y3770D02*
X25583Y3770D01*
X25433Y3620D02*
X25433Y3920D01*
X17131Y2390D02*
X17131Y2521D01*
X17337Y2577D02*
X17337Y2390D01*
X16944Y2390D01*
X16944Y2577D01*
X17337Y2708D02*
X17075Y2914D01*
X17075Y2708D02*
X17337Y2914D01*
X17075Y3007D02*
X17075Y3157D01*
X16944Y3064D02*
X17280Y3064D01*
X17318Y3082D01*
X17337Y3120D01*
X17337Y3157D01*
X17131Y3719D02*
X17149Y3775D01*
X17168Y3793D01*
X17206Y3812D01*
X17262Y3812D01*
X17299Y3793D01*
X17318Y3775D01*
X17337Y3737D01*
X17337Y3588D01*
X16944Y3588D01*
X16944Y3719D01*
X16962Y3756D01*
X16981Y3775D01*
X17018Y3793D01*
X17056Y3793D01*
X17093Y3775D01*
X17112Y3756D01*
X17131Y3719D01*
X17131Y3588D01*
X17337Y4149D02*
X17131Y4149D01*
X17093Y4130D01*
X17075Y4093D01*
X17075Y4018D01*
X17093Y3981D01*
X17318Y4149D02*
X17337Y4112D01*
X17337Y4018D01*
X17318Y3981D01*
X17280Y3962D01*
X17243Y3962D01*
X17206Y3981D01*
X17187Y4018D01*
X17187Y4112D01*
X17168Y4149D01*
X17075Y4280D02*
X17075Y4430D01*
X16944Y4337D02*
X17280Y4337D01*
X17318Y4355D01*
X17337Y4393D01*
X17337Y4430D01*
G54D11*
X20883Y4178D02*
X20883Y4635D01*
X21112Y4406D02*
X20655Y4406D01*
X34996Y11133D02*
X35482Y11133D01*
X35539Y11161D01*
X35567Y11190D01*
X35596Y11247D01*
X35596Y11361D01*
X35567Y11419D01*
X35539Y11447D01*
X35482Y11476D01*
X34996Y11476D01*
X35567Y11733D02*
X35596Y11819D01*
X35596Y11962D01*
X35567Y12019D01*
X35539Y12048D01*
X35482Y12076D01*
X35424Y12076D01*
X35367Y12048D01*
X35339Y12019D01*
X35310Y11962D01*
X35282Y11848D01*
X35253Y11790D01*
X35224Y11762D01*
X35167Y11733D01*
X35110Y11733D01*
X35053Y11762D01*
X35024Y11790D01*
X34996Y11848D01*
X34996Y11990D01*
X35024Y12076D01*
X35282Y12533D02*
X35310Y12619D01*
X35339Y12647D01*
X35396Y12676D01*
X35482Y12676D01*
X35539Y12647D01*
X35567Y12619D01*
X35596Y12561D01*
X35596Y12333D01*
X34996Y12333D01*
X34996Y12533D01*
X35024Y12590D01*
X35053Y12619D01*
X35110Y12647D01*
X35167Y12647D01*
X35224Y12619D01*
X35253Y12590D01*
X35282Y12533D01*
X35282Y12333D01*
G54D17*
X30482Y19175D02*
X30482Y18932D01*
X30497Y18903D01*
X30511Y18889D01*
X30540Y18875D01*
X30597Y18875D01*
X30625Y18889D01*
X30640Y18903D01*
X30654Y18932D01*
X30654Y19175D01*
X30954Y18875D02*
X30782Y18875D01*
X30868Y18875D02*
X30868Y19175D01*
X30839Y19132D01*
X30811Y19103D01*
X30782Y19089D01*
X29949Y19654D02*
X29849Y19654D01*
X29849Y19497D02*
X29849Y19797D01*
X29992Y19797D01*
X30064Y19797D02*
X30235Y19797D01*
X30149Y19497D02*
X30149Y19797D01*
X30321Y19768D02*
X30335Y19782D01*
X30364Y19797D01*
X30435Y19797D01*
X30464Y19782D01*
X30478Y19768D01*
X30493Y19739D01*
X30493Y19711D01*
X30478Y19668D01*
X30307Y19497D01*
X30493Y19497D01*
X30593Y19797D02*
X30779Y19797D01*
X30679Y19682D01*
X30721Y19682D01*
X30750Y19668D01*
X30764Y19654D01*
X30779Y19625D01*
X30779Y19554D01*
X30764Y19525D01*
X30750Y19511D01*
X30721Y19497D01*
X30636Y19497D01*
X30607Y19511D01*
X30593Y19525D01*
X30893Y19768D02*
X30907Y19782D01*
X30936Y19797D01*
X31007Y19797D01*
X31036Y19782D01*
X31050Y19768D01*
X31065Y19739D01*
X31065Y19711D01*
X31050Y19668D01*
X30879Y19497D01*
X31065Y19497D01*
X31365Y19497D02*
X31265Y19639D01*
X31193Y19497D02*
X31193Y19797D01*
X31308Y19797D01*
X31336Y19782D01*
X31351Y19768D01*
X31365Y19739D01*
X31365Y19697D01*
X31351Y19668D01*
X31336Y19654D01*
X31308Y19639D01*
X31193Y19639D01*
X31636Y19497D02*
X31493Y19497D01*
X31493Y19797D01*
G54D10*
X3942Y1572D02*
X3755Y1572D01*
X3736Y1385D01*
X3755Y1404D01*
X3792Y1423D01*
X3886Y1423D01*
X3923Y1404D01*
X3942Y1385D01*
X3960Y1348D01*
X3960Y1254D01*
X3942Y1217D01*
X3923Y1198D01*
X3886Y1179D01*
X3792Y1179D01*
X3755Y1198D01*
X3736Y1217D01*
X4072Y1572D02*
X4203Y1179D01*
X4334Y1572D01*
X3566Y4874D02*
X3836Y4874D01*
X3701Y4739D02*
X3701Y5008D01*
X30811Y12104D02*
X31065Y12104D01*
X31095Y12119D01*
X31110Y12134D01*
X31125Y12164D01*
X31125Y12223D01*
X31110Y12253D01*
X31095Y12268D01*
X31065Y12283D01*
X30811Y12283D01*
X31110Y12418D02*
X31125Y12463D01*
X31125Y12537D01*
X31110Y12567D01*
X31095Y12582D01*
X31065Y12597D01*
X31035Y12597D01*
X31005Y12582D01*
X30991Y12567D01*
X30976Y12537D01*
X30961Y12478D01*
X30946Y12448D01*
X30931Y12433D01*
X30901Y12418D01*
X30871Y12418D01*
X30841Y12433D01*
X30826Y12448D01*
X30811Y12478D01*
X30811Y12552D01*
X30826Y12597D01*
X30961Y12836D02*
X30976Y12881D01*
X30991Y12896D01*
X31020Y12911D01*
X31065Y12911D01*
X31095Y12896D01*
X31110Y12881D01*
X31125Y12851D01*
X31125Y12732D01*
X30811Y12732D01*
X30811Y12836D01*
X30826Y12866D01*
X30841Y12881D01*
X30871Y12896D01*
X30901Y12896D01*
X30931Y12881D01*
X30946Y12866D01*
X30961Y12836D01*
X30961Y12732D01*
X31125Y13763D02*
X30811Y13763D01*
X30811Y13882D01*
X30826Y13912D01*
X30841Y13927D01*
X30871Y13942D01*
X30916Y13942D01*
X30946Y13927D01*
X30961Y13912D01*
X30976Y13882D01*
X30976Y13763D01*
X30811Y14047D02*
X31125Y14122D01*
X30901Y14181D01*
X31125Y14241D01*
X30811Y14316D01*
X31125Y14615D02*
X30976Y14511D01*
X31125Y14436D02*
X30811Y14436D01*
X30811Y14555D01*
X30826Y14585D01*
X30841Y14600D01*
X30871Y14615D01*
X30916Y14615D01*
X30946Y14600D01*
X30961Y14585D01*
X30976Y14555D01*
X30976Y14436D01*
X31125Y15168D02*
X30976Y15064D01*
X31125Y14989D02*
X30811Y14989D01*
X30811Y15108D01*
X30826Y15138D01*
X30841Y15153D01*
X30871Y15168D01*
X30916Y15168D01*
X30946Y15153D01*
X30961Y15138D01*
X30976Y15108D01*
X30976Y14989D01*
X31110Y15422D02*
X31125Y15392D01*
X31125Y15333D01*
X31110Y15303D01*
X31080Y15288D01*
X30961Y15288D01*
X30931Y15303D01*
X30916Y15333D01*
X30916Y15392D01*
X30931Y15422D01*
X30961Y15437D01*
X30991Y15437D01*
X31020Y15288D01*
X30916Y15706D02*
X31170Y15706D01*
X31200Y15691D01*
X31215Y15676D01*
X31230Y15647D01*
X31230Y15602D01*
X31215Y15572D01*
X31110Y15706D02*
X31125Y15676D01*
X31125Y15617D01*
X31110Y15587D01*
X31095Y15572D01*
X31065Y15557D01*
X30976Y15557D01*
X30946Y15572D01*
X30931Y15587D01*
X30916Y15617D01*
X30916Y15676D01*
X30931Y15706D01*
X29299Y11966D02*
X29299Y11848D01*
X29484Y11848D02*
X29130Y11848D01*
X29130Y12017D01*
X29130Y12101D02*
X29130Y12303D01*
X29484Y12202D02*
X29130Y12202D01*
X29484Y12421D02*
X29130Y12421D01*
X29130Y12506D01*
X29147Y12556D01*
X29181Y12590D01*
X29215Y12607D01*
X29282Y12624D01*
X29333Y12624D01*
X29400Y12607D01*
X29434Y12590D01*
X29467Y12556D01*
X29484Y12506D01*
X29484Y12421D01*
X29484Y12775D02*
X29130Y12775D01*
X29484Y13214D02*
X29130Y13214D01*
X29130Y13349D01*
X29147Y13383D01*
X29164Y13400D01*
X29198Y13417D01*
X29248Y13417D01*
X29282Y13400D01*
X29299Y13383D01*
X29316Y13349D01*
X29316Y13214D01*
X29130Y13535D02*
X29484Y13619D01*
X29231Y13686D01*
X29484Y13754D01*
X29130Y13838D01*
X29484Y14176D02*
X29316Y14058D01*
X29484Y13973D02*
X29130Y13973D01*
X29130Y14108D01*
X29147Y14142D01*
X29164Y14159D01*
X29198Y14176D01*
X29248Y14176D01*
X29282Y14159D01*
X29299Y14142D01*
X29316Y14108D01*
X29316Y13973D01*
X29467Y14580D02*
X29484Y14631D01*
X29484Y14715D01*
X29467Y14749D01*
X29451Y14766D01*
X29417Y14783D01*
X29383Y14783D01*
X29349Y14766D01*
X29333Y14749D01*
X29316Y14715D01*
X29299Y14648D01*
X29282Y14614D01*
X29265Y14597D01*
X29231Y14580D01*
X29198Y14580D01*
X29164Y14597D01*
X29147Y14614D01*
X29130Y14648D01*
X29130Y14732D01*
X29147Y14783D01*
X29467Y15069D02*
X29484Y15035D01*
X29484Y14968D01*
X29467Y14934D01*
X29434Y14917D01*
X29299Y14917D01*
X29265Y14934D01*
X29248Y14968D01*
X29248Y15035D01*
X29265Y15069D01*
X29299Y15086D01*
X29333Y15086D01*
X29366Y14917D01*
X29484Y15288D02*
X29467Y15254D01*
X29434Y15237D01*
X29130Y15237D01*
X29451Y15422D02*
X29467Y15439D01*
X29484Y15422D01*
X29467Y15405D01*
X29451Y15422D01*
X29484Y15422D01*
G54D17*
X14559Y5463D02*
X14440Y5380D01*
X14559Y5321D02*
X14309Y5321D01*
X14309Y5416D01*
X14321Y5440D01*
X14333Y5451D01*
X14357Y5463D01*
X14393Y5463D01*
X14416Y5451D01*
X14428Y5440D01*
X14440Y5416D01*
X14440Y5321D01*
X14559Y5701D02*
X14559Y5559D01*
X14559Y5630D02*
X14309Y5630D01*
X14345Y5606D01*
X14369Y5582D01*
X14381Y5559D01*
X12128Y4958D02*
X12009Y4875D01*
X12128Y4816D02*
X11878Y4816D01*
X11878Y4911D01*
X11890Y4935D01*
X11902Y4946D01*
X11926Y4958D01*
X11962Y4958D01*
X11985Y4946D01*
X11997Y4935D01*
X12009Y4911D01*
X12009Y4816D01*
X11902Y5054D02*
X11890Y5066D01*
X11878Y5089D01*
X11878Y5149D01*
X11890Y5173D01*
X11902Y5185D01*
X11926Y5196D01*
X11950Y5196D01*
X11985Y5185D01*
X12128Y5042D01*
X12128Y5196D01*
G54D10*
X23002Y6118D02*
X23059Y6099D01*
X23078Y6080D01*
X23097Y6041D01*
X23097Y5984D01*
X23078Y5946D01*
X23059Y5927D01*
X23021Y5908D01*
X22868Y5908D01*
X22868Y6308D01*
X23002Y6308D01*
X23040Y6289D01*
X23059Y6270D01*
X23078Y6232D01*
X23078Y6194D01*
X23059Y6156D01*
X23040Y6137D01*
X23002Y6118D01*
X22868Y6118D01*
X23440Y5908D02*
X23440Y6118D01*
X23421Y6156D01*
X23383Y6175D01*
X23306Y6175D01*
X23268Y6156D01*
X23440Y5927D02*
X23402Y5908D01*
X23306Y5908D01*
X23268Y5927D01*
X23249Y5965D01*
X23249Y6003D01*
X23268Y6041D01*
X23306Y6060D01*
X23402Y6060D01*
X23440Y6080D01*
X23573Y6175D02*
X23725Y6175D01*
X23630Y6308D02*
X23630Y5965D01*
X23649Y5927D01*
X23687Y5908D01*
X23725Y5908D01*
X24145Y5927D02*
X24202Y5908D01*
X24298Y5908D01*
X24336Y5927D01*
X24355Y5946D01*
X24374Y5984D01*
X24374Y6022D01*
X24355Y6060D01*
X24336Y6080D01*
X24298Y6099D01*
X24221Y6118D01*
X24183Y6137D01*
X24164Y6156D01*
X24145Y6194D01*
X24145Y6232D01*
X24164Y6270D01*
X24183Y6289D01*
X24221Y6308D01*
X24317Y6308D01*
X24374Y6289D01*
X24698Y5927D02*
X24660Y5908D01*
X24583Y5908D01*
X24545Y5927D01*
X24526Y5965D01*
X24526Y6118D01*
X24545Y6156D01*
X24583Y6175D01*
X24660Y6175D01*
X24698Y6156D01*
X24717Y6118D01*
X24717Y6080D01*
X24526Y6041D01*
X24945Y5908D02*
X24907Y5927D01*
X24888Y5965D01*
X24888Y6308D01*
X21701Y4173D02*
X21701Y4527D01*
X21870Y4409D02*
X21870Y4173D01*
X21870Y4375D02*
X21887Y4392D01*
X21921Y4409D01*
X21971Y4409D01*
X22005Y4392D01*
X22022Y4358D01*
X22022Y4173D01*
X22140Y4409D02*
X22275Y4409D01*
X22190Y4527D02*
X22190Y4223D01*
X22207Y4190D01*
X22241Y4173D01*
X22275Y4173D01*
X22780Y4358D02*
X22831Y4341D01*
X22848Y4324D01*
X22865Y4291D01*
X22865Y4240D01*
X22848Y4206D01*
X22831Y4190D01*
X22797Y4173D01*
X22662Y4173D01*
X22662Y4527D01*
X22780Y4527D01*
X22814Y4510D01*
X22831Y4493D01*
X22848Y4459D01*
X22848Y4426D01*
X22831Y4392D01*
X22814Y4375D01*
X22780Y4358D01*
X22662Y4358D01*
X23168Y4173D02*
X23168Y4358D01*
X23151Y4392D01*
X23117Y4409D01*
X23050Y4409D01*
X23016Y4392D01*
X23168Y4190D02*
X23134Y4173D01*
X23050Y4173D01*
X23016Y4190D01*
X22999Y4223D01*
X22999Y4257D01*
X23016Y4291D01*
X23050Y4308D01*
X23134Y4308D01*
X23168Y4324D01*
X23286Y4409D02*
X23421Y4409D01*
X23336Y4527D02*
X23336Y4223D01*
X23353Y4190D01*
X23387Y4173D01*
X23421Y4173D01*
X24348Y4358D02*
X24466Y4358D01*
X24517Y4173D02*
X24348Y4173D01*
X24348Y4527D01*
X24517Y4527D01*
X24635Y4173D02*
X24820Y4409D01*
X24635Y4409D02*
X24820Y4173D01*
X24905Y4409D02*
X25040Y4409D01*
X24955Y4527D02*
X24955Y4223D01*
X24972Y4190D01*
X25006Y4173D01*
X25040Y4173D01*
X25545Y4358D02*
X25596Y4341D01*
X25613Y4324D01*
X25630Y4291D01*
X25630Y4240D01*
X25613Y4206D01*
X25596Y4190D01*
X25562Y4173D01*
X25427Y4173D01*
X25427Y4527D01*
X25545Y4527D01*
X25579Y4510D01*
X25596Y4493D01*
X25613Y4459D01*
X25613Y4426D01*
X25596Y4392D01*
X25579Y4375D01*
X25545Y4358D01*
X25427Y4358D01*
X25933Y4173D02*
X25933Y4358D01*
X25916Y4392D01*
X25882Y4409D01*
X25815Y4409D01*
X25781Y4392D01*
X25933Y4190D02*
X25899Y4173D01*
X25815Y4173D01*
X25781Y4190D01*
X25764Y4223D01*
X25764Y4257D01*
X25781Y4291D01*
X25815Y4308D01*
X25899Y4308D01*
X25933Y4324D01*
X26051Y4409D02*
X26186Y4409D01*
X26101Y4527D02*
X26101Y4223D01*
X26118Y4190D01*
X26152Y4173D01*
X26186Y4173D01*
G54D21*
X18942Y10799D02*
X18961Y10780D01*
X18980Y10723D01*
X18980Y10685D01*
X18961Y10627D01*
X18923Y10589D01*
X18885Y10570D01*
X18808Y10551D01*
X18751Y10551D01*
X18675Y10570D01*
X18637Y10589D01*
X18599Y10627D01*
X18580Y10685D01*
X18580Y10723D01*
X18599Y10780D01*
X18618Y10799D01*
X18580Y10932D02*
X18580Y11180D01*
X18732Y11046D01*
X18732Y11104D01*
X18751Y11142D01*
X18770Y11161D01*
X18808Y11180D01*
X18904Y11180D01*
X18942Y11161D01*
X18961Y11142D01*
X18980Y11104D01*
X18980Y10989D01*
X18961Y10951D01*
X18942Y10932D01*
G54D22*
X21057Y11582D02*
X21057Y12039D01*
X21286Y11810D02*
X20829Y11810D01*
G54D21*
X7082Y10739D02*
X7101Y10720D01*
X7120Y10663D01*
X7120Y10625D01*
X7101Y10567D01*
X7063Y10529D01*
X7025Y10510D01*
X6948Y10491D01*
X6891Y10491D01*
X6815Y10510D01*
X6777Y10529D01*
X6739Y10567D01*
X6720Y10625D01*
X6720Y10663D01*
X6739Y10720D01*
X6758Y10739D01*
X6853Y11082D02*
X7120Y11082D01*
X6701Y10986D02*
X6987Y10891D01*
X6987Y11139D01*
G54D22*
X9246Y11582D02*
X9246Y12039D01*
X9475Y11810D02*
X9018Y11810D01*
G54D17*
X15035Y10583D02*
X15047Y10571D01*
X15059Y10536D01*
X15059Y10512D01*
X15047Y10476D01*
X15023Y10452D01*
X15000Y10441D01*
X14952Y10429D01*
X14916Y10429D01*
X14869Y10441D01*
X14845Y10452D01*
X14821Y10476D01*
X14809Y10512D01*
X14809Y10536D01*
X14821Y10571D01*
X14833Y10583D01*
X14916Y10726D02*
X14904Y10702D01*
X14893Y10691D01*
X14869Y10679D01*
X14857Y10679D01*
X14833Y10691D01*
X14821Y10702D01*
X14809Y10726D01*
X14809Y10774D01*
X14821Y10798D01*
X14833Y10810D01*
X14857Y10821D01*
X14869Y10821D01*
X14893Y10810D01*
X14904Y10798D01*
X14916Y10774D01*
X14916Y10726D01*
X14928Y10702D01*
X14940Y10691D01*
X14964Y10679D01*
X15012Y10679D01*
X15035Y10691D01*
X15047Y10702D01*
X15059Y10726D01*
X15059Y10774D01*
X15047Y10798D01*
X15035Y10810D01*
X15012Y10821D01*
X14964Y10821D01*
X14940Y10810D01*
X14928Y10798D01*
X14916Y10774D01*
X29096Y15668D02*
X29084Y15656D01*
X29049Y15644D01*
X29025Y15644D01*
X28989Y15656D01*
X28965Y15680D01*
X28954Y15703D01*
X28942Y15751D01*
X28942Y15787D01*
X28954Y15834D01*
X28965Y15858D01*
X28989Y15882D01*
X29025Y15894D01*
X29049Y15894D01*
X29084Y15882D01*
X29096Y15870D01*
X29192Y15870D02*
X29204Y15882D01*
X29227Y15894D01*
X29287Y15894D01*
X29311Y15882D01*
X29323Y15870D01*
X29334Y15846D01*
X29334Y15822D01*
X29323Y15787D01*
X29180Y15644D01*
X29334Y15644D01*
X31876Y16228D02*
X31864Y16216D01*
X31829Y16204D01*
X31805Y16204D01*
X31769Y16216D01*
X31745Y16240D01*
X31734Y16263D01*
X31722Y16311D01*
X31722Y16347D01*
X31734Y16394D01*
X31745Y16418D01*
X31769Y16442D01*
X31805Y16454D01*
X31829Y16454D01*
X31864Y16442D01*
X31876Y16430D01*
X32114Y16204D02*
X31972Y16204D01*
X32043Y16204D02*
X32043Y16454D01*
X32019Y16418D01*
X31995Y16394D01*
X31972Y16382D01*
G54D21*
X11042Y11319D02*
X11061Y11300D01*
X11080Y11243D01*
X11080Y11205D01*
X11061Y11147D01*
X11023Y11109D01*
X10985Y11090D01*
X10908Y11071D01*
X10851Y11071D01*
X10775Y11090D01*
X10737Y11109D01*
X10699Y11147D01*
X10680Y11205D01*
X10680Y11243D01*
X10699Y11300D01*
X10718Y11319D01*
X10680Y11662D02*
X10680Y11585D01*
X10699Y11547D01*
X10718Y11528D01*
X10775Y11490D01*
X10851Y11471D01*
X11004Y11471D01*
X11042Y11490D01*
X11061Y11509D01*
X11080Y11547D01*
X11080Y11624D01*
X11061Y11662D01*
X11042Y11681D01*
X11004Y11700D01*
X10908Y11700D01*
X10870Y11681D01*
X10851Y11662D01*
X10832Y11624D01*
X10832Y11547D01*
X10851Y11509D01*
X10870Y11490D01*
X10908Y11471D01*
G54D22*
X13183Y11582D02*
X13183Y12039D01*
X13412Y11810D02*
X12955Y11810D01*
G54D13*
X30175Y26058D02*
X30041Y26249D01*
X29946Y26058D02*
X29946Y26458D01*
X30099Y26458D01*
X30137Y26439D01*
X30156Y26420D01*
X30175Y26382D01*
X30175Y26325D01*
X30156Y26287D01*
X30137Y26268D01*
X30099Y26249D01*
X29946Y26249D01*
X30327Y26077D02*
X30384Y26058D01*
X30480Y26058D01*
X30518Y26077D01*
X30537Y26096D01*
X30556Y26134D01*
X30556Y26172D01*
X30537Y26210D01*
X30518Y26230D01*
X30480Y26249D01*
X30403Y26268D01*
X30365Y26287D01*
X30346Y26306D01*
X30327Y26344D01*
X30327Y26382D01*
X30346Y26420D01*
X30365Y26439D01*
X30403Y26458D01*
X30499Y26458D01*
X30556Y26439D01*
X30670Y26458D02*
X30899Y26458D01*
X30784Y26058D02*
X30784Y26458D01*
G54D21*
X22902Y10719D02*
X22921Y10700D01*
X22940Y10643D01*
X22940Y10605D01*
X22921Y10547D01*
X22883Y10509D01*
X22845Y10490D01*
X22768Y10471D01*
X22711Y10471D01*
X22635Y10490D01*
X22597Y10509D01*
X22559Y10547D01*
X22540Y10605D01*
X22540Y10643D01*
X22559Y10700D01*
X22578Y10719D01*
X22540Y11081D02*
X22540Y10890D01*
X22730Y10871D01*
X22711Y10890D01*
X22692Y10928D01*
X22692Y11024D01*
X22711Y11062D01*
X22730Y11081D01*
X22768Y11100D01*
X22864Y11100D01*
X22902Y11081D01*
X22921Y11062D01*
X22940Y11024D01*
X22940Y10928D01*
X22921Y10890D01*
X22902Y10871D01*
G54D22*
X24994Y11582D02*
X24994Y12039D01*
X25223Y11810D02*
X24766Y11810D01*
G54D17*
X26915Y10643D02*
X26927Y10631D01*
X26939Y10596D01*
X26939Y10572D01*
X26927Y10536D01*
X26903Y10512D01*
X26880Y10501D01*
X26832Y10489D01*
X26796Y10489D01*
X26749Y10501D01*
X26725Y10512D01*
X26701Y10536D01*
X26689Y10572D01*
X26689Y10596D01*
X26701Y10631D01*
X26713Y10643D01*
X26689Y10727D02*
X26689Y10893D01*
X26939Y10786D01*
X34556Y704D02*
X34327Y704D01*
X34441Y704D02*
X34441Y1104D01*
X34403Y1047D01*
X34365Y1009D01*
X34327Y990D01*
X34708Y1066D02*
X34727Y1085D01*
X34765Y1104D01*
X34861Y1104D01*
X34899Y1085D01*
X34918Y1066D01*
X34937Y1028D01*
X34937Y990D01*
X34918Y933D01*
X34689Y704D01*
X34937Y704D01*
X35051Y1104D02*
X35184Y704D01*
X35318Y1104D01*
G54D19*
X32057Y5345D02*
X32356Y5345D01*
X32207Y5195D02*
X32207Y5494D01*
G54D11*
X6699Y15813D02*
X6099Y15813D01*
X6527Y16013D01*
X6099Y16213D01*
X6699Y16213D01*
X6699Y16499D02*
X6099Y16499D01*
X6642Y17128D02*
X6670Y17099D01*
X6699Y17013D01*
X6699Y16956D01*
X6670Y16871D01*
X6613Y16813D01*
X6556Y16785D01*
X6442Y16756D01*
X6356Y16756D01*
X6242Y16785D01*
X6185Y16813D01*
X6127Y16871D01*
X6099Y16956D01*
X6099Y17013D01*
X6127Y17099D01*
X6156Y17128D01*
X6156Y17356D02*
X6127Y17385D01*
X6099Y17442D01*
X6099Y17585D01*
X6127Y17642D01*
X6156Y17671D01*
X6213Y17699D01*
X6270Y17699D01*
X6356Y17671D01*
X6699Y17328D01*
X6699Y17699D01*
X6699Y17984D02*
X6699Y18099D01*
X6670Y18156D01*
X6642Y18184D01*
X6556Y18242D01*
X6442Y18270D01*
X6213Y18270D01*
X6156Y18242D01*
X6127Y18213D01*
X6099Y18156D01*
X6099Y18042D01*
X6127Y17984D01*
X6156Y17956D01*
X6213Y17927D01*
X6356Y17927D01*
X6413Y17956D01*
X6442Y17984D01*
X6470Y18042D01*
X6470Y18156D01*
X6442Y18213D01*
X6413Y18242D01*
X6356Y18270D01*
X6699Y18841D02*
X6699Y18498D01*
X6699Y18670D02*
X6099Y18670D01*
X6185Y18613D01*
X6242Y18555D01*
X6270Y18498D01*
X6099Y19384D02*
X6099Y19098D01*
X6385Y19069D01*
X6356Y19098D01*
X6327Y19155D01*
X6327Y19298D01*
X6356Y19355D01*
X6385Y19384D01*
X6442Y19412D01*
X6585Y19412D01*
X6642Y19384D01*
X6670Y19355D01*
X6699Y19298D01*
X6699Y19155D01*
X6670Y19098D01*
X6642Y19069D01*
X6699Y19983D02*
X6699Y19640D01*
X6699Y19812D02*
X6099Y19812D01*
X6185Y19755D01*
X6242Y19697D01*
X6270Y19640D01*
X6470Y20240D02*
X6470Y20697D01*
X6099Y21269D02*
X6099Y20983D01*
X6385Y20954D01*
X6356Y20983D01*
X6327Y21040D01*
X6327Y21183D01*
X6356Y21240D01*
X6385Y21269D01*
X6442Y21297D01*
X6585Y21297D01*
X6642Y21269D01*
X6670Y21240D01*
X6699Y21183D01*
X6699Y21040D01*
X6670Y20983D01*
X6642Y20954D01*
X6642Y21554D02*
X6670Y21582D01*
X6699Y21554D01*
X6670Y21525D01*
X6642Y21554D01*
X6699Y21554D01*
X6099Y21954D02*
X6099Y22011D01*
X6127Y22068D01*
X6156Y22097D01*
X6213Y22126D01*
X6327Y22154D01*
X6470Y22154D01*
X6585Y22126D01*
X6642Y22097D01*
X6670Y22068D01*
X6699Y22011D01*
X6699Y21954D01*
X6670Y21897D01*
X6642Y21868D01*
X6585Y21840D01*
X6470Y21811D01*
X6327Y21811D01*
X6213Y21840D01*
X6156Y21868D01*
X6127Y21897D01*
X6099Y21954D01*
X6099Y22354D02*
X6699Y22497D01*
X6270Y22611D01*
X6699Y22725D01*
X6099Y22868D01*
X6099Y23097D02*
X6585Y23097D01*
X6642Y23125D01*
X6670Y23154D01*
X6699Y23211D01*
X6699Y23325D01*
X6670Y23383D01*
X6642Y23411D01*
X6585Y23440D01*
X6099Y23440D01*
M02*
