G04 (created by PCBNEW-RS274X (2011-nov-30)-testing) date Wed 02 May 2012 06:15:17 PM EDT*
G01*
G70*
G90*
%MOIN*%
G04 Gerber Fmt 3.4, Leading zero omitted, Abs format*
%FSLAX34Y34*%
G04 APERTURE LIST*
%ADD10C,0.006000*%
%ADD11C,0.005000*%
%ADD12C,0.015000*%
%ADD13C,0.012000*%
%ADD14C,0.008000*%
G04 APERTURE END LIST*
G54D10*
G54D11*
X25159Y-00113D02*
X29959Y-00113D01*
X29959Y-00113D02*
X29959Y06587D01*
X29959Y06587D02*
X25159Y06587D01*
X25159Y06587D02*
X25159Y-00113D01*
X18027Y07024D02*
X18024Y06997D01*
X18016Y06971D01*
X18003Y06946D01*
X17986Y06925D01*
X17964Y06908D01*
X17940Y06895D01*
X17914Y06886D01*
X17886Y06884D01*
X17860Y06886D01*
X17834Y06894D01*
X17809Y06907D01*
X17788Y06924D01*
X17770Y06945D01*
X17757Y06969D01*
X17749Y06995D01*
X17746Y07023D01*
X17748Y07049D01*
X17755Y07075D01*
X17768Y07100D01*
X17785Y07121D01*
X17806Y07139D01*
X17830Y07153D01*
X17856Y07161D01*
X17884Y07164D01*
X17910Y07162D01*
X17936Y07155D01*
X17961Y07143D01*
X17983Y07126D01*
X18001Y07105D01*
X18014Y07081D01*
X18023Y07055D01*
X18026Y07027D01*
X18027Y07024D01*
X17686Y08124D02*
X17986Y08124D01*
X17986Y08124D02*
X17986Y07624D01*
X17986Y07624D02*
X17686Y07624D01*
X21736Y06824D02*
X17686Y06824D01*
X17686Y08924D02*
X21736Y08924D01*
X17686Y08924D02*
X17686Y06824D01*
X21736Y08924D02*
X21736Y06824D01*
X13622Y14231D02*
X13621Y14222D01*
X13618Y14212D01*
X13613Y14204D01*
X13607Y14196D01*
X13599Y14190D01*
X13591Y14185D01*
X13582Y14183D01*
X13572Y14182D01*
X13563Y14182D01*
X13554Y14185D01*
X13545Y14190D01*
X13538Y14196D01*
X13531Y14203D01*
X13527Y14212D01*
X13524Y14221D01*
X13523Y14231D01*
X13523Y14240D01*
X13526Y14249D01*
X13530Y14258D01*
X13537Y14265D01*
X13544Y14272D01*
X13552Y14276D01*
X13562Y14279D01*
X13571Y14280D01*
X13580Y14280D01*
X13590Y14277D01*
X13598Y14273D01*
X13606Y14267D01*
X13612Y14259D01*
X13617Y14251D01*
X13620Y14242D01*
X13621Y14232D01*
X13622Y14231D01*
X13572Y14681D02*
X13572Y14281D01*
X13572Y14281D02*
X12972Y14281D01*
X12972Y14281D02*
X12972Y14681D01*
X12972Y15081D02*
X12972Y15481D01*
X12972Y15481D02*
X13572Y15481D01*
X13572Y15481D02*
X13572Y15081D01*
X17122Y14231D02*
X17121Y14222D01*
X17118Y14212D01*
X17113Y14204D01*
X17107Y14196D01*
X17099Y14190D01*
X17091Y14185D01*
X17082Y14183D01*
X17072Y14182D01*
X17063Y14182D01*
X17054Y14185D01*
X17045Y14190D01*
X17038Y14196D01*
X17031Y14203D01*
X17027Y14212D01*
X17024Y14221D01*
X17023Y14231D01*
X17023Y14240D01*
X17026Y14249D01*
X17030Y14258D01*
X17037Y14265D01*
X17044Y14272D01*
X17052Y14276D01*
X17062Y14279D01*
X17071Y14280D01*
X17080Y14280D01*
X17090Y14277D01*
X17098Y14273D01*
X17106Y14267D01*
X17112Y14259D01*
X17117Y14251D01*
X17120Y14242D01*
X17121Y14232D01*
X17122Y14231D01*
X17072Y14681D02*
X17072Y14281D01*
X17072Y14281D02*
X16472Y14281D01*
X16472Y14281D02*
X16472Y14681D01*
X16472Y15081D02*
X16472Y15481D01*
X16472Y15481D02*
X17072Y15481D01*
X17072Y15481D02*
X17072Y15081D01*
X03062Y14867D02*
X03061Y14858D01*
X03058Y14848D01*
X03053Y14840D01*
X03047Y14832D01*
X03039Y14826D01*
X03031Y14821D01*
X03022Y14819D01*
X03012Y14818D01*
X03003Y14818D01*
X02994Y14821D01*
X02985Y14826D01*
X02978Y14832D01*
X02971Y14839D01*
X02967Y14848D01*
X02964Y14857D01*
X02963Y14867D01*
X02963Y14876D01*
X02966Y14885D01*
X02970Y14894D01*
X02977Y14901D01*
X02984Y14908D01*
X02992Y14912D01*
X03002Y14915D01*
X03011Y14916D01*
X03020Y14916D01*
X03030Y14913D01*
X03038Y14909D01*
X03046Y14903D01*
X03052Y14895D01*
X03057Y14887D01*
X03060Y14878D01*
X03061Y14868D01*
X03062Y14867D01*
X02562Y14867D02*
X02962Y14867D01*
X02962Y14867D02*
X02962Y14267D01*
X02962Y14267D02*
X02562Y14267D01*
X02162Y14267D02*
X01762Y14267D01*
X01762Y14267D02*
X01762Y14867D01*
X01762Y14867D02*
X02162Y14867D01*
X04518Y15842D02*
X04517Y15833D01*
X04514Y15823D01*
X04509Y15815D01*
X04503Y15807D01*
X04495Y15801D01*
X04487Y15796D01*
X04478Y15794D01*
X04468Y15793D01*
X04459Y15793D01*
X04450Y15796D01*
X04441Y15801D01*
X04434Y15807D01*
X04427Y15814D01*
X04423Y15823D01*
X04420Y15832D01*
X04419Y15842D01*
X04419Y15851D01*
X04422Y15860D01*
X04426Y15869D01*
X04433Y15876D01*
X04440Y15883D01*
X04448Y15887D01*
X04458Y15890D01*
X04467Y15891D01*
X04476Y15891D01*
X04486Y15888D01*
X04494Y15884D01*
X04502Y15878D01*
X04508Y15870D01*
X04513Y15862D01*
X04516Y15853D01*
X04517Y15843D01*
X04518Y15842D01*
X04918Y15842D02*
X04518Y15842D01*
X04518Y15842D02*
X04518Y16442D01*
X04518Y16442D02*
X04918Y16442D01*
X05318Y16442D02*
X05718Y16442D01*
X05718Y16442D02*
X05718Y15842D01*
X05718Y15842D02*
X05318Y15842D01*
X04518Y14267D02*
X04517Y14258D01*
X04514Y14248D01*
X04509Y14240D01*
X04503Y14232D01*
X04495Y14226D01*
X04487Y14221D01*
X04478Y14219D01*
X04468Y14218D01*
X04459Y14218D01*
X04450Y14221D01*
X04441Y14226D01*
X04434Y14232D01*
X04427Y14239D01*
X04423Y14248D01*
X04420Y14257D01*
X04419Y14267D01*
X04419Y14276D01*
X04422Y14285D01*
X04426Y14294D01*
X04433Y14301D01*
X04440Y14308D01*
X04448Y14312D01*
X04458Y14315D01*
X04467Y14316D01*
X04476Y14316D01*
X04486Y14313D01*
X04494Y14309D01*
X04502Y14303D01*
X04508Y14295D01*
X04513Y14287D01*
X04516Y14278D01*
X04517Y14268D01*
X04518Y14267D01*
X04918Y14267D02*
X04518Y14267D01*
X04518Y14267D02*
X04518Y14867D01*
X04518Y14867D02*
X04918Y14867D01*
X05318Y14867D02*
X05718Y14867D01*
X05718Y14867D02*
X05718Y14267D01*
X05718Y14267D02*
X05318Y14267D01*
X26290Y09355D02*
X26289Y09346D01*
X26286Y09336D01*
X26281Y09328D01*
X26275Y09320D01*
X26267Y09314D01*
X26259Y09309D01*
X26250Y09307D01*
X26240Y09306D01*
X26231Y09306D01*
X26222Y09309D01*
X26213Y09314D01*
X26206Y09320D01*
X26199Y09327D01*
X26195Y09336D01*
X26192Y09345D01*
X26191Y09355D01*
X26191Y09364D01*
X26194Y09373D01*
X26198Y09382D01*
X26205Y09389D01*
X26212Y09396D01*
X26220Y09400D01*
X26230Y09403D01*
X26239Y09404D01*
X26248Y09404D01*
X26258Y09401D01*
X26266Y09397D01*
X26274Y09391D01*
X26280Y09383D01*
X26285Y09375D01*
X26288Y09366D01*
X26289Y09356D01*
X26290Y09355D01*
X25790Y09355D02*
X26190Y09355D01*
X26190Y09355D02*
X26190Y08755D01*
X26190Y08755D02*
X25790Y08755D01*
X25390Y08755D02*
X24990Y08755D01*
X24990Y08755D02*
X24990Y09355D01*
X24990Y09355D02*
X25390Y09355D01*
X03062Y16442D02*
X03061Y16433D01*
X03058Y16423D01*
X03053Y16415D01*
X03047Y16407D01*
X03039Y16401D01*
X03031Y16396D01*
X03022Y16394D01*
X03012Y16393D01*
X03003Y16393D01*
X02994Y16396D01*
X02985Y16401D01*
X02978Y16407D01*
X02971Y16414D01*
X02967Y16423D01*
X02964Y16432D01*
X02963Y16442D01*
X02963Y16451D01*
X02966Y16460D01*
X02970Y16469D01*
X02977Y16476D01*
X02984Y16483D01*
X02992Y16487D01*
X03002Y16490D01*
X03011Y16491D01*
X03020Y16491D01*
X03030Y16488D01*
X03038Y16484D01*
X03046Y16478D01*
X03052Y16470D01*
X03057Y16462D01*
X03060Y16453D01*
X03061Y16443D01*
X03062Y16442D01*
X02562Y16442D02*
X02962Y16442D01*
X02962Y16442D02*
X02962Y15842D01*
X02962Y15842D02*
X02562Y15842D01*
X02162Y15842D02*
X01762Y15842D01*
X01762Y15842D02*
X01762Y16442D01*
X01762Y16442D02*
X02162Y16442D01*
X21216Y10767D02*
X21215Y10758D01*
X21212Y10748D01*
X21207Y10740D01*
X21201Y10732D01*
X21193Y10726D01*
X21185Y10721D01*
X21176Y10719D01*
X21166Y10718D01*
X21157Y10718D01*
X21148Y10721D01*
X21139Y10726D01*
X21132Y10732D01*
X21125Y10739D01*
X21121Y10748D01*
X21118Y10757D01*
X21117Y10767D01*
X21117Y10776D01*
X21120Y10785D01*
X21124Y10794D01*
X21131Y10801D01*
X21138Y10808D01*
X21146Y10812D01*
X21156Y10815D01*
X21165Y10816D01*
X21174Y10816D01*
X21184Y10813D01*
X21192Y10809D01*
X21200Y10803D01*
X21206Y10795D01*
X21211Y10787D01*
X21214Y10778D01*
X21215Y10768D01*
X21216Y10767D01*
X21166Y11217D02*
X21166Y10817D01*
X21166Y10817D02*
X20566Y10817D01*
X20566Y10817D02*
X20566Y11217D01*
X20566Y11617D02*
X20566Y12017D01*
X20566Y12017D02*
X21166Y12017D01*
X21166Y12017D02*
X21166Y11617D01*
G54D10*
X13705Y04830D02*
X13705Y03830D01*
X13705Y03830D02*
X10705Y03830D01*
X10705Y03830D02*
X10705Y04830D01*
X10705Y04830D02*
X13705Y04830D01*
X12705Y03830D02*
X12705Y04830D01*
X05299Y18398D02*
X05299Y19398D01*
X05299Y19398D02*
X07299Y19398D01*
X07299Y19398D02*
X07299Y18398D01*
X07299Y18398D02*
X05299Y18398D01*
X00968Y18398D02*
X00968Y19398D01*
X00968Y19398D02*
X02968Y19398D01*
X02968Y19398D02*
X02968Y18398D01*
X02968Y18398D02*
X00968Y18398D01*
X11205Y00681D02*
X11205Y01681D01*
X11205Y01681D02*
X13205Y01681D01*
X13205Y01681D02*
X13205Y00681D01*
X13205Y00681D02*
X11205Y00681D01*
G54D12*
X17185Y01468D02*
X17185Y03968D01*
X17185Y03968D02*
X22185Y03968D01*
X22185Y03968D02*
X22185Y-00032D01*
X22185Y-00032D02*
X17185Y-00032D01*
X17185Y-00032D02*
X17185Y01468D01*
G54D13*
X12705Y09374D02*
X12705Y06374D01*
X12705Y06374D02*
X11705Y06374D01*
X11705Y06374D02*
X11705Y09374D01*
X11705Y09374D02*
X12705Y09374D01*
X12705Y06624D02*
X11705Y06624D01*
X11705Y06874D02*
X12705Y06874D01*
X12205Y09374D02*
X12205Y09874D01*
X12205Y06374D02*
X12205Y05874D01*
G54D12*
X19004Y16160D02*
X20154Y16160D01*
X20154Y16160D02*
X20154Y16760D01*
X20154Y16760D02*
X19954Y16760D01*
X19954Y16760D02*
X19954Y17510D01*
X17154Y16760D02*
X17154Y17510D01*
X17154Y16760D02*
X16954Y16760D01*
X16954Y16760D02*
X16954Y16160D01*
X16954Y16160D02*
X17954Y16160D01*
X17104Y18710D02*
X17104Y20010D01*
X17104Y20010D02*
X19954Y20010D01*
X19954Y20010D02*
X19954Y18710D01*
X11917Y16160D02*
X13067Y16160D01*
X13067Y16160D02*
X13067Y16760D01*
X13067Y16760D02*
X12867Y16760D01*
X12867Y16760D02*
X12867Y17510D01*
X10067Y16760D02*
X10067Y17510D01*
X10067Y16760D02*
X09867Y16760D01*
X09867Y16760D02*
X09867Y16160D01*
X09867Y16160D02*
X10867Y16160D01*
X10017Y18710D02*
X10017Y20010D01*
X10017Y20010D02*
X12867Y20010D01*
X12867Y20010D02*
X12867Y18710D01*
G54D13*
X31740Y12472D02*
X31140Y12472D01*
X31568Y12672D01*
X31140Y12872D01*
X31740Y12872D01*
X31740Y13158D02*
X31140Y13158D01*
X31683Y13787D02*
X31711Y13758D01*
X31740Y13672D01*
X31740Y13615D01*
X31711Y13530D01*
X31654Y13472D01*
X31597Y13444D01*
X31483Y13415D01*
X31397Y13415D01*
X31283Y13444D01*
X31226Y13472D01*
X31168Y13530D01*
X31140Y13615D01*
X31140Y13672D01*
X31168Y13758D01*
X31197Y13787D01*
X31197Y14015D02*
X31168Y14044D01*
X31140Y14101D01*
X31140Y14244D01*
X31168Y14301D01*
X31197Y14330D01*
X31254Y14358D01*
X31311Y14358D01*
X31397Y14330D01*
X31740Y13987D01*
X31740Y14358D01*
X31740Y14643D02*
X31740Y14758D01*
X31711Y14815D01*
X31683Y14843D01*
X31597Y14901D01*
X31483Y14929D01*
X31254Y14929D01*
X31197Y14901D01*
X31168Y14872D01*
X31140Y14815D01*
X31140Y14701D01*
X31168Y14643D01*
X31197Y14615D01*
X31254Y14586D01*
X31397Y14586D01*
X31454Y14615D01*
X31483Y14643D01*
X31511Y14701D01*
X31511Y14815D01*
X31483Y14872D01*
X31454Y14901D01*
X31397Y14929D01*
X31740Y15500D02*
X31740Y15157D01*
X31740Y15329D02*
X31140Y15329D01*
X31226Y15272D01*
X31283Y15214D01*
X31311Y15157D01*
X31140Y16043D02*
X31140Y15757D01*
X31426Y15728D01*
X31397Y15757D01*
X31368Y15814D01*
X31368Y15957D01*
X31397Y16014D01*
X31426Y16043D01*
X31483Y16071D01*
X31626Y16071D01*
X31683Y16043D01*
X31711Y16014D01*
X31740Y15957D01*
X31740Y15814D01*
X31711Y15757D01*
X31683Y15728D01*
X31740Y16642D02*
X31740Y16299D01*
X31740Y16471D02*
X31140Y16471D01*
X31226Y16414D01*
X31283Y16356D01*
X31311Y16299D01*
X31511Y16899D02*
X31511Y17356D01*
X31740Y17956D02*
X31740Y17613D01*
X31740Y17785D02*
X31140Y17785D01*
X31226Y17728D01*
X31283Y17670D01*
X31311Y17613D01*
X31197Y18184D02*
X31168Y18213D01*
X31140Y18270D01*
X31140Y18413D01*
X31168Y18470D01*
X31197Y18499D01*
X31254Y18527D01*
X31311Y18527D01*
X31397Y18499D01*
X31740Y18156D01*
X31740Y18527D01*
X31140Y18727D02*
X31740Y18870D01*
X31311Y18984D01*
X31740Y19098D01*
X31140Y19241D01*
X31140Y19470D02*
X31626Y19470D01*
X31683Y19498D01*
X31711Y19527D01*
X31740Y19584D01*
X31740Y19698D01*
X31711Y19756D01*
X31683Y19784D01*
X31626Y19813D01*
X31140Y19813D01*
X09692Y00911D02*
X09092Y00911D01*
X09520Y01111D01*
X09092Y01311D01*
X09692Y01311D01*
X09692Y01597D02*
X09092Y01597D01*
X09635Y02226D02*
X09663Y02197D01*
X09692Y02111D01*
X09692Y02054D01*
X09663Y01969D01*
X09606Y01911D01*
X09549Y01883D01*
X09435Y01854D01*
X09349Y01854D01*
X09235Y01883D01*
X09178Y01911D01*
X09120Y01969D01*
X09092Y02054D01*
X09092Y02111D01*
X09120Y02197D01*
X09149Y02226D01*
X09149Y02454D02*
X09120Y02483D01*
X09092Y02540D01*
X09092Y02683D01*
X09120Y02740D01*
X09149Y02769D01*
X09206Y02797D01*
X09263Y02797D01*
X09349Y02769D01*
X09692Y02426D01*
X09692Y02797D01*
X09692Y03082D02*
X09692Y03197D01*
X09663Y03254D01*
X09635Y03282D01*
X09549Y03340D01*
X09435Y03368D01*
X09206Y03368D01*
X09149Y03340D01*
X09120Y03311D01*
X09092Y03254D01*
X09092Y03140D01*
X09120Y03082D01*
X09149Y03054D01*
X09206Y03025D01*
X09349Y03025D01*
X09406Y03054D01*
X09435Y03082D01*
X09463Y03140D01*
X09463Y03254D01*
X09435Y03311D01*
X09406Y03340D01*
X09349Y03368D01*
X09692Y03939D02*
X09692Y03596D01*
X09692Y03768D02*
X09092Y03768D01*
X09178Y03711D01*
X09235Y03653D01*
X09263Y03596D01*
X09092Y04482D02*
X09092Y04196D01*
X09378Y04167D01*
X09349Y04196D01*
X09320Y04253D01*
X09320Y04396D01*
X09349Y04453D01*
X09378Y04482D01*
X09435Y04510D01*
X09578Y04510D01*
X09635Y04482D01*
X09663Y04453D01*
X09692Y04396D01*
X09692Y04253D01*
X09663Y04196D01*
X09635Y04167D01*
X09692Y05081D02*
X09692Y04738D01*
X09692Y04910D02*
X09092Y04910D01*
X09178Y04853D01*
X09235Y04795D01*
X09263Y04738D01*
X09463Y05338D02*
X09463Y05795D01*
X09092Y06367D02*
X09092Y06081D01*
X09378Y06052D01*
X09349Y06081D01*
X09320Y06138D01*
X09320Y06281D01*
X09349Y06338D01*
X09378Y06367D01*
X09435Y06395D01*
X09578Y06395D01*
X09635Y06367D01*
X09663Y06338D01*
X09692Y06281D01*
X09692Y06138D01*
X09663Y06081D01*
X09635Y06052D01*
X09635Y06652D02*
X09663Y06680D01*
X09692Y06652D01*
X09663Y06623D01*
X09635Y06652D01*
X09692Y06652D01*
X09092Y07052D02*
X09092Y07109D01*
X09120Y07166D01*
X09149Y07195D01*
X09206Y07224D01*
X09320Y07252D01*
X09463Y07252D01*
X09578Y07224D01*
X09635Y07195D01*
X09663Y07166D01*
X09692Y07109D01*
X09692Y07052D01*
X09663Y06995D01*
X09635Y06966D01*
X09578Y06938D01*
X09463Y06909D01*
X09320Y06909D01*
X09206Y06938D01*
X09149Y06966D01*
X09120Y06995D01*
X09092Y07052D01*
X09092Y07452D02*
X09692Y07595D01*
X09263Y07709D01*
X09692Y07823D01*
X09092Y07966D01*
X09092Y08195D02*
X09578Y08195D01*
X09635Y08223D01*
X09663Y08252D01*
X09692Y08309D01*
X09692Y08423D01*
X09663Y08481D01*
X09635Y08509D01*
X09578Y08538D01*
X09092Y08538D01*
X27280Y01814D02*
X27280Y01386D01*
X27252Y01300D01*
X27195Y01243D01*
X27109Y01214D01*
X27052Y01214D01*
X27880Y01214D02*
X27537Y01214D01*
X27709Y01214D02*
X27709Y01814D01*
X27652Y01728D01*
X27594Y01671D01*
X27537Y01643D01*
X26802Y03901D02*
X26802Y03415D01*
X26830Y03358D01*
X26859Y03330D01*
X26916Y03301D01*
X27030Y03301D01*
X27088Y03330D01*
X27116Y03358D01*
X27145Y03415D01*
X27145Y03901D01*
X27402Y03330D02*
X27488Y03301D01*
X27631Y03301D01*
X27688Y03330D01*
X27717Y03358D01*
X27745Y03415D01*
X27745Y03473D01*
X27717Y03530D01*
X27688Y03558D01*
X27631Y03587D01*
X27517Y03615D01*
X27459Y03644D01*
X27431Y03673D01*
X27402Y03730D01*
X27402Y03787D01*
X27431Y03844D01*
X27459Y03873D01*
X27517Y03901D01*
X27659Y03901D01*
X27745Y03873D01*
X28202Y03615D02*
X28288Y03587D01*
X28316Y03558D01*
X28345Y03501D01*
X28345Y03415D01*
X28316Y03358D01*
X28288Y03330D01*
X28230Y03301D01*
X28002Y03301D01*
X28002Y03901D01*
X28202Y03901D01*
X28259Y03873D01*
X28288Y03844D01*
X28316Y03787D01*
X28316Y03730D01*
X28288Y03673D01*
X28259Y03644D01*
X28202Y03615D01*
X28002Y03615D01*
G54D11*
X19464Y08222D02*
X19464Y07979D01*
X19479Y07950D01*
X19493Y07936D01*
X19522Y07922D01*
X19579Y07922D01*
X19607Y07936D01*
X19622Y07950D01*
X19636Y07979D01*
X19636Y08222D01*
X19936Y07922D02*
X19764Y07922D01*
X19850Y07922D02*
X19850Y08222D01*
X19821Y08179D01*
X19793Y08150D01*
X19764Y08136D01*
X18914Y07516D02*
X18814Y07516D01*
X18814Y07359D02*
X18814Y07659D01*
X18957Y07659D01*
X19029Y07659D02*
X19200Y07659D01*
X19114Y07359D02*
X19114Y07659D01*
X19286Y07630D02*
X19300Y07644D01*
X19329Y07659D01*
X19400Y07659D01*
X19429Y07644D01*
X19443Y07630D01*
X19458Y07601D01*
X19458Y07573D01*
X19443Y07530D01*
X19272Y07359D01*
X19458Y07359D01*
X19558Y07659D02*
X19744Y07659D01*
X19644Y07544D01*
X19686Y07544D01*
X19715Y07530D01*
X19729Y07516D01*
X19744Y07487D01*
X19744Y07416D01*
X19729Y07387D01*
X19715Y07373D01*
X19686Y07359D01*
X19601Y07359D01*
X19572Y07373D01*
X19558Y07387D01*
X19858Y07630D02*
X19872Y07644D01*
X19901Y07659D01*
X19972Y07659D01*
X20001Y07644D01*
X20015Y07630D01*
X20030Y07601D01*
X20030Y07573D01*
X20015Y07530D01*
X19844Y07359D01*
X20030Y07359D01*
X20330Y07359D02*
X20230Y07501D01*
X20158Y07359D02*
X20158Y07659D01*
X20273Y07659D01*
X20301Y07644D01*
X20316Y07630D01*
X20330Y07601D01*
X20330Y07559D01*
X20316Y07530D01*
X20301Y07516D01*
X20273Y07501D01*
X20158Y07501D01*
X20601Y07359D02*
X20458Y07359D01*
X20458Y07659D01*
X13349Y14839D02*
X13361Y14827D01*
X13373Y14792D01*
X13373Y14768D01*
X13361Y14732D01*
X13337Y14708D01*
X13314Y14697D01*
X13266Y14685D01*
X13230Y14685D01*
X13183Y14697D01*
X13159Y14708D01*
X13135Y14732D01*
X13123Y14768D01*
X13123Y14792D01*
X13135Y14827D01*
X13147Y14839D01*
X13123Y14923D02*
X13123Y15077D01*
X13218Y14994D01*
X13218Y15030D01*
X13230Y15054D01*
X13242Y15066D01*
X13266Y15077D01*
X13326Y15077D01*
X13349Y15066D01*
X13361Y15054D01*
X13373Y15030D01*
X13373Y14958D01*
X13361Y14935D01*
X13349Y14923D01*
X16881Y14875D02*
X16893Y14863D01*
X16905Y14828D01*
X16905Y14804D01*
X16893Y14768D01*
X16869Y14744D01*
X16846Y14733D01*
X16798Y14721D01*
X16762Y14721D01*
X16715Y14733D01*
X16691Y14744D01*
X16667Y14768D01*
X16655Y14804D01*
X16655Y14828D01*
X16667Y14863D01*
X16679Y14875D01*
X16655Y15102D02*
X16655Y14983D01*
X16774Y14971D01*
X16762Y14983D01*
X16750Y15006D01*
X16750Y15066D01*
X16762Y15090D01*
X16774Y15102D01*
X16798Y15113D01*
X16858Y15113D01*
X16881Y15102D01*
X16893Y15090D01*
X16905Y15066D01*
X16905Y15006D01*
X16893Y14983D01*
X16881Y14971D01*
X02320Y14490D02*
X02308Y14478D01*
X02273Y14466D01*
X02249Y14466D01*
X02213Y14478D01*
X02189Y14502D01*
X02178Y14525D01*
X02166Y14573D01*
X02166Y14609D01*
X02178Y14656D01*
X02189Y14680D01*
X02213Y14704D01*
X02249Y14716D01*
X02273Y14716D01*
X02308Y14704D01*
X02320Y14692D01*
X02535Y14632D02*
X02535Y14466D01*
X02475Y14728D02*
X02416Y14549D01*
X02570Y14549D01*
X05076Y16065D02*
X05064Y16053D01*
X05029Y16041D01*
X05005Y16041D01*
X04969Y16053D01*
X04945Y16077D01*
X04934Y16100D01*
X04922Y16148D01*
X04922Y16184D01*
X04934Y16231D01*
X04945Y16255D01*
X04969Y16279D01*
X05005Y16291D01*
X05029Y16291D01*
X05064Y16279D01*
X05076Y16267D01*
X05291Y16291D02*
X05243Y16291D01*
X05219Y16279D01*
X05207Y16267D01*
X05184Y16231D01*
X05172Y16184D01*
X05172Y16088D01*
X05184Y16065D01*
X05195Y16053D01*
X05219Y16041D01*
X05267Y16041D01*
X05291Y16053D01*
X05303Y16065D01*
X05314Y16088D01*
X05314Y16148D01*
X05303Y16172D01*
X05291Y16184D01*
X05267Y16196D01*
X05219Y16196D01*
X05195Y16184D01*
X05184Y16172D01*
X05172Y16148D01*
X05076Y14490D02*
X05064Y14478D01*
X05029Y14466D01*
X05005Y14466D01*
X04969Y14478D01*
X04945Y14502D01*
X04934Y14525D01*
X04922Y14573D01*
X04922Y14609D01*
X04934Y14656D01*
X04945Y14680D01*
X04969Y14704D01*
X05005Y14716D01*
X05029Y14716D01*
X05064Y14704D01*
X05076Y14692D01*
X05314Y14466D02*
X05172Y14466D01*
X05243Y14466D02*
X05243Y14716D01*
X05219Y14680D01*
X05195Y14656D01*
X05172Y14644D01*
X25549Y09077D02*
X25537Y09065D01*
X25502Y09053D01*
X25478Y09053D01*
X25442Y09065D01*
X25418Y09089D01*
X25407Y09112D01*
X25395Y09160D01*
X25395Y09196D01*
X25407Y09243D01*
X25418Y09267D01*
X25442Y09291D01*
X25478Y09303D01*
X25502Y09303D01*
X25537Y09291D01*
X25549Y09279D01*
X25645Y09279D02*
X25657Y09291D01*
X25680Y09303D01*
X25740Y09303D01*
X25764Y09291D01*
X25776Y09279D01*
X25787Y09255D01*
X25787Y09231D01*
X25776Y09196D01*
X25633Y09053D01*
X25787Y09053D01*
X02439Y16100D02*
X02451Y16088D01*
X02463Y16053D01*
X02463Y16029D01*
X02451Y15993D01*
X02427Y15969D01*
X02404Y15958D01*
X02356Y15946D01*
X02320Y15946D01*
X02273Y15958D01*
X02249Y15969D01*
X02225Y15993D01*
X02213Y16029D01*
X02213Y16053D01*
X02225Y16088D01*
X02237Y16100D01*
X02213Y16184D02*
X02213Y16350D01*
X02463Y16243D01*
X20746Y11218D02*
X20758Y11206D01*
X20770Y11171D01*
X20770Y11147D01*
X20758Y11111D01*
X20734Y11087D01*
X20711Y11076D01*
X20663Y11064D01*
X20627Y11064D01*
X20580Y11076D01*
X20556Y11087D01*
X20532Y11111D01*
X20520Y11147D01*
X20520Y11171D01*
X20532Y11206D01*
X20544Y11218D01*
X20627Y11361D02*
X20615Y11337D01*
X20604Y11326D01*
X20580Y11314D01*
X20568Y11314D01*
X20544Y11326D01*
X20532Y11337D01*
X20520Y11361D01*
X20520Y11409D01*
X20532Y11433D01*
X20544Y11445D01*
X20568Y11456D01*
X20580Y11456D01*
X20604Y11445D01*
X20615Y11433D01*
X20627Y11409D01*
X20627Y11361D01*
X20639Y11337D01*
X20651Y11326D01*
X20675Y11314D01*
X20723Y11314D01*
X20746Y11326D01*
X20758Y11337D01*
X20770Y11361D01*
X20770Y11409D01*
X20758Y11433D01*
X20746Y11445D01*
X20723Y11456D01*
X20675Y11456D01*
X20651Y11445D01*
X20639Y11433D01*
X20627Y11409D01*
G54D10*
X06077Y19527D02*
X06077Y19827D01*
X06192Y19827D01*
X06220Y19812D01*
X06235Y19798D01*
X06249Y19769D01*
X06249Y19727D01*
X06235Y19698D01*
X06220Y19684D01*
X06192Y19669D01*
X06077Y19669D01*
X06349Y19827D02*
X06549Y19827D01*
X06420Y19527D01*
X01746Y19527D02*
X01746Y19827D01*
X01861Y19827D01*
X01889Y19812D01*
X01904Y19798D01*
X01918Y19769D01*
X01918Y19727D01*
X01904Y19698D01*
X01889Y19684D01*
X01861Y19669D01*
X01746Y19669D01*
X02175Y19827D02*
X02118Y19827D01*
X02089Y19812D01*
X02075Y19798D01*
X02046Y19755D01*
X02032Y19698D01*
X02032Y19584D01*
X02046Y19555D01*
X02061Y19541D01*
X02089Y19527D01*
X02146Y19527D01*
X02175Y19541D01*
X02189Y19555D01*
X02204Y19584D01*
X02204Y19655D01*
X02189Y19684D01*
X02175Y19698D01*
X02146Y19712D01*
X02089Y19712D01*
X02061Y19698D01*
X02046Y19684D01*
X02032Y19655D01*
X11983Y01810D02*
X11983Y02110D01*
X12098Y02110D01*
X12126Y02095D01*
X12141Y02081D01*
X12155Y02052D01*
X12155Y02010D01*
X12141Y01981D01*
X12126Y01967D01*
X12098Y01952D01*
X11983Y01952D01*
X12255Y02110D02*
X12441Y02110D01*
X12341Y01995D01*
X12383Y01995D01*
X12412Y01981D01*
X12426Y01967D01*
X12441Y01938D01*
X12441Y01867D01*
X12426Y01838D01*
X12412Y01824D01*
X12383Y01810D01*
X12298Y01810D01*
X12269Y01824D01*
X12255Y01838D01*
G54D13*
X17228Y05325D02*
X17571Y05325D01*
X17400Y04725D02*
X17400Y05325D01*
X17857Y04725D02*
X17799Y04754D01*
X17771Y04782D01*
X17742Y04839D01*
X17742Y05011D01*
X17771Y05068D01*
X17799Y05097D01*
X17857Y05125D01*
X17942Y05125D01*
X17999Y05097D01*
X18028Y05068D01*
X18057Y05011D01*
X18057Y04839D01*
X18028Y04782D01*
X17999Y04754D01*
X17942Y04725D01*
X17857Y04725D01*
X19114Y04725D02*
X18914Y05011D01*
X18771Y04725D02*
X18771Y05325D01*
X18999Y05325D01*
X19057Y05297D01*
X19085Y05268D01*
X19114Y05211D01*
X19114Y05125D01*
X19085Y05068D01*
X19057Y05039D01*
X18999Y05011D01*
X18771Y05011D01*
X19457Y04725D02*
X19399Y04754D01*
X19371Y04782D01*
X19342Y04839D01*
X19342Y05011D01*
X19371Y05068D01*
X19399Y05097D01*
X19457Y05125D01*
X19542Y05125D01*
X19599Y05097D01*
X19628Y05068D01*
X19657Y05011D01*
X19657Y04839D01*
X19628Y04782D01*
X19599Y04754D01*
X19542Y04725D01*
X19457Y04725D01*
X20000Y04725D02*
X19942Y04754D01*
X19914Y04782D01*
X19885Y04839D01*
X19885Y05011D01*
X19914Y05068D01*
X19942Y05097D01*
X20000Y05125D01*
X20085Y05125D01*
X20142Y05097D01*
X20171Y05068D01*
X20200Y05011D01*
X20200Y04839D01*
X20171Y04782D01*
X20142Y04754D01*
X20085Y04725D01*
X20000Y04725D01*
X20457Y04725D02*
X20457Y05125D01*
X20457Y05068D02*
X20485Y05097D01*
X20543Y05125D01*
X20628Y05125D01*
X20685Y05097D01*
X20714Y05039D01*
X20714Y04725D01*
X20714Y05039D02*
X20743Y05097D01*
X20800Y05125D01*
X20885Y05125D01*
X20943Y05097D01*
X20971Y05039D01*
X20971Y04725D01*
X21257Y04725D02*
X21257Y05325D01*
X21257Y05097D02*
X21314Y05125D01*
X21428Y05125D01*
X21485Y05097D01*
X21514Y05068D01*
X21543Y05011D01*
X21543Y04839D01*
X21514Y04782D01*
X21485Y04754D01*
X21428Y04725D01*
X21314Y04725D01*
X21257Y04754D01*
X22057Y04725D02*
X22057Y05039D01*
X22028Y05097D01*
X21971Y05125D01*
X21857Y05125D01*
X21800Y05097D01*
X22057Y04754D02*
X22000Y04725D01*
X21857Y04725D01*
X21800Y04754D01*
X21771Y04811D01*
X21771Y04868D01*
X21800Y04925D01*
X21857Y04954D01*
X22000Y04954D01*
X22057Y04982D01*
G54D14*
X12407Y07972D02*
X11907Y07972D01*
X11907Y08067D01*
X11931Y08125D01*
X11979Y08163D01*
X12026Y08182D01*
X12122Y08201D01*
X12193Y08201D01*
X12288Y08182D01*
X12336Y08163D01*
X12384Y08125D01*
X12407Y08067D01*
X12407Y07972D01*
X12407Y08582D02*
X12407Y08353D01*
X12407Y08467D02*
X11907Y08467D01*
X11979Y08429D01*
X12026Y08391D01*
X12050Y08353D01*
G54D11*
X18209Y18348D02*
X18209Y18748D01*
X18362Y18748D01*
X18400Y18729D01*
X18419Y18710D01*
X18438Y18672D01*
X18438Y18615D01*
X18419Y18577D01*
X18400Y18558D01*
X18362Y18539D01*
X18209Y18539D01*
X18781Y18615D02*
X18781Y18348D01*
X18685Y18767D02*
X18590Y18481D01*
X18838Y18481D01*
G54D13*
G54D11*
X11122Y18348D02*
X11122Y18748D01*
X11275Y18748D01*
X11313Y18729D01*
X11332Y18710D01*
X11351Y18672D01*
X11351Y18615D01*
X11332Y18577D01*
X11313Y18558D01*
X11275Y18539D01*
X11122Y18539D01*
X11713Y18748D02*
X11522Y18748D01*
X11503Y18558D01*
X11522Y18577D01*
X11560Y18596D01*
X11656Y18596D01*
X11694Y18577D01*
X11713Y18558D01*
X11732Y18520D01*
X11732Y18424D01*
X11713Y18386D01*
X11694Y18367D01*
X11656Y18348D01*
X11560Y18348D01*
X11522Y18367D01*
X11503Y18386D01*
G54D13*
M02*
