G04 (created by PCBNEW-RS274X (2011-nov-30)-testing) date Wed 06 Jun 2012 06:30:39 PM EDT*
%MOIN*%
G04 Gerber Fmt 3.4, Leading zero omitted, Abs format*
%FSLAX34Y34*%
G01*
G70*
G90*
G04 APERTURE LIST*
%ADD10C,0.006*%
%ADD11C,0.0109*%
%ADD12C,0.0079*%
%ADD13C,0.015*%
%ADD14C,0.011*%
%ADD15C,0.005*%
%ADD16C,0.0078*%
%ADD17C,0.012*%
%ADD18C,0.0069*%
%ADD19C,0.0098*%
%ADD20C,0.0062*%
%ADD21C,0.008*%
G04 APERTURE END LIST*
G54D10*
G54D11*
X28695Y-4492D02*
X29876Y-4492D01*
X29876Y-4492D02*
X29876Y-3410D01*
X26530Y-3410D02*
X26530Y-4492D01*
X26530Y-4492D02*
X27711Y-4492D01*
X28695Y-752D02*
X28892Y-752D01*
X28892Y-752D02*
X28892Y-1047D01*
X28892Y-1047D02*
X29876Y-1047D01*
X29876Y-1047D02*
X29876Y-2228D01*
X26530Y-2228D02*
X26530Y-1047D01*
X26530Y-1047D02*
X27514Y-1047D01*
X27514Y-1047D02*
X27514Y-752D01*
X27514Y-752D02*
X27711Y-752D01*
X15462Y-4500D02*
X15462Y-2138D01*
X10344Y-2138D02*
X10344Y-4500D01*
G54D12*
X15458Y-4519D02*
X10348Y-4519D01*
X10348Y-2119D02*
X15458Y-2119D01*
G54D11*
X8083Y-5489D02*
X8378Y-5194D01*
X5524Y-5489D02*
X5229Y-5194D01*
X5229Y-5193D02*
X5229Y-4308D01*
X5524Y-5430D02*
X8082Y-5430D01*
X8377Y-5193D02*
X8377Y-4308D01*
X8378Y-4308D02*
X8378Y-4406D01*
G54D13*
X5229Y-3019D02*
X5229Y-1720D01*
X5229Y-1720D02*
X8377Y-1720D01*
X8377Y-1720D02*
X8377Y-3019D01*
G54D14*
X33011Y9238D02*
X33995Y9238D01*
G54D11*
X33995Y9239D02*
X33995Y16323D01*
G54D14*
X33995Y16323D02*
X33011Y16323D01*
G54D11*
X33011Y16323D02*
X33011Y9239D01*
G54D10*
X37490Y15459D02*
X35916Y15459D01*
X35916Y15459D02*
X35916Y20103D01*
X35916Y20103D02*
X37490Y20103D01*
X37490Y20103D02*
X37490Y15459D01*
G54D11*
X19216Y19414D02*
X11342Y19414D01*
X26303Y19414D02*
X20397Y19414D01*
X2287Y19414D02*
X10260Y19414D01*
X2287Y418D02*
X2287Y18331D01*
X12228Y1402D02*
X4354Y1402D01*
X21283Y1402D02*
X13311Y1402D01*
X29846Y1402D02*
X21972Y1402D01*
G54D13*
X22422Y-2138D02*
X22422Y-4697D01*
X22422Y-4697D02*
X24784Y-4697D01*
X24784Y-4697D02*
X24784Y-2138D01*
X24784Y-2138D02*
X22422Y-2138D01*
X19703Y-4719D02*
X19703Y-2219D01*
X19703Y-2219D02*
X20203Y-2219D01*
X20203Y-2219D02*
X20203Y-219D01*
X20203Y-219D02*
X17203Y-219D01*
X17203Y-219D02*
X17203Y-2219D01*
X17203Y-2219D02*
X17703Y-2219D01*
X17703Y-2219D02*
X17703Y-4719D01*
X17703Y-4719D02*
X19703Y-4719D01*
G54D15*
X38695Y3506D02*
X38695Y8306D01*
X38695Y8306D02*
X31995Y8306D01*
X31995Y8306D02*
X31995Y3506D01*
X31995Y3506D02*
X38695Y3506D01*
X32344Y14031D02*
X32341Y14004D01*
X32333Y13978D01*
X32320Y13953D01*
X32303Y13932D01*
X32281Y13915D01*
X32257Y13902D01*
X32231Y13893D01*
X32203Y13891D01*
X32177Y13893D01*
X32151Y13901D01*
X32126Y13914D01*
X32105Y13931D01*
X32087Y13952D01*
X32074Y13976D01*
X32066Y14002D01*
X32063Y14030D01*
X32065Y14056D01*
X32072Y14082D01*
X32085Y14107D01*
X32102Y14128D01*
X32123Y14146D01*
X32147Y14160D01*
X32173Y14168D01*
X32201Y14171D01*
X32227Y14169D01*
X32253Y14162D01*
X32278Y14150D01*
X32300Y14133D01*
X32318Y14112D01*
X32331Y14088D01*
X32340Y14062D01*
X32343Y14034D01*
X32344Y14031D01*
X32403Y12931D02*
X32103Y12931D01*
X32103Y12931D02*
X32103Y13431D01*
X32103Y13431D02*
X32403Y13431D01*
X28353Y14231D02*
X32403Y14231D01*
X32403Y12131D02*
X28353Y12131D01*
X32403Y12131D02*
X32403Y14231D01*
X28353Y12131D02*
X28353Y14231D01*
G54D13*
X1122Y-1538D02*
X1122Y-4097D01*
X1122Y-4097D02*
X3484Y-4097D01*
X3484Y-4097D02*
X3484Y-1538D01*
X3484Y-1538D02*
X1122Y-1538D01*
X22047Y18308D02*
X27165Y18308D01*
X27165Y18308D02*
X27165Y9056D01*
X27165Y9056D02*
X25590Y9056D01*
X22047Y18308D02*
X16929Y18308D01*
X16929Y18308D02*
X16929Y9056D01*
X16929Y9056D02*
X18504Y9056D01*
X18504Y9056D02*
X18701Y9056D01*
X10235Y18308D02*
X15353Y18308D01*
X15353Y18308D02*
X15353Y9056D01*
X15353Y9056D02*
X13778Y9056D01*
X10235Y18308D02*
X5117Y18308D01*
X5117Y18308D02*
X5117Y9056D01*
X5117Y9056D02*
X6692Y9056D01*
X6692Y9056D02*
X6889Y9056D01*
X38084Y-554D02*
X35801Y-554D01*
X38084Y-593D02*
X38084Y-5317D01*
X38084Y-5317D02*
X35801Y-5317D01*
X35801Y-5317D02*
X35801Y-554D01*
X38084Y-4333D02*
X38084Y-1380D01*
X35801Y-554D02*
X35801Y-5239D01*
X35800Y-1341D02*
X35800Y-4766D01*
G54D10*
X29303Y9181D02*
X30303Y9181D01*
X30303Y9181D02*
X30303Y6181D01*
X30303Y6181D02*
X29303Y6181D01*
X29303Y6181D02*
X29303Y9181D01*
X30303Y8181D02*
X29303Y8181D01*
G54D15*
X13194Y-38D02*
X13193Y-47D01*
X13190Y-57D01*
X13185Y-65D01*
X13179Y-73D01*
X13171Y-79D01*
X13163Y-84D01*
X13154Y-86D01*
X13144Y-87D01*
X13135Y-87D01*
X13126Y-84D01*
X13117Y-79D01*
X13110Y-73D01*
X13103Y-66D01*
X13099Y-57D01*
X13096Y-48D01*
X13095Y-38D01*
X13095Y-29D01*
X13098Y-20D01*
X13102Y-11D01*
X13109Y-4D01*
X13116Y3D01*
X13124Y7D01*
X13134Y10D01*
X13143Y11D01*
X13152Y11D01*
X13162Y8D01*
X13170Y4D01*
X13178Y-2D01*
X13184Y-10D01*
X13189Y-18D01*
X13192Y-27D01*
X13193Y-37D01*
X13194Y-38D01*
X13144Y-488D02*
X13144Y-88D01*
X13144Y-88D02*
X13744Y-88D01*
X13744Y-88D02*
X13744Y-488D01*
X13744Y-888D02*
X13744Y-1288D01*
X13744Y-1288D02*
X13144Y-1288D01*
X13144Y-1288D02*
X13144Y-888D01*
X12101Y-9D02*
X12100Y-18D01*
X12097Y-28D01*
X12092Y-36D01*
X12086Y-44D01*
X12078Y-50D01*
X12070Y-55D01*
X12061Y-57D01*
X12051Y-58D01*
X12042Y-58D01*
X12033Y-55D01*
X12024Y-50D01*
X12017Y-44D01*
X12010Y-37D01*
X12006Y-28D01*
X12003Y-19D01*
X12002Y-9D01*
X12002Y0D01*
X12005Y9D01*
X12009Y18D01*
X12016Y25D01*
X12023Y32D01*
X12031Y36D01*
X12041Y39D01*
X12050Y40D01*
X12059Y40D01*
X12069Y37D01*
X12077Y33D01*
X12085Y27D01*
X12091Y19D01*
X12096Y11D01*
X12099Y2D01*
X12100Y-8D01*
X12101Y-9D01*
X12051Y-459D02*
X12051Y-59D01*
X12051Y-59D02*
X12651Y-59D01*
X12651Y-59D02*
X12651Y-459D01*
X12651Y-859D02*
X12651Y-1259D01*
X12651Y-1259D02*
X12051Y-1259D01*
X12051Y-1259D02*
X12051Y-859D01*
G54D10*
X25103Y-319D02*
X25103Y-1319D01*
X25103Y-1319D02*
X22103Y-1319D01*
X22103Y-1319D02*
X22103Y-319D01*
X22103Y-319D02*
X25103Y-319D01*
X24103Y-1319D02*
X24103Y-319D01*
G54D13*
X19684Y5907D02*
X19291Y5907D01*
X19291Y5907D02*
X18897Y5513D01*
X18897Y5513D02*
X18897Y3545D01*
X18897Y3545D02*
X19684Y3545D01*
X20472Y3545D02*
X21259Y3545D01*
X21259Y3545D02*
X21259Y5513D01*
X21259Y5513D02*
X20865Y5907D01*
X20865Y5907D02*
X20472Y5907D01*
G54D16*
X21062Y4726D02*
X21043Y4535D01*
X20987Y4352D01*
X20897Y4182D01*
X20776Y4033D01*
X20628Y3911D01*
X20459Y3819D01*
X20275Y3763D01*
X20084Y3743D01*
X19894Y3760D01*
X19710Y3814D01*
X19540Y3903D01*
X19390Y4023D01*
X19267Y4171D01*
X19174Y4339D01*
X19116Y4522D01*
X19095Y4713D01*
X19111Y4903D01*
X19164Y5088D01*
X19251Y5259D01*
X19371Y5409D01*
X19517Y5534D01*
X19685Y5627D01*
X19867Y5687D01*
X20058Y5709D01*
X20248Y5695D01*
X20433Y5643D01*
X20605Y5556D01*
X20756Y5438D01*
X20882Y5293D01*
X20976Y5126D01*
X21037Y4944D01*
X21061Y4753D01*
X21062Y4726D01*
G54D13*
X7873Y5907D02*
X7480Y5907D01*
X7480Y5907D02*
X7086Y5513D01*
X7086Y5513D02*
X7086Y3545D01*
X7086Y3545D02*
X7873Y3545D01*
X8661Y3545D02*
X9448Y3545D01*
X9448Y3545D02*
X9448Y5513D01*
X9448Y5513D02*
X9054Y5907D01*
X9054Y5907D02*
X8661Y5907D01*
G54D16*
X9251Y4726D02*
X9232Y4535D01*
X9176Y4352D01*
X9086Y4182D01*
X8965Y4033D01*
X8817Y3911D01*
X8648Y3819D01*
X8464Y3763D01*
X8273Y3743D01*
X8083Y3760D01*
X7899Y3814D01*
X7729Y3903D01*
X7579Y4023D01*
X7456Y4171D01*
X7363Y4339D01*
X7305Y4522D01*
X7284Y4713D01*
X7300Y4903D01*
X7353Y5088D01*
X7440Y5259D01*
X7560Y5409D01*
X7706Y5534D01*
X7874Y5627D01*
X8056Y5687D01*
X8247Y5709D01*
X8437Y5695D01*
X8622Y5643D01*
X8794Y5556D01*
X8945Y5438D01*
X9071Y5293D01*
X9165Y5126D01*
X9226Y4944D01*
X9250Y4753D01*
X9251Y4726D01*
G54D15*
X15104Y5376D02*
X15103Y5367D01*
X15100Y5357D01*
X15095Y5349D01*
X15089Y5341D01*
X15081Y5335D01*
X15073Y5330D01*
X15064Y5328D01*
X15054Y5327D01*
X15045Y5327D01*
X15036Y5330D01*
X15027Y5335D01*
X15020Y5341D01*
X15013Y5348D01*
X15009Y5357D01*
X15006Y5366D01*
X15005Y5376D01*
X15005Y5385D01*
X15008Y5394D01*
X15012Y5403D01*
X15019Y5410D01*
X15026Y5417D01*
X15034Y5421D01*
X15044Y5424D01*
X15053Y5425D01*
X15062Y5425D01*
X15072Y5422D01*
X15080Y5418D01*
X15088Y5412D01*
X15094Y5404D01*
X15099Y5396D01*
X15102Y5387D01*
X15103Y5377D01*
X15104Y5376D01*
X15054Y4926D02*
X15054Y5326D01*
X15054Y5326D02*
X15654Y5326D01*
X15654Y5326D02*
X15654Y4926D01*
X15654Y4526D02*
X15654Y4126D01*
X15654Y4126D02*
X15054Y4126D01*
X15054Y4126D02*
X15054Y4526D01*
X29403Y10781D02*
X29402Y10772D01*
X29399Y10762D01*
X29394Y10754D01*
X29388Y10746D01*
X29380Y10740D01*
X29372Y10735D01*
X29363Y10733D01*
X29353Y10732D01*
X29344Y10732D01*
X29335Y10735D01*
X29326Y10740D01*
X29319Y10746D01*
X29312Y10753D01*
X29308Y10762D01*
X29305Y10771D01*
X29304Y10781D01*
X29304Y10790D01*
X29307Y10799D01*
X29311Y10808D01*
X29318Y10815D01*
X29325Y10822D01*
X29333Y10826D01*
X29343Y10829D01*
X29352Y10830D01*
X29361Y10830D01*
X29371Y10827D01*
X29379Y10823D01*
X29387Y10817D01*
X29393Y10809D01*
X29398Y10801D01*
X29401Y10792D01*
X29402Y10782D01*
X29403Y10781D01*
X28903Y10781D02*
X29303Y10781D01*
X29303Y10781D02*
X29303Y10181D01*
X29303Y10181D02*
X28903Y10181D01*
X28503Y10181D02*
X28103Y10181D01*
X28103Y10181D02*
X28103Y10781D01*
X28103Y10781D02*
X28503Y10781D01*
X30003Y10081D02*
X30002Y10072D01*
X29999Y10062D01*
X29994Y10054D01*
X29988Y10046D01*
X29980Y10040D01*
X29972Y10035D01*
X29963Y10033D01*
X29953Y10032D01*
X29944Y10032D01*
X29935Y10035D01*
X29926Y10040D01*
X29919Y10046D01*
X29912Y10053D01*
X29908Y10062D01*
X29905Y10071D01*
X29904Y10081D01*
X29904Y10090D01*
X29907Y10099D01*
X29911Y10108D01*
X29918Y10115D01*
X29925Y10122D01*
X29933Y10126D01*
X29943Y10129D01*
X29952Y10130D01*
X29961Y10130D01*
X29971Y10127D01*
X29979Y10123D01*
X29987Y10117D01*
X29993Y10109D01*
X29998Y10101D01*
X30001Y10092D01*
X30002Y10082D01*
X30003Y10081D01*
X30403Y10081D02*
X30003Y10081D01*
X30003Y10081D02*
X30003Y10681D01*
X30003Y10681D02*
X30403Y10681D01*
X30803Y10681D02*
X31203Y10681D01*
X31203Y10681D02*
X31203Y10081D01*
X31203Y10081D02*
X30803Y10081D01*
G54D13*
X11810Y5907D02*
X11417Y5907D01*
X11417Y5907D02*
X11023Y5513D01*
X11023Y5513D02*
X11023Y3545D01*
X11023Y3545D02*
X11810Y3545D01*
X12598Y3545D02*
X13385Y3545D01*
X13385Y3545D02*
X13385Y5513D01*
X13385Y5513D02*
X12991Y5907D01*
X12991Y5907D02*
X12598Y5907D01*
G54D16*
X13188Y4726D02*
X13169Y4535D01*
X13113Y4352D01*
X13023Y4182D01*
X12902Y4033D01*
X12754Y3911D01*
X12585Y3819D01*
X12401Y3763D01*
X12210Y3743D01*
X12020Y3760D01*
X11836Y3814D01*
X11666Y3903D01*
X11516Y4023D01*
X11393Y4171D01*
X11300Y4339D01*
X11242Y4522D01*
X11221Y4713D01*
X11237Y4903D01*
X11290Y5088D01*
X11377Y5259D01*
X11497Y5409D01*
X11643Y5534D01*
X11811Y5627D01*
X11993Y5687D01*
X12184Y5709D01*
X12374Y5695D01*
X12559Y5643D01*
X12731Y5556D01*
X12882Y5438D01*
X13008Y5293D01*
X13102Y5126D01*
X13163Y4944D01*
X13187Y4753D01*
X13188Y4726D01*
G54D15*
X31053Y18431D02*
X31033Y18237D01*
X30977Y18050D01*
X30885Y17878D01*
X30762Y17727D01*
X30612Y17602D01*
X30440Y17510D01*
X30254Y17452D01*
X30059Y17432D01*
X29866Y17449D01*
X29679Y17504D01*
X29506Y17595D01*
X29354Y17717D01*
X29228Y17867D01*
X29134Y18038D01*
X29075Y18224D01*
X29054Y18418D01*
X29070Y18611D01*
X29124Y18799D01*
X29213Y18972D01*
X29334Y19125D01*
X29483Y19252D01*
X29653Y19347D01*
X29839Y19407D01*
X30033Y19430D01*
X30226Y19415D01*
X30414Y19363D01*
X30588Y19275D01*
X30742Y19155D01*
X30870Y19007D01*
X30966Y18837D01*
X31028Y18652D01*
X31052Y18458D01*
X31053Y18431D01*
X31553Y16931D02*
X28553Y16931D01*
X28553Y16931D02*
X28553Y19931D01*
X28553Y19931D02*
X31553Y19931D01*
X31553Y16931D02*
X31553Y19931D01*
G54D13*
X23621Y5907D02*
X23228Y5907D01*
X23228Y5907D02*
X22834Y5513D01*
X22834Y5513D02*
X22834Y3545D01*
X22834Y3545D02*
X23621Y3545D01*
X24409Y3545D02*
X25196Y3545D01*
X25196Y3545D02*
X25196Y5513D01*
X25196Y5513D02*
X24802Y5907D01*
X24802Y5907D02*
X24409Y5907D01*
G54D16*
X24999Y4726D02*
X24980Y4535D01*
X24924Y4352D01*
X24834Y4182D01*
X24713Y4033D01*
X24565Y3911D01*
X24396Y3819D01*
X24212Y3763D01*
X24021Y3743D01*
X23831Y3760D01*
X23647Y3814D01*
X23477Y3903D01*
X23327Y4023D01*
X23204Y4171D01*
X23111Y4339D01*
X23053Y4522D01*
X23032Y4713D01*
X23048Y4903D01*
X23101Y5088D01*
X23188Y5259D01*
X23308Y5409D01*
X23454Y5534D01*
X23622Y5627D01*
X23804Y5687D01*
X23995Y5709D01*
X24185Y5695D01*
X24370Y5643D01*
X24542Y5556D01*
X24693Y5438D01*
X24819Y5293D01*
X24913Y5126D01*
X24974Y4944D01*
X24998Y4753D01*
X24999Y4726D01*
G54D15*
X26915Y5376D02*
X26914Y5367D01*
X26911Y5357D01*
X26906Y5349D01*
X26900Y5341D01*
X26892Y5335D01*
X26884Y5330D01*
X26875Y5328D01*
X26865Y5327D01*
X26856Y5327D01*
X26847Y5330D01*
X26838Y5335D01*
X26831Y5341D01*
X26824Y5348D01*
X26820Y5357D01*
X26817Y5366D01*
X26816Y5376D01*
X26816Y5385D01*
X26819Y5394D01*
X26823Y5403D01*
X26830Y5410D01*
X26837Y5417D01*
X26845Y5421D01*
X26855Y5424D01*
X26864Y5425D01*
X26873Y5425D01*
X26883Y5422D01*
X26891Y5418D01*
X26899Y5412D01*
X26905Y5404D01*
X26910Y5396D01*
X26913Y5387D01*
X26914Y5377D01*
X26915Y5376D01*
X26865Y4926D02*
X26865Y5326D01*
X26865Y5326D02*
X27465Y5326D01*
X27465Y5326D02*
X27465Y4926D01*
X27465Y4526D02*
X27465Y4126D01*
X27465Y4126D02*
X26865Y4126D01*
X26865Y4126D02*
X26865Y4526D01*
G54D11*
X33695Y-4492D02*
X34876Y-4492D01*
X34876Y-4492D02*
X34876Y-3410D01*
X31530Y-3410D02*
X31530Y-4492D01*
X31530Y-4492D02*
X32711Y-4492D01*
X33695Y-752D02*
X33892Y-752D01*
X33892Y-752D02*
X33892Y-1047D01*
X33892Y-1047D02*
X34876Y-1047D01*
X34876Y-1047D02*
X34876Y-2228D01*
X31530Y-2228D02*
X31530Y-1047D01*
X31530Y-1047D02*
X32514Y-1047D01*
X32514Y-1047D02*
X32514Y-752D01*
X32514Y-752D02*
X32711Y-752D01*
G54D15*
X29156Y-581D02*
X28927Y-581D01*
X29041Y-581D02*
X29041Y-181D01*
X29003Y-238D01*
X28965Y-276D01*
X28927Y-295D01*
X29308Y-219D02*
X29327Y-200D01*
X29365Y-181D01*
X29461Y-181D01*
X29499Y-200D01*
X29518Y-219D01*
X29537Y-257D01*
X29537Y-295D01*
X29518Y-352D01*
X29289Y-581D01*
X29537Y-581D01*
X29651Y-181D02*
X29784Y-581D01*
X29918Y-181D01*
G54D17*
X29026Y-4754D02*
X28969Y-4726D01*
X28883Y-4726D01*
X28798Y-4754D01*
X28740Y-4812D01*
X28712Y-4869D01*
X28683Y-4983D01*
X28683Y-5069D01*
X28712Y-5183D01*
X28740Y-5240D01*
X28798Y-5297D01*
X28883Y-5326D01*
X28940Y-5326D01*
X29026Y-5297D01*
X29055Y-5269D01*
X29055Y-5069D01*
X28940Y-5069D01*
X29312Y-5326D02*
X29312Y-4726D01*
X29655Y-5326D01*
X29655Y-4726D01*
X29941Y-5326D02*
X29941Y-4726D01*
X30084Y-4726D01*
X30169Y-4754D01*
X30227Y-4812D01*
X30255Y-4869D01*
X30284Y-4983D01*
X30284Y-5069D01*
X30255Y-5183D01*
X30227Y-5240D01*
X30169Y-5297D01*
X30084Y-5326D01*
X29941Y-5326D01*
G54D12*
X10402Y-1581D02*
X10535Y-1981D01*
X10669Y-1581D01*
X10859Y-1981D02*
X10821Y-1962D01*
X10802Y-1943D01*
X10783Y-1905D01*
X10783Y-1790D01*
X10802Y-1752D01*
X10821Y-1733D01*
X10859Y-1714D01*
X10917Y-1714D01*
X10955Y-1733D01*
X10974Y-1752D01*
X10993Y-1790D01*
X10993Y-1905D01*
X10974Y-1943D01*
X10955Y-1962D01*
X10917Y-1981D01*
X10859Y-1981D01*
X11221Y-1981D02*
X11183Y-1962D01*
X11164Y-1924D01*
X11164Y-1581D01*
X11908Y-1981D02*
X11774Y-1790D01*
X11679Y-1981D02*
X11679Y-1581D01*
X11832Y-1581D01*
X11870Y-1600D01*
X11889Y-1619D01*
X11908Y-1657D01*
X11908Y-1714D01*
X11889Y-1752D01*
X11870Y-1771D01*
X11832Y-1790D01*
X11679Y-1790D01*
X12232Y-1962D02*
X12194Y-1981D01*
X12117Y-1981D01*
X12079Y-1962D01*
X12060Y-1924D01*
X12060Y-1771D01*
X12079Y-1733D01*
X12117Y-1714D01*
X12194Y-1714D01*
X12232Y-1733D01*
X12251Y-1771D01*
X12251Y-1809D01*
X12060Y-1848D01*
X12594Y-1714D02*
X12594Y-2038D01*
X12575Y-2076D01*
X12556Y-2095D01*
X12517Y-2114D01*
X12460Y-2114D01*
X12422Y-2095D01*
X12594Y-1962D02*
X12556Y-1981D01*
X12479Y-1981D01*
X12441Y-1962D01*
X12422Y-1943D01*
X12403Y-1905D01*
X12403Y-1790D01*
X12422Y-1752D01*
X12441Y-1733D01*
X12479Y-1714D01*
X12556Y-1714D01*
X12594Y-1733D01*
X13089Y-1771D02*
X13223Y-1771D01*
X13280Y-1981D02*
X13089Y-1981D01*
X13089Y-1581D01*
X13280Y-1581D01*
X13451Y-1714D02*
X13451Y-1981D01*
X13451Y-1752D02*
X13470Y-1733D01*
X13508Y-1714D01*
X13566Y-1714D01*
X13604Y-1733D01*
X13623Y-1771D01*
X13623Y-1981D01*
X13985Y-1981D02*
X13985Y-1771D01*
X13966Y-1733D01*
X13928Y-1714D01*
X13851Y-1714D01*
X13813Y-1733D01*
X13985Y-1962D02*
X13947Y-1981D01*
X13851Y-1981D01*
X13813Y-1962D01*
X13794Y-1924D01*
X13794Y-1886D01*
X13813Y-1848D01*
X13851Y-1829D01*
X13947Y-1829D01*
X13985Y-1809D01*
X14175Y-1981D02*
X14175Y-1581D01*
X14175Y-1733D02*
X14213Y-1714D01*
X14290Y-1714D01*
X14328Y-1733D01*
X14347Y-1752D01*
X14366Y-1790D01*
X14366Y-1905D01*
X14347Y-1943D01*
X14328Y-1962D01*
X14290Y-1981D01*
X14213Y-1981D01*
X14175Y-1962D01*
X14594Y-1981D02*
X14556Y-1962D01*
X14537Y-1924D01*
X14537Y-1581D01*
X14900Y-1962D02*
X14862Y-1981D01*
X14785Y-1981D01*
X14747Y-1962D01*
X14728Y-1924D01*
X14728Y-1771D01*
X14747Y-1733D01*
X14785Y-1714D01*
X14862Y-1714D01*
X14900Y-1733D01*
X14919Y-1771D01*
X14919Y-1809D01*
X14728Y-1848D01*
X15090Y-1981D02*
X15090Y-1714D01*
X15090Y-1790D02*
X15109Y-1752D01*
X15128Y-1733D01*
X15166Y-1714D01*
X15205Y-1714D01*
X10964Y-4681D02*
X11041Y-4681D01*
X11079Y-4700D01*
X11117Y-4738D01*
X11136Y-4814D01*
X11136Y-4948D01*
X11117Y-5024D01*
X11079Y-5062D01*
X11041Y-5081D01*
X10964Y-5081D01*
X10926Y-5062D01*
X10888Y-5024D01*
X10869Y-4948D01*
X10869Y-4814D01*
X10888Y-4738D01*
X10926Y-4700D01*
X10964Y-4681D01*
X11307Y-5081D02*
X11307Y-4681D01*
X11536Y-5081D01*
X11536Y-4681D01*
X13632Y-4681D02*
X13709Y-4681D01*
X13747Y-4700D01*
X13785Y-4738D01*
X13804Y-4814D01*
X13804Y-4948D01*
X13785Y-5024D01*
X13747Y-5062D01*
X13709Y-5081D01*
X13632Y-5081D01*
X13594Y-5062D01*
X13556Y-5024D01*
X13537Y-4948D01*
X13537Y-4814D01*
X13556Y-4738D01*
X13594Y-4700D01*
X13632Y-4681D01*
X14109Y-4871D02*
X13975Y-4871D01*
X13975Y-5081D02*
X13975Y-4681D01*
X14166Y-4681D01*
X14452Y-4871D02*
X14318Y-4871D01*
X14318Y-5081D02*
X14318Y-4681D01*
X14509Y-4681D01*
X14947Y-4662D02*
X14604Y-5176D01*
X15061Y-4967D02*
X15252Y-4967D01*
X15023Y-5081D02*
X15156Y-4681D01*
X15290Y-5081D01*
X15423Y-5081D02*
X15423Y-4814D01*
X15423Y-4890D02*
X15442Y-4852D01*
X15461Y-4833D01*
X15499Y-4814D01*
X15538Y-4814D01*
X15843Y-5081D02*
X15843Y-4681D01*
X15843Y-5062D02*
X15805Y-5081D01*
X15728Y-5081D01*
X15690Y-5062D01*
X15671Y-5043D01*
X15652Y-5005D01*
X15652Y-4890D01*
X15671Y-4852D01*
X15690Y-4833D01*
X15728Y-4814D01*
X15805Y-4814D01*
X15843Y-4833D01*
X16205Y-4814D02*
X16205Y-5081D01*
X16033Y-4814D02*
X16033Y-5024D01*
X16052Y-5062D01*
X16090Y-5081D01*
X16148Y-5081D01*
X16186Y-5062D01*
X16205Y-5043D01*
X16395Y-5081D02*
X16395Y-4814D01*
X16395Y-4681D02*
X16376Y-4700D01*
X16395Y-4719D01*
X16414Y-4700D01*
X16395Y-4681D01*
X16395Y-4719D01*
X16585Y-4814D02*
X16585Y-5081D01*
X16585Y-4852D02*
X16604Y-4833D01*
X16642Y-4814D01*
X16700Y-4814D01*
X16738Y-4833D01*
X16757Y-4871D01*
X16757Y-5081D01*
X17004Y-5081D02*
X16966Y-5062D01*
X16947Y-5043D01*
X16928Y-5005D01*
X16928Y-4890D01*
X16947Y-4852D01*
X16966Y-4833D01*
X17004Y-4814D01*
X17062Y-4814D01*
X17100Y-4833D01*
X17119Y-4852D01*
X17138Y-4890D01*
X17138Y-5005D01*
X17119Y-5043D01*
X17100Y-5062D01*
X17062Y-5081D01*
X17004Y-5081D01*
G54D15*
X8769Y-4749D02*
X8578Y-4749D01*
X8559Y-4939D01*
X8578Y-4920D01*
X8616Y-4901D01*
X8712Y-4901D01*
X8750Y-4920D01*
X8769Y-4939D01*
X8788Y-4977D01*
X8788Y-5073D01*
X8769Y-5111D01*
X8750Y-5130D01*
X8712Y-5149D01*
X8616Y-5149D01*
X8578Y-5130D01*
X8559Y-5111D01*
X8902Y-4749D02*
X9035Y-5149D01*
X9169Y-4749D01*
X9683Y-4749D02*
X9760Y-4749D01*
X9798Y-4768D01*
X9836Y-4806D01*
X9855Y-4882D01*
X9855Y-5016D01*
X9836Y-5092D01*
X9798Y-5130D01*
X9760Y-5149D01*
X9683Y-5149D01*
X9645Y-5130D01*
X9607Y-5092D01*
X9588Y-5016D01*
X9588Y-4882D01*
X9607Y-4806D01*
X9645Y-4768D01*
X9683Y-4749D01*
X10026Y-4749D02*
X10026Y-5073D01*
X10045Y-5111D01*
X10064Y-5130D01*
X10102Y-5149D01*
X10179Y-5149D01*
X10217Y-5130D01*
X10236Y-5111D01*
X10255Y-5073D01*
X10255Y-4749D01*
X10388Y-4749D02*
X10617Y-4749D01*
X10502Y-5149D02*
X10502Y-4749D01*
G54D17*
G54D10*
X35351Y15962D02*
X35351Y16153D01*
X35465Y15924D02*
X35065Y16057D01*
X35465Y16191D01*
X35465Y16324D02*
X35198Y16324D01*
X35274Y16324D02*
X35236Y16343D01*
X35217Y16362D01*
X35198Y16400D01*
X35198Y16439D01*
X35465Y16744D02*
X35065Y16744D01*
X35446Y16744D02*
X35465Y16706D01*
X35465Y16629D01*
X35446Y16591D01*
X35427Y16572D01*
X35389Y16553D01*
X35274Y16553D01*
X35236Y16572D01*
X35217Y16591D01*
X35198Y16629D01*
X35198Y16706D01*
X35217Y16744D01*
X35198Y17106D02*
X35465Y17106D01*
X35198Y16934D02*
X35408Y16934D01*
X35446Y16953D01*
X35465Y16991D01*
X35465Y17049D01*
X35446Y17087D01*
X35427Y17106D01*
X35465Y17296D02*
X35198Y17296D01*
X35065Y17296D02*
X35084Y17277D01*
X35103Y17296D01*
X35084Y17315D01*
X35065Y17296D01*
X35103Y17296D01*
X35198Y17486D02*
X35465Y17486D01*
X35236Y17486D02*
X35217Y17505D01*
X35198Y17543D01*
X35198Y17601D01*
X35217Y17639D01*
X35255Y17658D01*
X35465Y17658D01*
X35465Y17905D02*
X35446Y17867D01*
X35427Y17848D01*
X35389Y17829D01*
X35274Y17829D01*
X35236Y17848D01*
X35217Y17867D01*
X35198Y17905D01*
X35198Y17963D01*
X35217Y18001D01*
X35236Y18020D01*
X35274Y18039D01*
X35389Y18039D01*
X35427Y18020D01*
X35446Y18001D01*
X35465Y17963D01*
X35465Y17905D01*
X35465Y18515D02*
X35065Y18515D01*
X35065Y18668D01*
X35084Y18706D01*
X35103Y18725D01*
X35141Y18744D01*
X35198Y18744D01*
X35236Y18725D01*
X35255Y18706D01*
X35274Y18668D01*
X35274Y18515D01*
X35065Y18877D02*
X35465Y18972D01*
X35179Y19049D01*
X35465Y19125D01*
X35065Y19220D01*
X35465Y19601D02*
X35274Y19467D01*
X35465Y19372D02*
X35065Y19372D01*
X35065Y19525D01*
X35084Y19563D01*
X35103Y19582D01*
X35141Y19601D01*
X35198Y19601D01*
X35236Y19582D01*
X35255Y19563D01*
X35274Y19525D01*
X35274Y19372D01*
X37665Y16623D02*
X37665Y16700D01*
X37684Y16738D01*
X37722Y16776D01*
X37798Y16795D01*
X37932Y16795D01*
X38008Y16776D01*
X38046Y16738D01*
X38065Y16700D01*
X38065Y16623D01*
X38046Y16585D01*
X38008Y16547D01*
X37932Y16528D01*
X37798Y16528D01*
X37722Y16547D01*
X37684Y16585D01*
X37665Y16623D01*
X38065Y16966D02*
X37665Y16966D01*
X38065Y17195D01*
X37665Y17195D01*
X37665Y18376D02*
X37665Y18453D01*
X37684Y18491D01*
X37722Y18529D01*
X37798Y18548D01*
X37932Y18548D01*
X38008Y18529D01*
X38046Y18491D01*
X38065Y18453D01*
X38065Y18376D01*
X38046Y18338D01*
X38008Y18300D01*
X37932Y18281D01*
X37798Y18281D01*
X37722Y18300D01*
X37684Y18338D01*
X37665Y18376D01*
X37855Y18853D02*
X37855Y18719D01*
X38065Y18719D02*
X37665Y18719D01*
X37665Y18910D01*
X37855Y19196D02*
X37855Y19062D01*
X38065Y19062D02*
X37665Y19062D01*
X37665Y19253D01*
G54D18*
X20424Y19248D02*
X20529Y18934D01*
X20633Y19248D01*
X20738Y18934D02*
X20738Y19143D01*
X20738Y19248D02*
X20723Y19233D01*
X20738Y19218D01*
X20753Y19233D01*
X20738Y19248D01*
X20738Y19218D01*
X20888Y19143D02*
X20888Y18934D01*
X20888Y19113D02*
X20903Y19128D01*
X20933Y19143D01*
X20977Y19143D01*
X21007Y19128D01*
X21022Y19098D01*
X21022Y18934D01*
X22053Y19233D02*
X22023Y19248D01*
X21978Y19248D01*
X21934Y19233D01*
X21904Y19203D01*
X21889Y19173D01*
X21874Y19113D01*
X21874Y19068D01*
X21889Y19009D01*
X21904Y18979D01*
X21934Y18949D01*
X21978Y18934D01*
X22008Y18934D01*
X22053Y18949D01*
X22068Y18964D01*
X22068Y19068D01*
X22008Y19068D01*
X22203Y18934D02*
X22203Y19248D01*
X22382Y18934D01*
X22382Y19248D01*
X22532Y18934D02*
X22532Y19248D01*
X22607Y19248D01*
X22651Y19233D01*
X22681Y19203D01*
X22696Y19173D01*
X22711Y19113D01*
X22711Y19068D01*
X22696Y19009D01*
X22681Y18979D01*
X22651Y18949D01*
X22607Y18934D01*
X22532Y18934D01*
X23712Y19248D02*
X23563Y19248D01*
X23548Y19098D01*
X23563Y19113D01*
X23593Y19128D01*
X23667Y19128D01*
X23697Y19113D01*
X23712Y19098D01*
X23727Y19068D01*
X23727Y18994D01*
X23712Y18964D01*
X23697Y18949D01*
X23667Y18934D01*
X23593Y18934D01*
X23563Y18949D01*
X23548Y18964D01*
X23817Y19248D02*
X23922Y18934D01*
X24026Y19248D01*
X24340Y19248D02*
X24534Y19248D01*
X24430Y19128D01*
X24474Y19128D01*
X24504Y19113D01*
X24519Y19098D01*
X24534Y19068D01*
X24534Y18994D01*
X24519Y18964D01*
X24504Y18949D01*
X24474Y18934D01*
X24385Y18934D01*
X24355Y18949D01*
X24340Y18964D01*
X24624Y19248D02*
X24729Y18934D01*
X24833Y19248D01*
X24908Y19248D02*
X25102Y19248D01*
X24998Y19128D01*
X25042Y19128D01*
X25072Y19113D01*
X25087Y19098D01*
X25102Y19068D01*
X25102Y18994D01*
X25087Y18964D01*
X25072Y18949D01*
X25042Y18934D01*
X24953Y18934D01*
X24923Y18949D01*
X24908Y18964D01*
X25655Y18934D02*
X25551Y19083D01*
X25476Y18934D02*
X25476Y19248D01*
X25595Y19248D01*
X25625Y19233D01*
X25640Y19218D01*
X25655Y19188D01*
X25655Y19143D01*
X25640Y19113D01*
X25625Y19098D01*
X25595Y19083D01*
X25476Y19083D01*
X25775Y18949D02*
X25820Y18934D01*
X25894Y18934D01*
X25924Y18949D01*
X25939Y18964D01*
X25954Y18994D01*
X25954Y19024D01*
X25939Y19054D01*
X25924Y19068D01*
X25894Y19083D01*
X25835Y19098D01*
X25805Y19113D01*
X25790Y19128D01*
X25775Y19158D01*
X25775Y19188D01*
X25790Y19218D01*
X25805Y19233D01*
X25835Y19248D01*
X25909Y19248D01*
X25954Y19233D01*
X26044Y19248D02*
X26223Y19248D01*
X26134Y18934D02*
X26134Y19248D01*
G54D12*
X2158Y19044D02*
X2307Y19044D01*
X2128Y18954D02*
X2233Y19268D01*
X2337Y18954D01*
X2606Y18954D02*
X2427Y18954D01*
X2517Y18954D02*
X2517Y19268D01*
X2487Y19223D01*
X2457Y19193D01*
X2427Y19178D01*
X2890Y19268D02*
X2741Y19268D01*
X2726Y19118D01*
X2741Y19133D01*
X2771Y19148D01*
X2845Y19148D01*
X2875Y19133D01*
X2890Y19118D01*
X2905Y19088D01*
X2905Y19014D01*
X2890Y18984D01*
X2875Y18969D01*
X2845Y18954D01*
X2771Y18954D01*
X2741Y18969D01*
X2726Y18984D01*
X3264Y19044D02*
X3413Y19044D01*
X3234Y18954D02*
X3339Y19268D01*
X3443Y18954D01*
X3712Y18954D02*
X3533Y18954D01*
X3623Y18954D02*
X3623Y19268D01*
X3593Y19223D01*
X3563Y19193D01*
X3533Y19178D01*
X3981Y19163D02*
X3981Y18954D01*
X3907Y19283D02*
X3832Y19059D01*
X4026Y19059D01*
X4370Y19044D02*
X4519Y19044D01*
X4340Y18954D02*
X4445Y19268D01*
X4549Y18954D01*
X4818Y18954D02*
X4639Y18954D01*
X4729Y18954D02*
X4729Y19268D01*
X4699Y19223D01*
X4669Y19193D01*
X4639Y19178D01*
X4923Y19268D02*
X5117Y19268D01*
X5013Y19148D01*
X5057Y19148D01*
X5087Y19133D01*
X5102Y19118D01*
X5117Y19088D01*
X5117Y19014D01*
X5102Y18984D01*
X5087Y18969D01*
X5057Y18954D01*
X4968Y18954D01*
X4938Y18969D01*
X4923Y18984D01*
X5476Y19044D02*
X5625Y19044D01*
X5446Y18954D02*
X5551Y19268D01*
X5655Y18954D01*
X5924Y18954D02*
X5745Y18954D01*
X5835Y18954D02*
X5835Y19268D01*
X5805Y19223D01*
X5775Y19193D01*
X5745Y19178D01*
X6044Y19238D02*
X6059Y19253D01*
X6089Y19268D01*
X6163Y19268D01*
X6193Y19253D01*
X6208Y19238D01*
X6223Y19208D01*
X6223Y19178D01*
X6208Y19133D01*
X6029Y18954D01*
X6223Y18954D01*
X6582Y19044D02*
X6731Y19044D01*
X6552Y18954D02*
X6657Y19268D01*
X6761Y18954D01*
X7030Y18954D02*
X6851Y18954D01*
X6941Y18954D02*
X6941Y19268D01*
X6911Y19223D01*
X6881Y19193D01*
X6851Y19178D01*
X7329Y18954D02*
X7150Y18954D01*
X7240Y18954D02*
X7240Y19268D01*
X7210Y19223D01*
X7180Y19193D01*
X7150Y19178D01*
X7688Y19044D02*
X7837Y19044D01*
X7658Y18954D02*
X7763Y19268D01*
X7867Y18954D01*
X8136Y18954D02*
X7957Y18954D01*
X8047Y18954D02*
X8047Y19268D01*
X8017Y19223D01*
X7987Y19193D01*
X7957Y19178D01*
X8331Y19268D02*
X8360Y19268D01*
X8390Y19253D01*
X8405Y19238D01*
X8420Y19208D01*
X8435Y19148D01*
X8435Y19074D01*
X8420Y19014D01*
X8405Y18984D01*
X8390Y18969D01*
X8360Y18954D01*
X8331Y18954D01*
X8301Y18969D01*
X8286Y18984D01*
X8271Y19014D01*
X8256Y19074D01*
X8256Y19148D01*
X8271Y19208D01*
X8286Y19238D01*
X8301Y19253D01*
X8331Y19268D01*
X8794Y19044D02*
X8943Y19044D01*
X8764Y18954D02*
X8869Y19268D01*
X8973Y18954D01*
X9093Y18954D02*
X9153Y18954D01*
X9182Y18969D01*
X9197Y18984D01*
X9227Y19029D01*
X9242Y19088D01*
X9242Y19208D01*
X9227Y19238D01*
X9212Y19253D01*
X9182Y19268D01*
X9123Y19268D01*
X9093Y19253D01*
X9078Y19238D01*
X9063Y19208D01*
X9063Y19133D01*
X9078Y19103D01*
X9093Y19088D01*
X9123Y19074D01*
X9182Y19074D01*
X9212Y19088D01*
X9227Y19103D01*
X9242Y19133D01*
X9601Y19044D02*
X9750Y19044D01*
X9571Y18954D02*
X9676Y19268D01*
X9780Y18954D01*
X9930Y19133D02*
X9900Y19148D01*
X9885Y19163D01*
X9870Y19193D01*
X9870Y19208D01*
X9885Y19238D01*
X9900Y19253D01*
X9930Y19268D01*
X9989Y19268D01*
X10019Y19253D01*
X10034Y19238D01*
X10049Y19208D01*
X10049Y19193D01*
X10034Y19163D01*
X10019Y19148D01*
X9989Y19133D01*
X9930Y19133D01*
X9900Y19118D01*
X9885Y19103D01*
X9870Y19074D01*
X9870Y19014D01*
X9885Y18984D01*
X9900Y18969D01*
X9930Y18954D01*
X9989Y18954D01*
X10019Y18969D01*
X10034Y18984D01*
X10049Y19014D01*
X10049Y19074D01*
X10034Y19103D01*
X10019Y19118D01*
X9989Y19133D01*
G54D19*
X11588Y18935D02*
X11775Y18935D01*
X11550Y18822D02*
X11681Y19215D01*
X11812Y18822D01*
X11906Y19215D02*
X12168Y19215D01*
X12000Y18822D01*
X12598Y18935D02*
X12785Y18935D01*
X12560Y18822D02*
X12691Y19215D01*
X12822Y18822D01*
X13122Y19215D02*
X13047Y19215D01*
X13010Y19197D01*
X12991Y19178D01*
X12954Y19122D01*
X12935Y19047D01*
X12935Y18897D01*
X12954Y18860D01*
X12972Y18841D01*
X13010Y18822D01*
X13085Y18822D01*
X13122Y18841D01*
X13141Y18860D01*
X13159Y18897D01*
X13159Y18991D01*
X13141Y19028D01*
X13122Y19047D01*
X13085Y19066D01*
X13010Y19066D01*
X12972Y19047D01*
X12954Y19028D01*
X12935Y18991D01*
X13608Y18935D02*
X13795Y18935D01*
X13570Y18822D02*
X13701Y19215D01*
X13832Y18822D01*
X14151Y19215D02*
X13964Y19215D01*
X13945Y19028D01*
X13964Y19047D01*
X14001Y19066D01*
X14095Y19066D01*
X14132Y19047D01*
X14151Y19028D01*
X14169Y18991D01*
X14169Y18897D01*
X14151Y18860D01*
X14132Y18841D01*
X14095Y18822D01*
X14001Y18822D01*
X13964Y18841D01*
X13945Y18860D01*
X14618Y18935D02*
X14805Y18935D01*
X14580Y18822D02*
X14711Y19215D01*
X14842Y18822D01*
X15142Y19084D02*
X15142Y18822D01*
X15048Y19234D02*
X14955Y18953D01*
X15198Y18953D01*
X15628Y18935D02*
X15815Y18935D01*
X15590Y18822D02*
X15721Y19215D01*
X15852Y18822D01*
X15946Y19215D02*
X16189Y19215D01*
X16058Y19066D01*
X16115Y19066D01*
X16152Y19047D01*
X16171Y19028D01*
X16189Y18991D01*
X16189Y18897D01*
X16171Y18860D01*
X16152Y18841D01*
X16115Y18822D01*
X16002Y18822D01*
X15965Y18841D01*
X15946Y18860D01*
X16638Y18935D02*
X16825Y18935D01*
X16600Y18822D02*
X16731Y19215D01*
X16862Y18822D01*
X16975Y19178D02*
X16994Y19197D01*
X17031Y19215D01*
X17125Y19215D01*
X17162Y19197D01*
X17181Y19178D01*
X17199Y19141D01*
X17199Y19103D01*
X17181Y19047D01*
X16956Y18822D01*
X17199Y18822D01*
X17648Y18935D02*
X17835Y18935D01*
X17610Y18822D02*
X17741Y19215D01*
X17872Y18822D01*
X18209Y18822D02*
X17985Y18822D01*
X18097Y18822D02*
X18097Y19215D01*
X18060Y19159D01*
X18022Y19122D01*
X17985Y19103D01*
X18658Y18935D02*
X18845Y18935D01*
X18620Y18822D02*
X18751Y19215D01*
X18882Y18822D01*
X19088Y19215D02*
X19126Y19215D01*
X19163Y19197D01*
X19182Y19178D01*
X19201Y19141D01*
X19219Y19066D01*
X19219Y18972D01*
X19201Y18897D01*
X19182Y18860D01*
X19163Y18841D01*
X19126Y18822D01*
X19088Y18822D01*
X19051Y18841D01*
X19032Y18860D01*
X19014Y18897D01*
X18995Y18972D01*
X18995Y19066D01*
X19014Y19141D01*
X19032Y19178D01*
X19051Y19197D01*
X19088Y19215D01*
G54D17*
X826Y18950D02*
X769Y18978D01*
X683Y18978D01*
X598Y18950D01*
X540Y18892D01*
X512Y18835D01*
X483Y18721D01*
X483Y18635D01*
X512Y18521D01*
X540Y18464D01*
X598Y18407D01*
X683Y18378D01*
X740Y18378D01*
X826Y18407D01*
X855Y18435D01*
X855Y18635D01*
X740Y18635D01*
X1112Y18378D02*
X1112Y18978D01*
X1455Y18378D01*
X1455Y18978D01*
X1741Y18378D02*
X1741Y18978D01*
X1884Y18978D01*
X1969Y18950D01*
X2027Y18892D01*
X2055Y18835D01*
X2084Y18721D01*
X2084Y18635D01*
X2055Y18521D01*
X2027Y18464D01*
X1969Y18407D01*
X1884Y18378D01*
X1741Y18378D01*
X1117Y338D02*
X831Y338D01*
X802Y52D01*
X831Y81D01*
X888Y110D01*
X1031Y110D01*
X1088Y81D01*
X1117Y52D01*
X1145Y-5D01*
X1145Y-148D01*
X1117Y-205D01*
X1088Y-233D01*
X1031Y-262D01*
X888Y-262D01*
X831Y-233D01*
X802Y-205D01*
X1316Y338D02*
X1516Y-262D01*
X1716Y338D01*
G54D12*
X2510Y1718D02*
X2495Y1733D01*
X2480Y1763D01*
X2480Y1837D01*
X2495Y1867D01*
X2510Y1882D01*
X2540Y1897D01*
X2570Y1897D01*
X2615Y1882D01*
X2794Y1703D01*
X2794Y1897D01*
X2510Y2017D02*
X2495Y2032D01*
X2480Y2062D01*
X2480Y2136D01*
X2495Y2166D01*
X2510Y2181D01*
X2540Y2196D01*
X2570Y2196D01*
X2615Y2181D01*
X2794Y2002D01*
X2794Y2196D01*
X2510Y2555D02*
X2495Y2570D01*
X2480Y2600D01*
X2480Y2674D01*
X2495Y2704D01*
X2510Y2719D01*
X2540Y2734D01*
X2570Y2734D01*
X2615Y2719D01*
X2794Y2540D01*
X2794Y2734D01*
X2585Y3003D02*
X2794Y3003D01*
X2465Y2929D02*
X2689Y2854D01*
X2689Y3048D01*
X2510Y3631D02*
X2495Y3646D01*
X2480Y3676D01*
X2480Y3750D01*
X2495Y3780D01*
X2510Y3795D01*
X2540Y3810D01*
X2570Y3810D01*
X2615Y3795D01*
X2794Y3616D01*
X2794Y3810D01*
X2480Y4079D02*
X2480Y4020D01*
X2495Y3990D01*
X2510Y3975D01*
X2555Y3945D01*
X2615Y3930D01*
X2734Y3930D01*
X2764Y3945D01*
X2779Y3960D01*
X2794Y3990D01*
X2794Y4049D01*
X2779Y4079D01*
X2764Y4094D01*
X2734Y4109D01*
X2660Y4109D01*
X2630Y4094D01*
X2615Y4079D01*
X2600Y4049D01*
X2600Y3990D01*
X2615Y3960D01*
X2630Y3945D01*
X2660Y3930D01*
X2510Y4707D02*
X2495Y4722D01*
X2480Y4752D01*
X2480Y4826D01*
X2495Y4856D01*
X2510Y4871D01*
X2540Y4886D01*
X2570Y4886D01*
X2615Y4871D01*
X2794Y4692D01*
X2794Y4886D01*
X2615Y5066D02*
X2600Y5036D01*
X2585Y5021D01*
X2555Y5006D01*
X2540Y5006D01*
X2510Y5021D01*
X2495Y5036D01*
X2480Y5066D01*
X2480Y5125D01*
X2495Y5155D01*
X2510Y5170D01*
X2540Y5185D01*
X2555Y5185D01*
X2585Y5170D01*
X2600Y5155D01*
X2615Y5125D01*
X2615Y5066D01*
X2630Y5036D01*
X2645Y5021D01*
X2674Y5006D01*
X2734Y5006D01*
X2764Y5021D01*
X2779Y5036D01*
X2794Y5066D01*
X2794Y5125D01*
X2779Y5155D01*
X2764Y5170D01*
X2734Y5185D01*
X2674Y5185D01*
X2645Y5170D01*
X2630Y5155D01*
X2615Y5125D01*
X2480Y5529D02*
X2480Y5723D01*
X2600Y5619D01*
X2600Y5663D01*
X2615Y5693D01*
X2630Y5708D01*
X2660Y5723D01*
X2734Y5723D01*
X2764Y5708D01*
X2779Y5693D01*
X2794Y5663D01*
X2794Y5574D01*
X2779Y5544D01*
X2764Y5529D01*
X2480Y5918D02*
X2480Y5947D01*
X2495Y5977D01*
X2510Y5992D01*
X2540Y6007D01*
X2600Y6022D01*
X2674Y6022D01*
X2734Y6007D01*
X2764Y5992D01*
X2779Y5977D01*
X2794Y5947D01*
X2794Y5918D01*
X2779Y5888D01*
X2764Y5873D01*
X2734Y5858D01*
X2674Y5843D01*
X2600Y5843D01*
X2540Y5858D01*
X2510Y5873D01*
X2495Y5888D01*
X2480Y5918D01*
X2480Y6605D02*
X2480Y6799D01*
X2600Y6695D01*
X2600Y6739D01*
X2615Y6769D01*
X2630Y6784D01*
X2660Y6799D01*
X2734Y6799D01*
X2764Y6784D01*
X2779Y6769D01*
X2794Y6739D01*
X2794Y6650D01*
X2779Y6620D01*
X2764Y6605D01*
X2510Y6919D02*
X2495Y6934D01*
X2480Y6964D01*
X2480Y7038D01*
X2495Y7068D01*
X2510Y7083D01*
X2540Y7098D01*
X2570Y7098D01*
X2615Y7083D01*
X2794Y6904D01*
X2794Y7098D01*
X2480Y7681D02*
X2480Y7875D01*
X2600Y7771D01*
X2600Y7815D01*
X2615Y7845D01*
X2630Y7860D01*
X2660Y7875D01*
X2734Y7875D01*
X2764Y7860D01*
X2779Y7845D01*
X2794Y7815D01*
X2794Y7726D01*
X2779Y7696D01*
X2764Y7681D01*
X2585Y8144D02*
X2794Y8144D01*
X2465Y8070D02*
X2689Y7995D01*
X2689Y8189D01*
X2480Y8518D02*
X2480Y8712D01*
X2600Y8608D01*
X2600Y8652D01*
X2615Y8682D01*
X2630Y8697D01*
X2660Y8712D01*
X2734Y8712D01*
X2764Y8697D01*
X2779Y8682D01*
X2794Y8652D01*
X2794Y8563D01*
X2779Y8533D01*
X2764Y8518D01*
X2480Y8981D02*
X2480Y8922D01*
X2495Y8892D01*
X2510Y8877D01*
X2555Y8847D01*
X2615Y8832D01*
X2734Y8832D01*
X2764Y8847D01*
X2779Y8862D01*
X2794Y8892D01*
X2794Y8951D01*
X2779Y8981D01*
X2764Y8996D01*
X2734Y9011D01*
X2660Y9011D01*
X2630Y8996D01*
X2615Y8981D01*
X2600Y8951D01*
X2600Y8892D01*
X2615Y8862D01*
X2630Y8847D01*
X2660Y8832D01*
X2480Y9594D02*
X2480Y9788D01*
X2600Y9684D01*
X2600Y9728D01*
X2615Y9758D01*
X2630Y9773D01*
X2660Y9788D01*
X2734Y9788D01*
X2764Y9773D01*
X2779Y9758D01*
X2794Y9728D01*
X2794Y9639D01*
X2779Y9609D01*
X2764Y9594D01*
X2615Y9968D02*
X2600Y9938D01*
X2585Y9923D01*
X2555Y9908D01*
X2540Y9908D01*
X2510Y9923D01*
X2495Y9938D01*
X2480Y9968D01*
X2480Y10027D01*
X2495Y10057D01*
X2510Y10072D01*
X2540Y10087D01*
X2555Y10087D01*
X2585Y10072D01*
X2600Y10057D01*
X2615Y10027D01*
X2615Y9968D01*
X2630Y9938D01*
X2645Y9923D01*
X2674Y9908D01*
X2734Y9908D01*
X2764Y9923D01*
X2779Y9938D01*
X2794Y9968D01*
X2794Y10027D01*
X2779Y10057D01*
X2764Y10072D01*
X2734Y10087D01*
X2674Y10087D01*
X2645Y10072D01*
X2630Y10057D01*
X2615Y10027D01*
X2585Y10834D02*
X2794Y10834D01*
X2465Y10760D02*
X2689Y10685D01*
X2689Y10879D01*
X2480Y11059D02*
X2480Y11088D01*
X2495Y11118D01*
X2510Y11133D01*
X2540Y11148D01*
X2600Y11163D01*
X2674Y11163D01*
X2734Y11148D01*
X2764Y11133D01*
X2779Y11118D01*
X2794Y11088D01*
X2794Y11059D01*
X2779Y11029D01*
X2764Y11014D01*
X2734Y10999D01*
X2674Y10984D01*
X2600Y10984D01*
X2540Y10999D01*
X2510Y11014D01*
X2495Y11029D01*
X2480Y11059D01*
X2585Y11671D02*
X2794Y11671D01*
X2465Y11597D02*
X2689Y11522D01*
X2689Y11716D01*
X2510Y11821D02*
X2495Y11836D01*
X2480Y11866D01*
X2480Y11940D01*
X2495Y11970D01*
X2510Y11985D01*
X2540Y12000D01*
X2570Y12000D01*
X2615Y11985D01*
X2794Y11806D01*
X2794Y12000D01*
X2585Y12747D02*
X2794Y12747D01*
X2465Y12673D02*
X2689Y12598D01*
X2689Y12792D01*
X2585Y13046D02*
X2794Y13046D01*
X2465Y12972D02*
X2689Y12897D01*
X2689Y13091D01*
X2585Y13823D02*
X2794Y13823D01*
X2465Y13749D02*
X2689Y13674D01*
X2689Y13868D01*
X2480Y14122D02*
X2480Y14063D01*
X2495Y14033D01*
X2510Y14018D01*
X2555Y13988D01*
X2615Y13973D01*
X2734Y13973D01*
X2764Y13988D01*
X2779Y14003D01*
X2794Y14033D01*
X2794Y14092D01*
X2779Y14122D01*
X2764Y14137D01*
X2734Y14152D01*
X2660Y14152D01*
X2630Y14137D01*
X2615Y14122D01*
X2600Y14092D01*
X2600Y14033D01*
X2615Y14003D01*
X2630Y13988D01*
X2660Y13973D01*
X2585Y14899D02*
X2794Y14899D01*
X2465Y14825D02*
X2689Y14750D01*
X2689Y14944D01*
X2615Y15109D02*
X2600Y15079D01*
X2585Y15064D01*
X2555Y15049D01*
X2540Y15049D01*
X2510Y15064D01*
X2495Y15079D01*
X2480Y15109D01*
X2480Y15168D01*
X2495Y15198D01*
X2510Y15213D01*
X2540Y15228D01*
X2555Y15228D01*
X2585Y15213D01*
X2600Y15198D01*
X2615Y15168D01*
X2615Y15109D01*
X2630Y15079D01*
X2645Y15064D01*
X2674Y15049D01*
X2734Y15049D01*
X2764Y15064D01*
X2779Y15079D01*
X2794Y15109D01*
X2794Y15168D01*
X2779Y15198D01*
X2764Y15213D01*
X2734Y15228D01*
X2674Y15228D01*
X2645Y15213D01*
X2630Y15198D01*
X2615Y15168D01*
X2480Y15990D02*
X2480Y15841D01*
X2630Y15826D01*
X2615Y15841D01*
X2600Y15871D01*
X2600Y15945D01*
X2615Y15975D01*
X2630Y15990D01*
X2660Y16005D01*
X2734Y16005D01*
X2764Y15990D01*
X2779Y15975D01*
X2794Y15945D01*
X2794Y15871D01*
X2779Y15841D01*
X2764Y15826D01*
X2480Y16200D02*
X2480Y16229D01*
X2495Y16259D01*
X2510Y16274D01*
X2540Y16289D01*
X2600Y16304D01*
X2674Y16304D01*
X2734Y16289D01*
X2764Y16274D01*
X2779Y16259D01*
X2794Y16229D01*
X2794Y16200D01*
X2779Y16170D01*
X2764Y16155D01*
X2734Y16140D01*
X2674Y16125D01*
X2600Y16125D01*
X2540Y16140D01*
X2510Y16155D01*
X2495Y16170D01*
X2480Y16200D01*
X2480Y16827D02*
X2480Y16678D01*
X2630Y16663D01*
X2615Y16678D01*
X2600Y16708D01*
X2600Y16782D01*
X2615Y16812D01*
X2630Y16827D01*
X2660Y16842D01*
X2734Y16842D01*
X2764Y16827D01*
X2779Y16812D01*
X2794Y16782D01*
X2794Y16708D01*
X2779Y16678D01*
X2764Y16663D01*
X2510Y16962D02*
X2495Y16977D01*
X2480Y17007D01*
X2480Y17081D01*
X2495Y17111D01*
X2510Y17126D01*
X2540Y17141D01*
X2570Y17141D01*
X2615Y17126D01*
X2794Y16947D01*
X2794Y17141D01*
X4535Y1820D02*
X4550Y1835D01*
X4580Y1850D01*
X4654Y1850D01*
X4684Y1835D01*
X4699Y1820D01*
X4714Y1790D01*
X4714Y1760D01*
X4699Y1715D01*
X4520Y1536D01*
X4714Y1536D01*
X5013Y1536D02*
X4834Y1536D01*
X4924Y1536D02*
X4924Y1850D01*
X4894Y1805D01*
X4864Y1775D01*
X4834Y1760D01*
X5372Y1820D02*
X5387Y1835D01*
X5417Y1850D01*
X5491Y1850D01*
X5521Y1835D01*
X5536Y1820D01*
X5551Y1790D01*
X5551Y1760D01*
X5536Y1715D01*
X5357Y1536D01*
X5551Y1536D01*
X5746Y1850D02*
X5775Y1850D01*
X5805Y1835D01*
X5820Y1820D01*
X5835Y1790D01*
X5850Y1730D01*
X5850Y1656D01*
X5835Y1596D01*
X5820Y1566D01*
X5805Y1551D01*
X5775Y1536D01*
X5746Y1536D01*
X5716Y1551D01*
X5701Y1566D01*
X5686Y1596D01*
X5671Y1656D01*
X5671Y1730D01*
X5686Y1790D01*
X5701Y1820D01*
X5716Y1835D01*
X5746Y1850D01*
X6403Y1536D02*
X6299Y1685D01*
X6224Y1536D02*
X6224Y1850D01*
X6343Y1850D01*
X6373Y1835D01*
X6388Y1820D01*
X6403Y1790D01*
X6403Y1745D01*
X6388Y1715D01*
X6373Y1700D01*
X6343Y1685D01*
X6224Y1685D01*
X6508Y1850D02*
X6717Y1536D01*
X6717Y1850D02*
X6508Y1536D01*
X7001Y1536D02*
X6822Y1536D01*
X6912Y1536D02*
X6912Y1850D01*
X6882Y1805D01*
X6852Y1775D01*
X6822Y1760D01*
X7330Y1850D02*
X7509Y1850D01*
X7420Y1536D02*
X7420Y1850D01*
X7584Y1850D02*
X7793Y1536D01*
X7793Y1850D02*
X7584Y1536D01*
X8077Y1536D02*
X7898Y1536D01*
X7988Y1536D02*
X7988Y1850D01*
X7958Y1805D01*
X7928Y1775D01*
X7898Y1760D01*
X8630Y1536D02*
X8526Y1685D01*
X8451Y1536D02*
X8451Y1850D01*
X8570Y1850D01*
X8600Y1835D01*
X8615Y1820D01*
X8630Y1790D01*
X8630Y1745D01*
X8615Y1715D01*
X8600Y1700D01*
X8570Y1685D01*
X8451Y1685D01*
X8735Y1850D02*
X8944Y1536D01*
X8944Y1850D02*
X8735Y1536D01*
X9049Y1820D02*
X9064Y1835D01*
X9094Y1850D01*
X9168Y1850D01*
X9198Y1835D01*
X9213Y1820D01*
X9228Y1790D01*
X9228Y1760D01*
X9213Y1715D01*
X9034Y1536D01*
X9228Y1536D01*
X9557Y1850D02*
X9736Y1850D01*
X9647Y1536D02*
X9647Y1850D01*
X9811Y1850D02*
X10020Y1536D01*
X10020Y1850D02*
X9811Y1536D01*
X10125Y1820D02*
X10140Y1835D01*
X10170Y1850D01*
X10244Y1850D01*
X10274Y1835D01*
X10289Y1820D01*
X10304Y1790D01*
X10304Y1760D01*
X10289Y1715D01*
X10110Y1536D01*
X10304Y1536D01*
X10857Y1536D02*
X10753Y1685D01*
X10678Y1536D02*
X10678Y1850D01*
X10797Y1850D01*
X10827Y1835D01*
X10842Y1820D01*
X10857Y1790D01*
X10857Y1745D01*
X10842Y1715D01*
X10827Y1700D01*
X10797Y1685D01*
X10678Y1685D01*
X10962Y1850D02*
X11171Y1536D01*
X11171Y1850D02*
X10962Y1536D01*
X11261Y1850D02*
X11455Y1850D01*
X11351Y1730D01*
X11395Y1730D01*
X11425Y1715D01*
X11440Y1700D01*
X11455Y1670D01*
X11455Y1596D01*
X11440Y1566D01*
X11425Y1551D01*
X11395Y1536D01*
X11306Y1536D01*
X11276Y1551D01*
X11261Y1566D01*
X11784Y1850D02*
X11963Y1850D01*
X11874Y1536D02*
X11874Y1850D01*
X12038Y1850D02*
X12247Y1536D01*
X12247Y1850D02*
X12038Y1536D01*
X12337Y1850D02*
X12531Y1850D01*
X12427Y1730D01*
X12471Y1730D01*
X12501Y1715D01*
X12516Y1700D01*
X12531Y1670D01*
X12531Y1596D01*
X12516Y1566D01*
X12501Y1551D01*
X12471Y1536D01*
X12382Y1536D01*
X12352Y1551D01*
X12337Y1566D01*
X13232Y1524D02*
X13102Y1711D01*
X13008Y1524D02*
X13008Y1916D01*
X13158Y1916D01*
X13195Y1898D01*
X13214Y1879D01*
X13232Y1842D01*
X13232Y1786D01*
X13214Y1748D01*
X13195Y1730D01*
X13158Y1711D01*
X13008Y1711D01*
X13363Y1916D02*
X13624Y1524D01*
X13624Y1916D02*
X13363Y1524D01*
X13848Y1916D02*
X13885Y1916D01*
X13923Y1898D01*
X13941Y1879D01*
X13960Y1842D01*
X13979Y1767D01*
X13979Y1674D01*
X13960Y1599D01*
X13941Y1562D01*
X13923Y1543D01*
X13885Y1524D01*
X13848Y1524D01*
X13811Y1543D01*
X13792Y1562D01*
X13773Y1599D01*
X13755Y1674D01*
X13755Y1767D01*
X13773Y1842D01*
X13792Y1879D01*
X13811Y1898D01*
X13848Y1916D01*
X14389Y1916D02*
X14613Y1916D01*
X14501Y1524D02*
X14501Y1916D01*
X14707Y1916D02*
X14968Y1524D01*
X14968Y1916D02*
X14707Y1524D01*
X15192Y1916D02*
X15229Y1916D01*
X15267Y1898D01*
X15285Y1879D01*
X15304Y1842D01*
X15323Y1767D01*
X15323Y1674D01*
X15304Y1599D01*
X15285Y1562D01*
X15267Y1543D01*
X15229Y1524D01*
X15192Y1524D01*
X15155Y1543D01*
X15136Y1562D01*
X15117Y1599D01*
X15099Y1674D01*
X15099Y1767D01*
X15117Y1842D01*
X15136Y1879D01*
X15155Y1898D01*
X15192Y1916D01*
X15771Y1879D02*
X15789Y1898D01*
X15827Y1916D01*
X15920Y1916D01*
X15957Y1898D01*
X15976Y1879D01*
X15995Y1842D01*
X15995Y1804D01*
X15976Y1748D01*
X15752Y1524D01*
X15995Y1524D01*
X16723Y1916D02*
X16966Y1916D01*
X16835Y1767D01*
X16891Y1767D01*
X16928Y1748D01*
X16947Y1730D01*
X16966Y1692D01*
X16966Y1599D01*
X16947Y1562D01*
X16928Y1543D01*
X16891Y1524D01*
X16779Y1524D01*
X16742Y1543D01*
X16723Y1562D01*
X17899Y1786D02*
X17899Y1524D01*
X17806Y1935D02*
X17713Y1655D01*
X17955Y1655D01*
X18889Y1916D02*
X18702Y1916D01*
X18684Y1730D01*
X18702Y1748D01*
X18740Y1767D01*
X18833Y1767D01*
X18870Y1748D01*
X18889Y1730D01*
X18908Y1692D01*
X18908Y1599D01*
X18889Y1562D01*
X18870Y1543D01*
X18833Y1524D01*
X18740Y1524D01*
X18702Y1543D01*
X18684Y1562D01*
X19841Y1916D02*
X19767Y1916D01*
X19729Y1898D01*
X19711Y1879D01*
X19673Y1823D01*
X19655Y1748D01*
X19655Y1599D01*
X19673Y1562D01*
X19692Y1543D01*
X19729Y1524D01*
X19804Y1524D01*
X19841Y1543D01*
X19860Y1562D01*
X19879Y1599D01*
X19879Y1692D01*
X19860Y1730D01*
X19841Y1748D01*
X19804Y1767D01*
X19729Y1767D01*
X19692Y1748D01*
X19673Y1730D01*
X19655Y1692D01*
X20607Y1916D02*
X20868Y1916D01*
X20700Y1524D01*
X22235Y1680D02*
X22198Y1699D01*
X22179Y1718D01*
X22161Y1755D01*
X22161Y1774D01*
X22179Y1811D01*
X22198Y1830D01*
X22235Y1848D01*
X22310Y1848D01*
X22347Y1830D01*
X22366Y1811D01*
X22385Y1774D01*
X22385Y1755D01*
X22366Y1718D01*
X22347Y1699D01*
X22310Y1680D01*
X22235Y1680D01*
X22198Y1662D01*
X22179Y1643D01*
X22161Y1606D01*
X22161Y1531D01*
X22179Y1494D01*
X22198Y1475D01*
X22235Y1456D01*
X22310Y1456D01*
X22347Y1475D01*
X22366Y1494D01*
X22385Y1531D01*
X22385Y1606D01*
X22366Y1643D01*
X22347Y1662D01*
X22310Y1680D01*
X23169Y1456D02*
X23244Y1456D01*
X23281Y1475D01*
X23300Y1494D01*
X23337Y1550D01*
X23356Y1624D01*
X23356Y1774D01*
X23337Y1811D01*
X23318Y1830D01*
X23281Y1848D01*
X23206Y1848D01*
X23169Y1830D01*
X23150Y1811D01*
X23132Y1774D01*
X23132Y1680D01*
X23150Y1643D01*
X23169Y1624D01*
X23206Y1606D01*
X23281Y1606D01*
X23318Y1624D01*
X23337Y1643D01*
X23356Y1680D01*
X24327Y1456D02*
X24103Y1456D01*
X24215Y1456D02*
X24215Y1848D01*
X24177Y1792D01*
X24140Y1755D01*
X24103Y1736D01*
X24569Y1848D02*
X24606Y1848D01*
X24644Y1830D01*
X24662Y1811D01*
X24681Y1774D01*
X24700Y1699D01*
X24700Y1606D01*
X24681Y1531D01*
X24662Y1494D01*
X24644Y1475D01*
X24606Y1456D01*
X24569Y1456D01*
X24532Y1475D01*
X24513Y1494D01*
X24494Y1531D01*
X24476Y1606D01*
X24476Y1699D01*
X24494Y1774D01*
X24513Y1811D01*
X24532Y1830D01*
X24569Y1848D01*
X25372Y1456D02*
X25148Y1456D01*
X25260Y1456D02*
X25260Y1848D01*
X25222Y1792D01*
X25185Y1755D01*
X25148Y1736D01*
X25745Y1456D02*
X25521Y1456D01*
X25633Y1456D02*
X25633Y1848D01*
X25595Y1792D01*
X25558Y1755D01*
X25521Y1736D01*
X26417Y1456D02*
X26193Y1456D01*
X26305Y1456D02*
X26305Y1848D01*
X26267Y1792D01*
X26230Y1755D01*
X26193Y1736D01*
X26566Y1811D02*
X26584Y1830D01*
X26622Y1848D01*
X26715Y1848D01*
X26752Y1830D01*
X26771Y1811D01*
X26790Y1774D01*
X26790Y1736D01*
X26771Y1680D01*
X26547Y1456D01*
X26790Y1456D01*
X27462Y1456D02*
X27238Y1456D01*
X27350Y1456D02*
X27350Y1848D01*
X27312Y1792D01*
X27275Y1755D01*
X27238Y1736D01*
X27592Y1848D02*
X27835Y1848D01*
X27704Y1699D01*
X27760Y1699D01*
X27797Y1680D01*
X27816Y1662D01*
X27835Y1624D01*
X27835Y1531D01*
X27816Y1494D01*
X27797Y1475D01*
X27760Y1456D01*
X27648Y1456D01*
X27611Y1475D01*
X27592Y1494D01*
X28469Y1718D02*
X28469Y1400D01*
X28451Y1363D01*
X28432Y1344D01*
X28395Y1326D01*
X28339Y1326D01*
X28301Y1344D01*
X28469Y1475D02*
X28432Y1456D01*
X28357Y1456D01*
X28320Y1475D01*
X28301Y1494D01*
X28283Y1531D01*
X28283Y1643D01*
X28301Y1680D01*
X28320Y1699D01*
X28357Y1718D01*
X28432Y1718D01*
X28469Y1699D01*
X28656Y1718D02*
X28656Y1456D01*
X28656Y1680D02*
X28675Y1699D01*
X28712Y1718D01*
X28768Y1718D01*
X28806Y1699D01*
X28824Y1662D01*
X28824Y1456D01*
X29179Y1456D02*
X29179Y1848D01*
X29179Y1475D02*
X29142Y1456D01*
X29067Y1456D01*
X29030Y1475D01*
X29011Y1494D01*
X28993Y1531D01*
X28993Y1643D01*
X29011Y1680D01*
X29030Y1699D01*
X29067Y1718D01*
X29142Y1718D01*
X29179Y1699D01*
X29647Y1568D02*
X29833Y1568D01*
X29609Y1456D02*
X29740Y1848D01*
X29871Y1456D01*
X30001Y1456D02*
X30001Y1718D01*
X30001Y1643D02*
X30020Y1680D01*
X30039Y1699D01*
X30076Y1718D01*
X30113Y1718D01*
X30394Y1475D02*
X30356Y1456D01*
X30282Y1456D01*
X30244Y1475D01*
X30226Y1512D01*
X30226Y1662D01*
X30244Y1699D01*
X30282Y1718D01*
X30356Y1718D01*
X30394Y1699D01*
X30412Y1662D01*
X30412Y1624D01*
X30226Y1587D01*
X30524Y1718D02*
X30674Y1718D01*
X30580Y1456D02*
X30580Y1792D01*
X30599Y1830D01*
X30636Y1848D01*
X30674Y1848D01*
G54D10*
X25141Y-4273D02*
X25141Y-4173D01*
X25298Y-4130D02*
X25298Y-4273D01*
X24998Y-4273D01*
X24998Y-4130D01*
X25298Y-4030D02*
X25098Y-3873D01*
X25098Y-4030D02*
X25298Y-3873D01*
X25098Y-3801D02*
X25098Y-3687D01*
X24998Y-3759D02*
X25256Y-3759D01*
X25284Y-3744D01*
X25298Y-3716D01*
X25298Y-3687D01*
X25141Y-3259D02*
X25156Y-3216D01*
X25170Y-3201D01*
X25198Y-3187D01*
X25241Y-3187D01*
X25270Y-3201D01*
X25284Y-3216D01*
X25298Y-3244D01*
X25298Y-3359D01*
X24998Y-3359D01*
X24998Y-3259D01*
X25013Y-3230D01*
X25027Y-3216D01*
X25056Y-3201D01*
X25084Y-3201D01*
X25113Y-3216D01*
X25127Y-3230D01*
X25141Y-3259D01*
X25141Y-3359D01*
X25298Y-2930D02*
X25141Y-2930D01*
X25113Y-2944D01*
X25098Y-2973D01*
X25098Y-3030D01*
X25113Y-3059D01*
X25284Y-2930D02*
X25298Y-2959D01*
X25298Y-3030D01*
X25284Y-3059D01*
X25256Y-3073D01*
X25227Y-3073D01*
X25198Y-3059D01*
X25184Y-3030D01*
X25184Y-2959D01*
X25170Y-2930D01*
X25098Y-2830D02*
X25098Y-2716D01*
X24998Y-2788D02*
X25256Y-2788D01*
X25284Y-2773D01*
X25298Y-2745D01*
X25298Y-2716D01*
X22960Y-5098D02*
X23189Y-5098D01*
X24018Y-5098D02*
X24247Y-5098D01*
X24133Y-5212D02*
X24133Y-4984D01*
X16827Y-3359D02*
X16827Y-3259D01*
X16984Y-3216D02*
X16984Y-3359D01*
X16684Y-3359D01*
X16684Y-3216D01*
X16984Y-3116D02*
X16784Y-2959D01*
X16784Y-3116D02*
X16984Y-2959D01*
X16784Y-2887D02*
X16784Y-2773D01*
X16684Y-2845D02*
X16942Y-2845D01*
X16970Y-2830D01*
X16984Y-2802D01*
X16984Y-2773D01*
X16827Y-2345D02*
X16842Y-2302D01*
X16856Y-2287D01*
X16884Y-2273D01*
X16927Y-2273D01*
X16956Y-2287D01*
X16970Y-2302D01*
X16984Y-2330D01*
X16984Y-2445D01*
X16684Y-2445D01*
X16684Y-2345D01*
X16699Y-2316D01*
X16713Y-2302D01*
X16742Y-2287D01*
X16770Y-2287D01*
X16799Y-2302D01*
X16813Y-2316D01*
X16827Y-2345D01*
X16827Y-2445D01*
X16984Y-2016D02*
X16827Y-2016D01*
X16799Y-2030D01*
X16784Y-2059D01*
X16784Y-2116D01*
X16799Y-2145D01*
X16970Y-2016D02*
X16984Y-2045D01*
X16984Y-2116D01*
X16970Y-2145D01*
X16942Y-2159D01*
X16913Y-2159D01*
X16884Y-2145D01*
X16870Y-2116D01*
X16870Y-2045D01*
X16856Y-2016D01*
X16784Y-1916D02*
X16784Y-1802D01*
X16684Y-1874D02*
X16942Y-1874D01*
X16970Y-1859D01*
X16984Y-1831D01*
X16984Y-1802D01*
G54D17*
X20568Y-1806D02*
X20568Y-1349D01*
X20797Y-1578D02*
X20340Y-1578D01*
X20217Y-3447D02*
X20217Y-2990D01*
X36768Y5627D02*
X37196Y5627D01*
X37282Y5599D01*
X37339Y5542D01*
X37368Y5456D01*
X37368Y5399D01*
X37368Y6227D02*
X37368Y5884D01*
X37368Y6056D02*
X36768Y6056D01*
X36854Y5999D01*
X36911Y5941D01*
X36939Y5884D01*
X34681Y5149D02*
X35167Y5149D01*
X35224Y5177D01*
X35252Y5206D01*
X35281Y5263D01*
X35281Y5377D01*
X35252Y5435D01*
X35224Y5463D01*
X35167Y5492D01*
X34681Y5492D01*
X35252Y5749D02*
X35281Y5835D01*
X35281Y5978D01*
X35252Y6035D01*
X35224Y6064D01*
X35167Y6092D01*
X35109Y6092D01*
X35052Y6064D01*
X35024Y6035D01*
X34995Y5978D01*
X34967Y5864D01*
X34938Y5806D01*
X34909Y5778D01*
X34852Y5749D01*
X34795Y5749D01*
X34738Y5778D01*
X34709Y5806D01*
X34681Y5864D01*
X34681Y6006D01*
X34709Y6092D01*
X34967Y6549D02*
X34995Y6635D01*
X35024Y6663D01*
X35081Y6692D01*
X35167Y6692D01*
X35224Y6663D01*
X35252Y6635D01*
X35281Y6577D01*
X35281Y6349D01*
X34681Y6349D01*
X34681Y6549D01*
X34709Y6606D01*
X34738Y6635D01*
X34795Y6663D01*
X34852Y6663D01*
X34909Y6635D01*
X34938Y6606D01*
X34967Y6549D01*
X34967Y6349D01*
G54D15*
X30167Y13191D02*
X30167Y12948D01*
X30182Y12919D01*
X30196Y12905D01*
X30225Y12891D01*
X30282Y12891D01*
X30310Y12905D01*
X30325Y12919D01*
X30339Y12948D01*
X30339Y13191D01*
X30639Y12891D02*
X30467Y12891D01*
X30553Y12891D02*
X30553Y13191D01*
X30524Y13148D01*
X30496Y13119D01*
X30467Y13105D01*
X29634Y13670D02*
X29534Y13670D01*
X29534Y13513D02*
X29534Y13813D01*
X29677Y13813D01*
X29749Y13813D02*
X29920Y13813D01*
X29834Y13513D02*
X29834Y13813D01*
X30006Y13784D02*
X30020Y13798D01*
X30049Y13813D01*
X30120Y13813D01*
X30149Y13798D01*
X30163Y13784D01*
X30178Y13755D01*
X30178Y13727D01*
X30163Y13684D01*
X29992Y13513D01*
X30178Y13513D01*
X30278Y13813D02*
X30464Y13813D01*
X30364Y13698D01*
X30406Y13698D01*
X30435Y13684D01*
X30449Y13670D01*
X30464Y13641D01*
X30464Y13570D01*
X30449Y13541D01*
X30435Y13527D01*
X30406Y13513D01*
X30321Y13513D01*
X30292Y13527D01*
X30278Y13541D01*
X30578Y13784D02*
X30592Y13798D01*
X30621Y13813D01*
X30692Y13813D01*
X30721Y13798D01*
X30735Y13784D01*
X30750Y13755D01*
X30750Y13727D01*
X30735Y13684D01*
X30564Y13513D01*
X30750Y13513D01*
X31050Y13513D02*
X30950Y13655D01*
X30878Y13513D02*
X30878Y13813D01*
X30993Y13813D01*
X31021Y13798D01*
X31036Y13784D01*
X31050Y13755D01*
X31050Y13713D01*
X31036Y13684D01*
X31021Y13670D01*
X30993Y13655D01*
X30878Y13655D01*
X31321Y13513D02*
X31178Y13513D01*
X31178Y13813D01*
G54D10*
X1588Y-5030D02*
X1445Y-5030D01*
X1431Y-5173D01*
X1445Y-5159D01*
X1474Y-5145D01*
X1545Y-5145D01*
X1574Y-5159D01*
X1588Y-5173D01*
X1603Y-5202D01*
X1603Y-5273D01*
X1588Y-5302D01*
X1574Y-5316D01*
X1545Y-5330D01*
X1474Y-5330D01*
X1445Y-5316D01*
X1431Y-5302D01*
X1689Y-5030D02*
X1789Y-5330D01*
X1889Y-5030D01*
X2504Y-5030D02*
X2561Y-5030D01*
X2589Y-5045D01*
X2618Y-5073D01*
X2632Y-5130D01*
X2632Y-5230D01*
X2618Y-5288D01*
X2589Y-5316D01*
X2561Y-5330D01*
X2504Y-5330D01*
X2475Y-5316D01*
X2446Y-5288D01*
X2432Y-5230D01*
X2432Y-5130D01*
X2446Y-5073D01*
X2475Y-5045D01*
X2504Y-5030D01*
X2760Y-5030D02*
X2760Y-5273D01*
X2775Y-5302D01*
X2789Y-5316D01*
X2818Y-5330D01*
X2875Y-5330D01*
X2903Y-5316D01*
X2918Y-5302D01*
X2932Y-5273D01*
X2932Y-5030D01*
X3032Y-5030D02*
X3203Y-5030D01*
X3117Y-5330D02*
X3117Y-5030D01*
X1660Y-4497D02*
X1889Y-4497D01*
X2718Y-4497D02*
X2947Y-4497D01*
X2833Y-4611D02*
X2833Y-4383D01*
G54D17*
X26700Y10051D02*
X26100Y10051D01*
X26528Y10251D01*
X26100Y10451D01*
X26700Y10451D01*
X26700Y10737D02*
X26100Y10737D01*
X26643Y11366D02*
X26671Y11337D01*
X26700Y11251D01*
X26700Y11194D01*
X26671Y11109D01*
X26614Y11051D01*
X26557Y11023D01*
X26443Y10994D01*
X26357Y10994D01*
X26243Y11023D01*
X26186Y11051D01*
X26128Y11109D01*
X26100Y11194D01*
X26100Y11251D01*
X26128Y11337D01*
X26157Y11366D01*
X26157Y11594D02*
X26128Y11623D01*
X26100Y11680D01*
X26100Y11823D01*
X26128Y11880D01*
X26157Y11909D01*
X26214Y11937D01*
X26271Y11937D01*
X26357Y11909D01*
X26700Y11566D01*
X26700Y11937D01*
X26700Y12222D02*
X26700Y12337D01*
X26671Y12394D01*
X26643Y12422D01*
X26557Y12480D01*
X26443Y12508D01*
X26214Y12508D01*
X26157Y12480D01*
X26128Y12451D01*
X26100Y12394D01*
X26100Y12280D01*
X26128Y12222D01*
X26157Y12194D01*
X26214Y12165D01*
X26357Y12165D01*
X26414Y12194D01*
X26443Y12222D01*
X26471Y12280D01*
X26471Y12394D01*
X26443Y12451D01*
X26414Y12480D01*
X26357Y12508D01*
X26700Y13079D02*
X26700Y12736D01*
X26700Y12908D02*
X26100Y12908D01*
X26186Y12851D01*
X26243Y12793D01*
X26271Y12736D01*
X26100Y13622D02*
X26100Y13336D01*
X26386Y13307D01*
X26357Y13336D01*
X26328Y13393D01*
X26328Y13536D01*
X26357Y13593D01*
X26386Y13622D01*
X26443Y13650D01*
X26586Y13650D01*
X26643Y13622D01*
X26671Y13593D01*
X26700Y13536D01*
X26700Y13393D01*
X26671Y13336D01*
X26643Y13307D01*
X26700Y14221D02*
X26700Y13878D01*
X26700Y14050D02*
X26100Y14050D01*
X26186Y13993D01*
X26243Y13935D01*
X26271Y13878D01*
X26471Y14478D02*
X26471Y14935D01*
X26700Y15535D02*
X26700Y15192D01*
X26700Y15364D02*
X26100Y15364D01*
X26186Y15307D01*
X26243Y15249D01*
X26271Y15192D01*
X26157Y15763D02*
X26128Y15792D01*
X26100Y15849D01*
X26100Y15992D01*
X26128Y16049D01*
X26157Y16078D01*
X26214Y16106D01*
X26271Y16106D01*
X26357Y16078D01*
X26700Y15735D01*
X26700Y16106D01*
X26100Y16306D02*
X26700Y16449D01*
X26271Y16563D01*
X26700Y16677D01*
X26100Y16820D01*
X26100Y17049D02*
X26586Y17049D01*
X26643Y17077D01*
X26671Y17106D01*
X26700Y17163D01*
X26700Y17277D01*
X26671Y17335D01*
X26643Y17363D01*
X26586Y17392D01*
X26100Y17392D01*
X6384Y9829D02*
X5784Y9829D01*
X6212Y10029D01*
X5784Y10229D01*
X6384Y10229D01*
X6384Y10515D02*
X5784Y10515D01*
X6327Y11144D02*
X6355Y11115D01*
X6384Y11029D01*
X6384Y10972D01*
X6355Y10887D01*
X6298Y10829D01*
X6241Y10801D01*
X6127Y10772D01*
X6041Y10772D01*
X5927Y10801D01*
X5870Y10829D01*
X5812Y10887D01*
X5784Y10972D01*
X5784Y11029D01*
X5812Y11115D01*
X5841Y11144D01*
X5841Y11372D02*
X5812Y11401D01*
X5784Y11458D01*
X5784Y11601D01*
X5812Y11658D01*
X5841Y11687D01*
X5898Y11715D01*
X5955Y11715D01*
X6041Y11687D01*
X6384Y11344D01*
X6384Y11715D01*
X6384Y12000D02*
X6384Y12115D01*
X6355Y12172D01*
X6327Y12200D01*
X6241Y12258D01*
X6127Y12286D01*
X5898Y12286D01*
X5841Y12258D01*
X5812Y12229D01*
X5784Y12172D01*
X5784Y12058D01*
X5812Y12000D01*
X5841Y11972D01*
X5898Y11943D01*
X6041Y11943D01*
X6098Y11972D01*
X6127Y12000D01*
X6155Y12058D01*
X6155Y12172D01*
X6127Y12229D01*
X6098Y12258D01*
X6041Y12286D01*
X6384Y12857D02*
X6384Y12514D01*
X6384Y12686D02*
X5784Y12686D01*
X5870Y12629D01*
X5927Y12571D01*
X5955Y12514D01*
X5784Y13400D02*
X5784Y13114D01*
X6070Y13085D01*
X6041Y13114D01*
X6012Y13171D01*
X6012Y13314D01*
X6041Y13371D01*
X6070Y13400D01*
X6127Y13428D01*
X6270Y13428D01*
X6327Y13400D01*
X6355Y13371D01*
X6384Y13314D01*
X6384Y13171D01*
X6355Y13114D01*
X6327Y13085D01*
X6384Y13999D02*
X6384Y13656D01*
X6384Y13828D02*
X5784Y13828D01*
X5870Y13771D01*
X5927Y13713D01*
X5955Y13656D01*
X6155Y14256D02*
X6155Y14713D01*
X5784Y15285D02*
X5784Y14999D01*
X6070Y14970D01*
X6041Y14999D01*
X6012Y15056D01*
X6012Y15199D01*
X6041Y15256D01*
X6070Y15285D01*
X6127Y15313D01*
X6270Y15313D01*
X6327Y15285D01*
X6355Y15256D01*
X6384Y15199D01*
X6384Y15056D01*
X6355Y14999D01*
X6327Y14970D01*
X6327Y15570D02*
X6355Y15598D01*
X6384Y15570D01*
X6355Y15541D01*
X6327Y15570D01*
X6384Y15570D01*
X5784Y15970D02*
X5784Y16027D01*
X5812Y16084D01*
X5841Y16113D01*
X5898Y16142D01*
X6012Y16170D01*
X6155Y16170D01*
X6270Y16142D01*
X6327Y16113D01*
X6355Y16084D01*
X6384Y16027D01*
X6384Y15970D01*
X6355Y15913D01*
X6327Y15884D01*
X6270Y15856D01*
X6155Y15827D01*
X6012Y15827D01*
X5898Y15856D01*
X5841Y15884D01*
X5812Y15913D01*
X5784Y15970D01*
X5784Y16370D02*
X6384Y16513D01*
X5955Y16627D01*
X6384Y16741D01*
X5784Y16884D01*
X5784Y17113D02*
X6270Y17113D01*
X6327Y17141D01*
X6355Y17170D01*
X6384Y17227D01*
X6384Y17341D01*
X6355Y17399D01*
X6327Y17427D01*
X6270Y17456D01*
X5784Y17456D01*
G54D15*
X38654Y-4928D02*
X38425Y-4928D01*
X38539Y-4928D02*
X38539Y-4528D01*
X38501Y-4585D01*
X38463Y-4623D01*
X38425Y-4642D01*
X38806Y-4566D02*
X38825Y-4547D01*
X38863Y-4528D01*
X38959Y-4528D01*
X38997Y-4547D01*
X39016Y-4566D01*
X39035Y-4604D01*
X39035Y-4642D01*
X39016Y-4699D01*
X38787Y-4928D01*
X39035Y-4928D01*
X39149Y-4528D02*
X39282Y-4928D01*
X39416Y-4528D01*
G54D17*
G54D10*
X30737Y6227D02*
X30423Y6227D01*
X30423Y6346D01*
X30438Y6376D01*
X30453Y6391D01*
X30483Y6406D01*
X30528Y6406D01*
X30558Y6391D01*
X30573Y6376D01*
X30588Y6346D01*
X30588Y6227D01*
X30423Y6511D02*
X30737Y6586D01*
X30513Y6645D01*
X30737Y6705D01*
X30423Y6780D01*
X30737Y7079D02*
X30588Y6975D01*
X30737Y6900D02*
X30423Y6900D01*
X30423Y7019D01*
X30438Y7049D01*
X30453Y7064D01*
X30483Y7079D01*
X30528Y7079D01*
X30558Y7064D01*
X30573Y7049D01*
X30588Y7019D01*
X30588Y6900D01*
X30737Y7632D02*
X30588Y7528D01*
X30737Y7453D02*
X30423Y7453D01*
X30423Y7572D01*
X30438Y7602D01*
X30453Y7617D01*
X30483Y7632D01*
X30528Y7632D01*
X30558Y7617D01*
X30573Y7602D01*
X30588Y7572D01*
X30588Y7453D01*
X30722Y7886D02*
X30737Y7856D01*
X30737Y7797D01*
X30722Y7767D01*
X30692Y7752D01*
X30573Y7752D01*
X30543Y7767D01*
X30528Y7797D01*
X30528Y7856D01*
X30543Y7886D01*
X30573Y7901D01*
X30603Y7901D01*
X30632Y7752D01*
X30528Y8170D02*
X30782Y8170D01*
X30812Y8155D01*
X30827Y8140D01*
X30842Y8111D01*
X30842Y8066D01*
X30827Y8036D01*
X30722Y8170D02*
X30737Y8140D01*
X30737Y8081D01*
X30722Y8051D01*
X30707Y8036D01*
X30677Y8021D01*
X30588Y8021D01*
X30558Y8036D01*
X30543Y8051D01*
X30528Y8081D01*
X30528Y8140D01*
X30543Y8170D01*
X30707Y8320D02*
X30722Y8335D01*
X30737Y8320D01*
X30722Y8305D01*
X30707Y8320D01*
X30737Y8320D01*
X30423Y9426D02*
X30677Y9426D01*
X30707Y9441D01*
X30722Y9456D01*
X30737Y9486D01*
X30737Y9545D01*
X30722Y9575D01*
X30707Y9590D01*
X30677Y9605D01*
X30423Y9605D01*
X30722Y9740D02*
X30737Y9785D01*
X30737Y9859D01*
X30722Y9889D01*
X30707Y9904D01*
X30677Y9919D01*
X30647Y9919D01*
X30617Y9904D01*
X30603Y9889D01*
X30588Y9859D01*
X30573Y9800D01*
X30558Y9770D01*
X30543Y9755D01*
X30513Y9740D01*
X30483Y9740D01*
X30453Y9755D01*
X30438Y9770D01*
X30423Y9800D01*
X30423Y9874D01*
X30438Y9919D01*
X30573Y10158D02*
X30588Y10203D01*
X30603Y10218D01*
X30632Y10233D01*
X30677Y10233D01*
X30707Y10218D01*
X30722Y10203D01*
X30737Y10173D01*
X30737Y10054D01*
X30423Y10054D01*
X30423Y10158D01*
X30438Y10188D01*
X30453Y10203D01*
X30483Y10218D01*
X30513Y10218D01*
X30543Y10203D01*
X30558Y10188D01*
X30573Y10158D01*
X30573Y10054D01*
X28984Y5982D02*
X28984Y5864D01*
X29169Y5864D02*
X28815Y5864D01*
X28815Y6033D01*
X28815Y6117D02*
X28815Y6319D01*
X29169Y6218D02*
X28815Y6218D01*
X29169Y6437D02*
X28815Y6437D01*
X28815Y6522D01*
X28832Y6572D01*
X28866Y6606D01*
X28900Y6623D01*
X28967Y6640D01*
X29018Y6640D01*
X29085Y6623D01*
X29119Y6606D01*
X29152Y6572D01*
X29169Y6522D01*
X29169Y6437D01*
X29169Y6791D02*
X28815Y6791D01*
X29169Y7230D02*
X28815Y7230D01*
X28815Y7365D01*
X28832Y7399D01*
X28849Y7416D01*
X28883Y7433D01*
X28933Y7433D01*
X28967Y7416D01*
X28984Y7399D01*
X29001Y7365D01*
X29001Y7230D01*
X28815Y7551D02*
X29169Y7635D01*
X28916Y7702D01*
X29169Y7770D01*
X28815Y7854D01*
X29169Y8192D02*
X29001Y8074D01*
X29169Y7989D02*
X28815Y7989D01*
X28815Y8124D01*
X28832Y8158D01*
X28849Y8175D01*
X28883Y8192D01*
X28933Y8192D01*
X28967Y8175D01*
X28984Y8158D01*
X29001Y8124D01*
X29001Y7989D01*
X29152Y8596D02*
X29169Y8647D01*
X29169Y8731D01*
X29152Y8765D01*
X29136Y8782D01*
X29102Y8799D01*
X29068Y8799D01*
X29034Y8782D01*
X29018Y8765D01*
X29001Y8731D01*
X28984Y8664D01*
X28967Y8630D01*
X28950Y8613D01*
X28916Y8596D01*
X28883Y8596D01*
X28849Y8613D01*
X28832Y8630D01*
X28815Y8664D01*
X28815Y8748D01*
X28832Y8799D01*
X29152Y9085D02*
X29169Y9051D01*
X29169Y8984D01*
X29152Y8950D01*
X29119Y8933D01*
X28984Y8933D01*
X28950Y8950D01*
X28933Y8984D01*
X28933Y9051D01*
X28950Y9085D01*
X28984Y9102D01*
X29018Y9102D01*
X29051Y8933D01*
X29169Y9304D02*
X29152Y9270D01*
X29119Y9253D01*
X28815Y9253D01*
X29136Y9438D02*
X29152Y9455D01*
X29169Y9438D01*
X29152Y9421D01*
X29136Y9438D01*
X29169Y9438D01*
G54D15*
X13545Y-730D02*
X13426Y-813D01*
X13545Y-872D02*
X13295Y-872D01*
X13295Y-777D01*
X13307Y-753D01*
X13319Y-742D01*
X13343Y-730D01*
X13379Y-730D01*
X13402Y-742D01*
X13414Y-753D01*
X13426Y-777D01*
X13426Y-872D01*
X13545Y-492D02*
X13545Y-634D01*
X13545Y-563D02*
X13295Y-563D01*
X13331Y-587D01*
X13355Y-611D01*
X13367Y-634D01*
X12452Y-701D02*
X12333Y-784D01*
X12452Y-843D02*
X12202Y-843D01*
X12202Y-748D01*
X12214Y-724D01*
X12226Y-713D01*
X12250Y-701D01*
X12286Y-701D01*
X12309Y-713D01*
X12321Y-724D01*
X12333Y-748D01*
X12333Y-843D01*
X12226Y-605D02*
X12214Y-593D01*
X12202Y-570D01*
X12202Y-510D01*
X12214Y-486D01*
X12226Y-474D01*
X12250Y-463D01*
X12274Y-463D01*
X12309Y-474D01*
X12452Y-617D01*
X12452Y-463D01*
G54D10*
X22687Y134D02*
X22744Y115D01*
X22763Y96D01*
X22782Y57D01*
X22782Y0D01*
X22763Y-38D01*
X22744Y-57D01*
X22706Y-76D01*
X22553Y-76D01*
X22553Y324D01*
X22687Y324D01*
X22725Y305D01*
X22744Y286D01*
X22763Y248D01*
X22763Y210D01*
X22744Y172D01*
X22725Y153D01*
X22687Y134D01*
X22553Y134D01*
X23125Y-76D02*
X23125Y134D01*
X23106Y172D01*
X23068Y191D01*
X22991Y191D01*
X22953Y172D01*
X23125Y-57D02*
X23087Y-76D01*
X22991Y-76D01*
X22953Y-57D01*
X22934Y-19D01*
X22934Y19D01*
X22953Y57D01*
X22991Y76D01*
X23087Y76D01*
X23125Y96D01*
X23258Y191D02*
X23410Y191D01*
X23315Y324D02*
X23315Y-19D01*
X23334Y-57D01*
X23372Y-76D01*
X23410Y-76D01*
X23830Y-57D02*
X23887Y-76D01*
X23983Y-76D01*
X24021Y-57D01*
X24040Y-38D01*
X24059Y0D01*
X24059Y38D01*
X24040Y76D01*
X24021Y96D01*
X23983Y115D01*
X23906Y134D01*
X23868Y153D01*
X23849Y172D01*
X23830Y210D01*
X23830Y248D01*
X23849Y286D01*
X23868Y305D01*
X23906Y324D01*
X24002Y324D01*
X24059Y305D01*
X24383Y-57D02*
X24345Y-76D01*
X24268Y-76D01*
X24230Y-57D01*
X24211Y-19D01*
X24211Y134D01*
X24230Y172D01*
X24268Y191D01*
X24345Y191D01*
X24383Y172D01*
X24402Y134D01*
X24402Y96D01*
X24211Y57D01*
X24630Y-76D02*
X24592Y-57D01*
X24573Y-19D01*
X24573Y324D01*
X21386Y-1811D02*
X21386Y-1457D01*
X21555Y-1575D02*
X21555Y-1811D01*
X21555Y-1609D02*
X21572Y-1592D01*
X21606Y-1575D01*
X21656Y-1575D01*
X21690Y-1592D01*
X21707Y-1626D01*
X21707Y-1811D01*
X21825Y-1575D02*
X21960Y-1575D01*
X21875Y-1457D02*
X21875Y-1761D01*
X21892Y-1794D01*
X21926Y-1811D01*
X21960Y-1811D01*
X22465Y-1626D02*
X22516Y-1643D01*
X22533Y-1660D01*
X22550Y-1693D01*
X22550Y-1744D01*
X22533Y-1778D01*
X22516Y-1794D01*
X22482Y-1811D01*
X22347Y-1811D01*
X22347Y-1457D01*
X22465Y-1457D01*
X22499Y-1474D01*
X22516Y-1491D01*
X22533Y-1525D01*
X22533Y-1558D01*
X22516Y-1592D01*
X22499Y-1609D01*
X22465Y-1626D01*
X22347Y-1626D01*
X22853Y-1811D02*
X22853Y-1626D01*
X22836Y-1592D01*
X22802Y-1575D01*
X22735Y-1575D01*
X22701Y-1592D01*
X22853Y-1794D02*
X22819Y-1811D01*
X22735Y-1811D01*
X22701Y-1794D01*
X22684Y-1761D01*
X22684Y-1727D01*
X22701Y-1693D01*
X22735Y-1676D01*
X22819Y-1676D01*
X22853Y-1660D01*
X22971Y-1575D02*
X23106Y-1575D01*
X23021Y-1457D02*
X23021Y-1761D01*
X23038Y-1794D01*
X23072Y-1811D01*
X23106Y-1811D01*
X24033Y-1626D02*
X24151Y-1626D01*
X24202Y-1811D02*
X24033Y-1811D01*
X24033Y-1457D01*
X24202Y-1457D01*
X24320Y-1811D02*
X24505Y-1575D01*
X24320Y-1575D02*
X24505Y-1811D01*
X24590Y-1575D02*
X24725Y-1575D01*
X24640Y-1457D02*
X24640Y-1761D01*
X24657Y-1794D01*
X24691Y-1811D01*
X24725Y-1811D01*
X25230Y-1626D02*
X25281Y-1643D01*
X25298Y-1660D01*
X25315Y-1693D01*
X25315Y-1744D01*
X25298Y-1778D01*
X25281Y-1794D01*
X25247Y-1811D01*
X25112Y-1811D01*
X25112Y-1457D01*
X25230Y-1457D01*
X25264Y-1474D01*
X25281Y-1491D01*
X25298Y-1525D01*
X25298Y-1558D01*
X25281Y-1592D01*
X25264Y-1609D01*
X25230Y-1626D01*
X25112Y-1626D01*
X25618Y-1811D02*
X25618Y-1626D01*
X25601Y-1592D01*
X25567Y-1575D01*
X25500Y-1575D01*
X25466Y-1592D01*
X25618Y-1794D02*
X25584Y-1811D01*
X25500Y-1811D01*
X25466Y-1794D01*
X25449Y-1761D01*
X25449Y-1727D01*
X25466Y-1693D01*
X25500Y-1676D01*
X25584Y-1676D01*
X25618Y-1660D01*
X25736Y-1575D02*
X25871Y-1575D01*
X25786Y-1457D02*
X25786Y-1761D01*
X25803Y-1794D01*
X25837Y-1811D01*
X25871Y-1811D01*
G54D20*
X19402Y4660D02*
X19421Y4641D01*
X19440Y4584D01*
X19440Y4546D01*
X19421Y4488D01*
X19383Y4450D01*
X19345Y4431D01*
X19268Y4412D01*
X19211Y4412D01*
X19135Y4431D01*
X19097Y4450D01*
X19059Y4488D01*
X19040Y4546D01*
X19040Y4584D01*
X19059Y4641D01*
X19078Y4660D01*
X19040Y4793D02*
X19040Y5041D01*
X19192Y4907D01*
X19192Y4965D01*
X19211Y5003D01*
X19230Y5022D01*
X19268Y5041D01*
X19364Y5041D01*
X19402Y5022D01*
X19421Y5003D01*
X19440Y4965D01*
X19440Y4850D01*
X19421Y4812D01*
X19402Y4793D01*
X21140Y4148D02*
X21140Y3919D01*
X21140Y4033D02*
X20740Y4033D01*
X20797Y3995D01*
X20835Y3957D01*
X20854Y3919D01*
X20740Y4395D02*
X20740Y4434D01*
X20759Y4472D01*
X20778Y4491D01*
X20816Y4510D01*
X20892Y4529D01*
X20988Y4529D01*
X21064Y4510D01*
X21102Y4491D01*
X21121Y4472D01*
X21140Y4434D01*
X21140Y4395D01*
X21121Y4357D01*
X21102Y4338D01*
X21064Y4319D01*
X20988Y4300D01*
X20892Y4300D01*
X20816Y4319D01*
X20778Y4338D01*
X20759Y4357D01*
X20740Y4395D01*
X20873Y4872D02*
X21140Y4872D01*
X20873Y4700D02*
X21083Y4700D01*
X21121Y4719D01*
X21140Y4757D01*
X21140Y4815D01*
X21121Y4853D01*
X21102Y4872D01*
X20930Y5196D02*
X20930Y5062D01*
X21140Y5062D02*
X20740Y5062D01*
X20740Y5253D01*
G54D21*
X20742Y5598D02*
X20742Y6055D01*
X20971Y5826D02*
X20514Y5826D01*
G54D20*
X7690Y4431D02*
X7709Y4412D01*
X7728Y4355D01*
X7728Y4317D01*
X7709Y4259D01*
X7671Y4221D01*
X7633Y4202D01*
X7556Y4183D01*
X7499Y4183D01*
X7423Y4202D01*
X7385Y4221D01*
X7347Y4259D01*
X7328Y4317D01*
X7328Y4355D01*
X7347Y4412D01*
X7366Y4431D01*
X7461Y4774D02*
X7728Y4774D01*
X7309Y4678D02*
X7595Y4583D01*
X7595Y4831D01*
X9329Y4148D02*
X9329Y3919D01*
X9329Y4033D02*
X8929Y4033D01*
X8986Y3995D01*
X9024Y3957D01*
X9043Y3919D01*
X8929Y4395D02*
X8929Y4434D01*
X8948Y4472D01*
X8967Y4491D01*
X9005Y4510D01*
X9081Y4529D01*
X9177Y4529D01*
X9253Y4510D01*
X9291Y4491D01*
X9310Y4472D01*
X9329Y4434D01*
X9329Y4395D01*
X9310Y4357D01*
X9291Y4338D01*
X9253Y4319D01*
X9177Y4300D01*
X9081Y4300D01*
X9005Y4319D01*
X8967Y4338D01*
X8948Y4357D01*
X8929Y4395D01*
X9062Y4872D02*
X9329Y4872D01*
X9062Y4700D02*
X9272Y4700D01*
X9310Y4719D01*
X9329Y4757D01*
X9329Y4815D01*
X9310Y4853D01*
X9291Y4872D01*
X9119Y5196D02*
X9119Y5062D01*
X9329Y5062D02*
X8929Y5062D01*
X8929Y5253D01*
G54D21*
X8931Y5598D02*
X8931Y6055D01*
X9160Y5826D02*
X8703Y5826D01*
G54D15*
X15431Y4684D02*
X15443Y4672D01*
X15455Y4637D01*
X15455Y4613D01*
X15443Y4577D01*
X15419Y4553D01*
X15396Y4542D01*
X15348Y4530D01*
X15312Y4530D01*
X15265Y4542D01*
X15241Y4553D01*
X15217Y4577D01*
X15205Y4613D01*
X15205Y4637D01*
X15217Y4672D01*
X15229Y4684D01*
X15312Y4827D02*
X15300Y4803D01*
X15289Y4792D01*
X15265Y4780D01*
X15253Y4780D01*
X15229Y4792D01*
X15217Y4803D01*
X15205Y4827D01*
X15205Y4875D01*
X15217Y4899D01*
X15229Y4911D01*
X15253Y4922D01*
X15265Y4922D01*
X15289Y4911D01*
X15300Y4899D01*
X15312Y4875D01*
X15312Y4827D01*
X15324Y4803D01*
X15336Y4792D01*
X15360Y4780D01*
X15408Y4780D01*
X15431Y4792D01*
X15443Y4803D01*
X15455Y4827D01*
X15455Y4875D01*
X15443Y4899D01*
X15431Y4911D01*
X15408Y4922D01*
X15360Y4922D01*
X15336Y4911D01*
X15324Y4899D01*
X15312Y4875D01*
X28661Y10404D02*
X28649Y10392D01*
X28614Y10380D01*
X28590Y10380D01*
X28554Y10392D01*
X28530Y10416D01*
X28519Y10439D01*
X28507Y10487D01*
X28507Y10523D01*
X28519Y10570D01*
X28530Y10594D01*
X28554Y10618D01*
X28590Y10630D01*
X28614Y10630D01*
X28649Y10618D01*
X28661Y10606D01*
X28757Y10606D02*
X28769Y10618D01*
X28792Y10630D01*
X28852Y10630D01*
X28876Y10618D01*
X28888Y10606D01*
X28899Y10582D01*
X28899Y10558D01*
X28888Y10523D01*
X28745Y10380D01*
X28899Y10380D01*
X30561Y10304D02*
X30549Y10292D01*
X30514Y10280D01*
X30490Y10280D01*
X30454Y10292D01*
X30430Y10316D01*
X30419Y10339D01*
X30407Y10387D01*
X30407Y10423D01*
X30419Y10470D01*
X30430Y10494D01*
X30454Y10518D01*
X30490Y10530D01*
X30514Y10530D01*
X30549Y10518D01*
X30561Y10506D01*
X30799Y10280D02*
X30657Y10280D01*
X30728Y10280D02*
X30728Y10530D01*
X30704Y10494D01*
X30680Y10470D01*
X30657Y10458D01*
G54D20*
X11528Y4660D02*
X11547Y4641D01*
X11566Y4584D01*
X11566Y4546D01*
X11547Y4488D01*
X11509Y4450D01*
X11471Y4431D01*
X11394Y4412D01*
X11337Y4412D01*
X11261Y4431D01*
X11223Y4450D01*
X11185Y4488D01*
X11166Y4546D01*
X11166Y4584D01*
X11185Y4641D01*
X11204Y4660D01*
X11166Y5003D02*
X11166Y4926D01*
X11185Y4888D01*
X11204Y4869D01*
X11261Y4831D01*
X11337Y4812D01*
X11490Y4812D01*
X11528Y4831D01*
X11547Y4850D01*
X11566Y4888D01*
X11566Y4965D01*
X11547Y5003D01*
X11528Y5022D01*
X11490Y5041D01*
X11394Y5041D01*
X11356Y5022D01*
X11337Y5003D01*
X11318Y4965D01*
X11318Y4888D01*
X11337Y4850D01*
X11356Y4831D01*
X11394Y4812D01*
X13266Y4148D02*
X13266Y3919D01*
X13266Y4033D02*
X12866Y4033D01*
X12923Y3995D01*
X12961Y3957D01*
X12980Y3919D01*
X12866Y4395D02*
X12866Y4434D01*
X12885Y4472D01*
X12904Y4491D01*
X12942Y4510D01*
X13018Y4529D01*
X13114Y4529D01*
X13190Y4510D01*
X13228Y4491D01*
X13247Y4472D01*
X13266Y4434D01*
X13266Y4395D01*
X13247Y4357D01*
X13228Y4338D01*
X13190Y4319D01*
X13114Y4300D01*
X13018Y4300D01*
X12942Y4319D01*
X12904Y4338D01*
X12885Y4357D01*
X12866Y4395D01*
X12999Y4872D02*
X13266Y4872D01*
X12999Y4700D02*
X13209Y4700D01*
X13247Y4719D01*
X13266Y4757D01*
X13266Y4815D01*
X13247Y4853D01*
X13228Y4872D01*
X13056Y5196D02*
X13056Y5062D01*
X13266Y5062D02*
X12866Y5062D01*
X12866Y5253D01*
G54D21*
X12868Y5598D02*
X12868Y6055D01*
X13097Y5826D02*
X12640Y5826D01*
G54D12*
X29569Y16399D02*
X29435Y16590D01*
X29340Y16399D02*
X29340Y16799D01*
X29493Y16799D01*
X29531Y16780D01*
X29550Y16761D01*
X29569Y16723D01*
X29569Y16666D01*
X29550Y16628D01*
X29531Y16609D01*
X29493Y16590D01*
X29340Y16590D01*
X29740Y16609D02*
X29874Y16609D01*
X29931Y16399D02*
X29740Y16399D01*
X29740Y16799D01*
X29931Y16799D01*
X30083Y16418D02*
X30140Y16399D01*
X30236Y16399D01*
X30274Y16418D01*
X30293Y16437D01*
X30312Y16475D01*
X30312Y16513D01*
X30293Y16551D01*
X30274Y16571D01*
X30236Y16590D01*
X30159Y16609D01*
X30121Y16628D01*
X30102Y16647D01*
X30083Y16685D01*
X30083Y16723D01*
X30102Y16761D01*
X30121Y16780D01*
X30159Y16799D01*
X30255Y16799D01*
X30312Y16780D01*
X30483Y16609D02*
X30617Y16609D01*
X30674Y16399D02*
X30483Y16399D01*
X30483Y16799D01*
X30674Y16799D01*
X30788Y16799D02*
X31017Y16799D01*
X30902Y16399D02*
X30902Y16799D01*
G54D20*
X23339Y4660D02*
X23358Y4641D01*
X23377Y4584D01*
X23377Y4546D01*
X23358Y4488D01*
X23320Y4450D01*
X23282Y4431D01*
X23205Y4412D01*
X23148Y4412D01*
X23072Y4431D01*
X23034Y4450D01*
X22996Y4488D01*
X22977Y4546D01*
X22977Y4584D01*
X22996Y4641D01*
X23015Y4660D01*
X22977Y5022D02*
X22977Y4831D01*
X23167Y4812D01*
X23148Y4831D01*
X23129Y4869D01*
X23129Y4965D01*
X23148Y5003D01*
X23167Y5022D01*
X23205Y5041D01*
X23301Y5041D01*
X23339Y5022D01*
X23358Y5003D01*
X23377Y4965D01*
X23377Y4869D01*
X23358Y4831D01*
X23339Y4812D01*
X25077Y4148D02*
X25077Y3919D01*
X25077Y4033D02*
X24677Y4033D01*
X24734Y3995D01*
X24772Y3957D01*
X24791Y3919D01*
X24677Y4395D02*
X24677Y4434D01*
X24696Y4472D01*
X24715Y4491D01*
X24753Y4510D01*
X24829Y4529D01*
X24925Y4529D01*
X25001Y4510D01*
X25039Y4491D01*
X25058Y4472D01*
X25077Y4434D01*
X25077Y4395D01*
X25058Y4357D01*
X25039Y4338D01*
X25001Y4319D01*
X24925Y4300D01*
X24829Y4300D01*
X24753Y4319D01*
X24715Y4338D01*
X24696Y4357D01*
X24677Y4395D01*
X24810Y4872D02*
X25077Y4872D01*
X24810Y4700D02*
X25020Y4700D01*
X25058Y4719D01*
X25077Y4757D01*
X25077Y4815D01*
X25058Y4853D01*
X25039Y4872D01*
X24867Y5196D02*
X24867Y5062D01*
X25077Y5062D02*
X24677Y5062D01*
X24677Y5253D01*
G54D21*
X24679Y5598D02*
X24679Y6055D01*
X24908Y5826D02*
X24451Y5826D01*
G54D15*
X27242Y4684D02*
X27254Y4672D01*
X27266Y4637D01*
X27266Y4613D01*
X27254Y4577D01*
X27230Y4553D01*
X27207Y4542D01*
X27159Y4530D01*
X27123Y4530D01*
X27076Y4542D01*
X27052Y4553D01*
X27028Y4577D01*
X27016Y4613D01*
X27016Y4637D01*
X27028Y4672D01*
X27040Y4684D01*
X27016Y4768D02*
X27016Y4934D01*
X27266Y4827D01*
X33956Y-481D02*
X33727Y-481D01*
X33841Y-481D02*
X33841Y-81D01*
X33803Y-138D01*
X33765Y-176D01*
X33727Y-195D01*
X34108Y-119D02*
X34127Y-100D01*
X34165Y-81D01*
X34261Y-81D01*
X34299Y-100D01*
X34318Y-119D01*
X34337Y-157D01*
X34337Y-195D01*
X34318Y-252D01*
X34089Y-481D01*
X34337Y-481D01*
X34451Y-81D02*
X34584Y-481D01*
X34718Y-81D01*
G54D17*
X34026Y-4754D02*
X33969Y-4726D01*
X33883Y-4726D01*
X33798Y-4754D01*
X33740Y-4812D01*
X33712Y-4869D01*
X33683Y-4983D01*
X33683Y-5069D01*
X33712Y-5183D01*
X33740Y-5240D01*
X33798Y-5297D01*
X33883Y-5326D01*
X33940Y-5326D01*
X34026Y-5297D01*
X34055Y-5269D01*
X34055Y-5069D01*
X33940Y-5069D01*
X34312Y-5326D02*
X34312Y-4726D01*
X34655Y-5326D01*
X34655Y-4726D01*
X34941Y-5326D02*
X34941Y-4726D01*
X35084Y-4726D01*
X35169Y-4754D01*
X35227Y-4812D01*
X35255Y-4869D01*
X35284Y-4983D01*
X35284Y-5069D01*
X35255Y-5183D01*
X35227Y-5240D01*
X35169Y-5297D01*
X35084Y-5326D01*
X34941Y-5326D01*
M02*
