G04 (created by PCBNEW-RS274X (2011-nov-30)-testing) date Wed 02 May 2012 06:15:17 PM EDT*
G01*
G70*
G90*
%MOIN*%
G04 Gerber Fmt 3.4, Leading zero omitted, Abs format*
%FSLAX34Y34*%
G04 APERTURE LIST*
%ADD10C,0.006000*%
%ADD11R,0.059400X0.169600*%
%ADD12R,0.820000X0.598700*%
%ADD13R,0.098700X0.256200*%
%ADD14C,0.080000*%
%ADD15C,0.126300*%
%ADD16R,0.036000X0.070000*%
%ADD17R,0.075000X0.055000*%
%ADD18R,0.055000X0.075000*%
%ADD19R,0.080000X0.080000*%
%ADD20C,0.074000*%
%ADD21R,0.146000X0.098700*%
%ADD22R,0.105400X0.146000*%
%ADD23C,0.090000*%
%ADD24R,0.090000X0.090000*%
%ADD25R,0.070000X0.135000*%
%ADD26R,0.155000X0.085000*%
G04 APERTURE END LIST*
G54D10*
G54D11*
X25433Y12047D03*
X26103Y12047D03*
X26772Y12047D03*
X27441Y12047D03*
X28111Y12047D03*
G54D12*
X26772Y16929D03*
G54D11*
X06063Y08425D03*
X05393Y08425D03*
X04724Y08425D03*
X04055Y08425D03*
X03385Y08425D03*
G54D12*
X04724Y03543D03*
G54D13*
X08267Y07874D03*
X01181Y07874D03*
G54D14*
X28059Y05787D03*
X27059Y05787D03*
X27059Y05000D03*
X28059Y05000D03*
G54D15*
X29921Y03937D03*
X25197Y03937D03*
G54D16*
X18036Y06474D03*
X18286Y06474D03*
X18546Y06474D03*
X18806Y06474D03*
X19056Y06474D03*
X19316Y06474D03*
X19576Y06474D03*
X19826Y06474D03*
X20086Y06474D03*
X20336Y06474D03*
X20596Y06474D03*
X20856Y06474D03*
X21106Y06474D03*
X21366Y06474D03*
X21366Y09274D03*
X21106Y09274D03*
X20866Y09274D03*
X20596Y09274D03*
X20336Y09274D03*
X20086Y09274D03*
X19826Y09274D03*
X19576Y09274D03*
X19316Y09274D03*
X19056Y09274D03*
X18806Y09274D03*
X18546Y09274D03*
X18286Y09274D03*
X18036Y09274D03*
G54D17*
X13272Y14506D03*
X13272Y15256D03*
X16772Y14506D03*
X16772Y15256D03*
G54D18*
X02737Y14567D03*
X01987Y14567D03*
X04743Y16142D03*
X05493Y16142D03*
X04743Y14567D03*
X05493Y14567D03*
X25965Y09055D03*
X25215Y09055D03*
X02737Y16142D03*
X01987Y16142D03*
G54D17*
X20866Y11042D03*
X20866Y11792D03*
G54D19*
X13205Y04330D03*
G54D14*
X12205Y04330D03*
X11205Y04330D03*
G54D19*
X05799Y18898D03*
G54D14*
X06799Y18898D03*
G54D19*
X01468Y18898D03*
G54D14*
X02468Y18898D03*
G54D19*
X11705Y01181D03*
G54D14*
X12705Y01181D03*
G54D20*
X19285Y02468D03*
X20135Y02468D03*
X20935Y03468D03*
X18435Y03468D03*
X18435Y02468D03*
X20935Y02468D03*
G54D21*
X19685Y01268D03*
G54D22*
X22435Y01468D03*
X16935Y01468D03*
G54D20*
X20135Y03468D03*
G54D23*
X12205Y09874D03*
G54D24*
X12205Y05874D03*
G54D25*
X18504Y15960D03*
X18504Y14160D03*
G54D26*
X17054Y18110D03*
X19954Y18110D03*
G54D25*
X11417Y15960D03*
X11417Y14160D03*
G54D26*
X09967Y18110D03*
X12867Y18110D03*
M02*
